<?xml version="1.0" encoding="utf-8" standalone="no"?>
<!DOCTYPE svg PUBLIC "-//W3C//DTD SVG 1.1//EN"
  "http://www.w3.org/Graphics/SVG/1.1/DTD/svg11.dtd">
<svg xmlns:xlink="http://www.w3.org/1999/xlink" width="360pt" height="288pt" viewBox="0 0 360 288" xmlns="http://www.w3.org/2000/svg" version="1.1">
 <metadata>
  <rdf:RDF xmlns:dc="http://purl.org/dc/elements/1.1/" xmlns:cc="http://creativecommons.org/ns#" xmlns:rdf="http://www.w3.org/1999/02/22-rdf-syntax-ns#">
   <cc:Work>
    <dc:type rdf:resource="http://purl.org/dc/dcmitype/StillImage"/>
    <dc:date>2025-10-02T17:14:42.642649</dc:date>
    <dc:format>image/svg+xml</dc:format>
    <dc:creator>
     <cc:Agent>
      <dc:title>Matplotlib v3.10.6, https://matplotlib.org/</dc:title>
     </cc:Agent>
    </dc:creator>
   </cc:Work>
  </rdf:RDF>
 </metadata>
 <defs>
  <style type="text/css">*{stroke-linejoin: round; stroke-linecap: butt}</style>
 </defs>
 <g id="figure_1">
  <g id="patch_1">
   <path d="M 0 288 
L 360 288 
L 360 0 
L 0 0 
z
" style="fill: #ffffff"/>
  </g>
  <g id="axes_1">
   <g id="patch_2">
    <path d="M 62.84 240.28 
L 349.2 240.28 
L 349.2 26.88 
L 62.84 26.88 
z
" style="fill: #ffffff"/>
   </g>
   <g id="QuadContourSet_1">
    <path d="M 86.703333 26.88 
L 87.34519 26.88 
L 87.20545 36.380776 
L 87.147626 47.600163 
L 87.116265 60.808896 
L 87.114036 76.198006 
L 87.125567 93.757994 
L 87.16167 113.137869 
L 87.221397 133.590571 
L 87.14624 154.013971 
L 87.126043 173.39493 
L 87.075528 190.956403 
L 87.035548 206.347113 
L 87.076653 219.557363 
L 87.118498 230.778089 
L 87.223908 240.28 
L 86.703333 240.28 
L 62.84 240.28 
L 62.84 230.778089 
L 62.84 219.557363 
L 62.84 206.347113 
L 62.84 190.956403 
L 62.84 173.39493 
L 62.84 154.013971 
L 62.84 133.590571 
L 62.84 113.137869 
L 62.84 93.757994 
L 62.84 76.198006 
L 62.84 60.808896 
L 62.84 47.600163 
L 62.84 36.380776 
L 62.84 26.88 
z
M 325.336667 26.88 
L 349.2 26.88 
L 349.2 36.380776 
L 349.2 47.600163 
L 349.2 60.808896 
L 349.2 76.198006 
L 349.2 93.757994 
L 349.2 113.137869 
L 349.2 133.590571 
L 349.2 154.013971 
L 349.2 173.39493 
L 349.2 190.956403 
L 349.2 206.347113 
L 349.2 219.557363 
L 349.2 230.778089 
L 349.2 240.28 
L 325.336667 240.28 
L 324.924028 240.28 
L 324.958354 230.778089 
L 324.958304 219.557363 
L 324.90023 206.347113 
L 324.839016 190.956403 
L 324.901582 173.39493 
L 324.940276 154.013971 
L 324.946422 133.590571 
L 324.965214 113.137869 
L 325.00661 93.757994 
L 324.989641 76.198006 
L 324.940784 60.808896 
L 324.890398 47.600163 
L 324.804671 36.380776 
L 324.777142 26.88 
z
" clip-path="url(#pdb90e2600b)" style="fill: #460a5d"/>
    <path d="M 89.694517 36.380776 
L 89.35005 47.600163 
L 89.163229 60.808896 
L 89.149951 76.198006 
L 89.218641 93.757994 
L 89.433713 113.137869 
L 89.789517 133.590571 
L 89.341796 154.013971 
L 89.221476 173.39493 
L 88.920554 190.956403 
L 88.682383 206.347113 
L 88.927253 219.557363 
L 89.176531 230.778089 
L 89.804477 240.28 
L 87.223908 240.28 
L 87.118498 230.778089 
L 87.076653 219.557363 
L 87.035548 206.347113 
L 87.075528 190.956403 
L 87.126043 173.39493 
L 87.14624 154.013971 
L 87.221397 133.590571 
L 87.16167 113.137869 
L 87.125567 93.757994 
L 87.114036 76.198006 
L 87.116265 60.808896 
L 87.147626 47.600163 
L 87.20545 36.380776 
L 87.34519 26.88 
L 90.526967 26.88 
z
M 324.804671 36.380776 
L 324.890398 47.600163 
L 324.940784 60.808896 
L 324.989641 76.198006 
L 325.00661 93.757994 
L 324.965214 113.137869 
L 324.946422 133.590571 
L 324.940276 154.013971 
L 324.901582 173.39493 
L 324.839016 190.956403 
L 324.90023 206.347113 
L 324.958304 219.557363 
L 324.958354 230.778089 
L 324.924028 240.28 
L 322.878519 240.28 
L 323.083003 230.778089 
L 323.082706 219.557363 
L 322.736746 206.347113 
L 322.37209 190.956403 
L 322.744803 173.39493 
L 322.975307 154.013971 
L 323.011918 133.590571 
L 323.123868 113.137869 
L 323.370468 93.757994 
L 323.269385 76.198006 
L 322.978335 60.808896 
L 322.678175 47.600163 
L 322.167491 36.380776 
L 322.003493 26.88 
L 324.777142 26.88 
z
" clip-path="url(#pdb90e2600b)" style="fill: #481d6f"/>
    <path d="M 92.183583 36.380776 
L 91.552474 47.600163 
L 91.210192 60.808896 
L 91.185866 76.198006 
L 91.311716 93.757994 
L 91.705756 113.137869 
L 92.357637 133.590571 
L 91.537351 154.013971 
L 91.31691 173.39493 
L 90.76558 190.956403 
L 90.329219 206.347113 
L 90.777854 219.557363 
L 91.234564 230.778089 
L 92.385045 240.28 
L 89.804477 240.28 
L 89.176531 230.778089 
L 88.927253 219.557363 
L 88.682383 206.347113 
L 88.920554 190.956403 
L 89.221476 173.39493 
L 89.341796 154.013971 
L 89.789517 133.590571 
L 89.433713 113.137869 
L 89.218641 93.757994 
L 89.149951 76.198006 
L 89.163229 60.808896 
L 89.35005 47.600163 
L 89.694517 36.380776 
L 90.526967 26.88 
L 93.708745 26.88 
z
M 322.167491 36.380776 
L 322.678175 47.600163 
L 322.978335 60.808896 
L 323.269385 76.198006 
L 323.370468 93.757994 
L 323.123868 113.137869 
L 323.011918 133.590571 
L 322.975307 154.013971 
L 322.744803 173.39493 
L 322.37209 190.956403 
L 322.736746 206.347113 
L 323.082706 219.557363 
L 323.083003 230.778089 
L 322.878519 240.28 
L 320.83301 240.28 
L 321.207652 230.778089 
L 321.207107 219.557363 
L 320.573263 206.347113 
L 319.905163 190.956403 
L 320.588023 173.39493 
L 321.010338 154.013971 
L 321.077415 133.590571 
L 321.282522 113.137869 
L 321.734326 93.757994 
L 321.549129 76.198006 
L 321.015886 60.808896 
L 320.465953 47.600163 
L 319.530311 36.380776 
L 319.229845 26.88 
L 322.003493 26.88 
z
" clip-path="url(#pdb90e2600b)" style="fill: #472e7c"/>
    <path d="M 94.67265 36.380776 
L 93.754898 47.600163 
L 93.257156 60.808896 
L 93.221781 76.198006 
L 93.40479 93.757994 
L 93.977799 113.137869 
L 94.925757 133.590571 
L 93.732906 154.013971 
L 93.412343 173.39493 
L 92.610605 190.956403 
L 91.976055 206.347113 
L 92.628455 219.557363 
L 93.292597 230.778089 
L 94.965613 240.28 
L 92.385045 240.28 
L 91.234564 230.778089 
L 90.777854 219.557363 
L 90.329219 206.347113 
L 90.76558 190.956403 
L 91.31691 173.39493 
L 91.537351 154.013971 
L 92.357637 133.590571 
L 91.705756 113.137869 
L 91.311716 93.757994 
L 91.185866 76.198006 
L 91.210192 60.808896 
L 91.552474 47.600163 
L 92.183583 36.380776 
L 93.708745 26.88 
L 96.890523 26.88 
z
M 319.530311 36.380776 
L 320.465953 47.600163 
L 321.015886 60.808896 
L 321.549129 76.198006 
L 321.734326 93.757994 
L 321.282522 113.137869 
L 321.077415 133.590571 
L 321.010338 154.013971 
L 320.588023 173.39493 
L 319.905163 190.956403 
L 320.573263 206.347113 
L 321.207107 219.557363 
L 321.207652 230.778089 
L 320.83301 240.28 
L 318.7875 240.28 
L 319.3323 230.778089 
L 319.331509 219.557363 
L 318.409779 206.347113 
L 317.438236 190.956403 
L 318.431244 173.39493 
L 319.045369 154.013971 
L 319.142912 133.590571 
L 319.441177 113.137869 
L 320.098184 93.757994 
L 319.828872 76.198006 
L 319.053438 60.808896 
L 318.25373 47.600163 
L 316.893131 36.380776 
L 316.456197 26.88 
L 319.229845 26.88 
z
" clip-path="url(#pdb90e2600b)" style="fill: #423f85"/>
    <path d="M 97.161717 36.380776 
L 95.957322 47.600163 
L 95.30412 60.808896 
L 95.257696 76.198006 
L 95.497864 93.757994 
L 96.249842 113.137869 
L 97.493877 133.590571 
L 95.928461 154.013971 
L 95.507777 173.39493 
L 94.455631 190.956403 
L 93.62289 206.347113 
L 94.479055 219.557363 
L 95.35063 230.778089 
L 97.546182 240.28 
L 94.965613 240.28 
L 93.292597 230.778089 
L 92.628455 219.557363 
L 91.976055 206.347113 
L 92.610605 190.956403 
L 93.412343 173.39493 
L 93.732906 154.013971 
L 94.925757 133.590571 
L 93.977799 113.137869 
L 93.40479 93.757994 
L 93.221781 76.198006 
L 93.257156 60.808896 
L 93.754898 47.600163 
L 94.67265 36.380776 
L 96.890523 26.88 
L 100.072301 26.88 
z
M 316.893131 36.380776 
L 318.25373 47.600163 
L 319.053438 60.808896 
L 319.828872 76.198006 
L 320.098184 93.757994 
L 319.441177 113.137869 
L 319.142912 133.590571 
L 319.045369 154.013971 
L 318.431244 173.39493 
L 317.438236 190.956403 
L 318.409779 206.347113 
L 319.331509 219.557363 
L 319.3323 230.778089 
L 318.7875 240.28 
L 316.741991 240.28 
L 317.456949 230.778089 
L 317.45591 219.557363 
L 316.246296 206.347113 
L 314.97131 190.956403 
L 316.274465 173.39493 
L 317.0804 154.013971 
L 317.208409 133.590571 
L 317.599831 113.137869 
L 318.462042 93.757994 
L 318.108616 76.198006 
L 317.090989 60.808896 
L 316.041508 47.600163 
L 314.255951 36.380776 
L 313.682548 26.88 
L 316.456197 26.88 
z
" clip-path="url(#pdb90e2600b)" style="fill: #3d4e8a"/>
    <path d="M 99.650784 36.380776 
L 98.159747 47.600163 
L 97.351084 60.808896 
L 97.293611 76.198006 
L 97.590939 93.757994 
L 98.521885 113.137869 
L 100.061997 133.590571 
L 98.124017 154.013971 
L 97.603211 173.39493 
L 96.300657 190.956403 
L 95.269726 206.347113 
L 96.329656 219.557363 
L 97.408663 230.778089 
L 100.12675 240.28 
L 97.546182 240.28 
L 95.35063 230.778089 
L 94.479055 219.557363 
L 93.62289 206.347113 
L 94.455631 190.956403 
L 95.507777 173.39493 
L 95.928461 154.013971 
L 97.493877 133.590571 
L 96.249842 113.137869 
L 95.497864 93.757994 
L 95.257696 76.198006 
L 95.30412 60.808896 
L 95.957322 47.600163 
L 97.161717 36.380776 
L 100.072301 26.88 
L 103.254079 26.88 
z
M 314.255951 36.380776 
L 316.041508 47.600163 
L 317.090989 60.808896 
L 318.108616 76.198006 
L 318.462042 93.757994 
L 317.599831 113.137869 
L 317.208409 133.590571 
L 317.0804 154.013971 
L 316.274465 173.39493 
L 314.97131 190.956403 
L 316.246296 206.347113 
L 317.45591 219.557363 
L 317.456949 230.778089 
L 316.741991 240.28 
L 314.696482 240.28 
L 315.581598 230.778089 
L 315.580312 219.557363 
L 314.082813 206.347113 
L 312.504383 190.956403 
L 314.117686 173.39493 
L 315.115431 154.013971 
L 315.273906 133.590571 
L 315.758485 113.137869 
L 316.825899 93.757994 
L 316.388359 76.198006 
L 315.12854 60.808896 
L 313.829286 47.600163 
L 311.618771 36.380776 
L 310.9089 26.88 
L 313.682548 26.88 
z
" clip-path="url(#pdb90e2600b)" style="fill: #365d8d"/>
    <path d="M 102.139851 36.380776 
L 100.362171 47.600163 
L 99.398047 60.808896 
L 99.329525 76.198006 
L 99.684013 93.757994 
L 100.793928 113.137869 
L 102.630117 133.590571 
L 100.319572 154.013971 
L 99.698644 173.39493 
L 98.145683 190.956403 
L 96.916561 206.347113 
L 98.180256 219.557363 
L 99.466696 230.778089 
L 102.707318 240.28 
L 100.12675 240.28 
L 97.408663 230.778089 
L 96.329656 219.557363 
L 95.269726 206.347113 
L 96.300657 190.956403 
L 97.603211 173.39493 
L 98.124017 154.013971 
L 100.061997 133.590571 
L 98.521885 113.137869 
L 97.590939 93.757994 
L 97.293611 76.198006 
L 97.351084 60.808896 
L 98.159747 47.600163 
L 99.650784 36.380776 
L 103.254079 26.88 
L 106.435856 26.88 
z
M 311.618771 36.380776 
L 313.829286 47.600163 
L 315.12854 60.808896 
L 316.388359 76.198006 
L 316.825899 93.757994 
L 315.758485 113.137869 
L 315.273906 133.590571 
L 315.115431 154.013971 
L 314.117686 173.39493 
L 312.504383 190.956403 
L 314.082813 206.347113 
L 315.580312 219.557363 
L 315.581598 230.778089 
L 314.696482 240.28 
L 312.650972 240.28 
L 313.706246 230.778089 
L 313.704713 219.557363 
L 311.919329 206.347113 
L 310.037457 190.956403 
L 311.960906 173.39493 
L 313.150462 154.013971 
L 313.339402 133.590571 
L 313.917139 113.137869 
L 315.189757 93.757994 
L 314.668103 76.198006 
L 313.166091 60.808896 
L 311.617063 47.600163 
L 308.981591 36.380776 
L 308.135252 26.88 
L 310.9089 26.88 
z
" clip-path="url(#pdb90e2600b)" style="fill: #306a8e"/>
    <path d="M 104.628917 36.380776 
L 102.564595 47.600163 
L 101.445011 60.808896 
L 101.36544 76.198006 
L 101.777087 93.757994 
L 103.065971 113.137869 
L 105.198237 133.590571 
L 102.515127 154.013971 
L 101.794078 173.39493 
L 99.990708 190.956403 
L 98.563397 206.347113 
L 100.030857 219.557363 
L 101.524729 230.778089 
L 105.287886 240.28 
L 102.707318 240.28 
L 99.466696 230.778089 
L 98.180256 219.557363 
L 96.916561 206.347113 
L 98.145683 190.956403 
L 99.698644 173.39493 
L 100.319572 154.013971 
L 102.630117 133.590571 
L 100.793928 113.137869 
L 99.684013 93.757994 
L 99.329525 76.198006 
L 99.398047 60.808896 
L 100.362171 47.600163 
L 102.139851 36.380776 
L 106.435856 26.88 
L 109.617634 26.88 
z
M 308.981591 36.380776 
L 311.617063 47.600163 
L 313.166091 60.808896 
L 314.668103 76.198006 
L 315.189757 93.757994 
L 313.917139 113.137869 
L 313.339402 133.590571 
L 313.150462 154.013971 
L 311.960906 173.39493 
L 310.037457 190.956403 
L 311.919329 206.347113 
L 313.704713 219.557363 
L 313.706246 230.778089 
L 312.650972 240.28 
L 310.605463 240.28 
L 311.830895 230.778089 
L 311.829115 219.557363 
L 309.755846 206.347113 
L 307.57053 190.956403 
L 309.804127 173.39493 
L 311.185493 154.013971 
L 311.404899 133.590571 
L 312.075793 113.137869 
L 313.553615 93.757994 
L 312.947847 76.198006 
L 311.203642 60.808896 
L 309.404841 47.600163 
L 306.344411 36.380776 
L 305.361603 26.88 
L 308.135252 26.88 
z
" clip-path="url(#pdb90e2600b)" style="fill: #2a778e"/>
    <path d="M 110.566667 26.88 
L 120.28466 26.88 
L 110.566667 30.074123 
L 107.117984 36.380776 
L 104.767019 47.600163 
L 103.491975 60.808896 
L 103.401355 76.198006 
L 103.870162 93.757994 
L 105.338014 113.137869 
L 107.766357 133.590571 
L 104.710683 154.013971 
L 103.889511 173.39493 
L 101.835734 190.956403 
L 100.210233 206.347113 
L 101.881458 219.557363 
L 103.582762 230.778089 
L 107.868455 240.28 
L 105.287886 240.28 
L 101.524729 230.778089 
L 100.030857 219.557363 
L 98.563397 206.347113 
L 99.990708 190.956403 
L 101.794078 173.39493 
L 102.515127 154.013971 
L 105.198237 133.590571 
L 103.065971 113.137869 
L 101.777087 93.757994 
L 101.36544 76.198006 
L 101.445011 60.808896 
L 102.564595 47.600163 
L 104.628917 36.380776 
L 109.617634 26.88 
z
M 306.344411 36.380776 
L 309.404841 47.600163 
L 311.203642 60.808896 
L 312.947847 76.198006 
L 313.553615 93.757994 
L 312.075793 113.137869 
L 311.404899 133.590571 
L 311.185493 154.013971 
L 309.804127 173.39493 
L 307.57053 190.956403 
L 309.755846 206.347113 
L 311.829115 219.557363 
L 311.830895 230.778089 
L 310.605463 240.28 
L 308.559954 240.28 
L 309.955544 230.778089 
L 309.953516 219.557363 
L 307.592362 206.347113 
L 305.103603 190.956403 
L 307.647348 173.39493 
L 309.220524 154.013971 
L 309.470396 133.590571 
L 310.234447 113.137869 
L 311.917473 93.757994 
L 311.22759 76.198006 
L 309.241193 60.808896 
L 307.192618 47.600163 
L 303.707231 36.380776 
L 302.587955 26.88 
L 305.361603 26.88 
z
" clip-path="url(#pdb90e2600b)" style="fill: #25838e"/>
    <path d="M 110.566667 30.074123 
L 120.28466 26.88 
L 134.133305 26.88 
L 110.566667 34.625913 
L 109.607051 36.380776 
L 106.969443 47.600163 
L 105.538938 60.808896 
L 105.43727 76.198006 
L 105.963236 93.757994 
L 107.610058 113.137869 
L 110.334477 133.590571 
L 106.906238 154.013971 
L 105.984945 173.39493 
L 103.68076 190.956403 
L 101.857068 206.347113 
L 103.732058 219.557363 
L 105.640795 230.778089 
L 110.449023 240.28 
L 107.868455 240.28 
L 103.582762 230.778089 
L 101.881458 219.557363 
L 100.210233 206.347113 
L 101.835734 190.956403 
L 103.889511 173.39493 
L 104.710683 154.013971 
L 107.766357 133.590571 
L 105.338014 113.137869 
L 103.870162 93.757994 
L 103.401355 76.198006 
L 103.491975 60.808896 
L 104.767019 47.600163 
L 107.117984 36.380776 
z
M 301.473333 26.88 
L 302.587955 26.88 
L 303.707231 36.380776 
L 307.192618 47.600163 
L 309.241193 60.808896 
L 311.22759 76.198006 
L 311.917473 93.757994 
L 310.234447 113.137869 
L 309.470396 133.590571 
L 309.220524 154.013971 
L 307.647348 173.39493 
L 305.103603 190.956403 
L 307.592362 206.347113 
L 309.953516 219.557363 
L 309.955544 230.778089 
L 308.559954 240.28 
L 306.514444 240.28 
L 308.080192 230.778089 
L 308.077918 219.557363 
L 305.428879 206.347113 
L 302.636677 190.956403 
L 305.490568 173.39493 
L 307.255555 154.013971 
L 307.535893 133.590571 
L 308.393102 113.137869 
L 310.281331 93.757994 
L 309.507334 76.198006 
L 307.278745 60.808896 
L 304.980396 47.600163 
L 301.473333 37.367805 
L 300.016769 36.380776 
L 296.805412 26.88 
z
" clip-path="url(#pdb90e2600b)" style="fill: #21918c"/>
    <path d="M 110.566667 34.625913 
L 134.133305 26.88 
L 134.43 26.88 
L 158.293333 26.88 
L 175.106899 26.88 
L 158.293333 28.810019 
L 134.43 29.798043 
L 115.762696 36.380776 
L 110.566667 41.905795 
L 109.171867 47.600163 
L 107.585902 60.808896 
L 107.473185 76.198006 
L 108.05631 93.757994 
L 109.882101 113.137869 
L 110.566667 118.227024 
L 113.665361 133.590571 
L 110.566667 145.372044 
L 109.101793 154.013971 
L 108.080379 173.39493 
L 105.525786 190.956403 
L 103.503904 206.347113 
L 105.582659 219.557363 
L 107.698828 230.778089 
L 110.566667 236.417507 
L 119.859362 240.28 
L 110.566667 240.28 
L 110.449023 240.28 
L 105.640795 230.778089 
L 103.732058 219.557363 
L 101.857068 206.347113 
L 103.68076 190.956403 
L 105.984945 173.39493 
L 106.906238 154.013971 
L 110.334477 133.590571 
L 107.610058 113.137869 
L 105.963236 93.757994 
L 105.43727 76.198006 
L 105.538938 60.808896 
L 106.969443 47.600163 
L 109.607051 36.380776 
z
M 229.883333 26.88 
L 230.076361 26.88 
L 229.883333 27.022729 
L 229.813536 26.88 
z
M 300.016769 36.380776 
L 301.473333 37.367805 
L 304.980396 47.600163 
L 307.278745 60.808896 
L 309.507334 76.198006 
L 310.281331 93.757994 
L 308.393102 113.137869 
L 307.535893 133.590571 
L 307.255555 154.013971 
L 305.490568 173.39493 
L 302.636677 190.956403 
L 305.428879 206.347113 
L 308.077918 219.557363 
L 308.080192 230.778089 
L 306.514444 240.28 
L 304.468935 240.28 
L 306.204841 230.778089 
L 306.202319 219.557363 
L 303.265396 206.347113 
L 301.473333 196.950758 
L 298.323042 190.956403 
L 301.473333 184.285167 
L 303.333789 173.39493 
L 305.290586 154.013971 
L 305.60139 133.590571 
L 306.551756 113.137869 
L 308.645189 93.757994 
L 307.787077 76.198006 
L 305.316296 60.808896 
L 302.768174 47.600163 
L 301.473333 43.822281 
L 290.491868 36.380776 
L 289.001336 26.88 
L 296.805412 26.88 
z
M 277.61 237.223256 
L 282.132204 240.28 
L 277.61 240.28 
L 271.826294 240.28 
z
" clip-path="url(#pdb90e2600b)" style="fill: #1e9d89"/>
    <path d="M 134.43 29.798043 
L 158.293333 28.810019 
L 175.106899 26.88 
L 182.156667 26.88 
L 187.0101 26.88 
L 186.212764 36.380776 
L 183.656758 47.600163 
L 182.156667 50.847245 
L 180.53116 47.600163 
L 174.681835 36.380776 
L 158.293333 31.772523 
L 134.43 32.779971 
L 124.218842 36.380776 
L 112.685296 47.600163 
L 110.566667 53.486295 
L 109.632866 60.808896 
L 109.5091 76.198006 
L 110.149385 93.757994 
L 110.566667 98.060177 
L 113.641953 113.137869 
L 117.072062 133.590571 
L 112.357406 154.013971 
L 110.566667 166.433872 
L 110.175812 173.39493 
L 107.370811 190.956403 
L 105.15074 206.347113 
L 107.433259 219.557363 
L 109.756861 230.778089 
L 110.566667 232.370519 
L 131.400613 230.778089 
L 134.43 230.57157 
L 135.072619 230.778089 
L 134.43 231.759944 
L 129.59593 240.28 
L 119.859362 240.28 
L 110.566667 236.417507 
L 107.698828 230.778089 
L 105.582659 219.557363 
L 103.503904 206.347113 
L 105.525786 190.956403 
L 108.080379 173.39493 
L 109.101793 154.013971 
L 110.566667 145.372044 
L 113.665361 133.590571 
L 110.566667 118.227024 
L 109.882101 113.137869 
L 108.05631 93.757994 
L 107.473185 76.198006 
L 107.585902 60.808896 
L 109.171867 47.600163 
L 110.566667 41.905795 
L 115.762696 36.380776 
z
M 229.883333 27.022729 
L 230.076361 26.88 
L 247.181604 26.88 
L 231.921389 36.380776 
L 229.883333 37.683086 
L 228.216816 36.380776 
L 223.628386 26.88 
L 229.813536 26.88 
z
M 290.491868 36.380776 
L 301.473333 43.822281 
L 302.768174 47.600163 
L 305.316296 60.808896 
L 307.787077 76.198006 
L 308.645189 93.757994 
L 306.551756 113.137869 
L 305.60139 133.590571 
L 305.290586 154.013971 
L 303.333789 173.39493 
L 301.473333 184.285167 
L 298.323042 190.956403 
L 301.473333 196.950758 
L 303.265396 206.347113 
L 306.202319 219.557363 
L 306.204841 230.778089 
L 304.468935 240.28 
L 302.423426 240.28 
L 304.32949 230.778089 
L 304.326721 219.557363 
L 301.473333 207.686689 
L 298.728663 206.347113 
L 292.361369 190.956403 
L 300.223811 173.39493 
L 301.473333 170.929494 
L 303.325617 154.013971 
L 303.666886 133.590571 
L 304.71041 113.137869 
L 307.009047 93.757994 
L 306.066821 76.198006 
L 303.353847 60.808896 
L 301.473333 51.589789 
L 299.124763 47.600163 
L 280.966967 36.380776 
L 281.197259 26.88 
L 289.001336 26.88 
z
M 206.02 205.836178 
L 206.836933 206.347113 
L 207.958386 219.557363 
L 207.819485 230.778089 
L 213.051163 240.28 
L 206.02 240.28 
L 183.903959 240.28 
L 202.812966 230.778089 
L 204.247588 219.557363 
L 205.628988 206.347113 
z
M 277.61 229.579577 
L 281.293726 230.778089 
L 295.339054 240.28 
L 282.132204 240.28 
L 277.61 237.223256 
L 271.826294 240.28 
L 254.935297 240.28 
L 271.737097 230.778089 
z
" clip-path="url(#pdb90e2600b)" style="fill: #23a983"/>
    <path d="M 134.43 32.779971 
L 158.293333 31.772523 
L 174.681835 36.380776 
L 180.53116 47.600163 
L 182.156667 50.847245 
L 183.656758 47.600163 
L 186.212764 36.380776 
L 187.0101 26.88 
L 193.687548 26.88 
L 191.929771 36.380776 
L 189.598896 47.600163 
L 184.098836 60.808896 
L 182.156667 63.946784 
L 180.144849 60.808896 
L 174.092229 47.600163 
L 164.146172 36.380776 
L 158.293333 34.735026 
L 134.43 35.761898 
L 132.674989 36.380776 
L 118.462879 47.600163 
L 115.296245 60.808896 
L 134.43 76.077901 
L 134.859088 76.198006 
L 134.43 76.370503 
L 118.073938 93.757994 
L 118.043392 113.137869 
L 120.478764 133.590571 
L 117.738226 154.013971 
L 115.674879 173.39493 
L 110.566667 182.637686 
L 109.215837 190.956403 
L 106.797575 206.347113 
L 109.28386 219.557363 
L 110.566667 225.541848 
L 134.43 226.962072 
L 146.304227 230.778089 
L 158.293333 238.191448 
L 182.156667 233.840613 
L 188.511347 230.778089 
L 197.634268 219.557363 
L 200.679657 206.347113 
L 206.02 199.368909 
L 217.177451 206.347113 
L 215.190999 219.557363 
L 215.844202 230.778089 
L 221.502734 240.28 
L 213.051163 240.28 
L 207.819485 230.778089 
L 207.958386 219.557363 
L 206.836933 206.347113 
L 206.02 205.836178 
L 205.628988 206.347113 
L 204.247588 219.557363 
L 202.812966 230.778089 
L 183.903959 240.28 
L 182.156667 240.28 
L 158.293333 240.28 
L 134.43 240.28 
L 129.59593 240.28 
L 134.43 231.759944 
L 135.072619 230.778089 
L 134.43 230.57157 
L 131.400613 230.778089 
L 110.566667 232.370519 
L 109.756861 230.778089 
L 107.433259 219.557363 
L 105.15074 206.347113 
L 107.370811 190.956403 
L 110.175812 173.39493 
L 110.566667 166.433872 
L 112.357406 154.013971 
L 117.072062 133.590571 
L 113.641953 113.137869 
L 110.566667 98.060177 
L 110.149385 93.757994 
L 109.5091 76.198006 
L 109.632866 60.808896 
L 110.566667 53.486295 
L 112.685296 47.600163 
L 124.218842 36.380776 
z
M 228.216816 36.380776 
L 229.883333 37.683086 
L 231.921389 36.380776 
L 247.181604 26.88 
L 253.746667 26.88 
L 277.61 26.88 
L 281.197259 26.88 
L 280.966967 36.380776 
L 299.124763 47.600163 
L 301.473333 51.589789 
L 303.353847 60.808896 
L 306.066821 76.198006 
L 307.009047 93.757994 
L 304.71041 113.137869 
L 303.666886 133.590571 
L 303.325617 154.013971 
L 301.473333 170.929494 
L 300.223811 173.39493 
L 292.361369 190.956403 
L 298.728663 206.347113 
L 301.473333 207.686689 
L 304.326721 219.557363 
L 304.32949 230.778089 
L 302.423426 240.28 
L 301.473333 240.28 
L 295.339054 240.28 
L 281.293726 230.778089 
L 277.61 229.579577 
L 271.737097 230.778089 
L 254.935297 240.28 
L 253.746667 240.28 
L 242.19988 240.28 
L 251.881352 230.778089 
L 253.746667 228.551646 
L 277.61 225.268672 
L 294.54365 230.778089 
L 301.473333 235.472829 
L 302.454138 230.778089 
L 302.451122 219.557363 
L 301.473333 215.489561 
L 282.741291 206.347113 
L 286.399696 190.956403 
L 291.129212 173.39493 
L 300.794602 154.013971 
L 301.473333 147.890179 
L 301.732383 133.590571 
L 302.869064 113.137869 
L 305.372905 93.757994 
L 304.346565 76.198006 
L 301.473333 61.184202 
L 301.139133 60.808896 
L 293.461298 47.600163 
L 277.61 38.488817 
L 271.259019 36.380776 
L 253.746667 29.317489 
L 239.75644 36.380776 
L 229.883333 42.689657 
L 221.810099 36.380776 
L 217.443237 26.88 
L 223.628386 26.88 
z
" clip-path="url(#pdb90e2600b)" style="fill: #32b67a"/>
    <path d="M 134.43 35.761898 
L 158.293333 34.735026 
L 164.146172 36.380776 
L 174.092229 47.600163 
L 180.144849 60.808896 
L 182.156667 63.946784 
L 184.098836 60.808896 
L 189.598896 47.600163 
L 191.929771 36.380776 
L 193.687548 26.88 
L 200.364995 26.88 
L 197.646779 36.380776 
L 195.541034 47.600163 
L 192.710997 60.808896 
L 206.02 74.292077 
L 208.389 76.198006 
L 206.02 78.852942 
L 182.156667 77.198914 
L 158.293333 78.950067 
L 134.43 86.338425 
L 127.450561 93.757994 
L 122.444831 113.137869 
L 123.885465 133.590571 
L 123.119045 154.013971 
L 121.954388 173.39493 
L 114.061125 190.956403 
L 110.566667 193.604874 
L 108.444411 206.347113 
L 110.566667 217.017025 
L 115.957104 219.557363 
L 134.43 223.352574 
L 157.535835 230.778089 
L 158.293333 231.246481 
L 160.876224 230.778089 
L 182.156667 227.489654 
L 191.020948 219.557363 
L 195.730327 206.347113 
L 206.02 192.901641 
L 218.076985 190.956403 
L 229.883333 183.697789 
L 253.746667 178.777671 
L 265.586996 190.956403 
L 277.61 197.286209 
L 280.438024 190.956403 
L 282.034613 173.39493 
L 288.959067 154.013971 
L 286.028273 133.590571 
L 277.61 121.943021 
L 269.460429 113.137869 
L 277.61 102.357536 
L 301.473333 110.252408 
L 303.736763 93.757994 
L 302.626308 76.198006 
L 301.473333 70.173242 
L 293.134625 60.808896 
L 287.797834 47.600163 
L 277.61 41.744183 
L 261.451446 36.380776 
L 253.746667 33.273194 
L 247.591491 36.380776 
L 232.005558 47.600163 
L 229.883333 47.893096 
L 229.626484 47.600163 
L 215.403381 36.380776 
L 211.258087 26.88 
L 217.443237 26.88 
L 221.810099 36.380776 
L 229.883333 42.689657 
L 239.75644 36.380776 
L 253.746667 29.317489 
L 271.259019 36.380776 
L 277.61 38.488817 
L 293.461298 47.600163 
L 301.139133 60.808896 
L 301.473333 61.184202 
L 304.346565 76.198006 
L 305.372905 93.757994 
L 302.869064 113.137869 
L 301.732383 133.590571 
L 301.473333 147.890179 
L 300.794602 154.013971 
L 291.129212 173.39493 
L 286.399696 190.956403 
L 282.741291 206.347113 
L 301.473333 215.489561 
L 302.451122 219.557363 
L 302.454138 230.778089 
L 301.473333 235.472829 
L 294.54365 230.778089 
L 277.61 225.268672 
L 253.746667 228.551646 
L 251.881352 230.778089 
L 242.19988 240.28 
L 229.883333 240.28 
L 221.502734 240.28 
L 215.844202 230.778089 
L 215.190999 219.557363 
L 217.177451 206.347113 
L 206.02 199.368909 
L 200.679657 206.347113 
L 197.634268 219.557363 
L 188.511347 230.778089 
L 182.156667 233.840613 
L 158.293333 238.191448 
L 146.304227 230.778089 
L 134.43 226.962072 
L 110.566667 225.541848 
L 109.28386 219.557363 
L 106.797575 206.347113 
L 109.215837 190.956403 
L 110.566667 182.637686 
L 115.674879 173.39493 
L 117.738226 154.013971 
L 120.478764 133.590571 
L 118.043392 113.137869 
L 118.073938 93.757994 
L 134.43 76.370503 
L 134.859088 76.198006 
L 134.43 76.077901 
L 115.296245 60.808896 
L 118.462879 47.600163 
L 132.674989 36.380776 
z
M 124.240462 47.600163 
L 123.993334 60.808896 
L 134.43 69.137502 
L 158.293333 75.636469 
L 171.22385 60.808896 
L 167.653299 47.600163 
L 158.293333 39.007957 
L 134.43 39.859089 
z
M 227.51797 206.347113 
L 222.423612 219.557363 
L 223.86892 230.778089 
L 229.883333 240.174718 
L 239.307363 230.778089 
L 247.069563 219.557363 
L 235.286345 206.347113 
L 229.883333 199.619158 
z
M 266.925864 219.557363 
L 277.61 220.957768 
L 287.25748 219.557363 
L 277.61 215.28263 
z
M 253.746667 50.280947 
L 260.540655 60.808896 
L 253.746667 74.156842 
L 242.361064 60.808896 
z
M 277.61 71.811328 
L 290.393368 76.198006 
L 277.61 89.03298 
L 256.907155 76.198006 
z
" clip-path="url(#pdb90e2600b)" style="fill: #48c16e"/>
    <path d="M 206.02 26.88 
L 211.258087 26.88 
L 215.403381 36.380776 
L 229.626484 47.600163 
L 229.883333 47.893096 
L 232.005558 47.600163 
L 247.591491 36.380776 
L 253.746667 33.273194 
L 261.451446 36.380776 
L 277.61 41.744183 
L 287.797834 47.600163 
L 293.134625 60.808896 
L 301.473333 70.173242 
L 302.626308 76.198006 
L 303.736763 93.757994 
L 301.473333 110.252408 
L 277.61 102.357536 
L 269.460429 113.137869 
L 277.61 121.943021 
L 286.028273 133.590571 
L 288.959067 154.013971 
L 282.034613 173.39493 
L 280.438024 190.956403 
L 277.61 197.286209 
L 265.586996 190.956403 
L 253.746667 178.777671 
L 229.883333 183.697789 
L 218.076985 190.956403 
L 206.02 192.901641 
L 195.730327 206.347113 
L 191.020948 219.557363 
L 182.156667 227.489654 
L 160.876224 230.778089 
L 158.293333 231.246481 
L 157.535835 230.778089 
L 134.43 223.352574 
L 115.957104 219.557363 
L 110.566667 217.017025 
L 108.444411 206.347113 
L 110.566667 193.604874 
L 114.061125 190.956403 
L 121.954388 173.39493 
L 123.119045 154.013971 
L 123.885465 133.590571 
L 122.444831 113.137869 
L 127.450561 93.757994 
L 134.43 86.338425 
L 158.293333 78.950067 
L 182.156667 77.198914 
L 206.02 78.852942 
L 208.389 76.198006 
L 206.02 74.292077 
L 192.710997 60.808896 
L 195.541034 47.600163 
L 197.646779 36.380776 
L 200.364995 26.88 
z
M 203.363786 36.380776 
L 201.483172 47.600163 
L 201.323157 60.808896 
L 206.02 65.567207 
L 219.233694 76.198006 
L 206.02 91.006584 
L 182.156667 85.572949 
L 168.29 93.757994 
L 162.166734 113.137869 
L 158.293333 126.748115 
L 153.484588 113.137869 
L 134.43 96.261989 
L 126.846271 113.137869 
L 127.292166 133.590571 
L 128.499864 154.013971 
L 128.233897 173.39493 
L 127.10729 190.956403 
L 110.566667 203.492642 
L 110.091247 206.347113 
L 110.566667 208.737348 
L 133.526059 219.557363 
L 134.43 219.743075 
L 158.293333 220.60433 
L 182.156667 221.571657 
L 184.407627 219.557363 
L 190.780997 206.347113 
L 198.78527 190.956403 
L 206.02 185.711668 
L 223.639075 173.39493 
L 229.883333 159.167775 
L 237.225959 154.013971 
L 251.911443 133.590571 
L 244.389955 113.137869 
L 242.885026 93.757994 
L 242.455517 76.198006 
L 229.883333 62.894987 
L 224.628885 60.808896 
L 216.240337 47.600163 
L 208.996664 36.380776 
L 206.02 29.23497 
z
M 265.712309 47.600163 
L 269.341621 60.808896 
L 277.61 66.138466 
L 285.130117 60.808896 
L 282.13437 47.600163 
L 277.61 44.999549 
z
M 242.361064 60.808896 
L 253.746667 74.156842 
L 260.540655 60.808896 
L 253.746667 50.280947 
z
M 256.907155 76.198006 
L 277.61 89.03298 
L 290.393368 76.198006 
L 277.61 71.811328 
z
M 293.14634 93.757994 
L 301.473333 98.329263 
L 302.100621 93.757994 
L 301.473333 84.317753 
z
M 134.43 39.859089 
L 158.293333 39.007957 
L 167.653299 47.600163 
L 171.22385 60.808896 
L 158.293333 75.636469 
L 134.43 69.137502 
L 123.993334 60.808896 
L 124.240462 47.600163 
z
M 130.018044 47.600163 
L 132.690422 60.808896 
L 134.43 62.197104 
L 158.293333 65.406655 
L 162.30285 60.808896 
L 161.214368 47.600163 
L 158.293333 44.918728 
L 134.43 44.248365 
z
M 158.293333 187.338183 
L 159.648369 190.956403 
L 158.293333 191.953302 
L 154.784755 190.956403 
z
M 229.883333 199.619158 
L 235.286345 206.347113 
L 247.069563 219.557363 
L 239.307363 230.778089 
L 229.883333 240.174718 
L 223.86892 230.778089 
L 222.423612 219.557363 
L 227.51797 206.347113 
z
M 229.656225 219.557363 
L 229.883333 220.807163 
L 230.40656 219.557363 
L 229.883333 219.040566 
z
M 277.61 215.28263 
L 287.25748 219.557363 
L 277.61 220.957768 
L 266.925864 219.557363 
z
" clip-path="url(#pdb90e2600b)" style="fill: #65cb5e"/>
    <path d="M 206.02 29.23497 
L 208.996664 36.380776 
L 216.240337 47.600163 
L 224.628885 60.808896 
L 229.883333 62.894987 
L 242.455517 76.198006 
L 242.885026 93.757994 
L 244.389955 113.137869 
L 251.911443 133.590571 
L 237.225959 154.013971 
L 229.883333 159.167775 
L 223.639075 173.39493 
L 206.02 185.711668 
L 198.78527 190.956403 
L 190.780997 206.347113 
L 184.407627 219.557363 
L 182.156667 221.571657 
L 158.293333 220.60433 
L 134.43 219.743075 
L 133.526059 219.557363 
L 110.566667 208.737348 
L 110.091247 206.347113 
L 110.566667 203.492642 
L 127.10729 190.956403 
L 128.233897 173.39493 
L 128.499864 154.013971 
L 127.292166 133.590571 
L 126.846271 113.137869 
L 134.43 96.261989 
L 153.484588 113.137869 
L 158.293333 126.748115 
L 162.166734 113.137869 
L 168.29 93.757994 
L 182.156667 85.572949 
L 206.02 91.006584 
L 219.233694 76.198006 
L 206.02 65.567207 
L 201.323157 60.808896 
L 201.483172 47.600163 
L 203.363786 36.380776 
z
M 131.24771 113.137869 
L 130.698868 133.590571 
L 133.880683 154.013971 
L 134.43 171.163663 
L 158.293333 164.395613 
L 170.482716 173.39493 
L 173.653804 190.956403 
L 158.293333 202.257087 
L 148.713915 206.347113 
L 158.293333 210.377724 
L 182.156667 213.342718 
L 185.831667 206.347113 
L 188.438383 190.956403 
L 206.02 178.21081 
L 212.909109 173.39493 
L 223.53925 154.013971 
L 229.883333 139.551709 
L 235.290126 133.590571 
L 229.883333 125.686242 
L 221.666955 113.137869 
L 206.02 102.290789 
L 182.156667 94.103294 
L 171.074566 113.137869 
L 166.741949 133.590571 
L 158.293333 144.195156 
L 148.357084 133.590571 
L 142.4257 113.137869 
L 134.43 106.056399 
z
M 154.784755 190.956403 
L 158.293333 191.953302 
L 159.648369 190.956403 
L 158.293333 187.338183 
z
M 134.43 44.248365 
L 158.293333 44.918728 
L 161.214368 47.600163 
L 162.30285 60.808896 
L 158.293333 65.406655 
L 134.43 62.197104 
L 132.690422 60.808896 
L 130.018044 47.600163 
z
M 277.61 44.999549 
L 282.13437 47.600163 
L 285.130117 60.808896 
L 277.61 66.138466 
L 269.341621 60.808896 
L 265.712309 47.600163 
z
M 301.473333 84.317753 
L 302.100621 93.757994 
L 301.473333 98.329263 
L 293.14634 93.757994 
z
M 229.883333 219.040566 
L 230.40656 219.557363 
L 229.883333 220.807163 
L 229.656225 219.557363 
z
" clip-path="url(#pdb90e2600b)" style="fill: #84d44b"/>
    <path d="M 134.43 106.056399 
L 142.4257 113.137869 
L 148.357084 133.590571 
L 158.293333 144.195156 
L 166.741949 133.590571 
L 171.074566 113.137869 
L 182.156667 94.103294 
L 206.02 102.290789 
L 221.666955 113.137869 
L 229.883333 125.686242 
L 235.290126 133.590571 
L 229.883333 139.551709 
L 223.53925 154.013971 
L 212.909109 173.39493 
L 206.02 178.21081 
L 188.438383 190.956403 
L 185.831667 206.347113 
L 182.156667 213.342718 
L 158.293333 210.377724 
L 148.713915 206.347113 
L 158.293333 202.257087 
L 173.653804 190.956403 
L 170.482716 173.39493 
L 158.293333 164.395613 
L 134.43 171.163663 
L 133.880683 154.013971 
L 130.698868 133.590571 
L 131.24771 113.137869 
z
M 179.982397 113.137869 
L 177.554214 133.590571 
L 164.018527 154.013971 
L 182.156667 167.326112 
L 206.02 168.882159 
L 215.500518 154.013971 
L 221.692752 133.590571 
L 206.02 113.39695 
L 204.503503 113.137869 
L 182.156667 109.403352 
z
M 134.105569 133.590571 
L 134.43 135.548979 
L 135.640993 133.590571 
L 134.43 128.357738 
z
" clip-path="url(#pdb90e2600b)" style="fill: #a8db34"/>
    <path d="M 182.156667 109.403352 
L 204.503503 113.137869 
L 206.02 113.39695 
L 221.692752 133.590571 
L 215.500518 154.013971 
L 206.02 168.882159 
L 182.156667 167.326112 
L 164.018527 154.013971 
L 177.554214 133.590571 
L 179.982397 113.137869 
z
M 197.993981 133.590571 
L 191.910652 154.013971 
L 206.02 156.275108 
L 207.461786 154.013971 
L 209.553293 133.590571 
L 206.02 129.038084 
z
M 134.43 128.357738 
L 135.640993 133.590571 
L 134.43 135.548979 
L 134.105569 133.590571 
z
" clip-path="url(#pdb90e2600b)" style="fill: #cae11f"/>
    <path d="M 206.02 129.038084 
L 209.553293 133.590571 
L 207.461786 154.013971 
L 206.02 156.275108 
L 191.910652 154.013971 
L 197.993981 133.590571 
z
" clip-path="url(#pdb90e2600b)" style="fill: #efe51c"/>
   </g>
   <g id="matplotlib.axis_1">
    <g id="xtick_1">
     <g id="line2d_1">
      <defs>
       <path id="mcca1ddde8b" d="M 0 0 
L 0 3.5 
" style="stroke: #000000; stroke-width: 0.8"/>
      </defs>
      <g>
       <use xlink:href="#mcca1ddde8b" x="126.475556" y="240.28" style="stroke: #000000; stroke-width: 0.8"/>
      </g>
     </g>
     <g id="text_1">
      <!-- −50 -->
      <g transform="translate(113.812743 256.398125) scale(0.12 -0.12)">
       <defs>
        <path id="DejaVuSans-2212" d="M 678 2272 
L 4684 2272 
L 4684 1741 
L 678 1741 
L 678 2272 
z
" transform="scale(0.015625)"/>
        <path id="DejaVuSans-35" d="M 691 4666 
L 3169 4666 
L 3169 4134 
L 1269 4134 
L 1269 2991 
Q 1406 3038 1543 3061 
Q 1681 3084 1819 3084 
Q 2600 3084 3056 2656 
Q 3513 2228 3513 1497 
Q 3513 744 3044 326 
Q 2575 -91 1722 -91 
Q 1428 -91 1123 -41 
Q 819 9 494 109 
L 494 744 
Q 775 591 1075 516 
Q 1375 441 1709 441 
Q 2250 441 2565 725 
Q 2881 1009 2881 1497 
Q 2881 1984 2565 2268 
Q 2250 2553 1709 2553 
Q 1456 2553 1204 2497 
Q 953 2441 691 2322 
L 691 4666 
z
" transform="scale(0.015625)"/>
        <path id="DejaVuSans-30" d="M 2034 4250 
Q 1547 4250 1301 3770 
Q 1056 3291 1056 2328 
Q 1056 1369 1301 889 
Q 1547 409 2034 409 
Q 2525 409 2770 889 
Q 3016 1369 3016 2328 
Q 3016 3291 2770 3770 
Q 2525 4250 2034 4250 
z
M 2034 4750 
Q 2819 4750 3233 4129 
Q 3647 3509 3647 2328 
Q 3647 1150 3233 529 
Q 2819 -91 2034 -91 
Q 1250 -91 836 529 
Q 422 1150 422 2328 
Q 422 3509 836 4129 
Q 1250 4750 2034 4750 
z
" transform="scale(0.015625)"/>
       </defs>
       <use xlink:href="#DejaVuSans-2212"/>
       <use xlink:href="#DejaVuSans-35" transform="translate(83.789062 0)"/>
       <use xlink:href="#DejaVuSans-30" transform="translate(147.412109 0)"/>
      </g>
     </g>
    </g>
    <g id="xtick_2">
     <g id="line2d_2">
      <g>
       <use xlink:href="#mcca1ddde8b" x="206.02" y="240.28" style="stroke: #000000; stroke-width: 0.8"/>
      </g>
     </g>
     <g id="text_2">
      <!-- 0 -->
      <g transform="translate(202.2025 256.398125) scale(0.12 -0.12)">
       <use xlink:href="#DejaVuSans-30"/>
      </g>
     </g>
    </g>
    <g id="xtick_3">
     <g id="line2d_3">
      <g>
       <use xlink:href="#mcca1ddde8b" x="285.564444" y="240.28" style="stroke: #000000; stroke-width: 0.8"/>
      </g>
     </g>
     <g id="text_3">
      <!-- 50 -->
      <g transform="translate(277.929444 256.398125) scale(0.12 -0.12)">
       <use xlink:href="#DejaVuSans-35"/>
       <use xlink:href="#DejaVuSans-30" transform="translate(63.623047 0)"/>
      </g>
     </g>
    </g>
    <g id="text_4">
     <!-- $\Theta^{\circ}$ -->
     <g transform="translate(198.4 272.011875) scale(0.12 -0.12)">
      <defs>
       <path id="DejaVuSans-398" d="M 1416 2750 
L 3622 2750 
L 3622 2219 
L 1416 2219 
L 1416 2750 
z
M 2522 4238 
Q 1834 4238 1431 3725 
Q 1025 3213 1025 2328 
Q 1025 1447 1429 934 
Q 1834 422 2522 422 
Q 3209 422 3613 934 
Q 4013 1447 4013 2328 
Q 4013 3213 3613 3725 
Q 3209 4238 2522 4238 
z
M 2522 4750 
Q 3503 4750 4090 4092 
Q 4678 3434 4678 2328 
Q 4678 1225 4091 569 
Q 3503 -91 2522 -91 
Q 1538 -91 950 566 
Q 359 1222 359 2328 
Q 359 3434 950 4094 
Q 1538 4750 2522 4750 
z
" transform="scale(0.015625)"/>
       <path id="DejaVuSans-2218" d="M 2000 2619 
Q 1750 2619 1578 2445 
Q 1406 2272 1406 2022 
Q 1406 1775 1578 1605 
Q 1750 1435 2000 1435 
Q 2250 1435 2422 1605 
Q 2594 1775 2594 2022 
Q 2594 2269 2420 2444 
Q 2247 2619 2000 2619 
z
M 2000 3022 
Q 2200 3022 2384 2945 
Q 2569 2869 2703 2725 
Q 2847 2585 2919 2406 
Q 2991 2228 2991 2022 
Q 2991 1610 2702 1324 
Q 2413 1038 1994 1038 
Q 1572 1038 1290 1319 
Q 1009 1600 1009 2022 
Q 1009 2441 1296 2731 
Q 1584 3022 2000 3022 
z
" transform="scale(0.015625)"/>
      </defs>
      <use xlink:href="#DejaVuSans-398" transform="translate(0 0.78125)"/>
      <use xlink:href="#DejaVuSans-2218" transform="translate(79.667969 39.0625) scale(0.7)"/>
     </g>
    </g>
   </g>
   <g id="matplotlib.axis_2">
    <g id="ytick_1">
     <g id="line2d_4">
      <defs>
       <path id="m5ac750f957" d="M 0 0 
L -3.5 0 
" style="stroke: #000000; stroke-width: 0.8"/>
      </defs>
      <g>
       <use xlink:href="#m5ac750f957" x="62.84" y="219.984151" style="stroke: #000000; stroke-width: 0.8"/>
      </g>
     </g>
     <g id="text_5">
      <!-- −40 -->
      <g transform="translate(30.514375 224.543214) scale(0.12 -0.12)">
       <defs>
        <path id="DejaVuSans-34" d="M 2419 4116 
L 825 1625 
L 2419 1625 
L 2419 4116 
z
M 2253 4666 
L 3047 4666 
L 3047 1625 
L 3713 1625 
L 3713 1100 
L 3047 1100 
L 3047 0 
L 2419 0 
L 2419 1100 
L 313 1100 
L 313 1709 
L 2253 4666 
z
" transform="scale(0.015625)"/>
       </defs>
       <use xlink:href="#DejaVuSans-2212"/>
       <use xlink:href="#DejaVuSans-34" transform="translate(83.789062 0)"/>
       <use xlink:href="#DejaVuSans-30" transform="translate(147.412109 0)"/>
      </g>
     </g>
    </g>
    <g id="ytick_2">
     <g id="line2d_5">
      <g>
       <use xlink:href="#m5ac750f957" x="62.84" y="176.783648" style="stroke: #000000; stroke-width: 0.8"/>
      </g>
     </g>
     <g id="text_6">
      <!-- −20 -->
      <g transform="translate(30.514375 181.342711) scale(0.12 -0.12)">
       <defs>
        <path id="DejaVuSans-32" d="M 1228 531 
L 3431 531 
L 3431 0 
L 469 0 
L 469 531 
Q 828 903 1448 1529 
Q 2069 2156 2228 2338 
Q 2531 2678 2651 2914 
Q 2772 3150 2772 3378 
Q 2772 3750 2511 3984 
Q 2250 4219 1831 4219 
Q 1534 4219 1204 4116 
Q 875 4013 500 3803 
L 500 4441 
Q 881 4594 1212 4672 
Q 1544 4750 1819 4750 
Q 2544 4750 2975 4387 
Q 3406 4025 3406 3419 
Q 3406 3131 3298 2873 
Q 3191 2616 2906 2266 
Q 2828 2175 2409 1742 
Q 1991 1309 1228 531 
z
" transform="scale(0.015625)"/>
       </defs>
       <use xlink:href="#DejaVuSans-2212"/>
       <use xlink:href="#DejaVuSans-32" transform="translate(83.789062 0)"/>
       <use xlink:href="#DejaVuSans-30" transform="translate(147.412109 0)"/>
      </g>
     </g>
    </g>
    <g id="ytick_3">
     <g id="line2d_6">
      <g>
       <use xlink:href="#m5ac750f957" x="62.84" y="133.583145" style="stroke: #000000; stroke-width: 0.8"/>
      </g>
     </g>
     <g id="text_7">
      <!-- 0 -->
      <g transform="translate(48.205 138.142208) scale(0.12 -0.12)">
       <use xlink:href="#DejaVuSans-30"/>
      </g>
     </g>
    </g>
    <g id="ytick_4">
     <g id="line2d_7">
      <g>
       <use xlink:href="#m5ac750f957" x="62.84" y="90.382642" style="stroke: #000000; stroke-width: 0.8"/>
      </g>
     </g>
     <g id="text_8">
      <!-- 20 -->
      <g transform="translate(40.57 94.941704) scale(0.12 -0.12)">
       <use xlink:href="#DejaVuSans-32"/>
       <use xlink:href="#DejaVuSans-30" transform="translate(63.623047 0)"/>
      </g>
     </g>
    </g>
    <g id="ytick_5">
     <g id="line2d_8">
      <g>
       <use xlink:href="#m5ac750f957" x="62.84" y="47.182139" style="stroke: #000000; stroke-width: 0.8"/>
      </g>
     </g>
     <g id="text_9">
      <!-- 40 -->
      <g transform="translate(40.57 51.741201) scale(0.12 -0.12)">
       <use xlink:href="#DejaVuSans-34"/>
       <use xlink:href="#DejaVuSans-30" transform="translate(63.623047 0)"/>
      </g>
     </g>
    </g>
    <g id="text_10">
     <!-- $\phi^{\circ}$ -->
     <g transform="translate(23.784375 141.38) rotate(-90) scale(0.13 -0.13)">
      <defs>
       <path id="DejaVuSans-Oblique-3d5" d="M 2991 4863 
L 2738 3572 
Q 3363 3572 3684 3094 
Q 4016 2606 3850 1747 
Q 3681 888 3159 400 
Q 2653 -78 2028 -78 
L 1784 -1331 
L 1213 -1331 
L 1456 -78 
Q 834 -78 509 400 
Q 178 888 347 1747 
Q 513 2606 1034 3094 
Q 1544 3572 2166 3572 
L 2419 4863 
L 2991 4863 
z
M 2128 434 
Q 2481 434 2784 756 
Q 3116 1116 3244 1747 
Q 3369 2372 3169 2738 
Q 2991 3059 2638 3059 
L 2128 434 
z
M 1556 434 
L 2066 3059 
Q 1716 3059 1413 2738 
Q 1072 2372 953 1747 
Q 834 1116 1028 756 
Q 1203 434 1556 434 
z
" transform="scale(0.015625)"/>
      </defs>
      <use xlink:href="#DejaVuSans-Oblique-3d5" transform="translate(0 0.015625)"/>
      <use xlink:href="#DejaVuSans-2218" transform="translate(73.414505 38.296875) scale(0.7)"/>
     </g>
    </g>
   </g>
   <g id="QuadContourSet_2">
    <path clip-path="url(#pdb90e2600b)" style="fill: none; stroke-dasharray: 1.85,0.8; stroke-dashoffset: 0; stroke: #000000; stroke-width: 0.5"/>
    <path d="M 324.777142 26.88 
L 324.804671 36.380776 
L 324.890398 47.600163 
L 324.940784 60.808896 
L 324.989641 76.198006 
L 325.00661 93.757994 
L 324.965214 113.137869 
L 324.958438 120.512897 
M 324.942486 146.668249 
L 324.940276 154.013971 
L 324.901582 173.39493 
L 324.839016 190.956403 
L 324.90023 206.347113 
L 324.958304 219.557363 
L 324.958354 230.778089 
L 324.924028 240.28 
M 87.223908 240.28 
L 87.118498 230.778089 
L 87.076653 219.557363 
L 87.035548 206.347113 
L 87.075528 190.956403 
L 87.126043 173.39493 
L 87.14624 154.013971 
L 87.173272 146.668171 
M 87.183207 120.512941 
L 87.16167 113.137869 
L 87.125567 93.757994 
L 87.114036 76.198006 
L 87.116265 60.808896 
L 87.147626 47.600163 
L 87.20545 36.380776 
L 87.34519 26.88 
" clip-path="url(#pdb90e2600b)" style="fill: none; stroke-dasharray: 1.85,0.8; stroke-dashoffset: 0; stroke: #000000; stroke-width: 0.5"/>
    <path d="M 322.003493 26.88 
L 322.167491 36.380776 
L 322.678175 47.600163 
L 322.978335 60.808896 
L 323.269385 76.198006 
L 323.370468 93.757994 
L 323.123868 113.137869 
L 323.083499 120.513064 
M 322.988475 146.668231 
L 322.975307 154.013971 
L 322.744803 173.39493 
L 322.37209 190.956403 
L 322.736746 206.347113 
L 323.082706 219.557363 
L 323.083003 230.778089 
L 322.878519 240.28 
M 89.804477 240.28 
L 89.176531 230.778089 
L 88.927253 219.557363 
L 88.682383 206.347113 
L 88.920554 190.956403 
L 89.221476 173.39493 
L 89.341796 154.013971 
L 89.502889 146.665488 
M 89.562042 120.514631 
L 89.433713 113.137869 
L 89.218641 93.757994 
L 89.149951 76.198006 
L 89.163229 60.808896 
L 89.35005 47.600163 
L 89.694517 36.380776 
L 90.526967 26.88 
" clip-path="url(#pdb90e2600b)" style="fill: none; stroke-dasharray: 1.85,0.8; stroke-dashoffset: 0; stroke: #000000; stroke-width: 0.5"/>
    <path d="M 319.229845 26.88 
L 319.530311 36.380776 
L 320.465953 47.600163 
L 321.015886 60.808896 
L 321.549129 76.198006 
L 321.734326 93.757994 
L 321.282522 113.137869 
L 321.208557 120.51347 
M 321.034464 146.668187 
L 321.010338 154.013971 
L 320.588023 173.39493 
L 319.905163 190.956403 
L 320.573263 206.347113 
L 321.207107 219.557363 
L 321.207652 230.778089 
L 320.83301 240.28 
M 92.385045 240.28 
L 91.234564 230.778089 
L 90.777854 219.557363 
L 90.329219 206.347113 
L 90.76558 190.956403 
L 91.31691 173.39493 
L 91.537351 154.013971 
L 91.832757 146.658987 
M 91.941003 120.518727 
L 91.705756 113.137869 
L 91.311716 93.757994 
L 91.185866 76.198006 
L 91.210192 60.808896 
L 91.552474 47.600163 
L 92.183583 36.380776 
L 93.708745 26.88 
" clip-path="url(#pdb90e2600b)" style="fill: none; stroke-dasharray: 1.85,0.8; stroke-dashoffset: 0; stroke: #000000; stroke-width: 0.5"/>
    <path d="M 316.456197 26.88 
L 316.893131 36.380776 
L 318.25373 47.600163 
L 319.053438 60.808896 
L 319.828872 76.198006 
L 320.098184 93.757994 
L 319.441177 113.137869 
L 319.332976 120.557414 
M 319.08066 146.624815 
L 319.045369 154.013971 
L 318.431244 173.39493 
L 317.438236 190.956403 
L 318.409779 206.347113 
L 319.331509 219.557363 
L 319.3323 230.778089 
L 318.7875 240.28 
M 94.965613 240.28 
L 93.292597 230.778089 
L 92.628455 219.557363 
L 91.976055 206.347113 
L 92.610605 190.956403 
L 93.412343 173.39493 
L 93.732906 154.013971 
L 94.165609 146.605447 
M 94.322199 120.568485 
L 93.977799 113.137869 
L 93.40479 93.757994 
L 93.221781 76.198006 
L 93.257156 60.808896 
L 93.754898 47.600163 
L 94.67265 36.380776 
L 96.890523 26.88 
" clip-path="url(#pdb90e2600b)" style="fill: none; stroke-dasharray: 1.85,0.8; stroke-dashoffset: 0; stroke: #000000; stroke-width: 0.5"/>
    <path d="M 313.682548 26.88 
L 314.255951 36.380776 
L 316.041508 47.600163 
L 317.090989 60.808896 
L 318.108616 76.198006 
L 318.462042 93.757994 
L 317.599831 113.137869 
L 317.458648 120.514997 
M 317.126443 146.668024 
L 317.0804 154.013971 
L 316.274465 173.39493 
L 314.97131 190.956403 
L 316.246296 206.347113 
L 317.45591 219.557363 
L 317.456949 230.778089 
L 316.741991 240.28 
M 97.546182 240.28 
L 95.35063 230.778089 
L 94.479055 219.557363 
L 93.62289 206.347113 
L 94.455631 190.956403 
L 95.507777 173.39493 
L 95.928461 154.013971 
L 96.494076 146.634611 
M 96.699718 120.534106 
L 96.249842 113.137869 
L 95.497864 93.757994 
L 95.257696 76.198006 
L 95.30412 60.808896 
L 95.957322 47.600163 
L 97.161717 36.380776 
L 100.072301 26.88 
" clip-path="url(#pdb90e2600b)" style="fill: none; stroke-dasharray: 1.85,0.8; stroke-dashoffset: 0; stroke: #000000; stroke-width: 0.5"/>
    <path d="M 310.9089 26.88 
L 311.618771 36.380776 
L 313.829286 47.600163 
L 315.12854 60.808896 
L 316.388359 76.198006 
L 316.825899 93.757994 
L 315.758485 113.137869 
L 315.5847 120.472825 
M 315.172097 146.711206 
L 315.115431 154.013971 
L 314.117686 173.39493 
L 312.504383 190.956403 
L 314.082813 206.347113 
L 315.580312 219.557363 
L 315.581598 230.778089 
L 314.696482 240.28 
M 100.12675 240.28 
L 97.408663 230.778089 
L 96.329656 219.557363 
L 95.269726 206.347113 
L 96.300657 190.956403 
L 97.603211 173.39493 
L 98.124017 154.013971 
L 98.821843 146.659933 
M 99.076425 120.502167 
L 98.521885 113.137869 
L 97.590939 93.757994 
L 97.293611 76.198006 
L 97.351084 60.808896 
L 98.159747 47.600163 
L 99.650784 36.380776 
L 103.254079 26.88 
" clip-path="url(#pdb90e2600b)" style="fill: none; stroke-dasharray: 1.85,0.8; stroke-dashoffset: 0; stroke: #000000; stroke-width: 0.5"/>
    <path d="M 308.135252 26.88 
L 308.981591 36.380776 
L 311.617063 47.600163 
L 313.166091 60.808896 
L 314.668103 76.198006 
L 315.189757 93.757994 
L 313.917139 113.137869 
L 313.709907 120.474188 
M 313.218023 146.711059 
L 313.150462 154.013971 
L 311.960906 173.39493 
L 310.037457 190.956403 
L 311.919329 206.347113 
L 313.704713 219.557363 
L 313.706246 230.778089 
L 312.650972 240.28 
M 102.707318 240.28 
L 99.466696 230.778089 
L 98.180256 219.557363 
L 96.916561 206.347113 
L 98.145683 190.956403 
L 99.698644 173.39493 
L 100.319572 154.013971 
L 101.153992 146.63836 
M 101.456301 120.515824 
L 100.793928 113.137869 
L 99.684013 93.757994 
L 99.329525 76.198006 
L 99.398047 60.808896 
L 100.362171 47.600163 
L 102.139851 36.380776 
L 106.435856 26.88 
" clip-path="url(#pdb90e2600b)" style="fill: none; stroke-dasharray: 1.85,0.8; stroke-dashoffset: 0; stroke: #000000; stroke-width: 0.5"/>
    <path d="M 305.361603 26.88 
L 306.344411 36.380776 
L 309.404841 47.600163 
L 311.203642 60.808896 
L 312.947847 76.198006 
L 313.553615 93.757994 
L 312.075793 113.137869 
L 311.832254 120.562356 
M 311.26488 146.624285 
L 311.185493 154.013971 
L 309.804127 173.39493 
L 307.57053 190.956403 
L 309.755846 206.347113 
L 311.829115 219.557363 
L 311.830895 230.778089 
L 310.605463 240.28 
M 105.287886 240.28 
L 101.524729 230.778089 
L 100.030857 219.557363 
L 98.563397 206.347113 
L 99.990708 190.956403 
L 101.794078 173.39493 
L 102.515127 154.013971 
L 103.498699 146.527182 
M 103.845803 120.618019 
L 103.065971 113.137869 
L 101.777087 93.757994 
L 101.36544 76.198006 
L 101.445011 60.808896 
L 102.564595 47.600163 
L 104.628917 36.380776 
L 109.617634 26.88 
" clip-path="url(#pdb90e2600b)" style="fill: none; stroke-dasharray: 1.85,0.8; stroke-dashoffset: 0; stroke: #000000; stroke-width: 0.5"/>
    <path d="M 302.587955 26.88 
L 303.707231 36.380776 
L 307.192618 47.600163 
L 309.241193 60.808896 
L 311.22759 76.198006 
L 311.917473 93.757994 
L 310.234447 113.137869 
L 309.960256 120.477629 
M 309.309877 146.71069 
L 309.220524 154.013971 
L 307.647348 173.39493 
L 305.103603 190.956403 
L 307.592362 206.347113 
L 309.953516 219.557363 
L 309.955544 230.778089 
L 308.559954 240.28 
M 107.868455 240.28 
L 103.582762 230.778089 
L 101.881458 219.557363 
L 100.210233 206.347113 
L 101.835734 190.956403 
L 103.889511 173.39493 
L 104.710683 154.013971 
L 107.766357 133.590571 
L 106.886301 126.178304 
M 104.346713 100.049845 
L 103.870162 93.757994 
L 103.401355 76.198006 
L 103.491975 60.808896 
L 104.767019 47.600163 
L 107.117984 36.380776 
L 110.566667 30.074123 
L 120.28466 26.88 
" clip-path="url(#pdb90e2600b)" style="fill: none; stroke-dasharray: 1.85,0.8; stroke-dashoffset: 0; stroke: #000000; stroke-width: 0.5"/>
    <path d="M 296.805412 26.88 
L 300.016769 36.380776 
L 301.473333 37.367805 
L 304.980396 47.600163 
L 307.278745 60.808896 
L 309.507334 76.198006 
L 310.281331 93.757994 
L 308.393102 113.137869 
L 308.083579 120.522977 
M 307.3564 146.667166 
L 307.255555 154.013971 
L 305.490568 173.39493 
L 302.636677 190.956403 
L 305.428879 206.347113 
L 308.077918 219.557363 
L 308.080192 230.778089 
L 306.514444 240.28 
M 110.449023 240.28 
L 105.640795 230.778089 
L 103.732058 219.557363 
L 101.857068 206.347113 
L 103.68076 190.956403 
L 105.984945 173.39493 
L 106.906238 154.013971 
L 110.334477 133.590571 
L 109.338652 126.114736 
M 106.502281 100.101499 
L 105.963236 93.757994 
L 105.43727 76.198006 
L 105.538938 60.808896 
L 106.969443 47.600163 
L 109.607051 36.380776 
L 110.566667 34.625913 
L 134.133305 26.88 
" clip-path="url(#pdb90e2600b)" style="fill: none; stroke-dasharray: 1.85,0.8; stroke-dashoffset: 0; stroke: #000000; stroke-width: 0.5"/>
    <path d="M 229.813536 26.88 
L 229.883333 27.022729 
L 230.076361 26.88 
M 289.001336 26.88 
L 290.491868 36.380776 
L 301.473333 43.822281 
L 302.768174 47.600163 
L 305.316296 60.808896 
L 307.787077 76.198006 
L 308.645189 93.757994 
L 306.551756 113.137869 
L 305.60139 133.590571 
L 305.490241 140.894325 
M 303.971723 167.076558 
L 303.333789 173.39493 
L 301.473333 184.285167 
L 298.323042 190.956403 
L 301.473333 196.950758 
L 303.265396 206.347113 
L 306.202319 219.557363 
L 306.204841 230.778089 
L 304.468935 240.28 
M 119.859362 240.28 
L 110.566667 236.417507 
L 107.698828 230.778089 
L 105.582659 219.557363 
L 103.503904 206.347113 
L 105.525786 190.956403 
L 108.080379 173.39493 
L 109.101793 154.013971 
L 110.566667 145.372044 
L 113.665361 133.590571 
L 113.166972 131.119522 
M 109.132135 105.177348 
L 108.05631 93.757994 
L 107.473185 76.198006 
L 107.585902 60.808896 
L 109.171867 47.600163 
L 110.566667 41.905795 
L 115.762696 36.380776 
L 134.43 29.798043 
L 158.293333 28.810019 
L 175.106899 26.88 
M 282.132204 240.28 
L 277.61 237.223256 
L 271.826294 240.28 
" clip-path="url(#pdb90e2600b)" style="fill: none; stroke-dasharray: 1.85,0.8; stroke-dashoffset: 0; stroke: #000000; stroke-width: 0.5"/>
    <path d="M 223.628386 26.88 
L 228.216816 36.380776 
L 229.883333 37.683086 
L 231.921389 36.380776 
L 247.181604 26.88 
M 281.197259 26.88 
L 280.966967 36.380776 
L 299.124763 47.600163 
L 301.473333 51.589789 
L 303.353847 60.808896 
L 306.066821 76.198006 
L 307.009047 93.757994 
L 304.71041 113.137869 
L 303.666886 133.590571 
L 303.544838 140.894599 
M 301.896356 167.066346 
L 301.473333 170.929494 
L 300.223811 173.39493 
L 292.361369 190.956403 
L 298.728663 206.347113 
L 301.473333 207.686689 
L 304.326721 219.557363 
L 304.32949 230.778089 
L 302.423426 240.28 
M 129.59593 240.28 
L 134.43 231.759944 
L 135.072619 230.778089 
L 134.43 230.57157 
L 131.400613 230.778089 
L 110.566667 232.370519 
L 109.756861 230.778089 
L 107.433259 219.557363 
L 105.15074 206.347113 
L 107.370811 190.956403 
L 108.103179 186.371216 
M 111.445441 160.339023 
L 112.357406 154.013971 
L 117.072062 133.590571 
L 113.641953 113.137869 
L 110.566667 98.060177 
L 110.149385 93.757994 
L 109.5091 76.198006 
L 109.632866 60.808896 
L 110.566667 53.486295 
L 112.685296 47.600163 
L 124.218842 36.380776 
L 134.43 32.779971 
L 158.293333 31.772523 
L 174.681835 36.380776 
L 180.53116 47.600163 
L 182.156667 50.847245 
L 183.656758 47.600163 
L 186.212764 36.380776 
L 187.0101 26.88 
M 213.051163 240.28 
L 207.819485 230.778089 
L 207.958386 219.557363 
L 207.869381 218.508925 
M 204.328915 218.779637 
L 204.247588 219.557363 
L 202.812966 230.778089 
L 183.903959 240.28 
M 295.339054 240.28 
L 289.480461 236.316559 
M 264.90027 234.644516 
L 254.935297 240.28 
" clip-path="url(#pdb90e2600b)" style="fill: none; stroke-dasharray: 1.85,0.8; stroke-dashoffset: 0; stroke: #000000; stroke-width: 0.5"/>
    <path d="M 217.443237 26.88 
L 221.810099 36.380776 
L 229.883333 42.689657 
L 239.75644 36.380776 
L 253.746667 29.317489 
L 271.259019 36.380776 
L 277.61 38.488817 
L 293.461298 47.600163 
L 301.139133 60.808896 
L 301.473333 61.184202 
L 304.346565 76.198006 
L 305.372905 93.757994 
L 302.869064 113.137869 
L 302.458205 120.53061 
M 301.495504 146.666363 
L 301.473333 147.890179 
L 300.794602 154.013971 
L 291.129212 173.39493 
L 286.399696 190.956403 
L 282.741291 206.347113 
L 301.473333 215.489561 
L 302.451122 219.557363 
L 302.454138 230.778089 
L 301.473333 235.472829 
L 294.54365 230.778089 
L 277.61 225.268672 
L 253.746667 228.551646 
L 251.881352 230.778089 
L 242.19988 240.28 
M 221.502734 240.28 
L 215.844202 230.778089 
L 215.190999 219.557363 
L 217.177451 206.347113 
L 206.02 199.368909 
L 200.679657 206.347113 
L 197.634268 219.557363 
L 188.511347 230.778089 
L 182.156667 233.840613 
L 158.293333 238.191448 
L 146.304227 230.778089 
L 134.43 226.962072 
L 117.989617 225.983624 
M 106.859974 206.678654 
L 106.797575 206.347113 
L 109.215837 190.956403 
L 110.566667 182.637686 
L 115.674879 173.39493 
L 117.738226 154.013971 
L 120.478764 133.590571 
L 118.043392 113.137869 
L 118.073938 93.757994 
L 134.43 76.370503 
L 134.859088 76.198006 
L 134.43 76.077901 
L 115.296245 60.808896 
L 118.462879 47.600163 
L 132.674989 36.380776 
L 134.43 35.761898 
L 158.293333 34.735026 
L 164.146172 36.380776 
L 174.092229 47.600163 
L 180.144849 60.808896 
L 182.156667 63.946784 
L 184.098836 60.808896 
L 189.598896 47.600163 
L 191.929771 36.380776 
L 193.687548 26.88 
" clip-path="url(#pdb90e2600b)" style="fill: none; stroke-dasharray: 1.85,0.8; stroke-dashoffset: 0; stroke: #000000; stroke-width: 0.5"/>
    <path d="M 211.258087 26.88 
L 215.403381 36.380776 
L 229.626484 47.600163 
L 229.883333 47.893096 
L 232.005558 47.600163 
L 247.591491 36.380776 
L 253.746667 33.273194 
L 261.451446 36.380776 
L 277.61 41.744183 
L 287.797834 47.600163 
L 293.134625 60.808896 
L 301.473333 70.173242 
L 302.626308 76.198006 
L 302.911209 80.703241 
M 301.956862 106.728763 
L 301.473333 110.252408 
L 277.61 102.357536 
L 269.460429 113.137869 
L 277.61 121.943021 
L 286.028273 133.590571 
L 288.959067 154.013971 
L 282.034613 173.39493 
L 280.438024 190.956403 
L 277.61 197.286209 
L 265.586996 190.956403 
L 253.746667 178.777671 
L 229.883333 183.697789 
L 218.076985 190.956403 
L 206.02 192.901641 
L 195.730327 206.347113 
L 191.020948 219.557363 
L 182.156667 227.489654 
L 160.876224 230.778089 
L 158.293333 231.246481 
L 157.535835 230.778089 
L 134.43 223.352574 
L 115.957104 219.557363 
L 110.566667 217.017025 
L 108.444411 206.347113 
L 110.566667 193.604874 
L 114.061125 190.956403 
L 121.954388 173.39493 
L 123.119045 154.013971 
L 123.885465 133.590571 
L 122.444831 113.137869 
L 127.450561 93.757994 
L 134.43 86.338425 
L 158.293333 78.950067 
L 182.156667 77.198914 
L 206.02 78.852942 
L 208.389 76.198006 
L 206.02 74.292077 
L 192.710997 60.808896 
L 195.541034 47.600163 
L 197.646779 36.380776 
L 200.364995 26.88 
M 144.898491 71.988503 
L 134.43 69.137502 
L 123.993334 60.808896 
L 124.240462 47.600163 
L 134.43 39.859089 
L 158.293333 39.007957 
L 167.653299 47.600163 
L 171.22385 60.808896 
L 167.122385 65.512093 
M 259.7541 62.354217 
L 260.540655 60.808896 
L 253.746667 50.280947 
L 242.361064 60.808896 
L 245.034885 63.943557 
M 287.129855 79.474694 
L 290.393368 76.198006 
L 277.61 71.811328 
L 256.907155 76.198006 
L 265.975108 81.819791 
M 223.597955 228.674441 
L 222.423612 219.557363 
L 227.51797 206.347113 
L 229.883333 199.619158 
L 235.286345 206.347113 
L 247.069563 219.557363 
L 239.41148 230.627581 
M 277.61 215.28263 
L 287.25748 219.557363 
L 277.61 220.957768 
L 266.925864 219.557363 
L 277.61 215.28263 
z
" clip-path="url(#pdb90e2600b)" style="fill: none; stroke-dasharray: 1.85,0.8; stroke-dashoffset: 0; stroke: #000000; stroke-width: 0.5"/>
    <path d="M 212.006587 41.042705 
L 216.240337 47.600163 
L 224.628885 60.808896 
L 229.883333 62.894987 
L 242.455517 76.198006 
L 242.885026 93.757994 
L 244.389955 113.137869 
L 251.911443 133.590571 
L 237.225959 154.013971 
L 229.883333 159.167775 
L 223.639075 173.39493 
L 206.02 185.711668 
L 198.78527 190.956403 
L 190.780997 206.347113 
L 184.407627 219.557363 
L 182.156667 221.571657 
L 158.293333 220.60433 
L 134.43 219.743075 
L 133.526059 219.557363 
L 110.566667 208.737348 
L 110.091247 206.347113 
L 110.566667 203.492642 
L 127.10729 190.956403 
L 128.233897 173.39493 
L 128.499864 154.013971 
L 127.292166 133.590571 
L 126.846271 113.137869 
L 134.43 96.261989 
L 153.484588 113.137869 
L 158.293333 126.748115 
L 162.166734 113.137869 
L 168.29 93.757994 
L 182.156667 85.572949 
L 206.02 91.006584 
L 219.233694 76.198006 
L 206.02 65.567207 
L 201.323157 60.808896 
L 201.483172 47.600163 
L 202.444161 41.867086 
M 144.440455 63.543482 
L 134.43 62.197104 
L 132.690422 60.808896 
L 130.018044 47.600163 
L 134.43 44.248365 
L 158.293333 44.918728 
L 161.214368 47.600163 
L 161.712763 53.64819 
M 277.61 44.999549 
L 282.13437 47.600163 
L 285.130117 60.808896 
L 277.61 66.138466 
L 269.341621 60.808896 
L 265.712309 47.600163 
L 277.61 44.999549 
z
M 301.473333 84.317753 
L 302.100621 93.757994 
L 301.473333 98.329263 
L 293.14634 93.757994 
L 301.473333 84.317753 
z
M 158.293333 187.338183 
L 154.784755 190.956403 
L 158.293333 191.953302 
L 159.648369 190.956403 
L 158.293333 187.338183 
z
M 229.883333 219.040566 
L 230.40656 219.557363 
L 229.883333 220.807163 
L 229.656225 219.557363 
L 229.883333 219.040566 
z
" clip-path="url(#pdb90e2600b)" style="fill: none; stroke-dasharray: 1.85,0.8; stroke-dashoffset: 0; stroke: #000000; stroke-width: 0.5"/>
    <path d="M 224.560242 151.686472 
L 223.53925 154.013971 
L 212.909109 173.39493 
L 206.02 178.21081 
L 188.438383 190.956403 
L 185.831667 206.347113 
L 182.156667 213.342718 
L 158.293333 210.377724 
L 148.713915 206.347113 
L 158.293333 202.257087 
L 173.653804 190.956403 
L 170.482716 173.39493 
L 158.293333 164.395613 
L 134.43 171.163663 
L 133.880683 154.013971 
L 130.698868 133.590571 
L 131.24771 113.137869 
L 134.43 106.056399 
L 142.4257 113.137869 
L 148.357084 133.590571 
L 158.293333 144.195156 
L 166.741949 133.590571 
L 171.074566 113.137869 
L 182.156667 94.103294 
L 206.02 102.290789 
L 221.666955 113.137869 
L 229.883333 125.686242 
L 232.240807 129.132693 
" clip-path="url(#pdb90e2600b)" style="fill: none; stroke-dasharray: 1.85,0.8; stroke-dashoffset: 0; stroke: #000000; stroke-width: 0.5"/>
    <path d="M 192.059034 167.971812 
L 182.156667 167.326112 
L 164.018527 154.013971 
L 177.554214 133.590571 
L 179.982397 113.137869 
L 182.156667 109.403352 
L 204.503503 113.137869 
L 206.02 113.39695 
L 221.692752 133.590571 
L 215.500518 154.013971 
L 213.201026 157.620238 
M 134.43 128.357738 
L 135.640993 133.590571 
L 134.43 135.548979 
L 134.105569 133.590571 
L 134.43 128.357738 
z
" clip-path="url(#pdb90e2600b)" style="fill: none; stroke-dasharray: 1.85,0.8; stroke-dashoffset: 0; stroke: #000000; stroke-width: 0.5"/>
    <path d="M 192.225377 154.064409 
L 191.910652 154.013971 
L 197.993981 133.590571 
L 206.02 129.038084 
L 209.553293 133.590571 
L 208.530774 143.575388 
" clip-path="url(#pdb90e2600b)" style="fill: none; stroke-dasharray: 1.85,0.8; stroke-dashoffset: 0; stroke: #000000; stroke-width: 0.5"/>
    <path clip-path="url(#pdb90e2600b)" style="fill: none; stroke-dasharray: 1.85,0.8; stroke-dashoffset: 0; stroke: #000000; stroke-width: 0.5"/>
   </g>
   <g id="patch_3">
    <path d="M 62.84 240.28 
L 62.84 26.88 
" style="fill: none; stroke: #000000; stroke-width: 0.8; stroke-linejoin: miter; stroke-linecap: square"/>
   </g>
   <g id="patch_4">
    <path d="M 349.2 240.28 
L 349.2 26.88 
" style="fill: none; stroke: #000000; stroke-width: 0.8; stroke-linejoin: miter; stroke-linecap: square"/>
   </g>
   <g id="patch_5">
    <path d="M 62.84 240.28 
L 349.2 240.28 
" style="fill: none; stroke: #000000; stroke-width: 0.8; stroke-linejoin: miter; stroke-linecap: square"/>
   </g>
   <g id="patch_6">
    <path d="M 62.84 26.88 
L 349.2 26.88 
" style="fill: none; stroke: #000000; stroke-width: 0.8; stroke-linejoin: miter; stroke-linecap: square"/>
   </g>
   <g id="text_11">
    <!-- Band 10000 -->
    <g transform="translate(169.620625 20.88) scale(0.12 -0.12)">
     <defs>
      <path id="DejaVuSans-42" d="M 1259 2228 
L 1259 519 
L 2272 519 
Q 2781 519 3026 730 
Q 3272 941 3272 1375 
Q 3272 1813 3026 2020 
Q 2781 2228 2272 2228 
L 1259 2228 
z
M 1259 4147 
L 1259 2741 
L 2194 2741 
Q 2656 2741 2882 2914 
Q 3109 3088 3109 3444 
Q 3109 3797 2882 3972 
Q 2656 4147 2194 4147 
L 1259 4147 
z
M 628 4666 
L 2241 4666 
Q 2963 4666 3353 4366 
Q 3744 4066 3744 3513 
Q 3744 3084 3544 2831 
Q 3344 2578 2956 2516 
Q 3422 2416 3680 2098 
Q 3938 1781 3938 1306 
Q 3938 681 3513 340 
Q 3088 0 2303 0 
L 628 0 
L 628 4666 
z
" transform="scale(0.015625)"/>
      <path id="DejaVuSans-61" d="M 2194 1759 
Q 1497 1759 1228 1600 
Q 959 1441 959 1056 
Q 959 750 1161 570 
Q 1363 391 1709 391 
Q 2188 391 2477 730 
Q 2766 1069 2766 1631 
L 2766 1759 
L 2194 1759 
z
M 3341 1997 
L 3341 0 
L 2766 0 
L 2766 531 
Q 2569 213 2275 61 
Q 1981 -91 1556 -91 
Q 1019 -91 701 211 
Q 384 513 384 1019 
Q 384 1609 779 1909 
Q 1175 2209 1959 2209 
L 2766 2209 
L 2766 2266 
Q 2766 2663 2505 2880 
Q 2244 3097 1772 3097 
Q 1472 3097 1187 3025 
Q 903 2953 641 2809 
L 641 3341 
Q 956 3463 1253 3523 
Q 1550 3584 1831 3584 
Q 2591 3584 2966 3190 
Q 3341 2797 3341 1997 
z
" transform="scale(0.015625)"/>
      <path id="DejaVuSans-6e" d="M 3513 2113 
L 3513 0 
L 2938 0 
L 2938 2094 
Q 2938 2591 2744 2837 
Q 2550 3084 2163 3084 
Q 1697 3084 1428 2787 
Q 1159 2491 1159 1978 
L 1159 0 
L 581 0 
L 581 3500 
L 1159 3500 
L 1159 2956 
Q 1366 3272 1645 3428 
Q 1925 3584 2291 3584 
Q 2894 3584 3203 3211 
Q 3513 2838 3513 2113 
z
" transform="scale(0.015625)"/>
      <path id="DejaVuSans-64" d="M 2906 2969 
L 2906 4863 
L 3481 4863 
L 3481 0 
L 2906 0 
L 2906 525 
Q 2725 213 2448 61 
Q 2172 -91 1784 -91 
Q 1150 -91 751 415 
Q 353 922 353 1747 
Q 353 2572 751 3078 
Q 1150 3584 1784 3584 
Q 2172 3584 2448 3432 
Q 2725 3281 2906 2969 
z
M 947 1747 
Q 947 1113 1208 752 
Q 1469 391 1925 391 
Q 2381 391 2643 752 
Q 2906 1113 2906 1747 
Q 2906 2381 2643 2742 
Q 2381 3103 1925 3103 
Q 1469 3103 1208 2742 
Q 947 2381 947 1747 
z
" transform="scale(0.015625)"/>
      <path id="DejaVuSans-20" transform="scale(0.015625)"/>
      <path id="DejaVuSans-31" d="M 794 531 
L 1825 531 
L 1825 4091 
L 703 3866 
L 703 4441 
L 1819 4666 
L 2450 4666 
L 2450 531 
L 3481 531 
L 3481 0 
L 794 0 
L 794 531 
z
" transform="scale(0.015625)"/>
     </defs>
     <use xlink:href="#DejaVuSans-42"/>
     <use xlink:href="#DejaVuSans-61" transform="translate(68.603516 0)"/>
     <use xlink:href="#DejaVuSans-6e" transform="translate(129.882812 0)"/>
     <use xlink:href="#DejaVuSans-64" transform="translate(193.261719 0)"/>
     <use xlink:href="#DejaVuSans-20" transform="translate(256.738281 0)"/>
     <use xlink:href="#DejaVuSans-31" transform="translate(288.525391 0)"/>
     <use xlink:href="#DejaVuSans-30" transform="translate(352.148438 0)"/>
     <use xlink:href="#DejaVuSans-30" transform="translate(415.771484 0)"/>
     <use xlink:href="#DejaVuSans-30" transform="translate(479.394531 0)"/>
     <use xlink:href="#DejaVuSans-30" transform="translate(543.017578 0)"/>
    </g>
   </g>
   <g id="text_12">
    <g clip-path="url(#pdb90e2600b)">
     <!-- 44.0 -->
     <g transform="translate(327.424129 143.61152) rotate(-89.967238) scale(0.09 -0.09)">
      <defs>
       <path id="DejaVuSans-2e" d="M 684 794 
L 1344 794 
L 1344 0 
L 684 0 
L 684 794 
z
" transform="scale(0.015625)"/>
      </defs>
      <use xlink:href="#DejaVuSans-34"/>
      <use xlink:href="#DejaVuSans-34" transform="translate(63.623047 0)"/>
      <use xlink:href="#DejaVuSans-2e" transform="translate(127.246094 0)"/>
      <use xlink:href="#DejaVuSans-30" transform="translate(159.033203 0)"/>
     </g>
    </g>
   </g>
   <g id="text_13">
    <g clip-path="url(#pdb90e2600b)">
     <!-- 44.0 -->
     <g transform="translate(89.701266 143.610986) rotate(-89.979596) scale(0.09 -0.09)">
      <use xlink:href="#DejaVuSans-34"/>
      <use xlink:href="#DejaVuSans-34" transform="translate(63.623047 0)"/>
      <use xlink:href="#DejaVuSans-2e" transform="translate(127.246094 0)"/>
      <use xlink:href="#DejaVuSans-30" transform="translate(159.033203 0)"/>
     </g>
    </g>
   </g>
   <g id="text_14">
    <g clip-path="url(#pdb90e2600b)">
     <!-- 44.8 -->
     <g transform="translate(325.461212 143.618503) rotate(-89.804835) scale(0.09 -0.09)">
      <defs>
       <path id="DejaVuSans-38" d="M 2034 2216 
Q 1584 2216 1326 1975 
Q 1069 1734 1069 1313 
Q 1069 891 1326 650 
Q 1584 409 2034 409 
Q 2484 409 2743 651 
Q 3003 894 3003 1313 
Q 3003 1734 2745 1975 
Q 2488 2216 2034 2216 
z
M 1403 2484 
Q 997 2584 770 2862 
Q 544 3141 544 3541 
Q 544 4100 942 4425 
Q 1341 4750 2034 4750 
Q 2731 4750 3128 4425 
Q 3525 4100 3525 3541 
Q 3525 3141 3298 2862 
Q 3072 2584 2669 2484 
Q 3125 2378 3379 2068 
Q 3634 1759 3634 1313 
Q 3634 634 3220 271 
Q 2806 -91 2034 -91 
Q 1263 -91 848 271 
Q 434 634 434 1313 
Q 434 1759 690 2068 
Q 947 2378 1403 2484 
z
M 1172 3481 
Q 1172 3119 1398 2916 
Q 1625 2713 2034 2713 
Q 2441 2713 2670 2916 
Q 2900 3119 2900 3481 
Q 2900 3844 2670 4047 
Q 2441 4250 2034 4250 
Q 1625 4250 1398 4047 
Q 1172 3844 1172 3481 
z
" transform="scale(0.015625)"/>
      </defs>
      <use xlink:href="#DejaVuSans-34"/>
      <use xlink:href="#DejaVuSans-34" transform="translate(63.623047 0)"/>
      <use xlink:href="#DejaVuSans-2e" transform="translate(127.246094 0)"/>
      <use xlink:href="#DejaVuSans-38" transform="translate(159.033203 0)"/>
     </g>
    </g>
   </g>
   <g id="text_15">
    <g clip-path="url(#pdb90e2600b)">
     <!-- 44.8 -->
     <g transform="translate(92.2517 143.615346) rotate(-89.878488) scale(0.09 -0.09)">
      <use xlink:href="#DejaVuSans-34"/>
      <use xlink:href="#DejaVuSans-34" transform="translate(63.623047 0)"/>
      <use xlink:href="#DejaVuSans-2e" transform="translate(127.246094 0)"/>
      <use xlink:href="#DejaVuSans-38" transform="translate(159.033203 0)"/>
     </g>
    </g>
   </g>
   <g id="text_16">
    <g clip-path="url(#pdb90e2600b)">
     <!-- 45.6 -->
     <g transform="translate(323.498276 143.625405) rotate(-89.642437) scale(0.09 -0.09)">
      <defs>
       <path id="DejaVuSans-36" d="M 2113 2584 
Q 1688 2584 1439 2293 
Q 1191 2003 1191 1497 
Q 1191 994 1439 701 
Q 1688 409 2113 409 
Q 2538 409 2786 701 
Q 3034 994 3034 1497 
Q 3034 2003 2786 2293 
Q 2538 2584 2113 2584 
z
M 3366 4563 
L 3366 3988 
Q 3128 4100 2886 4159 
Q 2644 4219 2406 4219 
Q 1781 4219 1451 3797 
Q 1122 3375 1075 2522 
Q 1259 2794 1537 2939 
Q 1816 3084 2150 3084 
Q 2853 3084 3261 2657 
Q 3669 2231 3669 1497 
Q 3669 778 3244 343 
Q 2819 -91 2113 -91 
Q 1303 -91 875 529 
Q 447 1150 447 2328 
Q 447 3434 972 4092 
Q 1497 4750 2381 4750 
Q 2619 4750 2861 4703 
Q 3103 4656 3366 4563 
z
" transform="scale(0.015625)"/>
      </defs>
      <use xlink:href="#DejaVuSans-34"/>
      <use xlink:href="#DejaVuSans-35" transform="translate(63.623047 0)"/>
      <use xlink:href="#DejaVuSans-2e" transform="translate(127.246094 0)"/>
      <use xlink:href="#DejaVuSans-36" transform="translate(159.033203 0)"/>
     </g>
    </g>
   </g>
   <g id="text_17">
    <g clip-path="url(#pdb90e2600b)">
     <!-- 45.6 -->
     <g transform="translate(94.802156 143.619668) rotate(-89.777552) scale(0.09 -0.09)">
      <use xlink:href="#DejaVuSans-34"/>
      <use xlink:href="#DejaVuSans-35" transform="translate(63.623047 0)"/>
      <use xlink:href="#DejaVuSans-2e" transform="translate(127.246094 0)"/>
      <use xlink:href="#DejaVuSans-36" transform="translate(159.033203 0)"/>
     </g>
    </g>
   </g>
   <g id="text_18">
    <g clip-path="url(#pdb90e2600b)">
     <!-- 46.4 -->
     <g transform="translate(321.535323 143.632226) rotate(-89.48005) scale(0.09 -0.09)">
      <use xlink:href="#DejaVuSans-34"/>
      <use xlink:href="#DejaVuSans-36" transform="translate(63.623047 0)"/>
      <use xlink:href="#DejaVuSans-2e" transform="translate(127.246094 0)"/>
      <use xlink:href="#DejaVuSans-34" transform="translate(159.033203 0)"/>
     </g>
    </g>
   </g>
   <g id="text_19">
    <g clip-path="url(#pdb90e2600b)">
     <!-- 46.4 -->
     <g transform="translate(97.352659 143.623946) rotate(-89.676931) scale(0.09 -0.09)">
      <use xlink:href="#DejaVuSans-34"/>
      <use xlink:href="#DejaVuSans-36" transform="translate(63.623047 0)"/>
      <use xlink:href="#DejaVuSans-2e" transform="translate(127.246094 0)"/>
      <use xlink:href="#DejaVuSans-34" transform="translate(159.033203 0)"/>
     </g>
    </g>
   </g>
   <g id="text_20">
    <g clip-path="url(#pdb90e2600b)">
     <!-- 47.2 -->
     <g transform="translate(319.572353 143.638966) rotate(-89.317677) scale(0.09 -0.09)">
      <defs>
       <path id="DejaVuSans-37" d="M 525 4666 
L 3525 4666 
L 3525 4397 
L 1831 0 
L 1172 0 
L 2766 4134 
L 525 4134 
L 525 4666 
z
" transform="scale(0.015625)"/>
      </defs>
      <use xlink:href="#DejaVuSans-34"/>
      <use xlink:href="#DejaVuSans-37" transform="translate(63.623047 0)"/>
      <use xlink:href="#DejaVuSans-2e" transform="translate(127.246094 0)"/>
      <use xlink:href="#DejaVuSans-32" transform="translate(159.033203 0)"/>
     </g>
    </g>
   </g>
   <g id="text_21">
    <g clip-path="url(#pdb90e2600b)">
     <!-- 47.2 -->
     <g transform="translate(99.903235 143.628173) rotate(-89.576765) scale(0.09 -0.09)">
      <use xlink:href="#DejaVuSans-34"/>
      <use xlink:href="#DejaVuSans-37" transform="translate(63.623047 0)"/>
      <use xlink:href="#DejaVuSans-2e" transform="translate(127.246094 0)"/>
      <use xlink:href="#DejaVuSans-32" transform="translate(159.033203 0)"/>
     </g>
    </g>
   </g>
   <g id="text_22">
    <g clip-path="url(#pdb90e2600b)">
     <!-- 48.0 -->
     <g transform="translate(317.609367 143.645624) rotate(-89.155324) scale(0.09 -0.09)">
      <use xlink:href="#DejaVuSans-34"/>
      <use xlink:href="#DejaVuSans-38" transform="translate(63.623047 0)"/>
      <use xlink:href="#DejaVuSans-2e" transform="translate(127.246094 0)"/>
      <use xlink:href="#DejaVuSans-30" transform="translate(159.033203 0)"/>
     </g>
    </g>
   </g>
   <g id="text_23">
    <g clip-path="url(#pdb90e2600b)">
     <!-- 48.0 -->
     <g transform="translate(102.453907 143.632345) rotate(-89.477193) scale(0.09 -0.09)">
      <use xlink:href="#DejaVuSans-34"/>
      <use xlink:href="#DejaVuSans-38" transform="translate(63.623047 0)"/>
      <use xlink:href="#DejaVuSans-2e" transform="translate(127.246094 0)"/>
      <use xlink:href="#DejaVuSans-30" transform="translate(159.033203 0)"/>
     </g>
    </g>
   </g>
   <g id="text_24">
    <g clip-path="url(#pdb90e2600b)">
     <!-- 48.8 -->
     <g transform="translate(315.646366 143.6522) rotate(-88.992994) scale(0.09 -0.09)">
      <use xlink:href="#DejaVuSans-34"/>
      <use xlink:href="#DejaVuSans-38" transform="translate(63.623047 0)"/>
      <use xlink:href="#DejaVuSans-2e" transform="translate(127.246094 0)"/>
      <use xlink:href="#DejaVuSans-38" transform="translate(159.033203 0)"/>
     </g>
    </g>
   </g>
   <g id="text_25">
    <g clip-path="url(#pdb90e2600b)">
     <!-- 48.8 -->
     <g transform="translate(105.004701 143.636457) rotate(-89.378351) scale(0.09 -0.09)">
      <use xlink:href="#DejaVuSans-34"/>
      <use xlink:href="#DejaVuSans-38" transform="translate(63.623047 0)"/>
      <use xlink:href="#DejaVuSans-2e" transform="translate(127.246094 0)"/>
      <use xlink:href="#DejaVuSans-38" transform="translate(159.033203 0)"/>
     </g>
    </g>
   </g>
   <g id="text_26">
    <g clip-path="url(#pdb90e2600b)">
     <!-- 49.6 -->
     <g transform="translate(313.683353 143.658695) rotate(-88.830694) scale(0.09 -0.09)">
      <defs>
       <path id="DejaVuSans-39" d="M 703 97 
L 703 672 
Q 941 559 1184 500 
Q 1428 441 1663 441 
Q 2288 441 2617 861 
Q 2947 1281 2994 2138 
Q 2813 1869 2534 1725 
Q 2256 1581 1919 1581 
Q 1219 1581 811 2004 
Q 403 2428 403 3163 
Q 403 3881 828 4315 
Q 1253 4750 1959 4750 
Q 2769 4750 3195 4129 
Q 3622 3509 3622 2328 
Q 3622 1225 3098 567 
Q 2575 -91 1691 -91 
Q 1453 -91 1209 -44 
Q 966 3 703 97 
z
M 1959 2075 
Q 2384 2075 2632 2365 
Q 2881 2656 2881 3163 
Q 2881 3666 2632 3958 
Q 2384 4250 1959 4250 
Q 1534 4250 1286 3958 
Q 1038 3666 1038 3163 
Q 1038 2656 1286 2365 
Q 1534 2075 1959 2075 
z
" transform="scale(0.015625)"/>
      </defs>
      <use xlink:href="#DejaVuSans-34"/>
      <use xlink:href="#DejaVuSans-39" transform="translate(63.623047 0)"/>
      <use xlink:href="#DejaVuSans-2e" transform="translate(127.246094 0)"/>
      <use xlink:href="#DejaVuSans-36" transform="translate(159.033203 0)"/>
     </g>
    </g>
   </g>
   <g id="text_27">
    <g clip-path="url(#pdb90e2600b)">
     <!-- 49.6 -->
     <g transform="translate(107.555638 143.640503) rotate(-89.28037) scale(0.09 -0.09)">
      <use xlink:href="#DejaVuSans-34"/>
      <use xlink:href="#DejaVuSans-39" transform="translate(63.623047 0)"/>
      <use xlink:href="#DejaVuSans-2e" transform="translate(127.246094 0)"/>
      <use xlink:href="#DejaVuSans-36" transform="translate(159.033203 0)"/>
     </g>
    </g>
   </g>
   <g id="text_28">
    <g clip-path="url(#pdb90e2600b)">
     <!-- 50.4 -->
     <g transform="translate(311.720326 143.665107) rotate(-88.668426) scale(0.09 -0.09)">
      <use xlink:href="#DejaVuSans-35"/>
      <use xlink:href="#DejaVuSans-30" transform="translate(63.623047 0)"/>
      <use xlink:href="#DejaVuSans-2e" transform="translate(127.246094 0)"/>
      <use xlink:href="#DejaVuSans-34" transform="translate(159.033203 0)"/>
     </g>
    </g>
   </g>
   <g id="text_29">
    <g clip-path="url(#pdb90e2600b)">
     <!-- 50.4 -->
     <g transform="translate(101.955531 103.38506) rotate(-275.206876) scale(0.09 -0.09)">
      <use xlink:href="#DejaVuSans-35"/>
      <use xlink:href="#DejaVuSans-30" transform="translate(63.623047 0)"/>
      <use xlink:href="#DejaVuSans-2e" transform="translate(127.246094 0)"/>
      <use xlink:href="#DejaVuSans-34" transform="translate(159.033203 0)"/>
     </g>
    </g>
   </g>
   <g id="text_30">
    <g clip-path="url(#pdb90e2600b)">
     <!-- 51.2 -->
     <g transform="translate(309.757289 143.671437) rotate(-88.506197) scale(0.09 -0.09)">
      <use xlink:href="#DejaVuSans-35"/>
      <use xlink:href="#DejaVuSans-31" transform="translate(63.623047 0)"/>
      <use xlink:href="#DejaVuSans-2e" transform="translate(127.246094 0)"/>
      <use xlink:href="#DejaVuSans-32" transform="translate(159.033203 0)"/>
     </g>
    </g>
   </g>
   <g id="text_31">
    <g clip-path="url(#pdb90e2600b)">
     <!-- 51.2 -->
     <g transform="translate(104.120525 103.422848) rotate(-275.836982) scale(0.09 -0.09)">
      <use xlink:href="#DejaVuSans-35"/>
      <use xlink:href="#DejaVuSans-31" transform="translate(63.623047 0)"/>
      <use xlink:href="#DejaVuSans-2e" transform="translate(127.246094 0)"/>
      <use xlink:href="#DejaVuSans-32" transform="translate(159.033203 0)"/>
     </g>
    </g>
   </g>
   <g id="text_32">
    <g clip-path="url(#pdb90e2600b)">
     <!-- 52.0 -->
     <g transform="translate(307.226331 164.153565) rotate(-86.887485) scale(0.09 -0.09)">
      <use xlink:href="#DejaVuSans-35"/>
      <use xlink:href="#DejaVuSans-32" transform="translate(63.623047 0)"/>
      <use xlink:href="#DejaVuSans-2e" transform="translate(127.246094 0)"/>
      <use xlink:href="#DejaVuSans-30" transform="translate(159.033203 0)"/>
     </g>
    </g>
   </g>
   <g id="text_33">
    <g clip-path="url(#pdb90e2600b)">
     <!-- 52.0 -->
     <g transform="translate(106.638423 108.680958) rotate(-278.446595) scale(0.09 -0.09)">
      <use xlink:href="#DejaVuSans-35"/>
      <use xlink:href="#DejaVuSans-32" transform="translate(63.623047 0)"/>
      <use xlink:href="#DejaVuSans-2e" transform="translate(127.246094 0)"/>
      <use xlink:href="#DejaVuSans-30" transform="translate(159.033203 0)"/>
     </g>
    </g>
   </g>
   <g id="text_34">
    <g clip-path="url(#pdb90e2600b)">
     <!-- 52.8 -->
     <g transform="translate(305.214064 164.16248) rotate(-86.620339) scale(0.09 -0.09)">
      <use xlink:href="#DejaVuSans-35"/>
      <use xlink:href="#DejaVuSans-32" transform="translate(63.623047 0)"/>
      <use xlink:href="#DejaVuSans-2e" transform="translate(127.246094 0)"/>
      <use xlink:href="#DejaVuSans-38" transform="translate(159.033203 0)"/>
     </g>
    </g>
   </g>
   <g id="text_35">
    <g clip-path="url(#pdb90e2600b)">
     <!-- 52.8 -->
     <g transform="translate(111.523825 183.629251) rotate(-83.582749) scale(0.09 -0.09)">
      <use xlink:href="#DejaVuSans-35"/>
      <use xlink:href="#DejaVuSans-32" transform="translate(63.623047 0)"/>
      <use xlink:href="#DejaVuSans-2e" transform="translate(127.246094 0)"/>
      <use xlink:href="#DejaVuSans-38" transform="translate(159.033203 0)"/>
     </g>
    </g>
   </g>
   <g id="text_36">
    <g clip-path="url(#pdb90e2600b)">
     <!-- 52.8 -->
     <g transform="translate(196.304515 209.324419) rotate(-5.829363) scale(0.09 -0.09)">
      <use xlink:href="#DejaVuSans-35"/>
      <use xlink:href="#DejaVuSans-32" transform="translate(63.623047 0)"/>
      <use xlink:href="#DejaVuSans-2e" transform="translate(127.246094 0)"/>
      <use xlink:href="#DejaVuSans-38" transform="translate(159.033203 0)"/>
     </g>
    </g>
   </g>
   <g id="text_37">
    <g clip-path="url(#pdb90e2600b)">
     <!-- 52.8 -->
     <g transform="translate(267.419304 231.225232) rotate(-355.252509) scale(0.09 -0.09)">
      <use xlink:href="#DejaVuSans-35"/>
      <use xlink:href="#DejaVuSans-32" transform="translate(63.623047 0)"/>
      <use xlink:href="#DejaVuSans-2e" transform="translate(127.246094 0)"/>
      <use xlink:href="#DejaVuSans-38" transform="translate(159.033203 0)"/>
     </g>
    </g>
   </g>
   <g id="text_38">
    <g clip-path="url(#pdb90e2600b)">
     <!-- 53.6 -->
     <g transform="translate(303.868523 143.689847) rotate(-88.022077) scale(0.09 -0.09)">
      <defs>
       <path id="DejaVuSans-33" d="M 2597 2516 
Q 3050 2419 3304 2112 
Q 3559 1806 3559 1356 
Q 3559 666 3084 287 
Q 2609 -91 1734 -91 
Q 1441 -91 1130 -33 
Q 819 25 488 141 
L 488 750 
Q 750 597 1062 519 
Q 1375 441 1716 441 
Q 2309 441 2620 675 
Q 2931 909 2931 1356 
Q 2931 1769 2642 2001 
Q 2353 2234 1838 2234 
L 1294 2234 
L 1294 2753 
L 1863 2753 
Q 2328 2753 2575 2939 
Q 2822 3125 2822 3475 
Q 2822 3834 2567 4026 
Q 2313 4219 1838 4219 
Q 1578 4219 1281 4162 
Q 984 4106 628 3988 
L 628 4550 
Q 988 4650 1302 4700 
Q 1616 4750 1894 4750 
Q 2613 4750 3031 4423 
Q 3450 4097 3450 3541 
Q 3450 3153 3228 2886 
Q 3006 2619 2597 2516 
z
" transform="scale(0.015625)"/>
      </defs>
      <use xlink:href="#DejaVuSans-35"/>
      <use xlink:href="#DejaVuSans-33" transform="translate(63.623047 0)"/>
      <use xlink:href="#DejaVuSans-2e" transform="translate(127.246094 0)"/>
      <use xlink:href="#DejaVuSans-36" transform="translate(159.033203 0)"/>
     </g>
    </g>
   </g>
   <g id="text_39">
    <g clip-path="url(#pdb90e2600b)">
     <!-- 53.6 -->
     <g transform="translate(103.208288 211.211952) rotate(-292.134359) scale(0.09 -0.09)">
      <use xlink:href="#DejaVuSans-35"/>
      <use xlink:href="#DejaVuSans-33" transform="translate(63.623047 0)"/>
      <use xlink:href="#DejaVuSans-2e" transform="translate(127.246094 0)"/>
      <use xlink:href="#DejaVuSans-36" transform="translate(159.033203 0)"/>
     </g>
    </g>
   </g>
   <g id="text_40">
    <g clip-path="url(#pdb90e2600b)">
     <!-- 54.4 -->
     <g transform="translate(305.874463 103.85694) rotate(-88.030928) scale(0.09 -0.09)">
      <use xlink:href="#DejaVuSans-35"/>
      <use xlink:href="#DejaVuSans-34" transform="translate(63.623047 0)"/>
      <use xlink:href="#DejaVuSans-2e" transform="translate(127.246094 0)"/>
      <use xlink:href="#DejaVuSans-34" transform="translate(159.033203 0)"/>
     </g>
    </g>
   </g>
   <g id="text_41">
    <g clip-path="url(#pdb90e2600b)">
     <!-- 54.4 -->
     <g transform="translate(149.462451 80.981933) rotate(-17.266372) scale(0.09 -0.09)">
      <use xlink:href="#DejaVuSans-35"/>
      <use xlink:href="#DejaVuSans-34" transform="translate(63.623047 0)"/>
      <use xlink:href="#DejaVuSans-2e" transform="translate(127.246094 0)"/>
      <use xlink:href="#DejaVuSans-34" transform="translate(159.033203 0)"/>
     </g>
    </g>
   </g>
   <g id="text_42">
    <g clip-path="url(#pdb90e2600b)">
     <!-- 54.4 -->
     <g transform="translate(244.077061 77.770317) rotate(-6.569656) scale(0.09 -0.09)">
      <use xlink:href="#DejaVuSans-35"/>
      <use xlink:href="#DejaVuSans-34" transform="translate(63.623047 0)"/>
      <use xlink:href="#DejaVuSans-2e" transform="translate(127.246094 0)"/>
      <use xlink:href="#DejaVuSans-34" transform="translate(159.033203 0)"/>
     </g>
    </g>
   </g>
   <g id="text_43">
    <g clip-path="url(#pdb90e2600b)">
     <!-- 54.4 -->
     <g transform="translate(267.951379 92.675713) rotate(-6.74312) scale(0.09 -0.09)">
      <use xlink:href="#DejaVuSans-35"/>
      <use xlink:href="#DejaVuSans-34" transform="translate(63.623047 0)"/>
      <use xlink:href="#DejaVuSans-2e" transform="translate(127.246094 0)"/>
      <use xlink:href="#DejaVuSans-34" transform="translate(159.033203 0)"/>
     </g>
    </g>
   </g>
   <g id="text_44">
    <g clip-path="url(#pdb90e2600b)">
     <!-- 54.4 -->
     <g transform="translate(219.65578 241.573156) rotate(-353.865138) scale(0.09 -0.09)">
      <use xlink:href="#DejaVuSans-35"/>
      <use xlink:href="#DejaVuSans-34" transform="translate(63.623047 0)"/>
      <use xlink:href="#DejaVuSans-2e" transform="translate(127.246094 0)"/>
      <use xlink:href="#DejaVuSans-34" transform="translate(159.033203 0)"/>
     </g>
    </g>
   </g>
   <g id="text_45">
    <g clip-path="url(#pdb90e2600b)">
     <!-- 55.2 -->
     <g transform="translate(196.152362 32.266174) rotate(-3.15548) scale(0.09 -0.09)">
      <use xlink:href="#DejaVuSans-35"/>
      <use xlink:href="#DejaVuSans-35" transform="translate(63.623047 0)"/>
      <use xlink:href="#DejaVuSans-2e" transform="translate(127.246094 0)"/>
      <use xlink:href="#DejaVuSans-32" transform="translate(159.033203 0)"/>
     </g>
    </g>
   </g>
   <g id="text_46">
    <g clip-path="url(#pdb90e2600b)">
     <!-- 55.2 -->
     <g transform="translate(150.614238 72.305203) rotate(-28.014306) scale(0.09 -0.09)">
      <use xlink:href="#DejaVuSans-35"/>
      <use xlink:href="#DejaVuSans-35" transform="translate(63.623047 0)"/>
      <use xlink:href="#DejaVuSans-2e" transform="translate(127.246094 0)"/>
      <use xlink:href="#DejaVuSans-32" transform="translate(159.033203 0)"/>
     </g>
    </g>
   </g>
   <g id="text_47">
    <g clip-path="url(#pdb90e2600b)">
     <!-- 56.0 -->
     <g transform="translate(227.854026 149.672993) rotate(-64.741815) scale(0.09 -0.09)">
      <use xlink:href="#DejaVuSans-35"/>
      <use xlink:href="#DejaVuSans-36" transform="translate(63.623047 0)"/>
      <use xlink:href="#DejaVuSans-2e" transform="translate(127.246094 0)"/>
      <use xlink:href="#DejaVuSans-30" transform="translate(159.033203 0)"/>
     </g>
    </g>
   </g>
   <g id="text_48">
    <g clip-path="url(#pdb90e2600b)">
     <!-- 56.8 -->
     <g transform="translate(198.288198 175.721582) rotate(-27.574675) scale(0.09 -0.09)">
      <use xlink:href="#DejaVuSans-35"/>
      <use xlink:href="#DejaVuSans-36" transform="translate(63.623047 0)"/>
      <use xlink:href="#DejaVuSans-2e" transform="translate(127.246094 0)"/>
      <use xlink:href="#DejaVuSans-38" transform="translate(159.033203 0)"/>
     </g>
    </g>
   </g>
   <g id="text_49">
    <g clip-path="url(#pdb90e2600b)">
     <!-- 57.6 -->
     <g transform="translate(199.028721 163.869875) rotate(-33.448456) scale(0.09 -0.09)">
      <use xlink:href="#DejaVuSans-35"/>
      <use xlink:href="#DejaVuSans-37" transform="translate(63.623047 0)"/>
      <use xlink:href="#DejaVuSans-2e" transform="translate(127.246094 0)"/>
      <use xlink:href="#DejaVuSans-36" transform="translate(159.033203 0)"/>
     </g>
    </g>
   </g>
  </g>
 </g>
 <defs>
  <clipPath id="pdb90e2600b">
   <rect x="62.84" y="26.88" width="286.36" height="213.4"/>
  </clipPath>
 </defs>
</svg>
