<?xml version="1.0" encoding="utf-8" standalone="no"?>
<!DOCTYPE svg PUBLIC "-//W3C//DTD SVG 1.1//EN"
  "http://www.w3.org/Graphics/SVG/1.1/DTD/svg11.dtd">
<svg xmlns:xlink="http://www.w3.org/1999/xlink" width="360pt" height="288pt" viewBox="0 0 360 288" xmlns="http://www.w3.org/2000/svg" version="1.1">
 <metadata>
  <rdf:RDF xmlns:dc="http://purl.org/dc/elements/1.1/" xmlns:cc="http://creativecommons.org/ns#" xmlns:rdf="http://www.w3.org/1999/02/22-rdf-syntax-ns#">
   <cc:Work>
    <dc:type rdf:resource="http://purl.org/dc/dcmitype/StillImage"/>
    <dc:date>2025-10-02T17:14:31.863377</dc:date>
    <dc:format>image/svg+xml</dc:format>
    <dc:creator>
     <cc:Agent>
      <dc:title>Matplotlib v3.10.6, https://matplotlib.org/</dc:title>
     </cc:Agent>
    </dc:creator>
   </cc:Work>
  </rdf:RDF>
 </metadata>
 <defs>
  <style type="text/css">*{stroke-linejoin: round; stroke-linecap: butt}</style>
 </defs>
 <g id="figure_1">
  <g id="patch_1">
   <path d="M 0 288 
L 360 288 
L 360 0 
L 0 0 
z
" style="fill: #ffffff"/>
  </g>
  <g id="axes_1">
   <g id="patch_2">
    <path d="M 62.84 240.28 
L 349.2 240.28 
L 349.2 26.88 
L 62.84 26.88 
z
" style="fill: #ffffff"/>
   </g>
   <g id="QuadContourSet_1">
    <path d="M 86.703333 26.88 
L 87.752095 26.88 
L 87.743665 36.380776 
L 87.737483 47.600163 
L 87.850254 60.808896 
L 88.200473 76.198006 
L 87.906475 93.757994 
L 87.98567 113.137869 
L 88.185478 133.590571 
L 87.972375 154.013971 
L 88.646488 173.39493 
L 88.297294 190.956403 
L 88.469678 206.347113 
L 88.687545 219.557363 
L 88.506082 230.778089 
L 88.419902 240.28 
L 86.703333 240.28 
L 62.84 240.28 
L 62.84 230.778089 
L 62.84 219.557363 
L 62.84 206.347113 
L 62.84 190.956403 
L 62.84 173.39493 
L 62.84 154.013971 
L 62.84 133.590571 
L 62.84 113.137869 
L 62.84 93.757994 
L 62.84 76.198006 
L 62.84 60.808896 
L 62.84 47.600163 
L 62.84 36.380776 
L 62.84 26.88 
z
M 325.336667 26.88 
L 349.2 26.88 
L 349.2 36.380776 
L 349.2 47.600163 
L 349.2 60.808896 
L 349.2 76.198006 
L 349.2 93.757994 
L 349.2 113.137869 
L 349.2 133.590571 
L 349.2 154.013971 
L 349.2 173.39493 
L 349.2 190.956403 
L 349.2 206.347113 
L 349.2 219.557363 
L 349.2 230.778089 
L 349.2 240.28 
L 325.336667 240.28 
L 324.124829 240.28 
L 324.221866 230.778089 
L 324.268271 219.557363 
L 324.260741 206.347113 
L 324.293079 190.956403 
L 324.342714 173.39493 
L 324.321607 154.013971 
L 324.370681 133.590571 
L 324.442075 113.137869 
L 324.312221 93.757994 
L 324.364918 76.198006 
L 324.355788 60.808896 
L 324.2875 47.600163 
L 324.374844 36.380776 
L 324.472496 26.88 
z
" clip-path="url(#p4892dae7a7)" style="fill: #460b5e"/>
    <path d="M 89.546595 36.380776 
L 89.5297 47.600163 
L 89.837907 60.808896 
L 90.795068 76.198006 
L 89.99156 93.757994 
L 90.208002 113.137869 
L 90.754086 133.590571 
L 90.171667 154.013971 
L 92.014043 173.39493 
L 91.059684 190.956403 
L 91.530814 206.347113 
L 92.126251 219.557363 
L 91.630307 230.778089 
L 91.394773 240.28 
L 88.419902 240.28 
L 88.506082 230.778089 
L 88.687545 219.557363 
L 88.469678 206.347113 
L 88.297294 190.956403 
L 88.646488 173.39493 
L 87.972375 154.013971 
L 88.185478 133.590571 
L 87.98567 113.137869 
L 87.906475 93.757994 
L 88.200473 76.198006 
L 87.850254 60.808896 
L 87.737483 47.600163 
L 87.743665 36.380776 
L 87.752095 26.88 
L 89.569636 26.88 
z
M 324.374844 36.380776 
L 324.2875 47.600163 
L 324.355788 60.808896 
L 324.364918 76.198006 
L 324.312221 93.757994 
L 324.442075 113.137869 
L 324.370681 133.590571 
L 324.321607 154.013971 
L 324.342714 173.39493 
L 324.293079 190.956403 
L 324.260741 206.347113 
L 324.268271 219.557363 
L 324.221866 230.778089 
L 324.124829 240.28 
L 322.024674 240.28 
L 322.289879 230.778089 
L 322.416706 219.557363 
L 322.396126 206.347113 
L 322.484506 190.956403 
L 322.62016 173.39493 
L 322.562474 154.013971 
L 322.696595 133.590571 
L 322.891718 113.137869 
L 322.536822 93.757994 
L 322.680845 76.198006 
L 322.655891 60.808896 
L 322.469258 47.600163 
L 322.707973 36.380776 
L 322.974858 26.88 
L 324.472496 26.88 
z
" clip-path="url(#p4892dae7a7)" style="fill: #482071"/>
    <path d="M 91.349524 36.380776 
L 91.321917 47.600163 
L 91.82556 60.808896 
L 93.389662 76.198006 
L 92.076646 93.757994 
L 92.430335 113.137869 
L 93.322694 133.590571 
L 92.370959 154.013971 
L 95.381597 173.39493 
L 93.822073 190.956403 
L 94.591949 206.347113 
L 95.564956 219.557363 
L 94.754533 230.778089 
L 94.369645 240.28 
L 91.394773 240.28 
L 91.630307 230.778089 
L 92.126251 219.557363 
L 91.530814 206.347113 
L 91.059684 190.956403 
L 92.014043 173.39493 
L 90.171667 154.013971 
L 90.754086 133.590571 
L 90.208002 113.137869 
L 89.99156 93.757994 
L 90.795068 76.198006 
L 89.837907 60.808896 
L 89.5297 47.600163 
L 89.546595 36.380776 
L 89.569636 26.88 
L 91.387176 26.88 
z
M 322.707973 36.380776 
L 322.469258 47.600163 
L 322.655891 60.808896 
L 322.680845 76.198006 
L 322.536822 93.757994 
L 322.891718 113.137869 
L 322.696595 133.590571 
L 322.562474 154.013971 
L 322.62016 173.39493 
L 322.484506 190.956403 
L 322.396126 206.347113 
L 322.416706 219.557363 
L 322.289879 230.778089 
L 322.024674 240.28 
L 319.924518 240.28 
L 320.357892 230.778089 
L 320.56514 219.557363 
L 320.53151 206.347113 
L 320.675933 190.956403 
L 320.897605 173.39493 
L 320.803341 154.013971 
L 321.022509 133.590571 
L 321.341361 113.137869 
L 320.761423 93.757994 
L 320.996772 76.198006 
L 320.955994 60.808896 
L 320.651015 47.600163 
L 321.041101 36.380776 
L 321.47722 26.88 
L 322.974858 26.88 
z
" clip-path="url(#p4892dae7a7)" style="fill: #46337f"/>
    <path d="M 93.152454 36.380776 
L 93.114135 47.600163 
L 93.813213 60.808896 
L 95.984257 76.198006 
L 94.161731 93.757994 
L 94.652668 113.137869 
L 95.891301 133.590571 
L 94.570251 154.013971 
L 98.749152 173.39493 
L 96.584462 190.956403 
L 97.653085 206.347113 
L 99.003662 219.557363 
L 97.878758 230.778089 
L 97.344516 240.28 
L 94.369645 240.28 
L 94.754533 230.778089 
L 95.564956 219.557363 
L 94.591949 206.347113 
L 93.822073 190.956403 
L 95.381597 173.39493 
L 92.370959 154.013971 
L 93.322694 133.590571 
L 92.430335 113.137869 
L 92.076646 93.757994 
L 93.389662 76.198006 
L 91.82556 60.808896 
L 91.321917 47.600163 
L 91.349524 36.380776 
L 91.387176 26.88 
L 93.204716 26.88 
z
M 321.041101 36.380776 
L 320.651015 47.600163 
L 320.955994 60.808896 
L 320.996772 76.198006 
L 320.761423 93.757994 
L 321.341361 113.137869 
L 321.022509 133.590571 
L 320.803341 154.013971 
L 320.897605 173.39493 
L 320.675933 190.956403 
L 320.53151 206.347113 
L 320.56514 219.557363 
L 320.357892 230.778089 
L 319.924518 240.28 
L 317.824363 240.28 
L 318.425905 230.778089 
L 318.713574 219.557363 
L 318.666894 206.347113 
L 318.86736 190.956403 
L 319.175051 173.39493 
L 319.044208 154.013971 
L 319.348422 133.590571 
L 319.791004 113.137869 
L 318.986023 93.757994 
L 319.312699 76.198006 
L 319.256097 60.808896 
L 318.832773 47.600163 
L 319.37423 36.380776 
L 319.979583 26.88 
L 321.47722 26.88 
z
" clip-path="url(#p4892dae7a7)" style="fill: #404588"/>
    <path d="M 94.955384 36.380776 
L 94.906352 47.600163 
L 95.800866 60.808896 
L 98.578852 76.198006 
L 96.246817 93.757994 
L 96.875001 113.137869 
L 98.459909 133.590571 
L 96.769544 154.013971 
L 102.116706 173.39493 
L 99.346851 190.956403 
L 100.714221 206.347113 
L 102.442368 219.557363 
L 101.002984 230.778089 
L 100.319388 240.28 
L 97.344516 240.28 
L 97.878758 230.778089 
L 99.003662 219.557363 
L 97.653085 206.347113 
L 96.584462 190.956403 
L 98.749152 173.39493 
L 94.570251 154.013971 
L 95.891301 133.590571 
L 94.652668 113.137869 
L 94.161731 93.757994 
L 95.984257 76.198006 
L 93.813213 60.808896 
L 93.114135 47.600163 
L 93.152454 36.380776 
L 93.204716 26.88 
L 95.022257 26.88 
z
M 319.37423 36.380776 
L 318.832773 47.600163 
L 319.256097 60.808896 
L 319.312699 76.198006 
L 318.986023 93.757994 
L 319.791004 113.137869 
L 319.348422 133.590571 
L 319.044208 154.013971 
L 319.175051 173.39493 
L 318.86736 190.956403 
L 318.666894 206.347113 
L 318.713574 219.557363 
L 318.425905 230.778089 
L 317.824363 240.28 
L 315.724207 240.28 
L 316.493918 230.778089 
L 316.862008 219.557363 
L 316.802279 206.347113 
L 317.058787 190.956403 
L 317.452497 173.39493 
L 317.285075 154.013971 
L 317.674336 133.590571 
L 318.240646 113.137869 
L 317.210624 93.757994 
L 317.628626 76.198006 
L 317.5562 60.808896 
L 317.014531 47.600163 
L 317.707358 36.380776 
L 318.481945 26.88 
L 319.979583 26.88 
z
M 134.43 172.65974 
L 158.293333 157.095074 
L 163.256898 173.39493 
L 158.293333 177.383568 
L 134.43 174.181902 
L 133.37725 173.39493 
z
" clip-path="url(#p4892dae7a7)" style="fill: #39558c"/>
    <path d="M 96.758314 36.380776 
L 96.698569 47.600163 
L 97.788519 60.808896 
L 101.173446 76.198006 
L 98.331903 93.757994 
L 99.097334 113.137869 
L 101.028517 133.590571 
L 98.968836 154.013971 
L 105.484261 173.39493 
L 102.109241 190.956403 
L 103.775357 206.347113 
L 105.881074 219.557363 
L 104.127209 230.778089 
L 103.29426 240.28 
L 100.319388 240.28 
L 101.002984 230.778089 
L 102.442368 219.557363 
L 100.714221 206.347113 
L 99.346851 190.956403 
L 102.116706 173.39493 
L 96.769544 154.013971 
L 98.459909 133.590571 
L 96.875001 113.137869 
L 96.246817 93.757994 
L 98.578852 76.198006 
L 95.800866 60.808896 
L 94.906352 47.600163 
L 94.955384 36.380776 
L 95.022257 26.88 
L 96.839797 26.88 
z
M 317.707358 36.380776 
L 317.014531 47.600163 
L 317.5562 60.808896 
L 317.628626 76.198006 
L 317.210624 93.757994 
L 318.240646 113.137869 
L 317.674336 133.590571 
L 317.285075 154.013971 
L 317.452497 173.39493 
L 317.058787 190.956403 
L 316.802279 206.347113 
L 316.862008 219.557363 
L 316.493918 230.778089 
L 315.724207 240.28 
L 313.624052 240.28 
L 314.56193 230.778089 
L 315.010443 219.557363 
L 314.937663 206.347113 
L 315.250214 190.956403 
L 315.729943 173.39493 
L 315.525941 154.013971 
L 316.00025 133.590571 
L 316.690289 113.137869 
L 315.435225 93.757994 
L 315.944552 76.198006 
L 315.856303 60.808896 
L 315.196289 47.600163 
L 316.040487 36.380776 
L 316.984307 26.88 
L 318.481945 26.88 
z
M 158.293333 136.557923 
L 164.344377 154.013971 
L 171.858924 173.39493 
L 158.293333 184.296013 
L 134.43 180.977543 
L 124.28657 173.39493 
L 134.43 166.31124 
L 150.775377 154.013971 
z
M 133.37725 173.39493 
L 134.43 174.181902 
L 158.293333 177.383568 
L 163.256898 173.39493 
L 158.293333 157.095074 
L 134.43 172.65974 
z
M 134.43 229.126814 
L 158.293333 220.942221 
L 177.536057 230.778089 
L 158.293333 237.545071 
L 134.43 231.871841 
L 132.975718 230.778089 
z
" clip-path="url(#p4892dae7a7)" style="fill: #32658e"/>
    <path d="M 98.561244 36.380776 
L 98.490786 47.600163 
L 99.776172 60.808896 
L 103.768041 76.198006 
L 100.416988 93.757994 
L 101.319666 113.137869 
L 103.597124 133.590571 
L 101.168128 154.013971 
L 108.851815 173.39493 
L 104.87163 190.956403 
L 106.836492 206.347113 
L 109.31978 219.557363 
L 107.251434 230.778089 
L 106.269131 240.28 
L 103.29426 240.28 
L 104.127209 230.778089 
L 105.881074 219.557363 
L 103.775357 206.347113 
L 102.109241 190.956403 
L 105.484261 173.39493 
L 98.968836 154.013971 
L 101.028517 133.590571 
L 99.097334 113.137869 
L 98.331903 93.757994 
L 101.173446 76.198006 
L 97.788519 60.808896 
L 96.698569 47.600163 
L 96.758314 36.380776 
L 96.839797 26.88 
L 98.657337 26.88 
z
M 316.040487 36.380776 
L 315.196289 47.600163 
L 315.856303 60.808896 
L 315.944552 76.198006 
L 315.435225 93.757994 
L 316.690289 113.137869 
L 316.00025 133.590571 
L 315.525941 154.013971 
L 315.729943 173.39493 
L 315.250214 190.956403 
L 314.937663 206.347113 
L 315.010443 219.557363 
L 314.56193 230.778089 
L 313.624052 240.28 
L 311.523896 240.28 
L 312.629943 230.778089 
L 313.158877 219.557363 
L 313.073048 206.347113 
L 313.441641 190.956403 
L 314.007388 173.39493 
L 313.766808 154.013971 
L 314.326164 133.590571 
L 315.139932 113.137869 
L 313.659826 93.757994 
L 314.260479 76.198006 
L 314.156406 60.808896 
L 313.378047 47.600163 
L 314.373616 36.380776 
L 315.48667 26.88 
L 316.984307 26.88 
z
M 158.293333 121.775597 
L 166.261638 133.590571 
L 171.136225 154.013971 
L 180.460951 173.39493 
L 159.257043 190.956403 
L 182.156667 205.826761 
L 182.83519 206.347113 
L 186.612048 219.557363 
L 206.02 230.23464 
L 206.580987 230.778089 
L 206.02 232.499656 
L 201.290959 240.28 
L 182.156667 240.28 
L 158.293333 240.28 
L 135.462959 240.28 
L 134.43 240.048707 
L 122.10354 230.778089 
L 125.29684 219.557363 
L 126.31073 206.347113 
L 134.43 197.529242 
L 156.569862 190.956403 
L 134.43 187.773185 
L 115.19589 173.39493 
L 134.43 159.96274 
L 142.33703 154.013971 
L 146.423396 133.590571 
z
M 150.775377 154.013971 
L 134.43 166.31124 
L 124.28657 173.39493 
L 134.43 180.977543 
L 158.293333 184.296013 
L 171.858924 173.39493 
L 164.344377 154.013971 
L 158.293333 136.557923 
z
M 132.975718 230.778089 
L 134.43 231.871841 
L 158.293333 237.545071 
L 177.536057 230.778089 
L 158.293333 220.942221 
L 134.43 229.126814 
z
" clip-path="url(#p4892dae7a7)" style="fill: #2c738e"/>
    <path d="M 100.364174 36.380776 
L 100.283003 47.600163 
L 101.763825 60.808896 
L 106.362636 76.198006 
L 102.502074 93.757994 
L 103.541999 113.137869 
L 106.165732 133.590571 
L 103.36742 154.013971 
L 110.566667 170.868067 
L 133.979651 154.013971 
L 132.596218 133.590571 
L 134.43 132.595993 
L 155.435413 113.137869 
L 158.293333 106.677936 
L 182.156667 112.248552 
L 184.917133 113.137869 
L 182.156667 117.649379 
L 175.652119 133.590571 
L 177.928073 154.013971 
L 182.156667 162.478944 
L 190.935264 173.39493 
L 185.306265 190.956403 
L 205.21429 206.347113 
L 206.02 207.608007 
L 215.397607 219.557363 
L 223.311027 230.778089 
L 229.883333 235.174842 
L 237.778166 240.28 
L 229.883333 240.28 
L 206.02 240.28 
L 201.290959 240.28 
L 206.02 232.499656 
L 206.580987 230.778089 
L 206.02 230.23464 
L 186.612048 219.557363 
L 182.83519 206.347113 
L 182.156667 205.826761 
L 159.257043 190.956403 
L 180.460951 173.39493 
L 171.136225 154.013971 
L 166.261638 133.590571 
L 158.293333 121.775597 
L 146.423396 133.590571 
L 142.33703 154.013971 
L 134.43 159.96274 
L 115.19589 173.39493 
L 134.43 187.773185 
L 156.569862 190.956403 
L 134.43 197.529242 
L 126.31073 206.347113 
L 125.29684 219.557363 
L 122.10354 230.778089 
L 134.43 240.048707 
L 135.462959 240.28 
L 134.43 240.28 
L 118.057828 240.28 
L 111.231363 230.778089 
L 110.566667 229.796025 
L 110.37566 230.778089 
L 109.244003 240.28 
L 106.269131 240.28 
L 107.251434 230.778089 
L 109.31978 219.557363 
L 106.836492 206.347113 
L 104.87163 190.956403 
L 108.851815 173.39493 
L 101.168128 154.013971 
L 103.597124 133.590571 
L 101.319666 113.137869 
L 100.416988 93.757994 
L 103.768041 76.198006 
L 99.776172 60.808896 
L 98.490786 47.600163 
L 98.561244 36.380776 
L 98.657337 26.88 
L 100.474878 26.88 
z
M 107.634019 190.956403 
L 109.897628 206.347113 
L 110.566667 209.720206 
L 113.390498 206.347113 
L 126.467944 190.956403 
L 110.566667 178.946753 
z
M 314.373616 36.380776 
L 313.378047 47.600163 
L 314.156406 60.808896 
L 314.260479 76.198006 
L 313.659826 93.757994 
L 315.139932 113.137869 
L 314.326164 133.590571 
L 313.766808 154.013971 
L 314.007388 173.39493 
L 313.441641 190.956403 
L 313.073048 206.347113 
L 313.158877 219.557363 
L 312.629943 230.778089 
L 311.523896 240.28 
L 309.423741 240.28 
L 310.697956 230.778089 
L 311.307311 219.557363 
L 311.208432 206.347113 
L 311.633068 190.956403 
L 312.284834 173.39493 
L 312.007675 154.013971 
L 312.652078 133.590571 
L 313.589575 113.137869 
L 311.884426 93.757994 
L 312.576406 76.198006 
L 312.456509 60.808896 
L 311.559805 47.600163 
L 312.706744 36.380776 
L 313.989032 26.88 
L 315.48667 26.88 
z
" clip-path="url(#p4892dae7a7)" style="fill: #26828e"/>
    <path d="M 102.167104 36.380776 
L 102.07522 47.600163 
L 103.751478 60.808896 
L 108.95723 76.198006 
L 104.587159 93.757994 
L 105.764332 113.137869 
L 108.73434 133.590571 
L 105.566712 154.013971 
L 110.566667 165.719323 
L 126.827236 154.013971 
L 119.738659 133.590571 
L 134.43 125.622513 
L 147.90741 113.137869 
L 153.288845 93.757994 
L 158.293333 92.622992 
L 160.025322 93.757994 
L 182.156667 107.711994 
L 198.998737 113.137869 
L 184.612317 133.590571 
L 186.588892 154.013971 
L 201.869281 173.39493 
L 206.02 186.692161 
L 208.15847 190.956403 
L 226.441677 206.347113 
L 229.883333 209.724694 
L 236.862916 219.557363 
L 239.535231 230.778089 
L 253.746667 239.522988 
L 255.050873 240.28 
L 253.746667 240.28 
L 237.778166 240.28 
L 229.883333 235.174842 
L 223.311027 230.778089 
L 215.397607 219.557363 
L 206.02 207.608007 
L 205.21429 206.347113 
L 185.306265 190.956403 
L 190.935264 173.39493 
L 182.156667 162.478944 
L 177.928073 154.013971 
L 175.652119 133.590571 
L 182.156667 117.649379 
L 184.917133 113.137869 
L 182.156667 112.248552 
L 158.293333 106.677936 
L 155.435413 113.137869 
L 134.43 132.595993 
L 132.596218 133.590571 
L 133.979651 154.013971 
L 110.566667 170.868067 
L 103.36742 154.013971 
L 106.165732 133.590571 
L 103.541999 113.137869 
L 102.502074 93.757994 
L 106.362636 76.198006 
L 101.763825 60.808896 
L 100.283003 47.600163 
L 100.364174 36.380776 
L 100.474878 26.88 
L 102.292418 26.88 
z
M 312.706744 36.380776 
L 311.559805 47.600163 
L 312.456509 60.808896 
L 312.576406 76.198006 
L 311.884426 93.757994 
L 313.589575 113.137869 
L 312.652078 133.590571 
L 312.007675 154.013971 
L 312.284834 173.39493 
L 311.633068 190.956403 
L 311.208432 206.347113 
L 311.307311 219.557363 
L 310.697956 230.778089 
L 309.423741 240.28 
L 307.323585 240.28 
L 308.765969 230.778089 
L 309.455746 219.557363 
L 309.343817 206.347113 
L 309.824495 190.956403 
L 310.56228 173.39493 
L 310.248542 154.013971 
L 310.977991 133.590571 
L 312.039217 113.137869 
L 310.109027 93.757994 
L 310.892333 76.198006 
L 310.756613 60.808896 
L 309.741562 47.600163 
L 311.039873 36.380776 
L 312.491394 26.88 
L 313.989032 26.88 
z
M 110.566667 178.946753 
L 126.467944 190.956403 
L 113.390498 206.347113 
L 110.566667 209.720206 
L 109.897628 206.347113 
L 107.634019 190.956403 
z
M 110.396409 190.956403 
L 110.566667 192.081565 
L 111.489833 190.956403 
L 110.566667 190.259169 
z
M 110.566667 229.796025 
L 111.231363 230.778089 
L 118.057828 240.28 
L 110.566667 240.28 
L 109.244003 240.28 
L 110.37566 230.778089 
z
" clip-path="url(#p4892dae7a7)" style="fill: #21918c"/>
    <path d="M 103.970034 36.380776 
L 103.867437 47.600163 
L 105.739131 60.808896 
L 110.566667 74.117438 
L 134.43 72.703395 
L 138.578408 76.198006 
L 158.293333 87.907932 
L 167.220399 93.757994 
L 182.156667 103.175437 
L 206.02 110.559933 
L 212.061305 113.137869 
L 206.02 117.840655 
L 192.602711 133.590571 
L 198.332948 154.013971 
L 206.02 163.96412 
L 214.431012 173.39493 
L 225.724711 190.956403 
L 229.883333 194.348067 
L 244.445418 206.347113 
L 251.620385 219.557363 
L 253.746667 226.021394 
L 256.581844 230.778089 
L 271.903723 240.28 
L 255.050873 240.28 
L 253.746667 239.522988 
L 239.535231 230.778089 
L 236.862916 219.557363 
L 229.883333 209.724694 
L 226.441677 206.347113 
L 208.15847 190.956403 
L 206.02 186.692161 
L 201.869281 173.39493 
L 186.588892 154.013971 
L 184.612317 133.590571 
L 198.998737 113.137869 
L 182.156667 107.711994 
L 160.025322 93.757994 
L 158.293333 92.622992 
L 153.288845 93.757994 
L 147.90741 113.137869 
L 134.43 125.622513 
L 119.738659 133.590571 
L 126.827236 154.013971 
L 110.566667 165.719323 
L 105.566712 154.013971 
L 108.73434 133.590571 
L 105.764332 113.137869 
L 104.587159 93.757994 
L 108.95723 76.198006 
L 103.751478 60.808896 
L 102.07522 47.600163 
L 102.167104 36.380776 
L 102.292418 26.88 
L 104.109959 26.88 
z
M 106.672245 93.757994 
L 107.986665 113.137869 
L 110.566667 129.540607 
L 134.43 118.649033 
L 140.379406 113.137869 
L 134.43 95.796068 
L 133.299541 93.757994 
L 110.566667 79.164688 
z
M 107.766005 154.013971 
L 110.566667 160.570578 
L 119.674822 154.013971 
L 110.566667 137.343115 
z
M 311.039873 36.380776 
L 309.741562 47.600163 
L 310.756613 60.808896 
L 310.892333 76.198006 
L 310.109027 93.757994 
L 312.039217 113.137869 
L 310.977991 133.590571 
L 310.248542 154.013971 
L 310.56228 173.39493 
L 309.824495 190.956403 
L 309.343817 206.347113 
L 309.455746 219.557363 
L 308.765969 230.778089 
L 307.323585 240.28 
L 305.22343 240.28 
L 306.833982 230.778089 
L 307.60418 219.557363 
L 307.479201 206.347113 
L 308.015922 190.956403 
L 308.839726 173.39493 
L 308.489409 154.013971 
L 309.303905 133.590571 
L 310.48886 113.137869 
L 308.333628 93.757994 
L 309.20826 76.198006 
L 309.056716 60.808896 
L 307.92332 47.600163 
L 309.373001 36.380776 
L 310.993757 26.88 
L 312.491394 26.88 
z
M 110.566667 190.259169 
L 111.489833 190.956403 
L 110.566667 192.081565 
L 110.396409 190.956403 
z
" clip-path="url(#p4892dae7a7)" style="fill: #1f9f88"/>
    <path d="M 105.772964 36.380776 
L 105.659654 47.600163 
L 107.726784 60.808896 
L 110.566667 68.63788 
L 134.43 66.016178 
L 146.51672 76.198006 
L 158.293333 83.192873 
L 174.415477 93.757994 
L 182.156667 98.63888 
L 206.02 105.41833 
L 224.110479 113.137869 
L 206.02 127.220197 
L 200.593105 133.590571 
L 206.02 147.128263 
L 211.093263 154.013971 
L 227.988747 173.39493 
L 229.883333 176.112616 
L 242.501415 190.956403 
L 253.746667 200.097621 
L 261.262038 206.347113 
L 266.145546 219.557363 
L 277.61 228.393111 
L 280.173852 230.778089 
L 288.517381 240.28 
L 277.61 240.28 
L 271.903723 240.28 
L 256.581844 230.778089 
L 253.746667 226.021394 
L 251.620385 219.557363 
L 244.445418 206.347113 
L 229.883333 194.348067 
L 225.724711 190.956403 
L 214.431012 173.39493 
L 206.02 163.96412 
L 198.332948 154.013971 
L 192.602711 133.590571 
L 206.02 117.840655 
L 212.061305 113.137869 
L 206.02 110.559933 
L 182.156667 103.175437 
L 167.220399 93.757994 
L 158.293333 87.907932 
L 138.578408 76.198006 
L 134.43 72.703395 
L 110.566667 74.117438 
L 105.739131 60.808896 
L 103.867437 47.600163 
L 103.970034 36.380776 
L 104.109959 26.88 
L 105.927499 26.88 
z
M 309.373001 36.380776 
L 307.92332 47.600163 
L 309.056716 60.808896 
L 309.20826 76.198006 
L 308.333628 93.757994 
L 310.48886 113.137869 
L 309.303905 133.590571 
L 308.489409 154.013971 
L 308.839726 173.39493 
L 308.015922 190.956403 
L 307.479201 206.347113 
L 307.60418 219.557363 
L 306.833982 230.778089 
L 305.22343 240.28 
L 303.123274 240.28 
L 304.901995 230.778089 
L 305.752614 219.557363 
L 305.614585 206.347113 
L 306.207348 190.956403 
L 307.117172 173.39493 
L 306.730276 154.013971 
L 307.629819 133.590571 
L 308.938503 113.137869 
L 306.558229 93.757994 
L 307.524187 76.198006 
L 307.356819 60.808896 
L 306.105078 47.600163 
L 307.70613 36.380776 
L 309.496119 26.88 
L 310.993757 26.88 
z
M 110.566667 79.164688 
L 133.299541 93.757994 
L 134.43 95.796068 
L 140.379406 113.137869 
L 134.43 118.649033 
L 110.566667 129.540607 
L 107.986665 113.137869 
L 106.672245 93.757994 
z
M 108.75733 93.757994 
L 110.208998 113.137869 
L 110.566667 115.411802 
L 120.928852 113.137869 
L 121.12829 93.757994 
L 110.566667 86.977989 
z
M 110.566667 137.343115 
L 119.674822 154.013971 
L 110.566667 160.570578 
L 107.766005 154.013971 
z
M 109.965297 154.013971 
L 110.566667 155.421833 
L 112.522408 154.013971 
L 110.566667 150.434335 
z
" clip-path="url(#p4892dae7a7)" style="fill: #26ad81"/>
    <path d="M 107.575894 36.380776 
L 107.451872 47.600163 
L 109.714436 60.808896 
L 110.566667 63.158322 
L 126.306033 60.808896 
L 134.43 59.902428 
L 136.477282 60.808896 
L 154.455032 76.198006 
L 158.293333 78.477813 
L 181.610554 93.757994 
L 182.156667 94.102323 
L 206.02 100.276726 
L 229.883333 110.166544 
L 236.048436 113.137869 
L 229.883333 130.68024 
L 224.819466 133.590571 
L 225.77915 154.013971 
L 229.883333 158.766259 
L 244.166339 173.39493 
L 253.746667 184.694323 
L 261.980755 190.956403 
L 277.422777 206.347113 
L 277.61 207.042214 
L 280.88525 219.557363 
L 292.175716 230.778089 
L 301.473333 238.22051 
L 302.970007 230.778089 
L 303.901048 219.557363 
L 303.74997 206.347113 
L 304.398775 190.956403 
L 305.394617 173.39493 
L 304.971143 154.013971 
L 305.955733 133.590571 
L 307.388146 113.137869 
L 304.782829 93.757994 
L 305.840113 76.198006 
L 305.656922 60.808896 
L 304.286836 47.600163 
L 306.039258 36.380776 
L 307.998481 26.88 
L 309.496119 26.88 
L 307.70613 36.380776 
L 306.105078 47.600163 
L 307.356819 60.808896 
L 307.524187 76.198006 
L 306.558229 93.757994 
L 308.938503 113.137869 
L 307.629819 133.590571 
L 306.730276 154.013971 
L 307.117172 173.39493 
L 306.207348 190.956403 
L 305.614585 206.347113 
L 305.752614 219.557363 
L 304.901995 230.778089 
L 303.123274 240.28 
L 301.473333 240.28 
L 288.517381 240.28 
L 280.173852 230.778089 
L 277.61 228.393111 
L 266.145546 219.557363 
L 261.262038 206.347113 
L 253.746667 200.097621 
L 242.501415 190.956403 
L 229.883333 176.112616 
L 227.988747 173.39493 
L 211.093263 154.013971 
L 206.02 147.128263 
L 200.593105 133.590571 
L 206.02 127.220197 
L 224.110479 113.137869 
L 206.02 105.41833 
L 182.156667 98.63888 
L 174.415477 93.757994 
L 158.293333 83.192873 
L 146.51672 76.198006 
L 134.43 66.016178 
L 110.566667 68.63788 
L 107.726784 60.808896 
L 105.659654 47.600163 
L 105.772964 36.380776 
L 105.927499 26.88 
L 107.745039 26.88 
z
M 110.566667 86.977989 
L 121.12829 93.757994 
L 120.928852 113.137869 
L 110.566667 115.411802 
L 110.208998 113.137869 
L 108.75733 93.757994 
z
M 110.566667 150.434335 
L 112.522408 154.013971 
L 110.566667 155.421833 
L 109.965297 154.013971 
z
" clip-path="url(#p4892dae7a7)" style="fill: #3aba76"/>
    <path d="M 109.378823 36.380776 
L 109.244089 47.600163 
L 110.566667 55.045558 
L 134.43 55.806471 
L 145.728105 60.808896 
L 158.293333 71.958423 
L 170.067512 76.198006 
L 182.156667 82.600697 
L 200.657679 93.757994 
L 206.02 95.135123 
L 229.883333 104.462242 
L 247.884097 113.137869 
L 248.172239 133.590571 
L 253.746667 146.221158 
L 257.347982 154.013971 
L 263.782173 173.39493 
L 277.61 183.883547 
L 286.890727 190.956403 
L 297.113228 206.347113 
L 296.587335 219.557363 
L 301.473333 226.065508 
L 302.049483 219.557363 
L 301.885354 206.347113 
L 302.590202 190.956403 
L 303.672063 173.39493 
L 303.21201 154.013971 
L 304.281647 133.590571 
L 305.837788 113.137869 
L 303.00743 93.757994 
L 304.15604 76.198006 
L 303.957025 60.808896 
L 302.468594 47.600163 
L 304.372387 36.380776 
L 306.500843 26.88 
L 307.998481 26.88 
L 306.039258 36.380776 
L 304.286836 47.600163 
L 305.656922 60.808896 
L 305.840113 76.198006 
L 304.782829 93.757994 
L 307.388146 113.137869 
L 305.955733 133.590571 
L 304.971143 154.013971 
L 305.394617 173.39493 
L 304.398775 190.956403 
L 303.74997 206.347113 
L 303.901048 219.557363 
L 302.970007 230.778089 
L 301.473333 238.22051 
L 292.175716 230.778089 
L 280.88525 219.557363 
L 277.61 207.042214 
L 277.422777 206.347113 
L 261.980755 190.956403 
L 253.746667 184.694323 
L 244.166339 173.39493 
L 229.883333 158.766259 
L 225.77915 154.013971 
L 224.819466 133.590571 
L 229.883333 130.68024 
L 236.048436 113.137869 
L 229.883333 110.166544 
L 206.02 100.276726 
L 182.156667 94.102323 
L 181.610554 93.757994 
L 158.293333 78.477813 
L 154.455032 76.198006 
L 136.477282 60.808896 
L 134.43 59.902428 
L 126.306033 60.808896 
L 110.566667 63.158322 
L 109.714436 60.808896 
L 107.451872 47.600163 
L 107.575894 36.380776 
L 107.745039 26.88 
L 109.56258 26.88 
z
M 158.293333 26.88 
L 161.161189 26.88 
L 158.293333 28.243409 
L 139.351048 26.88 
z
M 229.883333 36.380771 
L 253.746667 35.973067 
L 256.90043 36.380776 
L 277.61 47.249733 
L 278.415469 47.600163 
L 277.61 47.756668 
L 253.746667 48.133731 
L 251.31607 47.600163 
L 229.883333 36.380808 
L 229.88331 36.380776 
z
" clip-path="url(#p4892dae7a7)" style="fill: #56c667"/>
    <path d="M 110.566667 26.88 
L 134.43 26.88 
L 139.351048 26.88 
L 158.293333 28.243409 
L 161.161189 26.88 
L 171.862766 26.88 
L 158.293333 33.331053 
L 134.43 33.958008 
L 122.908853 36.380776 
L 115.507756 47.600163 
L 134.43 51.710514 
L 154.978927 60.808896 
L 158.293333 63.749873 
L 170.744565 60.808896 
L 182.156667 56.423357 
L 188.072596 60.808896 
L 206.02 69.598414 
L 216.290808 76.198006 
L 216.880923 93.757994 
L 229.883333 98.757941 
L 253.746667 105.196489 
L 261.880672 113.137869 
L 272.311727 133.590571 
L 277.61 151.164597 
L 301.473333 153.669341 
L 302.60756 133.590571 
L 304.287431 113.137869 
L 301.473333 95.108043 
L 296.413734 93.757994 
L 301.473333 90.483676 
L 302.471967 76.198006 
L 302.257128 60.808896 
L 301.473333 54.143389 
L 277.61 55.941568 
L 253.746667 56.903507 
L 241.11462 60.808896 
L 229.883333 65.205544 
L 223.096433 60.808896 
L 206.02 52.203096 
L 195.36617 47.600163 
L 206.02 42.377147 
L 215.077396 36.380776 
L 229.883333 33.18961 
L 253.746667 31.458781 
L 277.61 34.717 
L 286.082536 36.380776 
L 301.473333 43.33939 
L 302.705516 36.380776 
L 305.003206 26.88 
L 306.500843 26.88 
L 304.372387 36.380776 
L 302.468594 47.600163 
L 303.957025 60.808896 
L 304.15604 76.198006 
L 303.00743 93.757994 
L 305.837788 113.137869 
L 304.281647 133.590571 
L 303.21201 154.013971 
L 303.672063 173.39493 
L 302.590202 190.956403 
L 301.885354 206.347113 
L 302.049483 219.557363 
L 301.473333 226.065508 
L 296.587335 219.557363 
L 297.113228 206.347113 
L 286.890727 190.956403 
L 277.61 183.883547 
L 263.782173 173.39493 
L 257.347982 154.013971 
L 253.746667 146.221158 
L 248.172239 133.590571 
L 247.884097 113.137869 
L 229.883333 104.462242 
L 206.02 95.135123 
L 200.657679 93.757994 
L 182.156667 82.600697 
L 170.067512 76.198006 
L 158.293333 71.958423 
L 145.728105 60.808896 
L 134.43 55.806471 
L 110.566667 55.045558 
L 109.244089 47.600163 
L 109.378823 36.380776 
L 109.56258 26.88 
z
M 229.88331 36.380776 
L 229.883333 36.380808 
L 251.31607 47.600163 
L 253.746667 48.133731 
L 277.61 47.756668 
L 278.415469 47.600163 
L 277.61 47.249733 
L 256.90043 36.380776 
L 253.746667 35.973067 
L 229.883333 36.380771 
z
M 291.962731 173.39493 
L 301.473333 180.762757 
L 301.949509 173.39493 
L 301.473333 154.796363 
z
M 206.02 26.88 
L 209.219603 26.88 
L 206.02 30.048885 
L 200.258541 26.88 
z
" clip-path="url(#p4892dae7a7)" style="fill: #77d153"/>
    <path d="M 134.43 33.958008 
L 158.293333 33.331053 
L 171.862766 26.88 
L 182.156667 26.88 
L 200.258541 26.88 
L 206.02 30.048885 
L 209.219603 26.88 
L 219.670532 26.88 
L 229.883333 29.998449 
L 253.746667 26.944495 
L 277.61 30.628449 
L 301.473333 34.849242 
L 303.505568 26.88 
L 305.003206 26.88 
L 302.705516 36.380776 
L 301.473333 43.33939 
L 286.082536 36.380776 
L 277.61 34.717 
L 253.746667 31.458781 
L 229.883333 33.18961 
L 215.077396 36.380776 
L 206.02 42.377147 
L 195.36617 47.600163 
L 206.02 52.203096 
L 223.096433 60.808896 
L 229.883333 65.205544 
L 241.11462 60.808896 
L 253.746667 56.903507 
L 277.61 55.941568 
L 301.473333 54.143389 
L 302.257128 60.808896 
L 302.471967 76.198006 
L 301.473333 90.483676 
L 296.413734 93.757994 
L 301.473333 95.108043 
L 304.287431 113.137869 
L 302.60756 133.590571 
L 301.473333 153.669341 
L 277.61 151.164597 
L 272.311727 133.590571 
L 261.880672 113.137869 
L 253.746667 105.196489 
L 229.883333 98.757941 
L 216.880923 93.757994 
L 216.290808 76.198006 
L 206.02 69.598414 
L 188.072596 60.808896 
L 182.156667 56.423357 
L 170.744565 60.808896 
L 158.293333 63.749873 
L 154.978927 60.808896 
L 134.43 51.710514 
L 115.507756 47.600163 
L 122.908853 36.380776 
z
M 134.363731 47.600163 
L 134.43 47.614558 
L 135.291843 47.600163 
L 134.43 47.542604 
z
M 230.254373 76.198006 
L 253.746667 88.491787 
L 268.072552 76.198006 
L 253.746667 67.968749 
z
M 278.294839 113.137869 
L 301.473333 127.792807 
L 302.737074 113.137869 
L 301.473333 105.041128 
z
M 301.473333 154.796363 
L 301.949509 173.39493 
L 301.473333 180.762757 
L 291.962731 173.39493 
z
" clip-path="url(#p4892dae7a7)" style="fill: #9dd93b"/>
    <path d="M 229.883333 26.88 
L 253.746667 26.88 
L 277.61 26.88 
L 282.119995 26.88 
L 301.473333 28.976378 
L 302.00793 26.88 
L 303.505568 26.88 
L 301.473333 34.849242 
L 277.61 30.628449 
L 253.746667 26.944495 
L 229.883333 29.998449 
L 219.670532 26.88 
z
M 134.43 47.542604 
L 135.291843 47.600163 
L 134.43 47.614558 
L 134.363731 47.600163 
z
M 253.746667 67.968749 
L 268.072552 76.198006 
L 253.746667 88.491787 
L 230.254373 76.198006 
z
M 301.473333 105.041128 
L 302.737074 113.137869 
L 301.473333 127.792807 
L 278.294839 113.137869 
z
" clip-path="url(#p4892dae7a7)" style="fill: #c5e021"/>
    <path d="M 301.473333 26.88 
L 302.00793 26.88 
L 301.473333 28.976378 
L 282.119995 26.88 
z
" clip-path="url(#p4892dae7a7)" style="fill: #ece51b"/>
   </g>
   <g id="matplotlib.axis_1">
    <g id="xtick_1">
     <g id="line2d_1">
      <defs>
       <path id="m9a6a55b018" d="M 0 0 
L 0 3.5 
" style="stroke: #000000; stroke-width: 0.8"/>
      </defs>
      <g>
       <use xlink:href="#m9a6a55b018" x="126.475556" y="240.28" style="stroke: #000000; stroke-width: 0.8"/>
      </g>
     </g>
     <g id="text_1">
      <!-- −50 -->
      <g transform="translate(113.812743 256.398125) scale(0.12 -0.12)">
       <defs>
        <path id="DejaVuSans-2212" d="M 678 2272 
L 4684 2272 
L 4684 1741 
L 678 1741 
L 678 2272 
z
" transform="scale(0.015625)"/>
        <path id="DejaVuSans-35" d="M 691 4666 
L 3169 4666 
L 3169 4134 
L 1269 4134 
L 1269 2991 
Q 1406 3038 1543 3061 
Q 1681 3084 1819 3084 
Q 2600 3084 3056 2656 
Q 3513 2228 3513 1497 
Q 3513 744 3044 326 
Q 2575 -91 1722 -91 
Q 1428 -91 1123 -41 
Q 819 9 494 109 
L 494 744 
Q 775 591 1075 516 
Q 1375 441 1709 441 
Q 2250 441 2565 725 
Q 2881 1009 2881 1497 
Q 2881 1984 2565 2268 
Q 2250 2553 1709 2553 
Q 1456 2553 1204 2497 
Q 953 2441 691 2322 
L 691 4666 
z
" transform="scale(0.015625)"/>
        <path id="DejaVuSans-30" d="M 2034 4250 
Q 1547 4250 1301 3770 
Q 1056 3291 1056 2328 
Q 1056 1369 1301 889 
Q 1547 409 2034 409 
Q 2525 409 2770 889 
Q 3016 1369 3016 2328 
Q 3016 3291 2770 3770 
Q 2525 4250 2034 4250 
z
M 2034 4750 
Q 2819 4750 3233 4129 
Q 3647 3509 3647 2328 
Q 3647 1150 3233 529 
Q 2819 -91 2034 -91 
Q 1250 -91 836 529 
Q 422 1150 422 2328 
Q 422 3509 836 4129 
Q 1250 4750 2034 4750 
z
" transform="scale(0.015625)"/>
       </defs>
       <use xlink:href="#DejaVuSans-2212"/>
       <use xlink:href="#DejaVuSans-35" transform="translate(83.789062 0)"/>
       <use xlink:href="#DejaVuSans-30" transform="translate(147.412109 0)"/>
      </g>
     </g>
    </g>
    <g id="xtick_2">
     <g id="line2d_2">
      <g>
       <use xlink:href="#m9a6a55b018" x="206.02" y="240.28" style="stroke: #000000; stroke-width: 0.8"/>
      </g>
     </g>
     <g id="text_2">
      <!-- 0 -->
      <g transform="translate(202.2025 256.398125) scale(0.12 -0.12)">
       <use xlink:href="#DejaVuSans-30"/>
      </g>
     </g>
    </g>
    <g id="xtick_3">
     <g id="line2d_3">
      <g>
       <use xlink:href="#m9a6a55b018" x="285.564444" y="240.28" style="stroke: #000000; stroke-width: 0.8"/>
      </g>
     </g>
     <g id="text_3">
      <!-- 50 -->
      <g transform="translate(277.929444 256.398125) scale(0.12 -0.12)">
       <use xlink:href="#DejaVuSans-35"/>
       <use xlink:href="#DejaVuSans-30" transform="translate(63.623047 0)"/>
      </g>
     </g>
    </g>
    <g id="text_4">
     <!-- $\Theta^{\circ}$ -->
     <g transform="translate(198.4 272.011875) scale(0.12 -0.12)">
      <defs>
       <path id="DejaVuSans-398" d="M 1416 2750 
L 3622 2750 
L 3622 2219 
L 1416 2219 
L 1416 2750 
z
M 2522 4238 
Q 1834 4238 1431 3725 
Q 1025 3213 1025 2328 
Q 1025 1447 1429 934 
Q 1834 422 2522 422 
Q 3209 422 3613 934 
Q 4013 1447 4013 2328 
Q 4013 3213 3613 3725 
Q 3209 4238 2522 4238 
z
M 2522 4750 
Q 3503 4750 4090 4092 
Q 4678 3434 4678 2328 
Q 4678 1225 4091 569 
Q 3503 -91 2522 -91 
Q 1538 -91 950 566 
Q 359 1222 359 2328 
Q 359 3434 950 4094 
Q 1538 4750 2522 4750 
z
" transform="scale(0.015625)"/>
       <path id="DejaVuSans-2218" d="M 2000 2619 
Q 1750 2619 1578 2445 
Q 1406 2272 1406 2022 
Q 1406 1775 1578 1605 
Q 1750 1435 2000 1435 
Q 2250 1435 2422 1605 
Q 2594 1775 2594 2022 
Q 2594 2269 2420 2444 
Q 2247 2619 2000 2619 
z
M 2000 3022 
Q 2200 3022 2384 2945 
Q 2569 2869 2703 2725 
Q 2847 2585 2919 2406 
Q 2991 2228 2991 2022 
Q 2991 1610 2702 1324 
Q 2413 1038 1994 1038 
Q 1572 1038 1290 1319 
Q 1009 1600 1009 2022 
Q 1009 2441 1296 2731 
Q 1584 3022 2000 3022 
z
" transform="scale(0.015625)"/>
      </defs>
      <use xlink:href="#DejaVuSans-398" transform="translate(0 0.78125)"/>
      <use xlink:href="#DejaVuSans-2218" transform="translate(79.667969 39.0625) scale(0.7)"/>
     </g>
    </g>
   </g>
   <g id="matplotlib.axis_2">
    <g id="ytick_1">
     <g id="line2d_4">
      <defs>
       <path id="mf20ac063d3" d="M 0 0 
L -3.5 0 
" style="stroke: #000000; stroke-width: 0.8"/>
      </defs>
      <g>
       <use xlink:href="#mf20ac063d3" x="62.84" y="219.984151" style="stroke: #000000; stroke-width: 0.8"/>
      </g>
     </g>
     <g id="text_5">
      <!-- −40 -->
      <g transform="translate(30.514375 224.543214) scale(0.12 -0.12)">
       <defs>
        <path id="DejaVuSans-34" d="M 2419 4116 
L 825 1625 
L 2419 1625 
L 2419 4116 
z
M 2253 4666 
L 3047 4666 
L 3047 1625 
L 3713 1625 
L 3713 1100 
L 3047 1100 
L 3047 0 
L 2419 0 
L 2419 1100 
L 313 1100 
L 313 1709 
L 2253 4666 
z
" transform="scale(0.015625)"/>
       </defs>
       <use xlink:href="#DejaVuSans-2212"/>
       <use xlink:href="#DejaVuSans-34" transform="translate(83.789062 0)"/>
       <use xlink:href="#DejaVuSans-30" transform="translate(147.412109 0)"/>
      </g>
     </g>
    </g>
    <g id="ytick_2">
     <g id="line2d_5">
      <g>
       <use xlink:href="#mf20ac063d3" x="62.84" y="176.783648" style="stroke: #000000; stroke-width: 0.8"/>
      </g>
     </g>
     <g id="text_6">
      <!-- −20 -->
      <g transform="translate(30.514375 181.342711) scale(0.12 -0.12)">
       <defs>
        <path id="DejaVuSans-32" d="M 1228 531 
L 3431 531 
L 3431 0 
L 469 0 
L 469 531 
Q 828 903 1448 1529 
Q 2069 2156 2228 2338 
Q 2531 2678 2651 2914 
Q 2772 3150 2772 3378 
Q 2772 3750 2511 3984 
Q 2250 4219 1831 4219 
Q 1534 4219 1204 4116 
Q 875 4013 500 3803 
L 500 4441 
Q 881 4594 1212 4672 
Q 1544 4750 1819 4750 
Q 2544 4750 2975 4387 
Q 3406 4025 3406 3419 
Q 3406 3131 3298 2873 
Q 3191 2616 2906 2266 
Q 2828 2175 2409 1742 
Q 1991 1309 1228 531 
z
" transform="scale(0.015625)"/>
       </defs>
       <use xlink:href="#DejaVuSans-2212"/>
       <use xlink:href="#DejaVuSans-32" transform="translate(83.789062 0)"/>
       <use xlink:href="#DejaVuSans-30" transform="translate(147.412109 0)"/>
      </g>
     </g>
    </g>
    <g id="ytick_3">
     <g id="line2d_6">
      <g>
       <use xlink:href="#mf20ac063d3" x="62.84" y="133.583145" style="stroke: #000000; stroke-width: 0.8"/>
      </g>
     </g>
     <g id="text_7">
      <!-- 0 -->
      <g transform="translate(48.205 138.142208) scale(0.12 -0.12)">
       <use xlink:href="#DejaVuSans-30"/>
      </g>
     </g>
    </g>
    <g id="ytick_4">
     <g id="line2d_7">
      <g>
       <use xlink:href="#mf20ac063d3" x="62.84" y="90.382642" style="stroke: #000000; stroke-width: 0.8"/>
      </g>
     </g>
     <g id="text_8">
      <!-- 20 -->
      <g transform="translate(40.57 94.941704) scale(0.12 -0.12)">
       <use xlink:href="#DejaVuSans-32"/>
       <use xlink:href="#DejaVuSans-30" transform="translate(63.623047 0)"/>
      </g>
     </g>
    </g>
    <g id="ytick_5">
     <g id="line2d_8">
      <g>
       <use xlink:href="#mf20ac063d3" x="62.84" y="47.182139" style="stroke: #000000; stroke-width: 0.8"/>
      </g>
     </g>
     <g id="text_9">
      <!-- 40 -->
      <g transform="translate(40.57 51.741201) scale(0.12 -0.12)">
       <use xlink:href="#DejaVuSans-34"/>
       <use xlink:href="#DejaVuSans-30" transform="translate(63.623047 0)"/>
      </g>
     </g>
    </g>
    <g id="text_10">
     <!-- $\phi^{\circ}$ -->
     <g transform="translate(23.784375 141.38) rotate(-90) scale(0.13 -0.13)">
      <defs>
       <path id="DejaVuSans-Oblique-3d5" d="M 2991 4863 
L 2738 3572 
Q 3363 3572 3684 3094 
Q 4016 2606 3850 1747 
Q 3681 888 3159 400 
Q 2653 -78 2028 -78 
L 1784 -1331 
L 1213 -1331 
L 1456 -78 
Q 834 -78 509 400 
Q 178 888 347 1747 
Q 513 2606 1034 3094 
Q 1544 3572 2166 3572 
L 2419 4863 
L 2991 4863 
z
M 2128 434 
Q 2481 434 2784 756 
Q 3116 1116 3244 1747 
Q 3369 2372 3169 2738 
Q 2991 3059 2638 3059 
L 2128 434 
z
M 1556 434 
L 2066 3059 
Q 1716 3059 1413 2738 
Q 1072 2372 953 1747 
Q 834 1116 1028 756 
Q 1203 434 1556 434 
z
" transform="scale(0.015625)"/>
      </defs>
      <use xlink:href="#DejaVuSans-Oblique-3d5" transform="translate(0 0.015625)"/>
      <use xlink:href="#DejaVuSans-2218" transform="translate(73.414505 38.296875) scale(0.7)"/>
     </g>
    </g>
   </g>
   <g id="QuadContourSet_2">
    <path clip-path="url(#p4892dae7a7)" style="fill: none; stroke-dasharray: 1.85,0.8; stroke-dashoffset: 0; stroke: #000000; stroke-width: 0.5"/>
    <path d="M 324.472496 26.88 
L 324.374844 36.380776 
L 324.2875 47.600163 
L 324.355788 60.808896 
L 324.364918 76.198006 
L 324.312221 93.757994 
L 324.442075 113.137869 
L 324.416633 120.426356 
M 324.33905 146.754823 
L 324.321607 154.013971 
L 324.342714 173.39493 
L 324.293079 190.956403 
L 324.260741 206.347113 
L 324.268271 219.557363 
L 324.221866 230.778089 
L 324.124829 240.28 
M 88.419902 240.28 
L 88.506082 230.778089 
L 88.687545 219.557363 
L 88.469678 206.347113 
L 88.297294 190.956403 
L 88.646488 173.39493 
L 87.972375 154.013971 
L 88.048125 146.754227 
M 88.056878 120.426837 
L 87.98567 113.137869 
L 87.906475 93.757994 
L 88.200473 76.198006 
L 87.850254 60.808896 
L 87.737483 47.600163 
L 87.743665 36.380776 
L 87.752095 26.88 
" clip-path="url(#p4892dae7a7)" style="fill: none; stroke-dasharray: 1.85,0.8; stroke-dashoffset: 0; stroke: #000000; stroke-width: 0.5"/>
    <path d="M 322.974858 26.88 
L 322.707973 36.380776 
L 322.469258 47.600163 
L 322.655891 60.808896 
L 322.680845 76.198006 
L 322.536822 93.757994 
L 322.891718 113.137869 
L 322.821767 120.470113 
M 322.610431 146.711304 
L 322.562474 154.013971 
L 322.62016 173.39493 
L 322.484506 190.956403 
L 322.396126 206.347113 
L 322.416706 219.557363 
L 322.289879 230.778089 
L 322.024674 240.28 
M 91.394773 240.28 
L 91.630307 230.778089 
L 92.126251 219.557363 
L 91.530814 206.347113 
L 91.059684 190.956403 
L 92.014043 173.39493 
L 90.171667 154.013971 
L 90.380045 146.706866 
M 90.403868 120.473698 
L 90.208002 113.137869 
L 89.99156 93.757994 
L 90.795068 76.198006 
L 89.837907 60.808896 
L 89.5297 47.600163 
L 89.546595 36.380776 
L 89.569636 26.88 
" clip-path="url(#p4892dae7a7)" style="fill: none; stroke-dasharray: 1.85,0.8; stroke-dashoffset: 0; stroke: #000000; stroke-width: 0.5"/>
    <path d="M 321.47722 26.88 
L 321.041101 36.380776 
L 320.651015 47.600163 
L 320.955994 60.808896 
L 320.996772 76.198006 
L 320.761423 93.757994 
L 321.341361 113.137869 
L 321.226364 120.514289 
M 320.882176 146.667587 
L 320.803341 154.013971 
L 320.897605 173.39493 
L 320.675933 190.956403 
L 320.53151 206.347113 
L 320.56514 219.557363 
L 320.357892 230.778089 
L 319.924518 240.28 
M 94.369645 240.28 
L 94.754533 230.778089 
L 95.564956 219.557363 
L 94.591949 206.347113 
L 93.822073 190.956403 
L 95.381597 173.39493 
L 92.370959 154.013971 
L 92.713852 146.655785 
M 92.752587 120.52382 
L 92.430335 113.137869 
L 92.076646 93.757994 
L 93.389662 76.198006 
L 91.82556 60.808896 
L 91.321917 47.600163 
L 91.349524 36.380776 
L 91.387176 26.88 
" clip-path="url(#p4892dae7a7)" style="fill: none; stroke-dasharray: 1.85,0.8; stroke-dashoffset: 0; stroke: #000000; stroke-width: 0.5"/>
    <path d="M 319.979583 26.88 
L 319.37423 36.380776 
L 318.832773 47.600163 
L 319.256097 60.808896 
L 319.312699 76.198006 
L 318.986023 93.757994 
L 319.791004 113.137869 
L 319.631355 120.515583 
M 319.153644 146.666974 
L 319.044208 154.013971 
L 319.175051 173.39493 
L 318.86736 190.956403 
L 318.666894 206.347113 
L 318.713574 219.557363 
L 318.425905 230.778089 
L 317.824363 240.28 
M 97.344516 240.28 
L 97.878758 230.778089 
L 99.003662 219.557363 
L 97.653085 206.347113 
L 96.584462 190.956403 
L 98.749152 173.39493 
L 94.570251 154.013971 
L 95.046947 146.644267 
M 95.100579 120.533922 
L 94.652668 113.137869 
L 94.161731 93.757994 
L 95.984257 76.198006 
L 93.813213 60.808896 
L 93.114135 47.600163 
L 93.152454 36.380776 
L 93.204716 26.88 
" clip-path="url(#p4892dae7a7)" style="fill: none; stroke-dasharray: 1.85,0.8; stroke-dashoffset: 0; stroke: #000000; stroke-width: 0.5"/>
    <path d="M 318.481945 26.88 
L 317.707358 36.380776 
L 317.014531 47.600163 
L 317.5562 60.808896 
L 317.628626 76.198006 
L 317.210624 93.757994 
L 318.240646 113.137869 
L 318.036319 120.517297 
M 317.425121 146.666162 
L 317.285075 154.013971 
L 317.452497 173.39493 
L 317.058787 190.956403 
L 316.802279 206.347113 
L 316.862008 219.557363 
L 316.493918 230.778089 
L 315.724207 240.28 
M 100.319388 240.28 
L 101.002984 230.778089 
L 102.442368 219.557363 
L 100.714221 206.347113 
L 99.346851 190.956403 
L 102.116706 173.39493 
L 96.769544 154.013971 
L 97.380765 146.629052 
M 97.449166 120.547272 
L 96.875001 113.137869 
L 96.246817 93.757994 
L 98.578852 76.198006 
L 95.800866 60.808896 
L 94.906352 47.600163 
L 94.955384 36.380776 
L 95.022257 26.88 
M 161.222249 166.713344 
L 158.293333 157.095074 
L 134.43 172.65974 
L 133.37725 173.39493 
L 134.43 174.181902 
L 144.485491 175.531014 
" clip-path="url(#p4892dae7a7)" style="fill: none; stroke-dasharray: 1.85,0.8; stroke-dashoffset: 0; stroke: #000000; stroke-width: 0.5"/>
    <path d="M 316.984307 26.88 
L 316.040487 36.380776 
L 315.196289 47.600163 
L 315.856303 60.808896 
L 315.944552 76.198006 
L 315.435225 93.757994 
L 316.690289 113.137869 
L 316.441248 120.51943 
M 315.696609 146.66515 
L 315.525941 154.013971 
L 315.729943 173.39493 
L 315.250214 190.956403 
L 314.937663 206.347113 
L 315.010443 219.557363 
L 314.56193 230.778089 
L 313.624052 240.28 
M 103.29426 240.28 
L 104.127209 230.778089 
L 105.881074 219.557363 
L 103.775357 206.347113 
L 102.109241 190.956403 
L 105.484261 173.39493 
L 98.968836 154.013971 
L 99.715501 146.610179 
M 99.798508 120.563838 
L 99.097334 113.137869 
L 98.331903 93.757994 
L 101.173446 76.198006 
L 97.788519 60.808896 
L 96.698569 47.600163 
L 96.758314 36.380776 
L 96.839797 26.88 
M 148.227561 182.896252 
L 158.293333 184.296013 
L 171.858924 173.39493 
L 164.344377 154.013971 
L 158.293333 136.557923 
L 150.775377 154.013971 
L 134.43 166.31124 
L 125.068945 172.848556 
M 171.353375 232.952318 
L 177.536057 230.778089 
L 158.293333 220.942221 
L 134.43 229.126814 
L 132.975718 230.778089 
L 134.43 231.871841 
L 144.772728 234.330704 
" clip-path="url(#p4892dae7a7)" style="fill: none; stroke-dasharray: 1.85,0.8; stroke-dashoffset: 0; stroke: #000000; stroke-width: 0.5"/>
    <path d="M 315.48667 26.88 
L 314.373616 36.380776 
L 313.378047 47.600163 
L 314.156406 60.808896 
L 314.260479 76.198006 
L 313.659826 93.757994 
L 315.139932 113.137869 
L 314.847856 120.478708 
M 313.966925 146.707229 
L 313.766808 154.013971 
L 314.007388 173.39493 
L 313.441641 190.956403 
L 313.073048 206.347113 
L 313.158877 219.557363 
L 312.629943 230.778089 
L 311.523896 240.28 
M 106.269131 240.28 
L 107.251434 230.778089 
L 109.31978 219.557363 
L 106.836492 206.347113 
L 104.87163 190.956403 
L 108.851815 173.39493 
L 101.168128 154.013971 
L 102.046231 146.630734 
M 102.143969 120.540515 
L 101.319666 113.137869 
L 100.416988 93.757994 
L 103.768041 76.198006 
L 99.776172 60.808896 
L 98.490786 47.600163 
L 98.561244 36.380776 
L 98.657337 26.88 
M 201.290959 240.28 
L 206.02 232.499656 
L 206.580987 230.778089 
L 206.02 230.23464 
L 186.612048 219.557363 
L 182.83519 206.347113 
L 182.156667 205.826761 
L 159.257043 190.956403 
L 180.460951 173.39493 
L 171.136225 154.013971 
L 166.261638 133.590571 
L 158.293333 121.775597 
L 156.018934 124.039465 
M 143.843124 146.486606 
L 142.33703 154.013971 
L 134.43 159.96274 
L 115.19589 173.39493 
L 134.43 187.773185 
L 156.569862 190.956403 
L 134.43 197.529242 
L 126.31073 206.347113 
L 125.29684 219.557363 
L 122.10354 230.778089 
L 134.43 240.048707 
L 135.462959 240.28 
" clip-path="url(#p4892dae7a7)" style="fill: none; stroke-dasharray: 1.85,0.8; stroke-dashoffset: 0; stroke: #000000; stroke-width: 0.5"/>
    <path d="M 313.989032 26.88 
L 312.706744 36.380776 
L 311.559805 47.600163 
L 312.456509 60.808896 
L 312.576406 76.198006 
L 311.884426 93.757994 
L 313.589575 113.137869 
L 313.250971 120.524952 
M 312.239629 146.662531 
L 312.007675 154.013971 
L 312.284834 173.39493 
L 311.633068 190.956403 
L 311.208432 206.347113 
L 311.307311 219.557363 
L 310.697956 230.778089 
L 309.423741 240.28 
M 109.244003 240.28 
L 110.37566 230.778089 
L 110.566667 229.796025 
L 111.231363 230.778089 
L 118.057828 240.28 
M 237.778166 240.28 
L 229.883333 235.174842 
L 223.311027 230.778089 
L 215.397607 219.557363 
L 206.02 207.608007 
L 205.21429 206.347113 
L 185.306265 190.956403 
L 190.935264 173.39493 
L 182.156667 162.478944 
L 177.928073 154.013971 
L 175.652119 133.590571 
L 180.197874 122.44994 
M 168.621397 109.088901 
L 158.293333 106.677936 
L 155.435413 113.137869 
L 134.43 132.595993 
L 132.596218 133.590571 
L 133.979651 154.013971 
L 110.566667 170.868067 
L 103.36742 154.013971 
L 106.165732 133.590571 
L 103.541999 113.137869 
L 102.502074 93.757994 
L 106.362636 76.198006 
L 101.763825 60.808896 
L 100.283003 47.600163 
L 100.364174 36.380776 
L 100.474878 26.88 
M 108.492118 196.790784 
L 107.634019 190.956403 
L 110.566667 178.946753 
L 126.467944 190.956403 
L 119.231984 199.472329 
" clip-path="url(#p4892dae7a7)" style="fill: none; stroke-dasharray: 1.85,0.8; stroke-dashoffset: 0; stroke: #000000; stroke-width: 0.5"/>
    <path d="M 312.491394 26.88 
L 311.039873 36.380776 
L 309.741562 47.600163 
L 310.756613 60.808896 
L 310.892333 76.198006 
L 310.109027 93.757994 
L 312.039217 113.137869 
L 311.660238 120.441835 
M 310.508075 146.747482 
L 310.248542 154.013971 
L 310.56228 173.39493 
L 309.824495 190.956403 
L 309.343817 206.347113 
L 309.455746 219.557363 
L 308.765969 230.778089 
L 307.323585 240.28 
M 255.050873 240.28 
L 253.746667 239.522988 
L 239.535231 230.778089 
L 236.862916 219.557363 
L 229.883333 209.724694 
L 226.441677 206.347113 
L 208.15847 190.956403 
L 206.02 186.692161 
L 201.869281 173.39493 
L 186.588892 154.013971 
L 184.612317 133.590571 
L 198.998737 113.137869 
L 182.156667 107.711994 
L 169.923116 99.998637 
M 151.048518 101.825962 
L 147.90741 113.137869 
L 134.43 125.622513 
L 119.738659 133.590571 
L 126.827236 154.013971 
L 110.566667 165.719323 
L 105.566712 154.013971 
L 108.73434 133.590571 
L 105.764332 113.137869 
L 104.587159 93.757994 
L 108.95723 76.198006 
L 103.751478 60.808896 
L 102.07522 47.600163 
L 102.167104 36.380776 
L 102.292418 26.88 
M 110.566667 190.259169 
L 111.489833 190.956403 
L 110.566667 192.081565 
L 110.396409 190.956403 
L 110.566667 190.259169 
z
" clip-path="url(#p4892dae7a7)" style="fill: none; stroke-dasharray: 1.85,0.8; stroke-dashoffset: 0; stroke: #000000; stroke-width: 0.5"/>
    <path d="M 310.993757 26.88 
L 309.373001 36.380776 
L 307.92332 47.600163 
L 309.056716 60.808896 
L 309.20826 76.198006 
L 308.333628 93.757994 
L 310.48886 113.137869 
L 310.062968 120.488903 
M 308.780999 146.70239 
L 308.489409 154.013971 
L 308.839726 173.39493 
L 308.015922 190.956403 
L 307.479201 206.347113 
L 307.60418 219.557363 
L 306.833982 230.778089 
L 305.22343 240.28 
M 271.903723 240.28 
L 256.581844 230.778089 
L 253.746667 226.021394 
L 251.620385 219.557363 
L 244.445418 206.347113 
L 229.883333 194.348067 
L 225.724711 190.956403 
L 214.431012 173.39493 
L 206.02 163.96412 
L 198.332948 154.013971 
L 192.602711 133.590571 
L 202.186589 122.340513 
M 199.033605 108.397997 
L 182.156667 103.175437 
L 167.220399 93.757994 
L 158.293333 87.907932 
L 138.578408 76.198006 
L 134.43 72.703395 
L 110.566667 74.117438 
L 105.739131 60.808896 
L 103.867437 47.600163 
L 103.970034 36.380776 
L 104.109959 26.88 
M 121.847069 124.392067 
L 110.566667 129.540607 
L 107.986665 113.137869 
L 106.672245 93.757994 
L 110.566667 79.164688 
L 133.299541 93.757994 
L 134.43 95.796068 
L 138.655136 108.11183 
M 108.771359 148.029627 
L 110.566667 137.343115 
L 118.5298 151.918213 
" clip-path="url(#p4892dae7a7)" style="fill: none; stroke-dasharray: 1.85,0.8; stroke-dashoffset: 0; stroke: #000000; stroke-width: 0.5"/>
    <path d="M 309.496119 26.88 
L 307.70613 36.380776 
L 306.105078 47.600163 
L 307.356819 60.808896 
L 307.524187 76.198006 
L 306.558229 93.757994 
L 308.938503 113.137869 
L 308.46787 120.493136 
M 307.052401 146.70038 
L 306.730276 154.013971 
L 307.117172 173.39493 
L 306.207348 190.956403 
L 305.614585 206.347113 
L 305.752614 219.557363 
L 304.901995 230.778089 
L 303.123274 240.28 
M 288.517381 240.28 
L 280.173852 230.778089 
L 277.61 228.393111 
L 266.145546 219.557363 
L 261.262038 206.347113 
L 253.746667 200.097621 
L 242.501415 190.956403 
L 229.883333 176.112616 
L 227.988747 173.39493 
L 211.093263 154.013971 
L 206.02 147.128263 
L 202.457339 138.241007 
M 216.787202 118.83859 
L 224.110479 113.137869 
L 206.02 105.41833 
L 182.156667 98.63888 
L 174.415477 93.757994 
L 158.293333 83.192873 
L 146.51672 76.198006 
L 134.43 66.016178 
L 110.566667 68.63788 
L 107.726784 60.808896 
L 105.659654 47.600163 
L 105.772964 36.380776 
L 105.927499 26.88 
M 109.400323 102.342004 
L 108.75733 93.757994 
L 110.566667 86.977989 
L 121.12829 93.757994 
L 120.961196 109.99486 
M 110.566667 150.434335 
L 112.522408 154.013971 
L 110.566667 155.421833 
L 109.965297 154.013971 
L 110.566667 150.434335 
z
" clip-path="url(#p4892dae7a7)" style="fill: none; stroke-dasharray: 1.85,0.8; stroke-dashoffset: 0; stroke: #000000; stroke-width: 0.5"/>
    <path d="M 304.475271 49.416824 
L 305.656922 60.808896 
L 305.840113 76.198006 
L 304.782829 93.757994 
L 307.388146 113.137869 
L 305.955733 133.590571 
L 304.971143 154.013971 
L 305.394617 173.39493 
L 304.398775 190.956403 
L 303.74997 206.347113 
L 303.901048 219.557363 
L 302.970007 230.778089 
L 301.473333 238.22051 
L 292.175716 230.778089 
L 280.88525 219.557363 
L 277.61 207.042214 
L 277.422777 206.347113 
L 261.980755 190.956403 
L 253.746667 184.694323 
L 244.166339 173.39493 
L 229.883333 158.766259 
L 225.77915 154.013971 
L 224.819466 133.590571 
L 229.883333 130.68024 
L 236.048436 113.137869 
L 229.883333 110.166544 
L 206.02 100.276726 
L 182.156667 94.102323 
L 181.610554 93.757994 
L 158.293333 78.477813 
L 154.455032 76.198006 
L 136.477282 60.808896 
L 134.43 59.902428 
L 126.306033 60.808896 
L 110.566667 63.158322 
L 109.714436 60.808896 
L 107.451872 47.600163 
L 107.575894 36.380776 
L 107.745039 26.88 
" clip-path="url(#p4892dae7a7)" style="fill: none; stroke-dasharray: 1.85,0.8; stroke-dashoffset: 0; stroke: #000000; stroke-width: 0.5"/>
    <path d="M 139.351048 26.88 
L 158.293333 28.243409 
L 161.161189 26.88 
M 306.500843 26.88 
L 304.372387 36.380776 
L 302.468594 47.600163 
L 303.957025 60.808896 
L 304.15604 76.198006 
L 303.864073 80.661616 
M 304.905985 106.757674 
L 305.837788 113.137869 
L 304.281647 133.590571 
L 303.21201 154.013971 
L 303.672063 173.39493 
L 302.590202 190.956403 
L 301.885354 206.347113 
L 302.049483 219.557363 
L 301.473333 226.065508 
L 296.587335 219.557363 
L 297.113228 206.347113 
L 286.890727 190.956403 
L 277.61 183.883547 
L 263.782173 173.39493 
L 257.347982 154.013971 
L 253.746667 146.221158 
L 248.172239 133.590571 
L 247.884097 113.137869 
L 229.883333 104.462242 
L 206.02 95.135123 
L 200.657679 93.757994 
L 182.156667 82.600697 
L 170.067512 76.198006 
L 158.293333 71.958423 
L 145.728105 60.808896 
L 134.43 55.806471 
L 110.566667 55.045558 
L 109.244089 47.600163 
L 109.378823 36.380776 
L 109.56258 26.88 
M 266.890985 41.624097 
L 256.90043 36.380776 
L 253.746667 35.973067 
L 229.883333 36.380771 
L 229.88331 36.380776 
L 229.883333 36.380808 
L 251.31607 47.600163 
L 253.746667 48.133731 
L 263.617297 47.977766 
" clip-path="url(#p4892dae7a7)" style="fill: none; stroke-dasharray: 1.85,0.8; stroke-dashoffset: 0; stroke: #000000; stroke-width: 0.5"/>
    <path d="M 200.258541 26.88 
L 206.02 30.048885 
L 209.219603 26.88 
M 305.003206 26.88 
L 302.705516 36.380776 
L 301.473333 43.33939 
L 286.082536 36.380776 
L 277.61 34.717 
L 253.746667 31.458781 
L 229.883333 33.18961 
L 215.077396 36.380776 
L 206.02 42.377147 
L 195.36617 47.600163 
L 206.02 52.203096 
L 223.096433 60.808896 
L 229.883333 65.205544 
L 240.431967 61.07613 
M 267.774585 56.338037 
L 277.61 55.941568 
L 301.473333 54.143389 
L 302.257128 60.808896 
L 302.471967 76.198006 
L 301.473333 90.483676 
L 296.413734 93.757994 
L 301.473333 95.108043 
L 304.287431 113.137869 
L 302.60756 133.590571 
L 301.473333 153.669341 
L 277.61 151.164597 
L 272.311727 133.590571 
L 261.880672 113.137869 
L 253.746667 105.196489 
L 229.883333 98.757941 
L 216.880923 93.757994 
L 216.290808 76.198006 
L 206.02 69.598414 
L 188.072596 60.808896 
L 182.156667 56.423357 
L 170.744565 60.808896 
L 158.293333 63.749873 
L 154.978927 60.808896 
L 134.43 51.710514 
L 115.507756 47.600163 
L 122.908853 36.380776 
L 134.43 33.958008 
L 158.293333 33.331053 
L 171.862766 26.88 
M 292.69926 171.954603 
L 301.473333 154.796363 
L 301.801492 167.61365 
" clip-path="url(#p4892dae7a7)" style="fill: none; stroke-dasharray: 1.85,0.8; stroke-dashoffset: 0; stroke: #000000; stroke-width: 0.5"/>
    <path d="M 303.505568 26.88 
L 301.473333 34.849242 
L 277.61 30.628449 
L 267.555418 29.076251 
M 239.880556 28.719036 
L 229.883333 29.998449 
L 219.670532 26.88 
M 134.43 47.542604 
L 135.291843 47.600163 
L 134.43 47.614558 
L 134.363731 47.600163 
L 134.43 47.542604 
z
M 241.52663 82.096905 
L 230.254373 76.198006 
L 253.746667 67.968749 
L 268.072552 76.198006 
L 264.069963 79.632835 
M 301.473333 105.041128 
L 302.737074 113.137869 
L 301.473333 127.792807 
L 278.294839 113.137869 
L 301.473333 105.041128 
z
" clip-path="url(#p4892dae7a7)" style="fill: none; stroke-dasharray: 1.85,0.8; stroke-dashoffset: 0; stroke: #000000; stroke-width: 0.5"/>
    <path d="M 302.00793 26.88 
L 301.473333 28.976378 
L 282.119995 26.88 
" clip-path="url(#p4892dae7a7)" style="fill: none; stroke-dasharray: 1.85,0.8; stroke-dashoffset: 0; stroke: #000000; stroke-width: 0.5"/>
    <path clip-path="url(#p4892dae7a7)" style="fill: none; stroke-dasharray: 1.85,0.8; stroke-dashoffset: 0; stroke: #000000; stroke-width: 0.5"/>
   </g>
   <g id="patch_3">
    <path d="M 62.84 240.28 
L 62.84 26.88 
" style="fill: none; stroke: #000000; stroke-width: 0.8; stroke-linejoin: miter; stroke-linecap: square"/>
   </g>
   <g id="patch_4">
    <path d="M 349.2 240.28 
L 349.2 26.88 
" style="fill: none; stroke: #000000; stroke-width: 0.8; stroke-linejoin: miter; stroke-linecap: square"/>
   </g>
   <g id="patch_5">
    <path d="M 62.84 240.28 
L 349.2 240.28 
" style="fill: none; stroke: #000000; stroke-width: 0.8; stroke-linejoin: miter; stroke-linecap: square"/>
   </g>
   <g id="patch_6">
    <path d="M 62.84 26.88 
L 349.2 26.88 
" style="fill: none; stroke: #000000; stroke-width: 0.8; stroke-linejoin: miter; stroke-linecap: square"/>
   </g>
   <g id="text_11">
    <!-- Band 100 -->
    <g transform="translate(177.255625 20.88) scale(0.12 -0.12)">
     <defs>
      <path id="DejaVuSans-42" d="M 1259 2228 
L 1259 519 
L 2272 519 
Q 2781 519 3026 730 
Q 3272 941 3272 1375 
Q 3272 1813 3026 2020 
Q 2781 2228 2272 2228 
L 1259 2228 
z
M 1259 4147 
L 1259 2741 
L 2194 2741 
Q 2656 2741 2882 2914 
Q 3109 3088 3109 3444 
Q 3109 3797 2882 3972 
Q 2656 4147 2194 4147 
L 1259 4147 
z
M 628 4666 
L 2241 4666 
Q 2963 4666 3353 4366 
Q 3744 4066 3744 3513 
Q 3744 3084 3544 2831 
Q 3344 2578 2956 2516 
Q 3422 2416 3680 2098 
Q 3938 1781 3938 1306 
Q 3938 681 3513 340 
Q 3088 0 2303 0 
L 628 0 
L 628 4666 
z
" transform="scale(0.015625)"/>
      <path id="DejaVuSans-61" d="M 2194 1759 
Q 1497 1759 1228 1600 
Q 959 1441 959 1056 
Q 959 750 1161 570 
Q 1363 391 1709 391 
Q 2188 391 2477 730 
Q 2766 1069 2766 1631 
L 2766 1759 
L 2194 1759 
z
M 3341 1997 
L 3341 0 
L 2766 0 
L 2766 531 
Q 2569 213 2275 61 
Q 1981 -91 1556 -91 
Q 1019 -91 701 211 
Q 384 513 384 1019 
Q 384 1609 779 1909 
Q 1175 2209 1959 2209 
L 2766 2209 
L 2766 2266 
Q 2766 2663 2505 2880 
Q 2244 3097 1772 3097 
Q 1472 3097 1187 3025 
Q 903 2953 641 2809 
L 641 3341 
Q 956 3463 1253 3523 
Q 1550 3584 1831 3584 
Q 2591 3584 2966 3190 
Q 3341 2797 3341 1997 
z
" transform="scale(0.015625)"/>
      <path id="DejaVuSans-6e" d="M 3513 2113 
L 3513 0 
L 2938 0 
L 2938 2094 
Q 2938 2591 2744 2837 
Q 2550 3084 2163 3084 
Q 1697 3084 1428 2787 
Q 1159 2491 1159 1978 
L 1159 0 
L 581 0 
L 581 3500 
L 1159 3500 
L 1159 2956 
Q 1366 3272 1645 3428 
Q 1925 3584 2291 3584 
Q 2894 3584 3203 3211 
Q 3513 2838 3513 2113 
z
" transform="scale(0.015625)"/>
      <path id="DejaVuSans-64" d="M 2906 2969 
L 2906 4863 
L 3481 4863 
L 3481 0 
L 2906 0 
L 2906 525 
Q 2725 213 2448 61 
Q 2172 -91 1784 -91 
Q 1150 -91 751 415 
Q 353 922 353 1747 
Q 353 2572 751 3078 
Q 1150 3584 1784 3584 
Q 2172 3584 2448 3432 
Q 2725 3281 2906 2969 
z
M 947 1747 
Q 947 1113 1208 752 
Q 1469 391 1925 391 
Q 2381 391 2643 752 
Q 2906 1113 2906 1747 
Q 2906 2381 2643 2742 
Q 2381 3103 1925 3103 
Q 1469 3103 1208 2742 
Q 947 2381 947 1747 
z
" transform="scale(0.015625)"/>
      <path id="DejaVuSans-20" transform="scale(0.015625)"/>
      <path id="DejaVuSans-31" d="M 794 531 
L 1825 531 
L 1825 4091 
L 703 3866 
L 703 4441 
L 1819 4666 
L 2450 4666 
L 2450 531 
L 3481 531 
L 3481 0 
L 794 0 
L 794 531 
z
" transform="scale(0.015625)"/>
     </defs>
     <use xlink:href="#DejaVuSans-42"/>
     <use xlink:href="#DejaVuSans-61" transform="translate(68.603516 0)"/>
     <use xlink:href="#DejaVuSans-6e" transform="translate(129.882812 0)"/>
     <use xlink:href="#DejaVuSans-64" transform="translate(193.261719 0)"/>
     <use xlink:href="#DejaVuSans-20" transform="translate(256.738281 0)"/>
     <use xlink:href="#DejaVuSans-31" transform="translate(288.525391 0)"/>
     <use xlink:href="#DejaVuSans-30" transform="translate(352.148438 0)"/>
     <use xlink:href="#DejaVuSans-30" transform="translate(415.771484 0)"/>
    </g>
   </g>
   <g id="text_12">
    <g clip-path="url(#p4892dae7a7)">
     <!-- 58.5 -->
     <g transform="translate(326.826427 143.616925) rotate(-89.841704) scale(0.09 -0.09)">
      <defs>
       <path id="DejaVuSans-38" d="M 2034 2216 
Q 1584 2216 1326 1975 
Q 1069 1734 1069 1313 
Q 1069 891 1326 650 
Q 1584 409 2034 409 
Q 2484 409 2743 651 
Q 3003 894 3003 1313 
Q 3003 1734 2745 1975 
Q 2488 2216 2034 2216 
z
M 1403 2484 
Q 997 2584 770 2862 
Q 544 3141 544 3541 
Q 544 4100 942 4425 
Q 1341 4750 2034 4750 
Q 2731 4750 3128 4425 
Q 3525 4100 3525 3541 
Q 3525 3141 3298 2862 
Q 3072 2584 2669 2484 
Q 3125 2378 3379 2068 
Q 3634 1759 3634 1313 
Q 3634 634 3220 271 
Q 2806 -91 2034 -91 
Q 1263 -91 848 271 
Q 434 634 434 1313 
Q 434 1759 690 2068 
Q 947 2378 1403 2484 
z
M 1172 3481 
Q 1172 3119 1398 2916 
Q 1625 2713 2034 2713 
Q 2441 2713 2670 2916 
Q 2900 3119 2900 3481 
Q 2900 3844 2670 4047 
Q 2441 4250 2034 4250 
Q 1625 4250 1398 4047 
Q 1172 3844 1172 3481 
z
" transform="scale(0.015625)"/>
       <path id="DejaVuSans-2e" d="M 684 794 
L 1344 794 
L 1344 0 
L 684 0 
L 684 794 
z
" transform="scale(0.015625)"/>
      </defs>
      <use xlink:href="#DejaVuSans-35"/>
      <use xlink:href="#DejaVuSans-38" transform="translate(63.623047 0)"/>
      <use xlink:href="#DejaVuSans-2e" transform="translate(127.246094 0)"/>
      <use xlink:href="#DejaVuSans-35" transform="translate(159.033203 0)"/>
     </g>
    </g>
   </g>
   <g id="text_13">
    <g clip-path="url(#p4892dae7a7)">
     <!-- 58.5 -->
     <g transform="translate(90.665792 143.610876) rotate(-89.982141) scale(0.09 -0.09)">
      <use xlink:href="#DejaVuSans-35"/>
      <use xlink:href="#DejaVuSans-38" transform="translate(63.623047 0)"/>
      <use xlink:href="#DejaVuSans-2e" transform="translate(127.246094 0)"/>
      <use xlink:href="#DejaVuSans-35" transform="translate(159.033203 0)"/>
     </g>
    </g>
   </g>
   <g id="text_14">
    <g clip-path="url(#p4892dae7a7)">
     <!-- 60.0 -->
     <g transform="translate(325.104308 143.628568) rotate(-89.567379) scale(0.09 -0.09)">
      <defs>
       <path id="DejaVuSans-36" d="M 2113 2584 
Q 1688 2584 1439 2293 
Q 1191 2003 1191 1497 
Q 1191 994 1439 701 
Q 1688 409 2113 409 
Q 2538 409 2786 701 
Q 3034 994 3034 1497 
Q 3034 2003 2786 2293 
Q 2538 2584 2113 2584 
z
M 3366 4563 
L 3366 3988 
Q 3128 4100 2886 4159 
Q 2644 4219 2406 4219 
Q 1781 4219 1451 3797 
Q 1122 3375 1075 2522 
Q 1259 2794 1537 2939 
Q 1816 3084 2150 3084 
Q 2853 3084 3261 2657 
Q 3669 2231 3669 1497 
Q 3669 778 3244 343 
Q 2819 -91 2113 -91 
Q 1303 -91 875 529 
Q 447 1150 447 2328 
Q 447 3434 972 4092 
Q 1497 4750 2381 4750 
Q 2619 4750 2861 4703 
Q 3103 4656 3366 4563 
z
" transform="scale(0.015625)"/>
      </defs>
      <use xlink:href="#DejaVuSans-36"/>
      <use xlink:href="#DejaVuSans-30" transform="translate(63.623047 0)"/>
      <use xlink:href="#DejaVuSans-2e" transform="translate(127.246094 0)"/>
      <use xlink:href="#DejaVuSans-30" transform="translate(159.033203 0)"/>
     </g>
    </g>
   </g>
   <g id="text_15">
    <g clip-path="url(#p4892dae7a7)">
     <!-- 60.0 -->
     <g transform="translate(93.228992 143.612213) rotate(-89.951218) scale(0.09 -0.09)">
      <use xlink:href="#DejaVuSans-36"/>
      <use xlink:href="#DejaVuSans-30" transform="translate(63.623047 0)"/>
      <use xlink:href="#DejaVuSans-2e" transform="translate(127.246094 0)"/>
      <use xlink:href="#DejaVuSans-30" transform="translate(159.033203 0)"/>
     </g>
    </g>
   </g>
   <g id="text_16">
    <g clip-path="url(#p4892dae7a7)">
     <!-- 61.5 -->
     <g transform="translate(323.382138 143.63998) rotate(-89.293076) scale(0.09 -0.09)">
      <use xlink:href="#DejaVuSans-36"/>
      <use xlink:href="#DejaVuSans-31" transform="translate(63.623047 0)"/>
      <use xlink:href="#DejaVuSans-2e" transform="translate(127.246094 0)"/>
      <use xlink:href="#DejaVuSans-35" transform="translate(159.033203 0)"/>
     </g>
    </g>
   </g>
   <g id="text_17">
    <g clip-path="url(#p4892dae7a7)">
     <!-- 61.5 -->
     <g transform="translate(95.792204 143.613544) rotate(-89.920374) scale(0.09 -0.09)">
      <use xlink:href="#DejaVuSans-36"/>
      <use xlink:href="#DejaVuSans-31" transform="translate(63.623047 0)"/>
      <use xlink:href="#DejaVuSans-2e" transform="translate(127.246094 0)"/>
      <use xlink:href="#DejaVuSans-35" transform="translate(159.033203 0)"/>
     </g>
    </g>
   </g>
   <g id="text_18">
    <g clip-path="url(#p4892dae7a7)">
     <!-- 63.0 -->
     <g transform="translate(321.659919 143.65116) rotate(-89.018808) scale(0.09 -0.09)">
      <defs>
       <path id="DejaVuSans-33" d="M 2597 2516 
Q 3050 2419 3304 2112 
Q 3559 1806 3559 1356 
Q 3559 666 3084 287 
Q 2609 -91 1734 -91 
Q 1441 -91 1130 -33 
Q 819 25 488 141 
L 488 750 
Q 750 597 1062 519 
Q 1375 441 1716 441 
Q 2309 441 2620 675 
Q 2931 909 2931 1356 
Q 2931 1769 2642 2001 
Q 2353 2234 1838 2234 
L 1294 2234 
L 1294 2753 
L 1863 2753 
Q 2328 2753 2575 2939 
Q 2822 3125 2822 3475 
Q 2822 3834 2567 4026 
Q 2313 4219 1838 4219 
Q 1578 4219 1281 4162 
Q 984 4106 628 3988 
L 628 4550 
Q 988 4650 1302 4700 
Q 1616 4750 1894 4750 
Q 2613 4750 3031 4423 
Q 3450 4097 3450 3541 
Q 3450 3153 3228 2886 
Q 3006 2619 2597 2516 
z
" transform="scale(0.015625)"/>
      </defs>
      <use xlink:href="#DejaVuSans-36"/>
      <use xlink:href="#DejaVuSans-33" transform="translate(63.623047 0)"/>
      <use xlink:href="#DejaVuSans-2e" transform="translate(127.246094 0)"/>
      <use xlink:href="#DejaVuSans-30" transform="translate(159.033203 0)"/>
     </g>
    </g>
   </g>
   <g id="text_19">
    <g clip-path="url(#p4892dae7a7)">
     <!-- 63.0 -->
     <g transform="translate(98.355438 143.614866) rotate(-89.889658) scale(0.09 -0.09)">
      <use xlink:href="#DejaVuSans-36"/>
      <use xlink:href="#DejaVuSans-33" transform="translate(63.623047 0)"/>
      <use xlink:href="#DejaVuSans-2e" transform="translate(127.246094 0)"/>
      <use xlink:href="#DejaVuSans-30" transform="translate(159.033203 0)"/>
     </g>
    </g>
   </g>
   <g id="text_20">
    <g clip-path="url(#p4892dae7a7)">
     <!-- 64.5 -->
     <g transform="translate(319.937657 143.662107) rotate(-88.74459) scale(0.09 -0.09)">
      <use xlink:href="#DejaVuSans-36"/>
      <use xlink:href="#DejaVuSans-34" transform="translate(63.623047 0)"/>
      <use xlink:href="#DejaVuSans-2e" transform="translate(127.246094 0)"/>
      <use xlink:href="#DejaVuSans-35" transform="translate(159.033203 0)"/>
     </g>
    </g>
   </g>
   <g id="text_21">
    <g clip-path="url(#p4892dae7a7)">
     <!-- 64.5 -->
     <g transform="translate(100.918703 143.616178) rotate(-89.85912) scale(0.09 -0.09)">
      <use xlink:href="#DejaVuSans-36"/>
      <use xlink:href="#DejaVuSans-34" transform="translate(63.623047 0)"/>
      <use xlink:href="#DejaVuSans-2e" transform="translate(127.246094 0)"/>
      <use xlink:href="#DejaVuSans-35" transform="translate(159.033203 0)"/>
     </g>
    </g>
   </g>
   <g id="text_22">
    <g clip-path="url(#p4892dae7a7)">
     <!-- 64.5 -->
     <g transform="translate(150.187918 183.775805) rotate(-24.339884) scale(0.09 -0.09)">
      <use xlink:href="#DejaVuSans-36"/>
      <use xlink:href="#DejaVuSans-34" transform="translate(63.623047 0)"/>
      <use xlink:href="#DejaVuSans-2e" transform="translate(127.246094 0)"/>
      <use xlink:href="#DejaVuSans-35" transform="translate(159.033203 0)"/>
     </g>
    </g>
   </g>
   <g id="text_23">
    <g clip-path="url(#p4892dae7a7)">
     <!-- 66.0 -->
     <g transform="translate(318.215354 143.672822) rotate(-88.470436) scale(0.09 -0.09)">
      <use xlink:href="#DejaVuSans-36"/>
      <use xlink:href="#DejaVuSans-36" transform="translate(63.623047 0)"/>
      <use xlink:href="#DejaVuSans-2e" transform="translate(127.246094 0)"/>
      <use xlink:href="#DejaVuSans-30" transform="translate(159.033203 0)"/>
     </g>
    </g>
   </g>
   <g id="text_24">
    <g clip-path="url(#p4892dae7a7)">
     <!-- 66.0 -->
     <g transform="translate(103.482006 143.617478) rotate(-89.828806) scale(0.09 -0.09)">
      <use xlink:href="#DejaVuSans-36"/>
      <use xlink:href="#DejaVuSans-36" transform="translate(63.623047 0)"/>
      <use xlink:href="#DejaVuSans-2e" transform="translate(127.246094 0)"/>
      <use xlink:href="#DejaVuSans-30" transform="translate(159.033203 0)"/>
     </g>
    </g>
   </g>
   <g id="text_25">
    <g clip-path="url(#p4892dae7a7)">
     <!-- 66.0 -->
     <g transform="translate(124.251259 179.259492) rotate(-336.498684) scale(0.09 -0.09)">
      <use xlink:href="#DejaVuSans-36"/>
      <use xlink:href="#DejaVuSans-36" transform="translate(63.623047 0)"/>
      <use xlink:href="#DejaVuSans-2e" transform="translate(127.246094 0)"/>
      <use xlink:href="#DejaVuSans-30" transform="translate(159.033203 0)"/>
     </g>
    </g>
   </g>
   <g id="text_26">
    <g clip-path="url(#p4892dae7a7)">
     <!-- 66.0 -->
     <g transform="translate(148.426242 240.578051) rotate(-3.165794) scale(0.09 -0.09)">
      <use xlink:href="#DejaVuSans-36"/>
      <use xlink:href="#DejaVuSans-36" transform="translate(63.623047 0)"/>
      <use xlink:href="#DejaVuSans-2e" transform="translate(127.246094 0)"/>
      <use xlink:href="#DejaVuSans-30" transform="translate(159.033203 0)"/>
     </g>
    </g>
   </g>
   <g id="text_27">
    <g clip-path="url(#p4892dae7a7)">
     <!-- 67.5 -->
     <g transform="translate(316.493013 143.683302) rotate(-88.196359) scale(0.09 -0.09)">
      <defs>
       <path id="DejaVuSans-37" d="M 525 4666 
L 3525 4666 
L 3525 4397 
L 1831 0 
L 1172 0 
L 2766 4134 
L 525 4134 
L 525 4666 
z
" transform="scale(0.015625)"/>
      </defs>
      <use xlink:href="#DejaVuSans-36"/>
      <use xlink:href="#DejaVuSans-37" transform="translate(63.623047 0)"/>
      <use xlink:href="#DejaVuSans-2e" transform="translate(127.246094 0)"/>
      <use xlink:href="#DejaVuSans-35" transform="translate(159.033203 0)"/>
     </g>
    </g>
   </g>
   <g id="text_28">
    <g clip-path="url(#p4892dae7a7)">
     <!-- 67.5 -->
     <g transform="translate(106.045356 143.618763) rotate(-89.798763) scale(0.09 -0.09)">
      <use xlink:href="#DejaVuSans-36"/>
      <use xlink:href="#DejaVuSans-37" transform="translate(63.623047 0)"/>
      <use xlink:href="#DejaVuSans-2e" transform="translate(127.246094 0)"/>
      <use xlink:href="#DejaVuSans-35" transform="translate(159.033203 0)"/>
     </g>
    </g>
   </g>
   <g id="text_29">
    <g clip-path="url(#p4892dae7a7)">
     <!-- 67.5 -->
     <g transform="translate(144.095116 143.647289) rotate(-63.044058) scale(0.09 -0.09)">
      <use xlink:href="#DejaVuSans-36"/>
      <use xlink:href="#DejaVuSans-37" transform="translate(63.623047 0)"/>
      <use xlink:href="#DejaVuSans-2e" transform="translate(127.246094 0)"/>
      <use xlink:href="#DejaVuSans-35" transform="translate(159.033203 0)"/>
     </g>
    </g>
   </g>
   <g id="text_30">
    <g clip-path="url(#p4892dae7a7)">
     <!-- 69.0 -->
     <g transform="translate(314.770639 143.693549) rotate(-87.922372) scale(0.09 -0.09)">
      <defs>
       <path id="DejaVuSans-39" d="M 703 97 
L 703 672 
Q 941 559 1184 500 
Q 1428 441 1663 441 
Q 2288 441 2617 861 
Q 2947 1281 2994 2138 
Q 2813 1869 2534 1725 
Q 2256 1581 1919 1581 
Q 1219 1581 811 2004 
Q 403 2428 403 3163 
Q 403 3881 828 4315 
Q 1253 4750 1959 4750 
Q 2769 4750 3195 4129 
Q 3622 3509 3622 2328 
Q 3622 1225 3098 567 
Q 2575 -91 1691 -91 
Q 1453 -91 1209 -44 
Q 966 3 703 97 
z
M 1959 2075 
Q 2384 2075 2632 2365 
Q 2881 2656 2881 3163 
Q 2881 3666 2632 3958 
Q 2384 4250 1959 4250 
Q 1534 4250 1286 3958 
Q 1038 3666 1038 3163 
Q 1038 2656 1286 2365 
Q 1534 2075 1959 2075 
z
" transform="scale(0.015625)"/>
      </defs>
      <use xlink:href="#DejaVuSans-36"/>
      <use xlink:href="#DejaVuSans-39" transform="translate(63.623047 0)"/>
      <use xlink:href="#DejaVuSans-2e" transform="translate(127.246094 0)"/>
      <use xlink:href="#DejaVuSans-30" transform="translate(159.033203 0)"/>
     </g>
    </g>
   </g>
   <g id="text_31">
    <g clip-path="url(#p4892dae7a7)">
     <!-- 69.0 -->
     <g transform="translate(173.485086 106.64836) rotate(-313.224463) scale(0.09 -0.09)">
      <use xlink:href="#DejaVuSans-36"/>
      <use xlink:href="#DejaVuSans-39" transform="translate(63.623047 0)"/>
      <use xlink:href="#DejaVuSans-2e" transform="translate(127.246094 0)"/>
      <use xlink:href="#DejaVuSans-30" transform="translate(159.033203 0)"/>
     </g>
    </g>
   </g>
   <g id="text_32">
    <g clip-path="url(#p4892dae7a7)">
     <!-- 69.0 -->
     <g transform="translate(100.245054 209.5693) rotate(-345.241608) scale(0.09 -0.09)">
      <use xlink:href="#DejaVuSans-36"/>
      <use xlink:href="#DejaVuSans-39" transform="translate(63.623047 0)"/>
      <use xlink:href="#DejaVuSans-2e" transform="translate(127.246094 0)"/>
      <use xlink:href="#DejaVuSans-30" transform="translate(159.033203 0)"/>
     </g>
    </g>
   </g>
   <g id="text_33">
    <g clip-path="url(#p4892dae7a7)">
     <!-- 70.5 -->
     <g transform="translate(313.048236 143.70356) rotate(-87.648491) scale(0.09 -0.09)">
      <use xlink:href="#DejaVuSans-37"/>
      <use xlink:href="#DejaVuSans-30" transform="translate(63.623047 0)"/>
      <use xlink:href="#DejaVuSans-2e" transform="translate(127.246094 0)"/>
      <use xlink:href="#DejaVuSans-35" transform="translate(159.033203 0)"/>
     </g>
    </g>
   </g>
   <g id="text_34">
    <g clip-path="url(#p4892dae7a7)">
     <!-- 70.5 -->
     <g transform="translate(148.350698 95.398323) rotate(-1.675481) scale(0.09 -0.09)">
      <use xlink:href="#DejaVuSans-37"/>
      <use xlink:href="#DejaVuSans-30" transform="translate(63.623047 0)"/>
      <use xlink:href="#DejaVuSans-2e" transform="translate(127.246094 0)"/>
      <use xlink:href="#DejaVuSans-35" transform="translate(159.033203 0)"/>
     </g>
    </g>
   </g>
   <g id="text_35">
    <g clip-path="url(#p4892dae7a7)">
     <!-- 72.0 -->
     <g transform="translate(311.325805 143.713337) rotate(-87.374727) scale(0.09 -0.09)">
      <use xlink:href="#DejaVuSans-37"/>
      <use xlink:href="#DejaVuSans-32" transform="translate(63.623047 0)"/>
      <use xlink:href="#DejaVuSans-2e" transform="translate(127.246094 0)"/>
      <use xlink:href="#DejaVuSans-30" transform="translate(159.033203 0)"/>
     </g>
    </g>
   </g>
   <g id="text_36">
    <g clip-path="url(#p4892dae7a7)">
     <!-- 72.0 -->
     <g transform="translate(207.840877 103.717336) rotate(-280.211763) scale(0.09 -0.09)">
      <use xlink:href="#DejaVuSans-37"/>
      <use xlink:href="#DejaVuSans-32" transform="translate(63.623047 0)"/>
      <use xlink:href="#DejaVuSans-2e" transform="translate(127.246094 0)"/>
      <use xlink:href="#DejaVuSans-30" transform="translate(159.033203 0)"/>
     </g>
    </g>
   </g>
   <g id="text_37">
    <g clip-path="url(#p4892dae7a7)">
     <!-- 72.0 -->
     <g transform="translate(128.338926 126.983137) rotate(-39.917612) scale(0.09 -0.09)">
      <use xlink:href="#DejaVuSans-37"/>
      <use xlink:href="#DejaVuSans-32" transform="translate(63.623047 0)"/>
      <use xlink:href="#DejaVuSans-2e" transform="translate(127.246094 0)"/>
      <use xlink:href="#DejaVuSans-30" transform="translate(159.033203 0)"/>
     </g>
    </g>
   </g>
   <g id="text_38">
    <g clip-path="url(#p4892dae7a7)">
     <!-- 72.0 -->
     <g transform="translate(100.271962 159.81063) rotate(-341.857355) scale(0.09 -0.09)">
      <use xlink:href="#DejaVuSans-37"/>
      <use xlink:href="#DejaVuSans-32" transform="translate(63.623047 0)"/>
      <use xlink:href="#DejaVuSans-2e" transform="translate(127.246094 0)"/>
      <use xlink:href="#DejaVuSans-30" transform="translate(159.033203 0)"/>
     </g>
    </g>
   </g>
   <g id="text_39">
    <g clip-path="url(#p4892dae7a7)">
     <!-- 73.5 -->
     <g transform="translate(309.603352 143.722877) rotate(-87.101096) scale(0.09 -0.09)">
      <use xlink:href="#DejaVuSans-37"/>
      <use xlink:href="#DejaVuSans-33" transform="translate(63.623047 0)"/>
      <use xlink:href="#DejaVuSans-2e" transform="translate(127.246094 0)"/>
      <use xlink:href="#DejaVuSans-35" transform="translate(159.033203 0)"/>
     </g>
    </g>
   </g>
   <g id="text_40">
    <g clip-path="url(#p4892dae7a7)">
     <!-- 73.5 -->
     <g transform="translate(201.371841 136.437197) rotate(-49.317296) scale(0.09 -0.09)">
      <use xlink:href="#DejaVuSans-37"/>
      <use xlink:href="#DejaVuSans-33" transform="translate(63.623047 0)"/>
      <use xlink:href="#DejaVuSans-2e" transform="translate(127.246094 0)"/>
      <use xlink:href="#DejaVuSans-35" transform="translate(159.033203 0)"/>
     </g>
    </g>
   </g>
   <g id="text_41">
    <g clip-path="url(#p4892dae7a7)">
     <!-- 73.5 -->
     <g transform="translate(100.991997 111.553802) rotate(-324.132846) scale(0.09 -0.09)">
      <use xlink:href="#DejaVuSans-37"/>
      <use xlink:href="#DejaVuSans-33" transform="translate(63.623047 0)"/>
      <use xlink:href="#DejaVuSans-2e" transform="translate(127.246094 0)"/>
      <use xlink:href="#DejaVuSans-35" transform="translate(159.033203 0)"/>
     </g>
    </g>
   </g>
   <g id="text_42">
    <g clip-path="url(#p4892dae7a7)">
     <!-- 75.0 -->
     <g transform="translate(306.810596 46.674633) rotate(-80.364505) scale(0.09 -0.09)">
      <use xlink:href="#DejaVuSans-37"/>
      <use xlink:href="#DejaVuSans-35" transform="translate(63.623047 0)"/>
      <use xlink:href="#DejaVuSans-2e" transform="translate(127.246094 0)"/>
      <use xlink:href="#DejaVuSans-30" transform="translate(159.033203 0)"/>
     </g>
    </g>
   </g>
   <g id="text_43">
    <g clip-path="url(#p4892dae7a7)">
     <!-- 76.5 -->
     <g transform="translate(300.150928 83.838374) rotate(-272.143775) scale(0.09 -0.09)">
      <use xlink:href="#DejaVuSans-37"/>
      <use xlink:href="#DejaVuSans-36" transform="translate(63.623047 0)"/>
      <use xlink:href="#DejaVuSans-2e" transform="translate(127.246094 0)"/>
      <use xlink:href="#DejaVuSans-35" transform="translate(159.033203 0)"/>
     </g>
    </g>
   </g>
   <g id="text_44">
    <g clip-path="url(#p4892dae7a7)">
     <!-- 76.5 -->
     <g transform="translate(274.798332 57.689089) rotate(-60.273487) scale(0.09 -0.09)">
      <use xlink:href="#DejaVuSans-37"/>
      <use xlink:href="#DejaVuSans-36" transform="translate(63.623047 0)"/>
      <use xlink:href="#DejaVuSans-2e" transform="translate(127.246094 0)"/>
      <use xlink:href="#DejaVuSans-35" transform="translate(159.033203 0)"/>
     </g>
    </g>
   </g>
   <g id="text_45">
    <g clip-path="url(#p4892dae7a7)">
     <!-- 78.0 -->
     <g transform="translate(244.336786 61.147635) rotate(-10.355984) scale(0.09 -0.09)">
      <use xlink:href="#DejaVuSans-37"/>
      <use xlink:href="#DejaVuSans-38" transform="translate(63.623047 0)"/>
      <use xlink:href="#DejaVuSans-2e" transform="translate(127.246094 0)"/>
      <use xlink:href="#DejaVuSans-30" transform="translate(159.033203 0)"/>
     </g>
    </g>
   </g>
   <g id="text_46">
    <g clip-path="url(#p4892dae7a7)">
     <!-- 78.0 -->
     <g transform="translate(293.332803 187.110216) rotate(-24.024036) scale(0.09 -0.09)">
      <use xlink:href="#DejaVuSans-37"/>
      <use xlink:href="#DejaVuSans-38" transform="translate(63.623047 0)"/>
      <use xlink:href="#DejaVuSans-2e" transform="translate(127.246094 0)"/>
      <use xlink:href="#DejaVuSans-30" transform="translate(159.033203 0)"/>
     </g>
    </g>
   </g>
   <g id="text_47">
    <g clip-path="url(#p4892dae7a7)">
     <!-- 79.5 -->
     <g transform="translate(243.693898 29.28977) rotate(-359.211255) scale(0.09 -0.09)">
      <use xlink:href="#DejaVuSans-37"/>
      <use xlink:href="#DejaVuSans-39" transform="translate(63.623047 0)"/>
      <use xlink:href="#DejaVuSans-2e" transform="translate(127.246094 0)"/>
      <use xlink:href="#DejaVuSans-35" transform="translate(159.033203 0)"/>
     </g>
    </g>
   </g>
   <g id="text_48">
    <g clip-path="url(#p4892dae7a7)">
     <!-- 79.5 -->
     <g transform="translate(244.082115 92.118758) rotate(-6.649645) scale(0.09 -0.09)">
      <use xlink:href="#DejaVuSans-37"/>
      <use xlink:href="#DejaVuSans-39" transform="translate(63.623047 0)"/>
      <use xlink:href="#DejaVuSans-2e" transform="translate(127.246094 0)"/>
      <use xlink:href="#DejaVuSans-35" transform="translate(159.033203 0)"/>
     </g>
    </g>
   </g>
  </g>
 </g>
 <defs>
  <clipPath id="p4892dae7a7">
   <rect x="62.84" y="26.88" width="286.36" height="213.4"/>
  </clipPath>
 </defs>
</svg>
