<?xml version="1.0" encoding="utf-8" standalone="no"?>
<!DOCTYPE svg PUBLIC "-//W3C//DTD SVG 1.1//EN"
  "http://www.w3.org/Graphics/SVG/1.1/DTD/svg11.dtd">
<svg xmlns:xlink="http://www.w3.org/1999/xlink" width="360pt" height="288pt" viewBox="0 0 360 288" xmlns="http://www.w3.org/2000/svg" version="1.1">
 <metadata>
  <rdf:RDF xmlns:dc="http://purl.org/dc/elements/1.1/" xmlns:cc="http://creativecommons.org/ns#" xmlns:rdf="http://www.w3.org/1999/02/22-rdf-syntax-ns#">
   <cc:Work>
    <dc:type rdf:resource="http://purl.org/dc/dcmitype/StillImage"/>
    <dc:date>2025-10-02T17:14:37.749790</dc:date>
    <dc:format>image/svg+xml</dc:format>
    <dc:creator>
     <cc:Agent>
      <dc:title>Matplotlib v3.10.6, https://matplotlib.org/</dc:title>
     </cc:Agent>
    </dc:creator>
   </cc:Work>
  </rdf:RDF>
 </metadata>
 <defs>
  <style type="text/css">*{stroke-linejoin: round; stroke-linecap: butt}</style>
 </defs>
 <g id="figure_1">
  <g id="patch_1">
   <path d="M 0 288 
L 360 288 
L 360 0 
L 0 0 
z
" style="fill: #ffffff"/>
  </g>
  <g id="axes_1">
   <g id="patch_2">
    <path d="M 62.84 240.28 
L 349.2 240.28 
L 349.2 26.88 
L 62.84 26.88 
z
" style="fill: #ffffff"/>
   </g>
   <g id="QuadContourSet_1">
    <path d="M 86.703333 26.88 
L 87.956963 26.88 
L 87.834864 36.380776 
L 87.677897 47.600163 
L 87.438891 60.808896 
L 87.370581 76.198006 
L 87.344134 93.757994 
L 87.421881 113.137869 
L 87.419524 133.590571 
L 87.324542 154.013971 
L 87.387412 173.39493 
L 87.330458 190.956403 
L 87.307218 206.347113 
L 87.398154 219.557363 
L 87.400607 230.778089 
L 87.462799 240.28 
L 86.703333 240.28 
L 62.84 240.28 
L 62.84 230.778089 
L 62.84 219.557363 
L 62.84 206.347113 
L 62.84 190.956403 
L 62.84 173.39493 
L 62.84 154.013971 
L 62.84 133.590571 
L 62.84 113.137869 
L 62.84 93.757994 
L 62.84 76.198006 
L 62.84 60.808896 
L 62.84 47.600163 
L 62.84 36.380776 
L 62.84 26.88 
z
M 325.336667 26.88 
L 349.2 26.88 
L 349.2 36.380776 
L 349.2 47.600163 
L 349.2 60.808896 
L 349.2 76.198006 
L 349.2 93.757994 
L 349.2 113.137869 
L 349.2 133.590571 
L 349.2 154.013971 
L 349.2 173.39493 
L 349.2 190.956403 
L 349.2 206.347113 
L 349.2 219.557363 
L 349.2 230.778089 
L 349.2 240.28 
L 325.336667 240.28 
L 324.480758 240.28 
L 324.52738 230.778089 
L 324.5794 219.557363 
L 324.535339 206.347113 
L 324.62124 190.956403 
L 324.604182 173.39493 
L 324.674105 154.013971 
L 324.547167 133.590571 
L 324.622623 113.137869 
L 324.705354 93.757994 
L 324.586284 76.198006 
L 324.420241 60.808896 
L 324.45004 47.600163 
L 324.288236 36.380776 
L 324.264771 26.88 
z
" clip-path="url(#p748316f6a6)" style="fill: #460b5e"/>
    <path d="M 91.424718 36.380776 
L 90.769764 47.600163 
L 89.772494 60.808896 
L 89.487469 76.198006 
L 89.377117 93.757994 
L 89.701522 113.137869 
L 89.691683 133.590571 
L 89.295368 154.013971 
L 89.557698 173.39493 
L 89.320053 190.956403 
L 89.223083 206.347113 
L 89.602518 219.557363 
L 89.612754 230.778089 
L 89.872254 240.28 
L 87.462799 240.28 
L 87.400607 230.778089 
L 87.398154 219.557363 
L 87.307218 206.347113 
L 87.330458 190.956403 
L 87.387412 173.39493 
L 87.324542 154.013971 
L 87.419524 133.590571 
L 87.421881 113.137869 
L 87.344134 93.757994 
L 87.370581 76.198006 
L 87.438891 60.808896 
L 87.677897 47.600163 
L 87.834864 36.380776 
L 87.956963 26.88 
L 91.934185 26.88 
z
M 324.288236 36.380776 
L 324.45004 47.600163 
L 324.420241 60.808896 
L 324.586284 76.198006 
L 324.705354 93.757994 
L 324.622623 113.137869 
L 324.547167 133.590571 
L 324.674105 154.013971 
L 324.604182 173.39493 
L 324.62124 190.956403 
L 324.535339 206.347113 
L 324.5794 219.557363 
L 324.52738 230.778089 
L 324.480758 240.28 
L 321.765331 240.28 
L 321.959867 230.778089 
L 322.176924 219.557363 
L 321.993074 206.347113 
L 322.351502 190.956403 
L 322.280327 173.39493 
L 322.572087 154.013971 
L 322.042428 133.590571 
L 322.357272 113.137869 
L 322.702474 93.757994 
L 322.205648 76.198006 
L 321.512821 60.808896 
L 321.637158 47.600163 
L 320.96202 36.380776 
L 320.864112 26.88 
L 324.264771 26.88 
z
" clip-path="url(#p748316f6a6)" style="fill: #481f70"/>
    <path d="M 95.014572 36.380776 
L 93.861632 47.600163 
L 92.106097 60.808896 
L 91.604357 76.198006 
L 91.410099 93.757994 
L 91.981162 113.137869 
L 91.963843 133.590571 
L 91.266193 154.013971 
L 91.727983 173.39493 
L 91.309648 190.956403 
L 91.138947 206.347113 
L 91.806882 219.557363 
L 91.824901 230.778089 
L 92.281708 240.28 
L 89.872254 240.28 
L 89.612754 230.778089 
L 89.602518 219.557363 
L 89.223083 206.347113 
L 89.320053 190.956403 
L 89.557698 173.39493 
L 89.295368 154.013971 
L 89.691683 133.590571 
L 89.701522 113.137869 
L 89.377117 93.757994 
L 89.487469 76.198006 
L 89.772494 60.808896 
L 90.769764 47.600163 
L 91.424718 36.380776 
L 91.934185 26.88 
L 95.911408 26.88 
z
M 320.96202 36.380776 
L 321.637158 47.600163 
L 321.512821 60.808896 
L 322.205648 76.198006 
L 322.702474 93.757994 
L 322.357272 113.137869 
L 322.042428 133.590571 
L 322.572087 154.013971 
L 322.280327 173.39493 
L 322.351502 190.956403 
L 321.993074 206.347113 
L 322.176924 219.557363 
L 321.959867 230.778089 
L 321.765331 240.28 
L 319.049904 240.28 
L 319.392353 230.778089 
L 319.774447 219.557363 
L 319.450808 206.347113 
L 320.081764 190.956403 
L 319.956472 173.39493 
L 320.470068 154.013971 
L 319.537689 133.590571 
L 320.091921 113.137869 
L 320.699593 93.757994 
L 319.825012 76.198006 
L 318.605401 60.808896 
L 318.824276 47.600163 
L 317.635805 36.380776 
L 317.463453 26.88 
L 320.864112 26.88 
z
" clip-path="url(#p748316f6a6)" style="fill: #46307e"/>
    <path d="M 98.604426 36.380776 
L 96.953499 47.600163 
L 94.4397 60.808896 
L 93.721245 76.198006 
L 93.443082 93.757994 
L 94.260803 113.137869 
L 94.236003 133.590571 
L 93.237019 154.013971 
L 93.898268 173.39493 
L 93.299243 190.956403 
L 93.054812 206.347113 
L 94.011246 219.557363 
L 94.037048 230.778089 
L 94.691163 240.28 
L 92.281708 240.28 
L 91.824901 230.778089 
L 91.806882 219.557363 
L 91.138947 206.347113 
L 91.309648 190.956403 
L 91.727983 173.39493 
L 91.266193 154.013971 
L 91.963843 133.590571 
L 91.981162 113.137869 
L 91.410099 93.757994 
L 91.604357 76.198006 
L 92.106097 60.808896 
L 93.861632 47.600163 
L 95.014572 36.380776 
L 95.911408 26.88 
L 99.88863 26.88 
z
M 317.635805 36.380776 
L 318.824276 47.600163 
L 318.605401 60.808896 
L 319.825012 76.198006 
L 320.699593 93.757994 
L 320.091921 113.137869 
L 319.537689 133.590571 
L 320.470068 154.013971 
L 319.956472 173.39493 
L 320.081764 190.956403 
L 319.450808 206.347113 
L 319.774447 219.557363 
L 319.392353 230.778089 
L 319.049904 240.28 
L 316.334478 240.28 
L 316.824839 230.778089 
L 317.37197 219.557363 
L 316.908543 206.347113 
L 317.812025 190.956403 
L 317.632617 173.39493 
L 318.36805 154.013971 
L 317.03295 133.590571 
L 317.82657 113.137869 
L 318.696713 93.757994 
L 317.444375 76.198006 
L 315.697981 60.808896 
L 316.011394 47.600163 
L 314.30959 36.380776 
L 314.062794 26.88 
L 317.463453 26.88 
z
" clip-path="url(#p748316f6a6)" style="fill: #424186"/>
    <path d="M 102.194279 36.380776 
L 100.045366 47.600163 
L 96.773303 60.808896 
L 95.838132 76.198006 
L 95.476064 93.757994 
L 96.540443 113.137869 
L 96.508163 133.590571 
L 95.207845 154.013971 
L 96.068554 173.39493 
L 95.288838 190.956403 
L 94.970676 206.347113 
L 96.21561 219.557363 
L 96.249194 230.778089 
L 97.100618 240.28 
L 94.691163 240.28 
L 94.037048 230.778089 
L 94.011246 219.557363 
L 93.054812 206.347113 
L 93.299243 190.956403 
L 93.898268 173.39493 
L 93.237019 154.013971 
L 94.236003 133.590571 
L 94.260803 113.137869 
L 93.443082 93.757994 
L 93.721245 76.198006 
L 94.4397 60.808896 
L 96.953499 47.600163 
L 98.604426 36.380776 
L 99.88863 26.88 
L 103.865852 26.88 
z
M 314.30959 36.380776 
L 316.011394 47.600163 
L 315.697981 60.808896 
L 317.444375 76.198006 
L 318.696713 93.757994 
L 317.82657 113.137869 
L 317.03295 133.590571 
L 318.36805 154.013971 
L 317.632617 173.39493 
L 317.812025 190.956403 
L 316.908543 206.347113 
L 317.37197 219.557363 
L 316.824839 230.778089 
L 316.334478 240.28 
L 313.619051 240.28 
L 314.257325 230.778089 
L 314.969493 219.557363 
L 314.366278 206.347113 
L 315.542287 190.956403 
L 315.308762 173.39493 
L 316.266031 154.013971 
L 314.528211 133.590571 
L 315.561219 113.137869 
L 316.693833 93.757994 
L 315.063739 76.198006 
L 312.790561 60.808896 
L 313.198512 47.600163 
L 310.983374 36.380776 
L 310.662135 26.88 
L 314.062794 26.88 
z
" clip-path="url(#p748316f6a6)" style="fill: #3b528b"/>
    <path d="M 105.784133 36.380776 
L 103.137233 47.600163 
L 99.106907 60.808896 
L 97.95502 76.198006 
L 97.509047 93.757994 
L 98.820084 113.137869 
L 98.780323 133.590571 
L 97.17867 154.013971 
L 98.238839 173.39493 
L 97.278433 190.956403 
L 96.886541 206.347113 
L 98.419975 219.557363 
L 98.461341 230.778089 
L 99.510072 240.28 
L 97.100618 240.28 
L 96.249194 230.778089 
L 96.21561 219.557363 
L 94.970676 206.347113 
L 95.288838 190.956403 
L 96.068554 173.39493 
L 95.207845 154.013971 
L 96.508163 133.590571 
L 96.540443 113.137869 
L 95.476064 93.757994 
L 95.838132 76.198006 
L 96.773303 60.808896 
L 100.045366 47.600163 
L 102.194279 36.380776 
L 103.865852 26.88 
L 107.843074 26.88 
z
M 310.983374 36.380776 
L 313.198512 47.600163 
L 312.790561 60.808896 
L 315.063739 76.198006 
L 316.693833 93.757994 
L 315.561219 113.137869 
L 314.528211 133.590571 
L 316.266031 154.013971 
L 315.308762 173.39493 
L 315.542287 190.956403 
L 314.366278 206.347113 
L 314.969493 219.557363 
L 314.257325 230.778089 
L 313.619051 240.28 
L 310.903624 240.28 
L 311.689812 230.778089 
L 312.567016 219.557363 
L 311.824013 206.347113 
L 313.272549 190.956403 
L 312.984907 173.39493 
L 314.164013 154.013971 
L 312.023472 133.590571 
L 313.295868 113.137869 
L 314.690952 93.757994 
L 312.683102 76.198006 
L 309.883141 60.808896 
L 310.385631 47.600163 
L 307.657159 36.380776 
L 307.261476 26.88 
L 310.662135 26.88 
z
" clip-path="url(#p748316f6a6)" style="fill: #34618d"/>
    <path d="M 110.566667 26.88 
L 115.217753 26.88 
L 110.566667 31.505407 
L 109.373987 36.380776 
L 106.2291 47.600163 
L 101.44051 60.808896 
L 100.071908 76.198006 
L 99.542029 93.757994 
L 101.099724 113.137869 
L 101.052482 133.590571 
L 99.149496 154.013971 
L 100.409124 173.39493 
L 99.268028 190.956403 
L 98.802405 206.347113 
L 100.624339 219.557363 
L 100.673488 230.778089 
L 101.919527 240.28 
L 99.510072 240.28 
L 98.461341 230.778089 
L 98.419975 219.557363 
L 96.886541 206.347113 
L 97.278433 190.956403 
L 98.238839 173.39493 
L 97.17867 154.013971 
L 98.780323 133.590571 
L 98.820084 113.137869 
L 97.509047 93.757994 
L 97.95502 76.198006 
L 99.106907 60.808896 
L 103.137233 47.600163 
L 105.784133 36.380776 
L 107.843074 26.88 
z
M 307.657159 36.380776 
L 310.385631 47.600163 
L 309.883141 60.808896 
L 312.683102 76.198006 
L 314.690952 93.757994 
L 313.295868 113.137869 
L 312.023472 133.590571 
L 314.164013 154.013971 
L 312.984907 173.39493 
L 313.272549 190.956403 
L 311.824013 206.347113 
L 312.567016 219.557363 
L 311.689812 230.778089 
L 310.903624 240.28 
L 308.188198 240.28 
L 309.122298 230.778089 
L 310.16454 219.557363 
L 309.281748 206.347113 
L 311.002811 190.956403 
L 310.661052 173.39493 
L 312.061994 154.013971 
L 309.518733 133.590571 
L 311.030517 113.137869 
L 312.688072 93.757994 
L 310.302466 76.198006 
L 306.975721 60.808896 
L 307.572749 47.600163 
L 304.330944 36.380776 
L 303.860817 26.88 
L 307.261476 26.88 
z
" clip-path="url(#p748316f6a6)" style="fill: #2e6f8e"/>
    <path d="M 110.566667 31.505407 
L 115.217753 26.88 
L 129.973624 26.88 
L 116.096931 36.380776 
L 110.566667 43.378241 
L 109.320967 47.600163 
L 103.774113 60.808896 
L 102.188795 76.198006 
L 101.575012 93.757994 
L 103.379365 113.137869 
L 103.324642 133.590571 
L 101.120322 154.013971 
L 102.579409 173.39493 
L 101.257622 190.956403 
L 100.71827 206.347113 
L 102.828703 219.557363 
L 102.885635 230.778089 
L 104.328982 240.28 
L 101.919527 240.28 
L 100.673488 230.778089 
L 100.624339 219.557363 
L 98.802405 206.347113 
L 99.268028 190.956403 
L 100.409124 173.39493 
L 99.149496 154.013971 
L 101.052482 133.590571 
L 101.099724 113.137869 
L 99.542029 93.757994 
L 100.071908 76.198006 
L 101.44051 60.808896 
L 106.2291 47.600163 
L 109.373987 36.380776 
z
M 301.473333 26.88 
L 303.860817 26.88 
L 304.330944 36.380776 
L 307.572749 47.600163 
L 306.975721 60.808896 
L 310.302466 76.198006 
L 312.688072 93.757994 
L 311.030517 113.137869 
L 309.518733 133.590571 
L 312.061994 154.013971 
L 310.661052 173.39493 
L 311.002811 190.956403 
L 309.281748 206.347113 
L 310.16454 219.557363 
L 309.122298 230.778089 
L 308.188198 240.28 
L 305.472771 240.28 
L 306.554784 230.778089 
L 307.762063 219.557363 
L 306.739483 206.347113 
L 308.733073 190.956403 
L 308.337197 173.39493 
L 309.959976 154.013971 
L 307.013994 133.590571 
L 308.765166 113.137869 
L 310.685192 93.757994 
L 307.92183 76.198006 
L 304.068301 60.808896 
L 304.759867 47.600163 
L 301.473333 37.588024 
L 300.246069 36.380776 
L 297.291722 26.88 
z
M 182.156667 237.911348 
L 184.188548 240.28 
L 182.156667 240.28 
L 171.255217 240.28 
z
" clip-path="url(#p748316f6a6)" style="fill: #287c8e"/>
    <path d="M 134.43 26.88 
L 139.585163 26.88 
L 134.43 30.348963 
L 124.378698 36.380776 
L 117.550715 47.600163 
L 110.566667 50.74507 
L 106.107716 60.808896 
L 104.305683 76.198006 
L 103.607995 93.757994 
L 105.659005 113.137869 
L 105.596802 133.590571 
L 103.091147 154.013971 
L 104.749695 173.39493 
L 103.247217 190.956403 
L 102.634134 206.347113 
L 105.033067 219.557363 
L 105.097781 230.778089 
L 106.738436 240.28 
L 104.328982 240.28 
L 102.885635 230.778089 
L 102.828703 219.557363 
L 100.71827 206.347113 
L 101.257622 190.956403 
L 102.579409 173.39493 
L 101.120322 154.013971 
L 103.324642 133.590571 
L 103.379365 113.137869 
L 101.575012 93.757994 
L 102.188795 76.198006 
L 103.774113 60.808896 
L 109.320967 47.600163 
L 110.566667 43.378241 
L 116.096931 36.380776 
L 129.973624 26.88 
z
M 253.746667 26.88 
L 269.258039 26.88 
L 253.746667 32.600523 
L 246.861383 26.88 
z
M 300.246069 36.380776 
L 301.473333 37.588024 
L 304.759867 47.600163 
L 304.068301 60.808896 
L 307.92183 76.198006 
L 310.685192 93.757994 
L 308.765166 113.137869 
L 307.013994 133.590571 
L 309.959976 154.013971 
L 308.337197 173.39493 
L 308.733073 190.956403 
L 306.739483 206.347113 
L 307.762063 219.557363 
L 306.554784 230.778089 
L 305.472771 240.28 
L 302.757344 240.28 
L 303.987271 230.778089 
L 305.359586 219.557363 
L 304.197218 206.347113 
L 306.463335 190.956403 
L 306.013342 173.39493 
L 307.857957 154.013971 
L 304.509255 133.590571 
L 306.499815 113.137869 
L 308.682311 93.757994 
L 305.541193 76.198006 
L 301.473333 61.719495 
L 300.775563 60.808896 
L 301.473333 55.663033 
L 301.946985 47.600163 
L 301.473333 46.157223 
L 291.534793 36.380776 
L 283.256415 26.88 
L 297.291722 26.88 
z
M 229.883333 225.711304 
L 232.922038 230.778089 
L 236.174192 240.28 
L 229.883333 240.28 
L 228.216989 240.28 
L 228.318312 230.778089 
z
M 134.43 239.468608 
L 158.293333 237.88302 
L 182.156667 232.715001 
L 188.646088 240.28 
L 184.188548 240.28 
L 182.156667 237.911348 
L 171.255217 240.28 
L 158.293333 240.28 
L 134.43 240.28 
L 132.394849 240.28 
z
" clip-path="url(#p748316f6a6)" style="fill: #23898e"/>
    <path d="M 134.43 30.348963 
L 139.585163 26.88 
L 146.970857 26.88 
L 134.43 35.318873 
L 132.660465 36.380776 
L 129.247239 47.600163 
L 110.566667 56.011999 
L 108.441319 60.808896 
L 106.422571 76.198006 
L 105.640977 93.757994 
L 107.938646 113.137869 
L 107.868962 133.590571 
L 105.061973 154.013971 
L 106.91998 173.39493 
L 105.236812 190.956403 
L 104.549998 206.347113 
L 107.237431 219.557363 
L 107.309928 230.778089 
L 109.147891 240.28 
L 106.738436 240.28 
L 105.097781 230.778089 
L 105.033067 219.557363 
L 102.634134 206.347113 
L 103.247217 190.956403 
L 104.749695 173.39493 
L 103.091147 154.013971 
L 105.596802 133.590571 
L 105.659005 113.137869 
L 103.607995 93.757994 
L 104.305683 76.198006 
L 106.107716 60.808896 
L 110.566667 50.74507 
L 117.550715 47.600163 
L 124.378698 36.380776 
z
M 253.746667 32.600523 
L 269.258039 26.88 
L 277.61 26.88 
L 283.256415 26.88 
L 291.534793 36.380776 
L 301.473333 46.157223 
L 301.946985 47.600163 
L 301.473333 55.663033 
L 300.775563 60.808896 
L 301.473333 61.719495 
L 305.541193 76.198006 
L 308.682311 93.757994 
L 306.499815 113.137869 
L 304.509255 133.590571 
L 307.857957 154.013971 
L 306.013342 173.39493 
L 306.463335 190.956403 
L 304.197218 206.347113 
L 305.359586 219.557363 
L 303.987271 230.778089 
L 302.757344 240.28 
L 301.473333 240.28 
L 292.185315 240.28 
L 301.247511 230.778089 
L 301.473333 230.411363 
L 302.957109 219.557363 
L 301.654953 206.347113 
L 304.193597 190.956403 
L 303.689486 173.39493 
L 305.755938 154.013971 
L 302.004516 133.590571 
L 304.234464 113.137869 
L 306.679431 93.757994 
L 303.160557 76.198006 
L 301.473333 70.192764 
L 294.282702 60.808896 
L 294.27358 47.600163 
L 282.823517 36.380776 
L 277.61 31.627291 
L 264.682336 36.380776 
L 258.260514 47.600163 
L 253.746667 51.655475 
L 250.614552 47.600163 
L 246.764501 36.380776 
L 237.646088 26.88 
L 246.861383 26.88 
z
M 182.156667 216.411174 
L 185.033285 219.557363 
L 185.768327 230.778089 
L 193.103627 240.28 
L 188.646088 240.28 
L 182.156667 232.715001 
L 158.293333 237.88302 
L 134.43 239.468608 
L 132.394849 240.28 
L 118.656383 240.28 
L 134.43 233.991236 
L 158.293333 232.649615 
L 166.958266 230.778089 
L 174.49731 219.557363 
z
M 229.883333 212.598571 
L 236.940919 219.557363 
L 242.506555 230.778089 
L 253.746667 238.999399 
L 258.063131 240.28 
L 253.746667 240.28 
L 236.174192 240.28 
L 232.922038 230.778089 
L 229.883333 225.711304 
L 228.318312 230.778089 
L 228.216989 240.28 
L 222.522016 240.28 
L 223.382009 230.778089 
L 226.182299 219.557363 
z
" clip-path="url(#p748316f6a6)" style="fill: #1f978b"/>
    <path d="M 134.43 35.318873 
L 146.970857 26.88 
L 154.356551 26.88 
L 148.631753 36.380776 
L 139.712957 47.600163 
L 134.43 49.638457 
L 111.24463 60.808896 
L 110.566667 62.120756 
L 108.539459 76.198006 
L 107.67396 93.757994 
L 110.218286 113.137869 
L 110.141122 133.590571 
L 107.032798 154.013971 
L 109.090265 173.39493 
L 107.226407 190.956403 
L 106.465863 206.347113 
L 109.441795 219.557363 
L 109.522075 230.778089 
L 110.566667 235.857353 
L 123.290952 230.778089 
L 134.43 227.380802 
L 157.597936 219.557363 
L 158.293333 219.42192 
L 182.156667 209.559386 
L 191.298004 219.557363 
L 191.526209 230.778089 
L 197.561167 240.28 
L 193.103627 240.28 
L 185.768327 230.778089 
L 185.033285 219.557363 
L 182.156667 216.411174 
L 174.49731 219.557363 
L 166.958266 230.778089 
L 158.293333 232.649615 
L 134.43 233.991236 
L 118.656383 240.28 
L 110.566667 240.28 
L 109.147891 240.28 
L 107.309928 230.778089 
L 107.237431 219.557363 
L 104.549998 206.347113 
L 105.236812 190.956403 
L 106.91998 173.39493 
L 105.061973 154.013971 
L 107.868962 133.590571 
L 107.938646 113.137869 
L 105.640977 93.757994 
L 106.422571 76.198006 
L 108.441319 60.808896 
L 110.566667 56.011999 
L 129.247239 47.600163 
L 132.660465 36.380776 
z
M 206.02 26.88 
L 229.883333 26.88 
L 237.646088 26.88 
L 246.764501 36.380776 
L 250.614552 47.600163 
L 253.746667 51.655475 
L 258.260514 47.600163 
L 264.682336 36.380776 
L 277.61 31.627291 
L 282.823517 36.380776 
L 294.27358 47.600163 
L 294.282702 60.808896 
L 301.473333 70.192764 
L 303.160557 76.198006 
L 306.679431 93.757994 
L 304.234464 113.137869 
L 302.004516 133.590571 
L 305.755938 154.013971 
L 303.689486 173.39493 
L 304.193597 190.956403 
L 301.654953 206.347113 
L 302.957109 219.557363 
L 301.473333 230.411363 
L 301.247511 230.778089 
L 292.185315 240.28 
L 277.61 240.28 
L 258.063131 240.28 
L 253.746667 238.999399 
L 242.506555 230.778089 
L 236.940919 219.557363 
L 229.883333 212.598571 
L 226.182299 219.557363 
L 223.382009 230.778089 
L 222.522016 240.28 
L 216.827043 240.28 
L 218.445706 230.778089 
L 220.163676 219.557363 
L 227.070438 206.347113 
L 229.883333 202.169816 
L 238.578317 206.347113 
L 248.417968 219.557363 
L 252.091071 230.778089 
L 253.746667 231.989035 
L 277.61 239.070186 
L 290.425563 230.778089 
L 298.477099 219.557363 
L 294.839426 206.347113 
L 301.473333 193.666957 
L 301.923859 190.956403 
L 301.473333 176.719197 
L 301.177825 173.39493 
L 301.473333 172.566089 
L 303.65392 154.013971 
L 301.473333 142.406728 
L 297.225766 133.590571 
L 301.473333 117.583854 
L 301.969113 113.137869 
L 304.676551 93.757994 
L 301.473333 78.903388 
L 299.130542 76.198006 
L 287.78984 60.808896 
L 285.616007 47.600163 
L 277.61 39.777405 
L 268.313551 47.600163 
L 253.746667 60.687282 
L 243.638848 47.600163 
L 232.972863 36.380776 
L 229.883333 30.803982 
L 223.337696 36.380776 
L 206.02 44.06428 
L 194.615407 36.380776 
L 190.844613 26.88 
z
" clip-path="url(#p748316f6a6)" style="fill: #20a486"/>
    <path d="M 158.293333 26.88 
L 182.156667 26.88 
L 190.844613 26.88 
L 194.615407 36.380776 
L 206.02 44.06428 
L 223.337696 36.380776 
L 229.883333 30.803982 
L 232.972863 36.380776 
L 243.638848 47.600163 
L 253.746667 60.687282 
L 268.313551 47.600163 
L 277.61 39.777405 
L 285.616007 47.600163 
L 287.78984 60.808896 
L 299.130542 76.198006 
L 301.473333 78.903388 
L 304.676551 93.757994 
L 301.969113 113.137869 
L 301.473333 117.583854 
L 297.225766 133.590571 
L 301.473333 142.406728 
L 303.65392 154.013971 
L 301.473333 172.566089 
L 301.177825 173.39493 
L 301.473333 176.719197 
L 301.923859 190.956403 
L 301.473333 193.666957 
L 294.839426 206.347113 
L 298.477099 219.557363 
L 290.425563 230.778089 
L 277.61 239.070186 
L 253.746667 231.989035 
L 252.091071 230.778089 
L 248.417968 219.557363 
L 238.578317 206.347113 
L 229.883333 202.169816 
L 227.070438 206.347113 
L 220.163676 219.557363 
L 218.445706 230.778089 
L 216.827043 240.28 
L 211.13207 240.28 
L 213.509403 230.778089 
L 214.145053 219.557363 
L 220.785689 206.347113 
L 229.883333 192.836634 
L 253.746667 204.721204 
L 256.954238 206.347113 
L 259.560406 219.557363 
L 273.263815 230.778089 
L 277.61 232.068024 
L 279.603615 230.778089 
L 290.641703 219.557363 
L 287.695131 206.347113 
L 294.555969 190.956403 
L 294.801723 173.39493 
L 301.473333 154.682417 
L 301.551901 154.013971 
L 301.473333 153.595754 
L 291.834967 133.590571 
L 294.887204 113.137869 
L 301.473333 102.171515 
L 302.67367 93.757994 
L 301.473333 88.191549 
L 291.087234 76.198006 
L 281.296979 60.808896 
L 277.61 49.145907 
L 268.892204 60.808896 
L 258.505396 76.198006 
L 253.746667 78.779566 
L 249.64568 76.198006 
L 246.286194 60.808896 
L 236.663144 47.600163 
L 229.883333 41.361647 
L 216.233652 47.600163 
L 206.02 56.258173 
L 193.909754 47.600163 
L 182.156667 40.118038 
L 158.293333 40.045626 
L 149.199368 47.600163 
L 134.43 53.298548 
L 118.841517 60.808896 
L 110.94991 76.198006 
L 110.566667 77.796944 
L 109.706942 93.757994 
L 110.566667 100.210827 
L 115.656105 113.137869 
L 114.156859 133.590571 
L 110.566667 143.927059 
L 109.003624 154.013971 
L 110.566667 167.826611 
L 112.678315 173.39493 
L 110.566667 179.017646 
L 109.216002 190.956403 
L 108.381727 206.347113 
L 110.566667 215.58893 
L 134.43 219.015406 
L 158.293333 214.681726 
L 176.620143 206.347113 
L 182.156667 199.461102 
L 186.556984 206.347113 
L 197.562722 219.557363 
L 197.284091 230.778089 
L 202.018707 240.28 
L 197.561167 240.28 
L 191.526209 230.778089 
L 191.298004 219.557363 
L 182.156667 209.559386 
L 158.293333 219.42192 
L 157.597936 219.557363 
L 134.43 227.380802 
L 123.290952 230.778089 
L 110.566667 235.857353 
L 109.522075 230.778089 
L 109.441795 219.557363 
L 106.465863 206.347113 
L 107.226407 190.956403 
L 109.090265 173.39493 
L 107.032798 154.013971 
L 110.141122 133.590571 
L 110.218286 113.137869 
L 107.67396 93.757994 
L 108.539459 76.198006 
L 110.566667 62.120756 
L 111.24463 60.808896 
L 134.43 49.638457 
L 139.712957 47.600163 
L 148.631753 36.380776 
L 154.356551 26.88 
z
" clip-path="url(#p748316f6a6)" style="fill: #2cb17e"/>
    <path d="M 158.293333 40.045626 
L 182.156667 40.118038 
L 193.909754 47.600163 
L 206.02 56.258173 
L 216.233652 47.600163 
L 229.883333 41.361647 
L 236.663144 47.600163 
L 246.286194 60.808896 
L 249.64568 76.198006 
L 253.746667 78.779566 
L 258.505396 76.198006 
L 268.892204 60.808896 
L 277.61 49.145907 
L 281.296979 60.808896 
L 291.087234 76.198006 
L 301.473333 88.191549 
L 302.67367 93.757994 
L 301.473333 102.171515 
L 294.887204 113.137869 
L 291.834967 133.590571 
L 301.473333 153.595754 
L 301.551901 154.013971 
L 301.473333 154.682417 
L 294.801723 173.39493 
L 294.555969 190.956403 
L 287.695131 206.347113 
L 290.641703 219.557363 
L 279.603615 230.778089 
L 277.61 232.068024 
L 273.263815 230.778089 
L 259.560406 219.557363 
L 256.954238 206.347113 
L 253.746667 204.721204 
L 229.883333 192.836634 
L 220.785689 206.347113 
L 214.145053 219.557363 
L 213.509403 230.778089 
L 211.13207 240.28 
L 206.02 240.28 
L 202.018707 240.28 
L 197.284091 230.778089 
L 197.562722 219.557363 
L 186.556984 206.347113 
L 182.156667 199.461102 
L 176.620143 206.347113 
L 158.293333 214.681726 
L 134.43 219.015406 
L 110.566667 215.58893 
L 108.381727 206.347113 
L 109.216002 190.956403 
L 110.566667 179.017646 
L 112.678315 173.39493 
L 110.566667 167.826611 
L 109.003624 154.013971 
L 110.566667 143.927059 
L 114.156859 133.590571 
L 115.656105 113.137869 
L 110.566667 100.210827 
L 109.706942 93.757994 
L 110.566667 77.796944 
L 110.94991 76.198006 
L 118.841517 60.808896 
L 134.43 53.298548 
L 149.199368 47.600163 
z
M 126.438405 60.808896 
L 119.996379 76.198006 
L 114.681371 93.757994 
L 121.663628 113.137869 
L 118.574398 133.590571 
L 111.641021 154.013971 
L 119.282992 173.39493 
L 115.093547 190.956403 
L 110.566667 201.664172 
L 110.297592 206.347113 
L 110.566667 207.48524 
L 134.43 207.737035 
L 158.293333 209.941532 
L 166.197027 206.347113 
L 178.641031 190.956403 
L 182.156667 187.415941 
L 185.541556 190.956403 
L 194.841066 206.347113 
L 203.82744 219.557363 
L 203.041973 230.778089 
L 206.02 238.710251 
L 208.5731 230.778089 
L 208.12643 219.557363 
L 214.50094 206.347113 
L 223.265509 190.956403 
L 229.883333 181.09629 
L 241.402052 190.956403 
L 253.746667 197.304022 
L 271.586758 206.347113 
L 270.41284 219.557363 
L 277.61 224.58886 
L 282.806308 219.557363 
L 280.550835 206.347113 
L 285.92553 190.956403 
L 288.425621 173.39493 
L 296.888638 154.013971 
L 286.444168 133.590571 
L 286.455846 113.137869 
L 296.832579 93.757994 
L 283.043927 76.198006 
L 277.61 66.812499 
L 269.907157 76.198006 
L 253.746667 84.964899 
L 239.819846 76.198006 
L 238.723895 60.808896 
L 229.883333 47.910018 
L 214.270332 60.808896 
L 209.072282 76.198006 
L 206.02 77.454715 
L 182.156667 77.106494 
L 178.202722 76.198006 
L 162.02616 60.808896 
L 158.293333 51.399126 
L 134.43 56.95864 
z
M 206.02 106.996809 
L 212.289961 113.137869 
L 209.660707 133.590571 
L 206.02 137.274133 
L 203.34797 133.590571 
L 197.64521 113.137869 
z
" clip-path="url(#p748316f6a6)" style="fill: #40bd72"/>
    <path d="M 134.43 56.95864 
L 158.293333 51.399126 
L 162.02616 60.808896 
L 178.202722 76.198006 
L 182.156667 77.106494 
L 206.02 77.454715 
L 209.072282 76.198006 
L 214.270332 60.808896 
L 229.883333 47.910018 
L 238.723895 60.808896 
L 239.819846 76.198006 
L 253.746667 84.964899 
L 269.907157 76.198006 
L 277.61 66.812499 
L 283.043927 76.198006 
L 296.832579 93.757994 
L 286.455846 113.137869 
L 286.444168 133.590571 
L 296.888638 154.013971 
L 288.425621 173.39493 
L 285.92553 190.956403 
L 280.550835 206.347113 
L 282.806308 219.557363 
L 277.61 224.58886 
L 270.41284 219.557363 
L 271.586758 206.347113 
L 253.746667 197.304022 
L 241.402052 190.956403 
L 229.883333 181.09629 
L 223.265509 190.956403 
L 214.50094 206.347113 
L 208.12643 219.557363 
L 208.5731 230.778089 
L 206.02 238.710251 
L 203.041973 230.778089 
L 203.82744 219.557363 
L 194.841066 206.347113 
L 185.541556 190.956403 
L 182.156667 187.415941 
L 178.641031 190.956403 
L 166.197027 206.347113 
L 158.293333 209.941532 
L 134.43 207.737035 
L 110.566667 207.48524 
L 110.297592 206.347113 
L 110.566667 201.664172 
L 115.093547 190.956403 
L 119.282992 173.39493 
L 111.641021 154.013971 
L 118.574398 133.590571 
L 121.663628 113.137869 
L 114.681371 93.757994 
L 119.996379 76.198006 
L 126.438405 60.808896 
z
M 134.035293 60.808896 
L 129.042848 76.198006 
L 121.811195 93.757994 
L 127.671151 113.137869 
L 122.991936 133.590571 
L 116.833406 154.013971 
L 125.887669 173.39493 
L 129.190018 190.956403 
L 134.43 195.538821 
L 158.293333 203.328657 
L 168.419949 190.956403 
L 182.156667 177.122681 
L 195.38252 190.956403 
L 203.125147 206.347113 
L 206.02 210.965887 
L 208.216191 206.347113 
L 214.97814 190.956403 
L 221.174095 173.39493 
L 229.883333 166.212191 
L 235.287244 173.39493 
L 253.746667 189.184986 
L 277.61 190.081922 
L 282.04952 173.39493 
L 292.125924 154.013971 
L 281.053369 133.590571 
L 278.024487 113.137869 
L 285.250807 93.757994 
L 277.61 81.986542 
L 253.746667 91.150233 
L 229.994013 76.198006 
L 231.161595 60.808896 
L 229.883333 58.943839 
L 227.62584 60.808896 
L 229.651525 76.198006 
L 206.02 85.927757 
L 182.156667 86.985645 
L 158.293333 81.046625 
L 146.978525 76.198006 
L 135.735813 60.808896 
L 134.43 60.618731 
z
M 206.02 100.116412 
L 219.314777 113.137869 
L 219.619203 133.590571 
L 206.02 147.349853 
L 196.039113 133.590571 
L 188.262159 113.137869 
z
M 197.64521 113.137869 
L 203.34797 133.590571 
L 206.02 137.274133 
L 209.660707 133.590571 
L 212.289961 113.137869 
L 206.02 106.996809 
z
" clip-path="url(#p748316f6a6)" style="fill: #5ec962"/>
    <path d="M 134.43 60.618731 
L 135.735813 60.808896 
L 146.978525 76.198006 
L 158.293333 81.046625 
L 182.156667 86.985645 
L 206.02 85.927757 
L 229.651525 76.198006 
L 227.62584 60.808896 
L 229.883333 58.943839 
L 231.161595 60.808896 
L 229.994013 76.198006 
L 253.746667 91.150233 
L 277.61 81.986542 
L 285.250807 93.757994 
L 278.024487 113.137869 
L 281.053369 133.590571 
L 292.125924 154.013971 
L 282.04952 173.39493 
L 277.61 190.081922 
L 253.746667 189.184986 
L 235.287244 173.39493 
L 229.883333 166.212191 
L 221.174095 173.39493 
L 214.97814 190.956403 
L 208.216191 206.347113 
L 206.02 210.965887 
L 203.125147 206.347113 
L 195.38252 190.956403 
L 182.156667 177.122681 
L 168.419949 190.956403 
L 158.293333 203.328657 
L 134.43 195.538821 
L 129.190018 190.956403 
L 125.887669 173.39493 
L 116.833406 154.013971 
L 122.991936 133.590571 
L 127.671151 113.137869 
L 121.811195 93.757994 
L 129.042848 76.198006 
L 134.035293 60.808896 
z
M 128.941018 93.757994 
L 133.678674 113.137869 
L 127.409475 133.590571 
L 122.025791 154.013971 
L 132.492346 173.39493 
L 134.43 178.985011 
L 158.293333 190.86544 
L 175.848581 173.39493 
L 182.156667 167.105297 
L 201.170667 154.013971 
L 188.730256 133.590571 
L 182.156667 118.859194 
L 173.62685 113.137869 
L 171.76509 93.757994 
L 158.293333 90.076534 
L 134.43 82.246429 
z
M 209.602272 93.757994 
L 226.339594 113.137869 
L 229.577699 133.590571 
L 229.883333 135.190995 
L 234.619121 154.013971 
L 249.648343 173.39493 
L 253.746667 176.900606 
L 265.306706 173.39493 
L 277.61 170.891696 
L 287.363211 154.013971 
L 277.61 136.653141 
L 270.469325 133.590571 
L 253.746667 117.055852 
L 246.960443 113.137869 
L 240.052455 93.757994 
L 229.883333 88.440037 
z
M 188.262159 113.137869 
L 196.039113 133.590571 
L 206.02 147.349853 
L 219.619203 133.590571 
L 219.314777 113.137869 
L 206.02 100.116412 
z
M 205.223483 190.956403 
L 206.02 192.659372 
L 206.69077 190.956403 
L 206.02 187.62131 
z
" clip-path="url(#p748316f6a6)" style="fill: #7fd34e"/>
    <path d="M 134.43 82.246429 
L 158.293333 90.076534 
L 171.76509 93.757994 
L 173.62685 113.137869 
L 182.156667 118.859194 
L 188.730256 133.590571 
L 201.170667 154.013971 
L 182.156667 167.105297 
L 175.848581 173.39493 
L 158.293333 190.86544 
L 134.43 178.985011 
L 132.492346 173.39493 
L 122.025791 154.013971 
L 127.409475 133.590571 
L 133.678674 113.137869 
L 128.941018 93.757994 
z
M 131.827013 133.590571 
L 127.218175 154.013971 
L 134.43 166.859621 
L 145.810196 173.39493 
L 158.293333 181.023499 
L 165.958904 173.39493 
L 182.156667 157.244549 
L 186.848798 154.013971 
L 182.156667 138.388541 
L 179.726268 133.590571 
L 158.293333 119.181179 
L 134.43 125.359633 
z
M 229.883333 88.440037 
L 240.052455 93.757994 
L 246.960443 113.137869 
L 253.746667 117.055852 
L 270.469325 133.590571 
L 277.61 136.653141 
L 287.363211 154.013971 
L 277.61 170.891696 
L 265.306706 173.39493 
L 253.746667 176.900606 
L 249.648343 173.39493 
L 234.619121 154.013971 
L 229.883333 135.190995 
L 229.577699 133.590571 
L 226.339594 113.137869 
L 209.602272 93.757994 
z
M 247.739036 154.013971 
L 253.746667 161.582743 
L 277.61 162.649921 
L 282.600497 154.013971 
L 277.61 145.130828 
L 253.746667 138.730402 
z
M 206.02 187.62131 
L 206.69077 190.956403 
L 206.02 192.659372 
L 205.223483 190.956403 
z
" clip-path="url(#p748316f6a6)" style="fill: #a2da37"/>
    <path d="M 134.43 125.359633 
L 158.293333 119.181179 
L 179.726268 133.590571 
L 182.156667 138.388541 
L 186.848798 154.013971 
L 182.156667 157.244549 
L 165.958904 173.39493 
L 158.293333 181.023499 
L 145.810196 173.39493 
L 134.43 166.859621 
L 127.218175 154.013971 
L 131.827013 133.590571 
z
M 132.41056 154.013971 
L 134.43 157.610984 
L 158.293333 169.319474 
L 171.579497 154.013971 
L 158.293333 135.997692 
L 134.43 144.081125 
z
M 253.746667 138.730402 
L 277.61 145.130828 
L 282.600497 154.013971 
L 277.61 162.649921 
L 253.746667 161.582743 
L 247.739036 154.013971 
z
M 275.67535 154.013971 
L 277.61 154.408146 
L 277.837784 154.013971 
L 277.61 153.608514 
z
" clip-path="url(#p748316f6a6)" style="fill: #c8e020"/>
    <path d="M 134.43 144.081125 
L 158.293333 135.997692 
L 171.579497 154.013971 
L 158.293333 169.319474 
L 134.43 157.610984 
L 132.41056 154.013971 
z
M 277.61 153.608514 
L 277.837784 154.013971 
L 277.61 154.408146 
L 275.67535 154.013971 
z
" clip-path="url(#p748316f6a6)" style="fill: #ece51b"/>
   </g>
   <g id="matplotlib.axis_1">
    <g id="xtick_1">
     <g id="line2d_1">
      <defs>
       <path id="m2e8d7b6757" d="M 0 0 
L 0 3.5 
" style="stroke: #000000; stroke-width: 0.8"/>
      </defs>
      <g>
       <use xlink:href="#m2e8d7b6757" x="126.475556" y="240.28" style="stroke: #000000; stroke-width: 0.8"/>
      </g>
     </g>
     <g id="text_1">
      <!-- −50 -->
      <g transform="translate(113.812743 256.398125) scale(0.12 -0.12)">
       <defs>
        <path id="DejaVuSans-2212" d="M 678 2272 
L 4684 2272 
L 4684 1741 
L 678 1741 
L 678 2272 
z
" transform="scale(0.015625)"/>
        <path id="DejaVuSans-35" d="M 691 4666 
L 3169 4666 
L 3169 4134 
L 1269 4134 
L 1269 2991 
Q 1406 3038 1543 3061 
Q 1681 3084 1819 3084 
Q 2600 3084 3056 2656 
Q 3513 2228 3513 1497 
Q 3513 744 3044 326 
Q 2575 -91 1722 -91 
Q 1428 -91 1123 -41 
Q 819 9 494 109 
L 494 744 
Q 775 591 1075 516 
Q 1375 441 1709 441 
Q 2250 441 2565 725 
Q 2881 1009 2881 1497 
Q 2881 1984 2565 2268 
Q 2250 2553 1709 2553 
Q 1456 2553 1204 2497 
Q 953 2441 691 2322 
L 691 4666 
z
" transform="scale(0.015625)"/>
        <path id="DejaVuSans-30" d="M 2034 4250 
Q 1547 4250 1301 3770 
Q 1056 3291 1056 2328 
Q 1056 1369 1301 889 
Q 1547 409 2034 409 
Q 2525 409 2770 889 
Q 3016 1369 3016 2328 
Q 3016 3291 2770 3770 
Q 2525 4250 2034 4250 
z
M 2034 4750 
Q 2819 4750 3233 4129 
Q 3647 3509 3647 2328 
Q 3647 1150 3233 529 
Q 2819 -91 2034 -91 
Q 1250 -91 836 529 
Q 422 1150 422 2328 
Q 422 3509 836 4129 
Q 1250 4750 2034 4750 
z
" transform="scale(0.015625)"/>
       </defs>
       <use xlink:href="#DejaVuSans-2212"/>
       <use xlink:href="#DejaVuSans-35" transform="translate(83.789062 0)"/>
       <use xlink:href="#DejaVuSans-30" transform="translate(147.412109 0)"/>
      </g>
     </g>
    </g>
    <g id="xtick_2">
     <g id="line2d_2">
      <g>
       <use xlink:href="#m2e8d7b6757" x="206.02" y="240.28" style="stroke: #000000; stroke-width: 0.8"/>
      </g>
     </g>
     <g id="text_2">
      <!-- 0 -->
      <g transform="translate(202.2025 256.398125) scale(0.12 -0.12)">
       <use xlink:href="#DejaVuSans-30"/>
      </g>
     </g>
    </g>
    <g id="xtick_3">
     <g id="line2d_3">
      <g>
       <use xlink:href="#m2e8d7b6757" x="285.564444" y="240.28" style="stroke: #000000; stroke-width: 0.8"/>
      </g>
     </g>
     <g id="text_3">
      <!-- 50 -->
      <g transform="translate(277.929444 256.398125) scale(0.12 -0.12)">
       <use xlink:href="#DejaVuSans-35"/>
       <use xlink:href="#DejaVuSans-30" transform="translate(63.623047 0)"/>
      </g>
     </g>
    </g>
    <g id="text_4">
     <!-- $\Theta^{\circ}$ -->
     <g transform="translate(198.4 272.011875) scale(0.12 -0.12)">
      <defs>
       <path id="DejaVuSans-398" d="M 1416 2750 
L 3622 2750 
L 3622 2219 
L 1416 2219 
L 1416 2750 
z
M 2522 4238 
Q 1834 4238 1431 3725 
Q 1025 3213 1025 2328 
Q 1025 1447 1429 934 
Q 1834 422 2522 422 
Q 3209 422 3613 934 
Q 4013 1447 4013 2328 
Q 4013 3213 3613 3725 
Q 3209 4238 2522 4238 
z
M 2522 4750 
Q 3503 4750 4090 4092 
Q 4678 3434 4678 2328 
Q 4678 1225 4091 569 
Q 3503 -91 2522 -91 
Q 1538 -91 950 566 
Q 359 1222 359 2328 
Q 359 3434 950 4094 
Q 1538 4750 2522 4750 
z
" transform="scale(0.015625)"/>
       <path id="DejaVuSans-2218" d="M 2000 2619 
Q 1750 2619 1578 2445 
Q 1406 2272 1406 2022 
Q 1406 1775 1578 1605 
Q 1750 1435 2000 1435 
Q 2250 1435 2422 1605 
Q 2594 1775 2594 2022 
Q 2594 2269 2420 2444 
Q 2247 2619 2000 2619 
z
M 2000 3022 
Q 2200 3022 2384 2945 
Q 2569 2869 2703 2725 
Q 2847 2585 2919 2406 
Q 2991 2228 2991 2022 
Q 2991 1610 2702 1324 
Q 2413 1038 1994 1038 
Q 1572 1038 1290 1319 
Q 1009 1600 1009 2022 
Q 1009 2441 1296 2731 
Q 1584 3022 2000 3022 
z
" transform="scale(0.015625)"/>
      </defs>
      <use xlink:href="#DejaVuSans-398" transform="translate(0 0.78125)"/>
      <use xlink:href="#DejaVuSans-2218" transform="translate(79.667969 39.0625) scale(0.7)"/>
     </g>
    </g>
   </g>
   <g id="matplotlib.axis_2">
    <g id="ytick_1">
     <g id="line2d_4">
      <defs>
       <path id="m59fd5cec91" d="M 0 0 
L -3.5 0 
" style="stroke: #000000; stroke-width: 0.8"/>
      </defs>
      <g>
       <use xlink:href="#m59fd5cec91" x="62.84" y="219.984151" style="stroke: #000000; stroke-width: 0.8"/>
      </g>
     </g>
     <g id="text_5">
      <!-- −40 -->
      <g transform="translate(30.514375 224.543214) scale(0.12 -0.12)">
       <defs>
        <path id="DejaVuSans-34" d="M 2419 4116 
L 825 1625 
L 2419 1625 
L 2419 4116 
z
M 2253 4666 
L 3047 4666 
L 3047 1625 
L 3713 1625 
L 3713 1100 
L 3047 1100 
L 3047 0 
L 2419 0 
L 2419 1100 
L 313 1100 
L 313 1709 
L 2253 4666 
z
" transform="scale(0.015625)"/>
       </defs>
       <use xlink:href="#DejaVuSans-2212"/>
       <use xlink:href="#DejaVuSans-34" transform="translate(83.789062 0)"/>
       <use xlink:href="#DejaVuSans-30" transform="translate(147.412109 0)"/>
      </g>
     </g>
    </g>
    <g id="ytick_2">
     <g id="line2d_5">
      <g>
       <use xlink:href="#m59fd5cec91" x="62.84" y="176.783648" style="stroke: #000000; stroke-width: 0.8"/>
      </g>
     </g>
     <g id="text_6">
      <!-- −20 -->
      <g transform="translate(30.514375 181.342711) scale(0.12 -0.12)">
       <defs>
        <path id="DejaVuSans-32" d="M 1228 531 
L 3431 531 
L 3431 0 
L 469 0 
L 469 531 
Q 828 903 1448 1529 
Q 2069 2156 2228 2338 
Q 2531 2678 2651 2914 
Q 2772 3150 2772 3378 
Q 2772 3750 2511 3984 
Q 2250 4219 1831 4219 
Q 1534 4219 1204 4116 
Q 875 4013 500 3803 
L 500 4441 
Q 881 4594 1212 4672 
Q 1544 4750 1819 4750 
Q 2544 4750 2975 4387 
Q 3406 4025 3406 3419 
Q 3406 3131 3298 2873 
Q 3191 2616 2906 2266 
Q 2828 2175 2409 1742 
Q 1991 1309 1228 531 
z
" transform="scale(0.015625)"/>
       </defs>
       <use xlink:href="#DejaVuSans-2212"/>
       <use xlink:href="#DejaVuSans-32" transform="translate(83.789062 0)"/>
       <use xlink:href="#DejaVuSans-30" transform="translate(147.412109 0)"/>
      </g>
     </g>
    </g>
    <g id="ytick_3">
     <g id="line2d_6">
      <g>
       <use xlink:href="#m59fd5cec91" x="62.84" y="133.583145" style="stroke: #000000; stroke-width: 0.8"/>
      </g>
     </g>
     <g id="text_7">
      <!-- 0 -->
      <g transform="translate(48.205 138.142208) scale(0.12 -0.12)">
       <use xlink:href="#DejaVuSans-30"/>
      </g>
     </g>
    </g>
    <g id="ytick_4">
     <g id="line2d_7">
      <g>
       <use xlink:href="#m59fd5cec91" x="62.84" y="90.382642" style="stroke: #000000; stroke-width: 0.8"/>
      </g>
     </g>
     <g id="text_8">
      <!-- 20 -->
      <g transform="translate(40.57 94.941704) scale(0.12 -0.12)">
       <use xlink:href="#DejaVuSans-32"/>
       <use xlink:href="#DejaVuSans-30" transform="translate(63.623047 0)"/>
      </g>
     </g>
    </g>
    <g id="ytick_5">
     <g id="line2d_8">
      <g>
       <use xlink:href="#m59fd5cec91" x="62.84" y="47.182139" style="stroke: #000000; stroke-width: 0.8"/>
      </g>
     </g>
     <g id="text_9">
      <!-- 40 -->
      <g transform="translate(40.57 51.741201) scale(0.12 -0.12)">
       <use xlink:href="#DejaVuSans-34"/>
       <use xlink:href="#DejaVuSans-30" transform="translate(63.623047 0)"/>
      </g>
     </g>
    </g>
    <g id="text_10">
     <!-- $\phi^{\circ}$ -->
     <g transform="translate(23.784375 141.38) rotate(-90) scale(0.13 -0.13)">
      <defs>
       <path id="DejaVuSans-Oblique-3d5" d="M 2991 4863 
L 2738 3572 
Q 3363 3572 3684 3094 
Q 4016 2606 3850 1747 
Q 3681 888 3159 400 
Q 2653 -78 2028 -78 
L 1784 -1331 
L 1213 -1331 
L 1456 -78 
Q 834 -78 509 400 
Q 178 888 347 1747 
Q 513 2606 1034 3094 
Q 1544 3572 2166 3572 
L 2419 4863 
L 2991 4863 
z
M 2128 434 
Q 2481 434 2784 756 
Q 3116 1116 3244 1747 
Q 3369 2372 3169 2738 
Q 2991 3059 2638 3059 
L 2128 434 
z
M 1556 434 
L 2066 3059 
Q 1716 3059 1413 2738 
Q 1072 2372 953 1747 
Q 834 1116 1028 756 
Q 1203 434 1556 434 
z
" transform="scale(0.015625)"/>
      </defs>
      <use xlink:href="#DejaVuSans-Oblique-3d5" transform="translate(0 0.015625)"/>
      <use xlink:href="#DejaVuSans-2218" transform="translate(73.414505 38.296875) scale(0.7)"/>
     </g>
    </g>
   </g>
   <g id="QuadContourSet_2">
    <path clip-path="url(#p748316f6a6)" style="fill: none; stroke-dasharray: 1.85,0.8; stroke-dashoffset: 0; stroke: #000000; stroke-width: 0.5"/>
    <path d="M 324.264771 26.88 
L 324.288236 36.380776 
L 324.45004 47.600163 
L 324.420241 60.808896 
L 324.586284 76.198006 
L 324.705354 93.757994 
L 324.622623 113.137869 
L 324.595414 120.51297 
M 324.628448 146.668027 
L 324.674105 154.013971 
L 324.604182 173.39493 
L 324.62124 190.956403 
L 324.535339 206.347113 
L 324.5794 219.557363 
L 324.52738 230.778089 
L 324.480758 240.28 
M 87.462799 240.28 
L 87.400607 230.778089 
L 87.398154 219.557363 
L 87.307218 206.347113 
L 87.330458 190.956403 
L 87.387412 173.39493 
L 87.324542 154.013971 
L 87.358705 146.668125 
M 87.421031 120.512892 
L 87.421881 113.137869 
L 87.344134 93.757994 
L 87.370581 76.198006 
L 87.438891 60.808896 
L 87.677897 47.600163 
L 87.834864 36.380776 
L 87.956963 26.88 
" clip-path="url(#p748316f6a6)" style="fill: none; stroke-dasharray: 1.85,0.8; stroke-dashoffset: 0; stroke: #000000; stroke-width: 0.5"/>
    <path d="M 320.864112 26.88 
L 320.96202 36.380776 
L 321.637158 47.600163 
L 321.512821 60.808896 
L 322.205648 76.198006 
L 322.702474 93.757994 
L 322.357272 113.137869 
L 322.243721 120.514254 
M 322.381483 146.664385 
L 322.572087 154.013971 
L 322.280327 173.39493 
L 322.351502 190.956403 
L 321.993074 206.347113 
L 322.176924 219.557363 
L 321.959867 230.778089 
L 321.765331 240.28 
M 89.872254 240.28 
L 89.612754 230.778089 
L 89.602518 219.557363 
L 89.223083 206.347113 
L 89.320053 190.956403 
L 89.557698 173.39493 
L 89.295368 154.013971 
L 89.437953 146.666085 
M 89.697974 120.512893 
L 89.701522 113.137869 
L 89.377117 93.757994 
L 89.487469 76.198006 
L 89.772494 60.808896 
L 90.769764 47.600163 
L 91.424718 36.380776 
L 91.934185 26.88 
" clip-path="url(#p748316f6a6)" style="fill: none; stroke-dasharray: 1.85,0.8; stroke-dashoffset: 0; stroke: #000000; stroke-width: 0.5"/>
    <path d="M 317.463453 26.88 
L 317.635805 36.380776 
L 318.824276 47.600163 
L 318.605401 60.808896 
L 319.825012 76.198006 
L 320.699593 93.757994 
L 320.091921 113.137869 
L 319.891956 120.517111 
M 320.134172 146.656286 
L 320.470068 154.013971 
L 319.956472 173.39493 
L 320.081764 190.956403 
L 319.450808 206.347113 
L 319.774447 219.557363 
L 319.392353 230.778089 
L 319.049904 240.28 
M 92.281708 240.28 
L 91.824901 230.778089 
L 91.806882 219.557363 
L 91.138947 206.347113 
L 91.309648 190.956403 
L 91.727983 173.39493 
L 91.266193 154.013971 
L 91.517347 146.661548 
M 91.974917 120.512896 
L 91.981162 113.137869 
L 91.410099 93.757994 
L 91.604357 76.198006 
L 92.106097 60.808896 
L 93.861632 47.600163 
L 95.014572 36.380776 
L 95.911408 26.88 
" clip-path="url(#p748316f6a6)" style="fill: none; stroke-dasharray: 1.85,0.8; stroke-dashoffset: 0; stroke: #000000; stroke-width: 0.5"/>
    <path d="M 314.062794 26.88 
L 314.30959 36.380776 
L 316.011394 47.600163 
L 315.697981 60.808896 
L 317.444375 76.198006 
L 318.696713 93.757994 
L 317.82657 113.137869 
L 317.540063 120.521538 
M 317.886251 146.643755 
L 318.36805 154.013971 
L 317.632617 173.39493 
L 317.812025 190.956403 
L 316.908543 206.347113 
L 317.37197 219.557363 
L 316.824839 230.778089 
L 316.334478 240.28 
M 94.691163 240.28 
L 94.037048 230.778089 
L 94.011246 219.557363 
L 93.054812 206.347113 
L 93.299243 190.956403 
L 93.898268 173.39493 
L 93.237019 154.013971 
L 93.596997 146.654519 
M 94.25186 120.512901 
L 94.260803 113.137869 
L 93.443082 93.757994 
L 93.721245 76.198006 
L 94.4397 60.808896 
L 96.953499 47.600163 
L 98.604426 36.380776 
L 99.88863 26.88 
" clip-path="url(#p748316f6a6)" style="fill: none; stroke-dasharray: 1.85,0.8; stroke-dashoffset: 0; stroke: #000000; stroke-width: 0.5"/>
    <path d="M 310.662135 26.88 
L 310.983374 36.380776 
L 313.198512 47.600163 
L 312.790561 60.808896 
L 315.063739 76.198006 
L 316.693833 93.757994 
L 315.561219 113.137869 
L 315.190173 120.484275 
M 315.641135 146.669997 
L 316.266031 154.013971 
L 315.308762 173.39493 
L 315.542287 190.956403 
L 314.366278 206.347113 
L 314.969493 219.557363 
L 314.257325 230.778089 
L 313.619051 240.28 
M 97.100618 240.28 
L 96.249194 230.778089 
L 96.21561 219.557363 
L 94.970676 206.347113 
L 95.288838 190.956403 
L 96.068554 173.39493 
L 95.207845 154.013971 
L 95.67426 146.688238 
M 96.528872 120.469603 
L 96.540443 113.137869 
L 95.476064 93.757994 
L 95.838132 76.198006 
L 96.773303 60.808896 
L 100.045366 47.600163 
L 102.194279 36.380776 
L 103.865852 26.88 
" clip-path="url(#p748316f6a6)" style="fill: none; stroke-dasharray: 1.85,0.8; stroke-dashoffset: 0; stroke: #000000; stroke-width: 0.5"/>
    <path d="M 307.261476 26.88 
L 307.657159 36.380776 
L 310.385631 47.600163 
L 309.883141 60.808896 
L 312.683102 76.198006 
L 314.690952 93.757994 
L 313.295868 113.137869 
L 312.835675 120.535081 
M 313.387551 146.605564 
L 314.164013 154.013971 
L 312.984907 173.39493 
L 313.272549 190.956403 
L 311.824013 206.347113 
L 312.567016 219.557363 
L 311.689812 230.778089 
L 310.903624 240.28 
M 99.510072 240.28 
L 98.461341 230.778089 
L 98.419975 219.557363 
L 96.886541 206.347113 
L 97.278433 190.956403 
L 98.238839 173.39493 
L 97.17867 154.013971 
L 97.757501 146.633042 
M 98.805746 120.512914 
L 98.820084 113.137869 
L 97.509047 93.757994 
L 97.95502 76.198006 
L 99.106907 60.808896 
L 103.137233 47.600163 
L 105.784133 36.380776 
L 107.843074 26.88 
" clip-path="url(#p748316f6a6)" style="fill: none; stroke-dasharray: 1.85,0.8; stroke-dashoffset: 0; stroke: #000000; stroke-width: 0.5"/>
    <path d="M 303.860817 26.88 
L 304.330944 36.380776 
L 307.572749 47.600163 
L 306.975721 60.808896 
L 310.302466 76.198006 
L 312.688072 93.757994 
L 311.030517 113.137869 
L 310.486264 120.500984 
M 311.141624 146.62303 
L 312.061994 154.013971 
L 310.661052 173.39493 
L 311.002811 190.956403 
L 309.281748 206.347113 
L 310.16454 219.557363 
L 309.122298 230.778089 
L 308.188198 240.28 
M 101.919527 240.28 
L 100.673488 230.778089 
L 100.624339 219.557363 
L 98.802405 206.347113 
L 99.268028 190.956403 
L 100.409124 173.39493 
L 99.149496 154.013971 
L 101.052482 133.590571 
L 101.069417 126.25882 
M 100.048082 100.053986 
L 99.542029 93.757994 
L 100.071908 76.198006 
L 101.44051 60.808896 
L 106.2291 47.600163 
L 109.373987 36.380776 
L 110.566667 31.505407 
L 115.217753 26.88 
" clip-path="url(#p748316f6a6)" style="fill: none; stroke-dasharray: 1.85,0.8; stroke-dashoffset: 0; stroke: #000000; stroke-width: 0.5"/>
    <path d="M 297.291722 26.88 
L 300.246069 36.380776 
L 301.473333 37.588024 
L 304.759867 47.600163 
L 304.068301 60.808896 
L 307.92183 76.198006 
L 310.685192 93.757994 
L 308.765166 113.137869 
L 308.133817 120.511662 
M 308.889561 146.593184 
L 309.959976 154.013971 
L 308.337197 173.39493 
L 308.733073 190.956403 
L 306.739483 206.347113 
L 307.762063 219.557363 
L 306.554784 230.778089 
L 305.472771 240.28 
M 104.328982 240.28 
L 102.885635 230.778089 
L 102.828703 219.557363 
L 100.71827 206.347113 
L 101.257622 190.956403 
L 102.579409 173.39493 
L 101.120322 154.013971 
L 103.324642 133.590571 
L 103.344259 126.25881 
M 102.162371 100.066593 
L 101.575012 93.757994 
L 102.188795 76.198006 
L 103.774113 60.808896 
L 109.320967 47.600163 
L 110.566667 43.378241 
L 116.096931 36.380776 
L 129.973624 26.88 
M 184.188548 240.28 
L 182.156667 237.911348 
L 171.255217 240.28 
" clip-path="url(#p748316f6a6)" style="fill: none; stroke-dasharray: 1.85,0.8; stroke-dashoffset: 0; stroke: #000000; stroke-width: 0.5"/>
    <path d="M 246.861383 26.88 
L 253.746667 32.600523 
L 269.258039 26.88 
M 283.256415 26.88 
L 291.534793 36.380776 
L 301.473333 46.157223 
L 301.946985 47.600163 
L 301.473333 55.663033 
L 300.775563 60.808896 
L 301.473333 61.719495 
L 305.541193 76.198006 
L 308.682311 93.757994 
L 307.964438 100.132484 
M 305.232295 126.161441 
L 304.509255 133.590571 
L 307.857957 154.013971 
L 306.013342 173.39493 
L 306.463335 190.956403 
L 304.197218 206.347113 
L 305.359586 219.557363 
L 303.987271 230.778089 
L 302.757344 240.28 
M 106.738436 240.28 
L 105.097781 230.778089 
L 105.033067 219.557363 
L 102.634134 206.347113 
L 103.247217 190.956403 
L 104.749695 173.39493 
L 103.091147 154.013971 
L 105.596802 133.590571 
L 105.619232 126.215494 
M 104.281732 100.124097 
L 103.607995 93.757994 
L 104.305683 76.198006 
L 106.107716 60.808896 
L 110.566667 50.74507 
L 117.550715 47.600163 
L 124.378698 36.380776 
L 134.43 30.348963 
L 139.585163 26.88 
M 188.646088 240.28 
L 182.156667 232.715001 
L 171.88398 234.93973 
M 144.379726 238.807503 
L 134.43 239.468608 
L 132.394849 240.28 
M 236.174192 240.28 
L 232.922038 230.778089 
L 229.883333 225.711304 
L 228.318312 230.778089 
L 228.216989 240.28 
" clip-path="url(#p748316f6a6)" style="fill: none; stroke-dasharray: 1.85,0.8; stroke-dashoffset: 0; stroke: #000000; stroke-width: 0.5"/>
    <path d="M 237.646088 26.88 
L 246.764501 36.380776 
L 250.614552 47.600163 
L 253.746667 51.655475 
L 258.260514 47.600163 
L 264.682336 36.380776 
L 277.61 31.627291 
L 282.823517 36.380776 
L 294.27358 47.600163 
L 294.282702 60.808896 
L 297.1456 64.545016 
M 305.753207 89.135923 
L 306.679431 93.757994 
L 304.234464 113.137869 
L 302.004516 133.590571 
L 305.755938 154.013971 
L 303.689486 173.39493 
L 304.193597 190.956403 
L 301.654953 206.347113 
L 302.957109 219.557363 
L 301.473333 230.411363 
L 301.247511 230.778089 
L 292.185315 240.28 
M 109.147891 240.28 
L 107.309928 230.778089 
L 107.237431 219.557363 
L 104.549998 206.347113 
L 105.236812 190.956403 
L 106.91998 173.39493 
L 105.061973 154.013971 
L 107.868962 133.590571 
L 107.893794 126.302088 
M 106.387448 100.054166 
L 105.640977 93.757994 
L 106.422571 76.198006 
L 108.441319 60.808896 
L 110.566667 56.011999 
L 129.247239 47.600163 
L 132.660465 36.380776 
L 134.43 35.318873 
L 146.970857 26.88 
M 193.103627 240.28 
L 185.768327 230.778089 
L 185.110451 220.735327 
M 167.013514 230.69586 
L 166.958266 230.778089 
L 158.293333 232.649615 
L 134.43 233.991236 
L 118.656383 240.28 
M 258.063131 240.28 
L 253.746667 238.999399 
L 242.506555 230.778089 
L 238.542836 222.786944 
M 224.872931 224.803984 
L 223.382009 230.778089 
L 222.522016 240.28 
" clip-path="url(#p748316f6a6)" style="fill: none; stroke-dasharray: 1.85,0.8; stroke-dashoffset: 0; stroke: #000000; stroke-width: 0.5"/>
    <path d="M 190.844613 26.88 
L 194.615407 36.380776 
L 194.655193 36.40758 
M 218.669786 38.451831 
L 223.337696 36.380776 
L 229.883333 30.803982 
L 232.972863 36.380776 
L 243.638848 47.600163 
L 253.746667 60.687282 
L 268.313551 47.600163 
L 277.61 39.777405 
L 285.616007 47.600163 
L 287.78984 60.808896 
L 299.130542 76.198006 
L 301.473333 78.903388 
L 304.676551 93.757994 
L 301.969113 113.137869 
L 301.473333 117.583854 
L 297.225766 133.590571 
L 301.473333 142.406728 
L 303.65392 154.013971 
L 301.473333 172.566089 
L 301.177825 173.39493 
L 301.473333 176.719197 
L 301.923859 190.956403 
L 301.473333 193.666957 
L 294.839426 206.347113 
L 298.477099 219.557363 
L 290.425563 230.778089 
L 277.61 239.070186 
L 253.746667 231.989035 
L 252.091071 230.778089 
L 248.417968 219.557363 
L 238.578317 206.347113 
L 229.883333 202.169816 
L 227.070438 206.347113 
L 220.163676 219.557363 
L 218.445706 230.778089 
L 216.827043 240.28 
M 197.561167 240.28 
L 191.526209 230.778089 
L 191.298004 219.557363 
L 182.156667 209.559386 
L 158.293333 219.42192 
L 157.597936 219.557363 
L 134.43 227.380802 
L 123.290952 230.778089 
L 110.566667 235.857353 
L 109.522075 230.778089 
L 109.441795 219.557363 
L 106.465863 206.347113 
L 106.578718 204.063325 
M 108.612137 177.899902 
L 109.090265 173.39493 
L 107.032798 154.013971 
L 110.141122 133.590571 
L 110.218286 113.137869 
L 107.67396 93.757994 
L 108.539459 76.198006 
L 110.566667 62.120756 
L 111.24463 60.808896 
L 134.43 49.638457 
L 139.712957 47.600163 
L 148.631753 36.380776 
L 154.356551 26.88 
" clip-path="url(#p748316f6a6)" style="fill: none; stroke-dasharray: 1.85,0.8; stroke-dashoffset: 0; stroke: #000000; stroke-width: 0.5"/>
    <path d="M 202.018707 240.28 
L 197.284091 230.778089 
L 197.562722 219.557363 
L 186.556984 206.347113 
L 182.156667 199.461102 
L 176.620143 206.347113 
L 158.293333 214.681726 
L 134.43 219.015406 
L 110.566667 215.58893 
L 108.381727 206.347113 
L 109.216002 190.956403 
L 110.42603 180.260755 
M 109.090179 154.778858 
L 109.003624 154.013971 
L 110.566667 143.927059 
L 114.156859 133.590571 
L 115.656105 113.137869 
L 110.566667 100.210827 
L 109.706942 93.757994 
L 110.566667 77.796944 
L 110.94991 76.198006 
L 118.841517 60.808896 
L 134.43 53.298548 
L 149.199368 47.600163 
L 158.293333 40.045626 
L 182.156667 40.118038 
L 193.909754 47.600163 
L 206.02 56.258173 
L 216.233652 47.600163 
L 229.883333 41.361647 
L 236.663144 47.600163 
L 246.286194 60.808896 
L 249.64568 76.198006 
L 253.746667 78.779566 
L 258.505396 76.198006 
L 268.892204 60.808896 
L 277.61 49.145907 
L 281.296979 60.808896 
L 291.087234 76.198006 
L 301.473333 88.191549 
L 302.67367 93.757994 
L 301.473333 102.171515 
L 294.887204 113.137869 
L 291.834967 133.590571 
L 301.473333 153.595754 
L 301.551901 154.013971 
L 301.473333 154.682417 
L 294.801723 173.39493 
L 294.555969 190.956403 
L 287.695131 206.347113 
L 290.641703 219.557363 
L 279.603615 230.778089 
L 277.61 232.068024 
L 273.263815 230.778089 
L 259.560406 219.557363 
L 256.954238 206.347113 
L 253.746667 204.721204 
L 229.883333 192.836634 
L 220.785689 206.347113 
L 214.145053 219.557363 
L 213.509403 230.778089 
L 211.13207 240.28 
" clip-path="url(#p748316f6a6)" style="fill: none; stroke-dasharray: 1.85,0.8; stroke-dashoffset: 0; stroke: #000000; stroke-width: 0.5"/>
    <path d="M 284.588033 78.164441 
L 296.832579 93.757994 
L 286.455846 113.137869 
L 286.444168 133.590571 
L 296.888638 154.013971 
L 288.425621 173.39493 
L 285.92553 190.956403 
L 280.550835 206.347113 
L 282.806308 219.557363 
L 277.61 224.58886 
L 270.41284 219.557363 
L 271.586758 206.347113 
L 253.746667 197.304022 
L 241.402052 190.956403 
L 229.883333 181.09629 
L 223.265509 190.956403 
L 214.50094 206.347113 
L 208.12643 219.557363 
L 208.5731 230.778089 
L 206.02 238.710251 
L 203.041973 230.778089 
L 203.82744 219.557363 
L 194.841066 206.347113 
L 185.541556 190.956403 
L 182.156667 187.415941 
L 178.641031 190.956403 
L 166.197027 206.347113 
L 158.293333 209.941532 
L 134.43 207.737035 
L 110.566667 207.48524 
L 110.297592 206.347113 
L 110.566667 201.664172 
L 115.093547 190.956403 
L 119.282992 173.39493 
L 111.641021 154.013971 
L 118.574398 133.590571 
L 121.663628 113.137869 
L 114.681371 93.757994 
L 119.996379 76.198006 
L 126.438405 60.808896 
L 134.43 56.95864 
L 158.293333 51.399126 
L 162.02616 60.808896 
L 178.202722 76.198006 
L 182.156667 77.106494 
L 206.02 77.454715 
L 209.072282 76.198006 
L 214.270332 60.808896 
L 229.883333 47.910018 
L 238.723895 60.808896 
L 239.819846 76.198006 
L 253.746667 84.964899 
L 268.726855 76.838308 
M 210.694379 125.549735 
L 212.289961 113.137869 
L 206.02 106.996809 
L 197.64521 113.137869 
L 201.010153 125.206093 
" clip-path="url(#p748316f6a6)" style="fill: none; stroke-dasharray: 1.85,0.8; stroke-dashoffset: 0; stroke: #000000; stroke-width: 0.5"/>
    <path d="M 280.632383 106.143893 
L 278.024487 113.137869 
L 281.053369 133.590571 
L 292.125924 154.013971 
L 282.04952 173.39493 
L 277.61 190.081922 
L 253.746667 189.184986 
L 235.287244 173.39493 
L 229.883333 166.212191 
L 221.174095 173.39493 
L 214.97814 190.956403 
L 208.216191 206.347113 
L 206.02 210.965887 
L 203.125147 206.347113 
L 195.38252 190.956403 
L 182.156667 177.122681 
L 168.419949 190.956403 
L 158.293333 203.328657 
L 134.43 195.538821 
L 129.190018 190.956403 
L 125.887669 173.39493 
L 116.833406 154.013971 
L 122.991936 133.590571 
L 127.671151 113.137869 
L 121.811195 93.757994 
L 129.042848 76.198006 
L 134.035293 60.808896 
L 134.43 60.618731 
L 135.735813 60.808896 
L 146.978525 76.198006 
L 158.293333 81.046625 
L 182.156667 86.985645 
L 206.02 85.927757 
L 229.651525 76.198006 
L 227.62584 60.808896 
L 229.883333 58.943839 
L 231.161595 60.808896 
L 229.994013 76.198006 
L 253.746667 91.150233 
L 277.61 81.986542 
L 277.975386 82.549456 
M 206.02 100.116412 
L 188.262159 113.137869 
L 196.039113 133.590571 
L 198.149809 136.500299 
M 215.532165 137.725718 
L 219.619203 133.590571 
L 219.314777 113.137869 
L 206.02 100.116412 
" clip-path="url(#p748316f6a6)" style="fill: none; stroke-dasharray: 1.85,0.8; stroke-dashoffset: 0; stroke: #000000; stroke-width: 0.5"/>
    <path d="M 166.220368 182.976668 
L 158.293333 190.86544 
L 134.43 178.985011 
L 132.492346 173.39493 
L 122.025791 154.013971 
L 127.409475 133.590571 
L 133.678674 113.137869 
L 128.941018 93.757994 
L 134.43 82.246429 
L 158.293333 90.076534 
L 171.76509 93.757994 
L 173.62685 113.137869 
L 182.156667 118.859194 
L 188.730256 133.590571 
L 201.170667 154.013971 
L 186.051671 164.423548 
M 252.349587 175.705554 
L 249.648343 173.39493 
L 234.619121 154.013971 
L 229.883333 135.190995 
L 229.577699 133.590571 
L 226.339594 113.137869 
L 209.602272 93.757994 
L 229.883333 88.440037 
L 240.052455 93.757994 
L 246.960443 113.137869 
L 253.746667 117.055852 
L 270.469325 133.590571 
L 277.61 136.653141 
L 287.363211 154.013971 
L 278.301319 169.695383 
M 206.02 187.62131 
L 206.69077 190.956403 
L 206.02 192.659372 
L 205.223483 190.956403 
L 206.02 187.62131 
z
" clip-path="url(#p748316f6a6)" style="fill: none; stroke-dasharray: 1.85,0.8; stroke-dashoffset: 0; stroke: #000000; stroke-width: 0.5"/>
    <path d="M 155.934267 179.58185 
L 145.810196 173.39493 
L 134.43 166.859621 
L 127.218175 154.013971 
L 131.827013 133.590571 
L 134.43 125.359633 
L 158.293333 119.181179 
L 179.726268 133.590571 
L 182.156667 138.388541 
L 186.848798 154.013971 
L 182.156667 157.244549 
L 175.545735 163.836142 
M 263.631202 162.024783 
L 253.746667 161.582743 
L 247.739036 154.013971 
L 253.746667 138.730402 
L 277.61 145.130828 
L 280.960718 151.095145 
" clip-path="url(#p748316f6a6)" style="fill: none; stroke-dasharray: 1.85,0.8; stroke-dashoffset: 0; stroke: #000000; stroke-width: 0.5"/>
    <path d="M 145.852975 163.215641 
L 134.43 157.610984 
L 132.41056 154.013971 
L 134.43 144.081125 
L 158.293333 135.997692 
L 171.579497 154.013971 
L 167.156391 159.109337 
M 277.61 153.608514 
L 277.837784 154.013971 
L 277.61 154.408146 
L 275.67535 154.013971 
L 277.61 153.608514 
z
" clip-path="url(#p748316f6a6)" style="fill: none; stroke-dasharray: 1.85,0.8; stroke-dashoffset: 0; stroke: #000000; stroke-width: 0.5"/>
    <path clip-path="url(#p748316f6a6)" style="fill: none; stroke-dasharray: 1.85,0.8; stroke-dashoffset: 0; stroke: #000000; stroke-width: 0.5"/>
   </g>
   <g id="patch_3">
    <path d="M 62.84 240.28 
L 62.84 26.88 
" style="fill: none; stroke: #000000; stroke-width: 0.8; stroke-linejoin: miter; stroke-linecap: square"/>
   </g>
   <g id="patch_4">
    <path d="M 349.2 240.28 
L 349.2 26.88 
" style="fill: none; stroke: #000000; stroke-width: 0.8; stroke-linejoin: miter; stroke-linecap: square"/>
   </g>
   <g id="patch_5">
    <path d="M 62.84 240.28 
L 349.2 240.28 
" style="fill: none; stroke: #000000; stroke-width: 0.8; stroke-linejoin: miter; stroke-linecap: square"/>
   </g>
   <g id="patch_6">
    <path d="M 62.84 26.88 
L 349.2 26.88 
" style="fill: none; stroke: #000000; stroke-width: 0.8; stroke-linejoin: miter; stroke-linecap: square"/>
   </g>
   <g id="text_11">
    <!-- Band 1250 -->
    <g transform="translate(173.438125 20.88) scale(0.12 -0.12)">
     <defs>
      <path id="DejaVuSans-42" d="M 1259 2228 
L 1259 519 
L 2272 519 
Q 2781 519 3026 730 
Q 3272 941 3272 1375 
Q 3272 1813 3026 2020 
Q 2781 2228 2272 2228 
L 1259 2228 
z
M 1259 4147 
L 1259 2741 
L 2194 2741 
Q 2656 2741 2882 2914 
Q 3109 3088 3109 3444 
Q 3109 3797 2882 3972 
Q 2656 4147 2194 4147 
L 1259 4147 
z
M 628 4666 
L 2241 4666 
Q 2963 4666 3353 4366 
Q 3744 4066 3744 3513 
Q 3744 3084 3544 2831 
Q 3344 2578 2956 2516 
Q 3422 2416 3680 2098 
Q 3938 1781 3938 1306 
Q 3938 681 3513 340 
Q 3088 0 2303 0 
L 628 0 
L 628 4666 
z
" transform="scale(0.015625)"/>
      <path id="DejaVuSans-61" d="M 2194 1759 
Q 1497 1759 1228 1600 
Q 959 1441 959 1056 
Q 959 750 1161 570 
Q 1363 391 1709 391 
Q 2188 391 2477 730 
Q 2766 1069 2766 1631 
L 2766 1759 
L 2194 1759 
z
M 3341 1997 
L 3341 0 
L 2766 0 
L 2766 531 
Q 2569 213 2275 61 
Q 1981 -91 1556 -91 
Q 1019 -91 701 211 
Q 384 513 384 1019 
Q 384 1609 779 1909 
Q 1175 2209 1959 2209 
L 2766 2209 
L 2766 2266 
Q 2766 2663 2505 2880 
Q 2244 3097 1772 3097 
Q 1472 3097 1187 3025 
Q 903 2953 641 2809 
L 641 3341 
Q 956 3463 1253 3523 
Q 1550 3584 1831 3584 
Q 2591 3584 2966 3190 
Q 3341 2797 3341 1997 
z
" transform="scale(0.015625)"/>
      <path id="DejaVuSans-6e" d="M 3513 2113 
L 3513 0 
L 2938 0 
L 2938 2094 
Q 2938 2591 2744 2837 
Q 2550 3084 2163 3084 
Q 1697 3084 1428 2787 
Q 1159 2491 1159 1978 
L 1159 0 
L 581 0 
L 581 3500 
L 1159 3500 
L 1159 2956 
Q 1366 3272 1645 3428 
Q 1925 3584 2291 3584 
Q 2894 3584 3203 3211 
Q 3513 2838 3513 2113 
z
" transform="scale(0.015625)"/>
      <path id="DejaVuSans-64" d="M 2906 2969 
L 2906 4863 
L 3481 4863 
L 3481 0 
L 2906 0 
L 2906 525 
Q 2725 213 2448 61 
Q 2172 -91 1784 -91 
Q 1150 -91 751 415 
Q 353 922 353 1747 
Q 353 2572 751 3078 
Q 1150 3584 1784 3584 
Q 2172 3584 2448 3432 
Q 2725 3281 2906 2969 
z
M 947 1747 
Q 947 1113 1208 752 
Q 1469 391 1925 391 
Q 2381 391 2643 752 
Q 2906 1113 2906 1747 
Q 2906 2381 2643 2742 
Q 2381 3103 1925 3103 
Q 1469 3103 1208 2742 
Q 947 2381 947 1747 
z
" transform="scale(0.015625)"/>
      <path id="DejaVuSans-20" transform="scale(0.015625)"/>
      <path id="DejaVuSans-31" d="M 794 531 
L 1825 531 
L 1825 4091 
L 703 3866 
L 703 4441 
L 1819 4666 
L 2450 4666 
L 2450 531 
L 3481 531 
L 3481 0 
L 794 0 
L 794 531 
z
" transform="scale(0.015625)"/>
     </defs>
     <use xlink:href="#DejaVuSans-42"/>
     <use xlink:href="#DejaVuSans-61" transform="translate(68.603516 0)"/>
     <use xlink:href="#DejaVuSans-6e" transform="translate(129.882812 0)"/>
     <use xlink:href="#DejaVuSans-64" transform="translate(193.261719 0)"/>
     <use xlink:href="#DejaVuSans-20" transform="translate(256.738281 0)"/>
     <use xlink:href="#DejaVuSans-31" transform="translate(288.525391 0)"/>
     <use xlink:href="#DejaVuSans-32" transform="translate(352.148438 0)"/>
     <use xlink:href="#DejaVuSans-35" transform="translate(415.771484 0)"/>
     <use xlink:href="#DejaVuSans-30" transform="translate(479.394531 0)"/>
    </g>
   </g>
   <g id="text_12">
    <g clip-path="url(#p748316f6a6)">
     <!-- 61.0 -->
     <g transform="translate(322.051867 123.573987) rotate(-270.067847) scale(0.09 -0.09)">
      <defs>
       <path id="DejaVuSans-36" d="M 2113 2584 
Q 1688 2584 1439 2293 
Q 1191 2003 1191 1497 
Q 1191 994 1439 701 
Q 1688 409 2113 409 
Q 2538 409 2786 701 
Q 3034 994 3034 1497 
Q 3034 2003 2786 2293 
Q 2538 2584 2113 2584 
z
M 3366 4563 
L 3366 3988 
Q 3128 4100 2886 4159 
Q 2644 4219 2406 4219 
Q 1781 4219 1451 3797 
Q 1122 3375 1075 2522 
Q 1259 2794 1537 2939 
Q 1816 3084 2150 3084 
Q 2853 3084 3261 2657 
Q 3669 2231 3669 1497 
Q 3669 778 3244 343 
Q 2819 -91 2113 -91 
Q 1303 -91 875 529 
Q 447 1150 447 2328 
Q 447 3434 972 4092 
Q 1497 4750 2381 4750 
Q 2619 4750 2861 4703 
Q 3103 4656 3366 4563 
z
" transform="scale(0.015625)"/>
       <path id="DejaVuSans-2e" d="M 684 794 
L 1344 794 
L 1344 0 
L 684 0 
L 684 794 
z
" transform="scale(0.015625)"/>
      </defs>
      <use xlink:href="#DejaVuSans-36"/>
      <use xlink:href="#DejaVuSans-31" transform="translate(63.623047 0)"/>
      <use xlink:href="#DejaVuSans-2e" transform="translate(127.246094 0)"/>
      <use xlink:href="#DejaVuSans-30" transform="translate(159.033203 0)"/>
     </g>
    </g>
   </g>
   <g id="text_13">
    <g clip-path="url(#p748316f6a6)">
     <!-- 61.0 -->
     <g transform="translate(89.88057 143.615625) rotate(-89.871992) scale(0.09 -0.09)">
      <use xlink:href="#DejaVuSans-36"/>
      <use xlink:href="#DejaVuSans-31" transform="translate(63.623047 0)"/>
      <use xlink:href="#DejaVuSans-2e" transform="translate(127.246094 0)"/>
      <use xlink:href="#DejaVuSans-30" transform="translate(159.033203 0)"/>
     </g>
    </g>
   </g>
   <g id="text_14">
    <g clip-path="url(#p748316f6a6)">
     <!-- 62.0 -->
     <g transform="translate(319.509533 123.583428) rotate(-270.282994) scale(0.09 -0.09)">
      <use xlink:href="#DejaVuSans-36"/>
      <use xlink:href="#DejaVuSans-32" transform="translate(63.623047 0)"/>
      <use xlink:href="#DejaVuSans-2e" transform="translate(127.246094 0)"/>
      <use xlink:href="#DejaVuSans-30" transform="translate(159.033203 0)"/>
     </g>
    </g>
   </g>
   <g id="text_15">
    <g clip-path="url(#p748316f6a6)">
     <!-- 62.0 -->
     <g transform="translate(92.08162 143.632815) rotate(-89.465932) scale(0.09 -0.09)">
      <use xlink:href="#DejaVuSans-36"/>
      <use xlink:href="#DejaVuSans-32" transform="translate(63.623047 0)"/>
      <use xlink:href="#DejaVuSans-2e" transform="translate(127.246094 0)"/>
      <use xlink:href="#DejaVuSans-30" transform="translate(159.033203 0)"/>
     </g>
    </g>
   </g>
   <g id="text_16">
    <g clip-path="url(#p748316f6a6)">
     <!-- 63.0 -->
     <g transform="translate(316.9673 123.592993) rotate(-270.497765) scale(0.09 -0.09)">
      <defs>
       <path id="DejaVuSans-33" d="M 2597 2516 
Q 3050 2419 3304 2112 
Q 3559 1806 3559 1356 
Q 3559 666 3084 287 
Q 2609 -91 1734 -91 
Q 1441 -91 1130 -33 
Q 819 25 488 141 
L 488 750 
Q 750 597 1062 519 
Q 1375 441 1716 441 
Q 2309 441 2620 675 
Q 2931 909 2931 1356 
Q 2931 1769 2642 2001 
Q 2353 2234 1838 2234 
L 1294 2234 
L 1294 2753 
L 1863 2753 
Q 2328 2753 2575 2939 
Q 2822 3125 2822 3475 
Q 2822 3834 2567 4026 
Q 2313 4219 1838 4219 
Q 1578 4219 1281 4162 
Q 984 4106 628 3988 
L 628 4550 
Q 988 4650 1302 4700 
Q 1616 4750 1894 4750 
Q 2613 4750 3031 4423 
Q 3450 4097 3450 3541 
Q 3450 3153 3228 2886 
Q 3006 2619 2597 2516 
z
" transform="scale(0.015625)"/>
      </defs>
      <use xlink:href="#DejaVuSans-36"/>
      <use xlink:href="#DejaVuSans-33" transform="translate(63.623047 0)"/>
      <use xlink:href="#DejaVuSans-2e" transform="translate(127.246094 0)"/>
      <use xlink:href="#DejaVuSans-30" transform="translate(159.033203 0)"/>
     </g>
    </g>
   </g>
   <g id="text_17">
    <g clip-path="url(#p748316f6a6)">
     <!-- 63.0 -->
     <g transform="translate(94.282585 143.649492) rotate(-89.060071) scale(0.09 -0.09)">
      <use xlink:href="#DejaVuSans-36"/>
      <use xlink:href="#DejaVuSans-33" transform="translate(63.623047 0)"/>
      <use xlink:href="#DejaVuSans-2e" transform="translate(127.246094 0)"/>
      <use xlink:href="#DejaVuSans-30" transform="translate(159.033203 0)"/>
     </g>
    </g>
   </g>
   <g id="text_18">
    <g clip-path="url(#p748316f6a6)">
     <!-- 64.0 -->
     <g transform="translate(314.425219 123.602668) rotate(-270.711876) scale(0.09 -0.09)">
      <use xlink:href="#DejaVuSans-36"/>
      <use xlink:href="#DejaVuSans-34" transform="translate(63.623047 0)"/>
      <use xlink:href="#DejaVuSans-2e" transform="translate(127.246094 0)"/>
      <use xlink:href="#DejaVuSans-30" transform="translate(159.033203 0)"/>
     </g>
    </g>
   </g>
   <g id="text_19">
    <g clip-path="url(#p748316f6a6)">
     <!-- 64.0 -->
     <g transform="translate(96.483495 143.665651) rotate(-88.654561) scale(0.09 -0.09)">
      <use xlink:href="#DejaVuSans-36"/>
      <use xlink:href="#DejaVuSans-34" transform="translate(63.623047 0)"/>
      <use xlink:href="#DejaVuSans-2e" transform="translate(127.246094 0)"/>
      <use xlink:href="#DejaVuSans-30" transform="translate(159.033203 0)"/>
     </g>
    </g>
   </g>
   <g id="text_20">
    <g clip-path="url(#p748316f6a6)">
     <!-- 65.0 -->
     <g transform="translate(311.883338 123.612439) rotate(-270.925047) scale(0.09 -0.09)">
      <use xlink:href="#DejaVuSans-36"/>
      <use xlink:href="#DejaVuSans-35" transform="translate(63.623047 0)"/>
      <use xlink:href="#DejaVuSans-2e" transform="translate(127.246094 0)"/>
      <use xlink:href="#DejaVuSans-30" transform="translate(159.033203 0)"/>
     </g>
    </g>
   </g>
   <g id="text_21">
    <g clip-path="url(#p748316f6a6)">
     <!-- 65.0 -->
     <g transform="translate(98.684381 143.681286) rotate(-88.249552) scale(0.09 -0.09)">
      <use xlink:href="#DejaVuSans-36"/>
      <use xlink:href="#DejaVuSans-35" transform="translate(63.623047 0)"/>
      <use xlink:href="#DejaVuSans-2e" transform="translate(127.246094 0)"/>
      <use xlink:href="#DejaVuSans-30" transform="translate(159.033203 0)"/>
     </g>
    </g>
   </g>
   <g id="text_22">
    <g clip-path="url(#p748316f6a6)">
     <!-- 66.0 -->
     <g transform="translate(309.341705 123.622291) rotate(-271.137001) scale(0.09 -0.09)">
      <use xlink:href="#DejaVuSans-36"/>
      <use xlink:href="#DejaVuSans-36" transform="translate(63.623047 0)"/>
      <use xlink:href="#DejaVuSans-2e" transform="translate(127.246094 0)"/>
      <use xlink:href="#DejaVuSans-30" transform="translate(159.033203 0)"/>
     </g>
    </g>
   </g>
   <g id="text_23">
    <g clip-path="url(#p748316f6a6)">
     <!-- 66.0 -->
     <g transform="translate(100.885273 143.696393) rotate(-87.845192) scale(0.09 -0.09)">
      <use xlink:href="#DejaVuSans-36"/>
      <use xlink:href="#DejaVuSans-36" transform="translate(63.623047 0)"/>
      <use xlink:href="#DejaVuSans-2e" transform="translate(127.246094 0)"/>
      <use xlink:href="#DejaVuSans-30" transform="translate(159.033203 0)"/>
     </g>
    </g>
   </g>
   <g id="text_24">
    <g clip-path="url(#p748316f6a6)">
     <!-- 67.0 -->
     <g transform="translate(306.800367 123.63221) rotate(-271.347467) scale(0.09 -0.09)">
      <defs>
       <path id="DejaVuSans-37" d="M 525 4666 
L 3525 4666 
L 3525 4397 
L 1831 0 
L 1172 0 
L 2766 4134 
L 525 4134 
L 525 4666 
z
" transform="scale(0.015625)"/>
      </defs>
      <use xlink:href="#DejaVuSans-36"/>
      <use xlink:href="#DejaVuSans-37" transform="translate(63.623047 0)"/>
      <use xlink:href="#DejaVuSans-2e" transform="translate(127.246094 0)"/>
      <use xlink:href="#DejaVuSans-30" transform="translate(159.033203 0)"/>
     </g>
    </g>
   </g>
   <g id="text_25">
    <g clip-path="url(#p748316f6a6)">
     <!-- 67.0 -->
     <g transform="translate(98.252056 103.215709) rotate(-272.09276) scale(0.09 -0.09)">
      <use xlink:href="#DejaVuSans-36"/>
      <use xlink:href="#DejaVuSans-37" transform="translate(63.623047 0)"/>
      <use xlink:href="#DejaVuSans-2e" transform="translate(127.246094 0)"/>
      <use xlink:href="#DejaVuSans-30" transform="translate(159.033203 0)"/>
     </g>
    </g>
   </g>
   <g id="text_26">
    <g clip-path="url(#p748316f6a6)">
     <!-- 68.0 -->
     <g transform="translate(304.25937 123.642178) rotate(-271.556182) scale(0.09 -0.09)">
      <defs>
       <path id="DejaVuSans-38" d="M 2034 2216 
Q 1584 2216 1326 1975 
Q 1069 1734 1069 1313 
Q 1069 891 1326 650 
Q 1584 409 2034 409 
Q 2484 409 2743 651 
Q 3003 894 3003 1313 
Q 3003 1734 2745 1975 
Q 2488 2216 2034 2216 
z
M 1403 2484 
Q 997 2584 770 2862 
Q 544 3141 544 3541 
Q 544 4100 942 4425 
Q 1341 4750 2034 4750 
Q 2731 4750 3128 4425 
Q 3525 4100 3525 3541 
Q 3525 3141 3298 2862 
Q 3072 2584 2669 2484 
Q 3125 2378 3379 2068 
Q 3634 1759 3634 1313 
Q 3634 634 3220 271 
Q 2806 -91 2034 -91 
Q 1263 -91 848 271 
Q 434 634 434 1313 
Q 434 1759 690 2068 
Q 947 2378 1403 2484 
z
M 1172 3481 
Q 1172 3119 1398 2916 
Q 1625 2713 2034 2713 
Q 2441 2713 2670 2916 
Q 2900 3119 2900 3481 
Q 2900 3844 2670 4047 
Q 2441 4250 2034 4250 
Q 1625 4250 1398 4047 
Q 1172 3844 1172 3481 
z
" transform="scale(0.015625)"/>
      </defs>
      <use xlink:href="#DejaVuSans-36"/>
      <use xlink:href="#DejaVuSans-38" transform="translate(63.623047 0)"/>
      <use xlink:href="#DejaVuSans-2e" transform="translate(127.246094 0)"/>
      <use xlink:href="#DejaVuSans-30" transform="translate(159.033203 0)"/>
     </g>
    </g>
   </g>
   <g id="text_27">
    <g clip-path="url(#p748316f6a6)">
     <!-- 68.0 -->
     <g transform="translate(100.474634 103.232264) rotate(-272.42254) scale(0.09 -0.09)">
      <use xlink:href="#DejaVuSans-36"/>
      <use xlink:href="#DejaVuSans-38" transform="translate(63.623047 0)"/>
      <use xlink:href="#DejaVuSans-2e" transform="translate(127.246094 0)"/>
      <use xlink:href="#DejaVuSans-30" transform="translate(159.033203 0)"/>
     </g>
    </g>
   </g>
   <g id="text_28">
    <g clip-path="url(#p748316f6a6)">
     <!-- 69.0 -->
     <g transform="translate(307.990008 123.352456) rotate(-84.379486) scale(0.09 -0.09)">
      <defs>
       <path id="DejaVuSans-39" d="M 703 97 
L 703 672 
Q 941 559 1184 500 
Q 1428 441 1663 441 
Q 2288 441 2617 861 
Q 2947 1281 2994 2138 
Q 2813 1869 2534 1725 
Q 2256 1581 1919 1581 
Q 1219 1581 811 2004 
Q 403 2428 403 3163 
Q 403 3881 828 4315 
Q 1253 4750 1959 4750 
Q 2769 4750 3195 4129 
Q 3622 3509 3622 2328 
Q 3622 1225 3098 567 
Q 2575 -91 1691 -91 
Q 1453 -91 1209 -44 
Q 966 3 703 97 
z
M 1959 2075 
Q 2384 2075 2632 2365 
Q 2881 2656 2881 3163 
Q 2881 3666 2632 3958 
Q 2384 4250 1959 4250 
Q 1534 4250 1286 3958 
Q 1038 3666 1038 3163 
Q 1038 2656 1286 2365 
Q 1534 2075 1959 2075 
z
" transform="scale(0.015625)"/>
      </defs>
      <use xlink:href="#DejaVuSans-36"/>
      <use xlink:href="#DejaVuSans-39" transform="translate(63.623047 0)"/>
      <use xlink:href="#DejaVuSans-2e" transform="translate(127.246094 0)"/>
      <use xlink:href="#DejaVuSans-30" transform="translate(159.033203 0)"/>
     </g>
    </g>
   </g>
   <g id="text_29">
    <g clip-path="url(#p748316f6a6)">
     <!-- 69.0 -->
     <g transform="translate(102.69743 103.249111) rotate(-272.751618) scale(0.09 -0.09)">
      <use xlink:href="#DejaVuSans-36"/>
      <use xlink:href="#DejaVuSans-39" transform="translate(63.623047 0)"/>
      <use xlink:href="#DejaVuSans-2e" transform="translate(127.246094 0)"/>
      <use xlink:href="#DejaVuSans-30" transform="translate(159.033203 0)"/>
     </g>
    </g>
   </g>
   <g id="text_30">
    <g clip-path="url(#p748316f6a6)">
     <!-- 69.0 -->
     <g transform="translate(148.753005 241.825177) rotate(-8.530124) scale(0.09 -0.09)">
      <use xlink:href="#DejaVuSans-36"/>
      <use xlink:href="#DejaVuSans-39" transform="translate(63.623047 0)"/>
      <use xlink:href="#DejaVuSans-2e" transform="translate(127.246094 0)"/>
      <use xlink:href="#DejaVuSans-30" transform="translate(159.033203 0)"/>
     </g>
    </g>
   </g>
   <g id="text_31">
    <g clip-path="url(#p748316f6a6)">
     <!-- 70.0 -->
     <g transform="translate(297.948403 67.287791) rotate(-286.405324) scale(0.09 -0.09)">
      <use xlink:href="#DejaVuSans-37"/>
      <use xlink:href="#DejaVuSans-30" transform="translate(63.623047 0)"/>
      <use xlink:href="#DejaVuSans-2e" transform="translate(127.246094 0)"/>
      <use xlink:href="#DejaVuSans-30" transform="translate(159.033203 0)"/>
     </g>
    </g>
   </g>
   <g id="text_32">
    <g clip-path="url(#p748316f6a6)">
     <!-- 70.0 -->
     <g transform="translate(104.92046 103.266242) rotate(-273.079902) scale(0.09 -0.09)">
      <use xlink:href="#DejaVuSans-37"/>
      <use xlink:href="#DejaVuSans-30" transform="translate(63.623047 0)"/>
      <use xlink:href="#DejaVuSans-2e" transform="translate(127.246094 0)"/>
      <use xlink:href="#DejaVuSans-30" transform="translate(159.033203 0)"/>
     </g>
    </g>
   </g>
   <g id="text_33">
    <g clip-path="url(#p748316f6a6)">
     <!-- 70.0 -->
     <g transform="translate(167.884673 227.483994) rotate(-36.243339) scale(0.09 -0.09)">
      <use xlink:href="#DejaVuSans-37"/>
      <use xlink:href="#DejaVuSans-30" transform="translate(63.623047 0)"/>
      <use xlink:href="#DejaVuSans-2e" transform="translate(127.246094 0)"/>
      <use xlink:href="#DejaVuSans-30" transform="translate(159.033203 0)"/>
     </g>
    </g>
   </g>
   <g id="text_34">
    <g clip-path="url(#p748316f6a6)">
     <!-- 70.0 -->
     <g transform="translate(220.417485 216.71636) rotate(-9.589011) scale(0.09 -0.09)">
      <use xlink:href="#DejaVuSans-37"/>
      <use xlink:href="#DejaVuSans-30" transform="translate(63.623047 0)"/>
      <use xlink:href="#DejaVuSans-2e" transform="translate(127.246094 0)"/>
      <use xlink:href="#DejaVuSans-30" transform="translate(159.033203 0)"/>
     </g>
    </g>
   </g>
   <g id="text_35">
    <g clip-path="url(#p748316f6a6)">
     <!-- 71.0 -->
     <g transform="translate(195.816956 45.63156) rotate(-354.812127) scale(0.09 -0.09)">
      <use xlink:href="#DejaVuSans-37"/>
      <use xlink:href="#DejaVuSans-31" transform="translate(63.623047 0)"/>
      <use xlink:href="#DejaVuSans-2e" transform="translate(127.246094 0)"/>
      <use xlink:href="#DejaVuSans-30" transform="translate(159.033203 0)"/>
     </g>
    </g>
   </g>
   <g id="text_36">
    <g clip-path="url(#p748316f6a6)">
     <!-- 71.0 -->
     <g transform="translate(108.975107 201.129923) rotate(-85.832351) scale(0.09 -0.09)">
      <use xlink:href="#DejaVuSans-37"/>
      <use xlink:href="#DejaVuSans-31" transform="translate(63.623047 0)"/>
      <use xlink:href="#DejaVuSans-2e" transform="translate(127.246094 0)"/>
      <use xlink:href="#DejaVuSans-30" transform="translate(159.033203 0)"/>
     </g>
    </g>
   </g>
   <g id="text_37">
    <g clip-path="url(#p748316f6a6)">
     <!-- 72.0 -->
     <g transform="translate(107.158542 158.082733) rotate(-275.357582) scale(0.09 -0.09)">
      <use xlink:href="#DejaVuSans-37"/>
      <use xlink:href="#DejaVuSans-32" transform="translate(63.623047 0)"/>
      <use xlink:href="#DejaVuSans-2e" transform="translate(127.246094 0)"/>
      <use xlink:href="#DejaVuSans-30" transform="translate(159.033203 0)"/>
     </g>
    </g>
   </g>
   <g id="text_38">
    <g clip-path="url(#p748316f6a6)">
     <!-- 73.0 -->
     <g transform="translate(267.425281 68.494753) rotate(-355.458337) scale(0.09 -0.09)">
      <use xlink:href="#DejaVuSans-37"/>
      <use xlink:href="#DejaVuSans-33" transform="translate(63.623047 0)"/>
      <use xlink:href="#DejaVuSans-2e" transform="translate(127.246094 0)"/>
      <use xlink:href="#DejaVuSans-30" transform="translate(159.033203 0)"/>
     </g>
    </g>
   </g>
   <g id="text_39">
    <g clip-path="url(#p748316f6a6)">
     <!-- 73.0 -->
     <g transform="translate(195.878467 139.199693) rotate(-356.829942) scale(0.09 -0.09)">
      <use xlink:href="#DejaVuSans-37"/>
      <use xlink:href="#DejaVuSans-33" transform="translate(63.623047 0)"/>
      <use xlink:href="#DejaVuSans-2e" transform="translate(127.246094 0)"/>
      <use xlink:href="#DejaVuSans-30" transform="translate(159.033203 0)"/>
     </g>
    </g>
   </g>
   <g id="text_40">
    <g clip-path="url(#p748316f6a6)">
     <!-- 74.0 -->
     <g transform="translate(281.729075 84.054599) rotate(-276.027) scale(0.09 -0.09)">
      <use xlink:href="#DejaVuSans-37"/>
      <use xlink:href="#DejaVuSans-34" transform="translate(63.623047 0)"/>
      <use xlink:href="#DejaVuSans-2e" transform="translate(127.246094 0)"/>
      <use xlink:href="#DejaVuSans-30" transform="translate(159.033203 0)"/>
     </g>
    </g>
   </g>
   <g id="text_41">
    <g clip-path="url(#p748316f6a6)">
     <!-- 74.0 -->
     <g transform="translate(195.842464 149.07503) rotate(-355.699892) scale(0.09 -0.09)">
      <use xlink:href="#DejaVuSans-37"/>
      <use xlink:href="#DejaVuSans-34" transform="translate(63.623047 0)"/>
      <use xlink:href="#DejaVuSans-2e" transform="translate(127.246094 0)"/>
      <use xlink:href="#DejaVuSans-30" transform="translate(159.033203 0)"/>
     </g>
    </g>
   </g>
   <g id="text_42">
    <g clip-path="url(#p748316f6a6)">
     <!-- 75.0 -->
     <g transform="translate(170.700077 182.342074) rotate(-46.161586) scale(0.09 -0.09)">
      <use xlink:href="#DejaVuSans-37"/>
      <use xlink:href="#DejaVuSans-35" transform="translate(63.623047 0)"/>
      <use xlink:href="#DejaVuSans-2e" transform="translate(127.246094 0)"/>
      <use xlink:href="#DejaVuSans-30" transform="translate(159.033203 0)"/>
     </g>
    </g>
   </g>
   <g id="text_43">
    <g clip-path="url(#p748316f6a6)">
     <!-- 75.0 -->
     <g transform="translate(256.278659 178.400211) rotate(-15.083861) scale(0.09 -0.09)">
      <use xlink:href="#DejaVuSans-37"/>
      <use xlink:href="#DejaVuSans-35" transform="translate(63.623047 0)"/>
      <use xlink:href="#DejaVuSans-2e" transform="translate(127.246094 0)"/>
      <use xlink:href="#DejaVuSans-30" transform="translate(159.033203 0)"/>
     </g>
    </g>
   </g>
   <g id="text_44">
    <g clip-path="url(#p748316f6a6)">
     <!-- 76.0 -->
     <g transform="translate(160.900115 182.393103) rotate(-46.734465) scale(0.09 -0.09)">
      <use xlink:href="#DejaVuSans-37"/>
      <use xlink:href="#DejaVuSans-36" transform="translate(63.623047 0)"/>
      <use xlink:href="#DejaVuSans-2e" transform="translate(127.246094 0)"/>
      <use xlink:href="#DejaVuSans-30" transform="translate(159.033203 0)"/>
     </g>
    </g>
   </g>
   <g id="text_45">
    <g clip-path="url(#p748316f6a6)">
     <!-- 76.0 -->
     <g transform="translate(270.101239 169.733492) rotate(-29.410224) scale(0.09 -0.09)">
      <use xlink:href="#DejaVuSans-37"/>
      <use xlink:href="#DejaVuSans-36" transform="translate(63.623047 0)"/>
      <use xlink:href="#DejaVuSans-2e" transform="translate(127.246094 0)"/>
      <use xlink:href="#DejaVuSans-30" transform="translate(159.033203 0)"/>
     </g>
    </g>
   </g>
   <g id="text_46">
    <g clip-path="url(#p748316f6a6)">
     <!-- 77.0 -->
     <g transform="translate(148.97917 173.769736) rotate(-11.617481) scale(0.09 -0.09)">
      <use xlink:href="#DejaVuSans-37"/>
      <use xlink:href="#DejaVuSans-37" transform="translate(63.623047 0)"/>
      <use xlink:href="#DejaVuSans-2e" transform="translate(127.246094 0)"/>
      <use xlink:href="#DejaVuSans-30" transform="translate(159.033203 0)"/>
     </g>
    </g>
   </g>
  </g>
 </g>
 <defs>
  <clipPath id="p748316f6a6">
   <rect x="62.84" y="26.88" width="286.36" height="213.4"/>
  </clipPath>
 </defs>
</svg>
