<?xml version="1.0" encoding="utf-8" standalone="no"?>
<!DOCTYPE svg PUBLIC "-//W3C//DTD SVG 1.1//EN"
  "http://www.w3.org/Graphics/SVG/1.1/DTD/svg11.dtd">
<svg xmlns:xlink="http://www.w3.org/1999/xlink" width="360pt" height="288pt" viewBox="0 0 360 288" xmlns="http://www.w3.org/2000/svg" version="1.1">
 <metadata>
  <rdf:RDF xmlns:dc="http://purl.org/dc/elements/1.1/" xmlns:cc="http://creativecommons.org/ns#" xmlns:rdf="http://www.w3.org/1999/02/22-rdf-syntax-ns#">
   <cc:Work>
    <dc:type rdf:resource="http://purl.org/dc/dcmitype/StillImage"/>
    <dc:date>2025-10-02T17:14:38.271417</dc:date>
    <dc:format>image/svg+xml</dc:format>
    <dc:creator>
     <cc:Agent>
      <dc:title>Matplotlib v3.10.6, https://matplotlib.org/</dc:title>
     </cc:Agent>
    </dc:creator>
   </cc:Work>
  </rdf:RDF>
 </metadata>
 <defs>
  <style type="text/css">*{stroke-linejoin: round; stroke-linecap: butt}</style>
 </defs>
 <g id="figure_1">
  <g id="patch_1">
   <path d="M 0 288 
L 360 288 
L 360 0 
L 0 0 
z
" style="fill: #ffffff"/>
  </g>
  <g id="axes_1">
   <g id="patch_2">
    <path d="M 62.84 240.28 
L 349.2 240.28 
L 349.2 26.88 
L 62.84 26.88 
z
" style="fill: #ffffff"/>
   </g>
   <g id="QuadContourSet_1">
    <path d="M 86.703333 26.88 
L 86.852029 26.88 
L 86.836803 36.380776 
L 86.814925 47.600163 
L 86.819023 60.808896 
L 86.797893 76.198006 
L 86.79123 93.757994 
L 86.776997 113.137869 
L 86.771296 133.590571 
L 86.772351 154.013971 
L 86.777308 173.39493 
L 86.781223 190.956403 
L 86.774883 206.347113 
L 86.791139 219.557363 
L 86.808859 230.778089 
L 86.815049 240.28 
L 86.703333 240.28 
L 62.84 240.28 
L 62.84 230.778089 
L 62.84 219.557363 
L 62.84 206.347113 
L 62.84 190.956403 
L 62.84 173.39493 
L 62.84 154.013971 
L 62.84 133.590571 
L 62.84 113.137869 
L 62.84 93.757994 
L 62.84 76.198006 
L 62.84 60.808896 
L 62.84 47.600163 
L 62.84 36.380776 
L 62.84 26.88 
z
M 325.336667 26.88 
L 349.2 26.88 
L 349.2 36.380776 
L 349.2 47.600163 
L 349.2 60.808896 
L 349.2 76.198006 
L 349.2 93.757994 
L 349.2 113.137869 
L 349.2 133.590571 
L 349.2 154.013971 
L 349.2 173.39493 
L 349.2 190.956403 
L 349.2 206.347113 
L 349.2 219.557363 
L 349.2 230.778089 
L 349.2 240.28 
L 325.336667 240.28 
L 325.232198 240.28 
L 325.234113 230.778089 
L 325.247063 219.557363 
L 325.261978 206.347113 
L 325.260315 190.956403 
L 325.270495 173.39493 
L 325.272108 154.013971 
L 325.267672 133.590571 
L 325.264433 113.137869 
L 325.264418 93.757994 
L 325.252305 76.198006 
L 325.248547 60.808896 
L 325.230051 47.600163 
L 325.198684 36.380776 
L 325.209596 26.88 
z
" clip-path="url(#pb8649da51a)" style="fill: #46085c"/>
    <path d="M 89.692779 36.380776 
L 89.20276 47.600163 
L 89.294543 60.808896 
L 88.821265 76.198006 
L 88.672039 93.757994 
L 88.353246 113.137869 
L 88.225548 133.590571 
L 88.249175 154.013971 
L 88.360208 173.39493 
L 88.447905 190.956403 
L 88.305898 206.347113 
L 88.669995 219.557363 
L 89.06689 230.778089 
L 89.20553 240.28 
L 86.815049 240.28 
L 86.808859 230.778089 
L 86.791139 219.557363 
L 86.774883 206.347113 
L 86.781223 190.956403 
L 86.777308 173.39493 
L 86.772351 154.013971 
L 86.771296 133.590571 
L 86.776997 113.137869 
L 86.79123 93.757994 
L 86.797893 76.198006 
L 86.819023 60.808896 
L 86.814925 47.600163 
L 86.836803 36.380776 
L 86.852029 26.88 
L 90.033807 26.88 
z
M 325.198684 36.380776 
L 325.230051 47.600163 
L 325.248547 60.808896 
L 325.252305 76.198006 
L 325.264418 93.757994 
L 325.264433 113.137869 
L 325.267672 133.590571 
L 325.272108 154.013971 
L 325.270495 173.39493 
L 325.260315 190.956403 
L 325.261978 206.347113 
L 325.247063 219.557363 
L 325.234113 230.778089 
L 325.232198 240.28 
L 322.996787 240.28 
L 323.039684 230.778089 
L 323.329725 219.557363 
L 323.66379 206.347113 
L 323.626541 190.956403 
L 323.85456 173.39493 
L 323.890686 154.013971 
L 323.791335 133.590571 
L 323.718791 113.137869 
L 323.718453 93.757994 
L 323.447145 76.198006 
L 323.36298 60.808896 
L 322.948702 47.600163 
L 322.246141 36.380776 
L 322.490542 26.88 
L 325.209596 26.88 
z
" clip-path="url(#pb8649da51a)" style="fill: #481a6c"/>
    <path d="M 92.548755 36.380776 
L 91.590595 47.600163 
L 91.770064 60.808896 
L 90.844637 76.198006 
L 90.552848 93.757994 
L 89.929495 113.137869 
L 89.6798 133.590571 
L 89.725999 154.013971 
L 89.943108 173.39493 
L 90.114586 190.956403 
L 89.836913 206.347113 
L 90.54885 219.557363 
L 91.32492 230.778089 
L 91.59601 240.28 
L 89.20553 240.28 
L 89.06689 230.778089 
L 88.669995 219.557363 
L 88.305898 206.347113 
L 88.447905 190.956403 
L 88.360208 173.39493 
L 88.249175 154.013971 
L 88.225548 133.590571 
L 88.353246 113.137869 
L 88.672039 93.757994 
L 88.821265 76.198006 
L 89.294543 60.808896 
L 89.20276 47.600163 
L 89.692779 36.380776 
L 90.033807 26.88 
L 93.215585 26.88 
z
M 322.246141 36.380776 
L 322.948702 47.600163 
L 323.36298 60.808896 
L 323.447145 76.198006 
L 323.718453 93.757994 
L 323.718791 113.137869 
L 323.791335 133.590571 
L 323.890686 154.013971 
L 323.85456 173.39493 
L 323.626541 190.956403 
L 323.66379 206.347113 
L 323.329725 219.557363 
L 323.039684 230.778089 
L 322.996787 240.28 
L 320.761376 240.28 
L 320.845255 230.778089 
L 321.412388 219.557363 
L 322.065602 206.347113 
L 321.992768 190.956403 
L 322.438624 173.39493 
L 322.509264 154.013971 
L 322.314999 133.590571 
L 322.173149 113.137869 
L 322.172487 93.757994 
L 321.641985 76.198006 
L 321.477413 60.808896 
L 320.667354 47.600163 
L 319.293599 36.380776 
L 319.771489 26.88 
L 322.490542 26.88 
z
" clip-path="url(#pb8649da51a)" style="fill: #482979"/>
    <path d="M 95.404731 36.380776 
L 93.97843 47.600163 
L 94.245584 60.808896 
L 92.868009 76.198006 
L 92.433658 93.757994 
L 91.505743 113.137869 
L 91.134052 133.590571 
L 91.202824 154.013971 
L 91.526009 173.39493 
L 91.781267 190.956403 
L 91.367928 206.347113 
L 92.427706 219.557363 
L 93.58295 230.778089 
L 93.986491 240.28 
L 91.59601 240.28 
L 91.32492 230.778089 
L 90.54885 219.557363 
L 89.836913 206.347113 
L 90.114586 190.956403 
L 89.943108 173.39493 
L 89.725999 154.013971 
L 89.6798 133.590571 
L 89.929495 113.137869 
L 90.552848 93.757994 
L 90.844637 76.198006 
L 91.770064 60.808896 
L 91.590595 47.600163 
L 92.548755 36.380776 
L 93.215585 26.88 
L 96.397363 26.88 
z
M 319.293599 36.380776 
L 320.667354 47.600163 
L 321.477413 60.808896 
L 321.641985 76.198006 
L 322.172487 93.757994 
L 322.173149 113.137869 
L 322.314999 133.590571 
L 322.509264 154.013971 
L 322.438624 173.39493 
L 321.992768 190.956403 
L 322.065602 206.347113 
L 321.412388 219.557363 
L 320.845255 230.778089 
L 320.761376 240.28 
L 318.525965 240.28 
L 318.650825 230.778089 
L 319.495051 219.557363 
L 320.467413 206.347113 
L 320.358995 190.956403 
L 321.022689 173.39493 
L 321.127842 154.013971 
L 320.838662 133.590571 
L 320.627506 113.137869 
L 320.626522 93.757994 
L 319.836825 76.198006 
L 319.591845 60.808896 
L 318.386005 47.600163 
L 316.341057 36.380776 
L 317.052436 26.88 
L 319.771489 26.88 
z
" clip-path="url(#pb8649da51a)" style="fill: #453781"/>
    <path d="M 98.260707 36.380776 
L 96.366265 47.600163 
L 96.721104 60.808896 
L 94.89138 76.198006 
L 94.314467 93.757994 
L 93.081992 113.137869 
L 92.588304 133.590571 
L 92.679648 154.013971 
L 93.108909 173.39493 
L 93.447948 190.956403 
L 92.898943 206.347113 
L 94.306561 219.557363 
L 95.840981 230.778089 
L 96.376971 240.28 
L 93.986491 240.28 
L 93.58295 230.778089 
L 92.427706 219.557363 
L 91.367928 206.347113 
L 91.781267 190.956403 
L 91.526009 173.39493 
L 91.202824 154.013971 
L 91.134052 133.590571 
L 91.505743 113.137869 
L 92.433658 93.757994 
L 92.868009 76.198006 
L 94.245584 60.808896 
L 93.97843 47.600163 
L 95.404731 36.380776 
L 96.397363 26.88 
L 99.57914 26.88 
z
M 316.341057 36.380776 
L 318.386005 47.600163 
L 319.591845 60.808896 
L 319.836825 76.198006 
L 320.626522 93.757994 
L 320.627506 113.137869 
L 320.838662 133.590571 
L 321.127842 154.013971 
L 321.022689 173.39493 
L 320.358995 190.956403 
L 320.467413 206.347113 
L 319.495051 219.557363 
L 318.650825 230.778089 
L 318.525965 240.28 
L 316.290554 240.28 
L 316.456396 230.778089 
L 317.577714 219.557363 
L 318.869225 206.347113 
L 318.725222 190.956403 
L 319.606754 173.39493 
L 319.74642 154.013971 
L 319.362325 133.590571 
L 319.081864 113.137869 
L 319.080557 93.757994 
L 318.031665 76.198006 
L 317.706278 60.808896 
L 316.104657 47.600163 
L 313.388514 36.380776 
L 314.333383 26.88 
L 317.052436 26.88 
z
" clip-path="url(#pb8649da51a)" style="fill: #404588"/>
    <path d="M 101.116683 36.380776 
L 98.7541 47.600163 
L 99.196624 60.808896 
L 96.914752 76.198006 
L 96.195276 93.757994 
L 94.658241 113.137869 
L 94.042556 133.590571 
L 94.156472 154.013971 
L 94.691809 173.39493 
L 95.114629 190.956403 
L 94.429958 206.347113 
L 96.185417 219.557363 
L 98.099011 230.778089 
L 98.767451 240.28 
L 96.376971 240.28 
L 95.840981 230.778089 
L 94.306561 219.557363 
L 92.898943 206.347113 
L 93.447948 190.956403 
L 93.108909 173.39493 
L 92.679648 154.013971 
L 92.588304 133.590571 
L 93.081992 113.137869 
L 94.314467 93.757994 
L 94.89138 76.198006 
L 96.721104 60.808896 
L 96.366265 47.600163 
L 98.260707 36.380776 
L 99.57914 26.88 
L 102.760918 26.88 
z
M 313.388514 36.380776 
L 316.104657 47.600163 
L 317.706278 60.808896 
L 318.031665 76.198006 
L 319.080557 93.757994 
L 319.081864 113.137869 
L 319.362325 133.590571 
L 319.74642 154.013971 
L 319.606754 173.39493 
L 318.725222 190.956403 
L 318.869225 206.347113 
L 317.577714 219.557363 
L 316.456396 230.778089 
L 316.290554 240.28 
L 314.055143 240.28 
L 314.261967 230.778089 
L 315.660377 219.557363 
L 317.271037 206.347113 
L 317.091449 190.956403 
L 318.190818 173.39493 
L 318.364999 154.013971 
L 317.885988 133.590571 
L 317.536222 113.137869 
L 317.534591 93.757994 
L 316.226506 76.198006 
L 315.820711 60.808896 
L 313.823308 47.600163 
L 310.435972 36.380776 
L 311.61433 26.88 
L 314.333383 26.88 
z
" clip-path="url(#pb8649da51a)" style="fill: #3b528b"/>
    <path d="M 103.972659 36.380776 
L 101.141934 47.600163 
L 101.672144 60.808896 
L 98.938124 76.198006 
L 98.076085 93.757994 
L 96.23449 113.137869 
L 95.496808 133.590571 
L 95.633297 154.013971 
L 96.274709 173.39493 
L 96.78131 190.956403 
L 95.960973 206.347113 
L 98.064272 219.557363 
L 100.357041 230.778089 
L 101.157932 240.28 
L 98.767451 240.28 
L 98.099011 230.778089 
L 96.185417 219.557363 
L 94.429958 206.347113 
L 95.114629 190.956403 
L 94.691809 173.39493 
L 94.156472 154.013971 
L 94.042556 133.590571 
L 94.658241 113.137869 
L 96.195276 93.757994 
L 96.914752 76.198006 
L 99.196624 60.808896 
L 98.7541 47.600163 
L 101.116683 36.380776 
L 102.760918 26.88 
L 105.942696 26.88 
z
M 310.435972 36.380776 
L 313.823308 47.600163 
L 315.820711 60.808896 
L 316.226506 76.198006 
L 317.534591 93.757994 
L 317.536222 113.137869 
L 317.885988 133.590571 
L 318.364999 154.013971 
L 318.190818 173.39493 
L 317.091449 190.956403 
L 317.271037 206.347113 
L 315.660377 219.557363 
L 314.261967 230.778089 
L 314.055143 240.28 
L 311.819732 240.28 
L 312.067538 230.778089 
L 313.74304 219.557363 
L 315.672849 206.347113 
L 315.457676 190.956403 
L 316.774883 173.39493 
L 316.983577 154.013971 
L 316.409652 133.590571 
L 315.990579 113.137869 
L 315.988626 93.757994 
L 314.421346 76.198006 
L 313.935144 60.808896 
L 311.54196 47.600163 
L 307.483429 36.380776 
L 308.895277 26.88 
L 311.61433 26.88 
z
" clip-path="url(#pb8649da51a)" style="fill: #355e8d"/>
    <path d="M 106.828635 36.380776 
L 103.529769 47.600163 
L 104.147664 60.808896 
L 100.961496 76.198006 
L 99.956894 93.757994 
L 97.810738 113.137869 
L 96.95106 133.590571 
L 97.110121 154.013971 
L 97.85761 173.39493 
L 98.447991 190.956403 
L 97.491987 206.347113 
L 99.943128 219.557363 
L 102.615072 230.778089 
L 103.548412 240.28 
L 101.157932 240.28 
L 100.357041 230.778089 
L 98.064272 219.557363 
L 95.960973 206.347113 
L 96.78131 190.956403 
L 96.274709 173.39493 
L 95.633297 154.013971 
L 95.496808 133.590571 
L 96.23449 113.137869 
L 98.076085 93.757994 
L 98.938124 76.198006 
L 101.672144 60.808896 
L 101.141934 47.600163 
L 103.972659 36.380776 
L 105.942696 26.88 
L 109.124474 26.88 
z
M 307.483429 36.380776 
L 311.54196 47.600163 
L 313.935144 60.808896 
L 314.421346 76.198006 
L 315.988626 93.757994 
L 315.990579 113.137869 
L 316.409652 133.590571 
L 316.983577 154.013971 
L 316.774883 173.39493 
L 315.457676 190.956403 
L 315.672849 206.347113 
L 313.74304 219.557363 
L 312.067538 230.778089 
L 311.819732 240.28 
L 309.584321 240.28 
L 309.873108 230.778089 
L 311.825702 219.557363 
L 314.074661 206.347113 
L 313.823902 190.956403 
L 315.358948 173.39493 
L 315.602155 154.013971 
L 314.933315 133.590571 
L 314.444937 113.137869 
L 314.442661 93.757994 
L 312.616186 76.198006 
L 312.049576 60.808896 
L 309.260611 47.600163 
L 304.530887 36.380776 
L 306.176224 26.88 
L 308.895277 26.88 
z
" clip-path="url(#pb8649da51a)" style="fill: #306a8e"/>
    <path d="M 110.566667 26.88 
L 115.840228 26.88 
L 110.566667 32.9512 
L 109.684611 36.380776 
L 105.917604 47.600163 
L 106.623184 60.808896 
L 102.984868 76.198006 
L 101.837703 93.757994 
L 99.386987 113.137869 
L 98.405312 133.590571 
L 98.586945 154.013971 
L 99.44051 173.39493 
L 100.114673 190.956403 
L 99.023002 206.347113 
L 101.821983 219.557363 
L 104.873102 230.778089 
L 105.938893 240.28 
L 103.548412 240.28 
L 102.615072 230.778089 
L 99.943128 219.557363 
L 97.491987 206.347113 
L 98.447991 190.956403 
L 97.85761 173.39493 
L 97.110121 154.013971 
L 96.95106 133.590571 
L 97.810738 113.137869 
L 99.956894 93.757994 
L 100.961496 76.198006 
L 104.147664 60.808896 
L 103.529769 47.600163 
L 106.828635 36.380776 
L 109.124474 26.88 
z
M 304.530887 36.380776 
L 309.260611 47.600163 
L 312.049576 60.808896 
L 312.616186 76.198006 
L 314.442661 93.757994 
L 314.444937 113.137869 
L 314.933315 133.590571 
L 315.602155 154.013971 
L 315.358948 173.39493 
L 313.823902 190.956403 
L 314.074661 206.347113 
L 311.825702 219.557363 
L 309.873108 230.778089 
L 309.584321 240.28 
L 307.34891 240.28 
L 307.678679 230.778089 
L 309.908365 219.557363 
L 312.476473 206.347113 
L 312.190129 190.956403 
L 313.943013 173.39493 
L 314.220733 154.013971 
L 313.456978 133.590571 
L 312.899295 113.137869 
L 312.896695 93.757994 
L 310.811026 76.198006 
L 310.164009 60.808896 
L 306.979262 47.600163 
L 301.578345 36.380776 
L 303.457171 26.88 
L 306.176224 26.88 
z
" clip-path="url(#pb8649da51a)" style="fill: #2b748e"/>
    <path d="M 110.566667 32.9512 
L 115.840228 26.88 
L 125.485806 26.88 
L 113.883763 36.380776 
L 110.566667 41.114414 
L 108.305439 47.600163 
L 109.098704 60.808896 
L 105.00824 76.198006 
L 103.718512 93.757994 
L 100.963236 113.137869 
L 99.859564 133.590571 
L 100.06377 154.013971 
L 101.02341 173.39493 
L 101.781354 190.956403 
L 100.554017 206.347113 
L 103.700839 219.557363 
L 107.131132 230.778089 
L 108.329373 240.28 
L 105.938893 240.28 
L 104.873102 230.778089 
L 101.821983 219.557363 
L 99.023002 206.347113 
L 100.114673 190.956403 
L 99.44051 173.39493 
L 98.586945 154.013971 
L 98.405312 133.590571 
L 99.386987 113.137869 
L 101.837703 93.757994 
L 102.984868 76.198006 
L 106.623184 60.808896 
L 105.917604 47.600163 
L 109.684611 36.380776 
z
M 301.473333 26.88 
L 303.457171 26.88 
L 301.578345 36.380776 
L 306.979262 47.600163 
L 310.164009 60.808896 
L 310.811026 76.198006 
L 312.896695 93.757994 
L 312.899295 113.137869 
L 313.456978 133.590571 
L 314.220733 154.013971 
L 313.943013 173.39493 
L 312.190129 190.956403 
L 312.476473 206.347113 
L 309.908365 219.557363 
L 307.678679 230.778089 
L 307.34891 240.28 
L 305.113499 240.28 
L 305.48425 230.778089 
L 307.991028 219.557363 
L 310.878285 206.347113 
L 310.556356 190.956403 
L 312.527077 173.39493 
L 312.839311 154.013971 
L 311.980641 133.590571 
L 311.353653 113.137869 
L 311.35073 93.757994 
L 309.005866 76.198006 
L 308.278442 60.808896 
L 304.697914 47.600163 
L 301.473333 40.931182 
L 294.791304 36.380776 
L 296.777296 26.88 
z
" clip-path="url(#pb8649da51a)" style="fill: #27808e"/>
    <path d="M 134.43 26.88 
L 135.141294 26.88 
L 134.43 27.085995 
L 118.683121 36.380776 
L 110.876398 47.600163 
L 112.456211 60.808896 
L 110.566667 63.71658 
L 107.031612 76.198006 
L 105.599321 93.757994 
L 102.539485 113.137869 
L 101.313816 133.590571 
L 101.540594 154.013971 
L 102.60631 173.39493 
L 103.448035 190.956403 
L 102.085032 206.347113 
L 105.579694 219.557363 
L 109.389163 230.778089 
L 110.566667 239.240128 
L 112.390909 240.28 
L 110.566667 240.28 
L 108.329373 240.28 
L 107.131132 230.778089 
L 103.700839 219.557363 
L 100.554017 206.347113 
L 101.781354 190.956403 
L 101.02341 173.39493 
L 100.06377 154.013971 
L 99.859564 133.590571 
L 100.963236 113.137869 
L 103.718512 93.757994 
L 105.00824 76.198006 
L 109.098704 60.808896 
L 108.305439 47.600163 
L 110.566667 41.114414 
L 113.883763 36.380776 
L 125.485806 26.88 
z
M 294.791304 36.380776 
L 301.473333 40.931182 
L 304.697914 47.600163 
L 308.278442 60.808896 
L 309.005866 76.198006 
L 311.35073 93.757994 
L 311.353653 113.137869 
L 311.980641 133.590571 
L 312.839311 154.013971 
L 312.527077 173.39493 
L 310.556356 190.956403 
L 310.878285 206.347113 
L 307.991028 219.557363 
L 305.48425 230.778089 
L 305.113499 240.28 
L 302.878088 240.28 
L 303.289821 230.778089 
L 306.073691 219.557363 
L 309.280097 206.347113 
L 308.922583 190.956403 
L 311.111142 173.39493 
L 311.457889 154.013971 
L 310.504305 133.590571 
L 309.80801 113.137869 
L 309.804764 93.757994 
L 307.200706 76.198006 
L 306.392875 60.808896 
L 302.416565 47.600163 
L 301.473333 45.649399 
L 287.862855 36.380776 
L 279.409897 26.88 
L 296.777296 26.88 
z
" clip-path="url(#pb8649da51a)" style="fill: #228b8d"/>
    <path d="M 134.43 27.085995 
L 135.141294 26.88 
L 144.923143 26.88 
L 134.43 29.918872 
L 123.482479 36.380776 
L 116.717994 47.600163 
L 117.098729 60.808896 
L 110.566667 70.860619 
L 109.054984 76.198006 
L 107.48013 93.757994 
L 104.115733 113.137869 
L 102.768068 133.590571 
L 103.017418 154.013971 
L 104.189211 173.39493 
L 105.114716 190.956403 
L 103.616047 206.347113 
L 107.45855 219.557363 
L 110.566667 228.260533 
L 114.930488 230.778089 
L 134.43 239.372412 
L 158.293333 236.994489 
L 182.156667 239.842495 
L 182.463783 240.28 
L 182.156667 240.28 
L 158.293333 240.28 
L 134.43 240.28 
L 112.390909 240.28 
L 110.566667 239.240128 
L 109.389163 230.778089 
L 105.579694 219.557363 
L 102.085032 206.347113 
L 103.448035 190.956403 
L 102.60631 173.39493 
L 101.540594 154.013971 
L 101.313816 133.590571 
L 102.539485 113.137869 
L 105.599321 93.757994 
L 107.031612 76.198006 
L 110.566667 63.71658 
L 112.456211 60.808896 
L 110.876398 47.600163 
L 118.683121 36.380776 
z
M 182.156667 26.88 
L 206.02 26.88 
L 210.462826 26.88 
L 206.02 27.479334 
L 182.47274 36.380776 
L 182.156667 36.555968 
L 181.785478 36.380776 
L 177.869464 26.88 
z
M 277.61 26.88 
L 279.409897 26.88 
L 287.862855 36.380776 
L 301.473333 45.649399 
L 302.416565 47.600163 
L 306.392875 60.808896 
L 307.200706 76.198006 
L 309.804764 93.757994 
L 309.80801 113.137869 
L 310.504305 133.590571 
L 311.457889 154.013971 
L 311.111142 173.39493 
L 308.922583 190.956403 
L 309.280097 206.347113 
L 306.073691 219.557363 
L 303.289821 230.778089 
L 302.878088 240.28 
L 301.473333 240.28 
L 296.959585 240.28 
L 299.976569 230.778089 
L 301.473333 229.548416 
L 304.156354 219.557363 
L 307.681909 206.347113 
L 307.28881 190.956403 
L 309.695207 173.39493 
L 310.076467 154.013971 
L 309.027968 133.590571 
L 308.262368 113.137869 
L 308.258799 93.757994 
L 305.395546 76.198006 
L 304.507307 60.808896 
L 301.473333 51.128831 
L 294.384758 47.600163 
L 280.934405 36.380776 
L 277.61 33.068238 
L 268.539803 26.88 
z
M 229.883333 239.131691 
L 232.050045 240.28 
L 229.883333 240.28 
L 229.210959 240.28 
z
" clip-path="url(#pb8649da51a)" style="fill: #1f958b"/>
    <path d="M 134.43 29.918872 
L 144.923143 26.88 
L 154.704992 26.88 
L 134.43 32.751749 
L 128.281836 36.380776 
L 122.559589 47.600163 
L 121.741248 60.808896 
L 111.865447 76.198006 
L 110.566667 81.165505 
L 109.360939 93.757994 
L 105.691982 113.137869 
L 104.22232 133.590571 
L 104.494243 154.013971 
L 105.772111 173.39493 
L 106.781397 190.956403 
L 105.147062 206.347113 
L 109.337405 219.557363 
L 110.566667 222.999469 
L 124.049787 230.778089 
L 134.43 235.353121 
L 158.293333 233.087147 
L 182.156667 233.560307 
L 186.873711 240.28 
L 182.463783 240.28 
L 182.156667 239.842495 
L 158.293333 236.994489 
L 134.43 239.372412 
L 114.930488 230.778089 
L 110.566667 228.260533 
L 107.45855 219.557363 
L 103.616047 206.347113 
L 105.114716 190.956403 
L 104.189211 173.39493 
L 103.017418 154.013971 
L 102.768068 133.590571 
L 104.115733 113.137869 
L 107.48013 93.757994 
L 109.054984 76.198006 
L 110.566667 70.860619 
L 117.098729 60.808896 
L 116.717994 47.600163 
L 123.482479 36.380776 
z
M 181.785478 36.380776 
L 182.156667 36.555968 
L 182.47274 36.380776 
L 206.02 27.479334 
L 210.462826 26.88 
L 229.883333 26.88 
L 237.513226 26.88 
L 229.883333 27.554256 
L 206.02 30.825683 
L 191.324942 36.380776 
L 182.156667 41.462541 
L 171.389688 36.380776 
L 163.547248 26.88 
L 177.869464 26.88 
z
M 277.61 33.068238 
L 280.934405 36.380776 
L 294.384758 47.600163 
L 301.473333 51.128831 
L 304.507307 60.808896 
L 305.395546 76.198006 
L 308.258799 93.757994 
L 308.262368 113.137869 
L 309.027968 133.590571 
L 310.076467 154.013971 
L 309.695207 173.39493 
L 307.28881 190.956403 
L 307.681909 206.347113 
L 304.156354 219.557363 
L 301.473333 229.548416 
L 299.976569 230.778089 
L 296.959585 240.28 
L 284.812463 240.28 
L 291.285968 230.778089 
L 301.473333 222.40862 
L 302.239017 219.557363 
L 306.083721 206.347113 
L 305.655037 190.956403 
L 308.279271 173.39493 
L 308.695046 154.013971 
L 307.551631 133.590571 
L 306.716726 113.137869 
L 306.712834 93.757994 
L 303.590386 76.198006 
L 302.62174 60.808896 
L 301.473333 57.144839 
L 282.299481 47.600163 
L 277.61 42.806697 
L 269.808916 36.380776 
L 258.420921 26.88 
L 268.539803 26.88 
z
M 229.883333 231.717015 
L 246.040582 240.28 
L 232.050045 240.28 
L 229.883333 239.131691 
L 229.210959 240.28 
L 224.869411 240.28 
z
" clip-path="url(#pb8649da51a)" style="fill: #1fa188"/>
    <path d="M 134.43 32.751749 
L 154.704992 26.88 
L 158.293333 26.88 
L 163.547248 26.88 
L 171.389688 36.380776 
L 182.156667 41.462541 
L 191.324942 36.380776 
L 206.02 30.825683 
L 229.883333 27.554256 
L 237.513226 26.88 
L 253.746667 26.88 
L 258.420921 26.88 
L 269.808916 36.380776 
L 277.61 42.806697 
L 282.299481 47.600163 
L 301.473333 57.144839 
L 302.62174 60.808896 
L 303.590386 76.198006 
L 306.712834 93.757994 
L 306.716726 113.137869 
L 307.551631 133.590571 
L 308.695046 154.013971 
L 308.279271 173.39493 
L 305.655037 190.956403 
L 306.083721 206.347113 
L 302.239017 219.557363 
L 301.473333 222.40862 
L 291.285968 230.778089 
L 284.812463 240.28 
L 277.61 240.28 
L 253.746667 240.28 
L 246.040582 240.28 
L 229.883333 231.717015 
L 224.869411 240.28 
L 220.527863 240.28 
L 225.185823 230.778089 
L 229.883333 227.958189 
L 253.746667 227.057944 
L 266.672274 230.778089 
L 277.61 236.336052 
L 282.595367 230.778089 
L 296.796601 219.557363 
L 301.473333 216.364824 
L 304.485533 206.347113 
L 304.021263 190.956403 
L 306.863336 173.39493 
L 307.313624 154.013971 
L 306.075294 133.590571 
L 305.171083 113.137869 
L 305.166868 93.757994 
L 301.785226 76.198006 
L 301.473333 71.481348 
L 292.523213 60.808896 
L 277.61 53.99828 
L 269.812629 47.600163 
L 254.812038 36.380776 
L 253.746667 35.272707 
L 229.883333 30.659799 
L 206.02 34.172033 
L 200.177144 36.380776 
L 182.156667 46.369115 
L 160.993899 36.380776 
L 158.293333 33.616796 
L 134.43 35.584627 
L 133.081194 36.380776 
L 128.401185 47.600163 
L 126.383766 60.808896 
L 117.001211 76.198006 
L 112.124281 93.757994 
L 110.566667 96.59544 
L 107.268231 113.137869 
L 105.676572 133.590571 
L 105.971067 154.013971 
L 107.355011 173.39493 
L 108.448078 190.956403 
L 106.678077 206.347113 
L 110.566667 217.97458 
L 115.837106 219.557363 
L 133.169085 230.778089 
L 134.43 231.333831 
L 140.458623 230.778089 
L 158.293333 228.949451 
L 182.156667 227.813901 
L 185.383213 230.778089 
L 191.283638 240.28 
L 186.873711 240.28 
L 182.156667 233.560307 
L 158.293333 233.087147 
L 134.43 235.353121 
L 124.049787 230.778089 
L 110.566667 222.999469 
L 109.337405 219.557363 
L 105.147062 206.347113 
L 106.781397 190.956403 
L 105.772111 173.39493 
L 104.494243 154.013971 
L 104.22232 133.590571 
L 105.691982 113.137869 
L 109.360939 93.757994 
L 110.566667 81.165505 
L 111.865447 76.198006 
L 121.741248 60.808896 
L 122.559589 47.600163 
L 128.281836 36.380776 
z
" clip-path="url(#pb8649da51a)" style="fill: #25ac82"/>
    <path d="M 134.43 35.584627 
L 158.293333 33.616796 
L 160.993899 36.380776 
L 182.156667 46.369115 
L 200.177144 36.380776 
L 206.02 34.172033 
L 229.883333 30.659799 
L 253.746667 35.272707 
L 254.812038 36.380776 
L 269.812629 47.600163 
L 277.61 53.99828 
L 292.523213 60.808896 
L 301.473333 71.481348 
L 301.785226 76.198006 
L 305.166868 93.757994 
L 305.171083 113.137869 
L 306.075294 133.590571 
L 307.313624 154.013971 
L 306.863336 173.39493 
L 304.021263 190.956403 
L 304.485533 206.347113 
L 301.473333 216.364824 
L 296.796601 219.557363 
L 282.595367 230.778089 
L 277.61 236.336052 
L 266.672274 230.778089 
L 253.746667 227.057944 
L 229.883333 227.958189 
L 225.185823 230.778089 
L 220.527863 240.28 
L 216.186315 240.28 
L 219.807215 230.778089 
L 229.883333 224.729429 
L 253.746667 221.570266 
L 277.61 228.247656 
L 289.010518 219.557363 
L 301.473333 211.04971 
L 302.887345 206.347113 
L 302.38749 190.956403 
L 305.447401 173.39493 
L 305.932202 154.013971 
L 304.598958 133.590571 
L 303.625441 113.137869 
L 303.620903 93.757994 
L 301.473333 82.751976 
L 287.655884 76.198006 
L 277.61 66.455511 
L 271.830652 60.808896 
L 257.071147 47.600163 
L 253.746667 45.139962 
L 241.230404 36.380776 
L 229.883333 33.765341 
L 212.882526 36.380776 
L 212.892425 47.600163 
L 206.02 51.270253 
L 182.156667 50.76143 
L 173.630631 47.600163 
L 158.293333 40.358645 
L 134.43 47.121376 
L 134.242781 47.600163 
L 131.026284 60.808896 
L 122.136976 76.198006 
L 116.463867 93.757994 
L 110.566667 104.500697 
L 108.84448 113.137869 
L 107.130824 133.590571 
L 107.447892 154.013971 
L 108.937911 173.39493 
L 110.11476 190.956403 
L 108.209092 206.347113 
L 110.566667 213.396616 
L 131.08107 219.557363 
L 134.43 221.836837 
L 158.293333 224.478957 
L 182.156667 222.493403 
L 191.174625 230.778089 
L 195.693565 240.28 
L 191.283638 240.28 
L 185.383213 230.778089 
L 182.156667 227.813901 
L 158.293333 228.949451 
L 140.458623 230.778089 
L 134.43 231.333831 
L 133.169085 230.778089 
L 115.837106 219.557363 
L 110.566667 217.97458 
L 106.678077 206.347113 
L 108.448078 190.956403 
L 107.355011 173.39493 
L 105.971067 154.013971 
L 105.676572 133.590571 
L 107.268231 113.137869 
L 110.566667 96.59544 
L 112.124281 93.757994 
L 117.001211 76.198006 
L 126.383766 60.808896 
L 128.401185 47.600163 
L 133.081194 36.380776 
z
" clip-path="url(#pb8649da51a)" style="fill: #32b67a"/>
    <path d="M 229.883333 33.765341 
L 241.230404 36.380776 
L 253.746667 45.139962 
L 257.071147 47.600163 
L 271.830652 60.808896 
L 277.61 66.455511 
L 287.655884 76.198006 
L 301.473333 82.751976 
L 303.620903 93.757994 
L 303.625441 113.137869 
L 304.598958 133.590571 
L 305.932202 154.013971 
L 305.447401 173.39493 
L 302.38749 190.956403 
L 302.887345 206.347113 
L 301.473333 211.04971 
L 289.010518 219.557363 
L 277.61 228.247656 
L 253.746667 221.570266 
L 229.883333 224.729429 
L 219.807215 230.778089 
L 216.186315 240.28 
L 211.844767 240.28 
L 214.428608 230.778089 
L 229.883333 221.500669 
L 241.512408 219.557363 
L 253.746667 212.34202 
L 267.515558 219.557363 
L 277.61 222.312545 
L 281.224435 219.557363 
L 300.036499 206.347113 
L 298.410168 190.956403 
L 301.473333 187.514166 
L 304.031466 173.39493 
L 304.55078 154.013971 
L 303.122621 133.590571 
L 302.079799 113.137869 
L 302.074938 93.757994 
L 301.473333 90.674849 
L 277.61 80.392809 
L 273.782648 76.198006 
L 255.250866 60.808896 
L 253.746667 59.364751 
L 241.958378 47.600163 
L 229.883333 38.31613 
L 222.5625 47.600163 
L 206.02 56.434376 
L 182.156667 54.981503 
L 162.248962 47.600163 
L 158.293333 45.732509 
L 151.988819 47.600163 
L 137.444627 60.808896 
L 134.43 63.281965 
L 127.27274 76.198006 
L 120.803453 93.757994 
L 110.566667 112.405954 
L 110.420728 113.137869 
L 108.585076 133.590571 
L 108.924716 154.013971 
L 110.520812 173.39493 
L 110.566667 174.066243 
L 126.268631 190.956403 
L 110.566667 199.797998 
L 109.740107 206.347113 
L 110.566667 208.818651 
L 134.43 214.872678 
L 155.560796 219.557363 
L 158.293333 220.008463 
L 162.678851 219.557363 
L 182.156667 213.25349 
L 185.995053 219.557363 
L 196.966037 230.778089 
L 200.103492 240.28 
L 195.693565 240.28 
L 191.174625 230.778089 
L 182.156667 222.493403 
L 158.293333 224.478957 
L 134.43 221.836837 
L 131.08107 219.557363 
L 110.566667 213.396616 
L 108.209092 206.347113 
L 110.11476 190.956403 
L 108.937911 173.39493 
L 107.447892 154.013971 
L 107.130824 133.590571 
L 108.84448 113.137869 
L 110.566667 104.500697 
L 116.463867 93.757994 
L 122.136976 76.198006 
L 131.026284 60.808896 
L 134.242781 47.600163 
L 134.43 47.121376 
L 158.293333 40.358645 
L 173.630631 47.600163 
L 182.156667 50.76143 
L 206.02 51.270253 
L 212.892425 47.600163 
L 212.882526 36.380776 
z
" clip-path="url(#pb8649da51a)" style="fill: #46c06f"/>
    <path d="M 158.293333 45.732509 
L 162.248962 47.600163 
L 182.156667 54.981503 
L 206.02 56.434376 
L 222.5625 47.600163 
L 229.883333 38.31613 
L 241.958378 47.600163 
L 253.746667 59.364751 
L 255.250866 60.808896 
L 273.782648 76.198006 
L 277.61 80.392809 
L 301.473333 90.674849 
L 302.074938 93.757994 
L 302.079799 113.137869 
L 303.122621 133.590571 
L 304.55078 154.013971 
L 304.031466 173.39493 
L 301.473333 187.514166 
L 298.410168 190.956403 
L 300.036499 206.347113 
L 281.224435 219.557363 
L 277.61 222.312545 
L 267.515558 219.557363 
L 253.746667 212.34202 
L 241.512408 219.557363 
L 229.883333 221.500669 
L 214.428608 230.778089 
L 211.844767 240.28 
L 207.50322 240.28 
L 209.05 230.778089 
L 224.41129 219.557363 
L 229.883333 215.763402 
L 246.011502 206.347113 
L 253.746667 193.93037 
L 262.633078 206.347113 
L 277.61 214.2536 
L 287.568384 206.347113 
L 291.455744 190.956403 
L 301.473333 179.699119 
L 302.61553 173.39493 
L 303.169358 154.013971 
L 301.646284 133.590571 
L 301.473333 130.284722 
L 284.696792 113.137869 
L 284.922889 93.757994 
L 277.61 90.91733 
L 264.180042 76.198006 
L 253.746667 67.820122 
L 246.554124 60.808896 
L 229.883333 48.965402 
L 207.634197 60.808896 
L 207.353703 76.198006 
L 206.02 80.50705 
L 205.199888 76.198006 
L 199.18428 60.808896 
L 182.156667 59.201577 
L 158.293333 53.353742 
L 148.742199 60.808896 
L 134.43 72.550002 
L 132.408505 76.198006 
L 125.143039 93.757994 
L 116.834872 113.137869 
L 110.566667 127.750937 
L 110.039328 133.590571 
L 110.40154 154.013971 
L 110.566667 156.015204 
L 116.11488 173.39493 
L 134.43 188.105702 
L 141.946055 190.956403 
L 134.43 200.137937 
L 123.04124 206.347113 
L 134.43 208.869066 
L 148.625831 206.347113 
L 158.293333 203.657663 
L 182.156667 200.398771 
L 186.797262 206.347113 
L 194.559738 219.557363 
L 202.757449 230.778089 
L 204.51342 240.28 
L 200.103492 240.28 
L 196.966037 230.778089 
L 185.995053 219.557363 
L 182.156667 213.25349 
L 162.678851 219.557363 
L 158.293333 220.008463 
L 155.560796 219.557363 
L 134.43 214.872678 
L 110.566667 208.818651 
L 109.740107 206.347113 
L 110.566667 199.797998 
L 126.268631 190.956403 
L 110.566667 174.066243 
L 110.520812 173.39493 
L 108.924716 154.013971 
L 108.585076 133.590571 
L 110.420728 113.137869 
L 110.566667 112.405954 
L 120.803453 93.757994 
L 127.27274 76.198006 
L 134.43 63.281965 
L 137.444627 60.808896 
L 151.988819 47.600163 
z
M 206.02 189.940623 
L 208.426983 190.956403 
L 206.02 191.708798 
L 203.197842 190.956403 
z
" clip-path="url(#pb8649da51a)" style="fill: #5cc863"/>
    <path d="M 158.293333 53.353742 
L 182.156667 59.201577 
L 199.18428 60.808896 
L 205.199888 76.198006 
L 206.02 80.50705 
L 207.353703 76.198006 
L 207.634197 60.808896 
L 229.883333 48.965402 
L 246.554124 60.808896 
L 253.746667 67.820122 
L 264.180042 76.198006 
L 277.61 90.91733 
L 284.922889 93.757994 
L 284.696792 113.137869 
L 301.473333 130.284722 
L 301.646284 133.590571 
L 303.169358 154.013971 
L 302.61553 173.39493 
L 301.473333 179.699119 
L 291.455744 190.956403 
L 287.568384 206.347113 
L 277.61 214.2536 
L 262.633078 206.347113 
L 253.746667 193.93037 
L 246.011502 206.347113 
L 229.883333 215.763402 
L 224.41129 219.557363 
L 209.05 230.778089 
L 207.50322 240.28 
L 206.02 240.28 
L 204.51342 240.28 
L 202.757449 230.778089 
L 194.559738 219.557363 
L 186.797262 206.347113 
L 182.156667 200.398771 
L 158.293333 203.657663 
L 148.625831 206.347113 
L 134.43 208.869066 
L 123.04124 206.347113 
L 134.43 200.137937 
L 141.946055 190.956403 
L 134.43 188.105702 
L 116.11488 173.39493 
L 110.566667 156.015204 
L 110.40154 154.013971 
L 110.039328 133.590571 
L 110.566667 127.750937 
L 116.834872 113.137869 
L 125.143039 93.757994 
L 132.408505 76.198006 
L 134.43 72.550002 
L 148.742199 60.808896 
z
M 218.191284 60.808896 
L 217.885477 76.198006 
L 210.416202 93.757994 
L 206.02 104.412877 
L 202.078126 93.757994 
L 198.723759 76.198006 
L 182.156667 63.807598 
L 159.986028 76.198006 
L 158.293333 77.630509 
L 134.43 82.295063 
L 129.482625 93.757994 
L 123.742638 113.137869 
L 115.805494 133.590571 
L 116.478582 154.013971 
L 121.828615 173.39493 
L 134.43 183.516409 
L 154.046019 190.956403 
L 158.293333 194.256417 
L 173.718709 190.956403 
L 182.156667 187.844651 
L 206.02 180.567502 
L 229.883333 182.830636 
L 253.746667 184.930587 
L 265.014629 190.956403 
L 277.61 203.748573 
L 284.501319 190.956403 
L 299.742046 173.39493 
L 301.473333 164.496406 
L 301.787936 154.013971 
L 301.473333 149.825932 
L 288.914903 133.590571 
L 277.61 123.022431 
L 268.83798 113.137869 
L 268.486446 93.757994 
L 254.577435 76.198006 
L 253.746667 75.530908 
L 238.64393 60.808896 
L 229.883333 54.585071 
z
M 203.197842 190.956403 
L 206.02 191.708798 
L 208.426983 190.956403 
L 206.02 189.940623 
z
M 195.914317 206.347113 
L 203.124422 219.557363 
L 206.02 224.453894 
L 210.666788 219.557363 
L 229.630178 206.347113 
L 206.02 198.65153 
z
M 229.883333 114.185846 
L 234.914872 133.590571 
L 236.00225 154.013971 
L 229.883333 171.956845 
L 220.136965 154.013971 
L 217.116264 133.590571 
z
M 158.293333 142.460043 
L 177.67371 154.013971 
L 158.293333 161.32352 
L 153.788575 154.013971 
z
" clip-path="url(#pb8649da51a)" style="fill: #77d153"/>
    <path d="M 229.883333 54.585071 
L 238.64393 60.808896 
L 253.746667 75.530908 
L 254.577435 76.198006 
L 268.486446 93.757994 
L 268.83798 113.137869 
L 277.61 123.022431 
L 288.914903 133.590571 
L 301.473333 149.825932 
L 301.787936 154.013971 
L 301.473333 164.496406 
L 299.742046 173.39493 
L 284.501319 190.956403 
L 277.61 203.748573 
L 265.014629 190.956403 
L 253.746667 184.930587 
L 229.883333 182.830636 
L 206.02 180.567502 
L 182.156667 187.844651 
L 173.718709 190.956403 
L 158.293333 194.256417 
L 154.046019 190.956403 
L 134.43 183.516409 
L 121.828615 173.39493 
L 116.478582 154.013971 
L 115.805494 133.590571 
L 123.742638 113.137869 
L 129.482625 93.757994 
L 134.43 82.295063 
L 158.293333 77.630509 
L 159.986028 76.198006 
L 182.156667 63.807598 
L 198.723759 76.198006 
L 202.078126 93.757994 
L 206.02 104.412877 
L 210.416202 93.757994 
L 217.885477 76.198006 
L 218.191284 60.808896 
z
M 228.74837 60.808896 
L 228.417251 76.198006 
L 217.616298 93.757994 
L 229.883333 106.053784 
L 248.467927 113.137869 
L 249.672316 133.590571 
L 248.441082 154.013971 
L 243.711614 173.39493 
L 253.746667 178.133228 
L 277.61 190.848766 
L 290.786811 173.39493 
L 277.61 156.221351 
L 270.279387 154.013971 
L 267.433706 133.590571 
L 257.036905 113.137869 
L 255.989982 93.757994 
L 253.746667 90.873917 
L 233.03897 76.198006 
L 230.733736 60.808896 
L 229.883333 60.204741 
z
M 168.652601 76.198006 
L 158.293333 84.964904 
L 134.43 92.349764 
L 133.822211 93.757994 
L 130.650404 113.137869 
L 124.024788 133.590571 
L 123.134734 154.013971 
L 127.542349 173.39493 
L 134.43 178.927116 
L 158.293333 174.328397 
L 164.297543 173.39493 
L 158.293333 172.970596 
L 146.610667 154.013971 
L 151.362048 133.590571 
L 158.293333 118.121284 
L 180.720248 133.590571 
L 182.156667 134.353943 
L 183.231589 133.590571 
L 200.591605 113.137869 
L 195.622129 93.757994 
L 192.24763 76.198006 
L 182.156667 68.651048 
z
M 217.116264 133.590571 
L 220.136965 154.013971 
L 229.883333 171.956845 
L 236.00225 154.013971 
L 234.914872 133.590571 
L 229.883333 114.185846 
z
M 153.788575 154.013971 
L 158.293333 161.32352 
L 177.67371 154.013971 
L 158.293333 142.460043 
z
M 206.02 198.65153 
L 229.630178 206.347113 
L 210.666788 219.557363 
L 206.02 224.453894 
L 203.124422 219.557363 
L 195.914317 206.347113 
z
M 205.031373 206.347113 
L 206.02 208.206623 
L 208.329755 206.347113 
L 206.02 205.594263 
z
" clip-path="url(#pb8649da51a)" style="fill: #95d840"/>
    <path d="M 229.883333 60.204741 
L 230.733736 60.808896 
L 233.03897 76.198006 
L 253.746667 90.873917 
L 255.989982 93.757994 
L 257.036905 113.137869 
L 267.433706 133.590571 
L 270.279387 154.013971 
L 277.61 156.221351 
L 290.786811 173.39493 
L 277.61 190.848766 
L 253.746667 178.133228 
L 243.711614 173.39493 
L 248.441082 154.013971 
L 249.672316 133.590571 
L 248.467927 113.137869 
L 229.883333 106.053784 
L 217.616298 93.757994 
L 228.417251 76.198006 
L 228.74837 60.808896 
z
M 224.816394 93.757994 
L 229.883333 98.836811 
L 240.901059 93.757994 
L 229.883333 85.85942 
z
M 263.082098 173.39493 
L 277.61 178.986776 
L 281.831577 173.39493 
L 277.61 167.892872 
z
M 182.156667 68.651048 
L 192.24763 76.198006 
L 195.622129 93.757994 
L 200.591605 113.137869 
L 183.231589 133.590571 
L 182.156667 134.353943 
L 180.720248 133.590571 
L 158.293333 118.121284 
L 151.362048 133.590571 
L 146.610667 154.013971 
L 158.293333 172.970596 
L 164.297543 173.39493 
L 158.293333 174.328397 
L 134.43 178.927116 
L 127.542349 173.39493 
L 123.134734 154.013971 
L 124.024788 133.590571 
L 130.650404 113.137869 
L 133.822211 93.757994 
L 134.43 92.349764 
L 158.293333 84.964904 
L 168.652601 76.198006 
z
M 177.319174 76.198006 
L 158.293333 92.2993 
L 153.810981 93.757994 
L 158.293333 97.493054 
L 171.276926 113.137869 
L 182.156667 121.713494 
L 189.735173 113.137869 
L 189.166131 93.757994 
L 185.771501 76.198006 
L 182.156667 73.494498 
z
M 132.244082 133.590571 
L 129.790887 154.013971 
L 133.256084 173.39493 
L 134.43 174.337823 
L 138.623968 173.39493 
L 139.432759 154.013971 
L 137.987071 133.590571 
L 134.43 126.02323 
z
M 206.02 205.594263 
L 208.329755 206.347113 
L 206.02 208.206623 
L 205.031373 206.347113 
z
" clip-path="url(#pb8649da51a)" style="fill: #b2dd2d"/>
    <path d="M 182.156667 73.494498 
L 185.771501 76.198006 
L 189.166131 93.757994 
L 189.735173 113.137869 
L 182.156667 121.713494 
L 171.276926 113.137869 
L 158.293333 97.493054 
L 153.810981 93.757994 
L 158.293333 92.2993 
L 177.319174 76.198006 
z
M 179.849861 93.757994 
L 182.156667 98.043719 
L 182.710133 93.757994 
L 182.156667 90.90443 
z
M 229.883333 85.85942 
L 240.901059 93.757994 
L 229.883333 98.836811 
L 224.816394 93.757994 
z
M 134.43 126.02323 
L 137.987071 133.590571 
L 139.432759 154.013971 
L 138.623968 173.39493 
L 134.43 174.337823 
L 133.256084 173.39493 
L 129.790887 154.013971 
L 132.244082 133.590571 
z
M 277.61 167.892872 
L 281.831577 173.39493 
L 277.61 178.986776 
L 263.082098 173.39493 
z
" clip-path="url(#pb8649da51a)" style="fill: #d2e21b"/>
    <path d="M 182.156667 90.90443 
L 182.710133 93.757994 
L 182.156667 98.043719 
L 179.849861 93.757994 
z
" clip-path="url(#pb8649da51a)" style="fill: #f1e51d"/>
   </g>
   <g id="matplotlib.axis_1">
    <g id="xtick_1">
     <g id="line2d_1">
      <defs>
       <path id="ma4971f9523" d="M 0 0 
L 0 3.5 
" style="stroke: #000000; stroke-width: 0.8"/>
      </defs>
      <g>
       <use xlink:href="#ma4971f9523" x="126.475556" y="240.28" style="stroke: #000000; stroke-width: 0.8"/>
      </g>
     </g>
     <g id="text_1">
      <!-- −50 -->
      <g transform="translate(113.812743 256.398125) scale(0.12 -0.12)">
       <defs>
        <path id="DejaVuSans-2212" d="M 678 2272 
L 4684 2272 
L 4684 1741 
L 678 1741 
L 678 2272 
z
" transform="scale(0.015625)"/>
        <path id="DejaVuSans-35" d="M 691 4666 
L 3169 4666 
L 3169 4134 
L 1269 4134 
L 1269 2991 
Q 1406 3038 1543 3061 
Q 1681 3084 1819 3084 
Q 2600 3084 3056 2656 
Q 3513 2228 3513 1497 
Q 3513 744 3044 326 
Q 2575 -91 1722 -91 
Q 1428 -91 1123 -41 
Q 819 9 494 109 
L 494 744 
Q 775 591 1075 516 
Q 1375 441 1709 441 
Q 2250 441 2565 725 
Q 2881 1009 2881 1497 
Q 2881 1984 2565 2268 
Q 2250 2553 1709 2553 
Q 1456 2553 1204 2497 
Q 953 2441 691 2322 
L 691 4666 
z
" transform="scale(0.015625)"/>
        <path id="DejaVuSans-30" d="M 2034 4250 
Q 1547 4250 1301 3770 
Q 1056 3291 1056 2328 
Q 1056 1369 1301 889 
Q 1547 409 2034 409 
Q 2525 409 2770 889 
Q 3016 1369 3016 2328 
Q 3016 3291 2770 3770 
Q 2525 4250 2034 4250 
z
M 2034 4750 
Q 2819 4750 3233 4129 
Q 3647 3509 3647 2328 
Q 3647 1150 3233 529 
Q 2819 -91 2034 -91 
Q 1250 -91 836 529 
Q 422 1150 422 2328 
Q 422 3509 836 4129 
Q 1250 4750 2034 4750 
z
" transform="scale(0.015625)"/>
       </defs>
       <use xlink:href="#DejaVuSans-2212"/>
       <use xlink:href="#DejaVuSans-35" transform="translate(83.789062 0)"/>
       <use xlink:href="#DejaVuSans-30" transform="translate(147.412109 0)"/>
      </g>
     </g>
    </g>
    <g id="xtick_2">
     <g id="line2d_2">
      <g>
       <use xlink:href="#ma4971f9523" x="206.02" y="240.28" style="stroke: #000000; stroke-width: 0.8"/>
      </g>
     </g>
     <g id="text_2">
      <!-- 0 -->
      <g transform="translate(202.2025 256.398125) scale(0.12 -0.12)">
       <use xlink:href="#DejaVuSans-30"/>
      </g>
     </g>
    </g>
    <g id="xtick_3">
     <g id="line2d_3">
      <g>
       <use xlink:href="#ma4971f9523" x="285.564444" y="240.28" style="stroke: #000000; stroke-width: 0.8"/>
      </g>
     </g>
     <g id="text_3">
      <!-- 50 -->
      <g transform="translate(277.929444 256.398125) scale(0.12 -0.12)">
       <use xlink:href="#DejaVuSans-35"/>
       <use xlink:href="#DejaVuSans-30" transform="translate(63.623047 0)"/>
      </g>
     </g>
    </g>
    <g id="text_4">
     <!-- $\Theta^{\circ}$ -->
     <g transform="translate(198.4 272.011875) scale(0.12 -0.12)">
      <defs>
       <path id="DejaVuSans-398" d="M 1416 2750 
L 3622 2750 
L 3622 2219 
L 1416 2219 
L 1416 2750 
z
M 2522 4238 
Q 1834 4238 1431 3725 
Q 1025 3213 1025 2328 
Q 1025 1447 1429 934 
Q 1834 422 2522 422 
Q 3209 422 3613 934 
Q 4013 1447 4013 2328 
Q 4013 3213 3613 3725 
Q 3209 4238 2522 4238 
z
M 2522 4750 
Q 3503 4750 4090 4092 
Q 4678 3434 4678 2328 
Q 4678 1225 4091 569 
Q 3503 -91 2522 -91 
Q 1538 -91 950 566 
Q 359 1222 359 2328 
Q 359 3434 950 4094 
Q 1538 4750 2522 4750 
z
" transform="scale(0.015625)"/>
       <path id="DejaVuSans-2218" d="M 2000 2619 
Q 1750 2619 1578 2445 
Q 1406 2272 1406 2022 
Q 1406 1775 1578 1605 
Q 1750 1435 2000 1435 
Q 2250 1435 2422 1605 
Q 2594 1775 2594 2022 
Q 2594 2269 2420 2444 
Q 2247 2619 2000 2619 
z
M 2000 3022 
Q 2200 3022 2384 2945 
Q 2569 2869 2703 2725 
Q 2847 2585 2919 2406 
Q 2991 2228 2991 2022 
Q 2991 1610 2702 1324 
Q 2413 1038 1994 1038 
Q 1572 1038 1290 1319 
Q 1009 1600 1009 2022 
Q 1009 2441 1296 2731 
Q 1584 3022 2000 3022 
z
" transform="scale(0.015625)"/>
      </defs>
      <use xlink:href="#DejaVuSans-398" transform="translate(0 0.78125)"/>
      <use xlink:href="#DejaVuSans-2218" transform="translate(79.667969 39.0625) scale(0.7)"/>
     </g>
    </g>
   </g>
   <g id="matplotlib.axis_2">
    <g id="ytick_1">
     <g id="line2d_4">
      <defs>
       <path id="mbf0d318ff2" d="M 0 0 
L -3.5 0 
" style="stroke: #000000; stroke-width: 0.8"/>
      </defs>
      <g>
       <use xlink:href="#mbf0d318ff2" x="62.84" y="219.984151" style="stroke: #000000; stroke-width: 0.8"/>
      </g>
     </g>
     <g id="text_5">
      <!-- −40 -->
      <g transform="translate(30.514375 224.543214) scale(0.12 -0.12)">
       <defs>
        <path id="DejaVuSans-34" d="M 2419 4116 
L 825 1625 
L 2419 1625 
L 2419 4116 
z
M 2253 4666 
L 3047 4666 
L 3047 1625 
L 3713 1625 
L 3713 1100 
L 3047 1100 
L 3047 0 
L 2419 0 
L 2419 1100 
L 313 1100 
L 313 1709 
L 2253 4666 
z
" transform="scale(0.015625)"/>
       </defs>
       <use xlink:href="#DejaVuSans-2212"/>
       <use xlink:href="#DejaVuSans-34" transform="translate(83.789062 0)"/>
       <use xlink:href="#DejaVuSans-30" transform="translate(147.412109 0)"/>
      </g>
     </g>
    </g>
    <g id="ytick_2">
     <g id="line2d_5">
      <g>
       <use xlink:href="#mbf0d318ff2" x="62.84" y="176.783648" style="stroke: #000000; stroke-width: 0.8"/>
      </g>
     </g>
     <g id="text_6">
      <!-- −20 -->
      <g transform="translate(30.514375 181.342711) scale(0.12 -0.12)">
       <defs>
        <path id="DejaVuSans-32" d="M 1228 531 
L 3431 531 
L 3431 0 
L 469 0 
L 469 531 
Q 828 903 1448 1529 
Q 2069 2156 2228 2338 
Q 2531 2678 2651 2914 
Q 2772 3150 2772 3378 
Q 2772 3750 2511 3984 
Q 2250 4219 1831 4219 
Q 1534 4219 1204 4116 
Q 875 4013 500 3803 
L 500 4441 
Q 881 4594 1212 4672 
Q 1544 4750 1819 4750 
Q 2544 4750 2975 4387 
Q 3406 4025 3406 3419 
Q 3406 3131 3298 2873 
Q 3191 2616 2906 2266 
Q 2828 2175 2409 1742 
Q 1991 1309 1228 531 
z
" transform="scale(0.015625)"/>
       </defs>
       <use xlink:href="#DejaVuSans-2212"/>
       <use xlink:href="#DejaVuSans-32" transform="translate(83.789062 0)"/>
       <use xlink:href="#DejaVuSans-30" transform="translate(147.412109 0)"/>
      </g>
     </g>
    </g>
    <g id="ytick_3">
     <g id="line2d_6">
      <g>
       <use xlink:href="#mbf0d318ff2" x="62.84" y="133.583145" style="stroke: #000000; stroke-width: 0.8"/>
      </g>
     </g>
     <g id="text_7">
      <!-- 0 -->
      <g transform="translate(48.205 138.142208) scale(0.12 -0.12)">
       <use xlink:href="#DejaVuSans-30"/>
      </g>
     </g>
    </g>
    <g id="ytick_4">
     <g id="line2d_7">
      <g>
       <use xlink:href="#mbf0d318ff2" x="62.84" y="90.382642" style="stroke: #000000; stroke-width: 0.8"/>
      </g>
     </g>
     <g id="text_8">
      <!-- 20 -->
      <g transform="translate(40.57 94.941704) scale(0.12 -0.12)">
       <use xlink:href="#DejaVuSans-32"/>
       <use xlink:href="#DejaVuSans-30" transform="translate(63.623047 0)"/>
      </g>
     </g>
    </g>
    <g id="ytick_5">
     <g id="line2d_8">
      <g>
       <use xlink:href="#mbf0d318ff2" x="62.84" y="47.182139" style="stroke: #000000; stroke-width: 0.8"/>
      </g>
     </g>
     <g id="text_9">
      <!-- 40 -->
      <g transform="translate(40.57 51.741201) scale(0.12 -0.12)">
       <use xlink:href="#DejaVuSans-34"/>
       <use xlink:href="#DejaVuSans-30" transform="translate(63.623047 0)"/>
      </g>
     </g>
    </g>
    <g id="text_10">
     <!-- $\phi^{\circ}$ -->
     <g transform="translate(23.784375 141.38) rotate(-90) scale(0.13 -0.13)">
      <defs>
       <path id="DejaVuSans-Oblique-3d5" d="M 2991 4863 
L 2738 3572 
Q 3363 3572 3684 3094 
Q 4016 2606 3850 1747 
Q 3681 888 3159 400 
Q 2653 -78 2028 -78 
L 1784 -1331 
L 1213 -1331 
L 1456 -78 
Q 834 -78 509 400 
Q 178 888 347 1747 
Q 513 2606 1034 3094 
Q 1544 3572 2166 3572 
L 2419 4863 
L 2991 4863 
z
M 2128 434 
Q 2481 434 2784 756 
Q 3116 1116 3244 1747 
Q 3369 2372 3169 2738 
Q 2991 3059 2638 3059 
L 2128 434 
z
M 1556 434 
L 2066 3059 
Q 1716 3059 1413 2738 
Q 1072 2372 953 1747 
Q 834 1116 1028 756 
Q 1203 434 1556 434 
z
" transform="scale(0.015625)"/>
      </defs>
      <use xlink:href="#DejaVuSans-Oblique-3d5" transform="translate(0 0.015625)"/>
      <use xlink:href="#DejaVuSans-2218" transform="translate(73.414505 38.296875) scale(0.7)"/>
     </g>
    </g>
   </g>
   <g id="QuadContourSet_2">
    <path clip-path="url(#pb8649da51a)" style="fill: none; stroke-dasharray: 1.85,0.8; stroke-dashoffset: 0; stroke: #000000; stroke-width: 0.5"/>
    <path d="M 325.209596 26.88 
L 325.198684 36.380776 
L 325.230051 47.600163 
L 325.248547 60.808896 
L 325.252305 76.198006 
L 325.264418 93.757994 
L 325.264433 113.137869 
L 325.265594 120.469589 
M 325.270522 146.711553 
L 325.272108 154.013971 
L 325.270495 173.39493 
L 325.260315 190.956403 
L 325.261978 206.347113 
L 325.247063 219.557363 
L 325.234113 230.778089 
L 325.232198 240.28 
M 86.815049 240.28 
L 86.808859 230.778089 
L 86.791139 219.557363 
L 86.774883 206.347113 
L 86.781223 190.956403 
L 86.777308 173.39493 
L 86.772351 154.013971 
L 86.771973 146.711553 
M 86.774953 120.469589 
L 86.776997 113.137869 
L 86.79123 93.757994 
L 86.797893 76.198006 
L 86.819023 60.808896 
L 86.814925 47.600163 
L 86.836803 36.380776 
L 86.852029 26.88 
" clip-path="url(#pb8649da51a)" style="fill: none; stroke-dasharray: 1.85,0.8; stroke-dashoffset: 0; stroke: #000000; stroke-width: 0.5"/>
    <path d="M 322.490542 26.88 
L 322.246141 36.380776 
L 322.948702 47.600163 
L 323.36298 60.808896 
L 323.447145 76.198006 
L 323.718453 93.757994 
L 323.718791 113.137869 
L 323.745104 120.556268 
M 323.854741 146.62481 
L 323.890686 154.013971 
L 323.85456 173.39493 
L 323.626541 190.956403 
L 323.66379 206.347113 
L 323.329725 219.557363 
L 323.039684 230.778089 
L 322.996787 240.28 
M 89.20553 240.28 
L 89.06689 230.778089 
L 88.669995 219.557363 
L 88.305898 206.347113 
L 88.447905 190.956403 
L 88.360208 173.39493 
L 88.249175 154.013971 
L 88.240627 146.624938 
M 88.306928 120.556419 
L 88.353246 113.137869 
L 88.672039 93.757994 
L 88.821265 76.198006 
L 89.294543 60.808896 
L 89.20276 47.600163 
L 89.692779 36.380776 
L 90.033807 26.88 
" clip-path="url(#pb8649da51a)" style="fill: none; stroke-dasharray: 1.85,0.8; stroke-dashoffset: 0; stroke: #000000; stroke-width: 0.5"/>
    <path d="M 319.771489 26.88 
L 319.293599 36.380776 
L 320.667354 47.600163 
L 321.477413 60.808896 
L 321.641985 76.198006 
L 322.172487 93.757994 
L 322.173149 113.137869 
L 322.2246 120.556471 
M 322.438975 146.624427 
L 322.509264 154.013971 
L 322.438624 173.39493 
L 321.992768 190.956403 
L 322.065602 206.347113 
L 321.412388 219.557363 
L 320.845255 230.778089 
L 320.761376 240.28 
M 91.59601 240.28 
L 91.32492 230.778089 
L 90.54885 219.557363 
L 89.836913 206.347113 
L 90.114586 190.956403 
L 89.943108 173.39493 
L 89.725999 154.013971 
L 89.709285 146.624916 
M 89.838918 120.55705 
L 89.929495 113.137869 
L 90.552848 93.757994 
L 90.844637 76.198006 
L 91.770064 60.808896 
L 91.590595 47.600163 
L 92.548755 36.380776 
L 93.215585 26.88 
" clip-path="url(#pb8649da51a)" style="fill: none; stroke-dasharray: 1.85,0.8; stroke-dashoffset: 0; stroke: #000000; stroke-width: 0.5"/>
    <path d="M 317.052436 26.88 
L 316.341057 36.380776 
L 318.386005 47.600163 
L 319.591845 60.808896 
L 319.836825 76.198006 
L 320.626522 93.757994 
L 320.627506 113.137869 
L 320.7041 120.556806 
M 321.023203 146.623797 
L 321.127842 154.013971 
L 321.022689 173.39493 
L 320.358995 190.956403 
L 320.467413 206.347113 
L 319.495051 219.557363 
L 318.650825 230.778089 
L 318.525965 240.28 
M 93.986491 240.28 
L 93.58295 230.778089 
L 92.427706 219.557363 
L 91.367928 206.347113 
L 91.781267 190.956403 
L 91.526009 173.39493 
L 91.202824 154.013971 
L 91.177942 146.624881 
M 91.370894 120.558087 
L 91.505743 113.137869 
L 92.433658 93.757994 
L 92.868009 76.198006 
L 94.245584 60.808896 
L 93.97843 47.600163 
L 95.404731 36.380776 
L 96.397363 26.88 
" clip-path="url(#pb8649da51a)" style="fill: none; stroke-dasharray: 1.85,0.8; stroke-dashoffset: 0; stroke: #000000; stroke-width: 0.5"/>
    <path d="M 314.333383 26.88 
L 313.388514 36.380776 
L 316.104657 47.600163 
L 317.706278 60.808896 
L 318.031665 76.198006 
L 319.080557 93.757994 
L 319.081864 113.137869 
L 319.18301 120.513973 
M 319.608234 146.666217 
L 319.74642 154.013971 
L 319.606754 173.39493 
L 318.725222 190.956403 
L 318.869225 206.347113 
L 317.577714 219.557363 
L 316.456396 230.778089 
L 316.290554 240.28 
M 96.376971 240.28 
L 95.840981 230.778089 
L 94.306561 219.557363 
L 92.898943 206.347113 
L 93.447948 190.956403 
L 93.108909 173.39493 
L 92.679648 154.013971 
L 92.646794 146.668134 
M 92.903893 120.51624 
L 93.081992 113.137869 
L 94.314467 93.757994 
L 94.89138 76.198006 
L 96.721104 60.808896 
L 96.366265 47.600163 
L 98.260707 36.380776 
L 99.57914 26.88 
" clip-path="url(#pb8649da51a)" style="fill: none; stroke-dasharray: 1.85,0.8; stroke-dashoffset: 0; stroke: #000000; stroke-width: 0.5"/>
    <path d="M 311.61433 26.88 
L 310.435972 36.380776 
L 313.823308 47.600163 
L 315.820711 60.808896 
L 316.226506 76.198006 
L 317.534591 93.757994 
L 317.536222 113.137869 
L 317.662373 120.514573 
M 318.192638 146.665089 
L 318.364999 154.013971 
L 318.190818 173.39493 
L 317.091449 190.956403 
L 317.271037 206.347113 
L 315.660377 219.557363 
L 314.261967 230.778089 
L 314.055143 240.28 
M 98.767451 240.28 
L 98.099011 230.778089 
L 96.185417 219.557363 
L 94.429958 206.347113 
L 95.114629 190.956403 
L 94.691809 173.39493 
L 94.156472 154.013971 
L 94.115499 146.66807 
M 94.436075 120.518098 
L 94.658241 113.137869 
L 96.195276 93.757994 
L 96.914752 76.198006 
L 99.196624 60.808896 
L 98.7541 47.600163 
L 101.116683 36.380776 
L 102.760918 26.88 
" clip-path="url(#pb8649da51a)" style="fill: none; stroke-dasharray: 1.85,0.8; stroke-dashoffset: 0; stroke: #000000; stroke-width: 0.5"/>
    <path d="M 308.895277 26.88 
L 307.483429 36.380776 
L 311.54196 47.600163 
L 313.935144 60.808896 
L 314.421346 76.198006 
L 315.988626 93.757994 
L 315.990579 113.137869 
L 316.141742 120.515305 
M 316.777025 146.663713 
L 316.983577 154.013971 
L 316.774883 173.39493 
L 315.457676 190.956403 
L 315.672849 206.347113 
L 313.74304 219.557363 
L 312.067538 230.778089 
L 311.819732 240.28 
M 101.157932 240.28 
L 100.357041 230.778089 
L 98.064272 219.557363 
L 95.960973 206.347113 
L 96.78131 190.956403 
L 96.274709 173.39493 
L 95.633297 154.013971 
L 95.584204 146.667993 
M 95.96822 120.520363 
L 96.23449 113.137869 
L 98.076085 93.757994 
L 98.938124 76.198006 
L 101.672144 60.808896 
L 101.141934 47.600163 
L 103.972659 36.380776 
L 105.942696 26.88 
" clip-path="url(#pb8649da51a)" style="fill: none; stroke-dasharray: 1.85,0.8; stroke-dashoffset: 0; stroke: #000000; stroke-width: 0.5"/>
    <path d="M 306.176224 26.88 
L 304.530887 36.380776 
L 309.260611 47.600163 
L 312.049576 60.808896 
L 312.616186 76.198006 
L 314.442661 93.757994 
L 314.444937 113.137869 
L 314.622153 120.559461 
M 315.359973 146.618806 
L 315.602155 154.013971 
L 315.358948 173.39493 
L 313.823902 190.956403 
L 314.074661 206.347113 
L 311.825702 219.557363 
L 309.873108 230.778089 
L 309.584321 240.28 
M 103.548412 240.28 
L 102.615072 230.778089 
L 99.943128 219.557363 
L 97.491987 206.347113 
L 98.447991 190.956403 
L 97.85761 173.39493 
L 97.110121 154.013971 
L 97.052571 146.624598 
M 97.498503 120.566305 
L 97.810738 113.137869 
L 99.956894 93.757994 
L 100.961496 76.198006 
L 104.147664 60.808896 
L 103.529769 47.600163 
L 106.828635 36.380776 
L 109.124474 26.88 
" clip-path="url(#pb8649da51a)" style="fill: none; stroke-dasharray: 1.85,0.8; stroke-dashoffset: 0; stroke: #000000; stroke-width: 0.5"/>
    <path d="M 303.457171 26.88 
L 301.578345 36.380776 
L 306.979262 47.600163 
L 310.164009 60.808896 
L 310.811026 76.198006 
L 312.896695 93.757994 
L 312.899295 113.137869 
L 313.100506 120.517164 
M 313.945732 146.660219 
L 314.220733 154.013971 
L 313.943013 173.39493 
L 312.190129 190.956403 
L 312.476473 206.347113 
L 309.908365 219.557363 
L 307.678679 230.778089 
L 307.34891 240.28 
M 105.938893 240.28 
L 104.873102 230.778089 
L 101.821983 219.557363 
L 99.023002 206.347113 
L 100.114673 190.956403 
L 99.44051 173.39493 
L 98.586945 154.013971 
L 98.405312 133.590571 
L 98.759928 126.202326 
M 101.029245 100.151149 
L 101.837703 93.757994 
L 102.984868 76.198006 
L 106.623184 60.808896 
L 105.917604 47.600163 
L 109.684611 36.380776 
L 110.566667 32.9512 
L 115.840228 26.88 
" clip-path="url(#pb8649da51a)" style="fill: none; stroke-dasharray: 1.85,0.8; stroke-dashoffset: 0; stroke: #000000; stroke-width: 0.5"/>
    <path d="M 296.777296 26.88 
L 294.791304 36.380776 
L 301.473333 40.931182 
L 304.697914 47.600163 
L 308.278442 60.808896 
L 309.005866 76.198006 
L 311.35073 93.757994 
L 311.353653 113.137869 
L 311.578576 120.475005 
M 312.531864 146.701371 
L 312.839311 154.013971 
L 312.527077 173.39493 
L 310.556356 190.956403 
L 310.878285 206.347113 
L 307.991028 219.557363 
L 305.48425 230.778089 
L 305.113499 240.28 
M 108.329373 240.28 
L 107.131132 230.778089 
L 103.700839 219.557363 
L 100.554017 206.347113 
L 101.781354 190.956403 
L 101.02341 173.39493 
L 100.06377 154.013971 
L 99.859564 133.590571 
L 100.256104 126.242091 
M 102.812318 100.131922 
L 103.718512 93.757994 
L 105.00824 76.198006 
L 109.098704 60.808896 
L 108.305439 47.600163 
L 110.566667 41.114414 
L 113.883763 36.380776 
L 125.485806 26.88 
" clip-path="url(#pb8649da51a)" style="fill: none; stroke-dasharray: 1.85,0.8; stroke-dashoffset: 0; stroke: #000000; stroke-width: 0.5"/>
    <path d="M 279.409897 26.88 
L 287.862855 36.380776 
L 301.473333 45.649399 
L 302.416565 47.600163 
L 306.392875 60.808896 
L 307.200706 76.198006 
L 309.804764 93.757994 
L 309.80801 113.137869 
L 310.05784 120.476267 
M 311.116347 146.698999 
L 311.457889 154.013971 
L 311.111142 173.39493 
L 308.922583 190.956403 
L 309.280097 206.347113 
L 306.073691 219.557363 
L 303.289821 230.778089 
L 302.878088 240.28 
M 112.390909 240.28 
L 110.566667 239.240128 
L 109.389163 230.778089 
L 105.579694 219.557363 
L 102.085032 206.347113 
L 103.448035 190.956403 
L 102.60631 173.39493 
L 101.540594 154.013971 
L 101.313816 133.590571 
L 101.754422 126.23819 
M 104.58879 100.158326 
L 105.599321 93.757994 
L 107.031612 76.198006 
L 110.566667 63.71658 
L 112.456211 60.808896 
L 110.876398 47.600163 
L 118.683121 36.380776 
L 134.43 27.085995 
L 135.141294 26.88 
" clip-path="url(#pb8649da51a)" style="fill: none; stroke-dasharray: 1.85,0.8; stroke-dashoffset: 0; stroke: #000000; stroke-width: 0.5"/>
    <path d="M 195.366455 31.506635 
L 206.02 27.479334 
L 210.462826 26.88 
M 268.539803 26.88 
L 277.61 33.068238 
L 280.934405 36.380776 
L 294.384758 47.600163 
L 301.473333 51.128831 
L 304.507307 60.808896 
L 305.395546 76.198006 
L 308.258799 93.757994 
L 308.262368 113.137869 
L 308.540356 120.564216 
M 309.696355 146.609873 
L 310.076467 154.013971 
L 309.695207 173.39493 
L 307.28881 190.956403 
L 307.681909 206.347113 
L 304.156354 219.557363 
L 301.473333 229.548416 
L 299.976569 230.778089 
L 296.959585 240.28 
M 182.463783 240.28 
L 182.156667 239.842495 
L 158.293333 236.994489 
L 134.43 239.372412 
L 114.930488 230.778089 
L 110.566667 228.260533 
L 107.45855 219.557363 
L 103.616047 206.347113 
L 105.114716 190.956403 
L 104.189211 173.39493 
L 103.804227 167.027455 
M 102.858292 140.98045 
L 102.768068 133.590571 
L 104.115733 113.137869 
L 107.48013 93.757994 
L 109.054984 76.198006 
L 110.566667 70.860619 
L 117.098729 60.808896 
L 116.717994 47.600163 
L 123.482479 36.380776 
L 134.43 29.918872 
L 144.923143 26.88 
M 232.050045 240.28 
L 229.883333 239.131691 
L 229.210959 240.28 
" clip-path="url(#pb8649da51a)" style="fill: none; stroke-dasharray: 1.85,0.8; stroke-dashoffset: 0; stroke: #000000; stroke-width: 0.5"/>
    <path d="M 163.547248 26.88 
L 171.389688 36.380776 
L 179.169704 40.052764 
M 204.304329 31.474249 
L 206.02 30.825683 
L 229.883333 27.554256 
L 237.513226 26.88 
M 258.420921 26.88 
L 269.808916 36.380776 
L 277.61 42.806697 
L 282.299481 47.600163 
L 301.473333 57.144839 
L 302.62174 60.808896 
L 303.590386 76.198006 
L 306.712834 93.757994 
L 306.716726 113.137869 
L 307.016408 120.479188 
M 308.285206 146.693515 
L 308.695046 154.013971 
L 308.279271 173.39493 
L 305.655037 190.956403 
L 306.083721 206.347113 
L 302.239017 219.557363 
L 301.473333 222.40862 
L 291.285968 230.778089 
L 284.812463 240.28 
M 186.873711 240.28 
L 182.156667 233.560307 
L 158.293333 233.087147 
L 134.43 235.353121 
L 124.049787 230.778089 
L 110.566667 222.999469 
L 109.337405 219.557363 
L 105.147062 206.347113 
L 106.781397 190.956403 
L 105.772111 173.39493 
L 105.357716 167.109955 
M 104.31956 140.894011 
L 104.22232 133.590571 
L 105.691982 113.137869 
L 109.360939 93.757994 
L 110.566667 81.165505 
L 111.865447 76.198006 
L 121.741248 60.808896 
L 122.559589 47.600163 
L 128.281836 36.380776 
L 134.43 32.751749 
L 154.704992 26.88 
M 246.040582 240.28 
L 229.883333 231.717015 
L 224.869411 240.28 
" clip-path="url(#pb8649da51a)" style="fill: none; stroke-dasharray: 1.85,0.8; stroke-dashoffset: 0; stroke: #000000; stroke-width: 0.5"/>
    <path d="M 191.283638 240.28 
L 185.383213 230.778089 
L 182.156667 227.813901 
L 158.293333 228.949451 
L 140.458623 230.778089 
L 134.43 231.333831 
L 133.169085 230.778089 
L 115.837106 219.557363 
L 110.566667 217.97458 
L 106.678077 206.347113 
L 108.448078 190.956403 
L 107.355011 173.39493 
L 105.971067 154.013971 
L 105.676572 133.590571 
L 107.268231 113.137869 
L 110.566667 96.59544 
L 112.124281 93.757994 
L 117.001211 76.198006 
L 126.383766 60.808896 
L 128.401185 47.600163 
L 133.081194 36.380776 
L 134.43 35.584627 
L 158.293333 33.616796 
L 160.993899 36.380776 
L 182.156667 46.369115 
L 200.177144 36.380776 
L 206.02 34.172033 
L 229.883333 30.659799 
L 253.746667 35.272707 
L 254.812038 36.380776 
L 269.812629 47.600163 
L 277.61 53.99828 
L 292.523213 60.808896 
L 301.473333 71.481348 
L 301.785226 76.198006 
L 305.166868 93.757994 
L 305.171083 113.137869 
L 306.075294 133.590571 
L 307.313624 154.013971 
L 306.863336 173.39493 
L 306.113748 178.026715 
M 304.415601 204.028854 
L 304.485533 206.347113 
L 301.473333 216.364824 
L 296.796601 219.557363 
L 282.595367 230.778089 
L 277.61 236.336052 
L 266.672274 230.778089 
L 253.746667 227.057944 
L 229.883333 227.958189 
L 225.185823 230.778089 
L 220.527863 240.28 
" clip-path="url(#pb8649da51a)" style="fill: none; stroke-dasharray: 1.85,0.8; stroke-dashoffset: 0; stroke: #000000; stroke-width: 0.5"/>
    <path d="M 195.693565 240.28 
L 191.174625 230.778089 
L 182.156667 222.493403 
L 158.293333 224.478957 
L 134.43 221.836837 
L 131.08107 219.557363 
L 110.566667 213.396616 
L 108.209092 206.347113 
L 110.11476 190.956403 
L 108.937911 173.39493 
L 107.447892 154.013971 
L 107.130824 133.590571 
L 108.48245 117.458738 
M 116.785103 92.763671 
L 122.136976 76.198006 
L 131.026284 60.808896 
L 134.242781 47.600163 
L 134.43 47.121376 
L 158.293333 40.358645 
L 173.630631 47.600163 
L 182.156667 50.76143 
L 206.02 51.270253 
L 212.892425 47.600163 
L 212.882526 36.380776 
L 229.883333 33.765341 
L 241.230404 36.380776 
L 253.746667 45.139962 
L 257.071147 47.600163 
L 271.830652 60.808896 
L 277.61 66.455511 
L 287.655884 76.198006 
L 301.473333 82.751976 
L 303.620903 93.757994 
L 303.625441 113.137869 
L 304.598958 133.590571 
L 305.932202 154.013971 
L 305.447401 173.39493 
L 302.38749 190.956403 
L 302.887345 206.347113 
L 301.473333 211.04971 
L 289.010518 219.557363 
L 277.61 228.247656 
L 253.746667 221.570266 
L 229.883333 224.729429 
L 219.807215 230.778089 
L 216.186315 240.28 
" clip-path="url(#pb8649da51a)" style="fill: none; stroke-dasharray: 1.85,0.8; stroke-dashoffset: 0; stroke: #000000; stroke-width: 0.5"/>
    <path d="M 200.103492 240.28 
L 196.966037 230.778089 
L 185.995053 219.557363 
L 182.156667 213.25349 
L 162.678851 219.557363 
L 158.293333 220.008463 
L 155.560796 219.557363 
L 134.43 214.872678 
L 110.566667 208.818651 
L 109.740107 206.347113 
L 110.566667 199.797998 
L 126.268631 190.956403 
L 119.290549 183.450277 
M 109.443455 160.312886 
L 108.924716 154.013971 
L 108.585076 133.590571 
L 110.420728 113.137869 
L 110.566667 112.405954 
L 120.803453 93.757994 
L 127.27274 76.198006 
L 134.43 63.281965 
L 137.444627 60.808896 
L 151.988819 47.600163 
L 158.293333 45.732509 
L 162.248962 47.600163 
L 182.156667 54.981503 
L 206.02 56.434376 
L 222.5625 47.600163 
L 229.883333 38.31613 
L 241.958378 47.600163 
L 253.746667 59.364751 
L 255.250866 60.808896 
L 273.782648 76.198006 
L 277.61 80.392809 
L 301.473333 90.674849 
L 302.074938 93.757994 
L 302.079799 113.137869 
L 303.122621 133.590571 
L 304.55078 154.013971 
L 304.031466 173.39493 
L 301.473333 187.514166 
L 298.410168 190.956403 
L 300.036499 206.347113 
L 281.224435 219.557363 
L 277.61 222.312545 
L 267.515558 219.557363 
L 253.746667 212.34202 
L 241.512408 219.557363 
L 229.883333 221.500669 
L 214.428608 230.778089 
L 211.844767 240.28 
" clip-path="url(#pb8649da51a)" style="fill: none; stroke-dasharray: 1.85,0.8; stroke-dashoffset: 0; stroke: #000000; stroke-width: 0.5"/>
    <path d="M 204.51342 240.28 
L 202.757449 230.778089 
L 194.559738 219.557363 
L 186.797262 206.347113 
L 182.156667 200.398771 
L 158.293333 203.657663 
L 148.625831 206.347113 
L 134.43 208.869066 
L 123.04124 206.347113 
L 134.43 200.137937 
L 141.946055 190.956403 
L 134.43 188.105702 
L 116.11488 173.39493 
L 114.566213 168.543744 
M 110.205231 142.945035 
L 110.039328 133.590571 
L 110.566667 127.750937 
L 116.834872 113.137869 
L 125.143039 93.757994 
L 132.408505 76.198006 
L 134.43 72.550002 
L 148.742199 60.808896 
L 158.293333 53.353742 
L 182.156667 59.201577 
L 199.18428 60.808896 
L 205.199888 76.198006 
L 206.02 80.50705 
L 207.353703 76.198006 
L 207.634197 60.808896 
L 229.883333 48.965402 
L 246.554124 60.808896 
L 253.746667 67.820122 
L 264.180042 76.198006 
L 277.61 90.91733 
L 284.922889 93.757994 
L 284.696792 113.137869 
L 301.473333 130.284722 
L 301.646284 133.590571 
L 303.169358 154.013971 
L 302.61553 173.39493 
L 301.473333 179.699119 
L 291.455744 190.956403 
L 287.568384 206.347113 
L 277.61 214.2536 
L 262.633078 206.347113 
L 253.746667 193.93037 
L 246.011502 206.347113 
L 229.883333 215.763402 
L 224.41129 219.557363 
L 209.05 230.778089 
L 207.50322 240.28 
M 206.02 189.940623 
L 203.197842 190.956403 
L 206.02 191.708798 
L 208.426983 190.956403 
L 206.02 189.940623 
z
" clip-path="url(#pb8649da51a)" style="fill: none; stroke-dasharray: 1.85,0.8; stroke-dashoffset: 0; stroke: #000000; stroke-width: 0.5"/>
    <path d="M 248.313204 70.234417 
L 253.746667 75.530908 
L 254.577435 76.198006 
L 268.486446 93.757994 
L 268.83798 113.137869 
L 277.61 123.022431 
L 288.914903 133.590571 
L 301.473333 149.825932 
L 301.787936 154.013971 
L 301.473333 164.496406 
L 299.742046 173.39493 
L 284.501319 190.956403 
L 277.61 203.748573 
L 265.014629 190.956403 
L 253.746667 184.930587 
L 229.883333 182.830636 
L 206.02 180.567502 
L 182.156667 187.844651 
L 173.718709 190.956403 
L 158.293333 194.256417 
L 154.046019 190.956403 
L 134.43 183.516409 
L 121.828615 173.39493 
L 116.478582 154.013971 
L 115.805494 133.590571 
L 123.742638 113.137869 
L 129.482625 93.757994 
L 134.43 82.295063 
L 158.293333 77.630509 
L 159.986028 76.198006 
L 182.156667 63.807598 
L 198.723759 76.198006 
L 202.078126 93.757994 
L 206.02 104.412877 
L 210.416202 93.757994 
L 217.885477 76.198006 
L 218.191284 60.808896 
L 227.311939 55.953857 
M 229.883333 114.185846 
L 217.116264 133.590571 
L 220.136965 154.013971 
L 223.553299 160.303376 
M 234.131264 159.500378 
L 236.00225 154.013971 
L 234.914872 133.590571 
L 229.883333 114.185846 
M 158.293333 142.460043 
L 153.788575 154.013971 
L 158.293333 161.32352 
L 177.67371 154.013971 
L 158.293333 142.460043 
z
M 199.4906 212.899526 
L 195.914317 206.347113 
L 206.02 198.65153 
L 229.630178 206.347113 
L 216.251832 215.666717 
" clip-path="url(#pb8649da51a)" style="fill: none; stroke-dasharray: 1.85,0.8; stroke-dashoffset: 0; stroke: #000000; stroke-width: 0.5"/>
    <path d="M 265.442999 184.3656 
L 253.746667 178.133228 
L 243.711614 173.39493 
L 248.441082 154.013971 
L 249.672316 133.590571 
L 248.467927 113.137869 
L 229.883333 106.053784 
L 217.616298 93.757994 
L 228.417251 76.198006 
L 228.74837 60.808896 
L 229.883333 60.204741 
L 230.733736 60.808896 
L 233.03897 76.198006 
L 253.746667 90.873917 
L 255.989982 93.757994 
L 257.036905 113.137869 
L 267.433706 133.590571 
L 270.279387 154.013971 
L 277.61 156.221351 
L 290.786811 173.39493 
L 285.695264 180.139128 
M 150.546786 175.82124 
L 134.43 178.927116 
L 127.542349 173.39493 
L 123.134734 154.013971 
L 124.024788 133.590571 
L 130.650404 113.137869 
L 133.822211 93.757994 
L 134.43 92.349764 
L 158.293333 84.964904 
L 168.652601 76.198006 
L 182.156667 68.651048 
L 192.24763 76.198006 
L 195.622129 93.757994 
L 200.591605 113.137869 
L 183.231589 133.590571 
L 182.156667 134.353943 
L 180.720248 133.590571 
L 158.293333 118.121284 
L 151.362048 133.590571 
L 146.610667 154.013971 
L 154.304237 166.497775 
M 206.02 205.594263 
L 208.329755 206.347113 
L 206.02 208.206623 
L 205.031373 206.347113 
L 206.02 205.594263 
z
" clip-path="url(#pb8649da51a)" style="fill: none; stroke-dasharray: 1.85,0.8; stroke-dashoffset: 0; stroke: #000000; stroke-width: 0.5"/>
    <path d="M 162.682898 102.782339 
L 158.293333 97.493054 
L 153.810981 93.757994 
L 158.293333 92.2993 
L 177.319174 76.198006 
L 182.156667 73.494498 
L 185.771501 76.198006 
L 189.166131 93.757994 
L 189.735173 113.137869 
L 182.156667 121.713494 
L 181.989003 121.581338 
M 229.883333 85.85942 
L 240.901059 93.757994 
L 229.883333 98.836811 
L 224.816394 93.757994 
L 229.883333 85.85942 
z
M 131.197972 161.883845 
L 129.790887 154.013971 
L 132.244082 133.590571 
L 134.43 126.02323 
L 137.987071 133.590571 
L 139.432759 154.013971 
L 139.002489 164.32449 
M 277.61 167.892872 
L 281.831577 173.39493 
L 277.61 178.986776 
L 263.082098 173.39493 
L 277.61 167.892872 
z
" clip-path="url(#pb8649da51a)" style="fill: none; stroke-dasharray: 1.85,0.8; stroke-dashoffset: 0; stroke: #000000; stroke-width: 0.5"/>
    <path d="M 182.156667 90.90443 
L 182.710133 93.757994 
L 182.156667 98.043719 
L 179.849861 93.757994 
L 182.156667 90.90443 
z
" clip-path="url(#pb8649da51a)" style="fill: none; stroke-dasharray: 1.85,0.8; stroke-dashoffset: 0; stroke: #000000; stroke-width: 0.5"/>
    <path clip-path="url(#pb8649da51a)" style="fill: none; stroke-dasharray: 1.85,0.8; stroke-dashoffset: 0; stroke: #000000; stroke-width: 0.5"/>
   </g>
   <g id="patch_3">
    <path d="M 62.84 240.28 
L 62.84 26.88 
" style="fill: none; stroke: #000000; stroke-width: 0.8; stroke-linejoin: miter; stroke-linecap: square"/>
   </g>
   <g id="patch_4">
    <path d="M 349.2 240.28 
L 349.2 26.88 
" style="fill: none; stroke: #000000; stroke-width: 0.8; stroke-linejoin: miter; stroke-linecap: square"/>
   </g>
   <g id="patch_5">
    <path d="M 62.84 240.28 
L 349.2 240.28 
" style="fill: none; stroke: #000000; stroke-width: 0.8; stroke-linejoin: miter; stroke-linecap: square"/>
   </g>
   <g id="patch_6">
    <path d="M 62.84 26.88 
L 349.2 26.88 
" style="fill: none; stroke: #000000; stroke-width: 0.8; stroke-linejoin: miter; stroke-linecap: square"/>
   </g>
   <g id="text_11">
    <!-- Band 1600 -->
    <g transform="translate(173.438125 20.88) scale(0.12 -0.12)">
     <defs>
      <path id="DejaVuSans-42" d="M 1259 2228 
L 1259 519 
L 2272 519 
Q 2781 519 3026 730 
Q 3272 941 3272 1375 
Q 3272 1813 3026 2020 
Q 2781 2228 2272 2228 
L 1259 2228 
z
M 1259 4147 
L 1259 2741 
L 2194 2741 
Q 2656 2741 2882 2914 
Q 3109 3088 3109 3444 
Q 3109 3797 2882 3972 
Q 2656 4147 2194 4147 
L 1259 4147 
z
M 628 4666 
L 2241 4666 
Q 2963 4666 3353 4366 
Q 3744 4066 3744 3513 
Q 3744 3084 3544 2831 
Q 3344 2578 2956 2516 
Q 3422 2416 3680 2098 
Q 3938 1781 3938 1306 
Q 3938 681 3513 340 
Q 3088 0 2303 0 
L 628 0 
L 628 4666 
z
" transform="scale(0.015625)"/>
      <path id="DejaVuSans-61" d="M 2194 1759 
Q 1497 1759 1228 1600 
Q 959 1441 959 1056 
Q 959 750 1161 570 
Q 1363 391 1709 391 
Q 2188 391 2477 730 
Q 2766 1069 2766 1631 
L 2766 1759 
L 2194 1759 
z
M 3341 1997 
L 3341 0 
L 2766 0 
L 2766 531 
Q 2569 213 2275 61 
Q 1981 -91 1556 -91 
Q 1019 -91 701 211 
Q 384 513 384 1019 
Q 384 1609 779 1909 
Q 1175 2209 1959 2209 
L 2766 2209 
L 2766 2266 
Q 2766 2663 2505 2880 
Q 2244 3097 1772 3097 
Q 1472 3097 1187 3025 
Q 903 2953 641 2809 
L 641 3341 
Q 956 3463 1253 3523 
Q 1550 3584 1831 3584 
Q 2591 3584 2966 3190 
Q 3341 2797 3341 1997 
z
" transform="scale(0.015625)"/>
      <path id="DejaVuSans-6e" d="M 3513 2113 
L 3513 0 
L 2938 0 
L 2938 2094 
Q 2938 2591 2744 2837 
Q 2550 3084 2163 3084 
Q 1697 3084 1428 2787 
Q 1159 2491 1159 1978 
L 1159 0 
L 581 0 
L 581 3500 
L 1159 3500 
L 1159 2956 
Q 1366 3272 1645 3428 
Q 1925 3584 2291 3584 
Q 2894 3584 3203 3211 
Q 3513 2838 3513 2113 
z
" transform="scale(0.015625)"/>
      <path id="DejaVuSans-64" d="M 2906 2969 
L 2906 4863 
L 3481 4863 
L 3481 0 
L 2906 0 
L 2906 525 
Q 2725 213 2448 61 
Q 2172 -91 1784 -91 
Q 1150 -91 751 415 
Q 353 922 353 1747 
Q 353 2572 751 3078 
Q 1150 3584 1784 3584 
Q 2172 3584 2448 3432 
Q 2725 3281 2906 2969 
z
M 947 1747 
Q 947 1113 1208 752 
Q 1469 391 1925 391 
Q 2381 391 2643 752 
Q 2906 1113 2906 1747 
Q 2906 2381 2643 2742 
Q 2381 3103 1925 3103 
Q 1469 3103 1208 2742 
Q 947 2381 947 1747 
z
" transform="scale(0.015625)"/>
      <path id="DejaVuSans-20" transform="scale(0.015625)"/>
      <path id="DejaVuSans-31" d="M 794 531 
L 1825 531 
L 1825 4091 
L 703 3866 
L 703 4441 
L 1819 4666 
L 2450 4666 
L 2450 531 
L 3481 531 
L 3481 0 
L 794 0 
L 794 531 
z
" transform="scale(0.015625)"/>
      <path id="DejaVuSans-36" d="M 2113 2584 
Q 1688 2584 1439 2293 
Q 1191 2003 1191 1497 
Q 1191 994 1439 701 
Q 1688 409 2113 409 
Q 2538 409 2786 701 
Q 3034 994 3034 1497 
Q 3034 2003 2786 2293 
Q 2538 2584 2113 2584 
z
M 3366 4563 
L 3366 3988 
Q 3128 4100 2886 4159 
Q 2644 4219 2406 4219 
Q 1781 4219 1451 3797 
Q 1122 3375 1075 2522 
Q 1259 2794 1537 2939 
Q 1816 3084 2150 3084 
Q 2853 3084 3261 2657 
Q 3669 2231 3669 1497 
Q 3669 778 3244 343 
Q 2819 -91 2113 -91 
Q 1303 -91 875 529 
Q 447 1150 447 2328 
Q 447 3434 972 4092 
Q 1497 4750 2381 4750 
Q 2619 4750 2861 4703 
Q 3103 4656 3366 4563 
z
" transform="scale(0.015625)"/>
     </defs>
     <use xlink:href="#DejaVuSans-42"/>
     <use xlink:href="#DejaVuSans-61" transform="translate(68.603516 0)"/>
     <use xlink:href="#DejaVuSans-6e" transform="translate(129.882812 0)"/>
     <use xlink:href="#DejaVuSans-64" transform="translate(193.261719 0)"/>
     <use xlink:href="#DejaVuSans-20" transform="translate(256.738281 0)"/>
     <use xlink:href="#DejaVuSans-31" transform="translate(288.525391 0)"/>
     <use xlink:href="#DejaVuSans-36" transform="translate(352.148438 0)"/>
     <use xlink:href="#DejaVuSans-30" transform="translate(415.771484 0)"/>
     <use xlink:href="#DejaVuSans-30" transform="translate(479.394531 0)"/>
    </g>
   </g>
   <g id="text_12">
    <g clip-path="url(#pb8649da51a)">
     <!-- 60.8 -->
     <g transform="translate(322.782471 123.571477) rotate(-270.010087) scale(0.09 -0.09)">
      <defs>
       <path id="DejaVuSans-2e" d="M 684 794 
L 1344 794 
L 1344 0 
L 684 0 
L 684 794 
z
" transform="scale(0.015625)"/>
       <path id="DejaVuSans-38" d="M 2034 2216 
Q 1584 2216 1326 1975 
Q 1069 1734 1069 1313 
Q 1069 891 1326 650 
Q 1584 409 2034 409 
Q 2484 409 2743 651 
Q 3003 894 3003 1313 
Q 3003 1734 2745 1975 
Q 2488 2216 2034 2216 
z
M 1403 2484 
Q 997 2584 770 2862 
Q 544 3141 544 3541 
Q 544 4100 942 4425 
Q 1341 4750 2034 4750 
Q 2731 4750 3128 4425 
Q 3525 4100 3525 3541 
Q 3525 3141 3298 2862 
Q 3072 2584 2669 2484 
Q 3125 2378 3379 2068 
Q 3634 1759 3634 1313 
Q 3634 634 3220 271 
Q 2806 -91 2034 -91 
Q 1263 -91 848 271 
Q 434 634 434 1313 
Q 434 1759 690 2068 
Q 947 2378 1403 2484 
z
M 1172 3481 
Q 1172 3119 1398 2916 
Q 1625 2713 2034 2713 
Q 2441 2713 2670 2916 
Q 2900 3119 2900 3481 
Q 2900 3844 2670 4047 
Q 2441 4250 2034 4250 
Q 1625 4250 1398 4047 
Q 1172 3844 1172 3481 
z
" transform="scale(0.015625)"/>
      </defs>
      <use xlink:href="#DejaVuSans-36"/>
      <use xlink:href="#DejaVuSans-30" transform="translate(63.623047 0)"/>
      <use xlink:href="#DejaVuSans-2e" transform="translate(127.246094 0)"/>
      <use xlink:href="#DejaVuSans-38" transform="translate(159.033203 0)"/>
     </g>
    </g>
   </g>
   <g id="text_13">
    <g clip-path="url(#pb8649da51a)">
     <!-- 60.8 -->
     <g transform="translate(89.253667 143.610366) rotate(-89.9939) scale(0.09 -0.09)">
      <use xlink:href="#DejaVuSans-36"/>
      <use xlink:href="#DejaVuSans-30" transform="translate(63.623047 0)"/>
      <use xlink:href="#DejaVuSans-2e" transform="translate(127.246094 0)"/>
      <use xlink:href="#DejaVuSans-38" transform="translate(159.033203 0)"/>
     </g>
    </g>
   </g>
   <g id="text_14">
    <g clip-path="url(#pb8649da51a)">
     <!-- 61.6 -->
     <g transform="translate(321.268409 123.58091) rotate(-270.225926) scale(0.09 -0.09)">
      <use xlink:href="#DejaVuSans-36"/>
      <use xlink:href="#DejaVuSans-31" transform="translate(63.623047 0)"/>
      <use xlink:href="#DejaVuSans-2e" transform="translate(127.246094 0)"/>
      <use xlink:href="#DejaVuSans-36" transform="translate(159.033203 0)"/>
     </g>
    </g>
   </g>
   <g id="text_15">
    <g clip-path="url(#pb8649da51a)">
     <!-- 61.6 -->
     <g transform="translate(90.685086 143.615995) rotate(-89.863376) scale(0.09 -0.09)">
      <use xlink:href="#DejaVuSans-36"/>
      <use xlink:href="#DejaVuSans-31" transform="translate(63.623047 0)"/>
      <use xlink:href="#DejaVuSans-2e" transform="translate(127.246094 0)"/>
      <use xlink:href="#DejaVuSans-36" transform="translate(159.033203 0)"/>
     </g>
    </g>
   </g>
   <g id="text_16">
    <g clip-path="url(#pb8649da51a)">
     <!-- 62.4 -->
     <g transform="translate(319.754384 123.590485) rotate(-270.441758) scale(0.09 -0.09)">
      <use xlink:href="#DejaVuSans-36"/>
      <use xlink:href="#DejaVuSans-32" transform="translate(63.623047 0)"/>
      <use xlink:href="#DejaVuSans-2e" transform="translate(127.246094 0)"/>
      <use xlink:href="#DejaVuSans-34" transform="translate(159.033203 0)"/>
     </g>
    </g>
   </g>
   <g id="text_17">
    <g clip-path="url(#pb8649da51a)">
     <!-- 62.4 -->
     <g transform="translate(92.116495 143.621572) rotate(-89.732863) scale(0.09 -0.09)">
      <use xlink:href="#DejaVuSans-36"/>
      <use xlink:href="#DejaVuSans-32" transform="translate(63.623047 0)"/>
      <use xlink:href="#DejaVuSans-2e" transform="translate(127.246094 0)"/>
      <use xlink:href="#DejaVuSans-34" transform="translate(159.033203 0)"/>
     </g>
    </g>
   </g>
   <g id="text_18">
    <g clip-path="url(#pb8649da51a)">
     <!-- 63.2 -->
     <g transform="translate(318.240398 123.600201) rotate(-270.657576) scale(0.09 -0.09)">
      <defs>
       <path id="DejaVuSans-33" d="M 2597 2516 
Q 3050 2419 3304 2112 
Q 3559 1806 3559 1356 
Q 3559 666 3084 287 
Q 2609 -91 1734 -91 
Q 1441 -91 1130 -33 
Q 819 25 488 141 
L 488 750 
Q 750 597 1062 519 
Q 1375 441 1716 441 
Q 2309 441 2620 675 
Q 2931 909 2931 1356 
Q 2931 1769 2642 2001 
Q 2353 2234 1838 2234 
L 1294 2234 
L 1294 2753 
L 1863 2753 
Q 2328 2753 2575 2939 
Q 2822 3125 2822 3475 
Q 2822 3834 2567 4026 
Q 2313 4219 1838 4219 
Q 1578 4219 1281 4162 
Q 984 4106 628 3988 
L 628 4550 
Q 988 4650 1302 4700 
Q 1616 4750 1894 4750 
Q 2613 4750 3031 4423 
Q 3450 4097 3450 3541 
Q 3450 3153 3228 2886 
Q 3006 2619 2597 2516 
z
" transform="scale(0.015625)"/>
      </defs>
      <use xlink:href="#DejaVuSans-36"/>
      <use xlink:href="#DejaVuSans-33" transform="translate(63.623047 0)"/>
      <use xlink:href="#DejaVuSans-2e" transform="translate(127.246094 0)"/>
      <use xlink:href="#DejaVuSans-32" transform="translate(159.033203 0)"/>
     </g>
    </g>
   </g>
   <g id="text_19">
    <g clip-path="url(#pb8649da51a)">
     <!-- 63.2 -->
     <g transform="translate(93.547895 143.627096) rotate(-89.602369) scale(0.09 -0.09)">
      <use xlink:href="#DejaVuSans-36"/>
      <use xlink:href="#DejaVuSans-33" transform="translate(63.623047 0)"/>
      <use xlink:href="#DejaVuSans-2e" transform="translate(127.246094 0)"/>
      <use xlink:href="#DejaVuSans-32" transform="translate(159.033203 0)"/>
     </g>
    </g>
   </g>
   <g id="text_20">
    <g clip-path="url(#pb8649da51a)">
     <!-- 64.0 -->
     <g transform="translate(316.726452 123.610058) rotate(-270.873375) scale(0.09 -0.09)">
      <use xlink:href="#DejaVuSans-36"/>
      <use xlink:href="#DejaVuSans-34" transform="translate(63.623047 0)"/>
      <use xlink:href="#DejaVuSans-2e" transform="translate(127.246094 0)"/>
      <use xlink:href="#DejaVuSans-30" transform="translate(159.033203 0)"/>
     </g>
    </g>
   </g>
   <g id="text_21">
    <g clip-path="url(#pb8649da51a)">
     <!-- 64.0 -->
     <g transform="translate(94.979288 143.632566) rotate(-89.471907) scale(0.09 -0.09)">
      <use xlink:href="#DejaVuSans-36"/>
      <use xlink:href="#DejaVuSans-34" transform="translate(63.623047 0)"/>
      <use xlink:href="#DejaVuSans-2e" transform="translate(127.246094 0)"/>
      <use xlink:href="#DejaVuSans-30" transform="translate(159.033203 0)"/>
     </g>
    </g>
   </g>
   <g id="text_22">
    <g clip-path="url(#pb8649da51a)">
     <!-- 64.8 -->
     <g transform="translate(315.212548 123.620055) rotate(-271.089147) scale(0.09 -0.09)">
      <use xlink:href="#DejaVuSans-36"/>
      <use xlink:href="#DejaVuSans-34" transform="translate(63.623047 0)"/>
      <use xlink:href="#DejaVuSans-2e" transform="translate(127.246094 0)"/>
      <use xlink:href="#DejaVuSans-38" transform="translate(159.033203 0)"/>
     </g>
    </g>
   </g>
   <g id="text_23">
    <g clip-path="url(#pb8649da51a)">
     <!-- 64.8 -->
     <g transform="translate(96.410675 143.637982) rotate(-89.341484) scale(0.09 -0.09)">
      <use xlink:href="#DejaVuSans-36"/>
      <use xlink:href="#DejaVuSans-34" transform="translate(63.623047 0)"/>
      <use xlink:href="#DejaVuSans-2e" transform="translate(127.246094 0)"/>
      <use xlink:href="#DejaVuSans-38" transform="translate(159.033203 0)"/>
     </g>
    </g>
   </g>
   <g id="text_24">
    <g clip-path="url(#pb8649da51a)">
     <!-- 65.6 -->
     <g transform="translate(313.698688 123.630192) rotate(-271.304885) scale(0.09 -0.09)">
      <use xlink:href="#DejaVuSans-36"/>
      <use xlink:href="#DejaVuSans-35" transform="translate(63.623047 0)"/>
      <use xlink:href="#DejaVuSans-2e" transform="translate(127.246094 0)"/>
      <use xlink:href="#DejaVuSans-36" transform="translate(159.033203 0)"/>
     </g>
    </g>
   </g>
   <g id="text_25">
    <g clip-path="url(#pb8649da51a)">
     <!-- 65.6 -->
     <g transform="translate(97.842058 143.643345) rotate(-89.211112) scale(0.09 -0.09)">
      <use xlink:href="#DejaVuSans-36"/>
      <use xlink:href="#DejaVuSans-35" transform="translate(63.623047 0)"/>
      <use xlink:href="#DejaVuSans-2e" transform="translate(127.246094 0)"/>
      <use xlink:href="#DejaVuSans-36" transform="translate(159.033203 0)"/>
     </g>
    </g>
   </g>
   <g id="text_26">
    <g clip-path="url(#pb8649da51a)">
     <!-- 66.4 -->
     <g transform="translate(312.184873 123.640469) rotate(-271.520584) scale(0.09 -0.09)">
      <use xlink:href="#DejaVuSans-36"/>
      <use xlink:href="#DejaVuSans-36" transform="translate(63.623047 0)"/>
      <use xlink:href="#DejaVuSans-2e" transform="translate(127.246094 0)"/>
      <use xlink:href="#DejaVuSans-34" transform="translate(159.033203 0)"/>
     </g>
    </g>
   </g>
   <g id="text_27">
    <g clip-path="url(#pb8649da51a)">
     <!-- 66.4 -->
     <g transform="translate(99.273441 143.648653) rotate(-89.080799) scale(0.09 -0.09)">
      <use xlink:href="#DejaVuSans-36"/>
      <use xlink:href="#DejaVuSans-36" transform="translate(63.623047 0)"/>
      <use xlink:href="#DejaVuSans-2e" transform="translate(127.246094 0)"/>
      <use xlink:href="#DejaVuSans-34" transform="translate(159.033203 0)"/>
     </g>
    </g>
   </g>
   <g id="text_28">
    <g clip-path="url(#pb8649da51a)">
     <!-- 67.2 -->
     <g transform="translate(310.671105 123.650884) rotate(-271.736237) scale(0.09 -0.09)">
      <defs>
       <path id="DejaVuSans-37" d="M 525 4666 
L 3525 4666 
L 3525 4397 
L 1831 0 
L 1172 0 
L 2766 4134 
L 525 4134 
L 525 4666 
z
" transform="scale(0.015625)"/>
      </defs>
      <use xlink:href="#DejaVuSans-36"/>
      <use xlink:href="#DejaVuSans-37" transform="translate(63.623047 0)"/>
      <use xlink:href="#DejaVuSans-2e" transform="translate(127.246094 0)"/>
      <use xlink:href="#DejaVuSans-32" transform="translate(159.033203 0)"/>
     </g>
    </g>
   </g>
   <g id="text_29">
    <g clip-path="url(#pb8649da51a)">
     <!-- 67.2 -->
     <g transform="translate(101.046588 123.326303) rotate(-85.330926) scale(0.09 -0.09)">
      <use xlink:href="#DejaVuSans-36"/>
      <use xlink:href="#DejaVuSans-37" transform="translate(63.623047 0)"/>
      <use xlink:href="#DejaVuSans-2e" transform="translate(127.246094 0)"/>
      <use xlink:href="#DejaVuSans-32" transform="translate(159.033203 0)"/>
     </g>
    </g>
   </g>
   <g id="text_30">
    <g clip-path="url(#pb8649da51a)">
     <!-- 68.0 -->
     <g transform="translate(309.157386 123.661437) rotate(-271.951837) scale(0.09 -0.09)">
      <use xlink:href="#DejaVuSans-36"/>
      <use xlink:href="#DejaVuSans-38" transform="translate(63.623047 0)"/>
      <use xlink:href="#DejaVuSans-2e" transform="translate(127.246094 0)"/>
      <use xlink:href="#DejaVuSans-30" transform="translate(159.033203 0)"/>
     </g>
    </g>
   </g>
   <g id="text_31">
    <g clip-path="url(#pb8649da51a)">
     <!-- 68.0 -->
     <g transform="translate(102.520445 123.342455) rotate(-84.755574) scale(0.09 -0.09)">
      <use xlink:href="#DejaVuSans-36"/>
      <use xlink:href="#DejaVuSans-38" transform="translate(63.623047 0)"/>
      <use xlink:href="#DejaVuSans-2e" transform="translate(127.246094 0)"/>
      <use xlink:href="#DejaVuSans-30" transform="translate(159.033203 0)"/>
     </g>
    </g>
   </g>
   <g id="text_32">
    <g clip-path="url(#pb8649da51a)">
     <!-- 68.8 -->
     <g transform="translate(307.643716 123.672128) rotate(-272.167378) scale(0.09 -0.09)">
      <use xlink:href="#DejaVuSans-36"/>
      <use xlink:href="#DejaVuSans-38" transform="translate(63.623047 0)"/>
      <use xlink:href="#DejaVuSans-2e" transform="translate(127.246094 0)"/>
      <use xlink:href="#DejaVuSans-38" transform="translate(159.033203 0)"/>
     </g>
    </g>
   </g>
   <g id="text_33">
    <g clip-path="url(#pb8649da51a)">
     <!-- 68.8 -->
     <g transform="translate(103.994446 123.357534) rotate(-84.181912) scale(0.09 -0.09)">
      <use xlink:href="#DejaVuSans-36"/>
      <use xlink:href="#DejaVuSans-38" transform="translate(63.623047 0)"/>
      <use xlink:href="#DejaVuSans-2e" transform="translate(127.246094 0)"/>
      <use xlink:href="#DejaVuSans-38" transform="translate(159.033203 0)"/>
     </g>
    </g>
   </g>
   <g id="text_34">
    <g clip-path="url(#pb8649da51a)">
     <!-- 69.6 -->
     <g transform="translate(172.211084 35.259672) rotate(-339.8443) scale(0.09 -0.09)">
      <defs>
       <path id="DejaVuSans-39" d="M 703 97 
L 703 672 
Q 941 559 1184 500 
Q 1428 441 1663 441 
Q 2288 441 2617 861 
Q 2947 1281 2994 2138 
Q 2813 1869 2534 1725 
Q 2256 1581 1919 1581 
Q 1219 1581 811 2004 
Q 403 2428 403 3163 
Q 403 3881 828 4315 
Q 1253 4750 1959 4750 
Q 2769 4750 3195 4129 
Q 3622 3509 3622 2328 
Q 3622 1225 3098 567 
Q 2575 -91 1691 -91 
Q 1453 -91 1209 -44 
Q 966 3 703 97 
z
M 1959 2075 
Q 2384 2075 2632 2365 
Q 2881 2656 2881 3163 
Q 2881 3666 2632 3958 
Q 2384 4250 1959 4250 
Q 1534 4250 1286 3958 
Q 1038 3666 1038 3163 
Q 1038 2656 1286 2365 
Q 1534 2075 1959 2075 
z
" transform="scale(0.015625)"/>
      </defs>
      <use xlink:href="#DejaVuSans-36"/>
      <use xlink:href="#DejaVuSans-39" transform="translate(63.623047 0)"/>
      <use xlink:href="#DejaVuSans-2e" transform="translate(127.246094 0)"/>
      <use xlink:href="#DejaVuSans-36" transform="translate(159.033203 0)"/>
     </g>
    </g>
   </g>
   <g id="text_35">
    <g clip-path="url(#pb8649da51a)">
     <!-- 69.6 -->
     <g transform="translate(306.130099 123.682956) rotate(-272.382852) scale(0.09 -0.09)">
      <use xlink:href="#DejaVuSans-36"/>
      <use xlink:href="#DejaVuSans-39" transform="translate(63.623047 0)"/>
      <use xlink:href="#DejaVuSans-2e" transform="translate(127.246094 0)"/>
      <use xlink:href="#DejaVuSans-36" transform="translate(159.033203 0)"/>
     </g>
    </g>
   </g>
   <g id="text_36">
    <g clip-path="url(#pb8649da51a)">
     <!-- 69.6 -->
     <g transform="translate(100.19446 144.084753) rotate(-271.950121) scale(0.09 -0.09)">
      <use xlink:href="#DejaVuSans-36"/>
      <use xlink:href="#DejaVuSans-39" transform="translate(63.623047 0)"/>
      <use xlink:href="#DejaVuSans-2e" transform="translate(127.246094 0)"/>
      <use xlink:href="#DejaVuSans-36" transform="translate(159.033203 0)"/>
     </g>
    </g>
   </g>
   <g id="text_37">
    <g clip-path="url(#pb8649da51a)">
     <!-- 70.4 -->
     <g transform="translate(183.440006 43.043076) rotate(-26.275051) scale(0.09 -0.09)">
      <use xlink:href="#DejaVuSans-37"/>
      <use xlink:href="#DejaVuSans-30" transform="translate(63.623047 0)"/>
      <use xlink:href="#DejaVuSans-2e" transform="translate(127.246094 0)"/>
      <use xlink:href="#DejaVuSans-34" transform="translate(159.033203 0)"/>
     </g>
    </g>
   </g>
   <g id="text_38">
    <g clip-path="url(#pb8649da51a)">
     <!-- 70.4 -->
     <g transform="translate(304.616536 123.693921) rotate(-272.598255) scale(0.09 -0.09)">
      <use xlink:href="#DejaVuSans-37"/>
      <use xlink:href="#DejaVuSans-30" transform="translate(63.623047 0)"/>
      <use xlink:href="#DejaVuSans-2e" transform="translate(127.246094 0)"/>
      <use xlink:href="#DejaVuSans-34" transform="translate(159.033203 0)"/>
     </g>
    </g>
   </g>
   <g id="text_39">
    <g clip-path="url(#pb8649da51a)">
     <!-- 70.4 -->
     <g transform="translate(101.640767 144.09348) rotate(-272.126294) scale(0.09 -0.09)">
      <use xlink:href="#DejaVuSans-37"/>
      <use xlink:href="#DejaVuSans-30" transform="translate(63.623047 0)"/>
      <use xlink:href="#DejaVuSans-2e" transform="translate(127.246094 0)"/>
      <use xlink:href="#DejaVuSans-34" transform="translate(159.033203 0)"/>
     </g>
    </g>
   </g>
   <g id="text_40">
    <g clip-path="url(#pb8649da51a)">
     <!-- 71.2 -->
     <g transform="translate(305.887703 201.108983) rotate(-86.496114) scale(0.09 -0.09)">
      <use xlink:href="#DejaVuSans-37"/>
      <use xlink:href="#DejaVuSans-31" transform="translate(63.623047 0)"/>
      <use xlink:href="#DejaVuSans-2e" transform="translate(127.246094 0)"/>
      <use xlink:href="#DejaVuSans-32" transform="translate(159.033203 0)"/>
     </g>
    </g>
   </g>
   <g id="text_41">
    <g clip-path="url(#pb8649da51a)">
     <!-- 72.0 -->
     <g transform="translate(109.717538 114.78843) rotate(-71.360852) scale(0.09 -0.09)">
      <use xlink:href="#DejaVuSans-37"/>
      <use xlink:href="#DejaVuSans-32" transform="translate(63.623047 0)"/>
      <use xlink:href="#DejaVuSans-2e" transform="translate(127.246094 0)"/>
      <use xlink:href="#DejaVuSans-30" transform="translate(159.033203 0)"/>
     </g>
    </g>
   </g>
   <g id="text_42">
    <g clip-path="url(#pb8649da51a)">
     <!-- 72.8 -->
     <g transform="translate(104.553122 164.972036) rotate(-291.397119) scale(0.09 -0.09)">
      <use xlink:href="#DejaVuSans-37"/>
      <use xlink:href="#DejaVuSans-32" transform="translate(63.623047 0)"/>
      <use xlink:href="#DejaVuSans-2e" transform="translate(127.246094 0)"/>
      <use xlink:href="#DejaVuSans-38" transform="translate(159.033203 0)"/>
     </g>
    </g>
   </g>
   <g id="text_43">
    <g clip-path="url(#pb8649da51a)">
     <!-- 73.6 -->
     <g transform="translate(106.518038 146.51957) rotate(-279.171054) scale(0.09 -0.09)">
      <use xlink:href="#DejaVuSans-37"/>
      <use xlink:href="#DejaVuSans-33" transform="translate(63.623047 0)"/>
      <use xlink:href="#DejaVuSans-2e" transform="translate(127.246094 0)"/>
      <use xlink:href="#DejaVuSans-36" transform="translate(159.033203 0)"/>
     </g>
    </g>
   </g>
   <g id="text_44">
    <g clip-path="url(#pb8649da51a)">
     <!-- 74.4 -->
     <g transform="translate(229.505362 56.008371) rotate(-318.366119) scale(0.09 -0.09)">
      <use xlink:href="#DejaVuSans-37"/>
      <use xlink:href="#DejaVuSans-34" transform="translate(63.623047 0)"/>
      <use xlink:href="#DejaVuSans-2e" transform="translate(127.246094 0)"/>
      <use xlink:href="#DejaVuSans-34" transform="translate(159.033203 0)"/>
     </g>
    </g>
   </g>
   <g id="text_45">
    <g clip-path="url(#pb8649da51a)">
     <!-- 74.4 -->
     <g transform="translate(220.096905 175.24079) rotate(-4.628984) scale(0.09 -0.09)">
      <use xlink:href="#DejaVuSans-37"/>
      <use xlink:href="#DejaVuSans-34" transform="translate(63.623047 0)"/>
      <use xlink:href="#DejaVuSans-2e" transform="translate(127.246094 0)"/>
      <use xlink:href="#DejaVuSans-34" transform="translate(159.033203 0)"/>
     </g>
    </g>
   </g>
   <g id="text_46">
    <g clip-path="url(#pb8649da51a)">
     <!-- 74.4 -->
     <g transform="translate(195.739173 225.382905) rotate(-351.242657) scale(0.09 -0.09)">
      <use xlink:href="#DejaVuSans-37"/>
      <use xlink:href="#DejaVuSans-34" transform="translate(63.623047 0)"/>
      <use xlink:href="#DejaVuSans-2e" transform="translate(127.246094 0)"/>
      <use xlink:href="#DejaVuSans-34" transform="translate(159.033203 0)"/>
     </g>
    </g>
   </g>
   <g id="text_47">
    <g clip-path="url(#pb8649da51a)">
     <!-- 75.2 -->
     <g transform="translate(268.369398 195.449826) rotate(-12.548764) scale(0.09 -0.09)">
      <use xlink:href="#DejaVuSans-37"/>
      <use xlink:href="#DejaVuSans-35" transform="translate(63.623047 0)"/>
      <use xlink:href="#DejaVuSans-2e" transform="translate(127.246094 0)"/>
      <use xlink:href="#DejaVuSans-32" transform="translate(159.033203 0)"/>
     </g>
    </g>
   </g>
   <g id="text_48">
    <g clip-path="url(#pb8649da51a)">
     <!-- 75.2 -->
     <g transform="translate(163.506135 183.687264) rotate(-71.682246) scale(0.09 -0.09)">
      <use xlink:href="#DejaVuSans-37"/>
      <use xlink:href="#DejaVuSans-35" transform="translate(63.623047 0)"/>
      <use xlink:href="#DejaVuSans-2e" transform="translate(127.246094 0)"/>
      <use xlink:href="#DejaVuSans-32" transform="translate(159.033203 0)"/>
     </g>
    </g>
   </g>
   <g id="text_49">
    <g clip-path="url(#pb8649da51a)">
     <!-- 76.0 -->
     <g transform="translate(162.538386 107.642745) rotate(-313.916004) scale(0.09 -0.09)">
      <use xlink:href="#DejaVuSans-37"/>
      <use xlink:href="#DejaVuSans-36" transform="translate(63.623047 0)"/>
      <use xlink:href="#DejaVuSans-2e" transform="translate(127.246094 0)"/>
      <use xlink:href="#DejaVuSans-30" transform="translate(159.033203 0)"/>
     </g>
    </g>
   </g>
   <g id="text_50">
    <g clip-path="url(#pb8649da51a)">
     <!-- 76.0 -->
     <g transform="translate(124.17758 173.135181) rotate(-339.388825) scale(0.09 -0.09)">
      <use xlink:href="#DejaVuSans-37"/>
      <use xlink:href="#DejaVuSans-36" transform="translate(63.623047 0)"/>
      <use xlink:href="#DejaVuSans-2e" transform="translate(127.246094 0)"/>
      <use xlink:href="#DejaVuSans-30" transform="translate(159.033203 0)"/>
     </g>
    </g>
   </g>
  </g>
 </g>
 <defs>
  <clipPath id="pb8649da51a">
   <rect x="62.84" y="26.88" width="286.36" height="213.4"/>
  </clipPath>
 </defs>
</svg>
