<?xml version="1.0" encoding="utf-8" standalone="no"?>
<!DOCTYPE svg PUBLIC "-//W3C//DTD SVG 1.1//EN"
  "http://www.w3.org/Graphics/SVG/1.1/DTD/svg11.dtd">
<svg xmlns:xlink="http://www.w3.org/1999/xlink" width="360pt" height="288pt" viewBox="0 0 360 288" xmlns="http://www.w3.org/2000/svg" version="1.1">
 <metadata>
  <rdf:RDF xmlns:dc="http://purl.org/dc/elements/1.1/" xmlns:cc="http://creativecommons.org/ns#" xmlns:rdf="http://www.w3.org/1999/02/22-rdf-syntax-ns#">
   <cc:Work>
    <dc:type rdf:resource="http://purl.org/dc/dcmitype/StillImage"/>
    <dc:date>2025-10-02T17:14:43.940505</dc:date>
    <dc:format>image/svg+xml</dc:format>
    <dc:creator>
     <cc:Agent>
      <dc:title>Matplotlib v3.10.6, https://matplotlib.org/</dc:title>
     </cc:Agent>
    </dc:creator>
   </cc:Work>
  </rdf:RDF>
 </metadata>
 <defs>
  <style type="text/css">*{stroke-linejoin: round; stroke-linecap: butt}</style>
 </defs>
 <g id="figure_1">
  <g id="patch_1">
   <path d="M 0 288 
L 360 288 
L 360 0 
L 0 0 
z
" style="fill: #ffffff"/>
  </g>
  <g id="axes_1">
   <g id="patch_2">
    <path d="M 62.84 240.28 
L 349.2 240.28 
L 349.2 26.88 
L 62.84 26.88 
z
" style="fill: #ffffff"/>
   </g>
   <g id="QuadContourSet_1">
    <path d="M 86.703333 26.88 
L 88.368145 26.88 
L 88.212879 36.380776 
L 88.240251 47.600163 
L 87.942997 60.808896 
L 87.713073 76.198006 
L 87.805838 93.757994 
L 87.985843 113.137869 
L 88.003092 133.590571 
L 88.001488 154.013971 
L 88.087805 173.39493 
L 87.806982 190.956403 
L 87.709984 206.347113 
L 88.088984 219.557363 
L 88.190849 230.778089 
L 88.121033 240.28 
L 86.703333 240.28 
L 62.84 240.28 
L 62.84 230.778089 
L 62.84 219.557363 
L 62.84 206.347113 
L 62.84 190.956403 
L 62.84 173.39493 
L 62.84 154.013971 
L 62.84 133.590571 
L 62.84 113.137869 
L 62.84 93.757994 
L 62.84 76.198006 
L 62.84 60.808896 
L 62.84 47.600163 
L 62.84 36.380776 
L 62.84 26.88 
z
M 325.336667 26.88 
L 349.2 26.88 
L 349.2 36.380776 
L 349.2 47.600163 
L 349.2 60.808896 
L 349.2 76.198006 
L 349.2 93.757994 
L 349.2 113.137869 
L 349.2 133.590571 
L 349.2 154.013971 
L 349.2 173.39493 
L 349.2 190.956403 
L 349.2 206.347113 
L 349.2 219.557363 
L 349.2 230.778089 
L 349.2 240.28 
L 325.336667 240.28 
L 324.096727 240.28 
L 324.058505 230.778089 
L 324.250474 219.557363 
L 324.31373 206.347113 
L 324.264502 190.956403 
L 324.263181 173.39493 
L 324.39351 154.013971 
L 324.331409 133.590571 
L 324.327299 113.137869 
L 324.415891 93.757994 
L 324.413873 76.198006 
L 324.379161 60.808896 
L 324.333997 47.600163 
L 324.202565 36.380776 
L 324.186804 26.88 
z
" clip-path="url(#p25ebdc6a48)" style="fill: #460b5e"/>
    <path d="M 91.097914 36.380776 
L 91.177597 47.600163 
L 90.312233 60.808896 
L 89.64288 76.198006 
L 89.912936 93.757994 
L 90.436966 113.137869 
L 90.487183 133.590571 
L 90.482513 154.013971 
L 90.733797 173.39493 
L 89.916268 190.956403 
L 89.633888 206.347113 
L 90.737231 219.557363 
L 91.03378 230.778089 
L 90.830532 240.28 
L 88.121033 240.28 
L 88.190849 230.778089 
L 88.088984 219.557363 
L 87.709984 206.347113 
L 87.806982 190.956403 
L 88.087805 173.39493 
L 88.001488 154.013971 
L 88.003092 133.590571 
L 87.985843 113.137869 
L 87.805838 93.757994 
L 87.713073 76.198006 
L 87.942997 60.808896 
L 88.240251 47.600163 
L 88.212879 36.380776 
L 88.368145 26.88 
L 91.549923 26.88 
z
M 324.202565 36.380776 
L 324.333997 47.600163 
L 324.379161 60.808896 
L 324.413873 76.198006 
L 324.415891 93.757994 
L 324.327299 113.137869 
L 324.331409 133.590571 
L 324.39351 154.013971 
L 324.263181 173.39493 
L 324.264502 190.956403 
L 324.31373 206.347113 
L 324.250474 219.557363 
L 324.058505 230.778089 
L 324.096727 240.28 
L 321.726961 240.28 
L 321.61569 230.778089 
L 322.174551 219.557363 
L 322.3587 206.347113 
L 322.215387 190.956403 
L 322.211544 173.39493 
L 322.590956 154.013971 
L 322.410168 133.590571 
L 322.398202 113.137869 
L 322.656112 93.757994 
L 322.650236 76.198006 
L 322.549182 60.808896 
L 322.417702 47.600163 
L 322.035079 36.380776 
L 321.989193 26.88 
L 324.186804 26.88 
z
" clip-path="url(#p25ebdc6a48)" style="fill: #481f70"/>
    <path d="M 93.982948 36.380776 
L 94.114943 47.600163 
L 92.68147 60.808896 
L 91.572688 76.198006 
L 92.020035 93.757994 
L 92.88809 113.137869 
L 92.971274 133.590571 
L 92.963538 154.013971 
L 93.379789 173.39493 
L 92.025555 190.956403 
L 91.557793 206.347113 
L 93.385478 219.557363 
L 93.876711 230.778089 
L 93.540031 240.28 
L 90.830532 240.28 
L 91.03378 230.778089 
L 90.737231 219.557363 
L 89.633888 206.347113 
L 89.916268 190.956403 
L 90.733797 173.39493 
L 90.482513 154.013971 
L 90.487183 133.590571 
L 90.436966 113.137869 
L 89.912936 93.757994 
L 89.64288 76.198006 
L 90.312233 60.808896 
L 91.177597 47.600163 
L 91.097914 36.380776 
L 91.549923 26.88 
L 94.731701 26.88 
z
M 322.035079 36.380776 
L 322.417702 47.600163 
L 322.549182 60.808896 
L 322.650236 76.198006 
L 322.656112 93.757994 
L 322.398202 113.137869 
L 322.410168 133.590571 
L 322.590956 154.013971 
L 322.211544 173.39493 
L 322.215387 190.956403 
L 322.3587 206.347113 
L 322.174551 219.557363 
L 321.61569 230.778089 
L 321.726961 240.28 
L 319.357196 240.28 
L 319.172875 230.778089 
L 320.098628 219.557363 
L 320.40367 206.347113 
L 320.166272 190.956403 
L 320.159906 173.39493 
L 320.788402 154.013971 
L 320.488927 133.590571 
L 320.469106 113.137869 
L 320.896332 93.757994 
L 320.8866 76.198006 
L 320.719203 60.808896 
L 320.501407 47.600163 
L 319.867592 36.380776 
L 319.791583 26.88 
L 321.989193 26.88 
z
" clip-path="url(#p25ebdc6a48)" style="fill: #46307e"/>
    <path d="M 96.867983 36.380776 
L 97.052289 47.600163 
L 95.050706 60.808896 
L 93.502495 76.198006 
L 94.127134 93.757994 
L 95.339213 113.137869 
L 95.455364 133.590571 
L 95.444563 154.013971 
L 96.025781 173.39493 
L 94.134841 190.956403 
L 93.481697 206.347113 
L 96.033725 219.557363 
L 96.719642 230.778089 
L 96.24953 240.28 
L 93.540031 240.28 
L 93.876711 230.778089 
L 93.385478 219.557363 
L 91.557793 206.347113 
L 92.025555 190.956403 
L 93.379789 173.39493 
L 92.963538 154.013971 
L 92.971274 133.590571 
L 92.88809 113.137869 
L 92.020035 93.757994 
L 91.572688 76.198006 
L 92.68147 60.808896 
L 94.114943 47.600163 
L 93.982948 36.380776 
L 94.731701 26.88 
L 97.913479 26.88 
z
M 319.867592 36.380776 
L 320.501407 47.600163 
L 320.719203 60.808896 
L 320.8866 76.198006 
L 320.896332 93.757994 
L 320.469106 113.137869 
L 320.488927 133.590571 
L 320.788402 154.013971 
L 320.159906 173.39493 
L 320.166272 190.956403 
L 320.40367 206.347113 
L 320.098628 219.557363 
L 319.172875 230.778089 
L 319.357196 240.28 
L 316.987431 240.28 
L 316.73006 230.778089 
L 318.022705 219.557363 
L 318.44864 206.347113 
L 318.117157 190.956403 
L 318.108268 173.39493 
L 318.985848 154.013971 
L 318.567686 133.590571 
L 318.540009 113.137869 
L 319.136552 93.757994 
L 319.122963 76.198006 
L 318.889224 60.808896 
L 318.585112 47.600163 
L 317.700105 36.380776 
L 317.593973 26.88 
L 319.791583 26.88 
z
" clip-path="url(#p25ebdc6a48)" style="fill: #424186"/>
    <path d="M 99.753017 36.380776 
L 99.989635 47.600163 
L 97.419943 60.808896 
L 95.432303 76.198006 
L 96.234232 93.757994 
L 97.790337 113.137869 
L 97.939455 133.590571 
L 97.925587 154.013971 
L 98.671773 173.39493 
L 96.244127 190.956403 
L 95.405601 206.347113 
L 98.681972 219.557363 
L 99.562573 230.778089 
L 98.959028 240.28 
L 96.24953 240.28 
L 96.719642 230.778089 
L 96.033725 219.557363 
L 93.481697 206.347113 
L 94.134841 190.956403 
L 96.025781 173.39493 
L 95.444563 154.013971 
L 95.455364 133.590571 
L 95.339213 113.137869 
L 94.127134 93.757994 
L 93.502495 76.198006 
L 95.050706 60.808896 
L 97.052289 47.600163 
L 96.867983 36.380776 
L 97.913479 26.88 
L 101.095257 26.88 
z
M 317.700105 36.380776 
L 318.585112 47.600163 
L 318.889224 60.808896 
L 319.122963 76.198006 
L 319.136552 93.757994 
L 318.540009 113.137869 
L 318.567686 133.590571 
L 318.985848 154.013971 
L 318.108268 173.39493 
L 318.117157 190.956403 
L 318.44864 206.347113 
L 318.022705 219.557363 
L 316.73006 230.778089 
L 316.987431 240.28 
L 314.617665 240.28 
L 314.287245 230.778089 
L 315.946781 219.557363 
L 316.49361 206.347113 
L 316.068042 190.956403 
L 316.05663 173.39493 
L 317.183294 154.013971 
L 316.646445 133.590571 
L 316.610912 113.137869 
L 317.376772 93.757994 
L 317.359326 76.198006 
L 317.059245 60.808896 
L 316.668817 47.600163 
L 315.532619 36.380776 
L 315.396362 26.88 
L 317.593973 26.88 
z
" clip-path="url(#p25ebdc6a48)" style="fill: #3b518b"/>
    <path d="M 102.638052 36.380776 
L 102.926981 47.600163 
L 99.789179 60.808896 
L 97.36211 76.198006 
L 98.341331 93.757994 
L 100.24146 113.137869 
L 100.423546 133.590571 
L 100.406612 154.013971 
L 101.317765 173.39493 
L 98.353414 190.956403 
L 97.329505 206.347113 
L 101.330219 219.557363 
L 102.405504 230.778089 
L 101.668527 240.28 
L 98.959028 240.28 
L 99.562573 230.778089 
L 98.681972 219.557363 
L 95.405601 206.347113 
L 96.244127 190.956403 
L 98.671773 173.39493 
L 97.925587 154.013971 
L 97.939455 133.590571 
L 97.790337 113.137869 
L 96.234232 93.757994 
L 95.432303 76.198006 
L 97.419943 60.808896 
L 99.989635 47.600163 
L 99.753017 36.380776 
L 101.095257 26.88 
L 104.277034 26.88 
z
M 315.532619 36.380776 
L 316.668817 47.600163 
L 317.059245 60.808896 
L 317.359326 76.198006 
L 317.376772 93.757994 
L 316.610912 113.137869 
L 316.646445 133.590571 
L 317.183294 154.013971 
L 316.05663 173.39493 
L 316.068042 190.956403 
L 316.49361 206.347113 
L 315.946781 219.557363 
L 314.287245 230.778089 
L 314.617665 240.28 
L 312.2479 240.28 
L 311.84443 230.778089 
L 313.870858 219.557363 
L 314.53858 206.347113 
L 314.018927 190.956403 
L 314.004992 173.39493 
L 315.38074 154.013971 
L 314.725205 133.590571 
L 314.681815 113.137869 
L 315.616993 93.757994 
L 315.595689 76.198006 
L 315.229266 60.808896 
L 314.752522 47.600163 
L 313.365132 36.380776 
L 313.198752 26.88 
L 315.396362 26.88 
z
" clip-path="url(#p25ebdc6a48)" style="fill: #34618d"/>
    <path d="M 105.523086 36.380776 
L 105.864327 47.600163 
L 102.158416 60.808896 
L 99.291917 76.198006 
L 100.44843 93.757994 
L 102.692584 113.137869 
L 102.907636 133.590571 
L 102.887637 154.013971 
L 103.963757 173.39493 
L 100.4627 190.956403 
L 99.25341 206.347113 
L 103.978466 219.557363 
L 105.248435 230.778089 
L 104.378026 240.28 
L 101.668527 240.28 
L 102.405504 230.778089 
L 101.330219 219.557363 
L 97.329505 206.347113 
L 98.353414 190.956403 
L 101.317765 173.39493 
L 100.406612 154.013971 
L 100.423546 133.590571 
L 100.24146 113.137869 
L 98.341331 93.757994 
L 97.36211 76.198006 
L 99.789179 60.808896 
L 102.926981 47.600163 
L 102.638052 36.380776 
L 104.277034 26.88 
L 107.458812 26.88 
z
M 313.365132 36.380776 
L 314.752522 47.600163 
L 315.229266 60.808896 
L 315.595689 76.198006 
L 315.616993 93.757994 
L 314.681815 113.137869 
L 314.725205 133.590571 
L 315.38074 154.013971 
L 314.004992 173.39493 
L 314.018927 190.956403 
L 314.53858 206.347113 
L 313.870858 219.557363 
L 311.84443 230.778089 
L 312.2479 240.28 
L 309.878135 240.28 
L 309.401615 230.778089 
L 311.794935 219.557363 
L 312.58355 206.347113 
L 311.969812 190.956403 
L 311.953354 173.39493 
L 313.578186 154.013971 
L 312.803964 133.590571 
L 312.752719 113.137869 
L 313.857213 93.757994 
L 313.832053 76.198006 
L 313.399287 60.808896 
L 312.836226 47.600163 
L 311.197645 36.380776 
L 311.001141 26.88 
L 313.198752 26.88 
z
" clip-path="url(#p25ebdc6a48)" style="fill: #2e6f8e"/>
    <path d="M 110.566667 26.88 
L 110.688121 26.88 
L 110.566667 27.16614 
L 108.408121 36.380776 
L 108.801673 47.600163 
L 104.527652 60.808896 
L 101.221725 76.198006 
L 102.555529 93.757994 
L 105.143707 113.137869 
L 105.391727 133.590571 
L 105.368662 154.013971 
L 106.60975 173.39493 
L 102.571986 190.956403 
L 101.177314 206.347113 
L 106.626713 219.557363 
L 108.091366 230.778089 
L 107.087525 240.28 
L 104.378026 240.28 
L 105.248435 230.778089 
L 103.978466 219.557363 
L 99.25341 206.347113 
L 100.4627 190.956403 
L 103.963757 173.39493 
L 102.887637 154.013971 
L 102.907636 133.590571 
L 102.692584 113.137869 
L 100.44843 93.757994 
L 99.291917 76.198006 
L 102.158416 60.808896 
L 105.864327 47.600163 
L 105.523086 36.380776 
L 107.458812 26.88 
z
M 311.197645 36.380776 
L 312.836226 47.600163 
L 313.399287 60.808896 
L 313.832053 76.198006 
L 313.857213 93.757994 
L 312.752719 113.137869 
L 312.803964 133.590571 
L 313.578186 154.013971 
L 311.953354 173.39493 
L 311.969812 190.956403 
L 312.58355 206.347113 
L 311.794935 219.557363 
L 309.401615 230.778089 
L 309.878135 240.28 
L 307.508369 240.28 
L 306.958801 230.778089 
L 309.719012 219.557363 
L 310.62852 206.347113 
L 309.920698 190.956403 
L 309.901716 173.39493 
L 311.775632 154.013971 
L 310.882723 133.590571 
L 310.823622 113.137869 
L 312.097433 93.757994 
L 312.068416 76.198006 
L 311.569308 60.808896 
L 310.919931 47.600163 
L 309.030159 36.380776 
L 308.803531 26.88 
L 311.001141 26.88 
z
" clip-path="url(#p25ebdc6a48)" style="fill: #287c8e"/>
    <path d="M 110.566667 27.16614 
L 110.688121 26.88 
L 115.915707 26.88 
L 111.897679 36.380776 
L 113.025004 47.600163 
L 110.566667 50.306392 
L 106.896889 60.808896 
L 103.151532 76.198006 
L 104.662627 93.757994 
L 107.59483 113.137869 
L 107.875818 133.590571 
L 107.849687 154.013971 
L 109.255742 173.39493 
L 104.681273 190.956403 
L 103.101218 206.347113 
L 109.274959 219.557363 
L 110.566667 228.426673 
L 111.244947 230.778089 
L 110.566667 233.750575 
L 109.797024 240.28 
L 107.087525 240.28 
L 108.091366 230.778089 
L 106.626713 219.557363 
L 101.177314 206.347113 
L 102.571986 190.956403 
L 106.60975 173.39493 
L 105.368662 154.013971 
L 105.391727 133.590571 
L 105.143707 113.137869 
L 102.555529 93.757994 
L 101.221725 76.198006 
L 104.527652 60.808896 
L 108.801673 47.600163 
L 108.408121 36.380776 
z
M 309.030159 36.380776 
L 310.919931 47.600163 
L 311.569308 60.808896 
L 312.068416 76.198006 
L 312.097433 93.757994 
L 310.823622 113.137869 
L 310.882723 133.590571 
L 311.775632 154.013971 
L 309.901716 173.39493 
L 309.920698 190.956403 
L 310.62852 206.347113 
L 309.719012 219.557363 
L 306.958801 230.778089 
L 307.508369 240.28 
L 305.138604 240.28 
L 304.515986 230.778089 
L 307.643088 219.557363 
L 308.673491 206.347113 
L 307.871583 190.956403 
L 307.850078 173.39493 
L 309.973078 154.013971 
L 308.961482 133.590571 
L 308.894525 113.137869 
L 310.337653 93.757994 
L 310.304779 76.198006 
L 309.73933 60.808896 
L 309.003636 47.600163 
L 306.862672 36.380776 
L 306.605921 26.88 
L 308.803531 26.88 
z
" clip-path="url(#p25ebdc6a48)" style="fill: #23898e"/>
    <path d="M 117.183401 36.380776 
L 119.184405 47.600163 
L 110.566667 57.086888 
L 109.266125 60.808896 
L 105.08134 76.198006 
L 106.769726 93.757994 
L 110.045954 113.137869 
L 110.359909 133.590571 
L 110.330711 154.013971 
L 110.566667 157.087692 
L 113.164794 173.39493 
L 110.566667 177.256218 
L 106.790559 190.956403 
L 105.025123 206.347113 
L 110.566667 217.562781 
L 113.904557 219.557363 
L 116.490169 230.778089 
L 114.893634 240.28 
L 110.566667 240.28 
L 109.797024 240.28 
L 110.566667 233.750575 
L 111.244947 230.778089 
L 110.566667 228.426673 
L 109.274959 219.557363 
L 103.101218 206.347113 
L 104.681273 190.956403 
L 109.255742 173.39493 
L 107.849687 154.013971 
L 107.875818 133.590571 
L 107.59483 113.137869 
L 104.662627 93.757994 
L 103.151532 76.198006 
L 106.896889 60.808896 
L 110.566667 50.306392 
L 113.025004 47.600163 
L 111.897679 36.380776 
L 115.915707 26.88 
L 121.143293 26.88 
z
M 306.862672 36.380776 
L 309.003636 47.600163 
L 309.73933 60.808896 
L 310.304779 76.198006 
L 310.337653 93.757994 
L 308.894525 113.137869 
L 308.961482 133.590571 
L 309.973078 154.013971 
L 307.850078 173.39493 
L 307.871583 190.956403 
L 308.673491 206.347113 
L 307.643088 219.557363 
L 304.515986 230.778089 
L 305.138604 240.28 
L 302.768839 240.28 
L 302.073171 230.778089 
L 305.567165 219.557363 
L 306.718461 206.347113 
L 305.822468 190.956403 
L 305.79844 173.39493 
L 308.170524 154.013971 
L 307.040241 133.590571 
L 306.965429 113.137869 
L 308.577874 93.757994 
L 308.541142 76.198006 
L 307.909351 60.808896 
L 307.087341 47.600163 
L 304.695185 36.380776 
L 304.40831 26.88 
L 306.605921 26.88 
z
M 206.02 240.19726 
L 206.091001 240.28 
L 206.02 240.28 
L 205.01561 240.28 
z
" clip-path="url(#p25ebdc6a48)" style="fill: #1f978b"/>
    <path d="M 122.469124 36.380776 
L 125.343806 47.600163 
L 114.76518 60.808896 
L 110.566667 63.83554 
L 107.011147 76.198006 
L 108.876825 93.757994 
L 110.566667 103.535801 
L 114.584098 113.137869 
L 116.399628 133.590571 
L 115.757534 154.013971 
L 118.314067 173.39493 
L 110.566667 184.908969 
L 108.899845 190.956403 
L 106.949027 206.347113 
L 110.566667 213.668943 
L 120.420811 219.557363 
L 121.73539 230.778089 
L 120.937337 240.28 
L 114.893634 240.28 
L 116.490169 230.778089 
L 113.904557 219.557363 
L 110.566667 217.562781 
L 105.025123 206.347113 
L 106.790559 190.956403 
L 110.566667 177.256218 
L 113.164794 173.39493 
L 110.566667 157.087692 
L 110.330711 154.013971 
L 110.359909 133.590571 
L 110.045954 113.137869 
L 106.769726 93.757994 
L 105.08134 76.198006 
L 109.266125 60.808896 
L 110.566667 57.086888 
L 119.184405 47.600163 
L 117.183401 36.380776 
L 121.143293 26.88 
L 126.370879 26.88 
z
M 304.695185 36.380776 
L 307.087341 47.600163 
L 307.909351 60.808896 
L 308.541142 76.198006 
L 308.577874 93.757994 
L 306.965429 113.137869 
L 307.040241 133.590571 
L 308.170524 154.013971 
L 305.79844 173.39493 
L 305.822468 190.956403 
L 306.718461 206.347113 
L 305.567165 219.557363 
L 302.073171 230.778089 
L 302.768839 240.28 
L 301.473333 240.28 
L 294.963358 240.28 
L 288.594666 230.778089 
L 301.473333 225.874846 
L 303.491242 219.557363 
L 304.763431 206.347113 
L 303.773353 190.956403 
L 303.746803 173.39493 
L 306.36797 154.013971 
L 305.119 133.590571 
L 305.036332 113.137869 
L 306.818094 93.757994 
L 306.777505 76.198006 
L 306.079372 60.808896 
L 305.171046 47.600163 
L 302.527699 36.380776 
L 302.2107 26.88 
L 304.40831 26.88 
z
M 182.156667 72.15907 
L 206.02 76.128794 
L 206.075835 76.198006 
L 206.02 76.278493 
L 188.192273 93.757994 
L 182.156667 97.439478 
L 176.388141 93.757994 
L 176.038503 76.198006 
z
M 253.746667 202.454572 
L 264.094504 206.347113 
L 253.746667 214.017617 
L 247.491091 206.347113 
z
M 182.156667 232.492412 
L 206.02 233.000464 
L 212.26674 240.28 
L 206.091001 240.28 
L 206.02 240.19726 
L 205.01561 240.28 
L 182.156667 240.28 
L 167.957408 240.28 
z
" clip-path="url(#p25ebdc6a48)" style="fill: #20a486"/>
    <path d="M 127.754846 36.380776 
L 131.503207 47.600163 
L 124.073047 60.808896 
L 110.566667 70.54544 
L 108.940955 76.198006 
L 110.566667 90.415865 
L 114.706487 93.757994 
L 119.685198 113.137869 
L 122.762162 133.590571 
L 121.493958 154.013971 
L 123.463339 173.39493 
L 134.43 186.981795 
L 142.315116 190.956403 
L 134.43 197.455314 
L 110.566667 193.917975 
L 108.872931 206.347113 
L 110.566667 209.775106 
L 126.937065 219.557363 
L 126.980612 230.778089 
L 126.98104 240.28 
L 120.937337 240.28 
L 121.73539 230.778089 
L 120.420811 219.557363 
L 110.566667 213.668943 
L 106.949027 206.347113 
L 108.899845 190.956403 
L 110.566667 184.908969 
L 118.314067 173.39493 
L 115.757534 154.013971 
L 116.399628 133.590571 
L 114.584098 113.137869 
L 110.566667 103.535801 
L 108.876825 93.757994 
L 107.011147 76.198006 
L 110.566667 63.83554 
L 114.76518 60.808896 
L 125.343806 47.600163 
L 122.469124 36.380776 
L 126.370879 26.88 
L 131.598465 26.88 
z
M 253.746667 30.250649 
L 262.399772 36.380776 
L 253.746667 39.174177 
L 235.376335 36.380776 
z
M 301.473333 26.88 
L 302.2107 26.88 
L 302.527699 36.380776 
L 305.171046 47.600163 
L 306.079372 60.808896 
L 306.777505 76.198006 
L 306.818094 93.757994 
L 305.036332 113.137869 
L 305.119 133.590571 
L 306.36797 154.013971 
L 303.746803 173.39493 
L 303.773353 190.956403 
L 304.763431 206.347113 
L 303.491242 219.557363 
L 301.473333 225.874846 
L 288.594666 230.778089 
L 294.963358 240.28 
L 280.602668 240.28 
L 277.61 236.774707 
L 270.791962 230.778089 
L 277.61 221.886877 
L 295.977745 219.557363 
L 301.473333 219.038 
L 302.808401 206.347113 
L 301.724238 190.956403 
L 301.695165 173.39493 
L 304.565416 154.013971 
L 303.197759 133.590571 
L 303.107235 113.137869 
L 305.058314 93.757994 
L 305.013869 76.198006 
L 304.249393 60.808896 
L 303.254751 47.600163 
L 301.473333 40.373211 
L 294.208943 36.380776 
L 297.660725 26.88 
z
M 158.293333 43.684919 
L 172.506803 47.600163 
L 170.856902 60.808896 
L 182.156667 65.991347 
L 206.02 69.364469 
L 211.532704 76.198006 
L 206.02 84.144705 
L 196.215195 93.757994 
L 182.156667 102.333146 
L 168.720241 93.757994 
L 166.695664 76.198006 
L 158.293333 68.649895 
L 147.402026 60.808896 
L 142.483692 47.600163 
z
M 176.038503 76.198006 
L 176.388141 93.757994 
L 182.156667 97.439478 
L 188.192273 93.757994 
L 206.02 76.278493 
L 206.075835 76.198006 
L 206.02 76.128794 
L 182.156667 72.15907 
z
M 229.883333 39.667707 
L 234.490142 47.600163 
L 229.883333 55.292625 
L 219.156668 47.600163 
z
M 277.61 165.432627 
L 298.319221 173.39493 
L 297.80907 190.956403 
L 277.61 202.861653 
L 275.379893 206.347113 
L 272.440693 219.557363 
L 253.746667 222.641184 
L 239.792342 219.557363 
L 240.668737 206.347113 
L 253.746667 198.209354 
L 270.852153 190.956403 
L 270.11971 173.39493 
z
M 247.491091 206.347113 
L 253.746667 214.017617 
L 264.094504 206.347113 
L 253.746667 202.454572 
z
M 158.293333 205.702326 
L 159.359363 206.347113 
L 158.293333 207.585653 
L 156.841909 206.347113 
z
M 182.156667 223.329038 
L 206.02 224.316079 
L 211.371937 230.778089 
L 218.442479 240.28 
L 212.26674 240.28 
L 206.02 233.000464 
L 182.156667 232.492412 
L 167.957408 240.28 
L 158.293333 240.28 
L 151.431169 240.28 
L 158.293333 238.087196 
L 174.148934 230.778089 
z
" clip-path="url(#p25ebdc6a48)" style="fill: #2cb17e"/>
    <path d="M 134.43 26.88 
L 146.950324 26.88 
L 134.43 32.917967 
L 133.040569 36.380776 
L 134.43 40.124868 
L 158.293333 39.487539 
L 180.760346 36.380776 
L 165.467797 26.88 
L 182.156667 26.88 
L 188.51052 26.88 
L 182.943707 36.380776 
L 206.02 44.98461 
L 220.996207 36.380776 
L 229.883333 29.648184 
L 238.046501 26.88 
L 253.746667 26.88 
L 258.576171 26.88 
L 275.361663 36.380776 
L 277.61 39.944394 
L 280.063613 36.380776 
L 291.922897 26.88 
L 297.660725 26.88 
L 294.208943 36.380776 
L 301.473333 40.373211 
L 303.254751 47.600163 
L 304.249393 60.808896 
L 305.013869 76.198006 
L 305.058314 93.757994 
L 303.107235 113.137869 
L 303.197759 133.590571 
L 304.565416 154.013971 
L 301.695165 173.39493 
L 301.724238 190.956403 
L 302.808401 206.347113 
L 301.473333 219.038 
L 295.977745 219.557363 
L 277.61 221.886877 
L 270.791962 230.778089 
L 277.61 236.774707 
L 280.602668 240.28 
L 277.61 240.28 
L 253.746667 240.28 
L 245.155224 240.28 
L 252.01631 230.778089 
L 229.883333 223.522868 
L 219.114908 230.778089 
L 224.618218 240.28 
L 218.442479 240.28 
L 211.371937 230.778089 
L 206.02 224.316079 
L 182.156667 223.329038 
L 174.148934 230.778089 
L 158.293333 238.087196 
L 151.431169 240.28 
L 137.637294 240.28 
L 158.293333 233.679365 
L 164.587053 230.778089 
L 158.293333 224.210854 
L 140.233682 219.557363 
L 134.43 212.901127 
L 133.453319 219.557363 
L 132.225834 230.778089 
L 133.024744 240.28 
L 126.98104 240.28 
L 126.980612 230.778089 
L 126.937065 219.557363 
L 110.566667 209.775106 
L 108.872931 206.347113 
L 110.566667 193.917975 
L 134.43 197.455314 
L 142.315116 190.956403 
L 134.43 186.981795 
L 123.463339 173.39493 
L 121.493958 154.013971 
L 122.762162 133.590571 
L 119.685198 113.137869 
L 114.706487 93.757994 
L 110.566667 90.415865 
L 108.940955 76.198006 
L 110.566667 70.54544 
L 124.073047 60.808896 
L 131.503207 47.600163 
L 127.754846 36.380776 
L 131.598465 26.88 
z
M 235.376335 36.380776 
L 253.746667 39.174177 
L 262.399772 36.380776 
L 253.746667 30.250649 
z
M 142.483692 47.600163 
L 147.402026 60.808896 
L 158.293333 68.649895 
L 166.695664 76.198006 
L 168.720241 93.757994 
L 182.156667 102.333146 
L 196.215195 93.757994 
L 206.02 84.144705 
L 211.532704 76.198006 
L 206.02 69.364469 
L 182.156667 65.991347 
L 170.856902 60.808896 
L 172.506803 47.600163 
L 158.293333 43.684919 
z
M 219.156668 47.600163 
L 229.883333 55.292625 
L 234.490142 47.600163 
L 229.883333 39.667707 
z
M 244.052981 47.600163 
L 242.090779 60.808896 
L 229.883333 64.147156 
L 216.989574 76.198006 
L 206.02 92.010916 
L 204.238117 93.757994 
L 182.156667 107.226814 
L 161.052341 93.757994 
L 158.293333 80.036831 
L 137.670829 93.757994 
L 134.43 94.320806 
L 124.786299 113.137869 
L 129.124695 133.590571 
L 127.230382 154.013971 
L 128.612612 173.39493 
L 134.43 180.602235 
L 154.971353 190.956403 
L 158.293333 194.022181 
L 178.670203 206.347113 
L 182.156667 209.499789 
L 206.02 212.229906 
L 229.883333 212.069377 
L 233.846383 206.347113 
L 253.746667 193.964135 
L 260.840156 190.956403 
L 259.568801 173.39493 
L 277.61 154.216834 
L 301.473333 162.640383 
L 302.762862 154.013971 
L 301.473333 136.148816 
L 300.409408 133.590571 
L 299.826873 113.137869 
L 301.473333 110.646222 
L 303.298534 93.757994 
L 303.250232 76.198006 
L 302.419414 60.808896 
L 301.473333 49.182955 
L 277.61 50.062499 
L 271.195584 47.600163 
L 253.746667 43.358543 
z
M 133.380915 60.808896 
L 134.43 62.804172 
L 135.743974 60.808896 
L 134.43 58.473728 
z
M 191.135677 60.808896 
L 206.02 62.600144 
L 212.893547 60.808896 
L 206.02 55.625715 
z
M 270.11971 173.39493 
L 270.852153 190.956403 
L 253.746667 198.209354 
L 240.668737 206.347113 
L 239.792342 219.557363 
L 253.746667 222.641184 
L 272.440693 219.557363 
L 275.379893 206.347113 
L 277.61 202.861653 
L 297.80907 190.956403 
L 298.319221 173.39493 
L 277.61 165.432627 
z
M 156.841909 206.347113 
L 158.293333 207.585653 
L 159.359363 206.347113 
L 158.293333 205.702326 
z
M 253.746667 78.408125 
L 266.134729 93.757994 
L 259.673951 113.137869 
L 255.150089 133.590571 
L 253.746667 134.855237 
L 253.106577 133.590571 
L 249.897558 113.137869 
L 250.217814 93.757994 
z
" clip-path="url(#p25ebdc6a48)" style="fill: #40bd72"/>
    <path d="M 134.43 32.917967 
L 146.950324 26.88 
L 158.293333 26.88 
L 165.467797 26.88 
L 180.760346 36.380776 
L 158.293333 39.487539 
L 134.43 40.124868 
L 133.040569 36.380776 
z
M 200.052817 36.380776 
L 206.02 38.605598 
L 209.892622 36.380776 
L 223.02009 26.88 
L 229.883333 26.88 
L 238.046501 26.88 
L 229.883333 29.648184 
L 220.996207 36.380776 
L 206.02 44.98461 
L 182.943707 36.380776 
L 188.51052 26.88 
L 195.088493 26.88 
z
M 277.61 32.997441 
L 286.185069 26.88 
L 291.922897 26.88 
L 280.063613 36.380776 
L 277.61 39.944394 
L 275.361663 36.380776 
L 258.576171 26.88 
L 266.20655 26.88 
z
M 253.746667 43.358543 
L 271.195584 47.600163 
L 277.61 50.062499 
L 301.473333 49.182955 
L 302.419414 60.808896 
L 303.250232 76.198006 
L 303.298534 93.757994 
L 301.473333 110.646222 
L 299.826873 113.137869 
L 300.409408 133.590571 
L 301.473333 136.148816 
L 302.762862 154.013971 
L 301.473333 162.640383 
L 277.61 154.216834 
L 259.568801 173.39493 
L 260.840156 190.956403 
L 253.746667 193.964135 
L 233.846383 206.347113 
L 229.883333 212.069377 
L 206.02 212.229906 
L 182.156667 209.499789 
L 178.670203 206.347113 
L 158.293333 194.022181 
L 154.971353 190.956403 
L 134.43 180.602235 
L 128.612612 173.39493 
L 127.230382 154.013971 
L 129.124695 133.590571 
L 124.786299 113.137869 
L 134.43 94.320806 
L 137.670829 93.757994 
L 158.293333 80.036831 
L 161.052341 93.757994 
L 182.156667 107.226814 
L 204.238117 93.757994 
L 206.02 92.010916 
L 216.989574 76.198006 
L 229.883333 64.147156 
L 242.090779 60.808896 
L 244.052981 47.600163 
z
M 253.615821 47.600163 
L 253.746667 48.065112 
L 253.982193 47.600163 
L 253.746667 47.542909 
z
M 262.684065 60.808896 
L 277.61 66.788835 
L 291.083077 60.808896 
L 277.61 56.670296 
z
M 222.446443 76.198006 
L 211.286863 93.757994 
L 206.02 98.279192 
L 182.156667 112.120482 
L 170.200732 113.137869 
L 158.293333 115.291384 
L 153.791551 113.137869 
L 134.43 104.274219 
L 129.8874 113.137869 
L 134.43 130.374344 
L 136.489245 133.590571 
L 134.43 141.646987 
L 132.966806 154.013971 
L 133.761884 173.39493 
L 134.43 174.222675 
L 158.293333 173.960541 
L 182.156667 188.759731 
L 206.02 189.706809 
L 229.883333 177.700188 
L 231.033232 173.39493 
L 253.746667 167.703719 
L 266.235322 154.013971 
L 277.61 144.803037 
L 290.023768 133.590571 
L 289.067264 113.137869 
L 277.61 99.027986 
L 268.360361 113.137869 
L 265.381081 133.590571 
L 253.746667 144.074694 
L 248.440308 133.590571 
L 244.256705 113.137869 
L 244.790433 93.757994 
L 244.215107 76.198006 
L 229.883333 69.247291 
z
M 301.292629 76.198006 
L 299.433414 93.757994 
L 301.473333 94.363325 
L 301.538755 93.757994 
L 301.486595 76.198006 
L 301.473333 75.9621 
z
M 250.217814 93.757994 
L 249.897558 113.137869 
L 253.106577 133.590571 
L 253.746667 134.855237 
L 255.150089 133.590571 
L 259.673951 113.137869 
L 266.134729 93.757994 
L 253.746667 78.408125 
z
M 134.43 58.473728 
L 135.743974 60.808896 
L 134.43 62.804172 
L 133.380915 60.808896 
z
M 206.02 55.625715 
L 212.893547 60.808896 
L 206.02 62.600144 
L 191.135677 60.808896 
z
M 134.43 212.901127 
L 140.233682 219.557363 
L 158.293333 224.210854 
L 164.587053 230.778089 
L 158.293333 233.679365 
L 137.637294 240.28 
L 134.43 240.28 
L 133.024744 240.28 
L 132.225834 230.778089 
L 133.453319 219.557363 
z
M 229.883333 223.522868 
L 252.01631 230.778089 
L 245.155224 240.28 
L 229.883333 240.28 
L 224.618218 240.28 
L 219.114908 230.778089 
z
M 226.857879 230.778089 
L 229.883333 237.67668 
L 236.101727 230.778089 
L 229.883333 228.739691 
z
" clip-path="url(#p25ebdc6a48)" style="fill: #5cc863"/>
    <path d="M 206.02 31.668764 
L 212.790383 26.88 
L 223.02009 26.88 
L 209.892622 36.380776 
L 206.02 38.605598 
L 200.052817 36.380776 
L 195.088493 26.88 
L 201.666465 26.88 
z
M 277.61 28.904083 
L 280.447241 26.88 
L 286.185069 26.88 
L 277.61 32.997441 
L 266.20655 26.88 
L 273.83693 26.88 
z
M 253.746667 47.542909 
L 253.982193 47.600163 
L 253.746667 48.065112 
L 253.615821 47.600163 
z
M 277.61 56.670296 
L 291.083077 60.808896 
L 277.61 66.788835 
L 262.684065 60.808896 
z
M 229.883333 69.247291 
L 244.215107 76.198006 
L 244.790433 93.757994 
L 244.256705 113.137869 
L 248.440308 133.590571 
L 253.746667 144.074694 
L 265.381081 133.590571 
L 268.360361 113.137869 
L 277.61 99.027986 
L 289.067264 113.137869 
L 290.023768 133.590571 
L 277.61 144.803037 
L 266.235322 154.013971 
L 253.746667 167.703719 
L 231.033232 173.39493 
L 229.883333 177.700188 
L 206.02 189.706809 
L 182.156667 188.759731 
L 158.293333 173.960541 
L 134.43 174.222675 
L 133.761884 173.39493 
L 132.966806 154.013971 
L 134.43 141.646987 
L 136.489245 133.590571 
L 134.43 130.374344 
L 129.8874 113.137869 
L 134.43 104.274219 
L 153.791551 113.137869 
L 158.293333 115.291384 
L 170.200732 113.137869 
L 182.156667 112.120482 
L 206.02 98.279192 
L 211.286863 93.757994 
L 222.446443 76.198006 
z
M 227.903313 76.198006 
L 218.057471 93.757994 
L 206.02 104.09124 
L 190.204833 113.137869 
L 182.156667 128.910084 
L 158.293333 125.692093 
L 148.882035 133.590571 
L 158.293333 145.900585 
L 182.156667 140.861319 
L 189.779882 154.013971 
L 194.091836 173.39493 
L 206.02 180.514496 
L 216.570416 173.39493 
L 229.883333 163.883681 
L 253.746667 155.005408 
L 254.651118 154.013971 
L 253.746667 153.29415 
L 243.774038 133.590571 
L 238.615852 113.137869 
L 239.363052 93.757994 
L 233.699069 76.198006 
L 229.883333 74.347426 
z
M 277.046772 113.137869 
L 275.612073 133.590571 
L 277.61 135.422433 
L 279.638127 133.590571 
L 278.307655 113.137869 
L 277.61 112.278691 
z
M 301.473333 75.9621 
L 301.486595 76.198006 
L 301.538755 93.757994 
L 301.473333 94.363325 
L 299.433414 93.757994 
L 301.292629 76.198006 
z
M 229.883333 228.739691 
L 236.101727 230.778089 
L 229.883333 237.67668 
L 226.857879 230.778089 
z
" clip-path="url(#p25ebdc6a48)" style="fill: #7fd34e"/>
    <path d="M 206.02 26.88 
L 212.790383 26.88 
L 206.02 31.668764 
L 201.666465 26.88 
z
M 277.61 26.88 
L 280.447241 26.88 
L 277.61 28.904083 
L 273.83693 26.88 
z
M 229.883333 74.347426 
L 233.699069 76.198006 
L 239.363052 93.757994 
L 238.615852 113.137869 
L 243.774038 133.590571 
L 253.746667 153.29415 
L 254.651118 154.013971 
L 253.746667 155.005408 
L 229.883333 163.883681 
L 216.570416 173.39493 
L 206.02 180.514496 
L 194.091836 173.39493 
L 189.779882 154.013971 
L 182.156667 140.861319 
L 158.293333 145.900585 
L 148.882035 133.590571 
L 158.293333 125.692093 
L 182.156667 128.910084 
L 190.204833 113.137869 
L 206.02 104.09124 
L 218.057471 93.757994 
L 227.903313 76.198006 
z
M 224.82808 93.757994 
L 206.02 109.903288 
L 200.365358 113.137869 
L 192.027233 133.590571 
L 206.02 152.382686 
L 226.766343 154.013971 
L 229.883333 154.151611 
L 230.24388 154.013971 
L 239.107769 133.590571 
L 232.974999 113.137869 
L 233.93567 93.757994 
L 229.883333 84.283264 
z
M 277.61 112.278691 
L 278.307655 113.137869 
L 279.638127 133.590571 
L 277.61 135.422433 
L 275.612073 133.590571 
L 277.046772 113.137869 
z
" clip-path="url(#p25ebdc6a48)" style="fill: #a2da37"/>
    <path d="M 229.883333 84.283264 
L 233.93567 93.757994 
L 232.974999 113.137869 
L 239.107769 133.590571 
L 230.24388 154.013971 
L 229.883333 154.151611 
L 226.766343 154.013971 
L 206.02 152.382686 
L 192.027233 133.590571 
L 200.365358 113.137869 
L 206.02 109.903288 
L 224.82808 93.757994 
z
M 204.930951 133.590571 
L 206.02 135.053151 
L 229.883333 143.755319 
L 234.441499 133.590571 
L 229.883333 119.607089 
L 206.02 130.320491 
z
" clip-path="url(#p25ebdc6a48)" style="fill: #c8e020"/>
    <path d="M 206.02 130.320491 
L 229.883333 119.607089 
L 234.441499 133.590571 
L 229.883333 143.755319 
L 206.02 135.053151 
L 204.930951 133.590571 
z
" clip-path="url(#p25ebdc6a48)" style="fill: #ece51b"/>
   </g>
   <g id="matplotlib.axis_1">
    <g id="xtick_1">
     <g id="line2d_1">
      <defs>
       <path id="m80b768476c" d="M 0 0 
L 0 3.5 
" style="stroke: #000000; stroke-width: 0.8"/>
      </defs>
      <g>
       <use xlink:href="#m80b768476c" x="126.475556" y="240.28" style="stroke: #000000; stroke-width: 0.8"/>
      </g>
     </g>
     <g id="text_1">
      <!-- −50 -->
      <g transform="translate(113.812743 256.398125) scale(0.12 -0.12)">
       <defs>
        <path id="DejaVuSans-2212" d="M 678 2272 
L 4684 2272 
L 4684 1741 
L 678 1741 
L 678 2272 
z
" transform="scale(0.015625)"/>
        <path id="DejaVuSans-35" d="M 691 4666 
L 3169 4666 
L 3169 4134 
L 1269 4134 
L 1269 2991 
Q 1406 3038 1543 3061 
Q 1681 3084 1819 3084 
Q 2600 3084 3056 2656 
Q 3513 2228 3513 1497 
Q 3513 744 3044 326 
Q 2575 -91 1722 -91 
Q 1428 -91 1123 -41 
Q 819 9 494 109 
L 494 744 
Q 775 591 1075 516 
Q 1375 441 1709 441 
Q 2250 441 2565 725 
Q 2881 1009 2881 1497 
Q 2881 1984 2565 2268 
Q 2250 2553 1709 2553 
Q 1456 2553 1204 2497 
Q 953 2441 691 2322 
L 691 4666 
z
" transform="scale(0.015625)"/>
        <path id="DejaVuSans-30" d="M 2034 4250 
Q 1547 4250 1301 3770 
Q 1056 3291 1056 2328 
Q 1056 1369 1301 889 
Q 1547 409 2034 409 
Q 2525 409 2770 889 
Q 3016 1369 3016 2328 
Q 3016 3291 2770 3770 
Q 2525 4250 2034 4250 
z
M 2034 4750 
Q 2819 4750 3233 4129 
Q 3647 3509 3647 2328 
Q 3647 1150 3233 529 
Q 2819 -91 2034 -91 
Q 1250 -91 836 529 
Q 422 1150 422 2328 
Q 422 3509 836 4129 
Q 1250 4750 2034 4750 
z
" transform="scale(0.015625)"/>
       </defs>
       <use xlink:href="#DejaVuSans-2212"/>
       <use xlink:href="#DejaVuSans-35" transform="translate(83.789062 0)"/>
       <use xlink:href="#DejaVuSans-30" transform="translate(147.412109 0)"/>
      </g>
     </g>
    </g>
    <g id="xtick_2">
     <g id="line2d_2">
      <g>
       <use xlink:href="#m80b768476c" x="206.02" y="240.28" style="stroke: #000000; stroke-width: 0.8"/>
      </g>
     </g>
     <g id="text_2">
      <!-- 0 -->
      <g transform="translate(202.2025 256.398125) scale(0.12 -0.12)">
       <use xlink:href="#DejaVuSans-30"/>
      </g>
     </g>
    </g>
    <g id="xtick_3">
     <g id="line2d_3">
      <g>
       <use xlink:href="#m80b768476c" x="285.564444" y="240.28" style="stroke: #000000; stroke-width: 0.8"/>
      </g>
     </g>
     <g id="text_3">
      <!-- 50 -->
      <g transform="translate(277.929444 256.398125) scale(0.12 -0.12)">
       <use xlink:href="#DejaVuSans-35"/>
       <use xlink:href="#DejaVuSans-30" transform="translate(63.623047 0)"/>
      </g>
     </g>
    </g>
    <g id="text_4">
     <!-- $\Theta^{\circ}$ -->
     <g transform="translate(198.4 272.011875) scale(0.12 -0.12)">
      <defs>
       <path id="DejaVuSans-398" d="M 1416 2750 
L 3622 2750 
L 3622 2219 
L 1416 2219 
L 1416 2750 
z
M 2522 4238 
Q 1834 4238 1431 3725 
Q 1025 3213 1025 2328 
Q 1025 1447 1429 934 
Q 1834 422 2522 422 
Q 3209 422 3613 934 
Q 4013 1447 4013 2328 
Q 4013 3213 3613 3725 
Q 3209 4238 2522 4238 
z
M 2522 4750 
Q 3503 4750 4090 4092 
Q 4678 3434 4678 2328 
Q 4678 1225 4091 569 
Q 3503 -91 2522 -91 
Q 1538 -91 950 566 
Q 359 1222 359 2328 
Q 359 3434 950 4094 
Q 1538 4750 2522 4750 
z
" transform="scale(0.015625)"/>
       <path id="DejaVuSans-2218" d="M 2000 2619 
Q 1750 2619 1578 2445 
Q 1406 2272 1406 2022 
Q 1406 1775 1578 1605 
Q 1750 1435 2000 1435 
Q 2250 1435 2422 1605 
Q 2594 1775 2594 2022 
Q 2594 2269 2420 2444 
Q 2247 2619 2000 2619 
z
M 2000 3022 
Q 2200 3022 2384 2945 
Q 2569 2869 2703 2725 
Q 2847 2585 2919 2406 
Q 2991 2228 2991 2022 
Q 2991 1610 2702 1324 
Q 2413 1038 1994 1038 
Q 1572 1038 1290 1319 
Q 1009 1600 1009 2022 
Q 1009 2441 1296 2731 
Q 1584 3022 2000 3022 
z
" transform="scale(0.015625)"/>
      </defs>
      <use xlink:href="#DejaVuSans-398" transform="translate(0 0.78125)"/>
      <use xlink:href="#DejaVuSans-2218" transform="translate(79.667969 39.0625) scale(0.7)"/>
     </g>
    </g>
   </g>
   <g id="matplotlib.axis_2">
    <g id="ytick_1">
     <g id="line2d_4">
      <defs>
       <path id="m8440e73a01" d="M 0 0 
L -3.5 0 
" style="stroke: #000000; stroke-width: 0.8"/>
      </defs>
      <g>
       <use xlink:href="#m8440e73a01" x="62.84" y="219.984151" style="stroke: #000000; stroke-width: 0.8"/>
      </g>
     </g>
     <g id="text_5">
      <!-- −40 -->
      <g transform="translate(30.514375 224.543214) scale(0.12 -0.12)">
       <defs>
        <path id="DejaVuSans-34" d="M 2419 4116 
L 825 1625 
L 2419 1625 
L 2419 4116 
z
M 2253 4666 
L 3047 4666 
L 3047 1625 
L 3713 1625 
L 3713 1100 
L 3047 1100 
L 3047 0 
L 2419 0 
L 2419 1100 
L 313 1100 
L 313 1709 
L 2253 4666 
z
" transform="scale(0.015625)"/>
       </defs>
       <use xlink:href="#DejaVuSans-2212"/>
       <use xlink:href="#DejaVuSans-34" transform="translate(83.789062 0)"/>
       <use xlink:href="#DejaVuSans-30" transform="translate(147.412109 0)"/>
      </g>
     </g>
    </g>
    <g id="ytick_2">
     <g id="line2d_5">
      <g>
       <use xlink:href="#m8440e73a01" x="62.84" y="176.783648" style="stroke: #000000; stroke-width: 0.8"/>
      </g>
     </g>
     <g id="text_6">
      <!-- −20 -->
      <g transform="translate(30.514375 181.342711) scale(0.12 -0.12)">
       <defs>
        <path id="DejaVuSans-32" d="M 1228 531 
L 3431 531 
L 3431 0 
L 469 0 
L 469 531 
Q 828 903 1448 1529 
Q 2069 2156 2228 2338 
Q 2531 2678 2651 2914 
Q 2772 3150 2772 3378 
Q 2772 3750 2511 3984 
Q 2250 4219 1831 4219 
Q 1534 4219 1204 4116 
Q 875 4013 500 3803 
L 500 4441 
Q 881 4594 1212 4672 
Q 1544 4750 1819 4750 
Q 2544 4750 2975 4387 
Q 3406 4025 3406 3419 
Q 3406 3131 3298 2873 
Q 3191 2616 2906 2266 
Q 2828 2175 2409 1742 
Q 1991 1309 1228 531 
z
" transform="scale(0.015625)"/>
       </defs>
       <use xlink:href="#DejaVuSans-2212"/>
       <use xlink:href="#DejaVuSans-32" transform="translate(83.789062 0)"/>
       <use xlink:href="#DejaVuSans-30" transform="translate(147.412109 0)"/>
      </g>
     </g>
    </g>
    <g id="ytick_3">
     <g id="line2d_6">
      <g>
       <use xlink:href="#m8440e73a01" x="62.84" y="133.583145" style="stroke: #000000; stroke-width: 0.8"/>
      </g>
     </g>
     <g id="text_7">
      <!-- 0 -->
      <g transform="translate(48.205 138.142208) scale(0.12 -0.12)">
       <use xlink:href="#DejaVuSans-30"/>
      </g>
     </g>
    </g>
    <g id="ytick_4">
     <g id="line2d_7">
      <g>
       <use xlink:href="#m8440e73a01" x="62.84" y="90.382642" style="stroke: #000000; stroke-width: 0.8"/>
      </g>
     </g>
     <g id="text_8">
      <!-- 20 -->
      <g transform="translate(40.57 94.941704) scale(0.12 -0.12)">
       <use xlink:href="#DejaVuSans-32"/>
       <use xlink:href="#DejaVuSans-30" transform="translate(63.623047 0)"/>
      </g>
     </g>
    </g>
    <g id="ytick_5">
     <g id="line2d_8">
      <g>
       <use xlink:href="#m8440e73a01" x="62.84" y="47.182139" style="stroke: #000000; stroke-width: 0.8"/>
      </g>
     </g>
     <g id="text_9">
      <!-- 40 -->
      <g transform="translate(40.57 51.741201) scale(0.12 -0.12)">
       <use xlink:href="#DejaVuSans-34"/>
       <use xlink:href="#DejaVuSans-30" transform="translate(63.623047 0)"/>
      </g>
     </g>
    </g>
    <g id="text_10">
     <!-- $\phi^{\circ}$ -->
     <g transform="translate(23.784375 141.38) rotate(-90) scale(0.13 -0.13)">
      <defs>
       <path id="DejaVuSans-Oblique-3d5" d="M 2991 4863 
L 2738 3572 
Q 3363 3572 3684 3094 
Q 4016 2606 3850 1747 
Q 3681 888 3159 400 
Q 2653 -78 2028 -78 
L 1784 -1331 
L 1213 -1331 
L 1456 -78 
Q 834 -78 509 400 
Q 178 888 347 1747 
Q 513 2606 1034 3094 
Q 1544 3572 2166 3572 
L 2419 4863 
L 2991 4863 
z
M 2128 434 
Q 2481 434 2784 756 
Q 3116 1116 3244 1747 
Q 3369 2372 3169 2738 
Q 2991 3059 2638 3059 
L 2128 434 
z
M 1556 434 
L 2066 3059 
Q 1716 3059 1413 2738 
Q 1072 2372 953 1747 
Q 834 1116 1028 756 
Q 1203 434 1556 434 
z
" transform="scale(0.015625)"/>
      </defs>
      <use xlink:href="#DejaVuSans-Oblique-3d5" transform="translate(0 0.015625)"/>
      <use xlink:href="#DejaVuSans-2218" transform="translate(73.414505 38.296875) scale(0.7)"/>
     </g>
    </g>
   </g>
   <g id="QuadContourSet_2">
    <path clip-path="url(#p25ebdc6a48)" style="fill: none; stroke-dasharray: 1.85,0.8; stroke-dashoffset: 0; stroke: #000000; stroke-width: 0.5"/>
    <path d="M 324.186804 26.88 
L 324.202565 36.380776 
L 324.333997 47.600163 
L 324.379161 60.808896 
L 324.413873 76.198006 
L 324.415891 93.757994 
L 324.327299 113.137869 
L 324.32879 120.556196 
M 324.371043 146.624893 
L 324.39351 154.013971 
L 324.263181 173.39493 
L 324.264502 190.956403 
L 324.31373 206.347113 
L 324.250474 219.557363 
L 324.058505 230.778089 
L 324.096727 240.28 
M 88.121033 240.28 
L 88.190849 230.778089 
L 88.088984 219.557363 
L 87.709984 206.347113 
L 87.806982 190.956403 
L 88.087805 173.39493 
L 88.001488 154.013971 
L 88.002068 146.624946 
M 87.992099 120.5562 
L 87.985843 113.137869 
L 87.805838 93.757994 
L 87.713073 76.198006 
L 87.942997 60.808896 
L 88.240251 47.600163 
L 88.212879 36.380776 
L 88.368145 26.88 
" clip-path="url(#p25ebdc6a48)" style="fill: none; stroke-dasharray: 1.85,0.8; stroke-dashoffset: 0; stroke: #000000; stroke-width: 0.5"/>
    <path d="M 321.989193 26.88 
L 322.035079 36.380776 
L 322.417702 47.600163 
L 322.549182 60.808896 
L 322.650236 76.198006 
L 322.656112 93.757994 
L 322.398202 113.137869 
L 322.402517 120.512894 
M 322.525928 146.667799 
L 322.590956 154.013971 
L 322.211544 173.39493 
L 322.215387 190.956403 
L 322.3587 206.347113 
L 322.174551 219.557363 
L 321.61569 230.778089 
L 321.726961 240.28 
M 90.830532 240.28 
L 91.03378 230.778089 
L 90.737231 219.557363 
L 89.633888 206.347113 
L 89.916268 190.956403 
L 90.733797 173.39493 
L 90.482513 154.013971 
L 90.484193 146.668249 
M 90.455074 120.512927 
L 90.436966 113.137869 
L 89.912936 93.757994 
L 89.64288 76.198006 
L 90.312233 60.808896 
L 91.177597 47.600163 
L 91.097914 36.380776 
L 91.549923 26.88 
" clip-path="url(#p25ebdc6a48)" style="fill: none; stroke-dasharray: 1.85,0.8; stroke-dashoffset: 0; stroke: #000000; stroke-width: 0.5"/>
    <path d="M 319.791583 26.88 
L 319.867592 36.380776 
L 320.501407 47.600163 
L 320.719203 60.808896 
L 320.8866 76.198006 
L 320.896332 93.757994 
L 320.469106 113.137869 
L 320.476253 120.512898 
M 320.680671 146.667014 
L 320.788402 154.013971 
L 320.159906 173.39493 
L 320.166272 190.956403 
L 320.40367 206.347113 
L 320.098628 219.557363 
L 319.172875 230.778089 
L 319.357196 240.28 
M 93.540031 240.28 
L 93.876711 230.778089 
L 93.385478 219.557363 
L 91.557793 206.347113 
L 92.025555 190.956403 
L 93.379789 173.39493 
L 92.963538 154.013971 
L 92.96632 146.668248 
M 92.918085 120.512987 
L 92.88809 113.137869 
L 92.020035 93.757994 
L 91.572688 76.198006 
L 92.68147 60.808896 
L 94.114943 47.600163 
L 93.982948 36.380776 
L 94.731701 26.88 
" clip-path="url(#p25ebdc6a48)" style="fill: none; stroke-dasharray: 1.85,0.8; stroke-dashoffset: 0; stroke: #000000; stroke-width: 0.5"/>
    <path d="M 317.593973 26.88 
L 317.700105 36.380776 
L 318.585112 47.600163 
L 318.889224 60.808896 
L 319.122963 76.198006 
L 319.136552 93.757994 
L 318.540009 113.137869 
L 318.550048 120.556206 
M 318.834511 146.622545 
L 318.985848 154.013971 
L 318.108268 173.39493 
L 318.117157 190.956403 
L 318.44864 206.347113 
L 318.022705 219.557363 
L 316.73006 230.778089 
L 316.987431 240.28 
M 96.24953 240.28 
L 96.719642 230.778089 
L 96.033725 219.557363 
L 93.481697 206.347113 
L 94.134841 190.956403 
L 96.025781 173.39493 
L 95.444563 154.013971 
L 95.448471 146.624944 
M 95.381343 120.55638 
L 95.339213 113.137869 
L 94.127134 93.757994 
L 93.502495 76.198006 
L 95.050706 60.808896 
L 97.052289 47.600163 
L 96.867983 36.380776 
L 97.913479 26.88 
" clip-path="url(#p25ebdc6a48)" style="fill: none; stroke-dasharray: 1.85,0.8; stroke-dashoffset: 0; stroke: #000000; stroke-width: 0.5"/>
    <path d="M 315.396362 26.88 
L 315.532619 36.380776 
L 316.668817 47.600163 
L 317.059245 60.808896 
L 317.359326 76.198006 
L 317.376772 93.757994 
L 316.610912 113.137869 
L 316.6238 120.556213 
M 316.988963 146.620989 
L 317.183294 154.013971 
L 316.05663 173.39493 
L 316.068042 190.956403 
L 316.49361 206.347113 
L 315.946781 219.557363 
L 314.287245 230.778089 
L 314.617665 240.28 
M 98.959028 240.28 
L 99.562573 230.778089 
L 98.681972 219.557363 
L 95.405601 206.347113 
L 96.244127 190.956403 
L 98.671773 173.39493 
L 97.925587 154.013971 
L 97.930605 146.624943 
M 97.844425 120.5565 
L 97.790337 113.137869 
L 96.234232 93.757994 
L 95.432303 76.198006 
L 97.419943 60.808896 
L 99.989635 47.600163 
L 99.753017 36.380776 
L 101.095257 26.88 
" clip-path="url(#p25ebdc6a48)" style="fill: none; stroke-dasharray: 1.85,0.8; stroke-dashoffset: 0; stroke: #000000; stroke-width: 0.5"/>
    <path d="M 313.198752 26.88 
L 313.365132 36.380776 
L 314.752522 47.600163 
L 315.229266 60.808896 
L 315.595689 76.198006 
L 315.616993 93.757994 
L 314.681815 113.137869 
L 314.697461 120.512918 
M 315.144772 146.662332 
L 315.38074 154.013971 
L 314.004992 173.39493 
L 314.018927 190.956403 
L 314.53858 206.347113 
L 313.870858 219.557363 
L 311.84443 230.778089 
L 312.2479 240.28 
M 101.668527 240.28 
L 102.405504 230.778089 
L 101.330219 219.557363 
L 97.329505 206.347113 
L 98.353414 190.956403 
L 101.317765 173.39493 
L 100.406612 154.013971 
L 100.412703 146.668245 
M 100.307122 120.513348 
L 100.24146 113.137869 
L 98.341331 93.757994 
L 97.36211 76.198006 
L 99.789179 60.808896 
L 102.926981 47.600163 
L 102.638052 36.380776 
L 104.277034 26.88 
" clip-path="url(#p25ebdc6a48)" style="fill: none; stroke-dasharray: 1.85,0.8; stroke-dashoffset: 0; stroke: #000000; stroke-width: 0.5"/>
    <path d="M 311.001141 26.88 
L 311.197645 36.380776 
L 312.836226 47.600163 
L 313.399287 60.808896 
L 313.832053 76.198006 
L 313.857213 93.757994 
L 312.752719 113.137869 
L 312.771197 120.512928 
M 313.299407 146.659997 
L 313.578186 154.013971 
L 311.953354 173.39493 
L 311.969812 190.956403 
L 312.58355 206.347113 
L 311.794935 219.557363 
L 309.401615 230.778089 
L 309.878135 240.28 
M 104.378026 240.28 
L 105.248435 230.778089 
L 103.978466 219.557363 
L 99.25341 206.347113 
L 100.4627 190.956403 
L 103.963757 173.39493 
L 102.887637 154.013971 
L 102.89483 146.668244 
M 102.770136 120.513528 
L 102.692584 113.137869 
L 100.44843 93.757994 
L 99.291917 76.198006 
L 102.158416 60.808896 
L 105.864327 47.600163 
L 105.523086 36.380776 
L 107.458812 26.88 
" clip-path="url(#p25ebdc6a48)" style="fill: none; stroke-dasharray: 1.85,0.8; stroke-dashoffset: 0; stroke: #000000; stroke-width: 0.5"/>
    <path d="M 308.803531 26.88 
L 309.030159 36.380776 
L 310.919931 47.600163 
L 311.569308 60.808896 
L 312.068416 76.198006 
L 312.097433 93.757994 
L 310.823622 113.137869 
L 310.844933 120.51294 
M 311.453998 146.657276 
L 311.775632 154.013971 
L 309.901716 173.39493 
L 309.920698 190.956403 
L 310.62852 206.347113 
L 309.719012 219.557363 
L 306.958801 230.778089 
L 307.508369 240.28 
M 107.087525 240.28 
L 108.091366 230.778089 
L 106.626713 219.557363 
L 101.177314 206.347113 
L 102.571986 190.956403 
L 106.60975 173.39493 
L 105.368662 154.013971 
L 105.391727 133.590571 
L 105.302284 126.214702 
M 103.410718 100.161517 
L 102.555529 93.757994 
L 101.221725 76.198006 
L 104.527652 60.808896 
L 108.801673 47.600163 
L 108.408121 36.380776 
L 110.566667 27.16614 
L 110.688121 26.88 
" clip-path="url(#p25ebdc6a48)" style="fill: none; stroke-dasharray: 1.85,0.8; stroke-dashoffset: 0; stroke: #000000; stroke-width: 0.5"/>
    <path d="M 306.605921 26.88 
L 306.862672 36.380776 
L 309.003636 47.600163 
L 309.73933 60.808896 
L 310.304779 76.198006 
L 310.337653 93.757994 
L 308.894525 113.137869 
L 308.918669 120.512954 
M 309.608538 146.654171 
L 309.973078 154.013971 
L 307.850078 173.39493 
L 307.871583 190.956403 
L 308.673491 206.347113 
L 307.643088 219.557363 
L 304.515986 230.778089 
L 305.138604 240.28 
M 109.797024 240.28 
L 110.566667 233.750575 
L 111.244947 230.778089 
L 110.566667 228.426673 
L 109.274959 219.557363 
L 103.101218 206.347113 
L 104.681273 190.956403 
L 109.255742 173.39493 
L 107.849687 154.013971 
L 107.859085 146.66824 
M 107.696166 120.513977 
L 107.59483 113.137869 
L 104.662627 93.757994 
L 103.151532 76.198006 
L 106.896889 60.808896 
L 110.566667 50.306392 
L 113.025004 47.600163 
L 111.897679 36.380776 
L 115.915707 26.88 
" clip-path="url(#p25ebdc6a48)" style="fill: none; stroke-dasharray: 1.85,0.8; stroke-dashoffset: 0; stroke: #000000; stroke-width: 0.5"/>
    <path d="M 304.40831 26.88 
L 304.695185 36.380776 
L 307.087341 47.600163 
L 307.909351 60.808896 
L 308.541142 76.198006 
L 308.577874 93.757994 
L 306.965429 113.137869 
L 306.992405 120.512969 
M 307.76302 146.65068 
L 308.170524 154.013971 
L 305.79844 173.39493 
L 305.822468 190.956403 
L 306.718461 206.347113 
L 305.567165 219.557363 
L 302.073171 230.778089 
L 302.768839 240.28 
M 114.893634 240.28 
L 116.490169 230.778089 
L 113.904557 219.557363 
L 110.566667 217.562781 
L 105.025123 206.347113 
L 106.790559 190.956403 
L 110.566667 177.256218 
L 113.164794 173.39493 
L 112.14179 166.974009 
M 110.349407 140.936305 
L 110.359909 133.590571 
L 110.045954 113.137869 
L 106.769726 93.757994 
L 105.08134 76.198006 
L 109.266125 60.808896 
L 110.566667 57.086888 
L 119.184405 47.600163 
L 117.183401 36.380776 
L 121.143293 26.88 
M 206.091001 240.28 
L 206.02 240.19726 
L 205.01561 240.28 
" clip-path="url(#p25ebdc6a48)" style="fill: none; stroke-dasharray: 1.85,0.8; stroke-dashoffset: 0; stroke: #000000; stroke-width: 0.5"/>
    <path d="M 302.2107 26.88 
L 302.527699 36.380776 
L 305.171046 47.600163 
L 306.079372 60.808896 
L 306.777505 76.198006 
L 306.818094 93.757994 
L 305.036332 113.137869 
L 305.119 133.590571 
L 305.572174 141.000968 
M 304.619146 166.944807 
L 303.746803 173.39493 
L 303.773353 190.956403 
L 304.763431 206.347113 
L 303.491242 219.557363 
L 301.473333 225.874846 
L 288.594666 230.778089 
L 294.963358 240.28 
M 120.937337 240.28 
L 121.73539 230.778089 
L 120.420811 219.557363 
L 110.566667 213.668943 
L 106.949027 206.347113 
L 108.899845 190.956403 
L 110.566667 184.908969 
L 118.314067 173.39493 
L 115.757534 154.013971 
L 115.990016 146.619287 
M 115.246589 120.601104 
L 114.584098 113.137869 
L 110.566667 103.535801 
L 108.876825 93.757994 
L 107.011147 76.198006 
L 110.566667 63.83554 
L 114.76518 60.808896 
L 125.343806 47.600163 
L 122.469124 36.380776 
L 126.370879 26.88 
M 212.26674 240.28 
L 206.02 233.000464 
L 196.0554 232.788317 
M 170.156701 239.073797 
L 167.957408 240.28 
M 197.800426 84.337515 
L 206.02 76.278493 
L 206.075835 76.198006 
L 206.02 76.128794 
L 182.156667 72.15907 
L 176.038503 76.198006 
L 176.388141 93.757994 
L 176.616544 93.903761 
M 253.746667 202.454572 
L 247.491091 206.347113 
L 253.746667 214.017617 
L 264.094504 206.347113 
L 253.746667 202.454572 
z
" clip-path="url(#p25ebdc6a48)" style="fill: none; stroke-dasharray: 1.85,0.8; stroke-dashoffset: 0; stroke: #000000; stroke-width: 0.5"/>
    <path d="M 297.660725 26.88 
L 294.208943 36.380776 
L 301.473333 40.373211 
L 303.254751 47.600163 
L 304.249393 60.808896 
L 305.013869 76.198006 
L 305.058314 93.757994 
L 303.107235 113.137869 
L 303.197759 133.590571 
L 303.688493 140.918774 
M 302.64071 167.010271 
L 301.695165 173.39493 
L 301.724238 190.956403 
L 302.808401 206.347113 
L 301.473333 219.038 
L 295.977745 219.557363 
L 277.61 221.886877 
L 270.791962 230.778089 
L 277.61 236.774707 
L 280.602668 240.28 
M 126.98104 240.28 
L 126.980612 230.778089 
L 126.937065 219.557363 
L 110.566667 209.775106 
L 108.872931 206.347113 
L 110.566667 193.917975 
L 134.43 197.455314 
L 142.315116 190.956403 
L 134.43 186.981795 
L 123.463339 173.39493 
L 122.821227 167.07581 
M 122.307336 140.915169 
L 122.762162 133.590571 
L 119.685198 113.137869 
L 114.706487 93.757994 
L 110.566667 90.415865 
L 108.940955 76.198006 
L 110.566667 70.54544 
L 124.073047 60.808896 
L 131.503207 47.600163 
L 127.754846 36.380776 
L 131.598465 26.88 
M 218.442479 240.28 
L 211.371937 230.778089 
L 206.02 224.316079 
L 196.137758 223.907327 
M 171.713164 231.900929 
L 158.293333 238.087196 
L 151.431169 240.28 
M 258.535777 33.643402 
L 253.746667 30.250649 
L 235.376335 36.380776 
L 239.932483 37.073585 
M 205.887189 84.274921 
L 206.02 84.144705 
L 211.532704 76.198006 
L 206.02 69.364469 
L 182.156667 65.991347 
L 170.856902 60.808896 
L 172.506803 47.600163 
L 158.293333 43.684919 
L 142.483692 47.600163 
L 147.402026 60.808896 
L 158.293333 68.649895 
L 166.695664 76.198006 
L 168.720241 93.757994 
L 182.156667 102.333146 
L 184.484532 100.913239 
M 229.883333 39.667707 
L 219.156668 47.600163 
L 229.883333 55.292625 
L 234.490142 47.600163 
L 229.883333 39.667707 
M 267.52964 220.367504 
L 272.440693 219.557363 
L 275.379893 206.347113 
L 277.61 202.861653 
L 297.80907 190.956403 
L 298.319221 173.39493 
L 277.61 165.432627 
L 270.11971 173.39493 
L 270.852153 190.956403 
L 253.746667 198.209354 
L 240.668737 206.347113 
L 239.792342 219.557363 
L 240.125258 219.630935 
M 158.293333 205.702326 
L 156.841909 206.347113 
L 158.293333 207.585653 
L 159.359363 206.347113 
L 158.293333 205.702326 
z
" clip-path="url(#p25ebdc6a48)" style="fill: none; stroke-dasharray: 1.85,0.8; stroke-dashoffset: 0; stroke: #000000; stroke-width: 0.5"/>
    <path d="M 165.467797 26.88 
L 180.760346 36.380776 
L 158.293333 39.487539 
L 148.419016 39.751257 
M 139.605823 30.421909 
L 146.950324 26.88 
M 238.046501 26.88 
L 229.883333 29.648184 
L 220.996207 36.380776 
L 217.952676 38.129285 
M 193.015835 40.136098 
L 182.943707 36.380776 
L 188.51052 26.88 
M 291.922897 26.88 
L 287.263743 30.612567 
M 267.161512 31.739399 
L 258.576171 26.88 
M 133.024744 240.28 
L 132.225834 230.778089 
L 133.453319 219.557363 
L 133.772427 217.382589 
M 153.728019 223.034494 
L 158.293333 224.210854 
L 164.587053 230.778089 
L 158.293333 233.679365 
L 137.637294 240.28 
M 224.618218 240.28 
L 219.465266 231.38301 
M 243.093865 227.853299 
L 252.01631 230.778089 
L 245.155224 240.28 
M 268.35296 164.057221 
L 259.568801 173.39493 
L 260.840156 190.956403 
L 253.746667 193.964135 
L 233.846383 206.347113 
L 229.883333 212.069377 
L 206.02 212.229906 
L 182.156667 209.499789 
L 178.670203 206.347113 
L 158.293333 194.022181 
L 154.971353 190.956403 
L 134.43 180.602235 
L 128.612612 173.39493 
L 127.230382 154.013971 
L 129.124695 133.590571 
L 124.786299 113.137869 
L 134.43 94.320806 
L 137.670829 93.757994 
L 158.293333 80.036831 
L 161.052341 93.757994 
L 182.156667 107.226814 
L 204.238117 93.757994 
L 206.02 92.010916 
L 216.989574 76.198006 
L 229.883333 64.147156 
L 242.090779 60.808896 
L 244.052981 47.600163 
L 253.746667 43.358543 
L 271.195584 47.600163 
L 277.61 50.062499 
L 301.473333 49.182955 
L 302.419414 60.808896 
L 303.250232 76.198006 
L 303.298534 93.757994 
L 301.473333 110.646222 
L 299.826873 113.137869 
L 300.409408 133.590571 
L 301.473333 136.148816 
L 302.762862 154.013971 
L 301.473333 162.640383 
L 290.707182 158.840025 
M 134.43 58.473728 
L 135.743974 60.808896 
L 134.43 62.804172 
L 133.380915 60.808896 
L 134.43 58.473728 
z
M 206.02 55.625715 
L 212.893547 60.808896 
L 206.02 62.600144 
L 191.135677 60.808896 
L 206.02 55.625715 
z
M 253.746667 78.408125 
L 250.217814 93.757994 
L 249.897558 113.137869 
L 251.287116 121.994221 
M 257.59655 122.529946 
L 259.673951 113.137869 
L 266.134729 93.757994 
L 253.746667 78.408125 
" clip-path="url(#p25ebdc6a48)" style="fill: none; stroke-dasharray: 1.85,0.8; stroke-dashoffset: 0; stroke: #000000; stroke-width: 0.5"/>
    <path d="M 223.02009 26.88 
L 217.302313 31.018142 
M 196.761795 30.082383 
L 195.088493 26.88 
M 286.185069 26.88 
L 277.61 32.997441 
L 266.20655 26.88 
M 253.746667 47.542909 
L 253.982193 47.600163 
L 253.746667 48.065112 
L 253.615821 47.600163 
L 253.746667 47.542909 
z
M 264.825965 61.667028 
L 262.684065 60.808896 
L 277.61 56.670296 
L 291.083077 60.808896 
L 290.175437 61.211746 
M 240.315718 171.069056 
L 231.033232 173.39493 
L 229.883333 177.700188 
L 206.02 189.706809 
L 182.156667 188.759731 
L 158.293333 173.960541 
L 134.43 174.222675 
L 133.761884 173.39493 
L 132.966806 154.013971 
L 134.43 141.646987 
L 136.489245 133.590571 
L 134.43 130.374344 
L 129.8874 113.137869 
L 134.43 104.274219 
L 153.791551 113.137869 
L 158.293333 115.291384 
L 170.200732 113.137869 
L 182.156667 112.120482 
L 206.02 98.279192 
L 211.286863 93.757994 
L 222.446443 76.198006 
L 229.883333 69.247291 
L 244.215107 76.198006 
L 244.790433 93.757994 
L 244.256705 113.137869 
L 248.440308 133.590571 
L 253.746667 144.074694 
L 265.381081 133.590571 
L 268.360361 113.137869 
L 277.61 99.027986 
L 289.067264 113.137869 
L 290.023768 133.590571 
L 277.61 144.803037 
L 266.235322 154.013971 
L 262.783003 157.798316 
M 301.473333 75.9621 
L 301.486595 76.198006 
L 301.538755 93.757994 
L 301.473333 94.363325 
L 299.433414 93.757994 
L 301.292629 76.198006 
L 301.473333 75.9621 
z
M 229.883333 228.739691 
L 236.101727 230.778089 
L 229.883333 237.67668 
L 226.857879 230.778089 
L 229.883333 228.739691 
z
" clip-path="url(#p25ebdc6a48)" style="fill: none; stroke-dasharray: 1.85,0.8; stroke-dashoffset: 0; stroke: #000000; stroke-width: 0.5"/>
    <path d="M 212.790383 26.88 
L 206.02 31.668764 
L 201.666465 26.88 
M 280.447241 26.88 
L 277.61 28.904083 
L 273.83693 26.88 
M 191.252999 160.635197 
L 189.779882 154.013971 
L 182.156667 140.861319 
L 158.293333 145.900585 
L 148.882035 133.590571 
L 158.293333 125.692093 
L 182.156667 128.910084 
L 190.204833 113.137869 
L 206.02 104.09124 
L 218.057471 93.757994 
L 227.903313 76.198006 
L 229.883333 74.347426 
L 233.699069 76.198006 
L 239.363052 93.757994 
L 238.615852 113.137869 
L 243.774038 133.590571 
L 253.746667 153.29415 
L 254.651118 154.013971 
L 253.746667 155.005408 
L 229.883333 163.883681 
L 216.570416 173.39493 
L 206.02 180.514496 
L 205.819349 180.394733 
M 276.341034 123.198679 
L 277.046772 113.137869 
L 277.61 112.278691 
L 278.307655 113.137869 
L 278.963238 123.215825 
" clip-path="url(#p25ebdc6a48)" style="fill: none; stroke-dasharray: 1.85,0.8; stroke-dashoffset: 0; stroke: #000000; stroke-width: 0.5"/>
    <path d="M 212.912662 152.924656 
L 206.02 152.382686 
L 192.027233 133.590571 
L 200.365358 113.137869 
L 206.02 109.903288 
L 224.82808 93.757994 
L 229.883333 84.283264 
L 233.93567 93.757994 
L 232.974999 113.137869 
L 239.107769 133.590571 
L 234.160869 144.988785 
" clip-path="url(#p25ebdc6a48)" style="fill: none; stroke-dasharray: 1.85,0.8; stroke-dashoffset: 0; stroke: #000000; stroke-width: 0.5"/>
    <path d="M 216.88353 139.014721 
L 206.02 135.053151 
L 204.930951 133.590571 
L 206.02 130.320491 
L 229.883333 119.607089 
L 233.802104 131.629044 
" clip-path="url(#p25ebdc6a48)" style="fill: none; stroke-dasharray: 1.85,0.8; stroke-dashoffset: 0; stroke: #000000; stroke-width: 0.5"/>
    <path clip-path="url(#p25ebdc6a48)" style="fill: none; stroke-dasharray: 1.85,0.8; stroke-dashoffset: 0; stroke: #000000; stroke-width: 0.5"/>
   </g>
   <g id="patch_3">
    <path d="M 62.84 240.28 
L 62.84 26.88 
" style="fill: none; stroke: #000000; stroke-width: 0.8; stroke-linejoin: miter; stroke-linecap: square"/>
   </g>
   <g id="patch_4">
    <path d="M 349.2 240.28 
L 349.2 26.88 
" style="fill: none; stroke: #000000; stroke-width: 0.8; stroke-linejoin: miter; stroke-linecap: square"/>
   </g>
   <g id="patch_5">
    <path d="M 62.84 240.28 
L 349.2 240.28 
" style="fill: none; stroke: #000000; stroke-width: 0.8; stroke-linejoin: miter; stroke-linecap: square"/>
   </g>
   <g id="patch_6">
    <path d="M 62.84 26.88 
L 349.2 26.88 
" style="fill: none; stroke: #000000; stroke-width: 0.8; stroke-linejoin: miter; stroke-linecap: square"/>
   </g>
   <g id="text_11">
    <!-- Band 16000 -->
    <g transform="translate(169.620625 20.88) scale(0.12 -0.12)">
     <defs>
      <path id="DejaVuSans-42" d="M 1259 2228 
L 1259 519 
L 2272 519 
Q 2781 519 3026 730 
Q 3272 941 3272 1375 
Q 3272 1813 3026 2020 
Q 2781 2228 2272 2228 
L 1259 2228 
z
M 1259 4147 
L 1259 2741 
L 2194 2741 
Q 2656 2741 2882 2914 
Q 3109 3088 3109 3444 
Q 3109 3797 2882 3972 
Q 2656 4147 2194 4147 
L 1259 4147 
z
M 628 4666 
L 2241 4666 
Q 2963 4666 3353 4366 
Q 3744 4066 3744 3513 
Q 3744 3084 3544 2831 
Q 3344 2578 2956 2516 
Q 3422 2416 3680 2098 
Q 3938 1781 3938 1306 
Q 3938 681 3513 340 
Q 3088 0 2303 0 
L 628 0 
L 628 4666 
z
" transform="scale(0.015625)"/>
      <path id="DejaVuSans-61" d="M 2194 1759 
Q 1497 1759 1228 1600 
Q 959 1441 959 1056 
Q 959 750 1161 570 
Q 1363 391 1709 391 
Q 2188 391 2477 730 
Q 2766 1069 2766 1631 
L 2766 1759 
L 2194 1759 
z
M 3341 1997 
L 3341 0 
L 2766 0 
L 2766 531 
Q 2569 213 2275 61 
Q 1981 -91 1556 -91 
Q 1019 -91 701 211 
Q 384 513 384 1019 
Q 384 1609 779 1909 
Q 1175 2209 1959 2209 
L 2766 2209 
L 2766 2266 
Q 2766 2663 2505 2880 
Q 2244 3097 1772 3097 
Q 1472 3097 1187 3025 
Q 903 2953 641 2809 
L 641 3341 
Q 956 3463 1253 3523 
Q 1550 3584 1831 3584 
Q 2591 3584 2966 3190 
Q 3341 2797 3341 1997 
z
" transform="scale(0.015625)"/>
      <path id="DejaVuSans-6e" d="M 3513 2113 
L 3513 0 
L 2938 0 
L 2938 2094 
Q 2938 2591 2744 2837 
Q 2550 3084 2163 3084 
Q 1697 3084 1428 2787 
Q 1159 2491 1159 1978 
L 1159 0 
L 581 0 
L 581 3500 
L 1159 3500 
L 1159 2956 
Q 1366 3272 1645 3428 
Q 1925 3584 2291 3584 
Q 2894 3584 3203 3211 
Q 3513 2838 3513 2113 
z
" transform="scale(0.015625)"/>
      <path id="DejaVuSans-64" d="M 2906 2969 
L 2906 4863 
L 3481 4863 
L 3481 0 
L 2906 0 
L 2906 525 
Q 2725 213 2448 61 
Q 2172 -91 1784 -91 
Q 1150 -91 751 415 
Q 353 922 353 1747 
Q 353 2572 751 3078 
Q 1150 3584 1784 3584 
Q 2172 3584 2448 3432 
Q 2725 3281 2906 2969 
z
M 947 1747 
Q 947 1113 1208 752 
Q 1469 391 1925 391 
Q 2381 391 2643 752 
Q 2906 1113 2906 1747 
Q 2906 2381 2643 2742 
Q 2381 3103 1925 3103 
Q 1469 3103 1208 2742 
Q 947 2381 947 1747 
z
" transform="scale(0.015625)"/>
      <path id="DejaVuSans-20" transform="scale(0.015625)"/>
      <path id="DejaVuSans-31" d="M 794 531 
L 1825 531 
L 1825 4091 
L 703 3866 
L 703 4441 
L 1819 4666 
L 2450 4666 
L 2450 531 
L 3481 531 
L 3481 0 
L 794 0 
L 794 531 
z
" transform="scale(0.015625)"/>
      <path id="DejaVuSans-36" d="M 2113 2584 
Q 1688 2584 1439 2293 
Q 1191 2003 1191 1497 
Q 1191 994 1439 701 
Q 1688 409 2113 409 
Q 2538 409 2786 701 
Q 3034 994 3034 1497 
Q 3034 2003 2786 2293 
Q 2538 2584 2113 2584 
z
M 3366 4563 
L 3366 3988 
Q 3128 4100 2886 4159 
Q 2644 4219 2406 4219 
Q 1781 4219 1451 3797 
Q 1122 3375 1075 2522 
Q 1259 2794 1537 2939 
Q 1816 3084 2150 3084 
Q 2853 3084 3261 2657 
Q 3669 2231 3669 1497 
Q 3669 778 3244 343 
Q 2819 -91 2113 -91 
Q 1303 -91 875 529 
Q 447 1150 447 2328 
Q 447 3434 972 4092 
Q 1497 4750 2381 4750 
Q 2619 4750 2861 4703 
Q 3103 4656 3366 4563 
z
" transform="scale(0.015625)"/>
     </defs>
     <use xlink:href="#DejaVuSans-42"/>
     <use xlink:href="#DejaVuSans-61" transform="translate(68.603516 0)"/>
     <use xlink:href="#DejaVuSans-6e" transform="translate(129.882812 0)"/>
     <use xlink:href="#DejaVuSans-64" transform="translate(193.261719 0)"/>
     <use xlink:href="#DejaVuSans-20" transform="translate(256.738281 0)"/>
     <use xlink:href="#DejaVuSans-31" transform="translate(288.525391 0)"/>
     <use xlink:href="#DejaVuSans-36" transform="translate(352.148438 0)"/>
     <use xlink:href="#DejaVuSans-30" transform="translate(415.771484 0)"/>
     <use xlink:href="#DejaVuSans-30" transform="translate(479.394531 0)"/>
     <use xlink:href="#DejaVuSans-30" transform="translate(543.017578 0)"/>
    </g>
   </g>
   <g id="text_12">
    <g clip-path="url(#p25ebdc6a48)">
     <!-- 31.2 -->
     <g transform="translate(321.832749 123.574825) rotate(-270.087068) scale(0.09 -0.09)">
      <defs>
       <path id="DejaVuSans-33" d="M 2597 2516 
Q 3050 2419 3304 2112 
Q 3559 1806 3559 1356 
Q 3559 666 3084 287 
Q 2609 -91 1734 -91 
Q 1441 -91 1130 -33 
Q 819 25 488 141 
L 488 750 
Q 750 597 1062 519 
Q 1375 441 1716 441 
Q 2309 441 2620 675 
Q 2931 909 2931 1356 
Q 2931 1769 2642 2001 
Q 2353 2234 1838 2234 
L 1294 2234 
L 1294 2753 
L 1863 2753 
Q 2328 2753 2575 2939 
Q 2822 3125 2822 3475 
Q 2822 3834 2567 4026 
Q 2313 4219 1838 4219 
Q 1578 4219 1281 4162 
Q 984 4106 628 3988 
L 628 4550 
Q 988 4650 1302 4700 
Q 1616 4750 1894 4750 
Q 2613 4750 3031 4423 
Q 3450 4097 3450 3541 
Q 3450 3153 3228 2886 
Q 3006 2619 2597 2516 
z
" transform="scale(0.015625)"/>
       <path id="DejaVuSans-2e" d="M 684 794 
L 1344 794 
L 1344 0 
L 684 0 
L 684 794 
z
" transform="scale(0.015625)"/>
      </defs>
      <use xlink:href="#DejaVuSans-33"/>
      <use xlink:href="#DejaVuSans-31" transform="translate(63.623047 0)"/>
      <use xlink:href="#DejaVuSans-2e" transform="translate(127.246094 0)"/>
      <use xlink:href="#DejaVuSans-32" transform="translate(159.033203 0)"/>
     </g>
    </g>
   </g>
   <g id="text_13">
    <g clip-path="url(#p25ebdc6a48)">
     <!-- 31.2 -->
     <g transform="translate(85.516062 123.571931) rotate(-270.020543) scale(0.09 -0.09)">
      <use xlink:href="#DejaVuSans-33"/>
      <use xlink:href="#DejaVuSans-31" transform="translate(63.623047 0)"/>
      <use xlink:href="#DejaVuSans-2e" transform="translate(127.246094 0)"/>
      <use xlink:href="#DejaVuSans-32" transform="translate(159.033203 0)"/>
     </g>
    </g>
   </g>
   <g id="text_14">
    <g clip-path="url(#p25ebdc6a48)">
     <!-- 32.0 -->
     <g transform="translate(319.88243 123.582124) rotate(-270.253468) scale(0.09 -0.09)">
      <use xlink:href="#DejaVuSans-33"/>
      <use xlink:href="#DejaVuSans-32" transform="translate(63.623047 0)"/>
      <use xlink:href="#DejaVuSans-2e" transform="translate(127.246094 0)"/>
      <use xlink:href="#DejaVuSans-30" transform="translate(159.033203 0)"/>
     </g>
    </g>
   </g>
   <g id="text_15">
    <g clip-path="url(#p25ebdc6a48)">
     <!-- 32.0 -->
     <g transform="translate(87.993289 123.573637) rotate(-270.059805) scale(0.09 -0.09)">
      <use xlink:href="#DejaVuSans-33"/>
      <use xlink:href="#DejaVuSans-32" transform="translate(63.623047 0)"/>
      <use xlink:href="#DejaVuSans-2e" transform="translate(127.246094 0)"/>
      <use xlink:href="#DejaVuSans-30" transform="translate(159.033203 0)"/>
     </g>
    </g>
   </g>
   <g id="text_16">
    <g clip-path="url(#p25ebdc6a48)">
     <!-- 32.8 -->
     <g transform="translate(317.932136 123.589507) rotate(-270.419853) scale(0.09 -0.09)">
      <defs>
       <path id="DejaVuSans-38" d="M 2034 2216 
Q 1584 2216 1326 1975 
Q 1069 1734 1069 1313 
Q 1069 891 1326 650 
Q 1584 409 2034 409 
Q 2484 409 2743 651 
Q 3003 894 3003 1313 
Q 3003 1734 2745 1975 
Q 2488 2216 2034 2216 
z
M 1403 2484 
Q 997 2584 770 2862 
Q 544 3141 544 3541 
Q 544 4100 942 4425 
Q 1341 4750 2034 4750 
Q 2731 4750 3128 4425 
Q 3525 4100 3525 3541 
Q 3525 3141 3298 2862 
Q 3072 2584 2669 2484 
Q 3125 2378 3379 2068 
Q 3634 1759 3634 1313 
Q 3634 634 3220 271 
Q 2806 -91 2034 -91 
Q 1263 -91 848 271 
Q 434 634 434 1313 
Q 434 1759 690 2068 
Q 947 2378 1403 2484 
z
M 1172 3481 
Q 1172 3119 1398 2916 
Q 1625 2713 2034 2713 
Q 2441 2713 2670 2916 
Q 2900 3119 2900 3481 
Q 2900 3844 2670 4047 
Q 2441 4250 2034 4250 
Q 1625 4250 1398 4047 
Q 1172 3844 1172 3481 
z
" transform="scale(0.015625)"/>
      </defs>
      <use xlink:href="#DejaVuSans-33"/>
      <use xlink:href="#DejaVuSans-32" transform="translate(63.623047 0)"/>
      <use xlink:href="#DejaVuSans-2e" transform="translate(127.246094 0)"/>
      <use xlink:href="#DejaVuSans-38" transform="translate(159.033203 0)"/>
     </g>
    </g>
   </g>
   <g id="text_17">
    <g clip-path="url(#p25ebdc6a48)">
     <!-- 32.8 -->
     <g transform="translate(90.470516 123.575348) rotate(-270.099067) scale(0.09 -0.09)">
      <use xlink:href="#DejaVuSans-33"/>
      <use xlink:href="#DejaVuSans-32" transform="translate(63.623047 0)"/>
      <use xlink:href="#DejaVuSans-2e" transform="translate(127.246094 0)"/>
      <use xlink:href="#DejaVuSans-38" transform="translate(159.033203 0)"/>
     </g>
    </g>
   </g>
   <g id="text_18">
    <g clip-path="url(#p25ebdc6a48)">
     <!-- 33.6 -->
     <g transform="translate(315.981867 123.596972) rotate(-270.586215) scale(0.09 -0.09)">
      <use xlink:href="#DejaVuSans-33"/>
      <use xlink:href="#DejaVuSans-33" transform="translate(63.623047 0)"/>
      <use xlink:href="#DejaVuSans-2e" transform="translate(127.246094 0)"/>
      <use xlink:href="#DejaVuSans-36" transform="translate(159.033203 0)"/>
     </g>
    </g>
   </g>
   <g id="text_19">
    <g clip-path="url(#p25ebdc6a48)">
     <!-- 33.6 -->
     <g transform="translate(92.947744 123.577064) rotate(-270.138328) scale(0.09 -0.09)">
      <use xlink:href="#DejaVuSans-33"/>
      <use xlink:href="#DejaVuSans-33" transform="translate(63.623047 0)"/>
      <use xlink:href="#DejaVuSans-2e" transform="translate(127.246094 0)"/>
      <use xlink:href="#DejaVuSans-36" transform="translate(159.033203 0)"/>
     </g>
    </g>
   </g>
   <g id="text_20">
    <g clip-path="url(#p25ebdc6a48)">
     <!-- 34.4 -->
     <g transform="translate(314.031626 123.604521) rotate(-270.752545) scale(0.09 -0.09)">
      <use xlink:href="#DejaVuSans-33"/>
      <use xlink:href="#DejaVuSans-34" transform="translate(63.623047 0)"/>
      <use xlink:href="#DejaVuSans-2e" transform="translate(127.246094 0)"/>
      <use xlink:href="#DejaVuSans-34" transform="translate(159.033203 0)"/>
     </g>
    </g>
   </g>
   <g id="text_21">
    <g clip-path="url(#p25ebdc6a48)">
     <!-- 34.4 -->
     <g transform="translate(95.424974 123.578785) rotate(-270.177588) scale(0.09 -0.09)">
      <use xlink:href="#DejaVuSans-33"/>
      <use xlink:href="#DejaVuSans-34" transform="translate(63.623047 0)"/>
      <use xlink:href="#DejaVuSans-2e" transform="translate(127.246094 0)"/>
      <use xlink:href="#DejaVuSans-34" transform="translate(159.033203 0)"/>
     </g>
    </g>
   </g>
   <g id="text_22">
    <g clip-path="url(#p25ebdc6a48)">
     <!-- 35.2 -->
     <g transform="translate(312.081413 123.612152) rotate(-270.918833) scale(0.09 -0.09)">
      <use xlink:href="#DejaVuSans-33"/>
      <use xlink:href="#DejaVuSans-35" transform="translate(63.623047 0)"/>
      <use xlink:href="#DejaVuSans-2e" transform="translate(127.246094 0)"/>
      <use xlink:href="#DejaVuSans-32" transform="translate(159.033203 0)"/>
     </g>
    </g>
   </g>
   <g id="text_23">
    <g clip-path="url(#p25ebdc6a48)">
     <!-- 35.2 -->
     <g transform="translate(97.902205 123.58051) rotate(-270.216847) scale(0.09 -0.09)">
      <use xlink:href="#DejaVuSans-33"/>
      <use xlink:href="#DejaVuSans-35" transform="translate(63.623047 0)"/>
      <use xlink:href="#DejaVuSans-2e" transform="translate(127.246094 0)"/>
      <use xlink:href="#DejaVuSans-32" transform="translate(159.033203 0)"/>
     </g>
    </g>
   </g>
   <g id="text_24">
    <g clip-path="url(#p25ebdc6a48)">
     <!-- 36.0 -->
     <g transform="translate(310.131233 123.619865) rotate(-271.085069) scale(0.09 -0.09)">
      <use xlink:href="#DejaVuSans-33"/>
      <use xlink:href="#DejaVuSans-36" transform="translate(63.623047 0)"/>
      <use xlink:href="#DejaVuSans-2e" transform="translate(127.246094 0)"/>
      <use xlink:href="#DejaVuSans-30" transform="translate(159.033203 0)"/>
     </g>
    </g>
   </g>
   <g id="text_25">
    <g clip-path="url(#p25ebdc6a48)">
     <!-- 36.0 -->
     <g transform="translate(100.379438 123.58224) rotate(-270.256106) scale(0.09 -0.09)">
      <use xlink:href="#DejaVuSans-33"/>
      <use xlink:href="#DejaVuSans-36" transform="translate(63.623047 0)"/>
      <use xlink:href="#DejaVuSans-2e" transform="translate(127.246094 0)"/>
      <use xlink:href="#DejaVuSans-30" transform="translate(159.033203 0)"/>
     </g>
    </g>
   </g>
   <g id="text_26">
    <g clip-path="url(#p25ebdc6a48)">
     <!-- 36.8 -->
     <g transform="translate(308.181085 123.627658) rotate(-271.251245) scale(0.09 -0.09)">
      <use xlink:href="#DejaVuSans-33"/>
      <use xlink:href="#DejaVuSans-36" transform="translate(63.623047 0)"/>
      <use xlink:href="#DejaVuSans-2e" transform="translate(127.246094 0)"/>
      <use xlink:href="#DejaVuSans-38" transform="translate(159.033203 0)"/>
     </g>
    </g>
   </g>
   <g id="text_27">
    <g clip-path="url(#p25ebdc6a48)">
     <!-- 36.8 -->
     <g transform="translate(101.985536 103.310131) rotate(-273.894187) scale(0.09 -0.09)">
      <use xlink:href="#DejaVuSans-33"/>
      <use xlink:href="#DejaVuSans-36" transform="translate(63.623047 0)"/>
      <use xlink:href="#DejaVuSans-2e" transform="translate(127.246094 0)"/>
      <use xlink:href="#DejaVuSans-38" transform="translate(159.033203 0)"/>
     </g>
    </g>
   </g>
   <g id="text_28">
    <g clip-path="url(#p25ebdc6a48)">
     <!-- 37.6 -->
     <g transform="translate(306.230971 123.635533) rotate(-271.417352) scale(0.09 -0.09)">
      <defs>
       <path id="DejaVuSans-37" d="M 525 4666 
L 3525 4666 
L 3525 4397 
L 1831 0 
L 1172 0 
L 2766 4134 
L 525 4134 
L 525 4666 
z
" transform="scale(0.015625)"/>
      </defs>
      <use xlink:href="#DejaVuSans-33"/>
      <use xlink:href="#DejaVuSans-37" transform="translate(63.623047 0)"/>
      <use xlink:href="#DejaVuSans-2e" transform="translate(127.246094 0)"/>
      <use xlink:href="#DejaVuSans-36" transform="translate(159.033203 0)"/>
     </g>
    </g>
   </g>
   <g id="text_29">
    <g clip-path="url(#p25ebdc6a48)">
     <!-- 37.6 -->
     <g transform="translate(105.333907 123.585714) rotate(-270.334618) scale(0.09 -0.09)">
      <use xlink:href="#DejaVuSans-33"/>
      <use xlink:href="#DejaVuSans-37" transform="translate(63.623047 0)"/>
      <use xlink:href="#DejaVuSans-2e" transform="translate(127.246094 0)"/>
      <use xlink:href="#DejaVuSans-36" transform="translate(159.033203 0)"/>
     </g>
    </g>
   </g>
   <g id="text_30">
    <g clip-path="url(#p25ebdc6a48)">
     <!-- 38.4 -->
     <g transform="translate(304.280895 123.643487) rotate(-271.58338) scale(0.09 -0.09)">
      <use xlink:href="#DejaVuSans-33"/>
      <use xlink:href="#DejaVuSans-38" transform="translate(63.623047 0)"/>
      <use xlink:href="#DejaVuSans-2e" transform="translate(127.246094 0)"/>
      <use xlink:href="#DejaVuSans-34" transform="translate(159.033203 0)"/>
     </g>
    </g>
   </g>
   <g id="text_31">
    <g clip-path="url(#p25ebdc6a48)">
     <!-- 38.4 -->
     <g transform="translate(107.239085 144.165097) rotate(-273.506648) scale(0.09 -0.09)">
      <use xlink:href="#DejaVuSans-33"/>
      <use xlink:href="#DejaVuSans-38" transform="translate(63.623047 0)"/>
      <use xlink:href="#DejaVuSans-2e" transform="translate(127.246094 0)"/>
      <use xlink:href="#DejaVuSans-34" transform="translate(159.033203 0)"/>
     </g>
    </g>
   </g>
   <g id="text_32">
    <g clip-path="url(#p25ebdc6a48)">
     <!-- 39.2 -->
     <g transform="translate(308.505058 164.113047) rotate(-88.027461) scale(0.09 -0.09)">
      <defs>
       <path id="DejaVuSans-39" d="M 703 97 
L 703 672 
Q 941 559 1184 500 
Q 1428 441 1663 441 
Q 2288 441 2617 861 
Q 2947 1281 2994 2138 
Q 2813 1869 2534 1725 
Q 2256 1581 1919 1581 
Q 1219 1581 811 2004 
Q 403 2428 403 3163 
Q 403 3881 828 4315 
Q 1253 4750 1959 4750 
Q 2769 4750 3195 4129 
Q 3622 3509 3622 2328 
Q 3622 1225 3098 567 
Q 2575 -91 1691 -91 
Q 1453 -91 1209 -44 
Q 966 3 703 97 
z
M 1959 2075 
Q 2384 2075 2632 2365 
Q 2881 2656 2881 3163 
Q 2881 3666 2632 3958 
Q 2384 4250 1959 4250 
Q 1534 4250 1286 3958 
Q 1038 3666 1038 3163 
Q 1038 2656 1286 2365 
Q 1534 2075 1959 2075 
z
" transform="scale(0.015625)"/>
      </defs>
      <use xlink:href="#DejaVuSans-33"/>
      <use xlink:href="#DejaVuSans-39" transform="translate(63.623047 0)"/>
      <use xlink:href="#DejaVuSans-2e" transform="translate(127.246094 0)"/>
      <use xlink:href="#DejaVuSans-32" transform="translate(159.033203 0)"/>
     </g>
    </g>
   </g>
   <g id="text_33">
    <g clip-path="url(#p25ebdc6a48)">
     <!-- 39.2 -->
     <g transform="translate(113.648759 123.641139) rotate(-271.534559) scale(0.09 -0.09)">
      <use xlink:href="#DejaVuSans-33"/>
      <use xlink:href="#DejaVuSans-39" transform="translate(63.623047 0)"/>
      <use xlink:href="#DejaVuSans-2e" transform="translate(127.246094 0)"/>
      <use xlink:href="#DejaVuSans-32" transform="translate(159.033203 0)"/>
     </g>
    </g>
   </g>
   <g id="text_34">
    <g clip-path="url(#p25ebdc6a48)">
     <!-- 39.2 -->
     <g transform="translate(173.07918 237.407461) rotate(-14.512778) scale(0.09 -0.09)">
      <use xlink:href="#DejaVuSans-33"/>
      <use xlink:href="#DejaVuSans-39" transform="translate(63.623047 0)"/>
      <use xlink:href="#DejaVuSans-2e" transform="translate(127.246094 0)"/>
      <use xlink:href="#DejaVuSans-32" transform="translate(159.033203 0)"/>
     </g>
    </g>
   </g>
   <g id="text_35">
    <g clip-path="url(#p25ebdc6a48)">
     <!-- 39.2 -->
     <g transform="translate(180.969827 101.133273) rotate(-31.679076) scale(0.09 -0.09)">
      <use xlink:href="#DejaVuSans-33"/>
      <use xlink:href="#DejaVuSans-39" transform="translate(63.623047 0)"/>
      <use xlink:href="#DejaVuSans-2e" transform="translate(127.246094 0)"/>
      <use xlink:href="#DejaVuSans-32" transform="translate(159.033203 0)"/>
     </g>
    </g>
   </g>
   <g id="text_36">
    <g clip-path="url(#p25ebdc6a48)">
     <!-- 40.0 -->
     <g transform="translate(306.670117 164.119846) rotate(-87.84378) scale(0.09 -0.09)">
      <use xlink:href="#DejaVuSans-34"/>
      <use xlink:href="#DejaVuSans-30" transform="translate(63.623047 0)"/>
      <use xlink:href="#DejaVuSans-2e" transform="translate(127.246094 0)"/>
      <use xlink:href="#DejaVuSans-30" transform="translate(159.033203 0)"/>
     </g>
    </g>
   </g>
   <g id="text_37">
    <g clip-path="url(#p25ebdc6a48)">
     <!-- 40.0 -->
     <g transform="translate(118.82644 144.041869) rotate(-271.055113) scale(0.09 -0.09)">
      <use xlink:href="#DejaVuSans-34"/>
      <use xlink:href="#DejaVuSans-30" transform="translate(63.623047 0)"/>
      <use xlink:href="#DejaVuSans-2e" transform="translate(127.246094 0)"/>
      <use xlink:href="#DejaVuSans-30" transform="translate(159.033203 0)"/>
     </g>
    </g>
   </g>
   <g id="text_38">
    <g clip-path="url(#p25ebdc6a48)">
     <!-- 40.0 -->
     <g transform="translate(173.705468 229.256576) rotate(-21.124452) scale(0.09 -0.09)">
      <use xlink:href="#DejaVuSans-34"/>
      <use xlink:href="#DejaVuSans-30" transform="translate(63.623047 0)"/>
      <use xlink:href="#DejaVuSans-2e" transform="translate(127.246094 0)"/>
      <use xlink:href="#DejaVuSans-30" transform="translate(159.033203 0)"/>
     </g>
    </g>
   </g>
   <g id="text_39">
    <g clip-path="url(#p25ebdc6a48)">
     <!-- 40.0 -->
     <g transform="translate(244.069242 42.766659) rotate(-6.445316) scale(0.09 -0.09)">
      <use xlink:href="#DejaVuSans-34"/>
      <use xlink:href="#DejaVuSans-30" transform="translate(63.623047 0)"/>
      <use xlink:href="#DejaVuSans-2e" transform="translate(127.246094 0)"/>
      <use xlink:href="#DejaVuSans-30" transform="translate(159.033203 0)"/>
     </g>
    </g>
   </g>
   <g id="text_40">
    <g clip-path="url(#p25ebdc6a48)">
     <!-- 40.0 -->
     <g transform="translate(190.087318 102.065075) rotate(-39.664186) scale(0.09 -0.09)">
      <use xlink:href="#DejaVuSans-34"/>
      <use xlink:href="#DejaVuSans-30" transform="translate(63.623047 0)"/>
      <use xlink:href="#DejaVuSans-2e" transform="translate(127.246094 0)"/>
      <use xlink:href="#DejaVuSans-30" transform="translate(159.033203 0)"/>
     </g>
    </g>
   </g>
   <g id="text_41">
    <g clip-path="url(#p25ebdc6a48)">
     <!-- 40.0 -->
     <g transform="translate(243.660085 224.836484) rotate(-358.35792) scale(0.09 -0.09)">
      <use xlink:href="#DejaVuSans-34"/>
      <use xlink:href="#DejaVuSans-30" transform="translate(63.623047 0)"/>
      <use xlink:href="#DejaVuSans-2e" transform="translate(127.246094 0)"/>
      <use xlink:href="#DejaVuSans-30" transform="translate(159.033203 0)"/>
     </g>
    </g>
   </g>
   <g id="text_42">
    <g clip-path="url(#p25ebdc6a48)">
     <!-- 40.8 -->
     <g transform="translate(125.576441 34.817047) rotate(-315.13601) scale(0.09 -0.09)">
      <use xlink:href="#DejaVuSans-34"/>
      <use xlink:href="#DejaVuSans-30" transform="translate(63.623047 0)"/>
      <use xlink:href="#DejaVuSans-2e" transform="translate(127.246094 0)"/>
      <use xlink:href="#DejaVuSans-38" transform="translate(159.033203 0)"/>
     </g>
    </g>
   </g>
   <g id="text_43">
    <g clip-path="url(#p25ebdc6a48)">
     <!-- 40.8 -->
     <g transform="translate(196.24956 48.315821) rotate(-4.905936) scale(0.09 -0.09)">
      <use xlink:href="#DejaVuSans-34"/>
      <use xlink:href="#DejaVuSans-30" transform="translate(63.623047 0)"/>
      <use xlink:href="#DejaVuSans-2e" transform="translate(127.246094 0)"/>
      <use xlink:href="#DejaVuSans-38" transform="translate(159.033203 0)"/>
     </g>
    </g>
   </g>
   <g id="text_44">
    <g clip-path="url(#p25ebdc6a48)">
     <!-- 40.8 -->
     <g transform="translate(267.727975 42.92836) rotate(-2.881395) scale(0.09 -0.09)">
      <use xlink:href="#DejaVuSans-34"/>
      <use xlink:href="#DejaVuSans-30" transform="translate(63.623047 0)"/>
      <use xlink:href="#DejaVuSans-2e" transform="translate(127.246094 0)"/>
      <use xlink:href="#DejaVuSans-38" transform="translate(159.033203 0)"/>
     </g>
    </g>
   </g>
   <g id="text_45">
    <g clip-path="url(#p25ebdc6a48)">
     <!-- 40.8 -->
     <g transform="translate(130.253824 216.91901) rotate(-331.270861) scale(0.09 -0.09)">
      <use xlink:href="#DejaVuSans-34"/>
      <use xlink:href="#DejaVuSans-30" transform="translate(63.623047 0)"/>
      <use xlink:href="#DejaVuSans-2e" transform="translate(127.246094 0)"/>
      <use xlink:href="#DejaVuSans-38" transform="translate(159.033203 0)"/>
     </g>
    </g>
   </g>
   <g id="text_46">
    <g clip-path="url(#p25ebdc6a48)">
     <!-- 40.8 -->
     <g transform="translate(220.321482 227.412528) rotate(-8.215208) scale(0.09 -0.09)">
      <use xlink:href="#DejaVuSans-34"/>
      <use xlink:href="#DejaVuSans-30" transform="translate(63.623047 0)"/>
      <use xlink:href="#DejaVuSans-2e" transform="translate(127.246094 0)"/>
      <use xlink:href="#DejaVuSans-38" transform="translate(159.033203 0)"/>
     </g>
    </g>
   </g>
   <g id="text_47">
    <g clip-path="url(#p25ebdc6a48)">
     <!-- 40.8 -->
     <g transform="translate(268.487072 159.047015) rotate(-13.978446) scale(0.09 -0.09)">
      <use xlink:href="#DejaVuSans-34"/>
      <use xlink:href="#DejaVuSans-30" transform="translate(63.623047 0)"/>
      <use xlink:href="#DejaVuSans-2e" transform="translate(127.246094 0)"/>
      <use xlink:href="#DejaVuSans-38" transform="translate(159.033203 0)"/>
     </g>
    </g>
   </g>
   <g id="text_48">
    <g clip-path="url(#p25ebdc6a48)">
     <!-- 40.8 -->
     <g transform="translate(243.520762 136.265676) rotate(-353.932379) scale(0.09 -0.09)">
      <use xlink:href="#DejaVuSans-34"/>
      <use xlink:href="#DejaVuSans-30" transform="translate(63.623047 0)"/>
      <use xlink:href="#DejaVuSans-2e" transform="translate(127.246094 0)"/>
      <use xlink:href="#DejaVuSans-38" transform="translate(159.033203 0)"/>
     </g>
    </g>
   </g>
   <g id="text_49">
    <g clip-path="url(#p25ebdc6a48)">
     <!-- 41.6 -->
     <g transform="translate(196.010221 41.128056) rotate(-0.223242) scale(0.09 -0.09)">
      <use xlink:href="#DejaVuSans-34"/>
      <use xlink:href="#DejaVuSans-31" transform="translate(63.623047 0)"/>
      <use xlink:href="#DejaVuSans-2e" transform="translate(127.246094 0)"/>
      <use xlink:href="#DejaVuSans-36" transform="translate(159.033203 0)"/>
     </g>
    </g>
   </g>
   <g id="text_50">
    <g clip-path="url(#p25ebdc6a48)">
     <!-- 41.6 -->
     <g transform="translate(267.639871 69.463718) rotate(-1.097435) scale(0.09 -0.09)">
      <use xlink:href="#DejaVuSans-34"/>
      <use xlink:href="#DejaVuSans-31" transform="translate(63.623047 0)"/>
      <use xlink:href="#DejaVuSans-2e" transform="translate(127.246094 0)"/>
      <use xlink:href="#DejaVuSans-36" transform="translate(159.033203 0)"/>
     </g>
    </g>
   </g>
   <g id="text_51">
    <g clip-path="url(#p25ebdc6a48)">
     <!-- 41.6 -->
     <g transform="translate(246.592999 175.145729) rotate(-32.210984) scale(0.09 -0.09)">
      <use xlink:href="#DejaVuSans-34"/>
      <use xlink:href="#DejaVuSans-31" transform="translate(63.623047 0)"/>
      <use xlink:href="#DejaVuSans-2e" transform="translate(127.246094 0)"/>
      <use xlink:href="#DejaVuSans-36" transform="translate(159.033203 0)"/>
     </g>
    </g>
   </g>
   <g id="text_52">
    <g clip-path="url(#p25ebdc6a48)">
     <!-- 42.4 -->
     <g transform="translate(186.352067 166.564524) rotate(-304.650582) scale(0.09 -0.09)">
      <use xlink:href="#DejaVuSans-34"/>
      <use xlink:href="#DejaVuSans-32" transform="translate(63.623047 0)"/>
      <use xlink:href="#DejaVuSans-2e" transform="translate(127.246094 0)"/>
      <use xlink:href="#DejaVuSans-34" transform="translate(159.033203 0)"/>
     </g>
    </g>
   </g>
   <g id="text_53">
    <g clip-path="url(#p25ebdc6a48)">
     <!-- 42.4 -->
     <g transform="translate(267.575073 137.842911) rotate(-359.640254) scale(0.09 -0.09)">
      <use xlink:href="#DejaVuSans-34"/>
      <use xlink:href="#DejaVuSans-32" transform="translate(63.623047 0)"/>
      <use xlink:href="#DejaVuSans-2e" transform="translate(127.246094 0)"/>
      <use xlink:href="#DejaVuSans-34" transform="translate(159.033203 0)"/>
     </g>
    </g>
   </g>
   <g id="text_54">
    <g clip-path="url(#p25ebdc6a48)">
     <!-- 43.2 -->
     <g transform="translate(218.033863 159.518719) rotate(-18.30559) scale(0.09 -0.09)">
      <use xlink:href="#DejaVuSans-34"/>
      <use xlink:href="#DejaVuSans-33" transform="translate(63.623047 0)"/>
      <use xlink:href="#DejaVuSans-2e" transform="translate(127.246094 0)"/>
      <use xlink:href="#DejaVuSans-32" transform="translate(159.033203 0)"/>
     </g>
    </g>
   </g>
   <g id="text_55">
    <g clip-path="url(#p25ebdc6a48)">
     <!-- 44.0 -->
     <g transform="translate(221.627579 149.952172) rotate(-22.971497) scale(0.09 -0.09)">
      <use xlink:href="#DejaVuSans-34"/>
      <use xlink:href="#DejaVuSans-34" transform="translate(63.623047 0)"/>
      <use xlink:href="#DejaVuSans-2e" transform="translate(127.246094 0)"/>
      <use xlink:href="#DejaVuSans-30" transform="translate(159.033203 0)"/>
     </g>
    </g>
   </g>
  </g>
 </g>
 <defs>
  <clipPath id="p25ebdc6a48">
   <rect x="62.84" y="26.88" width="286.36" height="213.4"/>
  </clipPath>
 </defs>
</svg>
