<?xml version="1.0" encoding="utf-8" standalone="no"?>
<!DOCTYPE svg PUBLIC "-//W3C//DTD SVG 1.1//EN"
  "http://www.w3.org/Graphics/SVG/1.1/DTD/svg11.dtd">
<svg xmlns:xlink="http://www.w3.org/1999/xlink" width="360pt" height="288pt" viewBox="0 0 360 288" xmlns="http://www.w3.org/2000/svg" version="1.1">
 <metadata>
  <rdf:RDF xmlns:dc="http://purl.org/dc/elements/1.1/" xmlns:cc="http://creativecommons.org/ns#" xmlns:rdf="http://www.w3.org/1999/02/22-rdf-syntax-ns#">
   <cc:Work>
    <dc:type rdf:resource="http://purl.org/dc/dcmitype/StillImage"/>
    <dc:date>2025-10-02T17:14:32.906918</dc:date>
    <dc:format>image/svg+xml</dc:format>
    <dc:creator>
     <cc:Agent>
      <dc:title>Matplotlib v3.10.6, https://matplotlib.org/</dc:title>
     </cc:Agent>
    </dc:creator>
   </cc:Work>
  </rdf:RDF>
 </metadata>
 <defs>
  <style type="text/css">*{stroke-linejoin: round; stroke-linecap: butt}</style>
 </defs>
 <g id="figure_1">
  <g id="patch_1">
   <path d="M 0 288 
L 360 288 
L 360 0 
L 0 0 
z
" style="fill: #ffffff"/>
  </g>
  <g id="axes_1">
   <g id="patch_2">
    <path d="M 62.84 240.28 
L 349.2 240.28 
L 349.2 26.88 
L 62.84 26.88 
z
" style="fill: #ffffff"/>
   </g>
   <g id="QuadContourSet_1">
    <path d="M 86.703333 26.88 
L 87.502412 26.88 
L 87.41143 36.380776 
L 87.370933 47.600163 
L 87.404356 60.808896 
L 87.39671 76.198006 
L 87.485629 93.757994 
L 87.345197 113.137869 
L 87.433791 133.590571 
L 87.515052 154.013971 
L 87.583379 173.39493 
L 87.52369 190.956403 
L 87.555408 206.347113 
L 87.546341 219.557363 
L 87.645303 230.778089 
L 87.849297 240.28 
L 86.703333 240.28 
L 62.84 240.28 
L 62.84 230.778089 
L 62.84 219.557363 
L 62.84 206.347113 
L 62.84 190.956403 
L 62.84 173.39493 
L 62.84 154.013971 
L 62.84 133.590571 
L 62.84 113.137869 
L 62.84 93.757994 
L 62.84 76.198006 
L 62.84 60.808896 
L 62.84 47.600163 
L 62.84 36.380776 
L 62.84 26.88 
z
M 325.336667 26.88 
L 349.2 26.88 
L 349.2 36.380776 
L 349.2 47.600163 
L 349.2 60.808896 
L 349.2 76.198006 
L 349.2 93.757994 
L 349.2 113.137869 
L 349.2 133.590571 
L 349.2 154.013971 
L 349.2 173.39493 
L 349.2 190.956403 
L 349.2 206.347113 
L 349.2 219.557363 
L 349.2 230.778089 
L 349.2 240.28 
L 325.336667 240.28 
L 324.398992 240.28 
L 324.425352 230.778089 
L 324.459667 219.557363 
L 324.293198 206.347113 
L 324.23842 190.956403 
L 324.593156 173.39493 
L 324.634166 154.013971 
L 324.560705 133.590571 
L 324.63863 113.137869 
L 324.748075 93.757994 
L 324.640567 76.198006 
L 324.730063 60.808896 
L 324.603884 47.600163 
L 324.632227 36.380776 
L 324.567217 26.88 
z
" clip-path="url(#p37dda77b57)" style="fill: #460a5d"/>
    <path d="M 89.377464 36.380776 
L 89.224527 47.600163 
L 89.350751 60.808896 
L 89.321875 76.198006 
L 89.657678 93.757994 
L 89.127336 113.137869 
L 89.461914 133.590571 
L 89.768796 154.013971 
L 90.026834 173.39493 
L 89.801415 190.956403 
L 89.921199 206.347113 
L 89.886959 219.557363 
L 90.260688 230.778089 
L 91.031075 240.28 
L 87.849297 240.28 
L 87.645303 230.778089 
L 87.546341 219.557363 
L 87.555408 206.347113 
L 87.52369 190.956403 
L 87.583379 173.39493 
L 87.515052 154.013971 
L 87.433791 133.590571 
L 87.345197 113.137869 
L 87.485629 93.757994 
L 87.39671 76.198006 
L 87.404356 60.808896 
L 87.370933 47.600163 
L 87.41143 36.380776 
L 87.502412 26.88 
L 89.721059 26.88 
z
M 324.632227 36.380776 
L 324.603884 47.600163 
L 324.730063 60.808896 
L 324.640567 76.198006 
L 324.748075 93.757994 
L 324.63863 113.137869 
L 324.560705 133.590571 
L 324.634166 154.013971 
L 324.593156 173.39493 
L 324.23842 190.956403 
L 324.293198 206.347113 
L 324.459667 219.557363 
L 324.425352 230.778089 
L 324.398992 240.28 
L 321.795532 240.28 
L 321.895078 230.778089 
L 322.024671 219.557363 
L 321.396 206.347113 
L 321.18913 190.956403 
L 322.528792 173.39493 
L 322.683667 154.013971 
L 322.406241 133.590571 
L 322.700526 113.137869 
L 323.113844 93.757994 
L 322.707842 76.198006 
L 323.045825 60.808896 
L 322.569306 47.600163 
L 322.676344 36.380776 
L 322.430834 26.88 
L 324.567217 26.88 
z
" clip-path="url(#p37dda77b57)" style="fill: #481c6e"/>
    <path d="M 91.343499 36.380776 
L 91.078121 47.600163 
L 91.297145 60.808896 
L 91.24704 76.198006 
L 91.829728 93.757994 
L 90.909476 113.137869 
L 91.490037 133.590571 
L 92.02254 154.013971 
L 92.470289 173.39493 
L 92.079141 190.956403 
L 92.28699 206.347113 
L 92.227577 219.557363 
L 92.876073 230.778089 
L 94.212853 240.28 
L 91.031075 240.28 
L 90.260688 230.778089 
L 89.886959 219.557363 
L 89.921199 206.347113 
L 89.801415 190.956403 
L 90.026834 173.39493 
L 89.768796 154.013971 
L 89.461914 133.590571 
L 89.127336 113.137869 
L 89.657678 93.757994 
L 89.321875 76.198006 
L 89.350751 60.808896 
L 89.224527 47.600163 
L 89.377464 36.380776 
L 89.721059 26.88 
L 91.939705 26.88 
z
M 322.676344 36.380776 
L 322.569306 47.600163 
L 323.045825 60.808896 
L 322.707842 76.198006 
L 323.113844 93.757994 
L 322.700526 113.137869 
L 322.406241 133.590571 
L 322.683667 154.013971 
L 322.528792 173.39493 
L 321.18913 190.956403 
L 321.396 206.347113 
L 322.024671 219.557363 
L 321.895078 230.778089 
L 321.795532 240.28 
L 319.192072 240.28 
L 319.364805 230.778089 
L 319.589674 219.557363 
L 318.498802 206.347113 
L 318.13984 190.956403 
L 320.464428 173.39493 
L 320.733168 154.013971 
L 320.251777 133.590571 
L 320.762422 113.137869 
L 321.479614 93.757994 
L 320.775117 76.198006 
L 321.361587 60.808896 
L 320.534729 47.600163 
L 320.720461 36.380776 
L 320.294451 26.88 
L 322.430834 26.88 
z
" clip-path="url(#p37dda77b57)" style="fill: #472c7a"/>
    <path d="M 93.309534 36.380776 
L 92.931715 47.600163 
L 93.24354 60.808896 
L 93.172205 76.198006 
L 94.001777 93.757994 
L 92.691615 113.137869 
L 93.518159 133.590571 
L 94.276284 154.013971 
L 94.913744 173.39493 
L 94.356867 190.956403 
L 94.652782 206.347113 
L 94.568195 219.557363 
L 95.491458 230.778089 
L 97.394631 240.28 
L 94.212853 240.28 
L 92.876073 230.778089 
L 92.227577 219.557363 
L 92.28699 206.347113 
L 92.079141 190.956403 
L 92.470289 173.39493 
L 92.02254 154.013971 
L 91.490037 133.590571 
L 90.909476 113.137869 
L 91.829728 93.757994 
L 91.24704 76.198006 
L 91.297145 60.808896 
L 91.078121 47.600163 
L 91.343499 36.380776 
L 91.939705 26.88 
L 94.158352 26.88 
z
M 320.720461 36.380776 
L 320.534729 47.600163 
L 321.361587 60.808896 
L 320.775117 76.198006 
L 321.479614 93.757994 
L 320.762422 113.137869 
L 320.251777 133.590571 
L 320.733168 154.013971 
L 320.464428 173.39493 
L 318.13984 190.956403 
L 318.498802 206.347113 
L 319.589674 219.557363 
L 319.364805 230.778089 
L 319.192072 240.28 
L 316.588612 240.28 
L 316.834532 230.778089 
L 317.154678 219.557363 
L 315.601604 206.347113 
L 315.09055 190.956403 
L 318.400064 173.39493 
L 318.78267 154.013971 
L 318.097313 133.590571 
L 318.824318 113.137869 
L 319.845384 93.757994 
L 318.842392 76.198006 
L 319.677348 60.808896 
L 318.500151 47.600163 
L 318.764578 36.380776 
L 318.158069 26.88 
L 320.294451 26.88 
z
" clip-path="url(#p37dda77b57)" style="fill: #443b84"/>
    <path d="M 95.275568 36.380776 
L 94.78531 47.600163 
L 95.189935 60.808896 
L 95.09737 76.198006 
L 96.173826 93.757994 
L 94.473754 113.137869 
L 95.546282 133.590571 
L 96.530028 154.013971 
L 97.357199 173.39493 
L 96.634592 190.956403 
L 97.018573 206.347113 
L 96.908814 219.557363 
L 98.106843 230.778089 
L 100.576408 240.28 
L 97.394631 240.28 
L 95.491458 230.778089 
L 94.568195 219.557363 
L 94.652782 206.347113 
L 94.356867 190.956403 
L 94.913744 173.39493 
L 94.276284 154.013971 
L 93.518159 133.590571 
L 92.691615 113.137869 
L 94.001777 93.757994 
L 93.172205 76.198006 
L 93.24354 60.808896 
L 92.931715 47.600163 
L 93.309534 36.380776 
L 94.158352 26.88 
L 96.376999 26.88 
z
M 318.764578 36.380776 
L 318.500151 47.600163 
L 319.677348 60.808896 
L 318.842392 76.198006 
L 319.845384 93.757994 
L 318.824318 113.137869 
L 318.097313 133.590571 
L 318.78267 154.013971 
L 318.400064 173.39493 
L 315.09055 190.956403 
L 315.601604 206.347113 
L 317.154678 219.557363 
L 316.834532 230.778089 
L 316.588612 240.28 
L 313.985152 240.28 
L 314.304258 230.778089 
L 314.719681 219.557363 
L 312.704405 206.347113 
L 312.04126 190.956403 
L 316.335701 173.39493 
L 316.832171 154.013971 
L 315.942849 133.590571 
L 316.886214 113.137869 
L 318.211154 93.757994 
L 316.909667 76.198006 
L 317.99311 60.808896 
L 316.465574 47.600163 
L 316.808695 36.380776 
L 316.021686 26.88 
L 318.158069 26.88 
z
" clip-path="url(#p37dda77b57)" style="fill: #3e4a89"/>
    <path d="M 97.241603 36.380776 
L 96.638904 47.600163 
L 97.136329 60.808896 
L 97.022535 76.198006 
L 98.345876 93.757994 
L 96.255893 113.137869 
L 97.574404 133.590571 
L 98.783772 154.013971 
L 99.800654 173.39493 
L 98.912318 190.956403 
L 99.384364 206.347113 
L 99.249432 219.557363 
L 100.722228 230.778089 
L 103.758186 240.28 
L 100.576408 240.28 
L 98.106843 230.778089 
L 96.908814 219.557363 
L 97.018573 206.347113 
L 96.634592 190.956403 
L 97.357199 173.39493 
L 96.530028 154.013971 
L 95.546282 133.590571 
L 94.473754 113.137869 
L 96.173826 93.757994 
L 95.09737 76.198006 
L 95.189935 60.808896 
L 94.78531 47.600163 
L 95.275568 36.380776 
L 96.376999 26.88 
L 98.595646 26.88 
z
M 316.808695 36.380776 
L 316.465574 47.600163 
L 317.99311 60.808896 
L 316.909667 76.198006 
L 318.211154 93.757994 
L 316.886214 113.137869 
L 315.942849 133.590571 
L 316.832171 154.013971 
L 316.335701 173.39493 
L 312.04126 190.956403 
L 312.704405 206.347113 
L 314.719681 219.557363 
L 314.304258 230.778089 
L 313.985152 240.28 
L 311.381692 240.28 
L 311.773985 230.778089 
L 312.284685 219.557363 
L 309.807207 206.347113 
L 308.99197 190.956403 
L 314.271337 173.39493 
L 314.881672 154.013971 
L 313.788385 133.590571 
L 314.94811 113.137869 
L 316.576924 93.757994 
L 314.976942 76.198006 
L 316.308872 60.808896 
L 314.430996 47.600163 
L 314.852812 36.380776 
L 313.885303 26.88 
L 316.021686 26.88 
z
" clip-path="url(#p37dda77b57)" style="fill: #38598c"/>
    <path d="M 99.207638 36.380776 
L 98.492498 47.600163 
L 99.082724 60.808896 
L 98.947701 76.198006 
L 100.517925 93.757994 
L 98.038033 113.137869 
L 99.602527 133.590571 
L 101.037516 154.013971 
L 102.244109 173.39493 
L 101.190044 190.956403 
L 101.750155 206.347113 
L 101.59005 219.557363 
L 103.337613 230.778089 
L 106.939964 240.28 
L 103.758186 240.28 
L 100.722228 230.778089 
L 99.249432 219.557363 
L 99.384364 206.347113 
L 98.912318 190.956403 
L 99.800654 173.39493 
L 98.783772 154.013971 
L 97.574404 133.590571 
L 96.255893 113.137869 
L 98.345876 93.757994 
L 97.022535 76.198006 
L 97.136329 60.808896 
L 96.638904 47.600163 
L 97.241603 36.380776 
L 98.595646 26.88 
L 100.814293 26.88 
z
M 314.852812 36.380776 
L 314.430996 47.600163 
L 316.308872 60.808896 
L 314.976942 76.198006 
L 316.576924 93.757994 
L 314.94811 113.137869 
L 313.788385 133.590571 
L 314.881672 154.013971 
L 314.271337 173.39493 
L 308.99197 190.956403 
L 309.807207 206.347113 
L 312.284685 219.557363 
L 311.773985 230.778089 
L 311.381692 240.28 
L 308.778232 240.28 
L 309.243712 230.778089 
L 309.849688 219.557363 
L 306.910009 206.347113 
L 305.94268 190.956403 
L 312.206973 173.39493 
L 312.931174 154.013971 
L 311.633921 133.590571 
L 313.010006 113.137869 
L 314.942693 93.757994 
L 313.044216 76.198006 
L 314.624634 60.808896 
L 312.396419 47.600163 
L 312.896929 36.380776 
L 311.74892 26.88 
L 313.885303 26.88 
z
" clip-path="url(#p37dda77b57)" style="fill: #31668e"/>
    <path d="M 101.173673 36.380776 
L 100.346093 47.600163 
L 101.029119 60.808896 
L 100.872866 76.198006 
L 102.689974 93.757994 
L 99.820172 113.137869 
L 101.63065 133.590571 
L 103.29126 154.013971 
L 104.687563 173.39493 
L 103.467769 190.956403 
L 104.115947 206.347113 
L 103.930668 219.557363 
L 105.952998 230.778089 
L 110.121742 240.28 
L 106.939964 240.28 
L 103.337613 230.778089 
L 101.59005 219.557363 
L 101.750155 206.347113 
L 101.190044 190.956403 
L 102.244109 173.39493 
L 101.037516 154.013971 
L 99.602527 133.590571 
L 98.038033 113.137869 
L 100.517925 93.757994 
L 98.947701 76.198006 
L 99.082724 60.808896 
L 98.492498 47.600163 
L 99.207638 36.380776 
L 100.814293 26.88 
L 103.03294 26.88 
z
M 312.896929 36.380776 
L 312.396419 47.600163 
L 314.624634 60.808896 
L 313.044216 76.198006 
L 314.942693 93.757994 
L 313.010006 113.137869 
L 311.633921 133.590571 
L 312.931174 154.013971 
L 312.206973 173.39493 
L 305.94268 190.956403 
L 306.910009 206.347113 
L 309.849688 219.557363 
L 309.243712 230.778089 
L 308.778232 240.28 
L 306.174772 240.28 
L 306.713438 230.778089 
L 307.414692 219.557363 
L 304.012811 206.347113 
L 302.89339 190.956403 
L 310.142609 173.39493 
L 310.980675 154.013971 
L 309.479457 133.590571 
L 311.071902 113.137869 
L 313.308463 93.757994 
L 311.111491 76.198006 
L 312.940395 60.808896 
L 310.361841 47.600163 
L 310.941046 36.380776 
L 309.612537 26.88 
L 311.74892 26.88 
z
" clip-path="url(#p37dda77b57)" style="fill: #2c718e"/>
    <path d="M 103.139707 36.380776 
L 102.199687 47.600163 
L 102.975514 60.808896 
L 102.798031 76.198006 
L 104.862024 93.757994 
L 101.602311 113.137869 
L 103.658772 133.590571 
L 105.545004 154.013971 
L 107.131018 173.39493 
L 105.745495 190.956403 
L 106.481738 206.347113 
L 106.271286 219.557363 
L 108.568383 230.778089 
L 110.566667 235.2479 
L 118.000024 240.28 
L 110.566667 240.28 
L 110.121742 240.28 
L 105.952998 230.778089 
L 103.930668 219.557363 
L 104.115947 206.347113 
L 103.467769 190.956403 
L 104.687563 173.39493 
L 103.29126 154.013971 
L 101.63065 133.590571 
L 99.820172 113.137869 
L 102.689974 93.757994 
L 100.872866 76.198006 
L 101.029119 60.808896 
L 100.346093 47.600163 
L 101.173673 36.380776 
L 103.03294 26.88 
L 105.251587 26.88 
z
M 310.941046 36.380776 
L 310.361841 47.600163 
L 312.940395 60.808896 
L 311.111491 76.198006 
L 313.308463 93.757994 
L 311.071902 113.137869 
L 309.479457 133.590571 
L 310.980675 154.013971 
L 310.142609 173.39493 
L 302.89339 190.956403 
L 304.012811 206.347113 
L 307.414692 219.557363 
L 306.713438 230.778089 
L 306.174772 240.28 
L 303.571312 240.28 
L 304.183165 230.778089 
L 304.979695 219.557363 
L 301.473333 207.390368 
L 300.151006 206.347113 
L 298.12724 190.956403 
L 301.473333 188.443384 
L 308.078245 173.39493 
L 309.030176 154.013971 
L 307.324993 133.590571 
L 309.133798 113.137869 
L 311.674233 93.757994 
L 309.178766 76.198006 
L 311.256157 60.808896 
L 308.327264 47.600163 
L 308.985163 36.380776 
L 307.476155 26.88 
L 309.612537 26.88 
z
" clip-path="url(#p37dda77b57)" style="fill: #277e8e"/>
    <path d="M 105.105742 36.380776 
L 104.053281 47.600163 
L 104.921908 60.808896 
L 104.723196 76.198006 
L 107.034073 93.757994 
L 103.384451 113.137869 
L 105.686895 133.590571 
L 107.798748 154.013971 
L 109.574473 173.39493 
L 108.023221 190.956403 
L 108.847529 206.347113 
L 108.611904 219.557363 
L 110.566667 228.306294 
L 114.06056 230.778089 
L 126.641808 240.28 
L 118.000024 240.28 
L 110.566667 235.2479 
L 108.568383 230.778089 
L 106.271286 219.557363 
L 106.481738 206.347113 
L 105.745495 190.956403 
L 107.131018 173.39493 
L 105.545004 154.013971 
L 103.658772 133.590571 
L 101.602311 113.137869 
L 104.862024 93.757994 
L 102.798031 76.198006 
L 102.975514 60.808896 
L 102.199687 47.600163 
L 103.139707 36.380776 
L 105.251587 26.88 
L 107.470234 26.88 
z
M 308.985163 36.380776 
L 308.327264 47.600163 
L 311.256157 60.808896 
L 309.178766 76.198006 
L 311.674233 93.757994 
L 309.133798 113.137869 
L 307.324993 133.590571 
L 309.030176 154.013971 
L 308.078245 173.39493 
L 301.473333 188.443384 
L 298.12724 190.956403 
L 300.151006 206.347113 
L 301.473333 207.390368 
L 304.979695 219.557363 
L 304.183165 230.778089 
L 303.571312 240.28 
L 301.473333 240.28 
L 299.532743 240.28 
L 301.473333 233.321427 
L 301.652892 230.778089 
L 302.544699 219.557363 
L 301.473333 215.839749 
L 289.441406 206.347113 
L 291.86466 190.956403 
L 301.473333 183.739993 
L 306.013882 173.39493 
L 307.079678 154.013971 
L 305.170529 133.590571 
L 307.195694 113.137869 
L 310.040003 93.757994 
L 307.246041 76.198006 
L 309.571919 60.808896 
L 306.292686 47.600163 
L 307.02928 36.380776 
L 305.339772 26.88 
L 307.476155 26.88 
z
" clip-path="url(#p37dda77b57)" style="fill: #238a8d"/>
    <path d="M 107.071777 36.380776 
L 105.906875 47.600163 
L 106.868303 60.808896 
L 106.648361 76.198006 
L 109.206123 93.757994 
L 105.16659 113.137869 
L 107.715017 133.590571 
L 110.052492 154.013971 
L 110.566667 159.392544 
L 117.009364 173.39493 
L 110.566667 188.073301 
L 110.300946 190.956403 
L 110.566667 195.560266 
L 114.15242 206.347113 
L 114.143112 219.557363 
L 128.868301 230.778089 
L 134.43 238.301474 
L 136.751423 240.28 
L 134.43 240.28 
L 126.641808 240.28 
L 114.06056 230.778089 
L 110.566667 228.306294 
L 108.611904 219.557363 
L 108.847529 206.347113 
L 108.023221 190.956403 
L 109.574473 173.39493 
L 107.798748 154.013971 
L 105.686895 133.590571 
L 103.384451 113.137869 
L 107.034073 93.757994 
L 104.723196 76.198006 
L 104.921908 60.808896 
L 104.053281 47.600163 
L 105.105742 36.380776 
L 107.470234 26.88 
L 109.688881 26.88 
z
M 307.02928 36.380776 
L 306.292686 47.600163 
L 309.571919 60.808896 
L 307.246041 76.198006 
L 310.040003 93.757994 
L 307.195694 113.137869 
L 305.170529 133.590571 
L 307.079678 154.013971 
L 306.013882 173.39493 
L 301.473333 183.739993 
L 291.86466 190.956403 
L 289.441406 206.347113 
L 301.473333 215.839749 
L 302.544699 219.557363 
L 301.652892 230.778089 
L 301.473333 233.321427 
L 299.532743 240.28 
L 289.537823 240.28 
L 285.826498 230.778089 
L 287.384328 219.557363 
L 278.731807 206.347113 
L 285.60208 190.956403 
L 301.473333 179.036602 
L 303.949518 173.39493 
L 305.129179 154.013971 
L 303.016065 133.590571 
L 305.257589 113.137869 
L 308.405773 93.757994 
L 305.313316 76.198006 
L 307.88768 60.808896 
L 304.258109 47.600163 
L 305.073397 36.380776 
L 303.203389 26.88 
L 305.339772 26.88 
z
" clip-path="url(#p37dda77b57)" style="fill: #1f968b"/>
    <path d="M 110.566667 26.88 
L 134.43 26.88 
L 150.2128 26.88 
L 134.43 29.77099 
L 110.566667 31.034785 
L 109.037812 36.380776 
L 107.76047 47.600163 
L 108.814698 60.808896 
L 108.573526 76.198006 
L 110.566667 89.1015 
L 114.554705 93.757994 
L 110.566667 96.770226 
L 106.948729 113.137869 
L 109.74314 133.590571 
L 110.566667 140.630998 
L 116.702103 154.013971 
L 127.856782 173.39493 
L 121.6083 190.956403 
L 127.270944 206.347113 
L 134.43 218.15329 
L 136.834176 219.557363 
L 158.293333 225.320886 
L 182.156667 228.403148 
L 198.089431 230.778089 
L 193.641916 240.28 
L 182.156667 240.28 
L 158.293333 240.28 
L 136.751423 240.28 
L 134.43 238.301474 
L 128.868301 230.778089 
L 114.143112 219.557363 
L 114.15242 206.347113 
L 110.566667 195.560266 
L 110.300946 190.956403 
L 110.566667 188.073301 
L 117.009364 173.39493 
L 110.566667 159.392544 
L 110.052492 154.013971 
L 107.715017 133.590571 
L 105.16659 113.137869 
L 109.206123 93.757994 
L 106.648361 76.198006 
L 106.868303 60.808896 
L 105.906875 47.600163 
L 107.071777 36.380776 
L 109.688881 26.88 
z
M 301.473333 26.88 
L 303.203389 26.88 
L 305.073397 36.380776 
L 304.258109 47.600163 
L 307.88768 60.808896 
L 305.313316 76.198006 
L 308.405773 93.757994 
L 305.257589 113.137869 
L 303.016065 133.590571 
L 305.129179 154.013971 
L 303.949518 173.39493 
L 301.473333 179.036602 
L 285.60208 190.956403 
L 278.731807 206.347113 
L 287.384328 219.557363 
L 285.826498 230.778089 
L 289.537823 240.28 
L 279.542903 240.28 
L 277.61 237.675494 
L 266.585207 230.778089 
L 263.70323 219.557363 
L 253.746667 214.555242 
L 235.85973 206.347113 
L 253.746667 200.695029 
L 277.61 194.584798 
L 279.339499 190.956403 
L 301.473333 174.333211 
L 301.885154 173.39493 
L 303.17868 154.013971 
L 301.473333 138.59723 
L 295.611117 133.590571 
L 301.473333 128.893993 
L 303.319485 113.137869 
L 306.771542 93.757994 
L 303.380591 76.198006 
L 306.203442 60.808896 
L 302.223531 47.600163 
L 303.117514 36.380776 
L 301.473333 28.632951 
L 295.27464 26.88 
z
M 182.156667 204.608183 
L 186.844545 206.347113 
L 182.156667 207.996525 
L 169.918131 206.347113 
z
M 229.883333 225.424513 
L 239.62713 230.778089 
L 244.070821 240.28 
L 229.883333 240.28 
L 225.192623 240.28 
L 213.268352 230.778089 
z
" clip-path="url(#p37dda77b57)" style="fill: #1fa287"/>
    <path d="M 110.566667 31.034785 
L 134.43 29.77099 
L 150.2128 26.88 
L 158.293333 26.88 
L 181.245112 26.88 
L 158.293333 28.176186 
L 134.43 32.974763 
L 114.69458 36.380776 
L 110.566667 39.769139 
L 109.614064 47.600163 
L 110.566667 58.659341 
L 113.170795 60.808896 
L 110.566667 72.178958 
L 110.498691 76.198006 
L 110.566667 76.638075 
L 125.228964 93.757994 
L 110.566667 104.83267 
L 108.730868 113.137869 
L 110.566667 126.110651 
L 121.732373 133.590571 
L 124.651027 154.013971 
L 134.43 168.693289 
L 139.939094 173.39493 
L 134.43 189.879292 
L 134.108173 190.956403 
L 134.43 191.781892 
L 158.293333 200.017047 
L 182.156667 195.536496 
L 206.02 203.949373 
L 229.883333 194.704414 
L 253.746667 192.827326 
L 259.647718 190.956403 
L 277.61 180.897031 
L 287.22104 173.39493 
L 299.999078 154.013971 
L 277.61 134.875136 
L 272.133154 133.590571 
L 277.61 132.540479 
L 301.004444 113.137869 
L 301.473333 112.736262 
L 305.137312 93.757994 
L 301.473333 76.300609 
L 301.240393 76.198006 
L 301.473333 76.086686 
L 304.519204 60.808896 
L 301.473333 51.017897 
L 291.420468 47.600163 
L 295.034242 36.380776 
L 277.61 31.77329 
L 268.67181 26.88 
L 277.61 26.88 
L 295.27464 26.88 
L 301.473333 28.632951 
L 303.117514 36.380776 
L 302.223531 47.600163 
L 306.203442 60.808896 
L 303.380591 76.198006 
L 306.771542 93.757994 
L 303.319485 113.137869 
L 301.473333 128.893993 
L 295.611117 133.590571 
L 301.473333 138.59723 
L 303.17868 154.013971 
L 301.885154 173.39493 
L 301.473333 174.333211 
L 279.339499 190.956403 
L 277.61 194.584798 
L 253.746667 200.695029 
L 235.85973 206.347113 
L 253.746667 214.555242 
L 263.70323 219.557363 
L 266.585207 230.778089 
L 277.61 237.675494 
L 279.542903 240.28 
L 277.61 240.28 
L 253.746667 240.28 
L 244.070821 240.28 
L 239.62713 230.778089 
L 229.883333 225.424513 
L 213.268352 230.778089 
L 225.192623 240.28 
L 206.02 240.28 
L 193.641916 240.28 
L 198.089431 230.778089 
L 182.156667 228.403148 
L 158.293333 225.320886 
L 136.834176 219.557363 
L 134.43 218.15329 
L 127.270944 206.347113 
L 121.6083 190.956403 
L 127.856782 173.39493 
L 116.702103 154.013971 
L 110.566667 140.630998 
L 109.74314 133.590571 
L 106.948729 113.137869 
L 110.566667 96.770226 
L 114.554705 93.757994 
L 110.566667 89.1015 
L 108.573526 76.198006 
L 108.814698 60.808896 
L 107.76047 47.600163 
L 109.037812 36.380776 
z
M 169.918131 206.347113 
L 182.156667 207.996525 
L 186.844545 206.347113 
L 182.156667 204.608183 
z
M 171.429601 219.557363 
L 182.156667 221.819257 
L 206.02 225.271264 
L 220.528065 219.557363 
L 206.02 209.019755 
L 182.156667 216.601221 
z
" clip-path="url(#p37dda77b57)" style="fill: #28ae80"/>
    <path d="M 134.43 32.974763 
L 158.293333 28.176186 
L 181.245112 26.88 
L 182.156667 26.88 
L 206.02 26.88 
L 229.883333 26.88 
L 253.746667 26.88 
L 268.67181 26.88 
L 277.61 31.77329 
L 295.034242 36.380776 
L 291.420468 47.600163 
L 301.473333 51.017897 
L 304.519204 60.808896 
L 301.473333 76.086686 
L 301.240393 76.198006 
L 301.473333 76.300609 
L 305.137312 93.757994 
L 301.473333 112.736262 
L 301.004444 113.137869 
L 277.61 132.540479 
L 272.133154 133.590571 
L 277.61 134.875136 
L 299.999078 154.013971 
L 287.22104 173.39493 
L 277.61 180.897031 
L 259.647718 190.956403 
L 253.746667 192.827326 
L 229.883333 194.704414 
L 206.02 203.949373 
L 182.156667 195.536496 
L 158.293333 200.017047 
L 134.43 191.781892 
L 134.108173 190.956403 
L 134.43 189.879292 
L 139.939094 173.39493 
L 134.43 168.693289 
L 124.651027 154.013971 
L 121.732373 133.590571 
L 110.566667 126.110651 
L 108.730868 113.137869 
L 110.566667 104.83267 
L 125.228964 93.757994 
L 110.566667 76.638075 
L 110.498691 76.198006 
L 110.566667 72.178958 
L 113.170795 60.808896 
L 110.566667 58.659341 
L 109.614064 47.600163 
L 110.566667 39.769139 
L 114.69458 36.380776 
z
M 133.258165 36.380776 
L 121.464548 47.600163 
L 134.43 57.613659 
L 135.277028 60.808896 
L 135.849209 76.198006 
L 137.631258 93.757994 
L 134.43 95.085333 
L 110.566667 112.895114 
L 110.513008 113.137869 
L 110.566667 113.517054 
L 134.43 130.575471 
L 141.253219 133.590571 
L 134.43 145.538712 
L 132.599951 154.013971 
L 134.43 156.761077 
L 153.920528 173.39493 
L 154.73467 190.956403 
L 158.293333 192.277874 
L 164.412645 190.956403 
L 182.156667 175.264655 
L 199.920477 190.956403 
L 206.02 192.844357 
L 210.404224 190.956403 
L 229.883333 180.979203 
L 253.746667 179.762579 
L 265.323296 173.39493 
L 277.61 166.879942 
L 288.269481 154.013971 
L 277.61 144.901937 
L 253.746667 138.545316 
L 229.883333 138.416014 
L 210.603579 133.590571 
L 229.883333 128.585554 
L 253.746667 128.906525 
L 277.61 124.343882 
L 291.121505 113.137869 
L 301.473333 104.27146 
L 303.503082 93.757994 
L 301.473333 84.087058 
L 283.562792 76.198006 
L 301.473333 67.638709 
L 302.834965 60.808896 
L 301.473333 56.431908 
L 277.61 51.096844 
L 274.07902 47.600163 
L 263.723557 36.380776 
L 253.746667 30.351038 
L 229.883333 29.902846 
L 206.02 32.381732 
L 182.156667 33.683337 
L 158.293333 30.585448 
L 134.43 36.178536 
z
M 182.156667 216.601221 
L 206.02 209.019755 
L 220.528065 219.557363 
L 206.02 225.271264 
L 182.156667 221.819257 
L 171.429601 219.557363 
z
" clip-path="url(#p37dda77b57)" style="fill: #38b977"/>
    <path d="M 134.43 36.178536 
L 158.293333 30.585448 
L 182.156667 33.683337 
L 206.02 32.381732 
L 229.883333 29.902846 
L 253.746667 30.351038 
L 263.723557 36.380776 
L 274.07902 47.600163 
L 277.61 51.096844 
L 301.473333 56.431908 
L 302.834965 60.808896 
L 301.473333 67.638709 
L 283.562792 76.198006 
L 301.473333 84.087058 
L 303.503082 93.757994 
L 301.473333 104.27146 
L 291.121505 113.137869 
L 277.61 124.343882 
L 253.746667 128.906525 
L 229.883333 128.585554 
L 210.603579 133.590571 
L 229.883333 138.416014 
L 253.746667 138.545316 
L 277.61 144.901937 
L 288.269481 154.013971 
L 277.61 166.879942 
L 265.323296 173.39493 
L 253.746667 179.762579 
L 229.883333 180.979203 
L 210.404224 190.956403 
L 206.02 192.844357 
L 199.920477 190.956403 
L 182.156667 175.264655 
L 164.412645 190.956403 
L 158.293333 192.277874 
L 154.73467 190.956403 
L 153.920528 173.39493 
L 134.43 156.761077 
L 132.599951 154.013971 
L 134.43 145.538712 
L 141.253219 133.590571 
L 134.43 130.575471 
L 110.566667 113.517054 
L 110.513008 113.137869 
L 110.566667 112.895114 
L 134.43 95.085333 
L 137.631258 93.757994 
L 135.849209 76.198006 
L 135.277028 60.808896 
L 134.43 57.613659 
L 121.464548 47.600163 
L 133.258165 36.380776 
z
M 143.974824 36.380776 
L 136.488608 47.600163 
L 139.8672 60.808896 
L 142.301094 76.198006 
L 158.293333 93.017071 
L 168.697514 93.757994 
L 158.293333 94.853176 
L 134.43 104.70259 
L 123.097779 113.137869 
L 134.43 121.285812 
L 158.293333 131.665299 
L 182.156667 130.283669 
L 206.02 127.763353 
L 229.883333 120.821822 
L 253.746667 120.687564 
L 277.61 116.147286 
L 281.238565 113.137869 
L 301.473333 95.806657 
L 301.868852 93.757994 
L 301.473333 91.873507 
L 277.61 86.226268 
L 267.148852 76.198006 
L 257.642121 60.808896 
L 253.746667 56.273622 
L 247.695327 60.808896 
L 229.883333 67.262134 
L 206.02 69.266366 
L 182.156667 69.270174 
L 177.611991 60.808896 
L 180.994614 47.600163 
L 174.917728 36.380776 
L 158.293333 32.99471 
z
M 223.668063 36.380776 
L 206.02 47.154291 
L 204.099293 47.600163 
L 206.02 48.084508 
L 229.883333 48.068385 
L 231.160869 47.600163 
L 235.219123 36.380776 
L 229.883333 35.438068 
z
M 147.660963 154.013971 
L 158.293333 163.194978 
L 182.156667 161.958211 
L 206.02 168.465914 
L 229.883333 167.928361 
L 253.746667 165.237064 
L 275.108953 154.013971 
L 253.746667 147.239264 
L 229.883333 145.901193 
L 206.02 141.228511 
L 182.156667 141.106725 
L 158.293333 138.378783 
z
" clip-path="url(#p37dda77b57)" style="fill: #50c46a"/>
    <path d="M 158.293333 32.99471 
L 174.917728 36.380776 
L 180.994614 47.600163 
L 177.611991 60.808896 
L 182.156667 69.270174 
L 206.02 69.266366 
L 229.883333 67.262134 
L 247.695327 60.808896 
L 253.746667 56.273622 
L 257.642121 60.808896 
L 267.148852 76.198006 
L 277.61 86.226268 
L 301.473333 91.873507 
L 301.868852 93.757994 
L 301.473333 95.806657 
L 281.238565 113.137869 
L 277.61 116.147286 
L 253.746667 120.687564 
L 229.883333 120.821822 
L 206.02 127.763353 
L 182.156667 130.283669 
L 158.293333 131.665299 
L 134.43 121.285812 
L 123.097779 113.137869 
L 134.43 104.70259 
L 158.293333 94.853176 
L 168.697514 93.757994 
L 158.293333 93.017071 
L 142.301094 76.198006 
L 139.8672 60.808896 
L 136.488608 47.600163 
L 143.974824 36.380776 
z
M 154.162767 36.380776 
L 141.370273 47.600163 
L 144.457371 60.808896 
L 148.752978 76.198006 
L 158.293333 86.231613 
L 178.983286 76.198006 
L 172.799481 60.808896 
L 175.912228 47.600163 
L 163.089096 36.380776 
L 158.293333 35.403972 
z
M 205.961062 93.757994 
L 182.156667 102.84095 
L 158.293333 104.882977 
L 137.530463 113.137869 
L 158.293333 121.502348 
L 182.156667 121.595736 
L 206.02 120.881382 
L 229.667373 113.137869 
L 206.121754 93.757994 
L 206.02 93.69263 
z
M 242.559919 93.757994 
L 253.746667 110.100634 
L 264.869682 93.757994 
L 253.746667 80.682535 
z
M 229.883333 35.438068 
L 235.219123 36.380776 
L 231.160869 47.600163 
L 229.883333 48.068385 
L 206.02 48.084508 
L 204.099293 47.600163 
L 206.02 47.154291 
L 223.668063 36.380776 
z
M 158.293333 138.378783 
L 182.156667 141.106725 
L 206.02 141.228511 
L 229.883333 145.901193 
L 253.746667 147.239264 
L 275.108953 154.013971 
L 253.746667 165.237064 
L 229.883333 167.928361 
L 206.02 168.465914 
L 182.156667 161.958211 
L 158.293333 163.194978 
L 147.660963 154.013971 
z
M 192.978607 154.013971 
L 206.02 158.269728 
L 229.883333 155.090381 
L 236.452035 154.013971 
L 229.883333 153.386371 
L 206.02 150.248955 
z
" clip-path="url(#p37dda77b57)" style="fill: #6ccd5a"/>
    <path d="M 158.293333 35.403972 
L 163.089096 36.380776 
L 175.912228 47.600163 
L 172.799481 60.808896 
L 178.983286 76.198006 
L 158.293333 86.231613 
L 148.752978 76.198006 
L 144.457371 60.808896 
L 141.370273 47.600163 
L 154.162767 36.380776 
z
M 146.251938 47.600163 
L 149.047542 60.808896 
L 155.204863 76.198006 
L 158.293333 79.446156 
L 164.99123 76.198006 
L 167.986972 60.808896 
L 170.829841 47.600163 
L 158.293333 38.559852 
z
M 206.02 93.69263 
L 206.121754 93.757994 
L 229.667373 113.137869 
L 206.02 120.881382 
L 182.156667 121.595736 
L 158.293333 121.502348 
L 137.530463 113.137869 
L 158.293333 104.882977 
L 182.156667 102.84095 
L 205.961062 93.757994 
z
M 186.323162 113.137869 
L 206.02 113.999411 
L 208.651004 113.137869 
L 206.02 110.977584 
z
M 253.746667 80.682535 
L 264.869682 93.757994 
L 253.746667 110.100634 
L 242.559919 93.757994 
z
M 206.02 150.248955 
L 229.883333 153.386371 
L 236.452035 154.013971 
L 229.883333 155.090381 
L 206.02 158.269728 
L 192.978607 154.013971 
z
" clip-path="url(#p37dda77b57)" style="fill: #8bd646"/>
    <path d="M 158.293333 38.559852 
L 170.829841 47.600163 
L 167.986972 60.808896 
L 164.99123 76.198006 
L 158.293333 79.446156 
L 155.204863 76.198006 
L 149.047542 60.808896 
L 146.251938 47.600163 
z
M 151.133602 47.600163 
L 153.637714 60.808896 
L 158.293333 70.973576 
L 163.174462 60.808896 
L 165.747455 47.600163 
L 158.293333 42.224856 
z
M 206.02 110.977584 
L 208.651004 113.137869 
L 206.02 113.999411 
L 186.323162 113.137869 
z
" clip-path="url(#p37dda77b57)" style="fill: #addc30"/>
    <path d="M 158.293333 42.224856 
L 165.747455 47.600163 
L 163.174462 60.808896 
L 158.293333 70.973576 
L 153.637714 60.808896 
L 151.133602 47.600163 
z
M 156.015267 47.600163 
L 158.227885 60.808896 
L 158.293333 60.95179 
L 158.361952 60.808896 
L 160.665068 47.600163 
L 158.293333 45.88986 
z
" clip-path="url(#p37dda77b57)" style="fill: #cde11d"/>
    <path d="M 158.293333 45.88986 
L 160.665068 47.600163 
L 158.361952 60.808896 
L 158.293333 60.95179 
L 158.227885 60.808896 
L 156.015267 47.600163 
z
" clip-path="url(#p37dda77b57)" style="fill: #efe51c"/>
   </g>
   <g id="matplotlib.axis_1">
    <g id="xtick_1">
     <g id="line2d_1">
      <defs>
       <path id="m99d7c2e63e" d="M 0 0 
L 0 3.5 
" style="stroke: #000000; stroke-width: 0.8"/>
      </defs>
      <g>
       <use xlink:href="#m99d7c2e63e" x="126.475556" y="240.28" style="stroke: #000000; stroke-width: 0.8"/>
      </g>
     </g>
     <g id="text_1">
      <!-- −50 -->
      <g transform="translate(113.812743 256.398125) scale(0.12 -0.12)">
       <defs>
        <path id="DejaVuSans-2212" d="M 678 2272 
L 4684 2272 
L 4684 1741 
L 678 1741 
L 678 2272 
z
" transform="scale(0.015625)"/>
        <path id="DejaVuSans-35" d="M 691 4666 
L 3169 4666 
L 3169 4134 
L 1269 4134 
L 1269 2991 
Q 1406 3038 1543 3061 
Q 1681 3084 1819 3084 
Q 2600 3084 3056 2656 
Q 3513 2228 3513 1497 
Q 3513 744 3044 326 
Q 2575 -91 1722 -91 
Q 1428 -91 1123 -41 
Q 819 9 494 109 
L 494 744 
Q 775 591 1075 516 
Q 1375 441 1709 441 
Q 2250 441 2565 725 
Q 2881 1009 2881 1497 
Q 2881 1984 2565 2268 
Q 2250 2553 1709 2553 
Q 1456 2553 1204 2497 
Q 953 2441 691 2322 
L 691 4666 
z
" transform="scale(0.015625)"/>
        <path id="DejaVuSans-30" d="M 2034 4250 
Q 1547 4250 1301 3770 
Q 1056 3291 1056 2328 
Q 1056 1369 1301 889 
Q 1547 409 2034 409 
Q 2525 409 2770 889 
Q 3016 1369 3016 2328 
Q 3016 3291 2770 3770 
Q 2525 4250 2034 4250 
z
M 2034 4750 
Q 2819 4750 3233 4129 
Q 3647 3509 3647 2328 
Q 3647 1150 3233 529 
Q 2819 -91 2034 -91 
Q 1250 -91 836 529 
Q 422 1150 422 2328 
Q 422 3509 836 4129 
Q 1250 4750 2034 4750 
z
" transform="scale(0.015625)"/>
       </defs>
       <use xlink:href="#DejaVuSans-2212"/>
       <use xlink:href="#DejaVuSans-35" transform="translate(83.789062 0)"/>
       <use xlink:href="#DejaVuSans-30" transform="translate(147.412109 0)"/>
      </g>
     </g>
    </g>
    <g id="xtick_2">
     <g id="line2d_2">
      <g>
       <use xlink:href="#m99d7c2e63e" x="206.02" y="240.28" style="stroke: #000000; stroke-width: 0.8"/>
      </g>
     </g>
     <g id="text_2">
      <!-- 0 -->
      <g transform="translate(202.2025 256.398125) scale(0.12 -0.12)">
       <use xlink:href="#DejaVuSans-30"/>
      </g>
     </g>
    </g>
    <g id="xtick_3">
     <g id="line2d_3">
      <g>
       <use xlink:href="#m99d7c2e63e" x="285.564444" y="240.28" style="stroke: #000000; stroke-width: 0.8"/>
      </g>
     </g>
     <g id="text_3">
      <!-- 50 -->
      <g transform="translate(277.929444 256.398125) scale(0.12 -0.12)">
       <use xlink:href="#DejaVuSans-35"/>
       <use xlink:href="#DejaVuSans-30" transform="translate(63.623047 0)"/>
      </g>
     </g>
    </g>
    <g id="text_4">
     <!-- $\Theta^{\circ}$ -->
     <g transform="translate(198.4 272.011875) scale(0.12 -0.12)">
      <defs>
       <path id="DejaVuSans-398" d="M 1416 2750 
L 3622 2750 
L 3622 2219 
L 1416 2219 
L 1416 2750 
z
M 2522 4238 
Q 1834 4238 1431 3725 
Q 1025 3213 1025 2328 
Q 1025 1447 1429 934 
Q 1834 422 2522 422 
Q 3209 422 3613 934 
Q 4013 1447 4013 2328 
Q 4013 3213 3613 3725 
Q 3209 4238 2522 4238 
z
M 2522 4750 
Q 3503 4750 4090 4092 
Q 4678 3434 4678 2328 
Q 4678 1225 4091 569 
Q 3503 -91 2522 -91 
Q 1538 -91 950 566 
Q 359 1222 359 2328 
Q 359 3434 950 4094 
Q 1538 4750 2522 4750 
z
" transform="scale(0.015625)"/>
       <path id="DejaVuSans-2218" d="M 2000 2619 
Q 1750 2619 1578 2445 
Q 1406 2272 1406 2022 
Q 1406 1775 1578 1605 
Q 1750 1435 2000 1435 
Q 2250 1435 2422 1605 
Q 2594 1775 2594 2022 
Q 2594 2269 2420 2444 
Q 2247 2619 2000 2619 
z
M 2000 3022 
Q 2200 3022 2384 2945 
Q 2569 2869 2703 2725 
Q 2847 2585 2919 2406 
Q 2991 2228 2991 2022 
Q 2991 1610 2702 1324 
Q 2413 1038 1994 1038 
Q 1572 1038 1290 1319 
Q 1009 1600 1009 2022 
Q 1009 2441 1296 2731 
Q 1584 3022 2000 3022 
z
" transform="scale(0.015625)"/>
      </defs>
      <use xlink:href="#DejaVuSans-398" transform="translate(0 0.78125)"/>
      <use xlink:href="#DejaVuSans-2218" transform="translate(79.667969 39.0625) scale(0.7)"/>
     </g>
    </g>
   </g>
   <g id="matplotlib.axis_2">
    <g id="ytick_1">
     <g id="line2d_4">
      <defs>
       <path id="m34154b4da7" d="M 0 0 
L -3.5 0 
" style="stroke: #000000; stroke-width: 0.8"/>
      </defs>
      <g>
       <use xlink:href="#m34154b4da7" x="62.84" y="219.984151" style="stroke: #000000; stroke-width: 0.8"/>
      </g>
     </g>
     <g id="text_5">
      <!-- −40 -->
      <g transform="translate(30.514375 224.543214) scale(0.12 -0.12)">
       <defs>
        <path id="DejaVuSans-34" d="M 2419 4116 
L 825 1625 
L 2419 1625 
L 2419 4116 
z
M 2253 4666 
L 3047 4666 
L 3047 1625 
L 3713 1625 
L 3713 1100 
L 3047 1100 
L 3047 0 
L 2419 0 
L 2419 1100 
L 313 1100 
L 313 1709 
L 2253 4666 
z
" transform="scale(0.015625)"/>
       </defs>
       <use xlink:href="#DejaVuSans-2212"/>
       <use xlink:href="#DejaVuSans-34" transform="translate(83.789062 0)"/>
       <use xlink:href="#DejaVuSans-30" transform="translate(147.412109 0)"/>
      </g>
     </g>
    </g>
    <g id="ytick_2">
     <g id="line2d_5">
      <g>
       <use xlink:href="#m34154b4da7" x="62.84" y="176.783648" style="stroke: #000000; stroke-width: 0.8"/>
      </g>
     </g>
     <g id="text_6">
      <!-- −20 -->
      <g transform="translate(30.514375 181.342711) scale(0.12 -0.12)">
       <defs>
        <path id="DejaVuSans-32" d="M 1228 531 
L 3431 531 
L 3431 0 
L 469 0 
L 469 531 
Q 828 903 1448 1529 
Q 2069 2156 2228 2338 
Q 2531 2678 2651 2914 
Q 2772 3150 2772 3378 
Q 2772 3750 2511 3984 
Q 2250 4219 1831 4219 
Q 1534 4219 1204 4116 
Q 875 4013 500 3803 
L 500 4441 
Q 881 4594 1212 4672 
Q 1544 4750 1819 4750 
Q 2544 4750 2975 4387 
Q 3406 4025 3406 3419 
Q 3406 3131 3298 2873 
Q 3191 2616 2906 2266 
Q 2828 2175 2409 1742 
Q 1991 1309 1228 531 
z
" transform="scale(0.015625)"/>
       </defs>
       <use xlink:href="#DejaVuSans-2212"/>
       <use xlink:href="#DejaVuSans-32" transform="translate(83.789062 0)"/>
       <use xlink:href="#DejaVuSans-30" transform="translate(147.412109 0)"/>
      </g>
     </g>
    </g>
    <g id="ytick_3">
     <g id="line2d_6">
      <g>
       <use xlink:href="#m34154b4da7" x="62.84" y="133.583145" style="stroke: #000000; stroke-width: 0.8"/>
      </g>
     </g>
     <g id="text_7">
      <!-- 0 -->
      <g transform="translate(48.205 138.142208) scale(0.12 -0.12)">
       <use xlink:href="#DejaVuSans-30"/>
      </g>
     </g>
    </g>
    <g id="ytick_4">
     <g id="line2d_7">
      <g>
       <use xlink:href="#m34154b4da7" x="62.84" y="90.382642" style="stroke: #000000; stroke-width: 0.8"/>
      </g>
     </g>
     <g id="text_8">
      <!-- 20 -->
      <g transform="translate(40.57 94.941704) scale(0.12 -0.12)">
       <use xlink:href="#DejaVuSans-32"/>
       <use xlink:href="#DejaVuSans-30" transform="translate(63.623047 0)"/>
      </g>
     </g>
    </g>
    <g id="ytick_5">
     <g id="line2d_8">
      <g>
       <use xlink:href="#m34154b4da7" x="62.84" y="47.182139" style="stroke: #000000; stroke-width: 0.8"/>
      </g>
     </g>
     <g id="text_9">
      <!-- 40 -->
      <g transform="translate(40.57 51.741201) scale(0.12 -0.12)">
       <use xlink:href="#DejaVuSans-34"/>
       <use xlink:href="#DejaVuSans-30" transform="translate(63.623047 0)"/>
      </g>
     </g>
    </g>
    <g id="text_10">
     <!-- $\phi^{\circ}$ -->
     <g transform="translate(23.784375 141.38) rotate(-90) scale(0.13 -0.13)">
      <defs>
       <path id="DejaVuSans-Oblique-3d5" d="M 2991 4863 
L 2738 3572 
Q 3363 3572 3684 3094 
Q 4016 2606 3850 1747 
Q 3681 888 3159 400 
Q 2653 -78 2028 -78 
L 1784 -1331 
L 1213 -1331 
L 1456 -78 
Q 834 -78 509 400 
Q 178 888 347 1747 
Q 513 2606 1034 3094 
Q 1544 3572 2166 3572 
L 2419 4863 
L 2991 4863 
z
M 2128 434 
Q 2481 434 2784 756 
Q 3116 1116 3244 1747 
Q 3369 2372 3169 2738 
Q 2991 3059 2638 3059 
L 2128 434 
z
M 1556 434 
L 2066 3059 
Q 1716 3059 1413 2738 
Q 1072 2372 953 1747 
Q 834 1116 1028 756 
Q 1203 434 1556 434 
z
" transform="scale(0.015625)"/>
      </defs>
      <use xlink:href="#DejaVuSans-Oblique-3d5" transform="translate(0 0.015625)"/>
      <use xlink:href="#DejaVuSans-2218" transform="translate(73.414505 38.296875) scale(0.7)"/>
     </g>
    </g>
   </g>
   <g id="QuadContourSet_2">
    <path clip-path="url(#p37dda77b57)" style="fill: none; stroke-dasharray: 1.85,0.8; stroke-dashoffset: 0; stroke: #000000; stroke-width: 0.5"/>
    <path d="M 324.567217 26.88 
L 324.632227 36.380776 
L 324.603884 47.600163 
L 324.730063 60.808896 
L 324.640567 76.198006 
L 324.748075 93.757994 
L 324.63863 113.137869 
L 324.610696 120.469672 
M 324.6079 146.711478 
L 324.634166 154.013971 
L 324.593156 173.39493 
L 324.23842 190.956403 
L 324.293198 206.347113 
L 324.459667 219.557363 
L 324.425352 230.778089 
L 324.398992 240.28 
M 87.849297 240.28 
L 87.645303 230.778089 
L 87.546341 219.557363 
L 87.555408 206.347113 
L 87.52369 190.956403 
L 87.583379 173.39493 
L 87.515052 154.013971 
L 87.485997 146.711462 
M 87.376956 120.469697 
L 87.345197 113.137869 
L 87.485629 93.757994 
L 87.39671 76.198006 
L 87.404356 60.808896 
L 87.370933 47.600163 
L 87.41143 36.380776 
L 87.502412 26.88 
" clip-path="url(#p37dda77b57)" style="fill: none; stroke-dasharray: 1.85,0.8; stroke-dashoffset: 0; stroke: #000000; stroke-width: 0.5"/>
    <path d="M 322.430834 26.88 
L 322.676344 36.380776 
L 322.569306 47.600163 
L 323.045825 60.808896 
L 322.707842 76.198006 
L 323.113844 93.757994 
L 322.700526 113.137869 
L 322.595016 120.470782 
M 322.584459 146.710489 
L 322.683667 154.013971 
L 322.528792 173.39493 
L 321.18913 190.956403 
L 321.396 206.347113 
L 322.024671 219.557363 
L 321.895078 230.778089 
L 321.795532 240.28 
M 91.031075 240.28 
L 90.260688 230.778089 
L 89.886959 219.557363 
L 89.921199 206.347113 
L 89.801415 190.956403 
L 90.026834 173.39493 
L 89.768796 154.013971 
L 89.65905 146.710251 
M 89.247298 120.471132 
L 89.127336 113.137869 
L 89.657678 93.757994 
L 89.321875 76.198006 
L 89.350751 60.808896 
L 89.224527 47.600163 
L 89.377464 36.380776 
L 89.721059 26.88 
" clip-path="url(#p37dda77b57)" style="fill: none; stroke-dasharray: 1.85,0.8; stroke-dashoffset: 0; stroke: #000000; stroke-width: 0.5"/>
    <path d="M 320.294451 26.88 
L 320.720461 36.380776 
L 320.534729 47.600163 
L 321.361587 60.808896 
L 320.775117 76.198006 
L 321.479614 93.757994 
L 320.762422 113.137869 
L 320.578199 120.516474 
M 320.55995 146.665057 
L 320.733168 154.013971 
L 320.464428 173.39493 
L 318.13984 190.956403 
L 318.498802 206.347113 
L 319.589674 219.557363 
L 319.364805 230.778089 
L 319.192072 240.28 
M 94.212853 240.28 
L 92.876073 230.778089 
L 92.227577 219.557363 
L 92.28699 206.347113 
L 92.079141 190.956403 
L 92.470289 173.39493 
L 92.02254 154.013971 
L 91.830912 146.664344 
M 91.118951 120.517521 
L 90.909476 113.137869 
L 91.829728 93.757994 
L 91.24704 76.198006 
L 91.297145 60.808896 
L 91.078121 47.600163 
L 91.343499 36.380776 
L 91.939705 26.88 
" clip-path="url(#p37dda77b57)" style="fill: none; stroke-dasharray: 1.85,0.8; stroke-dashoffset: 0; stroke: #000000; stroke-width: 0.5"/>
    <path d="M 318.158069 26.88 
L 318.764578 36.380776 
L 318.500151 47.600163 
L 319.677348 60.808896 
L 318.842392 76.198006 
L 319.845384 93.757994 
L 318.824318 113.137869 
L 318.563448 120.476869 
M 318.537402 146.705064 
L 318.78267 154.013971 
L 318.400064 173.39493 
L 315.09055 190.956403 
L 315.601604 206.347113 
L 317.154678 219.557363 
L 316.834532 230.778089 
L 316.588612 240.28 
M 97.394631 240.28 
L 95.491458 230.778089 
L 94.568195 219.557363 
L 94.652782 206.347113 
L 94.356867 190.956403 
L 94.913744 173.39493 
L 94.276284 154.013971 
L 94.004921 146.703614 
M 92.988288 120.478997 
L 92.691615 113.137869 
L 94.001777 93.757994 
L 93.172205 76.198006 
L 93.24354 60.808896 
L 92.931715 47.600163 
L 93.309534 36.380776 
L 94.158352 26.88 
" clip-path="url(#p37dda77b57)" style="fill: none; stroke-dasharray: 1.85,0.8; stroke-dashoffset: 0; stroke: #000000; stroke-width: 0.5"/>
    <path d="M 316.021686 26.88 
L 316.808695 36.380776 
L 316.465574 47.600163 
L 317.99311 60.808896 
L 316.909667 76.198006 
L 318.211154 93.757994 
L 316.886214 113.137869 
L 316.547479 120.48184 
M 316.513717 146.700632 
L 316.832171 154.013971 
L 316.335701 173.39493 
L 312.04126 190.956403 
L 312.704405 206.347113 
L 314.719681 219.557363 
L 314.304258 230.778089 
L 313.985152 240.28 
M 100.576408 240.28 
L 98.106843 230.778089 
L 96.908814 219.557363 
L 97.018573 206.347113 
L 96.634592 190.956403 
L 97.357199 173.39493 
L 96.530028 154.013971 
L 96.177645 146.698193 
M 94.859055 120.485418 
L 94.473754 113.137869 
L 96.173826 93.757994 
L 95.09737 76.198006 
L 95.189935 60.808896 
L 94.78531 47.600163 
L 95.275568 36.380776 
L 96.376999 26.88 
" clip-path="url(#p37dda77b57)" style="fill: none; stroke-dasharray: 1.85,0.8; stroke-dashoffset: 0; stroke: #000000; stroke-width: 0.5"/>
    <path d="M 313.885303 26.88 
L 314.852812 36.380776 
L 314.430996 47.600163 
L 316.308872 60.808896 
L 314.976942 76.198006 
L 316.576924 93.757994 
L 314.94811 113.137869 
L 314.526428 120.574576 
M 314.485252 146.60856 
L 314.881672 154.013971 
L 314.271337 173.39493 
L 308.99197 190.956403 
L 309.807207 206.347113 
L 312.284685 219.557363 
L 311.773985 230.778089 
L 311.381692 240.28 
M 103.758186 240.28 
L 100.722228 230.778089 
L 99.249432 219.557363 
L 99.384364 206.347113 
L 98.912318 190.956403 
L 99.800654 173.39493 
L 98.783772 154.013971 
L 98.345046 146.604905 
M 96.735656 120.579939 
L 96.255893 113.137869 
L 98.345876 93.757994 
L 97.022535 76.198006 
L 97.136329 60.808896 
L 96.638904 47.600163 
L 97.241603 36.380776 
L 98.595646 26.88 
" clip-path="url(#p37dda77b57)" style="fill: none; stroke-dasharray: 1.85,0.8; stroke-dashoffset: 0; stroke: #000000; stroke-width: 0.5"/>
    <path d="M 311.74892 26.88 
L 312.896929 36.380776 
L 312.396419 47.600163 
L 314.624634 60.808896 
L 313.044216 76.198006 
L 314.942693 93.757994 
L 313.010006 113.137869 
L 312.509151 120.582052 
M 312.460374 146.601894 
L 312.931174 154.013971 
L 312.206973 173.39493 
L 305.94268 190.956403 
L 306.910009 206.347113 
L 309.849688 219.557363 
L 309.243712 230.778089 
L 308.778232 240.28 
M 106.939964 240.28 
L 103.337613 230.778089 
L 101.59005 219.557363 
L 101.750155 206.347113 
L 101.190044 190.956403 
L 102.244109 173.39493 
L 101.037516 154.013971 
L 100.516368 146.596756 
M 98.608039 120.589588 
L 98.038033 113.137869 
L 100.517925 93.757994 
L 98.947701 76.198006 
L 99.082724 60.808896 
L 98.492498 47.600163 
L 99.207638 36.380776 
L 100.814293 26.88 
" clip-path="url(#p37dda77b57)" style="fill: none; stroke-dasharray: 1.85,0.8; stroke-dashoffset: 0; stroke: #000000; stroke-width: 0.5"/>
    <path d="M 309.612537 26.88 
L 310.941046 36.380776 
L 310.361841 47.600163 
L 312.940395 60.808896 
L 311.111491 76.198006 
L 313.308463 93.757994 
L 311.071902 113.137869 
L 310.491618 120.590787 
M 310.435279 146.594103 
L 310.980675 154.013971 
L 310.142609 173.39493 
L 302.89339 190.956403 
L 304.012811 206.347113 
L 307.414692 219.557363 
L 306.713438 230.778089 
L 306.174772 240.28 
M 110.121742 240.28 
L 105.952998 230.778089 
L 103.930668 219.557363 
L 104.115947 206.347113 
L 103.467769 190.956403 
L 104.687563 173.39493 
L 103.29126 154.013971 
L 102.687398 146.587236 
M 100.480797 120.600855 
L 99.820172 113.137869 
L 102.689974 93.757994 
L 100.872866 76.198006 
L 101.029119 60.808896 
L 100.346093 47.600163 
L 101.173673 36.380776 
L 103.03294 26.88 
" clip-path="url(#p37dda77b57)" style="fill: none; stroke-dasharray: 1.85,0.8; stroke-dashoffset: 0; stroke: #000000; stroke-width: 0.5"/>
    <path d="M 307.476155 26.88 
L 308.985163 36.380776 
L 308.327264 47.600163 
L 311.256157 60.808896 
L 309.178766 76.198006 
L 311.674233 93.757994 
L 309.133798 113.137869 
L 307.324993 133.590571 
L 307.941629 140.976177 
M 308.388522 167.077805 
L 308.078245 173.39493 
L 301.473333 188.443384 
L 298.12724 190.956403 
L 300.151006 206.347113 
L 301.473333 207.390368 
L 304.979695 219.557363 
L 304.183165 230.778089 
L 303.571312 240.28 
M 118.000024 240.28 
L 110.566667 235.2479 
L 108.568383 230.778089 
L 106.271286 219.557363 
L 106.481738 206.347113 
L 105.745495 190.956403 
L 107.131018 173.39493 
L 105.545004 154.013971 
L 104.862077 146.619496 
M 102.349653 120.570617 
L 101.602311 113.137869 
L 104.862024 93.757994 
L 102.798031 76.198006 
L 102.975514 60.808896 
L 102.199687 47.600163 
L 103.139707 36.380776 
L 105.251587 26.88 
" clip-path="url(#p37dda77b57)" style="fill: none; stroke-dasharray: 1.85,0.8; stroke-dashoffset: 0; stroke: #000000; stroke-width: 0.5"/>
    <path d="M 305.339772 26.88 
L 307.02928 36.380776 
L 306.292686 47.600163 
L 309.571919 60.808896 
L 307.246041 76.198006 
L 310.040003 93.757994 
L 307.195694 113.137869 
L 305.170529 133.590571 
L 307.079678 154.013971 
L 306.732094 160.334599 
M 299.89923 184.922193 
L 291.86466 190.956403 
L 289.441406 206.347113 
L 301.473333 215.839749 
L 302.544699 219.557363 
L 301.652892 230.778089 
L 301.473333 233.321427 
L 299.532743 240.28 
M 126.641808 240.28 
L 114.06056 230.778089 
L 110.566667 228.306294 
L 108.611904 219.557363 
L 108.847529 206.347113 
L 108.023221 190.956403 
L 109.574473 173.39493 
L 107.798748 154.013971 
L 107.032863 146.607221 
M 104.222819 120.585131 
L 103.384451 113.137869 
L 107.034073 93.757994 
L 104.723196 76.198006 
L 104.921908 60.808896 
L 104.053281 47.600163 
L 105.105742 36.380776 
L 107.470234 26.88 
" clip-path="url(#p37dda77b57)" style="fill: none; stroke-dasharray: 1.85,0.8; stroke-dashoffset: 0; stroke: #000000; stroke-width: 0.5"/>
    <path d="M 303.203389 26.88 
L 305.073397 36.380776 
L 304.258109 47.600163 
L 307.88768 60.808896 
L 305.313316 76.198006 
L 308.405773 93.757994 
L 305.257589 113.137869 
L 303.016065 133.590571 
L 303.782414 140.997393 
M 304.334473 167.070407 
L 303.949518 173.39493 
L 301.473333 179.036602 
L 285.60208 190.956403 
L 278.731807 206.347113 
L 287.384328 219.557363 
L 285.826498 230.778089 
L 289.537823 240.28 
M 136.751423 240.28 
L 134.43 238.301474 
L 128.868301 230.778089 
L 114.143112 219.557363 
L 114.15242 206.347113 
L 110.566667 195.560266 
L 110.300946 190.956403 
L 110.566667 188.073301 
L 117.009364 173.39493 
L 116.091719 171.400545 
M 109.178806 146.38025 
L 107.715017 133.590571 
L 105.16659 113.137869 
L 109.206123 93.757994 
L 106.648361 76.198006 
L 106.868303 60.808896 
L 105.906875 47.600163 
L 107.071777 36.380776 
L 109.688881 26.88 
" clip-path="url(#p37dda77b57)" style="fill: none; stroke-dasharray: 1.85,0.8; stroke-dashoffset: 0; stroke: #000000; stroke-width: 0.5"/>
    <path d="M 295.27464 26.88 
L 301.473333 28.632951 
L 303.117514 36.380776 
L 302.223531 47.600163 
L 306.203442 60.808896 
L 303.380591 76.198006 
L 306.771542 93.757994 
L 303.319485 113.137869 
L 301.473333 128.893993 
L 295.611117 133.590571 
L 301.473333 138.59723 
L 301.744554 141.049134 
M 302.310437 167.022902 
L 301.885154 173.39493 
L 301.473333 174.333211 
L 279.339499 190.956403 
L 277.61 194.584798 
L 253.746667 200.695029 
L 235.85973 206.347113 
L 253.746667 214.555242 
L 263.70323 219.557363 
L 266.585207 230.778089 
L 277.61 237.675494 
L 279.542903 240.28 
M 193.641916 240.28 
L 198.089431 230.778089 
L 182.156667 228.403148 
L 158.293333 225.320886 
L 136.834176 219.557363 
L 134.43 218.15329 
L 127.270944 206.347113 
L 121.6083 190.956403 
L 127.856782 173.39493 
L 116.702103 154.013971 
L 113.073483 146.099013 
M 107.976714 120.661839 
L 106.948729 113.137869 
L 110.566667 96.770226 
L 114.554705 93.757994 
L 110.566667 89.1015 
L 108.573526 76.198006 
L 108.814698 60.808896 
L 107.76047 47.600163 
L 109.037812 36.380776 
L 110.566667 31.034785 
L 134.43 29.77099 
L 150.2128 26.88 
M 244.070821 240.28 
L 240.674671 233.01804 
M 216.735774 229.660838 
L 213.268352 230.778089 
L 225.192623 240.28 
M 182.156667 204.608183 
L 169.918131 206.347113 
L 182.156667 207.996525 
L 186.844545 206.347113 
L 182.156667 204.608183 
z
" clip-path="url(#p37dda77b57)" style="fill: none; stroke-dasharray: 1.85,0.8; stroke-dashoffset: 0; stroke: #000000; stroke-width: 0.5"/>
    <path d="M 268.67181 26.88 
L 277.61 31.77329 
L 295.034242 36.380776 
L 291.420468 47.600163 
L 301.473333 51.017897 
L 304.519204 60.808896 
L 301.473333 76.086686 
L 301.240393 76.198006 
L 301.473333 76.300609 
L 305.137312 93.757994 
L 301.473333 112.736262 
L 301.004444 113.137869 
L 283.870408 127.348295 
M 283.745506 140.119945 
L 299.999078 154.013971 
L 287.22104 173.39493 
L 277.61 180.897031 
L 259.647718 190.956403 
L 253.746667 192.827326 
L 229.883333 194.704414 
L 206.02 203.949373 
L 182.156667 195.536496 
L 158.293333 200.017047 
L 134.43 191.781892 
L 134.108173 190.956403 
L 134.43 189.879292 
L 139.939094 173.39493 
L 134.43 168.693289 
L 124.651027 154.013971 
L 121.732373 133.590571 
L 110.566667 126.110651 
L 108.730868 113.137869 
L 110.566667 104.83267 
L 125.228964 93.757994 
L 110.566667 76.638075 
L 110.498691 76.198006 
L 110.566667 72.178958 
L 113.170795 60.808896 
L 110.566667 58.659341 
L 109.614064 47.600163 
L 110.566667 39.769139 
L 114.69458 36.380776 
L 134.43 32.974763 
L 158.293333 28.176186 
L 181.245112 26.88 
M 192.234615 223.277106 
L 182.156667 221.819257 
L 171.429601 219.557363 
L 182.156667 216.601221 
L 206.02 209.019755 
L 220.528065 219.557363 
L 218.879956 220.206459 
" clip-path="url(#p37dda77b57)" style="fill: none; stroke-dasharray: 1.85,0.8; stroke-dashoffset: 0; stroke: #000000; stroke-width: 0.5"/>
    <path d="M 129.299508 126.908001 
L 110.566667 113.517054 
L 110.513008 113.137869 
L 110.566667 112.895114 
L 134.43 95.085333 
L 137.631258 93.757994 
L 135.849209 76.198006 
L 135.277028 60.808896 
L 134.43 57.613659 
L 121.464548 47.600163 
L 133.258165 36.380776 
L 134.43 36.178536 
L 158.293333 30.585448 
L 182.156667 33.683337 
L 206.02 32.381732 
L 229.883333 29.902846 
L 253.746667 30.351038 
L 263.723557 36.380776 
L 274.07902 47.600163 
L 277.61 51.096844 
L 301.473333 56.431908 
L 302.834965 60.808896 
L 301.473333 67.638709 
L 283.562792 76.198006 
L 301.473333 84.087058 
L 303.503082 93.757994 
L 301.473333 104.27146 
L 291.121505 113.137869 
L 277.61 124.343882 
L 253.746667 128.906525 
L 229.883333 128.585554 
L 210.603579 133.590571 
L 229.883333 138.416014 
L 253.746667 138.545316 
L 277.61 144.901937 
L 288.269481 154.013971 
L 277.61 166.879942 
L 265.323296 173.39493 
L 253.746667 179.762579 
L 229.883333 180.979203 
L 210.404224 190.956403 
L 206.02 192.844357 
L 199.920477 190.956403 
L 182.156667 175.264655 
L 164.412645 190.956403 
L 158.293333 192.277874 
L 154.73467 190.956403 
L 153.920528 173.39493 
L 134.43 156.761077 
L 132.599951 154.013971 
L 134.43 145.538712 
L 134.647478 145.157886 
" clip-path="url(#p37dda77b57)" style="fill: none; stroke-dasharray: 1.85,0.8; stroke-dashoffset: 0; stroke: #000000; stroke-width: 0.5"/>
    <path d="M 257.66056 60.838744 
L 267.148852 76.198006 
L 277.61 86.226268 
L 301.473333 91.873507 
L 301.868852 93.757994 
L 301.473333 95.806657 
L 281.238565 113.137869 
L 277.61 116.147286 
L 253.746667 120.687564 
L 229.883333 120.821822 
L 206.02 127.763353 
L 182.156667 130.283669 
L 158.293333 131.665299 
L 134.43 121.285812 
L 123.097779 113.137869 
L 134.43 104.70259 
L 158.293333 94.853176 
L 168.697514 93.757994 
L 158.293333 93.017071 
L 142.301094 76.198006 
L 139.8672 60.808896 
L 136.488608 47.600163 
L 143.974824 36.380776 
L 158.293333 32.99471 
L 174.917728 36.380776 
L 180.994614 47.600163 
L 177.611991 60.808896 
L 182.156667 69.270174 
L 206.02 69.266366 
L 229.883333 67.262134 
L 234.641364 65.538313 
M 214.422807 42.024676 
L 223.668063 36.380776 
L 229.883333 35.438068 
L 235.219123 36.380776 
L 231.160869 47.600163 
L 229.883333 48.068385 
L 220.014687 48.075053 
M 239.852139 166.804083 
L 229.883333 167.928361 
L 206.02 168.465914 
L 182.156667 161.958211 
L 158.293333 163.194978 
L 147.660963 154.013971 
L 158.293333 138.378783 
L 182.156667 141.106725 
L 206.02 141.228511 
L 229.883333 145.901193 
L 253.746667 147.239264 
L 275.108953 154.013971 
L 265.95528 158.823032 
" clip-path="url(#p37dda77b57)" style="fill: none; stroke-dasharray: 1.85,0.8; stroke-dashoffset: 0; stroke: #000000; stroke-width: 0.5"/>
    <path d="M 149.042139 76.502117 
L 148.752978 76.198006 
L 144.457371 60.808896 
L 141.370273 47.600163 
L 154.162767 36.380776 
L 158.293333 35.403972 
L 163.089096 36.380776 
L 175.912228 47.600163 
L 172.799481 60.808896 
L 178.983286 76.198006 
L 170.641608 80.243309 
M 145.520236 116.356609 
L 137.530463 113.137869 
L 158.293333 104.882977 
L 182.156667 102.84095 
L 205.961062 93.757994 
L 206.02 93.69263 
L 206.121754 93.757994 
L 229.667373 113.137869 
L 206.02 120.881382 
L 182.156667 121.595736 
L 172.195528 121.556753 
M 246.237822 99.131015 
L 242.559919 93.757994 
L 253.746667 80.682535 
L 264.869682 93.757994 
L 261.225137 99.112791 
M 216.119293 156.924184 
L 206.02 158.269728 
L 192.978607 154.013971 
L 206.02 150.248955 
L 229.258134 153.304174 
" clip-path="url(#p37dda77b57)" style="fill: none; stroke-dasharray: 1.85,0.8; stroke-dashoffset: 0; stroke: #000000; stroke-width: 0.5"/>
    <path d="M 151.919648 67.987205 
L 149.047542 60.808896 
L 146.251938 47.600163 
L 158.293333 38.559852 
L 170.829841 47.600163 
L 167.986972 60.808896 
L 166.150001 70.245403 
M 206.02 110.977584 
L 208.651004 113.137869 
L 206.02 113.999411 
L 186.323162 113.137869 
L 206.02 110.977584 
z
" clip-path="url(#p37dda77b57)" style="fill: none; stroke-dasharray: 1.85,0.8; stroke-dashoffset: 0; stroke: #000000; stroke-width: 0.5"/>
    <path d="M 153.261527 58.82458 
L 151.133602 47.600163 
L 158.293333 42.224856 
L 165.747455 47.600163 
L 163.544355 58.910007 
" clip-path="url(#p37dda77b57)" style="fill: none; stroke-dasharray: 1.85,0.8; stroke-dashoffset: 0; stroke: #000000; stroke-width: 0.5"/>
    <path d="M 158.293333 45.88986 
L 160.665068 47.600163 
L 158.361952 60.808896 
L 158.293333 60.95179 
L 158.227885 60.808896 
L 156.015267 47.600163 
L 158.293333 45.88986 
z
" clip-path="url(#p37dda77b57)" style="fill: none; stroke-dasharray: 1.85,0.8; stroke-dashoffset: 0; stroke: #000000; stroke-width: 0.5"/>
    <path clip-path="url(#p37dda77b57)" style="fill: none; stroke-dasharray: 1.85,0.8; stroke-dashoffset: 0; stroke: #000000; stroke-width: 0.5"/>
   </g>
   <g id="patch_3">
    <path d="M 62.84 240.28 
L 62.84 26.88 
" style="fill: none; stroke: #000000; stroke-width: 0.8; stroke-linejoin: miter; stroke-linecap: square"/>
   </g>
   <g id="patch_4">
    <path d="M 349.2 240.28 
L 349.2 26.88 
" style="fill: none; stroke: #000000; stroke-width: 0.8; stroke-linejoin: miter; stroke-linecap: square"/>
   </g>
   <g id="patch_5">
    <path d="M 62.84 240.28 
L 349.2 240.28 
" style="fill: none; stroke: #000000; stroke-width: 0.8; stroke-linejoin: miter; stroke-linecap: square"/>
   </g>
   <g id="patch_6">
    <path d="M 62.84 26.88 
L 349.2 26.88 
" style="fill: none; stroke: #000000; stroke-width: 0.8; stroke-linejoin: miter; stroke-linecap: square"/>
   </g>
   <g id="text_11">
    <!-- Band 160 -->
    <g transform="translate(177.255625 20.88) scale(0.12 -0.12)">
     <defs>
      <path id="DejaVuSans-42" d="M 1259 2228 
L 1259 519 
L 2272 519 
Q 2781 519 3026 730 
Q 3272 941 3272 1375 
Q 3272 1813 3026 2020 
Q 2781 2228 2272 2228 
L 1259 2228 
z
M 1259 4147 
L 1259 2741 
L 2194 2741 
Q 2656 2741 2882 2914 
Q 3109 3088 3109 3444 
Q 3109 3797 2882 3972 
Q 2656 4147 2194 4147 
L 1259 4147 
z
M 628 4666 
L 2241 4666 
Q 2963 4666 3353 4366 
Q 3744 4066 3744 3513 
Q 3744 3084 3544 2831 
Q 3344 2578 2956 2516 
Q 3422 2416 3680 2098 
Q 3938 1781 3938 1306 
Q 3938 681 3513 340 
Q 3088 0 2303 0 
L 628 0 
L 628 4666 
z
" transform="scale(0.015625)"/>
      <path id="DejaVuSans-61" d="M 2194 1759 
Q 1497 1759 1228 1600 
Q 959 1441 959 1056 
Q 959 750 1161 570 
Q 1363 391 1709 391 
Q 2188 391 2477 730 
Q 2766 1069 2766 1631 
L 2766 1759 
L 2194 1759 
z
M 3341 1997 
L 3341 0 
L 2766 0 
L 2766 531 
Q 2569 213 2275 61 
Q 1981 -91 1556 -91 
Q 1019 -91 701 211 
Q 384 513 384 1019 
Q 384 1609 779 1909 
Q 1175 2209 1959 2209 
L 2766 2209 
L 2766 2266 
Q 2766 2663 2505 2880 
Q 2244 3097 1772 3097 
Q 1472 3097 1187 3025 
Q 903 2953 641 2809 
L 641 3341 
Q 956 3463 1253 3523 
Q 1550 3584 1831 3584 
Q 2591 3584 2966 3190 
Q 3341 2797 3341 1997 
z
" transform="scale(0.015625)"/>
      <path id="DejaVuSans-6e" d="M 3513 2113 
L 3513 0 
L 2938 0 
L 2938 2094 
Q 2938 2591 2744 2837 
Q 2550 3084 2163 3084 
Q 1697 3084 1428 2787 
Q 1159 2491 1159 1978 
L 1159 0 
L 581 0 
L 581 3500 
L 1159 3500 
L 1159 2956 
Q 1366 3272 1645 3428 
Q 1925 3584 2291 3584 
Q 2894 3584 3203 3211 
Q 3513 2838 3513 2113 
z
" transform="scale(0.015625)"/>
      <path id="DejaVuSans-64" d="M 2906 2969 
L 2906 4863 
L 3481 4863 
L 3481 0 
L 2906 0 
L 2906 525 
Q 2725 213 2448 61 
Q 2172 -91 1784 -91 
Q 1150 -91 751 415 
Q 353 922 353 1747 
Q 353 2572 751 3078 
Q 1150 3584 1784 3584 
Q 2172 3584 2448 3432 
Q 2725 3281 2906 2969 
z
M 947 1747 
Q 947 1113 1208 752 
Q 1469 391 1925 391 
Q 2381 391 2643 752 
Q 2906 1113 2906 1747 
Q 2906 2381 2643 2742 
Q 2381 3103 1925 3103 
Q 1469 3103 1208 2742 
Q 947 2381 947 1747 
z
" transform="scale(0.015625)"/>
      <path id="DejaVuSans-20" transform="scale(0.015625)"/>
      <path id="DejaVuSans-31" d="M 794 531 
L 1825 531 
L 1825 4091 
L 703 3866 
L 703 4441 
L 1819 4666 
L 2450 4666 
L 2450 531 
L 3481 531 
L 3481 0 
L 794 0 
L 794 531 
z
" transform="scale(0.015625)"/>
      <path id="DejaVuSans-36" d="M 2113 2584 
Q 1688 2584 1439 2293 
Q 1191 2003 1191 1497 
Q 1191 994 1439 701 
Q 1688 409 2113 409 
Q 2538 409 2786 701 
Q 3034 994 3034 1497 
Q 3034 2003 2786 2293 
Q 2538 2584 2113 2584 
z
M 3366 4563 
L 3366 3988 
Q 3128 4100 2886 4159 
Q 2644 4219 2406 4219 
Q 1781 4219 1451 3797 
Q 1122 3375 1075 2522 
Q 1259 2794 1537 2939 
Q 1816 3084 2150 3084 
Q 2853 3084 3261 2657 
Q 3669 2231 3669 1497 
Q 3669 778 3244 343 
Q 2819 -91 2113 -91 
Q 1303 -91 875 529 
Q 447 1150 447 2328 
Q 447 3434 972 4092 
Q 1497 4750 2381 4750 
Q 2619 4750 2861 4703 
Q 3103 4656 3366 4563 
z
" transform="scale(0.015625)"/>
     </defs>
     <use xlink:href="#DejaVuSans-42"/>
     <use xlink:href="#DejaVuSans-61" transform="translate(68.603516 0)"/>
     <use xlink:href="#DejaVuSans-6e" transform="translate(129.882812 0)"/>
     <use xlink:href="#DejaVuSans-64" transform="translate(193.261719 0)"/>
     <use xlink:href="#DejaVuSans-20" transform="translate(256.738281 0)"/>
     <use xlink:href="#DejaVuSans-31" transform="translate(288.525391 0)"/>
     <use xlink:href="#DejaVuSans-36" transform="translate(352.148438 0)"/>
     <use xlink:href="#DejaVuSans-30" transform="translate(415.771484 0)"/>
    </g>
   </g>
   <g id="text_12">
    <g clip-path="url(#p37dda77b57)">
     <!-- 57.6 -->
     <g transform="translate(327.043141 143.61035) rotate(-89.994276) scale(0.09 -0.09)">
      <defs>
       <path id="DejaVuSans-37" d="M 525 4666 
L 3525 4666 
L 3525 4397 
L 1831 0 
L 1172 0 
L 2766 4134 
L 525 4134 
L 525 4666 
z
" transform="scale(0.015625)"/>
       <path id="DejaVuSans-2e" d="M 684 794 
L 1344 794 
L 1344 0 
L 684 0 
L 684 794 
z
" transform="scale(0.015625)"/>
      </defs>
      <use xlink:href="#DejaVuSans-35"/>
      <use xlink:href="#DejaVuSans-37" transform="translate(63.623047 0)"/>
      <use xlink:href="#DejaVuSans-2e" transform="translate(127.246094 0)"/>
      <use xlink:href="#DejaVuSans-36" transform="translate(159.033203 0)"/>
     </g>
    </g>
   </g>
   <g id="text_13">
    <g clip-path="url(#p37dda77b57)">
     <!-- 57.6 -->
     <g transform="translate(84.911339 123.58079) rotate(-270.223213) scale(0.09 -0.09)">
      <use xlink:href="#DejaVuSans-35"/>
      <use xlink:href="#DejaVuSans-37" transform="translate(63.623047 0)"/>
      <use xlink:href="#DejaVuSans-2e" transform="translate(127.246094 0)"/>
      <use xlink:href="#DejaVuSans-36" transform="translate(159.033203 0)"/>
     </g>
    </g>
   </g>
   <g id="text_14">
    <g clip-path="url(#p37dda77b57)">
     <!-- 58.4 -->
     <g transform="translate(324.885899 143.611038) rotate(-89.978387) scale(0.09 -0.09)">
      <defs>
       <path id="DejaVuSans-38" d="M 2034 2216 
Q 1584 2216 1326 1975 
Q 1069 1734 1069 1313 
Q 1069 891 1326 650 
Q 1584 409 2034 409 
Q 2484 409 2743 651 
Q 3003 894 3003 1313 
Q 3003 1734 2745 1975 
Q 2488 2216 2034 2216 
z
M 1403 2484 
Q 997 2584 770 2862 
Q 544 3141 544 3541 
Q 544 4100 942 4425 
Q 1341 4750 2034 4750 
Q 2731 4750 3128 4425 
Q 3525 4100 3525 3541 
Q 3525 3141 3298 2862 
Q 3072 2584 2669 2484 
Q 3125 2378 3379 2068 
Q 3634 1759 3634 1313 
Q 3634 634 3220 271 
Q 2806 -91 2034 -91 
Q 1263 -91 848 271 
Q 434 634 434 1313 
Q 434 1759 690 2068 
Q 947 2378 1403 2484 
z
M 1172 3481 
Q 1172 3119 1398 2916 
Q 1625 2713 2034 2713 
Q 2441 2713 2670 2916 
Q 2900 3119 2900 3481 
Q 2900 3844 2670 4047 
Q 2441 4250 2034 4250 
Q 1625 4250 1398 4047 
Q 1172 3844 1172 3481 
z
" transform="scale(0.015625)"/>
      </defs>
      <use xlink:href="#DejaVuSans-35"/>
      <use xlink:href="#DejaVuSans-38" transform="translate(63.623047 0)"/>
      <use xlink:href="#DejaVuSans-2e" transform="translate(127.246094 0)"/>
      <use xlink:href="#DejaVuSans-34" transform="translate(159.033203 0)"/>
     </g>
    </g>
   </g>
   <g id="text_15">
    <g clip-path="url(#p37dda77b57)">
     <!-- 58.4 -->
     <g transform="translate(86.831348 123.608658) rotate(-270.84291) scale(0.09 -0.09)">
      <use xlink:href="#DejaVuSans-35"/>
      <use xlink:href="#DejaVuSans-38" transform="translate(63.623047 0)"/>
      <use xlink:href="#DejaVuSans-2e" transform="translate(127.246094 0)"/>
      <use xlink:href="#DejaVuSans-34" transform="translate(159.033203 0)"/>
     </g>
    </g>
   </g>
   <g id="text_16">
    <g clip-path="url(#p37dda77b57)">
     <!-- 59.2 -->
     <g transform="translate(322.728658 143.611725) rotate(-89.96251) scale(0.09 -0.09)">
      <defs>
       <path id="DejaVuSans-39" d="M 703 97 
L 703 672 
Q 941 559 1184 500 
Q 1428 441 1663 441 
Q 2288 441 2617 861 
Q 2947 1281 2994 2138 
Q 2813 1869 2534 1725 
Q 2256 1581 1919 1581 
Q 1219 1581 811 2004 
Q 403 2428 403 3163 
Q 403 3881 828 4315 
Q 1253 4750 1959 4750 
Q 2769 4750 3195 4129 
Q 3622 3509 3622 2328 
Q 3622 1225 3098 567 
Q 2575 -91 1691 -91 
Q 1453 -91 1209 -44 
Q 966 3 703 97 
z
M 1959 2075 
Q 2384 2075 2632 2365 
Q 2881 2656 2881 3163 
Q 2881 3666 2632 3958 
Q 2384 4250 1959 4250 
Q 1534 4250 1286 3958 
Q 1038 3666 1038 3163 
Q 1038 2656 1286 2365 
Q 1534 2075 1959 2075 
z
" transform="scale(0.015625)"/>
      </defs>
      <use xlink:href="#DejaVuSans-35"/>
      <use xlink:href="#DejaVuSans-39" transform="translate(63.623047 0)"/>
      <use xlink:href="#DejaVuSans-2e" transform="translate(127.246094 0)"/>
      <use xlink:href="#DejaVuSans-32" transform="translate(159.033203 0)"/>
     </g>
    </g>
   </g>
   <g id="text_17">
    <g clip-path="url(#p37dda77b57)">
     <!-- 59.2 -->
     <g transform="translate(88.751699 123.637683) rotate(-271.462408) scale(0.09 -0.09)">
      <use xlink:href="#DejaVuSans-35"/>
      <use xlink:href="#DejaVuSans-39" transform="translate(63.623047 0)"/>
      <use xlink:href="#DejaVuSans-2e" transform="translate(127.246094 0)"/>
      <use xlink:href="#DejaVuSans-32" transform="translate(159.033203 0)"/>
     </g>
    </g>
   </g>
   <g id="text_18">
    <g clip-path="url(#p37dda77b57)">
     <!-- 60.0 -->
     <g transform="translate(320.57142 143.61241) rotate(-89.946653) scale(0.09 -0.09)">
      <use xlink:href="#DejaVuSans-36"/>
      <use xlink:href="#DejaVuSans-30" transform="translate(63.623047 0)"/>
      <use xlink:href="#DejaVuSans-2e" transform="translate(127.246094 0)"/>
      <use xlink:href="#DejaVuSans-30" transform="translate(159.033203 0)"/>
     </g>
    </g>
   </g>
   <g id="text_19">
    <g clip-path="url(#p37dda77b57)">
     <!-- 60.0 -->
     <g transform="translate(90.67243 123.667855) rotate(-272.081563) scale(0.09 -0.09)">
      <use xlink:href="#DejaVuSans-36"/>
      <use xlink:href="#DejaVuSans-30" transform="translate(63.623047 0)"/>
      <use xlink:href="#DejaVuSans-2e" transform="translate(127.246094 0)"/>
      <use xlink:href="#DejaVuSans-30" transform="translate(159.033203 0)"/>
     </g>
    </g>
   </g>
   <g id="text_20">
    <g clip-path="url(#p37dda77b57)">
     <!-- 60.8 -->
     <g transform="translate(318.414188 143.613093) rotate(-89.930827) scale(0.09 -0.09)">
      <use xlink:href="#DejaVuSans-36"/>
      <use xlink:href="#DejaVuSans-30" transform="translate(63.623047 0)"/>
      <use xlink:href="#DejaVuSans-2e" transform="translate(127.246094 0)"/>
      <use xlink:href="#DejaVuSans-38" transform="translate(159.033203 0)"/>
     </g>
    </g>
   </g>
   <g id="text_21">
    <g clip-path="url(#p37dda77b57)">
     <!-- 60.8 -->
     <g transform="translate(92.593577 123.69916) rotate(-272.700229) scale(0.09 -0.09)">
      <use xlink:href="#DejaVuSans-36"/>
      <use xlink:href="#DejaVuSans-30" transform="translate(63.623047 0)"/>
      <use xlink:href="#DejaVuSans-2e" transform="translate(127.246094 0)"/>
      <use xlink:href="#DejaVuSans-38" transform="translate(159.033203 0)"/>
     </g>
    </g>
   </g>
   <g id="text_22">
    <g clip-path="url(#p37dda77b57)">
     <!-- 61.6 -->
     <g transform="translate(316.256962 143.613774) rotate(-89.915038) scale(0.09 -0.09)">
      <use xlink:href="#DejaVuSans-36"/>
      <use xlink:href="#DejaVuSans-31" transform="translate(63.623047 0)"/>
      <use xlink:href="#DejaVuSans-2e" transform="translate(127.246094 0)"/>
      <use xlink:href="#DejaVuSans-36" transform="translate(159.033203 0)"/>
     </g>
    </g>
   </g>
   <g id="text_23">
    <g clip-path="url(#p37dda77b57)">
     <!-- 61.6 -->
     <g transform="translate(94.515178 123.731585) rotate(-273.318262) scale(0.09 -0.09)">
      <use xlink:href="#DejaVuSans-36"/>
      <use xlink:href="#DejaVuSans-31" transform="translate(63.623047 0)"/>
      <use xlink:href="#DejaVuSans-2e" transform="translate(127.246094 0)"/>
      <use xlink:href="#DejaVuSans-36" transform="translate(159.033203 0)"/>
     </g>
    </g>
   </g>
   <g id="text_24">
    <g clip-path="url(#p37dda77b57)">
     <!-- 62.4 -->
     <g transform="translate(314.099744 143.614451) rotate(-89.899297) scale(0.09 -0.09)">
      <use xlink:href="#DejaVuSans-36"/>
      <use xlink:href="#DejaVuSans-32" transform="translate(63.623047 0)"/>
      <use xlink:href="#DejaVuSans-2e" transform="translate(127.246094 0)"/>
      <use xlink:href="#DejaVuSans-34" transform="translate(159.033203 0)"/>
     </g>
    </g>
   </g>
   <g id="text_25">
    <g clip-path="url(#p37dda77b57)">
     <!-- 62.4 -->
     <g transform="translate(96.437267 123.765114) rotate(-273.935519) scale(0.09 -0.09)">
      <use xlink:href="#DejaVuSans-36"/>
      <use xlink:href="#DejaVuSans-32" transform="translate(63.623047 0)"/>
      <use xlink:href="#DejaVuSans-2e" transform="translate(127.246094 0)"/>
      <use xlink:href="#DejaVuSans-34" transform="translate(159.033203 0)"/>
     </g>
    </g>
   </g>
   <g id="text_26">
    <g clip-path="url(#p37dda77b57)">
     <!-- 63.2 -->
     <g transform="translate(311.942536 143.615126) rotate(-89.883612) scale(0.09 -0.09)">
      <defs>
       <path id="DejaVuSans-33" d="M 2597 2516 
Q 3050 2419 3304 2112 
Q 3559 1806 3559 1356 
Q 3559 666 3084 287 
Q 2609 -91 1734 -91 
Q 1441 -91 1130 -33 
Q 819 25 488 141 
L 488 750 
Q 750 597 1062 519 
Q 1375 441 1716 441 
Q 2309 441 2620 675 
Q 2931 909 2931 1356 
Q 2931 1769 2642 2001 
Q 2353 2234 1838 2234 
L 1294 2234 
L 1294 2753 
L 1863 2753 
Q 2328 2753 2575 2939 
Q 2822 3125 2822 3475 
Q 2822 3834 2567 4026 
Q 2313 4219 1838 4219 
Q 1578 4219 1281 4162 
Q 984 4106 628 3988 
L 628 4550 
Q 988 4650 1302 4700 
Q 1616 4750 1894 4750 
Q 2613 4750 3031 4423 
Q 3450 4097 3450 3541 
Q 3450 3153 3228 2886 
Q 3006 2619 2597 2516 
z
" transform="scale(0.015625)"/>
      </defs>
      <use xlink:href="#DejaVuSans-36"/>
      <use xlink:href="#DejaVuSans-33" transform="translate(63.623047 0)"/>
      <use xlink:href="#DejaVuSans-2e" transform="translate(127.246094 0)"/>
      <use xlink:href="#DejaVuSans-32" transform="translate(159.033203 0)"/>
     </g>
    </g>
   </g>
   <g id="text_27">
    <g clip-path="url(#p37dda77b57)">
     <!-- 63.2 -->
     <g transform="translate(98.359881 123.799731) rotate(-274.551857) scale(0.09 -0.09)">
      <use xlink:href="#DejaVuSans-36"/>
      <use xlink:href="#DejaVuSans-33" transform="translate(63.623047 0)"/>
      <use xlink:href="#DejaVuSans-2e" transform="translate(127.246094 0)"/>
      <use xlink:href="#DejaVuSans-32" transform="translate(159.033203 0)"/>
     </g>
    </g>
   </g>
   <g id="text_28">
    <g clip-path="url(#p37dda77b57)">
     <!-- 64.0 -->
     <g transform="translate(306.386242 144.035591) rotate(-270.919654) scale(0.09 -0.09)">
      <use xlink:href="#DejaVuSans-36"/>
      <use xlink:href="#DejaVuSans-34" transform="translate(63.623047 0)"/>
      <use xlink:href="#DejaVuSans-2e" transform="translate(127.246094 0)"/>
      <use xlink:href="#DejaVuSans-30" transform="translate(159.033203 0)"/>
     </g>
    </g>
   </g>
   <g id="text_29">
    <g clip-path="url(#p37dda77b57)">
     <!-- 64.0 -->
     <g transform="translate(100.283054 123.835418) rotate(-275.167136) scale(0.09 -0.09)">
      <use xlink:href="#DejaVuSans-36"/>
      <use xlink:href="#DejaVuSans-34" transform="translate(63.623047 0)"/>
      <use xlink:href="#DejaVuSans-2e" transform="translate(127.246094 0)"/>
      <use xlink:href="#DejaVuSans-30" transform="translate(159.033203 0)"/>
     </g>
    </g>
   </g>
   <g id="text_30">
    <g clip-path="url(#p37dda77b57)">
     <!-- 64.8 -->
     <g transform="translate(306.241097 183.715145) rotate(-77.340482) scale(0.09 -0.09)">
      <use xlink:href="#DejaVuSans-36"/>
      <use xlink:href="#DejaVuSans-34" transform="translate(63.623047 0)"/>
      <use xlink:href="#DejaVuSans-2e" transform="translate(127.246094 0)"/>
      <use xlink:href="#DejaVuSans-38" transform="translate(159.033203 0)"/>
     </g>
    </g>
   </g>
   <g id="text_31">
    <g clip-path="url(#p37dda77b57)">
     <!-- 64.8 -->
     <g transform="translate(102.20682 123.872158) rotate(-275.781217) scale(0.09 -0.09)">
      <use xlink:href="#DejaVuSans-36"/>
      <use xlink:href="#DejaVuSans-34" transform="translate(63.623047 0)"/>
      <use xlink:href="#DejaVuSans-2e" transform="translate(127.246094 0)"/>
      <use xlink:href="#DejaVuSans-38" transform="translate(159.033203 0)"/>
     </g>
    </g>
   </g>
   <g id="text_32">
    <g clip-path="url(#p37dda77b57)">
     <!-- 65.6 -->
     <g transform="translate(302.447365 144.045704) rotate(-271.137267) scale(0.09 -0.09)">
      <use xlink:href="#DejaVuSans-36"/>
      <use xlink:href="#DejaVuSans-35" transform="translate(63.623047 0)"/>
      <use xlink:href="#DejaVuSans-2e" transform="translate(127.246094 0)"/>
      <use xlink:href="#DejaVuSans-36" transform="translate(159.033203 0)"/>
     </g>
    </g>
   </g>
   <g id="text_33">
    <g clip-path="url(#p37dda77b57)">
     <!-- 65.6 -->
     <g transform="translate(105.66185 150.309525) rotate(-284.448212) scale(0.09 -0.09)">
      <use xlink:href="#DejaVuSans-36"/>
      <use xlink:href="#DejaVuSans-35" transform="translate(63.623047 0)"/>
      <use xlink:href="#DejaVuSans-2e" transform="translate(127.246094 0)"/>
      <use xlink:href="#DejaVuSans-36" transform="translate(159.033203 0)"/>
     </g>
    </g>
   </g>
   <g id="text_34">
    <g clip-path="url(#p37dda77b57)">
     <!-- 66.4 -->
     <g transform="translate(300.491139 144.047247) rotate(-271.17019) scale(0.09 -0.09)">
      <use xlink:href="#DejaVuSans-36"/>
      <use xlink:href="#DejaVuSans-36" transform="translate(63.623047 0)"/>
      <use xlink:href="#DejaVuSans-2e" transform="translate(127.246094 0)"/>
      <use xlink:href="#DejaVuSans-34" transform="translate(159.033203 0)"/>
     </g>
    </g>
   </g>
   <g id="text_35">
    <g clip-path="url(#p37dda77b57)">
     <!-- 66.4 -->
     <g transform="translate(105.72788 124.080778) rotate(-278.96986) scale(0.09 -0.09)">
      <use xlink:href="#DejaVuSans-36"/>
      <use xlink:href="#DejaVuSans-36" transform="translate(63.623047 0)"/>
      <use xlink:href="#DejaVuSans-2e" transform="translate(127.246094 0)"/>
      <use xlink:href="#DejaVuSans-34" transform="translate(159.033203 0)"/>
     </g>
    </g>
   </g>
   <g id="text_36">
    <g clip-path="url(#p37dda77b57)">
     <!-- 66.4 -->
     <g transform="translate(219.666626 226.900098) rotate(-354.297557) scale(0.09 -0.09)">
      <use xlink:href="#DejaVuSans-36"/>
      <use xlink:href="#DejaVuSans-36" transform="translate(63.623047 0)"/>
      <use xlink:href="#DejaVuSans-2e" transform="translate(127.246094 0)"/>
      <use xlink:href="#DejaVuSans-34" transform="translate(159.033203 0)"/>
     </g>
    </g>
   </g>
   <g id="text_37">
    <g clip-path="url(#p37dda77b57)">
     <!-- 67.2 -->
     <g transform="translate(274.51518 143.634694) rotate(-89.420809) scale(0.09 -0.09)">
      <use xlink:href="#DejaVuSans-36"/>
      <use xlink:href="#DejaVuSans-37" transform="translate(63.623047 0)"/>
      <use xlink:href="#DejaVuSans-2e" transform="translate(127.246094 0)"/>
      <use xlink:href="#DejaVuSans-32" transform="translate(159.033203 0)"/>
     </g>
    </g>
   </g>
   <g id="text_38">
    <g clip-path="url(#p37dda77b57)">
     <!-- 67.2 -->
     <g transform="translate(196.378282 228.958505) rotate(-7.007374) scale(0.09 -0.09)">
      <use xlink:href="#DejaVuSans-36"/>
      <use xlink:href="#DejaVuSans-37" transform="translate(63.623047 0)"/>
      <use xlink:href="#DejaVuSans-2e" transform="translate(127.246094 0)"/>
      <use xlink:href="#DejaVuSans-32" transform="translate(159.033203 0)"/>
     </g>
    </g>
   </g>
   <g id="text_39">
    <g clip-path="url(#p37dda77b57)">
     <!-- 68.0 -->
     <g transform="translate(136.016748 124.694625) rotate(-286.561814) scale(0.09 -0.09)">
      <use xlink:href="#DejaVuSans-36"/>
      <use xlink:href="#DejaVuSans-38" transform="translate(63.623047 0)"/>
      <use xlink:href="#DejaVuSans-2e" transform="translate(127.246094 0)"/>
      <use xlink:href="#DejaVuSans-30" transform="translate(159.033203 0)"/>
     </g>
    </g>
   </g>
   <g id="text_40">
    <g clip-path="url(#p37dda77b57)">
     <!-- 68.8 -->
     <g transform="translate(239.212283 66.690769) rotate(-20.815444) scale(0.09 -0.09)">
      <use xlink:href="#DejaVuSans-36"/>
      <use xlink:href="#DejaVuSans-38" transform="translate(63.623047 0)"/>
      <use xlink:href="#DejaVuSans-2e" transform="translate(127.246094 0)"/>
      <use xlink:href="#DejaVuSans-38" transform="translate(159.033203 0)"/>
     </g>
    </g>
   </g>
   <g id="text_41">
    <g clip-path="url(#p37dda77b57)">
     <!-- 68.8 -->
     <g transform="translate(196.882072 43.282764) rotate(-318.358471) scale(0.09 -0.09)">
      <use xlink:href="#DejaVuSans-36"/>
      <use xlink:href="#DejaVuSans-38" transform="translate(63.623047 0)"/>
      <use xlink:href="#DejaVuSans-2e" transform="translate(127.246094 0)"/>
      <use xlink:href="#DejaVuSans-38" transform="translate(159.033203 0)"/>
     </g>
    </g>
   </g>
   <g id="text_42">
    <g clip-path="url(#p37dda77b57)">
     <!-- 68.8 -->
     <g transform="translate(244.990831 170.704587) rotate(-18.061672) scale(0.09 -0.09)">
      <use xlink:href="#DejaVuSans-36"/>
      <use xlink:href="#DejaVuSans-38" transform="translate(63.623047 0)"/>
      <use xlink:href="#DejaVuSans-2e" transform="translate(127.246094 0)"/>
      <use xlink:href="#DejaVuSans-38" transform="translate(159.033203 0)"/>
     </g>
    </g>
   </g>
   <g id="text_43">
    <g clip-path="url(#p37dda77b57)">
     <!-- 69.6 -->
     <g transform="translate(147.989367 86.853507) rotate(-349.533119) scale(0.09 -0.09)">
      <use xlink:href="#DejaVuSans-36"/>
      <use xlink:href="#DejaVuSans-39" transform="translate(63.623047 0)"/>
      <use xlink:href="#DejaVuSans-2e" transform="translate(127.246094 0)"/>
      <use xlink:href="#DejaVuSans-36" transform="translate(159.033203 0)"/>
     </g>
    </g>
   </g>
   <g id="text_44">
    <g clip-path="url(#p37dda77b57)">
     <!-- 69.6 -->
     <g transform="translate(147.978054 121.894113) rotate(-348.25423) scale(0.09 -0.09)">
      <use xlink:href="#DejaVuSans-36"/>
      <use xlink:href="#DejaVuSans-39" transform="translate(63.623047 0)"/>
      <use xlink:href="#DejaVuSans-2e" transform="translate(127.246094 0)"/>
      <use xlink:href="#DejaVuSans-36" transform="translate(159.033203 0)"/>
     </g>
    </g>
   </g>
   <g id="text_45">
    <g clip-path="url(#p37dda77b57)">
     <!-- 69.6 -->
     <g transform="translate(243.730365 112.597064) rotate(-0.074312) scale(0.09 -0.09)">
      <use xlink:href="#DejaVuSans-36"/>
      <use xlink:href="#DejaVuSans-39" transform="translate(63.623047 0)"/>
      <use xlink:href="#DejaVuSans-2e" transform="translate(127.246094 0)"/>
      <use xlink:href="#DejaVuSans-36" transform="translate(159.033203 0)"/>
     </g>
    </g>
   </g>
   <g id="text_46">
    <g clip-path="url(#p37dda77b57)">
     <!-- 69.6 -->
     <g transform="translate(220.647769 159.701542) rotate(-12.611417) scale(0.09 -0.09)">
      <use xlink:href="#DejaVuSans-36"/>
      <use xlink:href="#DejaVuSans-39" transform="translate(63.623047 0)"/>
      <use xlink:href="#DejaVuSans-2e" transform="translate(127.246094 0)"/>
      <use xlink:href="#DejaVuSans-36" transform="translate(159.033203 0)"/>
     </g>
    </g>
   </g>
   <g id="text_47">
    <g clip-path="url(#p37dda77b57)">
     <!-- 70.4 -->
     <g transform="translate(147.977082 79.811427) rotate(-348.107079) scale(0.09 -0.09)">
      <use xlink:href="#DejaVuSans-37"/>
      <use xlink:href="#DejaVuSans-30" transform="translate(63.623047 0)"/>
      <use xlink:href="#DejaVuSans-2e" transform="translate(127.246094 0)"/>
      <use xlink:href="#DejaVuSans-34" transform="translate(159.033203 0)"/>
     </g>
    </g>
   </g>
   <g id="text_48">
    <g clip-path="url(#p37dda77b57)">
     <!-- 71.2 -->
     <g transform="translate(148.252541 73.369607) rotate(-359.500704) scale(0.09 -0.09)">
      <use xlink:href="#DejaVuSans-37"/>
      <use xlink:href="#DejaVuSans-31" transform="translate(63.623047 0)"/>
      <use xlink:href="#DejaVuSans-2e" transform="translate(127.246094 0)"/>
      <use xlink:href="#DejaVuSans-32" transform="translate(159.033203 0)"/>
     </g>
    </g>
   </g>
  </g>
 </g>
 <defs>
  <clipPath id="p37dda77b57">
   <rect x="62.84" y="26.88" width="286.36" height="213.4"/>
  </clipPath>
 </defs>
</svg>
