<?xml version="1.0" encoding="utf-8" standalone="no"?>
<!DOCTYPE svg PUBLIC "-//W3C//DTD SVG 1.1//EN"
  "http://www.w3.org/Graphics/SVG/1.1/DTD/svg11.dtd">
<svg xmlns:xlink="http://www.w3.org/1999/xlink" width="360pt" height="288pt" viewBox="0 0 360 288" xmlns="http://www.w3.org/2000/svg" version="1.1">
 <metadata>
  <rdf:RDF xmlns:dc="http://purl.org/dc/elements/1.1/" xmlns:cc="http://creativecommons.org/ns#" xmlns:rdf="http://www.w3.org/1999/02/22-rdf-syntax-ns#">
   <cc:Work>
    <dc:type rdf:resource="http://purl.org/dc/dcmitype/StillImage"/>
    <dc:date>2025-10-02T17:14:38.942987</dc:date>
    <dc:format>image/svg+xml</dc:format>
    <dc:creator>
     <cc:Agent>
      <dc:title>Matplotlib v3.10.6, https://matplotlib.org/</dc:title>
     </cc:Agent>
    </dc:creator>
   </cc:Work>
  </rdf:RDF>
 </metadata>
 <defs>
  <style type="text/css">*{stroke-linejoin: round; stroke-linecap: butt}</style>
 </defs>
 <g id="figure_1">
  <g id="patch_1">
   <path d="M 0 288 
L 360 288 
L 360 0 
L 0 0 
z
" style="fill: #ffffff"/>
  </g>
  <g id="axes_1">
   <g id="patch_2">
    <path d="M 62.84 240.28 
L 349.2 240.28 
L 349.2 26.88 
L 62.84 26.88 
z
" style="fill: #ffffff"/>
   </g>
   <g id="QuadContourSet_1">
    <path d="M 86.703333 26.88 
L 89.422926 26.88 
L 89.026174 36.380776 
L 88.631752 47.600163 
L 88.528379 60.808896 
L 88.29327 76.198006 
L 88.271478 93.757994 
L 88.151001 113.137869 
L 88.053769 133.590571 
L 88.056847 154.013971 
L 88.09384 173.39493 
L 88.310042 190.956403 
L 88.246742 206.347113 
L 88.680779 219.557363 
L 89.047727 230.778089 
L 88.774757 240.28 
L 86.703333 240.28 
L 62.84 240.28 
L 62.84 230.778089 
L 62.84 219.557363 
L 62.84 206.347113 
L 62.84 190.956403 
L 62.84 173.39493 
L 62.84 154.013971 
L 62.84 133.590571 
L 62.84 113.137869 
L 62.84 93.757994 
L 62.84 76.198006 
L 62.84 60.808896 
L 62.84 47.600163 
L 62.84 36.380776 
L 62.84 26.88 
z
M 325.336667 26.88 
L 349.2 26.88 
L 349.2 36.380776 
L 349.2 47.600163 
L 349.2 60.808896 
L 349.2 76.198006 
L 349.2 93.757994 
L 349.2 113.137869 
L 349.2 133.590571 
L 349.2 154.013971 
L 349.2 173.39493 
L 349.2 190.956403 
L 349.2 206.347113 
L 349.2 219.557363 
L 349.2 230.778089 
L 349.2 240.28 
L 325.336667 240.28 
L 323.205815 240.28 
L 323.486327 230.778089 
L 323.734399 219.557363 
L 323.938731 206.347113 
L 324.013963 190.956403 
L 324.09991 173.39493 
L 323.977333 154.013971 
L 323.950452 133.590571 
L 323.856417 113.137869 
L 323.678994 93.757994 
L 323.533611 76.198006 
L 323.490555 60.808896 
L 323.422202 47.600163 
L 323.430832 36.380776 
L 322.810215 26.88 
z
" clip-path="url(#pd46fa85777)" style="fill: #460a5d"/>
    <path d="M 91.743773 36.380776 
L 90.887898 47.600163 
L 90.663586 60.808896 
L 90.153411 76.198006 
L 90.106123 93.757994 
L 89.844694 113.137869 
L 89.633706 133.590571 
L 89.640385 154.013971 
L 89.720659 173.39493 
L 90.189805 190.956403 
L 90.052447 206.347113 
L 90.994284 219.557363 
L 91.790541 230.778089 
L 91.198211 240.28 
L 88.774757 240.28 
L 89.047727 230.778089 
L 88.680779 219.557363 
L 88.246742 206.347113 
L 88.310042 190.956403 
L 88.09384 173.39493 
L 88.056847 154.013971 
L 88.053769 133.590571 
L 88.151001 113.137869 
L 88.271478 93.757994 
L 88.29327 76.198006 
L 88.528379 60.808896 
L 88.631752 47.600163 
L 89.026174 36.380776 
L 89.422926 26.88 
L 92.604704 26.88 
z
M 323.430832 36.380776 
L 323.422202 47.600163 
L 323.490555 60.808896 
L 323.533611 76.198006 
L 323.678994 93.757994 
L 323.856417 113.137869 
L 323.950452 133.590571 
L 323.977333 154.013971 
L 324.09991 173.39493 
L 324.013963 190.956403 
L 323.938731 206.347113 
L 323.734399 219.557363 
L 323.486327 230.778089 
L 323.205815 240.28 
L 320.712832 240.28 
L 321.321529 230.778089 
L 321.859831 219.557363 
L 322.30322 206.347113 
L 322.466471 190.956403 
L 322.65297 173.39493 
L 322.386986 154.013971 
L 322.328655 133.590571 
L 322.124605 113.137869 
L 321.739606 93.757994 
L 321.424132 76.198006 
L 321.330703 60.808896 
L 321.182381 47.600163 
L 321.201108 36.380776 
L 319.854402 26.88 
L 322.810215 26.88 
z
" clip-path="url(#pd46fa85777)" style="fill: #481c6e"/>
    <path d="M 94.461372 36.380776 
L 93.144045 47.600163 
L 92.798792 60.808896 
L 92.013552 76.198006 
L 91.940768 93.757994 
L 91.538387 113.137869 
L 91.213643 133.590571 
L 91.223923 154.013971 
L 91.347477 173.39493 
L 92.069568 190.956403 
L 91.858153 206.347113 
L 93.30779 219.557363 
L 94.533356 230.778089 
L 93.621665 240.28 
L 91.198211 240.28 
L 91.790541 230.778089 
L 90.994284 219.557363 
L 90.052447 206.347113 
L 90.189805 190.956403 
L 89.720659 173.39493 
L 89.640385 154.013971 
L 89.633706 133.590571 
L 89.844694 113.137869 
L 90.106123 93.757994 
L 90.153411 76.198006 
L 90.663586 60.808896 
L 90.887898 47.600163 
L 91.743773 36.380776 
L 92.604704 26.88 
L 95.786482 26.88 
z
M 321.201108 36.380776 
L 321.182381 47.600163 
L 321.330703 60.808896 
L 321.424132 76.198006 
L 321.739606 93.757994 
L 322.124605 113.137869 
L 322.328655 133.590571 
L 322.386986 154.013971 
L 322.65297 173.39493 
L 322.466471 190.956403 
L 322.30322 206.347113 
L 321.859831 219.557363 
L 321.321529 230.778089 
L 320.712832 240.28 
L 318.219849 240.28 
L 319.15673 230.778089 
L 319.985263 219.557363 
L 320.66771 206.347113 
L 320.918978 190.956403 
L 321.206031 173.39493 
L 320.796638 154.013971 
L 320.706858 133.590571 
L 320.392793 113.137869 
L 319.800218 93.757994 
L 319.314654 76.198006 
L 319.170852 60.808896 
L 318.94256 47.600163 
L 318.971384 36.380776 
L 316.898589 26.88 
L 319.854402 26.88 
z
" clip-path="url(#pd46fa85777)" style="fill: #472d7b"/>
    <path d="M 97.178971 36.380776 
L 95.400191 47.600163 
L 94.933998 60.808896 
L 93.873693 76.198006 
L 93.775413 93.757994 
L 93.23208 113.137869 
L 92.79358 133.590571 
L 92.807462 154.013971 
L 92.974295 173.39493 
L 93.949331 190.956403 
L 93.663858 206.347113 
L 95.621295 219.557363 
L 97.27617 230.778089 
L 96.04512 240.28 
L 93.621665 240.28 
L 94.533356 230.778089 
L 93.30779 219.557363 
L 91.858153 206.347113 
L 92.069568 190.956403 
L 91.347477 173.39493 
L 91.223923 154.013971 
L 91.213643 133.590571 
L 91.538387 113.137869 
L 91.940768 93.757994 
L 92.013552 76.198006 
L 92.798792 60.808896 
L 93.144045 47.600163 
L 94.461372 36.380776 
L 95.786482 26.88 
L 98.96826 26.88 
z
M 318.971384 36.380776 
L 318.94256 47.600163 
L 319.170852 60.808896 
L 319.314654 76.198006 
L 319.800218 93.757994 
L 320.392793 113.137869 
L 320.706858 133.590571 
L 320.796638 154.013971 
L 321.206031 173.39493 
L 320.918978 190.956403 
L 320.66771 206.347113 
L 319.985263 219.557363 
L 319.15673 230.778089 
L 318.219849 240.28 
L 315.726867 240.28 
L 316.991932 230.778089 
L 318.110695 219.557363 
L 319.0322 206.347113 
L 319.371486 190.956403 
L 319.759091 173.39493 
L 319.206291 154.013971 
L 319.085061 133.590571 
L 318.660981 113.137869 
L 317.86083 93.757994 
L 317.205175 76.198006 
L 317.011 60.808896 
L 316.702738 47.600163 
L 316.74166 36.380776 
L 313.942775 26.88 
L 316.898589 26.88 
z
" clip-path="url(#pd46fa85777)" style="fill: #443b84"/>
    <path d="M 99.89657 36.380776 
L 97.656338 47.600163 
L 97.069204 60.808896 
L 95.733833 76.198006 
L 95.610058 93.757994 
L 94.925773 113.137869 
L 94.373517 133.590571 
L 94.391 154.013971 
L 94.601114 173.39493 
L 95.829093 190.956403 
L 95.469563 206.347113 
L 97.934801 219.557363 
L 100.018984 230.778089 
L 98.468574 240.28 
L 96.04512 240.28 
L 97.27617 230.778089 
L 95.621295 219.557363 
L 93.663858 206.347113 
L 93.949331 190.956403 
L 92.974295 173.39493 
L 92.807462 154.013971 
L 92.79358 133.590571 
L 93.23208 113.137869 
L 93.775413 93.757994 
L 93.873693 76.198006 
L 94.933998 60.808896 
L 95.400191 47.600163 
L 97.178971 36.380776 
L 98.96826 26.88 
L 102.150037 26.88 
z
M 316.74166 36.380776 
L 316.702738 47.600163 
L 317.011 60.808896 
L 317.205175 76.198006 
L 317.86083 93.757994 
L 318.660981 113.137869 
L 319.085061 133.590571 
L 319.206291 154.013971 
L 319.759091 173.39493 
L 319.371486 190.956403 
L 319.0322 206.347113 
L 318.110695 219.557363 
L 316.991932 230.778089 
L 315.726867 240.28 
L 313.233884 240.28 
L 314.827134 230.778089 
L 316.236127 219.557363 
L 317.39669 206.347113 
L 317.823993 190.956403 
L 318.312152 173.39493 
L 317.615944 154.013971 
L 317.463264 133.590571 
L 316.929168 113.137869 
L 315.921442 93.757994 
L 315.095697 76.198006 
L 314.851148 60.808896 
L 314.462917 47.600163 
L 314.511936 36.380776 
L 310.986962 26.88 
L 313.942775 26.88 
z
" clip-path="url(#pd46fa85777)" style="fill: #3e4a89"/>
    <path d="M 102.614169 36.380776 
L 99.912484 47.600163 
L 99.20441 60.808896 
L 97.593974 76.198006 
L 97.444703 93.757994 
L 96.619466 113.137869 
L 95.953454 133.590571 
L 95.974538 154.013971 
L 96.227932 173.39493 
L 97.708856 190.956403 
L 97.275268 206.347113 
L 100.248306 219.557363 
L 102.761799 230.778089 
L 100.892028 240.28 
L 98.468574 240.28 
L 100.018984 230.778089 
L 97.934801 219.557363 
L 95.469563 206.347113 
L 95.829093 190.956403 
L 94.601114 173.39493 
L 94.391 154.013971 
L 94.373517 133.590571 
L 94.925773 113.137869 
L 95.610058 93.757994 
L 95.733833 76.198006 
L 97.069204 60.808896 
L 97.656338 47.600163 
L 99.89657 36.380776 
L 102.150037 26.88 
L 105.331815 26.88 
z
M 314.511936 36.380776 
L 314.462917 47.600163 
L 314.851148 60.808896 
L 315.095697 76.198006 
L 315.921442 93.757994 
L 316.929168 113.137869 
L 317.463264 133.590571 
L 317.615944 154.013971 
L 318.312152 173.39493 
L 317.823993 190.956403 
L 317.39669 206.347113 
L 316.236127 219.557363 
L 314.827134 230.778089 
L 313.233884 240.28 
L 310.740901 240.28 
L 312.662335 230.778089 
L 314.36156 219.557363 
L 315.76118 206.347113 
L 316.276501 190.956403 
L 316.865212 173.39493 
L 316.025596 154.013971 
L 315.841467 133.590571 
L 315.197356 113.137869 
L 313.982054 93.757994 
L 312.986218 76.198006 
L 312.691297 60.808896 
L 312.223096 47.600163 
L 312.282212 36.380776 
L 308.031149 26.88 
L 310.986962 26.88 
z
" clip-path="url(#pd46fa85777)" style="fill: #38598c"/>
    <path d="M 105.331768 36.380776 
L 102.168631 47.600163 
L 101.339616 60.808896 
L 99.454115 76.198006 
L 99.279348 93.757994 
L 98.313159 113.137869 
L 97.533391 133.590571 
L 97.558076 154.013971 
L 97.854751 173.39493 
L 99.588619 190.956403 
L 99.080974 206.347113 
L 102.561811 219.557363 
L 105.504613 230.778089 
L 103.315483 240.28 
L 100.892028 240.28 
L 102.761799 230.778089 
L 100.248306 219.557363 
L 97.275268 206.347113 
L 97.708856 190.956403 
L 96.227932 173.39493 
L 95.974538 154.013971 
L 95.953454 133.590571 
L 96.619466 113.137869 
L 97.444703 93.757994 
L 97.593974 76.198006 
L 99.20441 60.808896 
L 99.912484 47.600163 
L 102.614169 36.380776 
L 105.331815 26.88 
L 108.513593 26.88 
z
M 312.282212 36.380776 
L 312.223096 47.600163 
L 312.691297 60.808896 
L 312.986218 76.198006 
L 313.982054 93.757994 
L 315.197356 113.137869 
L 315.841467 133.590571 
L 316.025596 154.013971 
L 316.865212 173.39493 
L 316.276501 190.956403 
L 315.76118 206.347113 
L 314.36156 219.557363 
L 312.662335 230.778089 
L 310.740901 240.28 
L 308.247919 240.28 
L 310.497537 230.778089 
L 312.486992 219.557363 
L 314.12567 206.347113 
L 314.729009 190.956403 
L 315.418273 173.39493 
L 314.435249 154.013971 
L 314.21967 133.590571 
L 313.465544 113.137869 
L 312.042666 93.757994 
L 310.87674 76.198006 
L 310.531445 60.808896 
L 309.983275 47.600163 
L 310.052488 36.380776 
L 305.075336 26.88 
L 308.031149 26.88 
z
" clip-path="url(#pd46fa85777)" style="fill: #31668e"/>
    <path d="M 110.566667 26.88 
L 113.429949 26.88 
L 110.566667 29.510923 
L 108.049367 36.380776 
L 104.424777 47.600163 
L 103.474822 60.808896 
L 101.314256 76.198006 
L 101.113993 93.757994 
L 100.006852 113.137869 
L 99.113328 133.590571 
L 99.141615 154.013971 
L 99.481569 173.39493 
L 101.468382 190.956403 
L 100.886679 206.347113 
L 104.875317 219.557363 
L 108.247428 230.778089 
L 105.738937 240.28 
L 103.315483 240.28 
L 105.504613 230.778089 
L 102.561811 219.557363 
L 99.080974 206.347113 
L 99.588619 190.956403 
L 97.854751 173.39493 
L 97.558076 154.013971 
L 97.533391 133.590571 
L 98.313159 113.137869 
L 99.279348 93.757994 
L 99.454115 76.198006 
L 101.339616 60.808896 
L 102.168631 47.600163 
L 105.331768 36.380776 
L 108.513593 26.88 
z
M 310.052488 36.380776 
L 309.983275 47.600163 
L 310.531445 60.808896 
L 310.87674 76.198006 
L 312.042666 93.757994 
L 313.465544 113.137869 
L 314.21967 133.590571 
L 314.435249 154.013971 
L 315.418273 173.39493 
L 314.729009 190.956403 
L 314.12567 206.347113 
L 312.486992 219.557363 
L 310.497537 230.778089 
L 308.247919 240.28 
L 305.754936 240.28 
L 308.332739 230.778089 
L 310.612424 219.557363 
L 312.490159 206.347113 
L 313.181516 190.956403 
L 313.971333 173.39493 
L 312.844902 154.013971 
L 312.597873 133.590571 
L 311.733732 113.137869 
L 310.103278 93.757994 
L 308.767261 76.198006 
L 308.371594 60.808896 
L 307.743454 47.600163 
L 307.822764 36.380776 
L 302.119523 26.88 
L 305.075336 26.88 
z
" clip-path="url(#pd46fa85777)" style="fill: #2c718e"/>
    <path d="M 110.566667 29.510923 
L 113.429949 26.88 
L 121.501445 26.88 
L 111.180985 36.380776 
L 110.566667 36.8412 
L 106.680923 47.600163 
L 105.610028 60.808896 
L 103.174397 76.198006 
L 102.948638 93.757994 
L 101.700545 113.137869 
L 100.693265 133.590571 
L 100.725153 154.013971 
L 101.108387 173.39493 
L 103.348145 190.956403 
L 102.692384 206.347113 
L 107.188822 219.557363 
L 110.566667 229.704789 
L 111.459349 230.778089 
L 110.566667 232.057956 
L 108.162391 240.28 
L 105.738937 240.28 
L 108.247428 230.778089 
L 104.875317 219.557363 
L 100.886679 206.347113 
L 101.468382 190.956403 
L 99.481569 173.39493 
L 99.141615 154.013971 
L 99.113328 133.590571 
L 100.006852 113.137869 
L 101.113993 93.757994 
L 101.314256 76.198006 
L 103.474822 60.808896 
L 104.424777 47.600163 
L 108.049367 36.380776 
z
M 301.473333 26.88 
L 302.119523 26.88 
L 307.822764 36.380776 
L 307.743454 47.600163 
L 308.371594 60.808896 
L 308.767261 76.198006 
L 310.103278 93.757994 
L 311.733732 113.137869 
L 312.597873 133.590571 
L 312.844902 154.013971 
L 313.971333 173.39493 
L 313.181516 190.956403 
L 312.490159 206.347113 
L 310.612424 219.557363 
L 308.332739 230.778089 
L 305.754936 240.28 
L 303.261953 240.28 
L 306.167941 230.778089 
L 308.737856 219.557363 
L 310.854649 206.347113 
L 311.634024 190.956403 
L 312.524394 173.39493 
L 311.254554 154.013971 
L 310.976076 133.590571 
L 310.001919 113.137869 
L 308.163891 93.757994 
L 306.657783 76.198006 
L 306.211742 60.808896 
L 305.503633 47.600163 
L 305.59304 36.380776 
L 301.473333 29.703777 
L 292.066895 26.88 
z
" clip-path="url(#pd46fa85777)" style="fill: #277e8e"/>
    <path d="M 119.515858 36.380776 
L 110.566667 43.088086 
L 108.93707 47.600163 
L 107.745234 60.808896 
L 105.034537 76.198006 
L 104.783283 93.757994 
L 103.394238 113.137869 
L 102.273202 133.590571 
L 102.308691 154.013971 
L 102.735206 173.39493 
L 105.227908 190.956403 
L 104.49809 206.347113 
L 109.502327 219.557363 
L 110.566667 222.754758 
L 117.239809 230.778089 
L 110.667548 240.28 
L 110.566667 240.28 
L 108.162391 240.28 
L 110.566667 232.057956 
L 111.459349 230.778089 
L 110.566667 229.704789 
L 107.188822 219.557363 
L 102.692384 206.347113 
L 103.348145 190.956403 
L 101.108387 173.39493 
L 100.725153 154.013971 
L 100.693265 133.590571 
L 101.700545 113.137869 
L 102.948638 93.757994 
L 103.174397 76.198006 
L 105.610028 60.808896 
L 106.680923 47.600163 
L 110.566667 36.8412 
L 111.180985 36.380776 
L 121.501445 26.88 
L 129.572941 26.88 
z
M 182.156667 26.88 
L 206.02 26.88 
L 214.913491 26.88 
L 206.02 32.387673 
L 182.156667 29.405677 
L 163.853682 26.88 
z
M 301.473333 29.703777 
L 305.59304 36.380776 
L 305.503633 47.600163 
L 306.211742 60.808896 
L 306.657783 76.198006 
L 308.163891 93.757994 
L 310.001919 113.137869 
L 310.976076 133.590571 
L 311.254554 154.013971 
L 312.524394 173.39493 
L 311.634024 190.956403 
L 310.854649 206.347113 
L 308.737856 219.557363 
L 306.167941 230.778089 
L 303.261953 240.28 
L 301.473333 240.28 
L 299.73634 240.28 
L 301.473333 238.429983 
L 304.003142 230.778089 
L 306.863288 219.557363 
L 309.219139 206.347113 
L 310.086531 190.956403 
L 311.077454 173.39493 
L 309.664207 154.013971 
L 309.354279 133.590571 
L 308.270107 113.137869 
L 306.224503 93.757994 
L 304.548304 76.198006 
L 304.05189 60.808896 
L 303.263812 47.600163 
L 303.363316 36.380776 
L 301.473333 33.317594 
L 280.028712 26.88 
L 292.066895 26.88 
z
M 182.156667 235.027475 
L 185.022156 240.28 
L 182.156667 240.28 
L 174.70244 240.28 
z
M 229.883333 234.917111 
L 241.721893 240.28 
L 229.883333 240.28 
L 227.414924 240.28 
z
" clip-path="url(#pd46fa85777)" style="fill: #238a8d"/>
    <path d="M 134.43 26.88 
L 158.293333 26.88 
L 163.853682 26.88 
L 182.156667 29.405677 
L 206.02 32.387673 
L 214.913491 26.88 
L 224.368409 26.88 
L 208.865783 36.380776 
L 206.02 38.19646 
L 200.280311 36.380776 
L 182.156667 32.885825 
L 158.293333 33.2298 
L 134.43 30.065924 
L 127.85073 36.380776 
L 111.975075 47.600163 
L 110.566667 53.723021 
L 109.88044 60.808896 
L 106.894678 76.198006 
L 106.617928 93.757994 
L 105.087931 113.137869 
L 103.853139 133.590571 
L 103.892229 154.013971 
L 104.362024 173.39493 
L 107.107671 190.956403 
L 106.303795 206.347113 
L 110.566667 217.098387 
L 114.688796 219.557363 
L 123.020269 230.778089 
L 123.414984 240.28 
L 110.667548 240.28 
L 117.239809 230.778089 
L 110.566667 222.754758 
L 109.502327 219.557363 
L 104.49809 206.347113 
L 105.227908 190.956403 
L 102.735206 173.39493 
L 102.308691 154.013971 
L 102.273202 133.590571 
L 103.394238 113.137869 
L 104.783283 93.757994 
L 105.034537 76.198006 
L 107.745234 60.808896 
L 108.93707 47.600163 
L 110.566667 43.088086 
L 119.515858 36.380776 
L 129.572941 26.88 
z
M 253.746667 26.88 
L 277.61 26.88 
L 280.028712 26.88 
L 301.473333 33.317594 
L 303.363316 36.380776 
L 303.263812 47.600163 
L 304.05189 60.808896 
L 304.548304 76.198006 
L 306.224503 93.757994 
L 308.270107 113.137869 
L 309.354279 133.590571 
L 309.664207 154.013971 
L 311.077454 173.39493 
L 310.086531 190.956403 
L 309.219139 206.347113 
L 306.863288 219.557363 
L 304.003142 230.778089 
L 301.473333 238.429983 
L 299.73634 240.28 
L 293.588521 240.28 
L 301.473333 231.882134 
L 301.838344 230.778089 
L 304.988721 219.557363 
L 307.583629 206.347113 
L 308.539039 190.956403 
L 309.630515 173.39493 
L 308.07386 154.013971 
L 307.732482 133.590571 
L 306.538295 113.137869 
L 304.285115 93.757994 
L 302.438826 76.198006 
L 301.892039 60.808896 
L 301.473333 54.31766 
L 298.989489 47.600163 
L 289.851034 36.380776 
L 277.61 34.791826 
L 253.746667 30.286534 
L 239.204569 26.88 
z
M 182.156667 229.384193 
L 184.533483 230.778089 
L 188.942777 240.28 
L 185.022156 240.28 
L 182.156667 235.027475 
L 174.70244 240.28 
L 164.503413 240.28 
L 177.324384 230.778089 
z
M 229.883333 228.419907 
L 253.746667 230.522463 
L 254.593472 230.778089 
L 256.737141 240.28 
L 253.746667 240.28 
L 241.721893 240.28 
L 229.883333 234.917111 
L 227.414924 240.28 
L 223.420161 240.28 
L 226.923772 230.778089 
z
" clip-path="url(#pd46fa85777)" style="fill: #1f968b"/>
    <path d="M 134.43 30.065924 
L 158.293333 33.2298 
L 182.156667 32.885825 
L 200.280311 36.380776 
L 206.02 38.19646 
L 208.865783 36.380776 
L 224.368409 26.88 
L 229.883333 26.88 
L 239.204569 26.88 
L 253.746667 30.286534 
L 277.61 34.791826 
L 289.851034 36.380776 
L 298.989489 47.600163 
L 301.473333 54.31766 
L 301.892039 60.808896 
L 302.438826 76.198006 
L 304.285115 93.757994 
L 306.538295 113.137869 
L 307.732482 133.590571 
L 308.07386 154.013971 
L 309.630515 173.39493 
L 308.539039 190.956403 
L 307.583629 206.347113 
L 304.988721 219.557363 
L 301.838344 230.778089 
L 301.473333 231.882134 
L 293.588521 240.28 
L 287.440702 240.28 
L 291.832743 230.778089 
L 301.473333 225.312094 
L 303.114153 219.557363 
L 305.948119 206.347113 
L 306.991547 190.956403 
L 308.183575 173.39493 
L 306.483512 154.013971 
L 306.110685 133.590571 
L 304.806483 113.137869 
L 302.345727 93.757994 
L 301.473333 85.796395 
L 298.889235 76.198006 
L 297.102791 60.808896 
L 286.608373 47.600163 
L 277.61 42.394235 
L 263.958153 36.380776 
L 253.746667 34.030031 
L 229.883333 29.122325 
L 217.813571 36.380776 
L 206.02 43.905382 
L 182.233429 36.380776 
L 182.156667 36.365973 
L 181.992271 36.380776 
L 158.293333 42.172605 
L 134.43 37.03031 
L 117.04662 47.600163 
L 113.495131 60.808896 
L 110.566667 67.127989 
L 108.754819 76.198006 
L 108.452573 93.757994 
L 106.781624 113.137869 
L 105.433076 133.590571 
L 105.475768 154.013971 
L 105.988842 173.39493 
L 108.987434 190.956403 
L 108.1095 206.347113 
L 110.566667 212.544266 
L 122.323144 219.557363 
L 128.800729 230.778089 
L 134.43 239.116364 
L 158.293333 236.566422 
L 165.50108 230.778089 
L 182.156667 225.973703 
L 190.348917 230.778089 
L 192.863399 240.28 
L 188.942777 240.28 
L 184.533483 230.778089 
L 182.156667 229.384193 
L 177.324384 230.778089 
L 164.503413 240.28 
L 158.293333 240.28 
L 134.43 240.28 
L 123.414984 240.28 
L 123.020269 230.778089 
L 114.688796 219.557363 
L 110.566667 217.098387 
L 106.303795 206.347113 
L 107.107671 190.956403 
L 104.362024 173.39493 
L 103.892229 154.013971 
L 103.853139 133.590571 
L 105.087931 113.137869 
L 106.617928 93.757994 
L 106.894678 76.198006 
L 109.88044 60.808896 
L 110.566667 53.723021 
L 111.975075 47.600163 
L 127.85073 36.380776 
z
M 229.883333 223.911837 
L 253.746667 227.401925 
L 264.9308 230.778089 
L 264.768082 240.28 
L 256.737141 240.28 
L 254.593472 230.778089 
L 253.746667 230.522463 
L 229.883333 228.419907 
L 226.923772 230.778089 
L 223.420161 240.28 
L 219.425399 240.28 
L 221.26606 230.778089 
z
" clip-path="url(#pd46fa85777)" style="fill: #1fa287"/>
    <path d="M 182.156667 36.365973 
L 182.233429 36.380776 
L 206.02 43.905382 
L 217.813571 36.380776 
L 229.883333 29.122325 
L 253.746667 34.030031 
L 263.958153 36.380776 
L 277.61 42.394235 
L 286.608373 47.600163 
L 297.102791 60.808896 
L 298.889235 76.198006 
L 301.473333 85.796395 
L 302.345727 93.757994 
L 304.806483 113.137869 
L 306.110685 133.590571 
L 306.483512 154.013971 
L 308.183575 173.39493 
L 306.991547 190.956403 
L 305.948119 206.347113 
L 303.114153 219.557363 
L 301.473333 225.312094 
L 291.832743 230.778089 
L 287.440702 240.28 
L 281.292883 240.28 
L 280.236967 230.778089 
L 300.149837 219.557363 
L 301.473333 218.672086 
L 304.312608 206.347113 
L 305.444054 190.956403 
L 306.736636 173.39493 
L 304.893165 154.013971 
L 304.488888 133.590571 
L 303.07467 113.137869 
L 301.473333 100.987463 
L 298.256882 93.757994 
L 294.12423 76.198006 
L 291.681234 60.808896 
L 277.61 48.858202 
L 274.361219 47.600163 
L 253.746667 38.363072 
L 241.432113 36.380776 
L 229.883333 34.503299 
L 226.761359 36.380776 
L 210.013318 47.600163 
L 206.02 51.456766 
L 202.051247 47.600163 
L 182.156667 40.422193 
L 162.920281 47.600163 
L 158.293333 50.295425 
L 154.735268 47.600163 
L 134.43 40.114031 
L 122.118166 47.600163 
L 117.810494 60.808896 
L 110.686788 76.198006 
L 110.566667 78.755191 
L 110.287218 93.757994 
L 108.475317 113.137869 
L 107.013013 133.590571 
L 107.059306 154.013971 
L 107.615661 173.39493 
L 110.566667 189.533971 
L 113.956468 190.956403 
L 110.566667 195.682391 
L 109.915206 206.347113 
L 110.566667 207.990145 
L 129.957492 219.557363 
L 134.43 230.298542 
L 158.293333 227.765768 
L 182.156667 222.563213 
L 196.164351 230.778089 
L 196.78402 240.28 
L 192.863399 240.28 
L 190.348917 230.778089 
L 182.156667 225.973703 
L 165.50108 230.778089 
L 158.293333 236.566422 
L 134.43 239.116364 
L 128.800729 230.778089 
L 122.323144 219.557363 
L 110.566667 212.544266 
L 108.1095 206.347113 
L 108.987434 190.956403 
L 105.988842 173.39493 
L 105.475768 154.013971 
L 105.433076 133.590571 
L 106.781624 113.137869 
L 108.452573 93.757994 
L 108.754819 76.198006 
L 110.566667 67.127989 
L 113.495131 60.808896 
L 117.04662 47.600163 
L 134.43 37.03031 
L 158.293333 42.172605 
L 181.992271 36.380776 
z
M 253.746667 152.845 
L 254.512016 154.013971 
L 253.746667 155.156161 
L 253.115446 154.013971 
z
M 229.883333 219.349411 
L 230.408592 219.557363 
L 253.746667 224.281386 
L 275.268128 230.778089 
L 272.799023 240.28 
L 264.768082 240.28 
L 264.9308 230.778089 
L 253.746667 227.401925 
L 229.883333 223.911837 
L 221.26606 230.778089 
L 219.425399 240.28 
L 215.430636 240.28 
L 215.608349 230.778089 
L 229.18402 219.557363 
z
" clip-path="url(#pd46fa85777)" style="fill: #27ad81"/>
    <path d="M 229.883333 34.503299 
L 241.432113 36.380776 
L 253.746667 38.363072 
L 274.361219 47.600163 
L 277.61 48.858202 
L 291.681234 60.808896 
L 294.12423 76.198006 
L 298.256882 93.757994 
L 301.473333 100.987463 
L 303.07467 113.137869 
L 304.488888 133.590571 
L 304.893165 154.013971 
L 306.736636 173.39493 
L 305.444054 190.956403 
L 304.312608 206.347113 
L 301.473333 218.672086 
L 300.149837 219.557363 
L 280.236967 230.778089 
L 281.292883 240.28 
L 277.61 240.28 
L 272.799023 240.28 
L 275.268128 230.778089 
L 253.746667 224.281386 
L 230.408592 219.557363 
L 229.883333 219.349411 
L 229.18402 219.557363 
L 215.608349 230.778089 
L 215.430636 240.28 
L 211.435874 240.28 
L 209.950638 230.778089 
L 208.659128 219.557363 
L 206.02 216.202081 
L 202.404804 206.347113 
L 206.02 203.854083 
L 211.996319 206.347113 
L 229.883333 213.246025 
L 245.824975 219.557363 
L 253.746667 221.160848 
L 277.61 226.203282 
L 289.535933 219.557363 
L 301.473333 211.57252 
L 302.677098 206.347113 
L 303.896562 190.956403 
L 305.289696 173.39493 
L 303.302818 154.013971 
L 302.867091 133.590571 
L 301.473333 114.786378 
L 300.755636 113.137869 
L 292.410604 93.757994 
L 289.359224 76.198006 
L 286.259678 60.808896 
L 277.61 53.462727 
L 262.470417 47.600163 
L 253.746667 43.691173 
L 229.883333 41.574074 
L 221.332054 47.600163 
L 207.091265 60.808896 
L 206.02 67.305942 
L 203.55223 60.808896 
L 190.802137 47.600163 
L 182.156667 44.480875 
L 173.797224 47.600163 
L 158.293333 56.631399 
L 146.371032 47.600163 
L 134.43 43.197751 
L 127.189711 47.600163 
L 122.125856 60.808896 
L 115.313584 76.198006 
L 114.664965 93.757994 
L 110.566667 108.934386 
L 110.16901 113.137869 
L 108.59295 133.590571 
L 108.642844 154.013971 
L 109.242479 173.39493 
L 110.566667 180.636907 
L 134.43 190.668804 
L 135.400638 190.956403 
L 142.377403 206.347113 
L 155.109773 219.557363 
L 158.293333 220.049347 
L 166.634616 219.557363 
L 182.156667 218.855742 
L 193.608794 219.557363 
L 201.979786 230.778089 
L 200.704642 240.28 
L 196.78402 240.28 
L 196.164351 230.778089 
L 182.156667 222.563213 
L 158.293333 227.765768 
L 134.43 230.298542 
L 129.957492 219.557363 
L 110.566667 207.990145 
L 109.915206 206.347113 
L 110.566667 195.682391 
L 113.956468 190.956403 
L 110.566667 189.533971 
L 107.615661 173.39493 
L 107.059306 154.013971 
L 107.013013 133.590571 
L 108.475317 113.137869 
L 110.287218 93.757994 
L 110.566667 78.755191 
L 110.686788 76.198006 
L 117.810494 60.808896 
L 122.118166 47.600163 
L 134.43 40.114031 
L 154.735268 47.600163 
L 158.293333 50.295425 
L 162.920281 47.600163 
L 182.156667 40.422193 
L 202.051247 47.600163 
L 206.02 51.456766 
L 210.013318 47.600163 
L 226.761359 36.380776 
z
M 253.746667 144.505082 
L 259.972333 154.013971 
L 253.746667 163.305009 
L 248.612057 154.013971 
z
M 253.115446 154.013971 
L 253.746667 155.156161 
L 254.512016 154.013971 
L 253.746667 152.845 
z
" clip-path="url(#pd46fa85777)" style="fill: #38b977"/>
    <path d="M 134.43 43.197751 
L 146.371032 47.600163 
L 158.293333 56.631399 
L 173.797224 47.600163 
L 182.156667 44.480875 
L 190.802137 47.600163 
L 203.55223 60.808896 
L 206.02 67.305942 
L 207.091265 60.808896 
L 221.332054 47.600163 
L 229.883333 41.574074 
L 253.746667 43.691173 
L 262.470417 47.600163 
L 277.61 53.462727 
L 286.259678 60.808896 
L 289.359224 76.198006 
L 292.410604 93.757994 
L 300.755636 113.137869 
L 301.473333 114.786378 
L 302.867091 133.590571 
L 303.302818 154.013971 
L 305.289696 173.39493 
L 303.896562 190.956403 
L 302.677098 206.347113 
L 301.473333 211.57252 
L 289.535933 219.557363 
L 277.61 226.203282 
L 253.746667 221.160848 
L 245.824975 219.557363 
L 229.883333 213.246025 
L 211.996319 206.347113 
L 206.02 203.854083 
L 202.404804 206.347113 
L 206.02 216.202081 
L 208.659128 219.557363 
L 209.950638 230.778089 
L 211.435874 240.28 
L 207.441112 240.28 
L 206.02 235.166194 
L 204.625264 240.28 
L 200.704642 240.28 
L 201.979786 230.778089 
L 193.608794 219.557363 
L 182.156667 218.855742 
L 166.634616 219.557363 
L 158.293333 220.049347 
L 155.109773 219.557363 
L 142.377403 206.347113 
L 135.400638 190.956403 
L 134.43 190.668804 
L 110.566667 180.636907 
L 109.242479 173.39493 
L 108.642844 154.013971 
L 108.59295 133.590571 
L 110.16901 113.137869 
L 110.566667 108.934386 
L 114.664965 93.757994 
L 115.313584 76.198006 
L 122.125856 60.808896 
L 127.189711 47.600163 
z
M 132.261257 47.600163 
L 126.441219 60.808896 
L 119.940381 76.198006 
L 119.499674 93.757994 
L 124.42785 113.137869 
L 110.566667 128.565604 
L 110.172887 133.590571 
L 110.226382 154.013971 
L 110.566667 164.402078 
L 114.114105 173.39493 
L 134.43 182.30518 
L 148.607207 173.39493 
L 145.036876 154.013971 
L 158.293333 138.235925 
L 162.87989 154.013971 
L 162.020622 173.39493 
L 159.718043 190.956403 
L 161.130497 206.347113 
L 182.156667 212.942158 
L 192.832287 206.347113 
L 206.02 197.2529 
L 227.820749 206.347113 
L 229.883333 207.142639 
L 253.746667 213.033052 
L 272.772327 219.557363 
L 277.61 220.288512 
L 278.922029 219.557363 
L 294.041764 206.347113 
L 301.473333 201.451431 
L 302.349069 190.956403 
L 303.842757 173.39493 
L 301.71247 154.013971 
L 301.473333 143.459788 
L 299.334403 133.590571 
L 291.229556 113.137869 
L 286.564325 93.757994 
L 284.594219 76.198006 
L 280.838122 60.808896 
L 277.61 58.067253 
L 253.746667 48.931255 
L 229.883333 48.993442 
L 214.507041 60.808896 
L 209.602513 76.198006 
L 206.02 84.503806 
L 199.952667 76.198006 
L 186.469234 60.808896 
L 182.156667 53.917985 
L 171.999754 60.808896 
L 158.293333 62.641092 
L 154.584459 60.808896 
L 138.006796 47.600163 
L 134.43 46.281472 
z
M 253.746667 136.165163 
L 265.432649 154.013971 
L 253.746667 171.453857 
L 244.108668 154.013971 
z
M 248.612057 154.013971 
L 253.746667 163.305009 
L 259.972333 154.013971 
L 253.746667 144.505082 
z
" clip-path="url(#pd46fa85777)" style="fill: #50c46a"/>
    <path d="M 134.43 46.281472 
L 138.006796 47.600163 
L 154.584459 60.808896 
L 158.293333 62.641092 
L 171.999754 60.808896 
L 182.156667 53.917985 
L 186.469234 60.808896 
L 199.952667 76.198006 
L 206.02 84.503806 
L 209.602513 76.198006 
L 214.507041 60.808896 
L 229.883333 48.993442 
L 253.746667 48.931255 
L 277.61 58.067253 
L 280.838122 60.808896 
L 284.594219 76.198006 
L 286.564325 93.757994 
L 291.229556 113.137869 
L 299.334403 133.590571 
L 301.473333 143.459788 
L 301.71247 154.013971 
L 303.842757 173.39493 
L 302.349069 190.956403 
L 301.473333 201.451431 
L 294.041764 206.347113 
L 278.922029 219.557363 
L 277.61 220.288512 
L 272.772327 219.557363 
L 253.746667 213.033052 
L 229.883333 207.142639 
L 227.820749 206.347113 
L 206.02 197.2529 
L 192.832287 206.347113 
L 182.156667 212.942158 
L 161.130497 206.347113 
L 159.718043 190.956403 
L 162.020622 173.39493 
L 162.87989 154.013971 
L 158.293333 138.235925 
L 145.036876 154.013971 
L 148.607207 173.39493 
L 134.43 182.30518 
L 114.114105 173.39493 
L 110.566667 164.402078 
L 110.226382 154.013971 
L 110.172887 133.590571 
L 110.566667 128.565604 
L 124.42785 113.137869 
L 119.499674 93.757994 
L 119.940381 76.198006 
L 126.441219 60.808896 
L 132.261257 47.600163 
z
M 130.756582 60.808896 
L 124.567178 76.198006 
L 124.334383 93.757994 
L 134.43 109.715593 
L 141.66781 113.137869 
L 158.293333 124.861375 
L 164.966024 133.590571 
L 168.649223 154.013971 
L 167.141426 173.39493 
L 167.257048 190.956403 
L 179.984049 206.347113 
L 182.156667 207.028573 
L 183.25977 206.347113 
L 205.475403 190.956403 
L 206.02 190.53811 
L 206.793956 190.956403 
L 229.883333 200.389471 
L 253.746667 196.177353 
L 277.61 202.466664 
L 295.266587 190.956403 
L 301.473333 183.842675 
L 302.395818 173.39493 
L 301.473333 165.086441 
L 291.724712 154.013971 
L 284.122489 133.590571 
L 281.703476 113.137869 
L 280.718047 93.757994 
L 279.829214 76.198006 
L 277.61 67.962767 
L 272.189846 60.808896 
L 253.746667 53.928886 
L 229.883333 54.691874 
L 221.922816 60.808896 
L 214.067869 76.198006 
L 206.96878 93.757994 
L 206.02 96.340876 
L 203.551516 93.757994 
L 192.390154 76.198006 
L 182.156667 66.285143 
L 158.293333 68.019303 
L 143.697465 60.808896 
L 134.43 52.910799 
z
M 133.183661 173.39493 
L 134.43 173.941556 
L 135.299743 173.39493 
L 134.43 170.444082 
z
M 253.746667 120.283936 
L 268.483487 133.590571 
L 270.892965 154.013971 
L 263.88173 173.39493 
L 253.746667 186.518435 
L 248.540641 173.39493 
L 239.605279 154.013971 
L 248.922804 133.590571 
z
M 244.108668 154.013971 
L 253.746667 171.453857 
L 265.432649 154.013971 
L 253.746667 136.165163 
z
M 206.02 235.166194 
L 207.441112 240.28 
L 206.02 240.28 
L 204.625264 240.28 
z
" clip-path="url(#pd46fa85777)" style="fill: #6ccd5a"/>
    <path d="M 134.43 52.910799 
L 143.697465 60.808896 
L 158.293333 68.019303 
L 182.156667 66.285143 
L 192.390154 76.198006 
L 203.551516 93.757994 
L 206.02 96.340876 
L 206.96878 93.757994 
L 214.067869 76.198006 
L 221.922816 60.808896 
L 229.883333 54.691874 
L 253.746667 53.928886 
L 272.189846 60.808896 
L 277.61 67.962767 
L 279.829214 76.198006 
L 280.718047 93.757994 
L 281.703476 113.137869 
L 284.122489 133.590571 
L 291.724712 154.013971 
L 301.473333 165.086441 
L 302.395818 173.39493 
L 301.473333 183.842675 
L 295.266587 190.956403 
L 277.61 202.466664 
L 253.746667 196.177353 
L 229.883333 200.389471 
L 206.793956 190.956403 
L 206.02 190.53811 
L 205.475403 190.956403 
L 183.25977 206.347113 
L 182.156667 207.028573 
L 179.984049 206.347113 
L 167.257048 190.956403 
L 167.141426 173.39493 
L 168.649223 154.013971 
L 164.966024 133.590571 
L 158.293333 124.861375 
L 141.66781 113.137869 
L 134.43 109.715593 
L 124.334383 93.757994 
L 124.567178 76.198006 
L 130.756582 60.808896 
z
M 229.338591 60.808896 
L 218.533225 76.198006 
L 215.911028 93.757994 
L 208.768838 113.137869 
L 206.02 125.608048 
L 194.077723 113.137869 
L 182.156667 97.754843 
L 181.015796 93.757994 
L 182.156667 90.501736 
L 184.827642 76.198006 
L 182.156667 73.610715 
L 158.293333 73.397515 
L 134.43 62.596772 
L 129.193974 76.198006 
L 129.169091 93.757994 
L 134.43 102.073629 
L 157.829887 113.137869 
L 158.293333 113.464669 
L 173.677787 133.590571 
L 174.418556 154.013971 
L 172.26223 173.39493 
L 174.796052 190.956403 
L 182.156667 199.030402 
L 193.676439 190.956403 
L 206.02 181.475576 
L 223.5621 190.956403 
L 229.883333 193.538916 
L 237.920026 190.956403 
L 241.706772 173.39493 
L 235.101891 154.013971 
L 241.944773 133.590571 
L 248.76186 113.137869 
L 253.746667 103.722244 
L 267.751753 93.757994 
L 269.275919 76.198006 
L 258.792744 60.808896 
L 253.746667 58.926516 
L 229.883333 60.390305 
z
M 248.922804 133.590571 
L 239.605279 154.013971 
L 248.540641 173.39493 
L 253.746667 186.518435 
L 263.88173 173.39493 
L 270.892965 154.013971 
L 268.483487 133.590571 
L 253.746667 120.283936 
z
M 276.353281 154.013971 
L 277.185867 173.39493 
L 271.874507 190.956403 
L 277.61 193.145737 
L 280.968409 190.956403 
L 279.539201 173.39493 
L 280.250782 154.013971 
L 277.61 148.153213 
z
M 134.43 170.444082 
L 135.299743 173.39493 
L 134.43 173.941556 
L 133.183661 173.39493 
z
" clip-path="url(#pd46fa85777)" style="fill: #8bd646"/>
    <path d="M 229.883333 60.390305 
L 253.746667 58.926516 
L 258.792744 60.808896 
L 269.275919 76.198006 
L 267.751753 93.757994 
L 253.746667 103.722244 
L 248.76186 113.137869 
L 241.944773 133.590571 
L 235.101891 154.013971 
L 241.706772 173.39493 
L 237.920026 190.956403 
L 229.883333 193.538916 
L 223.5621 190.956403 
L 206.02 181.475576 
L 193.676439 190.956403 
L 182.156667 199.030402 
L 174.796052 190.956403 
L 172.26223 173.39493 
L 174.418556 154.013971 
L 173.677787 133.590571 
L 158.293333 113.464669 
L 157.829887 113.137869 
L 134.43 102.073629 
L 129.169091 93.757994 
L 129.193974 76.198006 
L 134.43 62.596772 
L 158.293333 73.397515 
L 182.156667 73.610715 
L 184.827642 76.198006 
L 182.156667 90.501736 
L 181.015796 93.757994 
L 182.156667 97.754843 
L 194.077723 113.137869 
L 206.02 125.608048 
L 208.768838 113.137869 
L 215.911028 93.757994 
L 218.533225 76.198006 
L 229.338591 60.808896 
z
M 133.820771 76.198006 
L 134.0038 93.757994 
L 134.43 94.431666 
L 158.293333 101.168517 
L 166.826419 93.757994 
L 158.293333 83.986126 
L 139.572994 76.198006 
L 134.43 74.615457 
z
M 222.99858 76.198006 
L 224.853277 93.757994 
L 217.635898 113.137869 
L 218.521475 133.590571 
L 206.02 152.691464 
L 182.156667 135.074242 
L 180.187889 154.013971 
L 177.383034 173.39493 
L 182.156667 190.521671 
L 203.535264 173.39493 
L 206.02 160.578801 
L 209.103583 173.39493 
L 229.883333 182.87067 
L 234.872904 173.39493 
L 230.598502 154.013971 
L 234.966743 133.590571 
L 240.833798 113.137869 
L 244.84602 93.757994 
L 253.677607 76.198006 
L 229.883333 66.585477 
z
M 277.61 148.153213 
L 280.250782 154.013971 
L 279.539201 173.39493 
L 280.968409 190.956403 
L 277.61 193.145737 
L 271.874507 190.956403 
L 277.185867 173.39493 
L 276.353281 154.013971 
z
" clip-path="url(#pd46fa85777)" style="fill: #aadc32"/>
    <path d="M 134.43 74.615457 
L 139.572994 76.198006 
L 158.293333 83.986126 
L 166.826419 93.757994 
L 158.293333 101.168517 
L 134.43 94.431666 
L 134.0038 93.757994 
L 133.820771 76.198006 
z
M 229.883333 66.585477 
L 253.677607 76.198006 
L 244.84602 93.757994 
L 240.833798 113.137869 
L 234.966743 133.590571 
L 230.598502 154.013971 
L 234.872904 173.39493 
L 229.883333 182.87067 
L 209.103583 173.39493 
L 206.02 160.578801 
L 203.535264 173.39493 
L 182.156667 190.521671 
L 177.383034 173.39493 
L 180.187889 154.013971 
L 182.156667 135.074242 
L 206.02 152.691464 
L 218.521475 133.590571 
L 217.635898 113.137869 
L 224.853277 93.757994 
L 222.99858 76.198006 
z
M 227.463936 76.198006 
L 229.883333 85.913277 
L 238.24497 76.198006 
L 229.883333 72.820031 
z
M 226.502957 113.137869 
L 229.883333 125.08312 
L 232.905737 113.137869 
L 229.883333 104.113873 
z
" clip-path="url(#pd46fa85777)" style="fill: #cde11d"/>
    <path d="M 229.883333 72.820031 
L 238.24497 76.198006 
L 229.883333 85.913277 
L 227.463936 76.198006 
z
M 229.883333 104.113873 
L 232.905737 113.137869 
L 229.883333 125.08312 
L 226.502957 113.137869 
z
" clip-path="url(#pd46fa85777)" style="fill: #efe51c"/>
   </g>
   <g id="matplotlib.axis_1">
    <g id="xtick_1">
     <g id="line2d_1">
      <defs>
       <path id="m31928c918a" d="M 0 0 
L 0 3.5 
" style="stroke: #000000; stroke-width: 0.8"/>
      </defs>
      <g>
       <use xlink:href="#m31928c918a" x="126.475556" y="240.28" style="stroke: #000000; stroke-width: 0.8"/>
      </g>
     </g>
     <g id="text_1">
      <!-- −50 -->
      <g transform="translate(113.812743 256.398125) scale(0.12 -0.12)">
       <defs>
        <path id="DejaVuSans-2212" d="M 678 2272 
L 4684 2272 
L 4684 1741 
L 678 1741 
L 678 2272 
z
" transform="scale(0.015625)"/>
        <path id="DejaVuSans-35" d="M 691 4666 
L 3169 4666 
L 3169 4134 
L 1269 4134 
L 1269 2991 
Q 1406 3038 1543 3061 
Q 1681 3084 1819 3084 
Q 2600 3084 3056 2656 
Q 3513 2228 3513 1497 
Q 3513 744 3044 326 
Q 2575 -91 1722 -91 
Q 1428 -91 1123 -41 
Q 819 9 494 109 
L 494 744 
Q 775 591 1075 516 
Q 1375 441 1709 441 
Q 2250 441 2565 725 
Q 2881 1009 2881 1497 
Q 2881 1984 2565 2268 
Q 2250 2553 1709 2553 
Q 1456 2553 1204 2497 
Q 953 2441 691 2322 
L 691 4666 
z
" transform="scale(0.015625)"/>
        <path id="DejaVuSans-30" d="M 2034 4250 
Q 1547 4250 1301 3770 
Q 1056 3291 1056 2328 
Q 1056 1369 1301 889 
Q 1547 409 2034 409 
Q 2525 409 2770 889 
Q 3016 1369 3016 2328 
Q 3016 3291 2770 3770 
Q 2525 4250 2034 4250 
z
M 2034 4750 
Q 2819 4750 3233 4129 
Q 3647 3509 3647 2328 
Q 3647 1150 3233 529 
Q 2819 -91 2034 -91 
Q 1250 -91 836 529 
Q 422 1150 422 2328 
Q 422 3509 836 4129 
Q 1250 4750 2034 4750 
z
" transform="scale(0.015625)"/>
       </defs>
       <use xlink:href="#DejaVuSans-2212"/>
       <use xlink:href="#DejaVuSans-35" transform="translate(83.789062 0)"/>
       <use xlink:href="#DejaVuSans-30" transform="translate(147.412109 0)"/>
      </g>
     </g>
    </g>
    <g id="xtick_2">
     <g id="line2d_2">
      <g>
       <use xlink:href="#m31928c918a" x="206.02" y="240.28" style="stroke: #000000; stroke-width: 0.8"/>
      </g>
     </g>
     <g id="text_2">
      <!-- 0 -->
      <g transform="translate(202.2025 256.398125) scale(0.12 -0.12)">
       <use xlink:href="#DejaVuSans-30"/>
      </g>
     </g>
    </g>
    <g id="xtick_3">
     <g id="line2d_3">
      <g>
       <use xlink:href="#m31928c918a" x="285.564444" y="240.28" style="stroke: #000000; stroke-width: 0.8"/>
      </g>
     </g>
     <g id="text_3">
      <!-- 50 -->
      <g transform="translate(277.929444 256.398125) scale(0.12 -0.12)">
       <use xlink:href="#DejaVuSans-35"/>
       <use xlink:href="#DejaVuSans-30" transform="translate(63.623047 0)"/>
      </g>
     </g>
    </g>
    <g id="text_4">
     <!-- $\Theta^{\circ}$ -->
     <g transform="translate(198.4 272.011875) scale(0.12 -0.12)">
      <defs>
       <path id="DejaVuSans-398" d="M 1416 2750 
L 3622 2750 
L 3622 2219 
L 1416 2219 
L 1416 2750 
z
M 2522 4238 
Q 1834 4238 1431 3725 
Q 1025 3213 1025 2328 
Q 1025 1447 1429 934 
Q 1834 422 2522 422 
Q 3209 422 3613 934 
Q 4013 1447 4013 2328 
Q 4013 3213 3613 3725 
Q 3209 4238 2522 4238 
z
M 2522 4750 
Q 3503 4750 4090 4092 
Q 4678 3434 4678 2328 
Q 4678 1225 4091 569 
Q 3503 -91 2522 -91 
Q 1538 -91 950 566 
Q 359 1222 359 2328 
Q 359 3434 950 4094 
Q 1538 4750 2522 4750 
z
" transform="scale(0.015625)"/>
       <path id="DejaVuSans-2218" d="M 2000 2619 
Q 1750 2619 1578 2445 
Q 1406 2272 1406 2022 
Q 1406 1775 1578 1605 
Q 1750 1435 2000 1435 
Q 2250 1435 2422 1605 
Q 2594 1775 2594 2022 
Q 2594 2269 2420 2444 
Q 2247 2619 2000 2619 
z
M 2000 3022 
Q 2200 3022 2384 2945 
Q 2569 2869 2703 2725 
Q 2847 2585 2919 2406 
Q 2991 2228 2991 2022 
Q 2991 1610 2702 1324 
Q 2413 1038 1994 1038 
Q 1572 1038 1290 1319 
Q 1009 1600 1009 2022 
Q 1009 2441 1296 2731 
Q 1584 3022 2000 3022 
z
" transform="scale(0.015625)"/>
      </defs>
      <use xlink:href="#DejaVuSans-398" transform="translate(0 0.78125)"/>
      <use xlink:href="#DejaVuSans-2218" transform="translate(79.667969 39.0625) scale(0.7)"/>
     </g>
    </g>
   </g>
   <g id="matplotlib.axis_2">
    <g id="ytick_1">
     <g id="line2d_4">
      <defs>
       <path id="m07af0ed52a" d="M 0 0 
L -3.5 0 
" style="stroke: #000000; stroke-width: 0.8"/>
      </defs>
      <g>
       <use xlink:href="#m07af0ed52a" x="62.84" y="219.984151" style="stroke: #000000; stroke-width: 0.8"/>
      </g>
     </g>
     <g id="text_5">
      <!-- −40 -->
      <g transform="translate(30.514375 224.543214) scale(0.12 -0.12)">
       <defs>
        <path id="DejaVuSans-34" d="M 2419 4116 
L 825 1625 
L 2419 1625 
L 2419 4116 
z
M 2253 4666 
L 3047 4666 
L 3047 1625 
L 3713 1625 
L 3713 1100 
L 3047 1100 
L 3047 0 
L 2419 0 
L 2419 1100 
L 313 1100 
L 313 1709 
L 2253 4666 
z
" transform="scale(0.015625)"/>
       </defs>
       <use xlink:href="#DejaVuSans-2212"/>
       <use xlink:href="#DejaVuSans-34" transform="translate(83.789062 0)"/>
       <use xlink:href="#DejaVuSans-30" transform="translate(147.412109 0)"/>
      </g>
     </g>
    </g>
    <g id="ytick_2">
     <g id="line2d_5">
      <g>
       <use xlink:href="#m07af0ed52a" x="62.84" y="176.783648" style="stroke: #000000; stroke-width: 0.8"/>
      </g>
     </g>
     <g id="text_6">
      <!-- −20 -->
      <g transform="translate(30.514375 181.342711) scale(0.12 -0.12)">
       <defs>
        <path id="DejaVuSans-32" d="M 1228 531 
L 3431 531 
L 3431 0 
L 469 0 
L 469 531 
Q 828 903 1448 1529 
Q 2069 2156 2228 2338 
Q 2531 2678 2651 2914 
Q 2772 3150 2772 3378 
Q 2772 3750 2511 3984 
Q 2250 4219 1831 4219 
Q 1534 4219 1204 4116 
Q 875 4013 500 3803 
L 500 4441 
Q 881 4594 1212 4672 
Q 1544 4750 1819 4750 
Q 2544 4750 2975 4387 
Q 3406 4025 3406 3419 
Q 3406 3131 3298 2873 
Q 3191 2616 2906 2266 
Q 2828 2175 2409 1742 
Q 1991 1309 1228 531 
z
" transform="scale(0.015625)"/>
       </defs>
       <use xlink:href="#DejaVuSans-2212"/>
       <use xlink:href="#DejaVuSans-32" transform="translate(83.789062 0)"/>
       <use xlink:href="#DejaVuSans-30" transform="translate(147.412109 0)"/>
      </g>
     </g>
    </g>
    <g id="ytick_3">
     <g id="line2d_6">
      <g>
       <use xlink:href="#m07af0ed52a" x="62.84" y="133.583145" style="stroke: #000000; stroke-width: 0.8"/>
      </g>
     </g>
     <g id="text_7">
      <!-- 0 -->
      <g transform="translate(48.205 138.142208) scale(0.12 -0.12)">
       <use xlink:href="#DejaVuSans-30"/>
      </g>
     </g>
    </g>
    <g id="ytick_4">
     <g id="line2d_7">
      <g>
       <use xlink:href="#m07af0ed52a" x="62.84" y="90.382642" style="stroke: #000000; stroke-width: 0.8"/>
      </g>
     </g>
     <g id="text_8">
      <!-- 20 -->
      <g transform="translate(40.57 94.941704) scale(0.12 -0.12)">
       <use xlink:href="#DejaVuSans-32"/>
       <use xlink:href="#DejaVuSans-30" transform="translate(63.623047 0)"/>
      </g>
     </g>
    </g>
    <g id="ytick_5">
     <g id="line2d_8">
      <g>
       <use xlink:href="#m07af0ed52a" x="62.84" y="47.182139" style="stroke: #000000; stroke-width: 0.8"/>
      </g>
     </g>
     <g id="text_9">
      <!-- 40 -->
      <g transform="translate(40.57 51.741201) scale(0.12 -0.12)">
       <use xlink:href="#DejaVuSans-34"/>
       <use xlink:href="#DejaVuSans-30" transform="translate(63.623047 0)"/>
      </g>
     </g>
    </g>
    <g id="text_10">
     <!-- $\phi^{\circ}$ -->
     <g transform="translate(23.784375 141.38) rotate(-90) scale(0.13 -0.13)">
      <defs>
       <path id="DejaVuSans-Oblique-3d5" d="M 2991 4863 
L 2738 3572 
Q 3363 3572 3684 3094 
Q 4016 2606 3850 1747 
Q 3681 888 3159 400 
Q 2653 -78 2028 -78 
L 1784 -1331 
L 1213 -1331 
L 1456 -78 
Q 834 -78 509 400 
Q 178 888 347 1747 
Q 513 2606 1034 3094 
Q 1544 3572 2166 3572 
L 2419 4863 
L 2991 4863 
z
M 2128 434 
Q 2481 434 2784 756 
Q 3116 1116 3244 1747 
Q 3369 2372 3169 2738 
Q 2991 3059 2638 3059 
L 2128 434 
z
M 1556 434 
L 2066 3059 
Q 1716 3059 1413 2738 
Q 1072 2372 953 1747 
Q 834 1116 1028 756 
Q 1203 434 1556 434 
z
" transform="scale(0.015625)"/>
      </defs>
      <use xlink:href="#DejaVuSans-Oblique-3d5" transform="translate(0 0.015625)"/>
      <use xlink:href="#DejaVuSans-2218" transform="translate(73.414505 38.296875) scale(0.7)"/>
     </g>
    </g>
   </g>
   <g id="QuadContourSet_2">
    <path clip-path="url(#pd46fa85777)" style="fill: none; stroke-dasharray: 1.85,0.8; stroke-dashoffset: 0; stroke: #000000; stroke-width: 0.5"/>
    <path d="M 322.810215 26.88 
L 323.430832 36.380776 
L 323.422202 47.600163 
L 323.490555 60.808896 
L 323.533611 76.198006 
L 323.678994 93.757994 
L 323.856417 113.137869 
L 323.890525 120.556317 
M 323.967608 146.624936 
L 323.977333 154.013971 
L 324.09991 173.39493 
L 324.013963 190.956403 
L 323.938731 206.347113 
L 323.734399 219.557363 
L 323.486327 230.778089 
L 323.205815 240.28 
M 88.774757 240.28 
L 89.047727 230.778089 
L 88.680779 219.557363 
L 88.246742 206.347113 
L 88.310042 190.956403 
L 88.09384 173.39493 
L 88.056847 154.013971 
L 88.055733 146.624946 
M 88.115733 120.556325 
L 88.151001 113.137869 
L 88.271478 93.757994 
L 88.29327 76.198006 
L 88.528379 60.808896 
L 88.631752 47.600163 
L 89.026174 36.380776 
L 89.422926 26.88 
" clip-path="url(#pd46fa85777)" style="fill: none; stroke-dasharray: 1.85,0.8; stroke-dashoffset: 0; stroke: #000000; stroke-width: 0.5"/>
    <path d="M 319.854402 26.88 
L 321.201108 36.380776 
L 321.182381 47.600163 
L 321.330703 60.808896 
L 321.424132 76.198006 
L 321.739606 93.757994 
L 322.124605 113.137869 
L 322.198621 120.556766 
M 322.365882 146.624899 
L 322.386986 154.013971 
L 322.65297 173.39493 
L 322.466471 190.956403 
L 322.30322 206.347113 
L 321.859831 219.557363 
L 321.321529 230.778089 
L 320.712832 240.28 
M 91.198211 240.28 
L 91.790541 230.778089 
L 90.994284 219.557363 
L 90.052447 206.347113 
L 90.189805 190.956403 
L 89.720659 173.39493 
L 89.640385 154.013971 
L 89.637969 146.624945 
M 89.768161 120.556805 
L 89.844694 113.137869 
L 90.106123 93.757994 
L 90.153411 76.198006 
L 90.663586 60.808896 
L 90.887898 47.600163 
L 91.743773 36.380776 
L 92.604704 26.88 
" clip-path="url(#pd46fa85777)" style="fill: none; stroke-dasharray: 1.85,0.8; stroke-dashoffset: 0; stroke: #000000; stroke-width: 0.5"/>
    <path d="M 316.898589 26.88 
L 318.971384 36.380776 
L 318.94256 47.600163 
L 319.170852 60.808896 
L 319.314654 76.198006 
L 319.800218 93.757994 
L 320.392793 113.137869 
L 320.506062 120.514247 
M 320.764346 146.668138 
L 320.796638 154.013971 
L 321.206031 173.39493 
L 320.918978 190.956403 
L 320.66771 206.347113 
L 319.985263 219.557363 
L 319.15673 230.778089 
L 318.219849 240.28 
M 93.621665 240.28 
L 94.533356 230.778089 
L 93.30779 219.557363 
L 91.858153 206.347113 
L 92.069568 190.956403 
L 91.347477 173.39493 
L 91.223923 154.013971 
L 91.220226 146.668248 
M 91.421264 120.514341 
L 91.538387 113.137869 
L 91.940768 93.757994 
L 92.013552 76.198006 
L 92.798792 60.808896 
L 93.144045 47.600163 
L 94.461372 36.380776 
L 95.786482 26.88 
" clip-path="url(#pd46fa85777)" style="fill: none; stroke-dasharray: 1.85,0.8; stroke-dashoffset: 0; stroke: #000000; stroke-width: 0.5"/>
    <path d="M 313.942775 26.88 
L 316.74166 36.380776 
L 316.702738 47.600163 
L 317.011 60.808896 
L 317.205175 76.198006 
L 317.86083 93.757994 
L 318.660981 113.137869 
L 318.813951 120.515363 
M 319.162687 146.668047 
L 319.206291 154.013971 
L 319.759091 173.39493 
L 319.371486 190.956403 
L 319.0322 206.347113 
L 318.110695 219.557363 
L 316.991932 230.778089 
L 315.726867 240.28 
M 96.04512 240.28 
L 97.27617 230.778089 
L 95.621295 219.557363 
L 93.663858 206.347113 
L 93.949331 190.956403 
L 92.974295 173.39493 
L 92.807462 154.013971 
L 92.802469 146.668247 
M 93.073905 120.515533 
L 93.23208 113.137869 
L 93.775413 93.757994 
L 93.873693 76.198006 
L 94.933998 60.808896 
L 95.400191 47.600163 
L 97.178971 36.380776 
L 98.96826 26.88 
" clip-path="url(#pd46fa85777)" style="fill: none; stroke-dasharray: 1.85,0.8; stroke-dashoffset: 0; stroke: #000000; stroke-width: 0.5"/>
    <path d="M 310.986962 26.88 
L 314.511936 36.380776 
L 314.462917 47.600163 
L 314.851148 60.808896 
L 315.095697 76.198006 
L 315.921442 93.757994 
L 316.929168 113.137869 
L 317.12186 120.51681 
M 317.561027 146.667928 
L 317.615944 154.013971 
L 318.312152 173.39493 
L 317.823993 190.956403 
L 317.39669 206.347113 
L 316.236127 219.557363 
L 314.827134 230.778089 
L 313.233884 240.28 
M 98.468574 240.28 
L 100.018984 230.778089 
L 97.934801 219.557363 
L 95.469563 206.347113 
L 95.829093 190.956403 
L 94.601114 173.39493 
L 94.391 154.013971 
L 94.384712 146.668245 
M 94.726522 120.517081 
L 94.925773 113.137869 
L 95.610058 93.757994 
L 95.733833 76.198006 
L 97.069204 60.808896 
L 97.656338 47.600163 
L 99.89657 36.380776 
L 102.150037 26.88 
" clip-path="url(#pd46fa85777)" style="fill: none; stroke-dasharray: 1.85,0.8; stroke-dashoffset: 0; stroke: #000000; stroke-width: 0.5"/>
    <path d="M 308.031149 26.88 
L 312.282212 36.380776 
L 312.223096 47.600163 
L 312.691297 60.808896 
L 312.986218 76.198006 
L 313.982054 93.757994 
L 315.197356 113.137869 
L 315.431158 120.561874 
M 315.958976 146.62448 
L 316.025596 154.013971 
L 316.865212 173.39493 
L 316.276501 190.956403 
L 315.76118 206.347113 
L 314.36156 219.557363 
L 312.662335 230.778089 
L 310.740901 240.28 
M 100.892028 240.28 
L 102.761799 230.778089 
L 100.248306 219.557363 
L 97.275268 206.347113 
L 97.708856 190.956403 
L 96.227932 173.39493 
L 95.974538 154.013971 
L 95.96691 146.62494 
M 96.377701 120.562266 
L 96.619466 113.137869 
L 97.444703 93.757994 
L 97.593974 76.198006 
L 99.20441 60.808896 
L 99.912484 47.600163 
L 102.614169 36.380776 
L 105.331815 26.88 
" clip-path="url(#pd46fa85777)" style="fill: none; stroke-dasharray: 1.85,0.8; stroke-dashoffset: 0; stroke: #000000; stroke-width: 0.5"/>
    <path d="M 305.075336 26.88 
L 310.052488 36.380776 
L 309.983275 47.600163 
L 310.531445 60.808896 
L 310.87674 76.198006 
L 312.042666 93.757994 
L 313.465544 113.137869 
L 313.737761 120.5207 
M 314.357705 146.667609 
L 314.435249 154.013971 
L 315.418273 173.39493 
L 314.729009 190.956403 
L 314.12567 206.347113 
L 312.486992 219.557363 
L 310.497537 230.778089 
L 308.247919 240.28 
M 103.315483 240.28 
L 105.504613 230.778089 
L 102.561811 219.557363 
L 99.080974 206.347113 
L 99.588619 190.956403 
L 97.854751 173.39493 
L 97.558076 154.013971 
L 97.549198 146.668241 
M 98.031665 120.521239 
L 98.313159 113.137869 
L 99.279348 93.757994 
L 99.454115 76.198006 
L 101.339616 60.808896 
L 102.168631 47.600163 
L 105.331768 36.380776 
L 108.513593 26.88 
" clip-path="url(#pd46fa85777)" style="fill: none; stroke-dasharray: 1.85,0.8; stroke-dashoffset: 0; stroke: #000000; stroke-width: 0.5"/>
    <path d="M 302.119523 26.88 
L 307.822764 36.380776 
L 307.743454 47.600163 
L 308.371594 60.808896 
L 308.767261 76.198006 
L 310.103278 93.757994 
L 311.733732 113.137869 
L 312.043937 120.479871 
M 312.756566 146.710709 
L 312.844902 154.013971 
L 313.971333 173.39493 
L 313.181516 190.956403 
L 312.490159 206.347113 
L 310.612424 219.557363 
L 308.332739 230.778089 
L 305.754936 240.28 
M 105.738937 240.28 
L 108.247428 230.778089 
L 104.875317 219.557363 
L 100.886679 206.347113 
L 101.468382 190.956403 
L 99.481569 173.39493 
L 99.141615 154.013971 
L 99.113328 133.590571 
L 99.434111 126.247858 
M 100.75536 100.035668 
L 101.113993 93.757994 
L 101.314256 76.198006 
L 103.474822 60.808896 
L 104.424777 47.600163 
L 108.049367 36.380776 
L 110.566667 29.510923 
L 113.429949 26.88 
" clip-path="url(#pd46fa85777)" style="fill: none; stroke-dasharray: 1.85,0.8; stroke-dashoffset: 0; stroke: #000000; stroke-width: 0.5"/>
    <path d="M 292.066895 26.88 
L 301.473333 29.703777 
L 305.59304 36.380776 
L 305.503633 47.600163 
L 306.211742 60.808896 
L 306.657783 76.198006 
L 308.163891 93.757994 
L 310.001919 113.137869 
L 310.351749 120.482652 
M 311.154969 146.710481 
L 311.254554 154.013971 
L 312.524394 173.39493 
L 311.634024 190.956403 
L 310.854649 206.347113 
L 308.737856 219.557363 
L 306.167941 230.778089 
L 303.261953 240.28 
M 108.162391 240.28 
L 110.566667 232.057956 
L 111.459349 230.778089 
L 110.566667 229.704789 
L 107.188822 219.557363 
L 102.692384 206.347113 
L 103.348145 190.956403 
L 101.108387 173.39493 
L 100.725153 154.013971 
L 100.713751 146.711539 
M 101.338775 120.483554 
L 101.700545 113.137869 
L 102.948638 93.757994 
L 103.174397 76.198006 
L 105.610028 60.808896 
L 106.680923 47.600163 
L 110.566667 36.8412 
L 111.180985 36.380776 
L 121.501445 26.88 
" clip-path="url(#pd46fa85777)" style="fill: none; stroke-dasharray: 1.85,0.8; stroke-dashoffset: 0; stroke: #000000; stroke-width: 0.5"/>
    <path d="M 163.853682 26.88 
L 182.156667 29.405677 
L 192.239544 30.665648 
M 280.028712 26.88 
L 301.473333 33.317594 
L 303.363316 36.380776 
L 303.263812 47.600163 
L 304.05189 60.808896 
L 304.548304 76.198006 
L 306.224503 93.757994 
L 308.270107 113.137869 
L 308.664195 120.572264 
M 309.552058 146.623627 
L 309.664207 154.013971 
L 311.077454 173.39493 
L 310.086531 190.956403 
L 309.219139 206.347113 
L 306.863288 219.557363 
L 304.003142 230.778089 
L 301.473333 238.429983 
L 299.73634 240.28 
M 110.667548 240.28 
L 117.239809 230.778089 
L 110.566667 222.754758 
L 109.502327 219.557363 
L 104.49809 206.347113 
L 105.227908 190.956403 
L 102.735206 173.39493 
L 102.308691 154.013971 
L 102.295851 146.624928 
M 102.986689 120.573373 
L 103.394238 113.137869 
L 104.783283 93.757994 
L 105.034537 76.198006 
L 107.745234 60.808896 
L 108.93707 47.600163 
L 110.566667 43.088086 
L 119.515858 36.380776 
L 129.572941 26.88 
M 185.022156 240.28 
L 182.156667 235.027475 
L 174.70244 240.28 
M 241.721893 240.28 
L 229.883333 234.917111 
L 227.414924 240.28 
" clip-path="url(#pd46fa85777)" style="fill: none; stroke-dasharray: 1.85,0.8; stroke-dashoffset: 0; stroke: #000000; stroke-width: 0.5"/>
    <path d="M 239.204569 26.88 
L 253.746667 30.286534 
L 277.61 34.791826 
L 289.851034 36.380776 
L 298.989489 47.600163 
L 301.473333 54.31766 
L 301.892039 60.808896 
L 302.438826 76.198006 
L 304.285115 93.757994 
L 305.021781 100.094152 
M 307.303254 126.239235 
L 307.732482 133.590571 
L 308.07386 154.013971 
L 309.630515 173.39493 
L 308.539039 190.956403 
L 307.583629 206.347113 
L 304.988721 219.557363 
L 301.838344 230.778089 
L 301.473333 231.882134 
L 293.588521 240.28 
M 123.414984 240.28 
L 123.020269 230.778089 
L 114.688796 219.557363 
L 110.566667 217.098387 
L 106.303795 206.347113 
L 107.107671 190.956403 
L 104.362024 173.39493 
L 103.892229 154.013971 
L 103.853139 133.590571 
L 105.087931 113.137869 
L 106.617928 93.757994 
L 106.687911 89.317556 
M 109.399282 63.288864 
L 109.88044 60.808896 
L 110.566667 53.723021 
L 111.975075 47.600163 
L 127.85073 36.380776 
L 134.43 30.065924 
L 158.293333 33.2298 
L 182.156667 32.885825 
L 200.280311 36.380776 
L 206.02 38.19646 
L 208.865783 36.380776 
L 224.368409 26.88 
M 188.942777 240.28 
L 184.533483 230.778089 
L 182.156667 229.384193 
L 177.324384 230.778089 
L 164.503413 240.28 
M 256.737141 240.28 
L 254.593472 230.778089 
L 253.746667 230.522463 
L 243.816634 229.647545 
M 223.620266 239.737309 
L 223.420161 240.28 
" clip-path="url(#pd46fa85777)" style="fill: none; stroke-dasharray: 1.85,0.8; stroke-dashoffset: 0; stroke: #000000; stroke-width: 0.5"/>
    <path d="M 192.863399 240.28 
L 190.348917 230.778089 
L 182.156667 225.973703 
L 165.50108 230.778089 
L 158.293333 236.566422 
L 134.43 239.116364 
L 128.800729 230.778089 
L 122.323144 219.557363 
L 110.566667 212.544266 
L 108.1095 206.347113 
L 108.987434 190.956403 
L 105.988842 173.39493 
L 105.475768 154.013971 
L 105.433076 133.590571 
L 106.781624 113.137869 
L 108.452573 93.757994 
L 108.754819 76.198006 
L 110.566667 67.127989 
L 113.495131 60.808896 
L 117.04662 47.600163 
L 134.43 37.03031 
L 158.293333 42.172605 
L 181.992271 36.380776 
L 182.156667 36.365973 
L 182.233429 36.380776 
L 206.02 43.905382 
L 217.813571 36.380776 
L 229.883333 29.122325 
L 253.746667 34.030031 
L 263.958153 36.380776 
L 277.61 42.394235 
L 286.608373 47.600163 
L 297.102791 60.808896 
L 298.889235 76.198006 
L 301.473333 85.796395 
L 302.345727 93.757994 
L 304.806483 113.137869 
L 306.110685 133.590571 
L 306.483512 154.013971 
L 308.183575 173.39493 
L 307.877435 177.905127 
M 306.106718 204.007742 
L 305.948119 206.347113 
L 303.114153 219.557363 
L 301.473333 225.312094 
L 291.832743 230.778089 
L 287.440702 240.28 
M 264.768082 240.28 
L 264.9308 230.778089 
L 253.746667 227.401925 
L 243.665164 225.927473 
M 220.794364 233.213091 
L 219.425399 240.28 
" clip-path="url(#pd46fa85777)" style="fill: none; stroke-dasharray: 1.85,0.8; stroke-dashoffset: 0; stroke: #000000; stroke-width: 0.5"/>
    <path d="M 196.78402 240.28 
L 196.164351 230.778089 
L 182.156667 222.563213 
L 158.293333 227.765768 
L 134.43 230.298542 
L 129.957492 219.557363 
L 110.566667 207.990145 
L 109.915206 206.347113 
L 110.566667 195.682391 
L 113.956468 190.956403 
L 110.566667 189.533971 
L 107.615661 173.39493 
L 107.059306 154.013971 
L 107.042754 146.711523 
M 107.949021 120.498969 
L 108.475317 113.137869 
L 110.287218 93.757994 
L 110.566667 78.755191 
L 110.686788 76.198006 
L 117.810494 60.808896 
L 122.118166 47.600163 
L 134.43 40.114031 
L 154.735268 47.600163 
L 158.293333 50.295425 
L 162.920281 47.600163 
L 182.156667 40.422193 
L 202.051247 47.600163 
L 206.02 51.456766 
L 210.013318 47.600163 
L 226.761359 36.380776 
L 229.883333 34.503299 
L 241.432113 36.380776 
L 253.746667 38.363072 
L 274.361219 47.600163 
L 277.61 48.858202 
L 291.681234 60.808896 
L 294.12423 76.198006 
L 298.256882 93.757994 
L 301.473333 100.987463 
L 303.07467 113.137869 
L 304.488888 133.590571 
L 304.893165 154.013971 
L 306.736636 173.39493 
L 305.444054 190.956403 
L 304.312608 206.347113 
L 301.473333 218.672086 
L 300.149837 219.557363 
L 280.236967 230.778089 
L 281.292883 240.28 
M 272.799023 240.28 
L 275.268128 230.778089 
L 253.746667 224.281386 
L 243.530779 222.213517 
M 219.236521 227.779289 
L 215.608349 230.778089 
L 215.430636 240.28 
M 253.746667 152.845 
L 253.115446 154.013971 
L 253.746667 155.156161 
L 254.512016 154.013971 
L 253.746667 152.845 
z
" clip-path="url(#pd46fa85777)" style="fill: none; stroke-dasharray: 1.85,0.8; stroke-dashoffset: 0; stroke: #000000; stroke-width: 0.5"/>
    <path d="M 200.704642 240.28 
L 201.979786 230.778089 
L 193.608794 219.557363 
L 182.156667 218.855742 
L 166.634616 219.557363 
L 158.293333 220.049347 
L 155.109773 219.557363 
L 142.377403 206.347113 
L 135.400638 190.956403 
L 134.43 190.668804 
L 123.336442 186.005188 
M 109.06393 167.624 
L 108.642844 154.013971 
L 108.59295 133.590571 
L 110.16901 113.137869 
L 110.566667 108.934386 
L 114.664965 93.757994 
L 115.313584 76.198006 
L 122.125856 60.808896 
L 127.189711 47.600163 
L 134.43 43.197751 
L 146.371032 47.600163 
L 158.293333 56.631399 
L 173.797224 47.600163 
L 182.156667 44.480875 
L 190.802137 47.600163 
L 203.55223 60.808896 
L 206.02 67.305942 
L 207.091265 60.808896 
L 221.332054 47.600163 
L 229.883333 41.574074 
L 253.746667 43.691173 
L 262.470417 47.600163 
L 277.61 53.462727 
L 286.259678 60.808896 
L 289.359224 76.198006 
L 292.410604 93.757994 
L 300.755636 113.137869 
L 301.473333 114.786378 
L 302.867091 133.590571 
L 303.302818 154.013971 
L 305.289696 173.39493 
L 303.896562 190.956403 
L 302.677098 206.347113 
L 301.473333 211.57252 
L 289.535933 219.557363 
L 277.61 226.203282 
L 253.746667 221.160848 
L 245.824975 219.557363 
L 229.883333 213.246025 
L 211.996319 206.347113 
L 206.02 203.854083 
L 202.404804 206.347113 
L 206.02 216.202081 
L 208.659128 219.557363 
L 209.950638 230.778089 
L 211.435874 240.28 
M 253.746667 144.505082 
L 248.612057 154.013971 
L 253.746667 163.305009 
L 259.972333 154.013971 
L 253.746667 144.505082 
z
" clip-path="url(#pd46fa85777)" style="fill: none; stroke-dasharray: 1.85,0.8; stroke-dashoffset: 0; stroke: #000000; stroke-width: 0.5"/>
    <path d="M 204.625264 240.28 
L 206.02 235.166194 
L 207.441112 240.28 
M 282.978007 69.57622 
L 284.594219 76.198006 
L 286.564325 93.757994 
L 291.229556 113.137869 
L 299.334403 133.590571 
L 301.473333 143.459788 
L 301.71247 154.013971 
L 303.842757 173.39493 
L 302.349069 190.956403 
L 301.473333 201.451431 
L 294.041764 206.347113 
L 278.922029 219.557363 
L 277.61 220.288512 
L 272.772327 219.557363 
L 253.746667 213.033052 
L 229.883333 207.142639 
L 227.820749 206.347113 
L 206.02 197.2529 
L 192.832287 206.347113 
L 182.156667 212.942158 
L 161.130497 206.347113 
L 159.718043 190.956403 
L 162.020622 173.39493 
L 162.87989 154.013971 
L 158.293333 138.235925 
L 145.036876 154.013971 
L 148.607207 173.39493 
L 134.43 182.30518 
L 114.114105 173.39493 
L 110.566667 164.402078 
L 110.226382 154.013971 
L 110.172887 133.590571 
L 110.566667 128.565604 
L 124.42785 113.137869 
L 119.499674 93.757994 
L 119.940381 76.198006 
L 126.441219 60.808896 
L 132.261257 47.600163 
L 134.43 46.281472 
L 138.006796 47.600163 
L 154.584459 60.808896 
L 158.293333 62.641092 
L 171.999754 60.808896 
L 182.156667 53.917985 
L 186.469234 60.808896 
L 199.952667 76.198006 
L 206.02 84.503806 
L 209.602513 76.198006 
L 214.507041 60.808896 
L 229.883333 48.993442 
L 253.746667 48.931255 
L 264.696609 53.123404 
M 261.166845 160.380156 
L 265.432649 154.013971 
L 253.746667 136.165163 
L 244.108668 154.013971 
L 247.329636 159.842288 
" clip-path="url(#pd46fa85777)" style="fill: none; stroke-dasharray: 1.85,0.8; stroke-dashoffset: 0; stroke: #000000; stroke-width: 0.5"/>
    <path d="M 129.488665 63.961399 
L 130.756582 60.808896 
L 134.43 52.910799 
L 143.697465 60.808896 
L 158.293333 68.019303 
L 182.156667 66.285143 
L 192.390154 76.198006 
L 203.551516 93.757994 
L 206.02 96.340876 
L 206.96878 93.757994 
L 214.067869 76.198006 
L 221.922816 60.808896 
L 229.883333 54.691874 
L 253.746667 53.928886 
L 272.189846 60.808896 
L 277.61 67.962767 
L 279.829214 76.198006 
L 280.718047 93.757994 
L 281.703476 113.137869 
L 284.122489 133.590571 
L 291.724712 154.013971 
L 301.473333 165.086441 
L 302.395818 173.39493 
L 301.473333 183.842675 
L 295.266587 190.956403 
L 277.61 202.466664 
L 253.746667 196.177353 
L 229.883333 200.389471 
L 206.793956 190.956403 
L 206.02 190.53811 
L 205.475403 190.956403 
L 183.25977 206.347113 
L 182.156667 207.028573 
L 179.984049 206.347113 
L 167.257048 190.956403 
L 167.141426 173.39493 
L 168.649223 154.013971 
L 164.966024 133.590571 
L 158.293333 124.861375 
L 141.66781 113.137869 
L 134.43 109.715593 
L 124.334383 93.757994 
L 124.393819 89.274675 
M 253.746667 120.283936 
L 248.922804 133.590571 
L 239.605279 154.013971 
L 248.540641 173.39493 
L 248.884242 174.261091 
M 261.927086 175.925923 
L 263.88173 173.39493 
L 270.892965 154.013971 
L 268.483487 133.590571 
L 253.746667 120.283936 
M 134.43 170.444082 
L 135.299743 173.39493 
L 134.43 173.941556 
L 133.183661 173.39493 
L 134.43 170.444082 
z
" clip-path="url(#pd46fa85777)" style="fill: none; stroke-dasharray: 1.85,0.8; stroke-dashoffset: 0; stroke: #000000; stroke-width: 0.5"/>
    <path d="M 195.194239 189.790613 
L 193.676439 190.956403 
L 182.156667 199.030402 
L 174.796052 190.956403 
L 172.26223 173.39493 
L 174.418556 154.013971 
L 173.677787 133.590571 
L 158.293333 113.464669 
L 157.829887 113.137869 
L 134.43 102.073629 
L 129.169091 93.757994 
L 129.193974 76.198006 
L 134.43 62.596772 
L 158.293333 73.397515 
L 182.156667 73.610715 
L 184.827642 76.198006 
L 182.156667 90.501736 
L 181.015796 93.757994 
L 182.156667 97.754843 
L 194.077723 113.137869 
L 206.02 125.608048 
L 208.768838 113.137869 
L 215.911028 93.757994 
L 218.533225 76.198006 
L 229.338591 60.808896 
L 229.883333 60.390305 
L 253.746667 58.926516 
L 258.792744 60.808896 
L 269.275919 76.198006 
L 267.751753 93.757994 
L 253.746667 103.722244 
L 248.76186 113.137869 
L 241.944773 133.590571 
L 235.101891 154.013971 
L 241.706772 173.39493 
L 237.920026 190.956403 
L 229.883333 193.538916 
L 223.5621 190.956403 
L 218.144482 188.02839 
M 274.002957 183.918899 
L 277.185867 173.39493 
L 276.353281 154.013971 
L 277.61 148.153213 
L 280.250782 154.013971 
L 279.539201 173.39493 
L 280.214882 181.697402 
" clip-path="url(#pd46fa85777)" style="fill: none; stroke-dasharray: 1.85,0.8; stroke-dashoffset: 0; stroke: #000000; stroke-width: 0.5"/>
    <path d="M 144.892946 97.385457 
L 134.43 94.431666 
L 134.0038 93.757994 
L 133.820771 76.198006 
L 134.43 74.615457 
L 139.572994 76.198006 
L 158.293333 83.986126 
L 165.32923 92.043452 
M 192.895619 181.918522 
L 182.156667 190.521671 
L 177.383034 173.39493 
L 180.187889 154.013971 
L 182.156667 135.074242 
L 206.02 152.691464 
L 218.521475 133.590571 
L 217.635898 113.137869 
L 224.853277 93.757994 
L 222.99858 76.198006 
L 229.883333 66.585477 
L 253.677607 76.198006 
L 244.84602 93.757994 
L 240.833798 113.137869 
L 234.966743 133.590571 
L 230.598502 154.013971 
L 234.872904 173.39493 
L 229.883333 182.87067 
L 209.103583 173.39493 
L 206.042261 160.671322 
" clip-path="url(#pd46fa85777)" style="fill: none; stroke-dasharray: 1.85,0.8; stroke-dashoffset: 0; stroke: #000000; stroke-width: 0.5"/>
    <path d="M 229.883333 72.820031 
L 238.24497 76.198006 
L 229.883333 85.913277 
L 227.463936 76.198006 
L 229.883333 72.820031 
z
M 229.883333 104.113873 
L 232.905737 113.137869 
L 229.883333 125.08312 
L 226.502957 113.137869 
L 229.883333 104.113873 
z
" clip-path="url(#pd46fa85777)" style="fill: none; stroke-dasharray: 1.85,0.8; stroke-dashoffset: 0; stroke: #000000; stroke-width: 0.5"/>
    <path clip-path="url(#pd46fa85777)" style="fill: none; stroke-dasharray: 1.85,0.8; stroke-dashoffset: 0; stroke: #000000; stroke-width: 0.5"/>
   </g>
   <g id="patch_3">
    <path d="M 62.84 240.28 
L 62.84 26.88 
" style="fill: none; stroke: #000000; stroke-width: 0.8; stroke-linejoin: miter; stroke-linecap: square"/>
   </g>
   <g id="patch_4">
    <path d="M 349.2 240.28 
L 349.2 26.88 
" style="fill: none; stroke: #000000; stroke-width: 0.8; stroke-linejoin: miter; stroke-linecap: square"/>
   </g>
   <g id="patch_5">
    <path d="M 62.84 240.28 
L 349.2 240.28 
" style="fill: none; stroke: #000000; stroke-width: 0.8; stroke-linejoin: miter; stroke-linecap: square"/>
   </g>
   <g id="patch_6">
    <path d="M 62.84 26.88 
L 349.2 26.88 
" style="fill: none; stroke: #000000; stroke-width: 0.8; stroke-linejoin: miter; stroke-linecap: square"/>
   </g>
   <g id="text_11">
    <!-- Band 2000 -->
    <g transform="translate(173.438125 20.88) scale(0.12 -0.12)">
     <defs>
      <path id="DejaVuSans-42" d="M 1259 2228 
L 1259 519 
L 2272 519 
Q 2781 519 3026 730 
Q 3272 941 3272 1375 
Q 3272 1813 3026 2020 
Q 2781 2228 2272 2228 
L 1259 2228 
z
M 1259 4147 
L 1259 2741 
L 2194 2741 
Q 2656 2741 2882 2914 
Q 3109 3088 3109 3444 
Q 3109 3797 2882 3972 
Q 2656 4147 2194 4147 
L 1259 4147 
z
M 628 4666 
L 2241 4666 
Q 2963 4666 3353 4366 
Q 3744 4066 3744 3513 
Q 3744 3084 3544 2831 
Q 3344 2578 2956 2516 
Q 3422 2416 3680 2098 
Q 3938 1781 3938 1306 
Q 3938 681 3513 340 
Q 3088 0 2303 0 
L 628 0 
L 628 4666 
z
" transform="scale(0.015625)"/>
      <path id="DejaVuSans-61" d="M 2194 1759 
Q 1497 1759 1228 1600 
Q 959 1441 959 1056 
Q 959 750 1161 570 
Q 1363 391 1709 391 
Q 2188 391 2477 730 
Q 2766 1069 2766 1631 
L 2766 1759 
L 2194 1759 
z
M 3341 1997 
L 3341 0 
L 2766 0 
L 2766 531 
Q 2569 213 2275 61 
Q 1981 -91 1556 -91 
Q 1019 -91 701 211 
Q 384 513 384 1019 
Q 384 1609 779 1909 
Q 1175 2209 1959 2209 
L 2766 2209 
L 2766 2266 
Q 2766 2663 2505 2880 
Q 2244 3097 1772 3097 
Q 1472 3097 1187 3025 
Q 903 2953 641 2809 
L 641 3341 
Q 956 3463 1253 3523 
Q 1550 3584 1831 3584 
Q 2591 3584 2966 3190 
Q 3341 2797 3341 1997 
z
" transform="scale(0.015625)"/>
      <path id="DejaVuSans-6e" d="M 3513 2113 
L 3513 0 
L 2938 0 
L 2938 2094 
Q 2938 2591 2744 2837 
Q 2550 3084 2163 3084 
Q 1697 3084 1428 2787 
Q 1159 2491 1159 1978 
L 1159 0 
L 581 0 
L 581 3500 
L 1159 3500 
L 1159 2956 
Q 1366 3272 1645 3428 
Q 1925 3584 2291 3584 
Q 2894 3584 3203 3211 
Q 3513 2838 3513 2113 
z
" transform="scale(0.015625)"/>
      <path id="DejaVuSans-64" d="M 2906 2969 
L 2906 4863 
L 3481 4863 
L 3481 0 
L 2906 0 
L 2906 525 
Q 2725 213 2448 61 
Q 2172 -91 1784 -91 
Q 1150 -91 751 415 
Q 353 922 353 1747 
Q 353 2572 751 3078 
Q 1150 3584 1784 3584 
Q 2172 3584 2448 3432 
Q 2725 3281 2906 2969 
z
M 947 1747 
Q 947 1113 1208 752 
Q 1469 391 1925 391 
Q 2381 391 2643 752 
Q 2906 1113 2906 1747 
Q 2906 2381 2643 2742 
Q 2381 3103 1925 3103 
Q 1469 3103 1208 2742 
Q 947 2381 947 1747 
z
" transform="scale(0.015625)"/>
      <path id="DejaVuSans-20" transform="scale(0.015625)"/>
     </defs>
     <use xlink:href="#DejaVuSans-42"/>
     <use xlink:href="#DejaVuSans-61" transform="translate(68.603516 0)"/>
     <use xlink:href="#DejaVuSans-6e" transform="translate(129.882812 0)"/>
     <use xlink:href="#DejaVuSans-64" transform="translate(193.261719 0)"/>
     <use xlink:href="#DejaVuSans-20" transform="translate(256.738281 0)"/>
     <use xlink:href="#DejaVuSans-32" transform="translate(288.525391 0)"/>
     <use xlink:href="#DejaVuSans-30" transform="translate(352.148438 0)"/>
     <use xlink:href="#DejaVuSans-30" transform="translate(415.771484 0)"/>
     <use xlink:href="#DejaVuSans-30" transform="translate(479.394531 0)"/>
    </g>
   </g>
   <g id="text_12">
    <g clip-path="url(#pd46fa85777)">
     <!-- 62.4 -->
     <g transform="translate(321.439247 123.577963) rotate(-270.158842) scale(0.09 -0.09)">
      <defs>
       <path id="DejaVuSans-36" d="M 2113 2584 
Q 1688 2584 1439 2293 
Q 1191 2003 1191 1497 
Q 1191 994 1439 701 
Q 1688 409 2113 409 
Q 2538 409 2786 701 
Q 3034 994 3034 1497 
Q 3034 2003 2786 2293 
Q 2538 2584 2113 2584 
z
M 3366 4563 
L 3366 3988 
Q 3128 4100 2886 4159 
Q 2644 4219 2406 4219 
Q 1781 4219 1451 3797 
Q 1122 3375 1075 2522 
Q 1259 2794 1537 2939 
Q 1816 3084 2150 3084 
Q 2853 3084 3261 2657 
Q 3669 2231 3669 1497 
Q 3669 778 3244 343 
Q 2819 -91 2113 -91 
Q 1303 -91 875 529 
Q 447 1150 447 2328 
Q 447 3434 972 4092 
Q 1497 4750 2381 4750 
Q 2619 4750 2861 4703 
Q 3103 4656 3366 4563 
z
" transform="scale(0.015625)"/>
       <path id="DejaVuSans-2e" d="M 684 794 
L 1344 794 
L 1344 0 
L 684 0 
L 684 794 
z
" transform="scale(0.015625)"/>
      </defs>
      <use xlink:href="#DejaVuSans-36"/>
      <use xlink:href="#DejaVuSans-32" transform="translate(63.623047 0)"/>
      <use xlink:href="#DejaVuSans-2e" transform="translate(127.246094 0)"/>
      <use xlink:href="#DejaVuSans-34" transform="translate(159.033203 0)"/>
     </g>
    </g>
   </g>
   <g id="text_13">
    <g clip-path="url(#pd46fa85777)">
     <!-- 62.4 -->
     <g transform="translate(90.515579 143.615438) rotate(-89.87636) scale(0.09 -0.09)">
      <use xlink:href="#DejaVuSans-36"/>
      <use xlink:href="#DejaVuSans-32" transform="translate(63.623047 0)"/>
      <use xlink:href="#DejaVuSans-2e" transform="translate(127.246094 0)"/>
      <use xlink:href="#DejaVuSans-34" transform="translate(159.033203 0)"/>
     </g>
    </g>
   </g>
   <g id="text_14">
    <g clip-path="url(#pd46fa85777)">
     <!-- 63.2 -->
     <g transform="translate(319.784989 123.58616) rotate(-270.344671) scale(0.09 -0.09)">
      <defs>
       <path id="DejaVuSans-33" d="M 2597 2516 
Q 3050 2419 3304 2112 
Q 3559 1806 3559 1356 
Q 3559 666 3084 287 
Q 2609 -91 1734 -91 
Q 1441 -91 1130 -33 
Q 819 25 488 141 
L 488 750 
Q 750 597 1062 519 
Q 1375 441 1716 441 
Q 2309 441 2620 675 
Q 2931 909 2931 1356 
Q 2931 1769 2642 2001 
Q 2353 2234 1838 2234 
L 1294 2234 
L 1294 2753 
L 1863 2753 
Q 2328 2753 2575 2939 
Q 2822 3125 2822 3475 
Q 2822 3834 2567 4026 
Q 2313 4219 1838 4219 
Q 1578 4219 1281 4162 
Q 984 4106 628 3988 
L 628 4550 
Q 988 4650 1302 4700 
Q 1616 4750 1894 4750 
Q 2613 4750 3031 4423 
Q 3450 4097 3450 3541 
Q 3450 3153 3228 2886 
Q 3006 2619 2597 2516 
z
" transform="scale(0.015625)"/>
      </defs>
      <use xlink:href="#DejaVuSans-36"/>
      <use xlink:href="#DejaVuSans-33" transform="translate(63.623047 0)"/>
      <use xlink:href="#DejaVuSans-2e" transform="translate(127.246094 0)"/>
      <use xlink:href="#DejaVuSans-32" transform="translate(159.033203 0)"/>
     </g>
    </g>
   </g>
   <g id="text_15">
    <g clip-path="url(#pd46fa85777)">
     <!-- 63.2 -->
     <g transform="translate(92.0702 143.621621) rotate(-89.731715) scale(0.09 -0.09)">
      <use xlink:href="#DejaVuSans-36"/>
      <use xlink:href="#DejaVuSans-33" transform="translate(63.623047 0)"/>
      <use xlink:href="#DejaVuSans-2e" transform="translate(127.246094 0)"/>
      <use xlink:href="#DejaVuSans-32" transform="translate(159.033203 0)"/>
     </g>
    </g>
   </g>
   <g id="text_16">
    <g clip-path="url(#pd46fa85777)">
     <!-- 64.0 -->
     <g transform="translate(318.13076 123.594462) rotate(-270.530487) scale(0.09 -0.09)">
      <use xlink:href="#DejaVuSans-36"/>
      <use xlink:href="#DejaVuSans-34" transform="translate(63.623047 0)"/>
      <use xlink:href="#DejaVuSans-2e" transform="translate(127.246094 0)"/>
      <use xlink:href="#DejaVuSans-30" transform="translate(159.033203 0)"/>
     </g>
    </g>
   </g>
   <g id="text_17">
    <g clip-path="url(#pd46fa85777)">
     <!-- 64.0 -->
     <g transform="translate(93.624808 143.627739) rotate(-89.587084) scale(0.09 -0.09)">
      <use xlink:href="#DejaVuSans-36"/>
      <use xlink:href="#DejaVuSans-34" transform="translate(63.623047 0)"/>
      <use xlink:href="#DejaVuSans-2e" transform="translate(127.246094 0)"/>
      <use xlink:href="#DejaVuSans-30" transform="translate(159.033203 0)"/>
     </g>
    </g>
   </g>
   <g id="text_18">
    <g clip-path="url(#pd46fa85777)">
     <!-- 64.8 -->
     <g transform="translate(316.476562 123.602868) rotate(-270.716282) scale(0.09 -0.09)">
      <defs>
       <path id="DejaVuSans-38" d="M 2034 2216 
Q 1584 2216 1326 1975 
Q 1069 1734 1069 1313 
Q 1069 891 1326 650 
Q 1584 409 2034 409 
Q 2484 409 2743 651 
Q 3003 894 3003 1313 
Q 3003 1734 2745 1975 
Q 2488 2216 2034 2216 
z
M 1403 2484 
Q 997 2584 770 2862 
Q 544 3141 544 3541 
Q 544 4100 942 4425 
Q 1341 4750 2034 4750 
Q 2731 4750 3128 4425 
Q 3525 4100 3525 3541 
Q 3525 3141 3298 2862 
Q 3072 2584 2669 2484 
Q 3125 2378 3379 2068 
Q 3634 1759 3634 1313 
Q 3634 634 3220 271 
Q 2806 -91 2034 -91 
Q 1263 -91 848 271 
Q 434 634 434 1313 
Q 434 1759 690 2068 
Q 947 2378 1403 2484 
z
M 1172 3481 
Q 1172 3119 1398 2916 
Q 1625 2713 2034 2713 
Q 2441 2713 2670 2916 
Q 2900 3119 2900 3481 
Q 2900 3844 2670 4047 
Q 2441 4250 2034 4250 
Q 1625 4250 1398 4047 
Q 1172 3844 1172 3481 
z
" transform="scale(0.015625)"/>
      </defs>
      <use xlink:href="#DejaVuSans-36"/>
      <use xlink:href="#DejaVuSans-34" transform="translate(63.623047 0)"/>
      <use xlink:href="#DejaVuSans-2e" transform="translate(127.246094 0)"/>
      <use xlink:href="#DejaVuSans-38" transform="translate(159.033203 0)"/>
     </g>
    </g>
   </g>
   <g id="text_19">
    <g clip-path="url(#pd46fa85777)">
     <!-- 64.8 -->
     <g transform="translate(95.179405 143.633793) rotate(-89.442477) scale(0.09 -0.09)">
      <use xlink:href="#DejaVuSans-36"/>
      <use xlink:href="#DejaVuSans-34" transform="translate(63.623047 0)"/>
      <use xlink:href="#DejaVuSans-2e" transform="translate(127.246094 0)"/>
      <use xlink:href="#DejaVuSans-38" transform="translate(159.033203 0)"/>
     </g>
    </g>
   </g>
   <g id="text_20">
    <g clip-path="url(#pd46fa85777)">
     <!-- 65.6 -->
     <g transform="translate(314.822396 123.611378) rotate(-270.902047) scale(0.09 -0.09)">
      <use xlink:href="#DejaVuSans-36"/>
      <use xlink:href="#DejaVuSans-35" transform="translate(63.623047 0)"/>
      <use xlink:href="#DejaVuSans-2e" transform="translate(127.246094 0)"/>
      <use xlink:href="#DejaVuSans-36" transform="translate(159.033203 0)"/>
     </g>
    </g>
   </g>
   <g id="text_21">
    <g clip-path="url(#pd46fa85777)">
     <!-- 65.6 -->
     <g transform="translate(96.733992 143.639781) rotate(-89.297901) scale(0.09 -0.09)">
      <use xlink:href="#DejaVuSans-36"/>
      <use xlink:href="#DejaVuSans-35" transform="translate(63.623047 0)"/>
      <use xlink:href="#DejaVuSans-2e" transform="translate(127.246094 0)"/>
      <use xlink:href="#DejaVuSans-36" transform="translate(159.033203 0)"/>
     </g>
    </g>
   </g>
   <g id="text_22">
    <g clip-path="url(#pd46fa85777)">
     <!-- 66.4 -->
     <g transform="translate(313.168265 123.619991) rotate(-271.087776) scale(0.09 -0.09)">
      <use xlink:href="#DejaVuSans-36"/>
      <use xlink:href="#DejaVuSans-36" transform="translate(63.623047 0)"/>
      <use xlink:href="#DejaVuSans-2e" transform="translate(127.246094 0)"/>
      <use xlink:href="#DejaVuSans-34" transform="translate(159.033203 0)"/>
     </g>
    </g>
   </g>
   <g id="text_23">
    <g clip-path="url(#pd46fa85777)">
     <!-- 66.4 -->
     <g transform="translate(98.288571 143.645703) rotate(-89.153365) scale(0.09 -0.09)">
      <use xlink:href="#DejaVuSans-36"/>
      <use xlink:href="#DejaVuSans-36" transform="translate(63.623047 0)"/>
      <use xlink:href="#DejaVuSans-2e" transform="translate(127.246094 0)"/>
      <use xlink:href="#DejaVuSans-34" transform="translate(159.033203 0)"/>
     </g>
    </g>
   </g>
   <g id="text_24">
    <g clip-path="url(#pd46fa85777)">
     <!-- 67.2 -->
     <g transform="translate(311.514169 123.628707) rotate(-271.273461) scale(0.09 -0.09)">
      <defs>
       <path id="DejaVuSans-37" d="M 525 4666 
L 3525 4666 
L 3525 4397 
L 1831 0 
L 1172 0 
L 2766 4134 
L 525 4134 
L 525 4666 
z
" transform="scale(0.015625)"/>
      </defs>
      <use xlink:href="#DejaVuSans-36"/>
      <use xlink:href="#DejaVuSans-37" transform="translate(63.623047 0)"/>
      <use xlink:href="#DejaVuSans-2e" transform="translate(127.246094 0)"/>
      <use xlink:href="#DejaVuSans-32" transform="translate(159.033203 0)"/>
     </g>
    </g>
   </g>
   <g id="text_25">
    <g clip-path="url(#pd46fa85777)">
     <!-- 67.2 -->
     <g transform="translate(99.843144 143.65156) rotate(-89.008876) scale(0.09 -0.09)">
      <use xlink:href="#DejaVuSans-36"/>
      <use xlink:href="#DejaVuSans-37" transform="translate(63.623047 0)"/>
      <use xlink:href="#DejaVuSans-2e" transform="translate(127.246094 0)"/>
      <use xlink:href="#DejaVuSans-32" transform="translate(159.033203 0)"/>
     </g>
    </g>
   </g>
   <g id="text_26">
    <g clip-path="url(#pd46fa85777)">
     <!-- 68.0 -->
     <g transform="translate(309.860111 123.637525) rotate(-271.459095) scale(0.09 -0.09)">
      <use xlink:href="#DejaVuSans-36"/>
      <use xlink:href="#DejaVuSans-38" transform="translate(63.623047 0)"/>
      <use xlink:href="#DejaVuSans-2e" transform="translate(127.246094 0)"/>
      <use xlink:href="#DejaVuSans-30" transform="translate(159.033203 0)"/>
     </g>
    </g>
   </g>
   <g id="text_27">
    <g clip-path="url(#pd46fa85777)">
     <!-- 68.0 -->
     <g transform="translate(102.014536 123.263464) rotate(-87.294274) scale(0.09 -0.09)">
      <use xlink:href="#DejaVuSans-36"/>
      <use xlink:href="#DejaVuSans-38" transform="translate(63.623047 0)"/>
      <use xlink:href="#DejaVuSans-2e" transform="translate(127.246094 0)"/>
      <use xlink:href="#DejaVuSans-30" transform="translate(159.033203 0)"/>
     </g>
    </g>
   </g>
   <g id="text_28">
    <g clip-path="url(#pd46fa85777)">
     <!-- 68.8 -->
     <g transform="translate(308.206092 123.646444) rotate(-271.644669) scale(0.09 -0.09)">
      <use xlink:href="#DejaVuSans-36"/>
      <use xlink:href="#DejaVuSans-38" transform="translate(63.623047 0)"/>
      <use xlink:href="#DejaVuSans-2e" transform="translate(127.246094 0)"/>
      <use xlink:href="#DejaVuSans-38" transform="translate(159.033203 0)"/>
     </g>
    </g>
   </g>
   <g id="text_29">
    <g clip-path="url(#pd46fa85777)">
     <!-- 68.8 -->
     <g transform="translate(102.952276 143.663075) rotate(-88.720073) scale(0.09 -0.09)">
      <use xlink:href="#DejaVuSans-36"/>
      <use xlink:href="#DejaVuSans-38" transform="translate(63.623047 0)"/>
      <use xlink:href="#DejaVuSans-2e" transform="translate(127.246094 0)"/>
      <use xlink:href="#DejaVuSans-38" transform="translate(159.033203 0)"/>
     </g>
    </g>
   </g>
   <g id="text_30">
    <g clip-path="url(#pd46fa85777)">
     <!-- 69.6 -->
     <g transform="translate(196.809981 37.049649) rotate(-12.927098) scale(0.09 -0.09)">
      <defs>
       <path id="DejaVuSans-39" d="M 703 97 
L 703 672 
Q 941 559 1184 500 
Q 1428 441 1663 441 
Q 2288 441 2617 861 
Q 2947 1281 2994 2138 
Q 2813 1869 2534 1725 
Q 2256 1581 1919 1581 
Q 1219 1581 811 2004 
Q 403 2428 403 3163 
Q 403 3881 828 4315 
Q 1253 4750 1959 4750 
Q 2769 4750 3195 4129 
Q 3622 3509 3622 2328 
Q 3622 1225 3098 567 
Q 2575 -91 1691 -91 
Q 1453 -91 1209 -44 
Q 966 3 703 97 
z
M 1959 2075 
Q 2384 2075 2632 2365 
Q 2881 2656 2881 3163 
Q 2881 3666 2632 3958 
Q 2384 4250 1959 4250 
Q 1534 4250 1286 3958 
Q 1038 3666 1038 3163 
Q 1038 2656 1286 2365 
Q 1534 2075 1959 2075 
z
" transform="scale(0.015625)"/>
      </defs>
      <use xlink:href="#DejaVuSans-36"/>
      <use xlink:href="#DejaVuSans-39" transform="translate(63.623047 0)"/>
      <use xlink:href="#DejaVuSans-2e" transform="translate(127.246094 0)"/>
      <use xlink:href="#DejaVuSans-36" transform="translate(159.033203 0)"/>
     </g>
    </g>
   </g>
   <g id="text_31">
    <g clip-path="url(#pd46fa85777)">
     <!-- 69.6 -->
     <g transform="translate(306.552113 123.655465) rotate(-271.830177) scale(0.09 -0.09)">
      <use xlink:href="#DejaVuSans-36"/>
      <use xlink:href="#DejaVuSans-39" transform="translate(63.623047 0)"/>
      <use xlink:href="#DejaVuSans-2e" transform="translate(127.246094 0)"/>
      <use xlink:href="#DejaVuSans-36" transform="translate(159.033203 0)"/>
     </g>
    </g>
   </g>
   <g id="text_32">
    <g clip-path="url(#pd46fa85777)">
     <!-- 69.6 -->
     <g transform="translate(104.506838 143.668732) rotate(-88.575775) scale(0.09 -0.09)">
      <use xlink:href="#DejaVuSans-36"/>
      <use xlink:href="#DejaVuSans-39" transform="translate(63.623047 0)"/>
      <use xlink:href="#DejaVuSans-2e" transform="translate(127.246094 0)"/>
      <use xlink:href="#DejaVuSans-36" transform="translate(159.033203 0)"/>
     </g>
    </g>
   </g>
   <g id="text_33">
    <g clip-path="url(#pd46fa85777)">
     <!-- 70.4 -->
     <g transform="translate(303.246118 103.354207) rotate(-274.677188) scale(0.09 -0.09)">
      <use xlink:href="#DejaVuSans-37"/>
      <use xlink:href="#DejaVuSans-30" transform="translate(63.623047 0)"/>
      <use xlink:href="#DejaVuSans-2e" transform="translate(127.246094 0)"/>
      <use xlink:href="#DejaVuSans-34" transform="translate(159.033203 0)"/>
     </g>
    </g>
   </g>
   <g id="text_34">
    <g clip-path="url(#pd46fa85777)">
     <!-- 70.4 -->
     <g transform="translate(108.39243 86.411488) rotate(-84.421888) scale(0.09 -0.09)">
      <use xlink:href="#DejaVuSans-37"/>
      <use xlink:href="#DejaVuSans-30" transform="translate(63.623047 0)"/>
      <use xlink:href="#DejaVuSans-2e" transform="translate(127.246094 0)"/>
      <use xlink:href="#DejaVuSans-34" transform="translate(159.033203 0)"/>
     </g>
    </g>
   </g>
   <g id="text_35">
    <g clip-path="url(#pd46fa85777)">
     <!-- 70.4 -->
     <g transform="translate(222.018212 235.105588) rotate(-26.445154) scale(0.09 -0.09)">
      <use xlink:href="#DejaVuSans-37"/>
      <use xlink:href="#DejaVuSans-30" transform="translate(63.623047 0)"/>
      <use xlink:href="#DejaVuSans-2e" transform="translate(127.246094 0)"/>
      <use xlink:href="#DejaVuSans-34" transform="translate(159.033203 0)"/>
     </g>
    </g>
   </g>
   <g id="text_36">
    <g clip-path="url(#pd46fa85777)">
     <!-- 71.2 -->
     <g transform="translate(308.834003 201.113362) rotate(-86.360799) scale(0.09 -0.09)">
      <defs>
       <path id="DejaVuSans-31" d="M 794 531 
L 1825 531 
L 1825 4091 
L 703 3866 
L 703 4441 
L 1819 4666 
L 2450 4666 
L 2450 531 
L 3481 531 
L 3481 0 
L 794 0 
L 794 531 
z
" transform="scale(0.015625)"/>
      </defs>
      <use xlink:href="#DejaVuSans-37"/>
      <use xlink:href="#DejaVuSans-31" transform="translate(63.623047 0)"/>
      <use xlink:href="#DejaVuSans-2e" transform="translate(127.246094 0)"/>
      <use xlink:href="#DejaVuSans-32" transform="translate(159.033203 0)"/>
     </g>
    </g>
   </g>
   <g id="text_37">
    <g clip-path="url(#pd46fa85777)">
     <!-- 71.2 -->
     <g transform="translate(220.913804 229.021241) rotate(-15.746809) scale(0.09 -0.09)">
      <use xlink:href="#DejaVuSans-37"/>
      <use xlink:href="#DejaVuSans-31" transform="translate(63.623047 0)"/>
      <use xlink:href="#DejaVuSans-2e" transform="translate(127.246094 0)"/>
      <use xlink:href="#DejaVuSans-32" transform="translate(159.033203 0)"/>
     </g>
    </g>
   </g>
   <g id="text_38">
    <g clip-path="url(#pd46fa85777)">
     <!-- 72.0 -->
     <g transform="translate(109.170531 143.685301) rotate(-88.14339) scale(0.09 -0.09)">
      <use xlink:href="#DejaVuSans-37"/>
      <use xlink:href="#DejaVuSans-32" transform="translate(63.623047 0)"/>
      <use xlink:href="#DejaVuSans-2e" transform="translate(127.246094 0)"/>
      <use xlink:href="#DejaVuSans-30" transform="translate(159.033203 0)"/>
     </g>
    </g>
   </g>
   <g id="text_39">
    <g clip-path="url(#pd46fa85777)">
     <!-- 72.0 -->
     <g transform="translate(220.713545 224.090029) rotate(-13.417396) scale(0.09 -0.09)">
      <use xlink:href="#DejaVuSans-37"/>
      <use xlink:href="#DejaVuSans-32" transform="translate(63.623047 0)"/>
      <use xlink:href="#DejaVuSans-2e" transform="translate(127.246094 0)"/>
      <use xlink:href="#DejaVuSans-30" transform="translate(159.033203 0)"/>
     </g>
    </g>
   </g>
   <g id="text_40">
    <g clip-path="url(#pd46fa85777)">
     <!-- 72.8 -->
     <g transform="translate(102.569993 174.109145) rotate(-306.854142) scale(0.09 -0.09)">
      <use xlink:href="#DejaVuSans-37"/>
      <use xlink:href="#DejaVuSans-32" transform="translate(63.623047 0)"/>
      <use xlink:href="#DejaVuSans-2e" transform="translate(127.246094 0)"/>
      <use xlink:href="#DejaVuSans-38" transform="translate(159.033203 0)"/>
     </g>
    </g>
   </g>
   <g id="text_41">
    <g clip-path="url(#pd46fa85777)">
     <!-- 73.6 -->
     <g transform="translate(268.485332 53.24036) rotate(-318.200668) scale(0.09 -0.09)">
      <use xlink:href="#DejaVuSans-37"/>
      <use xlink:href="#DejaVuSans-33" transform="translate(63.623047 0)"/>
      <use xlink:href="#DejaVuSans-2e" transform="translate(127.246094 0)"/>
      <use xlink:href="#DejaVuSans-36" transform="translate(159.033203 0)"/>
     </g>
    </g>
   </g>
   <g id="text_42">
    <g clip-path="url(#pd46fa85777)">
     <!-- 73.6 -->
     <g transform="translate(243.632862 173.520115) rotate(-357.625905) scale(0.09 -0.09)">
      <use xlink:href="#DejaVuSans-37"/>
      <use xlink:href="#DejaVuSans-33" transform="translate(63.623047 0)"/>
      <use xlink:href="#DejaVuSans-2e" transform="translate(127.246094 0)"/>
      <use xlink:href="#DejaVuSans-36" transform="translate(159.033203 0)"/>
     </g>
    </g>
   </g>
   <g id="text_43">
    <g clip-path="url(#pd46fa85777)">
     <!-- 74.4 -->
     <g transform="translate(125.14959 86.504279) rotate(-79.313605) scale(0.09 -0.09)">
      <use xlink:href="#DejaVuSans-37"/>
      <use xlink:href="#DejaVuSans-34" transform="translate(63.623047 0)"/>
      <use xlink:href="#DejaVuSans-2e" transform="translate(127.246094 0)"/>
      <use xlink:href="#DejaVuSans-34" transform="translate(159.033203 0)"/>
     </g>
    </g>
   </g>
   <g id="text_44">
    <g clip-path="url(#pd46fa85777)">
     <!-- 74.4 -->
     <g transform="translate(243.483708 187.627553) rotate(-352.247246) scale(0.09 -0.09)">
      <use xlink:href="#DejaVuSans-37"/>
      <use xlink:href="#DejaVuSans-34" transform="translate(63.623047 0)"/>
      <use xlink:href="#DejaVuSans-2e" transform="translate(127.246094 0)"/>
      <use xlink:href="#DejaVuSans-34" transform="translate(159.033203 0)"/>
     </g>
    </g>
   </g>
   <g id="text_45">
    <g clip-path="url(#pd46fa85777)">
     <!-- 75.2 -->
     <g transform="translate(196.236611 184.768563) rotate(-4.681932) scale(0.09 -0.09)">
      <use xlink:href="#DejaVuSans-37"/>
      <use xlink:href="#DejaVuSans-35" transform="translate(63.623047 0)"/>
      <use xlink:href="#DejaVuSans-2e" transform="translate(127.246094 0)"/>
      <use xlink:href="#DejaVuSans-32" transform="translate(159.033203 0)"/>
     </g>
    </g>
   </g>
   <g id="text_46">
    <g clip-path="url(#pd46fa85777)">
     <!-- 75.2 -->
     <g transform="translate(268.719998 198.392291) rotate(-16.626786) scale(0.09 -0.09)">
      <use xlink:href="#DejaVuSans-37"/>
      <use xlink:href="#DejaVuSans-35" transform="translate(63.623047 0)"/>
      <use xlink:href="#DejaVuSans-2e" transform="translate(127.246094 0)"/>
      <use xlink:href="#DejaVuSans-32" transform="translate(159.033203 0)"/>
     </g>
    </g>
   </g>
   <g id="text_47">
    <g clip-path="url(#pd46fa85777)">
     <!-- 76.0 -->
     <g transform="translate(149.091321 105.846277) rotate(-13.025332) scale(0.09 -0.09)">
      <use xlink:href="#DejaVuSans-37"/>
      <use xlink:href="#DejaVuSans-36" transform="translate(63.623047 0)"/>
      <use xlink:href="#DejaVuSans-2e" transform="translate(127.246094 0)"/>
      <use xlink:href="#DejaVuSans-30" transform="translate(159.033203 0)"/>
     </g>
    </g>
   </g>
   <g id="text_48">
    <g clip-path="url(#pd46fa85777)">
     <!-- 76.0 -->
     <g transform="translate(200.694429 183.319048) rotate(-60.105169) scale(0.09 -0.09)">
      <use xlink:href="#DejaVuSans-37"/>
      <use xlink:href="#DejaVuSans-36" transform="translate(63.623047 0)"/>
      <use xlink:href="#DejaVuSans-2e" transform="translate(127.246094 0)"/>
      <use xlink:href="#DejaVuSans-30" transform="translate(159.033203 0)"/>
     </g>
    </g>
   </g>
  </g>
 </g>
 <defs>
  <clipPath id="pd46fa85777">
   <rect x="62.84" y="26.88" width="286.36" height="213.4"/>
  </clipPath>
 </defs>
</svg>
