<?xml version="1.0" encoding="utf-8" standalone="no"?>
<!DOCTYPE svg PUBLIC "-//W3C//DTD SVG 1.1//EN"
  "http://www.w3.org/Graphics/SVG/1.1/DTD/svg11.dtd">
<svg xmlns:xlink="http://www.w3.org/1999/xlink" width="360pt" height="288pt" viewBox="0 0 360 288" xmlns="http://www.w3.org/2000/svg" version="1.1">
 <metadata>
  <rdf:RDF xmlns:dc="http://purl.org/dc/elements/1.1/" xmlns:cc="http://creativecommons.org/ns#" xmlns:rdf="http://www.w3.org/1999/02/22-rdf-syntax-ns#">
   <cc:Work>
    <dc:type rdf:resource="http://purl.org/dc/dcmitype/StillImage"/>
    <dc:date>2025-10-02T17:14:44.468503</dc:date>
    <dc:format>image/svg+xml</dc:format>
    <dc:creator>
     <cc:Agent>
      <dc:title>Matplotlib v3.10.6, https://matplotlib.org/</dc:title>
     </cc:Agent>
    </dc:creator>
   </cc:Work>
  </rdf:RDF>
 </metadata>
 <defs>
  <style type="text/css">*{stroke-linejoin: round; stroke-linecap: butt}</style>
 </defs>
 <g id="figure_1">
  <g id="patch_1">
   <path d="M 0 288 
L 360 288 
L 360 0 
L 0 0 
z
" style="fill: #ffffff"/>
  </g>
  <g id="axes_1">
   <g id="patch_2">
    <path d="M 62.84 240.28 
L 349.2 240.28 
L 349.2 26.88 
L 62.84 26.88 
z
" style="fill: #ffffff"/>
   </g>
   <g id="QuadContourSet_1">
    <path d="M 86.703333 26.88 
L 90.175283 26.88 
L 90.687362 36.380776 
L 90.569796 47.600163 
L 90.234276 60.808896 
L 89.651273 76.198006 
L 89.635307 93.757994 
L 89.536328 113.137869 
L 89.319857 133.590571 
L 89.258856 154.013971 
L 89.947728 173.39493 
L 90.097658 190.956403 
L 89.866048 206.347113 
L 90.030639 219.557363 
L 90.606005 230.778089 
L 91.438271 240.28 
L 86.703333 240.28 
L 62.84 240.28 
L 62.84 230.778089 
L 62.84 219.557363 
L 62.84 206.347113 
L 62.84 190.956403 
L 62.84 173.39493 
L 62.84 154.013971 
L 62.84 133.590571 
L 62.84 113.137869 
L 62.84 93.757994 
L 62.84 76.198006 
L 62.84 60.808896 
L 62.84 47.600163 
L 62.84 36.380776 
L 62.84 26.88 
z
M 325.336667 26.88 
L 349.2 26.88 
L 349.2 36.380776 
L 349.2 47.600163 
L 349.2 60.808896 
L 349.2 76.198006 
L 349.2 93.757994 
L 349.2 113.137869 
L 349.2 133.590571 
L 349.2 154.013971 
L 349.2 173.39493 
L 349.2 190.956403 
L 349.2 206.347113 
L 349.2 219.557363 
L 349.2 230.778089 
L 349.2 240.28 
L 325.336667 240.28 
L 322.574391 240.28 
L 322.186177 230.778089 
L 322.121353 219.557363 
L 321.959425 206.347113 
L 321.760487 190.956403 
L 322.640915 173.39493 
L 322.936909 154.013971 
L 322.762204 133.590571 
L 322.696436 113.137869 
L 322.867655 93.757994 
L 322.764813 76.198006 
L 322.918313 60.808896 
L 322.141864 47.600163 
L 321.572588 36.380776 
L 322.529277 26.88 
z
" clip-path="url(#p9767a6ced1)" style="fill: #460b5e"/>
    <path d="M 95.70708 36.380776 
L 95.441386 47.600163 
L 94.683125 60.808896 
L 93.36556 76.198006 
L 93.329476 93.757994 
L 93.105789 113.137869 
L 92.616572 133.590571 
L 92.478713 154.013971 
L 94.035536 173.39493 
L 94.374374 190.956403 
L 93.850942 206.347113 
L 94.222911 219.557363 
L 95.523216 230.778089 
L 97.404104 240.28 
L 91.438271 240.28 
L 90.606005 230.778089 
L 90.030639 219.557363 
L 89.866048 206.347113 
L 90.097658 190.956403 
L 89.947728 173.39493 
L 89.258856 154.013971 
L 89.319857 133.590571 
L 89.536328 113.137869 
L 89.635307 93.757994 
L 89.651273 76.198006 
L 90.234276 60.808896 
L 90.569796 47.600163 
L 90.687362 36.380776 
L 90.175283 26.88 
L 94.549803 26.88 
z
M 321.572588 36.380776 
L 322.141864 47.600163 
L 322.918313 60.808896 
L 322.764813 76.198006 
L 322.867655 93.757994 
L 322.696436 113.137869 
L 322.762204 133.590571 
L 322.936909 154.013971 
L 322.640915 173.39493 
L 321.760487 190.956403 
L 321.959425 206.347113 
L 322.121353 219.557363 
L 322.186177 230.778089 
L 322.574391 240.28 
L 319.094034 240.28 
L 318.216685 230.778089 
L 318.070184 219.557363 
L 317.704234 206.347113 
L 317.254642 190.956403 
L 319.244374 173.39493 
L 319.91331 154.013971 
L 319.518483 133.590571 
L 319.369851 113.137869 
L 319.756797 93.757994 
L 319.52438 76.198006 
L 319.871283 60.808896 
L 318.116538 47.600163 
L 316.829998 36.380776 
L 318.992076 26.88 
L 322.529277 26.88 
z
" clip-path="url(#p9767a6ced1)" style="fill: #481f70"/>
    <path d="M 100.726798 36.380776 
L 100.312976 47.600163 
L 99.131973 60.808896 
L 97.079847 76.198006 
L 97.023646 93.757994 
L 96.67525 113.137869 
L 95.913288 133.590571 
L 95.69857 154.013971 
L 98.123344 173.39493 
L 98.651089 190.956403 
L 97.835837 206.347113 
L 98.415184 219.557363 
L 100.440428 230.778089 
L 103.369937 240.28 
L 97.404104 240.28 
L 95.523216 230.778089 
L 94.222911 219.557363 
L 93.850942 206.347113 
L 94.374374 190.956403 
L 94.035536 173.39493 
L 92.478713 154.013971 
L 92.616572 133.590571 
L 93.105789 113.137869 
L 93.329476 93.757994 
L 93.36556 76.198006 
L 94.683125 60.808896 
L 95.441386 47.600163 
L 95.70708 36.380776 
L 94.549803 26.88 
L 98.924322 26.88 
z
M 316.829998 36.380776 
L 318.116538 47.600163 
L 319.871283 60.808896 
L 319.52438 76.198006 
L 319.756797 93.757994 
L 319.369851 113.137869 
L 319.518483 133.590571 
L 319.91331 154.013971 
L 319.244374 173.39493 
L 317.254642 190.956403 
L 317.704234 206.347113 
L 318.070184 219.557363 
L 318.216685 230.778089 
L 319.094034 240.28 
L 315.613677 240.28 
L 314.247193 230.778089 
L 314.019016 219.557363 
L 313.449043 206.347113 
L 312.748798 190.956403 
L 315.847833 173.39493 
L 316.88971 154.013971 
L 316.274763 133.590571 
L 316.043265 113.137869 
L 316.64594 93.757994 
L 316.283947 76.198006 
L 316.824253 60.808896 
L 314.091213 47.600163 
L 312.087407 36.380776 
L 315.454876 26.88 
L 318.992076 26.88 
z
" clip-path="url(#p9767a6ced1)" style="fill: #46307e"/>
    <path d="M 105.746516 36.380776 
L 105.184565 47.600163 
L 103.580822 60.808896 
L 100.794134 76.198006 
L 100.717816 93.757994 
L 100.244711 113.137869 
L 99.210003 133.590571 
L 98.918428 154.013971 
L 102.211152 173.39493 
L 102.927804 190.956403 
L 101.820731 206.347113 
L 102.607457 219.557363 
L 105.357639 230.778089 
L 109.335771 240.28 
L 103.369937 240.28 
L 100.440428 230.778089 
L 98.415184 219.557363 
L 97.835837 206.347113 
L 98.651089 190.956403 
L 98.123344 173.39493 
L 95.69857 154.013971 
L 95.913288 133.590571 
L 96.67525 113.137869 
L 97.023646 93.757994 
L 97.079847 76.198006 
L 99.131973 60.808896 
L 100.312976 47.600163 
L 100.726798 36.380776 
L 98.924322 26.88 
L 103.298841 26.88 
z
M 312.087407 36.380776 
L 314.091213 47.600163 
L 316.824253 60.808896 
L 316.283947 76.198006 
L 316.64594 93.757994 
L 316.043265 113.137869 
L 316.274763 133.590571 
L 316.88971 154.013971 
L 315.847833 173.39493 
L 312.748798 190.956403 
L 313.449043 206.347113 
L 314.019016 219.557363 
L 314.247193 230.778089 
L 315.613677 240.28 
L 312.133319 240.28 
L 310.277701 230.778089 
L 309.967847 219.557363 
L 309.193852 206.347113 
L 308.242953 190.956403 
L 312.451293 173.39493 
L 313.866111 154.013971 
L 313.031042 133.590571 
L 312.716679 113.137869 
L 313.535082 93.757994 
L 313.043514 76.198006 
L 313.777223 60.808896 
L 310.065888 47.600163 
L 307.344817 36.380776 
L 311.917676 26.88 
L 315.454876 26.88 
z
" clip-path="url(#p9767a6ced1)" style="fill: #424186"/>
    <path d="M 110.566667 35.842065 
L 110.910397 36.380776 
L 110.566667 39.466526 
L 110.056155 47.600163 
L 108.02967 60.808896 
L 104.508422 76.198006 
L 104.411986 93.757994 
L 103.814171 113.137869 
L 102.506719 133.590571 
L 102.138285 154.013971 
L 106.29896 173.39493 
L 107.204519 190.956403 
L 105.805626 206.347113 
L 106.79973 219.557363 
L 110.27485 230.778089 
L 110.566667 231.43915 
L 115.028617 240.28 
L 110.566667 240.28 
L 109.335771 240.28 
L 105.357639 230.778089 
L 102.607457 219.557363 
L 101.820731 206.347113 
L 102.927804 190.956403 
L 102.211152 173.39493 
L 98.918428 154.013971 
L 99.210003 133.590571 
L 100.244711 113.137869 
L 100.717816 93.757994 
L 100.794134 76.198006 
L 103.580822 60.808896 
L 105.184565 47.600163 
L 105.746516 36.380776 
L 103.298841 26.88 
L 107.673361 26.88 
z
M 307.344817 36.380776 
L 310.065888 47.600163 
L 313.777223 60.808896 
L 313.043514 76.198006 
L 313.535082 93.757994 
L 312.716679 113.137869 
L 313.031042 133.590571 
L 313.866111 154.013971 
L 312.451293 173.39493 
L 308.242953 190.956403 
L 309.193852 206.347113 
L 309.967847 219.557363 
L 310.277701 230.778089 
L 312.133319 240.28 
L 308.652962 240.28 
L 306.308209 230.778089 
L 305.916679 219.557363 
L 304.938661 206.347113 
L 303.737108 190.956403 
L 309.054752 173.39493 
L 310.842512 154.013971 
L 309.787321 133.590571 
L 309.390094 113.137869 
L 310.424225 93.757994 
L 309.803081 76.198006 
L 310.730193 60.808896 
L 306.040563 47.600163 
L 302.602227 36.380776 
L 308.380475 26.88 
L 311.917676 26.88 
z
" clip-path="url(#p9767a6ced1)" style="fill: #3b528b"/>
    <path d="M 110.566667 26.88 
L 117.237158 26.88 
L 119.556235 36.380776 
L 115.486705 47.600163 
L 113.087427 60.808896 
L 110.566667 67.043143 
L 108.222709 76.198006 
L 108.106156 93.757994 
L 107.383632 113.137869 
L 105.803434 133.590571 
L 105.358142 154.013971 
L 110.386768 173.39493 
L 110.566667 176.392154 
L 112.002857 190.956403 
L 110.566667 199.011008 
L 109.790521 206.347113 
L 110.566667 215.032912 
L 111.228179 219.557363 
L 117.108818 230.778089 
L 120.650497 240.28 
L 115.028617 240.28 
L 110.566667 231.43915 
L 110.27485 230.778089 
L 106.79973 219.557363 
L 105.805626 206.347113 
L 107.204519 190.956403 
L 106.29896 173.39493 
L 102.138285 154.013971 
L 102.506719 133.590571 
L 103.814171 113.137869 
L 104.411986 93.757994 
L 104.508422 76.198006 
L 108.02967 60.808896 
L 110.056155 47.600163 
L 110.566667 39.466526 
L 110.910397 36.380776 
L 110.566667 35.842065 
L 107.673361 26.88 
z
M 301.473333 32.158838 
L 304.843275 26.88 
L 308.380475 26.88 
L 302.602227 36.380776 
L 306.040563 47.600163 
L 310.730193 60.808896 
L 309.803081 76.198006 
L 310.424225 93.757994 
L 309.390094 113.137869 
L 309.787321 133.590571 
L 310.842512 154.013971 
L 309.054752 173.39493 
L 303.737108 190.956403 
L 304.938661 206.347113 
L 305.916679 219.557363 
L 306.308209 230.778089 
L 308.652962 240.28 
L 305.172604 240.28 
L 302.338718 230.778089 
L 301.865511 219.557363 
L 301.473333 215.029396 
L 300.560416 206.347113 
L 298.907 190.956403 
L 301.473333 185.904381 
L 305.658211 173.39493 
L 307.818912 154.013971 
L 306.5436 133.590571 
L 306.063508 113.137869 
L 307.313368 93.757994 
L 306.562648 76.198006 
L 307.683163 60.808896 
L 302.015237 47.600163 
L 301.473333 45.915564 
L 292.413464 36.380776 
z
" clip-path="url(#p9767a6ced1)" style="fill: #34618d"/>
    <path d="M 134.43 26.88 
L 136.956025 26.88 
L 134.43 28.306614 
L 128.202073 36.380776 
L 120.982688 47.600163 
L 118.953198 60.808896 
L 113.054233 76.198006 
L 113.366436 93.757994 
L 111.525837 113.137869 
L 110.566667 117.1411 
L 109.10015 133.590571 
L 108.577999 154.013971 
L 110.566667 161.620764 
L 115.255127 173.39493 
L 118.718791 190.956403 
L 116.088248 206.347113 
L 117.74829 219.557363 
L 124.063715 230.778089 
L 126.272377 240.28 
L 120.650497 240.28 
L 117.108818 230.778089 
L 111.228179 219.557363 
L 110.566667 215.032912 
L 109.790521 206.347113 
L 110.566667 199.011008 
L 112.002857 190.956403 
L 110.566667 176.392154 
L 110.386768 173.39493 
L 105.358142 154.013971 
L 105.803434 133.590571 
L 107.383632 113.137869 
L 108.106156 93.757994 
L 108.222709 76.198006 
L 110.566667 67.043143 
L 113.087427 60.808896 
L 115.486705 47.600163 
L 119.556235 36.380776 
L 117.237158 26.88 
z
M 301.473333 26.88 
L 304.843275 26.88 
L 301.473333 32.158838 
L 292.413464 36.380776 
L 301.473333 45.915564 
L 302.015237 47.600163 
L 307.683163 60.808896 
L 306.562648 76.198006 
L 307.313368 93.757994 
L 306.063508 113.137869 
L 306.5436 133.590571 
L 307.818912 154.013971 
L 305.658211 173.39493 
L 301.473333 185.904381 
L 298.907 190.956403 
L 300.560416 206.347113 
L 301.473333 215.029396 
L 301.865511 219.557363 
L 302.338718 230.778089 
L 305.172604 240.28 
L 301.692247 240.28 
L 301.473333 239.572609 
L 293.182387 230.778089 
L 295.942267 219.557363 
L 295.642301 206.347113 
L 293.749489 190.956403 
L 301.473333 175.75143 
L 302.26167 173.39493 
L 304.795313 154.013971 
L 303.29988 133.590571 
L 302.736923 113.137869 
L 304.20251 93.757994 
L 303.322214 76.198006 
L 304.636133 60.808896 
L 301.473333 53.605575 
L 295.385552 47.600163 
L 280.523355 36.380776 
L 300.605507 26.88 
z
" clip-path="url(#p9767a6ced1)" style="fill: #2e6f8e"/>
    <path d="M 134.43 28.306614 
L 136.956025 26.88 
L 156.802904 26.88 
L 137.053995 36.380776 
L 134.43 38.198203 
L 126.47867 47.600163 
L 124.818968 60.808896 
L 119.796799 76.198006 
L 121.750289 93.757994 
L 120.385796 113.137869 
L 117.544121 133.590571 
L 114.733543 154.013971 
L 120.159417 173.39493 
L 125.434725 190.956403 
L 122.945415 206.347113 
L 124.268402 219.557363 
L 131.018611 230.778089 
L 131.894257 240.28 
L 126.272377 240.28 
L 124.063715 230.778089 
L 117.74829 219.557363 
L 116.088248 206.347113 
L 118.718791 190.956403 
L 115.255127 173.39493 
L 110.566667 161.620764 
L 108.577999 154.013971 
L 109.10015 133.590571 
L 110.566667 117.1411 
L 111.525837 113.137869 
L 113.366436 93.757994 
L 113.054233 76.198006 
L 118.953198 60.808896 
L 120.982688 47.600163 
L 128.202073 36.380776 
z
M 277.61 29.264432 
L 282.252644 26.88 
L 300.605507 26.88 
L 280.523355 36.380776 
L 295.385552 47.600163 
L 301.473333 53.605575 
L 304.636133 60.808896 
L 303.322214 76.198006 
L 304.20251 93.757994 
L 302.736923 113.137869 
L 303.29988 133.590571 
L 304.795313 154.013971 
L 302.26167 173.39493 
L 301.473333 175.75143 
L 293.749489 190.956403 
L 295.642301 206.347113 
L 295.942267 219.557363 
L 293.182387 230.778089 
L 301.473333 239.572609 
L 301.692247 240.28 
L 301.473333 240.28 
L 288.228005 240.28 
L 282.580034 230.778089 
L 289.818371 219.557363 
L 290.724187 206.347113 
L 288.591977 190.956403 
L 295.678633 173.39493 
L 301.473333 156.221014 
L 301.771714 154.013971 
L 301.473333 150.250849 
L 298.815293 133.590571 
L 297.786832 113.137869 
L 300.68639 93.757994 
L 298.767762 76.198006 
L 301.473333 62.059777 
L 301.589103 60.808896 
L 301.473333 60.545229 
L 288.350716 47.600163 
L 277.61 40.092976 
L 268.647293 36.380776 
z
" clip-path="url(#p9767a6ced1)" style="fill: #287c8e"/>
    <path d="M 158.293333 26.88 
L 170.030816 26.88 
L 158.293333 30.895099 
L 146.436736 36.380776 
L 134.43 44.696865 
L 131.974652 47.600163 
L 130.684738 60.808896 
L 126.539366 76.198006 
L 130.134143 93.757994 
L 129.245754 113.137869 
L 130.112525 133.590571 
L 125.630925 154.013971 
L 125.063707 173.39493 
L 132.15066 190.956403 
L 129.802581 206.347113 
L 130.788513 219.557363 
L 134.43 225.425143 
L 145.718686 230.778089 
L 158.293333 235.247558 
L 182.156667 238.826269 
L 190.657572 240.28 
L 182.156667 240.28 
L 158.293333 240.28 
L 134.43 240.28 
L 131.894257 240.28 
L 131.018611 230.778089 
L 124.268402 219.557363 
L 122.945415 206.347113 
L 125.434725 190.956403 
L 120.159417 173.39493 
L 114.733543 154.013971 
L 117.544121 133.590571 
L 120.385796 113.137869 
L 121.750289 93.757994 
L 119.796799 76.198006 
L 124.818968 60.808896 
L 126.47867 47.600163 
L 134.43 38.198203 
L 137.053995 36.380776 
L 156.802904 26.88 
z
M 253.746667 26.88 
L 277.61 26.88 
L 282.252644 26.88 
L 277.61 29.264432 
L 268.647293 36.380776 
L 277.61 40.092976 
L 288.350716 47.600163 
L 301.473333 60.545229 
L 301.589103 60.808896 
L 301.473333 62.059777 
L 298.767762 76.198006 
L 300.68639 93.757994 
L 297.786832 113.137869 
L 298.815293 133.590571 
L 301.473333 150.250849 
L 301.771714 154.013971 
L 301.473333 156.221014 
L 295.678633 173.39493 
L 288.591977 190.956403 
L 290.724187 206.347113 
L 289.818371 219.557363 
L 282.580034 230.778089 
L 288.228005 240.28 
L 277.61 240.28 
L 272.361547 240.28 
L 267.344555 230.778089 
L 277.61 226.868831 
L 283.694474 219.557363 
L 285.806072 206.347113 
L 283.434466 190.956403 
L 288.132467 173.39493 
L 294.649366 154.013971 
L 292.731399 133.590571 
L 291.842342 113.137869 
L 294.272469 93.757994 
L 292.467442 76.198006 
L 294.67343 60.808896 
L 281.315879 47.600163 
L 277.61 45.009951 
L 256.77579 36.380776 
L 253.746667 30.840442 
L 250.186706 26.88 
z
" clip-path="url(#p9767a6ced1)" style="fill: #23898e"/>
    <path d="M 158.293333 30.895099 
L 170.030816 26.88 
L 182.156667 26.88 
L 206.02 26.88 
L 212.103121 26.88 
L 206.02 27.093618 
L 182.156667 31.797983 
L 158.293333 35.2362 
L 155.819478 36.380776 
L 158.293333 44.210538 
L 161.713124 47.600163 
L 158.293333 48.778049 
L 140.078169 60.808896 
L 134.43 71.270511 
L 133.281932 76.198006 
L 134.43 80.742893 
L 138.064602 93.757994 
L 136.63917 113.137869 
L 137.317576 133.590571 
L 135.475533 154.013971 
L 134.43 157.399259 
L 129.967997 173.39493 
L 134.43 183.569073 
L 139.521406 190.956403 
L 138.714603 206.347113 
L 142.292782 219.557363 
L 158.293333 227.132037 
L 167.046332 230.778089 
L 182.156667 234.218252 
L 206.02 233.313995 
L 214.292121 240.28 
L 206.02 240.28 
L 190.657572 240.28 
L 182.156667 238.826269 
L 158.293333 235.247558 
L 145.718686 230.778089 
L 134.43 225.425143 
L 130.788513 219.557363 
L 129.802581 206.347113 
L 132.15066 190.956403 
L 125.063707 173.39493 
L 125.630925 154.013971 
L 130.112525 133.590571 
L 129.245754 113.137869 
L 130.134143 93.757994 
L 126.539366 76.198006 
L 130.684738 60.808896 
L 131.974652 47.600163 
L 134.43 44.696865 
L 146.436736 36.380776 
z
M 253.746667 30.840442 
L 256.77579 36.380776 
L 277.61 45.009951 
L 281.315879 47.600163 
L 294.67343 60.808896 
L 292.467442 76.198006 
L 294.272469 93.757994 
L 291.842342 113.137869 
L 292.731399 133.590571 
L 294.649366 154.013971 
L 288.132467 173.39493 
L 283.434466 190.956403 
L 285.806072 206.347113 
L 283.694474 219.557363 
L 277.61 226.868831 
L 267.344555 230.778089 
L 272.361547 240.28 
L 253.746667 240.28 
L 250.721241 240.28 
L 248.063311 230.778089 
L 231.392113 219.557363 
L 247.813504 206.347113 
L 253.746667 202.649065 
L 266.010203 206.347113 
L 277.61 219.430993 
L 280.887958 206.347113 
L 278.276955 190.956403 
L 280.586302 173.39493 
L 287.078253 154.013971 
L 286.647504 133.590571 
L 285.897852 113.137869 
L 287.858549 93.757994 
L 286.167122 76.198006 
L 287.604967 60.808896 
L 277.61 50.912159 
L 253.746667 58.214531 
L 247.659949 47.600163 
L 237.415301 36.380776 
L 230.669122 26.88 
L 250.186706 26.88 
z
" clip-path="url(#p9767a6ced1)" style="fill: #1f978b"/>
    <path d="M 158.293333 35.2362 
L 182.156667 31.797983 
L 206.02 27.093618 
L 212.103121 26.88 
L 229.883333 26.88 
L 230.669122 26.88 
L 237.415301 36.380776 
L 247.659949 47.600163 
L 253.746667 58.214531 
L 277.61 50.912159 
L 287.604967 60.808896 
L 286.167122 76.198006 
L 287.858549 93.757994 
L 285.897852 113.137869 
L 286.647504 133.590571 
L 287.078253 154.013971 
L 280.586302 173.39493 
L 278.276955 190.956403 
L 280.887958 206.347113 
L 277.61 219.430993 
L 266.010203 206.347113 
L 253.746667 202.649065 
L 247.813504 206.347113 
L 231.392113 219.557363 
L 248.063311 230.778089 
L 250.721241 240.28 
L 229.883333 240.28 
L 214.292121 240.28 
L 206.02 233.313995 
L 182.156667 234.218252 
L 167.046332 230.778089 
L 158.293333 227.132037 
L 142.292782 219.557363 
L 138.714603 206.347113 
L 139.521406 190.956403 
L 134.43 183.569073 
L 129.967997 173.39493 
L 134.43 157.399259 
L 135.475533 154.013971 
L 137.317576 133.590571 
L 136.63917 113.137869 
L 138.064602 93.757994 
L 134.43 80.742893 
L 133.281932 76.198006 
L 134.43 71.270511 
L 140.078169 60.808896 
L 158.293333 48.778049 
L 161.713124 47.600163 
L 158.293333 44.210538 
L 155.819478 36.380776 
z
M 217.865579 47.600163 
L 206.02 51.805276 
L 182.156667 50.385468 
L 158.293333 59.097481 
L 155.702186 60.808896 
L 142.622053 76.198006 
L 145.518612 93.757994 
L 141.964167 113.137869 
L 141.716137 133.590571 
L 140.905423 154.013971 
L 135.337626 173.39493 
L 147.228567 190.956403 
L 151.891091 206.347113 
L 158.293333 217.273502 
L 167.83004 219.557363 
L 182.156667 223.77389 
L 206.02 220.626567 
L 208.095724 219.557363 
L 229.883333 213.583084 
L 239.393425 206.347113 
L 253.746667 197.400962 
L 267.709692 190.956403 
L 272.526178 173.39493 
L 277.61 159.686255 
L 279.507139 154.013971 
L 280.56361 133.590571 
L 279.953362 113.137869 
L 281.444628 93.757994 
L 279.866802 76.198006 
L 280.536503 60.808896 
L 277.61 57.911154 
L 269.82109 60.808896 
L 253.746667 72.706744 
L 246.186617 60.808896 
L 237.439166 47.600163 
L 229.883333 41.657766 
z
" clip-path="url(#p9767a6ced1)" style="fill: #20a486"/>
    <path d="M 229.883333 41.657766 
L 237.439166 47.600163 
L 246.186617 60.808896 
L 253.746667 72.706744 
L 269.82109 60.808896 
L 277.61 57.911154 
L 280.536503 60.808896 
L 279.866802 76.198006 
L 281.444628 93.757994 
L 279.953362 113.137869 
L 280.56361 133.590571 
L 279.507139 154.013971 
L 277.61 159.686255 
L 272.526178 173.39493 
L 267.709692 190.956403 
L 253.746667 197.400962 
L 239.393425 206.347113 
L 229.883333 213.583084 
L 208.095724 219.557363 
L 206.02 220.626567 
L 182.156667 223.77389 
L 167.83004 219.557363 
L 158.293333 217.273502 
L 151.891091 206.347113 
L 147.228567 190.956403 
L 135.337626 173.39493 
L 140.905423 154.013971 
L 141.716137 133.590571 
L 141.964167 113.137869 
L 145.518612 93.757994 
L 142.622053 76.198006 
L 155.702186 60.808896 
L 158.293333 59.097481 
L 182.156667 50.385468 
L 206.02 51.805276 
L 217.865579 47.600163 
z
M 177.7532 60.808896 
L 158.293333 69.839983 
L 152.495227 76.198006 
L 152.972623 93.757994 
L 147.289163 113.137869 
L 146.114699 133.590571 
L 146.335313 154.013971 
L 145.401799 173.39493 
L 154.935728 190.956403 
L 158.293333 198.015975 
L 176.329805 206.347113 
L 182.156667 208.51194 
L 206.02 210.45458 
L 229.883333 207.176473 
L 230.973345 206.347113 
L 253.746667 192.152859 
L 256.338953 190.956403 
L 264.13132 173.39493 
L 270.644267 154.013971 
L 271.997093 133.590571 
L 268.211378 113.137869 
L 253.746667 95.98116 
L 252.846869 93.757994 
L 247.461224 76.198006 
L 237.33868 60.808896 
L 229.883333 50.721596 
L 206.02 57.576215 
L 182.156667 59.153813 
z
" clip-path="url(#p9767a6ced1)" style="fill: #2cb17e"/>
    <path d="M 182.156667 59.153813 
L 206.02 57.576215 
L 229.883333 50.721596 
L 237.33868 60.808896 
L 247.461224 76.198006 
L 252.846869 93.757994 
L 253.746667 95.98116 
L 268.211378 113.137869 
L 271.997093 133.590571 
L 270.644267 154.013971 
L 264.13132 173.39493 
L 256.338953 190.956403 
L 253.746667 192.152859 
L 230.973345 206.347113 
L 229.883333 207.176473 
L 206.02 210.45458 
L 182.156667 208.51194 
L 176.329805 206.347113 
L 158.293333 198.015975 
L 154.935728 190.956403 
L 145.401799 173.39493 
L 146.335313 154.013971 
L 146.114699 133.590571 
L 147.289163 113.137869 
L 152.972623 93.757994 
L 152.495227 76.198006 
L 158.293333 69.839983 
L 177.7532 60.808896 
z
M 185.052371 76.198006 
L 191.501661 93.757994 
L 182.156667 104.623902 
L 158.293333 97.858232 
L 152.614159 113.137869 
L 150.51326 133.590571 
L 151.765204 154.013971 
L 155.465973 173.39493 
L 158.293333 179.231538 
L 174.330021 190.956403 
L 182.156667 194.777653 
L 206.02 195.449215 
L 229.883333 199.692012 
L 244.124875 190.956403 
L 253.746667 177.520126 
L 255.736462 173.39493 
L 261.349485 154.013971 
L 261.088074 133.590571 
L 253.746667 115.006582 
L 253.101804 113.137869 
L 245.398912 93.757994 
L 239.072531 76.198006 
L 229.883333 62.742229 
L 206.02 68.946395 
z
" clip-path="url(#p9767a6ced1)" style="fill: #40bd72"/>
    <path d="M 206.02 68.946395 
L 229.883333 62.742229 
L 239.072531 76.198006 
L 245.398912 93.757994 
L 253.101804 113.137869 
L 253.746667 115.006582 
L 261.088074 133.590571 
L 261.349485 154.013971 
L 255.736462 173.39493 
L 253.746667 177.520126 
L 244.124875 190.956403 
L 229.883333 199.692012 
L 206.02 195.449215 
L 182.156667 194.777653 
L 174.330021 190.956403 
L 158.293333 179.231538 
L 155.465973 173.39493 
L 151.765204 154.013971 
L 150.51326 133.590571 
L 152.614159 113.137869 
L 158.293333 97.858232 
L 182.156667 104.623902 
L 191.501661 93.757994 
L 185.052371 76.198006 
z
M 226.646259 76.198006 
L 206.02 90.035146 
L 203.978815 93.757994 
L 186.672297 113.137869 
L 182.156667 124.783613 
L 161.602359 113.137869 
L 158.293333 112.184966 
L 157.939156 113.137869 
L 154.911822 133.590571 
L 157.195094 154.013971 
L 158.293333 158.268666 
L 171.411391 154.013971 
L 182.156667 146.936909 
L 184.420253 154.013971 
L 196.593288 173.39493 
L 206.02 178.034881 
L 213.400152 173.39493 
L 229.883333 165.339776 
L 249.553375 154.013971 
L 250.522625 133.590571 
L 243.572301 113.137869 
L 237.950954 93.757994 
L 230.683839 76.198006 
L 229.883333 75.025823 
z
M 226.099512 190.956403 
L 229.883333 192.047269 
L 231.661757 190.956403 
L 229.883333 187.615157 
z
" clip-path="url(#p9767a6ced1)" style="fill: #5ec962"/>
    <path d="M 229.883333 75.025823 
L 230.683839 76.198006 
L 237.950954 93.757994 
L 243.572301 113.137869 
L 250.522625 133.590571 
L 249.553375 154.013971 
L 229.883333 165.339776 
L 213.400152 173.39493 
L 206.02 178.034881 
L 196.593288 173.39493 
L 184.420253 154.013971 
L 182.156667 146.936909 
L 171.411391 154.013971 
L 158.293333 158.268666 
L 157.195094 154.013971 
L 154.911822 133.590571 
L 157.939156 113.137869 
L 158.293333 112.184966 
L 161.602359 113.137869 
L 182.156667 124.783613 
L 186.672297 113.137869 
L 203.978815 93.757994 
L 206.02 90.035146 
L 226.646259 76.198006 
z
M 227.724358 93.757994 
L 206.02 103.847417 
L 197.602141 113.137869 
L 188.165257 133.590571 
L 198.083159 154.013971 
L 206.02 162.614859 
L 225.087452 154.013971 
L 229.883333 151.606833 
L 240.664174 133.590571 
L 234.042799 113.137869 
L 230.502996 93.757994 
L 229.883333 92.278935 
z
M 229.883333 187.615157 
L 231.661757 190.956403 
L 229.883333 192.047269 
L 226.099512 190.956403 
z
" clip-path="url(#p9767a6ced1)" style="fill: #7fd34e"/>
    <path d="M 229.883333 92.278935 
L 230.502996 93.757994 
L 234.042799 113.137869 
L 240.664174 133.590571 
L 229.883333 151.606833 
L 225.087452 154.013971 
L 206.02 162.614859 
L 198.083159 154.013971 
L 188.165257 133.590571 
L 197.602141 113.137869 
L 206.02 103.847417 
L 227.724358 93.757994 
z
M 196.90423 133.590571 
L 206.02 148.160268 
L 229.883333 135.132011 
L 230.805724 133.590571 
L 229.883333 130.678257 
L 206.02 116.830569 
z
" clip-path="url(#p9767a6ced1)" style="fill: #a2da37"/>
    <path d="M 206.02 116.830569 
L 229.883333 130.678257 
L 230.805724 133.590571 
L 229.883333 135.132011 
L 206.02 148.160268 
L 196.90423 133.590571 
z
M 205.643203 133.590571 
L 206.02 134.192805 
L 207.103576 133.590571 
L 206.02 132.897801 
z
" clip-path="url(#p9767a6ced1)" style="fill: #c8e020"/>
    <path d="M 206.02 132.897801 
L 207.103576 133.590571 
L 206.02 134.192805 
L 205.643203 133.590571 
z
" clip-path="url(#p9767a6ced1)" style="fill: #ece51b"/>
   </g>
   <g id="matplotlib.axis_1">
    <g id="xtick_1">
     <g id="line2d_1">
      <defs>
       <path id="m27e521f8fa" d="M 0 0 
L 0 3.5 
" style="stroke: #000000; stroke-width: 0.8"/>
      </defs>
      <g>
       <use xlink:href="#m27e521f8fa" x="126.475556" y="240.28" style="stroke: #000000; stroke-width: 0.8"/>
      </g>
     </g>
     <g id="text_1">
      <!-- −50 -->
      <g transform="translate(113.812743 256.398125) scale(0.12 -0.12)">
       <defs>
        <path id="DejaVuSans-2212" d="M 678 2272 
L 4684 2272 
L 4684 1741 
L 678 1741 
L 678 2272 
z
" transform="scale(0.015625)"/>
        <path id="DejaVuSans-35" d="M 691 4666 
L 3169 4666 
L 3169 4134 
L 1269 4134 
L 1269 2991 
Q 1406 3038 1543 3061 
Q 1681 3084 1819 3084 
Q 2600 3084 3056 2656 
Q 3513 2228 3513 1497 
Q 3513 744 3044 326 
Q 2575 -91 1722 -91 
Q 1428 -91 1123 -41 
Q 819 9 494 109 
L 494 744 
Q 775 591 1075 516 
Q 1375 441 1709 441 
Q 2250 441 2565 725 
Q 2881 1009 2881 1497 
Q 2881 1984 2565 2268 
Q 2250 2553 1709 2553 
Q 1456 2553 1204 2497 
Q 953 2441 691 2322 
L 691 4666 
z
" transform="scale(0.015625)"/>
        <path id="DejaVuSans-30" d="M 2034 4250 
Q 1547 4250 1301 3770 
Q 1056 3291 1056 2328 
Q 1056 1369 1301 889 
Q 1547 409 2034 409 
Q 2525 409 2770 889 
Q 3016 1369 3016 2328 
Q 3016 3291 2770 3770 
Q 2525 4250 2034 4250 
z
M 2034 4750 
Q 2819 4750 3233 4129 
Q 3647 3509 3647 2328 
Q 3647 1150 3233 529 
Q 2819 -91 2034 -91 
Q 1250 -91 836 529 
Q 422 1150 422 2328 
Q 422 3509 836 4129 
Q 1250 4750 2034 4750 
z
" transform="scale(0.015625)"/>
       </defs>
       <use xlink:href="#DejaVuSans-2212"/>
       <use xlink:href="#DejaVuSans-35" transform="translate(83.789062 0)"/>
       <use xlink:href="#DejaVuSans-30" transform="translate(147.412109 0)"/>
      </g>
     </g>
    </g>
    <g id="xtick_2">
     <g id="line2d_2">
      <g>
       <use xlink:href="#m27e521f8fa" x="206.02" y="240.28" style="stroke: #000000; stroke-width: 0.8"/>
      </g>
     </g>
     <g id="text_2">
      <!-- 0 -->
      <g transform="translate(202.2025 256.398125) scale(0.12 -0.12)">
       <use xlink:href="#DejaVuSans-30"/>
      </g>
     </g>
    </g>
    <g id="xtick_3">
     <g id="line2d_3">
      <g>
       <use xlink:href="#m27e521f8fa" x="285.564444" y="240.28" style="stroke: #000000; stroke-width: 0.8"/>
      </g>
     </g>
     <g id="text_3">
      <!-- 50 -->
      <g transform="translate(277.929444 256.398125) scale(0.12 -0.12)">
       <use xlink:href="#DejaVuSans-35"/>
       <use xlink:href="#DejaVuSans-30" transform="translate(63.623047 0)"/>
      </g>
     </g>
    </g>
    <g id="text_4">
     <!-- $\Theta^{\circ}$ -->
     <g transform="translate(198.4 272.011875) scale(0.12 -0.12)">
      <defs>
       <path id="DejaVuSans-398" d="M 1416 2750 
L 3622 2750 
L 3622 2219 
L 1416 2219 
L 1416 2750 
z
M 2522 4238 
Q 1834 4238 1431 3725 
Q 1025 3213 1025 2328 
Q 1025 1447 1429 934 
Q 1834 422 2522 422 
Q 3209 422 3613 934 
Q 4013 1447 4013 2328 
Q 4013 3213 3613 3725 
Q 3209 4238 2522 4238 
z
M 2522 4750 
Q 3503 4750 4090 4092 
Q 4678 3434 4678 2328 
Q 4678 1225 4091 569 
Q 3503 -91 2522 -91 
Q 1538 -91 950 566 
Q 359 1222 359 2328 
Q 359 3434 950 4094 
Q 1538 4750 2522 4750 
z
" transform="scale(0.015625)"/>
       <path id="DejaVuSans-2218" d="M 2000 2619 
Q 1750 2619 1578 2445 
Q 1406 2272 1406 2022 
Q 1406 1775 1578 1605 
Q 1750 1435 2000 1435 
Q 2250 1435 2422 1605 
Q 2594 1775 2594 2022 
Q 2594 2269 2420 2444 
Q 2247 2619 2000 2619 
z
M 2000 3022 
Q 2200 3022 2384 2945 
Q 2569 2869 2703 2725 
Q 2847 2585 2919 2406 
Q 2991 2228 2991 2022 
Q 2991 1610 2702 1324 
Q 2413 1038 1994 1038 
Q 1572 1038 1290 1319 
Q 1009 1600 1009 2022 
Q 1009 2441 1296 2731 
Q 1584 3022 2000 3022 
z
" transform="scale(0.015625)"/>
      </defs>
      <use xlink:href="#DejaVuSans-398" transform="translate(0 0.78125)"/>
      <use xlink:href="#DejaVuSans-2218" transform="translate(79.667969 39.0625) scale(0.7)"/>
     </g>
    </g>
   </g>
   <g id="matplotlib.axis_2">
    <g id="ytick_1">
     <g id="line2d_4">
      <defs>
       <path id="mde8cbfccb0" d="M 0 0 
L -3.5 0 
" style="stroke: #000000; stroke-width: 0.8"/>
      </defs>
      <g>
       <use xlink:href="#mde8cbfccb0" x="62.84" y="219.984151" style="stroke: #000000; stroke-width: 0.8"/>
      </g>
     </g>
     <g id="text_5">
      <!-- −40 -->
      <g transform="translate(30.514375 224.543214) scale(0.12 -0.12)">
       <defs>
        <path id="DejaVuSans-34" d="M 2419 4116 
L 825 1625 
L 2419 1625 
L 2419 4116 
z
M 2253 4666 
L 3047 4666 
L 3047 1625 
L 3713 1625 
L 3713 1100 
L 3047 1100 
L 3047 0 
L 2419 0 
L 2419 1100 
L 313 1100 
L 313 1709 
L 2253 4666 
z
" transform="scale(0.015625)"/>
       </defs>
       <use xlink:href="#DejaVuSans-2212"/>
       <use xlink:href="#DejaVuSans-34" transform="translate(83.789062 0)"/>
       <use xlink:href="#DejaVuSans-30" transform="translate(147.412109 0)"/>
      </g>
     </g>
    </g>
    <g id="ytick_2">
     <g id="line2d_5">
      <g>
       <use xlink:href="#mde8cbfccb0" x="62.84" y="176.783648" style="stroke: #000000; stroke-width: 0.8"/>
      </g>
     </g>
     <g id="text_6">
      <!-- −20 -->
      <g transform="translate(30.514375 181.342711) scale(0.12 -0.12)">
       <defs>
        <path id="DejaVuSans-32" d="M 1228 531 
L 3431 531 
L 3431 0 
L 469 0 
L 469 531 
Q 828 903 1448 1529 
Q 2069 2156 2228 2338 
Q 2531 2678 2651 2914 
Q 2772 3150 2772 3378 
Q 2772 3750 2511 3984 
Q 2250 4219 1831 4219 
Q 1534 4219 1204 4116 
Q 875 4013 500 3803 
L 500 4441 
Q 881 4594 1212 4672 
Q 1544 4750 1819 4750 
Q 2544 4750 2975 4387 
Q 3406 4025 3406 3419 
Q 3406 3131 3298 2873 
Q 3191 2616 2906 2266 
Q 2828 2175 2409 1742 
Q 1991 1309 1228 531 
z
" transform="scale(0.015625)"/>
       </defs>
       <use xlink:href="#DejaVuSans-2212"/>
       <use xlink:href="#DejaVuSans-32" transform="translate(83.789062 0)"/>
       <use xlink:href="#DejaVuSans-30" transform="translate(147.412109 0)"/>
      </g>
     </g>
    </g>
    <g id="ytick_3">
     <g id="line2d_6">
      <g>
       <use xlink:href="#mde8cbfccb0" x="62.84" y="133.583145" style="stroke: #000000; stroke-width: 0.8"/>
      </g>
     </g>
     <g id="text_7">
      <!-- 0 -->
      <g transform="translate(48.205 138.142208) scale(0.12 -0.12)">
       <use xlink:href="#DejaVuSans-30"/>
      </g>
     </g>
    </g>
    <g id="ytick_4">
     <g id="line2d_7">
      <g>
       <use xlink:href="#mde8cbfccb0" x="62.84" y="90.382642" style="stroke: #000000; stroke-width: 0.8"/>
      </g>
     </g>
     <g id="text_8">
      <!-- 20 -->
      <g transform="translate(40.57 94.941704) scale(0.12 -0.12)">
       <use xlink:href="#DejaVuSans-32"/>
       <use xlink:href="#DejaVuSans-30" transform="translate(63.623047 0)"/>
      </g>
     </g>
    </g>
    <g id="ytick_5">
     <g id="line2d_8">
      <g>
       <use xlink:href="#mde8cbfccb0" x="62.84" y="47.182139" style="stroke: #000000; stroke-width: 0.8"/>
      </g>
     </g>
     <g id="text_9">
      <!-- 40 -->
      <g transform="translate(40.57 51.741201) scale(0.12 -0.12)">
       <use xlink:href="#DejaVuSans-34"/>
       <use xlink:href="#DejaVuSans-30" transform="translate(63.623047 0)"/>
      </g>
     </g>
    </g>
    <g id="text_10">
     <!-- $\phi^{\circ}$ -->
     <g transform="translate(23.784375 141.38) rotate(-90) scale(0.13 -0.13)">
      <defs>
       <path id="DejaVuSans-Oblique-3d5" d="M 2991 4863 
L 2738 3572 
Q 3363 3572 3684 3094 
Q 4016 2606 3850 1747 
Q 3681 888 3159 400 
Q 2653 -78 2028 -78 
L 1784 -1331 
L 1213 -1331 
L 1456 -78 
Q 834 -78 509 400 
Q 178 888 347 1747 
Q 513 2606 1034 3094 
Q 1544 3572 2166 3572 
L 2419 4863 
L 2991 4863 
z
M 2128 434 
Q 2481 434 2784 756 
Q 3116 1116 3244 1747 
Q 3369 2372 3169 2738 
Q 2991 3059 2638 3059 
L 2128 434 
z
M 1556 434 
L 2066 3059 
Q 1716 3059 1413 2738 
Q 1072 2372 953 1747 
Q 834 1116 1028 756 
Q 1203 434 1556 434 
z
" transform="scale(0.015625)"/>
      </defs>
      <use xlink:href="#DejaVuSans-Oblique-3d5" transform="translate(0 0.015625)"/>
      <use xlink:href="#DejaVuSans-2218" transform="translate(73.414505 38.296875) scale(0.7)"/>
     </g>
    </g>
   </g>
   <g id="QuadContourSet_2">
    <path clip-path="url(#p9767a6ced1)" style="fill: none; stroke-dasharray: 1.85,0.8; stroke-dashoffset: 0; stroke: #000000; stroke-width: 0.5"/>
    <path d="M 322.529277 26.88 
L 321.572588 36.380776 
L 322.141864 47.600163 
L 322.918313 60.808896 
L 322.764813 76.198006 
L 322.867655 93.757994 
L 322.696436 113.137869 
L 322.720152 120.512952 
M 322.874069 146.667829 
L 322.936909 154.013971 
L 322.640915 173.39493 
L 321.760487 190.956403 
L 321.959425 206.347113 
L 322.121353 219.557363 
L 322.186177 230.778089 
L 322.574391 240.28 
M 91.438271 240.28 
L 90.606005 230.778089 
L 90.030639 219.557363 
L 89.866048 206.347113 
L 90.097658 190.956403 
L 89.947728 173.39493 
L 89.258856 154.013971 
L 89.280796 146.668198 
M 89.458264 120.513536 
L 89.536328 113.137869 
L 89.635307 93.757994 
L 89.651273 76.198006 
L 90.234276 60.808896 
L 90.569796 47.600163 
L 90.687362 36.380776 
L 90.175283 26.88 
" clip-path="url(#p9767a6ced1)" style="fill: none; stroke-dasharray: 1.85,0.8; stroke-dashoffset: 0; stroke: #000000; stroke-width: 0.5"/>
    <path d="M 318.992076 26.88 
L 316.829998 36.380776 
L 318.116538 47.600163 
L 319.871283 60.808896 
L 319.52438 76.198006 
L 319.756797 93.757994 
L 319.369851 113.137869 
L 319.423448 120.513196 
M 319.77126 146.666102 
L 319.91331 154.013971 
L 319.244374 173.39493 
L 317.254642 190.956403 
L 317.704234 206.347113 
L 318.070184 219.557363 
L 318.216685 230.778089 
L 319.094034 240.28 
M 97.404104 240.28 
L 95.523216 230.778089 
L 94.222911 219.557363 
L 93.850942 206.347113 
L 94.374374 190.956403 
L 94.035536 173.39493 
L 92.478713 154.013971 
L 92.528299 146.667987 
M 92.929304 120.516179 
L 93.105789 113.137869 
L 93.329476 93.757994 
L 93.36556 76.198006 
L 94.683125 60.808896 
L 95.441386 47.600163 
L 95.70708 36.380776 
L 94.549803 26.88 
" clip-path="url(#p9767a6ced1)" style="fill: none; stroke-dasharray: 1.85,0.8; stroke-dashoffset: 0; stroke: #000000; stroke-width: 0.5"/>
    <path d="M 315.454876 26.88 
L 312.087407 36.380776 
L 314.091213 47.600163 
L 316.824253 60.808896 
L 316.283947 76.198006 
L 316.64594 93.757994 
L 316.043265 113.137869 
L 316.126259 120.470327 
M 316.669678 146.706328 
L 316.88971 154.013971 
L 315.847833 173.39493 
L 312.748798 190.956403 
L 313.449043 206.347113 
L 314.019016 219.557363 
L 314.247193 230.778089 
L 315.613677 240.28 
M 103.369937 240.28 
L 100.440428 230.778089 
L 98.415184 219.557363 
L 97.835837 206.347113 
L 98.651089 190.956403 
L 98.123344 173.39493 
L 95.69857 154.013971 
L 95.77535 146.710916 
M 96.40181 120.477585 
L 96.67525 113.137869 
L 97.023646 93.757994 
L 97.079847 76.198006 
L 99.131973 60.808896 
L 100.312976 47.600163 
L 100.726798 36.380776 
L 98.924322 26.88 
" clip-path="url(#p9767a6ced1)" style="fill: none; stroke-dasharray: 1.85,0.8; stroke-dashoffset: 0; stroke: #000000; stroke-width: 0.5"/>
    <path d="M 311.917676 26.88 
L 307.344817 36.380776 
L 310.065888 47.600163 
L 313.777223 60.808896 
L 313.043514 76.198006 
L 313.535082 93.757994 
L 312.716679 113.137869 
L 312.82939 120.470951 
M 313.567137 146.701922 
L 313.866111 154.013971 
L 312.451293 173.39493 
L 308.242953 190.956403 
L 309.193852 206.347113 
L 309.967847 219.557363 
L 310.277701 230.778089 
L 312.133319 240.28 
M 109.335771 240.28 
L 105.357639 230.778089 
L 102.607457 219.557363 
L 101.820731 206.347113 
L 102.927804 190.956403 
L 102.211152 173.39493 
L 98.918428 154.013971 
L 99.022698 146.710378 
M 99.873052 120.484323 
L 100.244711 113.137869 
L 100.717816 93.757994 
L 100.794134 76.198006 
L 103.580822 60.808896 
L 105.184565 47.600163 
L 105.746516 36.380776 
L 103.298841 26.88 
" clip-path="url(#p9767a6ced1)" style="fill: none; stroke-dasharray: 1.85,0.8; stroke-dashoffset: 0; stroke: #000000; stroke-width: 0.5"/>
    <path d="M 308.380475 26.88 
L 302.602227 36.380776 
L 306.040563 47.600163 
L 310.730193 60.808896 
L 309.803081 76.198006 
L 310.424225 93.757994 
L 309.390094 113.137869 
L 309.532531 120.471763 
M 310.464433 146.696186 
L 310.842512 154.013971 
L 309.054752 173.39493 
L 303.737108 190.956403 
L 304.938661 206.347113 
L 305.916679 219.557363 
L 306.308209 230.778089 
L 308.652962 240.28 
M 115.028617 240.28 
L 110.566667 231.43915 
L 110.27485 230.778089 
L 106.79973 219.557363 
L 105.805626 206.347113 
L 107.204519 190.956403 
L 106.29896 173.39493 
L 102.138285 154.013971 
L 102.506719 133.590571 
L 102.976906 126.235348 
M 104.218748 100.022371 
L 104.411986 93.757994 
L 104.508422 76.198006 
L 108.02967 60.808896 
L 110.056155 47.600163 
L 110.566667 39.466526 
L 110.910397 36.380776 
L 110.566667 35.842065 
L 107.673361 26.88 
" clip-path="url(#p9767a6ced1)" style="fill: none; stroke-dasharray: 1.85,0.8; stroke-dashoffset: 0; stroke: #000000; stroke-width: 0.5"/>
    <path d="M 304.843275 26.88 
L 301.473333 32.158838 
L 292.413464 36.380776 
L 301.473333 45.915564 
L 302.015237 47.600163 
L 307.683163 60.808896 
L 306.562648 76.198006 
L 307.313368 93.757994 
L 306.063508 113.137869 
L 306.235682 120.472765 
M 307.361522 146.689124 
L 307.818912 154.013971 
L 305.658211 173.39493 
L 301.473333 185.904381 
L 298.907 190.956403 
L 300.560416 206.347113 
L 301.473333 215.029396 
L 301.865511 219.557363 
L 302.338718 230.778089 
L 305.172604 240.28 
M 120.650497 240.28 
L 117.108818 230.778089 
L 111.228179 219.557363 
L 110.566667 215.032912 
L 109.790521 206.347113 
L 110.566667 199.011008 
L 112.002857 190.956403 
L 110.566667 176.392154 
L 110.386768 173.39493 
L 108.666071 166.763145 
M 105.64416 140.89573 
L 105.803434 133.590571 
L 107.383632 113.137869 
L 108.106156 93.757994 
L 108.222709 76.198006 
L 110.566667 67.043143 
L 113.087427 60.808896 
L 115.486705 47.600163 
L 119.556235 36.380776 
L 117.237158 26.88 
" clip-path="url(#p9767a6ced1)" style="fill: none; stroke-dasharray: 1.85,0.8; stroke-dashoffset: 0; stroke: #000000; stroke-width: 0.5"/>
    <path d="M 300.605507 26.88 
L 280.523355 36.380776 
L 295.385552 47.600163 
L 301.473333 53.605575 
L 304.636133 60.808896 
L 303.322214 76.198006 
L 304.20251 93.757994 
L 302.736923 113.137869 
L 303.29988 133.590571 
L 303.839993 140.967001 
M 303.098387 166.994512 
L 302.26167 173.39493 
L 301.473333 175.75143 
L 293.749489 190.956403 
L 295.642301 206.347113 
L 295.942267 219.557363 
L 293.182387 230.778089 
L 301.473333 239.572609 
L 301.692247 240.28 
M 126.272377 240.28 
L 124.063715 230.778089 
L 117.74829 219.557363 
L 116.088248 206.347113 
L 118.718791 190.956403 
L 115.255127 173.39493 
L 110.566667 161.620764 
L 108.577999 154.013971 
L 109.10015 133.590571 
L 109.404807 130.173331 
M 112.374846 104.198557 
L 113.366436 93.757994 
L 113.054233 76.198006 
L 118.953198 60.808896 
L 120.982688 47.600163 
L 128.202073 36.380776 
L 134.43 28.306614 
L 136.956025 26.88 
" clip-path="url(#p9767a6ced1)" style="fill: none; stroke-dasharray: 1.85,0.8; stroke-dashoffset: 0; stroke: #000000; stroke-width: 0.5"/>
    <path d="M 282.252644 26.88 
L 277.61 29.264432 
L 268.647293 36.380776 
L 277.61 40.092976 
L 288.350716 47.600163 
L 301.473333 60.545229 
L 301.589103 60.808896 
L 301.473333 62.059777 
L 298.767762 76.198006 
L 300.68639 93.757994 
L 299.724503 100.18699 
M 298.443712 126.201038 
L 298.815293 133.590571 
L 301.473333 150.250849 
L 301.771714 154.013971 
L 301.473333 156.221014 
L 295.678633 173.39493 
L 288.591977 190.956403 
L 290.724187 206.347113 
L 289.818371 219.557363 
L 282.580034 230.778089 
L 288.228005 240.28 
M 131.894257 240.28 
L 131.018611 230.778089 
L 124.268402 219.557363 
L 122.945415 206.347113 
L 125.434725 190.956403 
L 120.159417 173.39493 
L 114.733543 154.013971 
L 117.544121 133.590571 
L 118.584021 126.105983 
M 121.304566 100.088591 
L 121.750289 93.757994 
L 119.796799 76.198006 
L 124.818968 60.808896 
L 126.47867 47.600163 
L 134.43 38.198203 
L 137.053995 36.380776 
L 156.802904 26.88 
" clip-path="url(#p9767a6ced1)" style="fill: none; stroke-dasharray: 1.85,0.8; stroke-dashoffset: 0; stroke: #000000; stroke-width: 0.5"/>
    <path d="M 250.186706 26.88 
L 253.746667 30.840442 
L 256.77579 36.380776 
L 277.61 45.009951 
L 281.315879 47.600163 
L 294.67343 60.808896 
L 292.467442 76.198006 
L 294.272469 93.757994 
L 291.842342 113.137869 
L 292.163398 120.52374 
M 293.954794 146.617851 
L 294.649366 154.013971 
L 288.132467 173.39493 
L 283.434466 190.956403 
L 285.806072 206.347113 
L 283.694474 219.557363 
L 277.61 226.868831 
L 267.344555 230.778089 
L 272.361547 240.28 
M 190.657572 240.28 
L 182.156667 238.826269 
L 158.293333 235.247558 
L 145.718686 230.778089 
L 134.43 225.425143 
L 130.788513 219.557363 
L 129.802581 206.347113 
L 132.15066 190.956403 
L 125.063707 173.39493 
L 125.630925 154.013971 
L 127.3017 146.399968 
M 129.558739 120.523203 
L 129.245754 113.137869 
L 130.134143 93.757994 
L 126.539366 76.198006 
L 130.684738 60.808896 
L 131.974652 47.600163 
L 134.43 44.696865 
L 146.436736 36.380776 
L 158.293333 30.895099 
L 170.030816 26.88 
" clip-path="url(#p9767a6ced1)" style="fill: none; stroke-dasharray: 1.85,0.8; stroke-dashoffset: 0; stroke: #000000; stroke-width: 0.5"/>
    <path d="M 230.669122 26.88 
L 237.415301 36.380776 
L 247.659949 47.600163 
L 253.746667 58.214531 
L 277.61 50.912159 
L 287.604967 60.808896 
L 286.167122 76.198006 
L 287.858549 93.757994 
L 285.897852 113.137869 
L 286.647504 133.590571 
L 286.802486 140.938849 
M 282.898938 166.490825 
L 280.586302 173.39493 
L 278.276955 190.956403 
L 280.887958 206.347113 
L 277.61 219.430993 
L 266.010203 206.347113 
L 253.746667 202.649065 
L 247.813504 206.347113 
L 231.392113 219.557363 
L 248.063311 230.778089 
L 250.721241 240.28 
M 214.292121 240.28 
L 206.02 233.313995 
L 182.156667 234.218252 
L 167.046332 230.778089 
L 158.293333 227.132037 
L 142.292782 219.557363 
L 138.714603 206.347113 
L 139.521406 190.956403 
L 134.43 183.569073 
L 129.967997 173.39493 
L 134.43 157.399259 
L 135.475533 154.013971 
L 137.317576 133.590571 
L 137.07274 126.209228 
M 137.598782 100.091175 
L 138.064602 93.757994 
L 134.43 80.742893 
L 133.281932 76.198006 
L 134.43 71.270511 
L 140.078169 60.808896 
L 158.293333 48.778049 
L 161.713124 47.600163 
L 158.293333 44.210538 
L 155.819478 36.380776 
L 158.293333 35.2362 
L 182.156667 31.797983 
L 206.02 27.093618 
L 212.103121 26.88 
" clip-path="url(#p9767a6ced1)" style="fill: none; stroke-dasharray: 1.85,0.8; stroke-dashoffset: 0; stroke: #000000; stroke-width: 0.5"/>
    <path d="M 269.040942 186.102512 
L 267.709692 190.956403 
L 253.746667 197.400962 
L 239.393425 206.347113 
L 229.883333 213.583084 
L 208.095724 219.557363 
L 206.02 220.626567 
L 182.156667 223.77389 
L 167.83004 219.557363 
L 158.293333 217.273502 
L 151.891091 206.347113 
L 147.228567 190.956403 
L 135.337626 173.39493 
L 140.905423 154.013971 
L 141.716137 133.590571 
L 141.964167 113.137869 
L 145.518612 93.757994 
L 142.622053 76.198006 
L 155.702186 60.808896 
L 158.293333 59.097481 
L 182.156667 50.385468 
L 206.02 51.805276 
L 217.865579 47.600163 
L 229.883333 41.657766 
L 237.439166 47.600163 
L 246.186617 60.808896 
L 253.746667 72.706744 
L 269.82109 60.808896 
L 277.61 57.911154 
L 280.536503 60.808896 
L 279.866802 76.198006 
L 281.444628 93.757994 
L 279.953362 113.137869 
L 280.56361 133.590571 
L 279.507139 154.013971 
L 277.61 159.686255 
L 277.122172 161.001699 
" clip-path="url(#p9767a6ced1)" style="fill: none; stroke-dasharray: 1.85,0.8; stroke-dashoffset: 0; stroke: #000000; stroke-width: 0.5"/>
    <path d="M 244.536932 197.893142 
L 230.973345 206.347113 
L 229.883333 207.176473 
L 206.02 210.45458 
L 182.156667 208.51194 
L 176.329805 206.347113 
L 158.293333 198.015975 
L 154.935728 190.956403 
L 145.401799 173.39493 
L 146.335313 154.013971 
L 146.114699 133.590571 
L 147.289163 113.137869 
L 152.972623 93.757994 
L 152.495227 76.198006 
L 158.293333 69.839983 
L 177.7532 60.808896 
L 182.156667 59.153813 
L 206.02 57.576215 
L 229.883333 50.721596 
L 237.33868 60.808896 
L 247.461224 76.198006 
L 252.846869 93.757994 
L 253.746667 95.98116 
L 268.211378 113.137869 
L 271.997093 133.590571 
L 270.644267 154.013971 
L 264.13132 173.39493 
L 261.696637 178.881918 
" clip-path="url(#p9767a6ced1)" style="fill: none; stroke-dasharray: 1.85,0.8; stroke-dashoffset: 0; stroke: #000000; stroke-width: 0.5"/>
    <path d="M 192.03161 195.055554 
L 182.156667 194.777653 
L 174.330021 190.956403 
L 158.293333 179.231538 
L 155.465973 173.39493 
L 151.765204 154.013971 
L 150.51326 133.590571 
L 152.614159 113.137869 
L 158.293333 97.858232 
L 182.156667 104.623902 
L 191.501661 93.757994 
L 185.052371 76.198006 
L 206.02 68.946395 
L 229.883333 62.742229 
L 239.072531 76.198006 
L 245.398912 93.757994 
L 253.101804 113.137869 
L 253.746667 115.006582 
L 261.088074 133.590571 
L 261.349485 154.013971 
L 255.736462 173.39493 
L 253.746667 177.520126 
L 244.124875 190.956403 
L 229.883333 199.692012 
L 219.769646 197.893842 
" clip-path="url(#p9767a6ced1)" style="fill: none; stroke-dasharray: 1.85,0.8; stroke-dashoffset: 0; stroke: #000000; stroke-width: 0.5"/>
    <path d="M 158.277411 158.206983 
L 157.195094 154.013971 
L 154.911822 133.590571 
L 157.939156 113.137869 
L 158.293333 112.184966 
L 161.602359 113.137869 
L 182.156667 124.783613 
L 186.672297 113.137869 
L 203.978815 93.757994 
L 206.02 90.035146 
L 226.646259 76.198006 
L 229.883333 75.025823 
L 230.683839 76.198006 
L 237.950954 93.757994 
L 243.572301 113.137869 
L 250.522625 133.590571 
L 249.553375 154.013971 
L 229.883333 165.339776 
L 213.400152 173.39493 
L 206.02 178.034881 
L 196.593288 173.39493 
L 184.420253 154.013971 
L 182.391326 147.670567 
M 229.883333 187.615157 
L 231.661757 190.956403 
L 229.883333 192.047269 
L 226.099512 190.956403 
L 229.883333 187.615157 
z
" clip-path="url(#p9767a6ced1)" style="fill: none; stroke-dasharray: 1.85,0.8; stroke-dashoffset: 0; stroke: #000000; stroke-width: 0.5"/>
    <path d="M 197.329825 152.462672 
L 188.165257 133.590571 
L 197.602141 113.137869 
L 206.02 103.847417 
L 227.724358 93.757994 
L 229.883333 92.278935 
L 230.502996 93.757994 
L 234.042799 113.137869 
L 240.664174 133.590571 
L 229.883333 151.606833 
L 225.087452 154.013971 
L 218.589432 156.945078 
" clip-path="url(#p9767a6ced1)" style="fill: none; stroke-dasharray: 1.85,0.8; stroke-dashoffset: 0; stroke: #000000; stroke-width: 0.5"/>
    <path d="M 217.789618 141.734611 
L 206.02 148.160268 
L 196.90423 133.590571 
L 206.02 116.830569 
L 222.341742 126.301936 
" clip-path="url(#p9767a6ced1)" style="fill: none; stroke-dasharray: 1.85,0.8; stroke-dashoffset: 0; stroke: #000000; stroke-width: 0.5"/>
    <path d="M 206.02 132.897801 
L 207.103576 133.590571 
L 206.02 134.192805 
L 205.643203 133.590571 
L 206.02 132.897801 
z
" clip-path="url(#p9767a6ced1)" style="fill: none; stroke-dasharray: 1.85,0.8; stroke-dashoffset: 0; stroke: #000000; stroke-width: 0.5"/>
    <path clip-path="url(#p9767a6ced1)" style="fill: none; stroke-dasharray: 1.85,0.8; stroke-dashoffset: 0; stroke: #000000; stroke-width: 0.5"/>
   </g>
   <g id="patch_3">
    <path d="M 62.84 240.28 
L 62.84 26.88 
" style="fill: none; stroke: #000000; stroke-width: 0.8; stroke-linejoin: miter; stroke-linecap: square"/>
   </g>
   <g id="patch_4">
    <path d="M 349.2 240.28 
L 349.2 26.88 
" style="fill: none; stroke: #000000; stroke-width: 0.8; stroke-linejoin: miter; stroke-linecap: square"/>
   </g>
   <g id="patch_5">
    <path d="M 62.84 240.28 
L 349.2 240.28 
" style="fill: none; stroke: #000000; stroke-width: 0.8; stroke-linejoin: miter; stroke-linecap: square"/>
   </g>
   <g id="patch_6">
    <path d="M 62.84 26.88 
L 349.2 26.88 
" style="fill: none; stroke: #000000; stroke-width: 0.8; stroke-linejoin: miter; stroke-linecap: square"/>
   </g>
   <g id="text_11">
    <!-- Band 20000 -->
    <g transform="translate(169.620625 20.88) scale(0.12 -0.12)">
     <defs>
      <path id="DejaVuSans-42" d="M 1259 2228 
L 1259 519 
L 2272 519 
Q 2781 519 3026 730 
Q 3272 941 3272 1375 
Q 3272 1813 3026 2020 
Q 2781 2228 2272 2228 
L 1259 2228 
z
M 1259 4147 
L 1259 2741 
L 2194 2741 
Q 2656 2741 2882 2914 
Q 3109 3088 3109 3444 
Q 3109 3797 2882 3972 
Q 2656 4147 2194 4147 
L 1259 4147 
z
M 628 4666 
L 2241 4666 
Q 2963 4666 3353 4366 
Q 3744 4066 3744 3513 
Q 3744 3084 3544 2831 
Q 3344 2578 2956 2516 
Q 3422 2416 3680 2098 
Q 3938 1781 3938 1306 
Q 3938 681 3513 340 
Q 3088 0 2303 0 
L 628 0 
L 628 4666 
z
" transform="scale(0.015625)"/>
      <path id="DejaVuSans-61" d="M 2194 1759 
Q 1497 1759 1228 1600 
Q 959 1441 959 1056 
Q 959 750 1161 570 
Q 1363 391 1709 391 
Q 2188 391 2477 730 
Q 2766 1069 2766 1631 
L 2766 1759 
L 2194 1759 
z
M 3341 1997 
L 3341 0 
L 2766 0 
L 2766 531 
Q 2569 213 2275 61 
Q 1981 -91 1556 -91 
Q 1019 -91 701 211 
Q 384 513 384 1019 
Q 384 1609 779 1909 
Q 1175 2209 1959 2209 
L 2766 2209 
L 2766 2266 
Q 2766 2663 2505 2880 
Q 2244 3097 1772 3097 
Q 1472 3097 1187 3025 
Q 903 2953 641 2809 
L 641 3341 
Q 956 3463 1253 3523 
Q 1550 3584 1831 3584 
Q 2591 3584 2966 3190 
Q 3341 2797 3341 1997 
z
" transform="scale(0.015625)"/>
      <path id="DejaVuSans-6e" d="M 3513 2113 
L 3513 0 
L 2938 0 
L 2938 2094 
Q 2938 2591 2744 2837 
Q 2550 3084 2163 3084 
Q 1697 3084 1428 2787 
Q 1159 2491 1159 1978 
L 1159 0 
L 581 0 
L 581 3500 
L 1159 3500 
L 1159 2956 
Q 1366 3272 1645 3428 
Q 1925 3584 2291 3584 
Q 2894 3584 3203 3211 
Q 3513 2838 3513 2113 
z
" transform="scale(0.015625)"/>
      <path id="DejaVuSans-64" d="M 2906 2969 
L 2906 4863 
L 3481 4863 
L 3481 0 
L 2906 0 
L 2906 525 
Q 2725 213 2448 61 
Q 2172 -91 1784 -91 
Q 1150 -91 751 415 
Q 353 922 353 1747 
Q 353 2572 751 3078 
Q 1150 3584 1784 3584 
Q 2172 3584 2448 3432 
Q 2725 3281 2906 2969 
z
M 947 1747 
Q 947 1113 1208 752 
Q 1469 391 1925 391 
Q 2381 391 2643 752 
Q 2906 1113 2906 1747 
Q 2906 2381 2643 2742 
Q 2381 3103 1925 3103 
Q 1469 3103 1208 2742 
Q 947 2381 947 1747 
z
" transform="scale(0.015625)"/>
      <path id="DejaVuSans-20" transform="scale(0.015625)"/>
     </defs>
     <use xlink:href="#DejaVuSans-42"/>
     <use xlink:href="#DejaVuSans-61" transform="translate(68.603516 0)"/>
     <use xlink:href="#DejaVuSans-6e" transform="translate(129.882812 0)"/>
     <use xlink:href="#DejaVuSans-64" transform="translate(193.261719 0)"/>
     <use xlink:href="#DejaVuSans-20" transform="translate(256.738281 0)"/>
     <use xlink:href="#DejaVuSans-32" transform="translate(288.525391 0)"/>
     <use xlink:href="#DejaVuSans-30" transform="translate(352.148438 0)"/>
     <use xlink:href="#DejaVuSans-30" transform="translate(415.771484 0)"/>
     <use xlink:href="#DejaVuSans-30" transform="translate(479.394531 0)"/>
     <use xlink:href="#DejaVuSans-30" transform="translate(543.017578 0)"/>
    </g>
   </g>
   <g id="text_12">
    <g clip-path="url(#p9767a6ced1)">
     <!-- 22.5 -->
     <g transform="translate(320.223523 123.584894) rotate(-270.316123) scale(0.09 -0.09)">
      <defs>
       <path id="DejaVuSans-2e" d="M 684 794 
L 1344 794 
L 1344 0 
L 684 0 
L 684 794 
z
" transform="scale(0.015625)"/>
      </defs>
      <use xlink:href="#DejaVuSans-32"/>
      <use xlink:href="#DejaVuSans-32" transform="translate(63.623047 0)"/>
      <use xlink:href="#DejaVuSans-2e" transform="translate(127.246094 0)"/>
      <use xlink:href="#DejaVuSans-35" transform="translate(159.033203 0)"/>
     </g>
    </g>
   </g>
   <g id="text_13">
    <g clip-path="url(#p9767a6ced1)">
     <!-- 22.5 -->
     <g transform="translate(91.739504 143.625698) rotate(-89.635507) scale(0.09 -0.09)">
      <use xlink:href="#DejaVuSans-32"/>
      <use xlink:href="#DejaVuSans-32" transform="translate(63.623047 0)"/>
      <use xlink:href="#DejaVuSans-2e" transform="translate(127.246094 0)"/>
      <use xlink:href="#DejaVuSans-35" transform="translate(159.033203 0)"/>
     </g>
    </g>
   </g>
   <g id="text_14">
    <g clip-path="url(#p9767a6ced1)">
     <!-- 24.0 -->
     <g transform="translate(316.910316 123.602782) rotate(-270.714378) scale(0.09 -0.09)">
      <use xlink:href="#DejaVuSans-32"/>
      <use xlink:href="#DejaVuSans-34" transform="translate(63.623047 0)"/>
      <use xlink:href="#DejaVuSans-2e" transform="translate(127.246094 0)"/>
      <use xlink:href="#DejaVuSans-30" transform="translate(159.033203 0)"/>
     </g>
    </g>
   </g>
   <g id="text_15">
    <g clip-path="url(#p9767a6ced1)">
     <!-- 24.0 -->
     <g transform="translate(94.955723 143.644766) rotate(-89.176348) scale(0.09 -0.09)">
      <use xlink:href="#DejaVuSans-32"/>
      <use xlink:href="#DejaVuSans-34" transform="translate(63.623047 0)"/>
      <use xlink:href="#DejaVuSans-2e" transform="translate(127.246094 0)"/>
      <use xlink:href="#DejaVuSans-30" transform="translate(159.033203 0)"/>
     </g>
    </g>
   </g>
   <g id="text_16">
    <g clip-path="url(#p9767a6ced1)">
     <!-- 25.5 -->
     <g transform="translate(313.597255 123.621146) rotate(-271.112521) scale(0.09 -0.09)">
      <use xlink:href="#DejaVuSans-32"/>
      <use xlink:href="#DejaVuSans-35" transform="translate(63.623047 0)"/>
      <use xlink:href="#DejaVuSans-2e" transform="translate(127.246094 0)"/>
      <use xlink:href="#DejaVuSans-35" transform="translate(159.033203 0)"/>
     </g>
    </g>
   </g>
   <g id="text_17">
    <g clip-path="url(#p9767a6ced1)">
     <!-- 25.5 -->
     <g transform="translate(98.171828 143.66318) rotate(-88.717394) scale(0.09 -0.09)">
      <use xlink:href="#DejaVuSans-32"/>
      <use xlink:href="#DejaVuSans-35" transform="translate(63.623047 0)"/>
      <use xlink:href="#DejaVuSans-2e" transform="translate(127.246094 0)"/>
      <use xlink:href="#DejaVuSans-35" transform="translate(159.033203 0)"/>
     </g>
    </g>
   </g>
   <g id="text_18">
    <g clip-path="url(#p9767a6ced1)">
     <!-- 27.0 -->
     <g transform="translate(310.284353 123.639984) rotate(-271.51049) scale(0.09 -0.09)">
      <defs>
       <path id="DejaVuSans-37" d="M 525 4666 
L 3525 4666 
L 3525 4397 
L 1831 0 
L 1172 0 
L 2766 4134 
L 525 4134 
L 525 4666 
z
" transform="scale(0.015625)"/>
      </defs>
      <use xlink:href="#DejaVuSans-32"/>
      <use xlink:href="#DejaVuSans-37" transform="translate(63.623047 0)"/>
      <use xlink:href="#DejaVuSans-2e" transform="translate(127.246094 0)"/>
      <use xlink:href="#DejaVuSans-30" transform="translate(159.033203 0)"/>
     </g>
    </g>
   </g>
   <g id="text_19">
    <g clip-path="url(#p9767a6ced1)">
     <!-- 27.0 -->
     <g transform="translate(101.387844 143.680936) rotate(-88.25876) scale(0.09 -0.09)">
      <use xlink:href="#DejaVuSans-32"/>
      <use xlink:href="#DejaVuSans-37" transform="translate(63.623047 0)"/>
      <use xlink:href="#DejaVuSans-2e" transform="translate(127.246094 0)"/>
      <use xlink:href="#DejaVuSans-30" transform="translate(159.033203 0)"/>
     </g>
    </g>
   </g>
   <g id="text_20">
    <g clip-path="url(#p9767a6ced1)">
     <!-- 28.5 -->
     <g transform="translate(306.971624 123.659291) rotate(-271.908224) scale(0.09 -0.09)">
      <defs>
       <path id="DejaVuSans-38" d="M 2034 2216 
Q 1584 2216 1326 1975 
Q 1069 1734 1069 1313 
Q 1069 891 1326 650 
Q 1584 409 2034 409 
Q 2484 409 2743 651 
Q 3003 894 3003 1313 
Q 3003 1734 2745 1975 
Q 2488 2216 2034 2216 
z
M 1403 2484 
Q 997 2584 770 2862 
Q 544 3141 544 3541 
Q 544 4100 942 4425 
Q 1341 4750 2034 4750 
Q 2731 4750 3128 4425 
Q 3525 4100 3525 3541 
Q 3525 3141 3298 2862 
Q 3072 2584 2669 2484 
Q 3125 2378 3379 2068 
Q 3634 1759 3634 1313 
Q 3634 634 3220 271 
Q 2806 -91 2034 -91 
Q 1263 -91 848 271 
Q 434 634 434 1313 
Q 434 1759 690 2068 
Q 947 2378 1403 2484 
z
M 1172 3481 
Q 1172 3119 1398 2916 
Q 1625 2713 2034 2713 
Q 2441 2713 2670 2916 
Q 2900 3119 2900 3481 
Q 2900 3844 2670 4047 
Q 2441 4250 2034 4250 
Q 1625 4250 1398 4047 
Q 1172 3844 1172 3481 
z
" transform="scale(0.015625)"/>
      </defs>
      <use xlink:href="#DejaVuSans-32"/>
      <use xlink:href="#DejaVuSans-38" transform="translate(63.623047 0)"/>
      <use xlink:href="#DejaVuSans-2e" transform="translate(127.246094 0)"/>
      <use xlink:href="#DejaVuSans-35" transform="translate(159.033203 0)"/>
     </g>
    </g>
   </g>
   <g id="text_21">
    <g clip-path="url(#p9767a6ced1)">
     <!-- 28.5 -->
     <g transform="translate(105.85056 123.25773) rotate(-87.456744) scale(0.09 -0.09)">
      <use xlink:href="#DejaVuSans-32"/>
      <use xlink:href="#DejaVuSans-38" transform="translate(63.623047 0)"/>
      <use xlink:href="#DejaVuSans-2e" transform="translate(127.246094 0)"/>
      <use xlink:href="#DejaVuSans-35" transform="translate(159.033203 0)"/>
     </g>
    </g>
   </g>
   <g id="text_22">
    <g clip-path="url(#p9767a6ced1)">
     <!-- 30.0 -->
     <g transform="translate(303.659082 123.679061) rotate(-272.305661) scale(0.09 -0.09)">
      <defs>
       <path id="DejaVuSans-33" d="M 2597 2516 
Q 3050 2419 3304 2112 
Q 3559 1806 3559 1356 
Q 3559 666 3084 287 
Q 2609 -91 1734 -91 
Q 1441 -91 1130 -33 
Q 819 25 488 141 
L 488 750 
Q 750 597 1062 519 
Q 1375 441 1716 441 
Q 2309 441 2620 675 
Q 2931 909 2931 1356 
Q 2931 1769 2642 2001 
Q 2353 2234 1838 2234 
L 1294 2234 
L 1294 2753 
L 1863 2753 
Q 2328 2753 2575 2939 
Q 2822 3125 2822 3475 
Q 2822 3834 2567 4026 
Q 2313 4219 1838 4219 
Q 1578 4219 1281 4162 
Q 984 4106 628 3988 
L 628 4550 
Q 988 4650 1302 4700 
Q 1616 4750 1894 4750 
Q 2613 4750 3031 4423 
Q 3450 4097 3450 3541 
Q 3450 3153 3228 2886 
Q 3006 2619 2597 2516 
z
" transform="scale(0.015625)"/>
      </defs>
      <use xlink:href="#DejaVuSans-33"/>
      <use xlink:href="#DejaVuSans-30" transform="translate(63.623047 0)"/>
      <use xlink:href="#DejaVuSans-2e" transform="translate(127.246094 0)"/>
      <use xlink:href="#DejaVuSans-30" transform="translate(159.033203 0)"/>
     </g>
    </g>
   </g>
   <g id="text_23">
    <g clip-path="url(#p9767a6ced1)">
     <!-- 30.0 -->
     <g transform="translate(101.798557 144.324399) rotate(-276.25067) scale(0.09 -0.09)">
      <use xlink:href="#DejaVuSans-33"/>
      <use xlink:href="#DejaVuSans-30" transform="translate(63.623047 0)"/>
      <use xlink:href="#DejaVuSans-2e" transform="translate(127.246094 0)"/>
      <use xlink:href="#DejaVuSans-30" transform="translate(159.033203 0)"/>
     </g>
    </g>
   </g>
   <g id="text_24">
    <g clip-path="url(#p9767a6ced1)">
     <!-- 31.5 -->
     <g transform="translate(307.010296 164.096249) rotate(-88.469747) scale(0.09 -0.09)">
      <defs>
       <path id="DejaVuSans-31" d="M 794 531 
L 1825 531 
L 1825 4091 
L 703 3866 
L 703 4441 
L 1819 4666 
L 2450 4666 
L 2450 531 
L 3481 531 
L 3481 0 
L 794 0 
L 794 531 
z
" transform="scale(0.015625)"/>
      </defs>
      <use xlink:href="#DejaVuSans-33"/>
      <use xlink:href="#DejaVuSans-31" transform="translate(63.623047 0)"/>
      <use xlink:href="#DejaVuSans-2e" transform="translate(127.246094 0)"/>
      <use xlink:href="#DejaVuSans-35" transform="translate(159.033203 0)"/>
     </g>
    </g>
   </g>
   <g id="text_25">
    <g clip-path="url(#p9767a6ced1)">
     <!-- 31.5 -->
     <g transform="translate(111.891514 127.378446) rotate(-83.453079) scale(0.09 -0.09)">
      <use xlink:href="#DejaVuSans-33"/>
      <use xlink:href="#DejaVuSans-31" transform="translate(63.623047 0)"/>
      <use xlink:href="#DejaVuSans-2e" transform="translate(127.246094 0)"/>
      <use xlink:href="#DejaVuSans-35" transform="translate(159.033203 0)"/>
     </g>
    </g>
   </g>
   <g id="text_26">
    <g clip-path="url(#p9767a6ced1)">
     <!-- 33.0 -->
     <g transform="translate(299.80561 123.261258) rotate(-87.357055) scale(0.09 -0.09)">
      <use xlink:href="#DejaVuSans-33"/>
      <use xlink:href="#DejaVuSans-33" transform="translate(63.623047 0)"/>
      <use xlink:href="#DejaVuSans-2e" transform="translate(127.246094 0)"/>
      <use xlink:href="#DejaVuSans-30" transform="translate(159.033203 0)"/>
     </g>
    </g>
   </g>
   <g id="text_27">
    <g clip-path="url(#p9767a6ced1)">
     <!-- 33.0 -->
     <g transform="translate(121.879774 123.351903) rotate(-84.400719) scale(0.09 -0.09)">
      <use xlink:href="#DejaVuSans-33"/>
      <use xlink:href="#DejaVuSans-33" transform="translate(63.623047 0)"/>
      <use xlink:href="#DejaVuSans-2e" transform="translate(127.246094 0)"/>
      <use xlink:href="#DejaVuSans-30" transform="translate(159.033203 0)"/>
     </g>
    </g>
   </g>
   <g id="text_28">
    <g clip-path="url(#p9767a6ced1)">
     <!-- 34.5 -->
     <g transform="translate(289.609511 123.751247) rotate(-273.682784) scale(0.09 -0.09)">
      <use xlink:href="#DejaVuSans-33"/>
      <use xlink:href="#DejaVuSans-34" transform="translate(63.623047 0)"/>
      <use xlink:href="#DejaVuSans-2e" transform="translate(127.246094 0)"/>
      <use xlink:href="#DejaVuSans-35" transform="translate(159.033203 0)"/>
     </g>
    </g>
   </g>
   <g id="text_29">
    <g clip-path="url(#p9767a6ced1)">
     <!-- 34.5 -->
     <g transform="translate(131.771057 143.779179) rotate(-85.324916) scale(0.09 -0.09)">
      <use xlink:href="#DejaVuSans-33"/>
      <use xlink:href="#DejaVuSans-34" transform="translate(63.623047 0)"/>
      <use xlink:href="#DejaVuSans-2e" transform="translate(127.246094 0)"/>
      <use xlink:href="#DejaVuSans-35" transform="translate(159.033203 0)"/>
     </g>
    </g>
   </g>
   <g id="text_30">
    <g clip-path="url(#p9767a6ced1)">
     <!-- 36.0 -->
     <g transform="translate(288.115989 164.284394) rotate(-81.848887) scale(0.09 -0.09)">
      <defs>
       <path id="DejaVuSans-36" d="M 2113 2584 
Q 1688 2584 1439 2293 
Q 1191 2003 1191 1497 
Q 1191 994 1439 701 
Q 1688 409 2113 409 
Q 2538 409 2786 701 
Q 3034 994 3034 1497 
Q 3034 2003 2786 2293 
Q 2538 2584 2113 2584 
z
M 3366 4563 
L 3366 3988 
Q 3128 4100 2886 4159 
Q 2644 4219 2406 4219 
Q 1781 4219 1451 3797 
Q 1122 3375 1075 2522 
Q 1259 2794 1537 2939 
Q 1816 3084 2150 3084 
Q 2853 3084 3261 2657 
Q 3669 2231 3669 1497 
Q 3669 778 3244 343 
Q 2819 -91 2113 -91 
Q 1303 -91 875 529 
Q 447 1150 447 2328 
Q 447 3434 972 4092 
Q 1497 4750 2381 4750 
Q 2619 4750 2861 4703 
Q 3103 4656 3366 4563 
z
" transform="scale(0.015625)"/>
      </defs>
      <use xlink:href="#DejaVuSans-33"/>
      <use xlink:href="#DejaVuSans-36" transform="translate(63.623047 0)"/>
      <use xlink:href="#DejaVuSans-2e" transform="translate(127.246094 0)"/>
      <use xlink:href="#DejaVuSans-30" transform="translate(159.033203 0)"/>
     </g>
    </g>
   </g>
   <g id="text_31">
    <g clip-path="url(#p9767a6ced1)">
     <!-- 36.0 -->
     <g transform="translate(138.932995 123.202502) rotate(-88.918183) scale(0.09 -0.09)">
      <use xlink:href="#DejaVuSans-33"/>
      <use xlink:href="#DejaVuSans-36" transform="translate(63.623047 0)"/>
      <use xlink:href="#DejaVuSans-2e" transform="translate(127.246094 0)"/>
      <use xlink:href="#DejaVuSans-30" transform="translate(159.033203 0)"/>
     </g>
    </g>
   </g>
   <g id="text_32">
    <g clip-path="url(#p9767a6ced1)">
     <!-- 37.5 -->
     <g transform="translate(272.008289 183.704647) rotate(-73.203504) scale(0.09 -0.09)">
      <use xlink:href="#DejaVuSans-33"/>
      <use xlink:href="#DejaVuSans-37" transform="translate(63.623047 0)"/>
      <use xlink:href="#DejaVuSans-2e" transform="translate(127.246094 0)"/>
      <use xlink:href="#DejaVuSans-35" transform="translate(159.033203 0)"/>
     </g>
    </g>
   </g>
   <g id="text_33">
    <g clip-path="url(#p9767a6ced1)">
     <!-- 39.0 -->
     <g transform="translate(251.718091 200.187118) rotate(-49.486855) scale(0.09 -0.09)">
      <defs>
       <path id="DejaVuSans-39" d="M 703 97 
L 703 672 
Q 941 559 1184 500 
Q 1428 441 1663 441 
Q 2288 441 2617 861 
Q 2947 1281 2994 2138 
Q 2813 1869 2534 1725 
Q 2256 1581 1919 1581 
Q 1219 1581 811 2004 
Q 403 2428 403 3163 
Q 403 3881 828 4315 
Q 1253 4750 1959 4750 
Q 2769 4750 3195 4129 
Q 3622 3509 3622 2328 
Q 3622 1225 3098 567 
Q 2575 -91 1691 -91 
Q 1453 -91 1209 -44 
Q 966 3 703 97 
z
M 1959 2075 
Q 2384 2075 2632 2365 
Q 2881 2656 2881 3163 
Q 2881 3666 2632 3958 
Q 2384 4250 1959 4250 
Q 1534 4250 1286 3958 
Q 1038 3666 1038 3163 
Q 1038 2656 1286 2365 
Q 1534 2075 1959 2075 
z
" transform="scale(0.015625)"/>
      </defs>
      <use xlink:href="#DejaVuSans-33"/>
      <use xlink:href="#DejaVuSans-39" transform="translate(63.623047 0)"/>
      <use xlink:href="#DejaVuSans-2e" transform="translate(127.246094 0)"/>
      <use xlink:href="#DejaVuSans-30" transform="translate(159.033203 0)"/>
     </g>
    </g>
   </g>
   <g id="text_34">
    <g clip-path="url(#p9767a6ced1)">
     <!-- 40.5 -->
     <g transform="translate(195.790175 196.830931) rotate(-353.77148) scale(0.09 -0.09)">
      <use xlink:href="#DejaVuSans-34"/>
      <use xlink:href="#DejaVuSans-30" transform="translate(63.623047 0)"/>
      <use xlink:href="#DejaVuSans-2e" transform="translate(127.246094 0)"/>
      <use xlink:href="#DejaVuSans-35" transform="translate(159.033203 0)"/>
     </g>
    </g>
   </g>
   <g id="text_35">
    <g clip-path="url(#p9767a6ced1)">
     <!-- 42.0 -->
     <g transform="translate(163.621392 160.787034) rotate(-27.084763) scale(0.09 -0.09)">
      <use xlink:href="#DejaVuSans-34"/>
      <use xlink:href="#DejaVuSans-32" transform="translate(63.623047 0)"/>
      <use xlink:href="#DejaVuSans-2e" transform="translate(127.246094 0)"/>
      <use xlink:href="#DejaVuSans-30" transform="translate(159.033203 0)"/>
     </g>
    </g>
   </g>
   <g id="text_36">
    <g clip-path="url(#p9767a6ced1)">
     <!-- 43.5 -->
     <g transform="translate(195.704893 163.011138) rotate(-348.279303) scale(0.09 -0.09)">
      <use xlink:href="#DejaVuSans-34"/>
      <use xlink:href="#DejaVuSans-33" transform="translate(63.623047 0)"/>
      <use xlink:href="#DejaVuSans-2e" transform="translate(127.246094 0)"/>
      <use xlink:href="#DejaVuSans-35" transform="translate(159.033203 0)"/>
     </g>
    </g>
   </g>
   <g id="text_37">
    <g clip-path="url(#p9767a6ced1)">
     <!-- 45.0 -->
     <g transform="translate(228.865987 145.404473) rotate(-70.423317) scale(0.09 -0.09)">
      <use xlink:href="#DejaVuSans-34"/>
      <use xlink:href="#DejaVuSans-35" transform="translate(63.623047 0)"/>
      <use xlink:href="#DejaVuSans-2e" transform="translate(127.246094 0)"/>
      <use xlink:href="#DejaVuSans-30" transform="translate(159.033203 0)"/>
     </g>
    </g>
   </g>
  </g>
 </g>
 <defs>
  <clipPath id="p9767a6ced1">
   <rect x="62.84" y="26.88" width="286.36" height="213.4"/>
  </clipPath>
 </defs>
</svg>
