<?xml version="1.0" encoding="utf-8" standalone="no"?>
<!DOCTYPE svg PUBLIC "-//W3C//DTD SVG 1.1//EN"
  "http://www.w3.org/Graphics/SVG/1.1/DTD/svg11.dtd">
<svg xmlns:xlink="http://www.w3.org/1999/xlink" width="360pt" height="288pt" viewBox="0 0 360 288" xmlns="http://www.w3.org/2000/svg" version="1.1">
 <metadata>
  <rdf:RDF xmlns:dc="http://purl.org/dc/elements/1.1/" xmlns:cc="http://creativecommons.org/ns#" xmlns:rdf="http://www.w3.org/1999/02/22-rdf-syntax-ns#">
   <cc:Work>
    <dc:type rdf:resource="http://purl.org/dc/dcmitype/StillImage"/>
    <dc:date>2025-10-02T17:14:33.422632</dc:date>
    <dc:format>image/svg+xml</dc:format>
    <dc:creator>
     <cc:Agent>
      <dc:title>Matplotlib v3.10.6, https://matplotlib.org/</dc:title>
     </cc:Agent>
    </dc:creator>
   </cc:Work>
  </rdf:RDF>
 </metadata>
 <defs>
  <style type="text/css">*{stroke-linejoin: round; stroke-linecap: butt}</style>
 </defs>
 <g id="figure_1">
  <g id="patch_1">
   <path d="M 0 288 
L 360 288 
L 360 0 
L 0 0 
z
" style="fill: #ffffff"/>
  </g>
  <g id="axes_1">
   <g id="patch_2">
    <path d="M 62.84 240.28 
L 349.2 240.28 
L 349.2 26.88 
L 62.84 26.88 
z
" style="fill: #ffffff"/>
   </g>
   <g id="QuadContourSet_1">
    <path d="M 86.703333 26.88 
L 87.564866 26.88 
L 87.486194 36.380776 
L 87.506488 47.600163 
L 87.498564 60.808896 
L 87.901739 76.198006 
L 87.589073 93.757994 
L 87.736206 113.137869 
L 87.810268 133.590571 
L 87.586516 154.013971 
L 88.225213 173.39493 
L 87.831558 190.956403 
L 88.090738 206.347113 
L 88.239134 219.557363 
L 88.274336 230.778089 
L 87.960373 240.28 
L 86.703333 240.28 
L 62.84 240.28 
L 62.84 230.778089 
L 62.84 219.557363 
L 62.84 206.347113 
L 62.84 190.956403 
L 62.84 173.39493 
L 62.84 154.013971 
L 62.84 133.590571 
L 62.84 113.137869 
L 62.84 93.757994 
L 62.84 76.198006 
L 62.84 60.808896 
L 62.84 47.600163 
L 62.84 36.380776 
L 62.84 26.88 
z
M 325.336667 26.88 
L 349.2 26.88 
L 349.2 36.380776 
L 349.2 47.600163 
L 349.2 60.808896 
L 349.2 76.198006 
L 349.2 93.757994 
L 349.2 113.137869 
L 349.2 133.590571 
L 349.2 154.013971 
L 349.2 173.39493 
L 349.2 190.956403 
L 349.2 206.347113 
L 349.2 219.557363 
L 349.2 230.778089 
L 349.2 240.28 
L 325.336667 240.28 
L 324.145568 240.28 
L 324.309492 230.778089 
L 324.177424 219.557363 
L 324.162176 206.347113 
L 324.353738 190.956403 
L 324.220898 173.39493 
L 324.345703 154.013971 
L 324.337436 133.590571 
L 324.369863 113.137869 
L 324.495598 93.757994 
L 324.321638 76.198006 
L 324.370585 60.808896 
L 324.482189 47.600163 
L 324.539985 36.380776 
L 324.302461 26.88 
z
" clip-path="url(#pd6f8c27397)" style="fill: #460a5d"/>
    <path d="M 89.071733 36.380776 
L 89.13313 47.600163 
L 89.109157 60.808896 
L 90.328889 76.198006 
L 89.382975 93.757994 
L 89.828101 113.137869 
L 90.05216 133.590571 
L 89.37524 154.013971 
L 91.307499 173.39493 
L 90.116569 190.956403 
L 90.900671 206.347113 
L 91.349615 219.557363 
L 91.456114 230.778089 
L 90.506276 240.28 
L 87.960373 240.28 
L 88.274336 230.778089 
L 88.239134 219.557363 
L 88.090738 206.347113 
L 87.831558 190.956403 
L 88.225213 173.39493 
L 87.586516 154.013971 
L 87.810268 133.590571 
L 87.736206 113.137869 
L 87.589073 93.757994 
L 87.901739 76.198006 
L 87.498564 60.808896 
L 87.506488 47.600163 
L 87.486194 36.380776 
L 87.564866 26.88 
L 89.309741 26.88 
z
M 324.539985 36.380776 
L 324.482189 47.600163 
L 324.370585 60.808896 
L 324.321638 76.198006 
L 324.495598 93.757994 
L 324.369863 113.137869 
L 324.337436 133.590571 
L 324.345703 154.013971 
L 324.220898 173.39493 
L 324.353738 190.956403 
L 324.162176 206.347113 
L 324.177424 219.557363 
L 324.309492 230.778089 
L 324.145568 240.28 
L 321.733216 240.28 
L 322.229138 230.778089 
L 321.829591 219.557363 
L 321.78346 206.347113 
L 322.362998 190.956403 
L 321.961115 173.39493 
L 322.338689 154.013971 
L 322.313679 133.590571 
L 322.411782 113.137869 
L 322.792167 93.757994 
L 322.265885 76.198006 
L 322.413963 60.808896 
L 322.751601 47.600163 
L 322.926454 36.380776 
L 322.207867 26.88 
L 324.302461 26.88 
z
" clip-path="url(#pd6f8c27397)" style="fill: #481d6f"/>
    <path d="M 90.657273 36.380776 
L 90.759772 47.600163 
L 90.71975 60.808896 
L 92.756038 76.198006 
L 91.176878 93.757994 
L 91.919995 113.137869 
L 92.294053 133.590571 
L 91.163964 154.013971 
L 94.389785 173.39493 
L 92.40158 190.956403 
L 93.710605 206.347113 
L 94.460096 219.557363 
L 94.637892 230.778089 
L 93.052179 240.28 
L 90.506276 240.28 
L 91.456114 230.778089 
L 91.349615 219.557363 
L 90.900671 206.347113 
L 90.116569 190.956403 
L 91.307499 173.39493 
L 89.37524 154.013971 
L 90.05216 133.590571 
L 89.828101 113.137869 
L 89.382975 93.757994 
L 90.328889 76.198006 
L 89.109157 60.808896 
L 89.13313 47.600163 
L 89.071733 36.380776 
L 89.309741 26.88 
L 91.054617 26.88 
z
M 322.926454 36.380776 
L 322.751601 47.600163 
L 322.413963 60.808896 
L 322.265885 76.198006 
L 322.792167 93.757994 
L 322.411782 113.137869 
L 322.313679 133.590571 
L 322.338689 154.013971 
L 321.961115 173.39493 
L 322.362998 190.956403 
L 321.78346 206.347113 
L 321.829591 219.557363 
L 322.229138 230.778089 
L 321.733216 240.28 
L 319.320864 240.28 
L 320.148784 230.778089 
L 319.481759 219.557363 
L 319.404745 206.347113 
L 320.372257 190.956403 
L 319.701331 173.39493 
L 320.331675 154.013971 
L 320.289922 133.590571 
L 320.4537 113.137869 
L 321.088737 93.757994 
L 320.210133 76.198006 
L 320.457342 60.808896 
L 321.021013 47.600163 
L 321.312922 36.380776 
L 320.113273 26.88 
L 322.207867 26.88 
z
" clip-path="url(#pd6f8c27397)" style="fill: #472e7c"/>
    <path d="M 92.242813 36.380776 
L 92.386415 47.600163 
L 92.330343 60.808896 
L 95.183188 76.198006 
L 92.97078 93.757994 
L 94.01189 113.137869 
L 94.535945 133.590571 
L 92.952688 154.013971 
L 97.472072 173.39493 
L 94.686591 190.956403 
L 96.520538 206.347113 
L 97.570577 219.557363 
L 97.81967 230.778089 
L 95.598082 240.28 
L 93.052179 240.28 
L 94.637892 230.778089 
L 94.460096 219.557363 
L 93.710605 206.347113 
L 92.40158 190.956403 
L 94.389785 173.39493 
L 91.163964 154.013971 
L 92.294053 133.590571 
L 91.919995 113.137869 
L 91.176878 93.757994 
L 92.756038 76.198006 
L 90.71975 60.808896 
L 90.759772 47.600163 
L 90.657273 36.380776 
L 91.054617 26.88 
L 92.799493 26.88 
z
M 321.312922 36.380776 
L 321.021013 47.600163 
L 320.457342 60.808896 
L 320.210133 76.198006 
L 321.088737 93.757994 
L 320.4537 113.137869 
L 320.289922 133.590571 
L 320.331675 154.013971 
L 319.701331 173.39493 
L 320.372257 190.956403 
L 319.404745 206.347113 
L 319.481759 219.557363 
L 320.148784 230.778089 
L 319.320864 240.28 
L 316.908513 240.28 
L 318.06843 230.778089 
L 317.133926 219.557363 
L 317.02603 206.347113 
L 318.381516 190.956403 
L 317.441548 173.39493 
L 318.324661 154.013971 
L 318.266165 133.590571 
L 318.495618 113.137869 
L 319.385307 93.757994 
L 318.15438 76.198006 
L 318.50072 60.808896 
L 319.290425 47.600163 
L 319.69939 36.380776 
L 318.018679 26.88 
L 320.113273 26.88 
z
" clip-path="url(#pd6f8c27397)" style="fill: #423f85"/>
    <path d="M 93.828352 36.380776 
L 94.013057 47.600163 
L 93.940936 60.808896 
L 97.610338 76.198006 
L 94.764682 93.757994 
L 96.103785 113.137869 
L 96.777837 133.590571 
L 94.741413 154.013971 
L 100.554358 173.39493 
L 96.971602 190.956403 
L 99.330471 206.347113 
L 100.681058 219.557363 
L 101.001448 230.778089 
L 98.143985 240.28 
L 95.598082 240.28 
L 97.81967 230.778089 
L 97.570577 219.557363 
L 96.520538 206.347113 
L 94.686591 190.956403 
L 97.472072 173.39493 
L 92.952688 154.013971 
L 94.535945 133.590571 
L 94.01189 113.137869 
L 92.97078 93.757994 
L 95.183188 76.198006 
L 92.330343 60.808896 
L 92.386415 47.600163 
L 92.242813 36.380776 
L 92.799493 26.88 
L 94.544368 26.88 
z
M 319.69939 36.380776 
L 319.290425 47.600163 
L 318.50072 60.808896 
L 318.15438 76.198006 
L 319.385307 93.757994 
L 318.495618 113.137869 
L 318.266165 133.590571 
L 318.324661 154.013971 
L 317.441548 173.39493 
L 318.381516 190.956403 
L 317.02603 206.347113 
L 317.133926 219.557363 
L 318.06843 230.778089 
L 316.908513 240.28 
L 314.496161 240.28 
L 315.988076 230.778089 
L 314.786093 219.557363 
L 314.647315 206.347113 
L 316.390776 190.956403 
L 315.181764 173.39493 
L 316.317647 154.013971 
L 316.242408 133.590571 
L 316.537536 113.137869 
L 317.681876 93.757994 
L 316.098627 76.198006 
L 316.544099 60.808896 
L 317.559838 47.600163 
L 318.085859 36.380776 
L 315.924085 26.88 
L 318.018679 26.88 
z
" clip-path="url(#pd6f8c27397)" style="fill: #3d4e8a"/>
    <path d="M 95.413892 36.380776 
L 95.639699 47.600163 
L 95.55153 60.808896 
L 100.037488 76.198006 
L 96.558585 93.757994 
L 98.195679 113.137869 
L 99.01973 133.590571 
L 96.530137 154.013971 
L 103.636645 173.39493 
L 99.256613 190.956403 
L 102.140404 206.347113 
L 103.791539 219.557363 
L 104.183225 230.778089 
L 100.689888 240.28 
L 98.143985 240.28 
L 101.001448 230.778089 
L 100.681058 219.557363 
L 99.330471 206.347113 
L 96.971602 190.956403 
L 100.554358 173.39493 
L 94.741413 154.013971 
L 96.777837 133.590571 
L 96.103785 113.137869 
L 94.764682 93.757994 
L 97.610338 76.198006 
L 93.940936 60.808896 
L 94.013057 47.600163 
L 93.828352 36.380776 
L 94.544368 26.88 
L 96.289244 26.88 
z
M 318.085859 36.380776 
L 317.559838 47.600163 
L 316.544099 60.808896 
L 316.098627 76.198006 
L 317.681876 93.757994 
L 316.537536 113.137869 
L 316.242408 133.590571 
L 316.317647 154.013971 
L 315.181764 173.39493 
L 316.390776 190.956403 
L 314.647315 206.347113 
L 314.786093 219.557363 
L 315.988076 230.778089 
L 314.496161 240.28 
L 312.083809 240.28 
L 313.907722 230.778089 
L 312.438261 219.557363 
L 312.268599 206.347113 
L 314.400035 190.956403 
L 312.921981 173.39493 
L 314.310633 154.013971 
L 314.218651 133.590571 
L 314.579454 113.137869 
L 315.978446 93.757994 
L 314.042874 76.198006 
L 314.587477 60.808896 
L 315.82925 47.600163 
L 316.472327 36.380776 
L 313.829491 26.88 
L 315.924085 26.88 
z
" clip-path="url(#pd6f8c27397)" style="fill: #365d8d"/>
    <path d="M 96.999432 36.380776 
L 97.266341 47.600163 
L 97.162123 60.808896 
L 102.464637 76.198006 
L 98.352487 93.757994 
L 100.287574 113.137869 
L 101.261622 133.590571 
L 98.318861 154.013971 
L 106.718931 173.39493 
L 101.541624 190.956403 
L 104.950337 206.347113 
L 106.90202 219.557363 
L 107.365003 230.778089 
L 103.23579 240.28 
L 100.689888 240.28 
L 104.183225 230.778089 
L 103.791539 219.557363 
L 102.140404 206.347113 
L 99.256613 190.956403 
L 103.636645 173.39493 
L 96.530137 154.013971 
L 99.01973 133.590571 
L 98.195679 113.137869 
L 96.558585 93.757994 
L 100.037488 76.198006 
L 95.55153 60.808896 
L 95.639699 47.600163 
L 95.413892 36.380776 
L 96.289244 26.88 
L 98.034119 26.88 
z
M 316.472327 36.380776 
L 315.82925 47.600163 
L 314.587477 60.808896 
L 314.042874 76.198006 
L 315.978446 93.757994 
L 314.579454 113.137869 
L 314.218651 133.590571 
L 314.310633 154.013971 
L 312.921981 173.39493 
L 314.400035 190.956403 
L 312.268599 206.347113 
L 312.438261 219.557363 
L 313.907722 230.778089 
L 312.083809 240.28 
L 309.671458 240.28 
L 311.827368 230.778089 
L 310.090428 219.557363 
L 309.889884 206.347113 
L 312.409294 190.956403 
L 310.662197 173.39493 
L 312.303619 154.013971 
L 312.194893 133.590571 
L 312.621372 113.137869 
L 314.275016 93.757994 
L 311.987121 76.198006 
L 312.630856 60.808896 
L 314.098662 47.600163 
L 314.858795 36.380776 
L 311.734897 26.88 
L 313.829491 26.88 
z
" clip-path="url(#pd6f8c27397)" style="fill: #306a8e"/>
    <path d="M 98.584971 36.380776 
L 98.892983 47.600163 
L 98.772716 60.808896 
L 104.891787 76.198006 
L 100.146389 93.757994 
L 102.379468 113.137869 
L 103.503515 133.590571 
L 100.107585 154.013971 
L 109.801217 173.39493 
L 103.826635 190.956403 
L 107.760271 206.347113 
L 110.012501 219.557363 
L 110.546781 230.778089 
L 105.781693 240.28 
L 103.23579 240.28 
L 107.365003 230.778089 
L 106.90202 219.557363 
L 104.950337 206.347113 
L 101.541624 190.956403 
L 106.718931 173.39493 
L 98.318861 154.013971 
L 101.261622 133.590571 
L 100.287574 113.137869 
L 98.352487 93.757994 
L 102.464637 76.198006 
L 97.162123 60.808896 
L 97.266341 47.600163 
L 96.999432 36.380776 
L 98.034119 26.88 
L 99.778995 26.88 
z
M 314.858795 36.380776 
L 314.098662 47.600163 
L 312.630856 60.808896 
L 311.987121 76.198006 
L 314.275016 93.757994 
L 312.621372 113.137869 
L 312.194893 133.590571 
L 312.303619 154.013971 
L 310.662197 173.39493 
L 312.409294 190.956403 
L 309.889884 206.347113 
L 310.090428 219.557363 
L 311.827368 230.778089 
L 309.671458 240.28 
L 307.259106 240.28 
L 309.747014 230.778089 
L 307.742596 219.557363 
L 307.511169 206.347113 
L 310.418554 190.956403 
L 308.402414 173.39493 
L 310.296605 154.013971 
L 310.171136 133.590571 
L 310.66329 113.137869 
L 312.571585 93.757994 
L 309.931368 76.198006 
L 310.674234 60.808896 
L 312.368074 47.600163 
L 313.245263 36.380776 
L 309.640303 26.88 
L 311.734897 26.88 
z
" clip-path="url(#pd6f8c27397)" style="fill: #2a778e"/>
    <path d="M 100.170511 36.380776 
L 100.519625 47.600163 
L 100.383309 60.808896 
L 107.318937 76.198006 
L 101.940292 93.757994 
L 104.471363 113.137869 
L 105.745407 133.590571 
L 101.896309 154.013971 
L 110.566667 170.793 
L 119.895488 173.39493 
L 110.566667 178.281513 
L 106.111646 190.956403 
L 110.566667 206.337182 
L 110.583683 206.347113 
L 124.197018 219.557363 
L 131.860919 230.778089 
L 110.566667 235.818861 
L 108.327596 240.28 
L 105.781693 240.28 
L 110.546781 230.778089 
L 110.012501 219.557363 
L 107.760271 206.347113 
L 103.826635 190.956403 
L 109.801217 173.39493 
L 100.107585 154.013971 
L 103.503515 133.590571 
L 102.379468 113.137869 
L 100.146389 93.757994 
L 104.891787 76.198006 
L 98.772716 60.808896 
L 98.892983 47.600163 
L 98.584971 36.380776 
L 99.778995 26.88 
L 101.52387 26.88 
z
M 313.245263 36.380776 
L 312.368074 47.600163 
L 310.674234 60.808896 
L 309.931368 76.198006 
L 312.571585 93.757994 
L 310.66329 113.137869 
L 310.171136 133.590571 
L 310.296605 154.013971 
L 308.402414 173.39493 
L 310.418554 190.956403 
L 307.511169 206.347113 
L 307.742596 219.557363 
L 309.747014 230.778089 
L 307.259106 240.28 
L 304.846754 240.28 
L 307.66666 230.778089 
L 305.394763 219.557363 
L 305.132453 206.347113 
L 308.427813 190.956403 
L 306.14263 173.39493 
L 308.289592 154.013971 
L 308.147379 133.590571 
L 308.705208 113.137869 
L 310.868155 93.757994 
L 307.875615 76.198006 
L 308.717613 60.808896 
L 310.637487 47.600163 
L 311.631732 36.380776 
L 307.545709 26.88 
L 309.640303 26.88 
z
" clip-path="url(#pd6f8c27397)" style="fill: #25838e"/>
    <path d="M 101.756051 36.380776 
L 102.146268 47.600163 
L 101.993902 60.808896 
L 109.746086 76.198006 
L 103.734194 93.757994 
L 106.563257 113.137869 
L 107.987299 133.590571 
L 103.685033 154.013971 
L 110.566667 167.331429 
L 132.306415 173.39493 
L 110.566667 184.782551 
L 108.396657 190.956403 
L 110.566667 198.448274 
L 124.101347 206.347113 
L 134.43 215.146565 
L 147.077611 219.557363 
L 158.293333 226.630538 
L 167.498131 230.778089 
L 158.293333 232.04503 
L 134.43 237.987236 
L 117.749055 240.28 
L 110.566667 240.28 
L 108.327596 240.28 
L 110.566667 235.818861 
L 131.860919 230.778089 
L 124.197018 219.557363 
L 110.583683 206.347113 
L 110.566667 206.337182 
L 106.111646 190.956403 
L 110.566667 178.281513 
L 119.895488 173.39493 
L 110.566667 170.793 
L 101.896309 154.013971 
L 105.745407 133.590571 
L 104.471363 113.137869 
L 101.940292 93.757994 
L 107.318937 76.198006 
L 100.383309 60.808896 
L 100.519625 47.600163 
L 100.170511 36.380776 
L 101.52387 26.88 
L 103.268746 26.88 
z
M 311.631732 36.380776 
L 310.637487 47.600163 
L 308.717613 60.808896 
L 307.875615 76.198006 
L 310.868155 93.757994 
L 308.705208 113.137869 
L 308.147379 133.590571 
L 308.289592 154.013971 
L 306.14263 173.39493 
L 308.427813 190.956403 
L 305.132453 206.347113 
L 305.394763 219.557363 
L 307.66666 230.778089 
L 304.846754 240.28 
L 302.434403 240.28 
L 305.586306 230.778089 
L 303.04693 219.557363 
L 302.753738 206.347113 
L 306.437072 190.956403 
L 303.882847 173.39493 
L 306.282578 154.013971 
L 306.123622 133.590571 
L 306.747126 113.137869 
L 309.164725 93.757994 
L 305.819862 76.198006 
L 306.760992 60.808896 
L 308.906899 47.600163 
L 310.0182 36.380776 
L 305.451115 26.88 
L 307.545709 26.88 
z
" clip-path="url(#pd6f8c27397)" style="fill: #21908d"/>
    <path d="M 103.34159 36.380776 
L 103.77291 47.600163 
L 103.604495 60.808896 
L 110.566667 74.154474 
L 134.43 76.074061 
L 134.811119 76.198006 
L 134.43 76.30418 
L 110.566667 79.547028 
L 105.528097 93.757994 
L 108.655152 113.137869 
L 110.229192 133.590571 
L 105.473757 154.013971 
L 110.566667 163.869859 
L 134.43 170.173975 
L 144.870773 173.39493 
L 134.43 177.914381 
L 111.058415 190.956403 
L 134.43 204.965442 
L 143.019865 206.347113 
L 158.293333 211.478804 
L 173.569226 206.347113 
L 182.156667 205.065843 
L 186.017404 206.347113 
L 193.341932 219.557363 
L 196.362579 230.778089 
L 195.308991 240.28 
L 182.156667 240.28 
L 168.024541 240.28 
L 158.293333 238.406489 
L 151.366512 240.28 
L 134.43 240.28 
L 117.749055 240.28 
L 134.43 237.987236 
L 158.293333 232.04503 
L 167.498131 230.778089 
L 158.293333 226.630538 
L 147.077611 219.557363 
L 134.43 215.146565 
L 124.101347 206.347113 
L 110.566667 198.448274 
L 108.396657 190.956403 
L 110.566667 184.782551 
L 132.306415 173.39493 
L 110.566667 167.331429 
L 103.685033 154.013971 
L 107.987299 133.590571 
L 106.563257 113.137869 
L 103.734194 93.757994 
L 109.746086 76.198006 
L 101.993902 60.808896 
L 102.146268 47.600163 
L 101.756051 36.380776 
L 103.268746 26.88 
L 105.013622 26.88 
z
M 310.0182 36.380776 
L 308.906899 47.600163 
L 306.760992 60.808896 
L 305.819862 76.198006 
L 309.164725 93.757994 
L 306.747126 113.137869 
L 306.123622 133.590571 
L 306.282578 154.013971 
L 303.882847 173.39493 
L 306.437072 190.956403 
L 302.753738 206.347113 
L 303.04693 219.557363 
L 305.586306 230.778089 
L 302.434403 240.28 
L 301.473333 240.28 
L 283.910693 240.28 
L 301.473333 236.658956 
L 303.505952 230.778089 
L 301.473333 222.388827 
L 294.600469 219.557363 
L 293.893295 206.347113 
L 301.473333 202.71245 
L 304.446332 190.956403 
L 301.623063 173.39493 
L 304.275564 154.013971 
L 304.099865 133.590571 
L 304.789044 113.137869 
L 307.461294 93.757994 
L 303.764109 76.198006 
L 304.80437 60.808896 
L 307.176311 47.600163 
L 308.404668 36.380776 
L 303.356521 26.88 
L 305.451115 26.88 
z
M 229.883333 236.505143 
L 235.695452 240.28 
L 229.883333 240.28 
L 221.565386 240.28 
z
" clip-path="url(#pd6f8c27397)" style="fill: #1e9d89"/>
    <path d="M 104.92713 36.380776 
L 105.399552 47.600163 
L 105.215089 60.808896 
L 110.566667 71.067176 
L 134.43 72.087236 
L 147.070225 76.198006 
L 134.43 79.719387 
L 110.566667 84.606616 
L 107.321999 93.757994 
L 110.566667 112.256007 
L 111.598881 113.137869 
L 119.075909 133.590571 
L 110.566667 140.024007 
L 107.262481 154.013971 
L 110.566667 160.408289 
L 134.43 166.288128 
L 157.466804 173.39493 
L 134.43 183.366768 
L 120.82921 190.956403 
L 134.43 199.108781 
L 158.293333 203.173869 
L 182.156667 199.632369 
L 202.389624 206.347113 
L 206.02 211.188208 
L 229.883333 211.085858 
L 253.746667 214.216434 
L 277.27018 206.347113 
L 277.61 206.270854 
L 301.473333 194.840519 
L 302.455591 190.956403 
L 301.473333 184.884837 
L 289.012995 173.39493 
L 301.473333 159.787902 
L 302.26855 154.013971 
L 302.076108 133.590571 
L 302.830962 113.137869 
L 305.757864 93.757994 
L 301.708356 76.198006 
L 302.847749 60.808896 
L 305.445723 47.600163 
L 306.791137 36.380776 
L 301.473333 27.162308 
L 299.755624 26.88 
L 301.473333 26.88 
L 303.356521 26.88 
L 308.404668 36.380776 
L 307.176311 47.600163 
L 304.80437 60.808896 
L 303.764109 76.198006 
L 307.461294 93.757994 
L 304.789044 113.137869 
L 304.099865 133.590571 
L 304.275564 154.013971 
L 301.623063 173.39493 
L 304.446332 190.956403 
L 301.473333 202.71245 
L 293.893295 206.347113 
L 294.600469 219.557363 
L 301.473333 222.388827 
L 303.505952 230.778089 
L 301.473333 236.658956 
L 283.910693 240.28 
L 277.61 240.28 
L 253.746667 240.28 
L 235.695452 240.28 
L 229.883333 236.505143 
L 221.565386 240.28 
L 206.02 240.28 
L 195.308991 240.28 
L 196.362579 230.778089 
L 193.341932 219.557363 
L 186.017404 206.347113 
L 182.156667 205.065843 
L 173.569226 206.347113 
L 158.293333 211.478804 
L 143.019865 206.347113 
L 134.43 204.965442 
L 111.058415 190.956403 
L 134.43 177.914381 
L 144.870773 173.39493 
L 134.43 170.173975 
L 110.566667 163.869859 
L 105.473757 154.013971 
L 110.229192 133.590571 
L 108.655152 113.137869 
L 105.528097 93.757994 
L 110.566667 79.547028 
L 134.43 76.30418 
L 134.811119 76.198006 
L 134.43 76.074061 
L 110.566667 74.154474 
L 103.604495 60.808896 
L 103.77291 47.600163 
L 103.34159 36.380776 
L 105.013622 26.88 
L 106.758497 26.88 
z
M 269.115346 230.778089 
L 277.61 232.453027 
L 298.602846 230.778089 
L 277.61 225.437798 
z
M 158.293333 238.406489 
L 168.024541 240.28 
L 158.293333 240.28 
L 151.366512 240.28 
z
" clip-path="url(#pd6f8c27397)" style="fill: #23a983"/>
    <path d="M 106.51267 36.380776 
L 107.026194 47.600163 
L 106.825682 60.808896 
L 110.566667 67.979878 
L 134.43 68.100412 
L 158.293333 75.807395 
L 160.072416 76.198006 
L 158.293333 76.55153 
L 134.43 83.134594 
L 110.566667 89.666203 
L 109.115901 93.757994 
L 110.566667 102.02888 
L 123.569668 113.137869 
L 129.093045 133.590571 
L 110.566667 147.597489 
L 109.051206 154.013971 
L 110.566667 156.946718 
L 134.43 162.402282 
L 158.293333 168.817415 
L 182.156667 168.536014 
L 202.824802 173.39493 
L 182.156667 183.877918 
L 158.293333 180.958505 
L 134.43 188.819155 
L 130.600006 190.956403 
L 134.43 193.25212 
L 158.293333 197.707713 
L 182.156667 194.198894 
L 206.02 199.976325 
L 229.883333 200.532625 
L 253.746667 202.569799 
L 277.61 196.893877 
L 290.86707 190.956403 
L 277.61 176.676168 
L 274.218655 173.39493 
L 277.61 171.535899 
L 294.178372 154.013971 
L 292.296637 133.590571 
L 298.120809 113.137869 
L 301.473333 109.875921 
L 304.054434 93.757994 
L 301.473333 82.675733 
L 289.09504 76.198006 
L 289.663629 60.808896 
L 301.473333 58.341565 
L 303.715135 47.600163 
L 305.177605 36.380776 
L 301.473333 29.959382 
L 282.736756 26.88 
L 299.755624 26.88 
L 301.473333 27.162308 
L 306.791137 36.380776 
L 305.445723 47.600163 
L 302.847749 60.808896 
L 301.708356 76.198006 
L 305.757864 93.757994 
L 302.830962 113.137869 
L 302.076108 133.590571 
L 302.26855 154.013971 
L 301.473333 159.787902 
L 289.012995 173.39493 
L 301.473333 184.884837 
L 302.455591 190.956403 
L 301.473333 194.840519 
L 277.61 206.270854 
L 277.27018 206.347113 
L 253.746667 214.216434 
L 229.883333 211.085858 
L 206.02 211.188208 
L 202.389624 206.347113 
L 182.156667 199.632369 
L 158.293333 203.173869 
L 134.43 199.108781 
L 120.82921 190.956403 
L 134.43 183.366768 
L 157.466804 173.39493 
L 134.43 166.288128 
L 110.566667 160.408289 
L 107.262481 154.013971 
L 110.566667 140.024007 
L 119.075909 133.590571 
L 111.598881 113.137869 
L 110.566667 112.256007 
L 107.321999 93.757994 
L 110.566667 84.606616 
L 134.43 79.719387 
L 147.070225 76.198006 
L 134.43 72.087236 
L 110.566667 71.067176 
L 105.215089 60.808896 
L 105.399552 47.600163 
L 104.92713 36.380776 
L 106.758497 26.88 
L 108.503373 26.88 
z
M 277.61 225.437798 
L 298.602846 230.778089 
L 277.61 232.453027 
L 269.115346 230.778089 
z
" clip-path="url(#pd6f8c27397)" style="fill: #32b67a"/>
    <path d="M 108.098209 36.380776 
L 108.652836 47.600163 
L 108.436275 60.808896 
L 110.566667 64.89258 
L 134.43 64.113587 
L 158.293333 71.185247 
L 181.124551 76.198006 
L 158.293333 80.734824 
L 134.43 86.5498 
L 112.549627 93.757994 
L 134.43 112.321964 
L 135.90664 113.137869 
L 142.235639 133.590571 
L 134.43 139.459423 
L 113.346482 154.013971 
L 134.43 158.516435 
L 158.293333 163.918438 
L 182.156667 163.038159 
L 206.02 167.924652 
L 229.883333 163.599472 
L 253.746667 172.125253 
L 277.61 158.758416 
L 282.096248 154.013971 
L 279.227228 133.590571 
L 287.188209 113.137869 
L 301.473333 99.238688 
L 302.351003 93.757994 
L 301.473333 89.989613 
L 277.61 77.661708 
L 274.023461 76.198006 
L 263.701634 60.808896 
L 277.61 56.409869 
L 301.473333 50.049602 
L 301.984548 47.600163 
L 303.564073 36.380776 
L 301.473333 32.756456 
L 277.61 29.788722 
L 266.184304 26.88 
L 277.61 26.88 
L 282.736756 26.88 
L 301.473333 29.959382 
L 305.177605 36.380776 
L 303.715135 47.600163 
L 301.473333 58.341565 
L 289.663629 60.808896 
L 289.09504 76.198006 
L 301.473333 82.675733 
L 304.054434 93.757994 
L 301.473333 109.875921 
L 298.120809 113.137869 
L 292.296637 133.590571 
L 294.178372 154.013971 
L 277.61 171.535899 
L 274.218655 173.39493 
L 277.61 176.676168 
L 290.86707 190.956403 
L 277.61 196.893877 
L 253.746667 202.569799 
L 229.883333 200.532625 
L 206.02 199.976325 
L 182.156667 194.198894 
L 158.293333 197.707713 
L 134.43 193.25212 
L 130.600006 190.956403 
L 134.43 188.819155 
L 158.293333 180.958505 
L 182.156667 183.877918 
L 202.824802 173.39493 
L 182.156667 168.536014 
L 158.293333 168.817415 
L 134.43 162.402282 
L 110.566667 156.946718 
L 109.051206 154.013971 
L 110.566667 147.597489 
L 129.093045 133.590571 
L 123.569668 113.137869 
L 110.566667 102.02888 
L 109.115901 93.757994 
L 110.566667 89.666203 
L 134.43 83.134594 
L 158.293333 76.55153 
L 160.072416 76.198006 
L 158.293333 75.807395 
L 134.43 68.100412 
L 110.566667 67.979878 
L 106.825682 60.808896 
L 107.026194 47.600163 
L 106.51267 36.380776 
L 108.503373 26.88 
L 110.248248 26.88 
z
M 151.638904 190.956403 
L 158.293333 192.241556 
L 167.082461 190.956403 
L 158.293333 189.053242 
z
M 201.206866 190.956403 
L 206.02 191.790388 
L 229.883333 191.062498 
L 253.746667 193.926762 
L 265.289854 190.956403 
L 253.746667 177.988226 
L 229.883333 190.748886 
L 206.02 189.102827 
z
" clip-path="url(#pd6f8c27397)" style="fill: #48c16e"/>
    <path d="M 110.566667 26.88 
L 134.43 26.88 
L 142.874541 26.88 
L 134.43 28.358482 
L 110.566667 32.531323 
L 109.683749 36.380776 
L 110.279478 47.600163 
L 110.046868 60.808896 
L 110.566667 61.805282 
L 126.162163 60.808896 
L 134.43 59.716796 
L 137.313399 60.808896 
L 158.293333 66.563099 
L 182.156667 68.80881 
L 206.02 74.766517 
L 226.911199 60.808896 
L 229.883333 59.889804 
L 253.746667 57.625678 
L 277.61 50.092126 
L 286.174412 47.600163 
L 301.473333 39.697777 
L 301.950542 36.380776 
L 301.473333 35.55353 
L 277.61 33.95141 
L 253.746667 27.893762 
L 229.883333 29.757859 
L 206.02 28.798424 
L 182.156667 28.101501 
L 174.739378 26.88 
L 182.156667 26.88 
L 206.02 26.88 
L 229.883333 26.88 
L 253.746667 26.88 
L 266.184304 26.88 
L 277.61 29.788722 
L 301.473333 32.756456 
L 303.564073 36.380776 
L 301.984548 47.600163 
L 301.473333 50.049602 
L 277.61 56.409869 
L 263.701634 60.808896 
L 274.023461 76.198006 
L 277.61 77.661708 
L 301.473333 89.989613 
L 302.351003 93.757994 
L 301.473333 99.238688 
L 287.188209 113.137869 
L 279.227228 133.590571 
L 282.096248 154.013971 
L 277.61 158.758416 
L 253.746667 172.125253 
L 229.883333 163.599472 
L 206.02 167.924652 
L 182.156667 163.038159 
L 158.293333 163.918438 
L 134.43 158.516435 
L 113.346482 154.013971 
L 134.43 139.459423 
L 142.235639 133.590571 
L 135.90664 113.137869 
L 134.43 112.321964 
L 112.549627 93.757994 
L 134.43 86.5498 
L 158.293333 80.734824 
L 181.124551 76.198006 
L 158.293333 71.185247 
L 134.43 64.113587 
L 110.566667 64.89258 
L 108.436275 60.808896 
L 108.652836 47.600163 
L 108.098209 36.380776 
L 110.248248 26.88 
z
M 253.400152 76.198006 
L 229.883333 79.248769 
L 206.02 76.899151 
L 182.156667 80.126719 
L 158.293333 84.918118 
L 134.43 89.965007 
L 122.91644 93.757994 
L 134.43 103.526446 
L 151.824928 113.137869 
L 158.293333 131.806023 
L 182.156667 131.979866 
L 206.02 133.580116 
L 229.883333 115.509639 
L 241.378678 113.137869 
L 253.746667 112.754961 
L 277.61 110.922937 
L 293.466828 93.757994 
L 277.61 85.873805 
L 253.901187 76.198006 
L 253.746667 75.965975 
z
M 242.418597 133.590571 
L 232.305815 154.013971 
L 253.746667 161.694758 
L 266.61963 154.013971 
L 259.718718 133.590571 
L 253.746667 115.900572 
z
M 131.542591 154.013971 
L 134.43 154.630588 
L 158.293333 159.019461 
L 182.156667 157.540303 
L 206.02 161.588701 
L 228.330672 154.013971 
L 206.02 133.595879 
L 182.156667 136.185364 
L 158.293333 134.338585 
L 134.43 152.020711 
z
M 158.293333 189.053242 
L 167.082461 190.956403 
L 158.293333 192.241556 
L 151.638904 190.956403 
z
M 206.02 189.102827 
L 229.883333 190.748886 
L 253.746667 177.988226 
L 265.289854 190.956403 
L 253.746667 193.926762 
L 229.883333 191.062498 
L 206.02 191.790388 
L 201.206866 190.956403 
z
" clip-path="url(#pd6f8c27397)" style="fill: #65cb5e"/>
    <path d="M 110.566667 32.531323 
L 134.43 28.358482 
L 142.874541 26.88 
L 158.293333 26.88 
L 174.739378 26.88 
L 182.156667 28.101501 
L 206.02 28.798424 
L 229.883333 29.757859 
L 253.746667 27.893762 
L 277.61 33.95141 
L 301.473333 35.55353 
L 301.950542 36.380776 
L 301.473333 39.697777 
L 286.174412 47.600163 
L 277.61 50.092126 
L 253.746667 57.625678 
L 229.883333 59.889804 
L 226.911199 60.808896 
L 206.02 74.766517 
L 182.156667 68.80881 
L 158.293333 66.563099 
L 137.313399 60.808896 
L 134.43 59.716796 
L 126.162163 60.808896 
L 110.566667 61.805282 
L 110.046868 60.808896 
L 110.279478 47.600163 
L 109.683749 36.380776 
z
M 116.467176 36.380776 
L 121.979695 47.600163 
L 134.43 53.333864 
L 154.165838 60.808896 
L 158.293333 61.940951 
L 182.156667 61.03867 
L 206.02 62.866547 
L 209.099808 60.808896 
L 229.883333 54.381872 
L 253.746667 51.279836 
L 265.419601 47.600163 
L 270.613416 36.380776 
L 253.746667 32.129203 
L 229.883333 33.451168 
L 206.02 32.069614 
L 182.156667 31.527799 
L 158.293333 28.538888 
L 134.43 31.773597 
z
M 253.746667 75.965975 
L 253.901187 76.198006 
L 277.61 85.873805 
L 293.466828 93.757994 
L 277.61 110.922937 
L 253.746667 112.754961 
L 241.378678 113.137869 
L 229.883333 115.509639 
L 206.02 133.580116 
L 182.156667 131.979866 
L 158.293333 131.806023 
L 151.824928 113.137869 
L 134.43 103.526446 
L 122.91644 93.757994 
L 134.43 89.965007 
L 158.293333 84.918118 
L 182.156667 80.126719 
L 206.02 76.899151 
L 229.883333 79.248769 
L 253.400152 76.198006 
z
M 133.283253 93.757994 
L 134.43 94.730929 
L 158.293333 106.39722 
L 178.954432 113.137869 
L 182.156667 114.72543 
L 186.690535 113.137869 
L 206.02 109.810474 
L 229.883333 105.520387 
L 253.746667 104.372457 
L 276.880506 93.757994 
L 253.746667 83.913077 
L 229.883333 85.102631 
L 206.02 82.727772 
L 182.156667 84.257974 
L 158.293333 89.101412 
L 134.43 93.380214 
z
M 253.746667 115.900572 
L 259.718718 133.590571 
L 266.61963 154.013971 
L 253.746667 161.694758 
L 232.305815 154.013971 
L 242.418597 133.590571 
z
M 134.43 152.020711 
L 158.293333 134.338585 
L 182.156667 136.185364 
L 206.02 133.595879 
L 228.330672 154.013971 
L 206.02 161.588701 
L 182.156667 157.540303 
L 158.293333 159.019461 
L 134.43 154.630588 
L 131.542591 154.013971 
z
M 157.692176 154.013971 
L 158.293333 154.120484 
L 159.657463 154.013971 
L 158.293333 153.595294 
z
M 197.599975 154.013971 
L 206.02 155.25275 
L 209.668709 154.013971 
L 206.02 150.674777 
z
" clip-path="url(#pd6f8c27397)" style="fill: #84d44b"/>
    <path d="M 134.43 31.773597 
L 158.293333 28.538888 
L 182.156667 31.527799 
L 206.02 32.069614 
L 229.883333 33.451168 
L 253.746667 32.129203 
L 270.613416 36.380776 
L 265.419601 47.600163 
L 253.746667 51.279836 
L 229.883333 54.381872 
L 209.099808 60.808896 
L 206.02 62.866547 
L 182.156667 61.03867 
L 158.293333 61.940951 
L 154.165838 60.808896 
L 134.43 53.333864 
L 121.979695 47.600163 
L 116.467176 36.380776 
z
M 129.782291 36.380776 
L 134.43 45.068566 
L 142.915882 47.600163 
L 158.293333 50.191824 
L 182.156667 53.598587 
L 206.02 54.61908 
L 229.883333 48.873939 
L 238.355293 47.600163 
L 229.883333 41.676938 
L 220.478961 36.380776 
L 206.02 35.340805 
L 182.156667 34.954097 
L 158.826105 36.380776 
L 158.293333 36.931169 
L 157.660511 36.380776 
L 134.43 35.188712 
z
M 253.315055 36.380776 
L 253.746667 36.481573 
L 253.810666 36.380776 
L 253.746667 36.364643 
z
M 134.43 93.380214 
L 158.293333 89.101412 
L 182.156667 84.257974 
L 206.02 82.727772 
L 229.883333 85.102631 
L 253.746667 83.913077 
L 276.880506 93.757994 
L 253.746667 104.372457 
L 229.883333 105.520387 
L 206.02 109.810474 
L 186.690535 113.137869 
L 182.156667 114.72543 
L 178.954432 113.137869 
L 158.293333 106.39722 
L 134.43 94.730929 
L 133.283253 93.757994 
z
M 155.600283 93.757994 
L 158.293333 95.042624 
L 182.156667 105.166663 
L 206.02 101.327977 
L 229.883333 97.565155 
L 253.746667 95.989953 
L 258.611141 93.757994 
L 253.746667 91.687852 
L 229.883333 90.956493 
L 206.02 88.556393 
L 182.156667 88.389228 
L 158.293333 93.284707 
z
M 158.293333 153.595294 
L 159.657463 154.013971 
L 158.293333 154.120484 
L 157.692176 154.013971 
z
M 206.02 150.674777 
L 209.668709 154.013971 
L 206.02 155.25275 
L 197.599975 154.013971 
z
" clip-path="url(#pd6f8c27397)" style="fill: #a8db34"/>
    <path d="M 134.43 35.188712 
L 157.660511 36.380776 
L 158.293333 36.931169 
L 158.826105 36.380776 
L 182.156667 34.954097 
L 206.02 35.340805 
L 220.478961 36.380776 
L 229.883333 41.676938 
L 238.355293 47.600163 
L 229.883333 48.873939 
L 206.02 54.61908 
L 182.156667 53.598587 
L 158.293333 50.191824 
L 142.915882 47.600163 
L 134.43 45.068566 
L 129.782291 36.380776 
z
M 253.746667 36.364643 
L 253.810666 36.380776 
L 253.746667 36.481573 
L 253.315055 36.380776 
z
M 158.293333 93.284707 
L 182.156667 88.389228 
L 206.02 88.556393 
L 229.883333 90.956493 
L 253.746667 91.687852 
L 258.611141 93.757994 
L 253.746667 95.989953 
L 229.883333 97.565155 
L 206.02 101.327977 
L 182.156667 105.166663 
L 158.293333 95.042624 
L 155.600283 93.757994 
z
M 176.131582 93.757994 
L 182.156667 96.387715 
L 199.7145 93.757994 
L 182.156667 92.520483 
z
" clip-path="url(#pd6f8c27397)" style="fill: #cae11f"/>
    <path d="M 182.156667 92.520483 
L 199.7145 93.757994 
L 182.156667 96.387715 
L 176.131582 93.757994 
z
" clip-path="url(#pd6f8c27397)" style="fill: #efe51c"/>
   </g>
   <g id="matplotlib.axis_1">
    <g id="xtick_1">
     <g id="line2d_1">
      <defs>
       <path id="m127d60a7df" d="M 0 0 
L 0 3.5 
" style="stroke: #000000; stroke-width: 0.8"/>
      </defs>
      <g>
       <use xlink:href="#m127d60a7df" x="126.475556" y="240.28" style="stroke: #000000; stroke-width: 0.8"/>
      </g>
     </g>
     <g id="text_1">
      <!-- −50 -->
      <g transform="translate(113.812743 256.398125) scale(0.12 -0.12)">
       <defs>
        <path id="DejaVuSans-2212" d="M 678 2272 
L 4684 2272 
L 4684 1741 
L 678 1741 
L 678 2272 
z
" transform="scale(0.015625)"/>
        <path id="DejaVuSans-35" d="M 691 4666 
L 3169 4666 
L 3169 4134 
L 1269 4134 
L 1269 2991 
Q 1406 3038 1543 3061 
Q 1681 3084 1819 3084 
Q 2600 3084 3056 2656 
Q 3513 2228 3513 1497 
Q 3513 744 3044 326 
Q 2575 -91 1722 -91 
Q 1428 -91 1123 -41 
Q 819 9 494 109 
L 494 744 
Q 775 591 1075 516 
Q 1375 441 1709 441 
Q 2250 441 2565 725 
Q 2881 1009 2881 1497 
Q 2881 1984 2565 2268 
Q 2250 2553 1709 2553 
Q 1456 2553 1204 2497 
Q 953 2441 691 2322 
L 691 4666 
z
" transform="scale(0.015625)"/>
        <path id="DejaVuSans-30" d="M 2034 4250 
Q 1547 4250 1301 3770 
Q 1056 3291 1056 2328 
Q 1056 1369 1301 889 
Q 1547 409 2034 409 
Q 2525 409 2770 889 
Q 3016 1369 3016 2328 
Q 3016 3291 2770 3770 
Q 2525 4250 2034 4250 
z
M 2034 4750 
Q 2819 4750 3233 4129 
Q 3647 3509 3647 2328 
Q 3647 1150 3233 529 
Q 2819 -91 2034 -91 
Q 1250 -91 836 529 
Q 422 1150 422 2328 
Q 422 3509 836 4129 
Q 1250 4750 2034 4750 
z
" transform="scale(0.015625)"/>
       </defs>
       <use xlink:href="#DejaVuSans-2212"/>
       <use xlink:href="#DejaVuSans-35" transform="translate(83.789062 0)"/>
       <use xlink:href="#DejaVuSans-30" transform="translate(147.412109 0)"/>
      </g>
     </g>
    </g>
    <g id="xtick_2">
     <g id="line2d_2">
      <g>
       <use xlink:href="#m127d60a7df" x="206.02" y="240.28" style="stroke: #000000; stroke-width: 0.8"/>
      </g>
     </g>
     <g id="text_2">
      <!-- 0 -->
      <g transform="translate(202.2025 256.398125) scale(0.12 -0.12)">
       <use xlink:href="#DejaVuSans-30"/>
      </g>
     </g>
    </g>
    <g id="xtick_3">
     <g id="line2d_3">
      <g>
       <use xlink:href="#m127d60a7df" x="285.564444" y="240.28" style="stroke: #000000; stroke-width: 0.8"/>
      </g>
     </g>
     <g id="text_3">
      <!-- 50 -->
      <g transform="translate(277.929444 256.398125) scale(0.12 -0.12)">
       <use xlink:href="#DejaVuSans-35"/>
       <use xlink:href="#DejaVuSans-30" transform="translate(63.623047 0)"/>
      </g>
     </g>
    </g>
    <g id="text_4">
     <!-- $\Theta^{\circ}$ -->
     <g transform="translate(198.4 272.011875) scale(0.12 -0.12)">
      <defs>
       <path id="DejaVuSans-398" d="M 1416 2750 
L 3622 2750 
L 3622 2219 
L 1416 2219 
L 1416 2750 
z
M 2522 4238 
Q 1834 4238 1431 3725 
Q 1025 3213 1025 2328 
Q 1025 1447 1429 934 
Q 1834 422 2522 422 
Q 3209 422 3613 934 
Q 4013 1447 4013 2328 
Q 4013 3213 3613 3725 
Q 3209 4238 2522 4238 
z
M 2522 4750 
Q 3503 4750 4090 4092 
Q 4678 3434 4678 2328 
Q 4678 1225 4091 569 
Q 3503 -91 2522 -91 
Q 1538 -91 950 566 
Q 359 1222 359 2328 
Q 359 3434 950 4094 
Q 1538 4750 2522 4750 
z
" transform="scale(0.015625)"/>
       <path id="DejaVuSans-2218" d="M 2000 2619 
Q 1750 2619 1578 2445 
Q 1406 2272 1406 2022 
Q 1406 1775 1578 1605 
Q 1750 1435 2000 1435 
Q 2250 1435 2422 1605 
Q 2594 1775 2594 2022 
Q 2594 2269 2420 2444 
Q 2247 2619 2000 2619 
z
M 2000 3022 
Q 2200 3022 2384 2945 
Q 2569 2869 2703 2725 
Q 2847 2585 2919 2406 
Q 2991 2228 2991 2022 
Q 2991 1610 2702 1324 
Q 2413 1038 1994 1038 
Q 1572 1038 1290 1319 
Q 1009 1600 1009 2022 
Q 1009 2441 1296 2731 
Q 1584 3022 2000 3022 
z
" transform="scale(0.015625)"/>
      </defs>
      <use xlink:href="#DejaVuSans-398" transform="translate(0 0.78125)"/>
      <use xlink:href="#DejaVuSans-2218" transform="translate(79.667969 39.0625) scale(0.7)"/>
     </g>
    </g>
   </g>
   <g id="matplotlib.axis_2">
    <g id="ytick_1">
     <g id="line2d_4">
      <defs>
       <path id="m05d5060fe4" d="M 0 0 
L -3.5 0 
" style="stroke: #000000; stroke-width: 0.8"/>
      </defs>
      <g>
       <use xlink:href="#m05d5060fe4" x="62.84" y="219.984151" style="stroke: #000000; stroke-width: 0.8"/>
      </g>
     </g>
     <g id="text_5">
      <!-- −40 -->
      <g transform="translate(30.514375 224.543214) scale(0.12 -0.12)">
       <defs>
        <path id="DejaVuSans-34" d="M 2419 4116 
L 825 1625 
L 2419 1625 
L 2419 4116 
z
M 2253 4666 
L 3047 4666 
L 3047 1625 
L 3713 1625 
L 3713 1100 
L 3047 1100 
L 3047 0 
L 2419 0 
L 2419 1100 
L 313 1100 
L 313 1709 
L 2253 4666 
z
" transform="scale(0.015625)"/>
       </defs>
       <use xlink:href="#DejaVuSans-2212"/>
       <use xlink:href="#DejaVuSans-34" transform="translate(83.789062 0)"/>
       <use xlink:href="#DejaVuSans-30" transform="translate(147.412109 0)"/>
      </g>
     </g>
    </g>
    <g id="ytick_2">
     <g id="line2d_5">
      <g>
       <use xlink:href="#m05d5060fe4" x="62.84" y="176.783648" style="stroke: #000000; stroke-width: 0.8"/>
      </g>
     </g>
     <g id="text_6">
      <!-- −20 -->
      <g transform="translate(30.514375 181.342711) scale(0.12 -0.12)">
       <defs>
        <path id="DejaVuSans-32" d="M 1228 531 
L 3431 531 
L 3431 0 
L 469 0 
L 469 531 
Q 828 903 1448 1529 
Q 2069 2156 2228 2338 
Q 2531 2678 2651 2914 
Q 2772 3150 2772 3378 
Q 2772 3750 2511 3984 
Q 2250 4219 1831 4219 
Q 1534 4219 1204 4116 
Q 875 4013 500 3803 
L 500 4441 
Q 881 4594 1212 4672 
Q 1544 4750 1819 4750 
Q 2544 4750 2975 4387 
Q 3406 4025 3406 3419 
Q 3406 3131 3298 2873 
Q 3191 2616 2906 2266 
Q 2828 2175 2409 1742 
Q 1991 1309 1228 531 
z
" transform="scale(0.015625)"/>
       </defs>
       <use xlink:href="#DejaVuSans-2212"/>
       <use xlink:href="#DejaVuSans-32" transform="translate(83.789062 0)"/>
       <use xlink:href="#DejaVuSans-30" transform="translate(147.412109 0)"/>
      </g>
     </g>
    </g>
    <g id="ytick_3">
     <g id="line2d_6">
      <g>
       <use xlink:href="#m05d5060fe4" x="62.84" y="133.583145" style="stroke: #000000; stroke-width: 0.8"/>
      </g>
     </g>
     <g id="text_7">
      <!-- 0 -->
      <g transform="translate(48.205 138.142208) scale(0.12 -0.12)">
       <use xlink:href="#DejaVuSans-30"/>
      </g>
     </g>
    </g>
    <g id="ytick_4">
     <g id="line2d_7">
      <g>
       <use xlink:href="#m05d5060fe4" x="62.84" y="90.382642" style="stroke: #000000; stroke-width: 0.8"/>
      </g>
     </g>
     <g id="text_8">
      <!-- 20 -->
      <g transform="translate(40.57 94.941704) scale(0.12 -0.12)">
       <use xlink:href="#DejaVuSans-32"/>
       <use xlink:href="#DejaVuSans-30" transform="translate(63.623047 0)"/>
      </g>
     </g>
    </g>
    <g id="ytick_5">
     <g id="line2d_8">
      <g>
       <use xlink:href="#m05d5060fe4" x="62.84" y="47.182139" style="stroke: #000000; stroke-width: 0.8"/>
      </g>
     </g>
     <g id="text_9">
      <!-- 40 -->
      <g transform="translate(40.57 51.741201) scale(0.12 -0.12)">
       <use xlink:href="#DejaVuSans-34"/>
       <use xlink:href="#DejaVuSans-30" transform="translate(63.623047 0)"/>
      </g>
     </g>
    </g>
    <g id="text_10">
     <!-- $\phi^{\circ}$ -->
     <g transform="translate(23.784375 141.38) rotate(-90) scale(0.13 -0.13)">
      <defs>
       <path id="DejaVuSans-Oblique-3d5" d="M 2991 4863 
L 2738 3572 
Q 3363 3572 3684 3094 
Q 4016 2606 3850 1747 
Q 3681 888 3159 400 
Q 2653 -78 2028 -78 
L 1784 -1331 
L 1213 -1331 
L 1456 -78 
Q 834 -78 509 400 
Q 178 888 347 1747 
Q 513 2606 1034 3094 
Q 1544 3572 2166 3572 
L 2419 4863 
L 2991 4863 
z
M 2128 434 
Q 2481 434 2784 756 
Q 3116 1116 3244 1747 
Q 3369 2372 3169 2738 
Q 2991 3059 2638 3059 
L 2128 434 
z
M 1556 434 
L 2066 3059 
Q 1716 3059 1413 2738 
Q 1072 2372 953 1747 
Q 834 1116 1028 756 
Q 1203 434 1556 434 
z
" transform="scale(0.015625)"/>
      </defs>
      <use xlink:href="#DejaVuSans-Oblique-3d5" transform="translate(0 0.015625)"/>
      <use xlink:href="#DejaVuSans-2218" transform="translate(73.414505 38.296875) scale(0.7)"/>
     </g>
    </g>
   </g>
   <g id="QuadContourSet_2">
    <path clip-path="url(#pd6f8c27397)" style="fill: none; stroke-dasharray: 1.85,0.8; stroke-dashoffset: 0; stroke: #000000; stroke-width: 0.5"/>
    <path d="M 324.302461 26.88 
L 324.539985 36.380776 
L 324.482189 47.600163 
L 324.370585 60.808896 
L 324.321638 76.198006 
L 324.495598 93.757994 
L 324.369863 113.137869 
L 324.358102 120.55621 
M 324.342712 146.624945 
L 324.345703 154.013971 
L 324.220898 173.39493 
L 324.353738 190.956403 
L 324.162176 206.347113 
L 324.177424 219.557363 
L 324.309492 230.778089 
L 324.145568 240.28 
M 87.960373 240.28 
L 88.274336 230.778089 
L 88.239134 219.557363 
L 88.090738 206.347113 
L 87.831558 190.956403 
L 88.225213 173.39493 
L 87.586516 154.013971 
L 87.667475 146.624258 
M 87.763069 120.556271 
L 87.736206 113.137869 
L 87.589073 93.757994 
L 87.901739 76.198006 
L 87.498564 60.808896 
L 87.506488 47.600163 
L 87.486194 36.380776 
L 87.564866 26.88 
" clip-path="url(#pd6f8c27397)" style="fill: none; stroke-dasharray: 1.85,0.8; stroke-dashoffset: 0; stroke: #000000; stroke-width: 0.5"/>
    <path d="M 322.207867 26.88 
L 322.926454 36.380776 
L 322.751601 47.600163 
L 322.413963 60.808896 
L 322.265885 76.198006 
L 322.792167 93.757994 
L 322.411782 113.137869 
L 322.376406 120.513024 
M 322.329694 146.668241 
L 322.338689 154.013971 
L 321.961115 173.39493 
L 322.362998 190.956403 
L 321.78346 206.347113 
L 321.829591 219.557363 
L 322.229138 230.778089 
L 321.733216 240.28 
M 90.506276 240.28 
L 91.456114 230.778089 
L 91.349615 219.557363 
L 90.900671 206.347113 
L 90.116569 190.956403 
L 91.307499 173.39493 
L 89.37524 154.013971 
L 89.618918 146.66194 
M 89.908902 120.513582 
L 89.828101 113.137869 
L 89.382975 93.757994 
L 90.328889 76.198006 
L 89.109157 60.808896 
L 89.13313 47.600163 
L 89.071733 36.380776 
L 89.309741 26.88 
" clip-path="url(#pd6f8c27397)" style="fill: none; stroke-dasharray: 1.85,0.8; stroke-dashoffset: 0; stroke: #000000; stroke-width: 0.5"/>
    <path d="M 320.113273 26.88 
L 321.312922 36.380776 
L 321.021013 47.600163 
L 320.457342 60.808896 
L 320.210133 76.198006 
L 321.088737 93.757994 
L 320.4537 113.137869 
L 320.39464 120.513261 
M 320.316658 146.668225 
L 320.331675 154.013971 
L 319.701331 173.39493 
L 320.372257 190.956403 
L 319.404745 206.347113 
L 319.481759 219.557363 
L 320.148784 230.778089 
L 319.320864 240.28 
M 93.052179 240.28 
L 94.637892 230.778089 
L 94.460096 219.557363 
L 93.710605 206.347113 
L 92.40158 190.956403 
L 94.389785 173.39493 
L 91.163964 154.013971 
L 91.571397 146.650686 
M 92.054912 120.514814 
L 91.919995 113.137869 
L 91.176878 93.757994 
L 92.756038 76.198006 
L 90.71975 60.808896 
L 90.759772 47.600163 
L 90.657273 36.380776 
L 91.054617 26.88 
" clip-path="url(#pd6f8c27397)" style="fill: none; stroke-dasharray: 1.85,0.8; stroke-dashoffset: 0; stroke: #000000; stroke-width: 0.5"/>
    <path d="M 318.018679 26.88 
L 319.69939 36.380776 
L 319.290425 47.600163 
L 318.50072 60.808896 
L 318.15438 76.198006 
L 319.385307 93.757994 
L 318.495618 113.137869 
L 318.412871 120.513616 
M 318.303622 146.668202 
L 318.324661 154.013971 
L 317.441548 173.39493 
L 318.381516 190.956403 
L 317.02603 206.347113 
L 317.133926 219.557363 
L 318.06843 230.778089 
L 316.908513 240.28 
M 95.598082 240.28 
L 97.81967 230.778089 
L 97.570577 219.557363 
L 96.520538 206.347113 
L 94.686591 190.956403 
L 97.472072 173.39493 
L 92.952688 154.013971 
L 93.524808 146.633843 
M 94.200955 120.516664 
L 94.01189 113.137869 
L 92.97078 93.757994 
L 95.183188 76.198006 
L 92.330343 60.808896 
L 92.386415 47.600163 
L 92.242813 36.380776 
L 92.799493 26.88 
" clip-path="url(#pd6f8c27397)" style="fill: none; stroke-dasharray: 1.85,0.8; stroke-dashoffset: 0; stroke: #000000; stroke-width: 0.5"/>
    <path d="M 315.924085 26.88 
L 318.085859 36.380776 
L 317.559838 47.600163 
L 316.544099 60.808896 
L 316.098627 76.198006 
L 317.681876 93.757994 
L 316.537536 113.137869 
L 316.430474 120.557388 
M 316.290426 146.624868 
L 316.317647 154.013971 
L 315.181764 173.39493 
L 316.390776 190.956403 
L 314.647315 206.347113 
L 314.786093 219.557363 
L 315.988076 230.778089 
L 314.496161 240.28 
M 98.143985 240.28 
L 101.001448 230.778089 
L 100.681058 219.557363 
L 99.330471 206.347113 
L 96.971602 190.956403 
L 100.554358 173.39493 
L 94.741413 154.013971 
L 95.483817 146.568359 
M 96.348473 120.562414 
L 96.103785 113.137869 
L 94.764682 93.757994 
L 97.610338 76.198006 
L 93.940936 60.808896 
L 94.013057 47.600163 
L 93.828352 36.380776 
L 94.544368 26.88 
" clip-path="url(#pd6f8c27397)" style="fill: none; stroke-dasharray: 1.85,0.8; stroke-dashoffset: 0; stroke: #000000; stroke-width: 0.5"/>
    <path d="M 313.829491 26.88 
L 316.472327 36.380776 
L 315.82925 47.600163 
L 314.587477 60.808896 
L 314.042874 76.198006 
L 315.978446 93.757994 
L 314.579454 113.137869 
L 314.44932 120.514681 
M 314.277549 146.668133 
L 314.310633 154.013971 
L 312.921981 173.39493 
L 314.400035 190.956403 
L 312.268599 206.347113 
L 312.438261 219.557363 
L 313.907722 230.778089 
L 312.083809 240.28 
M 100.689888 240.28 
L 104.183225 230.778089 
L 103.791539 219.557363 
L 102.140404 206.347113 
L 99.256613 190.956403 
L 103.636645 173.39493 
L 96.530137 154.013971 
L 97.435884 146.583667 
M 98.493198 120.522213 
L 98.195679 113.137869 
L 96.558585 93.757994 
L 100.037488 76.198006 
L 95.55153 60.808896 
L 95.639699 47.600163 
L 95.413892 36.380776 
L 96.289244 26.88 
" clip-path="url(#pd6f8c27397)" style="fill: none; stroke-dasharray: 1.85,0.8; stroke-dashoffset: 0; stroke: #000000; stroke-width: 0.5"/>
    <path d="M 311.734897 26.88 
L 314.858795 36.380776 
L 314.098662 47.600163 
L 312.630856 60.808896 
L 311.987121 76.198006 
L 314.275016 93.757994 
L 312.621372 113.137869 
L 312.468439 120.472095 
M 312.264743 146.711389 
L 312.303619 154.013971 
L 310.662197 173.39493 
L 312.409294 190.956403 
L 309.889884 206.347113 
L 310.090428 219.557363 
L 311.827368 230.778089 
L 309.671458 240.28 
M 103.23579 240.28 
L 107.365003 230.778089 
L 106.90202 219.557363 
L 104.950337 206.347113 
L 101.541624 190.956403 
L 106.718931 173.39493 
L 98.318861 154.013971 
L 99.388068 146.593439 
M 100.637365 120.482649 
L 100.287574 113.137869 
L 98.352487 93.757994 
L 102.464637 76.198006 
L 97.162123 60.808896 
L 97.266341 47.600163 
L 96.999432 36.380776 
L 98.034119 26.88 
" clip-path="url(#pd6f8c27397)" style="fill: none; stroke-dasharray: 1.85,0.8; stroke-dashoffset: 0; stroke: #000000; stroke-width: 0.5"/>
    <path d="M 309.640303 26.88 
L 313.245263 36.380776 
L 312.368074 47.600163 
L 310.674234 60.808896 
L 309.931368 76.198006 
L 312.571585 93.757994 
L 310.66329 113.137869 
L 310.486786 120.472927 
M 310.251742 146.711335 
L 310.296605 154.013971 
L 308.402414 173.39493 
L 310.418554 190.956403 
L 307.511169 206.347113 
L 307.742596 219.557363 
L 309.747014 230.778089 
L 307.259106 240.28 
M 105.781693 240.28 
L 110.546781 230.778089 
L 110.012501 219.557363 
L 107.760271 206.347113 
L 103.826635 190.956403 
L 109.801217 173.39493 
L 100.107585 154.013971 
L 101.347843 146.554959 
M 102.783363 120.486972 
L 102.379468 113.137869 
L 100.146389 93.757994 
L 104.891787 76.198006 
L 98.772716 60.808896 
L 98.892983 47.600163 
L 98.584971 36.380776 
L 99.778995 26.88 
" clip-path="url(#pd6f8c27397)" style="fill: none; stroke-dasharray: 1.85,0.8; stroke-dashoffset: 0; stroke: #000000; stroke-width: 0.5"/>
    <path d="M 307.545709 26.88 
L 311.631732 36.380776 
L 310.637487 47.600163 
L 308.717613 60.808896 
L 307.875615 76.198006 
L 310.868155 93.757994 
L 308.705208 113.137869 
L 308.502764 120.560455 
M 308.238138 146.624668 
L 308.289592 154.013971 
L 306.14263 173.39493 
L 308.427813 190.956403 
L 305.132453 206.347113 
L 305.394763 219.557363 
L 307.66666 230.778089 
L 304.846754 240.28 
M 108.327596 240.28 
L 110.566667 235.818861 
L 131.860919 230.778089 
L 124.197018 219.557363 
L 110.583683 206.347113 
L 110.566667 206.337182 
L 106.111646 190.956403 
L 110.566667 178.281513 
L 116.255591 175.301565 
M 104.505217 159.062775 
L 101.896309 154.013971 
L 105.745407 133.590571 
L 104.471363 113.137869 
L 101.940292 93.757994 
L 107.318937 76.198006 
L 100.383309 60.808896 
L 100.519625 47.600163 
L 100.170511 36.380776 
L 101.52387 26.88 
" clip-path="url(#pd6f8c27397)" style="fill: none; stroke-dasharray: 1.85,0.8; stroke-dashoffset: 0; stroke: #000000; stroke-width: 0.5"/>
    <path d="M 305.451115 26.88 
L 310.0182 36.380776 
L 308.906899 47.600163 
L 306.760992 60.808896 
L 305.819862 76.198006 
L 309.164725 93.757994 
L 306.747126 113.137869 
L 306.523454 120.474945 
M 306.22574 146.711204 
L 306.282578 154.013971 
L 303.882847 173.39493 
L 306.437072 190.956403 
L 302.753738 206.347113 
L 303.04693 219.557363 
L 305.586306 230.778089 
L 302.434403 240.28 
M 117.749055 240.28 
L 134.43 237.987236 
L 158.293333 232.04503 
L 167.498131 230.778089 
L 158.293333 226.630538 
L 147.077611 219.557363 
L 134.43 215.146565 
L 124.101347 206.347113 
L 110.566667 198.448274 
L 108.396657 190.956403 
L 110.566667 184.782551 
L 120.089177 179.794511 
M 118.892686 169.653665 
L 110.566667 167.331429 
L 103.685033 154.013971 
L 107.987299 133.590571 
L 106.563257 113.137869 
L 103.734194 93.757994 
L 109.746086 76.198006 
L 101.993902 60.808896 
L 102.146268 47.600163 
L 101.756051 36.380776 
L 103.268746 26.88 
" clip-path="url(#pd6f8c27397)" style="fill: none; stroke-dasharray: 1.85,0.8; stroke-dashoffset: 0; stroke: #000000; stroke-width: 0.5"/>
    <path d="M 303.356521 26.88 
L 308.404668 36.380776 
L 307.176311 47.600163 
L 304.80437 60.808896 
L 303.764109 76.198006 
L 307.461294 93.757994 
L 304.789044 113.137869 
L 304.099865 133.590571 
L 304.275564 154.013971 
L 303.398334 160.423603 
M 303.702012 186.326537 
L 304.446332 190.956403 
L 301.473333 202.71245 
L 293.893295 206.347113 
L 294.600469 219.557363 
L 301.473333 222.388827 
L 303.505952 230.778089 
L 301.473333 236.658956 
L 283.910693 240.28 
M 151.366512 240.28 
L 158.293333 238.406489 
L 168.024541 240.28 
M 195.308991 240.28 
L 196.362579 230.778089 
L 193.341932 219.557363 
L 186.017404 206.347113 
L 182.156667 205.065843 
L 173.569226 206.347113 
L 158.293333 211.478804 
L 143.019865 206.347113 
L 134.43 204.965442 
L 111.058415 190.956403 
L 134.43 177.914381 
L 144.870773 173.39493 
L 134.43 170.173975 
L 123.992396 167.416612 
M 105.957396 151.936864 
L 110.229192 133.590571 
L 108.655152 113.137869 
L 105.528097 93.757994 
L 110.566667 79.547028 
L 134.43 76.30418 
L 134.811119 76.198006 
L 134.43 76.074061 
L 110.566667 74.154474 
L 103.604495 60.808896 
L 103.77291 47.600163 
L 103.34159 36.380776 
L 105.013622 26.88 
M 235.695452 240.28 
L 229.883333 236.505143 
L 221.565386 240.28 
" clip-path="url(#pd6f8c27397)" style="fill: none; stroke-dasharray: 1.85,0.8; stroke-dashoffset: 0; stroke: #000000; stroke-width: 0.5"/>
    <path d="M 299.755624 26.88 
L 301.473333 27.162308 
L 306.791137 36.380776 
L 305.445723 47.600163 
L 302.847749 60.808896 
L 301.708356 76.198006 
L 305.757864 93.757994 
L 302.830962 113.137869 
L 302.076108 133.590571 
L 302.26855 154.013971 
L 301.473333 159.787902 
L 289.012995 173.39493 
L 301.473333 184.884837 
L 302.455591 190.956403 
L 301.473333 194.840519 
L 277.61 206.270854 
L 277.27018 206.347113 
L 253.746667 214.216434 
L 229.883333 211.085858 
L 206.02 211.188208 
L 202.389624 206.347113 
L 182.156667 199.632369 
L 158.293333 203.173869 
L 134.43 199.108781 
L 120.82921 190.956403 
L 134.43 183.366768 
L 157.466804 173.39493 
L 134.43 166.288128 
L 110.566667 160.408289 
L 107.262481 154.013971 
L 110.566667 140.024007 
L 119.075909 133.590571 
L 111.598881 113.137869 
L 110.566667 112.256007 
L 107.321999 93.757994 
L 110.566667 84.606616 
L 134.43 79.719387 
L 147.070225 76.198006 
L 134.43 72.087236 
L 112.379455 71.144665 
M 105.398311 47.689038 
L 105.399552 47.600163 
L 104.92713 36.380776 
L 106.758497 26.88 
M 273.529162 228.003278 
L 277.61 225.437798 
L 298.602846 230.778089 
L 291.55429 231.340466 
" clip-path="url(#pd6f8c27397)" style="fill: none; stroke-dasharray: 1.85,0.8; stroke-dashoffset: 0; stroke: #000000; stroke-width: 0.5"/>
    <path d="M 282.736756 26.88 
L 301.473333 29.959382 
L 305.177605 36.380776 
L 303.715135 47.600163 
L 301.473333 58.341565 
L 289.663629 60.808896 
L 289.09504 76.198006 
L 301.473333 82.675733 
L 304.054434 93.757994 
L 301.473333 109.875921 
L 298.120809 113.137869 
L 292.296637 133.590571 
L 294.178372 154.013971 
L 277.61 171.535899 
L 274.218655 173.39493 
L 277.61 176.676168 
L 290.86707 190.956403 
L 277.61 196.893877 
L 253.746667 202.569799 
L 229.883333 200.532625 
L 206.02 199.976325 
L 182.156667 194.198894 
L 158.293333 197.707713 
L 134.43 193.25212 
L 130.600006 190.956403 
L 134.43 188.819155 
L 158.293333 180.958505 
L 182.156667 183.877918 
L 202.824802 173.39493 
L 182.156667 168.536014 
L 158.293333 168.817415 
L 134.43 162.402282 
L 110.566667 156.946718 
L 109.051206 154.013971 
L 110.566667 147.597489 
L 129.093045 133.590571 
L 123.569668 113.137869 
L 110.566667 102.02888 
L 109.115901 93.757994 
L 110.566667 89.666203 
L 120.996066 86.811582 
M 147.855598 79.430938 
L 158.293333 76.55153 
L 160.072416 76.198006 
L 158.293333 75.807395 
L 134.43 68.100412 
L 110.566667 67.979878 
L 106.825682 60.808896 
L 107.026194 47.600163 
L 106.51267 36.380776 
L 108.503373 26.88 
" clip-path="url(#pd6f8c27397)" style="fill: none; stroke-dasharray: 1.85,0.8; stroke-dashoffset: 0; stroke: #000000; stroke-width: 0.5"/>
    <path d="M 266.184304 26.88 
L 277.61 29.788722 
L 301.473333 32.756456 
L 303.564073 36.380776 
L 301.984548 47.600163 
L 301.473333 50.049602 
L 277.61 56.409869 
L 263.701634 60.808896 
L 274.023461 76.198006 
L 277.61 77.661708 
L 301.473333 89.989613 
L 302.351003 93.757994 
L 301.473333 99.238688 
L 296.866804 103.720762 
M 282.406345 125.423042 
L 279.227228 133.590571 
L 282.096248 154.013971 
L 277.61 158.758416 
L 253.746667 172.125253 
L 229.883333 163.599472 
L 206.02 167.924652 
L 182.156667 163.038159 
L 158.293333 163.918438 
L 134.43 158.516435 
L 113.346482 154.013971 
L 134.43 139.459423 
L 142.235639 133.590571 
L 135.90664 113.137869 
L 134.43 112.321964 
L 112.549627 93.757994 
L 134.43 86.5498 
L 158.293333 80.734824 
L 181.124551 76.198006 
L 158.293333 71.185247 
L 134.43 64.113587 
L 110.566667 64.89258 
L 108.436275 60.808896 
L 108.652836 47.600163 
L 108.098209 36.380776 
L 110.248248 26.88 
M 158.293333 189.053242 
L 167.082461 190.956403 
L 158.293333 192.241556 
L 151.638904 190.956403 
L 158.293333 189.053242 
z
M 239.91108 192.266107 
L 229.883333 191.062498 
L 206.02 191.790388 
L 201.206866 190.956403 
L 206.02 189.102827 
L 229.883333 190.748886 
L 253.746667 177.988226 
L 264.0222 189.532259 
" clip-path="url(#pd6f8c27397)" style="fill: none; stroke-dasharray: 1.85,0.8; stroke-dashoffset: 0; stroke: #000000; stroke-width: 0.5"/>
    <path d="M 174.739378 26.88 
L 182.156667 28.101501 
L 206.02 28.798424 
L 229.883333 29.757859 
L 253.746667 27.893762 
L 277.61 33.95141 
L 301.473333 35.55353 
L 301.950542 36.380776 
L 301.473333 39.697777 
L 286.174412 47.600163 
L 277.61 50.092126 
L 253.746667 57.625678 
L 240.647236 58.868537 
M 215.551778 68.39824 
L 206.02 74.766517 
L 182.156667 68.80881 
L 158.293333 66.563099 
L 137.313399 60.808896 
L 134.43 59.716796 
L 126.162163 60.808896 
L 110.566667 61.805282 
L 110.046868 60.808896 
L 110.279478 47.600163 
L 109.683749 36.380776 
L 110.566667 32.531323 
L 134.43 28.358482 
L 142.874541 26.88 
M 153.983701 119.368201 
L 151.824928 113.137869 
L 134.43 103.526446 
L 122.91644 93.757994 
L 134.43 89.965007 
L 158.293333 84.918118 
L 182.156667 80.126719 
L 206.02 76.899151 
L 229.883333 79.248769 
L 253.400152 76.198006 
L 253.746667 75.965975 
L 253.901187 76.198006 
L 277.61 85.873805 
L 293.466828 93.757994 
L 277.61 110.922937 
L 253.746667 112.754961 
L 241.378678 113.137869 
L 229.883333 115.509639 
L 206.02 133.580116 
L 182.156667 131.979866 
L 172.241416 131.907634 
M 240.71688 157.027079 
L 232.305815 154.013971 
L 242.418597 133.590571 
L 253.746667 115.900572 
L 259.718718 133.590571 
L 266.61963 154.013971 
L 265.514335 154.673457 
M 192.294385 159.26016 
L 182.156667 157.540303 
L 158.293333 159.019461 
L 134.43 154.630588 
L 131.542591 154.013971 
L 134.43 152.020711 
L 158.293333 134.338585 
L 182.156667 136.185364 
L 206.02 133.595879 
L 228.330672 154.013971 
L 219.135091 157.135977 
" clip-path="url(#pd6f8c27397)" style="fill: none; stroke-dasharray: 1.85,0.8; stroke-dashoffset: 0; stroke: #000000; stroke-width: 0.5"/>
    <path d="M 216.592895 58.49176 
L 209.099808 60.808896 
L 206.02 62.866547 
L 182.156667 61.03867 
L 158.293333 61.940951 
L 154.165838 60.808896 
L 134.43 53.333864 
L 121.979695 47.600163 
L 116.467176 36.380776 
L 134.43 31.773597 
L 158.293333 28.538888 
L 182.156667 31.527799 
L 206.02 32.069614 
L 229.883333 33.451168 
L 253.746667 32.129203 
L 270.613416 36.380776 
L 265.419601 47.600163 
L 253.746667 51.279836 
L 243.745421 52.579915 
M 216.139034 107.991301 
L 206.02 109.810474 
L 186.690535 113.137869 
L 182.156667 114.72543 
L 178.954432 113.137869 
L 158.293333 106.39722 
L 134.43 94.730929 
L 133.283253 93.757994 
L 134.43 93.380214 
L 158.293333 89.101412 
L 182.156667 84.257974 
L 206.02 82.727772 
L 229.883333 85.102631 
L 253.746667 83.913077 
L 276.880506 93.757994 
L 253.746667 104.372457 
L 243.85964 104.848066 
M 158.293333 153.595294 
L 159.657463 154.013971 
L 158.293333 154.120484 
L 157.692176 154.013971 
L 158.293333 153.595294 
z
M 206.02 150.674777 
L 209.668709 154.013971 
L 206.02 155.25275 
L 197.599975 154.013971 
L 206.02 150.674777 
z
" clip-path="url(#pd6f8c27397)" style="fill: none; stroke-dasharray: 1.85,0.8; stroke-dashoffset: 0; stroke: #000000; stroke-width: 0.5"/>
    <path d="M 224.638986 50.136526 
L 206.02 54.61908 
L 182.156667 53.598587 
L 158.293333 50.191824 
L 142.915882 47.600163 
L 134.43 45.068566 
L 129.782291 36.380776 
L 134.43 35.188712 
L 157.660511 36.380776 
L 158.293333 36.931169 
L 158.826105 36.380776 
L 182.156667 34.954097 
L 206.02 35.340805 
L 220.478961 36.380776 
L 226.945992 40.022746 
M 253.746667 36.364643 
L 253.810666 36.380776 
L 253.746667 36.481573 
L 253.315055 36.380776 
L 253.746667 36.364643 
z
M 239.786533 96.911452 
L 229.883333 97.565155 
L 206.02 101.327977 
L 182.156667 105.166663 
L 158.293333 95.042624 
L 155.600283 93.757994 
L 158.293333 93.284707 
L 182.156667 88.389228 
L 206.02 88.556393 
L 229.883333 90.956493 
L 250.511576 91.588703 
" clip-path="url(#pd6f8c27397)" style="fill: none; stroke-dasharray: 1.85,0.8; stroke-dashoffset: 0; stroke: #000000; stroke-width: 0.5"/>
    <path d="M 182.156667 92.520483 
L 199.7145 93.757994 
L 182.156667 96.387715 
L 176.131582 93.757994 
L 182.156667 92.520483 
z
" clip-path="url(#pd6f8c27397)" style="fill: none; stroke-dasharray: 1.85,0.8; stroke-dashoffset: 0; stroke: #000000; stroke-width: 0.5"/>
    <path clip-path="url(#pd6f8c27397)" style="fill: none; stroke-dasharray: 1.85,0.8; stroke-dashoffset: 0; stroke: #000000; stroke-width: 0.5"/>
   </g>
   <g id="patch_3">
    <path d="M 62.84 240.28 
L 62.84 26.88 
" style="fill: none; stroke: #000000; stroke-width: 0.8; stroke-linejoin: miter; stroke-linecap: square"/>
   </g>
   <g id="patch_4">
    <path d="M 349.2 240.28 
L 349.2 26.88 
" style="fill: none; stroke: #000000; stroke-width: 0.8; stroke-linejoin: miter; stroke-linecap: square"/>
   </g>
   <g id="patch_5">
    <path d="M 62.84 240.28 
L 349.2 240.28 
" style="fill: none; stroke: #000000; stroke-width: 0.8; stroke-linejoin: miter; stroke-linecap: square"/>
   </g>
   <g id="patch_6">
    <path d="M 62.84 26.88 
L 349.2 26.88 
" style="fill: none; stroke: #000000; stroke-width: 0.8; stroke-linejoin: miter; stroke-linecap: square"/>
   </g>
   <g id="text_11">
    <!-- Band 200 -->
    <g transform="translate(177.255625 20.88) scale(0.12 -0.12)">
     <defs>
      <path id="DejaVuSans-42" d="M 1259 2228 
L 1259 519 
L 2272 519 
Q 2781 519 3026 730 
Q 3272 941 3272 1375 
Q 3272 1813 3026 2020 
Q 2781 2228 2272 2228 
L 1259 2228 
z
M 1259 4147 
L 1259 2741 
L 2194 2741 
Q 2656 2741 2882 2914 
Q 3109 3088 3109 3444 
Q 3109 3797 2882 3972 
Q 2656 4147 2194 4147 
L 1259 4147 
z
M 628 4666 
L 2241 4666 
Q 2963 4666 3353 4366 
Q 3744 4066 3744 3513 
Q 3744 3084 3544 2831 
Q 3344 2578 2956 2516 
Q 3422 2416 3680 2098 
Q 3938 1781 3938 1306 
Q 3938 681 3513 340 
Q 3088 0 2303 0 
L 628 0 
L 628 4666 
z
" transform="scale(0.015625)"/>
      <path id="DejaVuSans-61" d="M 2194 1759 
Q 1497 1759 1228 1600 
Q 959 1441 959 1056 
Q 959 750 1161 570 
Q 1363 391 1709 391 
Q 2188 391 2477 730 
Q 2766 1069 2766 1631 
L 2766 1759 
L 2194 1759 
z
M 3341 1997 
L 3341 0 
L 2766 0 
L 2766 531 
Q 2569 213 2275 61 
Q 1981 -91 1556 -91 
Q 1019 -91 701 211 
Q 384 513 384 1019 
Q 384 1609 779 1909 
Q 1175 2209 1959 2209 
L 2766 2209 
L 2766 2266 
Q 2766 2663 2505 2880 
Q 2244 3097 1772 3097 
Q 1472 3097 1187 3025 
Q 903 2953 641 2809 
L 641 3341 
Q 956 3463 1253 3523 
Q 1550 3584 1831 3584 
Q 2591 3584 2966 3190 
Q 3341 2797 3341 1997 
z
" transform="scale(0.015625)"/>
      <path id="DejaVuSans-6e" d="M 3513 2113 
L 3513 0 
L 2938 0 
L 2938 2094 
Q 2938 2591 2744 2837 
Q 2550 3084 2163 3084 
Q 1697 3084 1428 2787 
Q 1159 2491 1159 1978 
L 1159 0 
L 581 0 
L 581 3500 
L 1159 3500 
L 1159 2956 
Q 1366 3272 1645 3428 
Q 1925 3584 2291 3584 
Q 2894 3584 3203 3211 
Q 3513 2838 3513 2113 
z
" transform="scale(0.015625)"/>
      <path id="DejaVuSans-64" d="M 2906 2969 
L 2906 4863 
L 3481 4863 
L 3481 0 
L 2906 0 
L 2906 525 
Q 2725 213 2448 61 
Q 2172 -91 1784 -91 
Q 1150 -91 751 415 
Q 353 922 353 1747 
Q 353 2572 751 3078 
Q 1150 3584 1784 3584 
Q 2172 3584 2448 3432 
Q 2725 3281 2906 2969 
z
M 947 1747 
Q 947 1113 1208 752 
Q 1469 391 1925 391 
Q 2381 391 2643 752 
Q 2906 1113 2906 1747 
Q 2906 2381 2643 2742 
Q 2381 3103 1925 3103 
Q 1469 3103 1208 2742 
Q 947 2381 947 1747 
z
" transform="scale(0.015625)"/>
      <path id="DejaVuSans-20" transform="scale(0.015625)"/>
     </defs>
     <use xlink:href="#DejaVuSans-42"/>
     <use xlink:href="#DejaVuSans-61" transform="translate(68.603516 0)"/>
     <use xlink:href="#DejaVuSans-6e" transform="translate(129.882812 0)"/>
     <use xlink:href="#DejaVuSans-64" transform="translate(193.261719 0)"/>
     <use xlink:href="#DejaVuSans-20" transform="translate(256.738281 0)"/>
     <use xlink:href="#DejaVuSans-32" transform="translate(288.525391 0)"/>
     <use xlink:href="#DejaVuSans-30" transform="translate(352.148438 0)"/>
     <use xlink:href="#DejaVuSans-30" transform="translate(415.771484 0)"/>
    </g>
   </g>
   <g id="text_12">
    <g clip-path="url(#pd6f8c27397)">
     <!-- 63.2 -->
     <g transform="translate(326.815328 143.611475) rotate(-89.968287) scale(0.09 -0.09)">
      <defs>
       <path id="DejaVuSans-36" d="M 2113 2584 
Q 1688 2584 1439 2293 
Q 1191 2003 1191 1497 
Q 1191 994 1439 701 
Q 1688 409 2113 409 
Q 2538 409 2786 701 
Q 3034 994 3034 1497 
Q 3034 2003 2786 2293 
Q 2538 2584 2113 2584 
z
M 3366 4563 
L 3366 3988 
Q 3128 4100 2886 4159 
Q 2644 4219 2406 4219 
Q 1781 4219 1451 3797 
Q 1122 3375 1075 2522 
Q 1259 2794 1537 2939 
Q 1816 3084 2150 3084 
Q 2853 3084 3261 2657 
Q 3669 2231 3669 1497 
Q 3669 778 3244 343 
Q 2819 -91 2113 -91 
Q 1303 -91 875 529 
Q 447 1150 447 2328 
Q 447 3434 972 4092 
Q 1497 4750 2381 4750 
Q 2619 4750 2861 4703 
Q 3103 4656 3366 4563 
z
" transform="scale(0.015625)"/>
       <path id="DejaVuSans-33" d="M 2597 2516 
Q 3050 2419 3304 2112 
Q 3559 1806 3559 1356 
Q 3559 666 3084 287 
Q 2609 -91 1734 -91 
Q 1441 -91 1130 -33 
Q 819 25 488 141 
L 488 750 
Q 750 597 1062 519 
Q 1375 441 1716 441 
Q 2309 441 2620 675 
Q 2931 909 2931 1356 
Q 2931 1769 2642 2001 
Q 2353 2234 1838 2234 
L 1294 2234 
L 1294 2753 
L 1863 2753 
Q 2328 2753 2575 2939 
Q 2822 3125 2822 3475 
Q 2822 3834 2567 4026 
Q 2313 4219 1838 4219 
Q 1578 4219 1281 4162 
Q 984 4106 628 3988 
L 628 4550 
Q 988 4650 1302 4700 
Q 1616 4750 1894 4750 
Q 2613 4750 3031 4423 
Q 3450 4097 3450 3541 
Q 3450 3153 3228 2886 
Q 3006 2619 2597 2516 
z
" transform="scale(0.015625)"/>
       <path id="DejaVuSans-2e" d="M 684 794 
L 1344 794 
L 1344 0 
L 684 0 
L 684 794 
z
" transform="scale(0.015625)"/>
      </defs>
      <use xlink:href="#DejaVuSans-36"/>
      <use xlink:href="#DejaVuSans-33" transform="translate(63.623047 0)"/>
      <use xlink:href="#DejaVuSans-2e" transform="translate(127.246094 0)"/>
      <use xlink:href="#DejaVuSans-32" transform="translate(159.033203 0)"/>
     </g>
    </g>
   </g>
   <g id="text_13">
    <g clip-path="url(#pd6f8c27397)">
     <!-- 63.2 -->
     <g transform="translate(90.259242 143.618581) rotate(-89.803009) scale(0.09 -0.09)">
      <use xlink:href="#DejaVuSans-36"/>
      <use xlink:href="#DejaVuSans-33" transform="translate(63.623047 0)"/>
      <use xlink:href="#DejaVuSans-2e" transform="translate(127.246094 0)"/>
      <use xlink:href="#DejaVuSans-32" transform="translate(159.033203 0)"/>
     </g>
    </g>
   </g>
   <g id="text_14">
    <g clip-path="url(#pd6f8c27397)">
     <!-- 64.0 -->
     <g transform="translate(324.780336 143.614246) rotate(-89.90406) scale(0.09 -0.09)">
      <use xlink:href="#DejaVuSans-36"/>
      <use xlink:href="#DejaVuSans-34" transform="translate(63.623047 0)"/>
      <use xlink:href="#DejaVuSans-2e" transform="translate(127.246094 0)"/>
      <use xlink:href="#DejaVuSans-30" transform="translate(159.033203 0)"/>
     </g>
    </g>
   </g>
   <g id="text_15">
    <g clip-path="url(#pd6f8c27397)">
     <!-- 64.0 -->
     <g transform="translate(92.43129 143.635381) rotate(-89.404285) scale(0.09 -0.09)">
      <use xlink:href="#DejaVuSans-36"/>
      <use xlink:href="#DejaVuSans-34" transform="translate(63.623047 0)"/>
      <use xlink:href="#DejaVuSans-2e" transform="translate(127.246094 0)"/>
      <use xlink:href="#DejaVuSans-30" transform="translate(159.033203 0)"/>
     </g>
    </g>
   </g>
   <g id="text_16">
    <g clip-path="url(#pd6f8c27397)">
     <!-- 64.8 -->
     <g transform="translate(322.745341 143.617005) rotate(-89.839835) scale(0.09 -0.09)">
      <defs>
       <path id="DejaVuSans-38" d="M 2034 2216 
Q 1584 2216 1326 1975 
Q 1069 1734 1069 1313 
Q 1069 891 1326 650 
Q 1584 409 2034 409 
Q 2484 409 2743 651 
Q 3003 894 3003 1313 
Q 3003 1734 2745 1975 
Q 2488 2216 2034 2216 
z
M 1403 2484 
Q 997 2584 770 2862 
Q 544 3141 544 3541 
Q 544 4100 942 4425 
Q 1341 4750 2034 4750 
Q 2731 4750 3128 4425 
Q 3525 4100 3525 3541 
Q 3525 3141 3298 2862 
Q 3072 2584 2669 2484 
Q 3125 2378 3379 2068 
Q 3634 1759 3634 1313 
Q 3634 634 3220 271 
Q 2806 -91 2034 -91 
Q 1263 -91 848 271 
Q 434 634 434 1313 
Q 434 1759 690 2068 
Q 947 2378 1403 2484 
z
M 1172 3481 
Q 1172 3119 1398 2916 
Q 1625 2713 2034 2713 
Q 2441 2713 2670 2916 
Q 2900 3119 2900 3481 
Q 2900 3844 2670 4047 
Q 2441 4250 2034 4250 
Q 1625 4250 1398 4047 
Q 1172 3844 1172 3481 
z
" transform="scale(0.015625)"/>
      </defs>
      <use xlink:href="#DejaVuSans-36"/>
      <use xlink:href="#DejaVuSans-34" transform="translate(63.623047 0)"/>
      <use xlink:href="#DejaVuSans-2e" transform="translate(127.246094 0)"/>
      <use xlink:href="#DejaVuSans-38" transform="translate(159.033203 0)"/>
     </g>
    </g>
   </g>
   <g id="text_17">
    <g clip-path="url(#pd6f8c27397)">
     <!-- 64.8 -->
     <g transform="translate(94.603354 143.651664) rotate(-89.006301) scale(0.09 -0.09)">
      <use xlink:href="#DejaVuSans-36"/>
      <use xlink:href="#DejaVuSans-34" transform="translate(63.623047 0)"/>
      <use xlink:href="#DejaVuSans-2e" transform="translate(127.246094 0)"/>
      <use xlink:href="#DejaVuSans-38" transform="translate(159.033203 0)"/>
     </g>
    </g>
   </g>
   <g id="text_18">
    <g clip-path="url(#pd6f8c27397)">
     <!-- 65.6 -->
     <g transform="translate(320.710344 143.619751) rotate(-89.775614) scale(0.09 -0.09)">
      <use xlink:href="#DejaVuSans-36"/>
      <use xlink:href="#DejaVuSans-35" transform="translate(63.623047 0)"/>
      <use xlink:href="#DejaVuSans-2e" transform="translate(127.246094 0)"/>
      <use xlink:href="#DejaVuSans-36" transform="translate(159.033203 0)"/>
     </g>
    </g>
   </g>
   <g id="text_19">
    <g clip-path="url(#pd6f8c27397)">
     <!-- 65.6 -->
     <g transform="translate(96.775522 143.667414) rotate(-88.609551) scale(0.09 -0.09)">
      <use xlink:href="#DejaVuSans-36"/>
      <use xlink:href="#DejaVuSans-35" transform="translate(63.623047 0)"/>
      <use xlink:href="#DejaVuSans-2e" transform="translate(127.246094 0)"/>
      <use xlink:href="#DejaVuSans-36" transform="translate(159.033203 0)"/>
     </g>
    </g>
   </g>
   <g id="text_20">
    <g clip-path="url(#pd6f8c27397)">
     <!-- 66.4 -->
     <g transform="translate(318.675345 143.622484) rotate(-89.711398) scale(0.09 -0.09)">
      <use xlink:href="#DejaVuSans-36"/>
      <use xlink:href="#DejaVuSans-36" transform="translate(63.623047 0)"/>
      <use xlink:href="#DejaVuSans-2e" transform="translate(127.246094 0)"/>
      <use xlink:href="#DejaVuSans-34" transform="translate(159.033203 0)"/>
     </g>
    </g>
   </g>
   <g id="text_21">
    <g clip-path="url(#pd6f8c27397)">
     <!-- 66.4 -->
     <g transform="translate(98.947886 143.682615) rotate(-88.214518) scale(0.09 -0.09)">
      <use xlink:href="#DejaVuSans-36"/>
      <use xlink:href="#DejaVuSans-36" transform="translate(63.623047 0)"/>
      <use xlink:href="#DejaVuSans-2e" transform="translate(127.246094 0)"/>
      <use xlink:href="#DejaVuSans-34" transform="translate(159.033203 0)"/>
     </g>
    </g>
   </g>
   <g id="text_22">
    <g clip-path="url(#pd6f8c27397)">
     <!-- 67.2 -->
     <g transform="translate(316.640344 143.625204) rotate(-89.64719) scale(0.09 -0.09)">
      <defs>
       <path id="DejaVuSans-37" d="M 525 4666 
L 3525 4666 
L 3525 4397 
L 1831 0 
L 1172 0 
L 2766 4134 
L 525 4134 
L 525 4666 
z
" transform="scale(0.015625)"/>
      </defs>
      <use xlink:href="#DejaVuSans-36"/>
      <use xlink:href="#DejaVuSans-37" transform="translate(63.623047 0)"/>
      <use xlink:href="#DejaVuSans-2e" transform="translate(127.246094 0)"/>
      <use xlink:href="#DejaVuSans-32" transform="translate(159.033203 0)"/>
     </g>
    </g>
   </g>
   <g id="text_23">
    <g clip-path="url(#pd6f8c27397)">
     <!-- 67.2 -->
     <g transform="translate(101.120533 143.697256) rotate(-87.821678) scale(0.09 -0.09)">
      <use xlink:href="#DejaVuSans-36"/>
      <use xlink:href="#DejaVuSans-37" transform="translate(63.623047 0)"/>
      <use xlink:href="#DejaVuSans-2e" transform="translate(127.246094 0)"/>
      <use xlink:href="#DejaVuSans-32" transform="translate(159.033203 0)"/>
     </g>
    </g>
   </g>
   <g id="text_24">
    <g clip-path="url(#pd6f8c27397)">
     <!-- 68.0 -->
     <g transform="translate(314.605342 143.627911) rotate(-89.582989) scale(0.09 -0.09)">
      <use xlink:href="#DejaVuSans-36"/>
      <use xlink:href="#DejaVuSans-38" transform="translate(63.623047 0)"/>
      <use xlink:href="#DejaVuSans-2e" transform="translate(127.246094 0)"/>
      <use xlink:href="#DejaVuSans-30" transform="translate(159.033203 0)"/>
     </g>
    </g>
   </g>
   <g id="text_25">
    <g clip-path="url(#pd6f8c27397)">
     <!-- 68.0 -->
     <g transform="translate(103.293551 143.711328) rotate(-87.431497) scale(0.09 -0.09)">
      <use xlink:href="#DejaVuSans-36"/>
      <use xlink:href="#DejaVuSans-38" transform="translate(63.623047 0)"/>
      <use xlink:href="#DejaVuSans-2e" transform="translate(127.246094 0)"/>
      <use xlink:href="#DejaVuSans-30" transform="translate(159.033203 0)"/>
     </g>
    </g>
   </g>
   <g id="text_26">
    <g clip-path="url(#pd6f8c27397)">
     <!-- 68.8 -->
     <g transform="translate(312.570338 143.630606) rotate(-89.518799) scale(0.09 -0.09)">
      <use xlink:href="#DejaVuSans-36"/>
      <use xlink:href="#DejaVuSans-38" transform="translate(63.623047 0)"/>
      <use xlink:href="#DejaVuSans-2e" transform="translate(127.246094 0)"/>
      <use xlink:href="#DejaVuSans-38" transform="translate(159.033203 0)"/>
     </g>
    </g>
   </g>
   <g id="text_27">
    <g clip-path="url(#pd6f8c27397)">
     <!-- 68.8 -->
     <g transform="translate(105.467025 143.724824) rotate(-87.044425) scale(0.09 -0.09)">
      <use xlink:href="#DejaVuSans-36"/>
      <use xlink:href="#DejaVuSans-38" transform="translate(63.623047 0)"/>
      <use xlink:href="#DejaVuSans-2e" transform="translate(127.246094 0)"/>
      <use xlink:href="#DejaVuSans-38" transform="translate(159.033203 0)"/>
     </g>
    </g>
   </g>
   <g id="text_28">
    <g clip-path="url(#pd6f8c27397)">
     <!-- 69.6 -->
     <g transform="translate(310.535333 143.633287) rotate(-89.45462) scale(0.09 -0.09)">
      <defs>
       <path id="DejaVuSans-39" d="M 703 97 
L 703 672 
Q 941 559 1184 500 
Q 1428 441 1663 441 
Q 2288 441 2617 861 
Q 2947 1281 2994 2138 
Q 2813 1869 2534 1725 
Q 2256 1581 1919 1581 
Q 1219 1581 811 2004 
Q 403 2428 403 3163 
Q 403 3881 828 4315 
Q 1253 4750 1959 4750 
Q 2769 4750 3195 4129 
Q 3622 3509 3622 2328 
Q 3622 1225 3098 567 
Q 2575 -91 1691 -91 
Q 1453 -91 1209 -44 
Q 966 3 703 97 
z
M 1959 2075 
Q 2384 2075 2632 2365 
Q 2881 2656 2881 3163 
Q 2881 3666 2632 3958 
Q 2384 4250 1959 4250 
Q 1534 4250 1286 3958 
Q 1038 3666 1038 3163 
Q 1038 2656 1286 2365 
Q 1534 2075 1959 2075 
z
" transform="scale(0.015625)"/>
      </defs>
      <use xlink:href="#DejaVuSans-36"/>
      <use xlink:href="#DejaVuSans-39" transform="translate(63.623047 0)"/>
      <use xlink:href="#DejaVuSans-2e" transform="translate(127.246094 0)"/>
      <use xlink:href="#DejaVuSans-36" transform="translate(159.033203 0)"/>
     </g>
    </g>
   </g>
   <g id="text_29">
    <g clip-path="url(#pd6f8c27397)">
     <!-- 69.6 -->
     <g transform="translate(101.490837 165.874892) rotate(-317.626383) scale(0.09 -0.09)">
      <use xlink:href="#DejaVuSans-36"/>
      <use xlink:href="#DejaVuSans-39" transform="translate(63.623047 0)"/>
      <use xlink:href="#DejaVuSans-2e" transform="translate(127.246094 0)"/>
      <use xlink:href="#DejaVuSans-36" transform="translate(159.033203 0)"/>
     </g>
    </g>
   </g>
   <g id="text_30">
    <g clip-path="url(#pd6f8c27397)">
     <!-- 70.4 -->
     <g transform="translate(308.500327 143.635955) rotate(-89.390454) scale(0.09 -0.09)">
      <use xlink:href="#DejaVuSans-37"/>
      <use xlink:href="#DejaVuSans-30" transform="translate(63.623047 0)"/>
      <use xlink:href="#DejaVuSans-2e" transform="translate(127.246094 0)"/>
      <use xlink:href="#DejaVuSans-34" transform="translate(159.033203 0)"/>
     </g>
    </g>
   </g>
   <g id="text_31">
    <g clip-path="url(#pd6f8c27397)">
     <!-- 70.4 -->
     <g transform="translate(128.736382 163.709202) rotate(-276.312465) scale(0.09 -0.09)">
      <use xlink:href="#DejaVuSans-37"/>
      <use xlink:href="#DejaVuSans-30" transform="translate(63.623047 0)"/>
      <use xlink:href="#DejaVuSans-2e" transform="translate(127.246094 0)"/>
      <use xlink:href="#DejaVuSans-34" transform="translate(159.033203 0)"/>
     </g>
    </g>
   </g>
   <g id="text_32">
    <g clip-path="url(#pd6f8c27397)">
     <!-- 71.2 -->
     <g transform="translate(299.02965 163.4033) rotate(-270.629756) scale(0.09 -0.09)">
      <defs>
       <path id="DejaVuSans-31" d="M 794 531 
L 1825 531 
L 1825 4091 
L 703 3866 
L 703 4441 
L 1819 4666 
L 2450 4666 
L 2450 531 
L 3481 531 
L 3481 0 
L 794 0 
L 794 531 
z
" transform="scale(0.015625)"/>
      </defs>
      <use xlink:href="#DejaVuSans-37"/>
      <use xlink:href="#DejaVuSans-31" transform="translate(63.623047 0)"/>
      <use xlink:href="#DejaVuSans-2e" transform="translate(127.246094 0)"/>
      <use xlink:href="#DejaVuSans-32" transform="translate(159.033203 0)"/>
     </g>
    </g>
   </g>
   <g id="text_33">
    <g clip-path="url(#pd6f8c27397)">
     <!-- 71.2 -->
     <g transform="translate(101.290465 159.341001) rotate(-320.056522) scale(0.09 -0.09)">
      <use xlink:href="#DejaVuSans-37"/>
      <use xlink:href="#DejaVuSans-31" transform="translate(63.623047 0)"/>
      <use xlink:href="#DejaVuSans-2e" transform="translate(127.246094 0)"/>
      <use xlink:href="#DejaVuSans-32" transform="translate(159.033203 0)"/>
     </g>
    </g>
   </g>
   <g id="text_34">
    <g clip-path="url(#pd6f8c27397)">
     <!-- 72.0 -->
     <g transform="translate(100.5966 51.576993) rotate(-282.656883) scale(0.09 -0.09)">
      <use xlink:href="#DejaVuSans-37"/>
      <use xlink:href="#DejaVuSans-32" transform="translate(63.623047 0)"/>
      <use xlink:href="#DejaVuSans-2e" transform="translate(127.246094 0)"/>
      <use xlink:href="#DejaVuSans-30" transform="translate(159.033203 0)"/>
     </g>
    </g>
   </g>
   <g id="text_35">
    <g clip-path="url(#pd6f8c27397)">
     <!-- 72.0 -->
     <g transform="translate(267.386999 233.88436) rotate(-354.049463) scale(0.09 -0.09)">
      <use xlink:href="#DejaVuSans-37"/>
      <use xlink:href="#DejaVuSans-32" transform="translate(63.623047 0)"/>
      <use xlink:href="#DejaVuSans-2e" transform="translate(127.246094 0)"/>
      <use xlink:href="#DejaVuSans-30" transform="translate(159.033203 0)"/>
     </g>
    </g>
   </g>
   <g id="text_36">
    <g clip-path="url(#pd6f8c27397)">
     <!-- 72.8 -->
     <g transform="translate(125.513398 88.335813) rotate(-16.335041) scale(0.09 -0.09)">
      <use xlink:href="#DejaVuSans-37"/>
      <use xlink:href="#DejaVuSans-32" transform="translate(63.623047 0)"/>
      <use xlink:href="#DejaVuSans-2e" transform="translate(127.246094 0)"/>
      <use xlink:href="#DejaVuSans-38" transform="translate(159.033203 0)"/>
     </g>
    </g>
   </g>
   <g id="text_37">
    <g clip-path="url(#pd6f8c27397)">
     <!-- 73.6 -->
     <g transform="translate(283.985852 122.951298) rotate(-58.00649) scale(0.09 -0.09)">
      <use xlink:href="#DejaVuSans-37"/>
      <use xlink:href="#DejaVuSans-33" transform="translate(63.623047 0)"/>
      <use xlink:href="#DejaVuSans-2e" transform="translate(127.246094 0)"/>
      <use xlink:href="#DejaVuSans-36" transform="translate(159.033203 0)"/>
     </g>
    </g>
   </g>
   <g id="text_38">
    <g clip-path="url(#pd6f8c27397)">
     <!-- 73.6 -->
     <g transform="translate(243.926226 197.107549) rotate(-4.02609) scale(0.09 -0.09)">
      <use xlink:href="#DejaVuSans-37"/>
      <use xlink:href="#DejaVuSans-33" transform="translate(63.623047 0)"/>
      <use xlink:href="#DejaVuSans-2e" transform="translate(127.246094 0)"/>
      <use xlink:href="#DejaVuSans-36" transform="translate(159.033203 0)"/>
     </g>
    </g>
   </g>
   <g id="text_39">
    <g clip-path="url(#pd6f8c27397)">
     <!-- 74.4 -->
     <g transform="translate(218.611048 66.946155) rotate(-22.559021) scale(0.09 -0.09)">
      <use xlink:href="#DejaVuSans-37"/>
      <use xlink:href="#DejaVuSans-34" transform="translate(63.623047 0)"/>
      <use xlink:href="#DejaVuSans-2e" transform="translate(127.246094 0)"/>
      <use xlink:href="#DejaVuSans-34" transform="translate(159.033203 0)"/>
     </g>
    </g>
   </g>
   <g id="text_40">
    <g clip-path="url(#pd6f8c27397)">
     <!-- 74.4 -->
     <g transform="translate(148.742883 127.888452) rotate(-323.775914) scale(0.09 -0.09)">
      <use xlink:href="#DejaVuSans-37"/>
      <use xlink:href="#DejaVuSans-34" transform="translate(63.623047 0)"/>
      <use xlink:href="#DejaVuSans-2e" transform="translate(127.246094 0)"/>
      <use xlink:href="#DejaVuSans-34" transform="translate(159.033203 0)"/>
     </g>
    </g>
   </g>
   <g id="text_41">
    <g clip-path="url(#pd6f8c27397)">
     <!-- 74.4 -->
     <g transform="translate(244.028216 165.174726) rotate(-5.780589) scale(0.09 -0.09)">
      <use xlink:href="#DejaVuSans-37"/>
      <use xlink:href="#DejaVuSans-34" transform="translate(63.623047 0)"/>
      <use xlink:href="#DejaVuSans-2e" transform="translate(127.246094 0)"/>
      <use xlink:href="#DejaVuSans-34" transform="translate(159.033203 0)"/>
     </g>
    </g>
   </g>
   <g id="text_42">
    <g clip-path="url(#pd6f8c27397)">
     <!-- 74.4 -->
     <g transform="translate(196.244859 164.906092) rotate(-4.824911) scale(0.09 -0.09)">
      <use xlink:href="#DejaVuSans-37"/>
      <use xlink:href="#DejaVuSans-34" transform="translate(63.623047 0)"/>
      <use xlink:href="#DejaVuSans-2e" transform="translate(127.246094 0)"/>
      <use xlink:href="#DejaVuSans-34" transform="translate(159.033203 0)"/>
     </g>
    </g>
   </g>
   <g id="text_43">
    <g clip-path="url(#pd6f8c27397)">
     <!-- 75.2 -->
     <g transform="translate(220.685282 59.067415) rotate(-13.073806) scale(0.09 -0.09)">
      <use xlink:href="#DejaVuSans-37"/>
      <use xlink:href="#DejaVuSans-35" transform="translate(63.623047 0)"/>
      <use xlink:href="#DejaVuSans-2e" transform="translate(127.246094 0)"/>
      <use xlink:href="#DejaVuSans-32" transform="translate(159.033203 0)"/>
     </g>
    </g>
   </g>
   <g id="text_44">
    <g clip-path="url(#pd6f8c27397)">
     <!-- 75.2 -->
     <g transform="translate(220.234459 109.188859) rotate(-6.895878) scale(0.09 -0.09)">
      <use xlink:href="#DejaVuSans-37"/>
      <use xlink:href="#DejaVuSans-35" transform="translate(63.623047 0)"/>
      <use xlink:href="#DejaVuSans-2e" transform="translate(127.246094 0)"/>
      <use xlink:href="#DejaVuSans-32" transform="translate(159.033203 0)"/>
     </g>
    </g>
   </g>
   <g id="text_45">
    <g clip-path="url(#pd6f8c27397)">
     <!-- 76.0 -->
     <g transform="translate(238.463486 57.922312) rotate(-76.679767) scale(0.09 -0.09)">
      <use xlink:href="#DejaVuSans-37"/>
      <use xlink:href="#DejaVuSans-36" transform="translate(63.623047 0)"/>
      <use xlink:href="#DejaVuSans-2e" transform="translate(127.246094 0)"/>
      <use xlink:href="#DejaVuSans-30" transform="translate(159.033203 0)"/>
     </g>
    </g>
   </g>
   <g id="text_46">
    <g clip-path="url(#pd6f8c27397)">
     <!-- 76.0 -->
     <g transform="translate(245.783823 102.558939) rotate(-25.600324) scale(0.09 -0.09)">
      <use xlink:href="#DejaVuSans-37"/>
      <use xlink:href="#DejaVuSans-36" transform="translate(63.623047 0)"/>
      <use xlink:href="#DejaVuSans-2e" transform="translate(127.246094 0)"/>
      <use xlink:href="#DejaVuSans-30" transform="translate(159.033203 0)"/>
     </g>
    </g>
   </g>
  </g>
 </g>
 <defs>
  <clipPath id="pd6f8c27397">
   <rect x="62.84" y="26.88" width="286.36" height="213.4"/>
  </clipPath>
 </defs>
</svg>
