<?xml version="1.0" encoding="utf-8" standalone="no"?>
<!DOCTYPE svg PUBLIC "-//W3C//DTD SVG 1.1//EN"
  "http://www.w3.org/Graphics/SVG/1.1/DTD/svg11.dtd">
<svg xmlns:xlink="http://www.w3.org/1999/xlink" width="360pt" height="288pt" viewBox="0 0 360 288" xmlns="http://www.w3.org/2000/svg" version="1.1">
 <metadata>
  <rdf:RDF xmlns:dc="http://purl.org/dc/elements/1.1/" xmlns:cc="http://creativecommons.org/ns#" xmlns:rdf="http://www.w3.org/1999/02/22-rdf-syntax-ns#">
   <cc:Work>
    <dc:type rdf:resource="http://purl.org/dc/dcmitype/StillImage"/>
    <dc:date>2025-10-02T17:14:39.465094</dc:date>
    <dc:format>image/svg+xml</dc:format>
    <dc:creator>
     <cc:Agent>
      <dc:title>Matplotlib v3.10.6, https://matplotlib.org/</dc:title>
     </cc:Agent>
    </dc:creator>
   </cc:Work>
  </rdf:RDF>
 </metadata>
 <defs>
  <style type="text/css">*{stroke-linejoin: round; stroke-linecap: butt}</style>
 </defs>
 <g id="figure_1">
  <g id="patch_1">
   <path d="M 0 288 
L 360 288 
L 360 0 
L 0 0 
z
" style="fill: #ffffff"/>
  </g>
  <g id="axes_1">
   <g id="patch_2">
    <path d="M 62.84 240.28 
L 349.2 240.28 
L 349.2 26.88 
L 62.84 26.88 
z
" style="fill: #ffffff"/>
   </g>
   <g id="QuadContourSet_1">
    <path d="M 86.703333 26.88 
L 87.301421 26.88 
L 87.215869 36.380776 
L 87.171529 47.600163 
L 87.164359 60.808896 
L 87.115502 76.198006 
L 87.149213 93.757994 
L 87.143376 113.137869 
L 87.168686 133.590571 
L 87.228448 154.013971 
L 87.246714 173.39493 
L 87.187743 190.956403 
L 87.155809 206.347113 
L 87.247045 219.557363 
L 87.223813 230.778089 
L 87.238219 240.28 
L 86.703333 240.28 
L 62.84 240.28 
L 62.84 230.778089 
L 62.84 219.557363 
L 62.84 206.347113 
L 62.84 190.956403 
L 62.84 173.39493 
L 62.84 154.013971 
L 62.84 133.590571 
L 62.84 113.137869 
L 62.84 93.757994 
L 62.84 76.198006 
L 62.84 60.808896 
L 62.84 47.600163 
L 62.84 36.380776 
L 62.84 26.88 
z
M 325.336667 26.88 
L 349.2 26.88 
L 349.2 36.380776 
L 349.2 47.600163 
L 349.2 60.808896 
L 349.2 76.198006 
L 349.2 93.757994 
L 349.2 113.137869 
L 349.2 133.590571 
L 349.2 154.013971 
L 349.2 173.39493 
L 349.2 190.956403 
L 349.2 206.347113 
L 349.2 219.557363 
L 349.2 230.778089 
L 349.2 240.28 
L 325.336667 240.28 
L 324.730315 240.28 
L 324.818735 230.778089 
L 324.866701 219.557363 
L 324.84938 206.347113 
L 324.796618 190.956403 
L 324.797487 173.39493 
L 324.802517 154.013971 
L 324.861095 133.590571 
L 324.889413 113.137869 
L 324.892639 93.757994 
L 324.864395 76.198006 
L 324.79578 60.808896 
L 324.707004 47.600163 
L 324.569357 36.380776 
L 324.468464 26.88 
z
" clip-path="url(#pbe9402ca91)" style="fill: #460a5d"/>
    <path d="M 89.094202 36.380776 
L 88.887365 47.600163 
L 88.853921 60.808896 
L 88.626013 76.198006 
L 88.783267 93.757994 
L 88.756037 113.137869 
L 88.874106 133.590571 
L 89.152881 154.013971 
L 89.238086 173.39493 
L 88.963002 190.956403 
L 88.814034 206.347113 
L 89.239632 219.557363 
L 89.131257 230.778089 
L 89.198459 240.28 
L 87.238219 240.28 
L 87.223813 230.778089 
L 87.247045 219.557363 
L 87.155809 206.347113 
L 87.187743 190.956403 
L 87.246714 173.39493 
L 87.228448 154.013971 
L 87.168686 133.590571 
L 87.143376 113.137869 
L 87.149213 93.757994 
L 87.115502 76.198006 
L 87.164359 60.808896 
L 87.171529 47.600163 
L 87.215869 36.380776 
L 87.301421 26.88 
L 89.493283 26.88 
z
M 324.569357 36.380776 
L 324.707004 47.600163 
L 324.79578 60.808896 
L 324.864395 76.198006 
L 324.892639 93.757994 
L 324.889413 113.137869 
L 324.861095 133.590571 
L 324.802517 154.013971 
L 324.797487 173.39493 
L 324.796618 190.956403 
L 324.84938 206.347113 
L 324.866701 219.557363 
L 324.818735 230.778089 
L 324.730315 240.28 
L 322.508168 240.28 
L 322.920626 230.778089 
L 323.144377 219.557363 
L 323.063578 206.347113 
L 322.817455 190.956403 
L 322.821508 173.39493 
L 322.844973 154.013971 
L 323.118229 133.590571 
L 323.250323 113.137869 
L 323.265372 93.757994 
L 323.133623 76.198006 
L 322.813545 60.808896 
L 322.399424 47.600163 
L 321.757331 36.380776 
L 321.286686 26.88 
L 324.468464 26.88 
z
" clip-path="url(#pbe9402ca91)" style="fill: #481c6e"/>
    <path d="M 90.972535 36.380776 
L 90.603201 47.600163 
L 90.543483 60.808896 
L 90.136524 76.198006 
L 90.41732 93.757994 
L 90.368697 113.137869 
L 90.579525 133.590571 
L 91.077315 154.013971 
L 91.229459 173.39493 
L 90.73826 190.956403 
L 90.472259 206.347113 
L 91.232218 219.557363 
L 91.038701 230.778089 
L 91.158699 240.28 
L 89.198459 240.28 
L 89.131257 230.778089 
L 89.239632 219.557363 
L 88.814034 206.347113 
L 88.963002 190.956403 
L 89.238086 173.39493 
L 89.152881 154.013971 
L 88.874106 133.590571 
L 88.756037 113.137869 
L 88.783267 93.757994 
L 88.626013 76.198006 
L 88.853921 60.808896 
L 88.887365 47.600163 
L 89.094202 36.380776 
L 89.493283 26.88 
L 91.685145 26.88 
z
M 321.757331 36.380776 
L 322.399424 47.600163 
L 322.813545 60.808896 
L 323.133623 76.198006 
L 323.265372 93.757994 
L 323.250323 113.137869 
L 323.118229 133.590571 
L 322.844973 154.013971 
L 322.821508 173.39493 
L 322.817455 190.956403 
L 323.063578 206.347113 
L 323.144377 219.557363 
L 322.920626 230.778089 
L 322.508168 240.28 
L 320.28602 240.28 
L 321.022517 230.778089 
L 321.422053 219.557363 
L 321.277777 206.347113 
L 320.838293 190.956403 
L 320.845529 173.39493 
L 320.88743 154.013971 
L 321.375363 133.590571 
L 321.611233 113.137869 
L 321.638104 93.757994 
L 321.40285 76.198006 
L 320.83131 60.808896 
L 320.091844 47.600163 
L 318.945305 36.380776 
L 318.104908 26.88 
L 321.286686 26.88 
z
" clip-path="url(#pbe9402ca91)" style="fill: #472d7b"/>
    <path d="M 92.850868 36.380776 
L 92.319038 47.600163 
L 92.233044 60.808896 
L 91.647034 76.198006 
L 92.051374 93.757994 
L 91.981358 113.137869 
L 92.284944 133.590571 
L 93.001748 154.013971 
L 93.220831 173.39493 
L 92.513519 190.956403 
L 92.130484 206.347113 
L 93.224805 219.557363 
L 92.946145 230.778089 
L 93.11894 240.28 
L 91.158699 240.28 
L 91.038701 230.778089 
L 91.232218 219.557363 
L 90.472259 206.347113 
L 90.73826 190.956403 
L 91.229459 173.39493 
L 91.077315 154.013971 
L 90.579525 133.590571 
L 90.368697 113.137869 
L 90.41732 93.757994 
L 90.136524 76.198006 
L 90.543483 60.808896 
L 90.603201 47.600163 
L 90.972535 36.380776 
L 91.685145 26.88 
L 93.877006 26.88 
z
M 318.945305 36.380776 
L 320.091844 47.600163 
L 320.83131 60.808896 
L 321.40285 76.198006 
L 321.638104 93.757994 
L 321.611233 113.137869 
L 321.375363 133.590571 
L 320.88743 154.013971 
L 320.845529 173.39493 
L 320.838293 190.956403 
L 321.277777 206.347113 
L 321.422053 219.557363 
L 321.022517 230.778089 
L 320.28602 240.28 
L 318.063872 240.28 
L 319.124408 230.778089 
L 319.69973 219.557363 
L 319.491975 206.347113 
L 318.859131 190.956403 
L 318.869551 173.39493 
L 318.929886 154.013971 
L 319.632497 133.590571 
L 319.972144 113.137869 
L 320.010837 93.757994 
L 319.672077 76.198006 
L 318.849076 60.808896 
L 317.784264 47.600163 
L 316.133279 36.380776 
L 314.92313 26.88 
L 318.104908 26.88 
z
" clip-path="url(#pbe9402ca91)" style="fill: #443b84"/>
    <path d="M 94.729201 36.380776 
L 94.034874 47.600163 
L 93.922606 60.808896 
L 93.157545 76.198006 
L 93.685427 93.757994 
L 93.594019 113.137869 
L 93.990363 133.590571 
L 94.926181 154.013971 
L 95.212204 173.39493 
L 94.288777 190.956403 
L 93.78871 206.347113 
L 95.217392 219.557363 
L 94.85359 230.778089 
L 95.07918 240.28 
L 93.11894 240.28 
L 92.946145 230.778089 
L 93.224805 219.557363 
L 92.130484 206.347113 
L 92.513519 190.956403 
L 93.220831 173.39493 
L 93.001748 154.013971 
L 92.284944 133.590571 
L 91.981358 113.137869 
L 92.051374 93.757994 
L 91.647034 76.198006 
L 92.233044 60.808896 
L 92.319038 47.600163 
L 92.850868 36.380776 
L 93.877006 26.88 
L 96.068868 26.88 
z
M 316.133279 36.380776 
L 317.784264 47.600163 
L 318.849076 60.808896 
L 319.672077 76.198006 
L 320.010837 93.757994 
L 319.972144 113.137869 
L 319.632497 133.590571 
L 318.929886 154.013971 
L 318.869551 173.39493 
L 318.859131 190.956403 
L 319.491975 206.347113 
L 319.69973 219.557363 
L 319.124408 230.778089 
L 318.063872 240.28 
L 315.841725 240.28 
L 317.226299 230.778089 
L 317.977406 219.557363 
L 317.706173 206.347113 
L 316.879968 190.956403 
L 316.893572 173.39493 
L 316.972343 154.013971 
L 317.88963 133.590571 
L 318.333054 113.137869 
L 318.38357 93.757994 
L 317.941304 76.198006 
L 316.866841 60.808896 
L 315.476684 47.600163 
L 313.321254 36.380776 
L 311.741352 26.88 
L 314.92313 26.88 
z
" clip-path="url(#pbe9402ca91)" style="fill: #3e4a89"/>
    <path d="M 96.607534 36.380776 
L 95.75071 47.600163 
L 95.612168 60.808896 
L 94.668056 76.198006 
L 95.319481 93.757994 
L 95.20668 113.137869 
L 95.695783 133.590571 
L 96.850614 154.013971 
L 97.203576 173.39493 
L 96.064036 190.956403 
L 95.446935 206.347113 
L 97.209978 219.557363 
L 96.761034 230.778089 
L 97.03942 240.28 
L 95.07918 240.28 
L 94.85359 230.778089 
L 95.217392 219.557363 
L 93.78871 206.347113 
L 94.288777 190.956403 
L 95.212204 173.39493 
L 94.926181 154.013971 
L 93.990363 133.590571 
L 93.594019 113.137869 
L 93.685427 93.757994 
L 93.157545 76.198006 
L 93.922606 60.808896 
L 94.034874 47.600163 
L 94.729201 36.380776 
L 96.068868 26.88 
L 98.26073 26.88 
z
M 313.321254 36.380776 
L 315.476684 47.600163 
L 316.866841 60.808896 
L 317.941304 76.198006 
L 318.38357 93.757994 
L 318.333054 113.137869 
L 317.88963 133.590571 
L 316.972343 154.013971 
L 316.893572 173.39493 
L 316.879968 190.956403 
L 317.706173 206.347113 
L 317.977406 219.557363 
L 317.226299 230.778089 
L 315.841725 240.28 
L 313.619577 240.28 
L 315.32819 230.778089 
L 316.255082 219.557363 
L 315.920372 206.347113 
L 314.900806 190.956403 
L 314.917593 173.39493 
L 315.014799 154.013971 
L 316.146764 133.590571 
L 316.693964 113.137869 
L 316.756303 93.757994 
L 316.210532 76.198006 
L 314.884606 60.808896 
L 313.169104 47.600163 
L 310.509228 36.380776 
L 308.559575 26.88 
L 311.741352 26.88 
z
" clip-path="url(#pbe9402ca91)" style="fill: #38598c"/>
    <path d="M 98.485867 36.380776 
L 97.466546 47.600163 
L 97.301729 60.808896 
L 96.178566 76.198006 
L 96.953534 93.757994 
L 96.819341 113.137869 
L 97.401202 133.590571 
L 98.775047 154.013971 
L 99.194949 173.39493 
L 97.839294 190.956403 
L 97.10516 206.347113 
L 99.202565 219.557363 
L 98.668478 230.778089 
L 98.999661 240.28 
L 97.03942 240.28 
L 96.761034 230.778089 
L 97.209978 219.557363 
L 95.446935 206.347113 
L 96.064036 190.956403 
L 97.203576 173.39493 
L 96.850614 154.013971 
L 95.695783 133.590571 
L 95.20668 113.137869 
L 95.319481 93.757994 
L 94.668056 76.198006 
L 95.612168 60.808896 
L 95.75071 47.600163 
L 96.607534 36.380776 
L 98.26073 26.88 
L 100.452592 26.88 
z
M 310.509228 36.380776 
L 313.169104 47.600163 
L 314.884606 60.808896 
L 316.210532 76.198006 
L 316.756303 93.757994 
L 316.693964 113.137869 
L 316.146764 133.590571 
L 315.014799 154.013971 
L 314.917593 173.39493 
L 314.900806 190.956403 
L 315.920372 206.347113 
L 316.255082 219.557363 
L 315.32819 230.778089 
L 313.619577 240.28 
L 311.397429 240.28 
L 313.430081 230.778089 
L 314.532758 219.557363 
L 314.13457 206.347113 
L 312.921643 190.956403 
L 312.941615 173.39493 
L 313.057256 154.013971 
L 314.403898 133.590571 
L 315.054875 113.137869 
L 315.129036 93.757994 
L 314.479759 76.198006 
L 312.902371 60.808896 
L 310.861524 47.600163 
L 307.697202 36.380776 
L 305.377797 26.88 
L 308.559575 26.88 
z
" clip-path="url(#pbe9402ca91)" style="fill: #31668e"/>
    <path d="M 100.364201 36.380776 
L 99.182383 47.600163 
L 98.991291 60.808896 
L 97.689077 76.198006 
L 98.587588 93.757994 
L 98.432002 113.137869 
L 99.106621 133.590571 
L 100.699481 154.013971 
L 101.186322 173.39493 
L 99.614553 190.956403 
L 98.763385 206.347113 
L 101.195151 219.557363 
L 100.575923 230.778089 
L 100.959901 240.28 
L 98.999661 240.28 
L 98.668478 230.778089 
L 99.202565 219.557363 
L 97.10516 206.347113 
L 97.839294 190.956403 
L 99.194949 173.39493 
L 98.775047 154.013971 
L 97.401202 133.590571 
L 96.819341 113.137869 
L 96.953534 93.757994 
L 96.178566 76.198006 
L 97.301729 60.808896 
L 97.466546 47.600163 
L 98.485867 36.380776 
L 100.452592 26.88 
L 102.644454 26.88 
z
M 307.697202 36.380776 
L 310.861524 47.600163 
L 312.902371 60.808896 
L 314.479759 76.198006 
L 315.129036 93.757994 
L 315.054875 113.137869 
L 314.403898 133.590571 
L 313.057256 154.013971 
L 312.941615 173.39493 
L 312.921643 190.956403 
L 314.13457 206.347113 
L 314.532758 219.557363 
L 313.430081 230.778089 
L 311.397429 240.28 
L 309.175282 240.28 
L 311.531972 230.778089 
L 312.810435 219.557363 
L 312.348768 206.347113 
L 310.942481 190.956403 
L 310.965636 173.39493 
L 311.099712 154.013971 
L 312.661032 133.590571 
L 313.415785 113.137869 
L 313.501769 93.757994 
L 312.748986 76.198006 
L 310.920137 60.808896 
L 308.553944 47.600163 
L 304.885176 36.380776 
L 302.196019 26.88 
L 305.377797 26.88 
z
" clip-path="url(#pbe9402ca91)" style="fill: #2c728e"/>
    <path d="M 102.242534 36.380776 
L 100.898219 47.600163 
L 100.680852 60.808896 
L 99.199588 76.198006 
L 100.221641 93.757994 
L 100.044663 113.137869 
L 100.81204 133.590571 
L 102.623914 154.013971 
L 103.177694 173.39493 
L 101.389812 190.956403 
L 100.42161 206.347113 
L 103.187738 219.557363 
L 102.483367 230.778089 
L 102.920141 240.28 
L 100.959901 240.28 
L 100.575923 230.778089 
L 101.195151 219.557363 
L 98.763385 206.347113 
L 99.614553 190.956403 
L 101.186322 173.39493 
L 100.699481 154.013971 
L 99.106621 133.590571 
L 98.432002 113.137869 
L 98.587588 93.757994 
L 97.689077 76.198006 
L 98.991291 60.808896 
L 99.182383 47.600163 
L 100.364201 36.380776 
L 102.644454 26.88 
L 104.836316 26.88 
z
M 301.473333 26.88 
L 302.196019 26.88 
L 304.885176 36.380776 
L 308.553944 47.600163 
L 310.920137 60.808896 
L 312.748986 76.198006 
L 313.501769 93.757994 
L 313.415785 113.137869 
L 312.661032 133.590571 
L 311.099712 154.013971 
L 310.965636 173.39493 
L 310.942481 190.956403 
L 312.348768 206.347113 
L 312.810435 219.557363 
L 311.531972 230.778089 
L 309.175282 240.28 
L 306.953134 240.28 
L 309.633863 230.778089 
L 311.088111 219.557363 
L 310.562967 206.347113 
L 308.963318 190.956403 
L 308.989657 173.39493 
L 309.142169 154.013971 
L 310.918165 133.590571 
L 311.776695 113.137869 
L 311.874501 93.757994 
L 311.018213 76.198006 
L 308.937902 60.808896 
L 306.246364 47.600163 
L 302.07315 36.380776 
L 301.473333 34.325802 
L 296.769962 26.88 
z
" clip-path="url(#pbe9402ca91)" style="fill: #277e8e"/>
    <path d="M 104.120867 36.380776 
L 102.614055 47.600163 
L 102.370414 60.808896 
L 100.710098 76.198006 
L 101.855695 93.757994 
L 101.657323 113.137869 
L 102.517459 133.590571 
L 104.548347 154.013971 
L 105.169067 173.39493 
L 103.16507 190.956403 
L 102.079835 206.347113 
L 105.180325 219.557363 
L 104.390811 230.778089 
L 104.880381 240.28 
L 102.920141 240.28 
L 102.483367 230.778089 
L 103.187738 219.557363 
L 100.42161 206.347113 
L 101.389812 190.956403 
L 103.177694 173.39493 
L 102.623914 154.013971 
L 100.81204 133.590571 
L 100.044663 113.137869 
L 100.221641 93.757994 
L 99.199588 76.198006 
L 100.680852 60.808896 
L 100.898219 47.600163 
L 102.242534 36.380776 
L 104.836316 26.88 
L 107.028178 26.88 
z
M 206.02 26.88 
L 206.459817 26.88 
L 206.02 27.306802 
L 205.127496 26.88 
z
M 301.473333 34.325802 
L 302.07315 36.380776 
L 306.246364 47.600163 
L 308.937902 60.808896 
L 311.018213 76.198006 
L 311.874501 93.757994 
L 311.776695 113.137869 
L 310.918165 133.590571 
L 309.142169 154.013971 
L 308.989657 173.39493 
L 308.963318 190.956403 
L 310.562967 206.347113 
L 311.088111 219.557363 
L 309.633863 230.778089 
L 306.953134 240.28 
L 304.730987 240.28 
L 307.735754 230.778089 
L 309.365787 219.557363 
L 308.777165 206.347113 
L 306.984156 190.956403 
L 307.013679 173.39493 
L 307.184625 154.013971 
L 309.175299 133.590571 
L 310.137605 113.137869 
L 310.247234 93.757994 
L 309.28744 76.198006 
L 306.955667 60.808896 
L 303.938785 47.600163 
L 301.473333 41.138576 
L 297.205407 36.380776 
L 290.684348 26.88 
L 296.769962 26.88 
z
M 134.43 153.072234 
L 134.818259 154.013971 
L 134.43 155.146162 
L 133.388247 154.013971 
z
" clip-path="url(#pbe9402ca91)" style="fill: #238a8d"/>
    <path d="M 105.9992 36.380776 
L 104.329891 47.600163 
L 104.059976 60.808896 
L 102.220609 76.198006 
L 103.489748 93.757994 
L 103.269984 113.137869 
L 104.222879 133.590571 
L 106.47278 154.013971 
L 107.160439 173.39493 
L 104.940329 190.956403 
L 103.738061 206.347113 
L 107.172911 219.557363 
L 106.298256 230.778089 
L 106.840622 240.28 
L 104.880381 240.28 
L 104.390811 230.778089 
L 105.180325 219.557363 
L 102.079835 206.347113 
L 103.16507 190.956403 
L 105.169067 173.39493 
L 104.548347 154.013971 
L 102.517459 133.590571 
L 101.657323 113.137869 
L 101.855695 93.757994 
L 100.710098 76.198006 
L 102.370414 60.808896 
L 102.614055 47.600163 
L 104.120867 36.380776 
L 107.028178 26.88 
L 109.22004 26.88 
z
M 206.02 27.306802 
L 206.459817 26.88 
L 210.971705 26.88 
L 206.02 31.685167 
L 195.971699 26.88 
L 205.127496 26.88 
z
M 297.205407 36.380776 
L 301.473333 41.138576 
L 303.938785 47.600163 
L 306.955667 60.808896 
L 309.28744 76.198006 
L 310.247234 93.757994 
L 310.137605 113.137869 
L 309.175299 133.590571 
L 307.184625 154.013971 
L 307.013679 173.39493 
L 306.984156 190.956403 
L 308.777165 206.347113 
L 309.365787 219.557363 
L 307.735754 230.778089 
L 304.730987 240.28 
L 302.508839 240.28 
L 305.837645 230.778089 
L 307.643463 219.557363 
L 306.991363 206.347113 
L 305.004993 190.956403 
L 305.0377 173.39493 
L 305.227081 154.013971 
L 307.432433 133.590571 
L 308.498516 113.137869 
L 308.619967 93.757994 
L 307.556668 76.198006 
L 304.973433 60.808896 
L 301.631205 47.600163 
L 301.473333 47.186405 
L 291.780277 36.380776 
L 284.598735 26.88 
L 290.684348 26.88 
z
M 134.43 146.475356 
L 137.538013 154.013971 
L 134.43 163.07717 
L 126.090761 154.013971 
z
M 133.388247 154.013971 
L 134.43 155.146162 
L 134.818259 154.013971 
L 134.43 153.072234 
z
" clip-path="url(#pbe9402ca91)" style="fill: #1f968b"/>
    <path d="M 110.566667 26.88 
L 118.401892 26.88 
L 110.566667 28.896046 
L 107.877533 36.380776 
L 106.045728 47.600163 
L 105.749537 60.808896 
L 103.731119 76.198006 
L 105.123802 93.757994 
L 104.882645 113.137869 
L 105.928298 133.590571 
L 108.397213 154.013971 
L 109.151812 173.39493 
L 106.715587 190.956403 
L 105.396286 206.347113 
L 109.165498 219.557363 
L 108.2057 230.778089 
L 108.800862 240.28 
L 106.840622 240.28 
L 106.298256 230.778089 
L 107.172911 219.557363 
L 103.738061 206.347113 
L 104.940329 190.956403 
L 107.160439 173.39493 
L 106.47278 154.013971 
L 104.222879 133.590571 
L 103.269984 113.137869 
L 103.489748 93.757994 
L 102.220609 76.198006 
L 104.059976 60.808896 
L 104.329891 47.600163 
L 105.9992 36.380776 
L 109.22004 26.88 
z
M 206.02 31.685167 
L 210.971705 26.88 
L 215.483592 26.88 
L 206.02 36.063532 
L 186.815902 26.88 
L 195.971699 26.88 
z
M 291.780277 36.380776 
L 301.473333 47.186405 
L 301.631205 47.600163 
L 304.973433 60.808896 
L 307.556668 76.198006 
L 308.619967 93.757994 
L 308.498516 113.137869 
L 307.432433 133.590571 
L 305.227081 154.013971 
L 305.0377 173.39493 
L 305.004993 190.956403 
L 306.991363 206.347113 
L 307.643463 219.557363 
L 305.837645 230.778089 
L 302.508839 240.28 
L 301.473333 240.28 
L 298.518845 240.28 
L 301.473333 237.512269 
L 303.939536 230.778089 
L 305.92114 219.557363 
L 305.205562 206.347113 
L 303.025831 190.956403 
L 303.061721 173.39493 
L 303.269538 154.013971 
L 305.689566 133.590571 
L 306.859426 113.137869 
L 306.9927 93.757994 
L 305.825895 76.198006 
L 302.991198 60.808896 
L 301.473333 54.849867 
L 296.379849 47.600163 
L 286.355147 36.380776 
L 278.513122 26.88 
L 284.598735 26.88 
z
M 134.43 139.878477 
L 140.257767 154.013971 
L 134.43 171.008178 
L 118.793274 154.013971 
z
M 126.090761 154.013971 
L 134.43 163.07717 
L 137.538013 154.013971 
L 134.43 146.475356 
z
M 206.02 219.212503 
L 206.695417 219.557363 
L 215.047346 230.778089 
L 206.02 233.664023 
L 200.73735 230.778089 
L 205.573359 219.557363 
z
M 253.746667 229.012023 
L 256.260477 230.778089 
L 253.746667 237.581345 
L 248.192404 230.778089 
z
" clip-path="url(#pbe9402ca91)" style="fill: #1fa287"/>
    <path d="M 110.566667 28.896046 
L 118.401892 26.88 
L 134.43 26.88 
L 158.293333 26.88 
L 182.156667 26.88 
L 186.815902 26.88 
L 206.02 36.063532 
L 215.483592 26.88 
L 219.99548 26.88 
L 210.902167 36.380776 
L 206.02 44.012462 
L 197.284026 36.380776 
L 182.156667 29.104795 
L 158.293333 30.593752 
L 134.43 27.715657 
L 110.566667 34.124055 
L 109.755866 36.380776 
L 107.761564 47.600163 
L 107.439099 60.808896 
L 105.24163 76.198006 
L 106.757855 93.757994 
L 106.495306 113.137869 
L 107.633717 133.590571 
L 110.321647 154.013971 
L 110.566667 159.933906 
L 111.495787 154.013971 
L 133.797343 133.590571 
L 134.43 133.272306 
L 134.64754 133.590571 
L 142.977522 154.013971 
L 138.456848 173.39493 
L 134.43 184.275529 
L 110.566667 176.880077 
L 108.490846 190.956403 
L 107.054511 206.347113 
L 110.566667 217.933678 
L 113.9286 219.557363 
L 110.566667 225.787402 
L 110.113144 230.778089 
L 110.566667 237.482908 
L 116.656324 240.28 
L 110.566667 240.28 
L 108.800862 240.28 
L 108.2057 230.778089 
L 109.165498 219.557363 
L 105.396286 206.347113 
L 106.715587 190.956403 
L 109.151812 173.39493 
L 108.397213 154.013971 
L 105.928298 133.590571 
L 104.882645 113.137869 
L 105.123802 93.757994 
L 103.731119 76.198006 
L 105.749537 60.808896 
L 106.045728 47.600163 
L 107.877533 36.380776 
z
M 118.793274 154.013971 
L 134.43 171.008178 
L 140.257767 154.013971 
L 134.43 139.878477 
z
M 277.61 26.88 
L 278.513122 26.88 
L 286.355147 36.380776 
L 296.379849 47.600163 
L 301.473333 54.849867 
L 302.991198 60.808896 
L 305.825895 76.198006 
L 306.9927 93.757994 
L 306.859426 113.137869 
L 305.689566 133.590571 
L 303.269538 154.013971 
L 303.061721 173.39493 
L 303.025831 190.956403 
L 305.205562 206.347113 
L 305.92114 219.557363 
L 303.939536 230.778089 
L 301.473333 237.512269 
L 298.518845 240.28 
L 292.986166 240.28 
L 301.473333 232.329319 
L 302.041427 230.778089 
L 304.198816 219.557363 
L 303.41976 206.347113 
L 301.473333 193.49784 
L 294.805434 190.956403 
L 294.409655 173.39493 
L 300.318192 154.013971 
L 301.473333 152.892948 
L 303.9467 133.590571 
L 305.220336 113.137869 
L 305.365433 93.757994 
L 304.095122 76.198006 
L 301.473333 62.870069 
L 299.966528 60.808896 
L 290.912307 47.600163 
L 280.930017 36.380776 
L 277.61 32.40816 
L 267.829796 26.88 
z
M 206.02 215.366255 
L 214.228381 219.557363 
L 229.883333 230.716562 
L 253.746667 223.122883 
L 264.643052 230.778089 
L 259.490796 240.28 
L 253.746667 240.28 
L 229.883333 240.28 
L 224.555559 240.28 
L 206.02 238.461885 
L 191.954951 230.778089 
L 200.591938 219.557363 
z
M 205.573359 219.557363 
L 200.73735 230.778089 
L 206.02 233.664023 
L 215.047346 230.778089 
L 206.695417 219.557363 
L 206.02 219.212503 
z
M 248.192404 230.778089 
L 253.746667 237.581345 
L 256.260477 230.778089 
L 253.746667 229.012023 
z
" clip-path="url(#pbe9402ca91)" style="fill: #28ae80"/>
    <path d="M 110.566667 34.124055 
L 134.43 27.715657 
L 158.293333 30.593752 
L 182.156667 29.104795 
L 197.284026 36.380776 
L 206.02 44.012462 
L 210.902167 36.380776 
L 219.99548 26.88 
L 224.507367 26.88 
L 216.165715 36.380776 
L 208.383729 47.600163 
L 206.02 53.011853 
L 201.711342 47.600163 
L 187.865621 36.380776 
L 182.156667 33.634874 
L 158.293333 34.861825 
L 134.43 31.673319 
L 118.282299 36.380776 
L 110.566667 41.68046 
L 109.4774 47.600163 
L 109.128661 60.808896 
L 106.752141 76.198006 
L 108.391908 93.757994 
L 108.107967 113.137869 
L 109.339136 133.590571 
L 110.566667 142.821815 
L 120.289426 133.590571 
L 134.43 126.477015 
L 139.292255 133.590571 
L 145.697276 154.013971 
L 144.217216 173.39493 
L 138.491366 190.956403 
L 134.43 197.591583 
L 116.02589 190.956403 
L 110.566667 188.918262 
L 110.266104 190.956403 
L 108.712736 206.347113 
L 110.566667 212.46321 
L 125.255521 219.557363 
L 134.43 228.26491 
L 143.91626 230.778089 
L 158.183412 240.28 
L 134.43 240.28 
L 116.656324 240.28 
L 110.566667 237.482908 
L 110.113144 230.778089 
L 110.566667 225.787402 
L 113.9286 219.557363 
L 110.566667 217.933678 
L 107.054511 206.347113 
L 108.490846 190.956403 
L 110.566667 176.880077 
L 134.43 184.275529 
L 138.456848 173.39493 
L 142.977522 154.013971 
L 134.64754 133.590571 
L 134.43 133.272306 
L 133.797343 133.590571 
L 111.495787 154.013971 
L 110.566667 159.933906 
L 110.321647 154.013971 
L 107.633717 133.590571 
L 106.495306 113.137869 
L 106.757855 93.757994 
L 105.24163 76.198006 
L 107.439099 60.808896 
L 107.761564 47.600163 
L 109.755866 36.380776 
z
M 277.61 32.40816 
L 280.930017 36.380776 
L 290.912307 47.600163 
L 299.966528 60.808896 
L 301.473333 62.870069 
L 304.095122 76.198006 
L 305.365433 93.757994 
L 305.220336 113.137869 
L 303.9467 133.590571 
L 301.473333 152.892948 
L 300.318192 154.013971 
L 294.409655 173.39493 
L 294.805434 190.956403 
L 301.473333 193.49784 
L 303.41976 206.347113 
L 304.198816 219.557363 
L 302.041427 230.778089 
L 301.473333 232.329319 
L 292.986166 240.28 
L 287.453488 240.28 
L 288.070654 230.778089 
L 301.473333 224.650652 
L 302.476492 219.557363 
L 301.633959 206.347113 
L 301.473333 205.286751 
L 295.187156 206.347113 
L 277.61 209.074115 
L 273.923467 206.347113 
L 273.846563 190.956403 
L 274.339354 173.39493 
L 277.61 164.432972 
L 286.302743 154.013971 
L 301.473333 139.291463 
L 302.203834 133.590571 
L 303.581247 113.137869 
L 303.738166 93.757994 
L 302.364349 76.198006 
L 301.473333 71.668501 
L 293.534499 60.808896 
L 285.444765 47.600163 
L 277.61 38.771486 
L 274.086722 36.380776 
L 256.345255 26.88 
L 267.829796 26.88 
z
M 206.02 211.520007 
L 221.761345 219.557363 
L 229.883333 225.346897 
L 247.353524 219.557363 
L 253.746667 216.614361 
L 260.662744 219.557363 
L 273.025626 230.778089 
L 266.010479 240.28 
L 259.490796 240.28 
L 264.643052 230.778089 
L 253.746667 223.122883 
L 229.883333 230.716562 
L 214.228381 219.557363 
L 206.02 215.366255 
L 200.591938 219.557363 
L 191.954951 230.778089 
L 206.02 238.461885 
L 224.555559 240.28 
L 206.02 240.28 
L 182.156667 240.28 
L 158.371917 240.28 
L 182.156667 231.767549 
L 183.172552 230.778089 
L 195.610517 219.557363 
z
" clip-path="url(#pbe9402ca91)" style="fill: #38b977"/>
    <path d="M 134.43 31.673319 
L 158.293333 34.861825 
L 182.156667 33.634874 
L 187.865621 36.380776 
L 201.711342 47.600163 
L 206.02 53.011853 
L 208.383729 47.600163 
L 216.165715 36.380776 
L 224.507367 26.88 
L 229.019255 26.88 
L 221.429264 36.380776 
L 212.57506 47.600163 
L 207.162857 60.808896 
L 206.02 62.475429 
L 204.120773 60.808896 
L 194.071291 47.600163 
L 182.156667 38.642929 
L 158.293333 40.120918 
L 139.853683 36.380776 
L 134.43 35.630981 
L 131.858024 36.380776 
L 114.393137 47.600163 
L 112.217986 60.808896 
L 110.566667 62.177455 
L 108.262651 76.198006 
L 110.025962 93.757994 
L 109.720628 113.137869 
L 110.566667 126.469647 
L 134.43 119.681725 
L 143.93697 133.590571 
L 148.41703 154.013971 
L 149.977585 173.39493 
L 145.607023 190.956403 
L 158.293333 202.836615 
L 163.437499 206.347113 
L 163.513603 219.557363 
L 182.156667 226.939682 
L 190.629097 219.557363 
L 206.02 207.673759 
L 229.29431 219.557363 
L 229.883333 219.977232 
L 231.150308 219.557363 
L 253.746667 209.155416 
L 259.265437 206.347113 
L 265.371453 190.956403 
L 268.208698 173.39493 
L 273.10159 154.013971 
L 277.61 148.216671 
L 292.466634 133.590571 
L 301.473333 119.88616 
L 301.942157 113.137869 
L 302.110898 93.757994 
L 301.473333 85.912979 
L 296.812864 76.198006 
L 287.10247 60.808896 
L 279.977223 47.600163 
L 277.61 44.932636 
L 265.006808 36.380776 
L 253.746667 30.530253 
L 234.618 26.88 
L 253.746667 26.88 
L 256.345255 26.88 
L 274.086722 36.380776 
L 277.61 38.771486 
L 285.444765 47.600163 
L 293.534499 60.808896 
L 301.473333 71.668501 
L 302.364349 76.198006 
L 303.738166 93.757994 
L 303.581247 113.137869 
L 302.203834 133.590571 
L 301.473333 139.291463 
L 286.302743 154.013971 
L 277.61 164.432972 
L 274.339354 173.39493 
L 273.846563 190.956403 
L 273.923467 206.347113 
L 277.61 209.074115 
L 295.187156 206.347113 
L 301.473333 205.286751 
L 301.633959 206.347113 
L 302.476492 219.557363 
L 301.473333 224.650652 
L 288.070654 230.778089 
L 287.453488 240.28 
L 281.920809 240.28 
L 277.61 234.271976 
L 272.530163 240.28 
L 266.010479 240.28 
L 273.025626 230.778089 
L 260.662744 219.557363 
L 253.746667 216.614361 
L 247.353524 219.557363 
L 229.883333 225.346897 
L 221.761345 219.557363 
L 206.02 211.520007 
L 195.610517 219.557363 
L 183.172552 230.778089 
L 182.156667 231.767549 
L 158.371917 240.28 
L 158.293333 240.28 
L 158.183412 240.28 
L 143.91626 230.778089 
L 134.43 228.26491 
L 125.255521 219.557363 
L 110.566667 212.46321 
L 108.712736 206.347113 
L 110.266104 190.956403 
L 110.566667 188.918262 
L 116.02589 190.956403 
L 134.43 197.591583 
L 138.491366 190.956403 
L 144.217216 173.39493 
L 145.697276 154.013971 
L 139.292255 133.590571 
L 134.43 126.477015 
L 120.289426 133.590571 
L 110.566667 142.821815 
L 109.339136 133.590571 
L 108.107967 113.137869 
L 108.391908 93.757994 
L 106.752141 76.198006 
L 109.128661 60.808896 
L 109.4774 47.600163 
L 110.566667 41.68046 
L 118.282299 36.380776 
z
M 110.370961 206.347113 
L 110.566667 206.992742 
L 118.28568 206.347113 
L 110.566667 204.432495 
z
" clip-path="url(#pbe9402ca91)" style="fill: #50c46a"/>
    <path d="M 134.43 35.630981 
L 139.853683 36.380776 
L 158.293333 40.120918 
L 182.156667 38.642929 
L 194.071291 47.600163 
L 204.120773 60.808896 
L 206.02 62.475429 
L 207.162857 60.808896 
L 212.57506 47.600163 
L 221.429264 36.380776 
L 229.019255 26.88 
L 229.883333 26.88 
L 234.618 26.88 
L 253.746667 30.530253 
L 265.006808 36.380776 
L 277.61 44.932636 
L 279.977223 47.600163 
L 287.10247 60.808896 
L 296.812864 76.198006 
L 301.473333 85.912979 
L 302.110898 93.757994 
L 301.942157 113.137869 
L 301.473333 119.88616 
L 292.466634 133.590571 
L 277.61 148.216671 
L 273.10159 154.013971 
L 268.208698 173.39493 
L 265.371453 190.956403 
L 259.265437 206.347113 
L 253.746667 209.155416 
L 231.150308 219.557363 
L 229.883333 219.977232 
L 229.29431 219.557363 
L 206.02 207.673759 
L 190.629097 219.557363 
L 182.156667 226.939682 
L 163.513603 219.557363 
L 163.437499 206.347113 
L 158.293333 202.836615 
L 145.607023 190.956403 
L 149.977585 173.39493 
L 148.41703 154.013971 
L 143.93697 133.590571 
L 134.43 119.681725 
L 110.566667 126.469647 
L 109.720628 113.137869 
L 110.025962 93.757994 
L 108.262651 76.198006 
L 110.566667 62.177455 
L 112.217986 60.808896 
L 114.393137 47.600163 
L 131.858024 36.380776 
z
M 226.692812 36.380776 
L 216.766391 47.600163 
L 213.259272 60.808896 
L 206.02 71.365323 
L 193.989607 60.808896 
L 186.431241 47.600163 
L 182.156667 44.386603 
L 158.293333 45.927574 
L 134.43 41.659572 
L 124.871776 47.600163 
L 123.308994 60.808896 
L 110.566667 71.369318 
L 109.773162 76.198006 
L 110.566667 83.921099 
L 120.277379 93.757994 
L 134.43 112.429406 
L 135.183784 113.137869 
L 148.581684 133.590571 
L 151.136785 154.013971 
L 155.737954 173.39493 
L 152.72268 190.956403 
L 158.293333 196.173093 
L 173.202003 206.347113 
L 174.474914 219.557363 
L 182.156667 222.599199 
L 185.647676 219.557363 
L 196.076632 206.347113 
L 206.02 202.439448 
L 229.883333 206.024971 
L 253.746667 196.704136 
L 256.896344 190.956403 
L 262.078042 173.39493 
L 261.230298 154.013971 
L 276.962678 133.590571 
L 277.61 133.130563 
L 294.747952 113.137869 
L 295.935029 93.757994 
L 287.207447 76.198006 
L 280.670441 60.808896 
L 277.61 54.782274 
L 268.186769 47.600163 
L 255.926893 36.380776 
L 253.746667 35.247978 
L 229.883333 32.309829 
z
M 158.293333 89.985771 
L 161.03962 93.757994 
L 158.293333 98.585394 
L 151.648811 93.757994 
z
M 110.566667 204.432495 
L 118.28568 206.347113 
L 110.566667 206.992742 
L 110.370961 206.347113 
z
M 277.61 234.271976 
L 281.920809 240.28 
L 277.61 240.28 
L 272.530163 240.28 
z
" clip-path="url(#pbe9402ca91)" style="fill: #6ccd5a"/>
    <path d="M 229.883333 32.309829 
L 253.746667 35.247978 
L 255.926893 36.380776 
L 268.186769 47.600163 
L 277.61 54.782274 
L 280.670441 60.808896 
L 287.207447 76.198006 
L 295.935029 93.757994 
L 294.747952 113.137869 
L 277.61 133.130563 
L 276.962678 133.590571 
L 261.230298 154.013971 
L 262.078042 173.39493 
L 256.896344 190.956403 
L 253.746667 196.704136 
L 229.883333 206.024971 
L 206.02 202.439448 
L 196.076632 206.347113 
L 185.647676 219.557363 
L 182.156667 222.599199 
L 174.474914 219.557363 
L 173.202003 206.347113 
L 158.293333 196.173093 
L 152.72268 190.956403 
L 155.737954 173.39493 
L 151.136785 154.013971 
L 148.581684 133.590571 
L 135.183784 113.137869 
L 134.43 112.429406 
L 120.277379 93.757994 
L 110.566667 83.921099 
L 109.773162 76.198006 
L 110.566667 71.369318 
L 123.308994 60.808896 
L 124.871776 47.600163 
L 134.43 41.659572 
L 158.293333 45.927574 
L 182.156667 44.386603 
L 186.431241 47.600163 
L 193.989607 60.808896 
L 206.02 71.365323 
L 213.259272 60.808896 
L 216.766391 47.600163 
L 226.692812 36.380776 
z
M 220.957722 47.600163 
L 219.355687 60.808896 
L 211.541039 76.198006 
L 206.02 85.010542 
L 199.826311 76.198006 
L 183.858441 60.808896 
L 182.156667 57.162546 
L 161.962542 60.808896 
L 158.293333 61.965916 
L 136.372576 60.808896 
L 134.43 60.414326 
L 134.400003 60.808896 
L 134.43 60.943932 
L 145.136952 76.198006 
L 158.293333 79.96137 
L 168.337673 93.757994 
L 158.293333 111.41385 
L 155.555566 113.137869 
L 153.226399 133.590571 
L 153.856539 154.013971 
L 158.293333 168.465891 
L 165.898063 173.39493 
L 163.269159 190.956403 
L 182.156667 204.939957 
L 206.02 196.474277 
L 229.883333 197.870131 
L 243.588747 190.956403 
L 253.746667 179.779856 
L 255.947386 173.39493 
L 253.746667 163.845875 
L 249.743585 154.013971 
L 253.746667 145.347055 
L 261.499335 133.590571 
L 253.746667 121.503368 
L 250.18602 113.137869 
L 253.746667 108.085912 
L 260.845858 113.137869 
L 277.61 122.141834 
L 285.328295 113.137869 
L 286.828956 93.757994 
L 277.61 76.212387 
L 277.588359 76.198006 
L 256.000277 60.808896 
L 253.746667 56.921299 
L 252.363071 47.600163 
L 229.883333 38.131878 
z
M 151.648811 93.757994 
L 158.293333 98.585394 
L 161.03962 93.757994 
L 158.293333 89.985771 
z
" clip-path="url(#pbe9402ca91)" style="fill: #8bd646"/>
    <path d="M 229.883333 38.131878 
L 252.363071 47.600163 
L 253.746667 56.921299 
L 256.000277 60.808896 
L 277.588359 76.198006 
L 277.61 76.212387 
L 286.828956 93.757994 
L 285.328295 113.137869 
L 277.61 122.141834 
L 260.845858 113.137869 
L 253.746667 108.085912 
L 250.18602 113.137869 
L 253.746667 121.503368 
L 261.499335 133.590571 
L 253.746667 145.347055 
L 249.743585 154.013971 
L 253.746667 163.845875 
L 255.947386 173.39493 
L 253.746667 179.779856 
L 243.588747 190.956403 
L 229.883333 197.870131 
L 206.02 196.474277 
L 182.156667 204.939957 
L 163.269159 190.956403 
L 165.898063 173.39493 
L 158.293333 168.465891 
L 153.856539 154.013971 
L 153.226399 133.590571 
L 155.555566 113.137869 
L 158.293333 111.41385 
L 168.337673 93.757994 
L 158.293333 79.96137 
L 145.136952 76.198006 
L 134.43 60.943932 
L 134.400003 60.808896 
L 134.43 60.414326 
L 136.372576 60.808896 
L 158.293333 61.965916 
L 161.962542 60.808896 
L 182.156667 57.162546 
L 183.858441 60.808896 
L 199.826311 76.198006 
L 206.02 85.010542 
L 211.541039 76.198006 
L 219.355687 60.808896 
L 220.957722 47.600163 
z
M 225.149053 47.600163 
L 225.452102 60.808896 
L 223.638379 76.198006 
L 223.263652 93.757994 
L 206.02 106.148816 
L 196.958651 93.757994 
L 186.255104 76.198006 
L 182.156667 72.099814 
L 174.37898 76.198006 
L 175.635725 93.757994 
L 172.817635 113.137869 
L 182.156667 122.847142 
L 204.282631 133.590571 
L 206.02 135.477094 
L 214.683391 154.013971 
L 229.883333 168.061965 
L 238.912812 154.013971 
L 245.421678 133.590571 
L 239.924423 113.137869 
L 252.066497 93.757994 
L 250.344773 76.198006 
L 240.256102 60.808896 
L 241.806928 47.600163 
L 229.883333 42.57804 
z
M 267.157267 93.757994 
L 277.61 95.002669 
L 277.722882 93.757994 
L 277.61 93.543155 
z
M 157.871114 133.590571 
L 156.576294 154.013971 
L 158.293333 159.606865 
L 178.936615 154.013971 
L 161.362593 133.590571 
L 158.293333 131.646828 
z
M 179.56614 173.39493 
L 182.156667 182.505284 
L 189.106664 173.39493 
L 182.156667 160.640791 
z
" clip-path="url(#pbe9402ca91)" style="fill: #addc30"/>
    <path d="M 229.883333 42.57804 
L 241.806928 47.600163 
L 240.256102 60.808896 
L 250.344773 76.198006 
L 252.066497 93.757994 
L 239.924423 113.137869 
L 245.421678 133.590571 
L 238.912812 154.013971 
L 229.883333 168.061965 
L 214.683391 154.013971 
L 206.02 135.477094 
L 204.282631 133.590571 
L 182.156667 122.847142 
L 172.817635 113.137869 
L 175.635725 93.757994 
L 174.37898 76.198006 
L 182.156667 72.099814 
L 186.255104 76.198006 
L 196.958651 93.757994 
L 206.02 106.148816 
L 223.263652 93.757994 
L 223.638379 76.198006 
L 225.452102 60.808896 
L 225.149053 47.600163 
z
M 229.340385 47.600163 
L 229.883333 51.849346 
L 231.250785 47.600163 
L 229.883333 47.024203 
z
M 277.61 93.543155 
L 277.722882 93.757994 
L 277.61 95.002669 
L 267.157267 93.757994 
z
M 158.293333 131.646828 
L 161.362593 133.590571 
L 178.936615 154.013971 
L 158.293333 159.606865 
L 156.576294 154.013971 
L 157.871114 133.590571 
z
M 182.156667 160.640791 
L 189.106664 173.39493 
L 182.156667 182.505284 
L 179.56614 173.39493 
z
" clip-path="url(#pbe9402ca91)" style="fill: #cde11d"/>
    <path d="M 229.883333 47.024203 
L 231.250785 47.600163 
L 229.883333 51.849346 
L 229.340385 47.600163 
z
" clip-path="url(#pbe9402ca91)" style="fill: #efe51c"/>
   </g>
   <g id="matplotlib.axis_1">
    <g id="xtick_1">
     <g id="line2d_1">
      <defs>
       <path id="m9dc7e79689" d="M 0 0 
L 0 3.5 
" style="stroke: #000000; stroke-width: 0.8"/>
      </defs>
      <g>
       <use xlink:href="#m9dc7e79689" x="126.475556" y="240.28" style="stroke: #000000; stroke-width: 0.8"/>
      </g>
     </g>
     <g id="text_1">
      <!-- −50 -->
      <g transform="translate(113.812743 256.398125) scale(0.12 -0.12)">
       <defs>
        <path id="DejaVuSans-2212" d="M 678 2272 
L 4684 2272 
L 4684 1741 
L 678 1741 
L 678 2272 
z
" transform="scale(0.015625)"/>
        <path id="DejaVuSans-35" d="M 691 4666 
L 3169 4666 
L 3169 4134 
L 1269 4134 
L 1269 2991 
Q 1406 3038 1543 3061 
Q 1681 3084 1819 3084 
Q 2600 3084 3056 2656 
Q 3513 2228 3513 1497 
Q 3513 744 3044 326 
Q 2575 -91 1722 -91 
Q 1428 -91 1123 -41 
Q 819 9 494 109 
L 494 744 
Q 775 591 1075 516 
Q 1375 441 1709 441 
Q 2250 441 2565 725 
Q 2881 1009 2881 1497 
Q 2881 1984 2565 2268 
Q 2250 2553 1709 2553 
Q 1456 2553 1204 2497 
Q 953 2441 691 2322 
L 691 4666 
z
" transform="scale(0.015625)"/>
        <path id="DejaVuSans-30" d="M 2034 4250 
Q 1547 4250 1301 3770 
Q 1056 3291 1056 2328 
Q 1056 1369 1301 889 
Q 1547 409 2034 409 
Q 2525 409 2770 889 
Q 3016 1369 3016 2328 
Q 3016 3291 2770 3770 
Q 2525 4250 2034 4250 
z
M 2034 4750 
Q 2819 4750 3233 4129 
Q 3647 3509 3647 2328 
Q 3647 1150 3233 529 
Q 2819 -91 2034 -91 
Q 1250 -91 836 529 
Q 422 1150 422 2328 
Q 422 3509 836 4129 
Q 1250 4750 2034 4750 
z
" transform="scale(0.015625)"/>
       </defs>
       <use xlink:href="#DejaVuSans-2212"/>
       <use xlink:href="#DejaVuSans-35" transform="translate(83.789062 0)"/>
       <use xlink:href="#DejaVuSans-30" transform="translate(147.412109 0)"/>
      </g>
     </g>
    </g>
    <g id="xtick_2">
     <g id="line2d_2">
      <g>
       <use xlink:href="#m9dc7e79689" x="206.02" y="240.28" style="stroke: #000000; stroke-width: 0.8"/>
      </g>
     </g>
     <g id="text_2">
      <!-- 0 -->
      <g transform="translate(202.2025 256.398125) scale(0.12 -0.12)">
       <use xlink:href="#DejaVuSans-30"/>
      </g>
     </g>
    </g>
    <g id="xtick_3">
     <g id="line2d_3">
      <g>
       <use xlink:href="#m9dc7e79689" x="285.564444" y="240.28" style="stroke: #000000; stroke-width: 0.8"/>
      </g>
     </g>
     <g id="text_3">
      <!-- 50 -->
      <g transform="translate(277.929444 256.398125) scale(0.12 -0.12)">
       <use xlink:href="#DejaVuSans-35"/>
       <use xlink:href="#DejaVuSans-30" transform="translate(63.623047 0)"/>
      </g>
     </g>
    </g>
    <g id="text_4">
     <!-- $\Theta^{\circ}$ -->
     <g transform="translate(198.4 272.011875) scale(0.12 -0.12)">
      <defs>
       <path id="DejaVuSans-398" d="M 1416 2750 
L 3622 2750 
L 3622 2219 
L 1416 2219 
L 1416 2750 
z
M 2522 4238 
Q 1834 4238 1431 3725 
Q 1025 3213 1025 2328 
Q 1025 1447 1429 934 
Q 1834 422 2522 422 
Q 3209 422 3613 934 
Q 4013 1447 4013 2328 
Q 4013 3213 3613 3725 
Q 3209 4238 2522 4238 
z
M 2522 4750 
Q 3503 4750 4090 4092 
Q 4678 3434 4678 2328 
Q 4678 1225 4091 569 
Q 3503 -91 2522 -91 
Q 1538 -91 950 566 
Q 359 1222 359 2328 
Q 359 3434 950 4094 
Q 1538 4750 2522 4750 
z
" transform="scale(0.015625)"/>
       <path id="DejaVuSans-2218" d="M 2000 2619 
Q 1750 2619 1578 2445 
Q 1406 2272 1406 2022 
Q 1406 1775 1578 1605 
Q 1750 1435 2000 1435 
Q 2250 1435 2422 1605 
Q 2594 1775 2594 2022 
Q 2594 2269 2420 2444 
Q 2247 2619 2000 2619 
z
M 2000 3022 
Q 2200 3022 2384 2945 
Q 2569 2869 2703 2725 
Q 2847 2585 2919 2406 
Q 2991 2228 2991 2022 
Q 2991 1610 2702 1324 
Q 2413 1038 1994 1038 
Q 1572 1038 1290 1319 
Q 1009 1600 1009 2022 
Q 1009 2441 1296 2731 
Q 1584 3022 2000 3022 
z
" transform="scale(0.015625)"/>
      </defs>
      <use xlink:href="#DejaVuSans-398" transform="translate(0 0.78125)"/>
      <use xlink:href="#DejaVuSans-2218" transform="translate(79.667969 39.0625) scale(0.7)"/>
     </g>
    </g>
   </g>
   <g id="matplotlib.axis_2">
    <g id="ytick_1">
     <g id="line2d_4">
      <defs>
       <path id="m39541e7497" d="M 0 0 
L -3.5 0 
" style="stroke: #000000; stroke-width: 0.8"/>
      </defs>
      <g>
       <use xlink:href="#m39541e7497" x="62.84" y="219.984151" style="stroke: #000000; stroke-width: 0.8"/>
      </g>
     </g>
     <g id="text_5">
      <!-- −40 -->
      <g transform="translate(30.514375 224.543214) scale(0.12 -0.12)">
       <defs>
        <path id="DejaVuSans-34" d="M 2419 4116 
L 825 1625 
L 2419 1625 
L 2419 4116 
z
M 2253 4666 
L 3047 4666 
L 3047 1625 
L 3713 1625 
L 3713 1100 
L 3047 1100 
L 3047 0 
L 2419 0 
L 2419 1100 
L 313 1100 
L 313 1709 
L 2253 4666 
z
" transform="scale(0.015625)"/>
       </defs>
       <use xlink:href="#DejaVuSans-2212"/>
       <use xlink:href="#DejaVuSans-34" transform="translate(83.789062 0)"/>
       <use xlink:href="#DejaVuSans-30" transform="translate(147.412109 0)"/>
      </g>
     </g>
    </g>
    <g id="ytick_2">
     <g id="line2d_5">
      <g>
       <use xlink:href="#m39541e7497" x="62.84" y="176.783648" style="stroke: #000000; stroke-width: 0.8"/>
      </g>
     </g>
     <g id="text_6">
      <!-- −20 -->
      <g transform="translate(30.514375 181.342711) scale(0.12 -0.12)">
       <defs>
        <path id="DejaVuSans-32" d="M 1228 531 
L 3431 531 
L 3431 0 
L 469 0 
L 469 531 
Q 828 903 1448 1529 
Q 2069 2156 2228 2338 
Q 2531 2678 2651 2914 
Q 2772 3150 2772 3378 
Q 2772 3750 2511 3984 
Q 2250 4219 1831 4219 
Q 1534 4219 1204 4116 
Q 875 4013 500 3803 
L 500 4441 
Q 881 4594 1212 4672 
Q 1544 4750 1819 4750 
Q 2544 4750 2975 4387 
Q 3406 4025 3406 3419 
Q 3406 3131 3298 2873 
Q 3191 2616 2906 2266 
Q 2828 2175 2409 1742 
Q 1991 1309 1228 531 
z
" transform="scale(0.015625)"/>
       </defs>
       <use xlink:href="#DejaVuSans-2212"/>
       <use xlink:href="#DejaVuSans-32" transform="translate(83.789062 0)"/>
       <use xlink:href="#DejaVuSans-30" transform="translate(147.412109 0)"/>
      </g>
     </g>
    </g>
    <g id="ytick_3">
     <g id="line2d_6">
      <g>
       <use xlink:href="#m39541e7497" x="62.84" y="133.583145" style="stroke: #000000; stroke-width: 0.8"/>
      </g>
     </g>
     <g id="text_7">
      <!-- 0 -->
      <g transform="translate(48.205 138.142208) scale(0.12 -0.12)">
       <use xlink:href="#DejaVuSans-30"/>
      </g>
     </g>
    </g>
    <g id="ytick_4">
     <g id="line2d_7">
      <g>
       <use xlink:href="#m39541e7497" x="62.84" y="90.382642" style="stroke: #000000; stroke-width: 0.8"/>
      </g>
     </g>
     <g id="text_8">
      <!-- 20 -->
      <g transform="translate(40.57 94.941704) scale(0.12 -0.12)">
       <use xlink:href="#DejaVuSans-32"/>
       <use xlink:href="#DejaVuSans-30" transform="translate(63.623047 0)"/>
      </g>
     </g>
    </g>
    <g id="ytick_5">
     <g id="line2d_8">
      <g>
       <use xlink:href="#m39541e7497" x="62.84" y="47.182139" style="stroke: #000000; stroke-width: 0.8"/>
      </g>
     </g>
     <g id="text_9">
      <!-- 40 -->
      <g transform="translate(40.57 51.741201) scale(0.12 -0.12)">
       <use xlink:href="#DejaVuSans-34"/>
       <use xlink:href="#DejaVuSans-30" transform="translate(63.623047 0)"/>
      </g>
     </g>
    </g>
    <g id="text_10">
     <!-- $\phi^{\circ}$ -->
     <g transform="translate(23.784375 141.38) rotate(-90) scale(0.13 -0.13)">
      <defs>
       <path id="DejaVuSans-Oblique-3d5" d="M 2991 4863 
L 2738 3572 
Q 3363 3572 3684 3094 
Q 4016 2606 3850 1747 
Q 3681 888 3159 400 
Q 2653 -78 2028 -78 
L 1784 -1331 
L 1213 -1331 
L 1456 -78 
Q 834 -78 509 400 
Q 178 888 347 1747 
Q 513 2606 1034 3094 
Q 1544 3572 2166 3572 
L 2419 4863 
L 2991 4863 
z
M 2128 434 
Q 2481 434 2784 756 
Q 3116 1116 3244 1747 
Q 3369 2372 3169 2738 
Q 2991 3059 2638 3059 
L 2128 434 
z
M 1556 434 
L 2066 3059 
Q 1716 3059 1413 2738 
Q 1072 2372 953 1747 
Q 834 1116 1028 756 
Q 1203 434 1556 434 
z
" transform="scale(0.015625)"/>
      </defs>
      <use xlink:href="#DejaVuSans-Oblique-3d5" transform="translate(0 0.015625)"/>
      <use xlink:href="#DejaVuSans-2218" transform="translate(73.414505 38.296875) scale(0.7)"/>
     </g>
    </g>
   </g>
   <g id="QuadContourSet_2">
    <path clip-path="url(#pbe9402ca91)" style="fill: none; stroke-dasharray: 1.85,0.8; stroke-dashoffset: 0; stroke: #000000; stroke-width: 0.5"/>
    <path d="M 324.468464 26.88 
L 324.569357 36.380776 
L 324.707004 47.600163 
L 324.79578 60.808896 
L 324.864395 76.198006 
L 324.892639 93.757994 
L 324.889413 113.137869 
L 324.879262 120.4696 
M 324.823462 146.711505 
L 324.802517 154.013971 
L 324.797487 173.39493 
L 324.796618 190.956403 
L 324.84938 206.347113 
L 324.866701 219.557363 
L 324.818735 230.778089 
L 324.730315 240.28 
M 87.238219 240.28 
L 87.223813 230.778089 
L 87.247045 219.557363 
L 87.155809 206.347113 
L 87.187743 190.956403 
L 87.246714 173.39493 
L 87.228448 154.013971 
L 87.20708 146.711503 
M 87.152449 120.469597 
L 87.143376 113.137869 
L 87.149213 93.757994 
L 87.115502 76.198006 
L 87.164359 60.808896 
L 87.171529 47.600163 
L 87.215869 36.380776 
L 87.301421 26.88 
" clip-path="url(#pbe9402ca91)" style="fill: none; stroke-dasharray: 1.85,0.8; stroke-dashoffset: 0; stroke: #000000; stroke-width: 0.5"/>
    <path d="M 321.286686 26.88 
L 321.757331 36.380776 
L 322.399424 47.600163 
L 322.813545 60.808896 
L 323.133623 76.198006 
L 323.265372 93.757994 
L 323.250323 113.137869 
L 323.20241 120.556435 
M 322.943849 146.62392 
L 322.844973 154.013971 
L 322.821508 173.39493 
L 322.817455 190.956403 
L 323.063578 206.347113 
L 323.144377 219.557363 
L 322.920626 230.778089 
L 322.508168 240.28 
M 89.198459 240.28 
L 89.131257 230.778089 
L 89.239632 219.557363 
L 88.814034 206.347113 
L 88.963002 190.956403 
L 89.238086 173.39493 
L 89.152881 154.013971 
L 89.052008 146.623878 
M 88.798862 120.556387 
L 88.756037 113.137869 
L 88.783267 93.757994 
L 88.626013 76.198006 
L 88.853921 60.808896 
L 88.887365 47.600163 
L 89.094202 36.380776 
L 89.493283 26.88 
" clip-path="url(#pbe9402ca91)" style="fill: none; stroke-dasharray: 1.85,0.8; stroke-dashoffset: 0; stroke: #000000; stroke-width: 0.5"/>
    <path d="M 318.104908 26.88 
L 318.945305 36.380776 
L 320.091844 47.600163 
L 320.83131 60.808896 
L 321.40285 76.198006 
L 321.638104 93.757994 
L 321.611233 113.137869 
L 321.525673 120.556958 
M 321.064038 146.621677 
L 320.88743 154.013971 
L 320.845529 173.39493 
L 320.838293 190.956403 
L 321.277777 206.347113 
L 321.422053 219.557363 
L 321.022517 230.778089 
L 320.28602 240.28 
M 91.158699 240.28 
L 91.038701 230.778089 
L 91.232218 219.557363 
L 90.472259 206.347113 
L 90.73826 190.956403 
L 91.229459 173.39493 
L 91.077315 154.013971 
L 90.897135 146.621544 
M 90.445172 120.556804 
L 90.368697 113.137869 
L 90.41732 93.757994 
L 90.136524 76.198006 
L 90.543483 60.808896 
L 90.603201 47.600163 
L 90.972535 36.380776 
L 91.685145 26.88 
" clip-path="url(#pbe9402ca91)" style="fill: none; stroke-dasharray: 1.85,0.8; stroke-dashoffset: 0; stroke: #000000; stroke-width: 0.5"/>
    <path d="M 314.92313 26.88 
L 316.133279 36.380776 
L 317.784264 47.600163 
L 318.849076 60.808896 
L 319.672077 76.198006 
L 320.010837 93.757994 
L 319.972144 113.137869 
L 319.848925 120.557775 
M 319.184318 146.618171 
L 318.929886 154.013971 
L 318.869551 173.39493 
L 318.859131 190.956403 
L 319.491975 206.347113 
L 319.69973 219.557363 
L 319.124408 230.778089 
L 318.063872 240.28 
M 93.11894 240.28 
L 92.946145 230.778089 
L 93.224805 219.557363 
L 92.130484 206.347113 
L 92.513519 190.956403 
L 93.220831 173.39493 
L 93.001748 154.013971 
L 92.742166 146.617895 
M 92.09149 120.557458 
L 91.981358 113.137869 
L 92.051374 93.757994 
L 91.647034 76.198006 
L 92.233044 60.808896 
L 92.319038 47.600163 
L 92.850868 36.380776 
L 93.877006 26.88 
" clip-path="url(#pbe9402ca91)" style="fill: none; stroke-dasharray: 1.85,0.8; stroke-dashoffset: 0; stroke: #000000; stroke-width: 0.5"/>
    <path d="M 311.741352 26.88 
L 313.321254 36.380776 
L 315.476684 47.600163 
L 316.866841 60.808896 
L 317.941304 76.198006 
L 318.38357 93.757994 
L 318.333054 113.137869 
L 318.173102 120.515593 
M 317.302785 146.65667 
L 316.972343 154.013971 
L 316.893572 173.39493 
L 316.879968 190.956403 
L 317.706173 206.347113 
L 317.977406 219.557363 
L 317.226299 230.778089 
L 315.841725 240.28 
M 95.07918 240.28 
L 94.85359 230.778089 
L 95.217392 219.557363 
L 93.78871 206.347113 
L 94.288777 190.956403 
L 95.212204 173.39493 
L 94.926181 154.013971 
L 94.589042 146.656198 
M 93.736978 120.51505 
L 93.594019 113.137869 
L 93.685427 93.757994 
L 93.157545 76.198006 
L 93.922606 60.808896 
L 94.034874 47.600163 
L 94.729201 36.380776 
L 96.068868 26.88 
" clip-path="url(#pbe9402ca91)" style="fill: none; stroke-dasharray: 1.85,0.8; stroke-dashoffset: 0; stroke: #000000; stroke-width: 0.5"/>
    <path d="M 308.559575 26.88 
L 310.509228 36.380776 
L 313.169104 47.600163 
L 314.884606 60.808896 
L 316.210532 76.198006 
L 316.756303 93.757994 
L 316.693964 113.137869 
L 316.49654 120.517005 
M 315.422912 146.650628 
L 315.014799 154.013971 
L 314.917593 173.39493 
L 314.900806 190.956403 
L 315.920372 206.347113 
L 316.255082 219.557363 
L 315.32819 230.778089 
L 313.619577 240.28 
M 97.03942 240.28 
L 96.761034 230.778089 
L 97.209978 219.557363 
L 95.446935 206.347113 
L 96.064036 190.956403 
L 97.203576 173.39493 
L 96.850614 154.013971 
L 96.434217 146.64991 
M 95.383124 120.516178 
L 95.20668 113.137869 
L 95.319481 93.757994 
L 94.668056 76.198006 
L 95.612168 60.808896 
L 95.75071 47.600163 
L 96.607534 36.380776 
L 98.26073 26.88 
" clip-path="url(#pbe9402ca91)" style="fill: none; stroke-dasharray: 1.85,0.8; stroke-dashoffset: 0; stroke: #000000; stroke-width: 0.5"/>
    <path d="M 305.377797 26.88 
L 307.697202 36.380776 
L 310.861524 47.600163 
L 312.902371 60.808896 
L 314.479759 76.198006 
L 315.129036 93.757994 
L 315.054875 113.137869 
L 314.819954 120.518711 
M 313.543248 146.643331 
L 313.057256 154.013971 
L 312.941615 173.39493 
L 312.921643 190.956403 
L 314.13457 206.347113 
L 314.532758 219.557363 
L 313.430081 230.778089 
L 311.397429 240.28 
M 98.999661 240.28 
L 98.668478 230.778089 
L 99.202565 219.557363 
L 97.10516 206.347113 
L 97.839294 190.956403 
L 99.194949 173.39493 
L 98.775047 154.013971 
L 98.279169 146.642317 
M 97.029286 120.517542 
L 96.819341 113.137869 
L 96.953534 93.757994 
L 96.178566 76.198006 
L 97.301729 60.808896 
L 97.466546 47.600163 
L 98.485867 36.380776 
L 100.452592 26.88 
" clip-path="url(#pbe9402ca91)" style="fill: none; stroke-dasharray: 1.85,0.8; stroke-dashoffset: 0; stroke: #000000; stroke-width: 0.5"/>
    <path d="M 302.196019 26.88 
L 304.885176 36.380776 
L 308.553944 47.600163 
L 310.920137 60.808896 
L 312.748986 76.198006 
L 313.501769 93.757994 
L 313.415785 113.137869 
L 313.141743 120.56399 
M 311.667135 146.591594 
L 311.099712 154.013971 
L 310.965636 173.39493 
L 310.942481 190.956403 
L 312.348768 206.347113 
L 312.810435 219.557363 
L 311.531972 230.778089 
L 309.175282 240.28 
M 100.959901 240.28 
L 100.575923 230.778089 
L 101.195151 219.557363 
L 98.763385 206.347113 
L 99.614553 190.956403 
L 101.186322 173.39493 
L 100.699481 154.013971 
L 100.12049 146.590238 
M 98.676896 120.562424 
L 98.432002 113.137869 
L 98.587588 93.757994 
L 97.689077 76.198006 
L 98.991291 60.808896 
L 99.182383 47.600163 
L 100.364201 36.380776 
L 102.644454 26.88 
" clip-path="url(#pbe9402ca91)" style="fill: none; stroke-dasharray: 1.85,0.8; stroke-dashoffset: 0; stroke: #000000; stroke-width: 0.5"/>
    <path d="M 296.769962 26.88 
L 301.473333 34.325802 
L 302.07315 36.380776 
L 306.246364 47.600163 
L 308.937902 60.808896 
L 311.018213 76.198006 
L 311.874501 93.757994 
L 311.776695 113.137869 
L 311.466694 120.523008 
M 309.784705 146.625 
L 309.142169 154.013971 
L 308.989657 173.39493 
L 308.963318 190.956403 
L 310.562967 206.347113 
L 311.088111 219.557363 
L 309.633863 230.778089 
L 306.953134 240.28 
M 102.920141 240.28 
L 102.483367 230.778089 
L 103.187738 219.557363 
L 100.42161 206.347113 
L 101.389812 190.956403 
L 103.177694 173.39493 
L 102.623914 154.013971 
L 101.968241 146.623244 
M 100.321674 120.520976 
L 100.044663 113.137869 
L 100.221641 93.757994 
L 99.199588 76.198006 
L 100.680852 60.808896 
L 100.898219 47.600163 
L 102.242534 36.380776 
L 104.836316 26.88 
" clip-path="url(#pbe9402ca91)" style="fill: none; stroke-dasharray: 1.85,0.8; stroke-dashoffset: 0; stroke: #000000; stroke-width: 0.5"/>
    <path d="M 205.127496 26.88 
L 206.02 27.306802 
L 206.459817 26.88 
M 290.684348 26.88 
L 297.205407 36.380776 
L 301.473333 41.138576 
L 303.938785 47.600163 
L 306.955667 60.808896 
L 309.28744 76.198006 
L 310.247234 93.757994 
L 310.137605 113.137869 
L 309.792046 120.482336 
M 307.901701 146.657106 
L 307.184625 154.013971 
L 307.013679 173.39493 
L 306.984156 190.956403 
L 308.777165 206.347113 
L 309.365787 219.557363 
L 307.735754 230.778089 
L 304.730987 240.28 
M 104.880381 240.28 
L 104.390811 230.778089 
L 105.180325 219.557363 
L 102.079835 206.347113 
L 103.16507 190.956403 
L 105.169067 173.39493 
L 104.548347 154.013971 
L 103.816566 146.654898 
M 101.966086 120.479776 
L 101.657323 113.137869 
L 101.855695 93.757994 
L 100.710098 76.198006 
L 102.370414 60.808896 
L 102.614055 47.600163 
L 104.120867 36.380776 
L 107.028178 26.88 
M 134.43 153.072234 
L 133.388247 154.013971 
L 134.43 155.146162 
L 134.818259 154.013971 
L 134.43 153.072234 
z
" clip-path="url(#pbe9402ca91)" style="fill: none; stroke-dasharray: 1.85,0.8; stroke-dashoffset: 0; stroke: #000000; stroke-width: 0.5"/>
    <path d="M 195.971699 26.88 
L 206.02 31.685167 
L 210.971705 26.88 
M 284.598735 26.88 
L 291.780277 36.380776 
L 301.473333 47.186405 
L 301.631205 47.600163 
L 304.973433 60.808896 
L 307.556668 76.198006 
L 308.619967 93.757994 
L 308.498516 113.137869 
L 308.11554 120.485229 
M 306.022814 146.644823 
L 305.227081 154.013971 
L 305.0377 173.39493 
L 305.004993 190.956403 
L 306.991363 206.347113 
L 307.643463 219.557363 
L 305.837645 230.778089 
L 302.508839 240.28 
M 106.840622 240.28 
L 106.298256 230.778089 
L 107.172911 219.557363 
L 103.738061 206.347113 
L 104.940329 190.956403 
L 107.160439 173.39493 
L 106.47278 154.013971 
L 105.660676 146.642122 
M 103.612152 120.482089 
L 103.269984 113.137869 
L 103.489748 93.757994 
L 102.220609 76.198006 
L 104.059976 60.808896 
L 104.329891 47.600163 
L 105.9992 36.380776 
L 109.22004 26.88 
M 134.43 146.475356 
L 126.090761 154.013971 
L 134.43 163.07717 
L 137.538013 154.013971 
L 134.43 146.475356 
" clip-path="url(#pbe9402ca91)" style="fill: none; stroke-dasharray: 1.85,0.8; stroke-dashoffset: 0; stroke: #000000; stroke-width: 0.5"/>
    <path d="M 186.815902 26.88 
L 193.635575 30.141214 
M 278.513122 26.88 
L 286.355147 36.380776 
L 296.379849 47.600163 
L 301.473333 54.849867 
L 302.991198 60.808896 
L 305.825895 76.198006 
L 306.9927 93.757994 
L 306.859426 113.137869 
L 306.434041 120.574898 
M 304.154529 146.545247 
L 303.269538 154.013971 
L 303.061721 173.39493 
L 303.025831 190.956403 
L 305.205562 206.347113 
L 305.92114 219.557363 
L 303.939536 230.778089 
L 301.473333 237.512269 
L 298.518845 240.28 
M 108.800862 240.28 
L 108.2057 230.778089 
L 109.165498 219.557363 
L 105.396286 206.347113 
L 106.715587 190.956403 
L 109.151812 173.39493 
L 108.397213 154.013971 
L 105.928298 133.590571 
L 105.548269 126.157296 
M 105.044829 100.104381 
L 105.123802 93.757994 
L 103.731119 76.198006 
L 105.749537 60.808896 
L 106.045728 47.600163 
L 107.877533 36.380776 
L 110.566667 28.896046 
L 118.401892 26.88 
M 134.43 139.878477 
L 118.793274 154.013971 
L 125.348959 161.138779 
M 138.685301 158.599402 
L 140.257767 154.013971 
L 134.43 139.878477 
M 206.02 219.212503 
L 205.573359 219.557363 
L 200.73735 230.778089 
L 206.02 233.664023 
L 215.047346 230.778089 
L 206.695417 219.557363 
L 206.02 219.212503 
z
M 253.746667 229.012023 
L 248.192404 230.778089 
L 253.746667 237.581345 
L 256.260477 230.778089 
L 253.746667 229.012023 
z
" clip-path="url(#pbe9402ca91)" style="fill: none; stroke-dasharray: 1.85,0.8; stroke-dashoffset: 0; stroke: #000000; stroke-width: 0.5"/>
    <path d="M 267.829796 26.88 
L 277.61 32.40816 
L 280.930017 36.380776 
L 290.912307 47.600163 
L 299.966528 60.808896 
L 301.473333 62.870069 
L 304.095122 76.198006 
L 305.365433 93.757994 
L 305.220336 113.137869 
L 303.9467 133.590571 
L 303.142625 139.865642 
M 296.929016 165.131015 
L 294.409655 173.39493 
L 294.805434 190.956403 
L 301.473333 193.49784 
L 303.41976 206.347113 
L 304.198816 219.557363 
L 302.041427 230.778089 
L 301.473333 232.329319 
L 292.986166 240.28 
M 116.656324 240.28 
L 110.566667 237.482908 
L 110.113144 230.778089 
L 110.566667 225.787402 
L 113.9286 219.557363 
L 110.566667 217.933678 
L 107.054511 206.347113 
L 108.490846 190.956403 
L 110.566667 176.880077 
L 134.43 184.275529 
L 138.456848 173.39493 
L 142.977522 154.013971 
L 139.50211 145.492977 
M 124.299592 142.288456 
L 111.495787 154.013971 
L 110.566667 159.933906 
L 110.321647 154.013971 
L 107.633717 133.590571 
L 106.495306 113.137869 
L 106.757855 93.757994 
L 105.24163 76.198006 
L 107.439099 60.808896 
L 107.761564 47.600163 
L 109.755866 36.380776 
L 110.566667 34.124055 
L 134.43 27.715657 
L 158.293333 30.593752 
L 182.156667 29.104795 
L 197.284026 36.380776 
L 206.02 44.012462 
L 210.902167 36.380776 
L 219.99548 26.88 
M 259.490796 240.28 
L 264.643052 230.778089 
L 253.746667 223.122883 
L 229.883333 230.716562 
L 217.928451 222.194855 
M 196.517255 224.85098 
L 191.954951 230.778089 
L 206.02 238.461885 
L 224.555559 240.28 
" clip-path="url(#pbe9402ca91)" style="fill: none; stroke-dasharray: 1.85,0.8; stroke-dashoffset: 0; stroke: #000000; stroke-width: 0.5"/>
    <path d="M 256.345255 26.88 
L 274.086722 36.380776 
L 277.61 38.771486 
L 285.444765 47.600163 
L 293.534499 60.808896 
L 301.473333 71.668501 
L 302.364349 76.198006 
L 303.738166 93.757994 
L 303.581247 113.137869 
L 302.203834 133.590571 
L 301.473333 139.291463 
L 286.302743 154.013971 
L 286.203989 154.132336 
M 274.238212 176.999306 
L 273.846563 190.956403 
L 273.923467 206.347113 
L 277.61 209.074115 
L 295.187156 206.347113 
L 301.473333 205.286751 
L 301.633959 206.347113 
L 302.476492 219.557363 
L 301.473333 224.650652 
L 288.070654 230.778089 
L 287.453488 240.28 
M 158.183412 240.28 
L 143.91626 230.778089 
L 134.43 228.26491 
L 125.255521 219.557363 
L 110.566667 212.46321 
L 108.712736 206.347113 
L 108.952058 203.97592 
M 121.512101 192.934331 
L 134.43 197.591583 
L 138.491366 190.956403 
L 144.217216 173.39493 
L 145.697276 154.013971 
L 139.292255 133.590571 
L 134.43 126.477015 
L 120.289426 133.590571 
L 110.566667 142.821815 
L 109.339136 133.590571 
L 108.107967 113.137869 
L 108.391908 93.757994 
L 106.752141 76.198006 
L 109.128661 60.808896 
L 109.4774 47.600163 
L 110.566667 41.68046 
L 118.282299 36.380776 
L 134.43 31.673319 
L 158.293333 34.861825 
L 182.156667 33.634874 
L 187.865621 36.380776 
L 201.711342 47.600163 
L 206.02 53.011853 
L 208.383729 47.600163 
L 216.165715 36.380776 
L 224.507367 26.88 
M 266.010479 240.28 
L 273.025626 230.778089 
L 260.662744 219.557363 
L 253.746667 216.614361 
L 247.353524 219.557363 
L 233.41488 224.17656 
M 209.511558 213.302758 
L 206.02 211.520007 
L 195.610517 219.557363 
L 183.172552 230.778089 
L 182.156667 231.767549 
L 158.371917 240.28 
" clip-path="url(#pbe9402ca91)" style="fill: none; stroke-dasharray: 1.85,0.8; stroke-dashoffset: 0; stroke: #000000; stroke-width: 0.5"/>
    <path d="M 234.618 26.88 
L 253.746667 30.530253 
L 265.006808 36.380776 
L 277.61 44.932636 
L 279.977223 47.600163 
L 287.10247 60.808896 
L 296.812864 76.198006 
L 301.473333 85.912979 
L 302.110898 93.757994 
L 301.942157 113.137869 
L 301.473333 119.88616 
L 292.466634 133.590571 
L 277.61 148.216671 
L 273.10159 154.013971 
L 268.208698 173.39493 
L 265.371453 190.956403 
L 259.265437 206.347113 
L 253.746667 209.155416 
L 231.150308 219.557363 
L 229.883333 219.977232 
L 229.29431 219.557363 
L 206.02 207.673759 
L 190.629097 219.557363 
L 182.156667 226.939682 
L 163.513603 219.557363 
L 163.437499 206.347113 
L 158.293333 202.836615 
L 145.607023 190.956403 
L 149.977585 173.39493 
L 148.41703 154.013971 
L 143.93697 133.590571 
L 134.43 119.681725 
L 110.566667 126.469647 
L 109.720628 113.137869 
L 110.025962 93.757994 
L 108.262651 76.198006 
L 110.566667 62.177455 
L 112.217986 60.808896 
L 114.393137 47.600163 
L 122.535204 42.369725 
M 148.17358 38.068313 
L 158.293333 40.120918 
L 182.156667 38.642929 
L 194.071291 47.600163 
L 204.120773 60.808896 
L 206.02 62.475429 
L 207.162857 60.808896 
L 212.57506 47.600163 
L 221.429264 36.380776 
L 229.019255 26.88 
M 272.530163 240.28 
L 277.61 234.271976 
L 281.920809 240.28 
M 110.566667 204.432495 
L 118.28568 206.347113 
L 110.566667 206.992742 
L 110.370961 206.347113 
L 110.566667 204.432495 
z
" clip-path="url(#pbe9402ca91)" style="fill: none; stroke-dasharray: 1.85,0.8; stroke-dashoffset: 0; stroke: #000000; stroke-width: 0.5"/>
    <path d="M 213.406353 60.254951 
L 216.766391 47.600163 
L 226.692812 36.380776 
L 229.883333 32.309829 
L 253.746667 35.247978 
L 255.926893 36.380776 
L 268.186769 47.600163 
L 277.61 54.782274 
L 280.670441 60.808896 
L 287.207447 76.198006 
L 295.935029 93.757994 
L 294.747952 113.137869 
L 277.61 133.130563 
L 276.962678 133.590571 
L 261.230298 154.013971 
L 262.078042 173.39493 
L 256.896344 190.956403 
L 253.746667 196.704136 
L 229.883333 206.024971 
L 206.02 202.439448 
L 196.076632 206.347113 
L 185.647676 219.557363 
L 182.156667 222.599199 
L 174.474914 219.557363 
L 173.202003 206.347113 
L 158.293333 196.173093 
L 152.72268 190.956403 
L 155.737954 173.39493 
L 151.136785 154.013971 
L 148.581684 133.590571 
L 135.183784 113.137869 
L 134.43 112.429406 
L 120.277379 93.757994 
L 110.566667 83.921099 
L 109.773162 76.198006 
L 110.566667 71.369318 
L 123.308994 60.808896 
L 124.871776 47.600163 
L 134.43 41.659572 
L 158.293333 45.927574 
L 182.156667 44.386603 
L 186.431241 47.600163 
L 193.989607 60.808896 
L 195.80225 62.399454 
M 158.293333 89.985771 
L 151.648811 93.757994 
L 158.293333 98.585394 
L 161.03962 93.757994 
L 158.293333 89.985771 
" clip-path="url(#pbe9402ca91)" style="fill: none; stroke-dasharray: 1.85,0.8; stroke-dashoffset: 0; stroke: #000000; stroke-width: 0.5"/>
    <path d="M 193.58476 70.182681 
L 199.826311 76.198006 
L 206.02 85.010542 
L 211.541039 76.198006 
L 219.355687 60.808896 
L 220.957722 47.600163 
L 229.883333 38.131878 
L 252.363071 47.600163 
L 253.746667 56.921299 
L 256.000277 60.808896 
L 277.588359 76.198006 
L 277.61 76.212387 
L 286.828956 93.757994 
L 285.328295 113.137869 
L 277.61 122.141834 
L 260.845858 113.137869 
L 253.746667 108.085912 
L 250.18602 113.137869 
L 253.746667 121.503368 
L 261.499335 133.590571 
L 253.746667 145.347055 
L 249.743585 154.013971 
L 253.746667 163.845875 
L 255.947386 173.39493 
L 253.746667 179.779856 
L 243.588747 190.956403 
L 229.883333 197.870131 
L 206.02 196.474277 
L 182.156667 204.939957 
L 163.269159 190.956403 
L 165.898063 173.39493 
L 158.293333 168.465891 
L 153.856539 154.013971 
L 153.226399 133.590571 
L 155.555566 113.137869 
L 158.293333 111.41385 
L 168.337673 93.757994 
L 158.293333 79.96137 
L 145.136952 76.198006 
L 134.43 60.943932 
L 134.400003 60.808896 
L 134.43 60.414326 
L 136.372576 60.808896 
L 158.293333 61.965916 
L 161.962542 60.808896 
L 172.628438 58.88301 
" clip-path="url(#pbe9402ca91)" style="fill: none; stroke-dasharray: 1.85,0.8; stroke-dashoffset: 0; stroke: #000000; stroke-width: 0.5"/>
    <path d="M 172.818122 113.134518 
L 175.635725 93.757994 
L 174.37898 76.198006 
L 182.156667 72.099814 
L 186.255104 76.198006 
L 196.958651 93.757994 
L 206.02 106.148816 
L 223.263652 93.757994 
L 223.638379 76.198006 
L 225.452102 60.808896 
L 225.149053 47.600163 
L 229.883333 42.57804 
L 241.806928 47.600163 
L 240.256102 60.808896 
L 250.344773 76.198006 
L 252.066497 93.757994 
L 239.924423 113.137869 
L 245.421678 133.590571 
L 238.912812 154.013971 
L 229.883333 168.061965 
L 214.683391 154.013971 
L 206.02 135.477094 
L 204.282631 133.590571 
L 194.542693 128.86127 
M 277.61 93.543155 
L 277.722882 93.757994 
L 277.61 95.002669 
L 267.157267 93.757994 
L 277.61 93.543155 
z
M 157.035613 146.769051 
L 157.871114 133.590571 
L 158.293333 131.646828 
L 161.362593 133.590571 
L 178.936615 154.013971 
L 171.693564 155.976335 
M 182.156667 160.640791 
L 189.106664 173.39493 
L 182.156667 182.505284 
L 179.56614 173.39493 
L 182.156667 160.640791 
z
" clip-path="url(#pbe9402ca91)" style="fill: none; stroke-dasharray: 1.85,0.8; stroke-dashoffset: 0; stroke: #000000; stroke-width: 0.5"/>
    <path d="M 229.883333 47.024203 
L 231.250785 47.600163 
L 229.883333 51.849346 
L 229.340385 47.600163 
L 229.883333 47.024203 
z
" clip-path="url(#pbe9402ca91)" style="fill: none; stroke-dasharray: 1.85,0.8; stroke-dashoffset: 0; stroke: #000000; stroke-width: 0.5"/>
    <path clip-path="url(#pbe9402ca91)" style="fill: none; stroke-dasharray: 1.85,0.8; stroke-dashoffset: 0; stroke: #000000; stroke-width: 0.5"/>
   </g>
   <g id="patch_3">
    <path d="M 62.84 240.28 
L 62.84 26.88 
" style="fill: none; stroke: #000000; stroke-width: 0.8; stroke-linejoin: miter; stroke-linecap: square"/>
   </g>
   <g id="patch_4">
    <path d="M 349.2 240.28 
L 349.2 26.88 
" style="fill: none; stroke: #000000; stroke-width: 0.8; stroke-linejoin: miter; stroke-linecap: square"/>
   </g>
   <g id="patch_5">
    <path d="M 62.84 240.28 
L 349.2 240.28 
" style="fill: none; stroke: #000000; stroke-width: 0.8; stroke-linejoin: miter; stroke-linecap: square"/>
   </g>
   <g id="patch_6">
    <path d="M 62.84 26.88 
L 349.2 26.88 
" style="fill: none; stroke: #000000; stroke-width: 0.8; stroke-linejoin: miter; stroke-linecap: square"/>
   </g>
   <g id="text_11">
    <!-- Band 2500 -->
    <g transform="translate(173.438125 20.88) scale(0.12 -0.12)">
     <defs>
      <path id="DejaVuSans-42" d="M 1259 2228 
L 1259 519 
L 2272 519 
Q 2781 519 3026 730 
Q 3272 941 3272 1375 
Q 3272 1813 3026 2020 
Q 2781 2228 2272 2228 
L 1259 2228 
z
M 1259 4147 
L 1259 2741 
L 2194 2741 
Q 2656 2741 2882 2914 
Q 3109 3088 3109 3444 
Q 3109 3797 2882 3972 
Q 2656 4147 2194 4147 
L 1259 4147 
z
M 628 4666 
L 2241 4666 
Q 2963 4666 3353 4366 
Q 3744 4066 3744 3513 
Q 3744 3084 3544 2831 
Q 3344 2578 2956 2516 
Q 3422 2416 3680 2098 
Q 3938 1781 3938 1306 
Q 3938 681 3513 340 
Q 3088 0 2303 0 
L 628 0 
L 628 4666 
z
" transform="scale(0.015625)"/>
      <path id="DejaVuSans-61" d="M 2194 1759 
Q 1497 1759 1228 1600 
Q 959 1441 959 1056 
Q 959 750 1161 570 
Q 1363 391 1709 391 
Q 2188 391 2477 730 
Q 2766 1069 2766 1631 
L 2766 1759 
L 2194 1759 
z
M 3341 1997 
L 3341 0 
L 2766 0 
L 2766 531 
Q 2569 213 2275 61 
Q 1981 -91 1556 -91 
Q 1019 -91 701 211 
Q 384 513 384 1019 
Q 384 1609 779 1909 
Q 1175 2209 1959 2209 
L 2766 2209 
L 2766 2266 
Q 2766 2663 2505 2880 
Q 2244 3097 1772 3097 
Q 1472 3097 1187 3025 
Q 903 2953 641 2809 
L 641 3341 
Q 956 3463 1253 3523 
Q 1550 3584 1831 3584 
Q 2591 3584 2966 3190 
Q 3341 2797 3341 1997 
z
" transform="scale(0.015625)"/>
      <path id="DejaVuSans-6e" d="M 3513 2113 
L 3513 0 
L 2938 0 
L 2938 2094 
Q 2938 2591 2744 2837 
Q 2550 3084 2163 3084 
Q 1697 3084 1428 2787 
Q 1159 2491 1159 1978 
L 1159 0 
L 581 0 
L 581 3500 
L 1159 3500 
L 1159 2956 
Q 1366 3272 1645 3428 
Q 1925 3584 2291 3584 
Q 2894 3584 3203 3211 
Q 3513 2838 3513 2113 
z
" transform="scale(0.015625)"/>
      <path id="DejaVuSans-64" d="M 2906 2969 
L 2906 4863 
L 3481 4863 
L 3481 0 
L 2906 0 
L 2906 525 
Q 2725 213 2448 61 
Q 2172 -91 1784 -91 
Q 1150 -91 751 415 
Q 353 922 353 1747 
Q 353 2572 751 3078 
Q 1150 3584 1784 3584 
Q 2172 3584 2448 3432 
Q 2725 3281 2906 2969 
z
M 947 1747 
Q 947 1113 1208 752 
Q 1469 391 1925 391 
Q 2381 391 2643 752 
Q 2906 1113 2906 1747 
Q 2906 2381 2643 2742 
Q 2381 3103 1925 3103 
Q 1469 3103 1208 2742 
Q 947 2381 947 1747 
z
" transform="scale(0.015625)"/>
      <path id="DejaVuSans-20" transform="scale(0.015625)"/>
     </defs>
     <use xlink:href="#DejaVuSans-42"/>
     <use xlink:href="#DejaVuSans-61" transform="translate(68.603516 0)"/>
     <use xlink:href="#DejaVuSans-6e" transform="translate(129.882812 0)"/>
     <use xlink:href="#DejaVuSans-64" transform="translate(193.261719 0)"/>
     <use xlink:href="#DejaVuSans-20" transform="translate(256.738281 0)"/>
     <use xlink:href="#DejaVuSans-32" transform="translate(288.525391 0)"/>
     <use xlink:href="#DejaVuSans-35" transform="translate(352.148438 0)"/>
     <use xlink:href="#DejaVuSans-30" transform="translate(415.771484 0)"/>
     <use xlink:href="#DejaVuSans-30" transform="translate(479.394531 0)"/>
    </g>
   </g>
   <g id="text_12">
    <g clip-path="url(#pbe9402ca91)">
     <!-- 60.8 -->
     <g transform="translate(327.324553 143.615033) rotate(-89.885775) scale(0.09 -0.09)">
      <defs>
       <path id="DejaVuSans-36" d="M 2113 2584 
Q 1688 2584 1439 2293 
Q 1191 2003 1191 1497 
Q 1191 994 1439 701 
Q 1688 409 2113 409 
Q 2538 409 2786 701 
Q 3034 994 3034 1497 
Q 3034 2003 2786 2293 
Q 2538 2584 2113 2584 
z
M 3366 4563 
L 3366 3988 
Q 3128 4100 2886 4159 
Q 2644 4219 2406 4219 
Q 1781 4219 1451 3797 
Q 1122 3375 1075 2522 
Q 1259 2794 1537 2939 
Q 1816 3084 2150 3084 
Q 2853 3084 3261 2657 
Q 3669 2231 3669 1497 
Q 3669 778 3244 343 
Q 2819 -91 2113 -91 
Q 1303 -91 875 529 
Q 447 1150 447 2328 
Q 447 3434 972 4092 
Q 1497 4750 2381 4750 
Q 2619 4750 2861 4703 
Q 3103 4656 3366 4563 
z
" transform="scale(0.015625)"/>
       <path id="DejaVuSans-2e" d="M 684 794 
L 1344 794 
L 1344 0 
L 684 0 
L 684 794 
z
" transform="scale(0.015625)"/>
       <path id="DejaVuSans-38" d="M 2034 2216 
Q 1584 2216 1326 1975 
Q 1069 1734 1069 1313 
Q 1069 891 1326 650 
Q 1584 409 2034 409 
Q 2484 409 2743 651 
Q 3003 894 3003 1313 
Q 3003 1734 2745 1975 
Q 2488 2216 2034 2216 
z
M 1403 2484 
Q 997 2584 770 2862 
Q 544 3141 544 3541 
Q 544 4100 942 4425 
Q 1341 4750 2034 4750 
Q 2731 4750 3128 4425 
Q 3525 4100 3525 3541 
Q 3525 3141 3298 2862 
Q 3072 2584 2669 2484 
Q 3125 2378 3379 2068 
Q 3634 1759 3634 1313 
Q 3634 634 3220 271 
Q 2806 -91 2034 -91 
Q 1263 -91 848 271 
Q 434 634 434 1313 
Q 434 1759 690 2068 
Q 947 2378 1403 2484 
z
M 1172 3481 
Q 1172 3119 1398 2916 
Q 1625 2713 2034 2713 
Q 2441 2713 2670 2916 
Q 2900 3119 2900 3481 
Q 2900 3844 2670 4047 
Q 2441 4250 2034 4250 
Q 1625 4250 1398 4047 
Q 1172 3844 1172 3481 
z
" transform="scale(0.015625)"/>
      </defs>
      <use xlink:href="#DejaVuSans-36"/>
      <use xlink:href="#DejaVuSans-30" transform="translate(63.623047 0)"/>
      <use xlink:href="#DejaVuSans-2e" transform="translate(127.246094 0)"/>
      <use xlink:href="#DejaVuSans-38" transform="translate(159.033203 0)"/>
     </g>
    </g>
   </g>
   <g id="text_13">
    <g clip-path="url(#pbe9402ca91)">
     <!-- 60.8 -->
     <g transform="translate(84.665697 123.575906) rotate(-270.111833) scale(0.09 -0.09)">
      <use xlink:href="#DejaVuSans-36"/>
      <use xlink:href="#DejaVuSans-30" transform="translate(63.623047 0)"/>
      <use xlink:href="#DejaVuSans-2e" transform="translate(127.246094 0)"/>
      <use xlink:href="#DejaVuSans-38" transform="translate(159.033203 0)"/>
     </g>
    </g>
   </g>
   <g id="text_14">
    <g clip-path="url(#pbe9402ca91)">
     <!-- 61.6 -->
     <g transform="translate(325.508385 143.632763) rotate(-89.467184) scale(0.09 -0.09)">
      <defs>
       <path id="DejaVuSans-31" d="M 794 531 
L 1825 531 
L 1825 4091 
L 703 3866 
L 703 4441 
L 1819 4666 
L 2450 4666 
L 2450 531 
L 3481 531 
L 3481 0 
L 794 0 
L 794 531 
z
" transform="scale(0.015625)"/>
      </defs>
      <use xlink:href="#DejaVuSans-36"/>
      <use xlink:href="#DejaVuSans-31" transform="translate(63.623047 0)"/>
      <use xlink:href="#DejaVuSans-2e" transform="translate(127.246094 0)"/>
      <use xlink:href="#DejaVuSans-36" transform="translate(159.033203 0)"/>
     </g>
    </g>
   </g>
   <g id="text_15">
    <g clip-path="url(#pbe9402ca91)">
     <!-- 61.6 -->
     <g transform="translate(86.299548 123.594065) rotate(-270.521657) scale(0.09 -0.09)">
      <use xlink:href="#DejaVuSans-36"/>
      <use xlink:href="#DejaVuSans-31" transform="translate(63.623047 0)"/>
      <use xlink:href="#DejaVuSans-2e" transform="translate(127.246094 0)"/>
      <use xlink:href="#DejaVuSans-36" transform="translate(159.033203 0)"/>
     </g>
    </g>
   </g>
   <g id="text_16">
    <g clip-path="url(#pbe9402ca91)">
     <!-- 62.4 -->
     <g transform="translate(323.692103 143.649954) rotate(-89.04867) scale(0.09 -0.09)">
      <use xlink:href="#DejaVuSans-36"/>
      <use xlink:href="#DejaVuSans-32" transform="translate(63.623047 0)"/>
      <use xlink:href="#DejaVuSans-2e" transform="translate(127.246094 0)"/>
      <use xlink:href="#DejaVuSans-34" transform="translate(159.033203 0)"/>
     </g>
    </g>
   </g>
   <g id="text_17">
    <g clip-path="url(#pbe9402ca91)">
     <!-- 62.4 -->
     <g transform="translate(87.933545 123.612732) rotate(-270.931402) scale(0.09 -0.09)">
      <use xlink:href="#DejaVuSans-36"/>
      <use xlink:href="#DejaVuSans-32" transform="translate(63.623047 0)"/>
      <use xlink:href="#DejaVuSans-2e" transform="translate(127.246094 0)"/>
      <use xlink:href="#DejaVuSans-34" transform="translate(159.033203 0)"/>
     </g>
    </g>
   </g>
   <g id="text_18">
    <g clip-path="url(#pbe9402ca91)">
     <!-- 63.2 -->
     <g transform="translate(321.875722 143.666602) rotate(-88.630296) scale(0.09 -0.09)">
      <defs>
       <path id="DejaVuSans-33" d="M 2597 2516 
Q 3050 2419 3304 2112 
Q 3559 1806 3559 1356 
Q 3559 666 3084 287 
Q 2609 -91 1734 -91 
Q 1441 -91 1130 -33 
Q 819 25 488 141 
L 488 750 
Q 750 597 1062 519 
Q 1375 441 1716 441 
Q 2309 441 2620 675 
Q 2931 909 2931 1356 
Q 2931 1769 2642 2001 
Q 2353 2234 1838 2234 
L 1294 2234 
L 1294 2753 
L 1863 2753 
Q 2328 2753 2575 2939 
Q 2822 3125 2822 3475 
Q 2822 3834 2567 4026 
Q 2313 4219 1838 4219 
Q 1578 4219 1281 4162 
Q 984 4106 628 3988 
L 628 4550 
Q 988 4650 1302 4700 
Q 1616 4750 1894 4750 
Q 2613 4750 3031 4423 
Q 3450 4097 3450 3541 
Q 3450 3153 3228 2886 
Q 3006 2619 2597 2516 
z
" transform="scale(0.015625)"/>
      </defs>
      <use xlink:href="#DejaVuSans-36"/>
      <use xlink:href="#DejaVuSans-33" transform="translate(63.623047 0)"/>
      <use xlink:href="#DejaVuSans-2e" transform="translate(127.246094 0)"/>
      <use xlink:href="#DejaVuSans-32" transform="translate(159.033203 0)"/>
     </g>
    </g>
   </g>
   <g id="text_19">
    <g clip-path="url(#pbe9402ca91)">
     <!-- 63.2 -->
     <g transform="translate(89.567702 123.631903) rotate(-271.341004) scale(0.09 -0.09)">
      <use xlink:href="#DejaVuSans-36"/>
      <use xlink:href="#DejaVuSans-33" transform="translate(63.623047 0)"/>
      <use xlink:href="#DejaVuSans-2e" transform="translate(127.246094 0)"/>
      <use xlink:href="#DejaVuSans-32" transform="translate(159.033203 0)"/>
     </g>
    </g>
   </g>
   <g id="text_20">
    <g clip-path="url(#pbe9402ca91)">
     <!-- 64.0 -->
     <g transform="translate(320.059256 143.682706) rotate(-88.21212) scale(0.09 -0.09)">
      <use xlink:href="#DejaVuSans-36"/>
      <use xlink:href="#DejaVuSans-34" transform="translate(63.623047 0)"/>
      <use xlink:href="#DejaVuSans-2e" transform="translate(127.246094 0)"/>
      <use xlink:href="#DejaVuSans-30" transform="translate(159.033203 0)"/>
     </g>
    </g>
   </g>
   <g id="text_21">
    <g clip-path="url(#pbe9402ca91)">
     <!-- 64.0 -->
     <g transform="translate(91.202033 123.651573) rotate(-271.750401) scale(0.09 -0.09)">
      <use xlink:href="#DejaVuSans-36"/>
      <use xlink:href="#DejaVuSans-34" transform="translate(63.623047 0)"/>
      <use xlink:href="#DejaVuSans-2e" transform="translate(127.246094 0)"/>
      <use xlink:href="#DejaVuSans-30" transform="translate(159.033203 0)"/>
     </g>
    </g>
   </g>
   <g id="text_22">
    <g clip-path="url(#pbe9402ca91)">
     <!-- 64.8 -->
     <g transform="translate(318.242721 143.698263) rotate(-87.794204) scale(0.09 -0.09)">
      <use xlink:href="#DejaVuSans-36"/>
      <use xlink:href="#DejaVuSans-34" transform="translate(63.623047 0)"/>
      <use xlink:href="#DejaVuSans-2e" transform="translate(127.246094 0)"/>
      <use xlink:href="#DejaVuSans-38" transform="translate(159.033203 0)"/>
     </g>
    </g>
   </g>
   <g id="text_23">
    <g clip-path="url(#pbe9402ca91)">
     <!-- 64.8 -->
     <g transform="translate(92.836553 123.671737) rotate(-272.159532) scale(0.09 -0.09)">
      <use xlink:href="#DejaVuSans-36"/>
      <use xlink:href="#DejaVuSans-34" transform="translate(63.623047 0)"/>
      <use xlink:href="#DejaVuSans-2e" transform="translate(127.246094 0)"/>
      <use xlink:href="#DejaVuSans-38" transform="translate(159.033203 0)"/>
     </g>
    </g>
   </g>
   <g id="text_24">
    <g clip-path="url(#pbe9402ca91)">
     <!-- 65.6 -->
     <g transform="translate(316.42613 143.71327) rotate(-87.376609) scale(0.09 -0.09)">
      <use xlink:href="#DejaVuSans-36"/>
      <use xlink:href="#DejaVuSans-35" transform="translate(63.623047 0)"/>
      <use xlink:href="#DejaVuSans-2e" transform="translate(127.246094 0)"/>
      <use xlink:href="#DejaVuSans-36" transform="translate(159.033203 0)"/>
     </g>
    </g>
   </g>
   <g id="text_25">
    <g clip-path="url(#pbe9402ca91)">
     <!-- 65.6 -->
     <g transform="translate(94.471275 123.692389) rotate(-272.568335) scale(0.09 -0.09)">
      <use xlink:href="#DejaVuSans-36"/>
      <use xlink:href="#DejaVuSans-35" transform="translate(63.623047 0)"/>
      <use xlink:href="#DejaVuSans-2e" transform="translate(127.246094 0)"/>
      <use xlink:href="#DejaVuSans-36" transform="translate(159.033203 0)"/>
     </g>
    </g>
   </g>
   <g id="text_26">
    <g clip-path="url(#pbe9402ca91)">
     <!-- 66.4 -->
     <g transform="translate(314.6095 143.727727) rotate(-86.959393) scale(0.09 -0.09)">
      <use xlink:href="#DejaVuSans-36"/>
      <use xlink:href="#DejaVuSans-36" transform="translate(63.623047 0)"/>
      <use xlink:href="#DejaVuSans-2e" transform="translate(127.246094 0)"/>
      <use xlink:href="#DejaVuSans-34" transform="translate(159.033203 0)"/>
     </g>
    </g>
   </g>
   <g id="text_27">
    <g clip-path="url(#pbe9402ca91)">
     <!-- 66.4 -->
     <g transform="translate(96.106213 123.713525) rotate(-272.976747) scale(0.09 -0.09)">
      <use xlink:href="#DejaVuSans-36"/>
      <use xlink:href="#DejaVuSans-36" transform="translate(63.623047 0)"/>
      <use xlink:href="#DejaVuSans-2e" transform="translate(127.246094 0)"/>
      <use xlink:href="#DejaVuSans-34" transform="translate(159.033203 0)"/>
     </g>
    </g>
   </g>
   <g id="text_28">
    <g clip-path="url(#pbe9402ca91)">
     <!-- 67.2 -->
     <g transform="translate(312.792844 143.741632) rotate(-86.542617) scale(0.09 -0.09)">
      <defs>
       <path id="DejaVuSans-37" d="M 525 4666 
L 3525 4666 
L 3525 4397 
L 1831 0 
L 1172 0 
L 2766 4134 
L 525 4134 
L 525 4666 
z
" transform="scale(0.015625)"/>
      </defs>
      <use xlink:href="#DejaVuSans-36"/>
      <use xlink:href="#DejaVuSans-37" transform="translate(63.623047 0)"/>
      <use xlink:href="#DejaVuSans-2e" transform="translate(127.246094 0)"/>
      <use xlink:href="#DejaVuSans-32" transform="translate(159.033203 0)"/>
     </g>
    </g>
   </g>
   <g id="text_29">
    <g clip-path="url(#pbe9402ca91)">
     <!-- 67.2 -->
     <g transform="translate(97.741382 123.735139) rotate(-273.384709) scale(0.09 -0.09)">
      <use xlink:href="#DejaVuSans-36"/>
      <use xlink:href="#DejaVuSans-37" transform="translate(63.623047 0)"/>
      <use xlink:href="#DejaVuSans-2e" transform="translate(127.246094 0)"/>
      <use xlink:href="#DejaVuSans-32" transform="translate(159.033203 0)"/>
     </g>
    </g>
   </g>
   <g id="text_30">
    <g clip-path="url(#pbe9402ca91)">
     <!-- 68.0 -->
     <g transform="translate(310.976177 143.754984) rotate(-86.126339) scale(0.09 -0.09)">
      <use xlink:href="#DejaVuSans-36"/>
      <use xlink:href="#DejaVuSans-38" transform="translate(63.623047 0)"/>
      <use xlink:href="#DejaVuSans-2e" transform="translate(127.246094 0)"/>
      <use xlink:href="#DejaVuSans-30" transform="translate(159.033203 0)"/>
     </g>
    </g>
   </g>
   <g id="text_31">
    <g clip-path="url(#pbe9402ca91)">
     <!-- 68.0 -->
     <g transform="translate(99.376794 123.757225) rotate(-273.792159) scale(0.09 -0.09)">
      <use xlink:href="#DejaVuSans-36"/>
      <use xlink:href="#DejaVuSans-38" transform="translate(63.623047 0)"/>
      <use xlink:href="#DejaVuSans-2e" transform="translate(127.246094 0)"/>
      <use xlink:href="#DejaVuSans-30" transform="translate(159.033203 0)"/>
     </g>
    </g>
   </g>
   <g id="text_32">
    <g clip-path="url(#pbe9402ca91)">
     <!-- 68.8 -->
     <g transform="translate(309.159514 143.767783) rotate(-85.710619) scale(0.09 -0.09)">
      <use xlink:href="#DejaVuSans-36"/>
      <use xlink:href="#DejaVuSans-38" transform="translate(63.623047 0)"/>
      <use xlink:href="#DejaVuSans-2e" transform="translate(127.246094 0)"/>
      <use xlink:href="#DejaVuSans-38" transform="translate(159.033203 0)"/>
     </g>
    </g>
   </g>
   <g id="text_33">
    <g clip-path="url(#pbe9402ca91)">
     <!-- 68.8 -->
     <g transform="translate(101.012463 123.779776) rotate(-274.199038) scale(0.09 -0.09)">
      <use xlink:href="#DejaVuSans-36"/>
      <use xlink:href="#DejaVuSans-38" transform="translate(63.623047 0)"/>
      <use xlink:href="#DejaVuSans-2e" transform="translate(127.246094 0)"/>
      <use xlink:href="#DejaVuSans-38" transform="translate(159.033203 0)"/>
     </g>
    </g>
   </g>
   <g id="text_34">
    <g clip-path="url(#pbe9402ca91)">
     <!-- 69.6 -->
     <g transform="translate(196.546412 40.163482) rotate(-9.481079) scale(0.09 -0.09)">
      <defs>
       <path id="DejaVuSans-39" d="M 703 97 
L 703 672 
Q 941 559 1184 500 
Q 1428 441 1663 441 
Q 2288 441 2617 861 
Q 2947 1281 2994 2138 
Q 2813 1869 2534 1725 
Q 2256 1581 1919 1581 
Q 1219 1581 811 2004 
Q 403 2428 403 3163 
Q 403 3881 828 4315 
Q 1253 4750 1959 4750 
Q 2769 4750 3195 4129 
Q 3622 3509 3622 2328 
Q 3622 1225 3098 567 
Q 2575 -91 1691 -91 
Q 1453 -91 1209 -44 
Q 966 3 703 97 
z
M 1959 2075 
Q 2384 2075 2632 2365 
Q 2881 2656 2881 3163 
Q 2881 3666 2632 3958 
Q 2384 4250 1959 4250 
Q 1534 4250 1286 3958 
Q 1038 3666 1038 3163 
Q 1038 2656 1286 2365 
Q 1534 2075 1959 2075 
z
" transform="scale(0.015625)"/>
      </defs>
      <use xlink:href="#DejaVuSans-36"/>
      <use xlink:href="#DejaVuSans-39" transform="translate(63.623047 0)"/>
      <use xlink:href="#DejaVuSans-2e" transform="translate(127.246094 0)"/>
      <use xlink:href="#DejaVuSans-36" transform="translate(159.033203 0)"/>
     </g>
    </g>
   </g>
   <g id="text_35">
    <g clip-path="url(#pbe9402ca91)">
     <!-- 69.6 -->
     <g transform="translate(307.34287 143.780029) rotate(-85.295513) scale(0.09 -0.09)">
      <use xlink:href="#DejaVuSans-36"/>
      <use xlink:href="#DejaVuSans-39" transform="translate(63.623047 0)"/>
      <use xlink:href="#DejaVuSans-2e" transform="translate(127.246094 0)"/>
      <use xlink:href="#DejaVuSans-36" transform="translate(159.033203 0)"/>
     </g>
    </g>
   </g>
   <g id="text_36">
    <g clip-path="url(#pbe9402ca91)">
     <!-- 69.6 -->
     <g transform="translate(102.218118 103.164968) rotate(-271.037932) scale(0.09 -0.09)">
      <use xlink:href="#DejaVuSans-36"/>
      <use xlink:href="#DejaVuSans-39" transform="translate(63.623047 0)"/>
      <use xlink:href="#DejaVuSans-2e" transform="translate(127.246094 0)"/>
      <use xlink:href="#DejaVuSans-36" transform="translate(159.033203 0)"/>
     </g>
    </g>
   </g>
   <g id="text_37">
    <g clip-path="url(#pbe9402ca91)">
     <!-- 69.6 -->
     <g transform="translate(125.105188 175.436084) rotate(-11.480036) scale(0.09 -0.09)">
      <use xlink:href="#DejaVuSans-36"/>
      <use xlink:href="#DejaVuSans-39" transform="translate(63.623047 0)"/>
      <use xlink:href="#DejaVuSans-2e" transform="translate(127.246094 0)"/>
      <use xlink:href="#DejaVuSans-36" transform="translate(159.033203 0)"/>
     </g>
    </g>
   </g>
   <g id="text_38">
    <g clip-path="url(#pbe9402ca91)">
     <!-- 70.4 -->
     <g transform="translate(301.538507 163.215459) rotate(-76.440979) scale(0.09 -0.09)">
      <use xlink:href="#DejaVuSans-37"/>
      <use xlink:href="#DejaVuSans-30" transform="translate(63.623047 0)"/>
      <use xlink:href="#DejaVuSans-2e" transform="translate(127.246094 0)"/>
      <use xlink:href="#DejaVuSans-34" transform="translate(159.033203 0)"/>
     </g>
    </g>
   </g>
   <g id="text_39">
    <g clip-path="url(#pbe9402ca91)">
     <!-- 70.4 -->
     <g transform="translate(124.109346 133.478613) rotate(-347.224405) scale(0.09 -0.09)">
      <use xlink:href="#DejaVuSans-37"/>
      <use xlink:href="#DejaVuSans-30" transform="translate(63.623047 0)"/>
      <use xlink:href="#DejaVuSans-2e" transform="translate(127.246094 0)"/>
      <use xlink:href="#DejaVuSans-34" transform="translate(159.033203 0)"/>
     </g>
    </g>
   </g>
   <g id="text_40">
    <g clip-path="url(#pbe9402ca91)">
     <!-- 70.4 -->
     <g transform="translate(196.393647 219.093426) rotate(-7.244847) scale(0.09 -0.09)">
      <use xlink:href="#DejaVuSans-37"/>
      <use xlink:href="#DejaVuSans-30" transform="translate(63.623047 0)"/>
      <use xlink:href="#DejaVuSans-2e" transform="translate(127.246094 0)"/>
      <use xlink:href="#DejaVuSans-34" transform="translate(159.033203 0)"/>
     </g>
    </g>
   </g>
   <g id="text_41">
    <g clip-path="url(#pbe9402ca91)">
     <!-- 71.2 -->
     <g transform="translate(275.039726 174.43058) rotate(-61.661358) scale(0.09 -0.09)">
      <use xlink:href="#DejaVuSans-37"/>
      <use xlink:href="#DejaVuSans-31" transform="translate(63.623047 0)"/>
      <use xlink:href="#DejaVuSans-2e" transform="translate(127.246094 0)"/>
      <use xlink:href="#DejaVuSans-32" transform="translate(159.033203 0)"/>
     </g>
    </g>
   </g>
   <g id="text_42">
    <g clip-path="url(#pbe9402ca91)">
     <!-- 71.2 -->
     <g transform="translate(105.262041 199.985125) rotate(-47.082334) scale(0.09 -0.09)">
      <use xlink:href="#DejaVuSans-37"/>
      <use xlink:href="#DejaVuSans-31" transform="translate(63.623047 0)"/>
      <use xlink:href="#DejaVuSans-2e" transform="translate(127.246094 0)"/>
      <use xlink:href="#DejaVuSans-32" transform="translate(159.033203 0)"/>
     </g>
    </g>
   </g>
   <g id="text_43">
    <g clip-path="url(#pbe9402ca91)">
     <!-- 71.2 -->
     <g transform="translate(211.993112 216.219687) rotate(-327.214619) scale(0.09 -0.09)">
      <use xlink:href="#DejaVuSans-37"/>
      <use xlink:href="#DejaVuSans-31" transform="translate(63.623047 0)"/>
      <use xlink:href="#DejaVuSans-2e" transform="translate(127.246094 0)"/>
      <use xlink:href="#DejaVuSans-32" transform="translate(159.033203 0)"/>
     </g>
    </g>
   </g>
   <g id="text_44">
    <g clip-path="url(#pbe9402ca91)">
     <!-- 72.0 -->
     <g transform="translate(124.979894 39.784771) rotate(-9.807104) scale(0.09 -0.09)">
      <use xlink:href="#DejaVuSans-37"/>
      <use xlink:href="#DejaVuSans-32" transform="translate(63.623047 0)"/>
      <use xlink:href="#DejaVuSans-2e" transform="translate(127.246094 0)"/>
      <use xlink:href="#DejaVuSans-30" transform="translate(159.033203 0)"/>
     </g>
    </g>
   </g>
   <g id="text_45">
    <g clip-path="url(#pbe9402ca91)">
     <!-- 72.8 -->
     <g transform="translate(196.382864 75.064523) rotate(-7.078458) scale(0.09 -0.09)">
      <use xlink:href="#DejaVuSans-37"/>
      <use xlink:href="#DejaVuSans-32" transform="translate(63.623047 0)"/>
      <use xlink:href="#DejaVuSans-2e" transform="translate(127.246094 0)"/>
      <use xlink:href="#DejaVuSans-38" transform="translate(159.033203 0)"/>
     </g>
    </g>
   </g>
   <g id="text_46">
    <g clip-path="url(#pbe9402ca91)">
     <!-- 73.6 -->
     <g transform="translate(174.188434 57.196496) rotate(-325.595181) scale(0.09 -0.09)">
      <use xlink:href="#DejaVuSans-37"/>
      <use xlink:href="#DejaVuSans-33" transform="translate(63.623047 0)"/>
      <use xlink:href="#DejaVuSans-2e" transform="translate(127.246094 0)"/>
      <use xlink:href="#DejaVuSans-36" transform="translate(159.033203 0)"/>
     </g>
    </g>
   </g>
   <g id="text_47">
    <g clip-path="url(#pbe9402ca91)">
     <!-- 74.4 -->
     <g transform="translate(172.707912 118.69028) rotate(-322.332735) scale(0.09 -0.09)">
      <use xlink:href="#DejaVuSans-37"/>
      <use xlink:href="#DejaVuSans-34" transform="translate(63.623047 0)"/>
      <use xlink:href="#DejaVuSans-2e" transform="translate(127.246094 0)"/>
      <use xlink:href="#DejaVuSans-34" transform="translate(159.033203 0)"/>
     </g>
    </g>
   </g>
   <g id="text_48">
    <g clip-path="url(#pbe9402ca91)">
     <!-- 74.4 -->
     <g transform="translate(148.496513 156.354056) rotate(-327.711671) scale(0.09 -0.09)">
      <use xlink:href="#DejaVuSans-37"/>
      <use xlink:href="#DejaVuSans-34" transform="translate(63.623047 0)"/>
      <use xlink:href="#DejaVuSans-2e" transform="translate(127.246094 0)"/>
      <use xlink:href="#DejaVuSans-34" transform="translate(159.033203 0)"/>
     </g>
    </g>
   </g>
  </g>
 </g>
 <defs>
  <clipPath id="pbe9402ca91">
   <rect x="62.84" y="26.88" width="286.36" height="213.4"/>
  </clipPath>
 </defs>
</svg>
