<?xml version="1.0" encoding="utf-8" standalone="no"?>
<!DOCTYPE svg PUBLIC "-//W3C//DTD SVG 1.1//EN"
  "http://www.w3.org/Graphics/SVG/1.1/DTD/svg11.dtd">
<svg xmlns:xlink="http://www.w3.org/1999/xlink" width="360pt" height="288pt" viewBox="0 0 360 288" xmlns="http://www.w3.org/2000/svg" version="1.1">
 <metadata>
  <rdf:RDF xmlns:dc="http://purl.org/dc/elements/1.1/" xmlns:cc="http://creativecommons.org/ns#" xmlns:rdf="http://www.w3.org/1999/02/22-rdf-syntax-ns#">
   <cc:Work>
    <dc:type rdf:resource="http://purl.org/dc/dcmitype/StillImage"/>
    <dc:date>2025-10-02T17:14:39.983413</dc:date>
    <dc:format>image/svg+xml</dc:format>
    <dc:creator>
     <cc:Agent>
      <dc:title>Matplotlib v3.10.6, https://matplotlib.org/</dc:title>
     </cc:Agent>
    </dc:creator>
   </cc:Work>
  </rdf:RDF>
 </metadata>
 <defs>
  <style type="text/css">*{stroke-linejoin: round; stroke-linecap: butt}</style>
 </defs>
 <g id="figure_1">
  <g id="patch_1">
   <path d="M 0 288 
L 360 288 
L 360 0 
L 0 0 
z
" style="fill: #ffffff"/>
  </g>
  <g id="axes_1">
   <g id="patch_2">
    <path d="M 62.84 240.28 
L 349.2 240.28 
L 349.2 26.88 
L 62.84 26.88 
z
" style="fill: #ffffff"/>
   </g>
   <g id="QuadContourSet_1">
    <path d="M 86.703333 26.88 
L 87.452034 26.88 
L 87.426084 36.380776 
L 87.392082 47.600163 
L 87.405048 60.808896 
L 87.412998 76.198006 
L 87.424999 93.757994 
L 87.410583 113.137869 
L 87.679808 133.590571 
L 87.844655 154.013971 
L 87.619957 173.39493 
L 87.484385 190.956403 
L 87.409113 206.347113 
L 87.496895 219.557363 
L 87.518659 230.778089 
L 87.552641 240.28 
L 86.703333 240.28 
L 62.84 240.28 
L 62.84 230.778089 
L 62.84 219.557363 
L 62.84 206.347113 
L 62.84 190.956403 
L 62.84 173.39493 
L 62.84 154.013971 
L 62.84 133.590571 
L 62.84 113.137869 
L 62.84 93.757994 
L 62.84 76.198006 
L 62.84 60.808896 
L 62.84 47.600163 
L 62.84 36.380776 
L 62.84 26.88 
z
M 325.336667 26.88 
L 349.2 26.88 
L 349.2 36.380776 
L 349.2 47.600163 
L 349.2 60.808896 
L 349.2 76.198006 
L 349.2 93.757994 
L 349.2 113.137869 
L 349.2 133.590571 
L 349.2 154.013971 
L 349.2 173.39493 
L 349.2 190.956403 
L 349.2 206.347113 
L 349.2 219.557363 
L 349.2 230.778089 
L 349.2 240.28 
L 325.336667 240.28 
L 324.377815 240.28 
L 324.51011 230.778089 
L 324.484477 219.557363 
L 324.350172 206.347113 
L 324.28864 190.956403 
L 324.334006 173.39493 
L 324.396163 154.013971 
L 324.508106 133.590571 
L 324.631537 113.137869 
L 324.609466 93.757994 
L 324.632931 76.198006 
L 324.560755 60.808896 
L 324.619616 47.600163 
L 324.524753 36.380776 
L 324.435447 26.88 
z
" clip-path="url(#p445b5d8b58)" style="fill: #460b5e"/>
    <path d="M 89.281532 36.380776 
L 89.160241 47.600163 
L 89.206493 60.808896 
L 89.234854 76.198006 
L 89.277662 93.757994 
L 89.226238 113.137869 
L 90.186618 133.590571 
L 90.774663 154.013971 
L 89.973119 173.39493 
L 89.489504 190.956403 
L 89.220992 206.347113 
L 89.534129 219.557363 
L 89.611766 230.778089 
L 89.732989 240.28 
L 87.552641 240.28 
L 87.518659 230.778089 
L 87.496895 219.557363 
L 87.409113 206.347113 
L 87.484385 190.956403 
L 87.619957 173.39493 
L 87.844655 154.013971 
L 87.679808 133.590571 
L 87.410583 113.137869 
L 87.424999 93.757994 
L 87.412998 76.198006 
L 87.405048 60.808896 
L 87.392082 47.600163 
L 87.426084 36.380776 
L 87.452034 26.88 
L 89.374102 26.88 
z
M 324.524753 36.380776 
L 324.619616 47.600163 
L 324.560755 60.808896 
L 324.632931 76.198006 
L 324.609466 93.757994 
L 324.631537 113.137869 
L 324.508106 133.590571 
L 324.396163 154.013971 
L 324.334006 173.39493 
L 324.28864 190.956403 
L 324.350172 206.347113 
L 324.484477 219.557363 
L 324.51011 230.778089 
L 324.377815 240.28 
L 321.916246 240.28 
L 322.38817 230.778089 
L 322.296733 219.557363 
L 321.81764 206.347113 
L 321.598141 190.956403 
L 321.75997 173.39493 
L 321.981698 154.013971 
L 322.381021 133.590571 
L 322.821325 113.137869 
L 322.742592 93.757994 
L 322.826298 76.198006 
L 322.568832 60.808896 
L 322.7788 47.600163 
L 322.440405 36.380776 
L 322.121831 26.88 
L 324.435447 26.88 
z
" clip-path="url(#p445b5d8b58)" style="fill: #481f70"/>
    <path d="M 91.136981 36.380776 
L 90.928399 47.600163 
L 91.007939 60.808896 
L 91.056709 76.198006 
L 91.130325 93.757994 
L 91.041892 113.137869 
L 92.693427 133.590571 
L 93.70467 154.013971 
L 92.326281 173.39493 
L 91.494622 190.956403 
L 91.032872 206.347113 
L 91.571363 219.557363 
L 91.704873 230.778089 
L 91.913337 240.28 
L 89.732989 240.28 
L 89.611766 230.778089 
L 89.534129 219.557363 
L 89.220992 206.347113 
L 89.489504 190.956403 
L 89.973119 173.39493 
L 90.774663 154.013971 
L 90.186618 133.590571 
L 89.226238 113.137869 
L 89.277662 93.757994 
L 89.234854 76.198006 
L 89.206493 60.808896 
L 89.160241 47.600163 
L 89.281532 36.380776 
L 89.374102 26.88 
L 91.29617 26.88 
z
M 322.440405 36.380776 
L 322.7788 47.600163 
L 322.568832 60.808896 
L 322.826298 76.198006 
L 322.742592 93.757994 
L 322.821325 113.137869 
L 322.381021 133.590571 
L 321.981698 154.013971 
L 321.75997 173.39493 
L 321.598141 190.956403 
L 321.81764 206.347113 
L 322.296733 219.557363 
L 322.38817 230.778089 
L 321.916246 240.28 
L 319.454677 240.28 
L 320.26623 230.778089 
L 320.108989 219.557363 
L 319.285108 206.347113 
L 318.907642 190.956403 
L 319.185935 173.39493 
L 319.567233 154.013971 
L 320.253935 133.590571 
L 321.011113 113.137869 
L 320.875719 93.757994 
L 321.019665 76.198006 
L 320.576908 60.808896 
L 320.937984 47.600163 
L 320.356057 36.380776 
L 319.808215 26.88 
L 322.121831 26.88 
z
" clip-path="url(#p445b5d8b58)" style="fill: #46307e"/>
    <path d="M 92.992429 36.380776 
L 92.696558 47.600163 
L 92.809384 60.808896 
L 92.878564 76.198006 
L 92.982989 93.757994 
L 92.857547 113.137869 
L 95.200237 133.590571 
L 96.634677 154.013971 
L 94.679443 173.39493 
L 93.499741 190.956403 
L 92.844752 206.347113 
L 93.608598 219.557363 
L 93.79798 230.778089 
L 94.093685 240.28 
L 91.913337 240.28 
L 91.704873 230.778089 
L 91.571363 219.557363 
L 91.032872 206.347113 
L 91.494622 190.956403 
L 92.326281 173.39493 
L 93.70467 154.013971 
L 92.693427 133.590571 
L 91.041892 113.137869 
L 91.130325 93.757994 
L 91.056709 76.198006 
L 91.007939 60.808896 
L 90.928399 47.600163 
L 91.136981 36.380776 
L 91.29617 26.88 
L 93.218238 26.88 
z
M 320.356057 36.380776 
L 320.937984 47.600163 
L 320.576908 60.808896 
L 321.019665 76.198006 
L 320.875719 93.757994 
L 321.011113 113.137869 
L 320.253935 133.590571 
L 319.567233 154.013971 
L 319.185935 173.39493 
L 318.907642 190.956403 
L 319.285108 206.347113 
L 320.108989 219.557363 
L 320.26623 230.778089 
L 319.454677 240.28 
L 316.993107 240.28 
L 318.144289 230.778089 
L 317.921245 219.557363 
L 316.752575 206.347113 
L 316.217144 190.956403 
L 316.611899 173.39493 
L 317.152768 154.013971 
L 318.12685 133.590571 
L 319.200901 113.137869 
L 319.008845 93.757994 
L 319.213032 76.198006 
L 318.584985 60.808896 
L 319.097168 47.600163 
L 318.271708 36.380776 
L 317.494599 26.88 
L 319.808215 26.88 
z
" clip-path="url(#p445b5d8b58)" style="fill: #424186"/>
    <path d="M 94.847878 36.380776 
L 94.464717 47.600163 
L 94.61083 60.808896 
L 94.70042 76.198006 
L 94.835652 93.757994 
L 94.673201 113.137869 
L 97.707047 133.590571 
L 99.564684 154.013971 
L 97.032604 173.39493 
L 95.50486 190.956403 
L 94.656631 206.347113 
L 95.645832 219.557363 
L 95.891087 230.778089 
L 96.274032 240.28 
L 94.093685 240.28 
L 93.79798 230.778089 
L 93.608598 219.557363 
L 92.844752 206.347113 
L 93.499741 190.956403 
L 94.679443 173.39493 
L 96.634677 154.013971 
L 95.200237 133.590571 
L 92.857547 113.137869 
L 92.982989 93.757994 
L 92.878564 76.198006 
L 92.809384 60.808896 
L 92.696558 47.600163 
L 92.992429 36.380776 
L 93.218238 26.88 
L 95.140307 26.88 
z
M 318.271708 36.380776 
L 319.097168 47.600163 
L 318.584985 60.808896 
L 319.213032 76.198006 
L 319.008845 93.757994 
L 319.200901 113.137869 
L 318.12685 133.590571 
L 317.152768 154.013971 
L 316.611899 173.39493 
L 316.217144 190.956403 
L 316.752575 206.347113 
L 317.921245 219.557363 
L 318.144289 230.778089 
L 316.993107 240.28 
L 314.531538 240.28 
L 316.022349 230.778089 
L 315.733501 219.557363 
L 314.220043 206.347113 
L 313.526645 190.956403 
L 314.037864 173.39493 
L 314.738302 154.013971 
L 315.999765 133.590571 
L 317.390689 113.137869 
L 317.141972 93.757994 
L 317.406399 76.198006 
L 316.593062 60.808896 
L 317.256352 47.600163 
L 316.18736 36.380776 
L 315.180983 26.88 
L 317.494599 26.88 
z
" clip-path="url(#p445b5d8b58)" style="fill: #3b528b"/>
    <path d="M 96.703327 36.380776 
L 96.232875 47.600163 
L 96.412275 60.808896 
L 96.522275 76.198006 
L 96.688315 93.757994 
L 96.488856 113.137869 
L 100.213857 133.590571 
L 102.494691 154.013971 
L 99.385766 173.39493 
L 97.509979 190.956403 
L 96.468511 206.347113 
L 97.683067 219.557363 
L 97.984193 230.778089 
L 98.45438 240.28 
L 96.274032 240.28 
L 95.891087 230.778089 
L 95.645832 219.557363 
L 94.656631 206.347113 
L 95.50486 190.956403 
L 97.032604 173.39493 
L 99.564684 154.013971 
L 97.707047 133.590571 
L 94.673201 113.137869 
L 94.835652 93.757994 
L 94.70042 76.198006 
L 94.61083 60.808896 
L 94.464717 47.600163 
L 94.847878 36.380776 
L 95.140307 26.88 
L 97.062375 26.88 
z
M 316.18736 36.380776 
L 317.256352 47.600163 
L 316.593062 60.808896 
L 317.406399 76.198006 
L 317.141972 93.757994 
L 317.390689 113.137869 
L 315.999765 133.590571 
L 314.738302 154.013971 
L 314.037864 173.39493 
L 313.526645 190.956403 
L 314.220043 206.347113 
L 315.733501 219.557363 
L 316.022349 230.778089 
L 314.531538 240.28 
L 312.069969 240.28 
L 313.900409 230.778089 
L 313.545757 219.557363 
L 311.68751 206.347113 
L 310.836146 190.956403 
L 311.463828 173.39493 
L 312.323837 154.013971 
L 313.87268 133.590571 
L 315.580477 113.137869 
L 315.275098 93.757994 
L 315.599766 76.198006 
L 314.601138 60.808896 
L 315.415536 47.600163 
L 314.103012 36.380776 
L 312.867367 26.88 
L 315.180983 26.88 
z
" clip-path="url(#p445b5d8b58)" style="fill: #34618d"/>
    <path d="M 98.558775 36.380776 
L 98.001034 47.600163 
L 98.21372 60.808896 
L 98.34413 76.198006 
L 98.540978 93.757994 
L 98.304511 113.137869 
L 102.720667 133.590571 
L 105.424699 154.013971 
L 101.738928 173.39493 
L 99.515098 190.956403 
L 98.280391 206.347113 
L 99.720301 219.557363 
L 100.0773 230.778089 
L 100.634728 240.28 
L 98.45438 240.28 
L 97.984193 230.778089 
L 97.683067 219.557363 
L 96.468511 206.347113 
L 97.509979 190.956403 
L 99.385766 173.39493 
L 102.494691 154.013971 
L 100.213857 133.590571 
L 96.488856 113.137869 
L 96.688315 93.757994 
L 96.522275 76.198006 
L 96.412275 60.808896 
L 96.232875 47.600163 
L 96.703327 36.380776 
L 97.062375 26.88 
L 98.984443 26.88 
z
M 314.103012 36.380776 
L 315.415536 47.600163 
L 314.601138 60.808896 
L 315.599766 76.198006 
L 315.275098 93.757994 
L 315.580477 113.137869 
L 313.87268 133.590571 
L 312.323837 154.013971 
L 311.463828 173.39493 
L 310.836146 190.956403 
L 311.68751 206.347113 
L 313.545757 219.557363 
L 313.900409 230.778089 
L 312.069969 240.28 
L 309.6084 240.28 
L 311.778469 230.778089 
L 311.358013 219.557363 
L 309.154978 206.347113 
L 308.145647 190.956403 
L 308.889792 173.39493 
L 309.909372 154.013971 
L 311.745595 133.590571 
L 313.770265 113.137869 
L 313.408225 93.757994 
L 313.793133 76.198006 
L 312.609215 60.808896 
L 313.57472 47.600163 
L 312.018664 36.380776 
L 310.553751 26.88 
L 312.867367 26.88 
z
M 206.02 238.467513 
L 207.573167 240.28 
L 206.02 240.28 
L 204.219632 240.28 
z
" clip-path="url(#p445b5d8b58)" style="fill: #2e6f8e"/>
    <path d="M 100.414224 36.380776 
L 99.769193 47.600163 
L 100.015166 60.808896 
L 100.165986 76.198006 
L 100.393642 93.757994 
L 100.120165 113.137869 
L 105.227476 133.590571 
L 108.354706 154.013971 
L 104.09209 173.39493 
L 101.520216 190.956403 
L 100.09227 206.347113 
L 101.757535 219.557363 
L 102.170407 230.778089 
L 102.815076 240.28 
L 100.634728 240.28 
L 100.0773 230.778089 
L 99.720301 219.557363 
L 98.280391 206.347113 
L 99.515098 190.956403 
L 101.738928 173.39493 
L 105.424699 154.013971 
L 102.720667 133.590571 
L 98.304511 113.137869 
L 98.540978 93.757994 
L 98.34413 76.198006 
L 98.21372 60.808896 
L 98.001034 47.600163 
L 98.558775 36.380776 
L 98.984443 26.88 
L 100.906511 26.88 
z
M 312.018664 36.380776 
L 313.57472 47.600163 
L 312.609215 60.808896 
L 313.793133 76.198006 
L 313.408225 93.757994 
L 313.770265 113.137869 
L 311.745595 133.590571 
L 309.909372 154.013971 
L 308.889792 173.39493 
L 308.145647 190.956403 
L 309.154978 206.347113 
L 311.358013 219.557363 
L 311.778469 230.778089 
L 309.6084 240.28 
L 307.146831 240.28 
L 309.656529 230.778089 
L 309.170268 219.557363 
L 306.622445 206.347113 
L 305.455148 190.956403 
L 306.315757 173.39493 
L 307.494907 154.013971 
L 309.618509 133.590571 
L 311.960053 113.137869 
L 311.541352 93.757994 
L 311.9865 76.198006 
L 310.617292 60.808896 
L 311.733904 47.600163 
L 309.934315 36.380776 
L 308.240135 26.88 
L 310.553751 26.88 
z
M 206.02 233.814486 
L 211.560464 240.28 
L 207.573167 240.28 
L 206.02 238.467513 
L 204.219632 240.28 
L 199.597717 240.28 
z
" clip-path="url(#p445b5d8b58)" style="fill: #287c8e"/>
    <path d="M 102.269672 36.380776 
L 101.537351 47.600163 
L 101.816611 60.808896 
L 101.987841 76.198006 
L 102.246305 93.757994 
L 101.93582 113.137869 
L 107.734286 133.590571 
L 110.566667 150.37375 
L 112.000655 154.013971 
L 110.566667 156.392941 
L 106.445251 173.39493 
L 103.525335 190.956403 
L 101.90415 206.347113 
L 103.79477 219.557363 
L 104.263514 230.778089 
L 104.995423 240.28 
L 102.815076 240.28 
L 102.170407 230.778089 
L 101.757535 219.557363 
L 100.09227 206.347113 
L 101.520216 190.956403 
L 104.09209 173.39493 
L 108.354706 154.013971 
L 105.227476 133.590571 
L 100.120165 113.137869 
L 100.393642 93.757994 
L 100.165986 76.198006 
L 100.015166 60.808896 
L 99.769193 47.600163 
L 100.414224 36.380776 
L 100.906511 26.88 
L 102.828579 26.88 
z
M 309.934315 36.380776 
L 311.733904 47.600163 
L 310.617292 60.808896 
L 311.9865 76.198006 
L 311.541352 93.757994 
L 311.960053 113.137869 
L 309.618509 133.590571 
L 307.494907 154.013971 
L 306.315757 173.39493 
L 305.455148 190.956403 
L 306.622445 206.347113 
L 309.170268 219.557363 
L 309.656529 230.778089 
L 307.146831 240.28 
L 304.685262 240.28 
L 307.534589 230.778089 
L 306.982524 219.557363 
L 304.089913 206.347113 
L 302.764649 190.956403 
L 303.741721 173.39493 
L 305.080442 154.013971 
L 307.491424 133.590571 
L 310.149841 113.137869 
L 309.674478 93.757994 
L 310.179867 76.198006 
L 308.625368 60.808896 
L 309.893088 47.600163 
L 307.849967 36.380776 
L 305.926519 26.88 
L 308.240135 26.88 
z
M 206.02 229.246302 
L 207.853643 230.778089 
L 215.547761 240.28 
L 211.560464 240.28 
L 206.02 233.814486 
L 199.597717 240.28 
L 194.975803 240.28 
L 204.21969 230.778089 
z
" clip-path="url(#p445b5d8b58)" style="fill: #23898e"/>
    <path d="M 104.125121 36.380776 
L 103.30551 47.600163 
L 103.618057 60.808896 
L 103.809696 76.198006 
L 104.098968 93.757994 
L 103.751474 113.137869 
L 110.241096 133.590571 
L 110.566667 135.519729 
L 117.852084 154.013971 
L 110.566667 166.10039 
L 108.798413 173.39493 
L 105.530454 190.956403 
L 103.716029 206.347113 
L 105.832004 219.557363 
L 106.356621 230.778089 
L 107.175771 240.28 
L 104.995423 240.28 
L 104.263514 230.778089 
L 103.79477 219.557363 
L 101.90415 206.347113 
L 103.525335 190.956403 
L 106.445251 173.39493 
L 110.566667 156.392941 
L 112.000655 154.013971 
L 110.566667 150.37375 
L 107.734286 133.590571 
L 101.93582 113.137869 
L 102.246305 93.757994 
L 101.987841 76.198006 
L 101.816611 60.808896 
L 101.537351 47.600163 
L 102.269672 36.380776 
L 102.828579 26.88 
L 104.750647 26.88 
z
M 307.849967 36.380776 
L 309.893088 47.600163 
L 308.625368 60.808896 
L 310.179867 76.198006 
L 309.674478 93.757994 
L 310.149841 113.137869 
L 307.491424 133.590571 
L 305.080442 154.013971 
L 303.741721 173.39493 
L 302.764649 190.956403 
L 304.089913 206.347113 
L 306.982524 219.557363 
L 307.534589 230.778089 
L 304.685262 240.28 
L 302.223693 240.28 
L 305.412649 230.778089 
L 304.79478 219.557363 
L 301.557381 206.347113 
L 301.473333 205.423864 
L 297.749067 206.347113 
L 277.61 208.534938 
L 276.658128 206.347113 
L 277.61 201.714131 
L 288.225356 190.956403 
L 277.61 178.229585 
L 276.616446 173.39493 
L 277.61 170.674802 
L 301.473333 169.63886 
L 302.665977 154.013971 
L 305.364339 133.590571 
L 308.339629 113.137869 
L 307.807605 93.757994 
L 308.373233 76.198006 
L 306.633445 60.808896 
L 308.052272 47.600163 
L 305.765619 36.380776 
L 303.612903 26.88 
L 305.926519 26.88 
z
M 134.43 186.191952 
L 137.282557 190.956403 
L 134.43 200.749074 
L 129.57146 190.956403 
z
M 206.02 224.837469 
L 213.131285 230.778089 
L 219.535058 240.28 
L 215.547761 240.28 
L 207.853643 230.778089 
L 206.02 229.246302 
L 204.21969 230.778089 
L 194.975803 240.28 
L 190.353889 240.28 
L 199.037989 230.778089 
z
" clip-path="url(#p445b5d8b58)" style="fill: #1f978b"/>
    <path d="M 105.980569 36.380776 
L 105.073668 47.600163 
L 105.419502 60.808896 
L 105.631552 76.198006 
L 105.951631 93.757994 
L 105.567129 113.137869 
L 110.566667 128.679451 
L 118.794248 133.590571 
L 123.703513 154.013971 
L 116.661424 173.39493 
L 110.566667 175.874776 
L 107.535573 190.956403 
L 105.527909 206.347113 
L 107.869239 219.557363 
L 108.449728 230.778089 
L 109.356119 240.28 
L 107.175771 240.28 
L 106.356621 230.778089 
L 105.832004 219.557363 
L 103.716029 206.347113 
L 105.530454 190.956403 
L 108.798413 173.39493 
L 110.566667 166.10039 
L 117.852084 154.013971 
L 110.566667 135.519729 
L 110.241096 133.590571 
L 103.751474 113.137869 
L 104.098968 93.757994 
L 103.809696 76.198006 
L 103.618057 60.808896 
L 103.30551 47.600163 
L 104.125121 36.380776 
L 104.750647 26.88 
L 106.672715 26.88 
z
M 301.473333 26.88 
L 303.612903 26.88 
L 305.765619 36.380776 
L 308.052272 47.600163 
L 306.633445 60.808896 
L 308.373233 76.198006 
L 307.807605 93.757994 
L 308.339629 113.137869 
L 305.364339 133.590571 
L 302.665977 154.013971 
L 301.473333 169.63886 
L 277.61 170.674802 
L 276.616446 173.39493 
L 277.61 178.229585 
L 288.225356 190.956403 
L 277.61 201.714131 
L 276.658128 206.347113 
L 277.61 208.534938 
L 297.749067 206.347113 
L 301.473333 205.423864 
L 301.557381 206.347113 
L 304.79478 219.557363 
L 305.412649 230.778089 
L 302.223693 240.28 
L 301.473333 240.28 
L 291.0058 240.28 
L 301.473333 236.022923 
L 303.290708 230.778089 
L 302.607036 219.557363 
L 301.473333 214.947568 
L 281.335537 219.557363 
L 277.61 221.320127 
L 276.952281 219.557363 
L 271.354028 206.347113 
L 272.448282 190.956403 
L 270.339921 173.39493 
L 277.413775 154.013971 
L 277.61 153.581113 
L 301.473333 146.274109 
L 303.237254 133.590571 
L 306.529417 113.137869 
L 305.940731 93.757994 
L 306.5666 76.198006 
L 304.641521 60.808896 
L 306.211456 47.600163 
L 303.681271 36.380776 
L 301.473333 27.509972 
L 300.833809 26.88 
z
M 134.43 178.77191 
L 141.725061 190.956403 
L 139.989705 206.347113 
L 134.43 211.35901 
L 130.005732 206.347113 
L 122.004888 190.956403 
z
M 129.57146 190.956403 
L 134.43 200.749074 
L 137.282557 190.956403 
L 134.43 186.191952 
z
M 206.02 220.428637 
L 218.408928 230.778089 
L 223.522355 240.28 
L 219.535058 240.28 
L 213.131285 230.778089 
L 206.02 224.837469 
L 199.037989 230.778089 
L 190.353889 240.28 
L 185.731975 240.28 
L 193.856288 230.778089 
z
" clip-path="url(#p445b5d8b58)" style="fill: #20a486"/>
    <path d="M 107.836018 36.380776 
L 106.841827 47.600163 
L 107.220947 60.808896 
L 107.453407 76.198006 
L 107.804295 93.757994 
L 107.382784 113.137869 
L 110.566667 123.0353 
L 128.249873 133.590571 
L 129.554942 154.013971 
L 134.43 168.580762 
L 136.45719 173.39493 
L 146.167564 190.956403 
L 148.773692 206.347113 
L 134.43 219.277494 
L 123.015666 206.347113 
L 114.438315 190.956403 
L 110.566667 185.851522 
L 109.540692 190.956403 
L 107.339789 206.347113 
L 109.906473 219.557363 
L 110.542835 230.778089 
L 110.566667 231.015246 
L 121.142399 240.28 
L 110.566667 240.28 
L 109.356119 240.28 
L 108.449728 230.778089 
L 107.869239 219.557363 
L 105.527909 206.347113 
L 107.535573 190.956403 
L 110.566667 175.874776 
L 116.661424 173.39493 
L 123.703513 154.013971 
L 118.794248 133.590571 
L 110.566667 128.679451 
L 105.567129 113.137869 
L 105.951631 93.757994 
L 105.631552 76.198006 
L 105.419502 60.808896 
L 105.073668 47.600163 
L 105.980569 36.380776 
L 106.672715 26.88 
L 108.594783 26.88 
z
M 122.004888 190.956403 
L 130.005732 206.347113 
L 134.43 211.35901 
L 139.989705 206.347113 
L 141.725061 190.956403 
L 134.43 178.77191 
z
M 206.02 26.88 
L 206.696683 26.88 
L 206.02 28.079361 
L 205.175758 26.88 
z
M 301.473333 27.509972 
L 303.681271 36.380776 
L 306.211456 47.600163 
L 304.641521 60.808896 
L 306.5666 76.198006 
L 305.940731 93.757994 
L 306.529417 113.137869 
L 303.237254 133.590571 
L 301.473333 146.274109 
L 277.61 153.581113 
L 277.413775 154.013971 
L 270.339921 173.39493 
L 272.448282 190.956403 
L 271.354028 206.347113 
L 276.952281 219.557363 
L 277.61 221.320127 
L 281.335537 219.557363 
L 301.473333 214.947568 
L 302.607036 219.557363 
L 303.290708 230.778089 
L 301.473333 236.022923 
L 291.0058 240.28 
L 277.61 240.28 
L 274.871584 240.28 
L 272.670557 230.778089 
L 270.091701 219.557363 
L 266.049929 206.347113 
L 263.59907 190.956403 
L 264.063396 173.39493 
L 270.965193 154.013971 
L 277.61 139.35598 
L 294.400327 133.590571 
L 301.473333 131.812426 
L 304.719205 113.137869 
L 304.073858 93.757994 
L 304.759967 76.198006 
L 302.649598 60.808896 
L 304.37064 47.600163 
L 301.596922 36.380776 
L 301.473333 35.884233 
L 292.332563 26.88 
L 300.833809 26.88 
z
M 206.02 215.257526 
L 211.324955 219.557363 
L 223.68657 230.778089 
L 227.509652 240.28 
L 223.522355 240.28 
L 218.408928 230.778089 
L 206.02 220.428637 
L 193.856288 230.778089 
L 185.731975 240.28 
L 182.156667 240.28 
L 158.293333 240.28 
L 148.0772 240.28 
L 158.293333 235.265088 
L 182.156667 238.830408 
L 188.674587 230.778089 
L 199.174537 219.557363 
z
" clip-path="url(#p445b5d8b58)" style="fill: #2cb17e"/>
    <path d="M 109.691466 36.380776 
L 108.609986 47.600163 
L 109.022393 60.808896 
L 109.275262 76.198006 
L 109.656958 93.757994 
L 109.198438 113.137869 
L 110.566667 117.391149 
L 134.43 123.778495 
L 137.426727 133.590571 
L 135.767315 154.013971 
L 143.819589 173.39493 
L 150.610068 190.956403 
L 157.557678 206.347113 
L 158.293333 211.331659 
L 161.204443 219.557363 
L 175.192042 230.778089 
L 182.156667 232.428871 
L 183.492886 230.778089 
L 190.643087 219.557363 
L 206.02 209.898671 
L 217.936481 219.557363 
L 228.964212 230.778089 
L 229.883333 233.636885 
L 253.746667 238.880194 
L 262.499165 230.778089 
L 263.231122 219.557363 
L 260.745829 206.347113 
L 254.749858 190.956403 
L 257.786871 173.39493 
L 264.516611 154.013971 
L 273.549768 133.590571 
L 277.61 122.374778 
L 301.473333 121.397688 
L 302.908993 113.137869 
L 302.206984 93.757994 
L 302.953334 76.198006 
L 301.473333 65.937606 
L 298.327023 60.808896 
L 301.473333 55.308888 
L 302.529824 47.600163 
L 301.473333 43.348905 
L 285.136318 36.380776 
L 283.831316 26.88 
L 292.332563 26.88 
L 301.473333 35.884233 
L 301.596922 36.380776 
L 304.37064 47.600163 
L 302.649598 60.808896 
L 304.759967 76.198006 
L 304.073858 93.757994 
L 304.719205 113.137869 
L 301.473333 131.812426 
L 294.400327 133.590571 
L 277.61 139.35598 
L 270.965193 154.013971 
L 264.063396 173.39493 
L 263.59907 190.956403 
L 266.049929 206.347113 
L 270.091701 219.557363 
L 272.670557 230.778089 
L 274.871584 240.28 
L 253.746667 240.28 
L 229.883333 240.28 
L 227.509652 240.28 
L 223.68657 230.778089 
L 211.324955 219.557363 
L 206.02 215.257526 
L 199.174537 219.557363 
L 188.674587 230.778089 
L 182.156667 238.830408 
L 158.293333 235.265088 
L 148.0772 240.28 
L 134.43 240.28 
L 121.142399 240.28 
L 110.566667 231.015246 
L 110.542835 230.778089 
L 109.906473 219.557363 
L 107.339789 206.347113 
L 109.540692 190.956403 
L 110.566667 185.851522 
L 114.438315 190.956403 
L 123.015666 206.347113 
L 134.43 219.277494 
L 148.773692 206.347113 
L 146.167564 190.956403 
L 136.45719 173.39493 
L 134.43 168.580762 
L 129.554942 154.013971 
L 128.249873 133.590571 
L 110.566667 123.0353 
L 107.382784 113.137869 
L 107.804295 93.757994 
L 107.453407 76.198006 
L 107.220947 60.808896 
L 106.841827 47.600163 
L 107.836018 36.380776 
L 108.594783 26.88 
L 110.516851 26.88 
z
M 109.151668 206.347113 
L 110.566667 213.428366 
L 116.0256 206.347113 
L 110.566667 196.877583 
z
M 206.02 28.079361 
L 206.696683 26.88 
L 215.711042 26.88 
L 210.945264 36.380776 
L 206.02 39.274592 
L 201.601563 36.380776 
L 193.929288 26.88 
L 205.175758 26.88 
z
" clip-path="url(#p445b5d8b58)" style="fill: #40bd72"/>
    <path d="M 110.566667 26.88 
L 130.67204 26.88 
L 120.028099 36.380776 
L 110.566667 45.716142 
L 110.378144 47.600163 
L 110.566667 53.247485 
L 111.88805 60.808896 
L 127.792238 76.198006 
L 119.350715 93.757994 
L 134.43 105.061078 
L 140.923499 113.137869 
L 146.077605 133.590571 
L 143.781899 154.013971 
L 151.181988 173.39493 
L 155.052572 190.956403 
L 158.293333 197.77848 
L 171.67547 206.347113 
L 182.156667 219.460912 
L 198.390703 206.347113 
L 202.29782 190.956403 
L 206.02 188.203639 
L 210.041132 190.956403 
L 212.969037 206.347113 
L 224.548007 219.557363 
L 229.883333 225.102879 
L 253.746667 227.779224 
L 256.370542 219.557363 
L 255.441729 206.347113 
L 253.746667 202.269468 
L 245.11042 190.956403 
L 250.042547 173.39493 
L 253.746667 166.66729 
L 258.068029 154.013971 
L 266.722436 133.590571 
L 270.136785 113.137869 
L 277.61 104.513485 
L 289.82272 93.757994 
L 298.945853 76.198006 
L 290.643408 60.808896 
L 290.66666 47.600163 
L 277.61 42.259382 
L 272.248633 36.380776 
L 273.792768 26.88 
L 277.61 26.88 
L 283.831316 26.88 
L 285.136318 36.380776 
L 301.473333 43.348905 
L 302.529824 47.600163 
L 301.473333 55.308888 
L 298.327023 60.808896 
L 301.473333 65.937606 
L 302.953334 76.198006 
L 302.206984 93.757994 
L 302.908993 113.137869 
L 301.473333 121.397688 
L 277.61 122.374778 
L 273.549768 133.590571 
L 264.516611 154.013971 
L 257.786871 173.39493 
L 254.749858 190.956403 
L 260.745829 206.347113 
L 263.231122 219.557363 
L 262.499165 230.778089 
L 253.746667 238.880194 
L 229.883333 233.636885 
L 228.964212 230.778089 
L 217.936481 219.557363 
L 206.02 209.898671 
L 190.643087 219.557363 
L 183.492886 230.778089 
L 182.156667 232.428871 
L 175.192042 230.778089 
L 161.204443 219.557363 
L 158.293333 211.331659 
L 157.557678 206.347113 
L 150.610068 190.956403 
L 143.819589 173.39493 
L 135.767315 154.013971 
L 137.426727 133.590571 
L 134.43 123.778495 
L 110.566667 117.391149 
L 109.198438 113.137869 
L 109.656958 93.757994 
L 109.275262 76.198006 
L 109.022393 60.808896 
L 108.609986 47.600163 
L 109.691466 36.380776 
L 110.516851 26.88 
z
M 158.293333 26.88 
L 180.956277 26.88 
L 159.13053 36.380776 
L 158.293333 36.920411 
L 157.148805 36.380776 
L 138.508344 26.88 
z
M 201.601563 36.380776 
L 206.02 39.274592 
L 210.945264 36.380776 
L 215.711042 26.88 
L 224.725401 26.88 
L 221.197271 36.380776 
L 206.02 45.298113 
L 192.404522 36.380776 
L 182.682817 26.88 
L 193.929288 26.88 
z
M 110.566667 196.877583 
L 116.0256 206.347113 
L 110.566667 213.428366 
L 109.151668 206.347113 
z
" clip-path="url(#p445b5d8b58)" style="fill: #5ec962"/>
    <path d="M 134.43 26.88 
L 138.508344 26.88 
L 157.148805 36.380776 
L 158.293333 36.920411 
L 159.13053 36.380776 
L 180.956277 26.88 
L 182.156667 26.88 
L 182.682817 26.88 
L 192.404522 36.380776 
L 206.02 45.298113 
L 221.197271 36.380776 
L 224.725401 26.88 
L 229.883333 26.88 
L 242.092215 26.88 
L 233.172588 36.380776 
L 229.883333 37.962021 
L 215.538892 47.600163 
L 206.02 54.341581 
L 195.371046 47.600163 
L 183.207481 36.380776 
L 182.156667 35.36387 
L 179.795568 36.380776 
L 163.195805 47.600163 
L 158.293333 60.646786 
L 153.198225 47.600163 
L 134.43 38.753377 
L 123.697687 47.600163 
L 121.144131 60.808896 
L 134.43 70.31703 
L 158.293333 62.892298 
L 158.599823 76.198006 
L 158.293333 76.504588 
L 137.408786 93.757994 
L 151.324058 113.137869 
L 154.728482 133.590571 
L 151.796483 154.013971 
L 158.293333 172.61257 
L 159.067906 173.39493 
L 164.848299 190.956403 
L 182.156667 201.986616 
L 190.548783 190.956403 
L 206.02 179.514556 
L 222.733808 190.956403 
L 229.883333 202.633983 
L 235.369944 190.956403 
L 239.646451 173.39493 
L 243.306205 154.013971 
L 253.746667 148.538557 
L 259.895105 133.590571 
L 255.489885 113.137869 
L 253.746667 109.865614 
L 246.672512 93.757994 
L 253.746667 82.900303 
L 277.61 86.581295 
L 284.96612 76.198006 
L 282.959792 60.808896 
L 277.61 53.024801 
L 272.311285 47.600163 
L 262.786703 36.380776 
L 259.559338 26.88 
L 273.792768 26.88 
L 272.248633 36.380776 
L 277.61 42.259382 
L 290.66666 47.600163 
L 290.643408 60.808896 
L 298.945853 76.198006 
L 289.82272 93.757994 
L 277.61 104.513485 
L 270.136785 113.137869 
L 266.722436 133.590571 
L 258.068029 154.013971 
L 253.746667 166.66729 
L 250.042547 173.39493 
L 245.11042 190.956403 
L 253.746667 202.269468 
L 255.441729 206.347113 
L 256.370542 219.557363 
L 253.746667 227.779224 
L 229.883333 225.102879 
L 224.548007 219.557363 
L 212.969037 206.347113 
L 210.041132 190.956403 
L 206.02 188.203639 
L 202.29782 190.956403 
L 198.390703 206.347113 
L 182.156667 219.460912 
L 171.67547 206.347113 
L 158.293333 197.77848 
L 155.052572 190.956403 
L 151.181988 173.39493 
L 143.781899 154.013971 
L 146.077605 133.590571 
L 140.923499 113.137869 
L 134.43 105.061078 
L 119.350715 93.757994 
L 127.792238 76.198006 
L 111.88805 60.808896 
L 110.566667 53.247485 
L 110.378144 47.600163 
L 110.566667 45.716142 
L 120.028099 36.380776 
L 130.67204 26.88 
z
" clip-path="url(#p445b5d8b58)" style="fill: #7fd34e"/>
    <path d="M 182.156667 35.36387 
L 183.207481 36.380776 
L 195.371046 47.600163 
L 206.02 54.341581 
L 215.538892 47.600163 
L 229.883333 37.962021 
L 233.172588 36.380776 
L 242.092215 26.88 
L 253.746667 26.88 
L 259.559338 26.88 
L 262.786703 36.380776 
L 272.311285 47.600163 
L 277.61 53.024801 
L 282.959792 60.808896 
L 284.96612 76.198006 
L 277.61 86.581295 
L 253.746667 82.900303 
L 246.672512 93.757994 
L 253.746667 109.865614 
L 255.489885 113.137869 
L 259.895105 133.590571 
L 253.746667 148.538557 
L 243.306205 154.013971 
L 239.646451 173.39493 
L 235.369944 190.956403 
L 229.883333 202.633983 
L 222.733808 190.956403 
L 206.02 179.514556 
L 190.548783 190.956403 
L 182.156667 201.986616 
L 164.848299 190.956403 
L 159.067906 173.39493 
L 158.293333 172.61257 
L 151.796483 154.013971 
L 154.728482 133.590571 
L 151.324058 113.137869 
L 137.408786 93.757994 
L 158.293333 76.504588 
L 158.599823 76.198006 
L 158.293333 62.892298 
L 134.43 70.31703 
L 121.144131 60.808896 
L 123.697687 47.600163 
L 134.43 38.753377 
L 153.198225 47.600163 
L 158.293333 60.646786 
L 163.195805 47.600163 
L 179.795568 36.380776 
z
M 232.023798 47.600163 
L 243.454179 60.808896 
L 253.746667 64.494322 
L 263.250089 60.808896 
L 261.390932 47.600163 
L 253.746667 37.052631 
z
M 130.400213 60.808896 
L 134.43 63.692844 
L 141.680519 60.808896 
L 134.43 52.654101 
z
M 178.113466 60.808896 
L 178.083872 76.198006 
L 160.994377 93.757994 
L 163.649192 113.137869 
L 177.703686 133.590571 
L 169.271373 154.013971 
L 181.78299 173.39493 
L 182.156667 174.351005 
L 183.41424 173.39493 
L 206.02 170.301037 
L 223.439181 154.013971 
L 221.991758 133.590571 
L 226.066179 113.137869 
L 229.883333 106.169982 
L 234.597595 93.757994 
L 232.166073 76.198006 
L 229.883333 73.073423 
L 206.02 70.609285 
L 190.107036 60.808896 
L 182.156667 54.655761 
z
" clip-path="url(#p445b5d8b58)" style="fill: #a2da37"/>
    <path d="M 253.746667 37.052631 
L 261.390932 47.600163 
L 263.250089 60.808896 
L 253.746667 64.494322 
L 243.454179 60.808896 
L 232.023798 47.600163 
z
M 134.43 52.654101 
L 141.680519 60.808896 
L 134.43 63.692844 
L 130.400213 60.808896 
z
M 182.156667 54.655761 
L 190.107036 60.808896 
L 206.02 70.609285 
L 229.883333 73.073423 
L 232.166073 76.198006 
L 234.597595 93.757994 
L 229.883333 106.169982 
L 226.066179 113.137869 
L 221.991758 133.590571 
L 223.439181 154.013971 
L 206.02 170.301037 
L 183.41424 173.39493 
L 182.156667 174.351005 
L 181.78299 173.39493 
L 169.271373 154.013971 
L 177.703686 133.590571 
L 163.649192 113.137869 
L 160.994377 93.757994 
L 178.083872 76.198006 
L 178.113466 60.808896 
z
M 179.88333 113.137869 
L 182.156667 115.987252 
L 205.550378 133.590571 
L 196.064635 154.013971 
L 206.02 159.838479 
L 212.24937 154.013971 
L 206.292648 133.590571 
L 208.650094 113.137869 
L 206.02 97.480399 
L 182.156667 101.875861 
z
" clip-path="url(#p445b5d8b58)" style="fill: #c8e020"/>
    <path d="M 182.156667 101.875861 
L 206.02 97.480399 
L 208.650094 113.137869 
L 206.292648 133.590571 
L 212.24937 154.013971 
L 206.02 159.838479 
L 196.064635 154.013971 
L 205.550378 133.590571 
L 182.156667 115.987252 
L 179.88333 113.137869 
z
" clip-path="url(#p445b5d8b58)" style="fill: #ece51b"/>
   </g>
   <g id="matplotlib.axis_1">
    <g id="xtick_1">
     <g id="line2d_1">
      <defs>
       <path id="mdb0c46cd7a" d="M 0 0 
L 0 3.5 
" style="stroke: #000000; stroke-width: 0.8"/>
      </defs>
      <g>
       <use xlink:href="#mdb0c46cd7a" x="126.475556" y="240.28" style="stroke: #000000; stroke-width: 0.8"/>
      </g>
     </g>
     <g id="text_1">
      <!-- −50 -->
      <g transform="translate(113.812743 256.398125) scale(0.12 -0.12)">
       <defs>
        <path id="DejaVuSans-2212" d="M 678 2272 
L 4684 2272 
L 4684 1741 
L 678 1741 
L 678 2272 
z
" transform="scale(0.015625)"/>
        <path id="DejaVuSans-35" d="M 691 4666 
L 3169 4666 
L 3169 4134 
L 1269 4134 
L 1269 2991 
Q 1406 3038 1543 3061 
Q 1681 3084 1819 3084 
Q 2600 3084 3056 2656 
Q 3513 2228 3513 1497 
Q 3513 744 3044 326 
Q 2575 -91 1722 -91 
Q 1428 -91 1123 -41 
Q 819 9 494 109 
L 494 744 
Q 775 591 1075 516 
Q 1375 441 1709 441 
Q 2250 441 2565 725 
Q 2881 1009 2881 1497 
Q 2881 1984 2565 2268 
Q 2250 2553 1709 2553 
Q 1456 2553 1204 2497 
Q 953 2441 691 2322 
L 691 4666 
z
" transform="scale(0.015625)"/>
        <path id="DejaVuSans-30" d="M 2034 4250 
Q 1547 4250 1301 3770 
Q 1056 3291 1056 2328 
Q 1056 1369 1301 889 
Q 1547 409 2034 409 
Q 2525 409 2770 889 
Q 3016 1369 3016 2328 
Q 3016 3291 2770 3770 
Q 2525 4250 2034 4250 
z
M 2034 4750 
Q 2819 4750 3233 4129 
Q 3647 3509 3647 2328 
Q 3647 1150 3233 529 
Q 2819 -91 2034 -91 
Q 1250 -91 836 529 
Q 422 1150 422 2328 
Q 422 3509 836 4129 
Q 1250 4750 2034 4750 
z
" transform="scale(0.015625)"/>
       </defs>
       <use xlink:href="#DejaVuSans-2212"/>
       <use xlink:href="#DejaVuSans-35" transform="translate(83.789062 0)"/>
       <use xlink:href="#DejaVuSans-30" transform="translate(147.412109 0)"/>
      </g>
     </g>
    </g>
    <g id="xtick_2">
     <g id="line2d_2">
      <g>
       <use xlink:href="#mdb0c46cd7a" x="206.02" y="240.28" style="stroke: #000000; stroke-width: 0.8"/>
      </g>
     </g>
     <g id="text_2">
      <!-- 0 -->
      <g transform="translate(202.2025 256.398125) scale(0.12 -0.12)">
       <use xlink:href="#DejaVuSans-30"/>
      </g>
     </g>
    </g>
    <g id="xtick_3">
     <g id="line2d_3">
      <g>
       <use xlink:href="#mdb0c46cd7a" x="285.564444" y="240.28" style="stroke: #000000; stroke-width: 0.8"/>
      </g>
     </g>
     <g id="text_3">
      <!-- 50 -->
      <g transform="translate(277.929444 256.398125) scale(0.12 -0.12)">
       <use xlink:href="#DejaVuSans-35"/>
       <use xlink:href="#DejaVuSans-30" transform="translate(63.623047 0)"/>
      </g>
     </g>
    </g>
    <g id="text_4">
     <!-- $\Theta^{\circ}$ -->
     <g transform="translate(198.4 272.011875) scale(0.12 -0.12)">
      <defs>
       <path id="DejaVuSans-398" d="M 1416 2750 
L 3622 2750 
L 3622 2219 
L 1416 2219 
L 1416 2750 
z
M 2522 4238 
Q 1834 4238 1431 3725 
Q 1025 3213 1025 2328 
Q 1025 1447 1429 934 
Q 1834 422 2522 422 
Q 3209 422 3613 934 
Q 4013 1447 4013 2328 
Q 4013 3213 3613 3725 
Q 3209 4238 2522 4238 
z
M 2522 4750 
Q 3503 4750 4090 4092 
Q 4678 3434 4678 2328 
Q 4678 1225 4091 569 
Q 3503 -91 2522 -91 
Q 1538 -91 950 566 
Q 359 1222 359 2328 
Q 359 3434 950 4094 
Q 1538 4750 2522 4750 
z
" transform="scale(0.015625)"/>
       <path id="DejaVuSans-2218" d="M 2000 2619 
Q 1750 2619 1578 2445 
Q 1406 2272 1406 2022 
Q 1406 1775 1578 1605 
Q 1750 1435 2000 1435 
Q 2250 1435 2422 1605 
Q 2594 1775 2594 2022 
Q 2594 2269 2420 2444 
Q 2247 2619 2000 2619 
z
M 2000 3022 
Q 2200 3022 2384 2945 
Q 2569 2869 2703 2725 
Q 2847 2585 2919 2406 
Q 2991 2228 2991 2022 
Q 2991 1610 2702 1324 
Q 2413 1038 1994 1038 
Q 1572 1038 1290 1319 
Q 1009 1600 1009 2022 
Q 1009 2441 1296 2731 
Q 1584 3022 2000 3022 
z
" transform="scale(0.015625)"/>
      </defs>
      <use xlink:href="#DejaVuSans-398" transform="translate(0 0.78125)"/>
      <use xlink:href="#DejaVuSans-2218" transform="translate(79.667969 39.0625) scale(0.7)"/>
     </g>
    </g>
   </g>
   <g id="matplotlib.axis_2">
    <g id="ytick_1">
     <g id="line2d_4">
      <defs>
       <path id="mbd06908803" d="M 0 0 
L -3.5 0 
" style="stroke: #000000; stroke-width: 0.8"/>
      </defs>
      <g>
       <use xlink:href="#mbd06908803" x="62.84" y="219.984151" style="stroke: #000000; stroke-width: 0.8"/>
      </g>
     </g>
     <g id="text_5">
      <!-- −40 -->
      <g transform="translate(30.514375 224.543214) scale(0.12 -0.12)">
       <defs>
        <path id="DejaVuSans-34" d="M 2419 4116 
L 825 1625 
L 2419 1625 
L 2419 4116 
z
M 2253 4666 
L 3047 4666 
L 3047 1625 
L 3713 1625 
L 3713 1100 
L 3047 1100 
L 3047 0 
L 2419 0 
L 2419 1100 
L 313 1100 
L 313 1709 
L 2253 4666 
z
" transform="scale(0.015625)"/>
       </defs>
       <use xlink:href="#DejaVuSans-2212"/>
       <use xlink:href="#DejaVuSans-34" transform="translate(83.789062 0)"/>
       <use xlink:href="#DejaVuSans-30" transform="translate(147.412109 0)"/>
      </g>
     </g>
    </g>
    <g id="ytick_2">
     <g id="line2d_5">
      <g>
       <use xlink:href="#mbd06908803" x="62.84" y="176.783648" style="stroke: #000000; stroke-width: 0.8"/>
      </g>
     </g>
     <g id="text_6">
      <!-- −20 -->
      <g transform="translate(30.514375 181.342711) scale(0.12 -0.12)">
       <defs>
        <path id="DejaVuSans-32" d="M 1228 531 
L 3431 531 
L 3431 0 
L 469 0 
L 469 531 
Q 828 903 1448 1529 
Q 2069 2156 2228 2338 
Q 2531 2678 2651 2914 
Q 2772 3150 2772 3378 
Q 2772 3750 2511 3984 
Q 2250 4219 1831 4219 
Q 1534 4219 1204 4116 
Q 875 4013 500 3803 
L 500 4441 
Q 881 4594 1212 4672 
Q 1544 4750 1819 4750 
Q 2544 4750 2975 4387 
Q 3406 4025 3406 3419 
Q 3406 3131 3298 2873 
Q 3191 2616 2906 2266 
Q 2828 2175 2409 1742 
Q 1991 1309 1228 531 
z
" transform="scale(0.015625)"/>
       </defs>
       <use xlink:href="#DejaVuSans-2212"/>
       <use xlink:href="#DejaVuSans-32" transform="translate(83.789062 0)"/>
       <use xlink:href="#DejaVuSans-30" transform="translate(147.412109 0)"/>
      </g>
     </g>
    </g>
    <g id="ytick_3">
     <g id="line2d_6">
      <g>
       <use xlink:href="#mbd06908803" x="62.84" y="133.583145" style="stroke: #000000; stroke-width: 0.8"/>
      </g>
     </g>
     <g id="text_7">
      <!-- 0 -->
      <g transform="translate(48.205 138.142208) scale(0.12 -0.12)">
       <use xlink:href="#DejaVuSans-30"/>
      </g>
     </g>
    </g>
    <g id="ytick_4">
     <g id="line2d_7">
      <g>
       <use xlink:href="#mbd06908803" x="62.84" y="90.382642" style="stroke: #000000; stroke-width: 0.8"/>
      </g>
     </g>
     <g id="text_8">
      <!-- 20 -->
      <g transform="translate(40.57 94.941704) scale(0.12 -0.12)">
       <use xlink:href="#DejaVuSans-32"/>
       <use xlink:href="#DejaVuSans-30" transform="translate(63.623047 0)"/>
      </g>
     </g>
    </g>
    <g id="ytick_5">
     <g id="line2d_8">
      <g>
       <use xlink:href="#mbd06908803" x="62.84" y="47.182139" style="stroke: #000000; stroke-width: 0.8"/>
      </g>
     </g>
     <g id="text_9">
      <!-- 40 -->
      <g transform="translate(40.57 51.741201) scale(0.12 -0.12)">
       <use xlink:href="#DejaVuSans-34"/>
       <use xlink:href="#DejaVuSans-30" transform="translate(63.623047 0)"/>
      </g>
     </g>
    </g>
    <g id="text_10">
     <!-- $\phi^{\circ}$ -->
     <g transform="translate(23.784375 141.38) rotate(-90) scale(0.13 -0.13)">
      <defs>
       <path id="DejaVuSans-Oblique-3d5" d="M 2991 4863 
L 2738 3572 
Q 3363 3572 3684 3094 
Q 4016 2606 3850 1747 
Q 3681 888 3159 400 
Q 2653 -78 2028 -78 
L 1784 -1331 
L 1213 -1331 
L 1456 -78 
Q 834 -78 509 400 
Q 178 888 347 1747 
Q 513 2606 1034 3094 
Q 1544 3572 2166 3572 
L 2419 4863 
L 2991 4863 
z
M 2128 434 
Q 2481 434 2784 756 
Q 3116 1116 3244 1747 
Q 3369 2372 3169 2738 
Q 2991 3059 2638 3059 
L 2128 434 
z
M 1556 434 
L 2066 3059 
Q 1716 3059 1413 2738 
Q 1072 2372 953 1747 
Q 834 1116 1028 756 
Q 1203 434 1556 434 
z
" transform="scale(0.015625)"/>
      </defs>
      <use xlink:href="#DejaVuSans-Oblique-3d5" transform="translate(0 0.015625)"/>
      <use xlink:href="#DejaVuSans-2218" transform="translate(73.414505 38.296875) scale(0.7)"/>
     </g>
    </g>
   </g>
   <g id="QuadContourSet_2">
    <path clip-path="url(#p445b5d8b58)" style="fill: none; stroke-dasharray: 1.85,0.8; stroke-dashoffset: 0; stroke: #000000; stroke-width: 0.5"/>
    <path d="M 324.435447 26.88 
L 324.524753 36.380776 
L 324.619616 47.600163 
L 324.560755 60.808896 
L 324.632931 76.198006 
L 324.609466 93.757994 
L 324.631537 113.137869 
L 324.587551 120.426496 
M 324.435952 146.754683 
L 324.396163 154.013971 
L 324.334006 173.39493 
L 324.28864 190.956403 
L 324.350172 206.347113 
L 324.484477 219.557363 
L 324.51011 230.778089 
L 324.377815 240.28 
M 87.552641 240.28 
L 87.518659 230.778089 
L 87.496895 219.557363 
L 87.409113 206.347113 
L 87.484385 190.956403 
L 87.619957 173.39493 
L 87.844655 154.013971 
L 87.78606 146.75448 
M 87.506536 120.427287 
L 87.410583 113.137869 
L 87.424999 93.757994 
L 87.412998 76.198006 
L 87.405048 60.808896 
L 87.392082 47.600163 
L 87.426084 36.380776 
L 87.452034 26.88 
" clip-path="url(#p445b5d8b58)" style="fill: none; stroke-dasharray: 1.85,0.8; stroke-dashoffset: 0; stroke: #000000; stroke-width: 0.5"/>
    <path d="M 322.121831 26.88 
L 322.440405 36.380776 
L 322.7788 47.600163 
L 322.568832 60.808896 
L 322.826298 76.198006 
L 322.742592 93.757994 
L 322.821325 113.137869 
L 322.663431 120.47226 
M 322.124519 146.709349 
L 321.981698 154.013971 
L 321.75997 173.39493 
L 321.598141 190.956403 
L 321.81764 206.347113 
L 322.296733 219.557363 
L 322.38817 230.778089 
L 321.916246 240.28 
M 89.732989 240.28 
L 89.611766 230.778089 
L 89.534129 219.557363 
L 89.220992 206.347113 
L 89.489504 190.956403 
L 89.973119 173.39493 
L 90.774663 154.013971 
L 90.564269 146.706775 
M 89.571103 120.482285 
L 89.226238 113.137869 
L 89.277662 93.757994 
L 89.234854 76.198006 
L 89.206493 60.808896 
L 89.160241 47.600163 
L 89.281532 36.380776 
L 89.374102 26.88 
" clip-path="url(#p445b5d8b58)" style="fill: none; stroke-dasharray: 1.85,0.8; stroke-dashoffset: 0; stroke: #000000; stroke-width: 0.5"/>
    <path d="M 319.808215 26.88 
L 320.356057 36.380776 
L 320.937984 47.600163 
L 320.576908 60.808896 
L 321.019665 76.198006 
L 320.875719 93.757994 
L 321.011113 113.137869 
L 320.739394 120.477485 
M 319.812983 146.705038 
L 319.567233 154.013971 
L 319.185935 173.39493 
L 318.907642 190.956403 
L 319.285108 206.347113 
L 320.108989 219.557363 
L 320.26623 230.778089 
L 319.454677 240.28 
M 91.913337 240.28 
L 91.704873 230.778089 
L 91.571363 219.557363 
L 91.032872 206.347113 
L 91.494622 190.956403 
L 92.326281 173.39493 
L 93.70467 154.013971 
L 93.3424 146.697437 
M 91.636945 120.50703 
L 91.041892 113.137869 
L 91.130325 93.757994 
L 91.056709 76.198006 
L 91.007939 60.808896 
L 90.928399 47.600163 
L 91.136981 36.380776 
L 91.29617 26.88 
" clip-path="url(#p445b5d8b58)" style="fill: none; stroke-dasharray: 1.85,0.8; stroke-dashoffset: 0; stroke: #000000; stroke-width: 0.5"/>
    <path d="M 317.494599 26.88 
L 318.271708 36.380776 
L 319.097168 47.600163 
L 318.584985 60.808896 
L 319.213032 76.198006 
L 319.008845 93.757994 
L 319.200901 113.137869 
L 318.812779 120.528714 
M 317.50374 146.655194 
L 317.152768 154.013971 
L 316.611899 173.39493 
L 316.217144 190.956403 
L 316.752575 206.347113 
L 317.921245 219.557363 
L 318.144289 230.778089 
L 316.993107 240.28 
M 94.093685 240.28 
L 93.79798 230.778089 
L 93.608598 219.557363 
L 92.844752 206.347113 
L 93.499741 190.956403 
L 94.679443 173.39493 
L 96.634677 154.013971 
L 96.116764 146.639987 
M 93.710859 120.587657 
L 92.857547 113.137869 
L 92.982989 93.757994 
L 92.878564 76.198006 
L 92.809384 60.808896 
L 92.696558 47.600163 
L 92.992429 36.380776 
L 93.218238 26.88 
" clip-path="url(#p445b5d8b58)" style="fill: none; stroke-dasharray: 1.85,0.8; stroke-dashoffset: 0; stroke: #000000; stroke-width: 0.5"/>
    <path d="M 315.180983 26.88 
L 316.18736 36.380776 
L 317.256352 47.600163 
L 316.593062 60.808896 
L 317.406399 76.198006 
L 317.141972 93.757994 
L 317.390689 113.137869 
L 316.887335 120.539395 
M 315.193366 146.646376 
L 314.738302 154.013971 
L 314.037864 173.39493 
L 313.526645 190.956403 
L 314.220043 206.347113 
L 315.733501 219.557363 
L 316.022349 230.778089 
L 314.531538 240.28 
M 96.274032 240.28 
L 95.891087 230.778089 
L 95.645832 219.557363 
L 94.656631 206.347113 
L 95.50486 190.956403 
L 97.032604 173.39493 
L 99.564684 154.013971 
L 98.892243 146.620955 
M 95.785666 120.637558 
L 94.673201 113.137869 
L 94.835652 93.757994 
L 94.70042 76.198006 
L 94.61083 60.808896 
L 94.464717 47.600163 
L 94.847878 36.380776 
L 95.140307 26.88 
" clip-path="url(#p445b5d8b58)" style="fill: none; stroke-dasharray: 1.85,0.8; stroke-dashoffset: 0; stroke: #000000; stroke-width: 0.5"/>
    <path d="M 312.867367 26.88 
L 314.103012 36.380776 
L 315.415536 47.600163 
L 314.601138 60.808896 
L 315.599766 76.198006 
L 315.275098 93.757994 
L 315.580477 113.137869 
L 314.961333 120.552784 
M 312.88341 146.635317 
L 312.323837 154.013971 
L 311.463828 173.39493 
L 310.836146 190.956403 
L 311.68751 206.347113 
L 313.545757 219.557363 
L 313.900409 230.778089 
L 312.069969 240.28 
M 98.45438 240.28 
L 97.984193 230.778089 
L 97.683067 219.557363 
L 96.468511 206.347113 
L 97.509979 190.956403 
L 99.385766 173.39493 
L 102.494691 154.013971 
L 101.666399 146.597147 
M 97.866034 120.699481 
L 96.488856 113.137869 
L 96.688315 93.757994 
L 96.522275 76.198006 
L 96.412275 60.808896 
L 96.232875 47.600163 
L 96.703327 36.380776 
L 97.062375 26.88 
" clip-path="url(#p445b5d8b58)" style="fill: none; stroke-dasharray: 1.85,0.8; stroke-dashoffset: 0; stroke: #000000; stroke-width: 0.5"/>
    <path d="M 310.553751 26.88 
L 312.018664 36.380776 
L 313.57472 47.600163 
L 312.609215 60.808896 
L 313.793133 76.198006 
L 313.408225 93.757994 
L 313.770265 113.137869 
L 313.034651 120.568858 
M 310.573965 146.622033 
L 309.909372 154.013971 
L 308.889792 173.39493 
L 308.145647 190.956403 
L 309.154978 206.347113 
L 311.358013 219.557363 
L 311.778469 230.778089 
L 309.6084 240.28 
M 100.634728 240.28 
L 100.0773 230.778089 
L 99.720301 219.557363 
L 98.280391 206.347113 
L 99.515098 190.956403 
L 101.738928 173.39493 
L 105.424699 154.013971 
L 104.438947 146.568642 
M 99.95307 120.772902 
L 98.304511 113.137869 
L 98.540978 93.757994 
L 98.34413 76.198006 
L 98.21372 60.808896 
L 98.001034 47.600163 
L 98.558775 36.380776 
L 98.984443 26.88 
M 207.573167 240.28 
L 206.02 238.467513 
L 204.219632 240.28 
" clip-path="url(#p445b5d8b58)" style="fill: none; stroke-dasharray: 1.85,0.8; stroke-dashoffset: 0; stroke: #000000; stroke-width: 0.5"/>
    <path d="M 308.240135 26.88 
L 309.934315 36.380776 
L 311.733904 47.600163 
L 310.617292 60.808896 
L 311.9865 76.198006 
L 311.541352 93.757994 
L 311.960053 113.137869 
L 311.112096 120.544528 
M 308.260641 146.649644 
L 307.494907 154.013971 
L 306.315757 173.39493 
L 305.455148 190.956403 
L 306.622445 206.347113 
L 309.170268 219.557363 
L 309.656529 230.778089 
L 307.146831 240.28 
M 102.815076 240.28 
L 102.170407 230.778089 
L 101.757535 219.557363 
L 100.09227 206.347113 
L 101.520216 190.956403 
L 104.09209 173.39493 
L 108.354706 154.013971 
L 107.216171 146.578399 
M 102.03726 120.815055 
L 100.120165 113.137869 
L 100.393642 93.757994 
L 100.165986 76.198006 
L 100.015166 60.808896 
L 99.769193 47.600163 
L 100.414224 36.380776 
L 100.906511 26.88 
M 211.560464 240.28 
L 206.02 233.814486 
L 199.597717 240.28 
" clip-path="url(#p445b5d8b58)" style="fill: none; stroke-dasharray: 1.85,0.8; stroke-dashoffset: 0; stroke: #000000; stroke-width: 0.5"/>
    <path d="M 305.926519 26.88 
L 307.849967 36.380776 
L 309.893088 47.600163 
L 308.625368 60.808896 
L 310.179867 76.198006 
L 309.674478 93.757994 
L 310.149841 113.137869 
L 309.178762 120.608931 
M 305.956974 146.588877 
L 305.080442 154.013971 
L 303.741721 173.39493 
L 302.764649 190.956403 
L 304.089913 206.347113 
L 306.982524 219.557363 
L 307.534589 230.778089 
L 304.685262 240.28 
M 104.995423 240.28 
L 104.263514 230.778089 
L 103.79477 219.557363 
L 101.90415 206.347113 
L 103.525335 190.956403 
L 106.445251 173.39493 
L 109.038585 162.696703 
M 108.386757 137.456765 
L 107.734286 133.590571 
L 101.93582 113.137869 
L 102.246305 93.757994 
L 101.987841 76.198006 
L 101.816611 60.808896 
L 101.537351 47.600163 
L 102.269672 36.380776 
L 102.828579 26.88 
M 215.547761 240.28 
L 207.853643 230.778089 
L 206.02 229.246302 
L 204.21969 230.778089 
L 194.975803 240.28 
" clip-path="url(#p445b5d8b58)" style="fill: none; stroke-dasharray: 1.85,0.8; stroke-dashoffset: 0; stroke: #000000; stroke-width: 0.5"/>
    <path d="M 303.612903 26.88 
L 305.765619 36.380776 
L 308.052272 47.600163 
L 306.633445 60.808896 
L 308.373233 76.198006 
L 307.807605 93.757994 
L 308.339629 113.137869 
L 305.364339 133.590571 
L 302.665977 154.013971 
L 301.473333 169.63886 
L 288.526328 170.200908 
M 282.996026 184.686926 
L 288.225356 190.956403 
L 277.61 201.714131 
L 276.658128 206.347113 
L 277.61 208.534938 
L 297.749067 206.347113 
L 301.473333 205.423864 
L 301.557381 206.347113 
L 304.79478 219.557363 
L 305.412649 230.778089 
L 302.223693 240.28 
M 107.175771 240.28 
L 106.356621 230.778089 
L 105.832004 219.557363 
L 103.716029 206.347113 
L 105.530454 190.956403 
L 108.798413 173.39493 
L 110.566667 166.10039 
L 117.852084 154.013971 
L 115.415273 147.828057 
M 106.844663 122.886367 
L 103.751474 113.137869 
L 104.098968 93.757994 
L 103.809696 76.198006 
L 103.618057 60.808896 
L 103.30551 47.600163 
L 104.125121 36.380776 
L 104.750647 26.88 
M 219.535058 240.28 
L 215.519076 234.32109 
M 196.066864 234.029015 
L 190.353889 240.28 
M 134.43 186.191952 
L 129.57146 190.956403 
L 134.43 200.749074 
L 137.282557 190.956403 
L 134.43 186.191952 
z
" clip-path="url(#p445b5d8b58)" style="fill: none; stroke-dasharray: 1.85,0.8; stroke-dashoffset: 0; stroke: #000000; stroke-width: 0.5"/>
    <path d="M 300.833809 26.88 
L 301.473333 27.509972 
L 303.681271 36.380776 
L 306.211456 47.600163 
L 304.641521 60.808896 
L 306.5666 76.198006 
L 305.940731 93.757994 
L 306.529417 113.137869 
L 303.237254 133.590571 
L 301.473333 146.274109 
L 290.436325 149.653664 
M 272.882707 166.4282 
L 270.339921 173.39493 
L 272.448282 190.956403 
L 271.354028 206.347113 
L 276.952281 219.557363 
L 277.61 221.320127 
L 281.335537 219.557363 
L 301.473333 214.947568 
L 302.607036 219.557363 
L 303.290708 230.778089 
L 301.473333 236.022923 
L 291.0058 240.28 
M 109.356119 240.28 
L 108.449728 230.778089 
L 107.869239 219.557363 
L 105.527909 206.347113 
L 107.535573 190.956403 
L 110.566667 175.874776 
L 116.661424 173.39493 
L 123.703513 154.013971 
L 121.871029 146.39052 
M 109.342001 124.872451 
L 105.567129 113.137869 
L 105.951631 93.757994 
L 105.631552 76.198006 
L 105.419502 60.808896 
L 105.073668 47.600163 
L 105.980569 36.380776 
L 106.672715 26.88 
M 223.522355 240.28 
L 218.408928 230.778089 
L 216.468771 229.157322 
M 195.656582 229.246315 
L 193.856288 230.778089 
L 185.731975 240.28 
M 140.650118 200.489975 
L 141.725061 190.956403 
L 134.43 178.77191 
L 122.004888 190.956403 
L 126.914462 200.400636 
" clip-path="url(#p445b5d8b58)" style="fill: none; stroke-dasharray: 1.85,0.8; stroke-dashoffset: 0; stroke: #000000; stroke-width: 0.5"/>
    <path d="M 205.175758 26.88 
L 206.02 28.079361 
L 206.696683 26.88 
M 292.332563 26.88 
L 301.473333 35.884233 
L 301.596922 36.380776 
L 304.37064 47.600163 
L 302.649598 60.808896 
L 304.759967 76.198006 
L 304.073858 93.757994 
L 304.719205 113.137869 
L 302.538998 125.68131 
M 281.30261 138.088023 
L 277.61 139.35598 
L 270.965193 154.013971 
L 264.063396 173.39493 
L 263.59907 190.956403 
L 266.049929 206.347113 
L 270.091701 219.557363 
L 272.670557 230.778089 
L 274.871584 240.28 
M 121.142399 240.28 
L 110.566667 231.015246 
L 110.542835 230.778089 
L 109.906473 219.557363 
L 107.339789 206.347113 
L 109.540692 190.956403 
L 110.566667 185.851522 
L 114.438315 190.956403 
L 123.015666 206.347113 
L 134.43 219.277494 
L 148.773692 206.347113 
L 146.167564 190.956403 
L 142.876922 185.005187 
M 131.906771 161.041293 
L 129.554942 154.013971 
L 128.249873 133.590571 
L 110.566667 123.0353 
L 107.382784 113.137869 
L 107.804295 93.757994 
L 107.453407 76.198006 
L 107.220947 60.808896 
L 106.841827 47.600163 
L 107.836018 36.380776 
L 108.594783 26.88 
M 227.509652 240.28 
L 223.68657 230.778089 
L 211.324955 219.557363 
L 210.338673 218.75795 
M 189.975479 229.387897 
L 188.674587 230.778089 
L 182.156667 238.830408 
L 158.293333 235.265088 
L 148.0772 240.28 
" clip-path="url(#p445b5d8b58)" style="fill: none; stroke-dasharray: 1.85,0.8; stroke-dashoffset: 0; stroke: #000000; stroke-width: 0.5"/>
    <path d="M 193.929288 26.88 
L 201.601563 36.380776 
L 206.02 39.274592 
L 210.945264 36.380776 
L 215.711042 26.88 
M 283.831316 26.88 
L 285.136318 36.380776 
L 301.473333 43.348905 
L 302.529824 47.600163 
L 301.473333 55.308888 
L 298.327023 60.808896 
L 301.473333 65.937606 
L 302.953334 76.198006 
L 302.206984 93.757994 
L 302.908993 113.137869 
L 301.473333 121.397688 
L 277.61 122.374778 
L 273.549768 133.590571 
L 264.516611 154.013971 
L 257.786871 173.39493 
L 254.749858 190.956403 
L 260.745829 206.347113 
L 263.231122 219.557363 
L 262.499165 230.778089 
L 253.746667 238.880194 
L 229.883333 233.636885 
L 228.964212 230.778089 
L 217.936481 219.557363 
L 206.02 209.898671 
L 190.643087 219.557363 
L 183.492886 230.778089 
L 182.156667 232.428871 
L 175.192042 230.778089 
L 161.204443 219.557363 
L 158.293333 211.331659 
L 157.557678 206.347113 
L 150.610068 190.956403 
L 143.819589 173.39493 
L 135.767315 154.013971 
L 137.426727 133.590571 
L 134.43 123.778495 
L 110.566667 117.391149 
L 109.198438 113.137869 
L 109.656958 93.757994 
L 109.275262 76.198006 
L 109.022393 60.808896 
L 108.669257 49.498522 
M 110.566667 196.877583 
L 116.0256 206.347113 
L 110.566667 213.428366 
L 109.151668 206.347113 
L 110.566667 196.877583 
z
" clip-path="url(#p445b5d8b58)" style="fill: none; stroke-dasharray: 1.85,0.8; stroke-dashoffset: 0; stroke: #000000; stroke-width: 0.5"/>
    <path d="M 138.508344 26.88 
L 145.979023 30.687698 
M 170.902346 31.256489 
L 180.956277 26.88 
M 182.682817 26.88 
L 192.404522 36.380776 
L 194.547308 37.784175 
M 217.878568 38.330665 
L 221.197271 36.380776 
L 224.725401 26.88 
M 273.792768 26.88 
L 272.248633 36.380776 
L 277.61 42.259382 
L 290.66666 47.600163 
L 290.643408 60.808896 
L 298.945853 76.198006 
L 289.82272 93.757994 
L 277.61 104.513485 
L 270.136785 113.137869 
L 266.722436 133.590571 
L 258.068029 154.013971 
L 253.746667 166.66729 
L 250.042547 173.39493 
L 248.673969 178.267927 
M 253.255531 201.626104 
L 253.746667 202.269468 
L 255.441729 206.347113 
L 256.370542 219.557363 
L 253.746667 227.779224 
L 229.883333 225.102879 
L 224.548007 219.557363 
L 212.969037 206.347113 
L 210.041132 190.956403 
L 206.02 188.203639 
L 202.29782 190.956403 
L 198.390703 206.347113 
L 182.156667 219.460912 
L 171.67547 206.347113 
L 158.293333 197.77848 
L 155.052572 190.956403 
L 151.181988 173.39493 
L 143.781899 154.013971 
L 146.077605 133.590571 
L 140.923499 113.137869 
L 134.43 105.061078 
L 119.350715 93.757994 
L 127.792238 76.198006 
L 111.88805 60.808896 
L 110.566667 53.247485 
L 110.378144 47.600163 
L 110.566667 45.716142 
L 120.028099 36.380776 
L 130.67204 26.88 
" clip-path="url(#p445b5d8b58)" style="fill: none; stroke-dasharray: 1.85,0.8; stroke-dashoffset: 0; stroke: #000000; stroke-width: 0.5"/>
    <path d="M 259.559338 26.88 
L 262.786703 36.380776 
L 272.311285 47.600163 
L 277.61 53.024801 
L 282.959792 60.808896 
L 284.96612 76.198006 
L 277.61 86.581295 
L 253.746667 82.900303 
L 246.672512 93.757994 
L 253.746667 109.865614 
L 255.489885 113.137869 
L 259.895105 133.590571 
L 254.477763 146.761128 
M 240.866479 166.93403 
L 239.646451 173.39493 
L 235.369944 190.956403 
L 229.883333 202.633983 
L 222.733808 190.956403 
L 206.02 179.514556 
L 190.548783 190.956403 
L 182.156667 201.986616 
L 164.848299 190.956403 
L 159.067906 173.39493 
L 158.293333 172.61257 
L 151.796483 154.013971 
L 154.728482 133.590571 
L 151.324058 113.137869 
L 137.408786 93.757994 
L 158.293333 76.504588 
L 158.599823 76.198006 
L 158.293333 62.892298 
L 134.43 70.31703 
L 121.144131 60.808896 
L 123.697687 47.600163 
L 134.43 38.753377 
L 153.198225 47.600163 
L 158.293333 60.646786 
L 163.195805 47.600163 
L 179.795568 36.380776 
L 182.156667 35.36387 
L 183.207481 36.380776 
L 195.371046 47.600163 
L 206.02 54.341581 
L 215.538892 47.600163 
L 229.883333 37.962021 
L 233.172588 36.380776 
L 242.092215 26.88 
" clip-path="url(#p445b5d8b58)" style="fill: none; stroke-dasharray: 1.85,0.8; stroke-dashoffset: 0; stroke: #000000; stroke-width: 0.5"/>
    <path d="M 241.578443 58.641331 
L 232.023798 47.600163 
L 253.746667 37.052631 
L 261.390932 47.600163 
L 262.764655 57.360036 
M 134.43 52.654101 
L 141.680519 60.808896 
L 134.43 63.692844 
L 130.400213 60.808896 
L 134.43 52.654101 
z
M 192.172076 172.196306 
L 183.41424 173.39493 
L 182.156667 174.351005 
L 181.78299 173.39493 
L 169.271373 154.013971 
L 177.703686 133.590571 
L 163.649192 113.137869 
L 160.994377 93.757994 
L 178.083872 76.198006 
L 178.113466 60.808896 
L 182.156667 54.655761 
L 190.107036 60.808896 
L 206.02 70.609285 
L 229.883333 73.073423 
L 232.166073 76.198006 
L 234.597595 93.757994 
L 229.883333 106.169982 
L 226.066179 113.137869 
L 221.991758 133.590571 
L 223.439181 154.013971 
L 215.929265 161.035799 
" clip-path="url(#p445b5d8b58)" style="fill: none; stroke-dasharray: 1.85,0.8; stroke-dashoffset: 0; stroke: #000000; stroke-width: 0.5"/>
    <path d="M 196.966939 152.071255 
L 205.550378 133.590571 
L 182.156667 115.987252 
L 179.88333 113.137869 
L 182.156667 101.875861 
L 206.02 97.480399 
L 208.650094 113.137869 
L 206.292648 133.590571 
L 210.87855 149.313934 
" clip-path="url(#p445b5d8b58)" style="fill: none; stroke-dasharray: 1.85,0.8; stroke-dashoffset: 0; stroke: #000000; stroke-width: 0.5"/>
    <path clip-path="url(#p445b5d8b58)" style="fill: none; stroke-dasharray: 1.85,0.8; stroke-dashoffset: 0; stroke: #000000; stroke-width: 0.5"/>
   </g>
   <g id="patch_3">
    <path d="M 62.84 240.28 
L 62.84 26.88 
" style="fill: none; stroke: #000000; stroke-width: 0.8; stroke-linejoin: miter; stroke-linecap: square"/>
   </g>
   <g id="patch_4">
    <path d="M 349.2 240.28 
L 349.2 26.88 
" style="fill: none; stroke: #000000; stroke-width: 0.8; stroke-linejoin: miter; stroke-linecap: square"/>
   </g>
   <g id="patch_5">
    <path d="M 62.84 240.28 
L 349.2 240.28 
" style="fill: none; stroke: #000000; stroke-width: 0.8; stroke-linejoin: miter; stroke-linecap: square"/>
   </g>
   <g id="patch_6">
    <path d="M 62.84 26.88 
L 349.2 26.88 
" style="fill: none; stroke: #000000; stroke-width: 0.8; stroke-linejoin: miter; stroke-linecap: square"/>
   </g>
   <g id="text_11">
    <!-- Band 3150 -->
    <g transform="translate(173.438125 20.88) scale(0.12 -0.12)">
     <defs>
      <path id="DejaVuSans-42" d="M 1259 2228 
L 1259 519 
L 2272 519 
Q 2781 519 3026 730 
Q 3272 941 3272 1375 
Q 3272 1813 3026 2020 
Q 2781 2228 2272 2228 
L 1259 2228 
z
M 1259 4147 
L 1259 2741 
L 2194 2741 
Q 2656 2741 2882 2914 
Q 3109 3088 3109 3444 
Q 3109 3797 2882 3972 
Q 2656 4147 2194 4147 
L 1259 4147 
z
M 628 4666 
L 2241 4666 
Q 2963 4666 3353 4366 
Q 3744 4066 3744 3513 
Q 3744 3084 3544 2831 
Q 3344 2578 2956 2516 
Q 3422 2416 3680 2098 
Q 3938 1781 3938 1306 
Q 3938 681 3513 340 
Q 3088 0 2303 0 
L 628 0 
L 628 4666 
z
" transform="scale(0.015625)"/>
      <path id="DejaVuSans-61" d="M 2194 1759 
Q 1497 1759 1228 1600 
Q 959 1441 959 1056 
Q 959 750 1161 570 
Q 1363 391 1709 391 
Q 2188 391 2477 730 
Q 2766 1069 2766 1631 
L 2766 1759 
L 2194 1759 
z
M 3341 1997 
L 3341 0 
L 2766 0 
L 2766 531 
Q 2569 213 2275 61 
Q 1981 -91 1556 -91 
Q 1019 -91 701 211 
Q 384 513 384 1019 
Q 384 1609 779 1909 
Q 1175 2209 1959 2209 
L 2766 2209 
L 2766 2266 
Q 2766 2663 2505 2880 
Q 2244 3097 1772 3097 
Q 1472 3097 1187 3025 
Q 903 2953 641 2809 
L 641 3341 
Q 956 3463 1253 3523 
Q 1550 3584 1831 3584 
Q 2591 3584 2966 3190 
Q 3341 2797 3341 1997 
z
" transform="scale(0.015625)"/>
      <path id="DejaVuSans-6e" d="M 3513 2113 
L 3513 0 
L 2938 0 
L 2938 2094 
Q 2938 2591 2744 2837 
Q 2550 3084 2163 3084 
Q 1697 3084 1428 2787 
Q 1159 2491 1159 1978 
L 1159 0 
L 581 0 
L 581 3500 
L 1159 3500 
L 1159 2956 
Q 1366 3272 1645 3428 
Q 1925 3584 2291 3584 
Q 2894 3584 3203 3211 
Q 3513 2838 3513 2113 
z
" transform="scale(0.015625)"/>
      <path id="DejaVuSans-64" d="M 2906 2969 
L 2906 4863 
L 3481 4863 
L 3481 0 
L 2906 0 
L 2906 525 
Q 2725 213 2448 61 
Q 2172 -91 1784 -91 
Q 1150 -91 751 415 
Q 353 922 353 1747 
Q 353 2572 751 3078 
Q 1150 3584 1784 3584 
Q 2172 3584 2448 3432 
Q 2725 3281 2906 2969 
z
M 947 1747 
Q 947 1113 1208 752 
Q 1469 391 1925 391 
Q 2381 391 2643 752 
Q 2906 1113 2906 1747 
Q 2906 2381 2643 2742 
Q 2381 3103 1925 3103 
Q 1469 3103 1208 2742 
Q 947 2381 947 1747 
z
" transform="scale(0.015625)"/>
      <path id="DejaVuSans-20" transform="scale(0.015625)"/>
      <path id="DejaVuSans-33" d="M 2597 2516 
Q 3050 2419 3304 2112 
Q 3559 1806 3559 1356 
Q 3559 666 3084 287 
Q 2609 -91 1734 -91 
Q 1441 -91 1130 -33 
Q 819 25 488 141 
L 488 750 
Q 750 597 1062 519 
Q 1375 441 1716 441 
Q 2309 441 2620 675 
Q 2931 909 2931 1356 
Q 2931 1769 2642 2001 
Q 2353 2234 1838 2234 
L 1294 2234 
L 1294 2753 
L 1863 2753 
Q 2328 2753 2575 2939 
Q 2822 3125 2822 3475 
Q 2822 3834 2567 4026 
Q 2313 4219 1838 4219 
Q 1578 4219 1281 4162 
Q 984 4106 628 3988 
L 628 4550 
Q 988 4650 1302 4700 
Q 1616 4750 1894 4750 
Q 2613 4750 3031 4423 
Q 3450 4097 3450 3541 
Q 3450 3153 3228 2886 
Q 3006 2619 2597 2516 
z
" transform="scale(0.015625)"/>
      <path id="DejaVuSans-31" d="M 794 531 
L 1825 531 
L 1825 4091 
L 703 3866 
L 703 4441 
L 1819 4666 
L 2450 4666 
L 2450 531 
L 3481 531 
L 3481 0 
L 794 0 
L 794 531 
z
" transform="scale(0.015625)"/>
     </defs>
     <use xlink:href="#DejaVuSans-42"/>
     <use xlink:href="#DejaVuSans-61" transform="translate(68.603516 0)"/>
     <use xlink:href="#DejaVuSans-6e" transform="translate(129.882812 0)"/>
     <use xlink:href="#DejaVuSans-64" transform="translate(193.261719 0)"/>
     <use xlink:href="#DejaVuSans-20" transform="translate(256.738281 0)"/>
     <use xlink:href="#DejaVuSans-33" transform="translate(288.525391 0)"/>
     <use xlink:href="#DejaVuSans-31" transform="translate(352.148438 0)"/>
     <use xlink:href="#DejaVuSans-35" transform="translate(415.771484 0)"/>
     <use xlink:href="#DejaVuSans-30" transform="translate(479.394531 0)"/>
    </g>
   </g>
   <g id="text_12">
    <g clip-path="url(#p445b5d8b58)">
     <!-- 58.0 -->
     <g transform="translate(326.937417 143.623363) rotate(-89.690689) scale(0.09 -0.09)">
      <defs>
       <path id="DejaVuSans-38" d="M 2034 2216 
Q 1584 2216 1326 1975 
Q 1069 1734 1069 1313 
Q 1069 891 1326 650 
Q 1584 409 2034 409 
Q 2484 409 2743 651 
Q 3003 894 3003 1313 
Q 3003 1734 2745 1975 
Q 2488 2216 2034 2216 
z
M 1403 2484 
Q 997 2584 770 2862 
Q 544 3141 544 3541 
Q 544 4100 942 4425 
Q 1341 4750 2034 4750 
Q 2731 4750 3128 4425 
Q 3525 4100 3525 3541 
Q 3525 3141 3298 2862 
Q 3072 2584 2669 2484 
Q 3125 2378 3379 2068 
Q 3634 1759 3634 1313 
Q 3634 634 3220 271 
Q 2806 -91 2034 -91 
Q 1263 -91 848 271 
Q 434 634 434 1313 
Q 434 1759 690 2068 
Q 947 2378 1403 2484 
z
M 1172 3481 
Q 1172 3119 1398 2916 
Q 1625 2713 2034 2713 
Q 2441 2713 2670 2916 
Q 2900 3119 2900 3481 
Q 2900 3844 2670 4047 
Q 2441 4250 2034 4250 
Q 1625 4250 1398 4047 
Q 1172 3844 1172 3481 
z
" transform="scale(0.015625)"/>
       <path id="DejaVuSans-2e" d="M 684 794 
L 1344 794 
L 1344 0 
L 684 0 
L 684 794 
z
" transform="scale(0.015625)"/>
      </defs>
      <use xlink:href="#DejaVuSans-35"/>
      <use xlink:href="#DejaVuSans-38" transform="translate(63.623047 0)"/>
      <use xlink:href="#DejaVuSans-2e" transform="translate(127.246094 0)"/>
      <use xlink:href="#DejaVuSans-30" transform="translate(159.033203 0)"/>
     </g>
    </g>
   </g>
   <g id="text_13">
    <g clip-path="url(#p445b5d8b58)">
     <!-- 58.0 -->
     <g transform="translate(85.096759 123.596256) rotate(-270.570331) scale(0.09 -0.09)">
      <use xlink:href="#DejaVuSans-35"/>
      <use xlink:href="#DejaVuSans-38" transform="translate(63.623047 0)"/>
      <use xlink:href="#DejaVuSans-2e" transform="translate(127.246094 0)"/>
      <use xlink:href="#DejaVuSans-30" transform="translate(159.033203 0)"/>
     </g>
    </g>
   </g>
   <g id="text_14">
    <g clip-path="url(#p445b5d8b58)">
     <!-- 59.0 -->
     <g transform="translate(324.67108 143.656061) rotate(-88.896751) scale(0.09 -0.09)">
      <defs>
       <path id="DejaVuSans-39" d="M 703 97 
L 703 672 
Q 941 559 1184 500 
Q 1428 441 1663 441 
Q 2288 441 2617 861 
Q 2947 1281 2994 2138 
Q 2813 1869 2534 1725 
Q 2256 1581 1919 1581 
Q 1219 1581 811 2004 
Q 403 2428 403 3163 
Q 403 3881 828 4315 
Q 1253 4750 1959 4750 
Q 2769 4750 3195 4129 
Q 3622 3509 3622 2328 
Q 3622 1225 3098 567 
Q 2575 -91 1691 -91 
Q 1453 -91 1209 -44 
Q 966 3 703 97 
z
M 1959 2075 
Q 2384 2075 2632 2365 
Q 2881 2656 2881 3163 
Q 2881 3666 2632 3958 
Q 2384 4250 1959 4250 
Q 1534 4250 1286 3958 
Q 1038 3666 1038 3163 
Q 1038 2656 1286 2365 
Q 1534 2075 1959 2075 
z
" transform="scale(0.015625)"/>
      </defs>
      <use xlink:href="#DejaVuSans-35"/>
      <use xlink:href="#DejaVuSans-39" transform="translate(63.623047 0)"/>
      <use xlink:href="#DejaVuSans-2e" transform="translate(127.246094 0)"/>
      <use xlink:href="#DejaVuSans-30" transform="translate(159.033203 0)"/>
     </g>
    </g>
   </g>
   <g id="text_15">
    <g clip-path="url(#p445b5d8b58)">
     <!-- 59.0 -->
     <g transform="translate(87.349202 123.665474) rotate(-272.033564) scale(0.09 -0.09)">
      <use xlink:href="#DejaVuSans-35"/>
      <use xlink:href="#DejaVuSans-39" transform="translate(63.623047 0)"/>
      <use xlink:href="#DejaVuSans-2e" transform="translate(127.246094 0)"/>
      <use xlink:href="#DejaVuSans-30" transform="translate(159.033203 0)"/>
     </g>
    </g>
   </g>
   <g id="text_16">
    <g clip-path="url(#p445b5d8b58)">
     <!-- 60.0 -->
     <g transform="translate(322.404379 143.686811) rotate(-88.103239) scale(0.09 -0.09)">
      <defs>
       <path id="DejaVuSans-36" d="M 2113 2584 
Q 1688 2584 1439 2293 
Q 1191 2003 1191 1497 
Q 1191 994 1439 701 
Q 1688 409 2113 409 
Q 2538 409 2786 701 
Q 3034 994 3034 1497 
Q 3034 2003 2786 2293 
Q 2538 2584 2113 2584 
z
M 3366 4563 
L 3366 3988 
Q 3128 4100 2886 4159 
Q 2644 4219 2406 4219 
Q 1781 4219 1451 3797 
Q 1122 3375 1075 2522 
Q 1259 2794 1537 2939 
Q 1816 3084 2150 3084 
Q 2853 3084 3261 2657 
Q 3669 2231 3669 1497 
Q 3669 778 3244 343 
Q 2819 -91 2113 -91 
Q 1303 -91 875 529 
Q 447 1150 447 2328 
Q 447 3434 972 4092 
Q 1497 4750 2381 4750 
Q 2619 4750 2861 4703 
Q 3103 4656 3366 4563 
z
" transform="scale(0.015625)"/>
      </defs>
      <use xlink:href="#DejaVuSans-36"/>
      <use xlink:href="#DejaVuSans-30" transform="translate(63.623047 0)"/>
      <use xlink:href="#DejaVuSans-2e" transform="translate(127.246094 0)"/>
      <use xlink:href="#DejaVuSans-30" transform="translate(159.033203 0)"/>
     </g>
    </g>
   </g>
   <g id="text_17">
    <g clip-path="url(#p445b5d8b58)">
     <!-- 60.0 -->
     <g transform="translate(89.604028 123.740998) rotate(-273.493695) scale(0.09 -0.09)">
      <use xlink:href="#DejaVuSans-36"/>
      <use xlink:href="#DejaVuSans-30" transform="translate(63.623047 0)"/>
      <use xlink:href="#DejaVuSans-2e" transform="translate(127.246094 0)"/>
      <use xlink:href="#DejaVuSans-30" transform="translate(159.033203 0)"/>
     </g>
    </g>
   </g>
   <g id="text_18">
    <g clip-path="url(#p445b5d8b58)">
     <!-- 61.0 -->
     <g transform="translate(320.137395 143.715598) rotate(-87.310459) scale(0.09 -0.09)">
      <use xlink:href="#DejaVuSans-36"/>
      <use xlink:href="#DejaVuSans-31" transform="translate(63.623047 0)"/>
      <use xlink:href="#DejaVuSans-2e" transform="translate(127.246094 0)"/>
      <use xlink:href="#DejaVuSans-30" transform="translate(159.033203 0)"/>
     </g>
    </g>
   </g>
   <g id="text_19">
    <g clip-path="url(#p445b5d8b58)">
     <!-- 61.0 -->
     <g transform="translate(91.861764 123.822609) rotate(-274.948526) scale(0.09 -0.09)">
      <use xlink:href="#DejaVuSans-36"/>
      <use xlink:href="#DejaVuSans-31" transform="translate(63.623047 0)"/>
      <use xlink:href="#DejaVuSans-2e" transform="translate(127.246094 0)"/>
      <use xlink:href="#DejaVuSans-30" transform="translate(159.033203 0)"/>
     </g>
    </g>
   </g>
   <g id="text_20">
    <g clip-path="url(#p445b5d8b58)">
     <!-- 62.0 -->
     <g transform="translate(317.870209 143.742413) rotate(-86.518716) scale(0.09 -0.09)">
      <use xlink:href="#DejaVuSans-36"/>
      <use xlink:href="#DejaVuSans-32" transform="translate(63.623047 0)"/>
      <use xlink:href="#DejaVuSans-2e" transform="translate(127.246094 0)"/>
      <use xlink:href="#DejaVuSans-30" transform="translate(159.033203 0)"/>
     </g>
    </g>
   </g>
   <g id="text_21">
    <g clip-path="url(#p445b5d8b58)">
     <!-- 62.0 -->
     <g transform="translate(94.12291 123.910053) rotate(-276.395915) scale(0.09 -0.09)">
      <use xlink:href="#DejaVuSans-36"/>
      <use xlink:href="#DejaVuSans-32" transform="translate(63.623047 0)"/>
      <use xlink:href="#DejaVuSans-2e" transform="translate(127.246094 0)"/>
      <use xlink:href="#DejaVuSans-30" transform="translate(159.033203 0)"/>
     </g>
    </g>
   </g>
   <g id="text_22">
    <g clip-path="url(#p445b5d8b58)">
     <!-- 63.0 -->
     <g transform="translate(315.602904 143.76725) rotate(-85.72831) scale(0.09 -0.09)">
      <use xlink:href="#DejaVuSans-36"/>
      <use xlink:href="#DejaVuSans-33" transform="translate(63.623047 0)"/>
      <use xlink:href="#DejaVuSans-2e" transform="translate(127.246094 0)"/>
      <use xlink:href="#DejaVuSans-30" transform="translate(159.033203 0)"/>
     </g>
    </g>
   </g>
   <g id="text_23">
    <g clip-path="url(#p445b5d8b58)">
     <!-- 63.0 -->
     <g transform="translate(96.387934 124.003038) rotate(-277.833796) scale(0.09 -0.09)">
      <use xlink:href="#DejaVuSans-36"/>
      <use xlink:href="#DejaVuSans-33" transform="translate(63.623047 0)"/>
      <use xlink:href="#DejaVuSans-2e" transform="translate(127.246094 0)"/>
      <use xlink:href="#DejaVuSans-30" transform="translate(159.033203 0)"/>
     </g>
    </g>
   </g>
   <g id="text_24">
    <g clip-path="url(#p445b5d8b58)">
     <!-- 64.0 -->
     <g transform="translate(313.335561 143.790104) rotate(-84.939542) scale(0.09 -0.09)">
      <use xlink:href="#DejaVuSans-36"/>
      <use xlink:href="#DejaVuSans-34" transform="translate(63.623047 0)"/>
      <use xlink:href="#DejaVuSans-2e" transform="translate(127.246094 0)"/>
      <use xlink:href="#DejaVuSans-30" transform="translate(159.033203 0)"/>
     </g>
    </g>
   </g>
   <g id="text_25">
    <g clip-path="url(#p445b5d8b58)">
     <!-- 64.0 -->
     <g transform="translate(98.657268 124.101247) rotate(-279.260199) scale(0.09 -0.09)">
      <use xlink:href="#DejaVuSans-36"/>
      <use xlink:href="#DejaVuSans-34" transform="translate(63.623047 0)"/>
      <use xlink:href="#DejaVuSans-2e" transform="translate(127.246094 0)"/>
      <use xlink:href="#DejaVuSans-30" transform="translate(159.033203 0)"/>
     </g>
    </g>
   </g>
   <g id="text_26">
    <g clip-path="url(#p445b5d8b58)">
     <!-- 65.0 -->
     <g transform="translate(311.068261 143.810976) rotate(-84.152704) scale(0.09 -0.09)">
      <use xlink:href="#DejaVuSans-36"/>
      <use xlink:href="#DejaVuSans-35" transform="translate(63.623047 0)"/>
      <use xlink:href="#DejaVuSans-2e" transform="translate(127.246094 0)"/>
      <use xlink:href="#DejaVuSans-30" transform="translate(159.033203 0)"/>
     </g>
    </g>
   </g>
   <g id="text_27">
    <g clip-path="url(#p445b5d8b58)">
     <!-- 65.0 -->
     <g transform="translate(100.931306 124.204337) rotate(-280.673264) scale(0.09 -0.09)">
      <use xlink:href="#DejaVuSans-36"/>
      <use xlink:href="#DejaVuSans-35" transform="translate(63.623047 0)"/>
      <use xlink:href="#DejaVuSans-2e" transform="translate(127.246094 0)"/>
      <use xlink:href="#DejaVuSans-30" transform="translate(159.033203 0)"/>
     </g>
    </g>
   </g>
   <g id="text_28">
    <g clip-path="url(#p445b5d8b58)">
     <!-- 66.0 -->
     <g transform="translate(308.801084 143.82987) rotate(-83.368088) scale(0.09 -0.09)">
      <use xlink:href="#DejaVuSans-36"/>
      <use xlink:href="#DejaVuSans-36" transform="translate(63.623047 0)"/>
      <use xlink:href="#DejaVuSans-2e" transform="translate(127.246094 0)"/>
      <use xlink:href="#DejaVuSans-30" transform="translate(159.033203 0)"/>
     </g>
    </g>
   </g>
   <g id="text_29">
    <g clip-path="url(#p445b5d8b58)">
     <!-- 66.0 -->
     <g transform="translate(107.6312 140.47721) rotate(-272.600401) scale(0.09 -0.09)">
      <use xlink:href="#DejaVuSans-36"/>
      <use xlink:href="#DejaVuSans-36" transform="translate(63.623047 0)"/>
      <use xlink:href="#DejaVuSans-2e" transform="translate(127.246094 0)"/>
      <use xlink:href="#DejaVuSans-30" transform="translate(159.033203 0)"/>
     </g>
    </g>
   </g>
   <g id="text_30">
    <g clip-path="url(#p445b5d8b58)">
     <!-- 67.0 -->
     <g transform="translate(275.809652 183.686069) rotate(-71.596588) scale(0.09 -0.09)">
      <defs>
       <path id="DejaVuSans-37" d="M 525 4666 
L 3525 4666 
L 3525 4397 
L 1831 0 
L 1172 0 
L 2766 4134 
L 525 4134 
L 525 4666 
z
" transform="scale(0.015625)"/>
      </defs>
      <use xlink:href="#DejaVuSans-36"/>
      <use xlink:href="#DejaVuSans-37" transform="translate(63.623047 0)"/>
      <use xlink:href="#DejaVuSans-2e" transform="translate(127.246094 0)"/>
      <use xlink:href="#DejaVuSans-30" transform="translate(159.033203 0)"/>
     </g>
    </g>
   </g>
   <g id="text_31">
    <g clip-path="url(#p445b5d8b58)">
     <!-- 67.0 -->
     <g transform="translate(105.1613 126.725385) rotate(-287.655833) scale(0.09 -0.09)">
      <use xlink:href="#DejaVuSans-36"/>
      <use xlink:href="#DejaVuSans-37" transform="translate(63.623047 0)"/>
      <use xlink:href="#DejaVuSans-2e" transform="translate(127.246094 0)"/>
      <use xlink:href="#DejaVuSans-30" transform="translate(159.033203 0)"/>
     </g>
    </g>
   </g>
   <g id="text_32">
    <g clip-path="url(#p445b5d8b58)">
     <!-- 67.0 -->
     <g transform="translate(196.00151 227.325106) rotate(-0.024013) scale(0.09 -0.09)">
      <use xlink:href="#DejaVuSans-36"/>
      <use xlink:href="#DejaVuSans-37" transform="translate(63.623047 0)"/>
      <use xlink:href="#DejaVuSans-2e" transform="translate(127.246094 0)"/>
      <use xlink:href="#DejaVuSans-30" transform="translate(159.033203 0)"/>
     </g>
    </g>
   </g>
   <g id="text_33">
    <g clip-path="url(#p445b5d8b58)">
     <!-- 68.0 -->
     <g transform="translate(272.222309 162.936255) rotate(-45.886081) scale(0.09 -0.09)">
      <use xlink:href="#DejaVuSans-36"/>
      <use xlink:href="#DejaVuSans-38" transform="translate(63.623047 0)"/>
      <use xlink:href="#DejaVuSans-2e" transform="translate(127.246094 0)"/>
      <use xlink:href="#DejaVuSans-30" transform="translate(159.033203 0)"/>
     </g>
    </g>
   </g>
   <g id="text_34">
    <g clip-path="url(#p445b5d8b58)">
     <!-- 68.0 -->
     <g transform="translate(111.136578 126.668247) rotate(-303.966516) scale(0.09 -0.09)">
      <use xlink:href="#DejaVuSans-36"/>
      <use xlink:href="#DejaVuSans-38" transform="translate(63.623047 0)"/>
      <use xlink:href="#DejaVuSans-2e" transform="translate(127.246094 0)"/>
      <use xlink:href="#DejaVuSans-30" transform="translate(159.033203 0)"/>
     </g>
    </g>
   </g>
   <g id="text_35">
    <g clip-path="url(#p445b5d8b58)">
     <!-- 68.0 -->
     <g transform="translate(196.011899 222.957745) rotate(-0.261309) scale(0.09 -0.09)">
      <use xlink:href="#DejaVuSans-36"/>
      <use xlink:href="#DejaVuSans-38" transform="translate(63.623047 0)"/>
      <use xlink:href="#DejaVuSans-2e" transform="translate(127.246094 0)"/>
      <use xlink:href="#DejaVuSans-30" transform="translate(159.033203 0)"/>
     </g>
    </g>
   </g>
   <g id="text_36">
    <g clip-path="url(#p445b5d8b58)">
     <!-- 68.0 -->
     <g transform="translate(124.322919 213.457912) rotate(-357.8109) scale(0.09 -0.09)">
      <use xlink:href="#DejaVuSans-36"/>
      <use xlink:href="#DejaVuSans-38" transform="translate(63.623047 0)"/>
      <use xlink:href="#DejaVuSans-2e" transform="translate(127.246094 0)"/>
      <use xlink:href="#DejaVuSans-30" transform="translate(159.033203 0)"/>
     </g>
    </g>
   </g>
   <g id="text_37">
    <g clip-path="url(#p445b5d8b58)">
     <!-- 69.0 -->
     <g transform="translate(286.464714 140.192428) rotate(-25.837248) scale(0.09 -0.09)">
      <use xlink:href="#DejaVuSans-36"/>
      <use xlink:href="#DejaVuSans-39" transform="translate(63.623047 0)"/>
      <use xlink:href="#DejaVuSans-2e" transform="translate(127.246094 0)"/>
      <use xlink:href="#DejaVuSans-30" transform="translate(159.033203 0)"/>
     </g>
    </g>
   </g>
   <g id="text_38">
    <g clip-path="url(#p445b5d8b58)">
     <!-- 69.0 -->
     <g transform="translate(130.18115 165.199212) rotate(-293.523066) scale(0.09 -0.09)">
      <use xlink:href="#DejaVuSans-36"/>
      <use xlink:href="#DejaVuSans-39" transform="translate(63.623047 0)"/>
      <use xlink:href="#DejaVuSans-2e" transform="translate(127.246094 0)"/>
      <use xlink:href="#DejaVuSans-30" transform="translate(159.033203 0)"/>
     </g>
    </g>
   </g>
   <g id="text_39">
    <g clip-path="url(#p445b5d8b58)">
     <!-- 69.0 -->
     <g transform="translate(192.522604 227.451048) rotate(-35.958716) scale(0.09 -0.09)">
      <use xlink:href="#DejaVuSans-36"/>
      <use xlink:href="#DejaVuSans-39" transform="translate(63.623047 0)"/>
      <use xlink:href="#DejaVuSans-2e" transform="translate(127.246094 0)"/>
      <use xlink:href="#DejaVuSans-30" transform="translate(159.033203 0)"/>
     </g>
    </g>
   </g>
   <g id="text_40">
    <g clip-path="url(#p445b5d8b58)">
     <!-- 70.0 -->
     <g transform="translate(111.307755 46.57617) rotate(-85.08744) scale(0.09 -0.09)">
      <use xlink:href="#DejaVuSans-37"/>
      <use xlink:href="#DejaVuSans-30" transform="translate(63.623047 0)"/>
      <use xlink:href="#DejaVuSans-2e" transform="translate(127.246094 0)"/>
      <use xlink:href="#DejaVuSans-30" transform="translate(159.033203 0)"/>
     </g>
    </g>
   </g>
   <g id="text_41">
    <g clip-path="url(#p445b5d8b58)">
     <!-- 71.0 -->
     <g transform="translate(148.222254 39.185764) rotate(-358.756149) scale(0.09 -0.09)">
      <use xlink:href="#DejaVuSans-37"/>
      <use xlink:href="#DejaVuSans-31" transform="translate(63.623047 0)"/>
      <use xlink:href="#DejaVuSans-2e" transform="translate(127.246094 0)"/>
      <use xlink:href="#DejaVuSans-30" transform="translate(159.033203 0)"/>
     </g>
    </g>
   </g>
   <g id="text_42">
    <g clip-path="url(#p445b5d8b58)">
     <!-- 71.0 -->
     <g transform="translate(195.94157 47.530538) rotate(-358.568889) scale(0.09 -0.09)">
      <use xlink:href="#DejaVuSans-37"/>
      <use xlink:href="#DejaVuSans-31" transform="translate(63.623047 0)"/>
      <use xlink:href="#DejaVuSans-2e" transform="translate(127.246094 0)"/>
      <use xlink:href="#DejaVuSans-30" transform="translate(159.033203 0)"/>
     </g>
    </g>
   </g>
   <g id="text_43">
    <g clip-path="url(#p445b5d8b58)">
     <!-- 71.0 -->
     <g transform="translate(240.855753 181.551283) rotate(-280.420171) scale(0.09 -0.09)">
      <use xlink:href="#DejaVuSans-37"/>
      <use xlink:href="#DejaVuSans-31" transform="translate(63.623047 0)"/>
      <use xlink:href="#DejaVuSans-2e" transform="translate(127.246094 0)"/>
      <use xlink:href="#DejaVuSans-30" transform="translate(159.033203 0)"/>
     </g>
    </g>
   </g>
   <g id="text_44">
    <g clip-path="url(#p445b5d8b58)">
     <!-- 72.0 -->
     <g transform="translate(239.524827 163.61916) rotate(-54.590629) scale(0.09 -0.09)">
      <use xlink:href="#DejaVuSans-37"/>
      <use xlink:href="#DejaVuSans-32" transform="translate(63.623047 0)"/>
      <use xlink:href="#DejaVuSans-2e" transform="translate(127.246094 0)"/>
      <use xlink:href="#DejaVuSans-30" transform="translate(159.033203 0)"/>
     </g>
    </g>
   </g>
   <g id="text_45">
    <g clip-path="url(#p445b5d8b58)">
     <!-- 73.0 -->
     <g transform="translate(243.763388 67.119703) rotate(-0.813146) scale(0.09 -0.09)">
      <use xlink:href="#DejaVuSans-37"/>
      <use xlink:href="#DejaVuSans-33" transform="translate(63.623047 0)"/>
      <use xlink:href="#DejaVuSans-2e" transform="translate(127.246094 0)"/>
      <use xlink:href="#DejaVuSans-30" transform="translate(159.033203 0)"/>
     </g>
    </g>
   </g>
   <g id="text_46">
    <g clip-path="url(#p445b5d8b58)">
     <!-- 73.0 -->
     <g transform="translate(198.174545 177.009785) rotate(-26.613409) scale(0.09 -0.09)">
      <use xlink:href="#DejaVuSans-37"/>
      <use xlink:href="#DejaVuSans-33" transform="translate(63.623047 0)"/>
      <use xlink:href="#DejaVuSans-2e" transform="translate(127.246094 0)"/>
      <use xlink:href="#DejaVuSans-30" transform="translate(159.033203 0)"/>
     </g>
    </g>
   </g>
   <g id="text_47">
    <g clip-path="url(#p445b5d8b58)">
     <!-- 74.0 -->
     <g transform="translate(196.485781 163.795388) rotate(-8.618752) scale(0.09 -0.09)">
      <use xlink:href="#DejaVuSans-37"/>
      <use xlink:href="#DejaVuSans-34" transform="translate(63.623047 0)"/>
      <use xlink:href="#DejaVuSans-2e" transform="translate(127.246094 0)"/>
      <use xlink:href="#DejaVuSans-30" transform="translate(159.033203 0)"/>
     </g>
    </g>
   </g>
  </g>
 </g>
 <defs>
  <clipPath id="p445b5d8b58">
   <rect x="62.84" y="26.88" width="286.36" height="213.4"/>
  </clipPath>
 </defs>
</svg>
