<?xml version="1.0" encoding="utf-8" standalone="no"?>
<!DOCTYPE svg PUBLIC "-//W3C//DTD SVG 1.1//EN"
  "http://www.w3.org/Graphics/SVG/1.1/DTD/svg11.dtd">
<svg xmlns:xlink="http://www.w3.org/1999/xlink" width="360pt" height="288pt" viewBox="0 0 360 288" xmlns="http://www.w3.org/2000/svg" version="1.1">
 <metadata>
  <rdf:RDF xmlns:dc="http://purl.org/dc/elements/1.1/" xmlns:cc="http://creativecommons.org/ns#" xmlns:rdf="http://www.w3.org/1999/02/22-rdf-syntax-ns#">
   <cc:Work>
    <dc:type rdf:resource="http://purl.org/dc/dcmitype/StillImage"/>
    <dc:date>2025-10-02T17:14:34.445099</dc:date>
    <dc:format>image/svg+xml</dc:format>
    <dc:creator>
     <cc:Agent>
      <dc:title>Matplotlib v3.10.6, https://matplotlib.org/</dc:title>
     </cc:Agent>
    </dc:creator>
   </cc:Work>
  </rdf:RDF>
 </metadata>
 <defs>
  <style type="text/css">*{stroke-linejoin: round; stroke-linecap: butt}</style>
 </defs>
 <g id="figure_1">
  <g id="patch_1">
   <path d="M 0 288 
L 360 288 
L 360 0 
L 0 0 
z
" style="fill: #ffffff"/>
  </g>
  <g id="axes_1">
   <g id="patch_2">
    <path d="M 62.84 240.28 
L 349.2 240.28 
L 349.2 26.88 
L 62.84 26.88 
z
" style="fill: #ffffff"/>
   </g>
   <g id="QuadContourSet_1">
    <path d="M 86.703333 26.88 
L 88.012619 26.88 
L 87.981483 36.380776 
L 88.086901 47.600163 
L 87.94032 60.808896 
L 88.087989 76.198006 
L 87.986961 93.757994 
L 88.122778 113.137869 
L 88.147181 133.590571 
L 88.18554 154.013971 
L 88.044297 173.39493 
L 88.401974 190.956403 
L 88.377467 206.347113 
L 88.24047 219.557363 
L 89.089444 230.778089 
L 89.133994 240.28 
L 86.703333 240.28 
L 62.84 240.28 
L 62.84 230.778089 
L 62.84 219.557363 
L 62.84 206.347113 
L 62.84 190.956403 
L 62.84 173.39493 
L 62.84 154.013971 
L 62.84 133.590571 
L 62.84 113.137869 
L 62.84 93.757994 
L 62.84 76.198006 
L 62.84 60.808896 
L 62.84 47.600163 
L 62.84 36.380776 
L 62.84 26.88 
z
M 325.336667 26.88 
L 349.2 26.88 
L 349.2 36.380776 
L 349.2 47.600163 
L 349.2 60.808896 
L 349.2 76.198006 
L 349.2 93.757994 
L 349.2 113.137869 
L 349.2 133.590571 
L 349.2 154.013971 
L 349.2 173.39493 
L 349.2 190.956403 
L 349.2 206.347113 
L 349.2 219.557363 
L 349.2 230.778089 
L 349.2 240.28 
L 325.336667 240.28 
L 323.983365 240.28 
L 324.05883 230.778089 
L 324.072542 219.557363 
L 324.068664 206.347113 
L 324.163153 190.956403 
L 324.205388 173.39493 
L 324.264273 154.013971 
L 324.213112 133.590571 
L 324.263722 113.137869 
L 324.275565 93.757994 
L 324.353716 76.198006 
L 324.295991 60.808896 
L 324.145551 47.600163 
L 324.23621 36.380776 
L 324.326792 26.88 
z
" clip-path="url(#p5f12348f2c)" style="fill: #460a5d"/>
    <path d="M 89.654604 36.380776 
L 89.898016 47.600163 
L 89.559558 60.808896 
L 89.900528 76.198006 
L 89.667252 93.757994 
L 89.980855 113.137869 
L 90.037203 133.590571 
L 90.125775 154.013971 
L 89.799642 173.39493 
L 90.625525 190.956403 
L 90.568938 206.347113 
L 90.252608 219.557363 
L 92.212904 230.778089 
L 92.315772 240.28 
L 89.133994 240.28 
L 89.089444 230.778089 
L 88.24047 219.557363 
L 88.377467 206.347113 
L 88.401974 190.956403 
L 88.044297 173.39493 
L 88.18554 154.013971 
L 88.147181 133.590571 
L 88.122778 113.137869 
L 87.986961 93.757994 
L 88.087989 76.198006 
L 87.94032 60.808896 
L 88.086901 47.600163 
L 87.981483 36.380776 
L 88.012619 26.88 
L 89.726498 26.88 
z
M 324.23621 36.380776 
L 324.145551 47.600163 
L 324.295991 60.808896 
L 324.353716 76.198006 
L 324.275565 93.757994 
L 324.263722 113.137869 
L 324.213112 133.590571 
L 324.264273 154.013971 
L 324.205388 173.39493 
L 324.163153 190.956403 
L 324.068664 206.347113 
L 324.072542 219.557363 
L 324.05883 230.778089 
L 323.983365 240.28 
L 322.21187 240.28 
L 322.38612 230.778089 
L 322.417781 219.557363 
L 322.408827 206.347113 
L 322.627002 190.956403 
L 322.724524 173.39493 
L 322.860491 154.013971 
L 322.742359 133.590571 
L 322.859219 113.137869 
L 322.886565 93.757994 
L 323.067016 76.198006 
L 322.933729 60.808896 
L 322.58636 47.600163 
L 322.795694 36.380776 
L 323.004849 26.88 
L 324.326792 26.88 
z
" clip-path="url(#p5f12348f2c)" style="fill: #481b6d"/>
    <path d="M 91.327725 36.380776 
L 91.709131 47.600163 
L 91.178796 60.808896 
L 91.713066 76.198006 
L 91.347543 93.757994 
L 91.838933 113.137869 
L 91.927225 133.590571 
L 92.06601 154.013971 
L 91.554987 173.39493 
L 92.849076 190.956403 
L 92.760408 206.347113 
L 92.264747 219.557363 
L 95.336364 230.778089 
L 95.49755 240.28 
L 92.315772 240.28 
L 92.212904 230.778089 
L 90.252608 219.557363 
L 90.568938 206.347113 
L 90.625525 190.956403 
L 89.799642 173.39493 
L 90.125775 154.013971 
L 90.037203 133.590571 
L 89.980855 113.137869 
L 89.667252 93.757994 
L 89.900528 76.198006 
L 89.559558 60.808896 
L 89.898016 47.600163 
L 89.654604 36.380776 
L 89.726498 26.88 
L 91.440376 26.88 
z
M 322.795694 36.380776 
L 322.58636 47.600163 
L 322.933729 60.808896 
L 323.067016 76.198006 
L 322.886565 93.757994 
L 322.859219 113.137869 
L 322.742359 133.590571 
L 322.860491 154.013971 
L 322.724524 173.39493 
L 322.627002 190.956403 
L 322.408827 206.347113 
L 322.417781 219.557363 
L 322.38612 230.778089 
L 322.21187 240.28 
L 320.440375 240.28 
L 320.71341 230.778089 
L 320.76302 219.557363 
L 320.748989 206.347113 
L 321.090852 190.956403 
L 321.243661 173.39493 
L 321.456708 154.013971 
L 321.271605 133.590571 
L 321.454717 113.137869 
L 321.497565 93.757994 
L 321.780316 76.198006 
L 321.571466 60.808896 
L 321.027168 47.600163 
L 321.355177 36.380776 
L 321.682906 26.88 
L 323.004849 26.88 
z
" clip-path="url(#p5f12348f2c)" style="fill: #472a7a"/>
    <path d="M 93.000846 36.380776 
L 93.520245 47.600163 
L 92.798034 60.808896 
L 93.525605 76.198006 
L 93.027834 93.757994 
L 93.69701 113.137869 
L 93.817246 133.590571 
L 94.006245 154.013971 
L 93.310332 173.39493 
L 95.072627 190.956403 
L 94.951878 206.347113 
L 94.276885 219.557363 
L 98.459824 230.778089 
L 98.679328 240.28 
L 95.49755 240.28 
L 95.336364 230.778089 
L 92.264747 219.557363 
L 92.760408 206.347113 
L 92.849076 190.956403 
L 91.554987 173.39493 
L 92.06601 154.013971 
L 91.927225 133.590571 
L 91.838933 113.137869 
L 91.347543 93.757994 
L 91.713066 76.198006 
L 91.178796 60.808896 
L 91.709131 47.600163 
L 91.327725 36.380776 
L 91.440376 26.88 
L 93.154254 26.88 
z
M 321.355177 36.380776 
L 321.027168 47.600163 
L 321.571466 60.808896 
L 321.780316 76.198006 
L 321.497565 93.757994 
L 321.454717 113.137869 
L 321.271605 133.590571 
L 321.456708 154.013971 
L 321.243661 173.39493 
L 321.090852 190.956403 
L 320.748989 206.347113 
L 320.76302 219.557363 
L 320.71341 230.778089 
L 320.440375 240.28 
L 318.668879 240.28 
L 319.0407 230.778089 
L 319.108259 219.557363 
L 319.089152 206.347113 
L 319.554702 190.956403 
L 319.762797 173.39493 
L 320.052926 154.013971 
L 319.800852 133.590571 
L 320.050214 113.137869 
L 320.108565 93.757994 
L 320.493616 76.198006 
L 320.209204 60.808896 
L 319.467977 47.600163 
L 319.914661 36.380776 
L 320.360962 26.88 
L 321.682906 26.88 
z
" clip-path="url(#p5f12348f2c)" style="fill: #443983"/>
    <path d="M 94.673967 36.380776 
L 95.33136 47.600163 
L 94.417272 60.808896 
L 95.338144 76.198006 
L 94.708125 93.757994 
L 95.555088 113.137869 
L 95.707268 133.590571 
L 95.946481 154.013971 
L 95.065676 173.39493 
L 97.296178 190.956403 
L 97.143349 206.347113 
L 96.289024 219.557363 
L 101.583284 230.778089 
L 101.861105 240.28 
L 98.679328 240.28 
L 98.459824 230.778089 
L 94.276885 219.557363 
L 94.951878 206.347113 
L 95.072627 190.956403 
L 93.310332 173.39493 
L 94.006245 154.013971 
L 93.817246 133.590571 
L 93.69701 113.137869 
L 93.027834 93.757994 
L 93.525605 76.198006 
L 92.798034 60.808896 
L 93.520245 47.600163 
L 93.000846 36.380776 
L 93.154254 26.88 
L 94.868133 26.88 
z
M 319.914661 36.380776 
L 319.467977 47.600163 
L 320.209204 60.808896 
L 320.493616 76.198006 
L 320.108565 93.757994 
L 320.050214 113.137869 
L 319.800852 133.590571 
L 320.052926 154.013971 
L 319.762797 173.39493 
L 319.554702 190.956403 
L 319.089152 206.347113 
L 319.108259 219.557363 
L 319.0407 230.778089 
L 318.668879 240.28 
L 316.897384 240.28 
L 317.36799 230.778089 
L 317.453498 219.557363 
L 317.429314 206.347113 
L 318.018551 190.956403 
L 318.281934 173.39493 
L 318.649144 154.013971 
L 318.330099 133.590571 
L 318.645711 113.137869 
L 318.719565 93.757994 
L 319.206916 76.198006 
L 318.846942 60.808896 
L 317.908786 47.600163 
L 318.474144 36.380776 
L 319.039019 26.88 
L 320.360962 26.88 
z
" clip-path="url(#p5f12348f2c)" style="fill: #3f4788"/>
    <path d="M 96.347087 36.380776 
L 97.142474 47.600163 
L 96.03651 60.808896 
L 97.150682 76.198006 
L 96.388416 93.757994 
L 97.413165 113.137869 
L 97.59729 133.590571 
L 97.886716 154.013971 
L 96.821021 173.39493 
L 99.519729 190.956403 
L 99.334819 206.347113 
L 98.301162 219.557363 
L 104.706744 230.778089 
L 105.042883 240.28 
L 101.861105 240.28 
L 101.583284 230.778089 
L 96.289024 219.557363 
L 97.143349 206.347113 
L 97.296178 190.956403 
L 95.065676 173.39493 
L 95.946481 154.013971 
L 95.707268 133.590571 
L 95.555088 113.137869 
L 94.708125 93.757994 
L 95.338144 76.198006 
L 94.417272 60.808896 
L 95.33136 47.600163 
L 94.673967 36.380776 
L 94.868133 26.88 
L 96.582011 26.88 
z
M 318.474144 36.380776 
L 317.908786 47.600163 
L 318.846942 60.808896 
L 319.206916 76.198006 
L 318.719565 93.757994 
L 318.645711 113.137869 
L 318.330099 133.590571 
L 318.649144 154.013971 
L 318.281934 173.39493 
L 318.018551 190.956403 
L 317.429314 206.347113 
L 317.453498 219.557363 
L 317.36799 230.778089 
L 316.897384 240.28 
L 315.125889 240.28 
L 315.69528 230.778089 
L 315.798737 219.557363 
L 315.769477 206.347113 
L 316.482401 190.956403 
L 316.80107 173.39493 
L 317.245361 154.013971 
L 316.859346 133.590571 
L 317.241208 113.137869 
L 317.330564 93.757994 
L 317.920216 76.198006 
L 317.484679 60.808896 
L 316.349594 47.600163 
L 317.033627 36.380776 
L 317.717076 26.88 
L 319.039019 26.88 
z
" clip-path="url(#p5f12348f2c)" style="fill: #39558c"/>
    <path d="M 98.020208 36.380776 
L 98.953589 47.600163 
L 97.655748 60.808896 
L 98.963221 76.198006 
L 98.068707 93.757994 
L 99.271243 113.137869 
L 99.487312 133.590571 
L 99.826951 154.013971 
L 98.576366 173.39493 
L 101.74328 190.956403 
L 101.52629 206.347113 
L 100.313301 219.557363 
L 107.830204 230.778089 
L 108.224661 240.28 
L 105.042883 240.28 
L 104.706744 230.778089 
L 98.301162 219.557363 
L 99.334819 206.347113 
L 99.519729 190.956403 
L 96.821021 173.39493 
L 97.886716 154.013971 
L 97.59729 133.590571 
L 97.413165 113.137869 
L 96.388416 93.757994 
L 97.150682 76.198006 
L 96.03651 60.808896 
L 97.142474 47.600163 
L 96.347087 36.380776 
L 96.582011 26.88 
L 98.29589 26.88 
z
M 317.033627 36.380776 
L 316.349594 47.600163 
L 317.484679 60.808896 
L 317.920216 76.198006 
L 317.330564 93.757994 
L 317.241208 113.137869 
L 316.859346 133.590571 
L 317.245361 154.013971 
L 316.80107 173.39493 
L 316.482401 190.956403 
L 315.769477 206.347113 
L 315.798737 219.557363 
L 315.69528 230.778089 
L 315.125889 240.28 
L 313.354393 240.28 
L 314.022569 230.778089 
L 314.143976 219.557363 
L 314.109639 206.347113 
L 314.94625 190.956403 
L 315.320207 173.39493 
L 315.841579 154.013971 
L 315.388593 133.590571 
L 315.836705 113.137869 
L 315.941564 93.757994 
L 316.633516 76.198006 
L 316.122417 60.808896 
L 314.790403 47.600163 
L 315.593111 36.380776 
L 316.395132 26.88 
L 317.717076 26.88 
z
" clip-path="url(#p5f12348f2c)" style="fill: #33628d"/>
    <path d="M 99.693329 36.380776 
L 100.764704 47.600163 
L 99.274986 60.808896 
L 100.77576 76.198006 
L 99.748997 93.757994 
L 101.129321 113.137869 
L 101.377334 133.590571 
L 101.767186 154.013971 
L 100.331711 173.39493 
L 103.966831 190.956403 
L 103.71776 206.347113 
L 102.325439 219.557363 
L 110.566667 230.448618 
L 112.197935 230.778089 
L 118.336675 240.28 
L 110.566667 240.28 
L 108.224661 240.28 
L 107.830204 230.778089 
L 100.313301 219.557363 
L 101.52629 206.347113 
L 101.74328 190.956403 
L 98.576366 173.39493 
L 99.826951 154.013971 
L 99.487312 133.590571 
L 99.271243 113.137869 
L 98.068707 93.757994 
L 98.963221 76.198006 
L 97.655748 60.808896 
L 98.953589 47.600163 
L 98.020208 36.380776 
L 98.29589 26.88 
L 100.009768 26.88 
z
M 315.593111 36.380776 
L 314.790403 47.600163 
L 316.122417 60.808896 
L 316.633516 76.198006 
L 315.941564 93.757994 
L 315.836705 113.137869 
L 315.388593 133.590571 
L 315.841579 154.013971 
L 315.320207 173.39493 
L 314.94625 190.956403 
L 314.109639 206.347113 
L 314.143976 219.557363 
L 314.022569 230.778089 
L 313.354393 240.28 
L 311.582898 240.28 
L 312.349859 230.778089 
L 312.489214 219.557363 
L 312.449802 206.347113 
L 313.4101 190.956403 
L 313.839343 173.39493 
L 314.437797 154.013971 
L 313.91784 133.590571 
L 314.432202 113.137869 
L 314.552564 93.757994 
L 315.346816 76.198006 
L 314.760154 60.808896 
L 313.231212 47.600163 
L 314.152594 36.380776 
L 315.073189 26.88 
L 316.395132 26.88 
z
" clip-path="url(#p5f12348f2c)" style="fill: #2e6e8e"/>
    <path d="M 101.36645 36.380776 
L 102.575818 47.600163 
L 100.894224 60.808896 
L 102.588298 76.198006 
L 101.429288 93.757994 
L 102.987398 113.137869 
L 103.267355 133.590571 
L 103.707421 154.013971 
L 102.087056 173.39493 
L 106.190382 190.956403 
L 105.909231 206.347113 
L 104.337577 219.557363 
L 110.566667 227.789462 
L 125.363905 230.778089 
L 134.43 236.507819 
L 138.963913 240.28 
L 134.43 240.28 
L 118.336675 240.28 
L 112.197935 230.778089 
L 110.566667 230.448618 
L 102.325439 219.557363 
L 103.71776 206.347113 
L 103.966831 190.956403 
L 100.331711 173.39493 
L 101.767186 154.013971 
L 101.377334 133.590571 
L 101.129321 113.137869 
L 99.748997 93.757994 
L 100.77576 76.198006 
L 99.274986 60.808896 
L 100.764704 47.600163 
L 99.693329 36.380776 
L 100.009768 26.88 
L 101.723646 26.88 
z
M 314.152594 36.380776 
L 313.231212 47.600163 
L 314.760154 60.808896 
L 315.346816 76.198006 
L 314.552564 93.757994 
L 314.432202 113.137869 
L 313.91784 133.590571 
L 314.437797 154.013971 
L 313.839343 173.39493 
L 313.4101 190.956403 
L 312.449802 206.347113 
L 312.489214 219.557363 
L 312.349859 230.778089 
L 311.582898 240.28 
L 309.811403 240.28 
L 310.677149 230.778089 
L 310.834453 219.557363 
L 310.789964 206.347113 
L 311.87395 190.956403 
L 312.358479 173.39493 
L 313.034014 154.013971 
L 312.447086 133.590571 
L 313.027699 113.137869 
L 313.163564 93.757994 
L 314.060117 76.198006 
L 313.397892 60.808896 
L 311.67202 47.600163 
L 312.712077 36.380776 
L 313.751246 26.88 
L 315.073189 26.88 
z
" clip-path="url(#p5f12348f2c)" style="fill: #29798e"/>
    <path d="M 103.039571 36.380776 
L 104.386933 47.600163 
L 102.513462 60.808896 
L 104.400837 76.198006 
L 103.109579 93.757994 
L 104.845476 113.137869 
L 105.157377 133.590571 
L 105.647656 154.013971 
L 103.842401 173.39493 
L 108.413933 190.956403 
L 108.100701 206.347113 
L 106.349716 219.557363 
L 110.566667 225.130305 
L 134.43 229.556774 
L 137.127004 230.778089 
L 148.965004 240.28 
L 138.963913 240.28 
L 134.43 236.507819 
L 125.363905 230.778089 
L 110.566667 227.789462 
L 104.337577 219.557363 
L 105.909231 206.347113 
L 106.190382 190.956403 
L 102.087056 173.39493 
L 103.707421 154.013971 
L 103.267355 133.590571 
L 102.987398 113.137869 
L 101.429288 93.757994 
L 102.588298 76.198006 
L 100.894224 60.808896 
L 102.575818 47.600163 
L 101.36645 36.380776 
L 101.723646 26.88 
L 103.437525 26.88 
z
M 312.712077 36.380776 
L 311.67202 47.600163 
L 313.397892 60.808896 
L 314.060117 76.198006 
L 313.163564 93.757994 
L 313.027699 113.137869 
L 312.447086 133.590571 
L 313.034014 154.013971 
L 312.358479 173.39493 
L 311.87395 190.956403 
L 310.789964 206.347113 
L 310.834453 219.557363 
L 310.677149 230.778089 
L 309.811403 240.28 
L 308.039907 240.28 
L 309.004439 230.778089 
L 309.179692 219.557363 
L 309.130127 206.347113 
L 310.337799 190.956403 
L 310.877616 173.39493 
L 311.630232 154.013971 
L 310.976333 133.590571 
L 311.623196 113.137869 
L 311.774564 93.757994 
L 312.773417 76.198006 
L 312.03563 60.808896 
L 310.112829 47.600163 
L 311.271561 36.380776 
L 312.429303 26.88 
L 313.751246 26.88 
z
" clip-path="url(#p5f12348f2c)" style="fill: #25848e"/>
    <path d="M 104.712692 36.380776 
L 106.198048 47.600163 
L 104.132699 60.808896 
L 106.213376 76.198006 
L 104.78987 93.757994 
L 106.703553 113.137869 
L 107.047399 133.590571 
L 107.587891 154.013971 
L 105.597746 173.39493 
L 110.566667 190.761015 
L 111.126104 190.956403 
L 110.566667 194.076466 
L 110.292172 206.347113 
L 108.361854 219.557363 
L 110.566667 222.471149 
L 134.43 225.634753 
L 145.787921 230.778089 
L 158.293333 239.857025 
L 163.880996 240.28 
L 158.293333 240.28 
L 148.965004 240.28 
L 137.127004 230.778089 
L 134.43 229.556774 
L 110.566667 225.130305 
L 106.349716 219.557363 
L 108.100701 206.347113 
L 108.413933 190.956403 
L 103.842401 173.39493 
L 105.647656 154.013971 
L 105.157377 133.590571 
L 104.845476 113.137869 
L 103.109579 93.757994 
L 104.400837 76.198006 
L 102.513462 60.808896 
L 104.386933 47.600163 
L 103.039571 36.380776 
L 103.437525 26.88 
L 105.151403 26.88 
z
M 311.271561 36.380776 
L 310.112829 47.600163 
L 312.03563 60.808896 
L 312.773417 76.198006 
L 311.774564 93.757994 
L 311.623196 113.137869 
L 310.976333 133.590571 
L 311.630232 154.013971 
L 310.877616 173.39493 
L 310.337799 190.956403 
L 309.130127 206.347113 
L 309.179692 219.557363 
L 309.004439 230.778089 
L 308.039907 240.28 
L 306.268412 240.28 
L 307.331729 230.778089 
L 307.524931 219.557363 
L 307.47029 206.347113 
L 308.801649 190.956403 
L 309.396752 173.39493 
L 310.226449 154.013971 
L 309.50558 133.590571 
L 310.218693 113.137869 
L 310.385563 93.757994 
L 311.486717 76.198006 
L 310.673367 60.808896 
L 308.553637 47.600163 
L 309.831044 36.380776 
L 311.107359 26.88 
L 312.429303 26.88 
z
" clip-path="url(#p5f12348f2c)" style="fill: #21908d"/>
    <path d="M 106.385812 36.380776 
L 108.009162 47.600163 
L 105.751937 60.808896 
L 108.025915 76.198006 
L 106.470161 93.757994 
L 108.561631 113.137869 
L 108.937421 133.590571 
L 109.528126 154.013971 
L 107.353091 173.39493 
L 110.566667 184.626188 
L 128.691448 190.956403 
L 134.43 196.045597 
L 139.112224 206.347113 
L 134.43 213.561788 
L 110.566667 218.253955 
L 110.373993 219.557363 
L 110.566667 219.811992 
L 134.43 221.712732 
L 154.448838 230.778089 
L 158.293333 233.569195 
L 182.156667 235.335521 
L 195.338119 240.28 
L 182.156667 240.28 
L 163.880996 240.28 
L 158.293333 239.857025 
L 145.787921 230.778089 
L 134.43 225.634753 
L 110.566667 222.471149 
L 108.361854 219.557363 
L 110.292172 206.347113 
L 110.566667 194.076466 
L 111.126104 190.956403 
L 110.566667 190.761015 
L 105.597746 173.39493 
L 107.587891 154.013971 
L 107.047399 133.590571 
L 106.703553 113.137869 
L 104.78987 93.757994 
L 106.213376 76.198006 
L 104.132699 60.808896 
L 106.198048 47.600163 
L 104.712692 36.380776 
L 105.151403 26.88 
L 106.865281 26.88 
z
M 309.831044 36.380776 
L 308.553637 47.600163 
L 310.673367 60.808896 
L 311.486717 76.198006 
L 310.385563 93.757994 
L 310.218693 113.137869 
L 309.50558 133.590571 
L 310.226449 154.013971 
L 309.396752 173.39493 
L 308.801649 190.956403 
L 307.47029 206.347113 
L 307.524931 219.557363 
L 307.331729 230.778089 
L 306.268412 240.28 
L 304.496917 240.28 
L 305.659019 230.778089 
L 305.87017 219.557363 
L 305.810452 206.347113 
L 307.265498 190.956403 
L 307.915889 173.39493 
L 308.822667 154.013971 
L 308.034827 133.590571 
L 308.81419 113.137869 
L 308.996563 93.757994 
L 310.200017 76.198006 
L 309.311105 60.808896 
L 306.994446 47.600163 
L 308.390528 36.380776 
L 309.785416 26.88 
L 311.107359 26.88 
z
" clip-path="url(#p5f12348f2c)" style="fill: #1e9c89"/>
    <path d="M 108.058933 36.380776 
L 109.820277 47.600163 
L 107.371175 60.808896 
L 109.838453 76.198006 
L 108.150452 93.757994 
L 110.419708 113.137869 
L 110.566667 120.590122 
L 134.43 128.587543 
L 136.99975 133.590571 
L 138.615615 154.013971 
L 134.43 163.031563 
L 110.566667 160.966649 
L 109.108436 173.39493 
L 110.566667 178.491362 
L 134.43 183.678707 
L 139.132011 190.956403 
L 146.19257 206.347113 
L 140.308918 219.557363 
L 158.293333 227.551772 
L 182.156667 228.358862 
L 206.02 229.429679 
L 229.883333 225.311209 
L 238.583661 230.778089 
L 244.861354 240.28 
L 229.883333 240.28 
L 206.02 240.28 
L 195.338119 240.28 
L 182.156667 235.335521 
L 158.293333 233.569195 
L 154.448838 230.778089 
L 134.43 221.712732 
L 110.566667 219.811992 
L 110.373993 219.557363 
L 110.566667 218.253955 
L 134.43 213.561788 
L 139.112224 206.347113 
L 134.43 196.045597 
L 128.691448 190.956403 
L 110.566667 184.626188 
L 107.353091 173.39493 
L 109.528126 154.013971 
L 108.937421 133.590571 
L 108.561631 113.137869 
L 106.470161 93.757994 
L 108.025915 76.198006 
L 105.751937 60.808896 
L 108.009162 47.600163 
L 106.385812 36.380776 
L 106.865281 26.88 
L 108.57916 26.88 
z
M 308.390528 36.380776 
L 306.994446 47.600163 
L 309.311105 60.808896 
L 310.200017 76.198006 
L 308.996563 93.757994 
L 308.81419 113.137869 
L 308.034827 133.590571 
L 308.822667 154.013971 
L 307.915889 173.39493 
L 307.265498 190.956403 
L 305.810452 206.347113 
L 305.87017 219.557363 
L 305.659019 230.778089 
L 304.496917 240.28 
L 302.725421 240.28 
L 303.986309 230.778089 
L 304.215409 219.557363 
L 304.150615 206.347113 
L 305.729348 190.956403 
L 306.435025 173.39493 
L 307.418885 154.013971 
L 306.564074 133.590571 
L 307.409687 113.137869 
L 307.607563 93.757994 
L 308.913317 76.198006 
L 307.948842 60.808896 
L 305.435255 47.600163 
L 306.950011 36.380776 
L 308.463473 26.88 
L 309.785416 26.88 
z
" clip-path="url(#p5f12348f2c)" style="fill: #22a785"/>
    <path d="M 109.732054 36.380776 
L 110.566667 41.530799 
L 117.878041 47.600163 
L 110.566667 52.57359 
L 108.990413 60.808896 
L 110.566667 70.340416 
L 131.263389 76.198006 
L 110.566667 86.335928 
L 109.830743 93.757994 
L 110.566667 100.004215 
L 129.667969 113.137869 
L 134.43 116.022605 
L 143.453591 133.590571 
L 143.67154 154.013971 
L 134.806151 173.39493 
L 146.115515 190.956403 
L 153.272916 206.347113 
L 153.360296 219.557363 
L 158.293333 221.75019 
L 182.156667 219.75176 
L 206.02 222.829883 
L 220.230207 219.557363 
L 219.848248 206.347113 
L 229.883333 202.942217 
L 233.575374 206.347113 
L 236.71527 219.557363 
L 252.391758 230.778089 
L 253.746667 232.53108 
L 260.444917 230.778089 
L 266.825902 219.557363 
L 272.872312 206.347113 
L 277.61 202.009348 
L 286.856449 206.347113 
L 289.853524 219.557363 
L 285.570489 230.778089 
L 301.473333 236.777994 
L 302.313598 230.778089 
L 302.560648 219.557363 
L 302.490777 206.347113 
L 304.193198 190.956403 
L 304.954161 173.39493 
L 306.015102 154.013971 
L 305.09332 133.590571 
L 306.005184 113.137869 
L 306.218563 93.757994 
L 307.626617 76.198006 
L 306.58658 60.808896 
L 303.876063 47.600163 
L 305.509494 36.380776 
L 307.141529 26.88 
L 308.463473 26.88 
L 306.950011 36.380776 
L 305.435255 47.600163 
L 307.948842 60.808896 
L 308.913317 76.198006 
L 307.607563 93.757994 
L 307.409687 113.137869 
L 306.564074 133.590571 
L 307.418885 154.013971 
L 306.435025 173.39493 
L 305.729348 190.956403 
L 304.150615 206.347113 
L 304.215409 219.557363 
L 303.986309 230.778089 
L 302.725421 240.28 
L 301.473333 240.28 
L 277.61 240.28 
L 253.746667 240.28 
L 244.861354 240.28 
L 238.583661 230.778089 
L 229.883333 225.311209 
L 206.02 229.429679 
L 182.156667 228.358862 
L 158.293333 227.551772 
L 140.308918 219.557363 
L 146.19257 206.347113 
L 139.132011 190.956403 
L 134.43 183.678707 
L 110.566667 178.491362 
L 109.108436 173.39493 
L 110.566667 160.966649 
L 134.43 163.031563 
L 138.615615 154.013971 
L 136.99975 133.590571 
L 134.43 128.587543 
L 110.566667 120.590122 
L 110.419708 113.137869 
L 108.150452 93.757994 
L 109.838453 76.198006 
L 107.371175 60.808896 
L 109.820277 47.600163 
L 108.058933 36.380776 
L 108.57916 26.88 
L 110.293038 26.88 
z
M 182.156667 204.938186 
L 189.172958 206.347113 
L 182.156667 217.961967 
L 177.664567 206.347113 
z
" clip-path="url(#p5f12348f2c)" style="fill: #2db27d"/>
    <path d="M 110.566667 26.88 
L 122.763124 26.88 
L 122.299901 36.380776 
L 130.314809 47.600163 
L 111.027852 60.808896 
L 134.43 69.999601 
L 139.687461 76.198006 
L 135.124287 93.757994 
L 138.743813 113.137869 
L 149.907433 133.590571 
L 148.727464 154.013971 
L 142.547943 173.39493 
L 153.099018 190.956403 
L 158.293333 202.019706 
L 182.156667 196.369568 
L 206.02 198.946765 
L 229.883333 191.05839 
L 246.461401 206.347113 
L 253.746667 216.639242 
L 260.654276 206.347113 
L 277.451676 190.956403 
L 277.61 182.375743 
L 277.974546 190.956403 
L 301.473333 201.201487 
L 302.657047 190.956403 
L 303.473298 173.39493 
L 304.61132 154.013971 
L 303.622567 133.590571 
L 304.600681 113.137869 
L 304.829563 93.757994 
L 306.339917 76.198006 
L 305.224318 60.808896 
L 302.316872 47.600163 
L 304.068978 36.380776 
L 305.819586 26.88 
L 307.141529 26.88 
L 305.509494 36.380776 
L 303.876063 47.600163 
L 306.58658 60.808896 
L 307.626617 76.198006 
L 306.218563 93.757994 
L 306.005184 113.137869 
L 305.09332 133.590571 
L 306.015102 154.013971 
L 304.954161 173.39493 
L 304.193198 190.956403 
L 302.490777 206.347113 
L 302.560648 219.557363 
L 302.313598 230.778089 
L 301.473333 236.777994 
L 285.570489 230.778089 
L 289.853524 219.557363 
L 286.856449 206.347113 
L 277.61 202.009348 
L 272.872312 206.347113 
L 266.825902 219.557363 
L 260.444917 230.778089 
L 253.746667 232.53108 
L 252.391758 230.778089 
L 236.71527 219.557363 
L 233.575374 206.347113 
L 229.883333 202.942217 
L 219.848248 206.347113 
L 220.230207 219.557363 
L 206.02 222.829883 
L 182.156667 219.75176 
L 158.293333 221.75019 
L 153.360296 219.557363 
L 153.272916 206.347113 
L 146.115515 190.956403 
L 134.806151 173.39493 
L 143.67154 154.013971 
L 143.453591 133.590571 
L 134.43 116.022605 
L 129.667969 113.137869 
L 110.566667 100.004215 
L 109.830743 93.757994 
L 110.566667 86.335928 
L 131.263389 76.198006 
L 110.566667 70.340416 
L 108.990413 60.808896 
L 110.566667 52.57359 
L 117.878041 47.600163 
L 110.566667 41.530799 
L 109.732054 36.380776 
L 110.293038 26.88 
z
M 177.664567 206.347113 
L 182.156667 217.961967 
L 189.172958 206.347113 
L 182.156667 204.938186 
z
" clip-path="url(#p5f12348f2c)" style="fill: #3fbc73"/>
    <path d="M 134.43 26.88 
L 136.595221 26.88 
L 138.282513 36.380776 
L 141.059883 47.600163 
L 134.43 56.297828 
L 128.400918 60.808896 
L 134.43 63.176692 
L 145.474624 76.198006 
L 144.757212 93.757994 
L 144.343158 113.137869 
L 156.361274 133.590571 
L 153.783389 154.013971 
L 150.289735 173.39493 
L 158.293333 187.468637 
L 182.156667 187.347119 
L 206.02 186.515634 
L 229.883333 177.243523 
L 243.165249 190.956403 
L 253.746667 200.884065 
L 264.207481 190.956403 
L 269.970468 173.39493 
L 277.61 162.739332 
L 295.221567 173.39493 
L 301.473333 184.009291 
L 301.992434 173.39493 
L 303.207538 154.013971 
L 302.151814 133.590571 
L 303.196178 113.137869 
L 303.440562 93.757994 
L 305.053217 76.198006 
L 303.862055 60.808896 
L 301.473333 50.340371 
L 294.790906 47.600163 
L 301.473333 43.516025 
L 302.628461 36.380776 
L 304.497643 26.88 
L 305.819586 26.88 
L 304.068978 36.380776 
L 302.316872 47.600163 
L 305.224318 60.808896 
L 306.339917 76.198006 
L 304.829563 93.757994 
L 304.600681 113.137869 
L 303.622567 133.590571 
L 304.61132 154.013971 
L 303.473298 173.39493 
L 302.657047 190.956403 
L 301.473333 201.201487 
L 277.974546 190.956403 
L 277.61 182.375743 
L 277.451676 190.956403 
L 260.654276 206.347113 
L 253.746667 216.639242 
L 246.461401 206.347113 
L 229.883333 191.05839 
L 206.02 198.946765 
L 182.156667 196.369568 
L 158.293333 202.019706 
L 153.099018 190.956403 
L 142.547943 173.39493 
L 148.727464 154.013971 
L 149.907433 133.590571 
L 138.743813 113.137869 
L 135.124287 93.757994 
L 139.687461 76.198006 
L 134.43 69.999601 
L 111.027852 60.808896 
L 130.314809 47.600163 
L 122.299901 36.380776 
L 122.763124 26.88 
z
M 229.883333 130.18558 
L 233.585371 133.590571 
L 232.218564 154.013971 
L 229.883333 164.032662 
L 225.544456 154.013971 
L 222.116298 133.590571 
z
M 277.61 131.651713 
L 282.968245 133.590571 
L 277.61 136.486059 
L 276.321961 133.590571 
z
" clip-path="url(#p5f12348f2c)" style="fill: #56c667"/>
    <path d="M 146.277194 36.380776 
L 150.968379 47.600163 
L 139.245927 60.808896 
L 151.261787 76.198006 
L 154.390138 93.757994 
L 149.942503 113.137869 
L 158.293333 127.053309 
L 182.156667 133.232979 
L 206.02 132.541613 
L 229.883333 122.264943 
L 242.196994 133.590571 
L 240.061341 154.013971 
L 239.352761 173.39493 
L 253.746667 188.133158 
L 262.234141 173.39493 
L 275.251301 154.013971 
L 266.679231 133.590571 
L 277.61 117.136724 
L 301.473333 119.194987 
L 301.791675 113.137869 
L 302.051562 93.757994 
L 303.766517 76.198006 
L 302.499793 60.808896 
L 301.473333 56.310458 
L 280.231911 47.600163 
L 299.611459 36.380776 
L 301.473333 35.114026 
L 303.175699 26.88 
L 304.497643 26.88 
L 302.628461 36.380776 
L 301.473333 43.516025 
L 294.790906 47.600163 
L 301.473333 50.340371 
L 303.862055 60.808896 
L 305.053217 76.198006 
L 303.440562 93.757994 
L 303.196178 113.137869 
L 302.151814 133.590571 
L 303.207538 154.013971 
L 301.992434 173.39493 
L 301.473333 184.009291 
L 295.221567 173.39493 
L 277.61 162.739332 
L 269.970468 173.39493 
L 264.207481 190.956403 
L 253.746667 200.884065 
L 243.165249 190.956403 
L 229.883333 177.243523 
L 206.02 186.515634 
L 182.156667 187.347119 
L 158.293333 187.468637 
L 150.289735 173.39493 
L 153.783389 154.013971 
L 156.361274 133.590571 
L 144.343158 113.137869 
L 144.757212 93.757994 
L 145.474624 76.198006 
L 134.43 63.176692 
L 128.400918 60.808896 
L 134.43 56.297828 
L 141.059883 47.600163 
L 138.282513 36.380776 
L 136.595221 26.88 
L 147.6342 26.88 
z
M 222.116298 133.590571 
L 225.544456 154.013971 
L 229.883333 164.032662 
L 232.218564 154.013971 
L 233.585371 133.590571 
L 229.883333 130.18558 
z
M 276.321961 133.590571 
L 277.61 136.486059 
L 282.968245 133.590571 
L 277.61 131.651713 
z
M 165.368687 154.013971 
L 158.293333 168.773014 
L 158.031526 173.39493 
L 158.293333 173.855297 
L 182.156667 177.546123 
L 206.02 173.701958 
L 206.786766 173.39493 
L 210.972517 154.013971 
L 206.02 138.553678 
L 182.156667 136.367962 
z
M 288.311883 154.013971 
L 301.473333 159.169576 
L 301.803755 154.013971 
L 301.473333 147.803563 
z
M 229.883333 93.712622 
L 229.936985 93.757994 
L 229.883333 93.82388 
L 229.694456 93.757994 
z
" clip-path="url(#p5f12348f2c)" style="fill: #73d056"/>
    <path d="M 158.293333 26.88 
L 159.037803 26.88 
L 158.293333 27.488301 
L 154.271876 36.380776 
L 158.293333 43.769959 
L 175.455701 47.600163 
L 158.293333 49.468608 
L 146.621416 60.808896 
L 157.04895 76.198006 
L 158.293333 80.860497 
L 169.470689 93.757994 
L 158.293333 104.37047 
L 155.541848 113.137869 
L 158.293333 117.722818 
L 182.156667 124.366098 
L 206.02 122.927409 
L 229.883333 114.344306 
L 250.808617 133.590571 
L 247.904117 154.013971 
L 252.472796 173.39493 
L 253.746667 174.699274 
L 254.497814 173.39493 
L 262.927441 154.013971 
L 257.036502 133.590571 
L 270.725252 113.137869 
L 265.509146 93.757994 
L 277.61 80.528766 
L 301.473333 86.25401 
L 302.479817 76.198006 
L 301.473333 64.496445 
L 296.393716 60.808896 
L 277.61 53.855036 
L 254.80403 47.600163 
L 277.61 43.343405 
L 290.213544 36.380776 
L 301.473333 28.720034 
L 301.853756 26.88 
L 303.175699 26.88 
L 301.473333 35.114026 
L 299.611459 36.380776 
L 280.231911 47.600163 
L 301.473333 56.310458 
L 302.499793 60.808896 
L 303.766517 76.198006 
L 302.051562 93.757994 
L 301.791675 113.137869 
L 301.473333 119.194987 
L 277.61 117.136724 
L 266.679231 133.590571 
L 275.251301 154.013971 
L 262.234141 173.39493 
L 253.746667 188.133158 
L 239.352761 173.39493 
L 240.061341 154.013971 
L 242.196994 133.590571 
L 229.883333 122.264943 
L 206.02 132.541613 
L 182.156667 133.232979 
L 158.293333 127.053309 
L 149.942503 113.137869 
L 154.390138 93.757994 
L 151.261787 76.198006 
L 139.245927 60.808896 
L 150.968379 47.600163 
L 146.277194 36.380776 
L 147.6342 26.88 
z
M 229.883333 45.567616 
L 250.379702 47.600163 
L 229.883333 49.558363 
L 224.279457 47.600163 
z
M 206.02 87.409384 
L 229.883333 82.17008 
L 243.585678 93.757994 
L 229.883333 110.584903 
L 206.02 100.20248 
L 195.781611 93.757994 
z
M 229.694456 93.757994 
L 229.883333 93.82388 
L 229.936985 93.757994 
L 229.883333 93.712622 
z
M 182.156667 136.367962 
L 206.02 138.553678 
L 210.972517 154.013971 
L 206.786766 173.39493 
L 206.02 173.701958 
L 182.156667 177.546123 
L 158.293333 173.855297 
L 158.031526 173.39493 
L 158.293333 168.773014 
L 165.368687 154.013971 
z
M 301.473333 147.803563 
L 301.803755 154.013971 
L 301.473333 159.169576 
L 288.311883 154.013971 
z
" clip-path="url(#p5f12348f2c)" style="fill: #90d743"/>
    <path d="M 158.293333 27.488301 
L 159.037803 26.88 
L 180.673392 26.88 
L 182.156667 27.853359 
L 188.943654 36.380776 
L 206.02 46.029562 
L 229.883333 36.784274 
L 253.746667 38.428356 
L 277.61 38.151675 
L 280.815629 36.380776 
L 277.61 32.642569 
L 260.987022 26.88 
L 277.61 26.88 
L 301.473333 26.88 
L 301.853756 26.88 
L 301.473333 28.720034 
L 290.213544 36.380776 
L 277.61 43.343405 
L 254.80403 47.600163 
L 277.61 53.855036 
L 296.393716 60.808896 
L 301.473333 64.496445 
L 302.479817 76.198006 
L 301.473333 86.25401 
L 277.61 80.528766 
L 265.509146 93.757994 
L 270.725252 113.137869 
L 257.036502 133.590571 
L 262.927441 154.013971 
L 254.497814 173.39493 
L 253.746667 174.699274 
L 252.472796 173.39493 
L 247.904117 154.013971 
L 250.808617 133.590571 
L 229.883333 114.344306 
L 206.02 122.927409 
L 182.156667 124.366098 
L 158.293333 117.722818 
L 155.541848 113.137869 
L 158.293333 104.37047 
L 169.470689 93.757994 
L 158.293333 80.860497 
L 157.04895 76.198006 
L 146.621416 60.808896 
L 158.293333 49.468608 
L 175.455701 47.600163 
L 158.293333 43.769959 
L 154.271876 36.380776 
z
M 224.279457 47.600163 
L 229.883333 49.558363 
L 250.379702 47.600163 
L 229.883333 45.567616 
z
M 153.996904 60.808896 
L 158.293333 67.364338 
L 180.08764 76.198006 
L 182.156667 79.474127 
L 192.110019 76.198006 
L 206.02 74.827827 
L 229.883333 67.05311 
L 238.883289 76.198006 
L 253.746667 89.494852 
L 266.046696 76.198006 
L 275.622443 60.808896 
L 253.746667 54.164702 
L 229.883333 58.020428 
L 206.02 50.077527 
L 182.156667 51.932797 
L 158.293333 56.63454 
z
M 195.781611 93.757994 
L 206.02 100.20248 
L 229.883333 110.584903 
L 243.585678 93.757994 
L 229.883333 82.17008 
L 206.02 87.409384 
z
M 173.955699 113.137869 
L 182.156667 115.499217 
L 206.02 113.313205 
L 206.522585 113.137869 
L 206.02 112.90619 
L 182.156667 104.408371 
z
M 242.260174 113.137869 
L 253.746667 124.268883 
L 261.222515 113.137869 
L 253.746667 98.509512 
z
" clip-path="url(#p5f12348f2c)" style="fill: #b0dd2f"/>
    <path d="M 182.156667 26.88 
L 194.948383 26.88 
L 200.243686 36.380776 
L 206.02 39.644613 
L 214.34519 36.380776 
L 218.607888 26.88 
L 229.883333 26.88 
L 253.746667 26.88 
L 260.987022 26.88 
L 277.61 32.642569 
L 280.815629 36.380776 
L 277.61 38.151675 
L 253.746667 38.428356 
L 229.883333 36.784274 
L 206.02 46.029562 
L 188.943654 36.380776 
L 182.156667 27.853359 
L 180.673392 26.88 
z
M 158.293333 56.63454 
L 182.156667 51.932797 
L 206.02 50.077527 
L 229.883333 58.020428 
L 253.746667 54.164702 
L 275.622443 60.808896 
L 266.046696 76.198006 
L 253.746667 89.494852 
L 238.883289 76.198006 
L 229.883333 67.05311 
L 206.02 74.827827 
L 192.110019 76.198006 
L 182.156667 79.474127 
L 180.08764 76.198006 
L 158.293333 67.364338 
L 153.996904 60.808896 
z
M 166.21518 60.808896 
L 182.156667 68.13135 
L 206.02 61.671301 
L 208.145246 60.808896 
L 206.02 60.148732 
L 182.156667 56.756508 
z
M 182.156667 104.408371 
L 206.02 112.90619 
L 206.522585 113.137869 
L 206.02 113.313205 
L 182.156667 115.499217 
L 173.955699 113.137869 
z
M 253.746667 98.509512 
L 261.222515 113.137869 
L 253.746667 124.268883 
L 242.260174 113.137869 
z
" clip-path="url(#p5f12348f2c)" style="fill: #d0e11c"/>
    <path d="M 206.02 26.88 
L 218.607888 26.88 
L 214.34519 36.380776 
L 206.02 39.644613 
L 200.243686 36.380776 
L 194.948383 26.88 
z
M 182.156667 56.756508 
L 206.02 60.148732 
L 208.145246 60.808896 
L 206.02 61.671301 
L 182.156667 68.13135 
L 166.21518 60.808896 
z
" clip-path="url(#p5f12348f2c)" style="fill: #efe51c"/>
   </g>
   <g id="matplotlib.axis_1">
    <g id="xtick_1">
     <g id="line2d_1">
      <defs>
       <path id="mc1cc5f6a4c" d="M 0 0 
L 0 3.5 
" style="stroke: #000000; stroke-width: 0.8"/>
      </defs>
      <g>
       <use xlink:href="#mc1cc5f6a4c" x="126.475556" y="240.28" style="stroke: #000000; stroke-width: 0.8"/>
      </g>
     </g>
     <g id="text_1">
      <!-- −50 -->
      <g transform="translate(113.812743 256.398125) scale(0.12 -0.12)">
       <defs>
        <path id="DejaVuSans-2212" d="M 678 2272 
L 4684 2272 
L 4684 1741 
L 678 1741 
L 678 2272 
z
" transform="scale(0.015625)"/>
        <path id="DejaVuSans-35" d="M 691 4666 
L 3169 4666 
L 3169 4134 
L 1269 4134 
L 1269 2991 
Q 1406 3038 1543 3061 
Q 1681 3084 1819 3084 
Q 2600 3084 3056 2656 
Q 3513 2228 3513 1497 
Q 3513 744 3044 326 
Q 2575 -91 1722 -91 
Q 1428 -91 1123 -41 
Q 819 9 494 109 
L 494 744 
Q 775 591 1075 516 
Q 1375 441 1709 441 
Q 2250 441 2565 725 
Q 2881 1009 2881 1497 
Q 2881 1984 2565 2268 
Q 2250 2553 1709 2553 
Q 1456 2553 1204 2497 
Q 953 2441 691 2322 
L 691 4666 
z
" transform="scale(0.015625)"/>
        <path id="DejaVuSans-30" d="M 2034 4250 
Q 1547 4250 1301 3770 
Q 1056 3291 1056 2328 
Q 1056 1369 1301 889 
Q 1547 409 2034 409 
Q 2525 409 2770 889 
Q 3016 1369 3016 2328 
Q 3016 3291 2770 3770 
Q 2525 4250 2034 4250 
z
M 2034 4750 
Q 2819 4750 3233 4129 
Q 3647 3509 3647 2328 
Q 3647 1150 3233 529 
Q 2819 -91 2034 -91 
Q 1250 -91 836 529 
Q 422 1150 422 2328 
Q 422 3509 836 4129 
Q 1250 4750 2034 4750 
z
" transform="scale(0.015625)"/>
       </defs>
       <use xlink:href="#DejaVuSans-2212"/>
       <use xlink:href="#DejaVuSans-35" transform="translate(83.789062 0)"/>
       <use xlink:href="#DejaVuSans-30" transform="translate(147.412109 0)"/>
      </g>
     </g>
    </g>
    <g id="xtick_2">
     <g id="line2d_2">
      <g>
       <use xlink:href="#mc1cc5f6a4c" x="206.02" y="240.28" style="stroke: #000000; stroke-width: 0.8"/>
      </g>
     </g>
     <g id="text_2">
      <!-- 0 -->
      <g transform="translate(202.2025 256.398125) scale(0.12 -0.12)">
       <use xlink:href="#DejaVuSans-30"/>
      </g>
     </g>
    </g>
    <g id="xtick_3">
     <g id="line2d_3">
      <g>
       <use xlink:href="#mc1cc5f6a4c" x="285.564444" y="240.28" style="stroke: #000000; stroke-width: 0.8"/>
      </g>
     </g>
     <g id="text_3">
      <!-- 50 -->
      <g transform="translate(277.929444 256.398125) scale(0.12 -0.12)">
       <use xlink:href="#DejaVuSans-35"/>
       <use xlink:href="#DejaVuSans-30" transform="translate(63.623047 0)"/>
      </g>
     </g>
    </g>
    <g id="text_4">
     <!-- $\Theta^{\circ}$ -->
     <g transform="translate(198.4 272.011875) scale(0.12 -0.12)">
      <defs>
       <path id="DejaVuSans-398" d="M 1416 2750 
L 3622 2750 
L 3622 2219 
L 1416 2219 
L 1416 2750 
z
M 2522 4238 
Q 1834 4238 1431 3725 
Q 1025 3213 1025 2328 
Q 1025 1447 1429 934 
Q 1834 422 2522 422 
Q 3209 422 3613 934 
Q 4013 1447 4013 2328 
Q 4013 3213 3613 3725 
Q 3209 4238 2522 4238 
z
M 2522 4750 
Q 3503 4750 4090 4092 
Q 4678 3434 4678 2328 
Q 4678 1225 4091 569 
Q 3503 -91 2522 -91 
Q 1538 -91 950 566 
Q 359 1222 359 2328 
Q 359 3434 950 4094 
Q 1538 4750 2522 4750 
z
" transform="scale(0.015625)"/>
       <path id="DejaVuSans-2218" d="M 2000 2619 
Q 1750 2619 1578 2445 
Q 1406 2272 1406 2022 
Q 1406 1775 1578 1605 
Q 1750 1435 2000 1435 
Q 2250 1435 2422 1605 
Q 2594 1775 2594 2022 
Q 2594 2269 2420 2444 
Q 2247 2619 2000 2619 
z
M 2000 3022 
Q 2200 3022 2384 2945 
Q 2569 2869 2703 2725 
Q 2847 2585 2919 2406 
Q 2991 2228 2991 2022 
Q 2991 1610 2702 1324 
Q 2413 1038 1994 1038 
Q 1572 1038 1290 1319 
Q 1009 1600 1009 2022 
Q 1009 2441 1296 2731 
Q 1584 3022 2000 3022 
z
" transform="scale(0.015625)"/>
      </defs>
      <use xlink:href="#DejaVuSans-398" transform="translate(0 0.78125)"/>
      <use xlink:href="#DejaVuSans-2218" transform="translate(79.667969 39.0625) scale(0.7)"/>
     </g>
    </g>
   </g>
   <g id="matplotlib.axis_2">
    <g id="ytick_1">
     <g id="line2d_4">
      <defs>
       <path id="m205346edde" d="M 0 0 
L -3.5 0 
" style="stroke: #000000; stroke-width: 0.8"/>
      </defs>
      <g>
       <use xlink:href="#m205346edde" x="62.84" y="219.984151" style="stroke: #000000; stroke-width: 0.8"/>
      </g>
     </g>
     <g id="text_5">
      <!-- −40 -->
      <g transform="translate(30.514375 224.543214) scale(0.12 -0.12)">
       <defs>
        <path id="DejaVuSans-34" d="M 2419 4116 
L 825 1625 
L 2419 1625 
L 2419 4116 
z
M 2253 4666 
L 3047 4666 
L 3047 1625 
L 3713 1625 
L 3713 1100 
L 3047 1100 
L 3047 0 
L 2419 0 
L 2419 1100 
L 313 1100 
L 313 1709 
L 2253 4666 
z
" transform="scale(0.015625)"/>
       </defs>
       <use xlink:href="#DejaVuSans-2212"/>
       <use xlink:href="#DejaVuSans-34" transform="translate(83.789062 0)"/>
       <use xlink:href="#DejaVuSans-30" transform="translate(147.412109 0)"/>
      </g>
     </g>
    </g>
    <g id="ytick_2">
     <g id="line2d_5">
      <g>
       <use xlink:href="#m205346edde" x="62.84" y="176.783648" style="stroke: #000000; stroke-width: 0.8"/>
      </g>
     </g>
     <g id="text_6">
      <!-- −20 -->
      <g transform="translate(30.514375 181.342711) scale(0.12 -0.12)">
       <defs>
        <path id="DejaVuSans-32" d="M 1228 531 
L 3431 531 
L 3431 0 
L 469 0 
L 469 531 
Q 828 903 1448 1529 
Q 2069 2156 2228 2338 
Q 2531 2678 2651 2914 
Q 2772 3150 2772 3378 
Q 2772 3750 2511 3984 
Q 2250 4219 1831 4219 
Q 1534 4219 1204 4116 
Q 875 4013 500 3803 
L 500 4441 
Q 881 4594 1212 4672 
Q 1544 4750 1819 4750 
Q 2544 4750 2975 4387 
Q 3406 4025 3406 3419 
Q 3406 3131 3298 2873 
Q 3191 2616 2906 2266 
Q 2828 2175 2409 1742 
Q 1991 1309 1228 531 
z
" transform="scale(0.015625)"/>
       </defs>
       <use xlink:href="#DejaVuSans-2212"/>
       <use xlink:href="#DejaVuSans-32" transform="translate(83.789062 0)"/>
       <use xlink:href="#DejaVuSans-30" transform="translate(147.412109 0)"/>
      </g>
     </g>
    </g>
    <g id="ytick_3">
     <g id="line2d_6">
      <g>
       <use xlink:href="#m205346edde" x="62.84" y="133.583145" style="stroke: #000000; stroke-width: 0.8"/>
      </g>
     </g>
     <g id="text_7">
      <!-- 0 -->
      <g transform="translate(48.205 138.142208) scale(0.12 -0.12)">
       <use xlink:href="#DejaVuSans-30"/>
      </g>
     </g>
    </g>
    <g id="ytick_4">
     <g id="line2d_7">
      <g>
       <use xlink:href="#m205346edde" x="62.84" y="90.382642" style="stroke: #000000; stroke-width: 0.8"/>
      </g>
     </g>
     <g id="text_8">
      <!-- 20 -->
      <g transform="translate(40.57 94.941704) scale(0.12 -0.12)">
       <use xlink:href="#DejaVuSans-32"/>
       <use xlink:href="#DejaVuSans-30" transform="translate(63.623047 0)"/>
      </g>
     </g>
    </g>
    <g id="ytick_5">
     <g id="line2d_8">
      <g>
       <use xlink:href="#m205346edde" x="62.84" y="47.182139" style="stroke: #000000; stroke-width: 0.8"/>
      </g>
     </g>
     <g id="text_9">
      <!-- 40 -->
      <g transform="translate(40.57 51.741201) scale(0.12 -0.12)">
       <use xlink:href="#DejaVuSans-34"/>
       <use xlink:href="#DejaVuSans-30" transform="translate(63.623047 0)"/>
      </g>
     </g>
    </g>
    <g id="text_10">
     <!-- $\phi^{\circ}$ -->
     <g transform="translate(23.784375 141.38) rotate(-90) scale(0.13 -0.13)">
      <defs>
       <path id="DejaVuSans-Oblique-3d5" d="M 2991 4863 
L 2738 3572 
Q 3363 3572 3684 3094 
Q 4016 2606 3850 1747 
Q 3681 888 3159 400 
Q 2653 -78 2028 -78 
L 1784 -1331 
L 1213 -1331 
L 1456 -78 
Q 834 -78 509 400 
Q 178 888 347 1747 
Q 513 2606 1034 3094 
Q 1544 3572 2166 3572 
L 2419 4863 
L 2991 4863 
z
M 2128 434 
Q 2481 434 2784 756 
Q 3116 1116 3244 1747 
Q 3369 2372 3169 2738 
Q 2991 3059 2638 3059 
L 2128 434 
z
M 1556 434 
L 2066 3059 
Q 1716 3059 1413 2738 
Q 1072 2372 953 1747 
Q 834 1116 1028 756 
Q 1203 434 1556 434 
z
" transform="scale(0.015625)"/>
      </defs>
      <use xlink:href="#DejaVuSans-Oblique-3d5" transform="translate(0 0.015625)"/>
      <use xlink:href="#DejaVuSans-2218" transform="translate(73.414505 38.296875) scale(0.7)"/>
     </g>
    </g>
   </g>
   <g id="QuadContourSet_2">
    <path clip-path="url(#p5f12348f2c)" style="fill: none; stroke-dasharray: 1.85,0.8; stroke-dashoffset: 0; stroke: #000000; stroke-width: 0.5"/>
    <path d="M 324.326792 26.88 
L 324.23621 36.380776 
L 324.145551 47.600163 
L 324.295991 60.808896 
L 324.353716 76.198006 
L 324.275565 93.757994 
L 324.263722 113.137869 
L 324.24558 120.469624 
M 324.24598 146.711517 
L 324.264273 154.013971 
L 324.205388 173.39493 
L 324.163153 190.956403 
L 324.068664 206.347113 
L 324.072542 219.557363 
L 324.05883 230.778089 
L 323.983365 240.28 
M 89.133994 240.28 
L 89.089444 230.778089 
L 88.24047 219.557363 
L 88.377467 206.347113 
L 88.401974 190.956403 
L 88.044297 173.39493 
L 88.18554 154.013971 
L 88.171825 146.711533 
M 88.131526 120.469597 
L 88.122778 113.137869 
L 87.986961 93.757994 
L 88.087989 76.198006 
L 87.94032 60.808896 
L 88.086901 47.600163 
L 87.981483 36.380776 
L 88.012619 26.88 
" clip-path="url(#p5f12348f2c)" style="fill: none; stroke-dasharray: 1.85,0.8; stroke-dashoffset: 0; stroke: #000000; stroke-width: 0.5"/>
    <path d="M 323.004849 26.88 
L 322.795694 36.380776 
L 322.58636 47.600163 
L 322.933729 60.808896 
L 323.067016 76.198006 
L 322.886565 93.757994 
L 322.859219 113.137869 
L 322.81708 120.51308 
M 322.818001 146.668057 
L 322.860491 154.013971 
L 322.724524 173.39493 
L 322.627002 190.956403 
L 322.408827 206.347113 
L 322.417781 219.557363 
L 322.38612 230.778089 
L 322.21187 240.28 
M 92.315772 240.28 
L 92.212904 230.778089 
L 90.252608 219.557363 
L 90.568938 206.347113 
L 90.625525 190.956403 
L 89.799642 173.39493 
L 90.125775 154.013971 
L 90.093918 146.668141 
M 90.001174 120.512936 
L 89.980855 113.137869 
L 89.667252 93.757994 
L 89.900528 76.198006 
L 89.559558 60.808896 
L 89.898016 47.600163 
L 89.654604 36.380776 
L 89.726498 26.88 
" clip-path="url(#p5f12348f2c)" style="fill: none; stroke-dasharray: 1.85,0.8; stroke-dashoffset: 0; stroke: #000000; stroke-width: 0.5"/>
    <path d="M 321.682906 26.88 
L 321.355177 36.380776 
L 321.027168 47.600163 
L 321.571466 60.808896 
L 321.780316 76.198006 
L 321.497565 93.757994 
L 321.454717 113.137869 
L 321.389072 120.470051 
M 321.39052 146.711079 
L 321.456708 154.013971 
L 321.243661 173.39493 
L 321.090852 190.956403 
L 320.748989 206.347113 
L 320.76302 219.557363 
L 320.71341 230.778089 
L 320.440375 240.28 
M 95.49755 240.28 
L 95.336364 230.778089 
L 92.264747 219.557363 
L 92.760408 206.347113 
L 92.849076 190.956403 
L 91.554987 173.39493 
L 92.06601 154.013971 
L 92.016386 146.711287 
M 91.870583 120.469696 
L 91.838933 113.137869 
L 91.347543 93.757994 
L 91.713066 76.198006 
L 91.178796 60.808896 
L 91.709131 47.600163 
L 91.327725 36.380776 
L 91.440376 26.88 
" clip-path="url(#p5f12348f2c)" style="fill: none; stroke-dasharray: 1.85,0.8; stroke-dashoffset: 0; stroke: #000000; stroke-width: 0.5"/>
    <path d="M 320.360962 26.88 
L 319.914661 36.380776 
L 319.467977 47.600163 
L 320.209204 60.808896 
L 320.493616 76.198006 
L 320.108565 93.757994 
L 320.050214 113.137869 
L 319.960814 120.470446 
M 319.962786 146.710674 
L 320.052926 154.013971 
L 319.762797 173.39493 
L 319.554702 190.956403 
L 319.089152 206.347113 
L 319.108259 219.557363 
L 319.0407 230.778089 
L 318.668879 240.28 
M 98.679328 240.28 
L 98.459824 230.778089 
L 94.276885 219.557363 
L 94.951878 206.347113 
L 95.072627 190.956403 
L 93.310332 173.39493 
L 94.006245 154.013971 
L 93.938664 146.711059 
M 93.740113 120.469788 
L 93.69701 113.137869 
L 93.027834 93.757994 
L 93.525605 76.198006 
L 92.798034 60.808896 
L 93.520245 47.600163 
L 93.000846 36.380776 
L 93.154254 26.88 
" clip-path="url(#p5f12348f2c)" style="fill: none; stroke-dasharray: 1.85,0.8; stroke-dashoffset: 0; stroke: #000000; stroke-width: 0.5"/>
    <path d="M 319.039019 26.88 
L 318.474144 36.380776 
L 317.908786 47.600163 
L 318.846942 60.808896 
L 319.206916 76.198006 
L 318.719565 93.757994 
L 318.645711 113.137869 
L 318.531215 120.55756 
M 318.533694 146.623548 
L 318.649144 154.013971 
L 318.281934 173.39493 
L 318.018551 190.956403 
L 317.429314 206.347113 
L 317.453498 219.557363 
L 317.36799 230.778089 
L 316.897384 240.28 
M 101.861105 240.28 
L 101.583284 230.778089 
L 96.289024 219.557363 
L 97.143349 206.347113 
L 97.296178 190.956403 
L 95.065676 173.39493 
L 95.946481 154.013971 
L 95.859926 146.62416 
M 95.610287 120.556513 
L 95.555088 113.137869 
L 94.708125 93.757994 
L 95.338144 76.198006 
L 94.417272 60.808896 
L 95.33136 47.600163 
L 94.673967 36.380776 
L 94.868133 26.88 
" clip-path="url(#p5f12348f2c)" style="fill: none; stroke-dasharray: 1.85,0.8; stroke-dashoffset: 0; stroke: #000000; stroke-width: 0.5"/>
    <path d="M 317.717076 26.88 
L 317.033627 36.380776 
L 316.349594 47.600163 
L 317.484679 60.808896 
L 317.920216 76.198006 
L 317.330564 93.757994 
L 317.241208 113.137869 
L 317.102667 120.558192 
M 317.105665 146.6229 
L 317.245361 154.013971 
L 316.80107 173.39493 
L 316.482401 190.956403 
L 315.769477 206.347113 
L 315.798737 219.557363 
L 315.69528 230.778089 
L 315.125889 240.28 
M 105.042883 240.28 
L 104.706744 230.778089 
L 98.301162 219.557363 
L 99.334819 206.347113 
L 99.519729 190.956403 
L 96.821021 173.39493 
L 97.886716 154.013971 
L 97.781987 146.623795 
M 97.479953 120.55666 
L 97.413165 113.137869 
L 96.388416 93.757994 
L 97.150682 76.198006 
L 96.03651 60.808896 
L 97.142474 47.600163 
L 96.347087 36.380776 
L 96.582011 26.88 
" clip-path="url(#p5f12348f2c)" style="fill: none; stroke-dasharray: 1.85,0.8; stroke-dashoffset: 0; stroke: #000000; stroke-width: 0.5"/>
    <path d="M 316.395132 26.88 
L 315.593111 36.380776 
L 314.790403 47.600163 
L 316.122417 60.808896 
L 316.633516 76.198006 
L 315.941564 93.757994 
L 315.836705 113.137869 
L 315.674111 120.558945 
M 315.67763 146.622128 
L 315.841579 154.013971 
L 315.320207 173.39493 
L 314.94625 190.956403 
L 314.109639 206.347113 
L 314.143976 219.557363 
L 314.022569 230.778089 
L 313.354393 240.28 
M 108.224661 240.28 
L 107.830204 230.778089 
L 100.313301 219.557363 
L 101.52629 206.347113 
L 101.74328 190.956403 
L 98.576366 173.39493 
L 99.826951 154.013971 
L 99.704046 146.623362 
M 99.349619 120.556835 
L 99.271243 113.137869 
L 98.068707 93.757994 
L 98.963221 76.198006 
L 97.655748 60.808896 
L 98.953589 47.600163 
L 98.020208 36.380776 
L 98.29589 26.88 
" clip-path="url(#p5f12348f2c)" style="fill: none; stroke-dasharray: 1.85,0.8; stroke-dashoffset: 0; stroke: #000000; stroke-width: 0.5"/>
    <path d="M 315.073189 26.88 
L 314.152594 36.380776 
L 313.231212 47.600163 
L 314.760154 60.808896 
L 315.346816 76.198006 
L 314.552564 93.757994 
L 314.432202 113.137869 
L 314.246637 120.516526 
M 314.250688 146.664525 
L 314.437797 154.013971 
L 313.839343 173.39493 
L 313.4101 190.956403 
L 312.449802 206.347113 
L 312.489214 219.557363 
L 312.349859 230.778089 
L 311.582898 240.28 
M 118.336675 240.28 
L 112.197935 230.778089 
L 110.566667 230.448618 
L 102.325439 219.557363 
L 103.71776 206.347113 
L 103.966831 190.956403 
L 100.331711 173.39493 
L 101.767186 154.013971 
L 101.626927 146.666155 
M 101.218762 120.513737 
L 101.129321 113.137869 
L 99.748997 93.757994 
L 100.77576 76.198006 
L 99.274986 60.808896 
L 100.764704 47.600163 
L 99.693329 36.380776 
L 100.009768 26.88 
" clip-path="url(#p5f12348f2c)" style="fill: none; stroke-dasharray: 1.85,0.8; stroke-dashoffset: 0; stroke: #000000; stroke-width: 0.5"/>
    <path d="M 313.751246 26.88 
L 312.712077 36.380776 
L 311.67202 47.600163 
L 313.397892 60.808896 
L 314.060117 76.198006 
L 313.163564 93.757994 
L 313.027699 113.137869 
L 312.818205 120.517522 
M 312.822776 146.663505 
L 313.034014 154.013971 
L 312.358479 173.39493 
L 311.87395 190.956403 
L 310.789964 206.347113 
L 310.834453 219.557363 
L 310.677149 230.778089 
L 309.811403 240.28 
M 138.963913 240.28 
L 134.43 236.507819 
L 125.363905 230.778089 
L 110.566667 227.789462 
L 104.337577 219.557363 
L 105.909231 206.347113 
L 106.190382 190.956403 
L 102.087056 173.39493 
L 102.617392 167.051657 
M 103.425692 140.938961 
L 103.267355 133.590571 
L 102.987398 113.137869 
L 101.429288 93.757994 
L 102.588298 76.198006 
L 100.894224 60.808896 
L 102.575818 47.600163 
L 101.36645 36.380776 
L 101.723646 26.88 
" clip-path="url(#p5f12348f2c)" style="fill: none; stroke-dasharray: 1.85,0.8; stroke-dashoffset: 0; stroke: #000000; stroke-width: 0.5"/>
    <path d="M 312.429303 26.88 
L 311.271561 36.380776 
L 310.112829 47.600163 
L 312.03563 60.808896 
L 312.773417 76.198006 
L 311.774564 93.757994 
L 311.623196 113.137869 
L 311.389763 120.518638 
M 311.394854 146.662361 
L 311.630232 154.013971 
L 310.877616 173.39493 
L 310.337799 190.956403 
L 309.130127 206.347113 
L 309.179692 219.557363 
L 309.004439 230.778089 
L 308.039907 240.28 
M 148.965004 240.28 
L 137.127004 230.778089 
L 134.43 229.556774 
L 110.566667 225.130305 
L 106.349716 219.557363 
L 108.100701 206.347113 
L 108.413933 190.956403 
L 103.842401 173.39493 
L 104.434144 167.042064 
M 105.333796 140.939604 
L 105.157377 133.590571 
L 104.845476 113.137869 
L 103.109579 93.757994 
L 104.400837 76.198006 
L 102.513462 60.808896 
L 104.386933 47.600163 
L 103.039571 36.380776 
L 103.437525 26.88 
" clip-path="url(#p5f12348f2c)" style="fill: none; stroke-dasharray: 1.85,0.8; stroke-dashoffset: 0; stroke: #000000; stroke-width: 0.5"/>
    <path d="M 311.107359 26.88 
L 309.831044 36.380776 
L 308.553637 47.600163 
L 310.673367 60.808896 
L 311.486717 76.198006 
L 310.385563 93.757994 
L 310.218693 113.137869 
L 309.9598 120.563155 
M 309.965393 146.617814 
L 310.226449 154.013971 
L 309.396752 173.39493 
L 308.801649 190.956403 
L 307.47029 206.347113 
L 307.524931 219.557363 
L 307.331729 230.778089 
L 306.268412 240.28 
M 163.880996 240.28 
L 158.293333 239.857025 
L 145.787921 230.778089 
L 134.43 225.634753 
L 110.566667 222.471149 
L 108.361854 219.557363 
L 110.292172 206.347113 
L 110.566667 194.076466 
L 111.126104 190.956403 
L 110.566667 190.761015 
L 109.19988 185.984176 
M 106.930028 160.420545 
L 107.587891 154.013971 
L 107.047399 133.590571 
L 106.703553 113.137869 
L 104.78987 93.757994 
L 106.213376 76.198006 
L 104.132699 60.808896 
L 106.198048 47.600163 
L 104.712692 36.380776 
L 105.151403 26.88 
" clip-path="url(#p5f12348f2c)" style="fill: none; stroke-dasharray: 1.85,0.8; stroke-dashoffset: 0; stroke: #000000; stroke-width: 0.5"/>
    <path d="M 309.785416 26.88 
L 308.390528 36.380776 
L 306.994446 47.600163 
L 309.311105 60.808896 
L 310.200017 76.198006 
L 308.996563 93.757994 
L 308.81419 113.137869 
L 308.532842 120.52123 
M 308.538974 146.659705 
L 308.822667 154.013971 
L 307.915889 173.39493 
L 307.265498 190.956403 
L 305.810452 206.347113 
L 305.87017 219.557363 
L 305.659019 230.778089 
L 304.496917 240.28 
M 195.338119 240.28 
L 182.156667 235.335521 
L 158.293333 233.569195 
L 154.448838 230.778089 
L 134.43 221.712732 
L 110.566667 219.811992 
L 110.373993 219.557363 
L 110.566667 218.253955 
L 134.43 213.561788 
L 139.112224 206.347113 
L 136.801568 201.263362 
M 115.620406 186.391244 
L 110.566667 184.626188 
L 107.353091 173.39493 
L 109.528126 154.013971 
L 108.937421 133.590571 
L 108.561631 113.137869 
L 106.470161 93.757994 
L 108.025915 76.198006 
L 105.751937 60.808896 
L 108.009162 47.600163 
L 106.385812 36.380776 
L 106.865281 26.88 
" clip-path="url(#p5f12348f2c)" style="fill: none; stroke-dasharray: 1.85,0.8; stroke-dashoffset: 0; stroke: #000000; stroke-width: 0.5"/>
    <path d="M 308.463473 26.88 
L 306.950011 36.380776 
L 305.435255 47.600163 
L 307.948842 60.808896 
L 308.913317 76.198006 
L 307.607563 93.757994 
L 307.409687 113.137869 
L 307.106151 120.479435 
M 307.112823 146.701462 
L 307.418885 154.013971 
L 306.435025 173.39493 
L 305.729348 190.956403 
L 304.150615 206.347113 
L 304.215409 219.557363 
L 303.986309 230.778089 
L 302.725421 240.28 
M 244.861354 240.28 
L 238.583661 230.778089 
L 229.883333 225.311209 
L 206.02 229.429679 
L 182.156667 228.358862 
L 158.293333 227.551772 
L 140.308918 219.557363 
L 146.19257 206.347113 
L 139.132011 190.956403 
L 134.43 183.678707 
L 110.566667 178.491362 
L 109.279148 173.991562 
M 124.502132 162.172496 
L 134.43 163.031563 
L 138.615615 154.013971 
L 136.99975 133.590571 
L 134.43 128.587543 
L 110.566667 120.590122 
L 110.419708 113.137869 
L 108.150452 93.757994 
L 109.838453 76.198006 
L 107.371175 60.808896 
L 109.820277 47.600163 
L 108.058933 36.380776 
L 108.57916 26.88 
" clip-path="url(#p5f12348f2c)" style="fill: none; stroke-dasharray: 1.85,0.8; stroke-dashoffset: 0; stroke: #000000; stroke-width: 0.5"/>
    <path d="M 307.141529 26.88 
L 305.509494 36.380776 
L 303.876063 47.600163 
L 306.58658 60.808896 
L 307.626617 76.198006 
L 306.218563 93.757994 
L 306.005184 113.137869 
L 305.09332 133.590571 
L 306.015102 154.013971 
L 304.954161 173.39493 
L 304.193198 190.956403 
L 302.490777 206.347113 
L 302.55061 217.65952 
M 294.478136 234.138811 
L 285.570489 230.778089 
L 289.853524 219.557363 
L 286.856449 206.347113 
L 277.61 202.009348 
L 272.872312 206.347113 
L 266.825902 219.557363 
L 260.444917 230.778089 
L 253.746667 232.53108 
L 252.391758 230.778089 
L 236.71527 219.557363 
L 233.575374 206.347113 
L 229.883333 202.942217 
L 219.848248 206.347113 
L 220.230207 219.557363 
L 206.02 222.829883 
L 182.156667 219.75176 
L 158.293333 221.75019 
L 153.360296 219.557363 
L 153.272916 206.347113 
L 146.115515 190.956403 
L 134.806151 173.39493 
L 143.67154 154.013971 
L 143.453591 133.590571 
L 134.43 116.022605 
L 129.667969 113.137869 
L 110.566667 100.004215 
L 109.830743 93.757994 
L 110.566667 86.335928 
L 131.263389 76.198006 
L 110.566667 70.340416 
L 108.990413 60.808896 
L 110.566667 52.57359 
L 117.878041 47.600163 
L 110.566667 41.530799 
L 109.732054 36.380776 
L 110.293038 26.88 
M 182.156667 204.938186 
L 177.664567 206.347113 
L 182.156667 217.961967 
L 189.172958 206.347113 
L 182.156667 204.938186 
z
" clip-path="url(#p5f12348f2c)" style="fill: none; stroke-dasharray: 1.85,0.8; stroke-dashoffset: 0; stroke: #000000; stroke-width: 0.5"/>
    <path d="M 305.819586 26.88 
L 304.068978 36.380776 
L 302.316872 47.600163 
L 305.224318 60.808896 
L 306.339917 76.198006 
L 304.829563 93.757994 
L 304.600681 113.137869 
L 303.622567 133.590571 
L 304.61132 154.013971 
L 303.473298 173.39493 
L 302.657047 190.956403 
L 301.473333 201.201487 
L 282.275313 192.831466 
M 274.055307 194.068345 
L 260.654276 206.347113 
L 253.746667 216.639242 
L 246.461401 206.347113 
L 229.883333 191.05839 
L 206.02 198.946765 
L 182.156667 196.369568 
L 158.293333 202.019706 
L 153.099018 190.956403 
L 142.547943 173.39493 
L 148.727464 154.013971 
L 149.907433 133.590571 
L 138.743813 113.137869 
L 135.124287 93.757994 
L 139.687461 76.198006 
L 134.43 69.999601 
L 111.027852 60.808896 
L 130.314809 47.600163 
L 122.299901 36.380776 
L 122.763124 26.88 
" clip-path="url(#p5f12348f2c)" style="fill: none; stroke-dasharray: 1.85,0.8; stroke-dashoffset: 0; stroke: #000000; stroke-width: 0.5"/>
    <path d="M 304.497643 26.88 
L 302.628461 36.380776 
L 301.473333 43.516025 
L 294.790906 47.600163 
L 299.11281 49.37241 
M 304.874994 73.895463 
L 305.053217 76.198006 
L 303.440562 93.757994 
L 303.196178 113.137869 
L 302.151814 133.590571 
L 303.207538 154.013971 
L 301.992434 173.39493 
L 301.473333 184.009291 
L 295.221567 173.39493 
L 277.61 162.739332 
L 269.970468 173.39493 
L 264.207481 190.956403 
L 253.746667 200.884065 
L 243.165249 190.956403 
L 229.883333 177.243523 
L 206.02 186.515634 
L 182.156667 187.347119 
L 158.293333 187.468637 
L 150.289735 173.39493 
L 153.783389 154.013971 
L 156.361274 133.590571 
L 144.343158 113.137869 
L 144.757212 93.757994 
L 145.474624 76.198006 
L 134.43 63.176692 
L 128.400918 60.808896 
L 134.43 56.297828 
L 141.059883 47.600163 
L 138.282513 36.380776 
L 136.595221 26.88 
M 229.883333 130.18558 
L 222.116298 133.590571 
L 225.161775 151.734131 
M 232.40998 151.15375 
L 233.585371 133.590571 
L 229.883333 130.18558 
M 277.61 131.651713 
L 276.321961 133.590571 
L 277.61 136.486059 
L 282.968245 133.590571 
L 277.61 131.651713 
" clip-path="url(#p5f12348f2c)" style="fill: none; stroke-dasharray: 1.85,0.8; stroke-dashoffset: 0; stroke: #000000; stroke-width: 0.5"/>
    <path d="M 303.175699 26.88 
L 301.473333 35.114026 
L 299.611459 36.380776 
L 280.231911 47.600163 
L 301.473333 56.310458 
L 302.499793 60.808896 
L 303.766517 76.198006 
L 302.051562 93.757994 
L 301.791675 113.137869 
L 301.473333 119.194987 
L 277.61 117.136724 
L 274.053644 122.490029 
M 271.786925 145.759915 
L 275.251301 154.013971 
L 262.234141 173.39493 
L 253.746667 188.133158 
L 239.352761 173.39493 
L 240.061341 154.013971 
L 242.196994 133.590571 
L 229.883333 122.264943 
L 206.02 132.541613 
L 182.156667 133.232979 
L 158.293333 127.053309 
L 149.942503 113.137869 
L 154.390138 93.757994 
L 151.261787 76.198006 
L 139.245927 60.808896 
L 150.968379 47.600163 
L 146.277194 36.380776 
L 147.6342 26.88 
M 229.883333 93.712622 
L 229.694456 93.757994 
L 229.883333 93.82388 
L 229.936985 93.757994 
L 229.883333 93.712622 
M 168.394167 175.417544 
L 158.293333 173.855297 
L 158.031526 173.39493 
L 158.293333 168.773014 
L 165.368687 154.013971 
L 182.156667 136.367962 
L 206.02 138.553678 
L 210.972517 154.013971 
L 206.786766 173.39493 
L 206.02 173.701958 
L 195.90373 175.331597 
M 301.473333 147.803563 
L 301.803755 154.013971 
L 301.473333 159.169576 
L 288.311883 154.013971 
L 301.473333 147.803563 
z
" clip-path="url(#p5f12348f2c)" style="fill: none; stroke-dasharray: 1.85,0.8; stroke-dashoffset: 0; stroke: #000000; stroke-width: 0.5"/>
    <path d="M 301.853756 26.88 
L 301.473333 28.720034 
L 290.213544 36.380776 
L 277.61 43.343405 
L 268.529376 45.038313 
M 268.23582 51.284029 
L 277.61 53.855036 
L 296.393716 60.808896 
L 301.473333 64.496445 
L 302.479817 76.198006 
L 301.473333 86.25401 
L 277.61 80.528766 
L 265.509146 93.757994 
L 270.725252 113.137869 
L 257.036502 133.590571 
L 262.927441 154.013971 
L 254.497814 173.39493 
L 253.746667 174.699274 
L 252.472796 173.39493 
L 247.904117 154.013971 
L 250.808617 133.590571 
L 229.883333 114.344306 
L 206.02 122.927409 
L 182.156667 124.366098 
L 158.293333 117.722818 
L 155.541848 113.137869 
L 158.293333 104.37047 
L 169.470689 93.757994 
L 158.293333 80.860497 
L 157.04895 76.198006 
L 146.621416 60.808896 
L 158.293333 49.468608 
L 175.455701 47.600163 
L 158.293333 43.769959 
L 154.271876 36.380776 
L 158.293333 27.488301 
L 159.037803 26.88 
M 243.805926 48.228214 
L 250.379702 47.600163 
L 231.877866 45.765406 
M 238.375752 100.155946 
L 243.585678 93.757994 
L 229.883333 82.17008 
L 206.02 87.409384 
L 195.781611 93.757994 
L 206.02 100.20248 
L 217.18888 105.06182 
" clip-path="url(#p5f12348f2c)" style="fill: none; stroke-dasharray: 1.85,0.8; stroke-dashoffset: 0; stroke: #000000; stroke-width: 0.5"/>
    <path d="M 260.987022 26.88 
L 277.61 32.642569 
L 280.815629 36.380776 
L 277.61 38.151675 
L 253.746667 38.428356 
L 243.840392 37.745856 
M 216.949408 41.795219 
L 206.02 46.029562 
L 188.943654 36.380776 
L 182.156667 27.853359 
L 180.673392 26.88 
M 229.200352 67.275627 
L 206.02 74.827827 
L 192.110019 76.198006 
L 182.156667 79.474127 
L 180.08764 76.198006 
L 158.293333 67.364338 
L 153.996904 60.808896 
L 158.293333 56.63454 
L 182.156667 51.932797 
L 206.02 50.077527 
L 229.883333 58.020428 
L 253.746667 54.164702 
L 275.622443 60.808896 
L 266.046696 76.198006 
L 253.746667 89.494852 
L 249.008298 85.255886 
M 192.091634 114.589119 
L 182.156667 115.499217 
L 173.955699 113.137869 
L 182.156667 104.408371 
L 193.962058 108.612313 
M 244.01566 114.839027 
L 242.260174 113.137869 
L 253.746667 98.509512 
L 261.222515 113.137869 
L 261.20376 113.165794 
" clip-path="url(#p5f12348f2c)" style="fill: none; stroke-dasharray: 1.85,0.8; stroke-dashoffset: 0; stroke: #000000; stroke-width: 0.5"/>
    <path d="M 218.607888 26.88 
L 214.34519 36.380776 
L 206.02 39.644613 
L 200.243686 36.380776 
L 194.948383 26.88 
M 192.618931 65.299108 
L 182.156667 68.13135 
L 166.21518 60.808896 
L 182.156667 56.756508 
L 196.732258 58.82846 
" clip-path="url(#p5f12348f2c)" style="fill: none; stroke-dasharray: 1.85,0.8; stroke-dashoffset: 0; stroke: #000000; stroke-width: 0.5"/>
    <path clip-path="url(#p5f12348f2c)" style="fill: none; stroke-dasharray: 1.85,0.8; stroke-dashoffset: 0; stroke: #000000; stroke-width: 0.5"/>
   </g>
   <g id="patch_3">
    <path d="M 62.84 240.28 
L 62.84 26.88 
" style="fill: none; stroke: #000000; stroke-width: 0.8; stroke-linejoin: miter; stroke-linecap: square"/>
   </g>
   <g id="patch_4">
    <path d="M 349.2 240.28 
L 349.2 26.88 
" style="fill: none; stroke: #000000; stroke-width: 0.8; stroke-linejoin: miter; stroke-linecap: square"/>
   </g>
   <g id="patch_5">
    <path d="M 62.84 240.28 
L 349.2 240.28 
" style="fill: none; stroke: #000000; stroke-width: 0.8; stroke-linejoin: miter; stroke-linecap: square"/>
   </g>
   <g id="patch_6">
    <path d="M 62.84 26.88 
L 349.2 26.88 
" style="fill: none; stroke: #000000; stroke-width: 0.8; stroke-linejoin: miter; stroke-linecap: square"/>
   </g>
   <g id="text_11">
    <!-- Band 315 -->
    <g transform="translate(177.255625 20.88) scale(0.12 -0.12)">
     <defs>
      <path id="DejaVuSans-42" d="M 1259 2228 
L 1259 519 
L 2272 519 
Q 2781 519 3026 730 
Q 3272 941 3272 1375 
Q 3272 1813 3026 2020 
Q 2781 2228 2272 2228 
L 1259 2228 
z
M 1259 4147 
L 1259 2741 
L 2194 2741 
Q 2656 2741 2882 2914 
Q 3109 3088 3109 3444 
Q 3109 3797 2882 3972 
Q 2656 4147 2194 4147 
L 1259 4147 
z
M 628 4666 
L 2241 4666 
Q 2963 4666 3353 4366 
Q 3744 4066 3744 3513 
Q 3744 3084 3544 2831 
Q 3344 2578 2956 2516 
Q 3422 2416 3680 2098 
Q 3938 1781 3938 1306 
Q 3938 681 3513 340 
Q 3088 0 2303 0 
L 628 0 
L 628 4666 
z
" transform="scale(0.015625)"/>
      <path id="DejaVuSans-61" d="M 2194 1759 
Q 1497 1759 1228 1600 
Q 959 1441 959 1056 
Q 959 750 1161 570 
Q 1363 391 1709 391 
Q 2188 391 2477 730 
Q 2766 1069 2766 1631 
L 2766 1759 
L 2194 1759 
z
M 3341 1997 
L 3341 0 
L 2766 0 
L 2766 531 
Q 2569 213 2275 61 
Q 1981 -91 1556 -91 
Q 1019 -91 701 211 
Q 384 513 384 1019 
Q 384 1609 779 1909 
Q 1175 2209 1959 2209 
L 2766 2209 
L 2766 2266 
Q 2766 2663 2505 2880 
Q 2244 3097 1772 3097 
Q 1472 3097 1187 3025 
Q 903 2953 641 2809 
L 641 3341 
Q 956 3463 1253 3523 
Q 1550 3584 1831 3584 
Q 2591 3584 2966 3190 
Q 3341 2797 3341 1997 
z
" transform="scale(0.015625)"/>
      <path id="DejaVuSans-6e" d="M 3513 2113 
L 3513 0 
L 2938 0 
L 2938 2094 
Q 2938 2591 2744 2837 
Q 2550 3084 2163 3084 
Q 1697 3084 1428 2787 
Q 1159 2491 1159 1978 
L 1159 0 
L 581 0 
L 581 3500 
L 1159 3500 
L 1159 2956 
Q 1366 3272 1645 3428 
Q 1925 3584 2291 3584 
Q 2894 3584 3203 3211 
Q 3513 2838 3513 2113 
z
" transform="scale(0.015625)"/>
      <path id="DejaVuSans-64" d="M 2906 2969 
L 2906 4863 
L 3481 4863 
L 3481 0 
L 2906 0 
L 2906 525 
Q 2725 213 2448 61 
Q 2172 -91 1784 -91 
Q 1150 -91 751 415 
Q 353 922 353 1747 
Q 353 2572 751 3078 
Q 1150 3584 1784 3584 
Q 2172 3584 2448 3432 
Q 2725 3281 2906 2969 
z
M 947 1747 
Q 947 1113 1208 752 
Q 1469 391 1925 391 
Q 2381 391 2643 752 
Q 2906 1113 2906 1747 
Q 2906 2381 2643 2742 
Q 2381 3103 1925 3103 
Q 1469 3103 1208 2742 
Q 947 2381 947 1747 
z
" transform="scale(0.015625)"/>
      <path id="DejaVuSans-20" transform="scale(0.015625)"/>
      <path id="DejaVuSans-33" d="M 2597 2516 
Q 3050 2419 3304 2112 
Q 3559 1806 3559 1356 
Q 3559 666 3084 287 
Q 2609 -91 1734 -91 
Q 1441 -91 1130 -33 
Q 819 25 488 141 
L 488 750 
Q 750 597 1062 519 
Q 1375 441 1716 441 
Q 2309 441 2620 675 
Q 2931 909 2931 1356 
Q 2931 1769 2642 2001 
Q 2353 2234 1838 2234 
L 1294 2234 
L 1294 2753 
L 1863 2753 
Q 2328 2753 2575 2939 
Q 2822 3125 2822 3475 
Q 2822 3834 2567 4026 
Q 2313 4219 1838 4219 
Q 1578 4219 1281 4162 
Q 984 4106 628 3988 
L 628 4550 
Q 988 4650 1302 4700 
Q 1616 4750 1894 4750 
Q 2613 4750 3031 4423 
Q 3450 4097 3450 3541 
Q 3450 3153 3228 2886 
Q 3006 2619 2597 2516 
z
" transform="scale(0.015625)"/>
      <path id="DejaVuSans-31" d="M 794 531 
L 1825 531 
L 1825 4091 
L 703 3866 
L 703 4441 
L 1819 4666 
L 2450 4666 
L 2450 531 
L 3481 531 
L 3481 0 
L 794 0 
L 794 531 
z
" transform="scale(0.015625)"/>
     </defs>
     <use xlink:href="#DejaVuSans-42"/>
     <use xlink:href="#DejaVuSans-61" transform="translate(68.603516 0)"/>
     <use xlink:href="#DejaVuSans-6e" transform="translate(129.882812 0)"/>
     <use xlink:href="#DejaVuSans-64" transform="translate(193.261719 0)"/>
     <use xlink:href="#DejaVuSans-20" transform="translate(256.738281 0)"/>
     <use xlink:href="#DejaVuSans-33" transform="translate(288.525391 0)"/>
     <use xlink:href="#DejaVuSans-31" transform="translate(352.148438 0)"/>
     <use xlink:href="#DejaVuSans-35" transform="translate(415.771484 0)"/>
    </g>
   </g>
   <g id="text_12">
    <g clip-path="url(#p5f12348f2c)">
     <!-- 58.4 -->
     <g transform="translate(321.729531 123.571075) rotate(-270.000819) scale(0.09 -0.09)">
      <defs>
       <path id="DejaVuSans-38" d="M 2034 2216 
Q 1584 2216 1326 1975 
Q 1069 1734 1069 1313 
Q 1069 891 1326 650 
Q 1584 409 2034 409 
Q 2484 409 2743 651 
Q 3003 894 3003 1313 
Q 3003 1734 2745 1975 
Q 2488 2216 2034 2216 
z
M 1403 2484 
Q 997 2584 770 2862 
Q 544 3141 544 3541 
Q 544 4100 942 4425 
Q 1341 4750 2034 4750 
Q 2731 4750 3128 4425 
Q 3525 4100 3525 3541 
Q 3525 3141 3298 2862 
Q 3072 2584 2669 2484 
Q 3125 2378 3379 2068 
Q 3634 1759 3634 1313 
Q 3634 634 3220 271 
Q 2806 -91 2034 -91 
Q 1263 -91 848 271 
Q 434 634 434 1313 
Q 434 1759 690 2068 
Q 947 2378 1403 2484 
z
M 1172 3481 
Q 1172 3119 1398 2916 
Q 1625 2713 2034 2713 
Q 2441 2713 2670 2916 
Q 2900 3119 2900 3481 
Q 2900 3844 2670 4047 
Q 2441 4250 2034 4250 
Q 1625 4250 1398 4047 
Q 1172 3844 1172 3481 
z
" transform="scale(0.015625)"/>
       <path id="DejaVuSans-2e" d="M 684 794 
L 1344 794 
L 1344 0 
L 684 0 
L 684 794 
z
" transform="scale(0.015625)"/>
      </defs>
      <use xlink:href="#DejaVuSans-35"/>
      <use xlink:href="#DejaVuSans-38" transform="translate(63.623047 0)"/>
      <use xlink:href="#DejaVuSans-2e" transform="translate(127.246094 0)"/>
      <use xlink:href="#DejaVuSans-34" transform="translate(159.033203 0)"/>
     </g>
    </g>
   </g>
   <g id="text_13">
    <g clip-path="url(#p5f12348f2c)">
     <!-- 58.4 -->
     <g transform="translate(85.64932 123.574626) rotate(-270.082495) scale(0.09 -0.09)">
      <use xlink:href="#DejaVuSans-35"/>
      <use xlink:href="#DejaVuSans-38" transform="translate(63.623047 0)"/>
      <use xlink:href="#DejaVuSans-2e" transform="translate(127.246094 0)"/>
      <use xlink:href="#DejaVuSans-34" transform="translate(159.033203 0)"/>
     </g>
    </g>
   </g>
   <g id="text_14">
    <g clip-path="url(#p5f12348f2c)">
     <!-- 59.2 -->
     <g transform="translate(320.25859 123.571121) rotate(-270.001892) scale(0.09 -0.09)">
      <defs>
       <path id="DejaVuSans-39" d="M 703 97 
L 703 672 
Q 941 559 1184 500 
Q 1428 441 1663 441 
Q 2288 441 2617 861 
Q 2947 1281 2994 2138 
Q 2813 1869 2534 1725 
Q 2256 1581 1919 1581 
Q 1219 1581 811 2004 
Q 403 2428 403 3163 
Q 403 3881 828 4315 
Q 1253 4750 1959 4750 
Q 2769 4750 3195 4129 
Q 3622 3509 3622 2328 
Q 3622 1225 3098 567 
Q 2575 -91 1691 -91 
Q 1453 -91 1209 -44 
Q 966 3 703 97 
z
M 1959 2075 
Q 2384 2075 2632 2365 
Q 2881 2656 2881 3163 
Q 2881 3666 2632 3958 
Q 2384 4250 1959 4250 
Q 1534 4250 1286 3958 
Q 1038 3666 1038 3163 
Q 1038 2656 1286 2365 
Q 1534 2075 1959 2075 
z
" transform="scale(0.015625)"/>
      </defs>
      <use xlink:href="#DejaVuSans-35"/>
      <use xlink:href="#DejaVuSans-39" transform="translate(63.623047 0)"/>
      <use xlink:href="#DejaVuSans-2e" transform="translate(127.246094 0)"/>
      <use xlink:href="#DejaVuSans-32" transform="translate(159.033203 0)"/>
     </g>
    </g>
   </g>
   <g id="text_15">
    <g clip-path="url(#p5f12348f2c)">
     <!-- 59.2 -->
     <g transform="translate(87.520469 123.579351) rotate(-270.190481) scale(0.09 -0.09)">
      <use xlink:href="#DejaVuSans-35"/>
      <use xlink:href="#DejaVuSans-39" transform="translate(63.623047 0)"/>
      <use xlink:href="#DejaVuSans-2e" transform="translate(127.246094 0)"/>
      <use xlink:href="#DejaVuSans-32" transform="translate(159.033203 0)"/>
     </g>
    </g>
   </g>
   <g id="text_16">
    <g clip-path="url(#p5f12348f2c)">
     <!-- 60.0 -->
     <g transform="translate(318.78765 123.571168) rotate(-270.002964) scale(0.09 -0.09)">
      <defs>
       <path id="DejaVuSans-36" d="M 2113 2584 
Q 1688 2584 1439 2293 
Q 1191 2003 1191 1497 
Q 1191 994 1439 701 
Q 1688 409 2113 409 
Q 2538 409 2786 701 
Q 3034 994 3034 1497 
Q 3034 2003 2786 2293 
Q 2538 2584 2113 2584 
z
M 3366 4563 
L 3366 3988 
Q 3128 4100 2886 4159 
Q 2644 4219 2406 4219 
Q 1781 4219 1451 3797 
Q 1122 3375 1075 2522 
Q 1259 2794 1537 2939 
Q 1816 3084 2150 3084 
Q 2853 3084 3261 2657 
Q 3669 2231 3669 1497 
Q 3669 778 3244 343 
Q 2819 -91 2113 -91 
Q 1303 -91 875 529 
Q 447 1150 447 2328 
Q 447 3434 972 4092 
Q 1497 4750 2381 4750 
Q 2619 4750 2861 4703 
Q 3103 4656 3366 4563 
z
" transform="scale(0.015625)"/>
      </defs>
      <use xlink:href="#DejaVuSans-36"/>
      <use xlink:href="#DejaVuSans-30" transform="translate(63.623047 0)"/>
      <use xlink:href="#DejaVuSans-2e" transform="translate(127.246094 0)"/>
      <use xlink:href="#DejaVuSans-30" transform="translate(159.033203 0)"/>
     </g>
    </g>
   </g>
   <g id="text_17">
    <g clip-path="url(#p5f12348f2c)">
     <!-- 60.0 -->
     <g transform="translate(89.391627 123.584112) rotate(-270.298466) scale(0.09 -0.09)">
      <use xlink:href="#DejaVuSans-36"/>
      <use xlink:href="#DejaVuSans-30" transform="translate(63.623047 0)"/>
      <use xlink:href="#DejaVuSans-2e" transform="translate(127.246094 0)"/>
      <use xlink:href="#DejaVuSans-30" transform="translate(159.033203 0)"/>
     </g>
    </g>
   </g>
   <g id="text_18">
    <g clip-path="url(#p5f12348f2c)">
     <!-- 60.8 -->
     <g transform="translate(317.316709 123.571214) rotate(-270.004036) scale(0.09 -0.09)">
      <use xlink:href="#DejaVuSans-36"/>
      <use xlink:href="#DejaVuSans-30" transform="translate(63.623047 0)"/>
      <use xlink:href="#DejaVuSans-2e" transform="translate(127.246094 0)"/>
      <use xlink:href="#DejaVuSans-38" transform="translate(159.033203 0)"/>
     </g>
    </g>
   </g>
   <g id="text_19">
    <g clip-path="url(#p5f12348f2c)">
     <!-- 60.8 -->
     <g transform="translate(91.262795 123.588909) rotate(-270.406449) scale(0.09 -0.09)">
      <use xlink:href="#DejaVuSans-36"/>
      <use xlink:href="#DejaVuSans-30" transform="translate(63.623047 0)"/>
      <use xlink:href="#DejaVuSans-2e" transform="translate(127.246094 0)"/>
      <use xlink:href="#DejaVuSans-38" transform="translate(159.033203 0)"/>
     </g>
    </g>
   </g>
   <g id="text_20">
    <g clip-path="url(#p5f12348f2c)">
     <!-- 61.6 -->
     <g transform="translate(315.845768 123.571261) rotate(-270.005108) scale(0.09 -0.09)">
      <use xlink:href="#DejaVuSans-36"/>
      <use xlink:href="#DejaVuSans-31" transform="translate(63.623047 0)"/>
      <use xlink:href="#DejaVuSans-2e" transform="translate(127.246094 0)"/>
      <use xlink:href="#DejaVuSans-36" transform="translate(159.033203 0)"/>
     </g>
    </g>
   </g>
   <g id="text_21">
    <g clip-path="url(#p5f12348f2c)">
     <!-- 61.6 -->
     <g transform="translate(93.133972 123.59374) rotate(-270.514428) scale(0.09 -0.09)">
      <use xlink:href="#DejaVuSans-36"/>
      <use xlink:href="#DejaVuSans-31" transform="translate(63.623047 0)"/>
      <use xlink:href="#DejaVuSans-2e" transform="translate(127.246094 0)"/>
      <use xlink:href="#DejaVuSans-36" transform="translate(159.033203 0)"/>
     </g>
    </g>
   </g>
   <g id="text_22">
    <g clip-path="url(#p5f12348f2c)">
     <!-- 62.4 -->
     <g transform="translate(314.374828 123.571307) rotate(-270.00618) scale(0.09 -0.09)">
      <use xlink:href="#DejaVuSans-36"/>
      <use xlink:href="#DejaVuSans-32" transform="translate(63.623047 0)"/>
      <use xlink:href="#DejaVuSans-2e" transform="translate(127.246094 0)"/>
      <use xlink:href="#DejaVuSans-34" transform="translate(159.033203 0)"/>
     </g>
    </g>
   </g>
   <g id="text_23">
    <g clip-path="url(#p5f12348f2c)">
     <!-- 62.4 -->
     <g transform="translate(95.005159 123.598608) rotate(-270.622403) scale(0.09 -0.09)">
      <use xlink:href="#DejaVuSans-36"/>
      <use xlink:href="#DejaVuSans-32" transform="translate(63.623047 0)"/>
      <use xlink:href="#DejaVuSans-2e" transform="translate(127.246094 0)"/>
      <use xlink:href="#DejaVuSans-34" transform="translate(159.033203 0)"/>
     </g>
    </g>
   </g>
   <g id="text_24">
    <g clip-path="url(#p5f12348f2c)">
     <!-- 63.2 -->
     <g transform="translate(312.903887 123.571354) rotate(-270.007251) scale(0.09 -0.09)">
      <use xlink:href="#DejaVuSans-36"/>
      <use xlink:href="#DejaVuSans-33" transform="translate(63.623047 0)"/>
      <use xlink:href="#DejaVuSans-2e" transform="translate(127.246094 0)"/>
      <use xlink:href="#DejaVuSans-32" transform="translate(159.033203 0)"/>
     </g>
    </g>
   </g>
   <g id="text_25">
    <g clip-path="url(#p5f12348f2c)">
     <!-- 63.2 -->
     <g transform="translate(96.876356 123.60351) rotate(-270.730373) scale(0.09 -0.09)">
      <use xlink:href="#DejaVuSans-36"/>
      <use xlink:href="#DejaVuSans-33" transform="translate(63.623047 0)"/>
      <use xlink:href="#DejaVuSans-2e" transform="translate(127.246094 0)"/>
      <use xlink:href="#DejaVuSans-32" transform="translate(159.033203 0)"/>
     </g>
    </g>
   </g>
   <g id="text_26">
    <g clip-path="url(#p5f12348f2c)">
     <!-- 64.0 -->
     <g transform="translate(311.432947 123.5714) rotate(-270.008322) scale(0.09 -0.09)">
      <use xlink:href="#DejaVuSans-36"/>
      <use xlink:href="#DejaVuSans-34" transform="translate(63.623047 0)"/>
      <use xlink:href="#DejaVuSans-2e" transform="translate(127.246094 0)"/>
      <use xlink:href="#DejaVuSans-30" transform="translate(159.033203 0)"/>
     </g>
    </g>
   </g>
   <g id="text_27">
    <g clip-path="url(#p5f12348f2c)">
     <!-- 64.0 -->
     <g transform="translate(98.747564 123.608448) rotate(-270.838337) scale(0.09 -0.09)">
      <use xlink:href="#DejaVuSans-36"/>
      <use xlink:href="#DejaVuSans-34" transform="translate(63.623047 0)"/>
      <use xlink:href="#DejaVuSans-2e" transform="translate(127.246094 0)"/>
      <use xlink:href="#DejaVuSans-30" transform="translate(159.033203 0)"/>
     </g>
    </g>
   </g>
   <g id="text_28">
    <g clip-path="url(#p5f12348f2c)">
     <!-- 64.8 -->
     <g transform="translate(309.962006 123.571447) rotate(-270.009393) scale(0.09 -0.09)">
      <use xlink:href="#DejaVuSans-36"/>
      <use xlink:href="#DejaVuSans-34" transform="translate(63.623047 0)"/>
      <use xlink:href="#DejaVuSans-2e" transform="translate(127.246094 0)"/>
      <use xlink:href="#DejaVuSans-38" transform="translate(159.033203 0)"/>
     </g>
    </g>
   </g>
   <g id="text_29">
    <g clip-path="url(#p5f12348f2c)">
     <!-- 64.8 -->
     <g transform="translate(105.899151 164.101329) rotate(-88.337641) scale(0.09 -0.09)">
      <use xlink:href="#DejaVuSans-36"/>
      <use xlink:href="#DejaVuSans-34" transform="translate(63.623047 0)"/>
      <use xlink:href="#DejaVuSans-2e" transform="translate(127.246094 0)"/>
      <use xlink:href="#DejaVuSans-38" transform="translate(159.033203 0)"/>
     </g>
    </g>
   </g>
   <g id="text_30">
    <g clip-path="url(#p5f12348f2c)">
     <!-- 65.6 -->
     <g transform="translate(308.491066 123.571493) rotate(-270.010462) scale(0.09 -0.09)">
      <use xlink:href="#DejaVuSans-36"/>
      <use xlink:href="#DejaVuSans-35" transform="translate(63.623047 0)"/>
      <use xlink:href="#DejaVuSans-2e" transform="translate(127.246094 0)"/>
      <use xlink:href="#DejaVuSans-36" transform="translate(159.033203 0)"/>
     </g>
    </g>
   </g>
   <g id="text_31">
    <g clip-path="url(#p5f12348f2c)">
     <!-- 65.6 -->
     <g transform="translate(107.806191 164.108484) rotate(-88.149164) scale(0.09 -0.09)">
      <use xlink:href="#DejaVuSans-36"/>
      <use xlink:href="#DejaVuSans-35" transform="translate(63.623047 0)"/>
      <use xlink:href="#DejaVuSans-2e" transform="translate(127.246094 0)"/>
      <use xlink:href="#DejaVuSans-36" transform="translate(159.033203 0)"/>
     </g>
    </g>
   </g>
   <g id="text_32">
    <g clip-path="url(#p5f12348f2c)">
     <!-- 66.4 -->
     <g transform="translate(307.020126 123.57154) rotate(-270.011532) scale(0.09 -0.09)">
      <use xlink:href="#DejaVuSans-36"/>
      <use xlink:href="#DejaVuSans-36" transform="translate(63.623047 0)"/>
      <use xlink:href="#DejaVuSans-2e" transform="translate(127.246094 0)"/>
      <use xlink:href="#DejaVuSans-34" transform="translate(159.033203 0)"/>
     </g>
    </g>
   </g>
   <g id="text_33">
    <g clip-path="url(#p5f12348f2c)">
     <!-- 66.4 -->
     <g transform="translate(102.291631 163.615969) rotate(-274.758832) scale(0.09 -0.09)">
      <use xlink:href="#DejaVuSans-36"/>
      <use xlink:href="#DejaVuSans-36" transform="translate(63.623047 0)"/>
      <use xlink:href="#DejaVuSans-2e" transform="translate(127.246094 0)"/>
      <use xlink:href="#DejaVuSans-34" transform="translate(159.033203 0)"/>
     </g>
    </g>
   </g>
   <g id="text_34">
    <g clip-path="url(#p5f12348f2c)">
     <!-- 67.2 -->
     <g transform="translate(305.549186 123.571586) rotate(-270.0126) scale(0.09 -0.09)">
      <defs>
       <path id="DejaVuSans-37" d="M 525 4666 
L 3525 4666 
L 3525 4397 
L 1831 0 
L 1172 0 
L 2766 4134 
L 525 4134 
L 525 4666 
z
" transform="scale(0.015625)"/>
      </defs>
      <use xlink:href="#DejaVuSans-36"/>
      <use xlink:href="#DejaVuSans-37" transform="translate(63.623047 0)"/>
      <use xlink:href="#DejaVuSans-2e" transform="translate(127.246094 0)"/>
      <use xlink:href="#DejaVuSans-32" transform="translate(159.033203 0)"/>
     </g>
    </g>
   </g>
   <g id="text_35">
    <g clip-path="url(#p5f12348f2c)">
     <!-- 67.2 -->
     <g transform="translate(119.026134 187.331467) rotate(-325.520885) scale(0.09 -0.09)">
      <use xlink:href="#DejaVuSans-36"/>
      <use xlink:href="#DejaVuSans-37" transform="translate(63.623047 0)"/>
      <use xlink:href="#DejaVuSans-2e" transform="translate(127.246094 0)"/>
      <use xlink:href="#DejaVuSans-32" transform="translate(159.033203 0)"/>
     </g>
    </g>
   </g>
   <g id="text_36">
    <g clip-path="url(#p5f12348f2c)">
     <!-- 68.0 -->
     <g transform="translate(304.078246 123.571632) rotate(-270.013668) scale(0.09 -0.09)">
      <use xlink:href="#DejaVuSans-36"/>
      <use xlink:href="#DejaVuSans-38" transform="translate(63.623047 0)"/>
      <use xlink:href="#DejaVuSans-2e" transform="translate(127.246094 0)"/>
      <use xlink:href="#DejaVuSans-30" transform="translate(159.033203 0)"/>
     </g>
    </g>
   </g>
   <g id="text_37">
    <g clip-path="url(#p5f12348f2c)">
     <!-- 68.0 -->
     <g transform="translate(104.375243 169.226476) rotate(-39.224642) scale(0.09 -0.09)">
      <use xlink:href="#DejaVuSans-36"/>
      <use xlink:href="#DejaVuSans-38" transform="translate(63.623047 0)"/>
      <use xlink:href="#DejaVuSans-2e" transform="translate(127.246094 0)"/>
      <use xlink:href="#DejaVuSans-30" transform="translate(159.033203 0)"/>
     </g>
    </g>
   </g>
   <g id="text_38">
    <g clip-path="url(#p5f12348f2c)">
     <!-- 68.8 -->
     <g transform="translate(301.787343 241.087382) rotate(-73.15701) scale(0.09 -0.09)">
      <use xlink:href="#DejaVuSans-36"/>
      <use xlink:href="#DejaVuSans-38" transform="translate(63.623047 0)"/>
      <use xlink:href="#DejaVuSans-2e" transform="translate(127.246094 0)"/>
      <use xlink:href="#DejaVuSans-38" transform="translate(159.033203 0)"/>
     </g>
    </g>
   </g>
   <g id="text_39">
    <g clip-path="url(#p5f12348f2c)">
     <!-- 69.6 -->
     <g transform="translate(268.002889 186.152233) rotate(-7.538685) scale(0.09 -0.09)">
      <use xlink:href="#DejaVuSans-36"/>
      <use xlink:href="#DejaVuSans-39" transform="translate(63.623047 0)"/>
      <use xlink:href="#DejaVuSans-2e" transform="translate(127.246094 0)"/>
      <use xlink:href="#DejaVuSans-36" transform="translate(159.033203 0)"/>
     </g>
    </g>
   </g>
   <g id="text_40">
    <g clip-path="url(#p5f12348f2c)">
     <!-- 70.4 -->
     <g transform="translate(299.989434 51.24013) rotate(-278.113144) scale(0.09 -0.09)">
      <use xlink:href="#DejaVuSans-37"/>
      <use xlink:href="#DejaVuSans-30" transform="translate(63.623047 0)"/>
      <use xlink:href="#DejaVuSans-2e" transform="translate(127.246094 0)"/>
      <use xlink:href="#DejaVuSans-34" transform="translate(159.033203 0)"/>
     </g>
    </g>
   </g>
   <g id="text_41">
    <g clip-path="url(#p5f12348f2c)">
     <!-- 70.4 -->
     <g transform="translate(220.111729 167.360456) rotate(-4.885896) scale(0.09 -0.09)">
      <use xlink:href="#DejaVuSans-37"/>
      <use xlink:href="#DejaVuSans-30" transform="translate(63.623047 0)"/>
      <use xlink:href="#DejaVuSans-2e" transform="translate(127.246094 0)"/>
      <use xlink:href="#DejaVuSans-34" transform="translate(159.033203 0)"/>
     </g>
    </g>
   </g>
   <g id="text_42">
    <g clip-path="url(#p5f12348f2c)">
     <!-- 71.2 -->
     <g transform="translate(268.241099 143.794444) rotate(-84.781736) scale(0.09 -0.09)">
      <use xlink:href="#DejaVuSans-37"/>
      <use xlink:href="#DejaVuSans-31" transform="translate(63.623047 0)"/>
      <use xlink:href="#DejaVuSans-2e" transform="translate(127.246094 0)"/>
      <use xlink:href="#DejaVuSans-32" transform="translate(159.033203 0)"/>
     </g>
    </g>
   </g>
   <g id="text_43">
    <g clip-path="url(#p5f12348f2c)">
     <!-- 71.2 -->
     <g transform="translate(172.145467 180.062935) rotate(-0.190927) scale(0.09 -0.09)">
      <use xlink:href="#DejaVuSans-37"/>
      <use xlink:href="#DejaVuSans-31" transform="translate(63.623047 0)"/>
      <use xlink:href="#DejaVuSans-2e" transform="translate(127.246094 0)"/>
      <use xlink:href="#DejaVuSans-32" transform="translate(159.033203 0)"/>
     </g>
    </g>
   </g>
   <g id="text_44">
    <g clip-path="url(#p5f12348f2c)">
     <!-- 72.0 -->
     <g transform="translate(256.843958 57.719311) rotate(-87.476786) scale(0.09 -0.09)">
      <use xlink:href="#DejaVuSans-37"/>
      <use xlink:href="#DejaVuSans-32" transform="translate(63.623047 0)"/>
      <use xlink:href="#DejaVuSans-2e" transform="translate(127.246094 0)"/>
      <use xlink:href="#DejaVuSans-30" transform="translate(159.033203 0)"/>
     </g>
    </g>
   </g>
   <g id="text_45">
    <g clip-path="url(#p5f12348f2c)">
     <!-- 72.0 -->
     <g transform="translate(219.564175 49.82935) rotate(-347.58351) scale(0.09 -0.09)">
      <use xlink:href="#DejaVuSans-37"/>
      <use xlink:href="#DejaVuSans-32" transform="translate(63.623047 0)"/>
      <use xlink:href="#DejaVuSans-2e" transform="translate(127.246094 0)"/>
      <use xlink:href="#DejaVuSans-30" transform="translate(159.033203 0)"/>
     </g>
    </g>
   </g>
   <g id="text_46">
    <g clip-path="url(#p5f12348f2c)">
     <!-- 72.0 -->
     <g transform="translate(220.751515 115.398255) rotate(-13.872801) scale(0.09 -0.09)">
      <use xlink:href="#DejaVuSans-37"/>
      <use xlink:href="#DejaVuSans-32" transform="translate(63.623047 0)"/>
      <use xlink:href="#DejaVuSans-2e" transform="translate(127.246094 0)"/>
      <use xlink:href="#DejaVuSans-30" transform="translate(159.033203 0)"/>
     </g>
    </g>
   </g>
   <g id="text_47">
    <g clip-path="url(#p5f12348f2c)">
     <!-- 72.8 -->
     <g transform="translate(220.384409 40.825177) rotate(-9.124444) scale(0.09 -0.09)">
      <use xlink:href="#DejaVuSans-37"/>
      <use xlink:href="#DejaVuSans-32" transform="translate(63.623047 0)"/>
      <use xlink:href="#DejaVuSans-2e" transform="translate(127.246094 0)"/>
      <use xlink:href="#DejaVuSans-38" transform="translate(159.033203 0)"/>
     </g>
    </g>
   </g>
   <g id="text_48">
    <g clip-path="url(#p5f12348f2c)">
     <!-- 72.8 -->
     <g transform="translate(230.087244 70.795407) rotate(-314.520663) scale(0.09 -0.09)">
      <use xlink:href="#DejaVuSans-37"/>
      <use xlink:href="#DejaVuSans-32" transform="translate(63.623047 0)"/>
      <use xlink:href="#DejaVuSans-2e" transform="translate(127.246094 0)"/>
      <use xlink:href="#DejaVuSans-38" transform="translate(159.033203 0)"/>
     </g>
    </g>
   </g>
   <g id="text_49">
    <g clip-path="url(#p5f12348f2c)">
     <!-- 72.8 -->
     <g transform="translate(205.052226 123.590455) rotate(-70.699744) scale(0.09 -0.09)">
      <use xlink:href="#DejaVuSans-37"/>
      <use xlink:href="#DejaVuSans-32" transform="translate(63.623047 0)"/>
      <use xlink:href="#DejaVuSans-2e" transform="translate(127.246094 0)"/>
      <use xlink:href="#DejaVuSans-38" transform="translate(159.033203 0)"/>
     </g>
    </g>
   </g>
   <g id="text_50">
    <g clip-path="url(#p5f12348f2c)">
     <!-- 72.8 -->
     <g transform="translate(244.03719 127.773813) rotate(-5.927817) scale(0.09 -0.09)">
      <use xlink:href="#DejaVuSans-37"/>
      <use xlink:href="#DejaVuSans-32" transform="translate(63.623047 0)"/>
      <use xlink:href="#DejaVuSans-2e" transform="translate(127.246094 0)"/>
      <use xlink:href="#DejaVuSans-38" transform="translate(159.033203 0)"/>
     </g>
    </g>
   </g>
   <g id="text_51">
    <g clip-path="url(#p5f12348f2c)">
     <!-- 73.6 -->
     <g transform="translate(201.744888 71.067145) rotate(-51.613684) scale(0.09 -0.09)">
      <use xlink:href="#DejaVuSans-37"/>
      <use xlink:href="#DejaVuSans-33" transform="translate(63.623047 0)"/>
      <use xlink:href="#DejaVuSans-2e" transform="translate(127.246094 0)"/>
      <use xlink:href="#DejaVuSans-36" transform="translate(159.033203 0)"/>
     </g>
    </g>
   </g>
  </g>
 </g>
 <defs>
  <clipPath id="p5f12348f2c">
   <rect x="62.84" y="26.88" width="286.36" height="213.4"/>
  </clipPath>
 </defs>
</svg>
