<?xml version="1.0" encoding="utf-8" standalone="no"?>
<!DOCTYPE svg PUBLIC "-//W3C//DTD SVG 1.1//EN"
  "http://www.w3.org/Graphics/SVG/1.1/DTD/svg11.dtd">
<svg xmlns:xlink="http://www.w3.org/1999/xlink" width="360pt" height="288pt" viewBox="0 0 360 288" xmlns="http://www.w3.org/2000/svg" version="1.1">
 <metadata>
  <rdf:RDF xmlns:dc="http://purl.org/dc/elements/1.1/" xmlns:cc="http://creativecommons.org/ns#" xmlns:rdf="http://www.w3.org/1999/02/22-rdf-syntax-ns#">
   <cc:Work>
    <dc:type rdf:resource="http://purl.org/dc/dcmitype/StillImage"/>
    <dc:date>2025-10-02T17:14:35.087473</dc:date>
    <dc:format>image/svg+xml</dc:format>
    <dc:creator>
     <cc:Agent>
      <dc:title>Matplotlib v3.10.6, https://matplotlib.org/</dc:title>
     </cc:Agent>
    </dc:creator>
   </cc:Work>
  </rdf:RDF>
 </metadata>
 <defs>
  <style type="text/css">*{stroke-linejoin: round; stroke-linecap: butt}</style>
 </defs>
 <g id="figure_1">
  <g id="patch_1">
   <path d="M 0 288 
L 360 288 
L 360 0 
L 0 0 
z
" style="fill: #ffffff"/>
  </g>
  <g id="axes_1">
   <g id="patch_2">
    <path d="M 62.84 240.28 
L 349.2 240.28 
L 349.2 26.88 
L 62.84 26.88 
z
" style="fill: #ffffff"/>
   </g>
   <g id="QuadContourSet_1">
    <path d="M 86.703333 26.88 
L 86.951512 26.88 
L 86.894906 36.380776 
L 86.925167 47.600163 
L 86.948467 60.808896 
L 87.008243 76.198006 
L 86.881526 93.757994 
L 86.913417 113.137869 
L 86.881588 133.590571 
L 86.924795 154.013971 
L 86.900197 173.39493 
L 86.949262 190.956403 
L 86.935906 206.347113 
L 86.979471 219.557363 
L 87.0085 230.778089 
L 86.952714 240.28 
L 86.703333 240.28 
L 62.84 240.28 
L 62.84 230.778089 
L 62.84 219.557363 
L 62.84 206.347113 
L 62.84 190.956403 
L 62.84 173.39493 
L 62.84 154.013971 
L 62.84 133.590571 
L 62.84 113.137869 
L 62.84 93.757994 
L 62.84 76.198006 
L 62.84 60.808896 
L 62.84 47.600163 
L 62.84 36.380776 
L 62.84 26.88 
z
M 325.336667 26.88 
L 349.2 26.88 
L 349.2 36.380776 
L 349.2 47.600163 
L 349.2 60.808896 
L 349.2 76.198006 
L 349.2 93.757994 
L 349.2 113.137869 
L 349.2 133.590571 
L 349.2 154.013971 
L 349.2 173.39493 
L 349.2 190.956403 
L 349.2 206.347113 
L 349.2 219.557363 
L 349.2 230.778089 
L 349.2 240.28 
L 325.336667 240.28 
L 325.120238 240.28 
L 325.094025 230.778089 
L 325.113797 219.557363 
L 325.136893 206.347113 
L 325.11613 190.956403 
L 325.134079 173.39493 
L 325.175714 154.013971 
L 325.149071 133.590571 
L 325.161983 113.137869 
L 325.120812 93.757994 
L 325.144241 76.198006 
L 325.124687 60.808896 
L 325.126603 47.600163 
L 325.052163 36.380776 
L 325.1189 26.88 
z
" clip-path="url(#pec4968885c)" style="fill: #460b5e"/>
    <path d="M 88.89232 36.380776 
L 89.23809 47.600163 
L 89.504326 60.808896 
L 90.187348 76.198006 
L 88.739425 93.757994 
L 89.103831 113.137869 
L 88.740142 133.590571 
L 89.233836 154.013971 
L 88.95277 173.39493 
L 89.513411 190.956403 
L 89.360797 206.347113 
L 89.858581 219.557363 
L 90.190277 230.778089 
L 89.552848 240.28 
L 86.952714 240.28 
L 87.0085 230.778089 
L 86.979471 219.557363 
L 86.935906 206.347113 
L 86.949262 190.956403 
L 86.900197 173.39493 
L 86.924795 154.013971 
L 86.881588 133.590571 
L 86.913417 113.137869 
L 86.881526 93.757994 
L 87.008243 76.198006 
L 86.948467 60.808896 
L 86.925167 47.600163 
L 86.894906 36.380776 
L 86.951512 26.88 
L 89.539112 26.88 
z
M 325.052163 36.380776 
L 325.126603 47.600163 
L 325.124687 60.808896 
L 325.144241 76.198006 
L 325.120812 93.757994 
L 325.161983 113.137869 
L 325.149071 133.590571 
L 325.175714 154.013971 
L 325.134079 173.39493 
L 325.11613 190.956403 
L 325.136893 206.347113 
L 325.113797 219.557363 
L 325.094025 230.778089 
L 325.120238 240.28 
L 322.863667 240.28 
L 322.564152 230.778089 
L 322.790072 219.557363 
L 323.053977 206.347113 
L 322.816727 190.956403 
L 323.021825 173.39493 
L 323.497567 154.013971 
L 323.19313 133.590571 
L 323.340667 113.137869 
L 322.870228 93.757994 
L 323.137939 76.198006 
L 322.914511 60.808896 
L 322.936396 47.600163 
L 322.085816 36.380776 
L 322.848382 26.88 
L 325.1189 26.88 
z
" clip-path="url(#pec4968885c)" style="fill: #481f70"/>
    <path d="M 90.889733 36.380776 
L 91.551013 47.600163 
L 92.060185 60.808896 
L 93.366453 76.198006 
L 90.597325 93.757994 
L 91.294245 113.137869 
L 90.598696 133.590571 
L 91.542877 154.013971 
L 91.005344 173.39493 
L 92.07756 190.956403 
L 91.785689 206.347113 
L 92.737692 219.557363 
L 93.372055 230.778089 
L 92.152982 240.28 
L 89.552848 240.28 
L 90.190277 230.778089 
L 89.858581 219.557363 
L 89.360797 206.347113 
L 89.513411 190.956403 
L 88.95277 173.39493 
L 89.233836 154.013971 
L 88.740142 133.590571 
L 89.103831 113.137869 
L 88.739425 93.757994 
L 90.187348 76.198006 
L 89.504326 60.808896 
L 89.23809 47.600163 
L 88.89232 36.380776 
L 89.539112 26.88 
L 92.126712 26.88 
z
M 322.085816 36.380776 
L 322.936396 47.600163 
L 322.914511 60.808896 
L 323.137939 76.198006 
L 322.870228 93.757994 
L 323.340667 113.137869 
L 323.19313 133.590571 
L 323.497567 154.013971 
L 323.021825 173.39493 
L 322.816727 190.956403 
L 323.053977 206.347113 
L 322.790072 219.557363 
L 322.564152 230.778089 
L 322.863667 240.28 
L 320.607096 240.28 
L 320.034279 230.778089 
L 320.466347 219.557363 
L 320.971062 206.347113 
L 320.517325 190.956403 
L 320.909572 173.39493 
L 321.819419 154.013971 
L 321.237189 133.590571 
L 321.519351 113.137869 
L 320.619644 93.757994 
L 321.131637 76.198006 
L 320.704335 60.808896 
L 320.74619 47.600163 
L 319.119469 36.380776 
L 320.577863 26.88 
L 322.848382 26.88 
z
" clip-path="url(#pec4968885c)" style="fill: #46307e"/>
    <path d="M 92.887146 36.380776 
L 93.863936 47.600163 
L 94.616043 60.808896 
L 96.545558 76.198006 
L 92.455225 93.757994 
L 93.484658 113.137869 
L 92.457249 133.590571 
L 93.851919 154.013971 
L 93.057918 173.39493 
L 94.641709 190.956403 
L 94.21058 206.347113 
L 95.616803 219.557363 
L 96.553833 230.778089 
L 94.753116 240.28 
L 92.152982 240.28 
L 93.372055 230.778089 
L 92.737692 219.557363 
L 91.785689 206.347113 
L 92.07756 190.956403 
L 91.005344 173.39493 
L 91.542877 154.013971 
L 90.598696 133.590571 
L 91.294245 113.137869 
L 90.597325 93.757994 
L 93.366453 76.198006 
L 92.060185 60.808896 
L 91.551013 47.600163 
L 90.889733 36.380776 
L 92.126712 26.88 
L 94.714312 26.88 
z
M 319.119469 36.380776 
L 320.74619 47.600163 
L 320.704335 60.808896 
L 321.131637 76.198006 
L 320.619644 93.757994 
L 321.519351 113.137869 
L 321.237189 133.590571 
L 321.819419 154.013971 
L 320.909572 173.39493 
L 320.517325 190.956403 
L 320.971062 206.347113 
L 320.466347 219.557363 
L 320.034279 230.778089 
L 320.607096 240.28 
L 318.350525 240.28 
L 317.504407 230.778089 
L 318.142623 219.557363 
L 318.888146 206.347113 
L 318.217923 190.956403 
L 318.797318 173.39493 
L 320.141271 154.013971 
L 319.281248 133.590571 
L 319.698035 113.137869 
L 318.36906 93.757994 
L 319.125335 76.198006 
L 318.494159 60.808896 
L 318.555984 47.600163 
L 316.153122 36.380776 
L 318.307345 26.88 
L 320.577863 26.88 
z
" clip-path="url(#pec4968885c)" style="fill: #424186"/>
    <path d="M 94.88456 36.380776 
L 96.176859 47.600163 
L 97.171902 60.808896 
L 99.724663 76.198006 
L 94.313124 93.757994 
L 95.675072 113.137869 
L 94.315803 133.590571 
L 96.16096 154.013971 
L 95.110491 173.39493 
L 97.205857 190.956403 
L 96.635471 206.347113 
L 98.495913 219.557363 
L 99.735611 230.778089 
L 97.35325 240.28 
L 94.753116 240.28 
L 96.553833 230.778089 
L 95.616803 219.557363 
L 94.21058 206.347113 
L 94.641709 190.956403 
L 93.057918 173.39493 
L 93.851919 154.013971 
L 92.457249 133.590571 
L 93.484658 113.137869 
L 92.455225 93.757994 
L 96.545558 76.198006 
L 94.616043 60.808896 
L 93.863936 47.600163 
L 92.887146 36.380776 
L 94.714312 26.88 
L 97.301912 26.88 
z
M 316.153122 36.380776 
L 318.555984 47.600163 
L 318.494159 60.808896 
L 319.125335 76.198006 
L 318.36906 93.757994 
L 319.698035 113.137869 
L 319.281248 133.590571 
L 320.141271 154.013971 
L 318.797318 173.39493 
L 318.217923 190.956403 
L 318.888146 206.347113 
L 318.142623 219.557363 
L 317.504407 230.778089 
L 318.350525 240.28 
L 316.093954 240.28 
L 314.974534 230.778089 
L 315.818898 219.557363 
L 316.805231 206.347113 
L 315.918521 190.956403 
L 316.685064 173.39493 
L 318.463123 154.013971 
L 317.325306 133.590571 
L 317.876719 113.137869 
L 316.118477 93.757994 
L 317.119033 76.198006 
L 316.283983 60.808896 
L 316.365778 47.600163 
L 313.186776 36.380776 
L 316.036827 26.88 
L 318.307345 26.88 
z
" clip-path="url(#pec4968885c)" style="fill: #3b528b"/>
    <path d="M 96.881973 36.380776 
L 98.489781 47.600163 
L 99.72776 60.808896 
L 102.903768 76.198006 
L 96.171024 93.757994 
L 97.865486 113.137869 
L 96.174357 133.590571 
L 98.470001 154.013971 
L 97.163065 173.39493 
L 99.770006 190.956403 
L 99.060363 206.347113 
L 101.375024 219.557363 
L 102.917389 230.778089 
L 99.953384 240.28 
L 97.35325 240.28 
L 99.735611 230.778089 
L 98.495913 219.557363 
L 96.635471 206.347113 
L 97.205857 190.956403 
L 95.110491 173.39493 
L 96.16096 154.013971 
L 94.315803 133.590571 
L 95.675072 113.137869 
L 94.313124 93.757994 
L 99.724663 76.198006 
L 97.171902 60.808896 
L 96.176859 47.600163 
L 94.88456 36.380776 
L 97.301912 26.88 
L 99.889512 26.88 
z
M 313.186776 36.380776 
L 316.365778 47.600163 
L 316.283983 60.808896 
L 317.119033 76.198006 
L 316.118477 93.757994 
L 317.876719 113.137869 
L 317.325306 133.590571 
L 318.463123 154.013971 
L 316.685064 173.39493 
L 315.918521 190.956403 
L 316.805231 206.347113 
L 315.818898 219.557363 
L 314.974534 230.778089 
L 316.093954 240.28 
L 313.837383 240.28 
L 312.444661 230.778089 
L 313.495173 219.557363 
L 314.722315 206.347113 
L 313.619118 190.956403 
L 314.572811 173.39493 
L 316.784975 154.013971 
L 315.369365 133.590571 
L 316.055402 113.137869 
L 313.867893 93.757994 
L 315.112731 76.198006 
L 314.073807 60.808896 
L 314.175571 47.600163 
L 310.220429 36.380776 
L 313.766309 26.88 
L 316.036827 26.88 
z
" clip-path="url(#pec4968885c)" style="fill: #34618d"/>
    <path d="M 98.879386 36.380776 
L 100.802704 47.600163 
L 102.283619 60.808896 
L 106.082873 76.198006 
L 98.028924 93.757994 
L 100.0559 113.137869 
L 98.03291 133.590571 
L 100.779042 154.013971 
L 99.215638 173.39493 
L 102.334155 190.956403 
L 101.485254 206.347113 
L 104.254135 219.557363 
L 106.099166 230.778089 
L 102.553518 240.28 
L 99.953384 240.28 
L 102.917389 230.778089 
L 101.375024 219.557363 
L 99.060363 206.347113 
L 99.770006 190.956403 
L 97.163065 173.39493 
L 98.470001 154.013971 
L 96.174357 133.590571 
L 97.865486 113.137869 
L 96.171024 93.757994 
L 102.903768 76.198006 
L 99.72776 60.808896 
L 98.489781 47.600163 
L 96.881973 36.380776 
L 99.889512 26.88 
L 102.477112 26.88 
z
M 310.220429 36.380776 
L 314.175571 47.600163 
L 314.073807 60.808896 
L 315.112731 76.198006 
L 313.867893 93.757994 
L 316.055402 113.137869 
L 315.369365 133.590571 
L 316.784975 154.013971 
L 314.572811 173.39493 
L 313.619118 190.956403 
L 314.722315 206.347113 
L 313.495173 219.557363 
L 312.444661 230.778089 
L 313.837383 240.28 
L 311.580812 240.28 
L 309.914788 230.778089 
L 311.171449 219.557363 
L 312.639399 206.347113 
L 311.319716 190.956403 
L 312.460557 173.39493 
L 315.106828 154.013971 
L 313.413424 133.590571 
L 314.234086 113.137869 
L 311.617309 93.757994 
L 313.106429 76.198006 
L 311.863631 60.808896 
L 311.985365 47.600163 
L 307.254082 36.380776 
L 311.495791 26.88 
L 313.766309 26.88 
z
" clip-path="url(#pec4968885c)" style="fill: #2e6f8e"/>
    <path d="M 100.876799 36.380776 
L 103.115627 47.600163 
L 104.839478 60.808896 
L 109.261978 76.198006 
L 99.886823 93.757994 
L 102.246313 113.137869 
L 99.891464 133.590571 
L 103.088083 154.013971 
L 101.268212 173.39493 
L 104.898303 190.956403 
L 103.910145 206.347113 
L 107.133246 219.557363 
L 109.280944 230.778089 
L 105.153652 240.28 
L 102.553518 240.28 
L 106.099166 230.778089 
L 104.254135 219.557363 
L 101.485254 206.347113 
L 102.334155 190.956403 
L 99.215638 173.39493 
L 100.779042 154.013971 
L 98.03291 133.590571 
L 100.0559 113.137869 
L 98.028924 93.757994 
L 106.082873 76.198006 
L 102.283619 60.808896 
L 100.802704 47.600163 
L 98.879386 36.380776 
L 102.477112 26.88 
L 105.064712 26.88 
z
M 307.254082 36.380776 
L 311.985365 47.600163 
L 311.863631 60.808896 
L 313.106429 76.198006 
L 311.617309 93.757994 
L 314.234086 113.137869 
L 313.413424 133.590571 
L 315.106828 154.013971 
L 312.460557 173.39493 
L 311.319716 190.956403 
L 312.639399 206.347113 
L 311.171449 219.557363 
L 309.914788 230.778089 
L 311.580812 240.28 
L 309.324241 240.28 
L 307.384916 230.778089 
L 308.847724 219.557363 
L 310.556484 206.347113 
L 309.020314 190.956403 
L 310.348303 173.39493 
L 313.42868 154.013971 
L 311.457483 133.590571 
L 312.41277 113.137869 
L 309.366725 93.757994 
L 311.100128 76.198006 
L 309.653455 60.808896 
L 309.795159 47.600163 
L 304.287735 36.380776 
L 309.225272 26.88 
L 311.495791 26.88 
z
" clip-path="url(#pec4968885c)" style="fill: #287c8e"/>
    <path d="M 102.874213 36.380776 
L 105.42855 47.600163 
L 107.395336 60.808896 
L 110.566667 71.24093 
L 131.082777 76.198006 
L 110.566667 78.137601 
L 101.744723 93.757994 
L 104.436727 113.137869 
L 101.750018 133.590571 
L 105.397125 154.013971 
L 103.320785 173.39493 
L 107.462452 190.956403 
L 106.335037 206.347113 
L 110.012356 219.557363 
L 110.566667 222.297344 
L 120.076148 219.557363 
L 134.43 216.923971 
L 141.175757 219.557363 
L 134.48896 230.778089 
L 134.43 230.784632 
L 110.566667 234.153055 
L 107.753786 240.28 
L 105.153652 240.28 
L 109.280944 230.778089 
L 107.133246 219.557363 
L 103.910145 206.347113 
L 104.898303 190.956403 
L 101.268212 173.39493 
L 103.088083 154.013971 
L 99.891464 133.590571 
L 102.246313 113.137869 
L 99.886823 93.757994 
L 109.261978 76.198006 
L 104.839478 60.808896 
L 103.115627 47.600163 
L 100.876799 36.380776 
L 105.064712 26.88 
L 107.652312 26.88 
z
M 301.473333 36.18338 
L 306.954754 26.88 
L 309.225272 26.88 
L 304.287735 36.380776 
L 309.795159 47.600163 
L 309.653455 60.808896 
L 311.100128 76.198006 
L 309.366725 93.757994 
L 312.41277 113.137869 
L 311.457483 133.590571 
L 313.42868 154.013971 
L 310.348303 173.39493 
L 309.020314 190.956403 
L 310.556484 206.347113 
L 308.847724 219.557363 
L 307.384916 230.778089 
L 309.324241 240.28 
L 307.06767 240.28 
L 304.855043 230.778089 
L 306.523999 219.557363 
L 308.473568 206.347113 
L 306.720912 190.956403 
L 308.23605 173.39493 
L 311.750532 154.013971 
L 309.501542 133.590571 
L 310.591454 113.137869 
L 307.116141 93.757994 
L 309.093826 76.198006 
L 307.443279 60.808896 
L 307.604953 47.600163 
L 301.473333 36.582365 
L 301.075951 36.380776 
z
M 229.883333 188.858283 
L 232.909563 190.956403 
L 229.883333 193.089 
L 225.845766 190.956403 
z
" clip-path="url(#pec4968885c)" style="fill: #23898e"/>
    <path d="M 104.871626 36.380776 
L 107.741473 47.600163 
L 109.951195 60.808896 
L 110.566667 62.833479 
L 134.43 66.302961 
L 146.526418 76.198006 
L 134.43 83.939324 
L 110.566667 81.427253 
L 103.602623 93.757994 
L 106.627141 113.137869 
L 103.608572 133.590571 
L 107.706166 154.013971 
L 105.373359 173.39493 
L 110.026601 190.956403 
L 108.759928 206.347113 
L 110.566667 212.686802 
L 134.43 207.862281 
L 158.293333 218.257896 
L 178.555286 219.557363 
L 182.156667 220.801087 
L 203.095026 230.778089 
L 182.156667 233.413461 
L 158.293333 233.010815 
L 134.43 234.677376 
L 110.566667 239.816601 
L 110.35392 240.28 
L 107.753786 240.28 
L 110.566667 234.153055 
L 134.43 230.784632 
L 134.48896 230.778089 
L 141.175757 219.557363 
L 134.43 216.923971 
L 120.076148 219.557363 
L 110.566667 222.297344 
L 110.012356 219.557363 
L 106.335037 206.347113 
L 107.462452 190.956403 
L 103.320785 173.39493 
L 105.397125 154.013971 
L 101.750018 133.590571 
L 104.436727 113.137869 
L 101.744723 93.757994 
L 110.566667 78.137601 
L 131.082777 76.198006 
L 110.566667 71.24093 
L 107.395336 60.808896 
L 105.42855 47.600163 
L 102.874213 36.380776 
L 107.652312 26.88 
L 110.239912 26.88 
z
M 134.43 26.88 
L 150.335736 26.88 
L 134.43 28.595451 
L 114.249764 26.88 
z
M 301.473333 32.329727 
L 304.684236 26.88 
L 306.954754 26.88 
L 301.473333 36.18338 
L 301.075951 36.380776 
L 301.473333 36.582365 
L 307.604953 47.600163 
L 307.443279 60.808896 
L 309.093826 76.198006 
L 307.116141 93.757994 
L 310.591454 113.137869 
L 309.501542 133.590571 
L 311.750532 154.013971 
L 308.23605 173.39493 
L 306.720912 190.956403 
L 308.473568 206.347113 
L 306.523999 219.557363 
L 304.855043 230.778089 
L 307.06767 240.28 
L 304.8111 240.28 
L 302.32517 230.778089 
L 304.200275 219.557363 
L 306.390652 206.347113 
L 304.421509 190.956403 
L 306.123796 173.39493 
L 310.072384 154.013971 
L 307.5456 133.590571 
L 308.770138 113.137869 
L 304.865557 93.757994 
L 307.087524 76.198006 
L 305.233103 60.808896 
L 305.414747 47.600163 
L 301.473333 40.517908 
L 293.318034 36.380776 
z
M 134.43 109.187764 
L 136.848736 113.137869 
L 134.43 116.317751 
L 131.082416 113.137869 
z
M 134.43 151.902145 
L 135.786943 154.013971 
L 134.43 156.474953 
L 131.346288 154.013971 
z
M 134.43 187.28538 
L 138.53152 190.956403 
L 134.43 201.213152 
L 119.794534 190.956403 
z
M 229.883333 183.93436 
L 240.011601 190.956403 
L 229.883333 198.093836 
L 216.370294 190.956403 
z
M 225.845766 190.956403 
L 229.883333 193.089 
L 232.909563 190.956403 
L 229.883333 188.858283 
z
M 229.883333 216.51762 
L 233.967037 219.557363 
L 237.474072 230.778089 
L 229.883333 235.543521 
L 207.363311 230.778089 
L 212.71568 219.557363 
z
M 277.61 227.35047 
L 286.859275 230.778089 
L 277.61 232.332799 
L 275.179916 230.778089 
z
" clip-path="url(#pec4968885c)" style="fill: #1f978b"/>
    <path d="M 110.566667 26.88 
L 114.249764 26.88 
L 134.43 28.595451 
L 150.335736 26.88 
L 158.293333 26.88 
L 167.954102 26.88 
L 158.293333 28.873271 
L 134.43 31.074814 
L 110.566667 29.926332 
L 106.869039 36.380776 
L 110.054396 47.600163 
L 110.566667 50.583313 
L 134.43 57.457948 
L 140.028094 60.808896 
L 158.293333 75.13331 
L 159.64184 76.198006 
L 158.293333 77.377237 
L 134.43 92.504572 
L 110.566667 84.716905 
L 105.460522 93.757994 
L 108.817554 113.137869 
L 105.467125 133.590571 
L 110.015207 154.013971 
L 107.425932 173.39493 
L 110.566667 184.979897 
L 134.43 176.29587 
L 150.809756 190.956403 
L 143.30384 206.347113 
L 158.293333 213.308962 
L 182.156667 215.522314 
L 206.02 215.357308 
L 229.883333 210.350164 
L 242.252627 219.557363 
L 246.131631 230.778089 
L 231.324643 240.28 
L 229.883333 240.28 
L 226.882052 240.28 
L 206.02 235.668728 
L 182.794317 240.28 
L 182.156667 240.28 
L 173.900624 240.28 
L 158.293333 239.957824 
L 134.43 238.570121 
L 126.708097 240.28 
L 110.566667 240.28 
L 110.35392 240.28 
L 110.566667 239.816601 
L 134.43 234.677376 
L 158.293333 233.010815 
L 182.156667 233.413461 
L 203.095026 230.778089 
L 182.156667 220.801087 
L 178.555286 219.557363 
L 158.293333 218.257896 
L 134.43 207.862281 
L 110.566667 212.686802 
L 108.759928 206.347113 
L 110.026601 190.956403 
L 105.373359 173.39493 
L 107.706166 154.013971 
L 103.608572 133.590571 
L 106.627141 113.137869 
L 103.602623 93.757994 
L 110.566667 81.427253 
L 134.43 83.939324 
L 146.526418 76.198006 
L 134.43 66.302961 
L 110.566667 62.833479 
L 109.951195 60.808896 
L 107.741473 47.600163 
L 104.871626 36.380776 
L 110.239912 26.88 
z
M 119.794534 190.956403 
L 134.43 201.213152 
L 138.53152 190.956403 
L 134.43 187.28538 
z
M 212.71568 219.557363 
L 207.363311 230.778089 
L 229.883333 235.543521 
L 237.474072 230.778089 
L 233.967037 219.557363 
L 229.883333 216.51762 
z
M 301.473333 28.476074 
L 302.413718 26.88 
L 304.684236 26.88 
L 301.473333 32.329727 
L 293.318034 36.380776 
L 301.473333 40.517908 
L 305.414747 47.600163 
L 305.233103 60.808896 
L 307.087524 76.198006 
L 304.865557 93.757994 
L 308.770138 113.137869 
L 307.5456 133.590571 
L 310.072384 154.013971 
L 306.123796 173.39493 
L 304.421509 190.956403 
L 306.390652 206.347113 
L 304.200275 219.557363 
L 302.32517 230.778089 
L 304.8111 240.28 
L 302.554529 240.28 
L 301.473333 236.294892 
L 277.61 239.628293 
L 263.776719 230.778089 
L 271.144993 219.557363 
L 277.61 214.531668 
L 295.46346 219.557363 
L 301.473333 221.884102 
L 301.87655 219.557363 
L 304.307737 206.347113 
L 302.122107 190.956403 
L 304.011542 173.39493 
L 308.394236 154.013971 
L 305.589659 133.590571 
L 306.948822 113.137869 
L 302.614974 93.757994 
L 305.081222 76.198006 
L 303.022927 60.808896 
L 303.22454 47.600163 
L 301.473333 44.45345 
L 285.560117 36.380776 
z
M 275.179916 230.778089 
L 277.61 232.332799 
L 286.859275 230.778089 
L 277.61 227.35047 
z
M 134.43 95.727712 
L 145.090624 113.137869 
L 134.43 127.153257 
L 119.675465 113.137869 
z
M 131.082416 113.137869 
L 134.43 116.317751 
L 136.848736 113.137869 
L 134.43 109.187764 
z
M 134.43 140.415012 
L 143.167939 154.013971 
L 134.43 169.86129 
L 114.572652 154.013971 
z
M 131.346288 154.013971 
L 134.43 156.474953 
L 135.786943 154.013971 
L 134.43 151.902145 
z
M 229.883333 179.010436 
L 247.113638 190.956403 
L 229.883333 203.098672 
L 206.894822 190.956403 
z
M 216.370294 190.956403 
L 229.883333 198.093836 
L 240.011601 190.956403 
L 229.883333 183.93436 
z
M 277.61 181.869577 
L 295.580612 190.956403 
L 277.61 198.746687 
L 266.167142 190.956403 
z
" clip-path="url(#pec4968885c)" style="fill: #20a486"/>
    <path d="M 110.566667 29.926332 
L 134.43 31.074814 
L 158.293333 28.873271 
L 167.954102 26.88 
L 182.156667 26.88 
L 182.519803 26.88 
L 182.156667 26.970562 
L 158.293333 31.921793 
L 134.43 33.554178 
L 110.566667 33.412944 
L 108.866452 36.380776 
L 110.566667 42.240677 
L 125.50019 47.600163 
L 134.43 50.731522 
L 151.265261 60.808896 
L 158.293333 66.320623 
L 170.803674 76.198006 
L 158.293333 87.137947 
L 147.728043 93.757994 
L 153.332511 113.137869 
L 140.77602 133.590571 
L 150.548935 154.013971 
L 141.250346 173.39493 
L 158.293333 187.88078 
L 182.156667 188.19035 
L 206.02 186.13011 
L 229.883333 174.086512 
L 253.746667 190.620697 
L 276.295626 173.39493 
L 277.61 167.55045 
L 289.417923 173.39493 
L 301.473333 177.246362 
L 301.899289 173.39493 
L 306.716088 154.013971 
L 303.633718 133.590571 
L 305.127506 113.137869 
L 301.473333 97.579077 
L 277.61 100.665282 
L 272.83203 93.757994 
L 277.61 87.487433 
L 301.473333 87.055946 
L 303.07492 76.198006 
L 301.473333 65.001113 
L 296.850003 60.808896 
L 299.085177 47.600163 
L 277.8022 36.380776 
L 295.845715 26.88 
L 301.473333 26.88 
L 302.413718 26.88 
L 301.473333 28.476074 
L 285.560117 36.380776 
L 301.473333 44.45345 
L 303.22454 47.600163 
L 303.022927 60.808896 
L 305.081222 76.198006 
L 302.614974 93.757994 
L 306.948822 113.137869 
L 305.589659 133.590571 
L 308.394236 154.013971 
L 304.011542 173.39493 
L 302.122107 190.956403 
L 304.307737 206.347113 
L 301.87655 219.557363 
L 301.473333 221.884102 
L 295.46346 219.557363 
L 277.61 214.531668 
L 271.144993 219.557363 
L 263.776719 230.778089 
L 277.61 239.628293 
L 301.473333 236.294892 
L 302.554529 240.28 
L 301.473333 240.28 
L 277.61 240.28 
L 266.23518 240.28 
L 253.746667 231.799465 
L 242.536595 240.28 
L 231.324643 240.28 
L 246.131631 230.778089 
L 242.252627 219.557363 
L 229.883333 210.350164 
L 206.02 215.357308 
L 182.156667 215.522314 
L 158.293333 213.308962 
L 143.30384 206.347113 
L 150.809756 190.956403 
L 134.43 176.29587 
L 110.566667 184.979897 
L 107.425932 173.39493 
L 110.015207 154.013971 
L 105.467125 133.590571 
L 108.817554 113.137869 
L 105.460522 93.757994 
L 110.566667 84.716905 
L 134.43 92.504572 
L 158.293333 77.377237 
L 159.64184 76.198006 
L 158.293333 75.13331 
L 140.028094 60.808896 
L 134.43 57.457948 
L 110.566667 50.583313 
L 110.054396 47.600163 
L 106.869039 36.380776 
z
M 107.318422 93.757994 
L 110.566667 111.135392 
L 126.600951 93.757994 
L 110.566667 88.006557 
z
M 119.675465 113.137869 
L 134.43 127.153257 
L 145.090624 113.137869 
L 134.43 95.727712 
z
M 107.325679 133.590571 
L 110.566667 147.808071 
L 129.924193 133.590571 
L 110.566667 115.256109 
z
M 114.572652 154.013971 
L 134.43 169.86129 
L 143.167939 154.013971 
L 134.43 140.415012 
z
M 109.478506 173.39493 
L 110.566667 177.408738 
L 120.558221 173.39493 
L 110.566667 165.43817 
z
M 206.894822 190.956403 
L 229.883333 203.098672 
L 247.113638 190.956403 
L 229.883333 179.010436 
z
M 266.167142 190.956403 
L 277.61 198.746687 
L 295.580612 190.956403 
L 277.61 181.869577 
z
M 153.959343 206.347113 
L 158.293333 208.360029 
L 182.156667 211.289729 
L 206.02 210.157758 
L 222.156411 206.347113 
L 206.02 199.47167 
L 182.156667 194.855847 
L 158.293333 198.495033 
z
M 233.233591 206.347113 
L 250.538216 219.557363 
L 253.746667 228.116468 
L 258.603242 219.557363 
L 275.951219 206.347113 
L 253.746667 191.415311 
z
M 284.957998 206.347113 
L 301.473333 210.361449 
L 302.224821 206.347113 
L 301.473333 201.199174 
z
M 229.883333 59.531349 
L 234.008344 60.808896 
L 230.207197 76.198006 
L 234.078202 93.757994 
L 229.883333 101.855001 
L 223.169221 93.757994 
L 229.503413 76.198006 
L 228.443961 60.808896 
z
M 229.883333 130.822646 
L 231.33282 133.590571 
L 229.883333 139.996897 
L 228.15568 133.590571 
z
M 277.61 125.543465 
L 288.527997 133.590571 
L 277.61 147.287498 
L 270.698966 133.590571 
z
M 134.43 238.570121 
L 158.293333 239.957824 
L 173.900624 240.28 
L 158.293333 240.28 
L 134.43 240.28 
L 126.708097 240.28 
z
M 206.02 235.668728 
L 226.882052 240.28 
L 206.02 240.28 
L 182.794317 240.28 
z
" clip-path="url(#pec4968885c)" style="fill: #2cb17e"/>
    <path d="M 110.566667 33.412944 
L 134.43 33.554178 
L 158.293333 31.921793 
L 182.156667 26.970562 
L 182.519803 26.88 
L 191.888816 26.88 
L 182.156667 29.307086 
L 158.293333 34.970315 
L 134.43 36.033541 
L 122.859464 36.380776 
L 134.43 38.710246 
L 142.121242 47.600163 
L 158.293333 57.506936 
L 166.988748 60.808896 
L 181.965509 76.198006 
L 167.754573 93.757994 
L 168.563526 113.137869 
L 158.293333 128.839841 
L 156.410246 133.590571 
L 157.929932 154.013971 
L 150.516788 173.39493 
L 158.293333 180.00468 
L 182.156667 181.210045 
L 206.02 180.812907 
L 220.785794 173.39493 
L 222.892118 154.013971 
L 216.464235 133.590571 
L 229.156896 113.137869 
L 213.259767 93.757994 
L 217.717822 76.198006 
L 220.972641 60.808896 
L 229.883333 52.900016 
L 253.746667 59.491502 
L 259.539162 60.808896 
L 253.746667 61.655129 
L 240.253851 76.198006 
L 240.269469 93.757994 
L 230.469483 113.137869 
L 241.141846 133.590571 
L 235.027099 154.013971 
L 236.19826 173.39493 
L 253.746667 185.537212 
L 269.641217 173.39493 
L 273.301904 154.013971 
L 263.28009 133.590571 
L 277.61 116.905036 
L 300.248278 133.590571 
L 282.464925 154.013971 
L 301.473333 168.100574 
L 305.037941 154.013971 
L 301.677777 133.590571 
L 303.30619 113.137869 
L 301.473333 105.333905 
L 277.61 109.350359 
L 266.824312 93.757994 
L 277.61 79.602962 
L 293.875594 76.198006 
L 281.381275 60.808896 
L 287.170455 47.600163 
L 277.61 42.535834 
L 253.746667 41.788236 
L 229.883333 37.966585 
L 228.908235 36.380776 
L 223.131192 26.88 
L 229.883333 26.88 
L 253.746667 26.88 
L 265.747785 26.88 
L 277.61 31.435383 
L 286.239455 26.88 
L 295.845715 26.88 
L 277.8022 36.380776 
L 299.085177 47.600163 
L 296.850003 60.808896 
L 301.473333 65.001113 
L 303.07492 76.198006 
L 301.473333 87.055946 
L 277.61 87.487433 
L 272.83203 93.757994 
L 277.61 100.665282 
L 301.473333 97.579077 
L 305.127506 113.137869 
L 303.633718 133.590571 
L 306.716088 154.013971 
L 301.899289 173.39493 
L 301.473333 177.246362 
L 289.417923 173.39493 
L 277.61 167.55045 
L 276.295626 173.39493 
L 253.746667 190.620697 
L 229.883333 174.086512 
L 206.02 186.13011 
L 182.156667 188.19035 
L 158.293333 187.88078 
L 141.250346 173.39493 
L 150.548935 154.013971 
L 140.77602 133.590571 
L 153.332511 113.137869 
L 147.728043 93.757994 
L 158.293333 87.137947 
L 170.803674 76.198006 
L 158.293333 66.320623 
L 151.265261 60.808896 
L 134.43 50.731522 
L 125.50019 47.600163 
L 110.566667 42.240677 
L 108.866452 36.380776 
z
M 228.443961 60.808896 
L 229.503413 76.198006 
L 223.169221 93.757994 
L 229.883333 101.855001 
L 234.078202 93.757994 
L 230.207197 76.198006 
L 234.008344 60.808896 
L 229.883333 59.531349 
z
M 228.15568 133.590571 
L 229.883333 139.996897 
L 231.33282 133.590571 
L 229.883333 130.822646 
z
M 270.698966 133.590571 
L 277.61 147.287498 
L 288.527997 133.590571 
L 277.61 125.543465 
z
M 110.566667 88.006557 
L 126.600951 93.757994 
L 110.566667 111.135392 
L 107.318422 93.757994 
z
M 109.176322 93.757994 
L 110.566667 101.196035 
L 117.429815 93.757994 
L 110.566667 91.296208 
z
M 110.566667 115.256109 
L 129.924193 133.590571 
L 110.566667 147.808071 
L 107.325679 133.590571 
z
M 109.184233 133.590571 
L 110.566667 139.655005 
L 118.823564 133.590571 
L 110.566667 125.770058 
z
M 110.566667 165.43817 
L 120.558221 173.39493 
L 110.566667 177.408738 
L 109.478506 173.39493 
z
M 158.293333 198.495033 
L 182.156667 194.855847 
L 206.02 199.47167 
L 222.156411 206.347113 
L 206.02 210.157758 
L 182.156667 211.289729 
L 158.293333 208.360029 
L 153.959343 206.347113 
z
M 176.896382 206.347113 
L 182.156667 207.057144 
L 191.362011 206.347113 
L 182.156667 204.696334 
z
M 253.746667 191.415311 
L 275.951219 206.347113 
L 258.603242 219.557363 
L 253.746667 228.116468 
L 250.538216 219.557363 
L 233.233591 206.347113 
z
M 242.780127 206.347113 
L 253.746667 214.961988 
L 265.61749 206.347113 
L 253.746667 198.36439 
z
M 301.473333 201.199174 
L 302.224821 206.347113 
L 301.473333 210.361449 
L 284.957998 206.347113 
z
M 253.746667 231.799465 
L 266.23518 240.28 
L 253.746667 240.28 
L 242.536595 240.28 
z
" clip-path="url(#pec4968885c)" style="fill: #40bd72"/>
    <path d="M 134.43 36.033541 
L 158.293333 34.970315 
L 182.156667 29.307086 
L 191.888816 26.88 
L 201.257828 26.88 
L 182.156667 31.643611 
L 163.292797 36.380776 
L 158.293333 45.499157 
L 156.511676 47.600163 
L 158.293333 48.691578 
L 182.156667 58.430184 
L 188.292954 60.808896 
L 206.02 76.0844 
L 213.501321 60.808896 
L 228.502807 47.600163 
L 221.496465 36.380776 
L 211.786426 26.88 
L 223.131192 26.88 
L 228.908235 36.380776 
L 229.883333 37.966585 
L 253.746667 41.788236 
L 277.61 42.535834 
L 287.170455 47.600163 
L 281.381275 60.808896 
L 293.875594 76.198006 
L 277.61 79.602962 
L 266.824312 93.757994 
L 277.61 109.350359 
L 301.473333 105.333905 
L 303.30619 113.137869 
L 301.677777 133.590571 
L 305.037941 154.013971 
L 301.473333 168.100574 
L 282.464925 154.013971 
L 300.248278 133.590571 
L 277.61 116.905036 
L 263.28009 133.590571 
L 273.301904 154.013971 
L 269.641217 173.39493 
L 253.746667 185.537212 
L 236.19826 173.39493 
L 235.027099 154.013971 
L 241.141846 133.590571 
L 230.469483 113.137869 
L 240.269469 93.757994 
L 240.253851 76.198006 
L 253.746667 61.655129 
L 259.539162 60.808896 
L 253.746667 59.491502 
L 229.883333 52.900016 
L 220.972641 60.808896 
L 217.717822 76.198006 
L 213.259767 93.757994 
L 229.156896 113.137869 
L 216.464235 133.590571 
L 222.892118 154.013971 
L 220.785794 173.39493 
L 206.02 180.812907 
L 182.156667 181.210045 
L 158.293333 180.00468 
L 150.516788 173.39493 
L 157.929932 154.013971 
L 156.410246 133.590571 
L 158.293333 128.839841 
L 168.563526 113.137869 
L 167.754573 93.757994 
L 181.965509 76.198006 
L 166.988748 60.808896 
L 158.293333 57.506936 
L 142.121242 47.600163 
L 134.43 38.710246 
L 122.859464 36.380776 
z
M 250.300504 76.198006 
L 246.460736 93.757994 
L 240.961637 113.137869 
L 250.950872 133.590571 
L 242.62861 154.013971 
L 243.545072 173.39493 
L 253.746667 180.453727 
L 262.986808 173.39493 
L 265.36105 154.013971 
L 255.861214 133.590571 
L 270.060412 113.137869 
L 260.816595 93.757994 
L 262.730276 76.198006 
L 253.746667 72.48365 
z
M 191.17109 113.137869 
L 206.02 131.127957 
L 216.153574 113.137869 
L 206.02 98.736559 
z
M 301.20818 113.137869 
L 301.473333 113.28157 
L 301.484873 113.137869 
L 301.473333 113.088733 
z
M 193.369961 154.013971 
L 182.156667 169.990015 
L 171.977818 173.39493 
L 182.156667 174.22974 
L 206.02 175.495704 
L 210.201679 173.39493 
L 212.560428 154.013971 
L 206.02 136.535878 
z
M 291.413714 154.013971 
L 301.473333 161.468875 
L 303.359793 154.013971 
L 301.473333 142.646121 
z
M 277.61 26.88 
L 286.239455 26.88 
L 277.61 31.435383 
L 265.747785 26.88 
z
M 110.566667 91.296208 
L 117.429815 93.757994 
L 110.566667 101.196035 
L 109.176322 93.757994 
z
M 110.566667 125.770058 
L 118.823564 133.590571 
L 110.566667 139.655005 
L 109.184233 133.590571 
z
M 182.156667 204.696334 
L 191.362011 206.347113 
L 182.156667 207.057144 
L 176.896382 206.347113 
z
M 253.746667 198.36439 
L 265.61749 206.347113 
L 253.746667 214.961988 
L 242.780127 206.347113 
z
M 252.326663 206.347113 
L 253.746667 207.462611 
L 255.283761 206.347113 
L 253.746667 205.313469 
z
" clip-path="url(#pec4968885c)" style="fill: #5cc863"/>
    <path d="M 182.156667 31.643611 
L 201.257828 26.88 
L 206.02 26.88 
L 211.786426 26.88 
L 221.496465 36.380776 
L 228.502807 47.600163 
L 213.501321 60.808896 
L 206.02 76.0844 
L 188.292954 60.808896 
L 182.156667 58.430184 
L 158.293333 48.691578 
L 156.511676 47.600163 
L 158.293333 45.499157 
L 163.292797 36.380776 
z
M 172.597073 36.380776 
L 172.670557 47.600163 
L 182.156667 51.567541 
L 205.996301 60.808896 
L 206.02 60.829317 
L 206.030002 60.808896 
L 221.627196 47.600163 
L 214.084696 36.380776 
L 206.02 29.837095 
L 182.156667 33.980135 
z
M 253.746667 72.48365 
L 262.730276 76.198006 
L 260.816595 93.757994 
L 270.060412 113.137869 
L 255.861214 133.590571 
L 265.36105 154.013971 
L 262.986808 173.39493 
L 253.746667 180.453727 
L 243.545072 173.39493 
L 242.62861 154.013971 
L 250.950872 133.590571 
L 240.961637 113.137869 
L 246.460736 93.757994 
L 250.300504 76.198006 
z
M 252.652003 93.757994 
L 251.45379 113.137869 
L 253.746667 117.925799 
L 256.672385 113.137869 
L 254.808877 93.757994 
L 253.746667 90.034354 
z
M 250.23012 154.013971 
L 250.891884 173.39493 
L 253.746667 175.370241 
L 256.332399 173.39493 
L 257.420197 154.013971 
L 253.746667 145.990712 
z
M 206.02 98.736559 
L 216.153574 113.137869 
L 206.02 131.127957 
L 191.17109 113.137869 
z
M 301.473333 113.088733 
L 301.484873 113.137869 
L 301.473333 113.28157 
L 301.20818 113.137869 
z
M 206.02 136.535878 
L 212.560428 154.013971 
L 210.201679 173.39493 
L 206.02 175.495704 
L 182.156667 174.22974 
L 171.977818 173.39493 
L 182.156667 169.990015 
L 193.369961 154.013971 
z
M 301.473333 142.646121 
L 303.359793 154.013971 
L 301.473333 161.468875 
L 291.413714 154.013971 
z
M 300.362503 154.013971 
L 301.473333 154.837176 
L 301.681645 154.013971 
L 301.473333 152.758681 
z
M 253.746667 205.313469 
L 255.283761 206.347113 
L 253.746667 207.462611 
L 252.326663 206.347113 
z
" clip-path="url(#pec4968885c)" style="fill: #7fd34e"/>
    <path d="M 182.156667 33.980135 
L 206.02 29.837095 
L 214.084696 36.380776 
L 221.627196 47.600163 
L 206.030002 60.808896 
L 206.02 60.829317 
L 205.996301 60.808896 
L 182.156667 51.567541 
L 172.670557 47.600163 
L 172.597073 36.380776 
z
M 181.901349 36.380776 
L 182.156667 37.065954 
L 188.107432 47.600163 
L 206.02 54.994267 
L 214.751586 47.600163 
L 206.672927 36.380776 
L 206.02 35.850992 
L 182.156667 36.316659 
z
M 253.746667 90.034354 
L 254.808877 93.757994 
L 256.672385 113.137869 
L 253.746667 117.925799 
L 251.45379 113.137869 
L 252.652003 93.757994 
z
M 253.746667 145.990712 
L 257.420197 154.013971 
L 256.332399 173.39493 
L 253.746667 175.370241 
L 250.891884 173.39493 
L 250.23012 154.013971 
z
M 301.473333 152.758681 
L 301.681645 154.013971 
L 301.473333 154.837176 
L 300.362503 154.013971 
z
" clip-path="url(#pec4968885c)" style="fill: #a2da37"/>
    <path d="M 182.156667 36.316659 
L 206.02 35.850992 
L 206.672927 36.380776 
L 214.751586 47.600163 
L 206.02 54.994267 
L 188.107432 47.600163 
L 182.156667 37.065954 
L 181.901349 36.380776 
z
M 202.212526 47.600163 
L 206.02 49.171845 
L 207.875976 47.600163 
L 206.02 45.037624 
z
" clip-path="url(#pec4968885c)" style="fill: #c8e020"/>
    <path d="M 206.02 45.037624 
L 207.875976 47.600163 
L 206.02 49.171845 
L 202.212526 47.600163 
z
" clip-path="url(#pec4968885c)" style="fill: #ece51b"/>
   </g>
   <g id="matplotlib.axis_1">
    <g id="xtick_1">
     <g id="line2d_1">
      <defs>
       <path id="mc30507a929" d="M 0 0 
L 0 3.5 
" style="stroke: #000000; stroke-width: 0.8"/>
      </defs>
      <g>
       <use xlink:href="#mc30507a929" x="126.475556" y="240.28" style="stroke: #000000; stroke-width: 0.8"/>
      </g>
     </g>
     <g id="text_1">
      <!-- −50 -->
      <g transform="translate(113.812743 256.398125) scale(0.12 -0.12)">
       <defs>
        <path id="DejaVuSans-2212" d="M 678 2272 
L 4684 2272 
L 4684 1741 
L 678 1741 
L 678 2272 
z
" transform="scale(0.015625)"/>
        <path id="DejaVuSans-35" d="M 691 4666 
L 3169 4666 
L 3169 4134 
L 1269 4134 
L 1269 2991 
Q 1406 3038 1543 3061 
Q 1681 3084 1819 3084 
Q 2600 3084 3056 2656 
Q 3513 2228 3513 1497 
Q 3513 744 3044 326 
Q 2575 -91 1722 -91 
Q 1428 -91 1123 -41 
Q 819 9 494 109 
L 494 744 
Q 775 591 1075 516 
Q 1375 441 1709 441 
Q 2250 441 2565 725 
Q 2881 1009 2881 1497 
Q 2881 1984 2565 2268 
Q 2250 2553 1709 2553 
Q 1456 2553 1204 2497 
Q 953 2441 691 2322 
L 691 4666 
z
" transform="scale(0.015625)"/>
        <path id="DejaVuSans-30" d="M 2034 4250 
Q 1547 4250 1301 3770 
Q 1056 3291 1056 2328 
Q 1056 1369 1301 889 
Q 1547 409 2034 409 
Q 2525 409 2770 889 
Q 3016 1369 3016 2328 
Q 3016 3291 2770 3770 
Q 2525 4250 2034 4250 
z
M 2034 4750 
Q 2819 4750 3233 4129 
Q 3647 3509 3647 2328 
Q 3647 1150 3233 529 
Q 2819 -91 2034 -91 
Q 1250 -91 836 529 
Q 422 1150 422 2328 
Q 422 3509 836 4129 
Q 1250 4750 2034 4750 
z
" transform="scale(0.015625)"/>
       </defs>
       <use xlink:href="#DejaVuSans-2212"/>
       <use xlink:href="#DejaVuSans-35" transform="translate(83.789062 0)"/>
       <use xlink:href="#DejaVuSans-30" transform="translate(147.412109 0)"/>
      </g>
     </g>
    </g>
    <g id="xtick_2">
     <g id="line2d_2">
      <g>
       <use xlink:href="#mc30507a929" x="206.02" y="240.28" style="stroke: #000000; stroke-width: 0.8"/>
      </g>
     </g>
     <g id="text_2">
      <!-- 0 -->
      <g transform="translate(202.2025 256.398125) scale(0.12 -0.12)">
       <use xlink:href="#DejaVuSans-30"/>
      </g>
     </g>
    </g>
    <g id="xtick_3">
     <g id="line2d_3">
      <g>
       <use xlink:href="#mc30507a929" x="285.564444" y="240.28" style="stroke: #000000; stroke-width: 0.8"/>
      </g>
     </g>
     <g id="text_3">
      <!-- 50 -->
      <g transform="translate(277.929444 256.398125) scale(0.12 -0.12)">
       <use xlink:href="#DejaVuSans-35"/>
       <use xlink:href="#DejaVuSans-30" transform="translate(63.623047 0)"/>
      </g>
     </g>
    </g>
    <g id="text_4">
     <!-- $\Theta^{\circ}$ -->
     <g transform="translate(198.4 272.011875) scale(0.12 -0.12)">
      <defs>
       <path id="DejaVuSans-398" d="M 1416 2750 
L 3622 2750 
L 3622 2219 
L 1416 2219 
L 1416 2750 
z
M 2522 4238 
Q 1834 4238 1431 3725 
Q 1025 3213 1025 2328 
Q 1025 1447 1429 934 
Q 1834 422 2522 422 
Q 3209 422 3613 934 
Q 4013 1447 4013 2328 
Q 4013 3213 3613 3725 
Q 3209 4238 2522 4238 
z
M 2522 4750 
Q 3503 4750 4090 4092 
Q 4678 3434 4678 2328 
Q 4678 1225 4091 569 
Q 3503 -91 2522 -91 
Q 1538 -91 950 566 
Q 359 1222 359 2328 
Q 359 3434 950 4094 
Q 1538 4750 2522 4750 
z
" transform="scale(0.015625)"/>
       <path id="DejaVuSans-2218" d="M 2000 2619 
Q 1750 2619 1578 2445 
Q 1406 2272 1406 2022 
Q 1406 1775 1578 1605 
Q 1750 1435 2000 1435 
Q 2250 1435 2422 1605 
Q 2594 1775 2594 2022 
Q 2594 2269 2420 2444 
Q 2247 2619 2000 2619 
z
M 2000 3022 
Q 2200 3022 2384 2945 
Q 2569 2869 2703 2725 
Q 2847 2585 2919 2406 
Q 2991 2228 2991 2022 
Q 2991 1610 2702 1324 
Q 2413 1038 1994 1038 
Q 1572 1038 1290 1319 
Q 1009 1600 1009 2022 
Q 1009 2441 1296 2731 
Q 1584 3022 2000 3022 
z
" transform="scale(0.015625)"/>
      </defs>
      <use xlink:href="#DejaVuSans-398" transform="translate(0 0.78125)"/>
      <use xlink:href="#DejaVuSans-2218" transform="translate(79.667969 39.0625) scale(0.7)"/>
     </g>
    </g>
   </g>
   <g id="matplotlib.axis_2">
    <g id="ytick_1">
     <g id="line2d_4">
      <defs>
       <path id="m40d5343ad0" d="M 0 0 
L -3.5 0 
" style="stroke: #000000; stroke-width: 0.8"/>
      </defs>
      <g>
       <use xlink:href="#m40d5343ad0" x="62.84" y="219.984151" style="stroke: #000000; stroke-width: 0.8"/>
      </g>
     </g>
     <g id="text_5">
      <!-- −40 -->
      <g transform="translate(30.514375 224.543214) scale(0.12 -0.12)">
       <defs>
        <path id="DejaVuSans-34" d="M 2419 4116 
L 825 1625 
L 2419 1625 
L 2419 4116 
z
M 2253 4666 
L 3047 4666 
L 3047 1625 
L 3713 1625 
L 3713 1100 
L 3047 1100 
L 3047 0 
L 2419 0 
L 2419 1100 
L 313 1100 
L 313 1709 
L 2253 4666 
z
" transform="scale(0.015625)"/>
       </defs>
       <use xlink:href="#DejaVuSans-2212"/>
       <use xlink:href="#DejaVuSans-34" transform="translate(83.789062 0)"/>
       <use xlink:href="#DejaVuSans-30" transform="translate(147.412109 0)"/>
      </g>
     </g>
    </g>
    <g id="ytick_2">
     <g id="line2d_5">
      <g>
       <use xlink:href="#m40d5343ad0" x="62.84" y="176.783648" style="stroke: #000000; stroke-width: 0.8"/>
      </g>
     </g>
     <g id="text_6">
      <!-- −20 -->
      <g transform="translate(30.514375 181.342711) scale(0.12 -0.12)">
       <defs>
        <path id="DejaVuSans-32" d="M 1228 531 
L 3431 531 
L 3431 0 
L 469 0 
L 469 531 
Q 828 903 1448 1529 
Q 2069 2156 2228 2338 
Q 2531 2678 2651 2914 
Q 2772 3150 2772 3378 
Q 2772 3750 2511 3984 
Q 2250 4219 1831 4219 
Q 1534 4219 1204 4116 
Q 875 4013 500 3803 
L 500 4441 
Q 881 4594 1212 4672 
Q 1544 4750 1819 4750 
Q 2544 4750 2975 4387 
Q 3406 4025 3406 3419 
Q 3406 3131 3298 2873 
Q 3191 2616 2906 2266 
Q 2828 2175 2409 1742 
Q 1991 1309 1228 531 
z
" transform="scale(0.015625)"/>
       </defs>
       <use xlink:href="#DejaVuSans-2212"/>
       <use xlink:href="#DejaVuSans-32" transform="translate(83.789062 0)"/>
       <use xlink:href="#DejaVuSans-30" transform="translate(147.412109 0)"/>
      </g>
     </g>
    </g>
    <g id="ytick_3">
     <g id="line2d_6">
      <g>
       <use xlink:href="#m40d5343ad0" x="62.84" y="133.583145" style="stroke: #000000; stroke-width: 0.8"/>
      </g>
     </g>
     <g id="text_7">
      <!-- 0 -->
      <g transform="translate(48.205 138.142208) scale(0.12 -0.12)">
       <use xlink:href="#DejaVuSans-30"/>
      </g>
     </g>
    </g>
    <g id="ytick_4">
     <g id="line2d_7">
      <g>
       <use xlink:href="#m40d5343ad0" x="62.84" y="90.382642" style="stroke: #000000; stroke-width: 0.8"/>
      </g>
     </g>
     <g id="text_8">
      <!-- 20 -->
      <g transform="translate(40.57 94.941704) scale(0.12 -0.12)">
       <use xlink:href="#DejaVuSans-32"/>
       <use xlink:href="#DejaVuSans-30" transform="translate(63.623047 0)"/>
      </g>
     </g>
    </g>
    <g id="ytick_5">
     <g id="line2d_8">
      <g>
       <use xlink:href="#m40d5343ad0" x="62.84" y="47.182139" style="stroke: #000000; stroke-width: 0.8"/>
      </g>
     </g>
     <g id="text_9">
      <!-- 40 -->
      <g transform="translate(40.57 51.741201) scale(0.12 -0.12)">
       <use xlink:href="#DejaVuSans-34"/>
       <use xlink:href="#DejaVuSans-30" transform="translate(63.623047 0)"/>
      </g>
     </g>
    </g>
    <g id="text_10">
     <!-- $\phi^{\circ}$ -->
     <g transform="translate(23.784375 141.38) rotate(-90) scale(0.13 -0.13)">
      <defs>
       <path id="DejaVuSans-Oblique-3d5" d="M 2991 4863 
L 2738 3572 
Q 3363 3572 3684 3094 
Q 4016 2606 3850 1747 
Q 3681 888 3159 400 
Q 2653 -78 2028 -78 
L 1784 -1331 
L 1213 -1331 
L 1456 -78 
Q 834 -78 509 400 
Q 178 888 347 1747 
Q 513 2606 1034 3094 
Q 1544 3572 2166 3572 
L 2419 4863 
L 2991 4863 
z
M 2128 434 
Q 2481 434 2784 756 
Q 3116 1116 3244 1747 
Q 3369 2372 3169 2738 
Q 2991 3059 2638 3059 
L 2128 434 
z
M 1556 434 
L 2066 3059 
Q 1716 3059 1413 2738 
Q 1072 2372 953 1747 
Q 834 1116 1028 756 
Q 1203 434 1556 434 
z
" transform="scale(0.015625)"/>
      </defs>
      <use xlink:href="#DejaVuSans-Oblique-3d5" transform="translate(0 0.015625)"/>
      <use xlink:href="#DejaVuSans-2218" transform="translate(73.414505 38.296875) scale(0.7)"/>
     </g>
    </g>
   </g>
   <g id="QuadContourSet_2">
    <path clip-path="url(#pec4968885c)" style="fill: none; stroke-dasharray: 1.85,0.8; stroke-dashoffset: 0; stroke: #000000; stroke-width: 0.5"/>
    <path d="M 325.1189 26.88 
L 325.052163 36.380776 
L 325.126603 47.600163 
L 325.124687 60.808896 
L 325.144241 76.198006 
L 325.120812 93.757994 
L 325.161983 113.137869 
L 325.157355 120.469591 
M 325.166188 146.711543 
L 325.175714 154.013971 
L 325.134079 173.39493 
L 325.11613 190.956403 
L 325.136893 206.347113 
L 325.113797 219.557363 
L 325.094025 230.778089 
L 325.120238 240.28 
M 86.952714 240.28 
L 87.0085 230.778089 
L 86.979471 219.557363 
L 86.935906 206.347113 
L 86.949262 190.956403 
L 86.900197 173.39493 
L 86.924795 154.013971 
L 86.909346 146.711527 
M 86.902007 120.469603 
L 86.913417 113.137869 
L 86.881526 93.757994 
L 87.008243 76.198006 
L 86.948467 60.808896 
L 86.925167 47.600163 
L 86.894906 36.380776 
L 86.951512 26.88 
" clip-path="url(#pec4968885c)" style="fill: none; stroke-dasharray: 1.85,0.8; stroke-dashoffset: 0; stroke: #000000; stroke-width: 0.5"/>
    <path d="M 322.848382 26.88 
L 322.085816 36.380776 
L 322.936396 47.600163 
L 322.914511 60.808896 
L 323.137939 76.198006 
L 322.870228 93.757994 
L 323.340667 113.137869 
L 323.287777 120.469889 
M 323.388696 146.710272 
L 323.497567 154.013971 
L 323.021825 173.39493 
L 322.816727 190.956403 
L 323.053977 206.347113 
L 322.790072 219.557363 
L 322.564152 230.778089 
L 322.863667 240.28 
M 89.552848 240.28 
L 90.190277 230.778089 
L 89.858581 219.557363 
L 89.360797 206.347113 
L 89.513411 190.956403 
L 88.95277 173.39493 
L 89.233836 154.013971 
L 89.057234 146.708184 
M 88.973426 120.471412 
L 89.103831 113.137869 
L 88.739425 93.757994 
L 90.187348 76.198006 
L 89.504326 60.808896 
L 89.23809 47.600163 
L 88.89232 36.380776 
L 89.539112 26.88 
" clip-path="url(#pec4968885c)" style="fill: none; stroke-dasharray: 1.85,0.8; stroke-dashoffset: 0; stroke: #000000; stroke-width: 0.5"/>
    <path d="M 320.577863 26.88 
L 319.119469 36.380776 
L 320.74619 47.600163 
L 320.704335 60.808896 
L 321.131637 76.198006 
L 320.619644 93.757994 
L 321.519351 113.137869 
L 321.416994 120.557286 
M 321.60864 146.620292 
L 321.819419 154.013971 
L 320.909572 173.39493 
L 320.517325 190.956403 
L 320.971062 206.347113 
L 320.466347 219.557363 
L 320.034279 230.778089 
L 320.607096 240.28 
M 92.152982 240.28 
L 93.372055 230.778089 
L 92.737692 219.557363 
L 91.785689 206.347113 
L 92.07756 190.956403 
L 91.005344 173.39493 
L 91.542877 154.013971 
L 91.200715 146.612719 
M 91.041739 120.562816 
L 91.294245 113.137869 
L 90.597325 93.757994 
L 93.366453 76.198006 
L 92.060185 60.808896 
L 91.551013 47.600163 
L 90.889733 36.380776 
L 92.126712 26.88 
" clip-path="url(#pec4968885c)" style="fill: none; stroke-dasharray: 1.85,0.8; stroke-dashoffset: 0; stroke: #000000; stroke-width: 0.5"/>
    <path d="M 318.307345 26.88 
L 316.153122 36.380776 
L 318.555984 47.600163 
L 318.494159 60.808896 
L 319.125335 76.198006 
L 318.36906 93.757994 
L 319.698035 113.137869 
L 319.546815 120.558574 
M 319.829694 146.614799 
L 320.141271 154.013971 
L 318.797318 173.39493 
L 318.217923 190.956403 
L 318.888146 206.347113 
L 318.142623 219.557363 
L 317.504407 230.778089 
L 318.350525 240.28 
M 94.753116 240.28 
L 96.553833 230.778089 
L 95.616803 219.557363 
L 94.21058 206.347113 
L 94.641709 190.956403 
L 93.057918 173.39493 
L 93.851919 154.013971 
L 93.34552 146.598313 
M 93.111286 120.570628 
L 93.484658 113.137869 
L 92.455225 93.757994 
L 96.545558 76.198006 
L 94.616043 60.808896 
L 93.863936 47.600163 
L 92.887146 36.380776 
L 94.714312 26.88 
" clip-path="url(#pec4968885c)" style="fill: none; stroke-dasharray: 1.85,0.8; stroke-dashoffset: 0; stroke: #000000; stroke-width: 0.5"/>
    <path d="M 316.036827 26.88 
L 313.186776 36.380776 
L 316.365778 47.600163 
L 316.283983 60.808896 
L 317.119033 76.198006 
L 316.118477 93.757994 
L 317.876719 113.137869 
L 317.676606 120.560358 
M 318.050481 146.607201 
L 318.463123 154.013971 
L 316.685064 173.39493 
L 315.918521 190.956403 
L 316.805231 206.347113 
L 315.818898 219.557363 
L 314.974534 230.778089 
L 316.093954 240.28 
M 97.35325 240.28 
L 99.735611 230.778089 
L 98.495913 219.557363 
L 96.635471 206.347113 
L 97.205857 190.956403 
L 95.110491 173.39493 
L 96.16096 154.013971 
L 95.489195 146.578436 
M 95.18038 120.581426 
L 95.675072 113.137869 
L 94.313124 93.757994 
L 99.724663 76.198006 
L 97.171902 60.808896 
L 96.176859 47.600163 
L 94.88456 36.380776 
L 97.301912 26.88 
" clip-path="url(#pec4968885c)" style="fill: none; stroke-dasharray: 1.85,0.8; stroke-dashoffset: 0; stroke: #000000; stroke-width: 0.5"/>
    <path d="M 313.766309 26.88 
L 310.220429 36.380776 
L 314.175571 47.600163 
L 314.073807 60.808896 
L 315.112731 76.198006 
L 313.867893 93.757994 
L 316.055402 113.137869 
L 315.807808 120.519354 
M 316.273912 146.640722 
L 316.784975 154.013971 
L 314.572811 173.39493 
L 313.619118 190.956403 
L 314.722315 206.347113 
L 313.495173 219.557363 
L 312.444661 230.778089 
L 313.837383 240.28 
M 99.953384 240.28 
L 102.917389 230.778089 
L 101.375024 219.557363 
L 99.060363 206.347113 
L 99.770006 190.956403 
L 97.163065 173.39493 
L 98.470001 154.013971 
L 97.636227 146.596228 
M 97.252448 120.552013 
L 97.865486 113.137869 
L 96.171024 93.757994 
L 102.903768 76.198006 
L 99.72776 60.808896 
L 98.489781 47.600163 
L 96.881973 36.380776 
L 99.889512 26.88 
" clip-path="url(#pec4968885c)" style="fill: none; stroke-dasharray: 1.85,0.8; stroke-dashoffset: 0; stroke: #000000; stroke-width: 0.5"/>
    <path d="M 311.495791 26.88 
L 307.254082 36.380776 
L 311.985365 47.600163 
L 311.863631 60.808896 
L 313.106429 76.198006 
L 311.617309 93.757994 
L 314.234086 113.137869 
L 313.937793 120.522136 
M 314.494496 146.628912 
L 315.106828 154.013971 
L 312.460557 173.39493 
L 311.319716 190.956403 
L 312.639399 206.347113 
L 311.171449 219.557363 
L 309.914788 230.778089 
L 311.580812 240.28 
M 102.553518 240.28 
L 106.099166 230.778089 
L 104.254135 219.557363 
L 101.485254 206.347113 
L 102.334155 190.956403 
L 99.215638 173.39493 
L 100.779042 154.013971 
L 99.777527 146.565553 
M 99.320905 120.568765 
L 100.0559 113.137869 
L 98.028924 93.757994 
L 106.082873 76.198006 
L 102.283619 60.808896 
L 100.802704 47.600163 
L 98.879386 36.380776 
L 102.477112 26.88 
" clip-path="url(#pec4968885c)" style="fill: none; stroke-dasharray: 1.85,0.8; stroke-dashoffset: 0; stroke: #000000; stroke-width: 0.5"/>
    <path d="M 309.225272 26.88 
L 304.287735 36.380776 
L 309.795159 47.600163 
L 309.653455 60.808896 
L 311.100128 76.198006 
L 309.366725 93.757994 
L 312.41277 113.137869 
L 312.067719 120.525413 
M 312.714559 146.615032 
L 313.42868 154.013971 
L 310.348303 173.39493 
L 309.020314 190.956403 
L 310.556484 206.347113 
L 308.847724 219.557363 
L 307.384916 230.778089 
L 309.324241 240.28 
M 105.153652 240.28 
L 109.280944 230.778089 
L 107.133246 219.557363 
L 103.910145 206.347113 
L 104.898303 190.956403 
L 101.268212 173.39493 
L 103.088083 154.013971 
L 101.91666 146.529674 
M 101.388483 120.588429 
L 102.246313 113.137869 
L 99.886823 93.757994 
L 109.261978 76.198006 
L 104.839478 60.808896 
L 103.115627 47.600163 
L 100.876799 36.380776 
L 105.064712 26.88 
" clip-path="url(#pec4968885c)" style="fill: none; stroke-dasharray: 1.85,0.8; stroke-dashoffset: 0; stroke: #000000; stroke-width: 0.5"/>
    <path d="M 306.954754 26.88 
L 301.473333 36.18338 
L 301.075951 36.380776 
L 301.473333 36.582365 
L 307.604953 47.600163 
L 307.443279 60.808896 
L 309.093826 76.198006 
L 307.116141 93.757994 
L 308.286406 100.283905 
M 309.897725 126.156006 
L 309.501542 133.590571 
L 311.750532 154.013971 
L 308.23605 173.39493 
L 306.720912 190.956403 
L 308.473568 206.347113 
L 306.523999 219.557363 
L 304.855043 230.778089 
L 307.06767 240.28 
M 107.753786 240.28 
L 110.566667 234.153055 
L 134.43 230.784632 
L 134.48896 230.778089 
L 141.175757 219.557363 
L 134.43 216.923971 
L 120.076148 219.557363 
L 110.566667 222.297344 
L 110.012356 219.557363 
L 106.335037 206.347113 
L 107.462452 190.956403 
L 106.322291 186.121896 
M 104.710205 160.425814 
L 105.397125 154.013971 
L 101.750018 133.590571 
L 104.436727 113.137869 
L 101.744723 93.757994 
L 110.566667 78.137601 
L 131.082777 76.198006 
L 110.566667 71.24093 
L 107.395336 60.808896 
L 105.42855 47.600163 
L 102.874213 36.380776 
L 107.652312 26.88 
M 229.883333 188.858283 
L 225.845766 190.956403 
L 229.883333 193.089 
L 232.909563 190.956403 
L 229.883333 188.858283 
z
" clip-path="url(#pec4968885c)" style="fill: none; stroke-dasharray: 1.85,0.8; stroke-dashoffset: 0; stroke: #000000; stroke-width: 0.5"/>
    <path d="M 114.249764 26.88 
L 120.538478 27.414581 
M 148.287122 27.100945 
L 150.335736 26.88 
M 304.684236 26.88 
L 301.473333 32.329727 
L 293.318034 36.380776 
L 301.473333 40.517908 
L 305.414747 47.600163 
L 305.233103 60.808896 
L 307.087524 76.198006 
L 304.865557 93.757994 
L 306.181086 100.287447 
M 307.988386 126.194992 
L 307.5456 133.590571 
L 310.072384 154.013971 
L 306.123796 173.39493 
L 304.421509 190.956403 
L 306.390652 206.347113 
L 304.200275 219.557363 
L 302.32517 230.778089 
L 304.8111 240.28 
M 110.35392 240.28 
L 110.566667 239.816601 
L 134.43 234.677376 
L 158.293333 233.010815 
L 182.156667 233.413461 
L 203.095026 230.778089 
L 182.156667 220.801087 
L 178.555286 219.557363 
L 158.293333 218.257896 
L 134.43 207.862281 
L 110.566667 212.686802 
L 108.759928 206.347113 
L 110.026601 190.956403 
L 108.736315 186.086827 
M 106.937537 160.399739 
L 107.706166 154.013971 
L 103.608572 133.590571 
L 106.627141 113.137869 
L 103.602623 93.757994 
L 110.566667 81.427253 
L 134.43 83.939324 
L 146.526418 76.198006 
L 134.43 66.302961 
L 110.566667 62.833479 
L 109.951195 60.808896 
L 107.741473 47.600163 
L 104.871626 36.380776 
L 110.239912 26.88 
M 134.43 109.187764 
L 131.082416 113.137869 
L 134.43 116.317751 
L 136.848736 113.137869 
L 134.43 109.187764 
z
M 134.43 151.902145 
L 131.346288 154.013971 
L 134.43 156.474953 
L 135.786943 154.013971 
L 134.43 151.902145 
z
M 134.43 187.28538 
L 119.794534 190.956403 
L 134.43 201.213152 
L 138.53152 190.956403 
L 134.43 187.28538 
z
M 229.883333 183.93436 
L 216.370294 190.956403 
L 229.883333 198.093836 
L 240.011601 190.956403 
L 229.883333 183.93436 
z
M 236.120544 226.447489 
L 233.967037 219.557363 
L 229.883333 216.51762 
L 212.71568 219.557363 
L 207.363311 230.778089 
L 216.277079 232.66432 
M 277.61 227.35047 
L 275.179916 230.778089 
L 277.61 232.332799 
L 286.859275 230.778089 
L 277.61 227.35047 
z
" clip-path="url(#pec4968885c)" style="fill: none; stroke-dasharray: 1.85,0.8; stroke-dashoffset: 0; stroke: #000000; stroke-width: 0.5"/>
    <path d="M 302.413718 26.88 
L 301.473333 28.476074 
L 285.560117 36.380776 
L 301.473333 44.45345 
L 303.22454 47.600163 
L 303.022927 60.808896 
L 305.081222 76.198006 
L 302.614974 93.757994 
L 306.948822 113.137869 
L 305.589659 133.590571 
L 308.394236 154.013971 
L 306.914123 160.559264 
M 302.606986 186.449662 
L 302.122107 190.956403 
L 304.307737 206.347113 
L 301.87655 219.557363 
L 301.473333 221.884102 
L 295.46346 219.557363 
L 277.61 214.531668 
L 271.144993 219.557363 
L 263.776719 230.778089 
L 277.61 239.628293 
L 301.473333 236.294892 
L 302.554529 240.28 
M 126.708097 240.28 
L 134.43 238.570121 
L 144.325485 239.145564 
M 172.284633 240.246642 
L 173.900624 240.28 
M 182.794317 240.28 
L 192.32892 238.386981 
M 219.641271 238.679524 
L 226.882052 240.28 
M 231.324643 240.28 
L 246.131631 230.778089 
L 242.252627 219.557363 
L 229.883333 210.350164 
L 206.02 215.357308 
L 182.156667 215.522314 
L 158.293333 213.308962 
L 143.30384 206.347113 
L 150.809756 190.956403 
L 134.43 176.29587 
L 110.566667 184.979897 
L 107.425932 173.39493 
L 110.015207 154.013971 
L 108.327357 146.434591 
M 107.591609 120.621658 
L 108.817554 113.137869 
L 105.460522 93.757994 
L 110.566667 84.716905 
L 134.43 92.504572 
L 158.293333 77.377237 
L 159.64184 76.198006 
L 158.293333 75.13331 
L 140.028094 60.808896 
L 134.43 57.457948 
L 110.566667 50.583313 
L 110.054396 47.600163 
L 106.869039 36.380776 
L 110.566667 29.926332 
L 134.43 31.074814 
L 158.293333 28.873271 
L 167.954102 26.88 
M 134.43 95.727712 
L 119.675465 113.137869 
L 124.599141 117.814887 
M 142.555673 116.470537 
L 145.090624 113.137869 
L 134.43 95.727712 
M 140.856714 158.205661 
L 143.167939 154.013971 
L 134.43 140.415012 
L 114.572652 154.013971 
L 123.773207 161.35655 
M 229.883333 179.010436 
L 206.894822 190.956403 
L 217.690386 196.658497 
M 241.070329 195.215148 
L 247.113638 190.956403 
L 229.883333 179.010436 
M 290.3126 193.240093 
L 295.580612 190.956403 
L 277.61 181.869577 
L 266.167142 190.956403 
L 266.285849 191.037219 
" clip-path="url(#pec4968885c)" style="fill: none; stroke-dasharray: 1.85,0.8; stroke-dashoffset: 0; stroke: #000000; stroke-width: 0.5"/>
    <path d="M 295.845715 26.88 
L 277.8022 36.380776 
L 299.085177 47.600163 
L 296.850003 60.808896 
L 301.473333 65.001113 
L 303.07492 76.198006 
L 301.473333 87.055946 
L 277.61 87.487433 
L 272.83203 93.757994 
L 277.61 100.665282 
L 301.473333 97.579077 
L 305.127506 113.137869 
L 303.633718 133.590571 
L 306.716088 154.013971 
L 301.899289 173.39493 
L 301.473333 177.246362 
L 289.417923 173.39493 
L 277.61 167.55045 
L 276.295626 173.39493 
L 253.746667 190.620697 
L 229.883333 174.086512 
L 206.02 186.13011 
L 182.156667 188.19035 
L 158.293333 187.88078 
L 141.250346 173.39493 
L 150.548935 154.013971 
L 140.77602 133.590571 
L 153.332511 113.137869 
L 147.728043 93.757994 
L 158.293333 87.137947 
L 170.803674 76.198006 
L 158.293333 66.320623 
L 151.265261 60.808896 
L 134.43 50.731522 
L 125.50019 47.600163 
L 110.566667 42.240677 
L 108.866452 36.380776 
L 110.566667 33.412944 
L 134.43 33.554178 
L 158.293333 31.921793 
L 168.492564 29.805628 
M 242.536595 240.28 
L 253.746667 231.799465 
L 266.23518 240.28 
M 233.188915 89.723931 
L 230.207197 76.198006 
L 234.008344 60.808896 
L 229.883333 59.531349 
L 228.443961 60.808896 
L 229.503413 76.198006 
L 224.148161 91.044124 
M 110.566667 88.006557 
L 126.600951 93.757994 
L 110.566667 111.135392 
L 107.318422 93.757994 
L 110.566667 88.006557 
z
M 107.641697 134.976874 
L 107.325679 133.590571 
L 110.566667 115.256109 
L 129.924193 133.590571 
L 121.58345 139.716587 
M 229.883333 130.822646 
L 228.15568 133.590571 
L 229.883333 139.996897 
L 231.33282 133.590571 
L 229.883333 130.822646 
z
M 277.61 125.543465 
L 270.698966 133.590571 
L 277.61 147.287498 
L 288.527997 133.590571 
L 277.61 125.543465 
z
M 110.566667 165.43817 
L 120.558221 173.39493 
L 110.566667 177.408738 
L 109.478506 173.39493 
L 110.566667 165.43817 
z
M 192.043187 210.820756 
L 182.156667 211.289729 
L 158.293333 208.360029 
L 153.959343 206.347113 
L 158.293333 198.495033 
L 182.156667 194.855847 
L 206.02 199.47167 
L 222.156411 206.347113 
L 219.590829 206.95298 
M 247.189599 217.001048 
L 233.233591 206.347113 
L 253.746667 191.415311 
L 275.951219 206.347113 
L 261.439743 217.397405 
M 301.473333 201.199174 
L 302.224821 206.347113 
L 301.473333 210.361449 
L 284.957998 206.347113 
L 301.473333 201.199174 
z
" clip-path="url(#pec4968885c)" style="fill: none; stroke-dasharray: 1.85,0.8; stroke-dashoffset: 0; stroke: #000000; stroke-width: 0.5"/>
    <path d="M 223.131192 26.88 
L 228.908235 36.380776 
L 229.883333 37.966585 
L 253.746667 41.788236 
L 277.61 42.535834 
L 287.170455 47.600163 
L 281.381275 60.808896 
L 293.875594 76.198006 
L 277.61 79.602962 
L 266.824312 93.757994 
L 277.61 109.350359 
L 301.473333 105.333905 
L 303.30619 113.137869 
L 301.677777 133.590571 
L 305.037941 154.013971 
L 301.473333 168.100574 
L 282.464925 154.013971 
L 300.248278 133.590571 
L 277.61 116.905036 
L 263.28009 133.590571 
L 273.301904 154.013971 
L 269.641217 173.39493 
L 253.746667 185.537212 
L 236.19826 173.39493 
L 235.027099 154.013971 
L 241.141846 133.590571 
L 230.469483 113.137869 
L 240.269469 93.757994 
L 240.253851 76.198006 
L 253.746667 61.655129 
L 259.539162 60.808896 
L 253.746667 59.491502 
L 229.883333 52.900016 
L 220.972641 60.808896 
L 217.717822 76.198006 
L 213.259767 93.757994 
L 229.156896 113.137869 
L 216.464235 133.590571 
L 222.892118 154.013971 
L 220.785794 173.39493 
L 218.274032 174.656779 
M 192.119873 181.044236 
L 182.156667 181.210045 
L 158.293333 180.00468 
L 150.516788 173.39493 
L 157.929932 154.013971 
L 156.410246 133.590571 
L 158.293333 128.839841 
L 168.563526 113.137869 
L 167.754573 93.757994 
L 181.965509 76.198006 
L 166.988748 60.808896 
L 158.293333 57.506936 
L 142.121242 47.600163 
L 134.43 38.710246 
L 122.859464 36.380776 
L 134.43 36.033541 
L 158.293333 34.970315 
L 182.156667 29.307086 
L 191.888816 26.88 
M 286.239455 26.88 
L 277.61 31.435383 
L 265.747785 26.88 
M 110.566667 91.296208 
L 117.429815 93.757994 
L 110.566667 101.196035 
L 109.176322 93.757994 
L 110.566667 91.296208 
z
M 110.566667 125.770058 
L 118.823564 133.590571 
L 110.566667 139.655005 
L 109.184233 133.590571 
L 110.566667 125.770058 
z
M 182.156667 204.696334 
L 191.362011 206.347113 
L 182.156667 207.057144 
L 176.896382 206.347113 
L 182.156667 204.696334 
z
M 253.746667 198.36439 
L 265.61749 206.347113 
L 253.746667 214.961988 
L 242.780127 206.347113 
L 253.746667 198.36439 
z
" clip-path="url(#pec4968885c)" style="fill: none; stroke-dasharray: 1.85,0.8; stroke-dashoffset: 0; stroke: #000000; stroke-width: 0.5"/>
    <path d="M 211.786426 26.88 
L 221.496465 36.380776 
L 228.502807 47.600163 
L 213.501321 60.808896 
L 206.02 76.0844 
L 193.70789 65.47498 
M 169.324862 53.193536 
L 158.293333 48.691578 
L 156.511676 47.600163 
L 158.293333 45.499157 
L 163.292797 36.380776 
L 182.156667 31.643611 
L 201.257828 26.88 
M 243.486797 172.162546 
L 242.62861 154.013971 
L 250.950872 133.590571 
L 240.961637 113.137869 
L 246.460736 93.757994 
L 250.300504 76.198006 
L 253.746667 72.48365 
L 262.730276 76.198006 
L 260.816595 93.757994 
L 270.060412 113.137869 
L 255.861214 133.590571 
L 265.36105 154.013971 
L 263.223651 171.461576 
M 197.45511 120.751227 
L 191.17109 113.137869 
L 206.02 98.736559 
L 216.153574 113.137869 
L 212.555452 119.525599 
M 301.473333 113.088733 
L 301.484873 113.137869 
L 301.473333 113.28157 
L 301.20818 113.137869 
L 301.473333 113.088733 
z
M 175.535155 172.204969 
L 182.156667 169.990015 
L 193.369961 154.013971 
L 206.02 136.535878 
L 212.560428 154.013971 
L 210.201679 173.39493 
L 206.02 175.495704 
L 196.129008 174.970981 
M 301.473333 142.646121 
L 303.359793 154.013971 
L 301.473333 161.468875 
L 291.413714 154.013971 
L 301.473333 142.646121 
z
M 253.746667 205.313469 
L 255.283761 206.347113 
L 253.746667 207.462611 
L 252.326663 206.347113 
L 253.746667 205.313469 
z
" clip-path="url(#pec4968885c)" style="fill: none; stroke-dasharray: 1.85,0.8; stroke-dashoffset: 0; stroke: #000000; stroke-width: 0.5"/>
    <path d="M 193.135877 55.823595 
L 182.156667 51.567541 
L 172.670557 47.600163 
L 172.597073 36.380776 
L 182.156667 33.980135 
L 206.02 29.837095 
L 214.084696 36.380776 
L 221.627196 47.600163 
L 216.363273 52.058 
M 251.937046 105.321702 
L 252.652003 93.757994 
L 253.746667 90.034354 
L 254.808877 93.757994 
L 255.948409 105.608756 
M 250.559101 163.648774 
L 250.23012 154.013971 
L 253.746667 145.990712 
L 257.420197 154.013971 
L 256.890122 163.458154 
M 301.473333 152.758681 
L 301.681645 154.013971 
L 301.473333 154.837176 
L 300.362503 154.013971 
L 301.473333 152.758681 
z
" clip-path="url(#pec4968885c)" style="fill: none; stroke-dasharray: 1.85,0.8; stroke-dashoffset: 0; stroke: #000000; stroke-width: 0.5"/>
    <path d="M 193.211752 49.707168 
L 188.107432 47.600163 
L 182.156667 37.065954 
L 181.901349 36.380776 
L 182.156667 36.316659 
L 206.02 35.850992 
L 206.672927 36.380776 
L 213.504515 45.86827 
" clip-path="url(#pec4968885c)" style="fill: none; stroke-dasharray: 1.85,0.8; stroke-dashoffset: 0; stroke: #000000; stroke-width: 0.5"/>
    <path d="M 206.02 45.037624 
L 207.875976 47.600163 
L 206.02 49.171845 
L 202.212526 47.600163 
L 206.02 45.037624 
z
" clip-path="url(#pec4968885c)" style="fill: none; stroke-dasharray: 1.85,0.8; stroke-dashoffset: 0; stroke: #000000; stroke-width: 0.5"/>
    <path clip-path="url(#pec4968885c)" style="fill: none; stroke-dasharray: 1.85,0.8; stroke-dashoffset: 0; stroke: #000000; stroke-width: 0.5"/>
   </g>
   <g id="patch_3">
    <path d="M 62.84 240.28 
L 62.84 26.88 
" style="fill: none; stroke: #000000; stroke-width: 0.8; stroke-linejoin: miter; stroke-linecap: square"/>
   </g>
   <g id="patch_4">
    <path d="M 349.2 240.28 
L 349.2 26.88 
" style="fill: none; stroke: #000000; stroke-width: 0.8; stroke-linejoin: miter; stroke-linecap: square"/>
   </g>
   <g id="patch_5">
    <path d="M 62.84 240.28 
L 349.2 240.28 
" style="fill: none; stroke: #000000; stroke-width: 0.8; stroke-linejoin: miter; stroke-linecap: square"/>
   </g>
   <g id="patch_6">
    <path d="M 62.84 26.88 
L 349.2 26.88 
" style="fill: none; stroke: #000000; stroke-width: 0.8; stroke-linejoin: miter; stroke-linecap: square"/>
   </g>
   <g id="text_11">
    <!-- Band 400 -->
    <g transform="translate(177.255625 20.88) scale(0.12 -0.12)">
     <defs>
      <path id="DejaVuSans-42" d="M 1259 2228 
L 1259 519 
L 2272 519 
Q 2781 519 3026 730 
Q 3272 941 3272 1375 
Q 3272 1813 3026 2020 
Q 2781 2228 2272 2228 
L 1259 2228 
z
M 1259 4147 
L 1259 2741 
L 2194 2741 
Q 2656 2741 2882 2914 
Q 3109 3088 3109 3444 
Q 3109 3797 2882 3972 
Q 2656 4147 2194 4147 
L 1259 4147 
z
M 628 4666 
L 2241 4666 
Q 2963 4666 3353 4366 
Q 3744 4066 3744 3513 
Q 3744 3084 3544 2831 
Q 3344 2578 2956 2516 
Q 3422 2416 3680 2098 
Q 3938 1781 3938 1306 
Q 3938 681 3513 340 
Q 3088 0 2303 0 
L 628 0 
L 628 4666 
z
" transform="scale(0.015625)"/>
      <path id="DejaVuSans-61" d="M 2194 1759 
Q 1497 1759 1228 1600 
Q 959 1441 959 1056 
Q 959 750 1161 570 
Q 1363 391 1709 391 
Q 2188 391 2477 730 
Q 2766 1069 2766 1631 
L 2766 1759 
L 2194 1759 
z
M 3341 1997 
L 3341 0 
L 2766 0 
L 2766 531 
Q 2569 213 2275 61 
Q 1981 -91 1556 -91 
Q 1019 -91 701 211 
Q 384 513 384 1019 
Q 384 1609 779 1909 
Q 1175 2209 1959 2209 
L 2766 2209 
L 2766 2266 
Q 2766 2663 2505 2880 
Q 2244 3097 1772 3097 
Q 1472 3097 1187 3025 
Q 903 2953 641 2809 
L 641 3341 
Q 956 3463 1253 3523 
Q 1550 3584 1831 3584 
Q 2591 3584 2966 3190 
Q 3341 2797 3341 1997 
z
" transform="scale(0.015625)"/>
      <path id="DejaVuSans-6e" d="M 3513 2113 
L 3513 0 
L 2938 0 
L 2938 2094 
Q 2938 2591 2744 2837 
Q 2550 3084 2163 3084 
Q 1697 3084 1428 2787 
Q 1159 2491 1159 1978 
L 1159 0 
L 581 0 
L 581 3500 
L 1159 3500 
L 1159 2956 
Q 1366 3272 1645 3428 
Q 1925 3584 2291 3584 
Q 2894 3584 3203 3211 
Q 3513 2838 3513 2113 
z
" transform="scale(0.015625)"/>
      <path id="DejaVuSans-64" d="M 2906 2969 
L 2906 4863 
L 3481 4863 
L 3481 0 
L 2906 0 
L 2906 525 
Q 2725 213 2448 61 
Q 2172 -91 1784 -91 
Q 1150 -91 751 415 
Q 353 922 353 1747 
Q 353 2572 751 3078 
Q 1150 3584 1784 3584 
Q 2172 3584 2448 3432 
Q 2725 3281 2906 2969 
z
M 947 1747 
Q 947 1113 1208 752 
Q 1469 391 1925 391 
Q 2381 391 2643 752 
Q 2906 1113 2906 1747 
Q 2906 2381 2643 2742 
Q 2381 3103 1925 3103 
Q 1469 3103 1208 2742 
Q 947 2381 947 1747 
z
" transform="scale(0.015625)"/>
      <path id="DejaVuSans-20" transform="scale(0.015625)"/>
     </defs>
     <use xlink:href="#DejaVuSans-42"/>
     <use xlink:href="#DejaVuSans-61" transform="translate(68.603516 0)"/>
     <use xlink:href="#DejaVuSans-6e" transform="translate(129.882812 0)"/>
     <use xlink:href="#DejaVuSans-64" transform="translate(193.261719 0)"/>
     <use xlink:href="#DejaVuSans-20" transform="translate(256.738281 0)"/>
     <use xlink:href="#DejaVuSans-34" transform="translate(288.525391 0)"/>
     <use xlink:href="#DejaVuSans-30" transform="translate(352.148438 0)"/>
     <use xlink:href="#DejaVuSans-30" transform="translate(415.771484 0)"/>
    </g>
   </g>
   <g id="text_12">
    <g clip-path="url(#pec4968885c)">
     <!-- 60.0 -->
     <g transform="translate(322.662472 123.571824) rotate(-270.018083) scale(0.09 -0.09)">
      <defs>
       <path id="DejaVuSans-36" d="M 2113 2584 
Q 1688 2584 1439 2293 
Q 1191 2003 1191 1497 
Q 1191 994 1439 701 
Q 1688 409 2113 409 
Q 2538 409 2786 701 
Q 3034 994 3034 1497 
Q 3034 2003 2786 2293 
Q 2538 2584 2113 2584 
z
M 3366 4563 
L 3366 3988 
Q 3128 4100 2886 4159 
Q 2644 4219 2406 4219 
Q 1781 4219 1451 3797 
Q 1122 3375 1075 2522 
Q 1259 2794 1537 2939 
Q 1816 3084 2150 3084 
Q 2853 3084 3261 2657 
Q 3669 2231 3669 1497 
Q 3669 778 3244 343 
Q 2819 -91 2113 -91 
Q 1303 -91 875 529 
Q 447 1150 447 2328 
Q 447 3434 972 4092 
Q 1497 4750 2381 4750 
Q 2619 4750 2861 4703 
Q 3103 4656 3366 4563 
z
" transform="scale(0.015625)"/>
       <path id="DejaVuSans-2e" d="M 684 794 
L 1344 794 
L 1344 0 
L 684 0 
L 684 794 
z
" transform="scale(0.015625)"/>
      </defs>
      <use xlink:href="#DejaVuSans-36"/>
      <use xlink:href="#DejaVuSans-30" transform="translate(63.623047 0)"/>
      <use xlink:href="#DejaVuSans-2e" transform="translate(127.246094 0)"/>
      <use xlink:href="#DejaVuSans-30" transform="translate(159.033203 0)"/>
     </g>
    </g>
   </g>
   <g id="text_13">
    <g clip-path="url(#pec4968885c)">
     <!-- 60.0 -->
     <g transform="translate(84.395524 123.571691) rotate(-270.015023) scale(0.09 -0.09)">
      <use xlink:href="#DejaVuSans-36"/>
      <use xlink:href="#DejaVuSans-30" transform="translate(63.623047 0)"/>
      <use xlink:href="#DejaVuSans-2e" transform="translate(127.246094 0)"/>
      <use xlink:href="#DejaVuSans-30" transform="translate(159.033203 0)"/>
     </g>
    </g>
   </g>
   <g id="text_14">
    <g clip-path="url(#pec4968885c)">
     <!-- 60.8 -->
     <g transform="translate(320.67358 123.580059) rotate(-270.206598) scale(0.09 -0.09)">
      <defs>
       <path id="DejaVuSans-38" d="M 2034 2216 
Q 1584 2216 1326 1975 
Q 1069 1734 1069 1313 
Q 1069 891 1326 650 
Q 1584 409 2034 409 
Q 2484 409 2743 651 
Q 3003 894 3003 1313 
Q 3003 1734 2745 1975 
Q 2488 2216 2034 2216 
z
M 1403 2484 
Q 997 2584 770 2862 
Q 544 3141 544 3541 
Q 544 4100 942 4425 
Q 1341 4750 2034 4750 
Q 2731 4750 3128 4425 
Q 3525 4100 3525 3541 
Q 3525 3141 3298 2862 
Q 3072 2584 2669 2484 
Q 3125 2378 3379 2068 
Q 3634 1759 3634 1313 
Q 3634 634 3220 271 
Q 2806 -91 2034 -91 
Q 1263 -91 848 271 
Q 434 634 434 1313 
Q 434 1759 690 2068 
Q 947 2378 1403 2484 
z
M 1172 3481 
Q 1172 3119 1398 2916 
Q 1625 2713 2034 2713 
Q 2441 2713 2670 2916 
Q 2900 3119 2900 3481 
Q 2900 3844 2670 4047 
Q 2441 4250 2034 4250 
Q 1625 4250 1398 4047 
Q 1172 3844 1172 3481 
z
" transform="scale(0.015625)"/>
      </defs>
      <use xlink:href="#DejaVuSans-36"/>
      <use xlink:href="#DejaVuSans-30" transform="translate(63.623047 0)"/>
      <use xlink:href="#DejaVuSans-2e" transform="translate(127.246094 0)"/>
      <use xlink:href="#DejaVuSans-38" transform="translate(159.033203 0)"/>
     </g>
    </g>
   </g>
   <g id="text_15">
    <g clip-path="url(#pec4968885c)">
     <!-- 60.8 -->
     <g transform="translate(86.226709 123.578522) rotate(-270.171592) scale(0.09 -0.09)">
      <use xlink:href="#DejaVuSans-36"/>
      <use xlink:href="#DejaVuSans-30" transform="translate(63.623047 0)"/>
      <use xlink:href="#DejaVuSans-2e" transform="translate(127.246094 0)"/>
      <use xlink:href="#DejaVuSans-38" transform="translate(159.033203 0)"/>
     </g>
    </g>
   </g>
   <g id="text_16">
    <g clip-path="url(#pec4968885c)">
     <!-- 61.6 -->
     <g transform="translate(318.684736 123.588398) rotate(-270.394997) scale(0.09 -0.09)">
      <defs>
       <path id="DejaVuSans-31" d="M 794 531 
L 1825 531 
L 1825 4091 
L 703 3866 
L 703 4441 
L 1819 4666 
L 2450 4666 
L 2450 531 
L 3481 531 
L 3481 0 
L 794 0 
L 794 531 
z
" transform="scale(0.015625)"/>
      </defs>
      <use xlink:href="#DejaVuSans-36"/>
      <use xlink:href="#DejaVuSans-31" transform="translate(63.623047 0)"/>
      <use xlink:href="#DejaVuSans-2e" transform="translate(127.246094 0)"/>
      <use xlink:href="#DejaVuSans-36" transform="translate(159.033203 0)"/>
     </g>
    </g>
   </g>
   <g id="text_17">
    <g clip-path="url(#pec4968885c)">
     <!-- 61.6 -->
     <g transform="translate(88.057971 123.585413) rotate(-270.327826) scale(0.09 -0.09)">
      <use xlink:href="#DejaVuSans-36"/>
      <use xlink:href="#DejaVuSans-31" transform="translate(63.623047 0)"/>
      <use xlink:href="#DejaVuSans-2e" transform="translate(127.246094 0)"/>
      <use xlink:href="#DejaVuSans-36" transform="translate(159.033203 0)"/>
     </g>
    </g>
   </g>
   <g id="text_18">
    <g clip-path="url(#pec4968885c)">
     <!-- 62.4 -->
     <g transform="translate(316.695958 123.596835) rotate(-270.583177) scale(0.09 -0.09)">
      <use xlink:href="#DejaVuSans-36"/>
      <use xlink:href="#DejaVuSans-32" transform="translate(63.623047 0)"/>
      <use xlink:href="#DejaVuSans-2e" transform="translate(127.246094 0)"/>
      <use xlink:href="#DejaVuSans-34" transform="translate(159.033203 0)"/>
     </g>
    </g>
   </g>
   <g id="text_19">
    <g clip-path="url(#pec4968885c)">
     <!-- 62.4 -->
     <g transform="translate(89.889363 123.59235) rotate(-270.483426) scale(0.09 -0.09)">
      <use xlink:href="#DejaVuSans-36"/>
      <use xlink:href="#DejaVuSans-32" transform="translate(63.623047 0)"/>
      <use xlink:href="#DejaVuSans-2e" transform="translate(127.246094 0)"/>
      <use xlink:href="#DejaVuSans-34" transform="translate(159.033203 0)"/>
     </g>
    </g>
   </g>
   <g id="text_20">
    <g clip-path="url(#pec4968885c)">
     <!-- 63.2 -->
     <g transform="translate(314.707265 123.605365) rotate(-270.771031) scale(0.09 -0.09)">
      <defs>
       <path id="DejaVuSans-33" d="M 2597 2516 
Q 3050 2419 3304 2112 
Q 3559 1806 3559 1356 
Q 3559 666 3084 287 
Q 2609 -91 1734 -91 
Q 1441 -91 1130 -33 
Q 819 25 488 141 
L 488 750 
Q 750 597 1062 519 
Q 1375 441 1716 441 
Q 2309 441 2620 675 
Q 2931 909 2931 1356 
Q 2931 1769 2642 2001 
Q 2353 2234 1838 2234 
L 1294 2234 
L 1294 2753 
L 1863 2753 
Q 2328 2753 2575 2939 
Q 2822 3125 2822 3475 
Q 2822 3834 2567 4026 
Q 2313 4219 1838 4219 
Q 1578 4219 1281 4162 
Q 984 4106 628 3988 
L 628 4550 
Q 988 4650 1302 4700 
Q 1616 4750 1894 4750 
Q 2613 4750 3031 4423 
Q 3450 4097 3450 3541 
Q 3450 3153 3228 2886 
Q 3006 2619 2597 2516 
z
" transform="scale(0.015625)"/>
      </defs>
      <use xlink:href="#DejaVuSans-36"/>
      <use xlink:href="#DejaVuSans-33" transform="translate(63.623047 0)"/>
      <use xlink:href="#DejaVuSans-2e" transform="translate(127.246094 0)"/>
      <use xlink:href="#DejaVuSans-32" transform="translate(159.033203 0)"/>
     </g>
    </g>
   </g>
   <g id="text_21">
    <g clip-path="url(#pec4968885c)">
     <!-- 63.2 -->
     <g transform="translate(91.720937 123.599318) rotate(-270.638091) scale(0.09 -0.09)">
      <use xlink:href="#DejaVuSans-36"/>
      <use xlink:href="#DejaVuSans-33" transform="translate(63.623047 0)"/>
      <use xlink:href="#DejaVuSans-2e" transform="translate(127.246094 0)"/>
      <use xlink:href="#DejaVuSans-32" transform="translate(159.033203 0)"/>
     </g>
    </g>
   </g>
   <g id="text_22">
    <g clip-path="url(#pec4968885c)">
     <!-- 64.0 -->
     <g transform="translate(312.718674 123.613983) rotate(-270.958456) scale(0.09 -0.09)">
      <use xlink:href="#DejaVuSans-36"/>
      <use xlink:href="#DejaVuSans-34" transform="translate(63.623047 0)"/>
      <use xlink:href="#DejaVuSans-2e" transform="translate(127.246094 0)"/>
      <use xlink:href="#DejaVuSans-30" transform="translate(159.033203 0)"/>
     </g>
    </g>
   </g>
   <g id="text_23">
    <g clip-path="url(#pec4968885c)">
     <!-- 64.0 -->
     <g transform="translate(93.552743 123.606303) rotate(-270.79153) scale(0.09 -0.09)">
      <use xlink:href="#DejaVuSans-36"/>
      <use xlink:href="#DejaVuSans-34" transform="translate(63.623047 0)"/>
      <use xlink:href="#DejaVuSans-2e" transform="translate(127.246094 0)"/>
      <use xlink:href="#DejaVuSans-30" transform="translate(159.033203 0)"/>
     </g>
    </g>
   </g>
   <g id="text_24">
    <g clip-path="url(#pec4968885c)">
     <!-- 64.8 -->
     <g transform="translate(310.730204 123.622682) rotate(-271.14535) scale(0.09 -0.09)">
      <use xlink:href="#DejaVuSans-36"/>
      <use xlink:href="#DejaVuSans-34" transform="translate(63.623047 0)"/>
      <use xlink:href="#DejaVuSans-2e" transform="translate(127.246094 0)"/>
      <use xlink:href="#DejaVuSans-38" transform="translate(159.033203 0)"/>
     </g>
    </g>
   </g>
   <g id="text_25">
    <g clip-path="url(#pec4968885c)">
     <!-- 64.8 -->
     <g transform="translate(95.384831 123.613289) rotate(-270.943461) scale(0.09 -0.09)">
      <use xlink:href="#DejaVuSans-36"/>
      <use xlink:href="#DejaVuSans-34" transform="translate(63.623047 0)"/>
      <use xlink:href="#DejaVuSans-2e" transform="translate(127.246094 0)"/>
      <use xlink:href="#DejaVuSans-38" transform="translate(159.033203 0)"/>
     </g>
    </g>
   </g>
   <g id="text_26">
    <g clip-path="url(#pec4968885c)">
     <!-- 65.6 -->
     <g transform="translate(308.741873 123.631458) rotate(-271.331609) scale(0.09 -0.09)">
      <use xlink:href="#DejaVuSans-36"/>
      <use xlink:href="#DejaVuSans-35" transform="translate(63.623047 0)"/>
      <use xlink:href="#DejaVuSans-2e" transform="translate(127.246094 0)"/>
      <use xlink:href="#DejaVuSans-36" transform="translate(159.033203 0)"/>
     </g>
    </g>
   </g>
   <g id="text_27">
    <g clip-path="url(#pec4968885c)">
     <!-- 65.6 -->
     <g transform="translate(97.217247 123.620263) rotate(-271.093607) scale(0.09 -0.09)">
      <use xlink:href="#DejaVuSans-36"/>
      <use xlink:href="#DejaVuSans-35" transform="translate(63.623047 0)"/>
      <use xlink:href="#DejaVuSans-2e" transform="translate(127.246094 0)"/>
      <use xlink:href="#DejaVuSans-36" transform="translate(159.033203 0)"/>
     </g>
    </g>
   </g>
   <g id="text_28">
    <g clip-path="url(#pec4968885c)">
     <!-- 66.4 -->
     <g transform="translate(307.528174 103.280142) rotate(-273.341818) scale(0.09 -0.09)">
      <use xlink:href="#DejaVuSans-36"/>
      <use xlink:href="#DejaVuSans-36" transform="translate(63.623047 0)"/>
      <use xlink:href="#DejaVuSans-2e" transform="translate(127.246094 0)"/>
      <use xlink:href="#DejaVuSans-34" transform="translate(159.033203 0)"/>
     </g>
    </g>
   </g>
   <g id="text_29">
    <g clip-path="url(#pec4968885c)">
     <!-- 66.4 -->
     <g transform="translate(100.253302 163.53851) rotate(-273.366253) scale(0.09 -0.09)">
      <use xlink:href="#DejaVuSans-36"/>
      <use xlink:href="#DejaVuSans-36" transform="translate(63.623047 0)"/>
      <use xlink:href="#DejaVuSans-2e" transform="translate(127.246094 0)"/>
      <use xlink:href="#DejaVuSans-34" transform="translate(159.033203 0)"/>
     </g>
    </g>
   </g>
   <g id="text_30">
    <g clip-path="url(#pec4968885c)">
     <!-- 67.2 -->
     <g transform="translate(124.441133 31.199489) rotate(-0.69069) scale(0.09 -0.09)">
      <defs>
       <path id="DejaVuSans-37" d="M 525 4666 
L 3525 4666 
L 3525 4397 
L 1831 0 
L 1172 0 
L 2766 4134 
L 525 4134 
L 525 4666 
z
" transform="scale(0.015625)"/>
      </defs>
      <use xlink:href="#DejaVuSans-36"/>
      <use xlink:href="#DejaVuSans-37" transform="translate(63.623047 0)"/>
      <use xlink:href="#DejaVuSans-2e" transform="translate(127.246094 0)"/>
      <use xlink:href="#DejaVuSans-32" transform="translate(159.033203 0)"/>
     </g>
    </g>
   </g>
   <g id="text_31">
    <g clip-path="url(#pec4968885c)">
     <!-- 67.2 -->
     <g transform="translate(305.638071 103.301781) rotate(-273.742068) scale(0.09 -0.09)">
      <use xlink:href="#DejaVuSans-36"/>
      <use xlink:href="#DejaVuSans-37" transform="translate(63.623047 0)"/>
      <use xlink:href="#DejaVuSans-2e" transform="translate(127.246094 0)"/>
      <use xlink:href="#DejaVuSans-32" transform="translate(159.033203 0)"/>
     </g>
    </g>
   </g>
   <g id="text_32">
    <g clip-path="url(#pec4968885c)">
     <!-- 67.2 -->
     <g transform="translate(102.238841 163.559623) rotate(-273.756346) scale(0.09 -0.09)">
      <use xlink:href="#DejaVuSans-36"/>
      <use xlink:href="#DejaVuSans-37" transform="translate(63.623047 0)"/>
      <use xlink:href="#DejaVuSans-2e" transform="translate(127.246094 0)"/>
      <use xlink:href="#DejaVuSans-32" transform="translate(159.033203 0)"/>
     </g>
    </g>
   </g>
   <g id="text_33">
    <g clip-path="url(#pec4968885c)">
     <!-- 67.2 -->
     <g transform="translate(220.656084 240.171301) rotate(-12.71456) scale(0.09 -0.09)">
      <use xlink:href="#DejaVuSans-36"/>
      <use xlink:href="#DejaVuSans-37" transform="translate(63.623047 0)"/>
      <use xlink:href="#DejaVuSans-2e" transform="translate(127.246094 0)"/>
      <use xlink:href="#DejaVuSans-32" transform="translate(159.033203 0)"/>
     </g>
    </g>
   </g>
   <g id="text_34">
    <g clip-path="url(#pec4968885c)">
     <!-- 68.0 -->
     <g transform="translate(304.921192 183.677488) rotate(-81.134763) scale(0.09 -0.09)">
      <use xlink:href="#DejaVuSans-36"/>
      <use xlink:href="#DejaVuSans-38" transform="translate(63.623047 0)"/>
      <use xlink:href="#DejaVuSans-2e" transform="translate(127.246094 0)"/>
      <use xlink:href="#DejaVuSans-30" transform="translate(159.033203 0)"/>
     </g>
    </g>
   </g>
   <g id="text_35">
    <g clip-path="url(#pec4968885c)">
     <!-- 68.0 -->
     <g transform="translate(148.178407 242.018583) rotate(-357.594761) scale(0.09 -0.09)">
      <use xlink:href="#DejaVuSans-36"/>
      <use xlink:href="#DejaVuSans-38" transform="translate(63.623047 0)"/>
      <use xlink:href="#DejaVuSans-2e" transform="translate(127.246094 0)"/>
      <use xlink:href="#DejaVuSans-30" transform="translate(159.033203 0)"/>
     </g>
    </g>
   </g>
   <g id="text_36">
    <g clip-path="url(#pec4968885c)">
     <!-- 68.0 -->
     <g transform="translate(195.972753 238.037545) rotate(-359.345468) scale(0.09 -0.09)">
      <use xlink:href="#DejaVuSans-36"/>
      <use xlink:href="#DejaVuSans-38" transform="translate(63.623047 0)"/>
      <use xlink:href="#DejaVuSans-2e" transform="translate(127.246094 0)"/>
      <use xlink:href="#DejaVuSans-30" transform="translate(159.033203 0)"/>
     </g>
    </g>
   </g>
   <g id="text_37">
    <g clip-path="url(#pec4968885c)">
     <!-- 68.0 -->
     <g transform="translate(102.716912 123.640958) rotate(-271.530785) scale(0.09 -0.09)">
      <use xlink:href="#DejaVuSans-36"/>
      <use xlink:href="#DejaVuSans-38" transform="translate(63.623047 0)"/>
      <use xlink:href="#DejaVuSans-2e" transform="translate(127.246094 0)"/>
      <use xlink:href="#DejaVuSans-30" transform="translate(159.033203 0)"/>
     </g>
    </g>
   </g>
   <g id="text_38">
    <g clip-path="url(#pec4968885c)">
     <!-- 68.0 -->
     <g transform="translate(124.63994 130.426358) rotate(-4.565508) scale(0.09 -0.09)">
      <use xlink:href="#DejaVuSans-36"/>
      <use xlink:href="#DejaVuSans-38" transform="translate(63.623047 0)"/>
      <use xlink:href="#DejaVuSans-2e" transform="translate(127.246094 0)"/>
      <use xlink:href="#DejaVuSans-30" transform="translate(159.033203 0)"/>
     </g>
    </g>
   </g>
   <g id="text_39">
    <g clip-path="url(#pec4968885c)">
     <!-- 68.0 -->
     <g transform="translate(125.078252 174.232021) rotate(-11.12923) scale(0.09 -0.09)">
      <use xlink:href="#DejaVuSans-36"/>
      <use xlink:href="#DejaVuSans-38" transform="translate(63.623047 0)"/>
      <use xlink:href="#DejaVuSans-2e" transform="translate(127.246094 0)"/>
      <use xlink:href="#DejaVuSans-30" transform="translate(159.033203 0)"/>
     </g>
    </g>
   </g>
   <g id="text_40">
    <g clip-path="url(#pec4968885c)">
     <!-- 68.0 -->
     <g transform="translate(220.048621 206.235057) rotate(-3.767219) scale(0.09 -0.09)">
      <use xlink:href="#DejaVuSans-36"/>
      <use xlink:href="#DejaVuSans-38" transform="translate(63.623047 0)"/>
      <use xlink:href="#DejaVuSans-2e" transform="translate(127.246094 0)"/>
      <use xlink:href="#DejaVuSans-30" transform="translate(159.033203 0)"/>
     </g>
    </g>
   </g>
   <g id="text_41">
    <g clip-path="url(#pec4968885c)">
     <!-- 68.0 -->
     <g transform="translate(267.396334 200.243183) rotate(-354.41484) scale(0.09 -0.09)">
      <use xlink:href="#DejaVuSans-36"/>
      <use xlink:href="#DejaVuSans-38" transform="translate(63.623047 0)"/>
      <use xlink:href="#DejaVuSans-2e" transform="translate(127.246094 0)"/>
      <use xlink:href="#DejaVuSans-30" transform="translate(159.033203 0)"/>
     </g>
    </g>
   </g>
   <g id="text_42">
    <g clip-path="url(#pec4968885c)">
     <!-- 68.8 -->
     <g transform="translate(172.917244 31.573988) rotate(-12.563435) scale(0.09 -0.09)">
      <use xlink:href="#DejaVuSans-36"/>
      <use xlink:href="#DejaVuSans-38" transform="translate(63.623047 0)"/>
      <use xlink:href="#DejaVuSans-2e" transform="translate(127.246094 0)"/>
      <use xlink:href="#DejaVuSans-38" transform="translate(159.033203 0)"/>
     </g>
    </g>
   </g>
   <g id="text_43">
    <g clip-path="url(#pec4968885c)">
     <!-- 68.8 -->
     <g transform="translate(220.211686 105.463007) rotate(-6.537249) scale(0.09 -0.09)">
      <use xlink:href="#DejaVuSans-36"/>
      <use xlink:href="#DejaVuSans-38" transform="translate(63.623047 0)"/>
      <use xlink:href="#DejaVuSans-2e" transform="translate(127.246094 0)"/>
      <use xlink:href="#DejaVuSans-38" transform="translate(159.033203 0)"/>
     </g>
    </g>
   </g>
   <g id="text_44">
    <g clip-path="url(#pec4968885c)">
     <!-- 68.8 -->
     <g transform="translate(100.300689 146.727255) rotate(-340.069195) scale(0.09 -0.09)">
      <use xlink:href="#DejaVuSans-36"/>
      <use xlink:href="#DejaVuSans-38" transform="translate(63.623047 0)"/>
      <use xlink:href="#DejaVuSans-2e" transform="translate(127.246094 0)"/>
      <use xlink:href="#DejaVuSans-38" transform="translate(159.033203 0)"/>
     </g>
    </g>
   </g>
   <g id="text_45">
    <g clip-path="url(#pec4968885c)">
     <!-- 68.8 -->
     <g transform="translate(196.478761 214.097711) rotate(-8.516893) scale(0.09 -0.09)">
      <use xlink:href="#DejaVuSans-36"/>
      <use xlink:href="#DejaVuSans-38" transform="translate(63.623047 0)"/>
      <use xlink:href="#DejaVuSans-2e" transform="translate(127.246094 0)"/>
      <use xlink:href="#DejaVuSans-38" transform="translate(159.033203 0)"/>
     </g>
    </g>
   </g>
   <g id="text_46">
    <g clip-path="url(#pec4968885c)">
     <!-- 68.8 -->
     <g transform="translate(243.614909 230.092819) rotate(-357.117029) scale(0.09 -0.09)">
      <use xlink:href="#DejaVuSans-36"/>
      <use xlink:href="#DejaVuSans-38" transform="translate(63.623047 0)"/>
      <use xlink:href="#DejaVuSans-2e" transform="translate(127.246094 0)"/>
      <use xlink:href="#DejaVuSans-38" transform="translate(159.033203 0)"/>
     </g>
    </g>
   </g>
   <g id="text_47">
    <g clip-path="url(#pec4968885c)">
     <!-- 69.6 -->
     <g transform="translate(196.950031 185.741815) rotate(-14.600289) scale(0.09 -0.09)">
      <defs>
       <path id="DejaVuSans-39" d="M 703 97 
L 703 672 
Q 941 559 1184 500 
Q 1428 441 1663 441 
Q 2288 441 2617 861 
Q 2947 1281 2994 2138 
Q 2813 1869 2534 1725 
Q 2256 1581 1919 1581 
Q 1219 1581 811 2004 
Q 403 2428 403 3163 
Q 403 3881 828 4315 
Q 1253 4750 1959 4750 
Q 2769 4750 3195 4129 
Q 3622 3509 3622 2328 
Q 3622 1225 3098 567 
Q 2575 -91 1691 -91 
Q 1453 -91 1209 -44 
Q 966 3 703 97 
z
M 1959 2075 
Q 2384 2075 2632 2365 
Q 2881 2656 2881 3163 
Q 2881 3666 2632 3958 
Q 2384 4250 1959 4250 
Q 1534 4250 1286 3958 
Q 1038 3666 1038 3163 
Q 1038 2656 1286 2365 
Q 1534 2075 1959 2075 
z
" transform="scale(0.015625)"/>
      </defs>
      <use xlink:href="#DejaVuSans-36"/>
      <use xlink:href="#DejaVuSans-39" transform="translate(63.623047 0)"/>
      <use xlink:href="#DejaVuSans-2e" transform="translate(127.246094 0)"/>
      <use xlink:href="#DejaVuSans-36" transform="translate(159.033203 0)"/>
     </g>
    </g>
   </g>
   <g id="text_48">
    <g clip-path="url(#pec4968885c)">
     <!-- 70.4 -->
     <g transform="translate(172.083005 56.176343) rotate(-333.467799) scale(0.09 -0.09)">
      <use xlink:href="#DejaVuSans-37"/>
      <use xlink:href="#DejaVuSans-30" transform="translate(63.623047 0)"/>
      <use xlink:href="#DejaVuSans-2e" transform="translate(127.246094 0)"/>
      <use xlink:href="#DejaVuSans-34" transform="translate(159.033203 0)"/>
     </g>
    </g>
   </g>
   <g id="text_49">
    <g clip-path="url(#pec4968885c)">
     <!-- 70.4 -->
     <g transform="translate(243.789506 183.176486) rotate(-1.372745) scale(0.09 -0.09)">
      <use xlink:href="#DejaVuSans-37"/>
      <use xlink:href="#DejaVuSans-30" transform="translate(63.623047 0)"/>
      <use xlink:href="#DejaVuSans-2e" transform="translate(127.246094 0)"/>
      <use xlink:href="#DejaVuSans-34" transform="translate(159.033203 0)"/>
     </g>
    </g>
   </g>
   <g id="text_50">
    <g clip-path="url(#pec4968885c)">
     <!-- 70.4 -->
     <g transform="translate(196.251995 134.466302) rotate(-4.947779) scale(0.09 -0.09)">
      <use xlink:href="#DejaVuSans-37"/>
      <use xlink:href="#DejaVuSans-30" transform="translate(63.623047 0)"/>
      <use xlink:href="#DejaVuSans-2e" transform="translate(127.246094 0)"/>
      <use xlink:href="#DejaVuSans-34" transform="translate(159.033203 0)"/>
     </g>
    </g>
   </g>
   <g id="text_51">
    <g clip-path="url(#pec4968885c)">
     <!-- 70.4 -->
     <g transform="translate(171.981919 175.971284) rotate(-355.792053) scale(0.09 -0.09)">
      <use xlink:href="#DejaVuSans-37"/>
      <use xlink:href="#DejaVuSans-30" transform="translate(63.623047 0)"/>
      <use xlink:href="#DejaVuSans-2e" transform="translate(127.246094 0)"/>
      <use xlink:href="#DejaVuSans-34" transform="translate(159.033203 0)"/>
     </g>
    </g>
   </g>
   <g id="text_52">
    <g clip-path="url(#pec4968885c)">
     <!-- 71.2 -->
     <g transform="translate(196.570035 64.983428) rotate(-9.809046) scale(0.09 -0.09)">
      <use xlink:href="#DejaVuSans-37"/>
      <use xlink:href="#DejaVuSans-31" transform="translate(63.623047 0)"/>
      <use xlink:href="#DejaVuSans-2e" transform="translate(127.246094 0)"/>
      <use xlink:href="#DejaVuSans-32" transform="translate(159.033203 0)"/>
     </g>
    </g>
   </g>
   <g id="text_53">
    <g clip-path="url(#pec4968885c)">
     <!-- 71.2 -->
     <g transform="translate(243.586659 119.751371) rotate(-356.265565) scale(0.09 -0.09)">
      <use xlink:href="#DejaVuSans-37"/>
      <use xlink:href="#DejaVuSans-31" transform="translate(63.623047 0)"/>
      <use xlink:href="#DejaVuSans-2e" transform="translate(127.246094 0)"/>
      <use xlink:href="#DejaVuSans-32" transform="translate(159.033203 0)"/>
     </g>
    </g>
   </g>
   <g id="text_54">
    <g clip-path="url(#pec4968885c)">
     <!-- 71.2 -->
     <g transform="translate(243.818197 178.195831) rotate(-1.965305) scale(0.09 -0.09)">
      <use xlink:href="#DejaVuSans-37"/>
      <use xlink:href="#DejaVuSans-31" transform="translate(63.623047 0)"/>
      <use xlink:href="#DejaVuSans-2e" transform="translate(127.246094 0)"/>
      <use xlink:href="#DejaVuSans-32" transform="translate(159.033203 0)"/>
     </g>
    </g>
   </g>
   <g id="text_55">
    <g clip-path="url(#pec4968885c)">
     <!-- 72.0 -->
     <g transform="translate(196.523796 59.04156) rotate(-9.16299) scale(0.09 -0.09)">
      <use xlink:href="#DejaVuSans-37"/>
      <use xlink:href="#DejaVuSans-32" transform="translate(63.623047 0)"/>
      <use xlink:href="#DejaVuSans-2e" transform="translate(127.246094 0)"/>
      <use xlink:href="#DejaVuSans-30" transform="translate(159.033203 0)"/>
     </g>
    </g>
   </g>
  </g>
 </g>
 <defs>
  <clipPath id="pec4968885c">
   <rect x="62.84" y="26.88" width="286.36" height="213.4"/>
  </clipPath>
 </defs>
</svg>
