<?xml version="1.0" encoding="utf-8" standalone="no"?>
<!DOCTYPE svg PUBLIC "-//W3C//DTD SVG 1.1//EN"
  "http://www.w3.org/Graphics/SVG/1.1/DTD/svg11.dtd">
<svg xmlns:xlink="http://www.w3.org/1999/xlink" width="360pt" height="288pt" viewBox="0 0 360 288" xmlns="http://www.w3.org/2000/svg" version="1.1">
 <metadata>
  <rdf:RDF xmlns:dc="http://purl.org/dc/elements/1.1/" xmlns:cc="http://creativecommons.org/ns#" xmlns:rdf="http://www.w3.org/1999/02/22-rdf-syntax-ns#">
   <cc:Work>
    <dc:type rdf:resource="http://purl.org/dc/dcmitype/StillImage"/>
    <dc:date>2025-10-02T17:14:29.706177</dc:date>
    <dc:format>image/svg+xml</dc:format>
    <dc:creator>
     <cc:Agent>
      <dc:title>Matplotlib v3.10.6, https://matplotlib.org/</dc:title>
     </cc:Agent>
    </dc:creator>
   </cc:Work>
  </rdf:RDF>
 </metadata>
 <defs>
  <style type="text/css">*{stroke-linejoin: round; stroke-linecap: butt}</style>
 </defs>
 <g id="figure_1">
  <g id="patch_1">
   <path d="M 0 288 
L 360 288 
L 360 0 
L 0 0 
z
" style="fill: #ffffff"/>
  </g>
  <g id="axes_1">
   <g id="patch_2">
    <path d="M 62.84 240.28 
L 349.2 240.28 
L 349.2 26.88 
L 62.84 26.88 
z
" style="fill: #ffffff"/>
   </g>
   <g id="QuadContourSet_1">
    <path d="M 86.703333 26.88 
L 87.905757 26.88 
L 87.594617 36.380776 
L 87.728089 47.600163 
L 87.645274 60.808896 
L 87.558705 76.198006 
L 87.827858 93.757994 
L 87.724738 113.137869 
L 87.7616 133.590571 
L 88.32538 154.013971 
L 89.649592 173.39493 
L 88.274655 190.956403 
L 87.798284 206.347113 
L 88.553454 219.557363 
L 87.771739 230.778089 
L 88.242808 240.28 
L 86.703333 240.28 
L 62.84 240.28 
L 62.84 230.778089 
L 62.84 219.557363 
L 62.84 206.347113 
L 62.84 190.956403 
L 62.84 173.39493 
L 62.84 154.013971 
L 62.84 133.590571 
L 62.84 113.137869 
L 62.84 93.757994 
L 62.84 76.198006 
L 62.84 60.808896 
L 62.84 47.600163 
L 62.84 36.380776 
L 62.84 26.88 
z
M 325.336667 26.88 
L 349.2 26.88 
L 349.2 36.380776 
L 349.2 47.600163 
L 349.2 60.808896 
L 349.2 76.198006 
L 349.2 93.757994 
L 349.2 113.137869 
L 349.2 133.590571 
L 349.2 154.013971 
L 349.2 173.39493 
L 349.2 190.956403 
L 349.2 206.347113 
L 349.2 219.557363 
L 349.2 230.778089 
L 349.2 240.28 
L 325.336667 240.28 
L 323.414955 240.28 
L 324.093533 230.778089 
L 324.007748 219.557363 
L 324.409689 206.347113 
L 323.760686 190.956403 
L 324.132768 173.39493 
L 324.423511 154.013971 
L 324.267207 133.590571 
L 324.51671 113.137869 
L 324.221148 93.757994 
L 324.243936 76.198006 
L 324.272798 60.808896 
L 323.629769 47.600163 
L 324.352432 36.380776 
L 323.97792 26.88 
z
" clip-path="url(#pb0f6a00f82)" style="fill: #470d60"/>
    <path d="M 89.399362 36.380776 
L 89.8031 47.600163 
L 89.552596 60.808896 
L 89.290734 76.198006 
L 90.10489 93.757994 
L 89.792963 113.137869 
L 89.904467 133.590571 
L 91.609835 154.013971 
L 95.615426 173.39493 
L 91.456399 190.956403 
L 90.015431 206.347113 
L 92.299734 219.557363 
L 89.935136 230.778089 
L 91.360066 240.28 
L 88.242808 240.28 
L 87.771739 230.778089 
L 88.553454 219.557363 
L 87.798284 206.347113 
L 88.274655 190.956403 
L 89.649592 173.39493 
L 88.32538 154.013971 
L 87.7616 133.590571 
L 87.724738 113.137869 
L 87.827858 93.757994 
L 87.558705 76.198006 
L 87.645274 60.808896 
L 87.728089 47.600163 
L 87.594617 36.380776 
L 87.905757 26.88 
L 90.340526 26.88 
z
M 324.352432 36.380776 
L 323.629769 47.600163 
L 324.272798 60.808896 
L 324.243936 76.198006 
L 324.221148 93.757994 
L 324.51671 113.137869 
L 324.267207 133.590571 
L 324.423511 154.013971 
L 324.132768 173.39493 
L 323.760686 190.956403 
L 324.409689 206.347113 
L 324.007748 219.557363 
L 324.093533 230.778089 
L 323.414955 240.28 
L 319.523712 240.28 
L 321.576331 230.778089 
L 321.316842 219.557363 
L 322.532666 206.347113 
L 320.569509 190.956403 
L 321.695012 173.39493 
L 322.574475 154.013971 
L 322.101676 133.590571 
L 322.856394 113.137869 
L 321.962353 93.757994 
L 322.031282 76.198006 
L 322.118588 60.808896 
L 320.1735 47.600163 
L 322.359472 36.380776 
L 321.226614 26.88 
L 323.97792 26.88 
z
" clip-path="url(#pb0f6a00f82)" style="fill: #482475"/>
    <path d="M 91.204107 36.380776 
L 91.878111 47.600163 
L 91.459917 60.808896 
L 91.022764 76.198006 
L 92.381923 93.757994 
L 91.861188 113.137869 
L 92.047335 133.590571 
L 94.894291 154.013971 
L 101.581259 173.39493 
L 94.638144 190.956403 
L 92.232578 206.347113 
L 96.046014 219.557363 
L 92.098533 230.778089 
L 94.477324 240.28 
L 91.360066 240.28 
L 89.935136 230.778089 
L 92.299734 219.557363 
L 90.015431 206.347113 
L 91.456399 190.956403 
L 95.615426 173.39493 
L 91.609835 154.013971 
L 89.904467 133.590571 
L 89.792963 113.137869 
L 90.10489 93.757994 
L 89.290734 76.198006 
L 89.552596 60.808896 
L 89.8031 47.600163 
L 89.399362 36.380776 
L 90.340526 26.88 
L 92.775295 26.88 
z
M 322.359472 36.380776 
L 320.1735 47.600163 
L 322.118588 60.808896 
L 322.031282 76.198006 
L 321.962353 93.757994 
L 322.856394 113.137869 
L 322.101676 133.590571 
L 322.574475 154.013971 
L 321.695012 173.39493 
L 320.569509 190.956403 
L 322.532666 206.347113 
L 321.316842 219.557363 
L 321.576331 230.778089 
L 319.523712 240.28 
L 315.632469 240.28 
L 319.059129 230.778089 
L 318.625935 219.557363 
L 320.655643 206.347113 
L 317.378331 190.956403 
L 319.257256 173.39493 
L 320.72544 154.013971 
L 319.936145 133.590571 
L 321.196077 113.137869 
L 319.703557 93.757994 
L 319.818628 76.198006 
L 319.964378 60.808896 
L 316.717231 47.600163 
L 320.366512 36.380776 
L 318.475309 26.88 
L 321.226614 26.88 
z
" clip-path="url(#pb0f6a00f82)" style="fill: #443983"/>
    <path d="M 93.008853 36.380776 
L 93.953122 47.600163 
L 93.367239 60.808896 
L 92.754793 76.198006 
L 94.658955 93.757994 
L 93.929414 113.137869 
L 94.190202 133.590571 
L 98.178747 154.013971 
L 107.547092 173.39493 
L 97.819888 190.956403 
L 94.449725 206.347113 
L 99.792293 219.557363 
L 94.26193 230.778089 
L 97.594582 240.28 
L 94.477324 240.28 
L 92.098533 230.778089 
L 96.046014 219.557363 
L 92.232578 206.347113 
L 94.638144 190.956403 
L 101.581259 173.39493 
L 94.894291 154.013971 
L 92.047335 133.590571 
L 91.861188 113.137869 
L 92.381923 93.757994 
L 91.022764 76.198006 
L 91.459917 60.808896 
L 91.878111 47.600163 
L 91.204107 36.380776 
L 92.775295 26.88 
L 95.210064 26.88 
z
M 320.366512 36.380776 
L 316.717231 47.600163 
L 319.964378 60.808896 
L 319.818628 76.198006 
L 319.703557 93.757994 
L 321.196077 113.137869 
L 319.936145 133.590571 
L 320.72544 154.013971 
L 319.257256 173.39493 
L 317.378331 190.956403 
L 320.655643 206.347113 
L 318.625935 219.557363 
L 319.059129 230.778089 
L 315.632469 240.28 
L 311.741226 240.28 
L 316.541927 230.778089 
L 315.935029 219.557363 
L 318.778621 206.347113 
L 314.187154 190.956403 
L 316.819501 173.39493 
L 318.876405 154.013971 
L 317.770614 133.590571 
L 319.535761 113.137869 
L 317.444762 93.757994 
L 317.605975 76.198006 
L 317.810167 60.808896 
L 313.260962 47.600163 
L 318.373551 36.380776 
L 315.724003 26.88 
L 318.475309 26.88 
z
" clip-path="url(#pb0f6a00f82)" style="fill: #3d4d8a"/>
    <path d="M 94.813598 36.380776 
L 96.028133 47.600163 
L 95.27456 60.808896 
L 94.486822 76.198006 
L 96.935987 93.757994 
L 95.997639 113.137869 
L 96.33307 133.590571 
L 101.463202 154.013971 
L 110.566667 170.463898 
L 113.512126 173.39493 
L 110.566667 175.872825 
L 101.001632 190.956403 
L 96.666872 206.347113 
L 103.538573 219.557363 
L 96.425328 230.778089 
L 100.71184 240.28 
L 97.594582 240.28 
L 94.26193 230.778089 
L 99.792293 219.557363 
L 94.449725 206.347113 
L 97.819888 190.956403 
L 107.547092 173.39493 
L 98.178747 154.013971 
L 94.190202 133.590571 
L 93.929414 113.137869 
L 94.658955 93.757994 
L 92.754793 76.198006 
L 93.367239 60.808896 
L 93.953122 47.600163 
L 93.008853 36.380776 
L 95.210064 26.88 
L 97.644833 26.88 
z
M 318.373551 36.380776 
L 313.260962 47.600163 
L 317.810167 60.808896 
L 317.605975 76.198006 
L 317.444762 93.757994 
L 319.535761 113.137869 
L 317.770614 133.590571 
L 318.876405 154.013971 
L 316.819501 173.39493 
L 314.187154 190.956403 
L 318.778621 206.347113 
L 315.935029 219.557363 
L 316.541927 230.778089 
L 311.741226 240.28 
L 307.849983 240.28 
L 314.024725 230.778089 
L 313.244122 219.557363 
L 316.901598 206.347113 
L 310.995976 190.956403 
L 314.381745 173.39493 
L 317.02737 154.013971 
L 315.605082 133.590571 
L 317.875444 113.137869 
L 315.185966 93.757994 
L 315.393321 76.198006 
L 315.655957 60.808896 
L 309.804693 47.600163 
L 316.380591 36.380776 
L 312.972698 26.88 
L 315.724003 26.88 
z
" clip-path="url(#pb0f6a00f82)" style="fill: #355f8d"/>
    <path d="M 96.618343 36.380776 
L 98.103144 47.600163 
L 97.181881 60.808896 
L 96.218851 76.198006 
L 99.213019 93.757994 
L 98.065865 113.137869 
L 98.475937 133.590571 
L 104.747658 154.013971 
L 110.566667 164.528899 
L 119.47634 173.39493 
L 110.566667 180.890276 
L 104.183377 190.956403 
L 98.88402 206.347113 
L 107.284853 219.557363 
L 98.588725 230.778089 
L 103.829098 240.28 
L 100.71184 240.28 
L 96.425328 230.778089 
L 103.538573 219.557363 
L 96.666872 206.347113 
L 101.001632 190.956403 
L 110.566667 175.872825 
L 113.512126 173.39493 
L 110.566667 170.463898 
L 101.463202 154.013971 
L 96.33307 133.590571 
L 95.997639 113.137869 
L 96.935987 93.757994 
L 94.486822 76.198006 
L 95.27456 60.808896 
L 96.028133 47.600163 
L 94.813598 36.380776 
L 97.644833 26.88 
L 100.079603 26.88 
z
M 316.380591 36.380776 
L 309.804693 47.600163 
L 315.655957 60.808896 
L 315.393321 76.198006 
L 315.185966 93.757994 
L 317.875444 113.137869 
L 315.605082 133.590571 
L 317.02737 154.013971 
L 314.381745 173.39493 
L 310.995976 190.956403 
L 316.901598 206.347113 
L 313.244122 219.557363 
L 314.024725 230.778089 
L 307.849983 240.28 
L 303.95874 240.28 
L 311.507523 230.778089 
L 310.553216 219.557363 
L 315.024575 206.347113 
L 307.804799 190.956403 
L 311.943989 173.39493 
L 315.178334 154.013971 
L 313.439551 133.590571 
L 316.215128 113.137869 
L 312.927171 93.757994 
L 313.180667 76.198006 
L 313.501747 60.808896 
L 306.348424 47.600163 
L 314.38763 36.380776 
L 310.221392 26.88 
L 312.972698 26.88 
z
M 158.293333 171.505848 
L 163.737988 173.39493 
L 158.293333 174.734915 
L 156.466262 173.39493 
z
M 206.02 214.254811 
L 207.420159 219.557363 
L 206.02 220.692464 
L 196.720983 219.557363 
z
M 253.746667 239.030821 
L 257.280256 240.28 
L 253.746667 240.28 
L 249.852605 240.28 
z
" clip-path="url(#pb0f6a00f82)" style="fill: #2d708e"/>
    <path d="M 98.423089 36.380776 
L 100.178155 47.600163 
L 99.089203 60.808896 
L 97.95088 76.198006 
L 101.490051 93.757994 
L 100.13409 113.137869 
L 100.618804 133.590571 
L 108.032114 154.013971 
L 110.566667 158.593899 
L 125.440553 173.39493 
L 110.566667 185.907727 
L 107.365121 190.956403 
L 101.101167 206.347113 
L 110.566667 219.184556 
L 112.520144 219.557363 
L 110.566667 219.855854 
L 100.752122 230.778089 
L 106.946356 240.28 
L 103.829098 240.28 
L 98.588725 230.778089 
L 107.284853 219.557363 
L 98.88402 206.347113 
L 104.183377 190.956403 
L 110.566667 180.890276 
L 119.47634 173.39493 
L 110.566667 164.528899 
L 104.747658 154.013971 
L 98.475937 133.590571 
L 98.065865 113.137869 
L 99.213019 93.757994 
L 96.218851 76.198006 
L 97.181881 60.808896 
L 98.103144 47.600163 
L 96.618343 36.380776 
L 100.079603 26.88 
L 102.514372 26.88 
z
M 314.38763 36.380776 
L 306.348424 47.600163 
L 313.501747 60.808896 
L 313.180667 76.198006 
L 312.927171 93.757994 
L 316.215128 113.137869 
L 313.439551 133.590571 
L 315.178334 154.013971 
L 311.943989 173.39493 
L 307.804799 190.956403 
L 315.024575 206.347113 
L 310.553216 219.557363 
L 311.507523 230.778089 
L 303.95874 240.28 
L 301.473333 240.28 
L 299.46912 240.28 
L 301.473333 239.254506 
L 308.990321 230.778089 
L 307.86231 219.557363 
L 313.147552 206.347113 
L 304.613621 190.956403 
L 309.506233 173.39493 
L 313.329299 154.013971 
L 311.27402 133.590571 
L 314.554811 113.137869 
L 310.668375 93.757994 
L 310.968014 76.198006 
L 311.347537 60.808896 
L 302.892155 47.600163 
L 312.39467 36.380776 
L 307.470087 26.88 
L 310.221392 26.88 
z
M 158.293333 162.418464 
L 182.156667 169.725195 
L 184.770246 173.39493 
L 182.156667 180.698023 
L 158.293333 181.180885 
L 147.677178 173.39493 
z
M 156.466262 173.39493 
L 158.293333 174.734915 
L 163.737988 173.39493 
L 158.293333 171.505848 
z
M 206.02 186.638673 
L 225.850883 190.956403 
L 229.883333 199.465569 
L 230.927781 206.347113 
L 229.883333 206.786058 
L 212.135538 219.557363 
L 206.02 224.515197 
L 182.156667 225.038092 
L 178.111722 219.557363 
L 182.156667 217.08369 
L 201.401627 206.347113 
L 190.422217 190.956403 
z
M 196.720983 219.557363 
L 206.02 220.692464 
L 207.420159 219.557363 
L 206.02 214.254811 
z
M 158.293333 239.251838 
L 164.400359 240.28 
L 158.293333 240.28 
L 150.579276 240.28 
z
M 253.746667 237.57609 
L 261.395294 240.28 
L 257.280256 240.28 
L 253.746667 239.030821 
L 249.852605 240.28 
L 245.317778 240.28 
z
" clip-path="url(#pb0f6a00f82)" style="fill: #27808e"/>
    <path d="M 100.227834 36.380776 
L 102.253166 47.600163 
L 100.996524 60.808896 
L 99.682909 76.198006 
L 103.767084 93.757994 
L 102.202315 113.137869 
L 102.761672 133.590571 
L 110.566667 152.809247 
L 114.144716 154.013971 
L 131.404767 173.39493 
L 110.566667 190.925178 
L 110.546866 190.956403 
L 103.318314 206.347113 
L 110.566667 216.177583 
L 128.276462 219.557363 
L 110.566667 222.263417 
L 102.915519 230.778089 
L 110.063614 240.28 
L 106.946356 240.28 
L 100.752122 230.778089 
L 110.566667 219.855854 
L 112.520144 219.557363 
L 110.566667 219.184556 
L 101.101167 206.347113 
L 107.365121 190.956403 
L 110.566667 185.907727 
L 125.440553 173.39493 
L 110.566667 158.593899 
L 108.032114 154.013971 
L 100.618804 133.590571 
L 100.13409 113.137869 
L 101.490051 93.757994 
L 97.95088 76.198006 
L 99.089203 60.808896 
L 100.178155 47.600163 
L 98.423089 36.380776 
L 102.514372 26.88 
L 104.949141 26.88 
z
M 312.39467 36.380776 
L 302.892155 47.600163 
L 311.347537 60.808896 
L 310.968014 76.198006 
L 310.668375 93.757994 
L 314.554811 113.137869 
L 311.27402 133.590571 
L 313.329299 154.013971 
L 309.506233 173.39493 
L 304.613621 190.956403 
L 313.147552 206.347113 
L 307.86231 219.557363 
L 308.990321 230.778089 
L 301.473333 239.254506 
L 299.46912 240.28 
L 293.921618 240.28 
L 301.473333 236.416022 
L 306.473119 230.778089 
L 305.171403 219.557363 
L 311.27053 206.347113 
L 301.473333 191.003282 
L 277.61 193.190648 
L 257.479777 190.956403 
L 277.61 187.494924 
L 301.473333 190.835229 
L 307.068478 173.39493 
L 311.480264 154.013971 
L 309.108489 133.590571 
L 312.894495 113.137869 
L 308.40958 93.757994 
L 308.75536 76.198006 
L 309.193326 60.808896 
L 301.473333 49.466 
L 296.490355 47.600163 
L 301.473333 46.295533 
L 310.40171 36.380776 
L 304.718781 26.88 
L 307.470087 26.88 
z
M 206.02 90.438415 
L 212.870227 93.757994 
L 206.02 100.624847 
L 192.464705 93.757994 
z
M 158.293333 153.692064 
L 163.480828 154.013971 
L 182.156667 157.359437 
L 193.577118 173.39493 
L 206.02 181.149859 
L 229.883333 186.858022 
L 251.238948 190.956403 
L 239.001686 206.347113 
L 229.883333 210.179242 
L 216.850916 219.557363 
L 206.02 228.337929 
L 191.890688 230.778089 
L 182.625037 240.28 
L 182.156667 240.28 
L 164.400359 240.28 
L 158.293333 239.251838 
L 150.579276 240.28 
L 134.43 240.28 
L 118.614422 240.28 
L 134.43 238.758483 
L 158.293333 236.099737 
L 177.225318 230.778089 
L 170.550156 219.557363 
L 182.156667 212.459439 
L 193.11281 206.347113 
L 182.156667 195.667833 
L 169.502246 190.956403 
L 158.293333 187.626854 
L 138.888094 173.39493 
L 156.983971 154.013971 
z
M 147.677178 173.39493 
L 158.293333 181.180885 
L 182.156667 180.698023 
L 184.770246 173.39493 
L 182.156667 169.725195 
L 158.293333 162.418464 
z
M 190.422217 190.956403 
L 201.401627 206.347113 
L 182.156667 217.08369 
L 178.111722 219.557363 
L 182.156667 225.038092 
L 206.02 224.515197 
L 212.135538 219.557363 
L 229.883333 206.786058 
L 230.927781 206.347113 
L 229.883333 199.465569 
L 225.850883 190.956403 
L 206.02 186.638673 
z
M 229.883333 150.861308 
L 232.018636 154.013971 
L 229.883333 156.170567 
L 223.201894 154.013971 
z
M 277.61 153.059361 
L 278.273978 154.013971 
L 277.61 155.30703 
L 276.603022 154.013971 
z
M 158.293333 199.945945 
L 163.488085 206.347113 
L 158.293333 208.790268 
L 139.753664 206.347113 
z
M 253.746667 236.121359 
L 265.510332 240.28 
L 261.395294 240.28 
L 253.746667 237.57609 
L 245.317778 240.28 
L 240.782951 240.28 
z
" clip-path="url(#pb0f6a00f82)" style="fill: #21918c"/>
    <path d="M 102.032579 36.380776 
L 104.328177 47.600163 
L 102.903845 60.808896 
L 101.414938 76.198006 
L 106.044116 93.757994 
L 104.270541 113.137869 
L 104.904539 133.590571 
L 110.566667 147.532744 
L 129.816001 154.013971 
L 134.43 161.262785 
L 139.560024 154.013971 
L 158.293333 149.408378 
L 182.156667 147.051367 
L 201.121057 133.590571 
L 206.02 124.878552 
L 212.935777 133.590571 
L 229.883333 141.736615 
L 238.198801 154.013971 
L 229.883333 162.41236 
L 206.02 158.134964 
L 202.383991 173.39493 
L 206.02 175.661044 
L 229.883333 181.979245 
L 253.746667 185.881804 
L 277.61 180.987399 
L 301.473333 183.236642 
L 304.630722 173.39493 
L 309.631228 154.013971 
L 306.942957 133.590571 
L 311.234178 113.137869 
L 306.150784 93.757994 
L 306.542706 76.198006 
L 307.039116 60.808896 
L 301.473333 52.631156 
L 288.037367 47.600163 
L 301.473333 44.082396 
L 308.408749 36.380776 
L 301.967476 26.88 
L 304.718781 26.88 
L 310.40171 36.380776 
L 301.473333 46.295533 
L 296.490355 47.600163 
L 301.473333 49.466 
L 309.193326 60.808896 
L 308.75536 76.198006 
L 308.40958 93.757994 
L 312.894495 113.137869 
L 309.108489 133.590571 
L 311.480264 154.013971 
L 307.068478 173.39493 
L 301.473333 190.835229 
L 277.61 187.494924 
L 257.479777 190.956403 
L 277.61 193.190648 
L 301.473333 191.003282 
L 311.27053 206.347113 
L 305.171403 219.557363 
L 306.473119 230.778089 
L 301.473333 236.416022 
L 293.921618 240.28 
L 288.374116 240.28 
L 301.473333 233.577537 
L 303.955917 230.778089 
L 302.480497 219.557363 
L 309.393507 206.347113 
L 301.473333 193.942972 
L 277.61 197.390994 
L 253.746667 198.986303 
L 247.075592 206.347113 
L 229.883333 213.572426 
L 221.566295 219.557363 
L 226.072318 230.778089 
L 206.02 232.549627 
L 191.699159 240.28 
L 182.625037 240.28 
L 191.890688 230.778089 
L 206.02 228.337929 
L 216.850916 219.557363 
L 229.883333 210.179242 
L 239.001686 206.347113 
L 251.238948 190.956403 
L 229.883333 186.858022 
L 206.02 181.149859 
L 193.577118 173.39493 
L 182.156667 157.359437 
L 163.480828 154.013971 
L 158.293333 153.692064 
L 156.983971 154.013971 
L 138.888094 173.39493 
L 158.293333 187.626854 
L 169.502246 190.956403 
L 182.156667 195.667833 
L 193.11281 206.347113 
L 182.156667 212.459439 
L 170.550156 219.557363 
L 177.225318 230.778089 
L 158.293333 236.099737 
L 134.43 238.758483 
L 118.614422 240.28 
L 110.566667 240.28 
L 110.063614 240.28 
L 102.915519 230.778089 
L 110.566667 222.263417 
L 128.276462 219.557363 
L 110.566667 216.177583 
L 103.318314 206.347113 
L 110.546866 190.956403 
L 110.566667 190.925178 
L 131.404767 173.39493 
L 114.144716 154.013971 
L 110.566667 152.809247 
L 102.761672 133.590571 
L 102.202315 113.137869 
L 103.767084 93.757994 
L 99.682909 76.198006 
L 100.996524 60.808896 
L 102.253166 47.600163 
L 100.227834 36.380776 
L 104.949141 26.88 
L 107.38391 26.88 
z
M 223.201894 154.013971 
L 229.883333 156.170567 
L 232.018636 154.013971 
L 229.883333 150.861308 
z
M 120.922107 190.956403 
L 110.566667 195.643783 
L 105.535461 206.347113 
L 110.566667 213.17061 
L 127.683593 206.347113 
L 134.43 200.063611 
L 151.810962 190.956403 
L 134.43 178.231925 
z
M 139.753664 206.347113 
L 158.293333 208.790268 
L 163.488085 206.347113 
L 158.293333 199.945945 
z
M 177.611709 206.347113 
L 182.156667 207.835188 
L 184.823994 206.347113 
L 182.156667 203.747189 
z
M 146.250327 219.557363 
L 134.43 224.929919 
L 110.566667 224.670979 
L 105.078916 230.778089 
L 110.566667 237.919137 
L 134.43 233.960869 
L 158.293333 232.947636 
L 166.011588 230.778089 
L 162.98859 219.557363 
L 158.293333 215.43278 
z
M 206.02 26.88 
L 229.883333 26.88 
L 237.954069 26.88 
L 253.746667 30.265079 
L 256.236958 36.380776 
L 253.746667 37.680945 
L 229.883333 40.504778 
L 206.02 39.693153 
L 196.731766 36.380776 
L 184.196556 26.88 
z
M 134.43 42.373784 
L 150.338352 47.600163 
L 134.43 50.40235 
L 128.663846 47.600163 
z
M 182.156667 44.706903 
L 186.594096 47.600163 
L 182.156667 49.846417 
L 171.236755 47.600163 
z
M 253.746667 64.535496 
L 261.574858 76.198006 
L 253.746667 84.340477 
L 243.818045 76.198006 
z
M 134.43 93.474242 
L 135.302453 93.757994 
L 134.43 94.001022 
L 133.709945 93.757994 
z
M 182.156667 91.279125 
L 206.02 86.381233 
L 221.242559 93.757994 
L 206.02 109.0175 
L 182.156667 96.265736 
L 177.662819 93.757994 
z
M 192.464705 93.757994 
L 206.02 100.624847 
L 212.870227 93.757994 
L 206.02 90.438415 
z
M 277.61 146.896348 
L 282.560649 154.013971 
L 277.61 163.655081 
L 270.101924 154.013971 
z
M 276.603022 154.013971 
L 277.61 155.30703 
L 278.273978 154.013971 
L 277.61 153.059361 
z
M 253.746667 219.171283 
L 253.949535 219.557363 
L 253.746667 219.660818 
L 253.414805 219.557363 
z
M 277.61 229.741621 
L 283.108034 230.778089 
L 277.61 232.032993 
L 275.236327 230.778089 
z
M 253.746667 234.666628 
L 269.625371 240.28 
L 265.510332 240.28 
L 253.746667 236.121359 
L 240.782951 240.28 
L 236.248124 240.28 
z
" clip-path="url(#pb0f6a00f82)" style="fill: #1fa188"/>
    <path d="M 103.837325 36.380776 
L 106.403188 47.600163 
L 104.811167 60.808896 
L 103.146967 76.198006 
L 108.321148 93.757994 
L 106.338766 113.137869 
L 107.047406 133.590571 
L 110.566667 142.256242 
L 134.43 149.527295 
L 158.293333 145.124693 
L 182.156667 137.506457 
L 187.673606 133.590571 
L 200.097033 113.137869 
L 182.156667 102.903375 
L 165.768239 93.757994 
L 182.156667 84.717909 
L 206.02 82.32405 
L 229.878627 76.198006 
L 229.883333 76.195392 
L 246.448589 60.808896 
L 253.746667 57.618073 
L 264.071443 60.808896 
L 272.564911 76.198006 
L 277.61 88.12482 
L 281.628378 93.757994 
L 277.61 95.667609 
L 253.746667 95.11551 
L 233.557875 93.757994 
L 229.883333 76.359637 
L 229.614891 93.757994 
L 209.732448 113.137869 
L 229.883333 132.826337 
L 231.778967 133.590571 
L 244.378966 154.013971 
L 229.883333 168.654152 
L 216.424328 173.39493 
L 229.883333 177.100467 
L 253.746667 180.251847 
L 277.61 174.479873 
L 301.473333 175.638056 
L 302.192966 173.39493 
L 307.782193 154.013971 
L 304.777426 133.590571 
L 309.573862 113.137869 
L 303.891989 93.757994 
L 304.330053 76.198006 
L 304.884906 60.808896 
L 301.473333 55.796312 
L 279.584379 47.600163 
L 301.473333 41.869259 
L 306.415789 36.380776 
L 301.473333 29.241689 
L 292.458926 26.88 
L 301.473333 26.88 
L 301.967476 26.88 
L 308.408749 36.380776 
L 301.473333 44.082396 
L 288.037367 47.600163 
L 301.473333 52.631156 
L 307.039116 60.808896 
L 306.542706 76.198006 
L 306.150784 93.757994 
L 311.234178 113.137869 
L 306.942957 133.590571 
L 309.631228 154.013971 
L 304.630722 173.39493 
L 301.473333 183.236642 
L 277.61 180.987399 
L 253.746667 185.881804 
L 229.883333 181.979245 
L 206.02 175.661044 
L 202.383991 173.39493 
L 206.02 158.134964 
L 229.883333 162.41236 
L 238.198801 154.013971 
L 229.883333 141.736615 
L 212.935777 133.590571 
L 206.02 124.878552 
L 201.121057 133.590571 
L 182.156667 147.051367 
L 158.293333 149.408378 
L 139.560024 154.013971 
L 134.43 161.262785 
L 129.816001 154.013971 
L 110.566667 147.532744 
L 104.904539 133.590571 
L 104.270541 113.137869 
L 106.044116 93.757994 
L 101.414938 76.198006 
L 102.903845 60.808896 
L 104.328177 47.600163 
L 102.032579 36.380776 
L 107.38391 26.88 
L 109.818679 26.88 
z
M 243.818045 76.198006 
L 253.746667 84.340477 
L 261.574858 76.198006 
L 253.746667 64.535496 
z
M 177.662819 93.757994 
L 182.156667 96.265736 
L 206.02 109.0175 
L 221.242559 93.757994 
L 206.02 86.381233 
L 182.156667 91.279125 
z
M 182.156667 26.88 
L 184.196556 26.88 
L 196.731766 36.380776 
L 206.02 39.693153 
L 229.883333 40.504778 
L 253.746667 37.680945 
L 256.236958 36.380776 
L 253.746667 30.265079 
L 237.954069 26.88 
L 253.746667 26.88 
L 262.274658 26.88 
L 261.784055 36.380776 
L 253.746667 40.577057 
L 229.883333 47.544286 
L 206.02 44.162499 
L 197.574364 47.600163 
L 182.156667 55.404698 
L 164.628749 60.808896 
L 158.293333 63.437327 
L 155.410398 60.808896 
L 134.43 53.327597 
L 122.644465 47.600163 
L 134.43 36.917884 
L 158.293333 42.852552 
L 182.156667 37.547631 
L 184.199277 36.380776 
L 182.156667 35.000262 
L 173.852433 26.88 
z
M 128.663846 47.600163 
L 134.43 50.40235 
L 150.338352 47.600163 
L 134.43 42.373784 
z
M 171.236755 47.600163 
L 182.156667 49.846417 
L 186.594096 47.600163 
L 182.156667 44.706903 
z
M 134.43 88.882434 
L 149.42089 93.757994 
L 134.43 97.933811 
L 122.057673 93.757994 
z
M 133.709945 93.757994 
L 134.43 94.001022 
L 135.302453 93.757994 
L 134.43 93.474242 
z
M 277.61 140.733335 
L 286.847321 154.013971 
L 277.61 172.003132 
L 263.600827 154.013971 
z
M 270.101924 154.013971 
L 277.61 163.655081 
L 282.560649 154.013971 
L 277.61 146.896348 
z
M 134.43 178.231925 
L 151.810962 190.956403 
L 134.43 200.063611 
L 127.683593 206.347113 
L 110.566667 213.17061 
L 105.535461 206.347113 
L 110.566667 195.643783 
L 120.922107 190.956403 
z
M 131.342397 190.956403 
L 134.43 193.038108 
L 138.402901 190.956403 
L 134.43 188.047871 
z
M 107.752608 206.347113 
L 110.566667 210.163637 
L 120.140521 206.347113 
L 110.566667 200.360517 
z
M 182.156667 203.747189 
L 184.823994 206.347113 
L 182.156667 207.835188 
L 177.611709 206.347113 
z
M 253.746667 198.986303 
L 277.61 197.390994 
L 301.473333 193.942972 
L 309.393507 206.347113 
L 302.480497 219.557363 
L 303.955917 230.778089 
L 301.473333 233.577537 
L 288.374116 240.28 
L 282.826613 240.28 
L 277.61 236.283253 
L 273.740409 240.28 
L 269.625371 240.28 
L 253.746667 234.666628 
L 236.248124 240.28 
L 231.713297 240.28 
L 229.883333 237.407388 
L 206.02 237.447828 
L 200.773282 240.28 
L 191.699159 240.28 
L 206.02 232.549627 
L 226.072318 230.778089 
L 221.566295 219.557363 
L 229.883333 213.572426 
L 247.075592 206.347113 
z
M 256.92146 206.347113 
L 262.105104 219.557363 
L 253.746667 223.81987 
L 240.073542 219.557363 
L 229.883333 216.96561 
L 226.281674 219.557363 
L 229.883333 224.613493 
L 238.416566 230.778089 
L 253.746667 233.211897 
L 267.196889 230.778089 
L 277.61 226.23119 
L 295.56415 219.557363 
L 301.473333 217.407737 
L 307.516484 206.347113 
L 301.473333 196.882662 
L 277.61 201.59134 
z
M 253.414805 219.557363 
L 253.746667 219.660818 
L 253.949535 219.557363 
L 253.746667 219.171283 
z
M 275.236327 230.778089 
L 277.61 232.032993 
L 283.108034 230.778089 
L 277.61 229.741621 
z
M 158.293333 215.43278 
L 162.98859 219.557363 
L 166.011588 230.778089 
L 158.293333 232.947636 
L 134.43 233.960869 
L 110.566667 237.919137 
L 105.078916 230.778089 
L 110.566667 224.670979 
L 134.43 224.929919 
L 146.250327 219.557363 
z
M 107.242314 230.778089 
L 110.566667 235.103972 
L 130.142112 230.778089 
L 110.566667 227.078542 
z
" clip-path="url(#pb0f6a00f82)" style="fill: #2ab07f"/>
    <path d="M 110.566667 26.88 
L 134.43 26.88 
L 146.998344 26.88 
L 158.293333 33.845494 
L 165.190357 26.88 
L 173.852433 26.88 
L 182.156667 35.000262 
L 184.199277 36.380776 
L 182.156667 37.547631 
L 158.293333 42.852552 
L 134.43 36.917884 
L 122.644465 47.600163 
L 134.43 53.327597 
L 155.410398 60.808896 
L 158.293333 63.437327 
L 164.628749 60.808896 
L 182.156667 55.404698 
L 197.574364 47.600163 
L 206.02 44.162499 
L 229.883333 47.544286 
L 253.746667 40.577057 
L 261.784055 36.380776 
L 262.274658 26.88 
L 273.622454 26.88 
L 267.331151 36.380776 
L 253.746667 43.47317 
L 239.677787 47.600163 
L 253.746667 53.486995 
L 269.264101 47.600163 
L 277.61 44.317458 
L 301.473333 39.656122 
L 304.422828 36.380776 
L 301.473333 32.120403 
L 281.471067 26.88 
L 292.458926 26.88 
L 301.473333 29.241689 
L 306.415789 36.380776 
L 301.473333 41.869259 
L 279.584379 47.600163 
L 301.473333 55.796312 
L 304.884906 60.808896 
L 304.330053 76.198006 
L 303.891989 93.757994 
L 309.573862 113.137869 
L 304.777426 133.590571 
L 307.782193 154.013971 
L 302.192966 173.39493 
L 301.473333 175.638056 
L 277.61 174.479873 
L 253.746667 180.251847 
L 229.883333 177.100467 
L 216.424328 173.39493 
L 229.883333 168.654152 
L 244.378966 154.013971 
L 231.778967 133.590571 
L 229.883333 132.826337 
L 209.732448 113.137869 
L 229.614891 93.757994 
L 229.883333 76.359637 
L 233.557875 93.757994 
L 253.746667 95.11551 
L 277.61 95.667609 
L 281.628378 93.757994 
L 277.61 88.12482 
L 272.564911 76.198006 
L 264.071443 60.808896 
L 253.746667 57.618073 
L 246.448589 60.808896 
L 229.883333 76.195392 
L 229.878627 76.198006 
L 206.02 82.32405 
L 182.156667 84.717909 
L 165.768239 93.757994 
L 182.156667 102.903375 
L 200.097033 113.137869 
L 187.673606 133.590571 
L 182.156667 137.506457 
L 158.293333 145.124693 
L 134.43 149.527295 
L 110.566667 142.256242 
L 107.047406 133.590571 
L 106.338766 113.137869 
L 108.321148 93.757994 
L 103.146967 76.198006 
L 104.811167 60.808896 
L 106.403188 47.600163 
L 103.837325 36.380776 
L 109.818679 26.88 
z
M 105.64207 36.380776 
L 108.478199 47.600163 
L 106.718488 60.808896 
L 104.878997 76.198006 
L 110.566667 93.684297 
L 134.43 84.290626 
L 158.293333 87.70366 
L 182.156667 78.156692 
L 206.02 78.266868 
L 214.077436 76.198006 
L 229.883333 67.419105 
L 236.999951 60.808896 
L 229.883333 55.108469 
L 206.02 55.677731 
L 185.95077 60.808896 
L 182.156667 62.116522 
L 158.293333 70.916629 
L 147.206894 60.808896 
L 134.43 56.252845 
L 116.625085 47.600163 
L 128.503656 36.380776 
L 110.566667 28.803737 
z
M 277.438673 60.808896 
L 277.61 61.165084 
L 293.124761 76.198006 
L 300.161691 93.757994 
L 277.61 104.475015 
L 253.746667 102.821581 
L 229.883333 100.626663 
L 217.025338 113.137869 
L 229.883333 125.700802 
L 249.453413 133.590571 
L 250.559132 154.013971 
L 242.40178 173.39493 
L 253.746667 174.62189 
L 258.69394 173.39493 
L 257.099729 154.013971 
L 277.61 134.570323 
L 291.133993 154.013971 
L 301.473333 169.012304 
L 305.933158 154.013971 
L 302.611895 133.590571 
L 307.913545 113.137869 
L 301.633193 93.757994 
L 302.117399 76.198006 
L 302.730695 60.808896 
L 301.473333 58.961468 
L 277.61 60.591639 
z
M 122.057673 93.757994 
L 134.43 97.933811 
L 149.42089 93.757994 
L 134.43 88.882434 
z
M 108.406992 113.137869 
L 109.190274 133.590571 
L 110.566667 136.97974 
L 134.43 143.168413 
L 158.293333 140.841007 
L 175.990467 133.590571 
L 182.156667 122.93178 
L 188.461708 113.137869 
L 182.156667 109.541013 
L 158.293333 103.114475 
L 134.43 101.8666 
L 110.566667 94.011491 
z
M 263.600827 154.013971 
L 277.61 172.003132 
L 286.847321 154.013971 
L 277.61 140.733335 
z
M 134.43 188.047871 
L 138.402901 190.956403 
L 134.43 193.038108 
L 131.342397 190.956403 
z
M 110.566667 200.360517 
L 120.140521 206.347113 
L 110.566667 210.163637 
L 107.752608 206.347113 
z
M 109.969756 206.347113 
L 110.566667 207.156664 
L 112.597449 206.347113 
L 110.566667 205.077251 
z
M 277.61 201.59134 
L 301.473333 196.882662 
L 307.516484 206.347113 
L 301.473333 217.407737 
L 295.56415 219.557363 
L 277.61 226.23119 
L 267.196889 230.778089 
L 253.746667 233.211897 
L 238.416566 230.778089 
L 229.883333 224.613493 
L 226.281674 219.557363 
L 229.883333 216.96561 
L 240.073542 219.557363 
L 253.746667 223.81987 
L 262.105104 219.557363 
L 256.92146 206.347113 
z
M 275.193785 206.347113 
L 270.260674 219.557363 
L 277.61 222.720759 
L 286.120273 219.557363 
L 301.473333 213.97227 
L 305.639461 206.347113 
L 301.473333 199.822352 
L 277.61 205.791686 
z
M 247.579641 230.778089 
L 253.746667 231.757167 
L 259.157451 230.778089 
L 253.746667 227.978922 
z
M 110.566667 227.078542 
L 130.142112 230.778089 
L 110.566667 235.103972 
L 107.242314 230.778089 
z
M 109.405711 230.778089 
L 110.566667 232.288807 
L 117.402952 230.778089 
L 110.566667 229.486105 
z
M 206.02 237.447828 
L 229.883333 237.407388 
L 231.713297 240.28 
L 229.883333 240.28 
L 206.02 240.28 
L 200.773282 240.28 
z
M 277.61 236.283253 
L 282.826613 240.28 
L 277.61 240.28 
L 273.740409 240.28 
z
" clip-path="url(#pb0f6a00f82)" style="fill: #44bf70"/>
    <path d="M 110.566667 28.803737 
L 128.503656 36.380776 
L 116.625085 47.600163 
L 134.43 56.252845 
L 147.206894 60.808896 
L 158.293333 70.916629 
L 182.156667 62.116522 
L 185.95077 60.808896 
L 206.02 55.677731 
L 229.883333 55.108469 
L 236.999951 60.808896 
L 229.883333 67.419105 
L 214.077436 76.198006 
L 206.02 78.266868 
L 182.156667 78.156692 
L 158.293333 87.70366 
L 134.43 84.290626 
L 110.566667 93.684297 
L 104.878997 76.198006 
L 106.718488 60.808896 
L 108.478199 47.600163 
L 105.64207 36.380776 
z
M 107.446815 36.380776 
L 110.55321 47.600163 
L 108.62581 60.808896 
L 106.611026 76.198006 
L 110.566667 88.359311 
L 134.43 79.698818 
L 151.654262 76.198006 
L 139.003389 60.808896 
L 134.43 59.178093 
L 110.605704 47.600163 
L 121.930185 36.380776 
L 110.566667 31.580538 
z
M 158.293333 26.88 
L 165.190357 26.88 
L 158.293333 33.845494 
L 146.998344 26.88 
z
M 277.61 26.88 
L 281.471067 26.88 
L 301.473333 32.120403 
L 304.422828 36.380776 
L 301.473333 39.656122 
L 277.61 44.317458 
L 269.264101 47.600163 
L 253.746667 53.486995 
L 239.677787 47.600163 
L 253.746667 43.47317 
L 267.331151 36.380776 
L 273.622454 26.88 
z
M 272.878248 36.380776 
L 277.61 40.034338 
L 301.473333 37.442985 
L 302.429868 36.380776 
L 301.473333 34.999118 
L 277.61 30.983741 
z
M 249.550607 47.600163 
L 253.746667 49.355917 
L 258.37476 47.600163 
L 253.746667 46.369282 
z
M 277.61 60.591639 
L 301.473333 58.961468 
L 302.730695 60.808896 
L 302.117399 76.198006 
L 301.633193 93.757994 
L 307.913545 113.137869 
L 302.611895 133.590571 
L 305.933158 154.013971 
L 301.473333 169.012304 
L 291.133993 154.013971 
L 277.61 134.570323 
L 257.099729 154.013971 
L 258.69394 173.39493 
L 253.746667 174.62189 
L 242.40178 173.39493 
L 250.559132 154.013971 
L 249.453413 133.590571 
L 229.883333 125.700802 
L 217.025338 113.137869 
L 229.883333 100.626663 
L 253.746667 102.821581 
L 277.61 104.475015 
L 300.161691 93.757994 
L 293.124761 76.198006 
L 277.61 61.165084 
L 277.438673 60.808896 
z
M 224.318228 113.137869 
L 229.883333 118.575268 
L 253.746667 119.45991 
L 276.507151 113.137869 
L 253.746667 110.527651 
L 229.883333 107.722859 
z
M 277.745274 113.137869 
L 301.473333 130.697946 
L 306.253229 113.137869 
L 301.473333 98.486903 
z
M 295.420665 154.013971 
L 301.473333 162.794022 
L 304.084123 154.013971 
L 301.473333 138.725466 
z
M 110.566667 94.011491 
L 134.43 101.8666 
L 158.293333 103.114475 
L 182.156667 109.541013 
L 188.461708 113.137869 
L 182.156667 122.93178 
L 175.990467 133.590571 
L 158.293333 140.841007 
L 134.43 143.168413 
L 110.566667 136.97974 
L 109.190274 133.590571 
L 108.406992 113.137869 
z
M 110.475217 113.137869 
L 110.566667 115.38803 
L 120.44695 133.590571 
L 134.43 136.809531 
L 158.293333 136.557322 
L 165.534689 133.590571 
L 158.293333 122.648303 
L 152.472878 113.137869 
L 134.43 105.799389 
L 110.566667 112.327978 
z
M 110.566667 205.077251 
L 112.597449 206.347113 
L 110.566667 207.156664 
L 109.969756 206.347113 
z
M 277.61 205.791686 
L 301.473333 199.822352 
L 305.639461 206.347113 
L 301.473333 213.97227 
L 286.120273 219.557363 
L 277.61 222.720759 
L 270.260674 219.557363 
L 275.193785 206.347113 
z
M 287.530821 206.347113 
L 301.473333 210.536803 
L 303.762439 206.347113 
L 301.473333 202.762042 
z
M 110.566667 229.486105 
L 117.402952 230.778089 
L 110.566667 232.288807 
L 109.405711 230.778089 
z
M 253.746667 227.978922 
L 259.157451 230.778089 
L 253.746667 231.757167 
L 247.579641 230.778089 
z
" clip-path="url(#pb0f6a00f82)" style="fill: #67cc5c"/>
    <path d="M 110.566667 31.580538 
L 121.930185 36.380776 
L 110.605704 47.600163 
L 134.43 59.178093 
L 139.003389 60.808896 
L 151.654262 76.198006 
L 134.43 79.698818 
L 110.566667 88.359311 
L 106.611026 76.198006 
L 108.62581 60.808896 
L 110.55321 47.600163 
L 107.446815 36.380776 
z
M 109.251561 36.380776 
L 110.566667 41.127875 
L 115.356713 36.380776 
L 110.566667 34.357339 
z
M 110.533131 60.808896 
L 108.343055 76.198006 
L 110.566667 83.034325 
L 130.703313 76.198006 
L 111.478617 60.808896 
L 110.566667 60.579201 
z
M 277.61 30.983741 
L 301.473333 34.999118 
L 302.429868 36.380776 
L 301.473333 37.442985 
L 277.61 40.034338 
L 272.878248 36.380776 
z
M 253.746667 46.369282 
L 258.37476 47.600163 
L 253.746667 49.355917 
L 249.550607 47.600163 
z
M 110.566667 112.327978 
L 134.43 105.799389 
L 152.472878 113.137869 
L 158.293333 122.648303 
L 165.534689 133.590571 
L 158.293333 136.557322 
L 134.43 136.809531 
L 120.44695 133.590571 
L 110.566667 115.38803 
L 110.475217 113.137869 
z
M 123.086548 113.137869 
L 134.43 126.16334 
L 142.803459 113.137869 
L 134.43 109.732178 
z
M 229.883333 107.722859 
L 253.746667 110.527651 
L 276.507151 113.137869 
L 253.746667 119.45991 
L 229.883333 118.575268 
L 224.318228 113.137869 
z
M 301.473333 98.486903 
L 306.253229 113.137869 
L 301.473333 130.697946 
L 277.745274 113.137869 
z
M 285.987314 113.137869 
L 301.473333 124.59838 
L 304.592912 113.137869 
L 301.473333 103.575977 
z
M 301.473333 138.725466 
L 304.084123 154.013971 
L 301.473333 162.794022 
L 295.420665 154.013971 
z
M 299.707337 154.013971 
L 301.473333 156.575741 
L 302.235087 154.013971 
L 301.473333 149.55322 
z
M 301.473333 202.762042 
L 303.762439 206.347113 
L 301.473333 210.536803 
L 287.530821 206.347113 
z
M 298.963416 206.347113 
L 301.473333 207.101337 
L 301.885416 206.347113 
L 301.473333 205.701732 
z
" clip-path="url(#pb0f6a00f82)" style="fill: #90d743"/>
    <path d="M 110.566667 34.357339 
L 115.356713 36.380776 
L 110.566667 41.127875 
L 109.251561 36.380776 
z
M 110.566667 60.579201 
L 111.478617 60.808896 
L 130.703313 76.198006 
L 110.566667 83.034325 
L 108.343055 76.198006 
L 110.533131 60.808896 
z
M 110.075084 76.198006 
L 110.566667 77.709338 
L 115.018355 76.198006 
L 110.566667 72.748633 
z
M 134.43 109.732178 
L 142.803459 113.137869 
L 134.43 126.16334 
L 123.086548 113.137869 
z
M 301.473333 103.575977 
L 304.592912 113.137869 
L 301.473333 124.59838 
L 285.987314 113.137869 
z
M 294.229354 113.137869 
L 301.473333 118.498815 
L 302.932596 113.137869 
L 301.473333 108.665051 
z
M 301.473333 149.55322 
L 302.235087 154.013971 
L 301.473333 156.575741 
L 299.707337 154.013971 
z
M 301.473333 205.701732 
L 301.885416 206.347113 
L 301.473333 207.101337 
L 298.963416 206.347113 
z
" clip-path="url(#pb0f6a00f82)" style="fill: #bddf26"/>
    <path d="M 110.566667 72.748633 
L 115.018355 76.198006 
L 110.566667 77.709338 
L 110.075084 76.198006 
z
M 301.473333 108.665051 
L 302.932596 113.137869 
L 301.473333 118.498815 
L 294.229354 113.137869 
z
" clip-path="url(#pb0f6a00f82)" style="fill: #eae51a"/>
   </g>
   <g id="matplotlib.axis_1">
    <g id="xtick_1">
     <g id="line2d_1">
      <defs>
       <path id="m2100448bfc" d="M 0 0 
L 0 3.5 
" style="stroke: #000000; stroke-width: 0.8"/>
      </defs>
      <g>
       <use xlink:href="#m2100448bfc" x="126.475556" y="240.28" style="stroke: #000000; stroke-width: 0.8"/>
      </g>
     </g>
     <g id="text_1">
      <!-- −50 -->
      <g transform="translate(113.812743 256.398125) scale(0.12 -0.12)">
       <defs>
        <path id="DejaVuSans-2212" d="M 678 2272 
L 4684 2272 
L 4684 1741 
L 678 1741 
L 678 2272 
z
" transform="scale(0.015625)"/>
        <path id="DejaVuSans-35" d="M 691 4666 
L 3169 4666 
L 3169 4134 
L 1269 4134 
L 1269 2991 
Q 1406 3038 1543 3061 
Q 1681 3084 1819 3084 
Q 2600 3084 3056 2656 
Q 3513 2228 3513 1497 
Q 3513 744 3044 326 
Q 2575 -91 1722 -91 
Q 1428 -91 1123 -41 
Q 819 9 494 109 
L 494 744 
Q 775 591 1075 516 
Q 1375 441 1709 441 
Q 2250 441 2565 725 
Q 2881 1009 2881 1497 
Q 2881 1984 2565 2268 
Q 2250 2553 1709 2553 
Q 1456 2553 1204 2497 
Q 953 2441 691 2322 
L 691 4666 
z
" transform="scale(0.015625)"/>
        <path id="DejaVuSans-30" d="M 2034 4250 
Q 1547 4250 1301 3770 
Q 1056 3291 1056 2328 
Q 1056 1369 1301 889 
Q 1547 409 2034 409 
Q 2525 409 2770 889 
Q 3016 1369 3016 2328 
Q 3016 3291 2770 3770 
Q 2525 4250 2034 4250 
z
M 2034 4750 
Q 2819 4750 3233 4129 
Q 3647 3509 3647 2328 
Q 3647 1150 3233 529 
Q 2819 -91 2034 -91 
Q 1250 -91 836 529 
Q 422 1150 422 2328 
Q 422 3509 836 4129 
Q 1250 4750 2034 4750 
z
" transform="scale(0.015625)"/>
       </defs>
       <use xlink:href="#DejaVuSans-2212"/>
       <use xlink:href="#DejaVuSans-35" transform="translate(83.789062 0)"/>
       <use xlink:href="#DejaVuSans-30" transform="translate(147.412109 0)"/>
      </g>
     </g>
    </g>
    <g id="xtick_2">
     <g id="line2d_2">
      <g>
       <use xlink:href="#m2100448bfc" x="206.02" y="240.28" style="stroke: #000000; stroke-width: 0.8"/>
      </g>
     </g>
     <g id="text_2">
      <!-- 0 -->
      <g transform="translate(202.2025 256.398125) scale(0.12 -0.12)">
       <use xlink:href="#DejaVuSans-30"/>
      </g>
     </g>
    </g>
    <g id="xtick_3">
     <g id="line2d_3">
      <g>
       <use xlink:href="#m2100448bfc" x="285.564444" y="240.28" style="stroke: #000000; stroke-width: 0.8"/>
      </g>
     </g>
     <g id="text_3">
      <!-- 50 -->
      <g transform="translate(277.929444 256.398125) scale(0.12 -0.12)">
       <use xlink:href="#DejaVuSans-35"/>
       <use xlink:href="#DejaVuSans-30" transform="translate(63.623047 0)"/>
      </g>
     </g>
    </g>
    <g id="text_4">
     <!-- $\Theta^{\circ}$ -->
     <g transform="translate(198.4 272.011875) scale(0.12 -0.12)">
      <defs>
       <path id="DejaVuSans-398" d="M 1416 2750 
L 3622 2750 
L 3622 2219 
L 1416 2219 
L 1416 2750 
z
M 2522 4238 
Q 1834 4238 1431 3725 
Q 1025 3213 1025 2328 
Q 1025 1447 1429 934 
Q 1834 422 2522 422 
Q 3209 422 3613 934 
Q 4013 1447 4013 2328 
Q 4013 3213 3613 3725 
Q 3209 4238 2522 4238 
z
M 2522 4750 
Q 3503 4750 4090 4092 
Q 4678 3434 4678 2328 
Q 4678 1225 4091 569 
Q 3503 -91 2522 -91 
Q 1538 -91 950 566 
Q 359 1222 359 2328 
Q 359 3434 950 4094 
Q 1538 4750 2522 4750 
z
" transform="scale(0.015625)"/>
       <path id="DejaVuSans-2218" d="M 2000 2619 
Q 1750 2619 1578 2445 
Q 1406 2272 1406 2022 
Q 1406 1775 1578 1605 
Q 1750 1435 2000 1435 
Q 2250 1435 2422 1605 
Q 2594 1775 2594 2022 
Q 2594 2269 2420 2444 
Q 2247 2619 2000 2619 
z
M 2000 3022 
Q 2200 3022 2384 2945 
Q 2569 2869 2703 2725 
Q 2847 2585 2919 2406 
Q 2991 2228 2991 2022 
Q 2991 1610 2702 1324 
Q 2413 1038 1994 1038 
Q 1572 1038 1290 1319 
Q 1009 1600 1009 2022 
Q 1009 2441 1296 2731 
Q 1584 3022 2000 3022 
z
" transform="scale(0.015625)"/>
      </defs>
      <use xlink:href="#DejaVuSans-398" transform="translate(0 0.78125)"/>
      <use xlink:href="#DejaVuSans-2218" transform="translate(79.667969 39.0625) scale(0.7)"/>
     </g>
    </g>
   </g>
   <g id="matplotlib.axis_2">
    <g id="ytick_1">
     <g id="line2d_4">
      <defs>
       <path id="mb3b7c970aa" d="M 0 0 
L -3.5 0 
" style="stroke: #000000; stroke-width: 0.8"/>
      </defs>
      <g>
       <use xlink:href="#mb3b7c970aa" x="62.84" y="219.984151" style="stroke: #000000; stroke-width: 0.8"/>
      </g>
     </g>
     <g id="text_5">
      <!-- −40 -->
      <g transform="translate(30.514375 224.543214) scale(0.12 -0.12)">
       <defs>
        <path id="DejaVuSans-34" d="M 2419 4116 
L 825 1625 
L 2419 1625 
L 2419 4116 
z
M 2253 4666 
L 3047 4666 
L 3047 1625 
L 3713 1625 
L 3713 1100 
L 3047 1100 
L 3047 0 
L 2419 0 
L 2419 1100 
L 313 1100 
L 313 1709 
L 2253 4666 
z
" transform="scale(0.015625)"/>
       </defs>
       <use xlink:href="#DejaVuSans-2212"/>
       <use xlink:href="#DejaVuSans-34" transform="translate(83.789062 0)"/>
       <use xlink:href="#DejaVuSans-30" transform="translate(147.412109 0)"/>
      </g>
     </g>
    </g>
    <g id="ytick_2">
     <g id="line2d_5">
      <g>
       <use xlink:href="#mb3b7c970aa" x="62.84" y="176.783648" style="stroke: #000000; stroke-width: 0.8"/>
      </g>
     </g>
     <g id="text_6">
      <!-- −20 -->
      <g transform="translate(30.514375 181.342711) scale(0.12 -0.12)">
       <defs>
        <path id="DejaVuSans-32" d="M 1228 531 
L 3431 531 
L 3431 0 
L 469 0 
L 469 531 
Q 828 903 1448 1529 
Q 2069 2156 2228 2338 
Q 2531 2678 2651 2914 
Q 2772 3150 2772 3378 
Q 2772 3750 2511 3984 
Q 2250 4219 1831 4219 
Q 1534 4219 1204 4116 
Q 875 4013 500 3803 
L 500 4441 
Q 881 4594 1212 4672 
Q 1544 4750 1819 4750 
Q 2544 4750 2975 4387 
Q 3406 4025 3406 3419 
Q 3406 3131 3298 2873 
Q 3191 2616 2906 2266 
Q 2828 2175 2409 1742 
Q 1991 1309 1228 531 
z
" transform="scale(0.015625)"/>
       </defs>
       <use xlink:href="#DejaVuSans-2212"/>
       <use xlink:href="#DejaVuSans-32" transform="translate(83.789062 0)"/>
       <use xlink:href="#DejaVuSans-30" transform="translate(147.412109 0)"/>
      </g>
     </g>
    </g>
    <g id="ytick_3">
     <g id="line2d_6">
      <g>
       <use xlink:href="#mb3b7c970aa" x="62.84" y="133.583145" style="stroke: #000000; stroke-width: 0.8"/>
      </g>
     </g>
     <g id="text_7">
      <!-- 0 -->
      <g transform="translate(48.205 138.142208) scale(0.12 -0.12)">
       <use xlink:href="#DejaVuSans-30"/>
      </g>
     </g>
    </g>
    <g id="ytick_4">
     <g id="line2d_7">
      <g>
       <use xlink:href="#mb3b7c970aa" x="62.84" y="90.382642" style="stroke: #000000; stroke-width: 0.8"/>
      </g>
     </g>
     <g id="text_8">
      <!-- 20 -->
      <g transform="translate(40.57 94.941704) scale(0.12 -0.12)">
       <use xlink:href="#DejaVuSans-32"/>
       <use xlink:href="#DejaVuSans-30" transform="translate(63.623047 0)"/>
      </g>
     </g>
    </g>
    <g id="ytick_5">
     <g id="line2d_8">
      <g>
       <use xlink:href="#mb3b7c970aa" x="62.84" y="47.182139" style="stroke: #000000; stroke-width: 0.8"/>
      </g>
     </g>
     <g id="text_9">
      <!-- 40 -->
      <g transform="translate(40.57 51.741201) scale(0.12 -0.12)">
       <use xlink:href="#DejaVuSans-34"/>
       <use xlink:href="#DejaVuSans-30" transform="translate(63.623047 0)"/>
      </g>
     </g>
    </g>
    <g id="text_10">
     <!-- $\phi^{\circ}$ -->
     <g transform="translate(23.784375 141.38) rotate(-90) scale(0.13 -0.13)">
      <defs>
       <path id="DejaVuSans-Oblique-3d5" d="M 2991 4863 
L 2738 3572 
Q 3363 3572 3684 3094 
Q 4016 2606 3850 1747 
Q 3681 888 3159 400 
Q 2653 -78 2028 -78 
L 1784 -1331 
L 1213 -1331 
L 1456 -78 
Q 834 -78 509 400 
Q 178 888 347 1747 
Q 513 2606 1034 3094 
Q 1544 3572 2166 3572 
L 2419 4863 
L 2991 4863 
z
M 2128 434 
Q 2481 434 2784 756 
Q 3116 1116 3244 1747 
Q 3369 2372 3169 2738 
Q 2991 3059 2638 3059 
L 2128 434 
z
M 1556 434 
L 2066 3059 
Q 1716 3059 1413 2738 
Q 1072 2372 953 1747 
Q 834 1116 1028 756 
Q 1203 434 1556 434 
z
" transform="scale(0.015625)"/>
      </defs>
      <use xlink:href="#DejaVuSans-Oblique-3d5" transform="translate(0 0.015625)"/>
      <use xlink:href="#DejaVuSans-2218" transform="translate(73.414505 38.296875) scale(0.7)"/>
     </g>
    </g>
   </g>
   <g id="QuadContourSet_2">
    <path clip-path="url(#pb0f6a00f82)" style="fill: none; stroke-dasharray: 1.85,0.8; stroke-dashoffset: 0; stroke: #000000; stroke-width: 0.5"/>
    <path d="M 323.97792 26.88 
L 324.352432 36.380776 
L 323.629769 47.600163 
L 324.272798 60.808896 
L 324.243936 76.198006 
L 324.221148 93.757994 
L 324.51671 113.137869 
L 324.42726 120.470447 
M 324.367622 146.711215 
L 324.423511 154.013971 
L 324.132768 173.39493 
L 323.760686 190.956403 
L 324.409689 206.347113 
L 324.007748 219.557363 
L 324.093533 230.778089 
L 323.414955 240.28 
M 88.242808 240.28 
L 87.771739 230.778089 
L 88.553454 219.557363 
L 87.798284 206.347113 
L 88.274655 190.956403 
L 89.649592 173.39493 
L 88.32538 154.013971 
L 88.123678 146.707161 
M 87.737952 120.469607 
L 87.724738 113.137869 
L 87.827858 93.757994 
L 87.558705 76.198006 
L 87.645274 60.808896 
L 87.728089 47.600163 
L 87.594617 36.380776 
L 87.905757 26.88 
" clip-path="url(#pb0f6a00f82)" style="fill: none; stroke-dasharray: 1.85,0.8; stroke-dashoffset: 0; stroke: #000000; stroke-width: 0.5"/>
    <path d="M 321.226614 26.88 
L 322.359472 36.380776 
L 320.1735 47.600163 
L 322.118588 60.808896 
L 322.031282 76.198006 
L 321.962353 93.757994 
L 322.856394 113.137869 
L 322.583962 120.520712 
M 322.404351 146.66517 
L 322.574475 154.013971 
L 321.695012 173.39493 
L 320.569509 190.956403 
L 322.532666 206.347113 
L 321.316842 219.557363 
L 321.576331 230.778089 
L 319.523712 240.28 
M 91.360066 240.28 
L 89.935136 230.778089 
L 92.299734 219.557363 
L 90.015431 206.347113 
L 91.456399 190.956403 
L 95.615426 173.39493 
L 91.609835 154.013971 
L 90.993131 146.628356 
M 89.833171 120.513063 
L 89.792963 113.137869 
L 90.10489 93.757994 
L 89.290734 76.198006 
L 89.552596 60.808896 
L 89.8031 47.600163 
L 89.399362 36.380776 
L 90.340526 26.88 
" clip-path="url(#pb0f6a00f82)" style="fill: none; stroke-dasharray: 1.85,0.8; stroke-dashoffset: 0; stroke: #000000; stroke-width: 0.5"/>
    <path d="M 318.475309 26.88 
L 320.366512 36.380776 
L 316.717231 47.600163 
L 319.964378 60.808896 
L 319.818628 76.198006 
L 319.703557 93.757994 
L 321.196077 113.137869 
L 320.740419 120.53465 
M 320.441221 146.659673 
L 320.72544 154.013971 
L 319.257256 173.39493 
L 317.378331 190.956403 
L 320.655643 206.347113 
L 318.625935 219.557363 
L 319.059129 230.778089 
L 315.632469 240.28 
M 94.477324 240.28 
L 92.098533 230.778089 
L 96.046014 219.557363 
L 92.232578 206.347113 
L 94.638144 190.956403 
L 101.581259 173.39493 
L 94.894291 154.013971 
L 93.854949 146.557971 
M 91.928315 120.513368 
L 91.861188 113.137869 
L 92.381923 93.757994 
L 91.022764 76.198006 
L 91.459917 60.808896 
L 91.878111 47.600163 
L 91.204107 36.380776 
L 92.775295 26.88 
" clip-path="url(#pb0f6a00f82)" style="fill: none; stroke-dasharray: 1.85,0.8; stroke-dashoffset: 0; stroke: #000000; stroke-width: 0.5"/>
    <path d="M 315.724003 26.88 
L 318.373551 36.380776 
L 313.260962 47.600163 
L 317.810167 60.808896 
L 317.605975 76.198006 
L 317.444762 93.757994 
L 319.535761 113.137869 
L 318.899316 120.512333 
M 318.480114 146.69468 
L 318.876405 154.013971 
L 316.819501 173.39493 
L 314.187154 190.956403 
L 318.778621 206.347113 
L 315.935029 219.557363 
L 316.541927 230.778089 
L 311.741226 240.28 
M 97.594582 240.28 
L 94.26193 230.778089 
L 99.792293 219.557363 
L 94.449725 206.347113 
L 97.819888 190.956403 
L 107.547092 173.39493 
L 98.178747 154.013971 
L 96.710733 146.496988 
M 94.022911 120.470526 
L 93.929414 113.137869 
L 94.658955 93.757994 
L 92.754793 76.198006 
L 93.367239 60.808896 
L 93.953122 47.600163 
L 93.008853 36.380776 
L 95.210064 26.88 
" clip-path="url(#pb0f6a00f82)" style="fill: none; stroke-dasharray: 1.85,0.8; stroke-dashoffset: 0; stroke: #000000; stroke-width: 0.5"/>
    <path d="M 312.972698 26.88 
L 316.380591 36.380776 
L 309.804693 47.600163 
L 315.655957 60.808896 
L 315.393321 76.198006 
L 315.185966 93.757994 
L 317.875444 113.137869 
L 317.048977 120.583148 
M 316.513878 146.640462 
L 317.02737 154.013971 
L 314.381745 173.39493 
L 310.995976 190.956403 
L 316.901598 206.347113 
L 313.244122 219.557363 
L 314.024725 230.778089 
L 307.849983 240.28 
M 100.71184 240.28 
L 96.425328 230.778089 
L 103.538573 219.557363 
L 96.666872 206.347113 
L 101.001632 190.956403 
L 110.566667 175.872825 
L 113.512126 173.39493 
L 110.566667 170.463898 
L 107.887218 165.622145 
M 98.265709 141.284539 
L 96.33307 133.590571 
L 95.997639 113.137869 
L 96.935987 93.757994 
L 94.486822 76.198006 
L 95.27456 60.808896 
L 96.028133 47.600163 
L 94.813598 36.380776 
L 97.644833 26.88 
" clip-path="url(#pb0f6a00f82)" style="fill: none; stroke-dasharray: 1.85,0.8; stroke-dashoffset: 0; stroke: #000000; stroke-width: 0.5"/>
    <path d="M 310.221392 26.88 
L 314.38763 36.380776 
L 306.348424 47.600163 
L 313.501747 60.808896 
L 313.180667 76.198006 
L 312.927171 93.757994 
L 316.215128 113.137869 
L 315.205921 120.574522 
M 314.553088 146.669951 
L 315.178334 154.013971 
L 311.943989 173.39493 
L 307.804799 190.956403 
L 315.024575 206.347113 
L 310.553216 219.557363 
L 311.507523 230.778089 
L 303.95874 240.28 
M 103.829098 240.28 
L 98.588725 230.778089 
L 107.284853 219.557363 
L 98.88402 206.347113 
L 104.183377 190.956403 
L 110.566667 180.890276 
L 119.47634 173.39493 
L 111.499183 165.456848 
M 100.875688 141.405183 
L 98.475937 133.590571 
L 98.065865 113.137869 
L 99.213019 93.757994 
L 96.218851 76.198006 
L 97.181881 60.808896 
L 98.103144 47.600163 
L 96.618343 36.380776 
L 100.079603 26.88 
M 257.280256 240.28 
L 253.746667 239.030821 
L 249.852605 240.28 
M 158.293333 171.505848 
L 156.466262 173.39493 
L 158.293333 174.734915 
L 163.737988 173.39493 
L 158.293333 171.505848 
z
M 206.02 214.254811 
L 196.720983 219.557363 
L 206.02 220.692464 
L 207.420159 219.557363 
L 206.02 214.254811 
z
" clip-path="url(#pb0f6a00f82)" style="fill: none; stroke-dasharray: 1.85,0.8; stroke-dashoffset: 0; stroke: #000000; stroke-width: 0.5"/>
    <path d="M 307.470087 26.88 
L 312.39467 36.380776 
L 302.892155 47.600163 
L 311.347537 60.808896 
L 310.968014 76.198006 
L 310.668375 93.757994 
L 314.554811 113.137869 
L 311.27402 133.590571 
L 312.019065 140.994116 
M 310.792629 166.873573 
L 309.506233 173.39493 
L 304.613621 190.956403 
L 313.147552 206.347113 
L 307.86231 219.557363 
L 308.990321 230.778089 
L 301.473333 239.254506 
L 299.46912 240.28 
M 106.946356 240.28 
L 100.752122 230.778089 
L 110.566667 219.855854 
L 112.520144 219.557363 
L 110.566667 219.184556 
L 101.101167 206.347113 
L 107.365121 190.956403 
L 110.566667 185.907727 
L 125.440553 173.39493 
L 120.131899 168.112279 
M 105.311285 146.518186 
L 100.618804 133.590571 
L 100.13409 113.137869 
L 101.490051 93.757994 
L 97.95088 76.198006 
L 99.089203 60.808896 
L 100.178155 47.600163 
L 98.423089 36.380776 
L 102.514372 26.88 
M 164.400359 240.28 
L 158.293333 239.251838 
L 150.579276 240.28 
M 261.395294 240.28 
L 253.746667 237.57609 
L 245.317778 240.28 
M 158.293333 162.418464 
L 147.677178 173.39493 
L 158.293333 181.180885 
L 168.211411 180.980198 
M 181.181502 169.426608 
L 158.293333 162.418464 
M 216.787177 216.210045 
L 229.883333 206.786058 
L 230.927781 206.347113 
L 229.883333 199.465569 
L 225.850883 190.956403 
L 206.02 186.638673 
L 190.422217 190.956403 
L 201.401627 206.347113 
L 182.156667 217.08369 
L 178.111722 219.557363 
L 182.156667 225.038092 
L 192.075305 224.820754 
" clip-path="url(#pb0f6a00f82)" style="fill: none; stroke-dasharray: 1.85,0.8; stroke-dashoffset: 0; stroke: #000000; stroke-width: 0.5"/>
    <path d="M 304.718781 26.88 
L 310.40171 36.380776 
L 301.473333 46.295533 
L 296.490355 47.600163 
L 301.473333 49.466 
L 309.193326 60.808896 
L 308.75536 76.198006 
L 308.40958 93.757994 
L 312.894495 113.137869 
L 309.108489 133.590571 
L 311.480264 154.013971 
L 309.989489 160.56294 
M 303.037446 185.959823 
L 301.473333 190.835229 
L 277.61 187.494924 
L 257.479777 190.956403 
L 277.61 193.190648 
L 301.473333 191.003282 
L 311.27053 206.347113 
L 305.171403 219.557363 
L 306.473119 230.778089 
L 301.473333 236.416022 
L 293.921618 240.28 
M 110.063614 240.28 
L 102.915519 230.778089 
L 110.566667 222.263417 
L 128.276462 219.557363 
L 110.566667 216.177583 
L 103.318314 206.347113 
L 110.546866 190.956403 
L 110.566667 190.925178 
L 131.404767 173.39493 
L 123.114258 164.085687 
M 106.939632 143.878195 
L 102.761672 133.590571 
L 102.202315 113.137869 
L 103.767084 93.757994 
L 99.682909 76.198006 
L 100.996524 60.808896 
L 102.253166 47.600163 
L 100.227834 36.380776 
L 104.949141 26.88 
M 182.625037 240.28 
L 191.890688 230.778089 
L 206.02 228.337929 
L 216.850916 219.557363 
L 229.883333 210.179242 
L 239.001686 206.347113 
L 251.238948 190.956403 
L 229.883333 186.858022 
L 206.02 181.149859 
L 193.577118 173.39493 
L 182.156667 157.359437 
L 172.120395 155.561606 
M 148.65761 162.93163 
L 138.888094 173.39493 
L 158.293333 187.626854 
L 169.502246 190.956403 
L 182.156667 195.667833 
L 193.11281 206.347113 
L 182.156667 212.459439 
L 170.550156 219.557363 
L 177.225318 230.778089 
L 158.293333 236.099737 
L 134.43 238.758483 
L 118.614422 240.28 
M 206.02 90.438415 
L 192.464705 93.757994 
L 206.02 100.624847 
L 212.870227 93.757994 
L 206.02 90.438415 
M 229.883333 150.861308 
L 223.201894 154.013971 
L 229.883333 156.170567 
L 232.018636 154.013971 
L 229.883333 150.861308 
M 277.61 153.059361 
L 276.603022 154.013971 
L 277.61 155.30703 
L 278.273978 154.013971 
L 277.61 153.059361 
z
M 158.293333 199.945945 
L 139.753664 206.347113 
L 158.293333 208.790268 
L 163.488085 206.347113 
L 158.293333 199.945945 
z
" clip-path="url(#pb0f6a00f82)" style="fill: none; stroke-dasharray: 1.85,0.8; stroke-dashoffset: 0; stroke: #000000; stroke-width: 0.5"/>
    <path d="M 184.196556 26.88 
L 196.731766 36.380776 
L 206.02 39.693153 
L 229.883333 40.504778 
L 239.862128 39.323952 
M 249.689167 29.395371 
L 237.954069 26.88 
M 301.967476 26.88 
L 308.408749 36.380776 
L 301.473333 44.082396 
L 288.037367 47.600163 
L 301.473333 52.631156 
L 307.039116 60.808896 
L 306.542706 76.198006 
L 306.150784 93.757994 
L 311.234178 113.137869 
L 306.942957 133.590571 
L 309.631228 154.013971 
L 304.630722 173.39493 
L 301.473333 183.236642 
L 291.534503 182.299856 
M 263.938612 183.791421 
L 253.746667 185.881804 
L 229.883333 181.979245 
L 206.02 175.661044 
L 202.383991 173.39493 
L 206.02 158.134964 
L 229.883333 162.41236 
L 238.198801 154.013971 
L 229.883333 141.736615 
L 212.935777 133.590571 
L 206.02 124.878552 
L 201.121057 133.590571 
L 182.156667 147.051367 
L 158.293333 149.408378 
L 139.560024 154.013971 
L 134.43 161.262785 
L 129.816001 154.013971 
L 110.566667 147.532744 
L 104.904539 133.590571 
L 104.270541 113.137869 
L 106.044116 93.757994 
L 101.414938 76.198006 
L 102.903845 60.808896 
L 104.328177 47.600163 
L 102.032579 36.380776 
L 107.38391 26.88 
M 191.699159 240.28 
L 206.02 232.549627 
L 226.072318 230.778089 
L 221.566295 219.557363 
L 229.883333 213.572426 
L 247.075592 206.347113 
L 253.746667 198.986303 
L 263.65075 198.324196 
M 291.441403 195.392489 
L 301.473333 193.942972 
L 309.393507 206.347113 
L 302.480497 219.557363 
L 303.955917 230.778089 
L 301.473333 233.577537 
L 288.374116 240.28 
M 269.625371 240.28 
L 266.841432 239.295834 
M 240.505584 238.914246 
L 236.248124 240.28 
M 134.43 42.373784 
L 128.663846 47.600163 
L 134.43 50.40235 
L 150.338352 47.600163 
L 134.43 42.373784 
z
M 182.156667 44.706903 
L 171.236755 47.600163 
L 182.156667 49.846417 
L 186.594096 47.600163 
L 182.156667 44.706903 
M 253.746667 64.535496 
L 243.818045 76.198006 
L 253.746667 84.340477 
L 261.574858 76.198006 
L 253.746667 64.535496 
M 134.43 93.474242 
L 133.709945 93.757994 
L 134.43 94.001022 
L 135.302453 93.757994 
L 134.43 93.474242 
z
M 182.156667 91.279125 
L 177.662819 93.757994 
L 182.156667 96.265736 
L 193.861465 102.520387 
M 215.579562 99.434735 
L 221.242559 93.757994 
L 206.02 86.381233 
L 182.156667 91.279125 
M 277.61 146.896348 
L 270.101924 154.013971 
L 277.61 163.655081 
L 282.560649 154.013971 
L 277.61 146.896348 
z
M 107.6112 201.931209 
L 110.566667 195.643783 
L 120.922107 190.956403 
L 134.43 178.231925 
L 151.810962 190.956403 
L 134.43 200.063611 
L 127.683593 206.347113 
L 123.445554 208.036566 
M 182.156667 203.747189 
L 184.823994 206.347113 
L 182.156667 207.835188 
L 177.611709 206.347113 
L 182.156667 203.747189 
z
M 108.047276 227.474714 
L 110.566667 224.670979 
L 134.43 224.929919 
L 146.250327 219.557363 
L 158.293333 215.43278 
L 162.98859 219.557363 
L 166.011588 230.778089 
L 158.293333 232.947636 
L 134.43 233.960869 
L 124.347352 235.633302 
M 253.746667 219.171283 
L 253.414805 219.557363 
L 253.746667 219.660818 
L 253.949535 219.557363 
L 253.746667 219.171283 
M 277.61 229.741621 
L 275.236327 230.778089 
L 277.61 232.032993 
L 283.108034 230.778089 
L 277.61 229.741621 
z
" clip-path="url(#pb0f6a00f82)" style="fill: none; stroke-dasharray: 1.85,0.8; stroke-dashoffset: 0; stroke: #000000; stroke-width: 0.5"/>
    <path d="M 173.852433 26.88 
L 182.156667 35.000262 
L 184.199277 36.380776 
L 182.156667 37.547631 
L 158.293333 42.852552 
L 134.43 36.917884 
L 122.644465 47.600163 
L 134.43 53.327597 
L 146.088436 57.484823 
M 171.341797 58.739133 
L 182.156667 55.404698 
L 197.574364 47.600163 
L 206.02 44.162499 
L 229.883333 47.544286 
L 253.746667 40.577057 
L 261.784055 36.380776 
L 262.274658 26.88 
M 292.458926 26.88 
L 301.473333 29.241689 
L 306.415789 36.380776 
L 301.473333 41.869259 
L 279.584379 47.600163 
L 301.473333 55.796312 
L 304.884906 60.808896 
L 304.330053 76.198006 
L 303.891989 93.757994 
L 309.573862 113.137869 
L 304.777426 133.590571 
L 307.782193 154.013971 
L 305.193625 162.989978 
M 287.497356 174.959746 
L 277.61 174.479873 
L 253.746667 180.251847 
L 229.883333 177.100467 
L 216.424328 173.39493 
L 229.883333 168.654152 
L 244.378966 154.013971 
L 231.778967 133.590571 
L 229.883333 132.826337 
L 209.732448 113.137869 
L 229.614891 93.757994 
L 229.883333 76.359637 
L 233.557875 93.757994 
L 253.746667 95.11551 
L 277.61 95.667609 
L 281.628378 93.757994 
L 277.61 88.12482 
L 272.564911 76.198006 
L 264.071443 60.808896 
L 253.746667 57.618073 
L 246.448589 60.808896 
L 229.883333 76.195392 
L 229.878627 76.198006 
L 206.02 82.32405 
L 182.156667 84.717909 
L 165.768239 93.757994 
L 182.156667 102.903375 
L 200.097033 113.137869 
L 187.673606 133.590571 
L 182.156667 137.506457 
L 158.293333 145.124693 
L 134.43 149.527295 
L 110.566667 142.256242 
L 107.047406 133.590571 
L 106.338766 113.137869 
L 108.321148 93.757994 
L 103.146967 76.198006 
L 104.811167 60.808896 
L 106.403188 47.600163 
L 103.837325 36.380776 
L 109.818679 26.88 
M 200.773282 240.28 
L 206.02 237.447828 
L 215.888666 237.431104 
M 273.740409 240.28 
L 277.61 236.283253 
L 282.826613 240.28 
M 147.845121 94.196935 
L 149.42089 93.757994 
L 134.43 88.882434 
L 122.836761 93.450979 
M 277.61 140.733335 
L 263.600827 154.013971 
L 269.357556 161.40618 
M 283.680645 160.180893 
L 286.847321 154.013971 
L 277.61 140.733335 
M 134.43 188.047871 
L 138.402901 190.956403 
L 134.43 193.038108 
L 131.342397 190.956403 
L 134.43 188.047871 
z
M 110.566667 200.360517 
L 120.140521 206.347113 
L 110.566667 210.163637 
L 107.752608 206.347113 
L 110.566667 200.360517 
z
M 228.093793 222.101276 
L 226.281674 219.557363 
L 229.883333 216.96561 
L 240.073542 219.557363 
L 253.746667 223.81987 
L 262.105104 219.557363 
L 256.92146 206.347113 
L 277.61 201.59134 
L 301.473333 196.882662 
L 307.516484 206.347113 
L 301.473333 217.407737 
L 295.56415 219.557363 
L 277.61 226.23119 
L 267.196889 230.778089 
L 253.746667 233.211897 
L 252.214834 232.968703 
M 110.566667 227.078542 
L 130.142112 230.778089 
L 110.566667 235.103972 
L 107.242314 230.778089 
L 110.566667 227.078542 
z
" clip-path="url(#pb0f6a00f82)" style="fill: none; stroke-dasharray: 1.85,0.8; stroke-dashoffset: 0; stroke: #000000; stroke-width: 0.5"/>
    <path d="M 165.190357 26.88 
L 158.293333 33.845494 
L 146.998344 26.88 
M 281.471067 26.88 
L 301.473333 32.120403 
L 304.422828 36.380776 
L 301.473333 39.656122 
L 282.49539 43.363172 
M 256.24836 52.53793 
L 253.746667 53.486995 
L 239.677787 47.600163 
L 253.746667 43.47317 
L 267.331151 36.380776 
L 273.622454 26.88 
M 217.803086 74.128708 
L 214.077436 76.198006 
L 206.02 78.266868 
L 182.156667 78.156692 
L 158.293333 87.70366 
L 134.43 84.290626 
L 110.566667 93.684297 
L 104.878997 76.198006 
L 106.718488 60.808896 
L 108.478199 47.600163 
L 105.64207 36.380776 
L 110.566667 28.803737 
L 128.503656 36.380776 
L 116.625085 47.600163 
L 134.43 56.252845 
L 147.206894 60.808896 
L 158.293333 70.916629 
L 182.156667 62.116522 
L 185.95077 60.808896 
L 206.02 55.677731 
L 229.883333 55.108469 
L 233.941083 58.358736 
M 243.363785 171.109312 
L 250.559132 154.013971 
L 249.453413 133.590571 
L 229.883333 125.700802 
L 217.025338 113.137869 
L 229.883333 100.626663 
L 253.746667 102.821581 
L 277.61 104.475015 
L 300.161691 93.757994 
L 293.124761 76.198006 
L 277.61 61.165084 
L 277.438673 60.808896 
L 277.61 60.591639 
L 301.473333 58.961468 
L 302.730695 60.808896 
L 302.117399 76.198006 
L 301.633193 93.757994 
L 307.913545 113.137869 
L 302.611895 133.590571 
L 305.933158 154.013971 
L 301.473333 169.012304 
L 291.133993 154.013971 
L 277.61 134.570323 
L 257.099729 154.013971 
L 258.007791 165.053357 
M 163.124342 138.861765 
L 158.293333 140.841007 
L 134.43 143.168413 
L 110.566667 136.97974 
L 109.190274 133.590571 
L 108.406992 113.137869 
L 110.566667 94.011491 
L 134.43 101.8666 
L 158.293333 103.114475 
L 182.156667 109.541013 
L 188.461708 113.137869 
L 182.729093 122.042604 
M 110.566667 205.077251 
L 112.597449 206.347113 
L 110.566667 207.156664 
L 109.969756 206.347113 
L 110.566667 205.077251 
z
M 273.16945 220.809398 
L 270.260674 219.557363 
L 275.193785 206.347113 
L 277.61 205.791686 
L 301.473333 199.822352 
L 305.639461 206.347113 
L 301.473333 213.97227 
L 299.210361 214.795488 
M 110.566667 229.486105 
L 117.402952 230.778089 
L 110.566667 232.288807 
L 109.405711 230.778089 
L 110.566667 229.486105 
z
M 253.746667 227.978922 
L 259.157451 230.778089 
L 253.746667 231.757167 
L 247.579641 230.778089 
L 253.746667 227.978922 
z
" clip-path="url(#pb0f6a00f82)" style="fill: none; stroke-dasharray: 1.85,0.8; stroke-dashoffset: 0; stroke: #000000; stroke-width: 0.5"/>
    <path d="M 121.335882 84.450942 
L 110.566667 88.359311 
L 106.611026 76.198006 
L 108.62581 60.808896 
L 110.55321 47.600163 
L 107.446815 36.380776 
L 110.566667 31.580538 
L 121.930185 36.380776 
L 110.605704 47.600163 
L 134.43 59.178093 
L 139.003389 60.808896 
L 151.654262 76.198006 
L 148.152144 76.909807 
M 287.525697 38.957579 
L 277.61 40.034338 
L 272.878248 36.380776 
L 277.61 30.983741 
L 290.841935 33.21022 
M 253.746667 46.369282 
L 258.37476 47.600163 
L 253.746667 49.355917 
L 249.550607 47.600163 
L 253.746667 46.369282 
z
M 144.253348 136.705709 
L 134.43 136.809531 
L 120.44695 133.590571 
L 110.566667 115.38803 
L 110.475217 113.137869 
L 110.566667 112.327978 
L 134.43 105.799389 
L 152.472878 113.137869 
L 158.293333 122.648303 
L 162.298409 128.700294 
M 239.716752 118.939804 
L 229.883333 118.575268 
L 224.318228 113.137869 
L 229.883333 107.722859 
L 253.746667 110.527651 
L 276.507151 113.137869 
L 267.209167 115.720513 
M 290.452145 122.541657 
L 277.745274 113.137869 
L 301.473333 98.486903 
L 306.253229 113.137869 
L 304.945397 117.942498 
M 296.426483 151.473364 
L 301.473333 138.725466 
L 303.401309 150.015488 
M 301.473333 202.762042 
L 303.762439 206.347113 
L 301.473333 210.536803 
L 287.530821 206.347113 
L 301.473333 202.762042 
z
" clip-path="url(#pb0f6a00f82)" style="fill: none; stroke-dasharray: 1.85,0.8; stroke-dashoffset: 0; stroke: #000000; stroke-width: 0.5"/>
    <path d="M 110.566667 34.357339 
L 115.356713 36.380776 
L 110.566667 41.127875 
L 109.251561 36.380776 
L 110.566667 34.357339 
z
M 110.566667 60.579201 
L 111.478617 60.808896 
L 130.703313 76.198006 
L 110.566667 83.034325 
L 108.343055 76.198006 
L 110.533131 60.808896 
L 110.566667 60.579201 
z
M 134.43 109.732178 
L 142.803459 113.137869 
L 134.43 126.16334 
L 123.086548 113.137869 
L 134.43 109.732178 
z
M 301.473333 103.575977 
L 304.592912 113.137869 
L 301.473333 124.59838 
L 285.987314 113.137869 
L 301.473333 103.575977 
z
M 301.473333 149.55322 
L 302.235087 154.013971 
L 301.473333 156.575741 
L 299.707337 154.013971 
L 301.473333 149.55322 
z
M 301.473333 205.701732 
L 301.885416 206.347113 
L 301.473333 207.101337 
L 298.963416 206.347113 
L 301.473333 205.701732 
z
" clip-path="url(#pb0f6a00f82)" style="fill: none; stroke-dasharray: 1.85,0.8; stroke-dashoffset: 0; stroke: #000000; stroke-width: 0.5"/>
    <path d="M 110.566667 72.748633 
L 115.018355 76.198006 
L 110.566667 77.709338 
L 110.075084 76.198006 
L 110.566667 72.748633 
z
M 301.473333 108.665051 
L 302.932596 113.137869 
L 301.473333 118.498815 
L 294.229354 113.137869 
L 301.473333 108.665051 
z
" clip-path="url(#pb0f6a00f82)" style="fill: none; stroke-dasharray: 1.85,0.8; stroke-dashoffset: 0; stroke: #000000; stroke-width: 0.5"/>
    <path clip-path="url(#pb0f6a00f82)" style="fill: none; stroke-dasharray: 1.85,0.8; stroke-dashoffset: 0; stroke: #000000; stroke-width: 0.5"/>
   </g>
   <g id="patch_3">
    <path d="M 62.84 240.28 
L 62.84 26.88 
" style="fill: none; stroke: #000000; stroke-width: 0.8; stroke-linejoin: miter; stroke-linecap: square"/>
   </g>
   <g id="patch_4">
    <path d="M 349.2 240.28 
L 349.2 26.88 
" style="fill: none; stroke: #000000; stroke-width: 0.8; stroke-linejoin: miter; stroke-linecap: square"/>
   </g>
   <g id="patch_5">
    <path d="M 62.84 240.28 
L 349.2 240.28 
" style="fill: none; stroke: #000000; stroke-width: 0.8; stroke-linejoin: miter; stroke-linecap: square"/>
   </g>
   <g id="patch_6">
    <path d="M 62.84 26.88 
L 349.2 26.88 
" style="fill: none; stroke: #000000; stroke-width: 0.8; stroke-linejoin: miter; stroke-linecap: square"/>
   </g>
   <g id="text_11">
    <!-- Band 40 -->
    <g transform="translate(181.073125 20.88) scale(0.12 -0.12)">
     <defs>
      <path id="DejaVuSans-42" d="M 1259 2228 
L 1259 519 
L 2272 519 
Q 2781 519 3026 730 
Q 3272 941 3272 1375 
Q 3272 1813 3026 2020 
Q 2781 2228 2272 2228 
L 1259 2228 
z
M 1259 4147 
L 1259 2741 
L 2194 2741 
Q 2656 2741 2882 2914 
Q 3109 3088 3109 3444 
Q 3109 3797 2882 3972 
Q 2656 4147 2194 4147 
L 1259 4147 
z
M 628 4666 
L 2241 4666 
Q 2963 4666 3353 4366 
Q 3744 4066 3744 3513 
Q 3744 3084 3544 2831 
Q 3344 2578 2956 2516 
Q 3422 2416 3680 2098 
Q 3938 1781 3938 1306 
Q 3938 681 3513 340 
Q 3088 0 2303 0 
L 628 0 
L 628 4666 
z
" transform="scale(0.015625)"/>
      <path id="DejaVuSans-61" d="M 2194 1759 
Q 1497 1759 1228 1600 
Q 959 1441 959 1056 
Q 959 750 1161 570 
Q 1363 391 1709 391 
Q 2188 391 2477 730 
Q 2766 1069 2766 1631 
L 2766 1759 
L 2194 1759 
z
M 3341 1997 
L 3341 0 
L 2766 0 
L 2766 531 
Q 2569 213 2275 61 
Q 1981 -91 1556 -91 
Q 1019 -91 701 211 
Q 384 513 384 1019 
Q 384 1609 779 1909 
Q 1175 2209 1959 2209 
L 2766 2209 
L 2766 2266 
Q 2766 2663 2505 2880 
Q 2244 3097 1772 3097 
Q 1472 3097 1187 3025 
Q 903 2953 641 2809 
L 641 3341 
Q 956 3463 1253 3523 
Q 1550 3584 1831 3584 
Q 2591 3584 2966 3190 
Q 3341 2797 3341 1997 
z
" transform="scale(0.015625)"/>
      <path id="DejaVuSans-6e" d="M 3513 2113 
L 3513 0 
L 2938 0 
L 2938 2094 
Q 2938 2591 2744 2837 
Q 2550 3084 2163 3084 
Q 1697 3084 1428 2787 
Q 1159 2491 1159 1978 
L 1159 0 
L 581 0 
L 581 3500 
L 1159 3500 
L 1159 2956 
Q 1366 3272 1645 3428 
Q 1925 3584 2291 3584 
Q 2894 3584 3203 3211 
Q 3513 2838 3513 2113 
z
" transform="scale(0.015625)"/>
      <path id="DejaVuSans-64" d="M 2906 2969 
L 2906 4863 
L 3481 4863 
L 3481 0 
L 2906 0 
L 2906 525 
Q 2725 213 2448 61 
Q 2172 -91 1784 -91 
Q 1150 -91 751 415 
Q 353 922 353 1747 
Q 353 2572 751 3078 
Q 1150 3584 1784 3584 
Q 2172 3584 2448 3432 
Q 2725 3281 2906 2969 
z
M 947 1747 
Q 947 1113 1208 752 
Q 1469 391 1925 391 
Q 2381 391 2643 752 
Q 2906 1113 2906 1747 
Q 2906 2381 2643 2742 
Q 2381 3103 1925 3103 
Q 1469 3103 1208 2742 
Q 947 2381 947 1747 
z
" transform="scale(0.015625)"/>
      <path id="DejaVuSans-20" transform="scale(0.015625)"/>
     </defs>
     <use xlink:href="#DejaVuSans-42"/>
     <use xlink:href="#DejaVuSans-61" transform="translate(68.603516 0)"/>
     <use xlink:href="#DejaVuSans-6e" transform="translate(129.882812 0)"/>
     <use xlink:href="#DejaVuSans-64" transform="translate(193.261719 0)"/>
     <use xlink:href="#DejaVuSans-20" transform="translate(256.738281 0)"/>
     <use xlink:href="#DejaVuSans-34" transform="translate(288.525391 0)"/>
     <use xlink:href="#DejaVuSans-30" transform="translate(352.148438 0)"/>
    </g>
   </g>
   <g id="text_12">
    <g clip-path="url(#pb0f6a00f82)">
     <!-- 40.5 -->
     <g transform="translate(326.729289 143.615371) rotate(-89.877911) scale(0.09 -0.09)">
      <defs>
       <path id="DejaVuSans-2e" d="M 684 794 
L 1344 794 
L 1344 0 
L 684 0 
L 684 794 
z
" transform="scale(0.015625)"/>
      </defs>
      <use xlink:href="#DejaVuSans-34"/>
      <use xlink:href="#DejaVuSans-30" transform="translate(63.623047 0)"/>
      <use xlink:href="#DejaVuSans-2e" transform="translate(127.246094 0)"/>
      <use xlink:href="#DejaVuSans-35" transform="translate(159.033203 0)"/>
     </g>
    </g>
   </g>
   <g id="text_13">
    <g clip-path="url(#pb0f6a00f82)">
     <!-- 40.5 -->
     <g transform="translate(85.140307 123.606218) rotate(-270.789685) scale(0.09 -0.09)">
      <use xlink:href="#DejaVuSans-34"/>
      <use xlink:href="#DejaVuSans-30" transform="translate(63.623047 0)"/>
      <use xlink:href="#DejaVuSans-2e" transform="translate(127.246094 0)"/>
      <use xlink:href="#DejaVuSans-35" transform="translate(159.033203 0)"/>
     </g>
    </g>
   </g>
   <g id="text_14">
    <g clip-path="url(#pb0f6a00f82)">
     <!-- 42.0 -->
     <g transform="translate(324.520527 143.62589) rotate(-89.630961) scale(0.09 -0.09)">
      <use xlink:href="#DejaVuSans-34"/>
      <use xlink:href="#DejaVuSans-32" transform="translate(63.623047 0)"/>
      <use xlink:href="#DejaVuSans-2e" transform="translate(127.246094 0)"/>
      <use xlink:href="#DejaVuSans-30" transform="translate(159.033203 0)"/>
     </g>
    </g>
   </g>
   <g id="text_15">
    <g clip-path="url(#pb0f6a00f82)">
     <!-- 42.0 -->
     <g transform="translate(87.00629 123.683047) rotate(-272.384641) scale(0.09 -0.09)">
      <use xlink:href="#DejaVuSans-34"/>
      <use xlink:href="#DejaVuSans-32" transform="translate(63.623047 0)"/>
      <use xlink:href="#DejaVuSans-2e" transform="translate(127.246094 0)"/>
      <use xlink:href="#DejaVuSans-30" transform="translate(159.033203 0)"/>
     </g>
    </g>
   </g>
   <g id="text_16">
    <g clip-path="url(#pb0f6a00f82)">
     <!-- 43.5 -->
     <g transform="translate(322.31186 143.636189) rotate(-89.384808) scale(0.09 -0.09)">
      <defs>
       <path id="DejaVuSans-33" d="M 2597 2516 
Q 3050 2419 3304 2112 
Q 3559 1806 3559 1356 
Q 3559 666 3084 287 
Q 2609 -91 1734 -91 
Q 1441 -91 1130 -33 
Q 819 25 488 141 
L 488 750 
Q 750 597 1062 519 
Q 1375 441 1716 441 
Q 2309 441 2620 675 
Q 2931 909 2931 1356 
Q 2931 1769 2642 2001 
Q 2353 2234 1838 2234 
L 1294 2234 
L 1294 2753 
L 1863 2753 
Q 2328 2753 2575 2939 
Q 2822 3125 2822 3475 
Q 2822 3834 2567 4026 
Q 2313 4219 1838 4219 
Q 1578 4219 1281 4162 
Q 984 4106 628 3988 
L 628 4550 
Q 988 4650 1302 4700 
Q 1616 4750 1894 4750 
Q 2613 4750 3031 4423 
Q 3450 4097 3450 3541 
Q 3450 3153 3228 2886 
Q 3006 2619 2597 2516 
z
" transform="scale(0.015625)"/>
      </defs>
      <use xlink:href="#DejaVuSans-34"/>
      <use xlink:href="#DejaVuSans-33" transform="translate(63.623047 0)"/>
      <use xlink:href="#DejaVuSans-2e" transform="translate(127.246094 0)"/>
      <use xlink:href="#DejaVuSans-35" transform="translate(159.033203 0)"/>
     </g>
    </g>
   </g>
   <g id="text_17">
    <g clip-path="url(#pb0f6a00f82)">
     <!-- 43.5 -->
     <g transform="translate(88.876599 123.76688) rotate(-273.967456) scale(0.09 -0.09)">
      <use xlink:href="#DejaVuSans-34"/>
      <use xlink:href="#DejaVuSans-33" transform="translate(63.623047 0)"/>
      <use xlink:href="#DejaVuSans-2e" transform="translate(127.246094 0)"/>
      <use xlink:href="#DejaVuSans-35" transform="translate(159.033203 0)"/>
     </g>
    </g>
   </g>
   <g id="text_18">
    <g clip-path="url(#pb0f6a00f82)">
     <!-- 45.0 -->
     <g transform="translate(320.103382 143.646249) rotate(-89.139981) scale(0.09 -0.09)">
      <use xlink:href="#DejaVuSans-34"/>
      <use xlink:href="#DejaVuSans-35" transform="translate(63.623047 0)"/>
      <use xlink:href="#DejaVuSans-2e" transform="translate(127.246094 0)"/>
      <use xlink:href="#DejaVuSans-30" transform="translate(159.033203 0)"/>
     </g>
    </g>
   </g>
   <g id="text_19">
    <g clip-path="url(#pb0f6a00f82)">
     <!-- 45.0 -->
     <g transform="translate(90.752697 123.857019) rotate(-275.530436) scale(0.09 -0.09)">
      <use xlink:href="#DejaVuSans-34"/>
      <use xlink:href="#DejaVuSans-35" transform="translate(63.623047 0)"/>
      <use xlink:href="#DejaVuSans-2e" transform="translate(127.246094 0)"/>
      <use xlink:href="#DejaVuSans-30" transform="translate(159.033203 0)"/>
     </g>
    </g>
   </g>
   <g id="text_20">
    <g clip-path="url(#pb0f6a00f82)">
     <!-- 46.5 -->
     <g transform="translate(317.895185 143.656051) rotate(-88.896996) scale(0.09 -0.09)">
      <defs>
       <path id="DejaVuSans-36" d="M 2113 2584 
Q 1688 2584 1439 2293 
Q 1191 2003 1191 1497 
Q 1191 994 1439 701 
Q 1688 409 2113 409 
Q 2538 409 2786 701 
Q 3034 994 3034 1497 
Q 3034 2003 2786 2293 
Q 2538 2584 2113 2584 
z
M 3366 4563 
L 3366 3988 
Q 3128 4100 2886 4159 
Q 2644 4219 2406 4219 
Q 1781 4219 1451 3797 
Q 1122 3375 1075 2522 
Q 1259 2794 1537 2939 
Q 1816 3084 2150 3084 
Q 2853 3084 3261 2657 
Q 3669 2231 3669 1497 
Q 3669 778 3244 343 
Q 2819 -91 2113 -91 
Q 1303 -91 875 529 
Q 447 1150 447 2328 
Q 447 3434 972 4092 
Q 1497 4750 2381 4750 
Q 2619 4750 2861 4703 
Q 3103 4656 3366 4563 
z
" transform="scale(0.015625)"/>
      </defs>
      <use xlink:href="#DejaVuSans-34"/>
      <use xlink:href="#DejaVuSans-36" transform="translate(63.623047 0)"/>
      <use xlink:href="#DejaVuSans-2e" transform="translate(127.246094 0)"/>
      <use xlink:href="#DejaVuSans-35" transform="translate(159.033203 0)"/>
     </g>
    </g>
   </g>
   <g id="text_21">
    <g clip-path="url(#pb0f6a00f82)">
     <!-- 46.5 -->
     <g transform="translate(95.652309 145.482149) rotate(-290.337413) scale(0.09 -0.09)">
      <use xlink:href="#DejaVuSans-34"/>
      <use xlink:href="#DejaVuSans-36" transform="translate(63.623047 0)"/>
      <use xlink:href="#DejaVuSans-2e" transform="translate(127.246094 0)"/>
      <use xlink:href="#DejaVuSans-35" transform="translate(159.033203 0)"/>
     </g>
    </g>
   </g>
   <g id="text_22">
    <g clip-path="url(#pb0f6a00f82)">
     <!-- 48.0 -->
     <g transform="translate(315.687359 143.665581) rotate(-88.656357) scale(0.09 -0.09)">
      <defs>
       <path id="DejaVuSans-38" d="M 2034 2216 
Q 1584 2216 1326 1975 
Q 1069 1734 1069 1313 
Q 1069 891 1326 650 
Q 1584 409 2034 409 
Q 2484 409 2743 651 
Q 3003 894 3003 1313 
Q 3003 1734 2745 1975 
Q 2488 2216 2034 2216 
z
M 1403 2484 
Q 997 2584 770 2862 
Q 544 3141 544 3541 
Q 544 4100 942 4425 
Q 1341 4750 2034 4750 
Q 2731 4750 3128 4425 
Q 3525 4100 3525 3541 
Q 3525 3141 3298 2862 
Q 3072 2584 2669 2484 
Q 3125 2378 3379 2068 
Q 3634 1759 3634 1313 
Q 3634 634 3220 271 
Q 2806 -91 2034 -91 
Q 1263 -91 848 271 
Q 434 634 434 1313 
Q 434 1759 690 2068 
Q 947 2378 1403 2484 
z
M 1172 3481 
Q 1172 3119 1398 2916 
Q 1625 2713 2034 2713 
Q 2441 2713 2670 2916 
Q 2900 3119 2900 3481 
Q 2900 3844 2670 4047 
Q 2441 4250 2034 4250 
Q 1625 4250 1398 4047 
Q 1172 3844 1172 3481 
z
" transform="scale(0.015625)"/>
      </defs>
      <use xlink:href="#DejaVuSans-34"/>
      <use xlink:href="#DejaVuSans-38" transform="translate(63.623047 0)"/>
      <use xlink:href="#DejaVuSans-2e" transform="translate(127.246094 0)"/>
      <use xlink:href="#DejaVuSans-30" transform="translate(159.033203 0)"/>
     </g>
    </g>
   </g>
   <g id="text_23">
    <g clip-path="url(#pb0f6a00f82)">
     <!-- 48.0 -->
     <g transform="translate(98.729335 145.627181) rotate(-291.742284) scale(0.09 -0.09)">
      <use xlink:href="#DejaVuSans-34"/>
      <use xlink:href="#DejaVuSans-38" transform="translate(63.623047 0)"/>
      <use xlink:href="#DejaVuSans-2e" transform="translate(127.246094 0)"/>
      <use xlink:href="#DejaVuSans-30" transform="translate(159.033203 0)"/>
     </g>
    </g>
   </g>
   <g id="text_24">
    <g clip-path="url(#pb0f6a00f82)">
     <!-- 49.5 -->
     <g transform="translate(315.365543 164.133862) rotate(-87.455925) scale(0.09 -0.09)">
      <defs>
       <path id="DejaVuSans-39" d="M 703 97 
L 703 672 
Q 941 559 1184 500 
Q 1428 441 1663 441 
Q 2288 441 2617 861 
Q 2947 1281 2994 2138 
Q 2813 1869 2534 1725 
Q 2256 1581 1919 1581 
Q 1219 1581 811 2004 
Q 403 2428 403 3163 
Q 403 3881 828 4315 
Q 1253 4750 1959 4750 
Q 2769 4750 3195 4129 
Q 3622 3509 3622 2328 
Q 3622 1225 3098 567 
Q 2575 -91 1691 -91 
Q 1453 -91 1209 -44 
Q 966 3 703 97 
z
M 1959 2075 
Q 2384 2075 2632 2365 
Q 2881 2656 2881 3163 
Q 2881 3666 2632 3958 
Q 2384 4250 1959 4250 
Q 1534 4250 1286 3958 
Q 1038 3666 1038 3163 
Q 1038 2656 1286 2365 
Q 1534 2075 1959 2075 
z
" transform="scale(0.015625)"/>
      </defs>
      <use xlink:href="#DejaVuSans-34"/>
      <use xlink:href="#DejaVuSans-39" transform="translate(63.623047 0)"/>
      <use xlink:href="#DejaVuSans-2e" transform="translate(127.246094 0)"/>
      <use xlink:href="#DejaVuSans-35" transform="translate(159.033203 0)"/>
     </g>
    </g>
   </g>
   <g id="text_25">
    <g clip-path="url(#pb0f6a00f82)">
     <!-- 49.5 -->
     <g transform="translate(102.980916 151.592838) rotate(-303.374621) scale(0.09 -0.09)">
      <use xlink:href="#DejaVuSans-34"/>
      <use xlink:href="#DejaVuSans-39" transform="translate(63.623047 0)"/>
      <use xlink:href="#DejaVuSans-2e" transform="translate(127.246094 0)"/>
      <use xlink:href="#DejaVuSans-35" transform="translate(159.033203 0)"/>
     </g>
    </g>
   </g>
   <g id="text_26">
    <g clip-path="url(#pb0f6a00f82)">
     <!-- 49.5 -->
     <g transform="translate(176.018781 188.997712) rotate(-39.59512) scale(0.09 -0.09)">
      <use xlink:href="#DejaVuSans-34"/>
      <use xlink:href="#DejaVuSans-39" transform="translate(63.623047 0)"/>
      <use xlink:href="#DejaVuSans-2e" transform="translate(127.246094 0)"/>
      <use xlink:href="#DejaVuSans-35" transform="translate(159.033203 0)"/>
     </g>
    </g>
   </g>
   <g id="text_27">
    <g clip-path="url(#pb0f6a00f82)">
     <!-- 49.5 -->
     <g transform="translate(197.52899 230.385564) rotate(-20.737768) scale(0.09 -0.09)">
      <use xlink:href="#DejaVuSans-34"/>
      <use xlink:href="#DejaVuSans-39" transform="translate(63.623047 0)"/>
      <use xlink:href="#DejaVuSans-2e" transform="translate(127.246094 0)"/>
      <use xlink:href="#DejaVuSans-35" transform="translate(159.033203 0)"/>
     </g>
    </g>
   </g>
   <g id="text_28">
    <g clip-path="url(#pb0f6a00f82)">
     <!-- 51.0 -->
     <g transform="translate(306.983203 183.717294) rotate(-75.605915) scale(0.09 -0.09)">
      <defs>
       <path id="DejaVuSans-31" d="M 794 531 
L 1825 531 
L 1825 4091 
L 703 3866 
L 703 4441 
L 1819 4666 
L 2450 4666 
L 2450 531 
L 3481 531 
L 3481 0 
L 794 0 
L 794 531 
z
" transform="scale(0.015625)"/>
      </defs>
      <use xlink:href="#DejaVuSans-35"/>
      <use xlink:href="#DejaVuSans-31" transform="translate(63.623047 0)"/>
      <use xlink:href="#DejaVuSans-2e" transform="translate(127.246094 0)"/>
      <use xlink:href="#DejaVuSans-30" transform="translate(159.033203 0)"/>
     </g>
    </g>
   </g>
   <g id="text_29">
    <g clip-path="url(#pb0f6a00f82)">
     <!-- 51.0 -->
     <g transform="translate(105.877132 147.832909) rotate(-309.296478) scale(0.09 -0.09)">
      <use xlink:href="#DejaVuSans-35"/>
      <use xlink:href="#DejaVuSans-31" transform="translate(63.623047 0)"/>
      <use xlink:href="#DejaVuSans-2e" transform="translate(127.246094 0)"/>
      <use xlink:href="#DejaVuSans-30" transform="translate(159.033203 0)"/>
     </g>
    </g>
   </g>
   <g id="text_30">
    <g clip-path="url(#pb0f6a00f82)">
     <!-- 51.0 -->
     <g transform="translate(149.565913 159.204831) rotate(-18.358217) scale(0.09 -0.09)">
      <use xlink:href="#DejaVuSans-35"/>
      <use xlink:href="#DejaVuSans-31" transform="translate(63.623047 0)"/>
      <use xlink:href="#DejaVuSans-2e" transform="translate(127.246094 0)"/>
      <use xlink:href="#DejaVuSans-30" transform="translate(159.033203 0)"/>
     </g>
    </g>
   </g>
   <g id="text_31">
    <g clip-path="url(#pb0f6a00f82)">
     <!-- 51.0 -->
     <g transform="translate(243.689957 238.449676) rotate(-359.114615) scale(0.09 -0.09)">
      <use xlink:href="#DejaVuSans-35"/>
      <use xlink:href="#DejaVuSans-31" transform="translate(63.623047 0)"/>
      <use xlink:href="#DejaVuSans-2e" transform="translate(127.246094 0)"/>
      <use xlink:href="#DejaVuSans-30" transform="translate(159.033203 0)"/>
     </g>
    </g>
   </g>
   <g id="text_32">
    <g clip-path="url(#pb0f6a00f82)">
     <!-- 52.5 -->
     <g transform="translate(248.20632 46.390883) rotate(-43.619005) scale(0.09 -0.09)">
      <use xlink:href="#DejaVuSans-35"/>
      <use xlink:href="#DejaVuSans-32" transform="translate(63.623047 0)"/>
      <use xlink:href="#DejaVuSans-2e" transform="translate(127.246094 0)"/>
      <use xlink:href="#DejaVuSans-35" transform="translate(159.033203 0)"/>
     </g>
    </g>
   </g>
   <g id="text_33">
    <g clip-path="url(#pb0f6a00f82)">
     <!-- 52.5 -->
     <g transform="translate(267.750008 184.043382) rotate(-3.299415) scale(0.09 -0.09)">
      <use xlink:href="#DejaVuSans-35"/>
      <use xlink:href="#DejaVuSans-32" transform="translate(63.623047 0)"/>
      <use xlink:href="#DejaVuSans-2e" transform="translate(127.246094 0)"/>
      <use xlink:href="#DejaVuSans-35" transform="translate(159.033203 0)"/>
     </g>
    </g>
   </g>
   <g id="text_34">
    <g clip-path="url(#pb0f6a00f82)">
     <!-- 52.5 -->
     <g transform="translate(267.930974 200.979159) rotate(-6.419757) scale(0.09 -0.09)">
      <use xlink:href="#DejaVuSans-35"/>
      <use xlink:href="#DejaVuSans-32" transform="translate(63.623047 0)"/>
      <use xlink:href="#DejaVuSans-2e" transform="translate(127.246094 0)"/>
      <use xlink:href="#DejaVuSans-35" transform="translate(159.033203 0)"/>
     </g>
    </g>
   </g>
   <g id="text_35">
    <g clip-path="url(#pb0f6a00f82)">
     <!-- 52.5 -->
     <g transform="translate(243.689957 236.994945) rotate(-359.114615) scale(0.09 -0.09)">
      <use xlink:href="#DejaVuSans-35"/>
      <use xlink:href="#DejaVuSans-32" transform="translate(63.623047 0)"/>
      <use xlink:href="#DejaVuSans-2e" transform="translate(127.246094 0)"/>
      <use xlink:href="#DejaVuSans-35" transform="translate(159.033203 0)"/>
     </g>
    </g>
   </g>
   <g id="text_36">
    <g clip-path="url(#pb0f6a00f82)">
     <!-- 52.5 -->
     <g transform="translate(196.485655 112.974107) rotate(-8.616938) scale(0.09 -0.09)">
      <use xlink:href="#DejaVuSans-35"/>
      <use xlink:href="#DejaVuSans-32" transform="translate(63.623047 0)"/>
      <use xlink:href="#DejaVuSans-2e" transform="translate(127.246094 0)"/>
      <use xlink:href="#DejaVuSans-35" transform="translate(159.033203 0)"/>
     </g>
    </g>
   </g>
   <g id="text_37">
    <g clip-path="url(#pb0f6a00f82)">
     <!-- 52.5 -->
     <g transform="translate(100.272653 212.401355) rotate(-341.805551) scale(0.09 -0.09)">
      <use xlink:href="#DejaVuSans-35"/>
      <use xlink:href="#DejaVuSans-32" transform="translate(63.623047 0)"/>
      <use xlink:href="#DejaVuSans-2e" transform="translate(127.246094 0)"/>
      <use xlink:href="#DejaVuSans-35" transform="translate(159.033203 0)"/>
     </g>
    </g>
   </g>
   <g id="text_38">
    <g clip-path="url(#pb0f6a00f82)">
     <!-- 52.5 -->
     <g transform="translate(100.385894 236.213168) rotate(-336.566684) scale(0.09 -0.09)">
      <use xlink:href="#DejaVuSans-35"/>
      <use xlink:href="#DejaVuSans-32" transform="translate(63.623047 0)"/>
      <use xlink:href="#DejaVuSans-2e" transform="translate(127.246094 0)"/>
      <use xlink:href="#DejaVuSans-35" transform="translate(159.033203 0)"/>
     </g>
    </g>
   </g>
   <g id="text_39">
    <g clip-path="url(#pb0f6a00f82)">
     <!-- 54.0 -->
     <g transform="translate(148.134838 65.271296) rotate(-356.312925) scale(0.09 -0.09)">
      <use xlink:href="#DejaVuSans-35"/>
      <use xlink:href="#DejaVuSans-34" transform="translate(63.623047 0)"/>
      <use xlink:href="#DejaVuSans-2e" transform="translate(127.246094 0)"/>
      <use xlink:href="#DejaVuSans-30" transform="translate(159.033203 0)"/>
     </g>
    </g>
   </g>
   <g id="text_40">
    <g clip-path="url(#pb0f6a00f82)">
     <!-- 54.0 -->
     <g transform="translate(294.793559 183.508194) rotate(-35.756326) scale(0.09 -0.09)">
      <use xlink:href="#DejaVuSans-35"/>
      <use xlink:href="#DejaVuSans-34" transform="translate(63.623047 0)"/>
      <use xlink:href="#DejaVuSans-2e" transform="translate(127.246094 0)"/>
      <use xlink:href="#DejaVuSans-30" transform="translate(159.033203 0)"/>
     </g>
    </g>
   </g>
   <g id="text_41">
    <g clip-path="url(#pb0f6a00f82)">
     <!-- 54.0 -->
     <g transform="translate(219.560664 237.376284) rotate(-345.906592) scale(0.09 -0.09)">
      <use xlink:href="#DejaVuSans-35"/>
      <use xlink:href="#DejaVuSans-34" transform="translate(63.623047 0)"/>
      <use xlink:href="#DejaVuSans-2e" transform="translate(127.246094 0)"/>
      <use xlink:href="#DejaVuSans-30" transform="translate(159.033203 0)"/>
     </g>
    </g>
   </g>
   <g id="text_42">
    <g clip-path="url(#pb0f6a00f82)">
     <!-- 54.0 -->
     <g transform="translate(124.34405 100.132009) rotate(-358.37438) scale(0.09 -0.09)">
      <use xlink:href="#DejaVuSans-35"/>
      <use xlink:href="#DejaVuSans-34" transform="translate(63.623047 0)"/>
      <use xlink:href="#DejaVuSans-2e" transform="translate(127.246094 0)"/>
      <use xlink:href="#DejaVuSans-30" transform="translate(159.033203 0)"/>
     </g>
    </g>
   </g>
   <g id="text_43">
    <g clip-path="url(#pb0f6a00f82)">
     <!-- 54.0 -->
     <g transform="translate(267.857576 175.386723) rotate(-5.213382) scale(0.09 -0.09)">
      <use xlink:href="#DejaVuSans-35"/>
      <use xlink:href="#DejaVuSans-34" transform="translate(63.623047 0)"/>
      <use xlink:href="#DejaVuSans-2e" transform="translate(127.246094 0)"/>
      <use xlink:href="#DejaVuSans-30" transform="translate(159.033203 0)"/>
     </g>
    </g>
   </g>
   <g id="text_44">
    <g clip-path="url(#pb0f6a00f82)">
     <!-- 54.0 -->
     <g transform="translate(228.241194 229.040195) rotate(-336.386973) scale(0.09 -0.09)">
      <use xlink:href="#DejaVuSans-35"/>
      <use xlink:href="#DejaVuSans-34" transform="translate(63.623047 0)"/>
      <use xlink:href="#DejaVuSans-2e" transform="translate(127.246094 0)"/>
      <use xlink:href="#DejaVuSans-30" transform="translate(159.033203 0)"/>
     </g>
    </g>
   </g>
   <g id="text_45">
    <g clip-path="url(#pb0f6a00f82)">
     <!-- 55.5 -->
     <g transform="translate(260.873873 53.613692) rotate(-21.709544) scale(0.09 -0.09)">
      <use xlink:href="#DejaVuSans-35"/>
      <use xlink:href="#DejaVuSans-35" transform="translate(63.623047 0)"/>
      <use xlink:href="#DejaVuSans-2e" transform="translate(127.246094 0)"/>
      <use xlink:href="#DejaVuSans-35" transform="translate(159.033203 0)"/>
     </g>
    </g>
   </g>
   <g id="text_46">
    <g clip-path="url(#pb0f6a00f82)">
     <!-- 55.5 -->
     <g transform="translate(223.586045 75.598508) rotate(-38.486712) scale(0.09 -0.09)">
      <use xlink:href="#DejaVuSans-35"/>
      <use xlink:href="#DejaVuSans-35" transform="translate(63.623047 0)"/>
      <use xlink:href="#DejaVuSans-2e" transform="translate(127.246094 0)"/>
      <use xlink:href="#DejaVuSans-35" transform="translate(159.033203 0)"/>
     </g>
    </g>
   </g>
   <g id="text_47">
    <g clip-path="url(#pb0f6a00f82)">
     <!-- 55.5 -->
     <g transform="translate(245.160541 180.352241) rotate(-19.798246) scale(0.09 -0.09)">
      <use xlink:href="#DejaVuSans-35"/>
      <use xlink:href="#DejaVuSans-35" transform="translate(63.623047 0)"/>
      <use xlink:href="#DejaVuSans-2e" transform="translate(127.246094 0)"/>
      <use xlink:href="#DejaVuSans-35" transform="translate(159.033203 0)"/>
     </g>
    </g>
   </g>
   <g id="text_48">
    <g clip-path="url(#pb0f6a00f82)">
     <!-- 55.5 -->
     <g transform="translate(170.290778 142.197081) rotate(-42.564592) scale(0.09 -0.09)">
      <use xlink:href="#DejaVuSans-35"/>
      <use xlink:href="#DejaVuSans-35" transform="translate(63.623047 0)"/>
      <use xlink:href="#DejaVuSans-2e" transform="translate(127.246094 0)"/>
      <use xlink:href="#DejaVuSans-35" transform="translate(159.033203 0)"/>
     </g>
    </g>
   </g>
   <g id="text_49">
    <g clip-path="url(#pb0f6a00f82)">
     <!-- 55.5 -->
     <g transform="translate(277.4539 225.165611) rotate(-18.987249) scale(0.09 -0.09)">
      <use xlink:href="#DejaVuSans-35"/>
      <use xlink:href="#DejaVuSans-35" transform="translate(63.623047 0)"/>
      <use xlink:href="#DejaVuSans-2e" transform="translate(127.246094 0)"/>
      <use xlink:href="#DejaVuSans-35" transform="translate(159.033203 0)"/>
     </g>
    </g>
   </g>
   <g id="text_50">
    <g clip-path="url(#pb0f6a00f82)">
     <!-- 57.0 -->
     <g transform="translate(125.546354 84.956127) rotate(-16.696126) scale(0.09 -0.09)">
      <defs>
       <path id="DejaVuSans-37" d="M 525 4666 
L 3525 4666 
L 3525 4397 
L 1831 0 
L 1172 0 
L 2766 4134 
L 525 4134 
L 525 4666 
z
" transform="scale(0.015625)"/>
      </defs>
      <use xlink:href="#DejaVuSans-35"/>
      <use xlink:href="#DejaVuSans-37" transform="translate(63.623047 0)"/>
      <use xlink:href="#DejaVuSans-2e" transform="translate(127.246094 0)"/>
      <use xlink:href="#DejaVuSans-30" transform="translate(159.033203 0)"/>
     </g>
    </g>
   </g>
   <g id="text_51">
    <g clip-path="url(#pb0f6a00f82)">
     <!-- 57.0 -->
     <g transform="translate(298.096776 47.197847) rotate(-56.986403) scale(0.09 -0.09)">
      <use xlink:href="#DejaVuSans-35"/>
      <use xlink:href="#DejaVuSans-37" transform="translate(63.623047 0)"/>
      <use xlink:href="#DejaVuSans-2e" transform="translate(127.246094 0)"/>
      <use xlink:href="#DejaVuSans-30" transform="translate(159.033203 0)"/>
     </g>
    </g>
   </g>
   <g id="text_52">
    <g clip-path="url(#pb0f6a00f82)">
     <!-- 57.0 -->
     <g transform="translate(149.550261 142.045232) rotate(-18.195181) scale(0.09 -0.09)">
      <use xlink:href="#DejaVuSans-35"/>
      <use xlink:href="#DejaVuSans-37" transform="translate(63.623047 0)"/>
      <use xlink:href="#DejaVuSans-2e" transform="translate(127.246094 0)"/>
      <use xlink:href="#DejaVuSans-30" transform="translate(159.033203 0)"/>
     </g>
    </g>
   </g>
   <g id="text_53">
    <g clip-path="url(#pb0f6a00f82)">
     <!-- 57.0 -->
     <g transform="translate(244.112156 123.165942) rotate(-7.119081) scale(0.09 -0.09)">
      <use xlink:href="#DejaVuSans-35"/>
      <use xlink:href="#DejaVuSans-37" transform="translate(63.623047 0)"/>
      <use xlink:href="#DejaVuSans-2e" transform="translate(127.246094 0)"/>
      <use xlink:href="#DejaVuSans-30" transform="translate(159.033203 0)"/>
     </g>
    </g>
   </g>
   <g id="text_54">
    <g clip-path="url(#pb0f6a00f82)">
     <!-- 57.0 -->
     <g transform="translate(292.778855 136.262522) rotate(-18.698991) scale(0.09 -0.09)">
      <use xlink:href="#DejaVuSans-35"/>
      <use xlink:href="#DejaVuSans-37" transform="translate(63.623047 0)"/>
      <use xlink:href="#DejaVuSans-2e" transform="translate(127.246094 0)"/>
      <use xlink:href="#DejaVuSans-30" transform="translate(159.033203 0)"/>
     </g>
    </g>
   </g>
   <g id="text_55">
    <g clip-path="url(#pb0f6a00f82)">
     <!-- 57.0 -->
     <g transform="translate(291.967859 166.819493) rotate(-9.031394) scale(0.09 -0.09)">
      <use xlink:href="#DejaVuSans-35"/>
      <use xlink:href="#DejaVuSans-37" transform="translate(63.623047 0)"/>
      <use xlink:href="#DejaVuSans-2e" transform="translate(127.246094 0)"/>
      <use xlink:href="#DejaVuSans-30" transform="translate(159.033203 0)"/>
     </g>
    </g>
   </g>
  </g>
 </g>
 <defs>
  <clipPath id="pb0f6a00f82">
   <rect x="62.84" y="26.88" width="286.36" height="213.4"/>
  </clipPath>
 </defs>
</svg>
