<?xml version="1.0" encoding="utf-8" standalone="no"?>
<!DOCTYPE svg PUBLIC "-//W3C//DTD SVG 1.1//EN"
  "http://www.w3.org/Graphics/SVG/1.1/DTD/svg11.dtd">
<svg xmlns:xlink="http://www.w3.org/1999/xlink" width="360pt" height="288pt" viewBox="0 0 360 288" xmlns="http://www.w3.org/2000/svg" version="1.1">
 <metadata>
  <rdf:RDF xmlns:dc="http://purl.org/dc/elements/1.1/" xmlns:cc="http://creativecommons.org/ns#" xmlns:rdf="http://www.w3.org/1999/02/22-rdf-syntax-ns#">
   <cc:Work>
    <dc:type rdf:resource="http://purl.org/dc/dcmitype/StillImage"/>
    <dc:date>2025-10-02T17:14:41.026779</dc:date>
    <dc:format>image/svg+xml</dc:format>
    <dc:creator>
     <cc:Agent>
      <dc:title>Matplotlib v3.10.6, https://matplotlib.org/</dc:title>
     </cc:Agent>
    </dc:creator>
   </cc:Work>
  </rdf:RDF>
 </metadata>
 <defs>
  <style type="text/css">*{stroke-linejoin: round; stroke-linecap: butt}</style>
 </defs>
 <g id="figure_1">
  <g id="patch_1">
   <path d="M 0 288 
L 360 288 
L 360 0 
L 0 0 
z
" style="fill: #ffffff"/>
  </g>
  <g id="axes_1">
   <g id="patch_2">
    <path d="M 62.84 240.28 
L 349.2 240.28 
L 349.2 26.88 
L 62.84 26.88 
z
" style="fill: #ffffff"/>
   </g>
   <g id="QuadContourSet_1">
    <path d="M 86.703333 26.88 
L 87.349018 26.88 
L 87.311682 36.380776 
L 87.344007 47.600163 
L 87.718902 60.808896 
L 87.536806 76.198006 
L 87.452665 93.757994 
L 87.245695 113.137869 
L 87.286196 133.590571 
L 87.349069 154.013971 
L 87.309529 173.39493 
L 87.237983 190.956403 
L 87.218041 206.347113 
L 87.31009 219.557363 
L 87.390726 230.778089 
L 87.379154 240.28 
L 86.703333 240.28 
L 62.84 240.28 
L 62.84 230.778089 
L 62.84 219.557363 
L 62.84 206.347113 
L 62.84 190.956403 
L 62.84 173.39493 
L 62.84 154.013971 
L 62.84 133.590571 
L 62.84 113.137869 
L 62.84 93.757994 
L 62.84 76.198006 
L 62.84 60.808896 
L 62.84 47.600163 
L 62.84 36.380776 
L 62.84 26.88 
z
M 325.336667 26.88 
L 349.2 26.88 
L 349.2 36.380776 
L 349.2 47.600163 
L 349.2 60.808896 
L 349.2 76.198006 
L 349.2 93.757994 
L 349.2 113.137869 
L 349.2 133.590571 
L 349.2 154.013971 
L 349.2 173.39493 
L 349.2 190.956403 
L 349.2 206.347113 
L 349.2 219.557363 
L 349.2 230.778089 
L 349.2 240.28 
L 325.336667 240.28 
L 324.686717 240.28 
L 324.721704 230.778089 
L 324.739075 219.557363 
L 324.701815 206.347113 
L 324.643249 190.956403 
L 324.664825 173.39493 
L 324.723357 154.013971 
L 324.785803 133.590571 
L 324.78537 113.137869 
L 324.714413 93.757994 
L 324.53459 76.198006 
L 324.664645 60.808896 
L 324.792333 47.600163 
L 324.761135 36.380776 
L 324.708573 26.88 
z
" clip-path="url(#pe9f0807b1b)" style="fill: #460a5d"/>
    <path d="M 89.217639 36.380776 
L 89.351237 47.600163 
L 90.90068 60.808896 
L 90.148075 76.198006 
L 89.800321 93.757994 
L 88.944916 113.137869 
L 89.112305 133.590571 
L 89.372159 154.013971 
L 89.208739 173.39493 
L 88.913041 190.956403 
L 88.830621 206.347113 
L 89.211059 219.557363 
L 89.54433 230.778089 
L 89.496499 240.28 
L 87.379154 240.28 
L 87.390726 230.778089 
L 87.31009 219.557363 
L 87.218041 206.347113 
L 87.237983 190.956403 
L 87.309529 173.39493 
L 87.349069 154.013971 
L 87.286196 133.590571 
L 87.245695 113.137869 
L 87.452665 93.757994 
L 87.536806 76.198006 
L 87.718902 60.808896 
L 87.344007 47.600163 
L 87.311682 36.380776 
L 87.349018 26.88 
L 89.371948 26.88 
z
M 324.761135 36.380776 
L 324.792333 47.600163 
L 324.664645 60.808896 
L 324.53459 76.198006 
L 324.714413 93.757994 
L 324.78537 113.137869 
L 324.785803 133.590571 
L 324.723357 154.013971 
L 324.664825 173.39493 
L 324.643249 190.956403 
L 324.701815 206.347113 
L 324.739075 219.557363 
L 324.721704 230.778089 
L 324.686717 240.28 
L 322.650426 240.28 
L 322.795026 230.778089 
L 322.866818 219.557363 
L 322.712824 206.347113 
L 322.470772 190.956403 
L 322.559945 173.39493 
L 322.801857 154.013971 
L 323.059946 133.590571 
L 323.058156 113.137869 
L 322.764893 93.757994 
L 322.021682 76.198006 
L 322.5592 60.808896 
L 323.086934 47.600163 
L 322.957996 36.380776 
L 322.740755 26.88 
L 324.708573 26.88 
z
" clip-path="url(#pe9f0807b1b)" style="fill: #481b6d"/>
    <path d="M 91.123595 36.380776 
L 91.358467 47.600163 
L 94.082458 60.808896 
L 92.759345 76.198006 
L 92.147977 93.757994 
L 90.644137 113.137869 
L 90.938415 133.590571 
L 91.395249 154.013971 
L 91.107949 173.39493 
L 90.588099 190.956403 
L 90.443201 206.347113 
L 91.112029 219.557363 
L 91.697933 230.778089 
L 91.613844 240.28 
L 89.496499 240.28 
L 89.54433 230.778089 
L 89.211059 219.557363 
L 88.830621 206.347113 
L 88.913041 190.956403 
L 89.208739 173.39493 
L 89.372159 154.013971 
L 89.112305 133.590571 
L 88.944916 113.137869 
L 89.800321 93.757994 
L 90.148075 76.198006 
L 90.90068 60.808896 
L 89.351237 47.600163 
L 89.217639 36.380776 
L 89.371948 26.88 
L 91.394878 26.88 
z
M 322.957996 36.380776 
L 323.086934 47.600163 
L 322.5592 60.808896 
L 322.021682 76.198006 
L 322.764893 93.757994 
L 323.058156 113.137869 
L 323.059946 133.590571 
L 322.801857 154.013971 
L 322.559945 173.39493 
L 322.470772 190.956403 
L 322.712824 206.347113 
L 322.866818 219.557363 
L 322.795026 230.778089 
L 322.650426 240.28 
L 320.614134 240.28 
L 320.868348 230.778089 
L 320.994561 219.557363 
L 320.723834 206.347113 
L 320.298295 190.956403 
L 320.455065 173.39493 
L 320.880357 154.013971 
L 321.33409 133.590571 
L 321.330943 113.137869 
L 320.815372 93.757994 
L 319.508774 76.198006 
L 320.453756 60.808896 
L 321.381535 47.600163 
L 321.154856 36.380776 
L 320.772936 26.88 
L 322.740755 26.88 
z
" clip-path="url(#pe9f0807b1b)" style="fill: #472a7a"/>
    <path d="M 93.029552 36.380776 
L 93.365698 47.600163 
L 97.264235 60.808896 
L 95.370615 76.198006 
L 94.495634 93.757994 
L 92.343358 113.137869 
L 92.764524 133.590571 
L 93.41834 154.013971 
L 93.007159 173.39493 
L 92.263157 190.956403 
L 92.05578 206.347113 
L 93.012998 219.557363 
L 93.851536 230.778089 
L 93.73119 240.28 
L 91.613844 240.28 
L 91.697933 230.778089 
L 91.112029 219.557363 
L 90.443201 206.347113 
L 90.588099 190.956403 
L 91.107949 173.39493 
L 91.395249 154.013971 
L 90.938415 133.590571 
L 90.644137 113.137869 
L 92.147977 93.757994 
L 92.759345 76.198006 
L 94.082458 60.808896 
L 91.358467 47.600163 
L 91.123595 36.380776 
L 91.394878 26.88 
L 93.417807 26.88 
z
M 321.154856 36.380776 
L 321.381535 47.600163 
L 320.453756 60.808896 
L 319.508774 76.198006 
L 320.815372 93.757994 
L 321.330943 113.137869 
L 321.33409 133.590571 
L 320.880357 154.013971 
L 320.455065 173.39493 
L 320.298295 190.956403 
L 320.723834 206.347113 
L 320.994561 219.557363 
L 320.868348 230.778089 
L 320.614134 240.28 
L 318.577842 240.28 
L 318.94167 230.778089 
L 319.122304 219.557363 
L 318.734843 206.347113 
L 318.125818 190.956403 
L 318.350185 173.39493 
L 318.958857 154.013971 
L 319.608233 133.590571 
L 319.60373 113.137869 
L 318.865851 93.757994 
L 316.995867 76.198006 
L 318.348311 60.808896 
L 319.676137 47.600163 
L 319.351716 36.380776 
L 318.805118 26.88 
L 320.772936 26.88 
z
" clip-path="url(#pe9f0807b1b)" style="fill: #443983"/>
    <path d="M 94.935508 36.380776 
L 95.372928 47.600163 
L 100.446013 60.808896 
L 97.981884 76.198006 
L 96.84329 93.757994 
L 94.04258 113.137869 
L 94.590634 133.590571 
L 95.44143 154.013971 
L 94.906369 173.39493 
L 93.938214 190.956403 
L 93.66836 206.347113 
L 94.913967 219.557363 
L 96.005139 230.778089 
L 95.848535 240.28 
L 93.73119 240.28 
L 93.851536 230.778089 
L 93.012998 219.557363 
L 92.05578 206.347113 
L 92.263157 190.956403 
L 93.007159 173.39493 
L 93.41834 154.013971 
L 92.764524 133.590571 
L 92.343358 113.137869 
L 94.495634 93.757994 
L 95.370615 76.198006 
L 97.264235 60.808896 
L 93.365698 47.600163 
L 93.029552 36.380776 
L 93.417807 26.88 
L 95.440737 26.88 
z
M 319.351716 36.380776 
L 319.676137 47.600163 
L 318.348311 60.808896 
L 316.995867 76.198006 
L 318.865851 93.757994 
L 319.60373 113.137869 
L 319.608233 133.590571 
L 318.958857 154.013971 
L 318.350185 173.39493 
L 318.125818 190.956403 
L 318.734843 206.347113 
L 319.122304 219.557363 
L 318.94167 230.778089 
L 318.577842 240.28 
L 316.541551 240.28 
L 317.014992 230.778089 
L 317.250047 219.557363 
L 316.745853 206.347113 
L 315.953341 190.956403 
L 316.245305 173.39493 
L 317.037357 154.013971 
L 317.882376 133.590571 
L 317.876516 113.137869 
L 316.916331 93.757994 
L 314.482959 76.198006 
L 316.242867 60.808896 
L 317.970738 47.600163 
L 317.548576 36.380776 
L 316.837299 26.88 
L 318.805118 26.88 
z
" clip-path="url(#pe9f0807b1b)" style="fill: #3f4788"/>
    <path d="M 96.841465 36.380776 
L 97.380159 47.600163 
L 103.627791 60.808896 
L 100.593154 76.198006 
L 99.190946 93.757994 
L 95.741801 113.137869 
L 96.416743 133.590571 
L 97.46452 154.013971 
L 96.805579 173.39493 
L 95.613272 190.956403 
L 95.28094 206.347113 
L 96.814937 219.557363 
L 98.158742 230.778089 
L 97.965881 240.28 
L 95.848535 240.28 
L 96.005139 230.778089 
L 94.913967 219.557363 
L 93.66836 206.347113 
L 93.938214 190.956403 
L 94.906369 173.39493 
L 95.44143 154.013971 
L 94.590634 133.590571 
L 94.04258 113.137869 
L 96.84329 93.757994 
L 97.981884 76.198006 
L 100.446013 60.808896 
L 95.372928 47.600163 
L 94.935508 36.380776 
L 95.440737 26.88 
L 97.463667 26.88 
z
M 317.548576 36.380776 
L 317.970738 47.600163 
L 316.242867 60.808896 
L 314.482959 76.198006 
L 316.916331 93.757994 
L 317.876516 113.137869 
L 317.882376 133.590571 
L 317.037357 154.013971 
L 316.245305 173.39493 
L 315.953341 190.956403 
L 316.745853 206.347113 
L 317.250047 219.557363 
L 317.014992 230.778089 
L 316.541551 240.28 
L 314.505259 240.28 
L 315.088314 230.778089 
L 315.37779 219.557363 
L 314.756862 206.347113 
L 313.780864 190.956403 
L 314.140425 173.39493 
L 315.115857 154.013971 
L 316.15652 133.590571 
L 316.149303 113.137869 
L 314.96681 93.757994 
L 311.970051 76.198006 
L 314.137422 60.808896 
L 316.265339 47.600163 
L 315.745436 36.380776 
L 314.869481 26.88 
L 316.837299 26.88 
z
" clip-path="url(#pe9f0807b1b)" style="fill: #39558c"/>
    <path d="M 98.747422 36.380776 
L 99.387389 47.600163 
L 106.809569 60.808896 
L 103.204423 76.198006 
L 101.538602 93.757994 
L 97.441022 113.137869 
L 98.242853 133.590571 
L 99.48761 154.013971 
L 98.704789 173.39493 
L 97.28833 190.956403 
L 96.893519 206.347113 
L 98.715906 219.557363 
L 100.312345 230.778089 
L 100.083226 240.28 
L 97.965881 240.28 
L 98.158742 230.778089 
L 96.814937 219.557363 
L 95.28094 206.347113 
L 95.613272 190.956403 
L 96.805579 173.39493 
L 97.46452 154.013971 
L 96.416743 133.590571 
L 95.741801 113.137869 
L 99.190946 93.757994 
L 100.593154 76.198006 
L 103.627791 60.808896 
L 97.380159 47.600163 
L 96.841465 36.380776 
L 97.463667 26.88 
L 99.486597 26.88 
z
M 315.745436 36.380776 
L 316.265339 47.600163 
L 314.137422 60.808896 
L 311.970051 76.198006 
L 314.96681 93.757994 
L 316.149303 113.137869 
L 316.15652 133.590571 
L 315.115857 154.013971 
L 314.140425 173.39493 
L 313.780864 190.956403 
L 314.756862 206.347113 
L 315.37779 219.557363 
L 315.088314 230.778089 
L 314.505259 240.28 
L 312.468967 240.28 
L 313.161636 230.778089 
L 313.505534 219.557363 
L 312.767871 206.347113 
L 311.608387 190.956403 
L 312.035545 173.39493 
L 313.194357 154.013971 
L 314.430663 133.590571 
L 314.42209 113.137869 
L 313.01729 93.757994 
L 309.457144 76.198006 
L 312.031978 60.808896 
L 314.55994 47.600163 
L 313.942296 36.380776 
L 312.901663 26.88 
L 314.869481 26.88 
z
" clip-path="url(#pe9f0807b1b)" style="fill: #33628d"/>
    <path d="M 100.653378 36.380776 
L 101.394619 47.600163 
L 109.991347 60.808896 
L 105.815693 76.198006 
L 103.886258 93.757994 
L 99.140243 113.137869 
L 100.068962 133.590571 
L 101.5107 154.013971 
L 100.603999 173.39493 
L 98.963388 190.956403 
L 98.506099 206.347113 
L 100.616875 219.557363 
L 102.465949 230.778089 
L 102.200572 240.28 
L 100.083226 240.28 
L 100.312345 230.778089 
L 98.715906 219.557363 
L 96.893519 206.347113 
L 97.28833 190.956403 
L 98.704789 173.39493 
L 99.48761 154.013971 
L 98.242853 133.590571 
L 97.441022 113.137869 
L 101.538602 93.757994 
L 103.204423 76.198006 
L 106.809569 60.808896 
L 99.387389 47.600163 
L 98.747422 36.380776 
L 99.486597 26.88 
L 101.509527 26.88 
z
M 313.942296 36.380776 
L 314.55994 47.600163 
L 312.031978 60.808896 
L 309.457144 76.198006 
L 313.01729 93.757994 
L 314.42209 113.137869 
L 314.430663 133.590571 
L 313.194357 154.013971 
L 312.035545 173.39493 
L 311.608387 190.956403 
L 312.767871 206.347113 
L 313.505534 219.557363 
L 313.161636 230.778089 
L 312.468967 240.28 
L 310.432676 240.28 
L 311.234958 230.778089 
L 311.633277 219.557363 
L 310.778881 206.347113 
L 309.43591 190.956403 
L 309.930665 173.39493 
L 311.272857 154.013971 
L 312.704806 133.590571 
L 312.694876 113.137869 
L 311.067769 93.757994 
L 306.944236 76.198006 
L 309.926533 60.808896 
L 312.854542 47.600163 
L 312.139156 36.380776 
L 310.933844 26.88 
L 312.901663 26.88 
z
" clip-path="url(#pe9f0807b1b)" style="fill: #2e6e8e"/>
    <path d="M 102.559335 36.380776 
L 103.40185 47.600163 
L 110.566667 58.343382 
L 114.590577 60.808896 
L 110.566667 68.502377 
L 108.426963 76.198006 
L 106.233915 93.757994 
L 100.839464 113.137869 
L 101.895071 133.590571 
L 103.53379 154.013971 
L 102.503209 173.39493 
L 100.638446 190.956403 
L 100.118679 206.347113 
L 102.517845 219.557363 
L 104.619552 230.778089 
L 104.317917 240.28 
L 102.200572 240.28 
L 102.465949 230.778089 
L 100.616875 219.557363 
L 98.506099 206.347113 
L 98.963388 190.956403 
L 100.603999 173.39493 
L 101.5107 154.013971 
L 100.068962 133.590571 
L 99.140243 113.137869 
L 103.886258 93.757994 
L 105.815693 76.198006 
L 109.991347 60.808896 
L 101.394619 47.600163 
L 100.653378 36.380776 
L 101.509527 26.88 
L 103.532457 26.88 
z
M 312.139156 36.380776 
L 312.854542 47.600163 
L 309.926533 60.808896 
L 306.944236 76.198006 
L 311.067769 93.757994 
L 312.694876 113.137869 
L 312.704806 133.590571 
L 311.272857 154.013971 
L 309.930665 173.39493 
L 309.43591 190.956403 
L 310.778881 206.347113 
L 311.633277 219.557363 
L 311.234958 230.778089 
L 310.432676 240.28 
L 308.396384 240.28 
L 309.30828 230.778089 
L 309.76102 219.557363 
L 308.78989 206.347113 
L 307.263433 190.956403 
L 307.825785 173.39493 
L 309.351357 154.013971 
L 310.97895 133.590571 
L 310.967663 113.137869 
L 309.118248 93.757994 
L 304.431328 76.198006 
L 307.821088 60.808896 
L 311.149143 47.600163 
L 310.336016 36.380776 
L 308.966026 26.88 
L 310.933844 26.88 
z
M 134.43 233.743443 
L 144.856147 240.28 
L 134.43 240.28 
L 129.400347 240.28 
z
" clip-path="url(#pe9f0807b1b)" style="fill: #29798e"/>
    <path d="M 104.465292 36.380776 
L 105.40908 47.600163 
L 110.566667 55.333659 
L 119.502679 60.808896 
L 112.095727 76.198006 
L 110.566667 79.288317 
L 108.581571 93.757994 
L 102.538685 113.137869 
L 103.721181 133.590571 
L 105.556881 154.013971 
L 104.402419 173.39493 
L 102.313504 190.956403 
L 101.731259 206.347113 
L 104.418814 219.557363 
L 106.773155 230.778089 
L 106.435263 240.28 
L 104.317917 240.28 
L 104.619552 230.778089 
L 102.517845 219.557363 
L 100.118679 206.347113 
L 100.638446 190.956403 
L 102.503209 173.39493 
L 103.53379 154.013971 
L 101.895071 133.590571 
L 100.839464 113.137869 
L 106.233915 93.757994 
L 108.426963 76.198006 
L 110.566667 68.502377 
L 114.590577 60.808896 
L 110.566667 58.343382 
L 103.40185 47.600163 
L 102.559335 36.380776 
L 103.532457 26.88 
L 105.555387 26.88 
z
M 310.336016 36.380776 
L 311.149143 47.600163 
L 307.821088 60.808896 
L 304.431328 76.198006 
L 309.118248 93.757994 
L 310.967663 113.137869 
L 310.97895 133.590571 
L 309.351357 154.013971 
L 307.825785 173.39493 
L 307.263433 190.956403 
L 308.78989 206.347113 
L 309.76102 219.557363 
L 309.30828 230.778089 
L 308.396384 240.28 
L 306.360092 240.28 
L 307.381602 230.778089 
L 307.888763 219.557363 
L 306.8009 206.347113 
L 305.090956 190.956403 
L 305.720905 173.39493 
L 307.429857 154.013971 
L 309.253093 133.590571 
L 309.240449 113.137869 
L 307.168728 93.757994 
L 301.918421 76.198006 
L 305.715644 60.808896 
L 309.443744 47.600163 
L 308.532876 36.380776 
L 306.998208 26.88 
L 308.966026 26.88 
z
M 134.43 228.199105 
L 158.293333 230.710234 
L 158.560918 230.778089 
L 158.293333 232.465152 
L 158.08492 240.28 
L 144.856147 240.28 
L 134.43 233.743443 
L 129.400347 240.28 
L 123.018685 240.28 
L 128.052476 230.778089 
z
M 277.61 229.572209 
L 280.165929 230.778089 
L 283.713454 240.28 
L 277.61 240.28 
L 265.304234 240.28 
L 257.817464 230.778089 
z
" clip-path="url(#pe9f0807b1b)" style="fill: #25848e"/>
    <path d="M 106.371248 36.380776 
L 107.41631 47.600163 
L 110.566667 52.323935 
L 124.414782 60.808896 
L 120.562818 76.198006 
L 111.476863 93.757994 
L 110.566667 94.529579 
L 104.237906 113.137869 
L 105.54729 133.590571 
L 107.579971 154.013971 
L 106.301629 173.39493 
L 103.988561 190.956403 
L 103.343838 206.347113 
L 106.319783 219.557363 
L 108.926758 230.778089 
L 108.552608 240.28 
L 106.435263 240.28 
L 106.773155 230.778089 
L 104.418814 219.557363 
L 101.731259 206.347113 
L 102.313504 190.956403 
L 104.402419 173.39493 
L 105.556881 154.013971 
L 103.721181 133.590571 
L 102.538685 113.137869 
L 108.581571 93.757994 
L 110.566667 79.288317 
L 112.095727 76.198006 
L 119.502679 60.808896 
L 110.566667 55.333659 
L 105.40908 47.600163 
L 104.465292 36.380776 
L 105.555387 26.88 
L 107.578317 26.88 
z
M 308.532876 36.380776 
L 309.443744 47.600163 
L 305.715644 60.808896 
L 301.918421 76.198006 
L 307.168728 93.757994 
L 309.240449 113.137869 
L 309.253093 133.590571 
L 307.429857 154.013971 
L 305.720905 173.39493 
L 305.090956 190.956403 
L 306.8009 206.347113 
L 307.888763 219.557363 
L 307.381602 230.778089 
L 306.360092 240.28 
L 304.323801 240.28 
L 305.454924 230.778089 
L 306.016506 219.557363 
L 304.811909 206.347113 
L 302.918479 190.956403 
L 303.616025 173.39493 
L 305.508356 154.013971 
L 307.527237 133.590571 
L 307.513236 113.137869 
L 305.219207 93.757994 
L 301.473333 81.463352 
L 290.569231 76.198006 
L 301.473333 69.307506 
L 303.610199 60.808896 
L 307.738346 47.600163 
L 306.729736 36.380776 
L 305.030389 26.88 
L 306.998208 26.88 
z
M 158.293333 217.7576 
L 162.621643 219.557363 
L 182.156667 227.858249 
L 206.02 230.532931 
L 207.099496 230.778089 
L 206.02 230.914088 
L 183.938318 240.28 
L 182.156667 240.28 
L 158.293333 240.28 
L 158.08492 240.28 
L 158.293333 232.465152 
L 158.560918 230.778089 
L 158.293333 230.710234 
L 134.43 228.199105 
L 128.052476 230.778089 
L 123.018685 240.28 
L 116.637023 240.28 
L 118.12566 230.778089 
L 134.43 224.184835 
L 151.690383 219.557363 
z
M 253.746667 224.396193 
L 277.61 226.294017 
L 287.114243 230.778089 
L 291.113921 240.28 
L 283.713454 240.28 
L 280.165929 230.778089 
L 277.61 229.572209 
L 257.817464 230.778089 
L 265.304234 240.28 
L 253.746667 240.28 
L 252.059384 240.28 
L 238.34202 230.778089 
z
" clip-path="url(#pe9f0807b1b)" style="fill: #21918c"/>
    <path d="M 108.277205 36.380776 
L 109.423541 47.600163 
L 110.566667 49.314212 
L 129.326884 60.808896 
L 129.029909 76.198006 
L 117.370579 93.757994 
L 110.566667 99.525754 
L 105.937127 113.137869 
L 107.3734 133.590571 
L 109.603061 154.013971 
L 108.200839 173.39493 
L 105.663619 190.956403 
L 104.956418 206.347113 
L 108.220753 219.557363 
L 110.566667 228.960572 
L 134.43 220.170565 
L 136.717234 219.557363 
L 158.293333 213.676378 
L 172.436714 219.557363 
L 182.156667 223.687597 
L 206.02 220.338395 
L 208.016552 219.557363 
L 229.883333 212.653259 
L 253.746667 216.484357 
L 259.018461 219.557363 
L 277.61 223.015825 
L 294.062557 230.778089 
L 298.514387 240.28 
L 291.113921 240.28 
L 287.114243 230.778089 
L 277.61 226.294017 
L 253.746667 224.396193 
L 238.34202 230.778089 
L 252.059384 240.28 
L 244.573842 240.28 
L 229.883333 232.684088 
L 206.02 236.569429 
L 197.271718 240.28 
L 183.938318 240.28 
L 206.02 230.914088 
L 207.099496 230.778089 
L 206.02 230.532931 
L 182.156667 227.858249 
L 162.621643 219.557363 
L 158.293333 217.7576 
L 151.690383 219.557363 
L 134.43 224.184835 
L 118.12566 230.778089 
L 116.637023 240.28 
L 110.566667 240.28 
L 108.552608 240.28 
L 108.926758 230.778089 
L 106.319783 219.557363 
L 103.343838 206.347113 
L 103.988561 190.956403 
L 106.301629 173.39493 
L 107.579971 154.013971 
L 105.54729 133.590571 
L 104.237906 113.137869 
L 110.566667 94.529579 
L 111.476863 93.757994 
L 120.562818 76.198006 
L 124.414782 60.808896 
L 110.566667 52.323935 
L 107.41631 47.600163 
L 106.371248 36.380776 
L 107.578317 26.88 
L 109.601247 26.88 
z
M 306.729736 36.380776 
L 307.738346 47.600163 
L 303.610199 60.808896 
L 301.473333 69.307506 
L 290.569231 76.198006 
L 301.473333 81.463352 
L 305.219207 93.757994 
L 307.513236 113.137869 
L 307.527237 133.590571 
L 305.508356 154.013971 
L 303.616025 173.39493 
L 302.918479 190.956403 
L 304.811909 206.347113 
L 306.016506 219.557363 
L 305.454924 230.778089 
L 304.323801 240.28 
L 302.287509 240.28 
L 303.528246 230.778089 
L 304.14425 219.557363 
L 302.822918 206.347113 
L 301.473333 196.041374 
L 299.553113 190.956403 
L 301.473333 174.289229 
L 301.511145 173.39493 
L 303.586856 154.013971 
L 305.80138 133.590571 
L 305.786023 113.137869 
L 303.269686 93.757994 
L 301.473333 87.862035 
L 277.61 76.482486 
L 277.411138 76.198006 
L 277.61 76.077958 
L 301.473333 60.933863 
L 301.504755 60.808896 
L 306.032947 47.600163 
L 304.926596 36.380776 
L 303.062571 26.88 
L 305.030389 26.88 
z
" clip-path="url(#pe9f0807b1b)" style="fill: #1e9c89"/>
    <path d="M 110.566667 26.88 
L 116.336064 26.88 
L 110.566667 33.740231 
L 110.183161 36.380776 
L 110.566667 39.954406 
L 114.472618 47.600163 
L 134.238987 60.808896 
L 134.43 62.300807 
L 136.467549 76.198006 
L 134.43 79.016538 
L 123.264294 93.757994 
L 110.566667 104.521929 
L 107.636348 113.137869 
L 109.199509 133.590571 
L 110.566667 145.607872 
L 124.573098 154.013971 
L 110.566667 167.205952 
L 110.100049 173.39493 
L 107.338677 190.956403 
L 106.568998 206.347113 
L 110.121722 219.557363 
L 110.566667 221.34085 
L 115.732177 219.557363 
L 134.43 215.594264 
L 158.293333 209.595155 
L 182.156667 219.477771 
L 206.02 212.469131 
L 224.477317 206.347113 
L 229.883333 205.150984 
L 253.746667 206.223764 
L 253.969367 206.347113 
L 276.640929 219.557363 
L 277.61 219.737633 
L 301.01087 230.778089 
L 301.473333 231.726642 
L 301.601568 230.778089 
L 302.271993 219.557363 
L 301.473333 212.024193 
L 297.008327 206.347113 
L 293.817576 190.956403 
L 286.840802 173.39493 
L 301.473333 155.804054 
L 301.665356 154.013971 
L 304.075523 133.590571 
L 304.058809 113.137869 
L 301.473333 94.724443 
L 296.970371 93.757994 
L 277.61 89.395898 
L 268.384182 76.198006 
L 277.61 70.628613 
L 293.038973 60.808896 
L 301.473333 55.914942 
L 304.327548 47.600163 
L 303.123457 36.380776 
L 301.473333 28.530362 
L 300.39798 26.88 
L 301.473333 26.88 
L 303.062571 26.88 
L 304.926596 36.380776 
L 306.032947 47.600163 
L 301.504755 60.808896 
L 301.473333 60.933863 
L 277.61 76.077958 
L 277.411138 76.198006 
L 277.61 76.482486 
L 301.473333 87.862035 
L 303.269686 93.757994 
L 305.786023 113.137869 
L 305.80138 133.590571 
L 303.586856 154.013971 
L 301.511145 173.39493 
L 301.473333 174.289229 
L 299.553113 190.956403 
L 301.473333 196.041374 
L 302.822918 206.347113 
L 304.14425 219.557363 
L 303.528246 230.778089 
L 302.287509 240.28 
L 301.473333 240.28 
L 298.514387 240.28 
L 294.062557 230.778089 
L 277.61 223.015825 
L 259.018461 219.557363 
L 253.746667 216.484357 
L 229.883333 212.653259 
L 208.016552 219.557363 
L 206.02 220.338395 
L 182.156667 223.687597 
L 172.436714 219.557363 
L 158.293333 213.676378 
L 136.717234 219.557363 
L 134.43 220.170565 
L 110.566667 228.960572 
L 108.220753 219.557363 
L 104.956418 206.347113 
L 105.663619 190.956403 
L 108.200839 173.39493 
L 109.603061 154.013971 
L 107.3734 133.590571 
L 105.937127 113.137869 
L 110.566667 99.525754 
L 117.370579 93.757994 
L 129.029909 76.198006 
L 129.326884 60.808896 
L 110.566667 49.314212 
L 109.423541 47.600163 
L 108.277205 36.380776 
L 109.601247 26.88 
z
M 158.293333 26.88 
L 162.221762 26.88 
L 160.621985 36.380776 
L 158.293333 38.624487 
L 154.568982 36.380776 
L 151.184669 26.88 
z
M 253.746667 58.578971 
L 256.150674 60.808896 
L 253.746667 62.512641 
L 252.405897 60.808896 
z
M 206.02 236.569429 
L 229.883333 232.684088 
L 244.573842 240.28 
L 237.088299 240.28 
L 229.883333 236.554582 
L 212.301518 240.28 
L 206.02 240.28 
L 197.271718 240.28 
z
" clip-path="url(#pe9f0807b1b)" style="fill: #22a785"/>
    <path d="M 110.566667 33.740231 
L 116.336064 26.88 
L 127.372448 26.88 
L 119.356056 36.380776 
L 123.545761 47.600163 
L 134.43 54.933507 
L 142.379706 60.808896 
L 142.092626 76.198006 
L 134.43 86.797681 
L 129.15801 93.757994 
L 110.566667 109.518104 
L 109.335569 113.137869 
L 110.566667 128.322949 
L 118.999738 133.590571 
L 134.43 142.196651 
L 138.193949 154.013971 
L 137.50176 173.39493 
L 136.705973 190.956403 
L 134.43 194.401842 
L 128.867785 190.956403 
L 110.566667 181.273352 
L 109.013735 190.956403 
L 108.181578 206.347113 
L 110.566667 215.050334 
L 134.43 210.91663 
L 154.168406 206.347113 
L 158.293333 205.254885 
L 164.360577 206.347113 
L 182.156667 211.264948 
L 199.989794 206.347113 
L 206.02 203.877501 
L 229.883333 200.030292 
L 253.746667 196.848433 
L 270.896108 206.347113 
L 277.61 210.252568 
L 283.119086 206.347113 
L 288.082039 190.956403 
L 277.61 176.423513 
L 270.567861 173.39493 
L 273.424906 154.013971 
L 277.61 150.648395 
L 301.473333 140.956736 
L 302.349667 133.590571 
L 302.331596 113.137869 
L 301.473333 107.025433 
L 277.61 98.89344 
L 272.914435 93.757994 
L 259.357227 76.198006 
L 253.746667 70.952405 
L 245.764189 60.808896 
L 253.683198 47.600163 
L 253.746667 47.502572 
L 253.863989 47.600163 
L 268.059294 60.808896 
L 277.61 65.179268 
L 284.476832 60.808896 
L 301.473333 50.946846 
L 302.622149 47.600163 
L 301.473333 37.636011 
L 300.46731 36.380776 
L 294.808421 26.88 
L 300.39798 26.88 
L 301.473333 28.530362 
L 303.123457 36.380776 
L 304.327548 47.600163 
L 301.473333 55.914942 
L 293.038973 60.808896 
L 277.61 70.628613 
L 268.384182 76.198006 
L 277.61 89.395898 
L 296.970371 93.757994 
L 301.473333 94.724443 
L 304.058809 113.137869 
L 304.075523 133.590571 
L 301.665356 154.013971 
L 301.473333 155.804054 
L 286.840802 173.39493 
L 293.817576 190.956403 
L 297.008327 206.347113 
L 301.473333 212.024193 
L 302.271993 219.557363 
L 301.601568 230.778089 
L 301.473333 231.726642 
L 301.01087 230.778089 
L 277.61 219.737633 
L 276.640929 219.557363 
L 253.969367 206.347113 
L 253.746667 206.223764 
L 229.883333 205.150984 
L 224.477317 206.347113 
L 206.02 212.469131 
L 182.156667 219.477771 
L 158.293333 209.595155 
L 134.43 215.594264 
L 115.732177 219.557363 
L 110.566667 221.34085 
L 110.121722 219.557363 
L 106.568998 206.347113 
L 107.338677 190.956403 
L 110.100049 173.39493 
L 110.566667 167.205952 
L 124.573098 154.013971 
L 110.566667 145.607872 
L 109.199509 133.590571 
L 107.636348 113.137869 
L 110.566667 104.521929 
L 123.264294 93.757994 
L 134.43 79.016538 
L 136.467549 76.198006 
L 134.43 62.300807 
L 134.238987 60.808896 
L 114.472618 47.600163 
L 110.566667 39.954406 
L 110.183161 36.380776 
z
M 252.405897 60.808896 
L 253.746667 62.512641 
L 256.150674 60.808896 
L 253.746667 58.578971 
z
M 154.568982 36.380776 
L 158.293333 38.624487 
L 160.621985 36.380776 
L 162.221762 26.88 
L 167.869317 26.88 
L 165.93518 36.380776 
L 158.293333 43.743878 
L 146.071272 36.380776 
L 140.96517 26.88 
L 151.184669 26.88 
z
M 206.02 26.88 
L 206.148877 26.88 
L 206.02 27.032451 
L 205.855082 26.88 
z
M 229.883333 236.554582 
L 237.088299 240.28 
L 229.883333 240.28 
L 212.301518 240.28 
z
" clip-path="url(#pe9f0807b1b)" style="fill: #2db27d"/>
    <path d="M 134.43 26.88 
L 140.96517 26.88 
L 146.071272 36.380776 
L 158.293333 43.743878 
L 165.93518 36.380776 
L 167.869317 26.88 
L 173.516872 26.88 
L 171.248374 36.380776 
L 160.295946 47.600163 
L 158.293333 50.384015 
L 150.651053 60.808896 
L 147.717703 76.198006 
L 135.42718 93.757994 
L 134.43 95.911564 
L 116.440143 113.137869 
L 134.43 125.60811 
L 140.731417 133.590571 
L 144.154718 154.013971 
L 142.880004 173.39493 
L 144.783426 190.956403 
L 158.293333 199.904749 
L 182.156667 203.954382 
L 206.02 191.6808 
L 229.883333 194.9096 
L 245.993435 190.956403 
L 252.925503 173.39493 
L 253.746667 171.056637 
L 261.601007 154.013971 
L 277.61 141.139831 
L 292.34059 133.590571 
L 292.51321 113.137869 
L 277.61 106.648519 
L 265.823625 93.757994 
L 253.746667 79.390597 
L 249.304597 76.198006 
L 239.122481 60.808896 
L 243.29147 47.600163 
L 247.960519 36.380776 
L 253.746667 31.187321 
L 259.633921 36.380776 
L 273.073321 47.600163 
L 277.61 54.78515 
L 287.628594 47.600163 
L 288.612388 36.380776 
L 289.218862 26.88 
L 294.808421 26.88 
L 300.46731 36.380776 
L 301.473333 37.636011 
L 302.622149 47.600163 
L 301.473333 50.946846 
L 284.476832 60.808896 
L 277.61 65.179268 
L 268.059294 60.808896 
L 253.863989 47.600163 
L 253.746667 47.502572 
L 253.683198 47.600163 
L 245.764189 60.808896 
L 253.746667 70.952405 
L 259.357227 76.198006 
L 272.914435 93.757994 
L 277.61 98.89344 
L 301.473333 107.025433 
L 302.331596 113.137869 
L 302.349667 133.590571 
L 301.473333 140.956736 
L 277.61 150.648395 
L 273.424906 154.013971 
L 270.567861 173.39493 
L 277.61 176.423513 
L 288.082039 190.956403 
L 283.119086 206.347113 
L 277.61 210.252568 
L 270.896108 206.347113 
L 253.746667 196.848433 
L 229.883333 200.030292 
L 206.02 203.877501 
L 199.989794 206.347113 
L 182.156667 211.264948 
L 164.360577 206.347113 
L 158.293333 205.254885 
L 154.168406 206.347113 
L 134.43 210.91663 
L 110.566667 215.050334 
L 108.181578 206.347113 
L 109.013735 190.956403 
L 110.566667 181.273352 
L 128.867785 190.956403 
L 134.43 194.401842 
L 136.705973 190.956403 
L 137.50176 173.39493 
L 138.193949 154.013971 
L 134.43 142.196651 
L 118.999738 133.590571 
L 110.566667 128.322949 
L 109.335569 113.137869 
L 110.566667 109.518104 
L 129.15801 93.757994 
L 134.43 86.797681 
L 142.092626 76.198006 
L 142.379706 60.808896 
L 134.43 54.933507 
L 123.545761 47.600163 
L 119.356056 36.380776 
L 127.372448 26.88 
z
M 130.359492 36.380776 
L 132.618904 47.600163 
L 134.43 48.820403 
L 145.102063 47.600163 
L 137.573563 36.380776 
L 134.43 31.569184 
z
M 261.151449 190.956403 
L 277.61 199.849594 
L 282.346502 190.956403 
L 277.61 184.383179 
z
M 109.794157 206.347113 
L 110.566667 209.166009 
L 133.331622 206.347113 
L 110.566667 192.989366 
z
M 206.02 27.032451 
L 206.148877 26.88 
L 213.469255 26.88 
L 206.02 35.691901 
L 196.487487 26.88 
L 205.855082 26.88 
z
" clip-path="url(#pe9f0807b1b)" style="fill: #3fbc73"/>
    <path d="M 134.43 31.569184 
L 137.573563 36.380776 
L 145.102063 47.600163 
L 134.43 48.820403 
L 132.618904 47.600163 
L 130.359492 36.380776 
z
M 176.561569 36.380776 
L 168.412567 47.600163 
L 159.037328 60.808896 
L 158.293333 62.032983 
L 153.342781 76.198006 
L 144.88006 93.757994 
L 139.378143 113.137869 
L 152.397732 133.590571 
L 150.115488 154.013971 
L 148.258248 173.39493 
L 152.860879 190.956403 
L 158.293333 194.554613 
L 182.156667 197.990454 
L 195.432453 190.956403 
L 195.192855 173.39493 
L 206.02 163.685317 
L 214.398608 173.39493 
L 229.883333 188.713839 
L 243.91562 173.39493 
L 249.82408 154.013971 
L 253.746667 146.718989 
L 271.541191 133.590571 
L 269.478776 113.137869 
L 258.732815 93.757994 
L 253.746667 87.826204 
L 237.567558 76.198006 
L 232.480774 60.808896 
L 232.899743 47.600163 
L 229.883333 38.040201 
L 206.02 40.103555 
L 194.890077 36.380776 
L 187.119892 26.88 
L 196.487487 26.88 
L 206.02 35.691901 
L 213.469255 26.88 
L 220.789633 26.88 
L 229.883333 36.010446 
L 244.778713 26.88 
L 253.746667 26.88 
L 263.527289 26.88 
L 277.61 35.786034 
L 283.629303 26.88 
L 289.218862 26.88 
L 288.612388 36.380776 
L 287.628594 47.600163 
L 277.61 54.78515 
L 273.073321 47.600163 
L 259.633921 36.380776 
L 253.746667 31.187321 
L 247.960519 36.380776 
L 243.29147 47.600163 
L 239.122481 60.808896 
L 249.304597 76.198006 
L 253.746667 79.390597 
L 265.823625 93.757994 
L 277.61 106.648519 
L 292.51321 113.137869 
L 292.34059 133.590571 
L 277.61 141.139831 
L 261.601007 154.013971 
L 253.746667 171.056637 
L 252.925503 173.39493 
L 245.993435 190.956403 
L 229.883333 194.9096 
L 206.02 191.6808 
L 182.156667 203.954382 
L 158.293333 199.904749 
L 144.783426 190.956403 
L 142.880004 173.39493 
L 144.154718 154.013971 
L 140.731417 133.590571 
L 134.43 125.60811 
L 116.440143 113.137869 
L 134.43 95.911564 
L 135.42718 93.757994 
L 147.717703 76.198006 
L 150.651053 60.808896 
L 158.293333 50.384015 
L 160.295946 47.600163 
L 171.248374 36.380776 
L 173.516872 26.88 
L 179.164427 26.88 
z
M 277.61 184.383179 
L 282.346502 190.956403 
L 277.61 199.849594 
L 261.151449 190.956403 
z
M 110.566667 192.989366 
L 133.331622 206.347113 
L 110.566667 209.166009 
L 109.794157 206.347113 
z
" clip-path="url(#pe9f0807b1b)" style="fill: #56c667"/>
    <path d="M 182.156667 26.88 
L 187.119892 26.88 
L 194.890077 36.380776 
L 206.02 40.103555 
L 229.883333 38.040201 
L 232.899743 47.600163 
L 232.480774 60.808896 
L 237.567558 76.198006 
L 253.746667 87.826204 
L 258.732815 93.757994 
L 269.478776 113.137869 
L 271.541191 133.590571 
L 253.746667 146.718989 
L 249.82408 154.013971 
L 243.91562 173.39493 
L 229.883333 188.713839 
L 214.398608 173.39493 
L 206.02 163.685317 
L 195.192855 173.39493 
L 195.432453 190.956403 
L 182.156667 197.990454 
L 158.293333 194.554613 
L 152.860879 190.956403 
L 148.258248 173.39493 
L 150.115488 154.013971 
L 152.397732 133.590571 
L 139.378143 113.137869 
L 144.88006 93.757994 
L 153.342781 76.198006 
L 158.293333 62.032983 
L 159.037328 60.808896 
L 168.412567 47.600163 
L 176.561569 36.380776 
L 179.164427 26.88 
z
M 181.874764 36.380776 
L 176.529187 47.600163 
L 168.819828 60.808896 
L 160.573754 76.198006 
L 158.293333 80.105561 
L 154.332941 93.757994 
L 158.293333 103.637064 
L 163.049551 113.137869 
L 168.926911 133.590571 
L 158.293333 145.248171 
L 156.076257 154.013971 
L 153.636492 173.39493 
L 158.293333 186.137429 
L 173.7093 190.956403 
L 182.156667 192.026527 
L 184.176375 190.956403 
L 182.344831 173.39493 
L 201.629412 154.013971 
L 206.02 150.982355 
L 210.439242 154.013971 
L 224.341077 173.39493 
L 229.883333 178.877838 
L 234.905736 173.39493 
L 238.140095 154.013971 
L 245.738798 133.590571 
L 238.019059 113.137869 
L 247.10375 93.757994 
L 229.883333 81.637402 
L 227.223561 76.198006 
L 225.24085 60.808896 
L 219.049145 47.600163 
L 206.02 44.148085 
L 182.798225 36.380776 
L 182.156667 35.417365 
z
M 229.883333 28.660488 
L 232.788016 26.88 
L 244.778713 26.88 
L 229.883333 36.010446 
L 220.789633 26.88 
L 228.110011 26.88 
z
M 277.61 27.515841 
L 278.039744 26.88 
L 283.629303 26.88 
L 277.61 35.786034 
L 263.527289 26.88 
L 276.604574 26.88 
z
" clip-path="url(#pe9f0807b1b)" style="fill: #73d056"/>
    <path d="M 182.156667 35.417365 
L 182.798225 36.380776 
L 206.02 44.148085 
L 219.049145 47.600163 
L 225.24085 60.808896 
L 227.223561 76.198006 
L 229.883333 81.637402 
L 247.10375 93.757994 
L 238.019059 113.137869 
L 245.738798 133.590571 
L 238.140095 154.013971 
L 234.905736 173.39493 
L 229.883333 178.877838 
L 224.341077 173.39493 
L 210.439242 154.013971 
L 206.02 150.982355 
L 201.629412 154.013971 
L 182.344831 173.39493 
L 184.176375 190.956403 
L 182.156667 192.026527 
L 173.7093 190.956403 
L 158.293333 186.137429 
L 153.636492 173.39493 
L 156.076257 154.013971 
L 158.293333 145.248171 
L 168.926911 133.590571 
L 163.049551 113.137869 
L 158.293333 103.637064 
L 154.332941 93.757994 
L 158.293333 80.105561 
L 160.573754 76.198006 
L 168.819828 60.808896 
L 176.529187 47.600163 
L 181.874764 36.380776 
z
M 178.602327 60.808896 
L 179.590922 76.198006 
L 166.633584 93.757994 
L 174.853932 113.137869 
L 182.156667 125.750105 
L 206.02 132.686873 
L 223.312588 113.137869 
L 228.110839 93.757994 
L 219.5208 76.198006 
L 217.616721 60.808896 
L 206.02 48.760463 
L 182.156667 53.64598 
z
M 229.883333 26.88 
L 232.788016 26.88 
L 229.883333 28.660488 
L 228.110011 26.88 
z
M 277.61 26.88 
L 278.039744 26.88 
L 277.61 27.515841 
L 276.604574 26.88 
z
" clip-path="url(#pe9f0807b1b)" style="fill: #90d743"/>
    <path d="M 182.156667 53.64598 
L 206.02 48.760463 
L 217.616721 60.808896 
L 219.5208 76.198006 
L 228.110839 93.757994 
L 223.312588 113.137869 
L 206.02 132.686873 
L 182.156667 125.750105 
L 174.853932 113.137869 
L 166.633584 93.757994 
L 179.590922 76.198006 
L 178.602327 60.808896 
z
M 195.279814 60.808896 
L 194.917016 76.198006 
L 182.156667 92.247055 
L 180.987626 93.757994 
L 182.156667 97.168476 
L 190.57027 113.137869 
L 206.02 121.189301 
L 213.142107 113.137869 
L 220.423263 93.757994 
L 211.818039 76.198006 
L 209.992592 60.808896 
L 206.02 56.681564 
z
" clip-path="url(#pe9f0807b1b)" style="fill: #b0dd2f"/>
    <path d="M 206.02 56.681564 
L 209.992592 60.808896 
L 211.818039 76.198006 
L 220.423263 93.757994 
L 213.142107 113.137869 
L 206.02 121.189301 
L 190.57027 113.137869 
L 182.156667 97.168476 
L 180.987626 93.757994 
L 182.156667 92.247055 
L 194.917016 76.198006 
L 195.279814 60.808896 
z
M 194.3878 93.757994 
L 206.02 108.187165 
L 212.735688 93.757994 
L 206.02 80.072009 
z
" clip-path="url(#pe9f0807b1b)" style="fill: #d0e11c"/>
    <path d="M 206.02 80.072009 
L 212.735688 93.757994 
L 206.02 108.187165 
L 194.3878 93.757994 
z
" clip-path="url(#pe9f0807b1b)" style="fill: #efe51c"/>
   </g>
   <g id="matplotlib.axis_1">
    <g id="xtick_1">
     <g id="line2d_1">
      <defs>
       <path id="me55d327187" d="M 0 0 
L 0 3.5 
" style="stroke: #000000; stroke-width: 0.8"/>
      </defs>
      <g>
       <use xlink:href="#me55d327187" x="126.475556" y="240.28" style="stroke: #000000; stroke-width: 0.8"/>
      </g>
     </g>
     <g id="text_1">
      <!-- −50 -->
      <g transform="translate(113.812743 256.398125) scale(0.12 -0.12)">
       <defs>
        <path id="DejaVuSans-2212" d="M 678 2272 
L 4684 2272 
L 4684 1741 
L 678 1741 
L 678 2272 
z
" transform="scale(0.015625)"/>
        <path id="DejaVuSans-35" d="M 691 4666 
L 3169 4666 
L 3169 4134 
L 1269 4134 
L 1269 2991 
Q 1406 3038 1543 3061 
Q 1681 3084 1819 3084 
Q 2600 3084 3056 2656 
Q 3513 2228 3513 1497 
Q 3513 744 3044 326 
Q 2575 -91 1722 -91 
Q 1428 -91 1123 -41 
Q 819 9 494 109 
L 494 744 
Q 775 591 1075 516 
Q 1375 441 1709 441 
Q 2250 441 2565 725 
Q 2881 1009 2881 1497 
Q 2881 1984 2565 2268 
Q 2250 2553 1709 2553 
Q 1456 2553 1204 2497 
Q 953 2441 691 2322 
L 691 4666 
z
" transform="scale(0.015625)"/>
        <path id="DejaVuSans-30" d="M 2034 4250 
Q 1547 4250 1301 3770 
Q 1056 3291 1056 2328 
Q 1056 1369 1301 889 
Q 1547 409 2034 409 
Q 2525 409 2770 889 
Q 3016 1369 3016 2328 
Q 3016 3291 2770 3770 
Q 2525 4250 2034 4250 
z
M 2034 4750 
Q 2819 4750 3233 4129 
Q 3647 3509 3647 2328 
Q 3647 1150 3233 529 
Q 2819 -91 2034 -91 
Q 1250 -91 836 529 
Q 422 1150 422 2328 
Q 422 3509 836 4129 
Q 1250 4750 2034 4750 
z
" transform="scale(0.015625)"/>
       </defs>
       <use xlink:href="#DejaVuSans-2212"/>
       <use xlink:href="#DejaVuSans-35" transform="translate(83.789062 0)"/>
       <use xlink:href="#DejaVuSans-30" transform="translate(147.412109 0)"/>
      </g>
     </g>
    </g>
    <g id="xtick_2">
     <g id="line2d_2">
      <g>
       <use xlink:href="#me55d327187" x="206.02" y="240.28" style="stroke: #000000; stroke-width: 0.8"/>
      </g>
     </g>
     <g id="text_2">
      <!-- 0 -->
      <g transform="translate(202.2025 256.398125) scale(0.12 -0.12)">
       <use xlink:href="#DejaVuSans-30"/>
      </g>
     </g>
    </g>
    <g id="xtick_3">
     <g id="line2d_3">
      <g>
       <use xlink:href="#me55d327187" x="285.564444" y="240.28" style="stroke: #000000; stroke-width: 0.8"/>
      </g>
     </g>
     <g id="text_3">
      <!-- 50 -->
      <g transform="translate(277.929444 256.398125) scale(0.12 -0.12)">
       <use xlink:href="#DejaVuSans-35"/>
       <use xlink:href="#DejaVuSans-30" transform="translate(63.623047 0)"/>
      </g>
     </g>
    </g>
    <g id="text_4">
     <!-- $\Theta^{\circ}$ -->
     <g transform="translate(198.4 272.011875) scale(0.12 -0.12)">
      <defs>
       <path id="DejaVuSans-398" d="M 1416 2750 
L 3622 2750 
L 3622 2219 
L 1416 2219 
L 1416 2750 
z
M 2522 4238 
Q 1834 4238 1431 3725 
Q 1025 3213 1025 2328 
Q 1025 1447 1429 934 
Q 1834 422 2522 422 
Q 3209 422 3613 934 
Q 4013 1447 4013 2328 
Q 4013 3213 3613 3725 
Q 3209 4238 2522 4238 
z
M 2522 4750 
Q 3503 4750 4090 4092 
Q 4678 3434 4678 2328 
Q 4678 1225 4091 569 
Q 3503 -91 2522 -91 
Q 1538 -91 950 566 
Q 359 1222 359 2328 
Q 359 3434 950 4094 
Q 1538 4750 2522 4750 
z
" transform="scale(0.015625)"/>
       <path id="DejaVuSans-2218" d="M 2000 2619 
Q 1750 2619 1578 2445 
Q 1406 2272 1406 2022 
Q 1406 1775 1578 1605 
Q 1750 1435 2000 1435 
Q 2250 1435 2422 1605 
Q 2594 1775 2594 2022 
Q 2594 2269 2420 2444 
Q 2247 2619 2000 2619 
z
M 2000 3022 
Q 2200 3022 2384 2945 
Q 2569 2869 2703 2725 
Q 2847 2585 2919 2406 
Q 2991 2228 2991 2022 
Q 2991 1610 2702 1324 
Q 2413 1038 1994 1038 
Q 1572 1038 1290 1319 
Q 1009 1600 1009 2022 
Q 1009 2441 1296 2731 
Q 1584 3022 2000 3022 
z
" transform="scale(0.015625)"/>
      </defs>
      <use xlink:href="#DejaVuSans-398" transform="translate(0 0.78125)"/>
      <use xlink:href="#DejaVuSans-2218" transform="translate(79.667969 39.0625) scale(0.7)"/>
     </g>
    </g>
   </g>
   <g id="matplotlib.axis_2">
    <g id="ytick_1">
     <g id="line2d_4">
      <defs>
       <path id="mc5c9267d5c" d="M 0 0 
L -3.5 0 
" style="stroke: #000000; stroke-width: 0.8"/>
      </defs>
      <g>
       <use xlink:href="#mc5c9267d5c" x="62.84" y="219.984151" style="stroke: #000000; stroke-width: 0.8"/>
      </g>
     </g>
     <g id="text_5">
      <!-- −40 -->
      <g transform="translate(30.514375 224.543214) scale(0.12 -0.12)">
       <defs>
        <path id="DejaVuSans-34" d="M 2419 4116 
L 825 1625 
L 2419 1625 
L 2419 4116 
z
M 2253 4666 
L 3047 4666 
L 3047 1625 
L 3713 1625 
L 3713 1100 
L 3047 1100 
L 3047 0 
L 2419 0 
L 2419 1100 
L 313 1100 
L 313 1709 
L 2253 4666 
z
" transform="scale(0.015625)"/>
       </defs>
       <use xlink:href="#DejaVuSans-2212"/>
       <use xlink:href="#DejaVuSans-34" transform="translate(83.789062 0)"/>
       <use xlink:href="#DejaVuSans-30" transform="translate(147.412109 0)"/>
      </g>
     </g>
    </g>
    <g id="ytick_2">
     <g id="line2d_5">
      <g>
       <use xlink:href="#mc5c9267d5c" x="62.84" y="176.783648" style="stroke: #000000; stroke-width: 0.8"/>
      </g>
     </g>
     <g id="text_6">
      <!-- −20 -->
      <g transform="translate(30.514375 181.342711) scale(0.12 -0.12)">
       <defs>
        <path id="DejaVuSans-32" d="M 1228 531 
L 3431 531 
L 3431 0 
L 469 0 
L 469 531 
Q 828 903 1448 1529 
Q 2069 2156 2228 2338 
Q 2531 2678 2651 2914 
Q 2772 3150 2772 3378 
Q 2772 3750 2511 3984 
Q 2250 4219 1831 4219 
Q 1534 4219 1204 4116 
Q 875 4013 500 3803 
L 500 4441 
Q 881 4594 1212 4672 
Q 1544 4750 1819 4750 
Q 2544 4750 2975 4387 
Q 3406 4025 3406 3419 
Q 3406 3131 3298 2873 
Q 3191 2616 2906 2266 
Q 2828 2175 2409 1742 
Q 1991 1309 1228 531 
z
" transform="scale(0.015625)"/>
       </defs>
       <use xlink:href="#DejaVuSans-2212"/>
       <use xlink:href="#DejaVuSans-32" transform="translate(83.789062 0)"/>
       <use xlink:href="#DejaVuSans-30" transform="translate(147.412109 0)"/>
      </g>
     </g>
    </g>
    <g id="ytick_3">
     <g id="line2d_6">
      <g>
       <use xlink:href="#mc5c9267d5c" x="62.84" y="133.583145" style="stroke: #000000; stroke-width: 0.8"/>
      </g>
     </g>
     <g id="text_7">
      <!-- 0 -->
      <g transform="translate(48.205 138.142208) scale(0.12 -0.12)">
       <use xlink:href="#DejaVuSans-30"/>
      </g>
     </g>
    </g>
    <g id="ytick_4">
     <g id="line2d_7">
      <g>
       <use xlink:href="#mc5c9267d5c" x="62.84" y="90.382642" style="stroke: #000000; stroke-width: 0.8"/>
      </g>
     </g>
     <g id="text_8">
      <!-- 20 -->
      <g transform="translate(40.57 94.941704) scale(0.12 -0.12)">
       <use xlink:href="#DejaVuSans-32"/>
       <use xlink:href="#DejaVuSans-30" transform="translate(63.623047 0)"/>
      </g>
     </g>
    </g>
    <g id="ytick_5">
     <g id="line2d_8">
      <g>
       <use xlink:href="#mc5c9267d5c" x="62.84" y="47.182139" style="stroke: #000000; stroke-width: 0.8"/>
      </g>
     </g>
     <g id="text_9">
      <!-- 40 -->
      <g transform="translate(40.57 51.741201) scale(0.12 -0.12)">
       <use xlink:href="#DejaVuSans-34"/>
       <use xlink:href="#DejaVuSans-30" transform="translate(63.623047 0)"/>
      </g>
     </g>
    </g>
    <g id="text_10">
     <!-- $\phi^{\circ}$ -->
     <g transform="translate(23.784375 141.38) rotate(-90) scale(0.13 -0.13)">
      <defs>
       <path id="DejaVuSans-Oblique-3d5" d="M 2991 4863 
L 2738 3572 
Q 3363 3572 3684 3094 
Q 4016 2606 3850 1747 
Q 3681 888 3159 400 
Q 2653 -78 2028 -78 
L 1784 -1331 
L 1213 -1331 
L 1456 -78 
Q 834 -78 509 400 
Q 178 888 347 1747 
Q 513 2606 1034 3094 
Q 1544 3572 2166 3572 
L 2419 4863 
L 2991 4863 
z
M 2128 434 
Q 2481 434 2784 756 
Q 3116 1116 3244 1747 
Q 3369 2372 3169 2738 
Q 2991 3059 2638 3059 
L 2128 434 
z
M 1556 434 
L 2066 3059 
Q 1716 3059 1413 2738 
Q 1072 2372 953 1747 
Q 834 1116 1028 756 
Q 1203 434 1556 434 
z
" transform="scale(0.015625)"/>
      </defs>
      <use xlink:href="#DejaVuSans-Oblique-3d5" transform="translate(0 0.015625)"/>
      <use xlink:href="#DejaVuSans-2218" transform="translate(73.414505 38.296875) scale(0.7)"/>
     </g>
    </g>
   </g>
   <g id="QuadContourSet_2">
    <path clip-path="url(#pe9f0807b1b)" style="fill: none; stroke-dasharray: 1.85,0.8; stroke-dashoffset: 0; stroke: #000000; stroke-width: 0.5"/>
    <path d="M 324.708573 26.88 
L 324.761135 36.380776 
L 324.792333 47.600163 
L 324.664645 60.808896 
L 324.53459 76.198006 
L 324.714413 93.757994 
L 324.78537 113.137869 
L 324.785525 120.469589 
M 324.745685 146.711499 
L 324.723357 154.013971 
L 324.664825 173.39493 
L 324.643249 190.956403 
L 324.701815 206.347113 
L 324.739075 219.557363 
L 324.721704 230.778089 
L 324.686717 240.28 
M 87.379154 240.28 
L 87.390726 230.778089 
L 87.31009 219.557363 
L 87.218041 206.347113 
L 87.237983 190.956403 
L 87.309529 173.39493 
L 87.349069 154.013971 
L 87.326588 146.711498 
M 87.260214 120.469611 
L 87.245695 113.137869 
L 87.452665 93.757994 
L 87.536806 76.198006 
L 87.718902 60.808896 
L 87.344007 47.600163 
L 87.311682 36.380776 
L 87.349018 26.88 
" clip-path="url(#pe9f0807b1b)" style="fill: none; stroke-dasharray: 1.85,0.8; stroke-dashoffset: 0; stroke: #000000; stroke-width: 0.5"/>
    <path d="M 322.740755 26.88 
L 322.957996 36.380776 
L 323.086934 47.600163 
L 322.5592 60.808896 
L 322.021682 76.198006 
L 322.764893 93.757994 
L 323.058156 113.137869 
L 323.058798 120.469589 
M 322.894149 146.710632 
L 322.801857 154.013971 
L 322.559945 173.39493 
L 322.470772 190.956403 
L 322.712824 206.347113 
L 322.866818 219.557363 
L 322.795026 230.778089 
L 322.650426 240.28 
M 89.496499 240.28 
L 89.54433 230.778089 
L 89.211059 219.557363 
L 88.830621 206.347113 
L 88.913041 190.956403 
L 89.208739 173.39493 
L 89.372159 154.013971 
L 89.279236 146.710619 
M 89.004924 120.469975 
L 88.944916 113.137869 
L 89.800321 93.757994 
L 90.148075 76.198006 
L 90.90068 60.808896 
L 89.351237 47.600163 
L 89.217639 36.380776 
L 89.371948 26.88 
" clip-path="url(#pe9f0807b1b)" style="fill: none; stroke-dasharray: 1.85,0.8; stroke-dashoffset: 0; stroke: #000000; stroke-width: 0.5"/>
    <path d="M 320.772936 26.88 
L 321.154856 36.380776 
L 321.381535 47.600163 
L 320.453756 60.808896 
L 319.508774 76.198006 
L 320.815372 93.757994 
L 321.330943 113.137869 
L 321.332071 120.469589 
M 321.042653 146.708707 
L 320.880357 154.013971 
L 320.455065 173.39493 
L 320.298295 190.956403 
L 320.723834 206.347113 
L 320.994561 219.557363 
L 320.868348 230.778089 
L 320.614134 240.28 
M 91.613844 240.28 
L 91.697933 230.778089 
L 91.112029 219.557363 
L 90.443201 206.347113 
L 90.588099 190.956403 
L 91.107949 173.39493 
L 91.395249 154.013971 
L 91.231843 146.708668 
M 90.749645 120.470782 
L 90.644137 113.137869 
L 92.147977 93.757994 
L 92.759345 76.198006 
L 94.082458 60.808896 
L 91.358467 47.600163 
L 91.123595 36.380776 
L 91.394878 26.88 
" clip-path="url(#pe9f0807b1b)" style="fill: none; stroke-dasharray: 1.85,0.8; stroke-dashoffset: 0; stroke: #000000; stroke-width: 0.5"/>
    <path d="M 318.805118 26.88 
L 319.351716 36.380776 
L 319.676137 47.600163 
L 318.348311 60.808896 
L 316.995867 76.198006 
L 318.865851 93.757994 
L 319.60373 113.137869 
L 319.605344 120.469589 
M 319.191227 146.705727 
L 318.958857 154.013971 
L 318.350185 173.39493 
L 318.125818 190.956403 
L 318.734843 206.347113 
L 319.122304 219.557363 
L 318.94167 230.778089 
L 318.577842 240.28 
M 93.73119 240.28 
L 93.851536 230.778089 
L 93.012998 219.557363 
L 92.05578 206.347113 
L 92.263157 190.956403 
L 93.007159 173.39493 
L 93.41834 154.013971 
L 93.184378 146.705647 
M 92.494385 120.472033 
L 92.343358 113.137869 
L 94.495634 93.757994 
L 95.370615 76.198006 
L 97.264235 60.808896 
L 93.365698 47.600163 
L 93.029552 36.380776 
L 93.417807 26.88 
" clip-path="url(#pe9f0807b1b)" style="fill: none; stroke-dasharray: 1.85,0.8; stroke-dashoffset: 0; stroke: #000000; stroke-width: 0.5"/>
    <path d="M 316.837299 26.88 
L 317.548576 36.380776 
L 317.970738 47.600163 
L 316.242867 60.808896 
L 314.482959 76.198006 
L 316.916331 93.757994 
L 317.876516 113.137869 
L 317.878629 120.512893 
M 317.341693 146.658421 
L 317.037357 154.013971 
L 316.245305 173.39493 
L 315.953341 190.956403 
L 316.745853 206.347113 
L 317.250047 219.557363 
L 317.014992 230.778089 
L 316.541551 240.28 
M 95.848535 240.28 
L 96.005139 230.778089 
L 94.913967 219.557363 
L 93.66836 206.347113 
L 93.938214 190.956403 
L 94.906369 173.39493 
L 95.44143 154.013971 
L 95.135007 146.658286 
M 94.240312 120.517017 
L 94.04258 113.137869 
L 96.84329 93.757994 
L 97.981884 76.198006 
L 100.446013 60.808896 
L 95.372928 47.600163 
L 94.935508 36.380776 
L 95.440737 26.88 
" clip-path="url(#pe9f0807b1b)" style="fill: none; stroke-dasharray: 1.85,0.8; stroke-dashoffset: 0; stroke: #000000; stroke-width: 0.5"/>
    <path d="M 314.869481 26.88 
L 315.745436 36.380776 
L 316.265339 47.600163 
L 314.137422 60.808896 
L 311.970051 76.198006 
L 314.96681 93.757994 
L 316.149303 113.137869 
L 316.15189 120.469589 
M 315.488709 146.696606 
L 315.115857 154.013971 
L 314.140425 173.39493 
L 313.780864 190.956403 
L 314.756862 206.347113 
L 315.37779 219.557363 
L 315.088314 230.778089 
L 314.505259 240.28 
M 97.965881 240.28 
L 98.158742 230.778089 
L 96.814937 219.557363 
L 95.28094 206.347113 
L 95.613272 190.956403 
L 96.805579 173.39493 
L 97.46452 154.013971 
L 97.089108 146.696401 
M 95.983956 120.475864 
L 95.741801 113.137869 
L 99.190946 93.757994 
L 100.593154 76.198006 
L 103.627791 60.808896 
L 97.380159 47.600163 
L 96.841465 36.380776 
L 97.463667 26.88 
" clip-path="url(#pe9f0807b1b)" style="fill: none; stroke-dasharray: 1.85,0.8; stroke-dashoffset: 0; stroke: #000000; stroke-width: 0.5"/>
    <path d="M 312.901663 26.88 
L 313.942296 36.380776 
L 314.55994 47.600163 
L 312.031978 60.808896 
L 309.457144 76.198006 
L 313.01729 93.757994 
L 314.42209 113.137869 
L 314.425163 120.46959 
M 313.637676 146.690472 
L 313.194357 154.013971 
L 312.035545 173.39493 
L 311.608387 190.956403 
L 312.767871 206.347113 
L 313.505534 219.557363 
L 313.161636 230.778089 
L 312.468967 240.28 
M 100.083226 240.28 
L 100.312345 230.778089 
L 98.715906 219.557363 
L 96.893519 206.347113 
L 97.28833 190.956403 
L 98.704789 173.39493 
L 99.48761 154.013971 
L 99.041243 146.690183 
M 97.728803 120.478443 
L 97.441022 113.137869 
L 101.538602 93.757994 
L 103.204423 76.198006 
L 106.809569 60.808896 
L 99.387389 47.600163 
L 98.747422 36.380776 
L 99.486597 26.88 
" clip-path="url(#pe9f0807b1b)" style="fill: none; stroke-dasharray: 1.85,0.8; stroke-dashoffset: 0; stroke: #000000; stroke-width: 0.5"/>
    <path d="M 310.933844 26.88 
L 312.139156 36.380776 
L 312.854542 47.600163 
L 309.926533 60.808896 
L 306.944236 76.198006 
L 311.067769 93.757994 
L 312.694876 113.137869 
L 312.698478 120.556197 
M 311.792893 146.596875 
L 311.272857 154.013971 
L 309.930665 173.39493 
L 309.43591 190.956403 
L 310.778881 206.347113 
L 311.633277 219.557363 
L 311.234958 230.778089 
L 310.432676 240.28 
M 102.200572 240.28 
L 102.465949 230.778089 
L 100.616875 219.557363 
L 98.506099 206.347113 
L 98.963388 190.956403 
L 100.603999 173.39493 
L 101.5107 154.013971 
L 100.987082 146.596491 
M 99.477631 120.567992 
L 99.140243 113.137869 
L 103.886258 93.757994 
L 105.815693 76.198006 
L 109.991347 60.808896 
L 101.394619 47.600163 
L 100.653378 36.380776 
L 101.509527 26.88 
" clip-path="url(#pe9f0807b1b)" style="fill: none; stroke-dasharray: 1.85,0.8; stroke-dashoffset: 0; stroke: #000000; stroke-width: 0.5"/>
    <path d="M 308.966026 26.88 
L 310.336016 36.380776 
L 311.149143 47.600163 
L 307.821088 60.808896 
L 304.431328 76.198006 
L 309.118248 93.757994 
L 310.967663 113.137869 
L 310.971757 120.556197 
M 309.943094 146.588714 
L 309.351357 154.013971 
L 307.825785 173.39493 
L 307.263433 190.956403 
L 308.78989 206.347113 
L 309.76102 219.557363 
L 309.30828 230.778089 
L 308.396384 240.28 
M 104.317917 240.28 
L 104.619552 230.778089 
L 102.517845 219.557363 
L 100.118679 206.347113 
L 100.638446 190.956403 
L 102.503209 173.39493 
L 103.53379 154.013971 
L 101.895071 133.590571 
L 101.511409 126.15701 
M 104.350044 100.525908 
L 106.233915 93.757994 
L 108.426963 76.198006 
L 110.566667 68.502377 
L 114.590577 60.808896 
L 110.566667 58.343382 
L 103.40185 47.600163 
L 102.559335 36.380776 
L 103.532457 26.88 
M 144.856147 240.28 
L 134.43 233.743443 
L 129.400347 240.28 
" clip-path="url(#pe9f0807b1b)" style="fill: none; stroke-dasharray: 1.85,0.8; stroke-dashoffset: 0; stroke: #000000; stroke-width: 0.5"/>
    <path d="M 306.998208 26.88 
L 308.532876 36.380776 
L 309.443744 47.600163 
L 305.715644 60.808896 
L 301.918421 76.198006 
L 307.168728 93.757994 
L 309.240449 113.137869 
L 309.245035 120.556198 
M 308.093544 146.579528 
L 307.429857 154.013971 
L 305.720905 173.39493 
L 305.090956 190.956403 
L 306.8009 206.347113 
L 307.888763 219.557363 
L 307.381602 230.778089 
L 306.360092 240.28 
M 106.435263 240.28 
L 106.773155 230.778089 
L 104.418814 219.557363 
L 101.731259 206.347113 
L 102.313504 190.956403 
L 104.402419 173.39493 
L 105.556881 154.013971 
L 103.721181 133.590571 
L 103.291177 126.153136 
M 106.439681 100.627155 
L 108.581571 93.757994 
L 110.566667 79.288317 
L 112.095727 76.198006 
L 119.502679 60.808896 
L 110.566667 55.333659 
L 105.40908 47.600163 
L 104.465292 36.380776 
L 105.555387 26.88 
M 144.477763 229.256427 
L 134.43 228.199105 
L 128.052476 230.778089 
L 123.018685 240.28 
M 263.736944 230.417439 
L 257.817464 230.778089 
L 265.304234 240.28 
" clip-path="url(#pe9f0807b1b)" style="fill: none; stroke-dasharray: 1.85,0.8; stroke-dashoffset: 0; stroke: #000000; stroke-width: 0.5"/>
    <path d="M 305.030389 26.88 
L 306.729736 36.380776 
L 307.738346 47.600163 
L 303.610199 60.808896 
L 301.473333 69.307506 
L 290.569231 76.198006 
L 301.473333 81.463352 
L 305.219207 93.757994 
L 305.974655 100.139992 
M 307.522188 126.215545 
L 307.527237 133.590571 
L 305.508356 154.013971 
L 303.616025 173.39493 
L 302.918479 190.956403 
L 304.811909 206.347113 
L 306.016506 219.557363 
L 305.454924 230.778089 
L 304.323801 240.28 
M 108.552608 240.28 
L 108.926758 230.778089 
L 106.319783 219.557363 
L 103.343838 206.347113 
L 103.988561 190.956403 
L 106.301629 173.39493 
L 107.579971 154.013971 
L 105.54729 133.590571 
L 105.073636 126.192053 
M 108.475461 100.678296 
L 110.566667 94.529579 
L 111.476863 93.757994 
L 120.562818 76.198006 
L 124.414782 60.808896 
L 110.566667 52.323935 
L 107.41631 47.600163 
L 106.371248 36.380776 
L 107.578317 26.88 
M 183.938318 240.28 
L 206.02 230.914088 
L 207.099496 230.778089 
L 206.02 230.532931 
L 182.156667 227.858249 
L 175.326237 224.95584 
M 149.443161 220.159838 
L 134.43 224.184835 
L 118.12566 230.778089 
L 116.637023 240.28 
M 291.113921 240.28 
L 287.114243 230.778089 
L 277.61 226.294017 
L 267.645258 225.501532 
M 240.988205 229.681817 
L 238.34202 230.778089 
L 252.059384 240.28 
" clip-path="url(#pe9f0807b1b)" style="fill: none; stroke-dasharray: 1.85,0.8; stroke-dashoffset: 0; stroke: #000000; stroke-width: 0.5"/>
    <path d="M 303.062571 26.88 
L 304.926596 36.380776 
L 306.032947 47.600163 
L 301.504755 60.808896 
L 301.473333 60.933863 
L 277.61 76.077958 
L 277.411138 76.198006 
L 277.61 76.482486 
L 301.473333 87.862035 
L 303.269686 93.757994 
L 304.100425 100.156031 
M 305.795842 126.215544 
L 305.80138 133.590571 
L 303.586856 154.013971 
L 301.511145 173.39493 
L 301.473333 174.289229 
L 299.553113 190.956403 
L 301.473333 196.041374 
L 302.822918 206.347113 
L 304.14425 219.557363 
L 303.528246 230.778089 
L 302.287509 240.28 
M 197.271718 240.28 
L 206.02 236.569429 
L 216.140513 234.921644 
M 242.097525 238.999589 
L 244.573842 240.28 
M 298.514387 240.28 
L 294.062557 230.778089 
L 277.61 223.015825 
L 259.018461 219.557363 
L 253.746667 216.484357 
L 229.883333 212.653259 
L 208.016552 219.557363 
L 206.02 220.338395 
L 182.156667 223.687597 
L 172.436714 219.557363 
L 158.293333 213.676378 
L 150.111203 215.906577 
M 123.66165 224.137064 
L 110.566667 228.960572 
L 108.220753 219.557363 
L 104.956418 206.347113 
L 105.663619 190.956403 
L 108.200839 173.39493 
L 109.603061 154.013971 
L 107.3734 133.590571 
L 105.937127 113.137869 
L 110.566667 99.525754 
L 117.370579 93.757994 
L 129.029909 76.198006 
L 129.326884 60.808896 
L 110.566667 49.314212 
L 109.423541 47.600163 
L 108.277205 36.380776 
L 109.601247 26.88 
" clip-path="url(#pe9f0807b1b)" style="fill: none; stroke-dasharray: 1.85,0.8; stroke-dashoffset: 0; stroke: #000000; stroke-width: 0.5"/>
    <path d="M 151.184669 26.88 
L 154.568982 36.380776 
L 158.293333 38.624487 
L 160.621985 36.380776 
L 162.221762 26.88 
M 300.39798 26.88 
L 301.473333 28.530362 
L 303.123457 36.380776 
L 304.327548 47.600163 
L 301.473333 55.914942 
L 293.038973 60.808896 
L 277.61 70.628613 
L 268.384182 76.198006 
L 277.61 89.395898 
L 296.970371 93.757994 
L 301.473333 94.724443 
L 304.058809 113.137869 
L 304.075523 133.590571 
L 301.665356 154.013971 
L 301.473333 155.804054 
L 286.840802 173.39493 
L 293.817576 190.956403 
L 297.008327 206.347113 
L 301.473333 212.024193 
L 302.271993 219.557363 
L 301.601568 230.778089 
L 301.473333 231.726642 
L 301.01087 230.778089 
L 277.61 219.737633 
L 276.640929 219.557363 
L 253.969367 206.347113 
L 253.746667 206.223764 
L 229.883333 205.150984 
L 224.477317 206.347113 
L 206.02 212.469131 
L 182.156667 219.477771 
L 158.293333 209.595155 
L 134.43 215.594264 
L 115.732177 219.557363 
L 110.566667 221.34085 
L 110.121722 219.557363 
L 106.568998 206.347113 
L 107.338677 190.956403 
L 110.100049 173.39493 
L 110.566667 167.205952 
L 114.73252 163.282336 
M 112.825333 146.963433 
L 110.566667 145.607872 
L 109.199509 133.590571 
L 107.636348 113.137869 
L 110.566667 104.521929 
L 123.264294 93.757994 
L 134.43 79.016538 
L 136.467549 76.198006 
L 134.43 62.300807 
L 134.238987 60.808896 
L 114.472618 47.600163 
L 110.566667 39.954406 
L 110.183161 36.380776 
L 110.566667 33.740231 
L 116.336064 26.88 
M 212.301518 240.28 
L 216.277957 239.437431 
M 253.746667 58.578971 
L 252.405897 60.808896 
L 253.746667 62.512641 
L 256.150674 60.808896 
L 253.746667 58.578971 
z
" clip-path="url(#pe9f0807b1b)" style="fill: none; stroke-dasharray: 1.85,0.8; stroke-dashoffset: 0; stroke: #000000; stroke-width: 0.5"/>
    <path d="M 140.96517 26.88 
L 146.071272 36.380776 
L 146.597421 36.697751 
M 166.487223 33.669057 
L 167.869317 26.88 
M 205.855082 26.88 
L 206.02 27.032451 
L 206.148877 26.88 
M 294.808421 26.88 
L 300.46731 36.380776 
L 301.473333 37.636011 
L 302.622149 47.600163 
L 301.473333 50.946846 
L 284.476832 60.808896 
L 277.61 65.179268 
L 268.059294 60.808896 
L 253.863989 47.600163 
L 253.746667 47.502572 
L 253.683198 47.600163 
L 245.764189 60.808896 
L 250.196957 66.441712 
M 267.508951 86.756535 
L 272.914435 93.757994 
L 277.61 98.89344 
L 301.473333 107.025433 
L 302.331596 113.137869 
L 302.349667 133.590571 
L 301.473333 140.956736 
L 277.61 150.648395 
L 273.424906 154.013971 
L 270.567861 173.39493 
L 277.61 176.423513 
L 288.082039 190.956403 
L 283.119086 206.347113 
L 277.61 210.252568 
L 270.896108 206.347113 
L 253.746667 196.848433 
L 229.883333 200.030292 
L 206.02 203.877501 
L 199.989794 206.347113 
L 182.156667 211.264948 
L 164.360577 206.347113 
L 158.293333 205.254885 
L 154.168406 206.347113 
L 134.43 210.91663 
L 110.566667 215.050334 
L 108.181578 206.347113 
L 109.013735 190.956403 
L 110.566667 181.273352 
L 128.867785 190.956403 
L 134.43 194.401842 
L 136.705973 190.956403 
L 137.50176 173.39493 
L 138.193949 154.013971 
L 134.43 142.196651 
L 118.999738 133.590571 
L 110.566667 128.322949 
L 109.335569 113.137869 
L 110.566667 109.518104 
L 129.15801 93.757994 
L 134.43 86.797681 
L 142.092626 76.198006 
L 142.379706 60.808896 
L 134.43 54.933507 
L 123.545761 47.600163 
L 119.356056 36.380776 
L 127.372448 26.88 
" clip-path="url(#pe9f0807b1b)" style="fill: none; stroke-dasharray: 1.85,0.8; stroke-dashoffset: 0; stroke: #000000; stroke-width: 0.5"/>
    <path d="M 196.487487 26.88 
L 206.02 35.691901 
L 213.469255 26.88 
M 289.218862 26.88 
L 288.612388 36.380776 
L 287.628594 47.600163 
L 277.61 54.78515 
L 273.073321 47.600163 
L 259.633921 36.380776 
L 253.746667 31.187321 
L 247.960519 36.380776 
L 243.29147 47.600163 
L 239.122481 60.808896 
L 249.304597 76.198006 
L 253.746667 79.390597 
L 265.823625 93.757994 
L 268.531718 96.719781 
M 290.26073 112.157065 
L 292.51321 113.137869 
L 292.34059 133.590571 
L 277.61 141.139831 
L 261.601007 154.013971 
L 253.746667 171.056637 
L 252.925503 173.39493 
L 245.993435 190.956403 
L 229.883333 194.9096 
L 206.02 191.6808 
L 182.156667 203.954382 
L 158.293333 199.904749 
L 144.783426 190.956403 
L 142.880004 173.39493 
L 144.154718 154.013971 
L 140.731417 133.590571 
L 134.43 125.60811 
L 116.440143 113.137869 
L 134.43 95.911564 
L 135.42718 93.757994 
L 147.717703 76.198006 
L 150.651053 60.808896 
L 158.293333 50.384015 
L 160.295946 47.600163 
L 171.248374 36.380776 
L 173.516872 26.88 
M 134.43 31.569184 
L 137.573563 36.380776 
L 145.102063 47.600163 
L 134.43 48.820403 
L 132.618904 47.600163 
L 130.359492 36.380776 
L 134.43 31.569184 
z
M 277.61 184.383179 
L 282.346502 190.956403 
L 277.61 199.849594 
L 261.151449 190.956403 
L 277.61 184.383179 
z
M 110.566667 192.989366 
L 133.331622 206.347113 
L 110.566667 209.166009 
L 109.794157 206.347113 
L 110.566667 192.989366 
z
" clip-path="url(#pe9f0807b1b)" style="fill: none; stroke-dasharray: 1.85,0.8; stroke-dashoffset: 0; stroke: #000000; stroke-width: 0.5"/>
    <path d="M 187.119892 26.88 
L 194.890077 36.380776 
L 206.02 40.103555 
L 229.883333 38.040201 
L 232.899743 47.600163 
L 232.480774 60.808896 
L 237.567558 76.198006 
L 253.746667 87.826204 
L 258.732815 93.757994 
L 269.478776 113.137869 
L 271.541191 133.590571 
L 253.746667 146.718989 
L 249.82408 154.013971 
L 247.76165 160.779165 
M 234.797717 183.348854 
L 229.883333 188.713839 
L 214.398608 173.39493 
L 206.02 163.685317 
L 195.192855 173.39493 
L 195.432453 190.956403 
L 182.156667 197.990454 
L 158.293333 194.554613 
L 152.860879 190.956403 
L 148.258248 173.39493 
L 150.115488 154.013971 
L 152.397732 133.590571 
L 139.378143 113.137869 
L 144.88006 93.757994 
L 153.342781 76.198006 
L 158.293333 62.032983 
L 159.037328 60.808896 
L 168.412567 47.600163 
L 176.561569 36.380776 
L 179.164427 26.88 
M 244.778713 26.88 
L 229.883333 36.010446 
L 220.789633 26.88 
M 283.629303 26.88 
L 277.61 35.786034 
L 263.527289 26.88 
" clip-path="url(#pe9f0807b1b)" style="fill: none; stroke-dasharray: 1.85,0.8; stroke-dashoffset: 0; stroke: #000000; stroke-width: 0.5"/>
    <path d="M 232.788016 26.88 
L 229.883333 28.660488 
L 228.110011 26.88 
M 278.039744 26.88 
L 277.61 27.515841 
L 276.604574 26.88 
M 235.971197 85.922345 
L 247.10375 93.757994 
L 238.019059 113.137869 
L 245.738798 133.590571 
L 238.140095 154.013971 
L 234.905736 173.39493 
L 229.883333 178.877838 
L 224.341077 173.39493 
L 210.439242 154.013971 
L 206.02 150.982355 
L 201.629412 154.013971 
L 182.344831 173.39493 
L 184.176375 190.956403 
L 182.156667 192.026527 
L 173.7093 190.956403 
L 158.293333 186.137429 
L 153.636492 173.39493 
L 156.076257 154.013971 
L 158.293333 145.248171 
L 168.926911 133.590571 
L 163.049551 113.137869 
L 158.293333 103.637064 
L 154.332941 93.757994 
L 158.293333 80.105561 
L 160.573754 76.198006 
L 168.819828 60.808896 
L 176.529187 47.600163 
L 181.874764 36.380776 
L 182.156667 35.417365 
L 182.798225 36.380776 
L 206.02 44.148085 
L 219.049145 47.600163 
L 225.24085 60.808896 
L 225.545272 63.171716 
" clip-path="url(#pe9f0807b1b)" style="fill: none; stroke-dasharray: 1.85,0.8; stroke-dashoffset: 0; stroke: #000000; stroke-width: 0.5"/>
    <path d="M 192.741265 128.826914 
L 182.156667 125.750105 
L 174.853932 113.137869 
L 166.633584 93.757994 
L 179.590922 76.198006 
L 178.602327 60.808896 
L 182.156667 53.64598 
L 206.02 48.760463 
L 217.616721 60.808896 
L 219.5208 76.198006 
L 228.110839 93.757994 
L 223.312588 113.137869 
L 214.894872 122.653967 
" clip-path="url(#pe9f0807b1b)" style="fill: none; stroke-dasharray: 1.85,0.8; stroke-dashoffset: 0; stroke: #000000; stroke-width: 0.5"/>
    <path d="M 184.372301 101.373847 
L 182.156667 97.168476 
L 180.987626 93.757994 
L 182.156667 92.247055 
L 194.917016 76.198006 
L 195.279814 60.808896 
L 206.02 56.681564 
L 209.992592 60.808896 
L 211.818039 76.198006 
L 220.423263 93.757994 
L 213.142107 113.137869 
L 206.02 121.189301 
L 202.802357 119.512467 
" clip-path="url(#pe9f0807b1b)" style="fill: none; stroke-dasharray: 1.85,0.8; stroke-dashoffset: 0; stroke: #000000; stroke-width: 0.5"/>
    <path d="M 197.609444 97.754285 
L 194.3878 93.757994 
L 206.02 80.072009 
L 212.735688 93.757994 
L 211.598666 96.200973 
" clip-path="url(#pe9f0807b1b)" style="fill: none; stroke-dasharray: 1.85,0.8; stroke-dashoffset: 0; stroke: #000000; stroke-width: 0.5"/>
    <path clip-path="url(#pe9f0807b1b)" style="fill: none; stroke-dasharray: 1.85,0.8; stroke-dashoffset: 0; stroke: #000000; stroke-width: 0.5"/>
   </g>
   <g id="patch_3">
    <path d="M 62.84 240.28 
L 62.84 26.88 
" style="fill: none; stroke: #000000; stroke-width: 0.8; stroke-linejoin: miter; stroke-linecap: square"/>
   </g>
   <g id="patch_4">
    <path d="M 349.2 240.28 
L 349.2 26.88 
" style="fill: none; stroke: #000000; stroke-width: 0.8; stroke-linejoin: miter; stroke-linecap: square"/>
   </g>
   <g id="patch_5">
    <path d="M 62.84 240.28 
L 349.2 240.28 
" style="fill: none; stroke: #000000; stroke-width: 0.8; stroke-linejoin: miter; stroke-linecap: square"/>
   </g>
   <g id="patch_6">
    <path d="M 62.84 26.88 
L 349.2 26.88 
" style="fill: none; stroke: #000000; stroke-width: 0.8; stroke-linejoin: miter; stroke-linecap: square"/>
   </g>
   <g id="text_11">
    <!-- Band 5000 -->
    <g transform="translate(173.438125 20.88) scale(0.12 -0.12)">
     <defs>
      <path id="DejaVuSans-42" d="M 1259 2228 
L 1259 519 
L 2272 519 
Q 2781 519 3026 730 
Q 3272 941 3272 1375 
Q 3272 1813 3026 2020 
Q 2781 2228 2272 2228 
L 1259 2228 
z
M 1259 4147 
L 1259 2741 
L 2194 2741 
Q 2656 2741 2882 2914 
Q 3109 3088 3109 3444 
Q 3109 3797 2882 3972 
Q 2656 4147 2194 4147 
L 1259 4147 
z
M 628 4666 
L 2241 4666 
Q 2963 4666 3353 4366 
Q 3744 4066 3744 3513 
Q 3744 3084 3544 2831 
Q 3344 2578 2956 2516 
Q 3422 2416 3680 2098 
Q 3938 1781 3938 1306 
Q 3938 681 3513 340 
Q 3088 0 2303 0 
L 628 0 
L 628 4666 
z
" transform="scale(0.015625)"/>
      <path id="DejaVuSans-61" d="M 2194 1759 
Q 1497 1759 1228 1600 
Q 959 1441 959 1056 
Q 959 750 1161 570 
Q 1363 391 1709 391 
Q 2188 391 2477 730 
Q 2766 1069 2766 1631 
L 2766 1759 
L 2194 1759 
z
M 3341 1997 
L 3341 0 
L 2766 0 
L 2766 531 
Q 2569 213 2275 61 
Q 1981 -91 1556 -91 
Q 1019 -91 701 211 
Q 384 513 384 1019 
Q 384 1609 779 1909 
Q 1175 2209 1959 2209 
L 2766 2209 
L 2766 2266 
Q 2766 2663 2505 2880 
Q 2244 3097 1772 3097 
Q 1472 3097 1187 3025 
Q 903 2953 641 2809 
L 641 3341 
Q 956 3463 1253 3523 
Q 1550 3584 1831 3584 
Q 2591 3584 2966 3190 
Q 3341 2797 3341 1997 
z
" transform="scale(0.015625)"/>
      <path id="DejaVuSans-6e" d="M 3513 2113 
L 3513 0 
L 2938 0 
L 2938 2094 
Q 2938 2591 2744 2837 
Q 2550 3084 2163 3084 
Q 1697 3084 1428 2787 
Q 1159 2491 1159 1978 
L 1159 0 
L 581 0 
L 581 3500 
L 1159 3500 
L 1159 2956 
Q 1366 3272 1645 3428 
Q 1925 3584 2291 3584 
Q 2894 3584 3203 3211 
Q 3513 2838 3513 2113 
z
" transform="scale(0.015625)"/>
      <path id="DejaVuSans-64" d="M 2906 2969 
L 2906 4863 
L 3481 4863 
L 3481 0 
L 2906 0 
L 2906 525 
Q 2725 213 2448 61 
Q 2172 -91 1784 -91 
Q 1150 -91 751 415 
Q 353 922 353 1747 
Q 353 2572 751 3078 
Q 1150 3584 1784 3584 
Q 2172 3584 2448 3432 
Q 2725 3281 2906 2969 
z
M 947 1747 
Q 947 1113 1208 752 
Q 1469 391 1925 391 
Q 2381 391 2643 752 
Q 2906 1113 2906 1747 
Q 2906 2381 2643 2742 
Q 2381 3103 1925 3103 
Q 1469 3103 1208 2742 
Q 947 2381 947 1747 
z
" transform="scale(0.015625)"/>
      <path id="DejaVuSans-20" transform="scale(0.015625)"/>
     </defs>
     <use xlink:href="#DejaVuSans-42"/>
     <use xlink:href="#DejaVuSans-61" transform="translate(68.603516 0)"/>
     <use xlink:href="#DejaVuSans-6e" transform="translate(129.882812 0)"/>
     <use xlink:href="#DejaVuSans-64" transform="translate(193.261719 0)"/>
     <use xlink:href="#DejaVuSans-20" transform="translate(256.738281 0)"/>
     <use xlink:href="#DejaVuSans-35" transform="translate(288.525391 0)"/>
     <use xlink:href="#DejaVuSans-30" transform="translate(352.148438 0)"/>
     <use xlink:href="#DejaVuSans-30" transform="translate(415.771484 0)"/>
     <use xlink:href="#DejaVuSans-30" transform="translate(479.394531 0)"/>
    </g>
   </g>
   <g id="text_12">
    <g clip-path="url(#pe9f0807b1b)">
     <!-- 56.0 -->
     <g transform="translate(327.254976 143.613627) rotate(-89.918445) scale(0.09 -0.09)">
      <defs>
       <path id="DejaVuSans-36" d="M 2113 2584 
Q 1688 2584 1439 2293 
Q 1191 2003 1191 1497 
Q 1191 994 1439 701 
Q 1688 409 2113 409 
Q 2538 409 2786 701 
Q 3034 994 3034 1497 
Q 3034 2003 2786 2293 
Q 2538 2584 2113 2584 
z
M 3366 4563 
L 3366 3988 
Q 3128 4100 2886 4159 
Q 2644 4219 2406 4219 
Q 1781 4219 1451 3797 
Q 1122 3375 1075 2522 
Q 1259 2794 1537 2939 
Q 1816 3084 2150 3084 
Q 2853 3084 3261 2657 
Q 3669 2231 3669 1497 
Q 3669 778 3244 343 
Q 2819 -91 2113 -91 
Q 1303 -91 875 529 
Q 447 1150 447 2328 
Q 447 3434 972 4092 
Q 1497 4750 2381 4750 
Q 2619 4750 2861 4703 
Q 3103 4656 3366 4563 
z
" transform="scale(0.015625)"/>
       <path id="DejaVuSans-2e" d="M 684 794 
L 1344 794 
L 1344 0 
L 684 0 
L 684 794 
z
" transform="scale(0.015625)"/>
      </defs>
      <use xlink:href="#DejaVuSans-35"/>
      <use xlink:href="#DejaVuSans-36" transform="translate(63.623047 0)"/>
      <use xlink:href="#DejaVuSans-2e" transform="translate(127.246094 0)"/>
      <use xlink:href="#DejaVuSans-30" transform="translate(159.033203 0)"/>
     </g>
    </g>
   </g>
   <g id="text_13">
    <g clip-path="url(#pe9f0807b1b)">
     <!-- 56.0 -->
     <g transform="translate(84.779005 123.576957) rotate(-270.135873) scale(0.09 -0.09)">
      <use xlink:href="#DejaVuSans-35"/>
      <use xlink:href="#DejaVuSans-36" transform="translate(63.623047 0)"/>
      <use xlink:href="#DejaVuSans-2e" transform="translate(127.246094 0)"/>
      <use xlink:href="#DejaVuSans-30" transform="translate(159.033203 0)"/>
     </g>
    </g>
   </g>
   <g id="text_14">
    <g clip-path="url(#pe9f0807b1b)">
     <!-- 56.8 -->
     <g transform="translate(325.484399 143.624538) rotate(-89.662946) scale(0.09 -0.09)">
      <defs>
       <path id="DejaVuSans-38" d="M 2034 2216 
Q 1584 2216 1326 1975 
Q 1069 1734 1069 1313 
Q 1069 891 1326 650 
Q 1584 409 2034 409 
Q 2484 409 2743 651 
Q 3003 894 3003 1313 
Q 3003 1734 2745 1975 
Q 2488 2216 2034 2216 
z
M 1403 2484 
Q 997 2584 770 2862 
Q 544 3141 544 3541 
Q 544 4100 942 4425 
Q 1341 4750 2034 4750 
Q 2731 4750 3128 4425 
Q 3525 4100 3525 3541 
Q 3525 3141 3298 2862 
Q 3072 2584 2669 2484 
Q 3125 2378 3379 2068 
Q 3634 1759 3634 1313 
Q 3634 634 3220 271 
Q 2806 -91 2034 -91 
Q 1263 -91 848 271 
Q 434 634 434 1313 
Q 434 1759 690 2068 
Q 947 2378 1403 2484 
z
M 1172 3481 
Q 1172 3119 1398 2916 
Q 1625 2713 2034 2713 
Q 2441 2713 2670 2916 
Q 2900 3119 2900 3481 
Q 2900 3844 2670 4047 
Q 2441 4250 2034 4250 
Q 1625 4250 1398 4047 
Q 1172 3844 1172 3481 
z
" transform="scale(0.015625)"/>
      </defs>
      <use xlink:href="#DejaVuSans-35"/>
      <use xlink:href="#DejaVuSans-36" transform="translate(63.623047 0)"/>
      <use xlink:href="#DejaVuSans-2e" transform="translate(127.246094 0)"/>
      <use xlink:href="#DejaVuSans-38" transform="translate(159.033203 0)"/>
     </g>
    </g>
   </g>
   <g id="text_15">
    <g clip-path="url(#pe9f0807b1b)">
     <!-- 56.8 -->
     <g transform="translate(86.53079 123.59586) rotate(-270.561542) scale(0.09 -0.09)">
      <use xlink:href="#DejaVuSans-35"/>
      <use xlink:href="#DejaVuSans-36" transform="translate(63.623047 0)"/>
      <use xlink:href="#DejaVuSans-2e" transform="translate(127.246094 0)"/>
      <use xlink:href="#DejaVuSans-38" transform="translate(159.033203 0)"/>
     </g>
    </g>
   </g>
   <g id="text_16">
    <g clip-path="url(#pe9f0807b1b)">
     <!-- 57.6 -->
     <g transform="translate(323.713784 143.635247) rotate(-89.407502) scale(0.09 -0.09)">
      <defs>
       <path id="DejaVuSans-37" d="M 525 4666 
L 3525 4666 
L 3525 4397 
L 1831 0 
L 1172 0 
L 2766 4134 
L 525 4134 
L 525 4666 
z
" transform="scale(0.015625)"/>
      </defs>
      <use xlink:href="#DejaVuSans-35"/>
      <use xlink:href="#DejaVuSans-37" transform="translate(63.623047 0)"/>
      <use xlink:href="#DejaVuSans-2e" transform="translate(127.246094 0)"/>
      <use xlink:href="#DejaVuSans-36" transform="translate(159.033203 0)"/>
     </g>
    </g>
   </g>
   <g id="text_17">
    <g clip-path="url(#pe9f0807b1b)">
     <!-- 57.6 -->
     <g transform="translate(88.282729 123.615311) rotate(-270.987141) scale(0.09 -0.09)">
      <use xlink:href="#DejaVuSans-35"/>
      <use xlink:href="#DejaVuSans-37" transform="translate(63.623047 0)"/>
      <use xlink:href="#DejaVuSans-2e" transform="translate(127.246094 0)"/>
      <use xlink:href="#DejaVuSans-36" transform="translate(159.033203 0)"/>
     </g>
    </g>
   </g>
   <g id="text_18">
    <g clip-path="url(#pe9f0807b1b)">
     <!-- 58.4 -->
     <g transform="translate(321.943138 143.645753) rotate(-89.152155) scale(0.09 -0.09)">
      <use xlink:href="#DejaVuSans-35"/>
      <use xlink:href="#DejaVuSans-38" transform="translate(63.623047 0)"/>
      <use xlink:href="#DejaVuSans-2e" transform="translate(127.246094 0)"/>
      <use xlink:href="#DejaVuSans-34" transform="translate(159.033203 0)"/>
     </g>
    </g>
   </g>
   <g id="text_19">
    <g clip-path="url(#pe9f0807b1b)">
     <!-- 58.4 -->
     <g transform="translate(90.034837 123.635307) rotate(-271.412616) scale(0.09 -0.09)">
      <use xlink:href="#DejaVuSans-35"/>
      <use xlink:href="#DejaVuSans-38" transform="translate(63.623047 0)"/>
      <use xlink:href="#DejaVuSans-2e" transform="translate(127.246094 0)"/>
      <use xlink:href="#DejaVuSans-34" transform="translate(159.033203 0)"/>
     </g>
    </g>
   </g>
   <g id="text_20">
    <g clip-path="url(#pe9f0807b1b)">
     <!-- 59.2 -->
     <g transform="translate(320.17247 143.656053) rotate(-88.896945) scale(0.09 -0.09)">
      <defs>
       <path id="DejaVuSans-39" d="M 703 97 
L 703 672 
Q 941 559 1184 500 
Q 1428 441 1663 441 
Q 2288 441 2617 861 
Q 2947 1281 2994 2138 
Q 2813 1869 2534 1725 
Q 2256 1581 1919 1581 
Q 1219 1581 811 2004 
Q 403 2428 403 3163 
Q 403 3881 828 4315 
Q 1253 4750 1959 4750 
Q 2769 4750 3195 4129 
Q 3622 3509 3622 2328 
Q 3622 1225 3098 567 
Q 2575 -91 1691 -91 
Q 1453 -91 1209 -44 
Q 966 3 703 97 
z
M 1959 2075 
Q 2384 2075 2632 2365 
Q 2881 2656 2881 3163 
Q 2881 3666 2632 3958 
Q 2384 4250 1959 4250 
Q 1534 4250 1286 3958 
Q 1038 3666 1038 3163 
Q 1038 2656 1286 2365 
Q 1534 2075 1959 2075 
z
" transform="scale(0.015625)"/>
      </defs>
      <use xlink:href="#DejaVuSans-35"/>
      <use xlink:href="#DejaVuSans-39" transform="translate(63.623047 0)"/>
      <use xlink:href="#DejaVuSans-2e" transform="translate(127.246094 0)"/>
      <use xlink:href="#DejaVuSans-32" transform="translate(159.033203 0)"/>
     </g>
    </g>
   </g>
   <g id="text_21">
    <g clip-path="url(#pe9f0807b1b)">
     <!-- 59.2 -->
     <g transform="translate(91.787126 123.655843) rotate(-271.837913) scale(0.09 -0.09)">
      <use xlink:href="#DejaVuSans-35"/>
      <use xlink:href="#DejaVuSans-39" transform="translate(63.623047 0)"/>
      <use xlink:href="#DejaVuSans-2e" transform="translate(127.246094 0)"/>
      <use xlink:href="#DejaVuSans-32" transform="translate(159.033203 0)"/>
     </g>
    </g>
   </g>
   <g id="text_22">
    <g clip-path="url(#pe9f0807b1b)">
     <!-- 60.0 -->
     <g transform="translate(318.401788 143.666147) rotate(-88.641913) scale(0.09 -0.09)">
      <use xlink:href="#DejaVuSans-36"/>
      <use xlink:href="#DejaVuSans-30" transform="translate(63.623047 0)"/>
      <use xlink:href="#DejaVuSans-2e" transform="translate(127.246094 0)"/>
      <use xlink:href="#DejaVuSans-30" transform="translate(159.033203 0)"/>
     </g>
    </g>
   </g>
   <g id="text_23">
    <g clip-path="url(#pe9f0807b1b)">
     <!-- 60.0 -->
     <g transform="translate(93.53961 123.676915) rotate(-272.262979) scale(0.09 -0.09)">
      <use xlink:href="#DejaVuSans-36"/>
      <use xlink:href="#DejaVuSans-30" transform="translate(63.623047 0)"/>
      <use xlink:href="#DejaVuSans-2e" transform="translate(127.246094 0)"/>
      <use xlink:href="#DejaVuSans-30" transform="translate(159.033203 0)"/>
     </g>
    </g>
   </g>
   <g id="text_24">
    <g clip-path="url(#pe9f0807b1b)">
     <!-- 60.8 -->
     <g transform="translate(316.6311 143.676033) rotate(-88.387102) scale(0.09 -0.09)">
      <use xlink:href="#DejaVuSans-36"/>
      <use xlink:href="#DejaVuSans-30" transform="translate(63.623047 0)"/>
      <use xlink:href="#DejaVuSans-2e" transform="translate(127.246094 0)"/>
      <use xlink:href="#DejaVuSans-38" transform="translate(159.033203 0)"/>
     </g>
    </g>
   </g>
   <g id="text_25">
    <g clip-path="url(#pe9f0807b1b)">
     <!-- 60.8 -->
     <g transform="translate(95.2923 123.698518) rotate(-272.687761) scale(0.09 -0.09)">
      <use xlink:href="#DejaVuSans-36"/>
      <use xlink:href="#DejaVuSans-30" transform="translate(63.623047 0)"/>
      <use xlink:href="#DejaVuSans-2e" transform="translate(127.246094 0)"/>
      <use xlink:href="#DejaVuSans-38" transform="translate(159.033203 0)"/>
     </g>
    </g>
   </g>
   <g id="text_26">
    <g clip-path="url(#pe9f0807b1b)">
     <!-- 61.6 -->
     <g transform="translate(314.860415 143.685709) rotate(-88.132551) scale(0.09 -0.09)">
      <defs>
       <path id="DejaVuSans-31" d="M 794 531 
L 1825 531 
L 1825 4091 
L 703 3866 
L 703 4441 
L 1819 4666 
L 2450 4666 
L 2450 531 
L 3481 531 
L 3481 0 
L 794 0 
L 794 531 
z
" transform="scale(0.015625)"/>
      </defs>
      <use xlink:href="#DejaVuSans-36"/>
      <use xlink:href="#DejaVuSans-31" transform="translate(63.623047 0)"/>
      <use xlink:href="#DejaVuSans-2e" transform="translate(127.246094 0)"/>
      <use xlink:href="#DejaVuSans-36" transform="translate(159.033203 0)"/>
     </g>
    </g>
   </g>
   <g id="text_27">
    <g clip-path="url(#pe9f0807b1b)">
     <!-- 61.6 -->
     <g transform="translate(97.045212 123.720647) rotate(-273.112205) scale(0.09 -0.09)">
      <use xlink:href="#DejaVuSans-36"/>
      <use xlink:href="#DejaVuSans-31" transform="translate(63.623047 0)"/>
      <use xlink:href="#DejaVuSans-2e" transform="translate(127.246094 0)"/>
      <use xlink:href="#DejaVuSans-36" transform="translate(159.033203 0)"/>
     </g>
    </g>
   </g>
   <g id="text_28">
    <g clip-path="url(#pe9f0807b1b)">
     <!-- 62.4 -->
     <g transform="translate(313.08974 143.695175) rotate(-87.878301) scale(0.09 -0.09)">
      <use xlink:href="#DejaVuSans-36"/>
      <use xlink:href="#DejaVuSans-32" transform="translate(63.623047 0)"/>
      <use xlink:href="#DejaVuSans-2e" transform="translate(127.246094 0)"/>
      <use xlink:href="#DejaVuSans-34" transform="translate(159.033203 0)"/>
     </g>
    </g>
   </g>
   <g id="text_29">
    <g clip-path="url(#pe9f0807b1b)">
     <!-- 62.4 -->
     <g transform="translate(102.274802 123.360309) rotate(-84.071917) scale(0.09 -0.09)">
      <use xlink:href="#DejaVuSans-36"/>
      <use xlink:href="#DejaVuSans-32" transform="translate(63.623047 0)"/>
      <use xlink:href="#DejaVuSans-2e" transform="translate(127.246094 0)"/>
      <use xlink:href="#DejaVuSans-34" transform="translate(159.033203 0)"/>
     </g>
    </g>
   </g>
   <g id="text_30">
    <g clip-path="url(#pe9f0807b1b)">
     <!-- 63.2 -->
     <g transform="translate(311.319084 143.70443) rotate(-87.624393) scale(0.09 -0.09)">
      <defs>
       <path id="DejaVuSans-33" d="M 2597 2516 
Q 3050 2419 3304 2112 
Q 3559 1806 3559 1356 
Q 3559 666 3084 287 
Q 2609 -91 1734 -91 
Q 1441 -91 1130 -33 
Q 819 25 488 141 
L 488 750 
Q 750 597 1062 519 
Q 1375 441 1716 441 
Q 2309 441 2620 675 
Q 2931 909 2931 1356 
Q 2931 1769 2642 2001 
Q 2353 2234 1838 2234 
L 1294 2234 
L 1294 2753 
L 1863 2753 
Q 2328 2753 2575 2939 
Q 2822 3125 2822 3475 
Q 2822 3834 2567 4026 
Q 2313 4219 1838 4219 
Q 1578 4219 1281 4162 
Q 984 4106 628 3988 
L 628 4550 
Q 988 4650 1302 4700 
Q 1616 4750 1894 4750 
Q 2613 4750 3031 4423 
Q 3450 4097 3450 3541 
Q 3450 3153 3228 2886 
Q 3006 2619 2597 2516 
z
" transform="scale(0.015625)"/>
      </defs>
      <use xlink:href="#DejaVuSans-36"/>
      <use xlink:href="#DejaVuSans-33" transform="translate(63.623047 0)"/>
      <use xlink:href="#DejaVuSans-2e" transform="translate(127.246094 0)"/>
      <use xlink:href="#DejaVuSans-32" transform="translate(159.033203 0)"/>
     </g>
    </g>
   </g>
   <g id="text_31">
    <g clip-path="url(#pe9f0807b1b)">
     <!-- 63.2 -->
     <g transform="translate(103.854648 123.37636) rotate(-83.403363) scale(0.09 -0.09)">
      <use xlink:href="#DejaVuSans-36"/>
      <use xlink:href="#DejaVuSans-33" transform="translate(63.623047 0)"/>
      <use xlink:href="#DejaVuSans-2e" transform="translate(127.246094 0)"/>
      <use xlink:href="#DejaVuSans-32" transform="translate(159.033203 0)"/>
     </g>
    </g>
   </g>
   <g id="text_32">
    <g clip-path="url(#pe9f0807b1b)">
     <!-- 63.2 -->
     <g transform="translate(149.763747 224.89606) rotate(-311.799022) scale(0.09 -0.09)">
      <use xlink:href="#DejaVuSans-36"/>
      <use xlink:href="#DejaVuSans-33" transform="translate(63.623047 0)"/>
      <use xlink:href="#DejaVuSans-2e" transform="translate(127.246094 0)"/>
      <use xlink:href="#DejaVuSans-32" transform="translate(159.033203 0)"/>
     </g>
    </g>
   </g>
   <g id="text_33">
    <g clip-path="url(#pe9f0807b1b)">
     <!-- 63.2 -->
     <g transform="translate(267.534471 227.326731) rotate(-333.515358) scale(0.09 -0.09)">
      <use xlink:href="#DejaVuSans-36"/>
      <use xlink:href="#DejaVuSans-33" transform="translate(63.623047 0)"/>
      <use xlink:href="#DejaVuSans-2e" transform="translate(127.246094 0)"/>
      <use xlink:href="#DejaVuSans-32" transform="translate(159.033203 0)"/>
     </g>
    </g>
   </g>
   <g id="text_34">
    <g clip-path="url(#pe9f0807b1b)">
     <!-- 64.0 -->
     <g transform="translate(304.47698 103.271785) rotate(-273.184817) scale(0.09 -0.09)">
      <use xlink:href="#DejaVuSans-36"/>
      <use xlink:href="#DejaVuSans-34" transform="translate(63.623047 0)"/>
      <use xlink:href="#DejaVuSans-2e" transform="translate(127.246094 0)"/>
      <use xlink:href="#DejaVuSans-30" transform="translate(159.033203 0)"/>
     </g>
    </g>
   </g>
   <g id="text_35">
    <g clip-path="url(#pe9f0807b1b)">
     <!-- 64.0 -->
     <g transform="translate(105.459307 123.388071) rotate(-82.874487) scale(0.09 -0.09)">
      <use xlink:href="#DejaVuSans-36"/>
      <use xlink:href="#DejaVuSans-34" transform="translate(63.623047 0)"/>
      <use xlink:href="#DejaVuSans-2e" transform="translate(127.246094 0)"/>
      <use xlink:href="#DejaVuSans-30" transform="translate(159.033203 0)"/>
     </g>
    </g>
   </g>
   <g id="text_36">
    <g clip-path="url(#pe9f0807b1b)">
     <!-- 64.0 -->
     <g transform="translate(152.299029 219.603253) rotate(-346.333945) scale(0.09 -0.09)">
      <use xlink:href="#DejaVuSans-36"/>
      <use xlink:href="#DejaVuSans-34" transform="translate(63.623047 0)"/>
      <use xlink:href="#DejaVuSans-2e" transform="translate(127.246094 0)"/>
      <use xlink:href="#DejaVuSans-30" transform="translate(159.033203 0)"/>
     </g>
    </g>
   </g>
   <g id="text_37">
    <g clip-path="url(#pe9f0807b1b)">
     <!-- 64.0 -->
     <g transform="translate(244.274101 228.498505) rotate(-9.495366) scale(0.09 -0.09)">
      <use xlink:href="#DejaVuSans-36"/>
      <use xlink:href="#DejaVuSans-34" transform="translate(63.623047 0)"/>
      <use xlink:href="#DejaVuSans-2e" transform="translate(127.246094 0)"/>
      <use xlink:href="#DejaVuSans-30" transform="translate(159.033203 0)"/>
     </g>
    </g>
   </g>
   <g id="text_38">
    <g clip-path="url(#pe9f0807b1b)">
     <!-- 64.8 -->
     <g transform="translate(302.697158 103.288129) rotate(-273.490585) scale(0.09 -0.09)">
      <use xlink:href="#DejaVuSans-36"/>
      <use xlink:href="#DejaVuSans-34" transform="translate(63.623047 0)"/>
      <use xlink:href="#DejaVuSans-2e" transform="translate(127.246094 0)"/>
      <use xlink:href="#DejaVuSans-38" transform="translate(159.033203 0)"/>
     </g>
    </g>
   </g>
   <g id="text_39">
    <g clip-path="url(#pe9f0807b1b)">
     <!-- 64.8 -->
     <g transform="translate(219.591157 233.477539) rotate(-350.487599) scale(0.09 -0.09)">
      <use xlink:href="#DejaVuSans-36"/>
      <use xlink:href="#DejaVuSans-34" transform="translate(63.623047 0)"/>
      <use xlink:href="#DejaVuSans-2e" transform="translate(127.246094 0)"/>
      <use xlink:href="#DejaVuSans-38" transform="translate(159.033203 0)"/>
     </g>
    </g>
   </g>
   <g id="text_40">
    <g clip-path="url(#pe9f0807b1b)">
     <!-- 64.8 -->
     <g transform="translate(127.973863 225.044796) rotate(-18.192051) scale(0.09 -0.09)">
      <use xlink:href="#DejaVuSans-36"/>
      <use xlink:href="#DejaVuSans-34" transform="translate(63.623047 0)"/>
      <use xlink:href="#DejaVuSans-2e" transform="translate(127.246094 0)"/>
      <use xlink:href="#DejaVuSans-38" transform="translate(159.033203 0)"/>
     </g>
    </g>
   </g>
   <g id="text_41">
    <g clip-path="url(#pe9f0807b1b)">
     <!-- 65.6 -->
     <g transform="translate(121.013094 144.324552) rotate(-276.253149) scale(0.09 -0.09)">
      <use xlink:href="#DejaVuSans-36"/>
      <use xlink:href="#DejaVuSans-35" transform="translate(63.623047 0)"/>
      <use xlink:href="#DejaVuSans-2e" transform="translate(127.246094 0)"/>
      <use xlink:href="#DejaVuSans-36" transform="translate(159.033203 0)"/>
     </g>
    </g>
   </g>
   <g id="text_42">
    <g clip-path="url(#pe9f0807b1b)">
     <!-- 65.6 -->
     <g transform="translate(219.667047 238.033083) rotate(-354.31391) scale(0.09 -0.09)">
      <use xlink:href="#DejaVuSans-36"/>
      <use xlink:href="#DejaVuSans-35" transform="translate(63.623047 0)"/>
      <use xlink:href="#DejaVuSans-2e" transform="translate(127.246094 0)"/>
      <use xlink:href="#DejaVuSans-36" transform="translate(159.033203 0)"/>
     </g>
    </g>
   </g>
   <g id="text_43">
    <g clip-path="url(#pe9f0807b1b)">
     <!-- 66.4 -->
     <g transform="translate(148.621199 47.35058) rotate(-6.529524) scale(0.09 -0.09)">
      <use xlink:href="#DejaVuSans-36"/>
      <use xlink:href="#DejaVuSans-36" transform="translate(63.623047 0)"/>
      <use xlink:href="#DejaVuSans-2e" transform="translate(127.246094 0)"/>
      <use xlink:href="#DejaVuSans-34" transform="translate(159.033203 0)"/>
     </g>
    </g>
   </g>
   <g id="text_44">
    <g clip-path="url(#pe9f0807b1b)">
     <!-- 66.4 -->
     <g transform="translate(251.065728 70.049061) rotate(-309.518737) scale(0.09 -0.09)">
      <use xlink:href="#DejaVuSans-36"/>
      <use xlink:href="#DejaVuSans-36" transform="translate(63.623047 0)"/>
      <use xlink:href="#DejaVuSans-2e" transform="translate(127.246094 0)"/>
      <use xlink:href="#DejaVuSans-34" transform="translate(159.033203 0)"/>
     </g>
    </g>
   </g>
   <g id="text_45">
    <g clip-path="url(#pe9f0807b1b)">
     <!-- 67.2 -->
     <g transform="translate(268.124327 102.576606) rotate(-322.84685) scale(0.09 -0.09)">
      <use xlink:href="#DejaVuSans-36"/>
      <use xlink:href="#DejaVuSans-37" transform="translate(63.623047 0)"/>
      <use xlink:href="#DejaVuSans-2e" transform="translate(127.246094 0)"/>
      <use xlink:href="#DejaVuSans-32" transform="translate(159.033203 0)"/>
     </g>
    </g>
   </g>
   <g id="text_46">
    <g clip-path="url(#pe9f0807b1b)">
     <!-- 68.0 -->
     <g transform="translate(241.351384 183.394088) rotate(-61.695965) scale(0.09 -0.09)">
      <use xlink:href="#DejaVuSans-36"/>
      <use xlink:href="#DejaVuSans-38" transform="translate(63.623047 0)"/>
      <use xlink:href="#DejaVuSans-2e" transform="translate(127.246094 0)"/>
      <use xlink:href="#DejaVuSans-30" transform="translate(159.033203 0)"/>
     </g>
    </g>
   </g>
   <g id="text_47">
    <g clip-path="url(#pe9f0807b1b)">
     <!-- 68.8 -->
     <g transform="translate(221.325301 67.726347) rotate(-290.926196) scale(0.09 -0.09)">
      <use xlink:href="#DejaVuSans-36"/>
      <use xlink:href="#DejaVuSans-38" transform="translate(63.623047 0)"/>
      <use xlink:href="#DejaVuSans-2e" transform="translate(127.246094 0)"/>
      <use xlink:href="#DejaVuSans-38" transform="translate(159.033203 0)"/>
     </g>
    </g>
   </g>
   <g id="text_48">
    <g clip-path="url(#pe9f0807b1b)">
     <!-- 69.6 -->
     <g transform="translate(197.12314 137.921791) rotate(-16.551813) scale(0.09 -0.09)">
      <use xlink:href="#DejaVuSans-36"/>
      <use xlink:href="#DejaVuSans-39" transform="translate(63.623047 0)"/>
      <use xlink:href="#DejaVuSans-2e" transform="translate(127.246094 0)"/>
      <use xlink:href="#DejaVuSans-36" transform="translate(159.033203 0)"/>
     </g>
    </g>
   </g>
   <g id="text_49">
    <g clip-path="url(#pe9f0807b1b)">
     <!-- 70.4 -->
     <g transform="translate(181.861166 107.596211) rotate(-313.610381) scale(0.09 -0.09)">
      <use xlink:href="#DejaVuSans-37"/>
      <use xlink:href="#DejaVuSans-30" transform="translate(63.623047 0)"/>
      <use xlink:href="#DejaVuSans-2e" transform="translate(127.246094 0)"/>
      <use xlink:href="#DejaVuSans-34" transform="translate(159.033203 0)"/>
     </g>
    </g>
   </g>
   <g id="text_50">
    <g clip-path="url(#pe9f0807b1b)">
     <!-- 71.2 -->
     <g transform="translate(196.362076 111.831746) rotate(-6.754081) scale(0.09 -0.09)">
      <use xlink:href="#DejaVuSans-37"/>
      <use xlink:href="#DejaVuSans-31" transform="translate(63.623047 0)"/>
      <use xlink:href="#DejaVuSans-2e" transform="translate(127.246094 0)"/>
      <use xlink:href="#DejaVuSans-32" transform="translate(159.033203 0)"/>
     </g>
    </g>
   </g>
  </g>
 </g>
 <defs>
  <clipPath id="pe9f0807b1b">
   <rect x="62.84" y="26.88" width="286.36" height="213.4"/>
  </clipPath>
 </defs>
</svg>
