<?xml version="1.0" encoding="utf-8" standalone="no"?>
<!DOCTYPE svg PUBLIC "-//W3C//DTD SVG 1.1//EN"
  "http://www.w3.org/Graphics/SVG/1.1/DTD/svg11.dtd">
<svg xmlns:xlink="http://www.w3.org/1999/xlink" width="360pt" height="288pt" viewBox="0 0 360 288" xmlns="http://www.w3.org/2000/svg" version="1.1">
 <metadata>
  <rdf:RDF xmlns:dc="http://purl.org/dc/elements/1.1/" xmlns:cc="http://creativecommons.org/ns#" xmlns:rdf="http://www.w3.org/1999/02/22-rdf-syntax-ns#">
   <cc:Work>
    <dc:type rdf:resource="http://purl.org/dc/dcmitype/StillImage"/>
    <dc:date>2025-10-02T17:14:30.232931</dc:date>
    <dc:format>image/svg+xml</dc:format>
    <dc:creator>
     <cc:Agent>
      <dc:title>Matplotlib v3.10.6, https://matplotlib.org/</dc:title>
     </cc:Agent>
    </dc:creator>
   </cc:Work>
  </rdf:RDF>
 </metadata>
 <defs>
  <style type="text/css">*{stroke-linejoin: round; stroke-linecap: butt}</style>
 </defs>
 <g id="figure_1">
  <g id="patch_1">
   <path d="M 0 288 
L 360 288 
L 360 0 
L 0 0 
z
" style="fill: #ffffff"/>
  </g>
  <g id="axes_1">
   <g id="patch_2">
    <path d="M 62.84 240.28 
L 349.2 240.28 
L 349.2 26.88 
L 62.84 26.88 
z
" style="fill: #ffffff"/>
   </g>
   <g id="QuadContourSet_1">
    <path d="M 86.703333 26.88 
L 87.986099 26.88 
L 88.023285 36.380776 
L 88.077989 47.600163 
L 87.884683 60.808896 
L 87.84916 76.198006 
L 88.018632 93.757994 
L 88.119205 113.137869 
L 88.145367 133.590571 
L 88.250653 154.013971 
L 88.101256 173.39493 
L 88.076387 190.956403 
L 88.218843 206.347113 
L 88.116565 219.557363 
L 88.333697 230.778089 
L 88.912295 240.28 
L 86.703333 240.28 
L 62.84 240.28 
L 62.84 230.778089 
L 62.84 219.557363 
L 62.84 206.347113 
L 62.84 190.956403 
L 62.84 173.39493 
L 62.84 154.013971 
L 62.84 133.590571 
L 62.84 113.137869 
L 62.84 93.757994 
L 62.84 76.198006 
L 62.84 60.808896 
L 62.84 47.600163 
L 62.84 36.380776 
L 62.84 26.88 
z
M 325.336667 26.88 
L 349.2 26.88 
L 349.2 36.380776 
L 349.2 47.600163 
L 349.2 60.808896 
L 349.2 76.198006 
L 349.2 93.757994 
L 349.2 113.137869 
L 349.2 133.590571 
L 349.2 154.013971 
L 349.2 173.39493 
L 349.2 190.956403 
L 349.2 206.347113 
L 349.2 219.557363 
L 349.2 230.778089 
L 349.2 240.28 
L 325.336667 240.28 
L 322.913473 240.28 
L 322.399059 230.778089 
L 323.083792 219.557363 
L 323.212494 206.347113 
L 323.266358 190.956403 
L 323.450989 173.39493 
L 324.042004 154.013971 
L 323.699195 133.590571 
L 323.239791 113.137869 
L 323.628534 93.757994 
L 323.735202 76.198006 
L 323.723794 60.808896 
L 323.368766 47.600163 
L 323.835491 36.380776 
L 323.836891 26.88 
z
" clip-path="url(#p294d94bfa3)" style="fill: #470d60"/>
    <path d="M 89.961385 36.380776 
L 90.096412 47.600163 
L 89.619274 60.808896 
L 89.531592 76.198006 
L 89.949902 93.757994 
L 90.198148 113.137869 
L 90.262722 133.590571 
L 90.522601 154.013971 
L 90.153843 173.39493 
L 90.092458 190.956403 
L 90.444086 206.347113 
L 90.19163 219.557363 
L 90.72758 230.778089 
L 92.155741 240.28 
L 88.912295 240.28 
L 88.333697 230.778089 
L 88.116565 219.557363 
L 88.218843 206.347113 
L 88.076387 190.956403 
L 88.101256 173.39493 
L 88.250653 154.013971 
L 88.145367 133.590571 
L 88.119205 113.137869 
L 88.018632 93.757994 
L 87.84916 76.198006 
L 87.884683 60.808896 
L 88.077989 47.600163 
L 88.023285 36.380776 
L 87.986099 26.88 
L 89.869601 26.88 
z
M 323.835491 36.380776 
L 323.368766 47.600163 
L 323.723794 60.808896 
L 323.735202 76.198006 
L 323.628534 93.757994 
L 323.239791 113.137869 
L 323.699195 133.590571 
L 324.042004 154.013971 
L 323.450989 173.39493 
L 323.266358 190.956403 
L 323.212494 206.347113 
L 323.083792 219.557363 
L 322.399059 230.778089 
L 322.913473 240.28 
L 319.355467 240.28 
L 318.085732 230.778089 
L 319.775868 219.557363 
L 320.093544 206.347113 
L 320.226498 190.956403 
L 320.682226 173.39493 
L 322.141034 154.013971 
L 321.294874 133.590571 
L 320.160923 113.137869 
L 321.120462 93.757994 
L 321.383753 76.198006 
L 321.355593 60.808896 
L 320.479274 47.600163 
L 321.631297 36.380776 
L 321.634751 26.88 
L 323.836891 26.88 
z
" clip-path="url(#p294d94bfa3)" style="fill: #482475"/>
    <path d="M 91.899486 36.380776 
L 92.114835 47.600163 
L 91.353865 60.808896 
L 91.214025 76.198006 
L 91.881172 93.757994 
L 92.277091 113.137869 
L 92.380078 133.590571 
L 92.794549 154.013971 
L 92.20643 173.39493 
L 92.108529 190.956403 
L 92.669328 206.347113 
L 92.266696 219.557363 
L 93.121464 230.778089 
L 95.399187 240.28 
L 92.155741 240.28 
L 90.72758 230.778089 
L 90.19163 219.557363 
L 90.444086 206.347113 
L 90.092458 190.956403 
L 90.153843 173.39493 
L 90.522601 154.013971 
L 90.262722 133.590571 
L 90.198148 113.137869 
L 89.949902 93.757994 
L 89.531592 76.198006 
L 89.619274 60.808896 
L 90.096412 47.600163 
L 89.961385 36.380776 
L 89.869601 26.88 
L 91.753102 26.88 
z
M 321.631297 36.380776 
L 320.479274 47.600163 
L 321.355593 60.808896 
L 321.383753 76.198006 
L 321.120462 93.757994 
L 320.160923 113.137869 
L 321.294874 133.590571 
L 322.141034 154.013971 
L 320.682226 173.39493 
L 320.226498 190.956403 
L 320.093544 206.347113 
L 319.775868 219.557363 
L 318.085732 230.778089 
L 319.355467 240.28 
L 315.797462 240.28 
L 313.772405 230.778089 
L 316.467943 219.557363 
L 316.974594 206.347113 
L 317.186638 190.956403 
L 317.913462 173.39493 
L 320.240064 154.013971 
L 318.890554 133.590571 
L 317.082054 113.137869 
L 318.61239 93.757994 
L 319.032303 76.198006 
L 318.987392 60.808896 
L 317.589781 47.600163 
L 319.427103 36.380776 
L 319.432611 26.88 
L 321.634751 26.88 
z
" clip-path="url(#p294d94bfa3)" style="fill: #443983"/>
    <path d="M 93.837587 36.380776 
L 94.133259 47.600163 
L 93.088456 60.808896 
L 92.896457 76.198006 
L 93.812442 93.757994 
L 94.356033 113.137869 
L 94.497433 133.590571 
L 95.066497 154.013971 
L 94.259017 173.39493 
L 94.1246 190.956403 
L 94.89457 206.347113 
L 94.341761 219.557363 
L 95.515347 230.778089 
L 98.642634 240.28 
L 95.399187 240.28 
L 93.121464 230.778089 
L 92.266696 219.557363 
L 92.669328 206.347113 
L 92.108529 190.956403 
L 92.20643 173.39493 
L 92.794549 154.013971 
L 92.380078 133.590571 
L 92.277091 113.137869 
L 91.881172 93.757994 
L 91.214025 76.198006 
L 91.353865 60.808896 
L 92.114835 47.600163 
L 91.899486 36.380776 
L 91.753102 26.88 
L 93.636603 26.88 
z
M 319.427103 36.380776 
L 317.589781 47.600163 
L 318.987392 60.808896 
L 319.032303 76.198006 
L 318.61239 93.757994 
L 317.082054 113.137869 
L 318.890554 133.590571 
L 320.240064 154.013971 
L 317.913462 173.39493 
L 317.186638 190.956403 
L 316.974594 206.347113 
L 316.467943 219.557363 
L 313.772405 230.778089 
L 315.797462 240.28 
L 312.239456 240.28 
L 309.459079 230.778089 
L 313.160019 219.557363 
L 313.855644 206.347113 
L 314.146778 190.956403 
L 315.144699 173.39493 
L 318.339094 154.013971 
L 316.486234 133.590571 
L 314.003186 113.137869 
L 316.104318 93.757994 
L 316.680853 76.198006 
L 316.619191 60.808896 
L 314.700289 47.600163 
L 317.222909 36.380776 
L 317.230472 26.88 
L 319.432611 26.88 
z
" clip-path="url(#p294d94bfa3)" style="fill: #3d4d8a"/>
    <path d="M 95.775688 36.380776 
L 96.151682 47.600163 
L 94.823047 60.808896 
L 94.578889 76.198006 
L 95.743712 93.757994 
L 96.434976 113.137869 
L 96.614789 133.590571 
L 97.338445 154.013971 
L 96.311604 173.39493 
L 96.140671 190.956403 
L 97.119813 206.347113 
L 96.416826 219.557363 
L 97.90923 230.778089 
L 101.88608 240.28 
L 98.642634 240.28 
L 95.515347 230.778089 
L 94.341761 219.557363 
L 94.89457 206.347113 
L 94.1246 190.956403 
L 94.259017 173.39493 
L 95.066497 154.013971 
L 94.497433 133.590571 
L 94.356033 113.137869 
L 93.812442 93.757994 
L 92.896457 76.198006 
L 93.088456 60.808896 
L 94.133259 47.600163 
L 93.837587 36.380776 
L 93.636603 26.88 
L 95.520105 26.88 
z
M 317.222909 36.380776 
L 314.700289 47.600163 
L 316.619191 60.808896 
L 316.680853 76.198006 
L 316.104318 93.757994 
L 314.003186 113.137869 
L 316.486234 133.590571 
L 318.339094 154.013971 
L 315.144699 173.39493 
L 314.146778 190.956403 
L 313.855644 206.347113 
L 313.160019 219.557363 
L 309.459079 230.778089 
L 312.239456 240.28 
L 308.68145 240.28 
L 305.145752 230.778089 
L 309.852095 219.557363 
L 310.736694 206.347113 
L 311.106917 190.956403 
L 312.375935 173.39493 
L 316.438124 154.013971 
L 314.081914 133.590571 
L 310.924318 113.137869 
L 313.596246 93.757994 
L 314.329403 76.198006 
L 314.25099 60.808896 
L 311.810796 47.600163 
L 315.018714 36.380776 
L 315.028332 26.88 
L 317.230472 26.88 
z
M 253.746667 216.708688 
L 263.120413 219.557363 
L 253.746667 221.586567 
L 249.271641 219.557363 
z
M 229.883333 228.115548 
L 235.355957 230.778089 
L 229.883333 237.290122 
L 222.218861 230.778089 
z
" clip-path="url(#p294d94bfa3)" style="fill: #355f8d"/>
    <path d="M 97.713789 36.380776 
L 98.170106 47.600163 
L 96.557638 60.808896 
L 96.261321 76.198006 
L 97.674982 93.757994 
L 98.513919 113.137869 
L 98.732144 133.590571 
L 99.610393 154.013971 
L 98.364191 173.39493 
L 98.156742 190.956403 
L 99.345055 206.347113 
L 98.491892 219.557363 
L 100.303113 230.778089 
L 105.129526 240.28 
L 101.88608 240.28 
L 97.90923 230.778089 
L 96.416826 219.557363 
L 97.119813 206.347113 
L 96.140671 190.956403 
L 96.311604 173.39493 
L 97.338445 154.013971 
L 96.614789 133.590571 
L 96.434976 113.137869 
L 95.743712 93.757994 
L 94.578889 76.198006 
L 94.823047 60.808896 
L 96.151682 47.600163 
L 95.775688 36.380776 
L 95.520105 26.88 
L 97.403606 26.88 
z
M 315.018714 36.380776 
L 311.810796 47.600163 
L 314.25099 60.808896 
L 314.329403 76.198006 
L 313.596246 93.757994 
L 310.924318 113.137869 
L 314.081914 133.590571 
L 316.438124 154.013971 
L 312.375935 173.39493 
L 311.106917 190.956403 
L 310.736694 206.347113 
L 309.852095 219.557363 
L 305.145752 230.778089 
L 308.68145 240.28 
L 305.123445 240.28 
L 301.473333 231.980216 
L 277.61 233.166403 
L 267.816288 230.778089 
L 253.746667 225.602653 
L 243.391478 230.778089 
L 253.746667 239.202443 
L 255.133336 240.28 
L 253.746667 240.28 
L 229.883333 240.28 
L 221.219068 240.28 
L 210.965021 230.778089 
L 229.883333 224.206107 
L 240.414922 219.557363 
L 253.746667 211.070751 
L 277.61 215.342861 
L 280.592715 219.557363 
L 301.473333 229.78657 
L 306.544171 219.557363 
L 307.617744 206.347113 
L 308.067057 190.956403 
L 309.607171 173.39493 
L 314.537154 154.013971 
L 311.677593 133.590571 
L 307.845449 113.137869 
L 311.088174 93.757994 
L 311.977953 76.198006 
L 311.882789 60.808896 
L 308.921303 47.600163 
L 312.81452 36.380776 
L 312.826192 26.88 
L 315.028332 26.88 
z
M 249.271641 219.557363 
L 253.746667 221.586567 
L 263.120413 219.557363 
L 253.746667 216.708688 
z
M 222.218861 230.778089 
L 229.883333 237.290122 
L 235.355957 230.778089 
L 229.883333 228.115548 
z
M 253.746667 187.766646 
L 262.740982 190.956403 
L 253.746667 196.902496 
L 232.815806 190.956403 
z
" clip-path="url(#p294d94bfa3)" style="fill: #2d708e"/>
    <path d="M 99.65189 36.380776 
L 100.188529 47.600163 
L 98.292229 60.808896 
L 97.943753 76.198006 
L 99.606252 93.757994 
L 100.592861 113.137869 
L 100.8495 133.590571 
L 101.882341 154.013971 
L 100.416778 173.39493 
L 100.172813 190.956403 
L 101.570297 206.347113 
L 100.566957 219.557363 
L 102.696997 230.778089 
L 108.372972 240.28 
L 105.129526 240.28 
L 100.303113 230.778089 
L 98.491892 219.557363 
L 99.345055 206.347113 
L 98.156742 190.956403 
L 98.364191 173.39493 
L 99.610393 154.013971 
L 98.732144 133.590571 
L 98.513919 113.137869 
L 97.674982 93.757994 
L 96.261321 76.198006 
L 96.557638 60.808896 
L 98.170106 47.600163 
L 97.713789 36.380776 
L 97.403606 26.88 
L 99.287107 26.88 
z
M 312.81452 36.380776 
L 308.921303 47.600163 
L 311.882789 60.808896 
L 311.977953 76.198006 
L 311.088174 93.757994 
L 307.845449 113.137869 
L 311.677593 133.590571 
L 314.537154 154.013971 
L 309.607171 173.39493 
L 308.067057 190.956403 
L 307.617744 206.347113 
L 306.544171 219.557363 
L 301.473333 229.78657 
L 280.592715 219.557363 
L 277.61 215.342861 
L 253.746667 211.070751 
L 240.414922 219.557363 
L 229.883333 224.206107 
L 210.965021 230.778089 
L 221.219068 240.28 
L 208.61296 240.28 
L 206.02 237.729435 
L 192.403397 230.778089 
L 206.02 222.598084 
L 229.883333 220.296666 
L 231.558202 219.557363 
L 247.815785 206.347113 
L 229.883333 201.019262 
L 218.579198 190.956403 
L 229.883333 179.303654 
L 253.746667 181.719454 
L 277.61 189.629547 
L 279.964847 190.956403 
L 286.068325 206.347113 
L 294.214035 219.557363 
L 301.473333 223.113621 
L 303.236247 219.557363 
L 304.498795 206.347113 
L 305.027197 190.956403 
L 306.838408 173.39493 
L 312.636184 154.013971 
L 309.273273 133.590571 
L 304.766581 113.137869 
L 308.580101 93.757994 
L 309.626504 76.198006 
L 309.514588 60.808896 
L 306.031811 47.600163 
L 310.610326 36.380776 
L 310.624053 26.88 
L 312.826192 26.88 
z
M 232.815806 190.956403 
L 253.746667 196.902496 
L 262.740982 190.956403 
L 253.746667 187.766646 
z
M 277.61 152.280932 
L 278.974665 154.013971 
L 277.61 157.605082 
L 275.172852 154.013971 
z
M 253.746667 225.602653 
L 267.816288 230.778089 
L 277.61 233.166403 
L 301.473333 231.980216 
L 305.123445 240.28 
L 301.565439 240.28 
L 301.473333 240.070566 
L 277.61 235.828861 
L 263.54584 240.28 
L 255.133336 240.28 
L 253.746667 239.202443 
L 243.391478 230.778089 
z
M 251.427 230.778089 
L 253.746667 232.665229 
L 256.898404 230.778089 
L 253.746667 229.618739 
z
M 134.43 238.006634 
L 139.520955 240.28 
L 134.43 240.28 
L 122.813002 240.28 
z
" clip-path="url(#p294d94bfa3)" style="fill: #27808e"/>
    <path d="M 101.589991 36.380776 
L 102.206952 47.600163 
L 100.02682 60.808896 
L 99.626185 76.198006 
L 101.537522 93.757994 
L 102.671804 113.137869 
L 102.966855 133.590571 
L 104.154289 154.013971 
L 102.469365 173.39493 
L 102.188884 190.956403 
L 103.79554 206.347113 
L 102.642023 219.557363 
L 105.09088 230.778089 
L 110.566667 239.102194 
L 134.43 234.463301 
L 147.455864 240.28 
L 139.520955 240.28 
L 134.43 238.006634 
L 122.813002 240.28 
L 110.566667 240.28 
L 108.372972 240.28 
L 102.696997 230.778089 
L 100.566957 219.557363 
L 101.570297 206.347113 
L 100.172813 190.956403 
L 100.416778 173.39493 
L 101.882341 154.013971 
L 100.8495 133.590571 
L 100.592861 113.137869 
L 99.606252 93.757994 
L 97.943753 76.198006 
L 98.292229 60.808896 
L 100.188529 47.600163 
L 99.65189 36.380776 
L 99.287107 26.88 
L 101.170609 26.88 
z
M 310.610326 36.380776 
L 306.031811 47.600163 
L 309.514588 60.808896 
L 309.626504 76.198006 
L 308.580101 93.757994 
L 304.766581 113.137869 
L 309.273273 133.590571 
L 312.636184 154.013971 
L 306.838408 173.39493 
L 305.027197 190.956403 
L 304.498795 206.347113 
L 303.236247 219.557363 
L 301.473333 223.113621 
L 294.214035 219.557363 
L 286.068325 206.347113 
L 279.964847 190.956403 
L 277.61 189.629547 
L 253.746667 181.719454 
L 229.883333 179.303654 
L 218.579198 190.956403 
L 229.883333 201.019262 
L 247.815785 206.347113 
L 231.558202 219.557363 
L 229.883333 220.296666 
L 206.02 222.598084 
L 192.403397 230.778089 
L 206.02 237.729435 
L 208.61296 240.28 
L 206.02 240.28 
L 191.098774 240.28 
L 182.156667 235.989304 
L 175.221464 230.778089 
L 182.156667 227.312055 
L 196.960308 219.557363 
L 201.916685 206.347113 
L 206.02 194.446055 
L 206.373012 190.956403 
L 221.862067 173.39493 
L 229.883333 169.046712 
L 243.838422 173.39493 
L 253.746667 175.672261 
L 277.61 179.263246 
L 298.362509 190.956403 
L 301.473333 204.029614 
L 301.987337 190.956403 
L 304.069644 173.39493 
L 310.735214 154.013971 
L 306.868953 133.590571 
L 301.687713 113.137869 
L 306.072029 93.757994 
L 307.275054 76.198006 
L 307.146387 60.808896 
L 303.142318 47.600163 
L 308.406132 36.380776 
L 308.421913 26.88 
L 310.624053 26.88 
z
M 277.61 147.415299 
L 282.80606 154.013971 
L 277.61 167.687384 
L 268.330385 154.013971 
z
M 275.172852 154.013971 
L 277.61 157.605082 
L 278.974665 154.013971 
L 277.61 152.280932 
z
M 253.746667 229.618739 
L 256.898404 230.778089 
L 253.746667 232.665229 
L 251.427 230.778089 
z
M 277.61 235.828861 
L 301.473333 240.070566 
L 301.565439 240.28 
L 301.473333 240.28 
L 287.350257 240.28 
L 277.61 238.491318 
L 271.958344 240.28 
L 263.54584 240.28 
z
" clip-path="url(#p294d94bfa3)" style="fill: #21918c"/>
    <path d="M 103.528091 36.380776 
L 104.225376 47.600163 
L 101.761411 60.808896 
L 101.308617 76.198006 
L 103.468792 93.757994 
L 104.750747 113.137869 
L 105.084211 133.590571 
L 106.426238 154.013971 
L 104.521953 173.39493 
L 104.204955 190.956403 
L 106.020782 206.347113 
L 104.717088 219.557363 
L 107.484763 230.778089 
L 110.566667 235.463094 
L 134.43 230.919968 
L 155.390772 240.28 
L 147.455864 240.28 
L 134.43 234.463301 
L 110.566667 239.102194 
L 105.09088 230.778089 
L 102.642023 219.557363 
L 103.79554 206.347113 
L 102.188884 190.956403 
L 102.469365 173.39493 
L 104.154289 154.013971 
L 102.966855 133.590571 
L 102.671804 113.137869 
L 101.537522 93.757994 
L 99.626185 76.198006 
L 100.02682 60.808896 
L 102.206952 47.600163 
L 101.589991 36.380776 
L 101.170609 26.88 
L 103.05411 26.88 
z
M 308.406132 36.380776 
L 303.142318 47.600163 
L 307.146387 60.808896 
L 307.275054 76.198006 
L 306.072029 93.757994 
L 301.687713 113.137869 
L 306.868953 133.590571 
L 310.735214 154.013971 
L 304.069644 173.39493 
L 301.987337 190.956403 
L 301.473333 204.029614 
L 298.362509 190.956403 
L 277.61 179.263246 
L 253.746667 175.672261 
L 243.838422 173.39493 
L 229.883333 169.046712 
L 221.862067 173.39493 
L 206.373012 190.956403 
L 206.02 194.446055 
L 201.916685 206.347113 
L 196.960308 219.557363 
L 182.156667 227.312055 
L 175.221464 230.778089 
L 182.156667 235.989304 
L 191.098774 240.28 
L 182.156667 240.28 
L 168.103797 240.28 
L 163.225839 230.778089 
L 182.156667 221.316954 
L 185.515711 219.557363 
L 182.156667 214.820524 
L 167.574758 206.347113 
L 182.156667 195.843633 
L 186.95329 190.956403 
L 182.156667 178.313287 
L 180.329423 173.39493 
L 181.484398 154.013971 
L 182.156667 153.676942 
L 182.928245 154.013971 
L 198.061238 173.39493 
L 206.02 174.214802 
L 206.739182 173.39493 
L 229.883333 160.848804 
L 253.746667 166.509533 
L 261.487917 154.013971 
L 277.61 142.549666 
L 286.637456 154.013971 
L 301.473333 173.088118 
L 308.834244 154.013971 
L 304.464632 133.590571 
L 301.473333 121.888638 
L 291.598509 113.137869 
L 301.473333 102.916102 
L 303.563957 93.757994 
L 304.923604 76.198006 
L 304.778186 60.808896 
L 301.473333 50.669244 
L 297.286655 47.600163 
L 301.473333 45.754515 
L 306.201937 36.380776 
L 306.219774 26.88 
L 308.421913 26.88 
z
M 268.330385 154.013971 
L 277.61 167.687384 
L 282.80606 154.013971 
L 277.61 147.415299 
z
M 253.746667 133.438543 
L 253.86451 133.590571 
L 253.746667 133.754208 
L 253.46251 133.590571 
z
M 277.61 238.491318 
L 287.350257 240.28 
L 277.61 240.28 
L 271.958344 240.28 
z
" clip-path="url(#p294d94bfa3)" style="fill: #1fa188"/>
    <path d="M 105.466192 36.380776 
L 106.243799 47.600163 
L 103.496002 60.808896 
L 102.991049 76.198006 
L 105.400061 93.757994 
L 106.829689 113.137869 
L 107.201567 133.590571 
L 108.698186 154.013971 
L 106.57454 173.39493 
L 106.221026 190.956403 
L 108.246024 206.347113 
L 106.792153 219.557363 
L 109.878646 230.778089 
L 110.566667 231.823994 
L 116.065054 230.778089 
L 134.43 226.477488 
L 158.293333 226.85346 
L 172.796201 219.557363 
L 158.293333 211.343358 
L 138.67981 206.347113 
L 158.293333 199.609539 
L 170.961349 190.956403 
L 161.102225 173.39493 
L 165.596842 154.013971 
L 182.156667 145.712 
L 201.16277 154.013971 
L 206.02 158.249719 
L 220.712377 154.013971 
L 215.461853 133.590571 
L 229.883333 127.726423 
L 253.746667 116.801586 
L 266.760549 133.590571 
L 277.61 137.684033 
L 290.468851 154.013971 
L 301.473333 168.162181 
L 306.933274 154.013971 
L 302.060312 133.590571 
L 301.473333 131.294316 
L 280.984651 113.137869 
L 291.657376 93.757994 
L 301.473333 89.146115 
L 302.572154 76.198006 
L 302.409985 60.808896 
L 301.473333 57.935146 
L 287.374898 47.600163 
L 301.473333 41.385035 
L 303.997743 36.380776 
L 304.017634 26.88 
L 306.219774 26.88 
L 306.201937 36.380776 
L 301.473333 45.754515 
L 297.286655 47.600163 
L 301.473333 50.669244 
L 304.778186 60.808896 
L 304.923604 76.198006 
L 303.563957 93.757994 
L 301.473333 102.916102 
L 291.598509 113.137869 
L 301.473333 121.888638 
L 304.464632 133.590571 
L 308.834244 154.013971 
L 301.473333 173.088118 
L 286.637456 154.013971 
L 277.61 142.549666 
L 261.487917 154.013971 
L 253.746667 166.509533 
L 229.883333 160.848804 
L 206.739182 173.39493 
L 206.02 174.214802 
L 198.061238 173.39493 
L 182.928245 154.013971 
L 182.156667 153.676942 
L 181.484398 154.013971 
L 180.329423 173.39493 
L 182.156667 178.313287 
L 186.95329 190.956403 
L 182.156667 195.843633 
L 167.574758 206.347113 
L 182.156667 214.820524 
L 185.515711 219.557363 
L 182.156667 221.316954 
L 163.225839 230.778089 
L 168.103797 240.28 
L 158.293333 240.28 
L 155.390772 240.28 
L 134.43 230.919968 
L 110.566667 235.463094 
L 107.484763 230.778089 
L 104.717088 219.557363 
L 106.020782 206.347113 
L 104.204955 190.956403 
L 104.521953 173.39493 
L 106.426238 154.013971 
L 105.084211 133.590571 
L 104.750747 113.137869 
L 103.468792 93.757994 
L 101.308617 76.198006 
L 101.761411 60.808896 
L 104.225376 47.600163 
L 103.528091 36.380776 
L 103.05411 26.88 
L 104.937611 26.88 
z
M 253.46251 133.590571 
L 253.746667 133.754208 
L 253.86451 133.590571 
L 253.746667 133.438543 
z
M 243.214828 154.013971 
L 253.746667 155.464745 
L 254.64545 154.013971 
L 253.746667 151.66175 
z
M 277.61 34.922626 
L 284.338429 36.380776 
L 277.61 39.897097 
L 272.311294 36.380776 
z
M 253.746667 88.201745 
L 272.590778 93.757994 
L 253.746667 109.308495 
L 243.353862 93.757994 
z
" clip-path="url(#p294d94bfa3)" style="fill: #2ab07f"/>
    <path d="M 107.404293 36.380776 
L 108.262223 47.600163 
L 105.230593 60.808896 
L 104.673481 76.198006 
L 107.331331 93.757994 
L 108.908632 113.137869 
L 109.318922 133.590571 
L 110.566667 149.284525 
L 120.803084 154.013971 
L 110.566667 157.080129 
L 108.627127 173.39493 
L 108.237098 190.956403 
L 110.471266 206.347113 
L 108.867219 219.557363 
L 110.566667 225.557456 
L 134.43 221.997503 
L 158.293333 220.188079 
L 159.547043 219.557363 
L 158.293333 218.847298 
L 134.43 214.419358 
L 111.705171 206.347113 
L 134.43 192.452302 
L 143.705732 190.956403 
L 141.35662 173.39493 
L 141.693292 154.013971 
L 158.293333 147.333798 
L 182.156667 137.747059 
L 191.289277 133.590571 
L 182.156667 118.678326 
L 179.191467 113.137869 
L 182.156667 110.438557 
L 206.02 110.025786 
L 229.883333 99.286278 
L 231.732201 93.757994 
L 253.746667 81.98852 
L 277.61 86.73386 
L 293.885736 76.198006 
L 288.37063 60.808896 
L 277.61 47.982966 
L 276.570321 47.600163 
L 260.529054 36.380776 
L 277.61 31.680275 
L 299.299811 36.380776 
L 301.473333 37.015554 
L 301.793549 36.380776 
L 301.815494 26.88 
L 304.017634 26.88 
L 303.997743 36.380776 
L 301.473333 41.385035 
L 287.374898 47.600163 
L 301.473333 57.935146 
L 302.409985 60.808896 
L 302.572154 76.198006 
L 301.473333 89.146115 
L 291.657376 93.757994 
L 280.984651 113.137869 
L 301.473333 131.294316 
L 302.060312 133.590571 
L 306.933274 154.013971 
L 301.473333 168.162181 
L 290.468851 154.013971 
L 277.61 137.684033 
L 266.760549 133.590571 
L 253.746667 116.801586 
L 229.883333 127.726423 
L 215.461853 133.590571 
L 220.712377 154.013971 
L 206.02 158.249719 
L 201.16277 154.013971 
L 182.156667 145.712 
L 165.596842 154.013971 
L 161.102225 173.39493 
L 170.961349 190.956403 
L 158.293333 199.609539 
L 138.67981 206.347113 
L 158.293333 211.343358 
L 172.796201 219.557363 
L 158.293333 226.85346 
L 134.43 226.477488 
L 116.065054 230.778089 
L 110.566667 231.823994 
L 109.878646 230.778089 
L 106.792153 219.557363 
L 108.246024 206.347113 
L 106.221026 190.956403 
L 106.57454 173.39493 
L 108.698186 154.013971 
L 107.201567 133.590571 
L 106.829689 113.137869 
L 105.400061 93.757994 
L 102.991049 76.198006 
L 103.496002 60.808896 
L 106.243799 47.600163 
L 105.466192 36.380776 
L 104.937611 26.88 
L 106.821112 26.88 
z
M 272.311294 36.380776 
L 277.61 39.897097 
L 284.338429 36.380776 
L 277.61 34.922626 
z
M 243.353862 93.757994 
L 253.746667 109.308495 
L 272.590778 93.757994 
L 253.746667 88.201745 
z
M 294.300246 154.013971 
L 301.473333 163.236244 
L 305.032304 154.013971 
L 301.473333 139.464631 
z
M 206.02 35.715407 
L 222.236763 36.380776 
L 206.02 36.960821 
L 202.698476 36.380776 
z
M 158.293333 46.292512 
L 163.364251 47.600163 
L 158.293333 49.25791 
L 152.755569 47.600163 
z
M 253.746667 58.028843 
L 257.294924 60.808896 
L 253.746667 62.1188 
L 248.718658 60.808896 
z
M 253.746667 151.66175 
L 254.64545 154.013971 
L 253.746667 155.464745 
L 243.214828 154.013971 
z
" clip-path="url(#p294d94bfa3)" style="fill: #44bf70"/>
    <path d="M 109.342394 36.380776 
L 110.280646 47.600163 
L 106.965184 60.808896 
L 106.355913 76.198006 
L 109.262601 93.757994 
L 110.566667 108.667436 
L 124.704661 113.137869 
L 134.43 122.953085 
L 148.151176 133.590571 
L 158.293333 134.969977 
L 162.807991 133.590571 
L 163.897944 113.137869 
L 158.293333 105.57524 
L 147.400816 93.757994 
L 158.293333 86.230735 
L 176.022478 93.757994 
L 182.156667 96.516395 
L 206.02 94.276894 
L 206.919751 93.757994 
L 227.047753 76.198006 
L 206.02 63.871744 
L 197.942851 60.808896 
L 182.156667 51.797608 
L 158.293333 56.247577 
L 134.43 51.148594 
L 120.042573 47.600163 
L 119.808814 36.380776 
L 134.43 32.281166 
L 147.700366 36.380776 
L 158.293333 40.778984 
L 171.225017 36.380776 
L 182.156667 32.767414 
L 200.891718 26.88 
L 206.02 26.88 
L 215.206532 26.88 
L 229.883333 30.016064 
L 253.746667 30.533363 
L 277.61 28.437924 
L 286.262939 26.88 
L 301.473333 26.88 
L 301.815494 26.88 
L 301.793549 36.380776 
L 301.473333 37.015554 
L 299.299811 36.380776 
L 277.61 31.680275 
L 260.529054 36.380776 
L 276.570321 47.600163 
L 277.61 47.982966 
L 288.37063 60.808896 
L 293.885736 76.198006 
L 277.61 86.73386 
L 253.746667 81.98852 
L 231.732201 93.757994 
L 229.883333 99.286278 
L 206.02 110.025786 
L 182.156667 110.438557 
L 179.191467 113.137869 
L 182.156667 118.678326 
L 191.289277 133.590571 
L 182.156667 137.747059 
L 158.293333 147.333798 
L 141.693292 154.013971 
L 141.35662 173.39493 
L 143.705732 190.956403 
L 134.43 192.452302 
L 111.705171 206.347113 
L 134.43 214.419358 
L 158.293333 218.847298 
L 159.547043 219.557363 
L 158.293333 220.188079 
L 134.43 221.997503 
L 110.566667 225.557456 
L 108.867219 219.557363 
L 110.471266 206.347113 
L 108.237098 190.956403 
L 108.627127 173.39493 
L 110.566667 157.080129 
L 120.803084 154.013971 
L 110.566667 149.284525 
L 109.318922 133.590571 
L 108.908632 113.137869 
L 107.331331 93.757994 
L 104.673481 76.198006 
L 105.230593 60.808896 
L 108.262223 47.600163 
L 107.404293 36.380776 
L 106.821112 26.88 
L 108.704614 26.88 
z
M 202.698476 36.380776 
L 206.02 36.960821 
L 222.236763 36.380776 
L 206.02 35.715407 
z
M 152.755569 47.600163 
L 158.293333 49.25791 
L 163.364251 47.600163 
L 158.293333 46.292512 
z
M 248.718658 60.808896 
L 253.746667 62.1188 
L 257.294924 60.808896 
L 253.746667 58.028843 
z
M 261.451674 76.198006 
L 277.61 77.513526 
L 279.642209 76.198006 
L 277.61 72.800411 
z
M 110.253169 190.956403 
L 110.566667 193.10739 
L 114.056259 190.956403 
L 110.566667 177.988098 
z
M 301.473333 139.464631 
L 305.032304 154.013971 
L 301.473333 163.236244 
L 294.300246 154.013971 
z
M 298.131641 154.013971 
L 301.473333 158.310308 
L 303.131334 154.013971 
L 301.473333 147.23594 
z
" clip-path="url(#p294d94bfa3)" style="fill: #67cc5c"/>
    <path d="M 110.566667 26.88 
L 111.395168 26.88 
L 134.43 28.178832 
L 145.505077 26.88 
L 158.293333 26.88 
L 177.082557 26.88 
L 182.156667 27.40902 
L 183.840125 26.88 
L 200.891718 26.88 
L 182.156667 32.767414 
L 171.225017 36.380776 
L 158.293333 40.778984 
L 147.700366 36.380776 
L 134.43 32.281166 
L 119.808814 36.380776 
L 120.042573 47.600163 
L 134.43 51.148594 
L 158.293333 56.247577 
L 182.156667 51.797608 
L 197.942851 60.808896 
L 206.02 63.871744 
L 227.047753 76.198006 
L 206.919751 93.757994 
L 206.02 94.276894 
L 182.156667 96.516395 
L 176.022478 93.757994 
L 158.293333 86.230735 
L 147.400816 93.757994 
L 158.293333 105.57524 
L 163.897944 113.137869 
L 162.807991 133.590571 
L 158.293333 134.969977 
L 148.151176 133.590571 
L 134.43 122.953085 
L 124.704661 113.137869 
L 110.566667 108.667436 
L 109.262601 93.757994 
L 106.355913 76.198006 
L 106.965184 60.808896 
L 110.280646 47.600163 
L 109.342394 36.380776 
L 108.704614 26.88 
z
M 108.699775 60.808896 
L 108.038346 76.198006 
L 110.566667 90.637499 
L 134.085287 76.198006 
L 127.797672 60.808896 
L 110.566667 53.460383 
z
M 229.883333 26.88 
L 253.746667 26.88 
L 277.61 26.88 
L 286.262939 26.88 
L 277.61 28.437924 
L 253.746667 30.533363 
L 229.883333 30.016064 
L 215.206532 26.88 
z
M 277.61 72.800411 
L 279.642209 76.198006 
L 277.61 77.513526 
L 261.451674 76.198006 
z
M 301.473333 147.23594 
L 303.131334 154.013971 
L 301.473333 158.310308 
L 298.131641 154.013971 
z
M 110.566667 177.988098 
L 114.056259 190.956403 
L 110.566667 193.10739 
L 110.253169 190.956403 
z
" clip-path="url(#p294d94bfa3)" style="fill: #90d743"/>
    <path d="M 134.43 26.88 
L 145.505077 26.88 
L 134.43 28.178832 
L 111.395168 26.88 
z
M 182.156667 26.88 
L 183.840125 26.88 
L 182.156667 27.40902 
L 177.082557 26.88 
z
M 110.566667 53.460383 
L 127.797672 60.808896 
L 134.085287 76.198006 
L 110.566667 90.637499 
L 108.038346 76.198006 
L 108.699775 60.808896 
z
M 110.434366 60.808896 
L 109.720778 76.198006 
L 110.566667 81.028962 
L 118.435185 76.198006 
L 111.787777 60.808896 
L 110.566667 60.288129 
z
" clip-path="url(#p294d94bfa3)" style="fill: #bddf26"/>
    <path d="M 110.566667 60.288129 
L 111.787777 60.808896 
L 118.435185 76.198006 
L 110.566667 81.028962 
L 109.720778 76.198006 
L 110.434366 60.808896 
z
" clip-path="url(#p294d94bfa3)" style="fill: #eae51a"/>
   </g>
   <g id="matplotlib.axis_1">
    <g id="xtick_1">
     <g id="line2d_1">
      <defs>
       <path id="m7d051a1a29" d="M 0 0 
L 0 3.5 
" style="stroke: #000000; stroke-width: 0.8"/>
      </defs>
      <g>
       <use xlink:href="#m7d051a1a29" x="126.475556" y="240.28" style="stroke: #000000; stroke-width: 0.8"/>
      </g>
     </g>
     <g id="text_1">
      <!-- −50 -->
      <g transform="translate(113.812743 256.398125) scale(0.12 -0.12)">
       <defs>
        <path id="DejaVuSans-2212" d="M 678 2272 
L 4684 2272 
L 4684 1741 
L 678 1741 
L 678 2272 
z
" transform="scale(0.015625)"/>
        <path id="DejaVuSans-35" d="M 691 4666 
L 3169 4666 
L 3169 4134 
L 1269 4134 
L 1269 2991 
Q 1406 3038 1543 3061 
Q 1681 3084 1819 3084 
Q 2600 3084 3056 2656 
Q 3513 2228 3513 1497 
Q 3513 744 3044 326 
Q 2575 -91 1722 -91 
Q 1428 -91 1123 -41 
Q 819 9 494 109 
L 494 744 
Q 775 591 1075 516 
Q 1375 441 1709 441 
Q 2250 441 2565 725 
Q 2881 1009 2881 1497 
Q 2881 1984 2565 2268 
Q 2250 2553 1709 2553 
Q 1456 2553 1204 2497 
Q 953 2441 691 2322 
L 691 4666 
z
" transform="scale(0.015625)"/>
        <path id="DejaVuSans-30" d="M 2034 4250 
Q 1547 4250 1301 3770 
Q 1056 3291 1056 2328 
Q 1056 1369 1301 889 
Q 1547 409 2034 409 
Q 2525 409 2770 889 
Q 3016 1369 3016 2328 
Q 3016 3291 2770 3770 
Q 2525 4250 2034 4250 
z
M 2034 4750 
Q 2819 4750 3233 4129 
Q 3647 3509 3647 2328 
Q 3647 1150 3233 529 
Q 2819 -91 2034 -91 
Q 1250 -91 836 529 
Q 422 1150 422 2328 
Q 422 3509 836 4129 
Q 1250 4750 2034 4750 
z
" transform="scale(0.015625)"/>
       </defs>
       <use xlink:href="#DejaVuSans-2212"/>
       <use xlink:href="#DejaVuSans-35" transform="translate(83.789062 0)"/>
       <use xlink:href="#DejaVuSans-30" transform="translate(147.412109 0)"/>
      </g>
     </g>
    </g>
    <g id="xtick_2">
     <g id="line2d_2">
      <g>
       <use xlink:href="#m7d051a1a29" x="206.02" y="240.28" style="stroke: #000000; stroke-width: 0.8"/>
      </g>
     </g>
     <g id="text_2">
      <!-- 0 -->
      <g transform="translate(202.2025 256.398125) scale(0.12 -0.12)">
       <use xlink:href="#DejaVuSans-30"/>
      </g>
     </g>
    </g>
    <g id="xtick_3">
     <g id="line2d_3">
      <g>
       <use xlink:href="#m7d051a1a29" x="285.564444" y="240.28" style="stroke: #000000; stroke-width: 0.8"/>
      </g>
     </g>
     <g id="text_3">
      <!-- 50 -->
      <g transform="translate(277.929444 256.398125) scale(0.12 -0.12)">
       <use xlink:href="#DejaVuSans-35"/>
       <use xlink:href="#DejaVuSans-30" transform="translate(63.623047 0)"/>
      </g>
     </g>
    </g>
    <g id="text_4">
     <!-- $\Theta^{\circ}$ -->
     <g transform="translate(198.4 272.011875) scale(0.12 -0.12)">
      <defs>
       <path id="DejaVuSans-398" d="M 1416 2750 
L 3622 2750 
L 3622 2219 
L 1416 2219 
L 1416 2750 
z
M 2522 4238 
Q 1834 4238 1431 3725 
Q 1025 3213 1025 2328 
Q 1025 1447 1429 934 
Q 1834 422 2522 422 
Q 3209 422 3613 934 
Q 4013 1447 4013 2328 
Q 4013 3213 3613 3725 
Q 3209 4238 2522 4238 
z
M 2522 4750 
Q 3503 4750 4090 4092 
Q 4678 3434 4678 2328 
Q 4678 1225 4091 569 
Q 3503 -91 2522 -91 
Q 1538 -91 950 566 
Q 359 1222 359 2328 
Q 359 3434 950 4094 
Q 1538 4750 2522 4750 
z
" transform="scale(0.015625)"/>
       <path id="DejaVuSans-2218" d="M 2000 2619 
Q 1750 2619 1578 2445 
Q 1406 2272 1406 2022 
Q 1406 1775 1578 1605 
Q 1750 1435 2000 1435 
Q 2250 1435 2422 1605 
Q 2594 1775 2594 2022 
Q 2594 2269 2420 2444 
Q 2247 2619 2000 2619 
z
M 2000 3022 
Q 2200 3022 2384 2945 
Q 2569 2869 2703 2725 
Q 2847 2585 2919 2406 
Q 2991 2228 2991 2022 
Q 2991 1610 2702 1324 
Q 2413 1038 1994 1038 
Q 1572 1038 1290 1319 
Q 1009 1600 1009 2022 
Q 1009 2441 1296 2731 
Q 1584 3022 2000 3022 
z
" transform="scale(0.015625)"/>
      </defs>
      <use xlink:href="#DejaVuSans-398" transform="translate(0 0.78125)"/>
      <use xlink:href="#DejaVuSans-2218" transform="translate(79.667969 39.0625) scale(0.7)"/>
     </g>
    </g>
   </g>
   <g id="matplotlib.axis_2">
    <g id="ytick_1">
     <g id="line2d_4">
      <defs>
       <path id="mc15b99e9ce" d="M 0 0 
L -3.5 0 
" style="stroke: #000000; stroke-width: 0.8"/>
      </defs>
      <g>
       <use xlink:href="#mc15b99e9ce" x="62.84" y="219.984151" style="stroke: #000000; stroke-width: 0.8"/>
      </g>
     </g>
     <g id="text_5">
      <!-- −40 -->
      <g transform="translate(30.514375 224.543214) scale(0.12 -0.12)">
       <defs>
        <path id="DejaVuSans-34" d="M 2419 4116 
L 825 1625 
L 2419 1625 
L 2419 4116 
z
M 2253 4666 
L 3047 4666 
L 3047 1625 
L 3713 1625 
L 3713 1100 
L 3047 1100 
L 3047 0 
L 2419 0 
L 2419 1100 
L 313 1100 
L 313 1709 
L 2253 4666 
z
" transform="scale(0.015625)"/>
       </defs>
       <use xlink:href="#DejaVuSans-2212"/>
       <use xlink:href="#DejaVuSans-34" transform="translate(83.789062 0)"/>
       <use xlink:href="#DejaVuSans-30" transform="translate(147.412109 0)"/>
      </g>
     </g>
    </g>
    <g id="ytick_2">
     <g id="line2d_5">
      <g>
       <use xlink:href="#mc15b99e9ce" x="62.84" y="176.783648" style="stroke: #000000; stroke-width: 0.8"/>
      </g>
     </g>
     <g id="text_6">
      <!-- −20 -->
      <g transform="translate(30.514375 181.342711) scale(0.12 -0.12)">
       <defs>
        <path id="DejaVuSans-32" d="M 1228 531 
L 3431 531 
L 3431 0 
L 469 0 
L 469 531 
Q 828 903 1448 1529 
Q 2069 2156 2228 2338 
Q 2531 2678 2651 2914 
Q 2772 3150 2772 3378 
Q 2772 3750 2511 3984 
Q 2250 4219 1831 4219 
Q 1534 4219 1204 4116 
Q 875 4013 500 3803 
L 500 4441 
Q 881 4594 1212 4672 
Q 1544 4750 1819 4750 
Q 2544 4750 2975 4387 
Q 3406 4025 3406 3419 
Q 3406 3131 3298 2873 
Q 3191 2616 2906 2266 
Q 2828 2175 2409 1742 
Q 1991 1309 1228 531 
z
" transform="scale(0.015625)"/>
       </defs>
       <use xlink:href="#DejaVuSans-2212"/>
       <use xlink:href="#DejaVuSans-32" transform="translate(83.789062 0)"/>
       <use xlink:href="#DejaVuSans-30" transform="translate(147.412109 0)"/>
      </g>
     </g>
    </g>
    <g id="ytick_3">
     <g id="line2d_6">
      <g>
       <use xlink:href="#mc15b99e9ce" x="62.84" y="133.583145" style="stroke: #000000; stroke-width: 0.8"/>
      </g>
     </g>
     <g id="text_7">
      <!-- 0 -->
      <g transform="translate(48.205 138.142208) scale(0.12 -0.12)">
       <use xlink:href="#DejaVuSans-30"/>
      </g>
     </g>
    </g>
    <g id="ytick_4">
     <g id="line2d_7">
      <g>
       <use xlink:href="#mc15b99e9ce" x="62.84" y="90.382642" style="stroke: #000000; stroke-width: 0.8"/>
      </g>
     </g>
     <g id="text_8">
      <!-- 20 -->
      <g transform="translate(40.57 94.941704) scale(0.12 -0.12)">
       <use xlink:href="#DejaVuSans-32"/>
       <use xlink:href="#DejaVuSans-30" transform="translate(63.623047 0)"/>
      </g>
     </g>
    </g>
    <g id="ytick_5">
     <g id="line2d_8">
      <g>
       <use xlink:href="#mc15b99e9ce" x="62.84" y="47.182139" style="stroke: #000000; stroke-width: 0.8"/>
      </g>
     </g>
     <g id="text_9">
      <!-- 40 -->
      <g transform="translate(40.57 51.741201) scale(0.12 -0.12)">
       <use xlink:href="#DejaVuSans-34"/>
       <use xlink:href="#DejaVuSans-30" transform="translate(63.623047 0)"/>
      </g>
     </g>
    </g>
    <g id="text_10">
     <!-- $\phi^{\circ}$ -->
     <g transform="translate(23.784375 141.38) rotate(-90) scale(0.13 -0.13)">
      <defs>
       <path id="DejaVuSans-Oblique-3d5" d="M 2991 4863 
L 2738 3572 
Q 3363 3572 3684 3094 
Q 4016 2606 3850 1747 
Q 3681 888 3159 400 
Q 2653 -78 2028 -78 
L 1784 -1331 
L 1213 -1331 
L 1456 -78 
Q 834 -78 509 400 
Q 178 888 347 1747 
Q 513 2606 1034 3094 
Q 1544 3572 2166 3572 
L 2419 4863 
L 2991 4863 
z
M 2128 434 
Q 2481 434 2784 756 
Q 3116 1116 3244 1747 
Q 3369 2372 3169 2738 
Q 2991 3059 2638 3059 
L 2128 434 
z
M 1556 434 
L 2066 3059 
Q 1716 3059 1413 2738 
Q 1072 2372 953 1747 
Q 834 1116 1028 756 
Q 1203 434 1556 434 
z
" transform="scale(0.015625)"/>
      </defs>
      <use xlink:href="#DejaVuSans-Oblique-3d5" transform="translate(0 0.015625)"/>
      <use xlink:href="#DejaVuSans-2218" transform="translate(73.414505 38.296875) scale(0.7)"/>
     </g>
    </g>
   </g>
   <g id="QuadContourSet_2">
    <path clip-path="url(#p294d94bfa3)" style="fill: none; stroke-dasharray: 1.85,0.8; stroke-dashoffset: 0; stroke: #000000; stroke-width: 0.5"/>
    <path d="M 323.836891 26.88 
L 323.835491 36.380776 
L 323.368766 47.600163 
L 323.723794 60.808896 
L 323.735202 76.198006 
L 323.628534 93.757994 
L 323.239791 113.137869 
L 323.405512 120.515791 
M 323.918678 146.66663 
L 324.042004 154.013971 
L 323.450989 173.39493 
L 323.266358 190.956403 
L 323.212494 206.347113 
L 323.083792 219.557363 
L 322.399059 230.778089 
L 322.913473 240.28 
M 88.912295 240.28 
L 88.333697 230.778089 
L 88.116565 219.557363 
L 88.218843 206.347113 
L 88.076387 190.956403 
L 88.101256 173.39493 
L 88.250653 154.013971 
L 88.212783 146.668097 
M 88.128639 120.512902 
L 88.119205 113.137869 
L 88.018632 93.757994 
L 87.84916 76.198006 
L 87.884683 60.808896 
L 88.077989 47.600163 
L 88.023285 36.380776 
L 87.986099 26.88 
" clip-path="url(#p294d94bfa3)" style="fill: none; stroke-dasharray: 1.85,0.8; stroke-dashoffset: 0; stroke: #000000; stroke-width: 0.5"/>
    <path d="M 321.634751 26.88 
L 321.631297 36.380776 
L 320.479274 47.600163 
L 321.355593 60.808896 
L 321.383753 76.198006 
L 321.120462 93.757994 
L 320.160923 113.137869 
L 320.568393 120.48728 
M 321.838078 146.701665 
L 322.141034 154.013971 
L 320.682226 173.39493 
L 320.226498 190.956403 
L 320.093544 206.347113 
L 319.775868 219.557363 
L 318.085732 230.778089 
L 319.355467 240.28 
M 92.155741 240.28 
L 90.72758 230.778089 
L 90.19163 219.557363 
L 90.444086 206.347113 
L 90.092458 190.956403 
L 90.153843 173.39493 
L 90.522601 154.013971 
L 90.429669 146.710619 
M 90.221296 120.469646 
L 90.198148 113.137869 
L 89.949902 93.757994 
L 89.531592 76.198006 
L 89.619274 60.808896 
L 90.096412 47.600163 
L 89.961385 36.380776 
L 89.869601 26.88 
" clip-path="url(#p294d94bfa3)" style="fill: none; stroke-dasharray: 1.85,0.8; stroke-dashoffset: 0; stroke: #000000; stroke-width: 0.5"/>
    <path d="M 319.432611 26.88 
L 319.427103 36.380776 
L 317.589781 47.600163 
L 318.987392 60.808896 
L 319.032303 76.198006 
L 318.61239 93.757994 
L 317.082054 113.137869 
L 317.738133 120.557603 
M 319.75303 146.643225 
L 320.240064 154.013971 
L 317.913462 173.39493 
L 317.186638 190.956403 
L 316.974594 206.347113 
L 316.467943 219.557363 
L 313.772405 230.778089 
L 315.797462 240.28 
M 95.399187 240.28 
L 93.121464 230.778089 
L 92.266696 219.557363 
L 92.669328 206.347113 
L 92.108529 190.956403 
L 92.20643 173.39493 
L 92.794549 154.013971 
L 92.645427 146.665883 
M 92.314227 120.513038 
L 92.277091 113.137869 
L 91.881172 93.757994 
L 91.214025 76.198006 
L 91.353865 60.808896 
L 92.114835 47.600163 
L 91.899486 36.380776 
L 91.753102 26.88 
" clip-path="url(#p294d94bfa3)" style="fill: none; stroke-dasharray: 1.85,0.8; stroke-dashoffset: 0; stroke: #000000; stroke-width: 0.5"/>
    <path d="M 317.230472 26.88 
L 317.222909 36.380776 
L 314.700289 47.600163 
L 316.619191 60.808896 
L 316.680853 76.198006 
L 316.104318 93.757994 
L 314.003186 113.137869 
L 314.903509 120.55377 
M 317.672318 146.664344 
L 318.339094 154.013971 
L 315.144699 173.39493 
L 314.146778 190.956403 
L 313.855644 206.347113 
L 313.160019 219.557363 
L 309.459079 230.778089 
L 312.239456 240.28 
M 98.642634 240.28 
L 95.515347 230.778089 
L 94.341761 219.557363 
L 94.89457 206.347113 
L 94.1246 190.956403 
L 94.259017 173.39493 
L 95.066497 154.013971 
L 94.862903 146.707078 
M 94.406723 120.469864 
L 94.356033 113.137869 
L 93.812442 93.757994 
L 92.896457 76.198006 
L 93.088456 60.808896 
L 94.133259 47.600163 
L 93.837587 36.380776 
L 93.636603 26.88 
" clip-path="url(#p294d94bfa3)" style="fill: none; stroke-dasharray: 1.85,0.8; stroke-dashoffset: 0; stroke: #000000; stroke-width: 0.5"/>
    <path d="M 315.028332 26.88 
L 315.018714 36.380776 
L 311.810796 47.600163 
L 314.25099 60.808896 
L 314.329403 76.198006 
L 313.596246 93.757994 
L 310.924318 113.137869 
L 312.07712 120.604919 
M 315.586879 146.635464 
L 316.438124 154.013971 
L 312.375935 173.39493 
L 311.106917 190.956403 
L 310.736694 206.347113 
L 309.852095 219.557363 
L 305.145752 230.778089 
L 308.68145 240.28 
M 101.88608 240.28 
L 97.90923 230.778089 
L 96.416826 219.557363 
L 97.119813 206.347113 
L 96.140671 190.956403 
L 96.311604 173.39493 
L 97.338445 154.013971 
L 97.079444 146.704319 
M 96.499438 120.470034 
L 96.434976 113.137869 
L 95.743712 93.757994 
L 94.578889 76.198006 
L 94.823047 60.808896 
L 96.151682 47.600163 
L 95.775688 36.380776 
L 95.520105 26.88 
M 253.746667 216.708688 
L 249.271641 219.557363 
L 253.746667 221.586567 
L 263.120413 219.557363 
L 253.746667 216.708688 
z
M 229.883333 228.115548 
L 222.218861 230.778089 
L 229.883333 237.290122 
L 235.355957 230.778089 
L 229.883333 228.115548 
z
" clip-path="url(#p294d94bfa3)" style="fill: none; stroke-dasharray: 1.85,0.8; stroke-dashoffset: 0; stroke: #000000; stroke-width: 0.5"/>
    <path d="M 312.826192 26.88 
L 312.81452 36.380776 
L 308.921303 47.600163 
L 311.882789 60.808896 
L 311.977953 76.198006 
L 311.088174 93.757994 
L 307.845449 113.137869 
L 311.677593 133.590571 
L 314.537154 154.013971 
L 309.607171 173.39493 
L 309.213877 177.879551 
M 307.68415 204.072473 
L 307.617744 206.347113 
L 306.544171 219.557363 
L 301.473333 229.78657 
L 280.592715 219.557363 
L 277.61 215.342861 
L 253.746667 211.070751 
L 240.414922 219.557363 
L 229.883333 224.206107 
L 210.965021 230.778089 
L 221.219068 240.28 
M 105.129526 240.28 
L 100.303113 230.778089 
L 98.491892 219.557363 
L 99.345055 206.347113 
L 98.156742 190.956403 
L 98.364191 173.39493 
L 99.610393 154.013971 
L 99.295916 146.700902 
M 98.592153 120.470245 
L 98.513919 113.137869 
L 97.674982 93.757994 
L 96.261321 76.198006 
L 96.557638 60.808896 
L 98.170106 47.600163 
L 97.713789 36.380776 
L 97.403606 26.88 
M 255.133336 240.28 
L 253.746667 239.202443 
L 243.391478 230.778089 
L 253.746667 225.602653 
L 254.788413 225.985854 
M 281.479682 232.974051 
L 301.473333 231.980216 
L 305.123445 240.28 
M 259.945039 189.964846 
L 253.746667 187.766646 
L 232.815806 190.956403 
L 240.353291 193.097671 
" clip-path="url(#p294d94bfa3)" style="fill: none; stroke-dasharray: 1.85,0.8; stroke-dashoffset: 0; stroke: #000000; stroke-width: 0.5"/>
    <path d="M 310.624053 26.88 
L 310.610326 36.380776 
L 306.031811 47.600163 
L 309.514588 60.808896 
L 309.626504 76.198006 
L 308.580101 93.757994 
L 304.766581 113.137869 
L 309.273273 133.590571 
L 312.636184 154.013971 
L 306.838408 173.39493 
L 305.027197 190.956403 
L 304.498795 206.347113 
L 303.38508 218.000092 
M 287.186544 208.160577 
L 286.068325 206.347113 
L 279.964847 190.956403 
L 277.61 189.629547 
L 253.746667 181.719454 
L 229.883333 179.303654 
L 218.579198 190.956403 
L 229.883333 201.019262 
L 247.815785 206.347113 
L 231.558202 219.557363 
L 229.883333 220.296666 
L 206.02 222.598084 
L 192.403397 230.778089 
L 206.02 237.729435 
L 208.61296 240.28 
M 108.372972 240.28 
L 102.696997 230.778089 
L 100.566957 219.557363 
L 101.570297 206.347113 
L 100.172813 190.956403 
L 100.416778 173.39493 
L 101.882341 154.013971 
L 101.51449 146.740084 
M 100.684327 120.427196 
L 100.592861 113.137869 
L 99.606252 93.757994 
L 97.943753 76.198006 
L 98.292229 60.808896 
L 100.188529 47.600163 
L 99.65189 36.380776 
L 99.287107 26.88 
M 139.520955 240.28 
L 134.43 238.006634 
L 122.813002 240.28 
M 263.54584 240.28 
L 277.61 235.828861 
L 287.678186 237.61848 
M 277.61 152.280932 
L 275.172852 154.013971 
L 277.61 157.605082 
L 278.974665 154.013971 
L 277.61 152.280932 
z
M 253.746667 229.618739 
L 256.898404 230.778089 
L 253.746667 232.665229 
L 251.427 230.778089 
L 253.746667 229.618739 
z
" clip-path="url(#p294d94bfa3)" style="fill: none; stroke-dasharray: 1.85,0.8; stroke-dashoffset: 0; stroke: #000000; stroke-width: 0.5"/>
    <path d="M 308.421913 26.88 
L 308.406132 36.380776 
L 303.142318 47.600163 
L 307.146387 60.808896 
L 307.275054 76.198006 
L 306.072029 93.757994 
L 301.687713 113.137869 
L 306.868953 133.590571 
L 310.735214 154.013971 
L 304.069644 173.39493 
L 301.987337 190.956403 
L 301.473333 204.029614 
L 298.362509 190.956403 
L 289.644761 186.044322 
M 263.746554 177.177057 
L 253.746667 175.672261 
L 243.838422 173.39493 
L 229.883333 169.046712 
L 221.862067 173.39493 
L 206.373012 190.956403 
L 206.02 194.446055 
L 201.916685 206.347113 
L 196.960308 219.557363 
L 182.156667 227.312055 
L 175.221464 230.778089 
L 182.156667 235.989304 
L 191.098774 240.28 
M 147.455864 240.28 
L 134.43 234.463301 
L 110.566667 239.102194 
L 105.09088 230.778089 
L 102.642023 219.557363 
L 103.79554 206.347113 
L 102.188884 190.956403 
L 102.469365 173.39493 
L 103.013608 167.134743 
M 103.390041 140.869201 
L 102.966855 133.590571 
L 102.671804 113.137869 
L 101.537522 93.757994 
L 99.626185 76.198006 
L 100.02682 60.808896 
L 102.206952 47.600163 
L 101.589991 36.380776 
L 101.170609 26.88 
M 271.958344 240.28 
L 277.61 238.491318 
L 287.350257 240.28 
M 277.61 147.415299 
L 268.330385 154.013971 
L 277.61 167.687384 
L 282.80606 154.013971 
L 277.61 147.415299 
z
" clip-path="url(#p294d94bfa3)" style="fill: none; stroke-dasharray: 1.85,0.8; stroke-dashoffset: 0; stroke: #000000; stroke-width: 0.5"/>
    <path d="M 306.219774 26.88 
L 306.201937 36.380776 
L 301.473333 45.754515 
L 297.286655 47.600163 
L 301.473333 50.669244 
L 304.778186 60.808896 
L 304.923604 76.198006 
L 304.580575 80.62826 
M 298.753355 105.731645 
L 291.598509 113.137869 
L 301.473333 121.888638 
L 304.464632 133.590571 
L 308.834244 154.013971 
L 301.473333 173.088118 
L 286.637456 154.013971 
L 277.61 142.549666 
L 261.487917 154.013971 
L 253.746667 166.509533 
L 229.883333 160.848804 
L 206.739182 173.39493 
L 206.02 174.214802 
L 198.061238 173.39493 
L 182.928245 154.013971 
L 182.156667 153.676942 
L 181.484398 154.013971 
L 180.329423 173.39493 
L 182.156667 178.313287 
L 186.95329 190.956403 
L 182.156667 195.843633 
L 167.574758 206.347113 
L 182.156667 214.820524 
L 185.515711 219.557363 
L 182.156667 221.316954 
L 163.225839 230.778089 
L 168.103797 240.28 
M 155.390772 240.28 
L 134.43 230.919968 
L 110.566667 235.463094 
L 107.484763 230.778089 
L 104.717088 219.557363 
L 106.020782 206.347113 
L 104.204955 190.956403 
L 104.521953 173.39493 
L 105.138228 167.122752 
M 105.562846 140.874597 
L 105.084211 133.590571 
L 104.750747 113.137869 
L 103.468792 93.757994 
L 101.308617 76.198006 
L 101.761411 60.808896 
L 104.225376 47.600163 
L 103.528091 36.380776 
L 103.05411 26.88 
M 253.746667 133.438543 
L 253.46251 133.590571 
L 253.746667 133.754208 
L 253.86451 133.590571 
L 253.746667 133.438543 
" clip-path="url(#p294d94bfa3)" style="fill: none; stroke-dasharray: 1.85,0.8; stroke-dashoffset: 0; stroke: #000000; stroke-width: 0.5"/>
    <path d="M 304.017634 26.88 
L 303.997743 36.380776 
L 301.473333 41.385035 
L 287.374898 47.600163 
L 301.473333 57.935146 
L 302.409985 60.808896 
L 302.572154 76.198006 
L 301.473333 89.146115 
L 291.657376 93.757994 
L 280.984651 113.137869 
L 301.473333 131.294316 
L 302.060312 133.590571 
L 306.933274 154.013971 
L 306.234774 155.823976 
M 293.227501 157.560705 
L 290.468851 154.013971 
L 277.61 137.684033 
L 266.760549 133.590571 
L 253.746667 116.801586 
L 229.883333 127.726423 
L 215.461853 133.590571 
L 220.712377 154.013971 
L 206.02 158.249719 
L 201.16277 154.013971 
L 182.156667 145.712 
L 165.596842 154.013971 
L 161.102225 173.39493 
L 170.961349 190.956403 
L 158.293333 199.609539 
L 138.67981 206.347113 
L 158.293333 211.343358 
L 172.796201 219.557363 
L 158.293333 226.85346 
L 134.43 226.477488 
L 116.065054 230.778089 
L 110.566667 231.823994 
L 109.878646 230.778089 
L 106.792153 219.557363 
L 108.246024 206.347113 
L 106.221026 190.956403 
L 106.57454 173.39493 
L 108.698186 154.013971 
L 107.201567 133.590571 
L 106.829689 113.137869 
L 105.400061 93.757994 
L 102.991049 76.198006 
L 103.496002 60.808896 
L 106.243799 47.600163 
L 105.466192 36.380776 
L 104.937611 26.88 
M 277.61 34.922626 
L 272.311294 36.380776 
L 277.61 39.897097 
L 284.338429 36.380776 
L 277.61 34.922626 
M 253.746667 88.201745 
L 243.353862 93.757994 
L 246.315843 98.189934 
M 264.251794 100.639474 
L 272.590778 93.757994 
L 253.746667 88.201745 
M 253.746667 151.66175 
L 254.64545 154.013971 
L 253.746667 155.464745 
L 243.214828 154.013971 
L 253.746667 151.66175 
z
" clip-path="url(#p294d94bfa3)" style="fill: none; stroke-dasharray: 1.85,0.8; stroke-dashoffset: 0; stroke: #000000; stroke-width: 0.5"/>
    <path d="M 301.815494 26.88 
L 301.793549 36.380776 
L 301.473333 37.015554 
L 299.299811 36.380776 
L 277.61 31.680275 
L 260.529054 36.380776 
L 276.570321 47.600163 
L 277.61 47.982966 
L 288.37063 60.808896 
L 293.885736 76.198006 
L 277.61 86.73386 
L 253.746667 81.98852 
L 238.481105 90.149864 
M 217.308485 104.945491 
L 206.02 110.025786 
L 182.156667 110.438557 
L 179.191467 113.137869 
L 182.156667 118.678326 
L 191.289277 133.590571 
L 182.156667 137.747059 
L 158.293333 147.333798 
L 141.693292 154.013971 
L 141.35662 173.39493 
L 143.705732 190.956403 
L 134.43 192.452302 
L 111.705171 206.347113 
L 134.43 214.419358 
L 158.293333 218.847298 
L 159.547043 219.557363 
L 158.293333 220.188079 
L 134.43 221.997503 
L 110.566667 225.557456 
L 108.867219 219.557363 
L 110.471266 206.347113 
L 108.237098 190.956403 
L 108.627127 173.39493 
L 110.566667 157.080129 
L 120.803084 154.013971 
L 110.566667 149.284525 
L 109.318922 133.590571 
L 108.908632 113.137869 
L 107.331331 93.757994 
L 104.673481 76.198006 
L 105.230593 60.808896 
L 108.262223 47.600163 
L 107.404293 36.380776 
L 106.821112 26.88 
M 206.02 35.715407 
L 202.698476 36.380776 
L 206.02 36.960821 
L 222.236763 36.380776 
L 206.02 35.715407 
z
M 158.293333 46.292512 
L 152.755569 47.600163 
L 158.293333 49.25791 
L 163.364251 47.600163 
L 158.293333 46.292512 
M 253.746667 58.028843 
L 248.718658 60.808896 
L 253.746667 62.1188 
L 257.294924 60.808896 
L 253.746667 58.028843 
z
M 295.044776 152.503824 
L 301.473333 139.464631 
L 304.252583 150.826413 
" clip-path="url(#p294d94bfa3)" style="fill: none; stroke-dasharray: 1.85,0.8; stroke-dashoffset: 0; stroke: #000000; stroke-width: 0.5"/>
    <path d="M 200.891718 26.88 
L 182.156667 32.767414 
L 171.225017 36.380776 
L 158.293333 40.778984 
L 147.700366 36.380776 
L 134.43 32.281166 
L 119.808814 36.380776 
L 120.042573 47.600163 
L 134.43 51.148594 
L 158.293333 56.247577 
L 182.156667 51.797608 
L 197.942851 60.808896 
L 206.02 63.871744 
L 215.220635 69.265066 
M 216.836251 85.106682 
L 206.919751 93.757994 
L 206.02 94.276894 
L 182.156667 96.516395 
L 176.022478 93.757994 
L 158.293333 86.230735 
L 147.400816 93.757994 
L 158.293333 105.57524 
L 163.897944 113.137869 
L 162.807991 133.590571 
L 158.293333 134.969977 
L 148.151176 133.590571 
L 134.43 122.953085 
L 124.704661 113.137869 
L 110.566667 108.667436 
L 109.262601 93.757994 
L 106.355913 76.198006 
L 106.965184 60.808896 
L 110.280646 47.600163 
L 109.342394 36.380776 
L 108.704614 26.88 
M 286.262939 26.88 
L 277.61 28.437924 
L 267.634394 29.313882 
M 239.80189 30.231074 
L 229.883333 30.016064 
L 215.206532 26.88 
M 277.61 72.800411 
L 279.642209 76.198006 
L 277.61 77.513526 
L 261.451674 76.198006 
L 277.61 72.800411 
z
M 301.473333 147.23594 
L 303.131334 154.013971 
L 301.473333 158.310308 
L 298.131641 154.013971 
L 301.473333 147.23594 
z
M 110.566667 177.988098 
L 114.056259 190.956403 
L 110.566667 193.10739 
L 110.253169 190.956403 
L 110.566667 177.988098 
z
" clip-path="url(#p294d94bfa3)" style="fill: none; stroke-dasharray: 1.85,0.8; stroke-dashoffset: 0; stroke: #000000; stroke-width: 0.5"/>
    <path d="M 120.506653 27.393756 
L 111.395168 26.88 
M 183.840125 26.88 
L 182.156667 27.40902 
L 177.082557 26.88 
M 108.307043 77.732562 
L 108.038346 76.198006 
L 108.699775 60.808896 
L 110.566667 53.460383 
L 127.797672 60.808896 
L 134.085287 76.198006 
L 122.23581 83.473111 
" clip-path="url(#p294d94bfa3)" style="fill: none; stroke-dasharray: 1.85,0.8; stroke-dashoffset: 0; stroke: #000000; stroke-width: 0.5"/>
    <path d="M 110.566667 60.288129 
L 111.787777 60.808896 
L 118.435185 76.198006 
L 110.566667 81.028962 
L 109.720778 76.198006 
L 110.434366 60.808896 
L 110.566667 60.288129 
z
" clip-path="url(#p294d94bfa3)" style="fill: none; stroke-dasharray: 1.85,0.8; stroke-dashoffset: 0; stroke: #000000; stroke-width: 0.5"/>
    <path clip-path="url(#p294d94bfa3)" style="fill: none; stroke-dasharray: 1.85,0.8; stroke-dashoffset: 0; stroke: #000000; stroke-width: 0.5"/>
   </g>
   <g id="patch_3">
    <path d="M 62.84 240.28 
L 62.84 26.88 
" style="fill: none; stroke: #000000; stroke-width: 0.8; stroke-linejoin: miter; stroke-linecap: square"/>
   </g>
   <g id="patch_4">
    <path d="M 349.2 240.28 
L 349.2 26.88 
" style="fill: none; stroke: #000000; stroke-width: 0.8; stroke-linejoin: miter; stroke-linecap: square"/>
   </g>
   <g id="patch_5">
    <path d="M 62.84 240.28 
L 349.2 240.28 
" style="fill: none; stroke: #000000; stroke-width: 0.8; stroke-linejoin: miter; stroke-linecap: square"/>
   </g>
   <g id="patch_6">
    <path d="M 62.84 26.88 
L 349.2 26.88 
" style="fill: none; stroke: #000000; stroke-width: 0.8; stroke-linejoin: miter; stroke-linecap: square"/>
   </g>
   <g id="text_11">
    <!-- Band 50 -->
    <g transform="translate(181.073125 20.88) scale(0.12 -0.12)">
     <defs>
      <path id="DejaVuSans-42" d="M 1259 2228 
L 1259 519 
L 2272 519 
Q 2781 519 3026 730 
Q 3272 941 3272 1375 
Q 3272 1813 3026 2020 
Q 2781 2228 2272 2228 
L 1259 2228 
z
M 1259 4147 
L 1259 2741 
L 2194 2741 
Q 2656 2741 2882 2914 
Q 3109 3088 3109 3444 
Q 3109 3797 2882 3972 
Q 2656 4147 2194 4147 
L 1259 4147 
z
M 628 4666 
L 2241 4666 
Q 2963 4666 3353 4366 
Q 3744 4066 3744 3513 
Q 3744 3084 3544 2831 
Q 3344 2578 2956 2516 
Q 3422 2416 3680 2098 
Q 3938 1781 3938 1306 
Q 3938 681 3513 340 
Q 3088 0 2303 0 
L 628 0 
L 628 4666 
z
" transform="scale(0.015625)"/>
      <path id="DejaVuSans-61" d="M 2194 1759 
Q 1497 1759 1228 1600 
Q 959 1441 959 1056 
Q 959 750 1161 570 
Q 1363 391 1709 391 
Q 2188 391 2477 730 
Q 2766 1069 2766 1631 
L 2766 1759 
L 2194 1759 
z
M 3341 1997 
L 3341 0 
L 2766 0 
L 2766 531 
Q 2569 213 2275 61 
Q 1981 -91 1556 -91 
Q 1019 -91 701 211 
Q 384 513 384 1019 
Q 384 1609 779 1909 
Q 1175 2209 1959 2209 
L 2766 2209 
L 2766 2266 
Q 2766 2663 2505 2880 
Q 2244 3097 1772 3097 
Q 1472 3097 1187 3025 
Q 903 2953 641 2809 
L 641 3341 
Q 956 3463 1253 3523 
Q 1550 3584 1831 3584 
Q 2591 3584 2966 3190 
Q 3341 2797 3341 1997 
z
" transform="scale(0.015625)"/>
      <path id="DejaVuSans-6e" d="M 3513 2113 
L 3513 0 
L 2938 0 
L 2938 2094 
Q 2938 2591 2744 2837 
Q 2550 3084 2163 3084 
Q 1697 3084 1428 2787 
Q 1159 2491 1159 1978 
L 1159 0 
L 581 0 
L 581 3500 
L 1159 3500 
L 1159 2956 
Q 1366 3272 1645 3428 
Q 1925 3584 2291 3584 
Q 2894 3584 3203 3211 
Q 3513 2838 3513 2113 
z
" transform="scale(0.015625)"/>
      <path id="DejaVuSans-64" d="M 2906 2969 
L 2906 4863 
L 3481 4863 
L 3481 0 
L 2906 0 
L 2906 525 
Q 2725 213 2448 61 
Q 2172 -91 1784 -91 
Q 1150 -91 751 415 
Q 353 922 353 1747 
Q 353 2572 751 3078 
Q 1150 3584 1784 3584 
Q 2172 3584 2448 3432 
Q 2725 3281 2906 2969 
z
M 947 1747 
Q 947 1113 1208 752 
Q 1469 391 1925 391 
Q 2381 391 2643 752 
Q 2906 1113 2906 1747 
Q 2906 2381 2643 2742 
Q 2381 3103 1925 3103 
Q 1469 3103 1208 2742 
Q 947 2381 947 1747 
z
" transform="scale(0.015625)"/>
      <path id="DejaVuSans-20" transform="scale(0.015625)"/>
     </defs>
     <use xlink:href="#DejaVuSans-42"/>
     <use xlink:href="#DejaVuSans-61" transform="translate(68.603516 0)"/>
     <use xlink:href="#DejaVuSans-6e" transform="translate(129.882812 0)"/>
     <use xlink:href="#DejaVuSans-64" transform="translate(193.261719 0)"/>
     <use xlink:href="#DejaVuSans-20" transform="translate(256.738281 0)"/>
     <use xlink:href="#DejaVuSans-35" transform="translate(288.525391 0)"/>
     <use xlink:href="#DejaVuSans-30" transform="translate(352.148438 0)"/>
    </g>
   </g>
   <g id="text_12">
    <g clip-path="url(#p294d94bfa3)">
     <!-- 46.5 -->
     <g transform="translate(321.031868 123.618418) rotate(-271.054019) scale(0.09 -0.09)">
      <defs>
       <path id="DejaVuSans-36" d="M 2113 2584 
Q 1688 2584 1439 2293 
Q 1191 2003 1191 1497 
Q 1191 994 1439 701 
Q 1688 409 2113 409 
Q 2538 409 2786 701 
Q 3034 994 3034 1497 
Q 3034 2003 2786 2293 
Q 2538 2584 2113 2584 
z
M 3366 4563 
L 3366 3988 
Q 3128 4100 2886 4159 
Q 2644 4219 2406 4219 
Q 1781 4219 1451 3797 
Q 1122 3375 1075 2522 
Q 1259 2794 1537 2939 
Q 1816 3084 2150 3084 
Q 2853 3084 3261 2657 
Q 3669 2231 3669 1497 
Q 3669 778 3244 343 
Q 2819 -91 2113 -91 
Q 1303 -91 875 529 
Q 447 1150 447 2328 
Q 447 3434 972 4092 
Q 1497 4750 2381 4750 
Q 2619 4750 2861 4703 
Q 3103 4656 3366 4563 
z
" transform="scale(0.015625)"/>
       <path id="DejaVuSans-2e" d="M 684 794 
L 1344 794 
L 1344 0 
L 684 0 
L 684 794 
z
" transform="scale(0.015625)"/>
      </defs>
      <use xlink:href="#DejaVuSans-34"/>
      <use xlink:href="#DejaVuSans-36" transform="translate(63.623047 0)"/>
      <use xlink:href="#DejaVuSans-2e" transform="translate(127.246094 0)"/>
      <use xlink:href="#DejaVuSans-35" transform="translate(159.033203 0)"/>
     </g>
    </g>
   </g>
   <g id="text_13">
    <g clip-path="url(#p294d94bfa3)">
     <!-- 46.5 -->
     <g transform="translate(85.631719 123.578576) rotate(-270.172819) scale(0.09 -0.09)">
      <use xlink:href="#DejaVuSans-34"/>
      <use xlink:href="#DejaVuSans-36" transform="translate(63.623047 0)"/>
      <use xlink:href="#DejaVuSans-2e" transform="translate(127.246094 0)"/>
      <use xlink:href="#DejaVuSans-35" transform="translate(159.033203 0)"/>
     </g>
    </g>
   </g>
   <g id="text_14">
    <g clip-path="url(#p294d94bfa3)">
     <!-- 48.0 -->
     <g transform="translate(318.359467 123.694013) rotate(-272.600062) scale(0.09 -0.09)">
      <defs>
       <path id="DejaVuSans-38" d="M 2034 2216 
Q 1584 2216 1326 1975 
Q 1069 1734 1069 1313 
Q 1069 891 1326 650 
Q 1584 409 2034 409 
Q 2484 409 2743 651 
Q 3003 894 3003 1313 
Q 3003 1734 2745 1975 
Q 2488 2216 2034 2216 
z
M 1403 2484 
Q 997 2584 770 2862 
Q 544 3141 544 3541 
Q 544 4100 942 4425 
Q 1341 4750 2034 4750 
Q 2731 4750 3128 4425 
Q 3525 4100 3525 3541 
Q 3525 3141 3298 2862 
Q 3072 2584 2669 2484 
Q 3125 2378 3379 2068 
Q 3634 1759 3634 1313 
Q 3634 634 3220 271 
Q 2806 -91 2034 -91 
Q 1263 -91 848 271 
Q 434 634 434 1313 
Q 434 1759 690 2068 
Q 947 2378 1403 2484 
z
M 1172 3481 
Q 1172 3119 1398 2916 
Q 1625 2713 2034 2713 
Q 2441 2713 2670 2916 
Q 2900 3119 2900 3481 
Q 2900 3844 2670 4047 
Q 2441 4250 2034 4250 
Q 1625 4250 1398 4047 
Q 1172 3844 1172 3481 
z
" transform="scale(0.015625)"/>
      </defs>
      <use xlink:href="#DejaVuSans-34"/>
      <use xlink:href="#DejaVuSans-38" transform="translate(63.623047 0)"/>
      <use xlink:href="#DejaVuSans-2e" transform="translate(127.246094 0)"/>
      <use xlink:href="#DejaVuSans-30" transform="translate(159.033203 0)"/>
     </g>
    </g>
   </g>
   <g id="text_15">
    <g clip-path="url(#p294d94bfa3)">
     <!-- 48.0 -->
     <g transform="translate(87.70476 123.589806) rotate(-270.426558) scale(0.09 -0.09)">
      <use xlink:href="#DejaVuSans-34"/>
      <use xlink:href="#DejaVuSans-38" transform="translate(63.623047 0)"/>
      <use xlink:href="#DejaVuSans-2e" transform="translate(127.246094 0)"/>
      <use xlink:href="#DejaVuSans-30" transform="translate(159.033203 0)"/>
     </g>
    </g>
   </g>
   <g id="text_16">
    <g clip-path="url(#p294d94bfa3)">
     <!-- 49.5 -->
     <g transform="translate(315.689891 123.77659) rotate(-274.142091) scale(0.09 -0.09)">
      <defs>
       <path id="DejaVuSans-39" d="M 703 97 
L 703 672 
Q 941 559 1184 500 
Q 1428 441 1663 441 
Q 2288 441 2617 861 
Q 2947 1281 2994 2138 
Q 2813 1869 2534 1725 
Q 2256 1581 1919 1581 
Q 1219 1581 811 2004 
Q 403 2428 403 3163 
Q 403 3881 828 4315 
Q 1253 4750 1959 4750 
Q 2769 4750 3195 4129 
Q 3622 3509 3622 2328 
Q 3622 1225 3098 567 
Q 2575 -91 1691 -91 
Q 1453 -91 1209 -44 
Q 966 3 703 97 
z
M 1959 2075 
Q 2384 2075 2632 2365 
Q 2881 2656 2881 3163 
Q 2881 3666 2632 3958 
Q 2384 4250 1959 4250 
Q 1534 4250 1286 3958 
Q 1038 3666 1038 3163 
Q 1038 2656 1286 2365 
Q 1534 2075 1959 2075 
z
" transform="scale(0.015625)"/>
      </defs>
      <use xlink:href="#DejaVuSans-34"/>
      <use xlink:href="#DejaVuSans-39" transform="translate(63.623047 0)"/>
      <use xlink:href="#DejaVuSans-2e" transform="translate(127.246094 0)"/>
      <use xlink:href="#DejaVuSans-35" transform="translate(159.033203 0)"/>
     </g>
    </g>
   </g>
   <g id="text_17">
    <g clip-path="url(#p294d94bfa3)">
     <!-- 49.5 -->
     <g transform="translate(89.777858 123.60123) rotate(-270.680262) scale(0.09 -0.09)">
      <use xlink:href="#DejaVuSans-34"/>
      <use xlink:href="#DejaVuSans-39" transform="translate(63.623047 0)"/>
      <use xlink:href="#DejaVuSans-2e" transform="translate(127.246094 0)"/>
      <use xlink:href="#DejaVuSans-35" transform="translate(159.033203 0)"/>
     </g>
    </g>
   </g>
   <g id="text_18">
    <g clip-path="url(#p294d94bfa3)">
     <!-- 51.0 -->
     <g transform="translate(313.023712 123.86589) rotate(-275.677765) scale(0.09 -0.09)">
      <defs>
       <path id="DejaVuSans-31" d="M 794 531 
L 1825 531 
L 1825 4091 
L 703 3866 
L 703 4441 
L 1819 4666 
L 2450 4666 
L 2450 531 
L 3481 531 
L 3481 0 
L 794 0 
L 794 531 
z
" transform="scale(0.015625)"/>
      </defs>
      <use xlink:href="#DejaVuSans-35"/>
      <use xlink:href="#DejaVuSans-31" transform="translate(63.623047 0)"/>
      <use xlink:href="#DejaVuSans-2e" transform="translate(127.246094 0)"/>
      <use xlink:href="#DejaVuSans-30" transform="translate(159.033203 0)"/>
     </g>
    </g>
   </g>
   <g id="text_19">
    <g clip-path="url(#p294d94bfa3)">
     <!-- 51.0 -->
     <g transform="translate(91.851016 123.612848) rotate(-270.933911) scale(0.09 -0.09)">
      <use xlink:href="#DejaVuSans-35"/>
      <use xlink:href="#DejaVuSans-31" transform="translate(63.623047 0)"/>
      <use xlink:href="#DejaVuSans-2e" transform="translate(127.246094 0)"/>
      <use xlink:href="#DejaVuSans-30" transform="translate(159.033203 0)"/>
     </g>
    </g>
   </g>
   <g id="text_20">
    <g clip-path="url(#p294d94bfa3)">
     <!-- 52.5 -->
     <g transform="translate(310.361471 123.961616) rotate(-277.204803) scale(0.09 -0.09)">
      <use xlink:href="#DejaVuSans-35"/>
      <use xlink:href="#DejaVuSans-32" transform="translate(63.623047 0)"/>
      <use xlink:href="#DejaVuSans-2e" transform="translate(127.246094 0)"/>
      <use xlink:href="#DejaVuSans-35" transform="translate(159.033203 0)"/>
     </g>
    </g>
   </g>
   <g id="text_21">
    <g clip-path="url(#p294d94bfa3)">
     <!-- 52.5 -->
     <g transform="translate(93.92424 123.624658) rotate(-271.187482) scale(0.09 -0.09)">
      <use xlink:href="#DejaVuSans-35"/>
      <use xlink:href="#DejaVuSans-32" transform="translate(63.623047 0)"/>
      <use xlink:href="#DejaVuSans-2e" transform="translate(127.246094 0)"/>
      <use xlink:href="#DejaVuSans-35" transform="translate(159.033203 0)"/>
     </g>
    </g>
   </g>
   <g id="text_22">
    <g clip-path="url(#p294d94bfa3)">
     <!-- 54.0 -->
     <g transform="translate(309.99897 201.096728) rotate(-86.865832) scale(0.09 -0.09)">
      <use xlink:href="#DejaVuSans-35"/>
      <use xlink:href="#DejaVuSans-34" transform="translate(63.623047 0)"/>
      <use xlink:href="#DejaVuSans-2e" transform="translate(127.246094 0)"/>
      <use xlink:href="#DejaVuSans-30" transform="translate(159.033203 0)"/>
     </g>
    </g>
   </g>
   <g id="text_23">
    <g clip-path="url(#p294d94bfa3)">
     <!-- 54.0 -->
     <g transform="translate(95.997533 123.636658) rotate(-271.440957) scale(0.09 -0.09)">
      <use xlink:href="#DejaVuSans-35"/>
      <use xlink:href="#DejaVuSans-34" transform="translate(63.623047 0)"/>
      <use xlink:href="#DejaVuSans-2e" transform="translate(127.246094 0)"/>
      <use xlink:href="#DejaVuSans-30" transform="translate(159.033203 0)"/>
     </g>
    </g>
   </g>
   <g id="text_24">
    <g clip-path="url(#p294d94bfa3)">
     <!-- 54.0 -->
     <g transform="translate(257.517842 230.070641) rotate(-342.149498) scale(0.09 -0.09)">
      <use xlink:href="#DejaVuSans-35"/>
      <use xlink:href="#DejaVuSans-34" transform="translate(63.623047 0)"/>
      <use xlink:href="#DejaVuSans-2e" transform="translate(127.246094 0)"/>
      <use xlink:href="#DejaVuSans-30" transform="translate(159.033203 0)"/>
     </g>
    </g>
   </g>
   <g id="text_25">
    <g clip-path="url(#p294d94bfa3)">
     <!-- 54.0 -->
     <g transform="translate(244.250658 200.950246) rotate(-9.165752) scale(0.09 -0.09)">
      <use xlink:href="#DejaVuSans-35"/>
      <use xlink:href="#DejaVuSans-34" transform="translate(63.623047 0)"/>
      <use xlink:href="#DejaVuSans-2e" transform="translate(127.246094 0)"/>
      <use xlink:href="#DejaVuSans-30" transform="translate(159.033203 0)"/>
     </g>
    </g>
   </g>
   <g id="text_26">
    <g clip-path="url(#p294d94bfa3)">
     <!-- 55.5 -->
     <g transform="translate(284.862145 215.186937) rotate(-321.031105) scale(0.09 -0.09)">
      <use xlink:href="#DejaVuSans-35"/>
      <use xlink:href="#DejaVuSans-35" transform="translate(63.623047 0)"/>
      <use xlink:href="#DejaVuSans-2e" transform="translate(127.246094 0)"/>
      <use xlink:href="#DejaVuSans-35" transform="translate(159.033203 0)"/>
     </g>
    </g>
   </g>
   <g id="text_27">
    <g clip-path="url(#p294d94bfa3)">
     <!-- 55.5 -->
     <g transform="translate(98.0709 123.648848) rotate(-271.694314) scale(0.09 -0.09)">
      <use xlink:href="#DejaVuSans-35"/>
      <use xlink:href="#DejaVuSans-35" transform="translate(63.623047 0)"/>
      <use xlink:href="#DejaVuSans-2e" transform="translate(127.246094 0)"/>
      <use xlink:href="#DejaVuSans-35" transform="translate(159.033203 0)"/>
     </g>
    </g>
   </g>
   <g id="text_28">
    <g clip-path="url(#p294d94bfa3)">
     <!-- 55.5 -->
     <g transform="translate(291.157416 240.445144) rotate(-348.158771) scale(0.09 -0.09)">
      <use xlink:href="#DejaVuSans-35"/>
      <use xlink:href="#DejaVuSans-35" transform="translate(63.623047 0)"/>
      <use xlink:href="#DejaVuSans-2e" transform="translate(127.246094 0)"/>
      <use xlink:href="#DejaVuSans-35" transform="translate(159.033203 0)"/>
     </g>
    </g>
   </g>
   <g id="text_29">
    <g clip-path="url(#p294d94bfa3)">
     <!-- 57.0 -->
     <g transform="translate(267.346516 178.158996) rotate(-339.938394) scale(0.09 -0.09)">
      <defs>
       <path id="DejaVuSans-37" d="M 525 4666 
L 3525 4666 
L 3525 4397 
L 1831 0 
L 1172 0 
L 2766 4134 
L 525 4134 
L 525 4666 
z
" transform="scale(0.015625)"/>
      </defs>
      <use xlink:href="#DejaVuSans-35"/>
      <use xlink:href="#DejaVuSans-37" transform="translate(63.623047 0)"/>
      <use xlink:href="#DejaVuSans-2e" transform="translate(127.246094 0)"/>
      <use xlink:href="#DejaVuSans-30" transform="translate(159.033203 0)"/>
     </g>
    </g>
   </g>
   <g id="text_30">
    <g clip-path="url(#p294d94bfa3)">
     <!-- 57.0 -->
     <g transform="translate(106.502882 164.065965) rotate(-89.230158) scale(0.09 -0.09)">
      <use xlink:href="#DejaVuSans-35"/>
      <use xlink:href="#DejaVuSans-37" transform="translate(63.623047 0)"/>
      <use xlink:href="#DejaVuSans-2e" transform="translate(127.246094 0)"/>
      <use xlink:href="#DejaVuSans-30" transform="translate(159.033203 0)"/>
     </g>
    </g>
   </g>
   <g id="text_31">
    <g clip-path="url(#p294d94bfa3)">
     <!-- 58.5 -->
     <g transform="translate(304.520512 104.036295) rotate(-81.396176) scale(0.09 -0.09)">
      <use xlink:href="#DejaVuSans-35"/>
      <use xlink:href="#DejaVuSans-38" transform="translate(63.623047 0)"/>
      <use xlink:href="#DejaVuSans-2e" transform="translate(127.246094 0)"/>
      <use xlink:href="#DejaVuSans-35" transform="translate(159.033203 0)"/>
     </g>
    </g>
   </g>
   <g id="text_32">
    <g clip-path="url(#p294d94bfa3)">
     <!-- 58.5 -->
     <g transform="translate(108.75744 164.070013) rotate(-89.131056) scale(0.09 -0.09)">
      <use xlink:href="#DejaVuSans-35"/>
      <use xlink:href="#DejaVuSans-38" transform="translate(63.623047 0)"/>
      <use xlink:href="#DejaVuSans-2e" transform="translate(127.246094 0)"/>
      <use xlink:href="#DejaVuSans-35" transform="translate(159.033203 0)"/>
     </g>
    </g>
   </g>
   <g id="text_33">
    <g clip-path="url(#p294d94bfa3)">
     <!-- 60.0 -->
     <g transform="translate(291.90402 172.033448) rotate(-8.105032) scale(0.09 -0.09)">
      <use xlink:href="#DejaVuSans-36"/>
      <use xlink:href="#DejaVuSans-30" transform="translate(63.623047 0)"/>
      <use xlink:href="#DejaVuSans-2e" transform="translate(127.246094 0)"/>
      <use xlink:href="#DejaVuSans-30" transform="translate(159.033203 0)"/>
     </g>
    </g>
   </g>
   <g id="text_34">
    <g clip-path="url(#p294d94bfa3)">
     <!-- 60.0 -->
     <g transform="translate(243.473799 110.321737) rotate(-351.712264) scale(0.09 -0.09)">
      <use xlink:href="#DejaVuSans-36"/>
      <use xlink:href="#DejaVuSans-30" transform="translate(63.623047 0)"/>
      <use xlink:href="#DejaVuSans-2e" transform="translate(127.246094 0)"/>
      <use xlink:href="#DejaVuSans-30" transform="translate(159.033203 0)"/>
     </g>
    </g>
   </g>
   <g id="text_35">
    <g clip-path="url(#p294d94bfa3)">
     <!-- 61.5 -->
     <g transform="translate(223.829009 107.647117) rotate(-40.169856) scale(0.09 -0.09)">
      <use xlink:href="#DejaVuSans-36"/>
      <use xlink:href="#DejaVuSans-31" transform="translate(63.623047 0)"/>
      <use xlink:href="#DejaVuSans-2e" transform="translate(127.246094 0)"/>
      <use xlink:href="#DejaVuSans-35" transform="translate(159.033203 0)"/>
     </g>
    </g>
   </g>
   <g id="text_36">
    <g clip-path="url(#p294d94bfa3)">
     <!-- 61.5 -->
     <g transform="translate(291.90402 167.107511) rotate(-8.105032) scale(0.09 -0.09)">
      <use xlink:href="#DejaVuSans-36"/>
      <use xlink:href="#DejaVuSans-31" transform="translate(63.623047 0)"/>
      <use xlink:href="#DejaVuSans-2e" transform="translate(127.246094 0)"/>
      <use xlink:href="#DejaVuSans-35" transform="translate(159.033203 0)"/>
     </g>
    </g>
   </g>
   <g id="text_37">
    <g clip-path="url(#p294d94bfa3)">
     <!-- 63.0 -->
     <g transform="translate(223.621889 66.460351) rotate(-275.461927) scale(0.09 -0.09)">
      <defs>
       <path id="DejaVuSans-33" d="M 2597 2516 
Q 3050 2419 3304 2112 
Q 3559 1806 3559 1356 
Q 3559 666 3084 287 
Q 2609 -91 1734 -91 
Q 1441 -91 1130 -33 
Q 819 25 488 141 
L 488 750 
Q 750 597 1062 519 
Q 1375 441 1716 441 
Q 2309 441 2620 675 
Q 2931 909 2931 1356 
Q 2931 1769 2642 2001 
Q 2353 2234 1838 2234 
L 1294 2234 
L 1294 2753 
L 1863 2753 
Q 2328 2753 2575 2939 
Q 2822 3125 2822 3475 
Q 2822 3834 2567 4026 
Q 2313 4219 1838 4219 
Q 1578 4219 1281 4162 
Q 984 4106 628 3988 
L 628 4550 
Q 988 4650 1302 4700 
Q 1616 4750 1894 4750 
Q 2613 4750 3031 4423 
Q 3450 4097 3450 3541 
Q 3450 3153 3228 2886 
Q 3006 2619 2597 2516 
z
" transform="scale(0.015625)"/>
      </defs>
      <use xlink:href="#DejaVuSans-36"/>
      <use xlink:href="#DejaVuSans-33" transform="translate(63.623047 0)"/>
      <use xlink:href="#DejaVuSans-2e" transform="translate(127.246094 0)"/>
      <use xlink:href="#DejaVuSans-30" transform="translate(159.033203 0)"/>
     </g>
    </g>
   </g>
   <g id="text_38">
    <g clip-path="url(#p294d94bfa3)">
     <!-- 63.0 -->
     <g transform="translate(243.820554 33.36722) rotate(-2.013024) scale(0.09 -0.09)">
      <use xlink:href="#DejaVuSans-36"/>
      <use xlink:href="#DejaVuSans-33" transform="translate(63.623047 0)"/>
      <use xlink:href="#DejaVuSans-2e" transform="translate(127.246094 0)"/>
      <use xlink:href="#DejaVuSans-30" transform="translate(159.033203 0)"/>
     </g>
    </g>
   </g>
   <g id="text_39">
    <g clip-path="url(#p294d94bfa3)">
     <!-- 64.5 -->
     <g transform="translate(124.495574 30.983407) rotate(-1.844071) scale(0.09 -0.09)">
      <use xlink:href="#DejaVuSans-36"/>
      <use xlink:href="#DejaVuSans-34" transform="translate(63.623047 0)"/>
      <use xlink:href="#DejaVuSans-2e" transform="translate(127.246094 0)"/>
      <use xlink:href="#DejaVuSans-35" transform="translate(159.033203 0)"/>
     </g>
    </g>
   </g>
   <g id="text_40">
    <g clip-path="url(#p294d94bfa3)">
     <!-- 64.5 -->
     <g transform="translate(100.394843 88.878956) rotate(-336.270679) scale(0.09 -0.09)">
      <use xlink:href="#DejaVuSans-36"/>
      <use xlink:href="#DejaVuSans-34" transform="translate(63.623047 0)"/>
      <use xlink:href="#DejaVuSans-2e" transform="translate(127.246094 0)"/>
      <use xlink:href="#DejaVuSans-35" transform="translate(159.033203 0)"/>
     </g>
    </g>
   </g>
  </g>
 </g>
 <defs>
  <clipPath id="p294d94bfa3">
   <rect x="62.84" y="26.88" width="286.36" height="213.4"/>
  </clipPath>
 </defs>
</svg>
