<?xml version="1.0" encoding="utf-8" standalone="no"?>
<!DOCTYPE svg PUBLIC "-//W3C//DTD SVG 1.1//EN"
  "http://www.w3.org/Graphics/SVG/1.1/DTD/svg11.dtd">
<svg xmlns:xlink="http://www.w3.org/1999/xlink" width="360pt" height="288pt" viewBox="0 0 360 288" xmlns="http://www.w3.org/2000/svg" version="1.1">
 <metadata>
  <rdf:RDF xmlns:dc="http://purl.org/dc/elements/1.1/" xmlns:cc="http://creativecommons.org/ns#" xmlns:rdf="http://www.w3.org/1999/02/22-rdf-syntax-ns#">
   <cc:Work>
    <dc:type rdf:resource="http://purl.org/dc/dcmitype/StillImage"/>
    <dc:date>2025-10-02T17:14:41.569838</dc:date>
    <dc:format>image/svg+xml</dc:format>
    <dc:creator>
     <cc:Agent>
      <dc:title>Matplotlib v3.10.6, https://matplotlib.org/</dc:title>
     </cc:Agent>
    </dc:creator>
   </cc:Work>
  </rdf:RDF>
 </metadata>
 <defs>
  <style type="text/css">*{stroke-linejoin: round; stroke-linecap: butt}</style>
 </defs>
 <g id="figure_1">
  <g id="patch_1">
   <path d="M 0 288 
L 360 288 
L 360 0 
L 0 0 
z
" style="fill: #ffffff"/>
  </g>
  <g id="axes_1">
   <g id="patch_2">
    <path d="M 62.84 240.28 
L 349.2 240.28 
L 349.2 26.88 
L 62.84 26.88 
z
" style="fill: #ffffff"/>
   </g>
   <g id="QuadContourSet_1">
    <path d="M 86.703333 26.88 
L 87.709973 26.88 
L 87.604885 36.380776 
L 87.618817 47.600163 
L 87.521596 60.808896 
L 87.378407 76.198006 
L 87.383623 93.757994 
L 87.397377 113.137869 
L 87.674899 133.590571 
L 87.606076 154.013971 
L 87.692527 173.39493 
L 87.573827 190.956403 
L 87.493827 206.347113 
L 87.491647 219.557363 
L 87.51843 230.778089 
L 87.499405 240.28 
L 86.703333 240.28 
L 62.84 240.28 
L 62.84 230.778089 
L 62.84 219.557363 
L 62.84 206.347113 
L 62.84 190.956403 
L 62.84 173.39493 
L 62.84 154.013971 
L 62.84 133.590571 
L 62.84 113.137869 
L 62.84 93.757994 
L 62.84 76.198006 
L 62.84 60.808896 
L 62.84 47.600163 
L 62.84 36.380776 
L 62.84 26.88 
z
M 325.336667 26.88 
L 349.2 26.88 
L 349.2 36.380776 
L 349.2 47.600163 
L 349.2 60.808896 
L 349.2 76.198006 
L 349.2 93.757994 
L 349.2 113.137869 
L 349.2 133.590571 
L 349.2 154.013971 
L 349.2 173.39493 
L 349.2 190.956403 
L 349.2 206.347113 
L 349.2 219.557363 
L 349.2 230.778089 
L 349.2 240.28 
L 325.336667 240.28 
L 324.36351 240.28 
L 324.409585 230.778089 
L 324.444784 219.557363 
L 324.282291 206.347113 
L 324.298469 190.956403 
L 324.384979 173.39493 
L 324.414895 154.013971 
L 324.454389 133.590571 
L 324.575264 113.137869 
L 324.666633 93.757994 
L 324.635017 76.198006 
L 324.484755 60.808896 
L 324.396001 47.600163 
L 324.457164 36.380776 
L 324.472502 26.88 
z
" clip-path="url(#p67d6fb3320)" style="fill: #460a5d"/>
    <path d="M 90.066311 36.380776 
L 90.118279 47.600163 
L 89.755626 60.808896 
L 89.221501 76.198006 
L 89.240959 93.757994 
L 89.292263 113.137869 
L 90.32748 133.590571 
L 90.070753 154.013971 
L 90.393236 173.39493 
L 89.950459 190.956403 
L 89.65204 206.347113 
L 89.643909 219.557363 
L 89.743816 230.778089 
L 89.672849 240.28 
L 87.499405 240.28 
L 87.51843 230.778089 
L 87.491647 219.557363 
L 87.493827 206.347113 
L 87.573827 190.956403 
L 87.692527 173.39493 
L 87.606076 154.013971 
L 87.674899 133.590571 
L 87.397377 113.137869 
L 87.383623 93.757994 
L 87.378407 76.198006 
L 87.521596 60.808896 
L 87.618817 47.600163 
L 87.604885 36.380776 
L 87.709973 26.88 
L 90.458313 26.88 
z
M 324.457164 36.380776 
L 324.396001 47.600163 
L 324.484755 60.808896 
L 324.635017 76.198006 
L 324.666633 93.757994 
L 324.575264 113.137869 
L 324.454389 133.590571 
L 324.414895 154.013971 
L 324.384979 173.39493 
L 324.298469 190.956403 
L 324.282291 206.347113 
L 324.444784 219.557363 
L 324.409585 230.778089 
L 324.36351 240.28 
L 321.706588 240.28 
L 321.878455 230.778089 
L 322.009756 219.557363 
L 321.403623 206.347113 
L 321.46397 190.956403 
L 321.78667 173.39493 
L 321.898262 154.013971 
L 322.045584 133.590571 
L 322.496474 113.137869 
L 322.837299 93.757994 
L 322.719366 76.198006 
L 322.158857 60.808896 
L 321.827783 47.600163 
L 322.055936 36.380776 
L 322.113151 26.88 
L 324.472502 26.88 
z
" clip-path="url(#p67d6fb3320)" style="fill: #481c6e"/>
    <path d="M 92.527738 36.380776 
L 92.617742 47.600163 
L 91.989656 60.808896 
L 91.064595 76.198006 
L 91.098294 93.757994 
L 91.187148 113.137869 
L 92.98006 133.590571 
L 92.535431 154.013971 
L 93.093944 173.39493 
L 92.327092 190.956403 
L 91.810254 206.347113 
L 91.796171 219.557363 
L 91.969202 230.778089 
L 91.846294 240.28 
L 89.672849 240.28 
L 89.743816 230.778089 
L 89.643909 219.557363 
L 89.65204 206.347113 
L 89.950459 190.956403 
L 90.393236 173.39493 
L 90.070753 154.013971 
L 90.32748 133.590571 
L 89.292263 113.137869 
L 89.240959 93.757994 
L 89.221501 76.198006 
L 89.755626 60.808896 
L 90.118279 47.600163 
L 90.066311 36.380776 
L 90.458313 26.88 
L 93.206652 26.88 
z
M 322.055936 36.380776 
L 321.827783 47.600163 
L 322.158857 60.808896 
L 322.719366 76.198006 
L 322.837299 93.757994 
L 322.496474 113.137869 
L 322.045584 133.590571 
L 321.898262 154.013971 
L 321.78667 173.39493 
L 321.46397 190.956403 
L 321.403623 206.347113 
L 322.009756 219.557363 
L 321.878455 230.778089 
L 321.706588 240.28 
L 319.049665 240.28 
L 319.347326 230.778089 
L 319.574728 219.557363 
L 318.524955 206.347113 
L 318.629471 190.956403 
L 319.188361 173.39493 
L 319.38163 154.013971 
L 319.636778 133.590571 
L 320.417684 113.137869 
L 321.007965 93.757994 
L 320.803715 76.198006 
L 319.832959 60.808896 
L 319.259566 47.600163 
L 319.654708 36.380776 
L 319.7538 26.88 
L 322.113151 26.88 
z
" clip-path="url(#p67d6fb3320)" style="fill: #472c7a"/>
    <path d="M 94.989164 36.380776 
L 95.117205 47.600163 
L 94.223686 60.808896 
L 92.907689 76.198006 
L 92.95563 93.757994 
L 93.082034 113.137869 
L 95.63264 133.590571 
L 95.000109 154.013971 
L 95.794653 173.39493 
L 94.703724 190.956403 
L 93.968467 206.347113 
L 93.948434 219.557363 
L 94.194588 230.778089 
L 94.019738 240.28 
L 91.846294 240.28 
L 91.969202 230.778089 
L 91.796171 219.557363 
L 91.810254 206.347113 
L 92.327092 190.956403 
L 93.093944 173.39493 
L 92.535431 154.013971 
L 92.98006 133.590571 
L 91.187148 113.137869 
L 91.098294 93.757994 
L 91.064595 76.198006 
L 91.989656 60.808896 
L 92.617742 47.600163 
L 92.527738 36.380776 
L 93.206652 26.88 
L 95.954992 26.88 
z
M 319.654708 36.380776 
L 319.259566 47.600163 
L 319.832959 60.808896 
L 320.803715 76.198006 
L 321.007965 93.757994 
L 320.417684 113.137869 
L 319.636778 133.590571 
L 319.38163 154.013971 
L 319.188361 173.39493 
L 318.629471 190.956403 
L 318.524955 206.347113 
L 319.574728 219.557363 
L 319.347326 230.778089 
L 319.049665 240.28 
L 316.392743 240.28 
L 316.816197 230.778089 
L 317.1397 219.557363 
L 315.646287 206.347113 
L 315.794971 190.956403 
L 316.590052 173.39493 
L 316.864997 154.013971 
L 317.227973 133.590571 
L 318.338894 113.137869 
L 319.178632 93.757994 
L 318.888064 76.198006 
L 317.507061 60.808896 
L 316.691349 47.600163 
L 317.25348 36.380776 
L 317.394449 26.88 
L 319.7538 26.88 
z
" clip-path="url(#p67d6fb3320)" style="fill: #443b84"/>
    <path d="M 97.450591 36.380776 
L 97.616668 47.600163 
L 96.457715 60.808896 
L 94.750782 76.198006 
L 94.812965 93.757994 
L 94.97692 113.137869 
L 98.285221 133.590571 
L 97.464786 154.013971 
L 98.495361 173.39493 
L 97.080356 190.956403 
L 96.126681 206.347113 
L 96.100696 219.557363 
L 96.419974 230.778089 
L 96.193182 240.28 
L 94.019738 240.28 
L 94.194588 230.778089 
L 93.948434 219.557363 
L 93.968467 206.347113 
L 94.703724 190.956403 
L 95.794653 173.39493 
L 95.000109 154.013971 
L 95.63264 133.590571 
L 93.082034 113.137869 
L 92.95563 93.757994 
L 92.907689 76.198006 
L 94.223686 60.808896 
L 95.117205 47.600163 
L 94.989164 36.380776 
L 95.954992 26.88 
L 98.703331 26.88 
z
M 317.25348 36.380776 
L 316.691349 47.600163 
L 317.507061 60.808896 
L 318.888064 76.198006 
L 319.178632 93.757994 
L 318.338894 113.137869 
L 317.227973 133.590571 
L 316.864997 154.013971 
L 316.590052 173.39493 
L 315.794971 190.956403 
L 315.646287 206.347113 
L 317.1397 219.557363 
L 316.816197 230.778089 
L 316.392743 240.28 
L 313.73582 240.28 
L 314.285067 230.778089 
L 314.704672 219.557363 
L 312.767619 206.347113 
L 312.960472 190.956403 
L 313.991743 173.39493 
L 314.348365 154.013971 
L 314.819168 133.590571 
L 316.260104 113.137869 
L 317.349298 93.757994 
L 316.972413 76.198006 
L 315.181163 60.808896 
L 314.123132 47.600163 
L 314.852253 36.380776 
L 315.035098 26.88 
L 317.394449 26.88 
z
" clip-path="url(#p67d6fb3320)" style="fill: #3e4a89"/>
    <path d="M 99.912017 36.380776 
L 100.116131 47.600163 
L 98.691745 60.808896 
L 96.593876 76.198006 
L 96.670301 93.757994 
L 96.871805 113.137869 
L 100.937801 133.590571 
L 99.929464 154.013971 
L 101.196069 173.39493 
L 99.456988 190.956403 
L 98.284895 206.347113 
L 98.252958 219.557363 
L 98.64536 230.778089 
L 98.366627 240.28 
L 96.193182 240.28 
L 96.419974 230.778089 
L 96.100696 219.557363 
L 96.126681 206.347113 
L 97.080356 190.956403 
L 98.495361 173.39493 
L 97.464786 154.013971 
L 98.285221 133.590571 
L 94.97692 113.137869 
L 94.812965 93.757994 
L 94.750782 76.198006 
L 96.457715 60.808896 
L 97.616668 47.600163 
L 97.450591 36.380776 
L 98.703331 26.88 
L 101.45167 26.88 
z
M 314.852253 36.380776 
L 314.123132 47.600163 
L 315.181163 60.808896 
L 316.972413 76.198006 
L 317.349298 93.757994 
L 316.260104 113.137869 
L 314.819168 133.590571 
L 314.348365 154.013971 
L 313.991743 173.39493 
L 312.960472 190.956403 
L 312.767619 206.347113 
L 314.704672 219.557363 
L 314.285067 230.778089 
L 313.73582 240.28 
L 311.078897 240.28 
L 311.753938 230.778089 
L 312.269644 219.557363 
L 309.888951 206.347113 
L 310.125973 190.956403 
L 311.393434 173.39493 
L 311.831732 154.013971 
L 312.410363 133.590571 
L 314.181314 113.137869 
L 315.519964 93.757994 
L 315.056762 76.198006 
L 312.855265 60.808896 
L 311.554914 47.600163 
L 312.451025 36.380776 
L 312.675746 26.88 
L 315.035098 26.88 
z
" clip-path="url(#p67d6fb3320)" style="fill: #38598c"/>
    <path d="M 102.373444 36.380776 
L 102.615594 47.600163 
L 100.925775 60.808896 
L 98.43697 76.198006 
L 98.527636 93.757994 
L 98.766691 113.137869 
L 103.590381 133.590571 
L 102.394142 154.013971 
L 103.896778 173.39493 
L 101.833621 190.956403 
L 100.443108 206.347113 
L 100.405221 219.557363 
L 100.870746 230.778089 
L 100.540071 240.28 
L 98.366627 240.28 
L 98.64536 230.778089 
L 98.252958 219.557363 
L 98.284895 206.347113 
L 99.456988 190.956403 
L 101.196069 173.39493 
L 99.929464 154.013971 
L 100.937801 133.590571 
L 96.871805 113.137869 
L 96.670301 93.757994 
L 96.593876 76.198006 
L 98.691745 60.808896 
L 100.116131 47.600163 
L 99.912017 36.380776 
L 101.45167 26.88 
L 104.20001 26.88 
z
M 312.451025 36.380776 
L 311.554914 47.600163 
L 312.855265 60.808896 
L 315.056762 76.198006 
L 315.519964 93.757994 
L 314.181314 113.137869 
L 312.410363 133.590571 
L 311.831732 154.013971 
L 311.393434 173.39493 
L 310.125973 190.956403 
L 309.888951 206.347113 
L 312.269644 219.557363 
L 311.753938 230.778089 
L 311.078897 240.28 
L 308.421975 240.28 
L 309.222808 230.778089 
L 309.834616 219.557363 
L 307.010283 206.347113 
L 307.291474 190.956403 
L 308.795125 173.39493 
L 309.3151 154.013971 
L 310.001558 133.590571 
L 312.102524 113.137869 
L 313.69063 93.757994 
L 313.141111 76.198006 
L 310.529367 60.808896 
L 308.986697 47.600163 
L 310.049797 36.380776 
L 310.316395 26.88 
L 312.675746 26.88 
z
" clip-path="url(#p67d6fb3320)" style="fill: #31668e"/>
    <path d="M 104.83487 36.380776 
L 105.115056 47.600163 
L 103.159805 60.808896 
L 100.280064 76.198006 
L 100.384972 93.757994 
L 100.661577 113.137869 
L 106.242962 133.590571 
L 104.858819 154.013971 
L 106.597486 173.39493 
L 104.210253 190.956403 
L 102.601322 206.347113 
L 102.557483 219.557363 
L 103.096132 230.778089 
L 102.713515 240.28 
L 100.540071 240.28 
L 100.870746 230.778089 
L 100.405221 219.557363 
L 100.443108 206.347113 
L 101.833621 190.956403 
L 103.896778 173.39493 
L 102.394142 154.013971 
L 103.590381 133.590571 
L 98.766691 113.137869 
L 98.527636 93.757994 
L 98.43697 76.198006 
L 100.925775 60.808896 
L 102.615594 47.600163 
L 102.373444 36.380776 
L 104.20001 26.88 
L 106.948349 26.88 
z
M 310.049797 36.380776 
L 308.986697 47.600163 
L 310.529367 60.808896 
L 313.141111 76.198006 
L 313.69063 93.757994 
L 312.102524 113.137869 
L 310.001558 133.590571 
L 309.3151 154.013971 
L 308.795125 173.39493 
L 307.291474 190.956403 
L 307.010283 206.347113 
L 309.834616 219.557363 
L 309.222808 230.778089 
L 308.421975 240.28 
L 305.765052 240.28 
L 306.691679 230.778089 
L 307.399588 219.557363 
L 304.131615 206.347113 
L 304.456975 190.956403 
L 306.196815 173.39493 
L 306.798467 154.013971 
L 307.592753 133.590571 
L 310.023734 113.137869 
L 311.861297 93.757994 
L 311.22546 76.198006 
L 308.203469 60.808896 
L 306.41848 47.600163 
L 307.648569 36.380776 
L 307.957044 26.88 
L 310.316395 26.88 
z
" clip-path="url(#p67d6fb3320)" style="fill: #2c718e"/>
    <path d="M 107.296297 36.380776 
L 107.614519 47.600163 
L 105.393835 60.808896 
L 102.123158 76.198006 
L 102.242307 93.757994 
L 102.556463 113.137869 
L 108.895542 133.590571 
L 107.323497 154.013971 
L 109.298195 173.39493 
L 106.586885 190.956403 
L 104.759535 206.347113 
L 104.709745 219.557363 
L 105.321518 230.778089 
L 104.886959 240.28 
L 102.713515 240.28 
L 103.096132 230.778089 
L 102.557483 219.557363 
L 102.601322 206.347113 
L 104.210253 190.956403 
L 106.597486 173.39493 
L 104.858819 154.013971 
L 106.242962 133.590571 
L 100.661577 113.137869 
L 100.384972 93.757994 
L 100.280064 76.198006 
L 103.159805 60.808896 
L 105.115056 47.600163 
L 104.83487 36.380776 
L 106.948349 26.88 
L 109.696689 26.88 
z
M 307.648569 36.380776 
L 306.41848 47.600163 
L 308.203469 60.808896 
L 311.22546 76.198006 
L 311.861297 93.757994 
L 310.023734 113.137869 
L 307.592753 133.590571 
L 306.798467 154.013971 
L 306.196815 173.39493 
L 304.456975 190.956403 
L 304.131615 206.347113 
L 307.399588 219.557363 
L 306.691679 230.778089 
L 305.765052 240.28 
L 303.10813 240.28 
L 304.16055 230.778089 
L 304.96456 219.557363 
L 301.473333 207.016748 
L 300.932731 206.347113 
L 301.473333 197.225474 
L 301.622476 190.956403 
L 303.598506 173.39493 
L 304.281835 154.013971 
L 305.183947 133.590571 
L 307.944944 113.137869 
L 310.031963 93.757994 
L 309.309809 76.198006 
L 305.877571 60.808896 
L 303.850263 47.600163 
L 305.247341 36.380776 
L 305.597693 26.88 
L 307.957044 26.88 
z
M 182.156667 227.812522 
L 193.866201 230.778089 
L 198.418771 240.28 
L 182.156667 240.28 
L 158.293333 240.28 
L 154.756782 240.28 
L 158.293333 239.576696 
L 175.885622 230.778089 
z
" clip-path="url(#p67d6fb3320)" style="fill: #277e8e"/>
    <path d="M 110.566667 26.88 
L 115.426011 26.88 
L 110.566667 33.295697 
L 109.757723 36.380776 
L 110.113982 47.600163 
L 107.627865 60.808896 
L 103.966251 76.198006 
L 104.099643 93.757994 
L 104.451348 113.137869 
L 110.566667 131.486894 
L 111.927761 133.590571 
L 110.566667 144.608366 
L 109.788174 154.013971 
L 110.566667 161.248453 
L 112.994896 173.39493 
L 110.566667 181.124572 
L 108.963517 190.956403 
L 106.917749 206.347113 
L 106.862008 219.557363 
L 107.546904 230.778089 
L 107.060404 240.28 
L 104.886959 240.28 
L 105.321518 230.778089 
L 104.709745 219.557363 
L 104.759535 206.347113 
L 106.586885 190.956403 
L 109.298195 173.39493 
L 107.323497 154.013971 
L 108.895542 133.590571 
L 102.556463 113.137869 
L 102.242307 93.757994 
L 102.123158 76.198006 
L 105.393835 60.808896 
L 107.614519 47.600163 
L 107.296297 36.380776 
L 109.696689 26.88 
z
M 305.247341 36.380776 
L 303.850263 47.600163 
L 305.877571 60.808896 
L 309.309809 76.198006 
L 310.031963 93.757994 
L 307.944944 113.137869 
L 305.183947 133.590571 
L 304.281835 154.013971 
L 303.598506 173.39493 
L 301.622476 190.956403 
L 301.473333 197.225474 
L 300.932731 206.347113 
L 301.473333 207.016748 
L 304.96456 219.557363 
L 304.16055 230.778089 
L 303.10813 240.28 
L 301.473333 240.28 
L 288.067664 240.28 
L 301.473333 232.090797 
L 301.62942 230.778089 
L 302.529532 219.557363 
L 301.473333 215.76346 
L 293.871434 206.347113 
L 296.7991 190.956403 
L 300.743717 173.39493 
L 301.473333 161.554912 
L 301.765202 154.013971 
L 302.775142 133.590571 
L 305.866154 113.137869 
L 308.202629 93.757994 
L 307.394158 76.198006 
L 303.551673 60.808896 
L 301.473333 48.616459 
L 299.805452 47.600163 
L 301.473333 46.30695 
L 302.846113 36.380776 
L 303.238342 26.88 
L 305.597693 26.88 
z
M 182.156667 224.389154 
L 206.02 229.928517 
L 229.883333 229.574878 
L 233.642728 230.778089 
L 229.883333 234.207362 
L 223.089363 240.28 
L 206.02 240.28 
L 198.418771 240.28 
L 193.866201 230.778089 
L 182.156667 227.812522 
L 175.885622 230.778089 
L 158.293333 239.576696 
L 154.756782 240.28 
L 136.550791 240.28 
L 158.293333 235.956124 
L 168.646506 230.778089 
z
" clip-path="url(#p67d6fb3320)" style="fill: #238a8d"/>
    <path d="M 110.566667 33.295697 
L 115.426011 26.88 
L 122.535998 26.88 
L 118.405439 36.380776 
L 124.767256 47.600163 
L 110.566667 57.135476 
L 109.861895 60.808896 
L 105.809345 76.198006 
L 105.956978 93.757994 
L 106.346234 113.137869 
L 110.566667 125.801286 
L 115.606392 133.590571 
L 113.627012 154.013971 
L 117.573708 173.39493 
L 116.501652 190.956403 
L 110.566667 195.885677 
L 109.075962 206.347113 
L 109.01427 219.557363 
L 109.77229 230.778089 
L 109.233848 240.28 
L 107.060404 240.28 
L 107.546904 230.778089 
L 106.862008 219.557363 
L 106.917749 206.347113 
L 108.963517 190.956403 
L 110.566667 181.124572 
L 112.994896 173.39493 
L 110.566667 161.248453 
L 109.788174 154.013971 
L 110.566667 144.608366 
L 111.927761 133.590571 
L 110.566667 131.486894 
L 104.451348 113.137869 
L 104.099643 93.757994 
L 103.966251 76.198006 
L 107.627865 60.808896 
L 110.113982 47.600163 
L 109.757723 36.380776 
z
M 158.293333 26.88 
L 161.517591 26.88 
L 162.065996 36.380776 
L 158.293333 45.889317 
L 150.703315 36.380776 
L 151.602552 26.88 
z
M 253.746667 33.263161 
L 265.502674 36.380776 
L 253.746667 41.103245 
L 249.165015 36.380776 
z
M 301.473333 26.88 
L 303.238342 26.88 
L 302.846113 36.380776 
L 301.473333 46.30695 
L 299.805452 47.600163 
L 301.473333 48.616459 
L 303.551673 60.808896 
L 307.394158 76.198006 
L 308.202629 93.757994 
L 305.866154 113.137869 
L 302.775142 133.590571 
L 301.765202 154.013971 
L 301.473333 161.554912 
L 300.743717 173.39493 
L 296.7991 190.956403 
L 293.871434 206.347113 
L 301.473333 215.76346 
L 302.529532 219.557363 
L 301.62942 230.778089 
L 301.473333 232.090797 
L 288.067664 240.28 
L 277.61 240.28 
L 253.746667 240.28 
L 229.883333 240.28 
L 223.089363 240.28 
L 229.883333 234.207362 
L 233.642728 230.778089 
L 229.883333 229.574878 
L 206.02 229.928517 
L 182.156667 224.389154 
L 168.646506 230.778089 
L 158.293333 235.956124 
L 136.550791 240.28 
L 134.43 240.28 
L 120.343703 240.28 
L 134.43 237.16605 
L 158.293333 232.335553 
L 161.407389 230.778089 
L 182.156667 220.965787 
L 206.02 221.505348 
L 229.883333 223.74667 
L 251.85279 230.778089 
L 253.746667 232.533663 
L 277.61 237.437117 
L 292.786731 230.778089 
L 297.547101 219.557363 
L 286.810138 206.347113 
L 291.865263 190.956403 
L 296.736903 173.39493 
L 297.970188 154.013971 
L 299.204605 133.590571 
L 301.473333 127.614133 
L 303.787365 113.137869 
L 306.373295 93.757994 
L 305.478507 76.198006 
L 301.473333 61.554367 
L 297.39299 60.808896 
L 277.61 47.822021 
L 277.300938 47.600163 
L 277.61 47.4069 
L 290.498141 36.380776 
L 299.63488 26.88 
z
" clip-path="url(#p67d6fb3320)" style="fill: #1f968b"/>
    <path d="M 130.081542 36.380776 
L 134.43 41.506256 
L 138.845961 36.380776 
L 141.337158 26.88 
L 151.602552 26.88 
L 150.703315 36.380776 
L 158.293333 45.889317 
L 162.065996 36.380776 
L 161.517591 26.88 
L 166.464438 26.88 
L 167.959763 36.380776 
L 164.453631 47.600163 
L 158.293333 53.710043 
L 134.43 53.535239 
L 123.877727 60.808896 
L 110.566667 65.458381 
L 107.652439 76.198006 
L 107.814314 93.757994 
L 108.24112 113.137869 
L 110.566667 120.115677 
L 119.285022 133.590571 
L 118.100283 154.013971 
L 122.152519 173.39493 
L 134.43 190.846581 
L 134.583823 190.956403 
L 134.43 191.469748 
L 119.812036 206.347113 
L 113.032491 219.557363 
L 121.109644 230.778089 
L 134.43 233.641535 
L 148.455845 230.778089 
L 158.293333 227.870276 
L 175.823041 219.557363 
L 182.156667 215.073094 
L 206.02 214.106064 
L 229.883333 217.883617 
L 244.793915 219.557363 
L 253.746667 221.336528 
L 267.672361 230.778089 
L 277.61 233.375251 
L 283.529248 230.778089 
L 290.613334 219.557363 
L 279.748842 206.347113 
L 286.931427 190.956403 
L 292.730089 173.39493 
L 294.00746 154.013971 
L 294.26789 133.590571 
L 301.473333 114.609506 
L 301.708575 113.137869 
L 304.543962 93.757994 
L 303.562856 76.198006 
L 301.473333 68.558335 
L 277.61 63.033712 
L 274.10075 60.808896 
L 253.746667 48.982652 
L 250.786177 47.600163 
L 239.783277 36.380776 
L 253.745519 26.88 
L 253.746667 26.88 
L 253.747969 26.88 
L 277.61 34.503071 
L 292.336808 26.88 
L 299.63488 26.88 
L 290.498141 36.380776 
L 277.61 47.4069 
L 277.300938 47.600163 
L 277.61 47.822021 
L 297.39299 60.808896 
L 301.473333 61.554367 
L 305.478507 76.198006 
L 306.373295 93.757994 
L 303.787365 113.137869 
L 301.473333 127.614133 
L 299.204605 133.590571 
L 297.970188 154.013971 
L 296.736903 173.39493 
L 291.865263 190.956403 
L 286.810138 206.347113 
L 297.547101 219.557363 
L 292.786731 230.778089 
L 277.61 237.437117 
L 253.746667 232.533663 
L 251.85279 230.778089 
L 229.883333 223.74667 
L 206.02 221.505348 
L 182.156667 220.965787 
L 161.407389 230.778089 
L 158.293333 232.335553 
L 134.43 237.16605 
L 120.343703 240.28 
L 110.566667 240.28 
L 109.233848 240.28 
L 109.77229 230.778089 
L 109.01427 219.557363 
L 109.075962 206.347113 
L 110.566667 195.885677 
L 116.501652 190.956403 
L 117.573708 173.39493 
L 113.627012 154.013971 
L 115.606392 133.590571 
L 110.566667 125.801286 
L 106.346234 113.137869 
L 105.956978 93.757994 
L 105.809345 76.198006 
L 109.861895 60.808896 
L 110.566667 57.135476 
L 124.767256 47.600163 
L 118.405439 36.380776 
L 122.535998 26.88 
L 129.645985 26.88 
z
M 249.165015 36.380776 
L 253.746667 41.103245 
L 265.502674 36.380776 
L 253.746667 33.263161 
z
" clip-path="url(#p67d6fb3320)" style="fill: #1fa287"/>
    <path d="M 134.43 26.88 
L 141.337158 26.88 
L 138.845961 36.380776 
L 134.43 41.506256 
L 130.081542 36.380776 
L 129.645985 26.88 
z
M 173.85353 36.380776 
L 171.415783 47.600163 
L 158.293333 60.615214 
L 156.914372 60.808896 
L 134.43 62.778504 
L 110.566667 72.250622 
L 109.495533 76.198006 
L 109.671649 93.757994 
L 110.136005 113.137869 
L 110.566667 114.430069 
L 122.963653 133.590571 
L 122.573554 154.013971 
L 126.73133 173.39493 
L 134.43 184.338095 
L 143.700003 190.956403 
L 138.961344 206.347113 
L 134.43 209.84542 
L 121.879638 219.557363 
L 134.43 229.467746 
L 158.293333 222.767321 
L 165.062276 219.557363 
L 182.156667 207.454367 
L 206.02 207.014803 
L 229.883333 211.931498 
L 253.746667 210.711353 
L 262.584895 206.347113 
L 277.61 199.584008 
L 281.997591 190.956403 
L 288.723275 173.39493 
L 290.044733 154.013971 
L 289.331175 133.590571 
L 296.316347 113.137869 
L 301.473333 102.158608 
L 302.714628 93.757994 
L 301.647204 76.198006 
L 301.473333 75.562302 
L 277.61 67.630807 
L 266.849656 60.808896 
L 253.746667 53.195724 
L 241.764227 47.600163 
L 230.401539 36.380776 
L 243.328936 26.88 
L 253.745519 26.88 
L 239.783277 36.380776 
L 250.786177 47.600163 
L 253.746667 48.982652 
L 274.10075 60.808896 
L 277.61 63.033712 
L 301.473333 68.558335 
L 303.562856 76.198006 
L 304.543962 93.757994 
L 301.708575 113.137869 
L 301.473333 114.609506 
L 294.26789 133.590571 
L 294.00746 154.013971 
L 292.730089 173.39493 
L 286.931427 190.956403 
L 279.748842 206.347113 
L 290.613334 219.557363 
L 283.529248 230.778089 
L 277.61 233.375251 
L 267.672361 230.778089 
L 253.746667 221.336528 
L 244.793915 219.557363 
L 229.883333 217.883617 
L 206.02 214.106064 
L 182.156667 215.073094 
L 175.823041 219.557363 
L 158.293333 227.870276 
L 148.455845 230.778089 
L 134.43 233.641535 
L 121.109644 230.778089 
L 113.032491 219.557363 
L 119.812036 206.347113 
L 134.43 191.469748 
L 134.583823 190.956403 
L 134.43 190.846581 
L 122.152519 173.39493 
L 118.100283 154.013971 
L 119.285022 133.590571 
L 110.566667 120.115677 
L 108.24112 113.137869 
L 107.814314 93.757994 
L 107.652439 76.198006 
L 110.566667 65.458381 
L 123.877727 60.808896 
L 134.43 53.535239 
L 158.293333 53.710043 
L 164.453631 47.600163 
L 167.959763 36.380776 
L 166.464438 26.88 
L 171.411286 26.88 
z
M 265.369258 219.557363 
L 277.61 227.504382 
L 283.679567 219.557363 
L 277.61 212.203459 
z
M 277.61 30.725353 
L 285.038736 26.88 
L 292.336808 26.88 
L 277.61 34.503071 
L 253.747969 26.88 
L 265.573127 26.88 
z
" clip-path="url(#p67d6fb3320)" style="fill: #27ad81"/>
    <path d="M 179.747297 36.380776 
L 178.377935 47.600163 
L 176.659413 60.808896 
L 158.293333 69.392384 
L 134.43 67.085134 
L 114.509663 76.198006 
L 113.642295 93.757994 
L 115.522374 113.137869 
L 126.642284 133.590571 
L 127.046825 154.013971 
L 131.310141 173.39493 
L 134.43 177.829609 
L 152.816184 190.956403 
L 147.829271 206.347113 
L 158.293333 216.397697 
L 172.132764 206.347113 
L 177.974451 190.956403 
L 182.156667 188.247505 
L 184.70625 190.956403 
L 206.02 199.281468 
L 229.883333 205.4497 
L 253.746667 198.513879 
L 273.724056 190.956403 
L 277.61 189.924564 
L 284.716461 173.39493 
L 286.082006 154.013971 
L 284.394461 133.590571 
L 290.501316 113.137869 
L 299.162302 93.757994 
L 289.234602 76.198006 
L 277.61 72.227901 
L 259.598562 60.808896 
L 253.746667 57.408795 
L 232.192988 60.808896 
L 229.883333 61.624831 
L 229.407173 60.808896 
L 229.883333 57.976995 
L 232.742278 47.600163 
L 229.883333 44.782202 
L 223.124231 36.380776 
L 229.883333 29.116014 
L 232.912352 26.88 
L 243.328936 26.88 
L 230.401539 36.380776 
L 241.764227 47.600163 
L 253.746667 53.195724 
L 266.849656 60.808896 
L 277.61 67.630807 
L 301.473333 75.562302 
L 301.647204 76.198006 
L 302.714628 93.757994 
L 301.473333 102.158608 
L 296.316347 113.137869 
L 289.331175 133.590571 
L 290.044733 154.013971 
L 288.723275 173.39493 
L 281.997591 190.956403 
L 277.61 199.584008 
L 262.584895 206.347113 
L 253.746667 210.711353 
L 229.883333 211.931498 
L 206.02 207.014803 
L 182.156667 207.454367 
L 165.062276 219.557363 
L 158.293333 222.767321 
L 134.43 229.467746 
L 121.879638 219.557363 
L 134.43 209.84542 
L 138.961344 206.347113 
L 143.700003 190.956403 
L 134.43 184.338095 
L 126.73133 173.39493 
L 122.573554 154.013971 
L 122.963653 133.590571 
L 110.566667 114.430069 
L 110.136005 113.137869 
L 109.671649 93.757994 
L 109.495533 76.198006 
L 110.566667 72.250622 
L 134.43 62.778504 
L 156.914372 60.808896 
L 158.293333 60.615214 
L 171.415783 47.600163 
L 173.85353 36.380776 
L 171.411286 26.88 
L 176.358134 26.88 
z
M 130.726784 219.557363 
L 134.43 222.481604 
L 147.081259 219.557363 
L 134.43 216.691675 
z
M 277.61 26.947636 
L 277.740663 26.88 
L 285.038736 26.88 
L 277.61 30.725353 
L 265.573127 26.88 
L 277.398284 26.88 
z
M 277.61 212.203459 
L 283.679567 219.557363 
L 277.61 227.504382 
L 265.369258 219.557363 
z
" clip-path="url(#p67d6fb3320)" style="fill: #38b977"/>
    <path d="M 182.156667 29.022772 
L 189.274836 36.380776 
L 185.575045 47.600163 
L 186.43324 60.808896 
L 182.156667 76.083705 
L 181.617105 76.198006 
L 158.293333 80.614119 
L 154.225008 76.198006 
L 134.43 71.391765 
L 123.923767 76.198006 
L 119.578454 93.757994 
L 121.935666 113.137869 
L 130.320914 133.590571 
L 131.520096 154.013971 
L 134.43 167.022913 
L 158.293333 164.91594 
L 182.156667 169.266387 
L 187.357081 173.39493 
L 204.675923 190.956403 
L 206.02 191.481394 
L 229.123015 190.956403 
L 229.883333 190.906263 
L 253.746667 187.217878 
L 277.61 180.604711 
L 280.709647 173.39493 
L 282.119279 154.013971 
L 279.457746 133.590571 
L 284.686285 113.137869 
L 291.972902 93.757994 
L 277.61 77.320207 
L 275.414183 76.198006 
L 253.746667 62.738683 
L 229.883333 71.059725 
L 223.901193 60.808896 
L 225.113869 47.600163 
L 215.969958 36.380776 
L 206.02 28.12146 
L 192.934026 26.88 
L 206.02 26.88 
L 229.883333 26.88 
L 232.912352 26.88 
L 229.883333 29.116014 
L 223.124231 36.380776 
L 229.883333 44.782202 
L 232.742278 47.600163 
L 229.883333 57.976995 
L 229.407173 60.808896 
L 229.883333 61.624831 
L 232.192988 60.808896 
L 253.746667 57.408795 
L 259.598562 60.808896 
L 277.61 72.227901 
L 289.234602 76.198006 
L 299.162302 93.757994 
L 290.501316 113.137869 
L 284.394461 133.590571 
L 286.082006 154.013971 
L 284.716461 173.39493 
L 277.61 189.924564 
L 273.724056 190.956403 
L 253.746667 198.513879 
L 229.883333 205.4497 
L 206.02 199.281468 
L 184.70625 190.956403 
L 182.156667 188.247505 
L 177.974451 190.956403 
L 172.132764 206.347113 
L 158.293333 216.397697 
L 147.829271 206.347113 
L 152.816184 190.956403 
L 134.43 177.829609 
L 131.310141 173.39493 
L 127.046825 154.013971 
L 126.642284 133.590571 
L 115.522374 113.137869 
L 113.642295 93.757994 
L 114.509663 76.198006 
L 134.43 67.085134 
L 158.293333 69.392384 
L 176.659413 60.808896 
L 178.377935 47.600163 
L 179.747297 36.380776 
L 176.358134 26.88 
L 181.304981 26.88 
z
M 156.697198 206.347113 
L 158.293333 207.880178 
L 160.40433 206.347113 
L 158.293333 201.564144 
z
M 277.61 26.88 
L 277.740663 26.88 
L 277.61 26.947636 
L 277.398284 26.88 
z
M 134.43 216.691675 
L 147.081259 219.557363 
L 134.43 222.481604 
L 130.726784 219.557363 
z
" clip-path="url(#p67d6fb3320)" style="fill: #50c46a"/>
    <path d="M 182.156667 26.88 
L 192.934026 26.88 
L 206.02 28.12146 
L 215.969958 36.380776 
L 225.113869 47.600163 
L 223.901193 60.808896 
L 229.883333 71.059725 
L 253.746667 62.738683 
L 275.414183 76.198006 
L 277.61 77.320207 
L 291.972902 93.757994 
L 284.686285 113.137869 
L 279.457746 133.590571 
L 282.119279 154.013971 
L 280.709647 173.39493 
L 277.61 180.604711 
L 253.746667 187.217878 
L 229.883333 190.906263 
L 229.123015 190.956403 
L 206.02 191.481394 
L 204.675923 190.956403 
L 187.357081 173.39493 
L 182.156667 169.266387 
L 158.293333 164.91594 
L 134.43 167.022913 
L 131.520096 154.013971 
L 130.320914 133.590571 
L 121.935666 113.137869 
L 119.578454 93.757994 
L 123.923767 76.198006 
L 134.43 71.391765 
L 154.225008 76.198006 
L 158.293333 80.614119 
L 181.617105 76.198006 
L 182.156667 76.083705 
L 186.43324 60.808896 
L 185.575045 47.600163 
L 189.274836 36.380776 
L 182.156667 29.022772 
L 181.304981 26.88 
z
M 201.315035 36.380776 
L 193.051051 47.600163 
L 192.464399 60.808896 
L 187.897979 76.198006 
L 182.156667 87.098648 
L 166.479848 93.757994 
L 158.293333 99.094612 
L 154.130787 93.757994 
L 136.487702 76.198006 
L 134.43 75.698395 
L 133.337872 76.198006 
L 125.514613 93.757994 
L 128.348958 113.137869 
L 133.999545 133.590571 
L 134.43 138.713432 
L 158.293333 153.067766 
L 168.365883 154.013971 
L 182.156667 155.503887 
L 204.692668 173.39493 
L 206.02 174.727219 
L 212.050882 173.39493 
L 229.883333 170.021515 
L 236.477114 173.39493 
L 253.746667 178.540298 
L 271.016034 173.39493 
L 277.61 161.350969 
L 278.156552 154.013971 
L 277.61 150.325228 
L 269.702571 133.590571 
L 277.61 118.402589 
L 278.871255 113.137869 
L 284.783503 93.757994 
L 277.61 85.548197 
L 259.314423 76.198006 
L 253.746667 72.739454 
L 243.446655 76.198006 
L 229.883333 81.816632 
L 226.860511 76.198006 
L 218.395212 60.808896 
L 218.131908 47.600163 
L 208.815685 36.380776 
L 206.02 34.060118 
z
M 158.293333 201.564144 
L 160.40433 206.347113 
L 158.293333 207.880178 
L 156.697198 206.347113 
z
" clip-path="url(#p67d6fb3320)" style="fill: #6ccd5a"/>
    <path d="M 206.02 34.060118 
L 208.815685 36.380776 
L 218.131908 47.600163 
L 218.395212 60.808896 
L 226.860511 76.198006 
L 229.883333 81.816632 
L 243.446655 76.198006 
L 253.746667 72.739454 
L 259.314423 76.198006 
L 277.61 85.548197 
L 284.783503 93.757994 
L 278.871255 113.137869 
L 277.61 118.402589 
L 269.702571 133.590571 
L 277.61 150.325228 
L 278.156552 154.013971 
L 277.61 161.350969 
L 271.016034 173.39493 
L 253.746667 178.540298 
L 236.477114 173.39493 
L 229.883333 170.021515 
L 212.050882 173.39493 
L 206.02 174.727219 
L 204.692668 173.39493 
L 182.156667 155.503887 
L 168.365883 154.013971 
L 158.293333 153.067766 
L 134.43 138.713432 
L 133.999545 133.590571 
L 128.348958 113.137869 
L 125.514613 93.757994 
L 133.337872 76.198006 
L 134.43 75.698395 
L 136.487702 76.198006 
L 154.130787 93.757994 
L 158.293333 99.094612 
L 166.479848 93.757994 
L 182.156667 87.098648 
L 187.897979 76.198006 
L 192.464399 60.808896 
L 193.051051 47.600163 
L 201.315035 36.380776 
z
M 200.527057 47.600163 
L 198.495558 60.808896 
L 193.669917 76.198006 
L 186.33634 93.757994 
L 191.804404 113.137869 
L 206.02 129.381748 
L 211.285249 133.590571 
L 224.406927 154.013971 
L 229.883333 155.121097 
L 232.014962 154.013971 
L 253.746667 138.847918 
L 257.065111 133.590571 
L 253.746667 126.798879 
L 232.31955 113.137869 
L 229.883333 100.514075 
L 229.475329 93.757994 
L 220.222723 76.198006 
L 212.889232 60.808896 
L 211.149947 47.600163 
L 206.02 41.466576 
z
M 131.450772 93.757994 
L 134.43 111.324558 
L 141.013353 93.757994 
L 134.43 87.398823 
z
M 148.378599 133.590571 
L 158.293333 141.101168 
L 172.619162 133.590571 
L 158.293333 117.39446 
z
" clip-path="url(#p67d6fb3320)" style="fill: #8bd646"/>
    <path d="M 206.02 41.466576 
L 211.149947 47.600163 
L 212.889232 60.808896 
L 220.222723 76.198006 
L 229.475329 93.757994 
L 229.883333 100.514075 
L 232.31955 113.137869 
L 253.746667 126.798879 
L 257.065111 133.590571 
L 253.746667 138.847918 
L 232.014962 154.013971 
L 229.883333 155.121097 
L 224.406927 154.013971 
L 211.285249 133.590571 
L 206.02 129.381748 
L 191.804404 113.137869 
L 186.33634 93.757994 
L 193.669917 76.198006 
L 198.495558 60.808896 
L 200.527057 47.600163 
z
M 204.526717 60.808896 
L 199.441855 76.198006 
L 196.989849 93.757994 
L 206.02 106.882026 
L 216.780456 93.757994 
L 213.584935 76.198006 
L 207.383252 60.808896 
L 206.02 54.431979 
z
M 134.43 87.398823 
L 141.013353 93.757994 
L 134.43 111.324558 
L 131.450772 93.757994 
z
M 158.293333 117.39446 
L 172.619162 133.590571 
L 158.293333 141.101168 
L 148.378599 133.590571 
z
" clip-path="url(#p67d6fb3320)" style="fill: #addc30"/>
    <path d="M 206.02 54.431979 
L 207.383252 60.808896 
L 213.584935 76.198006 
L 216.780456 93.757994 
L 206.02 106.882026 
L 196.989849 93.757994 
L 199.441855 76.198006 
L 204.526717 60.808896 
z
M 205.213793 76.198006 
L 206.02 84.596178 
L 206.947146 76.198006 
L 206.02 73.78847 
z
" clip-path="url(#p67d6fb3320)" style="fill: #cde11d"/>
    <path d="M 206.02 73.78847 
L 206.947146 76.198006 
L 206.02 84.596178 
L 205.213793 76.198006 
z
" clip-path="url(#p67d6fb3320)" style="fill: #efe51c"/>
   </g>
   <g id="matplotlib.axis_1">
    <g id="xtick_1">
     <g id="line2d_1">
      <defs>
       <path id="m3de16aa479" d="M 0 0 
L 0 3.5 
" style="stroke: #000000; stroke-width: 0.8"/>
      </defs>
      <g>
       <use xlink:href="#m3de16aa479" x="126.475556" y="240.28" style="stroke: #000000; stroke-width: 0.8"/>
      </g>
     </g>
     <g id="text_1">
      <!-- −50 -->
      <g transform="translate(113.812743 256.398125) scale(0.12 -0.12)">
       <defs>
        <path id="DejaVuSans-2212" d="M 678 2272 
L 4684 2272 
L 4684 1741 
L 678 1741 
L 678 2272 
z
" transform="scale(0.015625)"/>
        <path id="DejaVuSans-35" d="M 691 4666 
L 3169 4666 
L 3169 4134 
L 1269 4134 
L 1269 2991 
Q 1406 3038 1543 3061 
Q 1681 3084 1819 3084 
Q 2600 3084 3056 2656 
Q 3513 2228 3513 1497 
Q 3513 744 3044 326 
Q 2575 -91 1722 -91 
Q 1428 -91 1123 -41 
Q 819 9 494 109 
L 494 744 
Q 775 591 1075 516 
Q 1375 441 1709 441 
Q 2250 441 2565 725 
Q 2881 1009 2881 1497 
Q 2881 1984 2565 2268 
Q 2250 2553 1709 2553 
Q 1456 2553 1204 2497 
Q 953 2441 691 2322 
L 691 4666 
z
" transform="scale(0.015625)"/>
        <path id="DejaVuSans-30" d="M 2034 4250 
Q 1547 4250 1301 3770 
Q 1056 3291 1056 2328 
Q 1056 1369 1301 889 
Q 1547 409 2034 409 
Q 2525 409 2770 889 
Q 3016 1369 3016 2328 
Q 3016 3291 2770 3770 
Q 2525 4250 2034 4250 
z
M 2034 4750 
Q 2819 4750 3233 4129 
Q 3647 3509 3647 2328 
Q 3647 1150 3233 529 
Q 2819 -91 2034 -91 
Q 1250 -91 836 529 
Q 422 1150 422 2328 
Q 422 3509 836 4129 
Q 1250 4750 2034 4750 
z
" transform="scale(0.015625)"/>
       </defs>
       <use xlink:href="#DejaVuSans-2212"/>
       <use xlink:href="#DejaVuSans-35" transform="translate(83.789062 0)"/>
       <use xlink:href="#DejaVuSans-30" transform="translate(147.412109 0)"/>
      </g>
     </g>
    </g>
    <g id="xtick_2">
     <g id="line2d_2">
      <g>
       <use xlink:href="#m3de16aa479" x="206.02" y="240.28" style="stroke: #000000; stroke-width: 0.8"/>
      </g>
     </g>
     <g id="text_2">
      <!-- 0 -->
      <g transform="translate(202.2025 256.398125) scale(0.12 -0.12)">
       <use xlink:href="#DejaVuSans-30"/>
      </g>
     </g>
    </g>
    <g id="xtick_3">
     <g id="line2d_3">
      <g>
       <use xlink:href="#m3de16aa479" x="285.564444" y="240.28" style="stroke: #000000; stroke-width: 0.8"/>
      </g>
     </g>
     <g id="text_3">
      <!-- 50 -->
      <g transform="translate(277.929444 256.398125) scale(0.12 -0.12)">
       <use xlink:href="#DejaVuSans-35"/>
       <use xlink:href="#DejaVuSans-30" transform="translate(63.623047 0)"/>
      </g>
     </g>
    </g>
    <g id="text_4">
     <!-- $\Theta^{\circ}$ -->
     <g transform="translate(198.4 272.011875) scale(0.12 -0.12)">
      <defs>
       <path id="DejaVuSans-398" d="M 1416 2750 
L 3622 2750 
L 3622 2219 
L 1416 2219 
L 1416 2750 
z
M 2522 4238 
Q 1834 4238 1431 3725 
Q 1025 3213 1025 2328 
Q 1025 1447 1429 934 
Q 1834 422 2522 422 
Q 3209 422 3613 934 
Q 4013 1447 4013 2328 
Q 4013 3213 3613 3725 
Q 3209 4238 2522 4238 
z
M 2522 4750 
Q 3503 4750 4090 4092 
Q 4678 3434 4678 2328 
Q 4678 1225 4091 569 
Q 3503 -91 2522 -91 
Q 1538 -91 950 566 
Q 359 1222 359 2328 
Q 359 3434 950 4094 
Q 1538 4750 2522 4750 
z
" transform="scale(0.015625)"/>
       <path id="DejaVuSans-2218" d="M 2000 2619 
Q 1750 2619 1578 2445 
Q 1406 2272 1406 2022 
Q 1406 1775 1578 1605 
Q 1750 1435 2000 1435 
Q 2250 1435 2422 1605 
Q 2594 1775 2594 2022 
Q 2594 2269 2420 2444 
Q 2247 2619 2000 2619 
z
M 2000 3022 
Q 2200 3022 2384 2945 
Q 2569 2869 2703 2725 
Q 2847 2585 2919 2406 
Q 2991 2228 2991 2022 
Q 2991 1610 2702 1324 
Q 2413 1038 1994 1038 
Q 1572 1038 1290 1319 
Q 1009 1600 1009 2022 
Q 1009 2441 1296 2731 
Q 1584 3022 2000 3022 
z
" transform="scale(0.015625)"/>
      </defs>
      <use xlink:href="#DejaVuSans-398" transform="translate(0 0.78125)"/>
      <use xlink:href="#DejaVuSans-2218" transform="translate(79.667969 39.0625) scale(0.7)"/>
     </g>
    </g>
   </g>
   <g id="matplotlib.axis_2">
    <g id="ytick_1">
     <g id="line2d_4">
      <defs>
       <path id="m586e2ed53f" d="M 0 0 
L -3.5 0 
" style="stroke: #000000; stroke-width: 0.8"/>
      </defs>
      <g>
       <use xlink:href="#m586e2ed53f" x="62.84" y="219.984151" style="stroke: #000000; stroke-width: 0.8"/>
      </g>
     </g>
     <g id="text_5">
      <!-- −40 -->
      <g transform="translate(30.514375 224.543214) scale(0.12 -0.12)">
       <defs>
        <path id="DejaVuSans-34" d="M 2419 4116 
L 825 1625 
L 2419 1625 
L 2419 4116 
z
M 2253 4666 
L 3047 4666 
L 3047 1625 
L 3713 1625 
L 3713 1100 
L 3047 1100 
L 3047 0 
L 2419 0 
L 2419 1100 
L 313 1100 
L 313 1709 
L 2253 4666 
z
" transform="scale(0.015625)"/>
       </defs>
       <use xlink:href="#DejaVuSans-2212"/>
       <use xlink:href="#DejaVuSans-34" transform="translate(83.789062 0)"/>
       <use xlink:href="#DejaVuSans-30" transform="translate(147.412109 0)"/>
      </g>
     </g>
    </g>
    <g id="ytick_2">
     <g id="line2d_5">
      <g>
       <use xlink:href="#m586e2ed53f" x="62.84" y="176.783648" style="stroke: #000000; stroke-width: 0.8"/>
      </g>
     </g>
     <g id="text_6">
      <!-- −20 -->
      <g transform="translate(30.514375 181.342711) scale(0.12 -0.12)">
       <defs>
        <path id="DejaVuSans-32" d="M 1228 531 
L 3431 531 
L 3431 0 
L 469 0 
L 469 531 
Q 828 903 1448 1529 
Q 2069 2156 2228 2338 
Q 2531 2678 2651 2914 
Q 2772 3150 2772 3378 
Q 2772 3750 2511 3984 
Q 2250 4219 1831 4219 
Q 1534 4219 1204 4116 
Q 875 4013 500 3803 
L 500 4441 
Q 881 4594 1212 4672 
Q 1544 4750 1819 4750 
Q 2544 4750 2975 4387 
Q 3406 4025 3406 3419 
Q 3406 3131 3298 2873 
Q 3191 2616 2906 2266 
Q 2828 2175 2409 1742 
Q 1991 1309 1228 531 
z
" transform="scale(0.015625)"/>
       </defs>
       <use xlink:href="#DejaVuSans-2212"/>
       <use xlink:href="#DejaVuSans-32" transform="translate(83.789062 0)"/>
       <use xlink:href="#DejaVuSans-30" transform="translate(147.412109 0)"/>
      </g>
     </g>
    </g>
    <g id="ytick_3">
     <g id="line2d_6">
      <g>
       <use xlink:href="#m586e2ed53f" x="62.84" y="133.583145" style="stroke: #000000; stroke-width: 0.8"/>
      </g>
     </g>
     <g id="text_7">
      <!-- 0 -->
      <g transform="translate(48.205 138.142208) scale(0.12 -0.12)">
       <use xlink:href="#DejaVuSans-30"/>
      </g>
     </g>
    </g>
    <g id="ytick_4">
     <g id="line2d_7">
      <g>
       <use xlink:href="#m586e2ed53f" x="62.84" y="90.382642" style="stroke: #000000; stroke-width: 0.8"/>
      </g>
     </g>
     <g id="text_8">
      <!-- 20 -->
      <g transform="translate(40.57 94.941704) scale(0.12 -0.12)">
       <use xlink:href="#DejaVuSans-32"/>
       <use xlink:href="#DejaVuSans-30" transform="translate(63.623047 0)"/>
      </g>
     </g>
    </g>
    <g id="ytick_5">
     <g id="line2d_8">
      <g>
       <use xlink:href="#m586e2ed53f" x="62.84" y="47.182139" style="stroke: #000000; stroke-width: 0.8"/>
      </g>
     </g>
     <g id="text_9">
      <!-- 40 -->
      <g transform="translate(40.57 51.741201) scale(0.12 -0.12)">
       <use xlink:href="#DejaVuSans-34"/>
       <use xlink:href="#DejaVuSans-30" transform="translate(63.623047 0)"/>
      </g>
     </g>
    </g>
    <g id="text_10">
     <!-- $\phi^{\circ}$ -->
     <g transform="translate(23.784375 141.38) rotate(-90) scale(0.13 -0.13)">
      <defs>
       <path id="DejaVuSans-Oblique-3d5" d="M 2991 4863 
L 2738 3572 
Q 3363 3572 3684 3094 
Q 4016 2606 3850 1747 
Q 3681 888 3159 400 
Q 2653 -78 2028 -78 
L 1784 -1331 
L 1213 -1331 
L 1456 -78 
Q 834 -78 509 400 
Q 178 888 347 1747 
Q 513 2606 1034 3094 
Q 1544 3572 2166 3572 
L 2419 4863 
L 2991 4863 
z
M 2128 434 
Q 2481 434 2784 756 
Q 3116 1116 3244 1747 
Q 3369 2372 3169 2738 
Q 2991 3059 2638 3059 
L 2128 434 
z
M 1556 434 
L 2066 3059 
Q 1716 3059 1413 2738 
Q 1072 2372 953 1747 
Q 834 1116 1028 756 
Q 1203 434 1556 434 
z
" transform="scale(0.015625)"/>
      </defs>
      <use xlink:href="#DejaVuSans-Oblique-3d5" transform="translate(0 0.015625)"/>
      <use xlink:href="#DejaVuSans-2218" transform="translate(73.414505 38.296875) scale(0.7)"/>
     </g>
    </g>
   </g>
   <g id="QuadContourSet_2">
    <path clip-path="url(#p67d6fb3320)" style="fill: none; stroke-dasharray: 1.85,0.8; stroke-dashoffset: 0; stroke: #000000; stroke-width: 0.5"/>
    <path d="M 324.472502 26.88 
L 324.457164 36.380776 
L 324.396001 47.600163 
L 324.484755 60.808896 
L 324.635017 76.198006 
L 324.666633 93.757994 
L 324.575264 113.137869 
L 324.531677 120.513093 
M 324.4291 146.668228 
L 324.414895 154.013971 
L 324.384979 173.39493 
L 324.298469 190.956403 
L 324.282291 206.347113 
L 324.444784 219.557363 
L 324.409585 230.778089 
L 324.36351 240.28 
M 87.499405 240.28 
L 87.51843 230.778089 
L 87.491647 219.557363 
L 87.493827 206.347113 
L 87.573827 190.956403 
L 87.692527 173.39493 
L 87.606076 154.013971 
L 87.63083 146.668184 
M 87.497463 120.51395 
L 87.397377 113.137869 
L 87.383623 93.757994 
L 87.378407 76.198006 
L 87.521596 60.808896 
L 87.618817 47.600163 
L 87.604885 36.380776 
L 87.709973 26.88 
" clip-path="url(#p67d6fb3320)" style="fill: none; stroke-dasharray: 1.85,0.8; stroke-dashoffset: 0; stroke: #000000; stroke-width: 0.5"/>
    <path d="M 322.113151 26.88 
L 322.055936 36.380776 
L 321.827783 47.600163 
L 322.158857 60.808896 
L 322.719366 76.198006 
L 322.837299 93.757994 
L 322.496474 113.137869 
L 322.333826 120.515685 
M 321.951252 146.66795 
L 321.898262 154.013971 
L 321.78667 173.39493 
L 321.46397 190.956403 
L 321.403623 206.347113 
L 322.009756 219.557363 
L 321.878455 230.778089 
L 321.706588 240.28 
M 89.672849 240.28 
L 89.743816 230.778089 
L 89.643909 219.557363 
L 89.65204 206.347113 
L 89.950459 190.956403 
L 90.393236 173.39493 
L 90.070753 154.013971 
L 90.163102 146.667341 
M 89.666295 120.527593 
L 89.292263 113.137869 
L 89.240959 93.757994 
L 89.221501 76.198006 
L 89.755626 60.808896 
L 90.118279 47.600163 
L 90.066311 36.380776 
L 90.458313 26.88 
" clip-path="url(#p67d6fb3320)" style="fill: none; stroke-dasharray: 1.85,0.8; stroke-dashoffset: 0; stroke: #000000; stroke-width: 0.5"/>
    <path d="M 319.7538 26.88 
L 319.654708 36.380776 
L 319.259566 47.600163 
L 319.832959 60.808896 
L 320.803715 76.198006 
L 321.007965 93.757994 
L 320.417684 113.137869 
L 320.137431 120.477987 
M 319.47287 146.710653 
L 319.38163 154.013971 
L 319.188361 173.39493 
L 318.629471 190.956403 
L 318.524955 206.347113 
L 319.574728 219.557363 
L 319.347326 230.778089 
L 319.049665 240.28 
M 91.846294 240.28 
L 91.969202 230.778089 
L 91.796171 219.557363 
L 91.810254 206.347113 
L 92.327092 190.956403 
L 93.093944 173.39493 
L 92.535431 154.013971 
L 92.694468 146.70882 
M 91.833722 120.513681 
L 91.187148 113.137869 
L 91.098294 93.757994 
L 91.064595 76.198006 
L 91.989656 60.808896 
L 92.617742 47.600163 
L 92.527738 36.380776 
L 93.206652 26.88 
" clip-path="url(#p67d6fb3320)" style="fill: none; stroke-dasharray: 1.85,0.8; stroke-dashoffset: 0; stroke: #000000; stroke-width: 0.5"/>
    <path d="M 317.394449 26.88 
L 317.25348 36.380776 
L 316.691349 47.600163 
L 317.507061 60.808896 
L 318.888064 76.198006 
L 319.178632 93.757994 
L 318.338894 113.137869 
L 317.939738 120.48657 
M 316.994812 146.709732 
L 316.864997 154.013971 
L 316.590052 173.39493 
L 315.794971 190.956403 
L 315.646287 206.347113 
L 317.1397 219.557363 
L 316.816197 230.778089 
L 316.392743 240.28 
M 94.019738 240.28 
L 94.194588 230.778089 
L 93.948434 219.557363 
L 93.968467 206.347113 
L 94.703724 190.956403 
L 95.794653 173.39493 
L 95.000109 154.013971 
L 95.226443 146.706025 
M 94.007426 120.558366 
L 93.082034 113.137869 
L 92.95563 93.757994 
L 92.907689 76.198006 
L 94.223686 60.808896 
L 95.117205 47.600163 
L 94.989164 36.380776 
L 95.954992 26.88 
" clip-path="url(#p67d6fb3320)" style="fill: none; stroke-dasharray: 1.85,0.8; stroke-dashoffset: 0; stroke: #000000; stroke-width: 0.5"/>
    <path d="M 315.035098 26.88 
L 314.852253 36.380776 
L 314.123132 47.600163 
L 315.181163 60.808896 
L 316.972413 76.198006 
L 317.349298 93.757994 
L 316.260104 113.137869 
L 315.741559 120.498119 
M 314.516772 146.708489 
L 314.348365 154.013971 
L 313.991743 173.39493 
L 312.960472 190.956403 
L 312.767619 206.347113 
L 314.704672 219.557363 
L 314.285067 230.778089 
L 313.73582 240.28 
M 96.193182 240.28 
L 96.419974 230.778089 
L 96.100696 219.557363 
L 96.126681 206.347113 
L 97.080356 190.956403 
L 98.495361 173.39493 
L 97.464786 154.013971 
L 97.758507 146.702257 
M 96.186846 120.617922 
L 94.97692 113.137869 
L 94.812965 93.757994 
L 94.750782 76.198006 
L 96.457715 60.808896 
L 97.616668 47.600163 
L 97.450591 36.380776 
L 98.703331 26.88 
" clip-path="url(#p67d6fb3320)" style="fill: none; stroke-dasharray: 1.85,0.8; stroke-dashoffset: 0; stroke: #000000; stroke-width: 0.5"/>
    <path d="M 312.675746 26.88 
L 312.451025 36.380776 
L 311.554914 47.600163 
L 312.855265 60.808896 
L 315.056762 76.198006 
L 315.519964 93.757994 
L 314.181314 113.137869 
L 313.542753 120.512613 
M 312.038754 146.706926 
L 311.831732 154.013971 
L 311.393434 173.39493 
L 310.125973 190.956403 
L 309.888951 206.347113 
L 312.269644 219.557363 
L 311.753938 230.778089 
L 311.078897 240.28 
M 98.366627 240.28 
L 98.64536 230.778089 
L 98.252958 219.557363 
L 98.284895 206.347113 
L 99.456988 190.956403 
L 101.196069 173.39493 
L 99.929464 154.013971 
L 100.290689 146.697518 
M 98.373513 120.691733 
L 96.871805 113.137869 
L 96.670301 93.757994 
L 96.593876 76.198006 
L 98.691745 60.808896 
L 100.116131 47.600163 
L 99.912017 36.380776 
L 101.45167 26.88 
" clip-path="url(#p67d6fb3320)" style="fill: none; stroke-dasharray: 1.85,0.8; stroke-dashoffset: 0; stroke: #000000; stroke-width: 0.5"/>
    <path d="M 310.316395 26.88 
L 310.049797 36.380776 
L 308.986697 47.600163 
L 310.529367 60.808896 
L 313.141111 76.198006 
L 313.69063 93.757994 
L 312.102524 113.137869 
L 311.343179 120.530021 
M 309.560763 146.705043 
L 309.3151 154.013971 
L 308.795125 173.39493 
L 307.291474 190.956403 
L 307.010283 206.347113 
L 309.834616 219.557363 
L 309.222808 230.778089 
L 308.421975 240.28 
M 100.540071 240.28 
L 100.870746 230.778089 
L 100.405221 219.557363 
L 100.443108 206.347113 
L 101.833621 190.956403 
L 103.896778 173.39493 
L 102.394142 154.013971 
L 102.823015 146.691813 
M 100.568836 120.77906 
L 98.766691 113.137869 
L 98.527636 93.757994 
L 98.43697 76.198006 
L 100.925775 60.808896 
L 102.615594 47.600163 
L 102.373444 36.380776 
L 104.20001 26.88 
" clip-path="url(#p67d6fb3320)" style="fill: none; stroke-dasharray: 1.85,0.8; stroke-dashoffset: 0; stroke: #000000; stroke-width: 0.5"/>
    <path d="M 307.957044 26.88 
L 307.648569 36.380776 
L 306.41848 47.600163 
L 308.203469 60.808896 
L 311.22546 76.198006 
L 311.861297 93.757994 
L 310.023734 113.137869 
L 309.137586 120.593346 
M 307.084487 146.659564 
L 306.798467 154.013971 
L 306.196815 173.39493 
L 304.456975 190.956403 
L 304.131615 206.347113 
L 307.399588 219.557363 
L 306.691679 230.778089 
L 305.765052 240.28 
M 102.713515 240.28 
L 103.096132 230.778089 
L 102.557483 219.557363 
L 102.601322 206.347113 
L 104.210253 190.956403 
L 106.597486 173.39493 
L 104.858819 154.013971 
L 105.35844 146.641928 
M 102.785535 120.921006 
L 100.661577 113.137869 
L 100.384972 93.757994 
L 100.280064 76.198006 
L 103.159805 60.808896 
L 105.115056 47.600163 
L 104.83487 36.380776 
L 106.948349 26.88 
" clip-path="url(#p67d6fb3320)" style="fill: none; stroke-dasharray: 1.85,0.8; stroke-dashoffset: 0; stroke: #000000; stroke-width: 0.5"/>
    <path d="M 305.597693 26.88 
L 305.247341 36.380776 
L 303.850263 47.600163 
L 305.877571 60.808896 
L 309.309809 76.198006 
L 310.031963 93.757994 
L 307.944944 113.137869 
L 305.183947 133.590571 
L 304.860899 140.904226 
M 303.819471 167.12779 
L 303.598506 173.39493 
L 301.622476 190.956403 
L 301.473333 197.225474 
L 300.932731 206.347113 
L 301.473333 207.016748 
L 304.96456 219.557363 
L 304.16055 230.778089 
L 303.10813 240.28 
M 104.886959 240.28 
L 105.321518 230.778089 
L 104.709745 219.557363 
L 104.759535 206.347113 
L 106.586885 190.956403 
L 109.298195 173.39493 
L 107.323497 154.013971 
L 107.888204 146.677518 
M 104.990383 120.990783 
L 102.556463 113.137869 
L 102.242307 93.757994 
L 102.123158 76.198006 
L 105.393835 60.808896 
L 107.614519 47.600163 
L 107.296297 36.380776 
L 109.696689 26.88 
M 198.418771 240.28 
L 193.866201 230.778089 
L 188.886557 229.51694 
M 163.537932 236.953663 
L 158.293333 239.576696 
L 154.756782 240.28 
" clip-path="url(#p67d6fb3320)" style="fill: none; stroke-dasharray: 1.85,0.8; stroke-dashoffset: 0; stroke: #000000; stroke-width: 0.5"/>
    <path d="M 303.238342 26.88 
L 302.846113 36.380776 
L 301.473333 46.30695 
L 299.805452 47.600163 
L 301.473333 48.616459 
L 303.551673 60.808896 
L 307.394158 76.198006 
L 308.202629 93.757994 
L 305.866154 113.137869 
L 302.775142 133.590571 
L 302.41334 140.907068 
M 301.130353 167.120708 
L 300.743717 173.39493 
L 296.7991 190.956403 
L 293.871434 206.347113 
L 301.473333 215.76346 
L 302.529532 219.557363 
L 301.62942 230.778089 
L 301.473333 232.090797 
L 288.067664 240.28 
M 107.060404 240.28 
L 107.546904 230.778089 
L 106.862008 219.557363 
L 106.917749 206.347113 
L 108.963517 190.956403 
L 110.566667 181.124572 
L 112.994896 173.39493 
L 110.566667 161.248453 
L 109.788174 154.013971 
L 110.399188 146.631813 
M 107.175459 121.311568 
L 104.451348 113.137869 
L 104.099643 93.757994 
L 103.966251 76.198006 
L 107.627865 60.808896 
L 110.113982 47.600163 
L 109.757723 36.380776 
L 110.566667 33.295697 
L 115.426011 26.88 
M 223.089363 240.28 
L 229.883333 234.207362 
L 233.642728 230.778089 
L 229.883333 229.574878 
L 220.012942 229.721151 
M 192.435474 226.77516 
L 182.156667 224.389154 
L 168.646506 230.778089 
L 158.293333 235.956124 
L 136.550791 240.28 
" clip-path="url(#p67d6fb3320)" style="fill: none; stroke-dasharray: 1.85,0.8; stroke-dashoffset: 0; stroke: #000000; stroke-width: 0.5"/>
    <path d="M 151.602552 26.88 
L 150.703315 36.380776 
L 158.293333 45.889317 
L 162.065996 36.380776 
L 161.517591 26.88 
M 299.63488 26.88 
L 290.498141 36.380776 
L 277.61 47.4069 
L 277.300938 47.600163 
L 277.61 47.822021 
L 297.39299 60.808896 
L 301.473333 61.554367 
L 305.478507 76.198006 
L 306.373295 93.757994 
L 303.787365 113.137869 
L 301.473333 127.614133 
L 299.204605 133.590571 
L 297.970188 154.013971 
L 297.564858 160.383691 
M 293.237524 186.009627 
L 291.865263 190.956403 
L 286.810138 206.347113 
L 297.547101 219.557363 
L 292.786731 230.778089 
L 277.61 237.437117 
L 253.746667 232.533663 
L 251.85279 230.778089 
L 229.883333 223.74667 
L 206.02 221.505348 
L 182.156667 220.965787 
L 161.407389 230.778089 
L 158.293333 232.335553 
L 134.43 237.16605 
L 120.343703 240.28 
M 109.233848 240.28 
L 109.77229 230.778089 
L 109.01427 219.557363 
L 109.075962 206.347113 
L 110.566667 195.885677 
L 116.501652 190.956403 
L 117.573708 173.39493 
L 113.627012 154.013971 
L 115.227651 137.498444 
M 106.420309 113.360131 
L 106.346234 113.137869 
L 105.956978 93.757994 
L 105.809345 76.198006 
L 109.861895 60.808896 
L 110.566667 57.135476 
L 124.767256 47.600163 
L 118.405439 36.380776 
L 122.535998 26.88 
M 253.746667 33.263161 
L 249.165015 36.380776 
L 253.746667 41.103245 
L 265.502674 36.380776 
L 253.746667 33.263161 
z
" clip-path="url(#p67d6fb3320)" style="fill: none; stroke-dasharray: 1.85,0.8; stroke-dashoffset: 0; stroke: #000000; stroke-width: 0.5"/>
    <path d="M 141.337158 26.88 
L 138.845961 36.380776 
L 134.43 41.506256 
L 130.081542 36.380776 
L 129.645985 26.88 
M 253.745519 26.88 
L 239.783277 36.380776 
L 250.786177 47.600163 
L 253.746667 48.982652 
L 274.10075 60.808896 
L 277.61 63.033712 
L 301.473333 68.558335 
L 303.562856 76.198006 
L 304.543962 93.757994 
L 301.708575 113.137869 
L 301.473333 114.609506 
L 294.26789 133.590571 
L 294.00746 154.013971 
L 292.730089 173.39493 
L 286.931427 190.956403 
L 279.748842 206.347113 
L 290.613334 219.557363 
L 283.529248 230.778089 
L 277.61 233.375251 
L 267.672361 230.778089 
L 253.746667 221.336528 
L 244.793915 219.557363 
L 229.883333 217.883617 
L 206.02 214.106064 
L 182.156667 215.073094 
L 175.823041 219.557363 
L 158.293333 227.870276 
L 148.455845 230.778089 
L 134.43 233.641535 
L 121.109644 230.778089 
L 113.032491 219.557363 
L 119.812036 206.347113 
L 134.43 191.469748 
L 134.583823 190.956403 
L 134.43 190.846581 
L 122.152519 173.39493 
L 118.100283 154.013971 
L 119.285022 133.590571 
L 110.566667 120.115677 
L 108.24112 113.137869 
L 108.101311 106.789591 
M 107.694162 80.724106 
L 107.652439 76.198006 
L 110.566667 65.458381 
L 123.877727 60.808896 
L 134.43 53.535239 
L 158.293333 53.710043 
L 164.453631 47.600163 
L 167.959763 36.380776 
L 166.464438 26.88 
M 292.336808 26.88 
L 289.780619 28.203166 
M 264.450625 30.299118 
L 253.747969 26.88 
" clip-path="url(#p67d6fb3320)" style="fill: none; stroke-dasharray: 1.85,0.8; stroke-dashoffset: 0; stroke: #000000; stroke-width: 0.5"/>
    <path d="M 243.328936 26.88 
L 230.401539 36.380776 
L 241.764227 47.600163 
L 253.746667 53.195724 
L 266.849656 60.808896 
L 277.61 67.630807 
L 301.473333 75.562302 
L 301.647204 76.198006 
L 302.714628 93.757994 
L 301.473333 102.158608 
L 296.316347 113.137869 
L 289.331175 133.590571 
L 290.044733 154.013971 
L 288.723275 173.39493 
L 281.997591 190.956403 
L 277.61 199.584008 
L 262.584895 206.347113 
L 253.746667 210.711353 
L 229.883333 211.931498 
L 206.02 207.014803 
L 182.156667 207.454367 
L 165.062276 219.557363 
L 158.293333 222.767321 
L 134.43 229.467746 
L 121.879638 219.557363 
L 134.43 209.84542 
L 138.961344 206.347113 
L 143.700003 190.956403 
L 134.43 184.338095 
L 126.73133 173.39493 
L 122.573554 154.013971 
L 122.963653 133.590571 
L 110.566667 114.430069 
L 110.136005 113.137869 
L 109.671649 93.757994 
L 109.495533 76.198006 
L 110.566667 72.250622 
L 134.43 62.778504 
L 156.914372 60.808896 
L 158.293333 60.615214 
L 161.86553 57.072253 
M 173.457547 34.840329 
L 171.411286 26.88 
M 285.038736 26.88 
L 277.61 30.725353 
L 265.573127 26.88 
M 277.61 212.203459 
L 283.679567 219.557363 
L 277.61 227.504382 
L 265.369258 219.557363 
L 277.61 212.203459 
z
" clip-path="url(#p67d6fb3320)" style="fill: none; stroke-dasharray: 1.85,0.8; stroke-dashoffset: 0; stroke: #000000; stroke-width: 0.5"/>
    <path d="M 232.912352 26.88 
L 229.883333 29.116014 
L 223.124231 36.380776 
L 229.883333 44.782202 
L 232.742278 47.600163 
L 229.883333 57.976995 
L 229.407173 60.808896 
L 229.883333 61.624831 
L 232.192988 60.808896 
L 253.746667 57.408795 
L 259.598562 60.808896 
L 277.61 72.227901 
L 289.234602 76.198006 
L 292.6297 82.203213 
M 293.771869 105.819659 
L 290.501316 113.137869 
L 284.394461 133.590571 
L 286.082006 154.013971 
L 284.716461 173.39493 
L 277.61 189.924564 
L 273.724056 190.956403 
L 253.746667 198.513879 
L 229.883333 205.4497 
L 206.02 199.281468 
L 184.70625 190.956403 
L 182.156667 188.247505 
L 177.974451 190.956403 
L 172.132764 206.347113 
L 158.293333 216.397697 
L 147.829271 206.347113 
L 152.816184 190.956403 
L 134.43 177.829609 
L 131.310141 173.39493 
L 127.046825 154.013971 
L 126.642284 133.590571 
L 115.522374 113.137869 
L 113.642295 93.757994 
L 114.509663 76.198006 
L 134.43 67.085134 
L 158.293333 69.392384 
L 176.659413 60.808896 
L 178.377935 47.600163 
L 179.747297 36.380776 
L 176.358134 26.88 
M 277.740663 26.88 
L 277.61 26.947636 
L 277.398284 26.88 
M 134.43 216.691675 
L 147.081259 219.557363 
L 134.43 222.481604 
L 130.726784 219.557363 
L 134.43 216.691675 
z
" clip-path="url(#p67d6fb3320)" style="fill: none; stroke-dasharray: 1.85,0.8; stroke-dashoffset: 0; stroke: #000000; stroke-width: 0.5"/>
    <path d="M 216.370205 36.87187 
L 225.113869 47.600163 
L 223.901193 60.808896 
L 229.883333 71.059725 
L 253.746667 62.738683 
L 275.414183 76.198006 
L 277.61 77.320207 
L 291.972902 93.757994 
L 284.686285 113.137869 
L 279.457746 133.590571 
L 282.119279 154.013971 
L 280.709647 173.39493 
L 277.61 180.604711 
L 253.746667 187.217878 
L 229.883333 190.906263 
L 229.123015 190.956403 
L 206.02 191.481394 
L 204.675923 190.956403 
L 187.357081 173.39493 
L 182.156667 169.266387 
L 158.293333 164.91594 
L 134.43 167.022913 
L 131.520096 154.013971 
L 130.320914 133.590571 
L 121.935666 113.137869 
L 119.578454 93.757994 
L 123.923767 76.198006 
L 134.43 71.391765 
L 154.225008 76.198006 
L 158.293333 80.614119 
L 181.617105 76.198006 
L 182.156667 76.083705 
L 186.43324 60.808896 
L 185.575045 47.600163 
L 189.274836 36.380776 
L 182.156667 29.022772 
L 181.304981 26.88 
M 158.293333 201.564144 
L 160.40433 206.347113 
L 158.293333 207.880178 
L 156.697198 206.347113 
L 158.293333 201.564144 
z
" clip-path="url(#p67d6fb3320)" style="fill: none; stroke-dasharray: 1.85,0.8; stroke-dashoffset: 0; stroke: #000000; stroke-width: 0.5"/>
    <path d="M 275.352402 145.547425 
L 277.61 150.325228 
L 278.156552 154.013971 
L 277.61 161.350969 
L 271.016034 173.39493 
L 253.746667 178.540298 
L 236.477114 173.39493 
L 229.883333 170.021515 
L 212.050882 173.39493 
L 206.02 174.727219 
L 204.692668 173.39493 
L 182.156667 155.503887 
L 168.365883 154.013971 
L 158.293333 153.067766 
L 134.43 138.713432 
L 133.999545 133.590571 
L 128.348958 113.137869 
L 125.514613 93.757994 
L 133.337872 76.198006 
L 134.43 75.698395 
L 136.487702 76.198006 
L 154.130787 93.757994 
L 158.293333 99.094612 
L 166.479848 93.757994 
L 182.156667 87.098648 
L 187.897979 76.198006 
L 192.464399 60.808896 
L 193.051051 47.600163 
L 201.315035 36.380776 
L 206.02 34.060118 
L 208.815685 36.380776 
L 218.131908 47.600163 
L 218.395212 60.808896 
L 226.860511 76.198006 
L 229.883333 81.816632 
L 243.446655 76.198006 
L 253.746667 72.739454 
L 259.314423 76.198006 
L 277.61 85.548197 
L 284.783503 93.757994 
L 278.871255 113.137869 
L 277.61 118.402589 
L 275.821248 121.838286 
" clip-path="url(#p67d6fb3320)" style="fill: none; stroke-dasharray: 1.85,0.8; stroke-dashoffset: 0; stroke: #000000; stroke-width: 0.5"/>
    <path d="M 221.381585 149.30514 
L 211.285249 133.590571 
L 206.02 129.381748 
L 191.804404 113.137869 
L 186.33634 93.757994 
L 193.669917 76.198006 
L 198.495558 60.808896 
L 200.527057 47.600163 
L 206.02 41.466576 
L 211.149947 47.600163 
L 212.889232 60.808896 
L 220.222723 76.198006 
L 229.475329 93.757994 
L 229.883333 100.514075 
L 232.31955 113.137869 
L 253.746667 126.798879 
L 257.065111 133.590571 
L 253.746667 138.847918 
L 243.167 146.231223 
M 132.246842 98.451902 
L 131.450772 93.757994 
L 134.43 87.398823 
L 141.013353 93.757994 
L 139.038629 99.027213 
M 148.953943 132.650724 
L 158.293333 117.39446 
L 172.619162 133.590571 
L 170.427427 134.739631 
" clip-path="url(#p67d6fb3320)" style="fill: none; stroke-dasharray: 1.85,0.8; stroke-dashoffset: 0; stroke: #000000; stroke-width: 0.5"/>
    <path d="M 198.458603 95.892618 
L 196.989849 93.757994 
L 199.441855 76.198006 
L 204.526717 60.808896 
L 206.02 54.431979 
L 207.383252 60.808896 
L 213.584935 76.198006 
L 216.780456 93.757994 
L 214.520982 96.51377 
" clip-path="url(#p67d6fb3320)" style="fill: none; stroke-dasharray: 1.85,0.8; stroke-dashoffset: 0; stroke: #000000; stroke-width: 0.5"/>
    <path d="M 206.02 73.78847 
L 206.947146 76.198006 
L 206.02 84.596178 
L 205.213793 76.198006 
L 206.02 73.78847 
z
" clip-path="url(#p67d6fb3320)" style="fill: none; stroke-dasharray: 1.85,0.8; stroke-dashoffset: 0; stroke: #000000; stroke-width: 0.5"/>
    <path clip-path="url(#p67d6fb3320)" style="fill: none; stroke-dasharray: 1.85,0.8; stroke-dashoffset: 0; stroke: #000000; stroke-width: 0.5"/>
   </g>
   <g id="patch_3">
    <path d="M 62.84 240.28 
L 62.84 26.88 
" style="fill: none; stroke: #000000; stroke-width: 0.8; stroke-linejoin: miter; stroke-linecap: square"/>
   </g>
   <g id="patch_4">
    <path d="M 349.2 240.28 
L 349.2 26.88 
" style="fill: none; stroke: #000000; stroke-width: 0.8; stroke-linejoin: miter; stroke-linecap: square"/>
   </g>
   <g id="patch_5">
    <path d="M 62.84 240.28 
L 349.2 240.28 
" style="fill: none; stroke: #000000; stroke-width: 0.8; stroke-linejoin: miter; stroke-linecap: square"/>
   </g>
   <g id="patch_6">
    <path d="M 62.84 26.88 
L 349.2 26.88 
" style="fill: none; stroke: #000000; stroke-width: 0.8; stroke-linejoin: miter; stroke-linecap: square"/>
   </g>
   <g id="text_11">
    <!-- Band 6300 -->
    <g transform="translate(173.438125 20.88) scale(0.12 -0.12)">
     <defs>
      <path id="DejaVuSans-42" d="M 1259 2228 
L 1259 519 
L 2272 519 
Q 2781 519 3026 730 
Q 3272 941 3272 1375 
Q 3272 1813 3026 2020 
Q 2781 2228 2272 2228 
L 1259 2228 
z
M 1259 4147 
L 1259 2741 
L 2194 2741 
Q 2656 2741 2882 2914 
Q 3109 3088 3109 3444 
Q 3109 3797 2882 3972 
Q 2656 4147 2194 4147 
L 1259 4147 
z
M 628 4666 
L 2241 4666 
Q 2963 4666 3353 4366 
Q 3744 4066 3744 3513 
Q 3744 3084 3544 2831 
Q 3344 2578 2956 2516 
Q 3422 2416 3680 2098 
Q 3938 1781 3938 1306 
Q 3938 681 3513 340 
Q 3088 0 2303 0 
L 628 0 
L 628 4666 
z
" transform="scale(0.015625)"/>
      <path id="DejaVuSans-61" d="M 2194 1759 
Q 1497 1759 1228 1600 
Q 959 1441 959 1056 
Q 959 750 1161 570 
Q 1363 391 1709 391 
Q 2188 391 2477 730 
Q 2766 1069 2766 1631 
L 2766 1759 
L 2194 1759 
z
M 3341 1997 
L 3341 0 
L 2766 0 
L 2766 531 
Q 2569 213 2275 61 
Q 1981 -91 1556 -91 
Q 1019 -91 701 211 
Q 384 513 384 1019 
Q 384 1609 779 1909 
Q 1175 2209 1959 2209 
L 2766 2209 
L 2766 2266 
Q 2766 2663 2505 2880 
Q 2244 3097 1772 3097 
Q 1472 3097 1187 3025 
Q 903 2953 641 2809 
L 641 3341 
Q 956 3463 1253 3523 
Q 1550 3584 1831 3584 
Q 2591 3584 2966 3190 
Q 3341 2797 3341 1997 
z
" transform="scale(0.015625)"/>
      <path id="DejaVuSans-6e" d="M 3513 2113 
L 3513 0 
L 2938 0 
L 2938 2094 
Q 2938 2591 2744 2837 
Q 2550 3084 2163 3084 
Q 1697 3084 1428 2787 
Q 1159 2491 1159 1978 
L 1159 0 
L 581 0 
L 581 3500 
L 1159 3500 
L 1159 2956 
Q 1366 3272 1645 3428 
Q 1925 3584 2291 3584 
Q 2894 3584 3203 3211 
Q 3513 2838 3513 2113 
z
" transform="scale(0.015625)"/>
      <path id="DejaVuSans-64" d="M 2906 2969 
L 2906 4863 
L 3481 4863 
L 3481 0 
L 2906 0 
L 2906 525 
Q 2725 213 2448 61 
Q 2172 -91 1784 -91 
Q 1150 -91 751 415 
Q 353 922 353 1747 
Q 353 2572 751 3078 
Q 1150 3584 1784 3584 
Q 2172 3584 2448 3432 
Q 2725 3281 2906 2969 
z
M 947 1747 
Q 947 1113 1208 752 
Q 1469 391 1925 391 
Q 2381 391 2643 752 
Q 2906 1113 2906 1747 
Q 2906 2381 2643 2742 
Q 2381 3103 1925 3103 
Q 1469 3103 1208 2742 
Q 947 2381 947 1747 
z
" transform="scale(0.015625)"/>
      <path id="DejaVuSans-20" transform="scale(0.015625)"/>
      <path id="DejaVuSans-36" d="M 2113 2584 
Q 1688 2584 1439 2293 
Q 1191 2003 1191 1497 
Q 1191 994 1439 701 
Q 1688 409 2113 409 
Q 2538 409 2786 701 
Q 3034 994 3034 1497 
Q 3034 2003 2786 2293 
Q 2538 2584 2113 2584 
z
M 3366 4563 
L 3366 3988 
Q 3128 4100 2886 4159 
Q 2644 4219 2406 4219 
Q 1781 4219 1451 3797 
Q 1122 3375 1075 2522 
Q 1259 2794 1537 2939 
Q 1816 3084 2150 3084 
Q 2853 3084 3261 2657 
Q 3669 2231 3669 1497 
Q 3669 778 3244 343 
Q 2819 -91 2113 -91 
Q 1303 -91 875 529 
Q 447 1150 447 2328 
Q 447 3434 972 4092 
Q 1497 4750 2381 4750 
Q 2619 4750 2861 4703 
Q 3103 4656 3366 4563 
z
" transform="scale(0.015625)"/>
      <path id="DejaVuSans-33" d="M 2597 2516 
Q 3050 2419 3304 2112 
Q 3559 1806 3559 1356 
Q 3559 666 3084 287 
Q 2609 -91 1734 -91 
Q 1441 -91 1130 -33 
Q 819 25 488 141 
L 488 750 
Q 750 597 1062 519 
Q 1375 441 1716 441 
Q 2309 441 2620 675 
Q 2931 909 2931 1356 
Q 2931 1769 2642 2001 
Q 2353 2234 1838 2234 
L 1294 2234 
L 1294 2753 
L 1863 2753 
Q 2328 2753 2575 2939 
Q 2822 3125 2822 3475 
Q 2822 3834 2567 4026 
Q 2313 4219 1838 4219 
Q 1578 4219 1281 4162 
Q 984 4106 628 3988 
L 628 4550 
Q 988 4650 1302 4700 
Q 1616 4750 1894 4750 
Q 2613 4750 3031 4423 
Q 3450 4097 3450 3541 
Q 3450 3153 3228 2886 
Q 3006 2619 2597 2516 
z
" transform="scale(0.015625)"/>
     </defs>
     <use xlink:href="#DejaVuSans-42"/>
     <use xlink:href="#DejaVuSans-61" transform="translate(68.603516 0)"/>
     <use xlink:href="#DejaVuSans-6e" transform="translate(129.882812 0)"/>
     <use xlink:href="#DejaVuSans-64" transform="translate(193.261719 0)"/>
     <use xlink:href="#DejaVuSans-20" transform="translate(256.738281 0)"/>
     <use xlink:href="#DejaVuSans-36" transform="translate(288.525391 0)"/>
     <use xlink:href="#DejaVuSans-33" transform="translate(352.148438 0)"/>
     <use xlink:href="#DejaVuSans-30" transform="translate(415.771484 0)"/>
     <use xlink:href="#DejaVuSans-30" transform="translate(479.394531 0)"/>
    </g>
   </g>
   <g id="text_12">
    <g clip-path="url(#p67d6fb3320)">
     <!-- 53.6 -->
     <g transform="translate(326.900968 143.619166) rotate(-89.789323) scale(0.09 -0.09)">
      <defs>
       <path id="DejaVuSans-2e" d="M 684 794 
L 1344 794 
L 1344 0 
L 684 0 
L 684 794 
z
" transform="scale(0.015625)"/>
      </defs>
      <use xlink:href="#DejaVuSans-35"/>
      <use xlink:href="#DejaVuSans-33" transform="translate(63.623047 0)"/>
      <use xlink:href="#DejaVuSans-2e" transform="translate(127.246094 0)"/>
      <use xlink:href="#DejaVuSans-36" transform="translate(159.033203 0)"/>
     </g>
    </g>
   </g>
   <g id="text_13">
    <g clip-path="url(#p67d6fb3320)">
     <!-- 53.6 -->
     <g transform="translate(85.143588 123.583027) rotate(-270.273923) scale(0.09 -0.09)">
      <use xlink:href="#DejaVuSans-35"/>
      <use xlink:href="#DejaVuSans-33" transform="translate(63.623047 0)"/>
      <use xlink:href="#DejaVuSans-2e" transform="translate(127.246094 0)"/>
      <use xlink:href="#DejaVuSans-36" transform="translate(159.033203 0)"/>
     </g>
    </g>
   </g>
   <g id="text_14">
    <g clip-path="url(#p67d6fb3320)">
     <!-- 54.4 -->
     <g transform="translate(324.391378 143.643218) rotate(-89.214212) scale(0.09 -0.09)">
      <use xlink:href="#DejaVuSans-35"/>
      <use xlink:href="#DejaVuSans-34" transform="translate(63.623047 0)"/>
      <use xlink:href="#DejaVuSans-2e" transform="translate(127.246094 0)"/>
      <use xlink:href="#DejaVuSans-34" transform="translate(159.033203 0)"/>
     </g>
    </g>
   </g>
   <g id="text_15">
    <g clip-path="url(#p67d6fb3320)">
     <!-- 54.4 -->
     <g transform="translate(87.665924 123.616876) rotate(-271.02086) scale(0.09 -0.09)">
      <use xlink:href="#DejaVuSans-35"/>
      <use xlink:href="#DejaVuSans-34" transform="translate(63.623047 0)"/>
      <use xlink:href="#DejaVuSans-2e" transform="translate(127.246094 0)"/>
      <use xlink:href="#DejaVuSans-34" transform="translate(159.033203 0)"/>
     </g>
    </g>
   </g>
   <g id="text_16">
    <g clip-path="url(#p67d6fb3320)">
     <!-- 55.2 -->
     <g transform="translate(321.881601 143.666246) rotate(-88.639381) scale(0.09 -0.09)">
      <use xlink:href="#DejaVuSans-35"/>
      <use xlink:href="#DejaVuSans-35" transform="translate(63.623047 0)"/>
      <use xlink:href="#DejaVuSans-2e" transform="translate(127.246094 0)"/>
      <use xlink:href="#DejaVuSans-32" transform="translate(159.033203 0)"/>
     </g>
    </g>
   </g>
   <g id="text_17">
    <g clip-path="url(#p67d6fb3320)">
     <!-- 55.2 -->
     <g transform="translate(90.189269 123.652263) rotate(-271.764586) scale(0.09 -0.09)">
      <use xlink:href="#DejaVuSans-35"/>
      <use xlink:href="#DejaVuSans-35" transform="translate(63.623047 0)"/>
      <use xlink:href="#DejaVuSans-2e" transform="translate(127.246094 0)"/>
      <use xlink:href="#DejaVuSans-32" transform="translate(159.033203 0)"/>
     </g>
    </g>
   </g>
   <g id="text_18">
    <g clip-path="url(#p67d6fb3320)">
     <!-- 56.0 -->
     <g transform="translate(319.371684 143.688242) rotate(-88.065035) scale(0.09 -0.09)">
      <use xlink:href="#DejaVuSans-35"/>
      <use xlink:href="#DejaVuSans-36" transform="translate(63.623047 0)"/>
      <use xlink:href="#DejaVuSans-2e" transform="translate(127.246094 0)"/>
      <use xlink:href="#DejaVuSans-30" transform="translate(159.033203 0)"/>
     </g>
    </g>
   </g>
   <g id="text_19">
    <g clip-path="url(#p67d6fb3320)">
     <!-- 56.0 -->
     <g transform="translate(92.714037 123.689044) rotate(-272.5028) scale(0.09 -0.09)">
      <use xlink:href="#DejaVuSans-35"/>
      <use xlink:href="#DejaVuSans-36" transform="translate(63.623047 0)"/>
      <use xlink:href="#DejaVuSans-2e" transform="translate(127.246094 0)"/>
      <use xlink:href="#DejaVuSans-30" transform="translate(159.033203 0)"/>
     </g>
    </g>
   </g>
   <g id="text_20">
    <g clip-path="url(#p67d6fb3320)">
     <!-- 56.8 -->
     <g transform="translate(316.861673 143.709199) rotate(-87.491376) scale(0.09 -0.09)">
      <defs>
       <path id="DejaVuSans-38" d="M 2034 2216 
Q 1584 2216 1326 1975 
Q 1069 1734 1069 1313 
Q 1069 891 1326 650 
Q 1584 409 2034 409 
Q 2484 409 2743 651 
Q 3003 894 3003 1313 
Q 3003 1734 2745 1975 
Q 2488 2216 2034 2216 
z
M 1403 2484 
Q 997 2584 770 2862 
Q 544 3141 544 3541 
Q 544 4100 942 4425 
Q 1341 4750 2034 4750 
Q 2731 4750 3128 4425 
Q 3525 4100 3525 3541 
Q 3525 3141 3298 2862 
Q 3072 2584 2669 2484 
Q 3125 2378 3379 2068 
Q 3634 1759 3634 1313 
Q 3634 634 3220 271 
Q 2806 -91 2034 -91 
Q 1263 -91 848 271 
Q 434 634 434 1313 
Q 434 1759 690 2068 
Q 947 2378 1403 2484 
z
M 1172 3481 
Q 1172 3119 1398 2916 
Q 1625 2713 2034 2713 
Q 2441 2713 2670 2916 
Q 2900 3119 2900 3481 
Q 2900 3844 2670 4047 
Q 2441 4250 2034 4250 
Q 1625 4250 1398 4047 
Q 1172 3844 1172 3481 
z
" transform="scale(0.015625)"/>
      </defs>
      <use xlink:href="#DejaVuSans-35"/>
      <use xlink:href="#DejaVuSans-36" transform="translate(63.623047 0)"/>
      <use xlink:href="#DejaVuSans-2e" transform="translate(127.246094 0)"/>
      <use xlink:href="#DejaVuSans-38" transform="translate(159.033203 0)"/>
     </g>
    </g>
   </g>
   <g id="text_21">
    <g clip-path="url(#p67d6fb3320)">
     <!-- 56.8 -->
     <g transform="translate(95.24062 123.727058) rotate(-273.233281) scale(0.09 -0.09)">
      <use xlink:href="#DejaVuSans-35"/>
      <use xlink:href="#DejaVuSans-36" transform="translate(63.623047 0)"/>
      <use xlink:href="#DejaVuSans-2e" transform="translate(127.246094 0)"/>
      <use xlink:href="#DejaVuSans-38" transform="translate(159.033203 0)"/>
     </g>
    </g>
   </g>
   <g id="text_22">
    <g clip-path="url(#p67d6fb3320)">
     <!-- 57.6 -->
     <g transform="translate(314.351614 143.729112) rotate(-86.918606) scale(0.09 -0.09)">
      <defs>
       <path id="DejaVuSans-37" d="M 525 4666 
L 3525 4666 
L 3525 4397 
L 1831 0 
L 1172 0 
L 2766 4134 
L 525 4134 
L 525 4666 
z
" transform="scale(0.015625)"/>
      </defs>
      <use xlink:href="#DejaVuSans-35"/>
      <use xlink:href="#DejaVuSans-37" transform="translate(63.623047 0)"/>
      <use xlink:href="#DejaVuSans-2e" transform="translate(127.246094 0)"/>
      <use xlink:href="#DejaVuSans-36" transform="translate(159.033203 0)"/>
     </g>
    </g>
   </g>
   <g id="text_23">
    <g clip-path="url(#p67d6fb3320)">
     <!-- 57.6 -->
     <g transform="translate(97.769386 123.766131) rotate(-273.953917) scale(0.09 -0.09)">
      <use xlink:href="#DejaVuSans-35"/>
      <use xlink:href="#DejaVuSans-37" transform="translate(63.623047 0)"/>
      <use xlink:href="#DejaVuSans-2e" transform="translate(127.246094 0)"/>
      <use xlink:href="#DejaVuSans-36" transform="translate(159.033203 0)"/>
     </g>
    </g>
   </g>
   <g id="text_24">
    <g clip-path="url(#p67d6fb3320)">
     <!-- 58.4 -->
     <g transform="translate(311.841555 143.747976) rotate(-86.346924) scale(0.09 -0.09)">
      <use xlink:href="#DejaVuSans-35"/>
      <use xlink:href="#DejaVuSans-38" transform="translate(63.623047 0)"/>
      <use xlink:href="#DejaVuSans-2e" transform="translate(127.246094 0)"/>
      <use xlink:href="#DejaVuSans-34" transform="translate(159.033203 0)"/>
     </g>
    </g>
   </g>
   <g id="text_25">
    <g clip-path="url(#p67d6fb3320)">
     <!-- 58.4 -->
     <g transform="translate(100.300673 123.806078) rotate(-274.66273) scale(0.09 -0.09)">
      <use xlink:href="#DejaVuSans-35"/>
      <use xlink:href="#DejaVuSans-38" transform="translate(63.623047 0)"/>
      <use xlink:href="#DejaVuSans-2e" transform="translate(127.246094 0)"/>
      <use xlink:href="#DejaVuSans-34" transform="translate(159.033203 0)"/>
     </g>
    </g>
   </g>
   <g id="text_26">
    <g clip-path="url(#p67d6fb3320)">
     <!-- 59.2 -->
     <g transform="translate(309.33154 143.76579) rotate(-85.776525) scale(0.09 -0.09)">
      <defs>
       <path id="DejaVuSans-39" d="M 703 97 
L 703 672 
Q 941 559 1184 500 
Q 1428 441 1663 441 
Q 2288 441 2617 861 
Q 2947 1281 2994 2138 
Q 2813 1869 2534 1725 
Q 2256 1581 1919 1581 
Q 1219 1581 811 2004 
Q 403 2428 403 3163 
Q 403 3881 828 4315 
Q 1253 4750 1959 4750 
Q 2769 4750 3195 4129 
Q 3622 3509 3622 2328 
Q 3622 1225 3098 567 
Q 2575 -91 1691 -91 
Q 1453 -91 1209 -44 
Q 966 3 703 97 
z
M 1959 2075 
Q 2384 2075 2632 2365 
Q 2881 2656 2881 3163 
Q 2881 3666 2632 3958 
Q 2384 4250 1959 4250 
Q 1534 4250 1286 3958 
Q 1038 3666 1038 3163 
Q 1038 2656 1286 2365 
Q 1534 2075 1959 2075 
z
" transform="scale(0.015625)"/>
      </defs>
      <use xlink:href="#DejaVuSans-35"/>
      <use xlink:href="#DejaVuSans-39" transform="translate(63.623047 0)"/>
      <use xlink:href="#DejaVuSans-2e" transform="translate(127.246094 0)"/>
      <use xlink:href="#DejaVuSans-32" transform="translate(159.033203 0)"/>
     </g>
    </g>
   </g>
   <g id="text_27">
    <g clip-path="url(#p67d6fb3320)">
     <!-- 59.2 -->
     <g transform="translate(102.834784 123.846712) rotate(-275.357897) scale(0.09 -0.09)">
      <use xlink:href="#DejaVuSans-35"/>
      <use xlink:href="#DejaVuSans-39" transform="translate(63.623047 0)"/>
      <use xlink:href="#DejaVuSans-2e" transform="translate(127.246094 0)"/>
      <use xlink:href="#DejaVuSans-32" transform="translate(159.033203 0)"/>
     </g>
    </g>
   </g>
   <g id="text_28">
    <g clip-path="url(#p67d6fb3320)">
     <!-- 60.0 -->
     <g transform="translate(306.390743 164.118969) rotate(-87.86763) scale(0.09 -0.09)">
      <use xlink:href="#DejaVuSans-36"/>
      <use xlink:href="#DejaVuSans-30" transform="translate(63.623047 0)"/>
      <use xlink:href="#DejaVuSans-2e" transform="translate(127.246094 0)"/>
      <use xlink:href="#DejaVuSans-30" transform="translate(159.033203 0)"/>
     </g>
    </g>
   </g>
   <g id="text_29">
    <g clip-path="url(#p67d6fb3320)">
     <!-- 60.0 -->
     <g transform="translate(105.371986 123.887838) rotate(-276.03777) scale(0.09 -0.09)">
      <use xlink:href="#DejaVuSans-36"/>
      <use xlink:href="#DejaVuSans-30" transform="translate(63.623047 0)"/>
      <use xlink:href="#DejaVuSans-2e" transform="translate(127.246094 0)"/>
      <use xlink:href="#DejaVuSans-30" transform="translate(159.033203 0)"/>
     </g>
    </g>
   </g>
   <g id="text_30">
    <g clip-path="url(#p67d6fb3320)">
     <!-- 60.0 -->
     <g transform="translate(167.434566 236.70583) rotate(-21.125827) scale(0.09 -0.09)">
      <use xlink:href="#DejaVuSans-36"/>
      <use xlink:href="#DejaVuSans-30" transform="translate(63.623047 0)"/>
      <use xlink:href="#DejaVuSans-2e" transform="translate(127.246094 0)"/>
      <use xlink:href="#DejaVuSans-30" transform="translate(159.033203 0)"/>
     </g>
    </g>
   </g>
   <g id="text_31">
    <g clip-path="url(#p67d6fb3320)">
     <!-- 60.8 -->
     <g transform="translate(303.80912 164.132314) rotate(-87.499377) scale(0.09 -0.09)">
      <use xlink:href="#DejaVuSans-36"/>
      <use xlink:href="#DejaVuSans-30" transform="translate(63.623047 0)"/>
      <use xlink:href="#DejaVuSans-2e" transform="translate(127.246094 0)"/>
      <use xlink:href="#DejaVuSans-38" transform="translate(159.033203 0)"/>
     </g>
    </g>
   </g>
   <g id="text_32">
    <g clip-path="url(#p67d6fb3320)">
     <!-- 60.8 -->
     <g transform="translate(108.225471 123.954621) rotate(-277.096829) scale(0.09 -0.09)">
      <use xlink:href="#DejaVuSans-36"/>
      <use xlink:href="#DejaVuSans-30" transform="translate(63.623047 0)"/>
      <use xlink:href="#DejaVuSans-2e" transform="translate(127.246094 0)"/>
      <use xlink:href="#DejaVuSans-38" transform="translate(159.033203 0)"/>
     </g>
    </g>
   </g>
   <g id="text_33">
    <g clip-path="url(#p67d6fb3320)">
     <!-- 60.8 -->
     <g transform="translate(195.783738 231.261709) rotate(-353.499785) scale(0.09 -0.09)">
      <use xlink:href="#DejaVuSans-36"/>
      <use xlink:href="#DejaVuSans-30" transform="translate(63.623047 0)"/>
      <use xlink:href="#DejaVuSans-2e" transform="translate(127.246094 0)"/>
      <use xlink:href="#DejaVuSans-38" transform="translate(159.033203 0)"/>
     </g>
    </g>
   </g>
   <g id="text_34">
    <g clip-path="url(#p67d6fb3320)">
     <!-- 61.6 -->
     <g transform="translate(297.622983 183.679546) rotate(-81.003439) scale(0.09 -0.09)">
      <defs>
       <path id="DejaVuSans-31" d="M 794 531 
L 1825 531 
L 1825 4091 
L 703 3866 
L 703 4441 
L 1819 4666 
L 2450 4666 
L 2450 531 
L 3481 531 
L 3481 0 
L 794 0 
L 794 531 
z
" transform="scale(0.015625)"/>
      </defs>
      <use xlink:href="#DejaVuSans-36"/>
      <use xlink:href="#DejaVuSans-31" transform="translate(63.623047 0)"/>
      <use xlink:href="#DejaVuSans-2e" transform="translate(127.246094 0)"/>
      <use xlink:href="#DejaVuSans-36" transform="translate(159.033203 0)"/>
     </g>
    </g>
   </g>
   <g id="text_35">
    <g clip-path="url(#p67d6fb3320)">
     <!-- 61.6 -->
     <g transform="translate(104.301859 117.596979) rotate(-293.444583) scale(0.09 -0.09)">
      <use xlink:href="#DejaVuSans-36"/>
      <use xlink:href="#DejaVuSans-31" transform="translate(63.623047 0)"/>
      <use xlink:href="#DejaVuSans-2e" transform="translate(127.246094 0)"/>
      <use xlink:href="#DejaVuSans-36" transform="translate(159.033203 0)"/>
     </g>
    </g>
   </g>
   <g id="text_36">
    <g clip-path="url(#p67d6fb3320)">
     <!-- 62.4 -->
     <g transform="translate(105.184422 83.775903) rotate(-270.839037) scale(0.09 -0.09)">
      <use xlink:href="#DejaVuSans-36"/>
      <use xlink:href="#DejaVuSans-32" transform="translate(63.623047 0)"/>
      <use xlink:href="#DejaVuSans-2e" transform="translate(127.246094 0)"/>
      <use xlink:href="#DejaVuSans-34" transform="translate(159.033203 0)"/>
     </g>
    </g>
   </g>
   <g id="text_37">
    <g clip-path="url(#p67d6fb3320)">
     <!-- 62.4 -->
     <g transform="translate(267.847593 37.857751) rotate(-5.043617) scale(0.09 -0.09)">
      <use xlink:href="#DejaVuSans-36"/>
      <use xlink:href="#DejaVuSans-32" transform="translate(63.623047 0)"/>
      <use xlink:href="#DejaVuSans-2e" transform="translate(127.246094 0)"/>
      <use xlink:href="#DejaVuSans-34" transform="translate(159.033203 0)"/>
     </g>
    </g>
   </g>
   <g id="text_38">
    <g clip-path="url(#p67d6fb3320)">
     <!-- 63.2 -->
     <g transform="translate(169.000529 57.636348) rotate(-62.548041) scale(0.09 -0.09)">
      <use xlink:href="#DejaVuSans-36"/>
      <use xlink:href="#DejaVuSans-33" transform="translate(63.623047 0)"/>
      <use xlink:href="#DejaVuSans-2e" transform="translate(127.246094 0)"/>
      <use xlink:href="#DejaVuSans-32" transform="translate(159.033203 0)"/>
     </g>
    </g>
   </g>
   <g id="text_39">
    <g clip-path="url(#p67d6fb3320)">
     <!-- 64.0 -->
     <g transform="translate(296.227555 83.86124) rotate(-272.596235) scale(0.09 -0.09)">
      <use xlink:href="#DejaVuSans-36"/>
      <use xlink:href="#DejaVuSans-34" transform="translate(63.623047 0)"/>
      <use xlink:href="#DejaVuSans-2e" transform="translate(127.246094 0)"/>
      <use xlink:href="#DejaVuSans-30" transform="translate(159.033203 0)"/>
     </g>
    </g>
   </g>
   <g id="text_40">
    <g clip-path="url(#p67d6fb3320)">
     <!-- 64.8 -->
     <g transform="translate(195.845726 26.377152) rotate(-336.350855) scale(0.09 -0.09)">
      <use xlink:href="#DejaVuSans-36"/>
      <use xlink:href="#DejaVuSans-34" transform="translate(63.623047 0)"/>
      <use xlink:href="#DejaVuSans-2e" transform="translate(127.246094 0)"/>
      <use xlink:href="#DejaVuSans-38" transform="translate(159.033203 0)"/>
     </g>
    </g>
   </g>
   <g id="text_41">
    <g clip-path="url(#p67d6fb3320)">
     <!-- 65.6 -->
     <g transform="translate(271.999848 143.654416) rotate(-88.937838) scale(0.09 -0.09)">
      <use xlink:href="#DejaVuSans-36"/>
      <use xlink:href="#DejaVuSans-35" transform="translate(63.623047 0)"/>
      <use xlink:href="#DejaVuSans-2e" transform="translate(127.246094 0)"/>
      <use xlink:href="#DejaVuSans-36" transform="translate(159.033203 0)"/>
     </g>
    </g>
   </g>
   <g id="text_42">
    <g clip-path="url(#p67d6fb3320)">
     <!-- 66.4 -->
     <g transform="translate(222.899266 158.857786) rotate(-14.064104) scale(0.09 -0.09)">
      <use xlink:href="#DejaVuSans-36"/>
      <use xlink:href="#DejaVuSans-36" transform="translate(63.623047 0)"/>
      <use xlink:href="#DejaVuSans-2e" transform="translate(127.246094 0)"/>
      <use xlink:href="#DejaVuSans-34" transform="translate(159.033203 0)"/>
     </g>
    </g>
   </g>
   <g id="text_43">
    <g clip-path="url(#p67d6fb3320)">
     <!-- 66.4 -->
     <g transform="translate(124.227651 112.896355) rotate(-354.83749) scale(0.09 -0.09)">
      <use xlink:href="#DejaVuSans-36"/>
      <use xlink:href="#DejaVuSans-36" transform="translate(63.623047 0)"/>
      <use xlink:href="#DejaVuSans-2e" transform="translate(127.246094 0)"/>
      <use xlink:href="#DejaVuSans-34" transform="translate(159.033203 0)"/>
     </g>
    </g>
   </g>
   <g id="text_44">
    <g clip-path="url(#p67d6fb3320)">
     <!-- 66.4 -->
     <g transform="translate(148.099371 142.726471) rotate(-355.138097) scale(0.09 -0.09)">
      <use xlink:href="#DejaVuSans-36"/>
      <use xlink:href="#DejaVuSans-36" transform="translate(63.623047 0)"/>
      <use xlink:href="#DejaVuSans-2e" transform="translate(127.246094 0)"/>
      <use xlink:href="#DejaVuSans-34" transform="translate(159.033203 0)"/>
     </g>
    </g>
   </g>
   <g id="text_45">
    <g clip-path="url(#p67d6fb3320)">
     <!-- 67.2 -->
     <g transform="translate(195.906635 108.950436) rotate(-357.638098) scale(0.09 -0.09)">
      <use xlink:href="#DejaVuSans-36"/>
      <use xlink:href="#DejaVuSans-37" transform="translate(63.623047 0)"/>
      <use xlink:href="#DejaVuSans-2e" transform="translate(127.246094 0)"/>
      <use xlink:href="#DejaVuSans-32" transform="translate(159.033203 0)"/>
     </g>
    </g>
   </g>
  </g>
 </g>
 <defs>
  <clipPath id="p67d6fb3320">
   <rect x="62.84" y="26.88" width="286.36" height="213.4"/>
  </clipPath>
 </defs>
</svg>
