<?xml version="1.0" encoding="utf-8" standalone="no"?>
<!DOCTYPE svg PUBLIC "-//W3C//DTD SVG 1.1//EN"
  "http://www.w3.org/Graphics/SVG/1.1/DTD/svg11.dtd">
<svg xmlns:xlink="http://www.w3.org/1999/xlink" width="360pt" height="288pt" viewBox="0 0 360 288" xmlns="http://www.w3.org/2000/svg" version="1.1">
 <metadata>
  <rdf:RDF xmlns:dc="http://purl.org/dc/elements/1.1/" xmlns:cc="http://creativecommons.org/ns#" xmlns:rdf="http://www.w3.org/1999/02/22-rdf-syntax-ns#">
   <cc:Work>
    <dc:type rdf:resource="http://purl.org/dc/dcmitype/StillImage"/>
    <dc:date>2025-10-02T17:14:36.145757</dc:date>
    <dc:format>image/svg+xml</dc:format>
    <dc:creator>
     <cc:Agent>
      <dc:title>Matplotlib v3.10.6, https://matplotlib.org/</dc:title>
     </cc:Agent>
    </dc:creator>
   </cc:Work>
  </rdf:RDF>
 </metadata>
 <defs>
  <style type="text/css">*{stroke-linejoin: round; stroke-linecap: butt}</style>
 </defs>
 <g id="figure_1">
  <g id="patch_1">
   <path d="M 0 288 
L 360 288 
L 360 0 
L 0 0 
z
" style="fill: #ffffff"/>
  </g>
  <g id="axes_1">
   <g id="patch_2">
    <path d="M 62.84 240.28 
L 349.2 240.28 
L 349.2 26.88 
L 62.84 26.88 
z
" style="fill: #ffffff"/>
   </g>
   <g id="QuadContourSet_1">
    <path d="M 86.703333 26.88 
L 86.868845 26.88 
L 86.854424 36.380776 
L 86.824554 47.600163 
L 86.825561 60.808896 
L 86.844599 76.198006 
L 86.812047 93.757994 
L 86.858313 113.137869 
L 86.857665 133.590571 
L 86.836352 154.013971 
L 86.855864 173.39493 
L 86.868185 190.956403 
L 86.852582 206.347113 
L 86.873762 219.557363 
L 86.875906 230.778089 
L 86.867555 240.28 
L 86.703333 240.28 
L 62.84 240.28 
L 62.84 230.778089 
L 62.84 219.557363 
L 62.84 206.347113 
L 62.84 190.956403 
L 62.84 173.39493 
L 62.84 154.013971 
L 62.84 133.590571 
L 62.84 113.137869 
L 62.84 93.757994 
L 62.84 76.198006 
L 62.84 60.808896 
L 62.84 47.600163 
L 62.84 36.380776 
L 62.84 26.88 
z
M 325.336667 26.88 
L 349.2 26.88 
L 349.2 36.380776 
L 349.2 47.600163 
L 349.2 60.808896 
L 349.2 76.198006 
L 349.2 93.757994 
L 349.2 113.137869 
L 349.2 133.590571 
L 349.2 154.013971 
L 349.2 173.39493 
L 349.2 190.956403 
L 349.2 206.347113 
L 349.2 219.557363 
L 349.2 230.778089 
L 349.2 240.28 
L 325.336667 240.28 
L 325.159889 240.28 
L 325.129145 230.778089 
L 325.155139 219.557363 
L 325.176901 206.347113 
L 325.190802 190.956403 
L 325.161302 173.39493 
L 325.164659 154.013971 
L 325.168092 133.590571 
L 325.159004 113.137869 
L 325.218751 93.757994 
L 325.20603 76.198006 
L 325.19515 60.808896 
L 325.1776 47.600163 
L 325.194348 36.380776 
L 325.179795 26.88 
z
" clip-path="url(#p44ea8072d0)" style="fill: #460a5d"/>
    <path d="M 89.170985 36.380776 
L 88.683152 47.600163 
L 88.699586 60.808896 
L 89.010518 76.198006 
L 88.47888 93.757994 
L 89.234501 113.137869 
L 89.223925 133.590571 
L 88.87584 154.013971 
L 89.194506 173.39493 
L 89.395735 190.956403 
L 89.140904 206.347113 
L 89.486831 219.557363 
L 89.521844 230.778089 
L 89.385445 240.28 
L 86.867555 240.28 
L 86.875906 230.778089 
L 86.873762 219.557363 
L 86.852582 206.347113 
L 86.868185 190.956403 
L 86.855864 173.39493 
L 86.836352 154.013971 
L 86.857665 133.590571 
L 86.858313 113.137869 
L 86.812047 93.757994 
L 86.844599 76.198006 
L 86.825561 60.808896 
L 86.824554 47.600163 
L 86.854424 36.380776 
L 86.868845 26.88 
L 89.40651 26.88 
z
M 325.194348 36.380776 
L 325.1776 47.600163 
L 325.19515 60.808896 
L 325.20603 76.198006 
L 325.218751 93.757994 
L 325.159004 113.137869 
L 325.168092 133.590571 
L 325.164659 154.013971 
L 325.161302 173.39493 
L 325.190802 190.956403 
L 325.176901 206.347113 
L 325.155139 219.557363 
L 325.129145 230.778089 
L 325.159889 240.28 
L 322.449482 240.28 
L 321.947367 230.778089 
L 322.371902 219.557363 
L 322.727327 206.347113 
L 322.954368 190.956403 
L 322.472556 173.39493 
L 322.527387 154.013971 
L 322.58345 133.590571 
L 322.435027 113.137869 
L 323.41084 93.757994 
L 323.203076 76.198006 
L 323.025377 60.808896 
L 322.738745 47.600163 
L 323.012283 36.380776 
L 322.774596 26.88 
L 325.179795 26.88 
z
" clip-path="url(#p44ea8072d0)" style="fill: #481c6e"/>
    <path d="M 91.487547 36.380776 
L 90.541749 47.600163 
L 90.573611 60.808896 
L 91.176437 76.198006 
L 90.145712 93.757994 
L 91.61069 113.137869 
L 91.590184 133.590571 
L 90.915327 154.013971 
L 91.533149 173.39493 
L 91.923284 190.956403 
L 91.429227 206.347113 
L 92.0999 219.557363 
L 92.167781 230.778089 
L 91.903336 240.28 
L 89.385445 240.28 
L 89.521844 230.778089 
L 89.486831 219.557363 
L 89.140904 206.347113 
L 89.395735 190.956403 
L 89.194506 173.39493 
L 88.87584 154.013971 
L 89.223925 133.590571 
L 89.234501 113.137869 
L 88.47888 93.757994 
L 89.010518 76.198006 
L 88.699586 60.808896 
L 88.683152 47.600163 
L 89.170985 36.380776 
L 89.40651 26.88 
L 91.944175 26.88 
z
M 323.012283 36.380776 
L 322.738745 47.600163 
L 323.025377 60.808896 
L 323.203076 76.198006 
L 323.41084 93.757994 
L 322.435027 113.137869 
L 322.58345 133.590571 
L 322.527387 154.013971 
L 322.472556 173.39493 
L 322.954368 190.956403 
L 322.727327 206.347113 
L 322.371902 219.557363 
L 321.947367 230.778089 
L 322.449482 240.28 
L 319.739074 240.28 
L 318.76559 230.778089 
L 319.588664 219.557363 
L 320.277752 206.347113 
L 320.717933 190.956403 
L 319.783811 173.39493 
L 319.890115 154.013971 
L 319.998809 133.590571 
L 319.71105 113.137869 
L 321.602928 93.757994 
L 321.200123 76.198006 
L 320.855605 60.808896 
L 320.299889 47.600163 
L 320.830217 36.380776 
L 320.369398 26.88 
L 322.774596 26.88 
z
" clip-path="url(#p44ea8072d0)" style="fill: #472d7b"/>
    <path d="M 93.804108 36.380776 
L 92.400346 47.600163 
L 92.447636 60.808896 
L 93.342356 76.198006 
L 91.812544 93.757994 
L 93.986878 113.137869 
L 93.956443 133.590571 
L 92.954814 154.013971 
L 93.871791 173.39493 
L 94.450834 190.956403 
L 93.71755 206.347113 
L 94.712969 219.557363 
L 94.813718 230.778089 
L 94.421227 240.28 
L 91.903336 240.28 
L 92.167781 230.778089 
L 92.0999 219.557363 
L 91.429227 206.347113 
L 91.923284 190.956403 
L 91.533149 173.39493 
L 90.915327 154.013971 
L 91.590184 133.590571 
L 91.61069 113.137869 
L 90.145712 93.757994 
L 91.176437 76.198006 
L 90.573611 60.808896 
L 90.541749 47.600163 
L 91.487547 36.380776 
L 91.944175 26.88 
L 94.48184 26.88 
z
M 320.830217 36.380776 
L 320.299889 47.600163 
L 320.855605 60.808896 
L 321.200123 76.198006 
L 321.602928 93.757994 
L 319.71105 113.137869 
L 319.998809 133.590571 
L 319.890115 154.013971 
L 319.783811 173.39493 
L 320.717933 190.956403 
L 320.277752 206.347113 
L 319.588664 219.557363 
L 318.76559 230.778089 
L 319.739074 240.28 
L 317.028667 240.28 
L 315.583812 230.778089 
L 316.805427 219.557363 
L 317.828178 206.347113 
L 318.481498 190.956403 
L 317.095066 173.39493 
L 317.252844 154.013971 
L 317.414168 133.590571 
L 316.987073 113.137869 
L 319.795017 93.757994 
L 319.197169 76.198006 
L 318.685832 60.808896 
L 317.861033 47.600163 
L 318.648152 36.380776 
L 317.964199 26.88 
L 320.369398 26.88 
z
" clip-path="url(#p44ea8072d0)" style="fill: #443b84"/>
    <path d="M 96.120669 36.380776 
L 94.258943 47.600163 
L 94.321661 60.808896 
L 95.508275 76.198006 
L 93.479377 93.757994 
L 96.363067 113.137869 
L 96.322703 133.590571 
L 94.994301 154.013971 
L 96.210434 173.39493 
L 96.978384 190.956403 
L 96.005872 206.347113 
L 97.326038 219.557363 
L 97.459656 230.778089 
L 96.939118 240.28 
L 94.421227 240.28 
L 94.813718 230.778089 
L 94.712969 219.557363 
L 93.71755 206.347113 
L 94.450834 190.956403 
L 93.871791 173.39493 
L 92.954814 154.013971 
L 93.956443 133.590571 
L 93.986878 113.137869 
L 91.812544 93.757994 
L 93.342356 76.198006 
L 92.447636 60.808896 
L 92.400346 47.600163 
L 93.804108 36.380776 
L 94.48184 26.88 
L 97.019505 26.88 
z
M 318.648152 36.380776 
L 317.861033 47.600163 
L 318.685832 60.808896 
L 319.197169 76.198006 
L 319.795017 93.757994 
L 316.987073 113.137869 
L 317.414168 133.590571 
L 317.252844 154.013971 
L 317.095066 173.39493 
L 318.481498 190.956403 
L 317.828178 206.347113 
L 316.805427 219.557363 
L 315.583812 230.778089 
L 317.028667 240.28 
L 314.31826 240.28 
L 312.402034 230.778089 
L 314.02219 219.557363 
L 315.378604 206.347113 
L 316.245063 190.956403 
L 314.406321 173.39493 
L 314.615572 154.013971 
L 314.829526 133.590571 
L 314.263096 113.137869 
L 317.987105 93.757994 
L 317.194215 76.198006 
L 316.516059 60.808896 
L 315.422178 47.600163 
L 316.466086 36.380776 
L 315.559 26.88 
L 317.964199 26.88 
z
" clip-path="url(#p44ea8072d0)" style="fill: #3e4a89"/>
    <path d="M 98.437231 36.380776 
L 96.11754 47.600163 
L 96.195686 60.808896 
L 97.674194 76.198006 
L 95.146209 93.757994 
L 98.739255 113.137869 
L 98.688962 133.590571 
L 97.033788 154.013971 
L 98.549076 173.39493 
L 99.505934 190.956403 
L 98.294195 206.347113 
L 99.939107 219.557363 
L 100.105593 230.778089 
L 99.457008 240.28 
L 96.939118 240.28 
L 97.459656 230.778089 
L 97.326038 219.557363 
L 96.005872 206.347113 
L 96.978384 190.956403 
L 96.210434 173.39493 
L 94.994301 154.013971 
L 96.322703 133.590571 
L 96.363067 113.137869 
L 93.479377 93.757994 
L 95.508275 76.198006 
L 94.321661 60.808896 
L 94.258943 47.600163 
L 96.120669 36.380776 
L 97.019505 26.88 
L 99.55717 26.88 
z
M 316.466086 36.380776 
L 315.422178 47.600163 
L 316.516059 60.808896 
L 317.194215 76.198006 
L 317.987105 93.757994 
L 314.263096 113.137869 
L 314.829526 133.590571 
L 314.615572 154.013971 
L 314.406321 173.39493 
L 316.245063 190.956403 
L 315.378604 206.347113 
L 314.02219 219.557363 
L 312.402034 230.778089 
L 314.31826 240.28 
L 311.607853 240.28 
L 309.220256 230.778089 
L 311.238953 219.557363 
L 312.929029 206.347113 
L 314.008629 190.956403 
L 311.717575 173.39493 
L 311.9783 154.013971 
L 312.244885 133.590571 
L 311.539119 113.137869 
L 316.179194 93.757994 
L 315.191261 76.198006 
L 314.346287 60.808896 
L 312.983322 47.600163 
L 314.28402 36.380776 
L 313.153801 26.88 
L 315.559 26.88 
z
" clip-path="url(#p44ea8072d0)" style="fill: #38598c"/>
    <path d="M 100.753792 36.380776 
L 97.976137 47.600163 
L 98.069711 60.808896 
L 99.840113 76.198006 
L 96.813041 93.757994 
L 101.115444 113.137869 
L 101.055222 133.590571 
L 99.073275 154.013971 
L 100.887718 173.39493 
L 102.033484 190.956403 
L 100.582517 206.347113 
L 102.552176 219.557363 
L 102.751531 230.778089 
L 101.974899 240.28 
L 99.457008 240.28 
L 100.105593 230.778089 
L 99.939107 219.557363 
L 98.294195 206.347113 
L 99.505934 190.956403 
L 98.549076 173.39493 
L 97.033788 154.013971 
L 98.688962 133.590571 
L 98.739255 113.137869 
L 95.146209 93.757994 
L 97.674194 76.198006 
L 96.195686 60.808896 
L 96.11754 47.600163 
L 98.437231 36.380776 
L 99.55717 26.88 
L 102.094835 26.88 
z
M 314.28402 36.380776 
L 312.983322 47.600163 
L 314.346287 60.808896 
L 315.191261 76.198006 
L 316.179194 93.757994 
L 311.539119 113.137869 
L 312.244885 133.590571 
L 311.9783 154.013971 
L 311.717575 173.39493 
L 314.008629 190.956403 
L 312.929029 206.347113 
L 311.238953 219.557363 
L 309.220256 230.778089 
L 311.607853 240.28 
L 308.897446 240.28 
L 306.038479 230.778089 
L 308.455716 219.557363 
L 310.479455 206.347113 
L 311.772194 190.956403 
L 309.02883 173.39493 
L 309.341028 154.013971 
L 309.660244 133.590571 
L 308.815142 113.137869 
L 314.371282 93.757994 
L 313.188307 76.198006 
L 312.176514 60.808896 
L 310.544467 47.600163 
L 312.101955 36.380776 
L 310.748603 26.88 
L 313.153801 26.88 
z
" clip-path="url(#p44ea8072d0)" style="fill: #31668e"/>
    <path d="M 103.070354 36.380776 
L 99.834734 47.600163 
L 99.943737 60.808896 
L 102.006032 76.198006 
L 98.479874 93.757994 
L 103.491632 113.137869 
L 103.421481 133.590571 
L 101.112763 154.013971 
L 103.226361 173.39493 
L 104.561034 190.956403 
L 102.87084 206.347113 
L 105.165245 219.557363 
L 105.397468 230.778089 
L 104.49279 240.28 
L 101.974899 240.28 
L 102.751531 230.778089 
L 102.552176 219.557363 
L 100.582517 206.347113 
L 102.033484 190.956403 
L 100.887718 173.39493 
L 99.073275 154.013971 
L 101.055222 133.590571 
L 101.115444 113.137869 
L 96.813041 93.757994 
L 99.840113 76.198006 
L 98.069711 60.808896 
L 97.976137 47.600163 
L 100.753792 36.380776 
L 102.094835 26.88 
L 104.6325 26.88 
z
M 312.101955 36.380776 
L 310.544467 47.600163 
L 312.176514 60.808896 
L 313.188307 76.198006 
L 314.371282 93.757994 
L 308.815142 113.137869 
L 309.660244 133.590571 
L 309.341028 154.013971 
L 309.02883 173.39493 
L 311.772194 190.956403 
L 310.479455 206.347113 
L 308.455716 219.557363 
L 306.038479 230.778089 
L 308.897446 240.28 
L 306.187038 240.28 
L 302.856701 230.778089 
L 305.672479 219.557363 
L 308.029881 206.347113 
L 309.535759 190.956403 
L 306.340085 173.39493 
L 306.703756 154.013971 
L 307.075602 133.590571 
L 306.091165 113.137869 
L 312.563371 93.757994 
L 311.185353 76.198006 
L 310.006741 60.808896 
L 308.105611 47.600163 
L 309.919889 36.380776 
L 308.343404 26.88 
L 310.748603 26.88 
z
" clip-path="url(#p44ea8072d0)" style="fill: #2c728e"/>
    <path d="M 105.386915 36.380776 
L 101.693331 47.600163 
L 101.817762 60.808896 
L 104.171951 76.198006 
L 100.146706 93.757994 
L 105.867821 113.137869 
L 105.787741 133.590571 
L 103.15225 154.013971 
L 105.565003 173.39493 
L 107.088583 190.956403 
L 105.159162 206.347113 
L 107.778313 219.557363 
L 108.043405 230.778089 
L 107.01068 240.28 
L 104.49279 240.28 
L 105.397468 230.778089 
L 105.165245 219.557363 
L 102.87084 206.347113 
L 104.561034 190.956403 
L 103.226361 173.39493 
L 101.112763 154.013971 
L 103.421481 133.590571 
L 103.491632 113.137869 
L 98.479874 93.757994 
L 102.006032 76.198006 
L 99.943737 60.808896 
L 99.834734 47.600163 
L 103.070354 36.380776 
L 104.6325 26.88 
L 107.170165 26.88 
z
M 309.919889 36.380776 
L 308.105611 47.600163 
L 310.006741 60.808896 
L 311.185353 76.198006 
L 312.563371 93.757994 
L 306.091165 113.137869 
L 307.075602 133.590571 
L 306.703756 154.013971 
L 306.340085 173.39493 
L 309.535759 190.956403 
L 308.029881 206.347113 
L 305.672479 219.557363 
L 302.856701 230.778089 
L 306.187038 240.28 
L 303.476631 240.28 
L 301.473333 234.895656 
L 287.978555 230.778089 
L 301.473333 224.872594 
L 302.889241 219.557363 
L 305.580306 206.347113 
L 307.299324 190.956403 
L 303.65134 173.39493 
L 304.066484 154.013971 
L 304.490961 133.590571 
L 303.367188 113.137869 
L 310.755459 93.757994 
L 309.182399 76.198006 
L 307.836969 60.808896 
L 305.666756 47.600163 
L 307.737824 36.380776 
L 305.938205 26.88 
L 308.343404 26.88 
z
" clip-path="url(#p44ea8072d0)" style="fill: #277e8e"/>
    <path d="M 107.703476 36.380776 
L 103.551928 47.600163 
L 103.691787 60.808896 
L 106.337871 76.198006 
L 101.813539 93.757994 
L 108.244009 113.137869 
L 108.154 133.590571 
L 105.191737 154.013971 
L 107.903646 173.39493 
L 109.616133 190.956403 
L 107.447485 206.347113 
L 110.391382 219.557363 
L 110.566667 226.19223 
L 111.301797 230.778089 
L 110.566667 231.738613 
L 109.528571 240.28 
L 107.01068 240.28 
L 108.043405 230.778089 
L 107.778313 219.557363 
L 105.159162 206.347113 
L 107.088583 190.956403 
L 105.565003 173.39493 
L 103.15225 154.013971 
L 105.787741 133.590571 
L 105.867821 113.137869 
L 100.146706 93.757994 
L 104.171951 76.198006 
L 101.817762 60.808896 
L 101.693331 47.600163 
L 105.386915 36.380776 
L 107.170165 26.88 
L 109.70783 26.88 
z
M 307.737824 36.380776 
L 305.666756 47.600163 
L 307.836969 60.808896 
L 309.182399 76.198006 
L 310.755459 93.757994 
L 303.367188 113.137869 
L 304.490961 133.590571 
L 304.066484 154.013971 
L 303.65134 173.39493 
L 307.299324 190.956403 
L 305.580306 206.347113 
L 302.889241 219.557363 
L 301.473333 224.872594 
L 287.978555 230.778089 
L 301.473333 234.895656 
L 303.476631 240.28 
L 301.473333 240.28 
L 277.61 240.28 
L 273.821858 240.28 
L 274.202675 230.778089 
L 277.61 222.517643 
L 284.581015 219.557363 
L 301.473333 214.000422 
L 303.130732 206.347113 
L 305.06289 190.956403 
L 301.473333 175.25337 
L 298.553455 173.39493 
L 301.208407 154.013971 
L 301.473333 152.159575 
L 301.90632 133.590571 
L 301.473333 126.335611 
L 293.596492 113.137869 
L 301.473333 111.807377 
L 308.947548 93.757994 
L 307.179445 76.198006 
L 305.667196 60.808896 
L 303.2279 47.600163 
L 305.555758 36.380776 
L 303.533006 26.88 
L 305.938205 26.88 
z
" clip-path="url(#p44ea8072d0)" style="fill: #238a8d"/>
    <path d="M 110.566667 26.88 
L 134.43 26.88 
L 136.296487 26.88 
L 136.010786 36.380776 
L 134.43 38.311295 
L 121.413085 36.380776 
L 110.566667 33.882968 
L 110.020038 36.380776 
L 105.410525 47.600163 
L 105.565812 60.808896 
L 108.50379 76.198006 
L 103.480371 93.757994 
L 110.566667 113.035716 
L 110.930987 113.137869 
L 110.566667 124.071878 
L 110.520259 133.590571 
L 107.231224 154.013971 
L 110.242288 173.39493 
L 110.566667 176.588913 
L 119.458182 190.956403 
L 110.566667 200.685449 
L 109.735807 206.347113 
L 110.566667 210.048069 
L 134.43 218.520636 
L 135.327318 219.557363 
L 134.43 221.036467 
L 127.157438 230.778089 
L 117.117547 240.28 
L 110.566667 240.28 
L 109.528571 240.28 
L 110.566667 231.738613 
L 111.301797 230.778089 
L 110.566667 226.19223 
L 110.391382 219.557363 
L 107.447485 206.347113 
L 109.616133 190.956403 
L 107.903646 173.39493 
L 105.191737 154.013971 
L 108.154 133.590571 
L 108.244009 113.137869 
L 101.813539 93.757994 
L 106.337871 76.198006 
L 103.691787 60.808896 
L 103.551928 47.600163 
L 107.703476 36.380776 
L 109.70783 26.88 
z
M 301.473333 26.88 
L 303.533006 26.88 
L 305.555758 36.380776 
L 303.2279 47.600163 
L 305.667196 60.808896 
L 307.179445 76.198006 
L 308.947548 93.757994 
L 301.473333 111.807377 
L 293.596492 113.137869 
L 301.473333 126.335611 
L 301.90632 133.590571 
L 301.473333 152.159575 
L 301.208407 154.013971 
L 298.553455 173.39493 
L 301.473333 175.25337 
L 305.06289 190.956403 
L 303.130732 206.347113 
L 301.473333 214.000422 
L 284.581015 219.557363 
L 277.61 222.517643 
L 274.202675 230.778089 
L 273.821858 240.28 
L 267.085193 240.28 
L 268.179669 230.778089 
L 269.824219 219.557363 
L 272.522737 206.347113 
L 277.61 203.00019 
L 301.473333 200.986171 
L 302.826455 190.956403 
L 301.473333 185.036977 
L 283.181986 173.39493 
L 285.372677 154.013971 
L 286.887038 133.590571 
L 277.61 121.703197 
L 273.438129 113.137869 
L 277.61 110.400469 
L 301.473333 107.441475 
L 307.139637 93.757994 
L 305.176491 76.198006 
L 303.497423 60.808896 
L 301.473333 50.654363 
L 298.140792 47.600163 
L 301.473333 44.866361 
L 303.373693 36.380776 
L 301.473333 28.225278 
L 299.156311 26.88 
z
M 134.43 75.415606 
L 134.993185 76.198006 
L 134.43 76.762797 
L 131.480553 76.198006 
z
M 206.02 239.112536 
L 207.698284 240.28 
L 206.02 240.28 
L 204.135578 240.28 
z
" clip-path="url(#p44ea8072d0)" style="fill: #1f968b"/>
    <path d="M 110.566667 33.882968 
L 121.413085 36.380776 
L 134.43 38.311295 
L 136.010786 36.380776 
L 136.296487 26.88 
L 143.258753 26.88 
L 141.592948 36.380776 
L 134.43 45.128455 
L 110.566667 39.75791 
L 107.269122 47.600163 
L 107.439837 60.808896 
L 110.566667 75.77138 
L 134.43 69.590661 
L 139.186079 76.198006 
L 134.43 80.967646 
L 110.566667 76.451241 
L 105.147203 93.757994 
L 110.566667 108.501226 
L 127.102783 113.137869 
L 134.43 125.743464 
L 136.472507 133.590571 
L 134.43 136.327009 
L 110.566667 145.982332 
L 109.270711 154.013971 
L 110.566667 162.242106 
L 119.729646 173.39493 
L 133.708985 190.956403 
L 134.43 194.300708 
L 136.421882 206.347113 
L 148.212041 219.557363 
L 142.556578 230.778089 
L 134.43 235.477564 
L 128.263956 240.28 
L 117.117547 240.28 
L 127.157438 230.778089 
L 134.43 221.036467 
L 135.327318 219.557363 
L 134.43 218.520636 
L 110.566667 210.048069 
L 109.735807 206.347113 
L 110.566667 200.685449 
L 119.458182 190.956403 
L 110.566667 176.588913 
L 110.242288 173.39493 
L 107.231224 154.013971 
L 110.520259 133.590571 
L 110.566667 124.071878 
L 110.930987 113.137869 
L 110.566667 113.035716 
L 103.480371 93.757994 
L 108.50379 76.198006 
L 105.565812 60.808896 
L 105.410525 47.600163 
L 110.020038 36.380776 
z
M 131.480553 76.198006 
L 134.43 76.762797 
L 134.993185 76.198006 
L 134.43 75.415606 
z
M 229.883333 35.772127 
L 231.198854 36.380776 
L 229.883333 36.653922 
L 229.079308 36.380776 
z
M 301.473333 28.225278 
L 303.373693 36.380776 
L 301.473333 44.866361 
L 298.140792 47.600163 
L 301.473333 50.654363 
L 303.497423 60.808896 
L 305.176491 76.198006 
L 307.139637 93.757994 
L 301.473333 107.441475 
L 277.61 110.400469 
L 273.438129 113.137869 
L 277.61 121.703197 
L 286.887038 133.590571 
L 285.372677 154.013971 
L 283.181986 173.39493 
L 301.473333 185.036977 
L 302.826455 190.956403 
L 301.473333 200.986171 
L 277.61 203.00019 
L 272.522737 206.347113 
L 269.824219 219.557363 
L 268.179669 230.778089 
L 267.085193 240.28 
L 260.348528 240.28 
L 262.156663 230.778089 
L 260.058601 219.557363 
L 259.716836 206.347113 
L 277.61 194.575156 
L 290.041791 190.956403 
L 277.61 183.887214 
L 268.779327 173.39493 
L 265.130303 154.013971 
L 268.680017 133.590571 
L 262.502693 113.137869 
L 277.61 103.225113 
L 301.473333 103.075573 
L 305.331725 93.757994 
L 303.173537 76.198006 
L 301.473333 61.936916 
L 282.591345 76.198006 
L 277.61 78.745973 
L 275.517002 76.198006 
L 273.387501 60.808896 
L 277.61 55.689622 
L 286.263364 47.600163 
L 293.223389 36.380776 
L 283.027553 26.88 
L 299.156311 26.88 
z
M 206.02 232.440924 
L 217.289039 240.28 
L 207.698284 240.28 
L 206.02 239.112536 
L 204.135578 240.28 
L 193.366818 240.28 
z
" clip-path="url(#p44ea8072d0)" style="fill: #1fa287"/>
    <path d="M 147.17511 36.380776 
L 137.928328 47.600163 
L 134.43 54.953278 
L 123.65447 47.600163 
L 110.566667 44.178044 
L 109.127719 47.600163 
L 109.313862 60.808896 
L 110.566667 66.803807 
L 134.43 63.765715 
L 143.378973 76.198006 
L 134.43 85.172496 
L 110.566667 81.774177 
L 106.814036 93.757994 
L 110.566667 103.966737 
L 134.43 109.043524 
L 137.03124 113.137869 
L 143.714141 133.590571 
L 134.43 146.028949 
L 117.892194 154.013971 
L 130.368239 173.39493 
L 134.43 178.431649 
L 145.833966 190.956403 
L 147.351555 206.347113 
L 158.293333 217.198872 
L 179.427174 219.557363 
L 158.293333 228.741275 
L 157.568919 230.778089 
L 142.112337 240.28 
L 134.43 240.28 
L 128.263956 240.28 
L 134.43 235.477564 
L 142.556578 230.778089 
L 148.212041 219.557363 
L 136.421882 206.347113 
L 134.43 194.300708 
L 133.708985 190.956403 
L 119.729646 173.39493 
L 110.566667 162.242106 
L 109.270711 154.013971 
L 110.566667 145.982332 
L 134.43 136.327009 
L 136.472507 133.590571 
L 134.43 125.743464 
L 127.102783 113.137869 
L 110.566667 108.501226 
L 105.147203 93.757994 
L 110.566667 76.451241 
L 134.43 80.967646 
L 139.186079 76.198006 
L 134.43 69.590661 
L 110.566667 75.77138 
L 107.439837 60.808896 
L 107.269122 47.600163 
L 110.566667 39.75791 
L 134.43 45.128455 
L 141.592948 36.380776 
L 143.258753 26.88 
L 150.221018 26.88 
z
M 229.883333 27.005492 
L 250.146895 36.380776 
L 229.883333 40.588176 
L 217.498571 36.380776 
z
M 229.079308 36.380776 
L 229.883333 36.653922 
L 231.198854 36.380776 
L 229.883333 35.772127 
z
M 277.61 26.88 
L 283.027553 26.88 
L 293.223389 36.380776 
L 286.263364 47.600163 
L 277.61 55.689622 
L 273.387501 60.808896 
L 275.517002 76.198006 
L 277.61 78.745973 
L 282.591345 76.198006 
L 301.473333 61.936916 
L 303.173537 76.198006 
L 305.331725 93.757994 
L 301.473333 103.075573 
L 277.61 103.225113 
L 262.502693 113.137869 
L 268.680017 133.590571 
L 265.130303 154.013971 
L 268.779327 173.39493 
L 277.61 183.887214 
L 290.041791 190.956403 
L 277.61 194.575156 
L 259.716836 206.347113 
L 260.058601 219.557363 
L 262.156663 230.778089 
L 260.348528 240.28 
L 253.746667 240.28 
L 252.313469 240.28 
L 253.746667 239.823295 
L 256.133657 230.778089 
L 253.746667 224.848635 
L 248.886499 219.557363 
L 248.149821 206.347113 
L 253.746667 201.590368 
L 269.891767 190.956403 
L 254.927532 173.39493 
L 253.746667 170.731013 
L 249.887372 154.013971 
L 252.189134 133.590571 
L 252.35226 113.137869 
L 253.746667 111.029687 
L 277.61 96.049757 
L 301.473333 98.709672 
L 303.523814 93.757994 
L 301.473333 78.263031 
L 277.61 90.123942 
L 266.170697 76.198006 
L 264.229132 60.808896 
L 275.221338 47.600163 
L 258.540802 36.380776 
L 267.669082 26.88 
z
M 206.02 219.680411 
L 215.614369 230.778089 
L 226.879795 240.28 
L 217.289039 240.28 
L 206.02 232.440924 
L 193.366818 240.28 
L 182.598058 240.28 
L 188.316793 230.778089 
z
" clip-path="url(#p44ea8072d0)" style="fill: #28ae80"/>
    <path d="M 152.757273 36.380776 
L 143.416515 47.600163 
L 137.19499 60.808896 
L 147.571867 76.198006 
L 134.43 89.377346 
L 110.566667 87.097113 
L 108.480868 93.757994 
L 110.566667 99.432248 
L 134.43 101.557254 
L 141.787456 113.137869 
L 150.955775 133.590571 
L 137.135675 154.013971 
L 141.364072 173.39493 
L 157.845661 190.956403 
L 158.281228 206.347113 
L 158.293333 206.359119 
L 158.395188 206.347113 
L 182.156667 202.455425 
L 206.02 204.713556 
L 212.613191 206.347113 
L 223.237323 219.557363 
L 228.393917 230.778089 
L 229.883333 232.156543 
L 233.744847 230.778089 
L 235.143913 219.557363 
L 237.664819 206.347113 
L 253.746667 192.679194 
L 256.362307 190.956403 
L 253.746667 187.89241 
L 247.36958 173.39493 
L 242.673396 154.013971 
L 244.881475 133.590571 
L 245.355661 113.137869 
L 253.746667 100.451643 
L 265.243914 93.757994 
L 256.824393 76.198006 
L 255.070763 60.808896 
L 266.421523 47.600163 
L 253.746667 40.419178 
L 229.883333 44.52243 
L 206.02 36.424886 
L 205.884247 36.380776 
L 206.02 36.120523 
L 211.774683 26.88 
L 229.883333 26.88 
L 253.746667 26.88 
L 267.669082 26.88 
L 258.540802 36.380776 
L 275.221338 47.600163 
L 264.229132 60.808896 
L 266.170697 76.198006 
L 277.61 90.123942 
L 301.473333 78.263031 
L 303.523814 93.757994 
L 301.473333 98.709672 
L 277.61 96.049757 
L 253.746667 111.029687 
L 252.35226 113.137869 
L 252.189134 133.590571 
L 249.887372 154.013971 
L 253.746667 170.731013 
L 254.927532 173.39493 
L 269.891767 190.956403 
L 253.746667 201.590368 
L 248.149821 206.347113 
L 248.886499 219.557363 
L 253.746667 224.848635 
L 256.133657 230.778089 
L 253.746667 239.823295 
L 252.313469 240.28 
L 229.883333 240.28 
L 226.879795 240.28 
L 215.614369 230.778089 
L 206.02 219.680411 
L 188.316793 230.778089 
L 182.598058 240.28 
L 182.156667 240.28 
L 158.293333 240.28 
L 142.112337 240.28 
L 157.568919 230.778089 
L 158.293333 228.741275 
L 179.427174 219.557363 
L 158.293333 217.198872 
L 147.351555 206.347113 
L 145.833966 190.956403 
L 134.43 178.431649 
L 130.368239 173.39493 
L 117.892194 154.013971 
L 134.43 146.028949 
L 143.714141 133.590571 
L 137.03124 113.137869 
L 134.43 109.043524 
L 110.566667 103.966737 
L 106.814036 93.757994 
L 110.566667 81.774177 
L 134.43 85.172496 
L 143.378973 76.198006 
L 134.43 63.765715 
L 110.566667 66.803807 
L 109.313862 60.808896 
L 109.127719 47.600163 
L 110.566667 44.178044 
L 123.65447 47.600163 
L 134.43 54.953278 
L 137.928328 47.600163 
L 147.17511 36.380776 
L 150.221018 26.88 
L 157.183284 26.88 
z
M 217.498571 36.380776 
L 229.883333 40.588176 
L 250.146895 36.380776 
L 229.883333 27.005492 
z
M 297.543718 93.757994 
L 301.473333 94.34377 
L 301.715902 93.757994 
L 301.473333 91.924963 
z
" clip-path="url(#p44ea8072d0)" style="fill: #38b977"/>
    <path d="M 158.293333 26.88 
L 172.807656 26.88 
L 158.651507 36.380776 
L 158.293333 36.434679 
L 148.904703 47.600163 
L 142.810473 60.808896 
L 151.764761 76.198006 
L 134.43 93.582196 
L 110.566667 92.420049 
L 110.1477 93.757994 
L 110.566667 94.897759 
L 134.43 94.070983 
L 146.543672 113.137869 
L 158.197409 133.590571 
L 152.424869 154.013971 
L 152.580532 173.39493 
L 158.293333 179.471111 
L 182.156667 188.312873 
L 185.635075 190.956403 
L 206.02 198.948009 
L 229.883333 204.725588 
L 247.321851 190.956403 
L 240.398182 173.39493 
L 235.459419 154.013971 
L 237.573815 133.590571 
L 238.359063 113.137869 
L 249.418745 93.757994 
L 237.35394 76.198006 
L 229.883333 68.80569 
L 224.491912 60.808896 
L 226.307256 47.600163 
L 206.02 41.424848 
L 190.496497 36.380776 
L 192.676404 26.88 
L 206.02 26.88 
L 211.774683 26.88 
L 206.02 36.120523 
L 205.884247 36.380776 
L 206.02 36.424886 
L 229.883333 44.52243 
L 253.746667 40.419178 
L 266.421523 47.600163 
L 255.070763 60.808896 
L 256.824393 76.198006 
L 265.243914 93.757994 
L 253.746667 100.451643 
L 245.355661 113.137869 
L 244.881475 133.590571 
L 242.673396 154.013971 
L 247.36958 173.39493 
L 253.746667 187.89241 
L 256.362307 190.956403 
L 253.746667 192.679194 
L 237.664819 206.347113 
L 235.143913 219.557363 
L 233.744847 230.778089 
L 229.883333 232.156543 
L 228.393917 230.778089 
L 223.237323 219.557363 
L 212.613191 206.347113 
L 206.02 204.713556 
L 182.156667 202.455425 
L 158.395188 206.347113 
L 158.293333 206.359119 
L 158.281228 206.347113 
L 157.845661 190.956403 
L 141.364072 173.39493 
L 137.135675 154.013971 
L 150.955775 133.590571 
L 141.787456 113.137869 
L 134.43 101.557254 
L 110.566667 99.432248 
L 108.480868 93.757994 
L 110.566667 87.097113 
L 134.43 89.377346 
L 147.571867 76.198006 
L 137.19499 60.808896 
L 143.416515 47.600163 
L 152.757273 36.380776 
L 157.183284 26.88 
z
M 237.778098 47.600163 
L 253.746667 52.088997 
L 257.621708 47.600163 
L 253.746667 45.404744 
z
M 301.473333 91.924963 
L 301.715902 93.757994 
L 301.473333 94.34377 
L 297.543718 93.757994 
z
" clip-path="url(#p44ea8072d0)" style="fill: #50c46a"/>
    <path d="M 182.156667 26.88 
L 192.676404 26.88 
L 190.496497 36.380776 
L 206.02 41.424848 
L 226.307256 47.600163 
L 224.491912 60.808896 
L 229.883333 68.80569 
L 237.35394 76.198006 
L 249.418745 93.757994 
L 238.359063 113.137869 
L 237.573815 133.590571 
L 235.459419 154.013971 
L 240.398182 173.39493 
L 247.321851 190.956403 
L 229.883333 204.725588 
L 206.02 198.948009 
L 185.635075 190.956403 
L 182.156667 188.312873 
L 158.293333 179.471111 
L 152.580532 173.39493 
L 152.424869 154.013971 
L 158.197409 133.590571 
L 146.543672 113.137869 
L 134.43 94.070983 
L 110.566667 94.897759 
L 110.1477 93.757994 
L 110.566667 92.420049 
L 134.43 93.582196 
L 151.764761 76.198006 
L 142.810473 60.808896 
L 148.904703 47.600163 
L 158.293333 36.434679 
L 158.651507 36.380776 
L 172.807656 26.88 
z
M 154.39289 47.600163 
L 148.425956 60.808896 
L 155.957655 76.198006 
L 142.07924 93.757994 
L 151.299888 113.137869 
L 158.293333 125.377025 
L 182.156667 122.831287 
L 190.010421 133.590571 
L 187.493528 154.013971 
L 182.156667 164.273848 
L 172.479485 173.39493 
L 182.156667 177.136029 
L 200.341785 190.956403 
L 206.02 193.182463 
L 229.883333 198.436857 
L 239.357243 190.956403 
L 233.426784 173.39493 
L 229.883333 159.998145 
L 226.351522 154.013971 
L 229.883333 137.419462 
L 230.266156 133.590571 
L 231.362464 113.137869 
L 237.632882 93.757994 
L 229.883333 85.217097 
L 224.104027 76.198006 
L 208.186413 60.808896 
L 209.881291 47.600163 
L 206.02 46.424809 
L 182.156667 40.594434 
L 158.293333 42.961538 
z
M 253.746667 45.404744 
L 257.621708 47.600163 
L 253.746667 52.088997 
L 237.778098 47.600163 
z
" clip-path="url(#p44ea8072d0)" style="fill: #6ccd5a"/>
    <path d="M 158.293333 42.961538 
L 182.156667 40.594434 
L 206.02 46.424809 
L 209.881291 47.600163 
L 208.186413 60.808896 
L 224.104027 76.198006 
L 229.883333 85.217097 
L 237.632882 93.757994 
L 231.362464 113.137869 
L 230.266156 133.590571 
L 229.883333 137.419462 
L 226.351522 154.013971 
L 229.883333 159.998145 
L 233.426784 173.39493 
L 239.357243 190.956403 
L 229.883333 198.436857 
L 206.02 193.182463 
L 200.341785 190.956403 
L 182.156667 177.136029 
L 172.479485 173.39493 
L 182.156667 164.273848 
L 187.493528 154.013971 
L 190.010421 133.590571 
L 182.156667 122.831287 
L 158.293333 125.377025 
L 151.299888 113.137869 
L 142.07924 93.757994 
L 155.957655 76.198006 
L 148.425956 60.808896 
L 154.39289 47.600163 
z
M 154.04144 60.808896 
L 158.293333 70.518136 
L 172.216234 76.198006 
L 158.293333 81.474781 
L 150.062237 93.757994 
L 156.056103 113.137869 
L 158.293333 117.053222 
L 176.452323 113.137869 
L 182.156667 107.990836 
L 183.665931 113.137869 
L 198.312942 133.590571 
L 201.668107 154.013971 
L 191.799185 173.39493 
L 206.02 184.197391 
L 224.254624 190.956403 
L 229.883333 192.148125 
L 231.392636 190.956403 
L 229.883333 186.071147 
L 221.916614 173.39493 
L 210.795901 154.013971 
L 217.82869 133.590571 
L 223.562333 113.137869 
L 227.284765 93.757994 
L 215.780614 76.198006 
L 206.02 67.350917 
L 182.156667 69.278969 
L 174.083341 60.808896 
L 158.293333 51.251767 
z
" clip-path="url(#p44ea8072d0)" style="fill: #8bd646"/>
    <path d="M 158.293333 51.251767 
L 174.083341 60.808896 
L 182.156667 69.278969 
L 206.02 67.350917 
L 215.780614 76.198006 
L 227.284765 93.757994 
L 223.562333 113.137869 
L 217.82869 133.590571 
L 210.795901 154.013971 
L 221.916614 173.39493 
L 229.883333 186.071147 
L 231.392636 190.956403 
L 229.883333 192.148125 
L 224.254624 190.956403 
L 206.02 184.197391 
L 191.799185 173.39493 
L 201.668107 154.013971 
L 198.312942 133.590571 
L 183.665931 113.137869 
L 182.156667 107.990836 
L 176.452323 113.137869 
L 158.293333 117.053222 
L 156.056103 113.137869 
L 150.062237 93.757994 
L 158.293333 81.474781 
L 172.216234 76.198006 
L 158.293333 70.518136 
L 154.04144 60.808896 
z
M 201.208748 76.198006 
L 188.051907 93.757994 
L 193.880082 113.137869 
L 206.02 132.426617 
L 215.546788 113.137869 
L 219.697059 93.757994 
L 207.457201 76.198006 
L 206.02 74.895317 
z
M 158.045233 93.757994 
L 158.293333 94.832188 
L 159.48476 93.757994 
L 158.293333 93.387756 
z
" clip-path="url(#p44ea8072d0)" style="fill: #addc30"/>
    <path d="M 206.02 74.895317 
L 207.457201 76.198006 
L 219.697059 93.757994 
L 215.546788 113.137869 
L 206.02 132.426617 
L 193.880082 113.137869 
L 188.051907 93.757994 
L 201.208748 76.198006 
z
M 198.020176 93.757994 
L 204.094232 113.137869 
L 206.02 116.197663 
L 207.531244 113.137869 
L 212.109353 93.757994 
L 206.02 85.111605 
z
M 158.293333 93.387756 
L 159.48476 93.757994 
L 158.293333 94.832188 
L 158.045233 93.757994 
z
" clip-path="url(#p44ea8072d0)" style="fill: #cde11d"/>
    <path d="M 206.02 85.111605 
L 212.109353 93.757994 
L 207.531244 113.137869 
L 206.02 116.197663 
L 204.094232 113.137869 
L 198.020176 93.757994 
z
" clip-path="url(#p44ea8072d0)" style="fill: #efe51c"/>
   </g>
   <g id="matplotlib.axis_1">
    <g id="xtick_1">
     <g id="line2d_1">
      <defs>
       <path id="m5e854249c3" d="M 0 0 
L 0 3.5 
" style="stroke: #000000; stroke-width: 0.8"/>
      </defs>
      <g>
       <use xlink:href="#m5e854249c3" x="126.475556" y="240.28" style="stroke: #000000; stroke-width: 0.8"/>
      </g>
     </g>
     <g id="text_1">
      <!-- −50 -->
      <g transform="translate(113.812743 256.398125) scale(0.12 -0.12)">
       <defs>
        <path id="DejaVuSans-2212" d="M 678 2272 
L 4684 2272 
L 4684 1741 
L 678 1741 
L 678 2272 
z
" transform="scale(0.015625)"/>
        <path id="DejaVuSans-35" d="M 691 4666 
L 3169 4666 
L 3169 4134 
L 1269 4134 
L 1269 2991 
Q 1406 3038 1543 3061 
Q 1681 3084 1819 3084 
Q 2600 3084 3056 2656 
Q 3513 2228 3513 1497 
Q 3513 744 3044 326 
Q 2575 -91 1722 -91 
Q 1428 -91 1123 -41 
Q 819 9 494 109 
L 494 744 
Q 775 591 1075 516 
Q 1375 441 1709 441 
Q 2250 441 2565 725 
Q 2881 1009 2881 1497 
Q 2881 1984 2565 2268 
Q 2250 2553 1709 2553 
Q 1456 2553 1204 2497 
Q 953 2441 691 2322 
L 691 4666 
z
" transform="scale(0.015625)"/>
        <path id="DejaVuSans-30" d="M 2034 4250 
Q 1547 4250 1301 3770 
Q 1056 3291 1056 2328 
Q 1056 1369 1301 889 
Q 1547 409 2034 409 
Q 2525 409 2770 889 
Q 3016 1369 3016 2328 
Q 3016 3291 2770 3770 
Q 2525 4250 2034 4250 
z
M 2034 4750 
Q 2819 4750 3233 4129 
Q 3647 3509 3647 2328 
Q 3647 1150 3233 529 
Q 2819 -91 2034 -91 
Q 1250 -91 836 529 
Q 422 1150 422 2328 
Q 422 3509 836 4129 
Q 1250 4750 2034 4750 
z
" transform="scale(0.015625)"/>
       </defs>
       <use xlink:href="#DejaVuSans-2212"/>
       <use xlink:href="#DejaVuSans-35" transform="translate(83.789062 0)"/>
       <use xlink:href="#DejaVuSans-30" transform="translate(147.412109 0)"/>
      </g>
     </g>
    </g>
    <g id="xtick_2">
     <g id="line2d_2">
      <g>
       <use xlink:href="#m5e854249c3" x="206.02" y="240.28" style="stroke: #000000; stroke-width: 0.8"/>
      </g>
     </g>
     <g id="text_2">
      <!-- 0 -->
      <g transform="translate(202.2025 256.398125) scale(0.12 -0.12)">
       <use xlink:href="#DejaVuSans-30"/>
      </g>
     </g>
    </g>
    <g id="xtick_3">
     <g id="line2d_3">
      <g>
       <use xlink:href="#m5e854249c3" x="285.564444" y="240.28" style="stroke: #000000; stroke-width: 0.8"/>
      </g>
     </g>
     <g id="text_3">
      <!-- 50 -->
      <g transform="translate(277.929444 256.398125) scale(0.12 -0.12)">
       <use xlink:href="#DejaVuSans-35"/>
       <use xlink:href="#DejaVuSans-30" transform="translate(63.623047 0)"/>
      </g>
     </g>
    </g>
    <g id="text_4">
     <!-- $\Theta^{\circ}$ -->
     <g transform="translate(198.4 272.011875) scale(0.12 -0.12)">
      <defs>
       <path id="DejaVuSans-398" d="M 1416 2750 
L 3622 2750 
L 3622 2219 
L 1416 2219 
L 1416 2750 
z
M 2522 4238 
Q 1834 4238 1431 3725 
Q 1025 3213 1025 2328 
Q 1025 1447 1429 934 
Q 1834 422 2522 422 
Q 3209 422 3613 934 
Q 4013 1447 4013 2328 
Q 4013 3213 3613 3725 
Q 3209 4238 2522 4238 
z
M 2522 4750 
Q 3503 4750 4090 4092 
Q 4678 3434 4678 2328 
Q 4678 1225 4091 569 
Q 3503 -91 2522 -91 
Q 1538 -91 950 566 
Q 359 1222 359 2328 
Q 359 3434 950 4094 
Q 1538 4750 2522 4750 
z
" transform="scale(0.015625)"/>
       <path id="DejaVuSans-2218" d="M 2000 2619 
Q 1750 2619 1578 2445 
Q 1406 2272 1406 2022 
Q 1406 1775 1578 1605 
Q 1750 1435 2000 1435 
Q 2250 1435 2422 1605 
Q 2594 1775 2594 2022 
Q 2594 2269 2420 2444 
Q 2247 2619 2000 2619 
z
M 2000 3022 
Q 2200 3022 2384 2945 
Q 2569 2869 2703 2725 
Q 2847 2585 2919 2406 
Q 2991 2228 2991 2022 
Q 2991 1610 2702 1324 
Q 2413 1038 1994 1038 
Q 1572 1038 1290 1319 
Q 1009 1600 1009 2022 
Q 1009 2441 1296 2731 
Q 1584 3022 2000 3022 
z
" transform="scale(0.015625)"/>
      </defs>
      <use xlink:href="#DejaVuSans-398" transform="translate(0 0.78125)"/>
      <use xlink:href="#DejaVuSans-2218" transform="translate(79.667969 39.0625) scale(0.7)"/>
     </g>
    </g>
   </g>
   <g id="matplotlib.axis_2">
    <g id="ytick_1">
     <g id="line2d_4">
      <defs>
       <path id="mba1479ff6d" d="M 0 0 
L -3.5 0 
" style="stroke: #000000; stroke-width: 0.8"/>
      </defs>
      <g>
       <use xlink:href="#mba1479ff6d" x="62.84" y="219.984151" style="stroke: #000000; stroke-width: 0.8"/>
      </g>
     </g>
     <g id="text_5">
      <!-- −40 -->
      <g transform="translate(30.514375 224.543214) scale(0.12 -0.12)">
       <defs>
        <path id="DejaVuSans-34" d="M 2419 4116 
L 825 1625 
L 2419 1625 
L 2419 4116 
z
M 2253 4666 
L 3047 4666 
L 3047 1625 
L 3713 1625 
L 3713 1100 
L 3047 1100 
L 3047 0 
L 2419 0 
L 2419 1100 
L 313 1100 
L 313 1709 
L 2253 4666 
z
" transform="scale(0.015625)"/>
       </defs>
       <use xlink:href="#DejaVuSans-2212"/>
       <use xlink:href="#DejaVuSans-34" transform="translate(83.789062 0)"/>
       <use xlink:href="#DejaVuSans-30" transform="translate(147.412109 0)"/>
      </g>
     </g>
    </g>
    <g id="ytick_2">
     <g id="line2d_5">
      <g>
       <use xlink:href="#mba1479ff6d" x="62.84" y="176.783648" style="stroke: #000000; stroke-width: 0.8"/>
      </g>
     </g>
     <g id="text_6">
      <!-- −20 -->
      <g transform="translate(30.514375 181.342711) scale(0.12 -0.12)">
       <defs>
        <path id="DejaVuSans-32" d="M 1228 531 
L 3431 531 
L 3431 0 
L 469 0 
L 469 531 
Q 828 903 1448 1529 
Q 2069 2156 2228 2338 
Q 2531 2678 2651 2914 
Q 2772 3150 2772 3378 
Q 2772 3750 2511 3984 
Q 2250 4219 1831 4219 
Q 1534 4219 1204 4116 
Q 875 4013 500 3803 
L 500 4441 
Q 881 4594 1212 4672 
Q 1544 4750 1819 4750 
Q 2544 4750 2975 4387 
Q 3406 4025 3406 3419 
Q 3406 3131 3298 2873 
Q 3191 2616 2906 2266 
Q 2828 2175 2409 1742 
Q 1991 1309 1228 531 
z
" transform="scale(0.015625)"/>
       </defs>
       <use xlink:href="#DejaVuSans-2212"/>
       <use xlink:href="#DejaVuSans-32" transform="translate(83.789062 0)"/>
       <use xlink:href="#DejaVuSans-30" transform="translate(147.412109 0)"/>
      </g>
     </g>
    </g>
    <g id="ytick_3">
     <g id="line2d_6">
      <g>
       <use xlink:href="#mba1479ff6d" x="62.84" y="133.583145" style="stroke: #000000; stroke-width: 0.8"/>
      </g>
     </g>
     <g id="text_7">
      <!-- 0 -->
      <g transform="translate(48.205 138.142208) scale(0.12 -0.12)">
       <use xlink:href="#DejaVuSans-30"/>
      </g>
     </g>
    </g>
    <g id="ytick_4">
     <g id="line2d_7">
      <g>
       <use xlink:href="#mba1479ff6d" x="62.84" y="90.382642" style="stroke: #000000; stroke-width: 0.8"/>
      </g>
     </g>
     <g id="text_8">
      <!-- 20 -->
      <g transform="translate(40.57 94.941704) scale(0.12 -0.12)">
       <use xlink:href="#DejaVuSans-32"/>
       <use xlink:href="#DejaVuSans-30" transform="translate(63.623047 0)"/>
      </g>
     </g>
    </g>
    <g id="ytick_5">
     <g id="line2d_8">
      <g>
       <use xlink:href="#mba1479ff6d" x="62.84" y="47.182139" style="stroke: #000000; stroke-width: 0.8"/>
      </g>
     </g>
     <g id="text_9">
      <!-- 40 -->
      <g transform="translate(40.57 51.741201) scale(0.12 -0.12)">
       <use xlink:href="#DejaVuSans-34"/>
       <use xlink:href="#DejaVuSans-30" transform="translate(63.623047 0)"/>
      </g>
     </g>
    </g>
    <g id="text_10">
     <!-- $\phi^{\circ}$ -->
     <g transform="translate(23.784375 141.38) rotate(-90) scale(0.13 -0.13)">
      <defs>
       <path id="DejaVuSans-Oblique-3d5" d="M 2991 4863 
L 2738 3572 
Q 3363 3572 3684 3094 
Q 4016 2606 3850 1747 
Q 3681 888 3159 400 
Q 2653 -78 2028 -78 
L 1784 -1331 
L 1213 -1331 
L 1456 -78 
Q 834 -78 509 400 
Q 178 888 347 1747 
Q 513 2606 1034 3094 
Q 1544 3572 2166 3572 
L 2419 4863 
L 2991 4863 
z
M 2128 434 
Q 2481 434 2784 756 
Q 3116 1116 3244 1747 
Q 3369 2372 3169 2738 
Q 2991 3059 2638 3059 
L 2128 434 
z
M 1556 434 
L 2066 3059 
Q 1716 3059 1413 2738 
Q 1072 2372 953 1747 
Q 834 1116 1028 756 
Q 1203 434 1556 434 
z
" transform="scale(0.015625)"/>
      </defs>
      <use xlink:href="#DejaVuSans-Oblique-3d5" transform="translate(0 0.015625)"/>
      <use xlink:href="#DejaVuSans-2218" transform="translate(73.414505 38.296875) scale(0.7)"/>
     </g>
    </g>
   </g>
   <g id="QuadContourSet_2">
    <path clip-path="url(#p44ea8072d0)" style="fill: none; stroke-dasharray: 1.85,0.8; stroke-dashoffset: 0; stroke: #000000; stroke-width: 0.5"/>
    <path d="M 325.179795 26.88 
L 325.194348 36.380776 
L 325.1776 47.600163 
L 325.19515 60.808896 
L 325.20603 76.198006 
L 325.218751 93.757994 
L 325.159004 113.137869 
L 325.162262 120.46959 
M 325.165886 146.711553 
L 325.164659 154.013971 
L 325.161302 173.39493 
L 325.190802 190.956403 
L 325.176901 206.347113 
L 325.155139 219.557363 
L 325.129145 230.778089 
L 325.159889 240.28 
M 86.867555 240.28 
L 86.875906 230.778089 
L 86.873762 219.557363 
L 86.852582 206.347113 
L 86.868185 190.956403 
L 86.855864 173.39493 
L 86.836352 154.013971 
L 86.843973 146.711547 
M 86.858081 120.469589 
L 86.858313 113.137869 
L 86.812047 93.757994 
L 86.844599 76.198006 
L 86.825561 60.808896 
L 86.824554 47.600163 
L 86.854424 36.380776 
L 86.868845 26.88 
" clip-path="url(#p44ea8072d0)" style="fill: none; stroke-dasharray: 1.85,0.8; stroke-dashoffset: 0; stroke: #000000; stroke-width: 0.5"/>
    <path d="M 322.774596 26.88 
L 323.012283 36.380776 
L 322.738745 47.600163 
L 323.025377 60.808896 
L 323.203076 76.198006 
L 323.41084 93.757994 
L 322.435027 113.137869 
L 322.488235 120.469892 
M 322.547433 146.711509 
L 322.527387 154.013971 
L 322.472556 173.39493 
L 322.954368 190.956403 
L 322.727327 206.347113 
L 322.371902 219.557363 
L 321.947367 230.778089 
L 322.449482 240.28 
M 89.385445 240.28 
L 89.521844 230.778089 
L 89.486831 219.557363 
L 89.140904 206.347113 
L 89.395735 190.956403 
L 89.194506 173.39493 
L 88.87584 154.013971 
L 89.000326 146.709878 
M 89.23071 120.46959 
L 89.234501 113.137869 
L 88.47888 93.757994 
L 89.010518 76.198006 
L 88.699586 60.808896 
L 88.683152 47.600163 
L 89.170985 36.380776 
L 89.40651 26.88 
" clip-path="url(#p44ea8072d0)" style="fill: none; stroke-dasharray: 1.85,0.8; stroke-dashoffset: 0; stroke: #000000; stroke-width: 0.5"/>
    <path d="M 320.369398 26.88 
L 320.830217 36.380776 
L 320.299889 47.600163 
L 320.855605 60.808896 
L 321.200123 76.198006 
L 321.602928 93.757994 
L 319.71105 113.137869 
L 319.815438 120.55733 
M 319.929441 146.624783 
L 319.890115 154.013971 
L 319.783811 173.39493 
L 320.717933 190.956403 
L 320.277752 206.347113 
L 319.588664 219.557363 
L 318.76559 230.778089 
L 319.739074 240.28 
M 91.903336 240.28 
L 92.167781 230.778089 
L 92.0999 219.557363 
L 91.429227 206.347113 
L 91.923284 190.956403 
L 91.533149 173.39493 
L 90.915327 154.013971 
L 91.159691 146.618695 
M 91.603252 120.556201 
L 91.61069 113.137869 
L 90.145712 93.757994 
L 91.176437 76.198006 
L 90.573611 60.808896 
L 90.541749 47.600163 
L 91.487547 36.380776 
L 91.944175 26.88 
" clip-path="url(#p44ea8072d0)" style="fill: none; stroke-dasharray: 1.85,0.8; stroke-dashoffset: 0; stroke: #000000; stroke-width: 0.5"/>
    <path d="M 317.964199 26.88 
L 318.648152 36.380776 
L 317.861033 47.600163 
L 318.685832 60.808896 
L 319.197169 76.198006 
L 319.795017 93.757994 
L 316.987073 113.137869 
L 317.142035 120.558693 
M 317.311212 146.624588 
L 317.252844 154.013971 
L 317.095066 173.39493 
L 318.481498 190.956403 
L 317.828178 206.347113 
L 316.805427 219.557363 
L 315.583812 230.778089 
L 317.028667 240.28 
M 94.421227 240.28 
L 94.813718 230.778089 
L 94.712969 219.557363 
L 93.71755 206.347113 
L 94.450834 190.956403 
L 93.871791 173.39493 
L 92.954814 154.013971 
L 93.31787 146.611188 
M 93.975839 120.556208 
L 93.986878 113.137869 
L 91.812544 93.757994 
L 93.342356 76.198006 
L 92.447636 60.808896 
L 92.400346 47.600163 
L 93.804108 36.380776 
L 94.48184 26.88 
" clip-path="url(#p44ea8072d0)" style="fill: none; stroke-dasharray: 1.85,0.8; stroke-dashoffset: 0; stroke: #000000; stroke-width: 0.5"/>
    <path d="M 315.559 26.88 
L 316.466086 36.380776 
L 315.422178 47.600163 
L 316.516059 60.808896 
L 317.194215 76.198006 
L 317.987105 93.757994 
L 314.263096 113.137869 
L 314.468666 120.560587 
M 314.692985 146.624317 
L 314.615572 154.013971 
L 314.406321 173.39493 
L 316.245063 190.956403 
L 315.378604 206.347113 
L 314.02219 219.557363 
L 312.402034 230.778089 
L 314.31826 240.28 
M 96.939118 240.28 
L 97.459656 230.778089 
L 97.326038 219.557363 
L 96.005872 206.347113 
L 96.978384 190.956403 
L 96.210434 173.39493 
L 94.994301 154.013971 
L 95.476478 146.600777 
M 96.348426 120.556218 
L 96.363067 113.137869 
L 93.479377 93.757994 
L 95.508275 76.198006 
L 94.321661 60.808896 
L 94.258943 47.600163 
L 96.120669 36.380776 
L 97.019505 26.88 
" clip-path="url(#p44ea8072d0)" style="fill: none; stroke-dasharray: 1.85,0.8; stroke-dashoffset: 0; stroke: #000000; stroke-width: 0.5"/>
    <path d="M 313.153801 26.88 
L 314.28402 36.380776 
L 312.983322 47.600163 
L 314.346287 60.808896 
L 315.191261 76.198006 
L 316.179194 93.757994 
L 311.539119 113.137869 
L 311.793847 120.519731 
M 312.074196 146.66727 
L 311.9783 154.013971 
L 311.717575 173.39493 
L 314.008629 190.956403 
L 312.929029 206.347113 
L 311.238953 219.557363 
L 309.220256 230.778089 
L 311.607853 240.28 
M 99.457008 240.28 
L 100.105593 230.778089 
L 99.939107 219.557363 
L 98.294195 206.347113 
L 99.505934 190.956403 
L 98.549076 173.39493 
L 97.033788 154.013971 
L 97.632154 146.63066 
M 98.72112 120.512927 
L 98.739255 113.137869 
L 95.146209 93.757994 
L 97.674194 76.198006 
L 96.195686 60.808896 
L 96.11754 47.600163 
L 98.437231 36.380776 
L 99.55717 26.88 
" clip-path="url(#p44ea8072d0)" style="fill: none; stroke-dasharray: 1.85,0.8; stroke-dashoffset: 0; stroke: #000000; stroke-width: 0.5"/>
    <path d="M 310.748603 26.88 
L 312.101955 36.380776 
L 310.544467 47.600163 
L 312.176514 60.808896 
L 313.188307 76.198006 
L 314.371282 93.757994 
L 308.815142 113.137869 
L 309.120282 120.522695 
M 309.455863 146.666845 
L 309.341028 154.013971 
L 309.02883 173.39493 
L 311.772194 190.956403 
L 310.479455 206.347113 
L 308.455716 219.557363 
L 306.038479 230.778089 
L 308.897446 240.28 
M 101.974899 240.28 
L 102.751531 230.778089 
L 102.552176 219.557363 
L 100.582517 206.347113 
L 102.033484 190.956403 
L 100.887718 173.39493 
L 99.073275 154.013971 
L 99.791346 146.614454 
M 101.093728 120.512942 
L 101.115444 113.137869 
L 96.813041 93.757994 
L 99.840113 76.198006 
L 98.069711 60.808896 
L 97.976137 47.600163 
L 100.753792 36.380776 
L 102.094835 26.88 
" clip-path="url(#p44ea8072d0)" style="fill: none; stroke-dasharray: 1.85,0.8; stroke-dashoffset: 0; stroke: #000000; stroke-width: 0.5"/>
    <path d="M 308.343404 26.88 
L 309.919889 36.380776 
L 308.105611 47.600163 
L 310.006741 60.808896 
L 311.185353 76.198006 
L 312.563371 93.757994 
L 306.091165 113.137869 
L 306.446783 120.526188 
M 306.837533 146.666344 
L 306.703756 154.013971 
L 306.340085 173.39493 
L 309.535759 190.956403 
L 308.029881 206.347113 
L 305.672479 219.557363 
L 302.856701 230.778089 
L 306.187038 240.28 
M 104.49279 240.28 
L 105.397468 230.778089 
L 105.165245 219.557363 
L 102.87084 206.347113 
L 104.561034 190.956403 
L 103.226361 173.39493 
L 101.112763 154.013971 
L 101.951377 146.595412 
M 103.466336 120.51296 
L 103.491632 113.137869 
L 98.479874 93.757994 
L 102.006032 76.198006 
L 99.943737 60.808896 
L 99.834734 47.600163 
L 103.070354 36.380776 
L 104.6325 26.88 
" clip-path="url(#p44ea8072d0)" style="fill: none; stroke-dasharray: 1.85,0.8; stroke-dashoffset: 0; stroke: #000000; stroke-width: 0.5"/>
    <path d="M 305.938205 26.88 
L 307.737824 36.380776 
L 305.666756 47.600163 
L 307.836969 60.808896 
L 309.182399 76.198006 
L 310.755459 93.757994 
L 303.367188 113.137869 
L 304.490961 133.590571 
L 304.337337 140.98207 
M 303.787341 167.045719 
L 303.65134 173.39493 
L 307.299324 190.956403 
L 305.580306 206.347113 
L 302.889241 219.557363 
L 301.473333 224.872594 
L 287.978555 230.778089 
L 301.473333 234.895656 
L 303.476631 240.28 
M 107.01068 240.28 
L 108.043405 230.778089 
L 107.778313 219.557363 
L 105.159162 206.347113 
L 107.088583 190.956403 
L 105.565003 173.39493 
L 103.15225 154.013971 
L 104.117926 146.530584 
M 105.838775 120.556284 
L 105.867821 113.137869 
L 100.146706 93.757994 
L 104.171951 76.198006 
L 101.817762 60.808896 
L 101.693331 47.600163 
L 105.386915 36.380776 
L 107.170165 26.88 
" clip-path="url(#p44ea8072d0)" style="fill: none; stroke-dasharray: 1.85,0.8; stroke-dashoffset: 0; stroke: #000000; stroke-width: 0.5"/>
    <path d="M 303.533006 26.88 
L 305.555758 36.380776 
L 303.2279 47.600163 
L 305.667196 60.808896 
L 307.179445 76.198006 
L 308.947548 93.757994 
L 301.473333 111.807377 
L 293.596492 113.137869 
L 301.473333 126.335611 
L 301.90632 133.590571 
L 301.778202 139.085021 
M 299.685732 165.12939 
L 298.553455 173.39493 
L 301.473333 175.25337 
L 305.06289 190.956403 
L 303.130732 206.347113 
L 301.473333 214.000422 
L 284.581015 219.557363 
L 277.61 222.517643 
L 274.202675 230.778089 
L 273.821858 240.28 
M 109.528571 240.28 
L 110.566667 231.738613 
L 111.301797 230.778089 
L 110.566667 226.19223 
L 110.391382 219.557363 
L 107.447485 206.347113 
L 109.616133 190.956403 
L 107.903646 173.39493 
L 107.006103 166.980542 
M 107.071258 141.055561 
L 108.154 133.590571 
L 108.244009 113.137869 
L 101.813539 93.757994 
L 106.337871 76.198006 
L 103.691787 60.808896 
L 103.551928 47.600163 
L 107.703476 36.380776 
L 109.70783 26.88 
" clip-path="url(#p44ea8072d0)" style="fill: none; stroke-dasharray: 1.85,0.8; stroke-dashoffset: 0; stroke: #000000; stroke-width: 0.5"/>
    <path d="M 299.156311 26.88 
L 301.473333 28.225278 
L 303.373693 36.380776 
L 301.473333 44.866361 
L 298.140792 47.600163 
L 301.473333 50.654363 
L 303.497423 60.808896 
L 305.176491 76.198006 
L 307.139637 93.757994 
L 301.473333 107.441475 
L 277.61 110.400469 
L 276.675574 111.013599 
M 285.873869 132.29232 
L 286.887038 133.590571 
L 285.372677 154.013971 
L 283.181986 173.39493 
L 301.473333 185.036977 
L 302.826455 190.956403 
L 301.473333 200.986171 
L 277.61 203.00019 
L 272.522737 206.347113 
L 269.824219 219.557363 
L 268.179669 230.778089 
L 267.085193 240.28 
M 117.117547 240.28 
L 127.157438 230.778089 
L 134.43 221.036467 
L 135.327318 219.557363 
L 134.43 218.520636 
L 110.566667 210.048069 
L 109.735807 206.347113 
L 110.566667 200.685449 
L 119.458182 190.956403 
L 110.566667 176.588913 
L 110.242288 173.39493 
L 107.231224 154.013971 
L 109.946655 137.152389 
M 109.932385 111.310201 
L 103.480371 93.757994 
L 108.50379 76.198006 
L 105.565812 60.808896 
L 105.410525 47.600163 
L 110.020038 36.380776 
L 110.566667 33.882968 
L 121.413085 36.380776 
L 134.43 38.311295 
L 136.010786 36.380776 
L 136.296487 26.88 
M 207.698284 240.28 
L 206.02 239.112536 
L 204.135578 240.28 
M 134.43 75.415606 
L 131.480553 76.198006 
L 134.43 76.762797 
L 134.993185 76.198006 
L 134.43 75.415606 
z
" clip-path="url(#p44ea8072d0)" style="fill: none; stroke-dasharray: 1.85,0.8; stroke-dashoffset: 0; stroke: #000000; stroke-width: 0.5"/>
    <path d="M 283.027553 26.88 
L 293.223389 36.380776 
L 286.263364 47.600163 
L 277.61 55.689622 
L 273.387501 60.808896 
L 275.517002 76.198006 
L 277.61 78.745973 
L 282.591345 76.198006 
L 301.473333 61.936916 
L 303.173537 76.198006 
L 305.331725 93.757994 
L 301.473333 103.075573 
L 291.604378 103.137417 
M 266.144289 110.748413 
L 262.502693 113.137869 
L 268.680017 133.590571 
L 265.130303 154.013971 
L 268.779327 173.39493 
L 277.61 183.887214 
L 290.041791 190.956403 
L 277.61 194.575156 
L 259.716836 206.347113 
L 260.058601 219.557363 
L 262.156663 230.778089 
L 260.348528 240.28 
M 128.263956 240.28 
L 134.43 235.477564 
L 142.556578 230.778089 
L 148.212041 219.557363 
L 136.421882 206.347113 
L 134.43 194.300708 
L 133.708985 190.956403 
L 119.729646 173.39493 
L 110.566667 162.242106 
L 109.270711 154.013971 
L 110.566667 145.982332 
L 124.851536 140.202543 
M 131.855782 121.314832 
L 127.102783 113.137869 
L 110.566667 108.501226 
L 105.147203 93.757994 
L 110.566667 76.451241 
L 134.43 80.967646 
L 139.186079 76.198006 
L 134.43 69.590661 
L 110.566667 75.77138 
L 107.439837 60.808896 
L 107.269122 47.600163 
L 110.566667 39.75791 
L 134.43 45.128455 
L 141.592948 36.380776 
L 143.258753 26.88 
M 217.289039 240.28 
L 206.02 232.440924 
L 193.366818 240.28 
M 229.883333 35.772127 
L 229.079308 36.380776 
L 229.883333 36.653922 
L 231.198854 36.380776 
L 229.883333 35.772127 
z
" clip-path="url(#p44ea8072d0)" style="fill: none; stroke-dasharray: 1.85,0.8; stroke-dashoffset: 0; stroke: #000000; stroke-width: 0.5"/>
    <path d="M 267.669082 26.88 
L 258.540802 36.380776 
L 275.221338 47.600163 
L 264.229132 60.808896 
L 266.170697 76.198006 
L 277.61 90.123942 
L 301.473333 78.263031 
L 303.523814 93.757994 
L 301.473333 98.709672 
L 277.61 96.049757 
L 253.746667 111.029687 
L 252.35226 113.137869 
L 252.29309 120.55656 
M 250.728264 146.552783 
L 249.887372 154.013971 
L 253.746667 170.731013 
L 254.927532 173.39493 
L 269.891767 190.956403 
L 253.746667 201.590368 
L 248.149821 206.347113 
L 248.886499 219.557363 
L 253.746667 224.848635 
L 256.133657 230.778089 
L 253.746667 239.823295 
L 252.313469 240.28 
M 142.112337 240.28 
L 157.568919 230.778089 
L 158.293333 228.741275 
L 179.427174 219.557363 
L 158.293333 217.198872 
L 147.351555 206.347113 
L 145.833966 190.956403 
L 134.43 178.431649 
L 130.368239 173.39493 
L 117.892194 154.013971 
L 134.43 146.028949 
L 143.714141 133.590571 
L 139.614529 121.043902 
M 120.872335 106.159209 
L 110.566667 103.966737 
L 106.814036 93.757994 
L 110.566667 81.774177 
L 134.43 85.172496 
L 143.378973 76.198006 
L 134.43 63.765715 
L 110.566667 66.803807 
L 109.313862 60.808896 
L 109.127719 47.600163 
L 110.566667 44.178044 
L 123.65447 47.600163 
L 134.43 54.953278 
L 137.928328 47.600163 
L 147.17511 36.380776 
L 150.221018 26.88 
M 226.879795 240.28 
L 215.614369 230.778089 
L 214.774098 229.806159 
M 194.462985 226.925202 
L 188.316793 230.778089 
L 182.598058 240.28 
M 243.456782 37.769869 
L 250.146895 36.380776 
L 229.883333 27.005492 
L 218.066231 35.951056 
" clip-path="url(#p44ea8072d0)" style="fill: none; stroke-dasharray: 1.85,0.8; stroke-dashoffset: 0; stroke: #000000; stroke-width: 0.5"/>
    <path d="M 211.774683 26.88 
L 206.02 36.120523 
L 205.884247 36.380776 
L 206.02 36.424886 
L 229.883333 44.52243 
L 253.746667 40.419178 
L 266.421523 47.600163 
L 255.070763 60.808896 
L 256.824393 76.198006 
L 265.243914 93.757994 
L 253.746667 100.451643 
L 245.355661 113.137869 
L 244.881475 133.590571 
L 242.673396 154.013971 
L 247.36958 173.39493 
L 253.746667 187.89241 
L 256.362307 190.956403 
L 253.746667 192.679194 
L 237.664819 206.347113 
L 235.143913 219.557363 
L 233.744847 230.778089 
L 229.883333 232.156543 
L 228.393917 230.778089 
L 223.237323 219.557363 
L 212.613191 206.347113 
L 206.02 204.713556 
L 182.156667 202.455425 
L 158.395188 206.347113 
L 158.293333 206.359119 
L 158.281228 206.347113 
L 157.845661 190.956403 
L 141.364072 173.39493 
L 137.135675 154.013971 
L 150.955775 133.590571 
L 141.787456 113.137869 
L 134.43 101.557254 
L 110.566667 99.432248 
L 108.480868 93.757994 
L 110.566667 87.097113 
L 134.43 89.377346 
L 138.014463 85.782662 
M 140.093528 65.107485 
L 137.19499 60.808896 
L 143.416515 47.600163 
L 152.757273 36.380776 
L 157.183284 26.88 
M 301.473333 91.924963 
L 301.715902 93.757994 
L 301.473333 94.34377 
L 297.543718 93.757994 
L 301.473333 91.924963 
z
" clip-path="url(#p44ea8072d0)" style="fill: none; stroke-dasharray: 1.85,0.8; stroke-dashoffset: 0; stroke: #000000; stroke-width: 0.5"/>
    <path d="M 192.676404 26.88 
L 190.496497 36.380776 
L 206.02 41.424848 
L 226.307256 47.600163 
L 224.491912 60.808896 
L 229.883333 68.80569 
L 237.35394 76.198006 
L 241.865113 82.763893 
M 242.838308 105.28889 
L 238.359063 113.137869 
L 237.573815 133.590571 
L 235.459419 154.013971 
L 240.398182 173.39493 
L 247.321851 190.956403 
L 229.883333 204.725588 
L 206.02 198.948009 
L 185.635075 190.956403 
L 182.156667 188.312873 
L 158.293333 179.471111 
L 152.580532 173.39493 
L 152.424869 154.013971 
L 158.197409 133.590571 
L 146.543672 113.137869 
L 134.43 94.070983 
L 110.566667 94.897759 
L 110.1477 93.757994 
L 110.566667 92.420049 
L 134.43 93.582196 
L 151.764761 76.198006 
L 142.810473 60.808896 
L 148.904703 47.600163 
L 158.293333 36.434679 
L 158.651507 36.380776 
L 172.807656 26.88 
M 253.746667 45.404744 
L 257.621708 47.600163 
L 253.746667 52.088997 
L 237.778098 47.600163 
L 253.746667 45.404744 
z
" clip-path="url(#p44ea8072d0)" style="fill: none; stroke-dasharray: 1.85,0.8; stroke-dashoffset: 0; stroke: #000000; stroke-width: 0.5"/>
    <path d="M 237.651029 185.903905 
L 239.357243 190.956403 
L 229.883333 198.436857 
L 206.02 193.182463 
L 200.341785 190.956403 
L 182.156667 177.136029 
L 172.479485 173.39493 
L 182.156667 164.273848 
L 187.493528 154.013971 
L 190.010421 133.590571 
L 182.156667 122.831287 
L 158.293333 125.377025 
L 151.299888 113.137869 
L 142.07924 93.757994 
L 155.957655 76.198006 
L 148.425956 60.808896 
L 154.39289 47.600163 
L 158.293333 42.961538 
L 182.156667 40.594434 
L 206.02 46.424809 
L 209.881291 47.600163 
L 208.186413 60.808896 
L 224.104027 76.198006 
L 229.883333 85.217097 
L 237.632882 93.757994 
L 231.362464 113.137869 
L 230.266156 133.590571 
L 229.883333 137.419462 
L 226.351522 154.013971 
L 229.883333 159.998145 
L 230.058314 160.659698 
" clip-path="url(#p44ea8072d0)" style="fill: none; stroke-dasharray: 1.85,0.8; stroke-dashoffset: 0; stroke: #000000; stroke-width: 0.5"/>
    <path d="M 218.441427 188.80163 
L 206.02 184.197391 
L 191.799185 173.39493 
L 201.668107 154.013971 
L 198.312942 133.590571 
L 183.665931 113.137869 
L 182.156667 107.990836 
L 176.452323 113.137869 
L 158.293333 117.053222 
L 156.056103 113.137869 
L 150.062237 93.757994 
L 158.293333 81.474781 
L 172.216234 76.198006 
L 158.293333 70.518136 
L 154.04144 60.808896 
L 158.293333 51.251767 
L 174.083341 60.808896 
L 182.156667 69.278969 
L 206.02 67.350917 
L 215.780614 76.198006 
L 227.284765 93.757994 
L 223.562333 113.137869 
L 217.82869 133.590571 
L 210.795901 154.013971 
L 221.916614 173.39493 
L 225.532686 179.14863 
" clip-path="url(#p44ea8072d0)" style="fill: none; stroke-dasharray: 1.85,0.8; stroke-dashoffset: 0; stroke: #000000; stroke-width: 0.5"/>
    <path d="M 198.931324 121.163634 
L 193.880082 113.137869 
L 188.051907 93.757994 
L 201.208748 76.198006 
L 206.02 74.895317 
L 207.457201 76.198006 
L 219.697059 93.757994 
L 215.546788 113.137869 
L 211.881198 120.559535 
M 158.293333 93.387756 
L 159.48476 93.757994 
L 158.293333 94.832188 
L 158.045233 93.757994 
L 158.293333 93.387756 
z
" clip-path="url(#p44ea8072d0)" style="fill: none; stroke-dasharray: 1.85,0.8; stroke-dashoffset: 0; stroke: #000000; stroke-width: 0.5"/>
    <path d="M 201.230035 103.999365 
L 198.020176 93.757994 
L 206.02 85.111605 
L 212.109353 93.757994 
L 209.769785 103.661762 
" clip-path="url(#p44ea8072d0)" style="fill: none; stroke-dasharray: 1.85,0.8; stroke-dashoffset: 0; stroke: #000000; stroke-width: 0.5"/>
    <path clip-path="url(#p44ea8072d0)" style="fill: none; stroke-dasharray: 1.85,0.8; stroke-dashoffset: 0; stroke: #000000; stroke-width: 0.5"/>
   </g>
   <g id="patch_3">
    <path d="M 62.84 240.28 
L 62.84 26.88 
" style="fill: none; stroke: #000000; stroke-width: 0.8; stroke-linejoin: miter; stroke-linecap: square"/>
   </g>
   <g id="patch_4">
    <path d="M 349.2 240.28 
L 349.2 26.88 
" style="fill: none; stroke: #000000; stroke-width: 0.8; stroke-linejoin: miter; stroke-linecap: square"/>
   </g>
   <g id="patch_5">
    <path d="M 62.84 240.28 
L 349.2 240.28 
" style="fill: none; stroke: #000000; stroke-width: 0.8; stroke-linejoin: miter; stroke-linecap: square"/>
   </g>
   <g id="patch_6">
    <path d="M 62.84 26.88 
L 349.2 26.88 
" style="fill: none; stroke: #000000; stroke-width: 0.8; stroke-linejoin: miter; stroke-linecap: square"/>
   </g>
   <g id="text_11">
    <!-- Band 630 -->
    <g transform="translate(177.255625 20.88) scale(0.12 -0.12)">
     <defs>
      <path id="DejaVuSans-42" d="M 1259 2228 
L 1259 519 
L 2272 519 
Q 2781 519 3026 730 
Q 3272 941 3272 1375 
Q 3272 1813 3026 2020 
Q 2781 2228 2272 2228 
L 1259 2228 
z
M 1259 4147 
L 1259 2741 
L 2194 2741 
Q 2656 2741 2882 2914 
Q 3109 3088 3109 3444 
Q 3109 3797 2882 3972 
Q 2656 4147 2194 4147 
L 1259 4147 
z
M 628 4666 
L 2241 4666 
Q 2963 4666 3353 4366 
Q 3744 4066 3744 3513 
Q 3744 3084 3544 2831 
Q 3344 2578 2956 2516 
Q 3422 2416 3680 2098 
Q 3938 1781 3938 1306 
Q 3938 681 3513 340 
Q 3088 0 2303 0 
L 628 0 
L 628 4666 
z
" transform="scale(0.015625)"/>
      <path id="DejaVuSans-61" d="M 2194 1759 
Q 1497 1759 1228 1600 
Q 959 1441 959 1056 
Q 959 750 1161 570 
Q 1363 391 1709 391 
Q 2188 391 2477 730 
Q 2766 1069 2766 1631 
L 2766 1759 
L 2194 1759 
z
M 3341 1997 
L 3341 0 
L 2766 0 
L 2766 531 
Q 2569 213 2275 61 
Q 1981 -91 1556 -91 
Q 1019 -91 701 211 
Q 384 513 384 1019 
Q 384 1609 779 1909 
Q 1175 2209 1959 2209 
L 2766 2209 
L 2766 2266 
Q 2766 2663 2505 2880 
Q 2244 3097 1772 3097 
Q 1472 3097 1187 3025 
Q 903 2953 641 2809 
L 641 3341 
Q 956 3463 1253 3523 
Q 1550 3584 1831 3584 
Q 2591 3584 2966 3190 
Q 3341 2797 3341 1997 
z
" transform="scale(0.015625)"/>
      <path id="DejaVuSans-6e" d="M 3513 2113 
L 3513 0 
L 2938 0 
L 2938 2094 
Q 2938 2591 2744 2837 
Q 2550 3084 2163 3084 
Q 1697 3084 1428 2787 
Q 1159 2491 1159 1978 
L 1159 0 
L 581 0 
L 581 3500 
L 1159 3500 
L 1159 2956 
Q 1366 3272 1645 3428 
Q 1925 3584 2291 3584 
Q 2894 3584 3203 3211 
Q 3513 2838 3513 2113 
z
" transform="scale(0.015625)"/>
      <path id="DejaVuSans-64" d="M 2906 2969 
L 2906 4863 
L 3481 4863 
L 3481 0 
L 2906 0 
L 2906 525 
Q 2725 213 2448 61 
Q 2172 -91 1784 -91 
Q 1150 -91 751 415 
Q 353 922 353 1747 
Q 353 2572 751 3078 
Q 1150 3584 1784 3584 
Q 2172 3584 2448 3432 
Q 2725 3281 2906 2969 
z
M 947 1747 
Q 947 1113 1208 752 
Q 1469 391 1925 391 
Q 2381 391 2643 752 
Q 2906 1113 2906 1747 
Q 2906 2381 2643 2742 
Q 2381 3103 1925 3103 
Q 1469 3103 1208 2742 
Q 947 2381 947 1747 
z
" transform="scale(0.015625)"/>
      <path id="DejaVuSans-20" transform="scale(0.015625)"/>
      <path id="DejaVuSans-36" d="M 2113 2584 
Q 1688 2584 1439 2293 
Q 1191 2003 1191 1497 
Q 1191 994 1439 701 
Q 1688 409 2113 409 
Q 2538 409 2786 701 
Q 3034 994 3034 1497 
Q 3034 2003 2786 2293 
Q 2538 2584 2113 2584 
z
M 3366 4563 
L 3366 3988 
Q 3128 4100 2886 4159 
Q 2644 4219 2406 4219 
Q 1781 4219 1451 3797 
Q 1122 3375 1075 2522 
Q 1259 2794 1537 2939 
Q 1816 3084 2150 3084 
Q 2853 3084 3261 2657 
Q 3669 2231 3669 1497 
Q 3669 778 3244 343 
Q 2819 -91 2113 -91 
Q 1303 -91 875 529 
Q 447 1150 447 2328 
Q 447 3434 972 4092 
Q 1497 4750 2381 4750 
Q 2619 4750 2861 4703 
Q 3103 4656 3366 4563 
z
" transform="scale(0.015625)"/>
      <path id="DejaVuSans-33" d="M 2597 2516 
Q 3050 2419 3304 2112 
Q 3559 1806 3559 1356 
Q 3559 666 3084 287 
Q 2609 -91 1734 -91 
Q 1441 -91 1130 -33 
Q 819 25 488 141 
L 488 750 
Q 750 597 1062 519 
Q 1375 441 1716 441 
Q 2309 441 2620 675 
Q 2931 909 2931 1356 
Q 2931 1769 2642 2001 
Q 2353 2234 1838 2234 
L 1294 2234 
L 1294 2753 
L 1863 2753 
Q 2328 2753 2575 2939 
Q 2822 3125 2822 3475 
Q 2822 3834 2567 4026 
Q 2313 4219 1838 4219 
Q 1578 4219 1281 4162 
Q 984 4106 628 3988 
L 628 4550 
Q 988 4650 1302 4700 
Q 1616 4750 1894 4750 
Q 2613 4750 3031 4423 
Q 3450 4097 3450 3541 
Q 3450 3153 3228 2886 
Q 3006 2619 2597 2516 
z
" transform="scale(0.015625)"/>
     </defs>
     <use xlink:href="#DejaVuSans-42"/>
     <use xlink:href="#DejaVuSans-61" transform="translate(68.603516 0)"/>
     <use xlink:href="#DejaVuSans-6e" transform="translate(129.882812 0)"/>
     <use xlink:href="#DejaVuSans-64" transform="translate(193.261719 0)"/>
     <use xlink:href="#DejaVuSans-20" transform="translate(256.738281 0)"/>
     <use xlink:href="#DejaVuSans-36" transform="translate(288.525391 0)"/>
     <use xlink:href="#DejaVuSans-33" transform="translate(352.148438 0)"/>
     <use xlink:href="#DejaVuSans-30" transform="translate(415.771484 0)"/>
    </g>
   </g>
   <g id="text_12">
    <g clip-path="url(#p44ea8072d0)">
     <!-- 60.0 -->
     <g transform="translate(322.683357 123.571361) rotate(-270.00742) scale(0.09 -0.09)">
      <defs>
       <path id="DejaVuSans-2e" d="M 684 794 
L 1344 794 
L 1344 0 
L 684 0 
L 684 794 
z
" transform="scale(0.015625)"/>
      </defs>
      <use xlink:href="#DejaVuSans-36"/>
      <use xlink:href="#DejaVuSans-30" transform="translate(63.623047 0)"/>
      <use xlink:href="#DejaVuSans-2e" transform="translate(127.246094 0)"/>
      <use xlink:href="#DejaVuSans-30" transform="translate(159.033203 0)"/>
     </g>
    </g>
   </g>
   <g id="text_13">
    <g clip-path="url(#p44ea8072d0)">
     <!-- 60.0 -->
     <g transform="translate(89.336052 143.611352) rotate(-89.971121) scale(0.09 -0.09)">
      <use xlink:href="#DejaVuSans-36"/>
      <use xlink:href="#DejaVuSans-30" transform="translate(63.623047 0)"/>
      <use xlink:href="#DejaVuSans-2e" transform="translate(127.246094 0)"/>
      <use xlink:href="#DejaVuSans-30" transform="translate(159.033203 0)"/>
     </g>
    </g>
   </g>
   <g id="text_14">
    <g clip-path="url(#p44ea8072d0)">
     <!-- 60.8 -->
     <g transform="translate(320.078827 123.576314) rotate(-270.121183) scale(0.09 -0.09)">
      <defs>
       <path id="DejaVuSans-38" d="M 2034 2216 
Q 1584 2216 1326 1975 
Q 1069 1734 1069 1313 
Q 1069 891 1326 650 
Q 1584 409 2034 409 
Q 2484 409 2743 651 
Q 3003 894 3003 1313 
Q 3003 1734 2745 1975 
Q 2488 2216 2034 2216 
z
M 1403 2484 
Q 997 2584 770 2862 
Q 544 3141 544 3541 
Q 544 4100 942 4425 
Q 1341 4750 2034 4750 
Q 2731 4750 3128 4425 
Q 3525 4100 3525 3541 
Q 3525 3141 3298 2862 
Q 3072 2584 2669 2484 
Q 3125 2378 3379 2068 
Q 3634 1759 3634 1313 
Q 3634 634 3220 271 
Q 2806 -91 2034 -91 
Q 1263 -91 848 271 
Q 434 634 434 1313 
Q 434 1759 690 2068 
Q 947 2378 1403 2484 
z
M 1172 3481 
Q 1172 3119 1398 2916 
Q 1625 2713 2034 2713 
Q 2441 2713 2670 2916 
Q 2900 3119 2900 3481 
Q 2900 3844 2670 4047 
Q 2441 4250 2034 4250 
Q 1625 4250 1398 4047 
Q 1172 3844 1172 3481 
z
" transform="scale(0.015625)"/>
      </defs>
      <use xlink:href="#DejaVuSans-36"/>
      <use xlink:href="#DejaVuSans-30" transform="translate(63.623047 0)"/>
      <use xlink:href="#DejaVuSans-2e" transform="translate(127.246094 0)"/>
      <use xlink:href="#DejaVuSans-38" transform="translate(159.033203 0)"/>
     </g>
    </g>
   </g>
   <g id="text_15">
    <g clip-path="url(#p44ea8072d0)">
     <!-- 60.8 -->
     <g transform="translate(91.624804 143.630205) rotate(-89.528373) scale(0.09 -0.09)">
      <use xlink:href="#DejaVuSans-36"/>
      <use xlink:href="#DejaVuSans-30" transform="translate(63.623047 0)"/>
      <use xlink:href="#DejaVuSans-2e" transform="translate(127.246094 0)"/>
      <use xlink:href="#DejaVuSans-38" transform="translate(159.033203 0)"/>
     </g>
    </g>
   </g>
   <g id="text_16">
    <g clip-path="url(#p44ea8072d0)">
     <!-- 61.6 -->
     <g transform="translate(317.474309 123.581307) rotate(-270.234931) scale(0.09 -0.09)">
      <defs>
       <path id="DejaVuSans-31" d="M 794 531 
L 1825 531 
L 1825 4091 
L 703 3866 
L 703 4441 
L 1819 4666 
L 2450 4666 
L 2450 531 
L 3481 531 
L 3481 0 
L 794 0 
L 794 531 
z
" transform="scale(0.015625)"/>
      </defs>
      <use xlink:href="#DejaVuSans-36"/>
      <use xlink:href="#DejaVuSans-31" transform="translate(63.623047 0)"/>
      <use xlink:href="#DejaVuSans-2e" transform="translate(127.246094 0)"/>
      <use xlink:href="#DejaVuSans-36" transform="translate(159.033203 0)"/>
     </g>
    </g>
   </g>
   <g id="text_17">
    <g clip-path="url(#p44ea8072d0)">
     <!-- 61.6 -->
     <g transform="translate(93.913448 143.648449) rotate(-89.085832) scale(0.09 -0.09)">
      <use xlink:href="#DejaVuSans-36"/>
      <use xlink:href="#DejaVuSans-31" transform="translate(63.623047 0)"/>
      <use xlink:href="#DejaVuSans-2e" transform="translate(127.246094 0)"/>
      <use xlink:href="#DejaVuSans-36" transform="translate(159.033203 0)"/>
     </g>
    </g>
   </g>
   <g id="text_18">
    <g clip-path="url(#p44ea8072d0)">
     <!-- 62.4 -->
     <g transform="translate(314.869807 123.586337) rotate(-270.348649) scale(0.09 -0.09)">
      <use xlink:href="#DejaVuSans-36"/>
      <use xlink:href="#DejaVuSans-32" transform="translate(63.623047 0)"/>
      <use xlink:href="#DejaVuSans-2e" transform="translate(127.246094 0)"/>
      <use xlink:href="#DejaVuSans-34" transform="translate(159.033203 0)"/>
     </g>
    </g>
   </g>
   <g id="text_19">
    <g clip-path="url(#p44ea8072d0)">
     <!-- 62.4 -->
     <g transform="translate(96.202024 143.666077) rotate(-88.643689) scale(0.09 -0.09)">
      <use xlink:href="#DejaVuSans-36"/>
      <use xlink:href="#DejaVuSans-32" transform="translate(63.623047 0)"/>
      <use xlink:href="#DejaVuSans-2e" transform="translate(127.246094 0)"/>
      <use xlink:href="#DejaVuSans-34" transform="translate(159.033203 0)"/>
     </g>
    </g>
   </g>
   <g id="text_20">
    <g clip-path="url(#p44ea8072d0)">
     <!-- 63.2 -->
     <g transform="translate(312.265322 123.591405) rotate(-270.462325) scale(0.09 -0.09)">
      <use xlink:href="#DejaVuSans-36"/>
      <use xlink:href="#DejaVuSans-33" transform="translate(63.623047 0)"/>
      <use xlink:href="#DejaVuSans-2e" transform="translate(127.246094 0)"/>
      <use xlink:href="#DejaVuSans-32" transform="translate(159.033203 0)"/>
     </g>
    </g>
   </g>
   <g id="text_21">
    <g clip-path="url(#p44ea8072d0)">
     <!-- 63.2 -->
     <g transform="translate(98.49057 143.683084) rotate(-88.202137) scale(0.09 -0.09)">
      <use xlink:href="#DejaVuSans-36"/>
      <use xlink:href="#DejaVuSans-33" transform="translate(63.623047 0)"/>
      <use xlink:href="#DejaVuSans-2e" transform="translate(127.246094 0)"/>
      <use xlink:href="#DejaVuSans-32" transform="translate(159.033203 0)"/>
     </g>
    </g>
   </g>
   <g id="text_22">
    <g clip-path="url(#p44ea8072d0)">
     <!-- 64.0 -->
     <g transform="translate(309.660857 123.596509) rotate(-270.575943) scale(0.09 -0.09)">
      <use xlink:href="#DejaVuSans-36"/>
      <use xlink:href="#DejaVuSans-34" transform="translate(63.623047 0)"/>
      <use xlink:href="#DejaVuSans-2e" transform="translate(127.246094 0)"/>
      <use xlink:href="#DejaVuSans-30" transform="translate(159.033203 0)"/>
     </g>
    </g>
   </g>
   <g id="text_23">
    <g clip-path="url(#p44ea8072d0)">
     <!-- 64.0 -->
     <g transform="translate(100.779125 143.699462) rotate(-87.761364) scale(0.09 -0.09)">
      <use xlink:href="#DejaVuSans-36"/>
      <use xlink:href="#DejaVuSans-34" transform="translate(63.623047 0)"/>
      <use xlink:href="#DejaVuSans-2e" transform="translate(127.246094 0)"/>
      <use xlink:href="#DejaVuSans-30" transform="translate(159.033203 0)"/>
     </g>
    </g>
   </g>
   <g id="text_24">
    <g clip-path="url(#p44ea8072d0)">
     <!-- 64.8 -->
     <g transform="translate(307.056415 123.60165) rotate(-270.68949) scale(0.09 -0.09)">
      <use xlink:href="#DejaVuSans-36"/>
      <use xlink:href="#DejaVuSans-34" transform="translate(63.623047 0)"/>
      <use xlink:href="#DejaVuSans-2e" transform="translate(127.246094 0)"/>
      <use xlink:href="#DejaVuSans-38" transform="translate(159.033203 0)"/>
     </g>
    </g>
   </g>
   <g id="text_25">
    <g clip-path="url(#p44ea8072d0)">
     <!-- 64.8 -->
     <g transform="translate(103.067728 143.715208) rotate(-87.32156) scale(0.09 -0.09)">
      <use xlink:href="#DejaVuSans-36"/>
      <use xlink:href="#DejaVuSans-34" transform="translate(63.623047 0)"/>
      <use xlink:href="#DejaVuSans-2e" transform="translate(127.246094 0)"/>
      <use xlink:href="#DejaVuSans-38" transform="translate(159.033203 0)"/>
     </g>
    </g>
   </g>
   <g id="text_26">
    <g clip-path="url(#p44ea8072d0)">
     <!-- 65.6 -->
     <g transform="translate(304.451998 123.606825) rotate(-270.802951) scale(0.09 -0.09)">
      <use xlink:href="#DejaVuSans-36"/>
      <use xlink:href="#DejaVuSans-35" transform="translate(63.623047 0)"/>
      <use xlink:href="#DejaVuSans-2e" transform="translate(127.246094 0)"/>
      <use xlink:href="#DejaVuSans-36" transform="translate(159.033203 0)"/>
     </g>
    </g>
   </g>
   <g id="text_27">
    <g clip-path="url(#p44ea8072d0)">
     <!-- 65.6 -->
     <g transform="translate(105.356416 143.730319) rotate(-86.88291) scale(0.09 -0.09)">
      <use xlink:href="#DejaVuSans-36"/>
      <use xlink:href="#DejaVuSans-35" transform="translate(63.623047 0)"/>
      <use xlink:href="#DejaVuSans-2e" transform="translate(127.246094 0)"/>
      <use xlink:href="#DejaVuSans-36" transform="translate(159.033203 0)"/>
     </g>
    </g>
   </g>
   <g id="text_28">
    <g clip-path="url(#p44ea8072d0)">
     <!-- 66.4 -->
     <g transform="translate(306.351242 164.080666) rotate(-88.866574) scale(0.09 -0.09)">
      <use xlink:href="#DejaVuSans-36"/>
      <use xlink:href="#DejaVuSans-36" transform="translate(63.623047 0)"/>
      <use xlink:href="#DejaVuSans-2e" transform="translate(127.246094 0)"/>
      <use xlink:href="#DejaVuSans-34" transform="translate(159.033203 0)"/>
     </g>
    </g>
   </g>
   <g id="text_29">
    <g clip-path="url(#p44ea8072d0)">
     <!-- 66.4 -->
     <g transform="translate(107.645227 143.744792) rotate(-86.445596) scale(0.09 -0.09)">
      <use xlink:href="#DejaVuSans-36"/>
      <use xlink:href="#DejaVuSans-36" transform="translate(63.623047 0)"/>
      <use xlink:href="#DejaVuSans-2e" transform="translate(127.246094 0)"/>
      <use xlink:href="#DejaVuSans-34" transform="translate(159.033203 0)"/>
     </g>
    </g>
   </g>
   <g id="text_30">
    <g clip-path="url(#p44ea8072d0)">
     <!-- 67.2 -->
     <g transform="translate(303.195729 162.337582) rotate(-85.684239) scale(0.09 -0.09)">
      <defs>
       <path id="DejaVuSans-37" d="M 525 4666 
L 3525 4666 
L 3525 4397 
L 1831 0 
L 1172 0 
L 2766 4134 
L 525 4134 
L 525 4666 
z
" transform="scale(0.015625)"/>
      </defs>
      <use xlink:href="#DejaVuSans-36"/>
      <use xlink:href="#DejaVuSans-37" transform="translate(63.623047 0)"/>
      <use xlink:href="#DejaVuSans-2e" transform="translate(127.246094 0)"/>
      <use xlink:href="#DejaVuSans-32" transform="translate(159.033203 0)"/>
     </g>
    </g>
   </g>
   <g id="text_31">
    <g clip-path="url(#p44ea8072d0)">
     <!-- 67.2 -->
     <g transform="translate(107.651558 164.039327) rotate(-89.864993) scale(0.09 -0.09)">
      <use xlink:href="#DejaVuSans-36"/>
      <use xlink:href="#DejaVuSans-37" transform="translate(63.623047 0)"/>
      <use xlink:href="#DejaVuSans-2e" transform="translate(127.246094 0)"/>
      <use xlink:href="#DejaVuSans-32" transform="translate(159.033203 0)"/>
     </g>
    </g>
   </g>
   <g id="text_32">
    <g clip-path="url(#p44ea8072d0)">
     <!-- 68.0 -->
     <g transform="translate(270.486101 114.232686) rotate(-299.718739) scale(0.09 -0.09)">
      <use xlink:href="#DejaVuSans-36"/>
      <use xlink:href="#DejaVuSans-38" transform="translate(63.623047 0)"/>
      <use xlink:href="#DejaVuSans-2e" transform="translate(127.246094 0)"/>
      <use xlink:href="#DejaVuSans-30" transform="translate(159.033203 0)"/>
     </g>
    </g>
   </g>
   <g id="text_33">
    <g clip-path="url(#p44ea8072d0)">
     <!-- 68.0 -->
     <g transform="translate(112.85995 134.136634) rotate(-88.915101) scale(0.09 -0.09)">
      <use xlink:href="#DejaVuSans-36"/>
      <use xlink:href="#DejaVuSans-38" transform="translate(63.623047 0)"/>
      <use xlink:href="#DejaVuSans-2e" transform="translate(127.246094 0)"/>
      <use xlink:href="#DejaVuSans-30" transform="translate(159.033203 0)"/>
     </g>
    </g>
   </g>
   <g id="text_34">
    <g clip-path="url(#p44ea8072d0)">
     <!-- 68.8 -->
     <g transform="translate(268.818369 108.634891) rotate(-17.684579) scale(0.09 -0.09)">
      <use xlink:href="#DejaVuSans-36"/>
      <use xlink:href="#DejaVuSans-38" transform="translate(63.623047 0)"/>
      <use xlink:href="#DejaVuSans-2e" transform="translate(127.246094 0)"/>
      <use xlink:href="#DejaVuSans-38" transform="translate(159.033203 0)"/>
     </g>
    </g>
   </g>
   <g id="text_35">
    <g clip-path="url(#p44ea8072d0)">
     <!-- 68.8 -->
     <g transform="translate(135.520251 143.869271) rotate(-70.786252) scale(0.09 -0.09)">
      <use xlink:href="#DejaVuSans-36"/>
      <use xlink:href="#DejaVuSans-38" transform="translate(63.623047 0)"/>
      <use xlink:href="#DejaVuSans-2e" transform="translate(127.246094 0)"/>
      <use xlink:href="#DejaVuSans-38" transform="translate(159.033203 0)"/>
     </g>
    </g>
   </g>
   <g id="text_36">
    <g clip-path="url(#p44ea8072d0)">
     <!-- 69.6 -->
     <g transform="translate(254.104059 143.734117) rotate(-86.769863) scale(0.09 -0.09)">
      <defs>
       <path id="DejaVuSans-39" d="M 703 97 
L 703 672 
Q 941 559 1184 500 
Q 1428 441 1663 441 
Q 2288 441 2617 861 
Q 2947 1281 2994 2138 
Q 2813 1869 2534 1725 
Q 2256 1581 1919 1581 
Q 1219 1581 811 2004 
Q 403 2428 403 3163 
Q 403 3881 828 4315 
Q 1253 4750 1959 4750 
Q 2769 4750 3195 4129 
Q 3622 3509 3622 2328 
Q 3622 1225 3098 567 
Q 2575 -91 1691 -91 
Q 1453 -91 1209 -44 
Q 966 3 703 97 
z
M 1959 2075 
Q 2384 2075 2632 2365 
Q 2881 2656 2881 3163 
Q 2881 3666 2632 3958 
Q 2384 4250 1959 4250 
Q 1534 4250 1286 3958 
Q 1038 3666 1038 3163 
Q 1038 2656 1286 2365 
Q 1534 2075 1959 2075 
z
" transform="scale(0.015625)"/>
      </defs>
      <use xlink:href="#DejaVuSans-36"/>
      <use xlink:href="#DejaVuSans-39" transform="translate(63.623047 0)"/>
      <use xlink:href="#DejaVuSans-2e" transform="translate(127.246094 0)"/>
      <use xlink:href="#DejaVuSans-36" transform="translate(159.033203 0)"/>
     </g>
    </g>
   </g>
   <g id="text_37">
    <g clip-path="url(#p44ea8072d0)">
     <!-- 69.6 -->
     <g transform="translate(125.107324 104.611123) rotate(-320.650809) scale(0.09 -0.09)">
      <use xlink:href="#DejaVuSans-36"/>
      <use xlink:href="#DejaVuSans-39" transform="translate(63.623047 0)"/>
      <use xlink:href="#DejaVuSans-2e" transform="translate(127.246094 0)"/>
      <use xlink:href="#DejaVuSans-36" transform="translate(159.033203 0)"/>
     </g>
    </g>
   </g>
   <g id="text_38">
    <g clip-path="url(#p44ea8072d0)">
     <!-- 69.6 -->
     <g transform="translate(195.741715 220.637143) rotate(-351.397162) scale(0.09 -0.09)">
      <use xlink:href="#DejaVuSans-36"/>
      <use xlink:href="#DejaVuSans-39" transform="translate(63.623047 0)"/>
      <use xlink:href="#DejaVuSans-2e" transform="translate(127.246094 0)"/>
      <use xlink:href="#DejaVuSans-36" transform="translate(159.033203 0)"/>
     </g>
    </g>
   </g>
   <g id="text_39">
    <g clip-path="url(#p44ea8072d0)">
     <!-- 69.6 -->
     <g transform="translate(219.723936 42.417142) rotate(-356.284705) scale(0.09 -0.09)">
      <use xlink:href="#DejaVuSans-36"/>
      <use xlink:href="#DejaVuSans-39" transform="translate(63.623047 0)"/>
      <use xlink:href="#DejaVuSans-2e" transform="translate(127.246094 0)"/>
      <use xlink:href="#DejaVuSans-36" transform="translate(159.033203 0)"/>
     </g>
    </g>
   </g>
   <g id="text_40">
    <g clip-path="url(#p44ea8072d0)">
     <!-- 70.4 -->
     <g transform="translate(149.103864 86.406407) rotate(-84.614045) scale(0.09 -0.09)">
      <use xlink:href="#DejaVuSans-37"/>
      <use xlink:href="#DejaVuSans-30" transform="translate(63.623047 0)"/>
      <use xlink:href="#DejaVuSans-2e" transform="translate(127.246094 0)"/>
      <use xlink:href="#DejaVuSans-34" transform="translate(159.033203 0)"/>
     </g>
    </g>
   </g>
   <g id="text_41">
    <g clip-path="url(#p44ea8072d0)">
     <!-- 71.2 -->
     <g transform="translate(246.531807 83.847189) rotate(-272.319655) scale(0.09 -0.09)">
      <use xlink:href="#DejaVuSans-37"/>
      <use xlink:href="#DejaVuSans-31" transform="translate(63.623047 0)"/>
      <use xlink:href="#DejaVuSans-2e" transform="translate(127.246094 0)"/>
      <use xlink:href="#DejaVuSans-32" transform="translate(159.033203 0)"/>
     </g>
    </g>
   </g>
   <g id="text_42">
    <g clip-path="url(#p44ea8072d0)">
     <!-- 72.0 -->
     <g transform="translate(228.317181 164.425514) rotate(-285.748084) scale(0.09 -0.09)">
      <use xlink:href="#DejaVuSans-37"/>
      <use xlink:href="#DejaVuSans-32" transform="translate(63.623047 0)"/>
      <use xlink:href="#DejaVuSans-2e" transform="translate(127.246094 0)"/>
      <use xlink:href="#DejaVuSans-30" transform="translate(159.033203 0)"/>
     </g>
    </g>
   </g>
   <g id="text_43">
    <g clip-path="url(#p44ea8072d0)">
     <!-- 72.8 -->
     <g transform="translate(227.994263 200.703686) rotate(-56.858218) scale(0.09 -0.09)">
      <use xlink:href="#DejaVuSans-37"/>
      <use xlink:href="#DejaVuSans-32" transform="translate(63.623047 0)"/>
      <use xlink:href="#DejaVuSans-2e" transform="translate(127.246094 0)"/>
      <use xlink:href="#DejaVuSans-38" transform="translate(159.033203 0)"/>
     </g>
    </g>
   </g>
   <g id="text_44">
    <g clip-path="url(#p44ea8072d0)">
     <!-- 73.6 -->
     <g transform="translate(196.13626 135.404895) rotate(-2.848423) scale(0.09 -0.09)">
      <use xlink:href="#DejaVuSans-37"/>
      <use xlink:href="#DejaVuSans-33" transform="translate(63.623047 0)"/>
      <use xlink:href="#DejaVuSans-2e" transform="translate(127.246094 0)"/>
      <use xlink:href="#DejaVuSans-36" transform="translate(159.033203 0)"/>
     </g>
    </g>
   </g>
   <g id="text_45">
    <g clip-path="url(#p44ea8072d0)">
     <!-- 74.4 -->
     <g transform="translate(196.120565 119.123353) rotate(-2.543811) scale(0.09 -0.09)">
      <use xlink:href="#DejaVuSans-37"/>
      <use xlink:href="#DejaVuSans-34" transform="translate(63.623047 0)"/>
      <use xlink:href="#DejaVuSans-2e" transform="translate(127.246094 0)"/>
      <use xlink:href="#DejaVuSans-34" transform="translate(159.033203 0)"/>
     </g>
    </g>
   </g>
  </g>
 </g>
 <defs>
  <clipPath id="p44ea8072d0">
   <rect x="62.84" y="26.88" width="286.36" height="213.4"/>
  </clipPath>
 </defs>
</svg>
