<?xml version="1.0" encoding="utf-8" standalone="no"?>
<!DOCTYPE svg PUBLIC "-//W3C//DTD SVG 1.1//EN"
  "http://www.w3.org/Graphics/SVG/1.1/DTD/svg11.dtd">
<svg xmlns:xlink="http://www.w3.org/1999/xlink" width="360pt" height="288pt" viewBox="0 0 360 288" xmlns="http://www.w3.org/2000/svg" version="1.1">
 <metadata>
  <rdf:RDF xmlns:dc="http://purl.org/dc/elements/1.1/" xmlns:cc="http://creativecommons.org/ns#" xmlns:rdf="http://www.w3.org/1999/02/22-rdf-syntax-ns#">
   <cc:Work>
    <dc:type rdf:resource="http://purl.org/dc/dcmitype/StillImage"/>
    <dc:date>2025-10-02T17:14:30.765886</dc:date>
    <dc:format>image/svg+xml</dc:format>
    <dc:creator>
     <cc:Agent>
      <dc:title>Matplotlib v3.10.6, https://matplotlib.org/</dc:title>
     </cc:Agent>
    </dc:creator>
   </cc:Work>
  </rdf:RDF>
 </metadata>
 <defs>
  <style type="text/css">*{stroke-linejoin: round; stroke-linecap: butt}</style>
 </defs>
 <g id="figure_1">
  <g id="patch_1">
   <path d="M 0 288 
L 360 288 
L 360 0 
L 0 0 
z
" style="fill: #ffffff"/>
  </g>
  <g id="axes_1">
   <g id="patch_2">
    <path d="M 62.84 240.28 
L 349.2 240.28 
L 349.2 26.88 
L 62.84 26.88 
z
" style="fill: #ffffff"/>
   </g>
   <g id="QuadContourSet_1">
    <path d="M 86.703333 26.88 
L 88.697115 26.88 
L 88.84129 36.380776 
L 89.221214 47.600163 
L 88.009437 60.808896 
L 88.63636 76.198006 
L 88.409591 93.757994 
L 88.552874 113.137869 
L 88.341244 133.590571 
L 88.363183 154.013971 
L 88.614902 173.39493 
L 88.949521 190.956403 
L 88.753945 206.347113 
L 88.685627 219.557363 
L 88.862468 230.778089 
L 88.633573 240.28 
L 86.703333 240.28 
L 62.84 240.28 
L 62.84 230.778089 
L 62.84 219.557363 
L 62.84 206.347113 
L 62.84 190.956403 
L 62.84 173.39493 
L 62.84 154.013971 
L 62.84 133.590571 
L 62.84 113.137869 
L 62.84 93.757994 
L 62.84 76.198006 
L 62.84 60.808896 
L 62.84 47.600163 
L 62.84 36.380776 
L 62.84 26.88 
z
M 325.336667 26.88 
L 349.2 26.88 
L 349.2 36.380776 
L 349.2 47.600163 
L 349.2 60.808896 
L 349.2 76.198006 
L 349.2 93.757994 
L 349.2 113.137869 
L 349.2 133.590571 
L 349.2 154.013971 
L 349.2 173.39493 
L 349.2 190.956403 
L 349.2 206.347113 
L 349.2 219.557363 
L 349.2 230.778089 
L 349.2 240.28 
L 325.336667 240.28 
L 323.315748 240.28 
L 322.932871 230.778089 
L 323.410757 219.557363 
L 321.402523 206.347113 
L 322.922247 190.956403 
L 323.255481 173.39493 
L 323.755926 154.013971 
L 321.474417 133.590571 
L 323.358495 113.137869 
L 322.755864 93.757994 
L 323.056145 76.198006 
L 323.138903 60.808896 
L 323.39495 47.600163 
L 323.364055 36.380776 
L 323.389224 26.88 
z
" clip-path="url(#p29227b5a25)" style="fill: #470d60"/>
    <path d="M 91.329891 36.380776 
L 92.152051 47.600163 
L 89.529755 60.808896 
L 90.886422 76.198006 
L 90.395691 93.757994 
L 90.705757 113.137869 
L 90.247787 133.590571 
L 90.295263 154.013971 
L 90.839986 173.39493 
L 91.564106 190.956403 
L 91.140877 206.347113 
L 90.993035 219.557363 
L 91.375721 230.778089 
L 90.88039 240.28 
L 88.633573 240.28 
L 88.862468 230.778089 
L 88.685627 219.557363 
L 88.753945 206.347113 
L 88.949521 190.956403 
L 88.614902 173.39493 
L 88.363183 154.013971 
L 88.341244 133.590571 
L 88.552874 113.137869 
L 88.409591 93.757994 
L 88.63636 76.198006 
L 88.009437 60.808896 
L 89.221214 47.600163 
L 88.84129 36.380776 
L 88.697115 26.88 
L 91.017896 26.88 
z
M 323.364055 36.380776 
L 323.39495 47.600163 
L 323.138903 60.808896 
L 323.056145 76.198006 
L 322.755864 93.757994 
L 323.358495 113.137869 
L 321.474417 133.590571 
L 323.755926 154.013971 
L 323.255481 173.39493 
L 322.922247 190.956403 
L 321.402523 206.347113 
L 323.410757 219.557363 
L 322.932871 230.778089 
L 323.315748 240.28 
L 320.963381 240.28 
L 320.13483 230.778089 
L 321.16898 219.557363 
L 316.823144 206.347113 
L 320.11184 190.956403 
L 320.832961 173.39493 
L 321.915929 154.013971 
L 316.978723 133.590571 
L 321.055885 113.137869 
L 319.751786 93.757994 
L 320.401597 76.198006 
L 320.580686 60.808896 
L 321.134774 47.600163 
L 321.067916 36.380776 
L 321.122383 26.88 
L 323.389224 26.88 
z
" clip-path="url(#p29227b5a25)" style="fill: #482374"/>
    <path d="M 93.818493 36.380776 
L 95.082888 47.600163 
L 91.050072 60.808896 
L 93.136484 76.198006 
L 92.381792 93.757994 
L 92.858639 113.137869 
L 92.15433 133.590571 
L 92.227343 154.013971 
L 93.06507 173.39493 
L 94.17869 190.956403 
L 93.527808 206.347113 
L 93.300444 219.557363 
L 93.888974 230.778089 
L 93.127208 240.28 
L 90.88039 240.28 
L 91.375721 230.778089 
L 90.993035 219.557363 
L 91.140877 206.347113 
L 91.564106 190.956403 
L 90.839986 173.39493 
L 90.295263 154.013971 
L 90.247787 133.590571 
L 90.705757 113.137869 
L 90.395691 93.757994 
L 90.886422 76.198006 
L 89.529755 60.808896 
L 92.152051 47.600163 
L 91.329891 36.380776 
L 91.017896 26.88 
L 93.338677 26.88 
z
M 321.067916 36.380776 
L 321.134774 47.600163 
L 320.580686 60.808896 
L 320.401597 76.198006 
L 319.751786 93.757994 
L 321.055885 113.137869 
L 316.978723 133.590571 
L 321.915929 154.013971 
L 320.832961 173.39493 
L 320.11184 190.956403 
L 316.823144 206.347113 
L 321.16898 219.557363 
L 320.13483 230.778089 
L 320.963381 240.28 
L 318.611013 240.28 
L 317.336789 230.778089 
L 318.927203 219.557363 
L 312.243764 206.347113 
L 317.301434 190.956403 
L 318.410441 173.39493 
L 320.075931 154.013971 
L 312.483028 133.590571 
L 318.753274 113.137869 
L 316.747708 93.757994 
L 317.747049 76.198006 
L 318.022468 60.808896 
L 318.874597 47.600163 
L 318.771777 36.380776 
L 318.855541 26.88 
L 321.122383 26.88 
z
" clip-path="url(#p29227b5a25)" style="fill: #453781"/>
    <path d="M 96.307094 36.380776 
L 98.013725 47.600163 
L 92.57039 60.808896 
L 95.386546 76.198006 
L 94.367892 93.757994 
L 95.011522 113.137869 
L 94.060873 133.590571 
L 94.159423 154.013971 
L 95.290154 173.39493 
L 96.793274 190.956403 
L 95.91474 206.347113 
L 95.607852 219.557363 
L 96.402227 230.778089 
L 95.374025 240.28 
L 93.127208 240.28 
L 93.888974 230.778089 
L 93.300444 219.557363 
L 93.527808 206.347113 
L 94.17869 190.956403 
L 93.06507 173.39493 
L 92.227343 154.013971 
L 92.15433 133.590571 
L 92.858639 113.137869 
L 92.381792 93.757994 
L 93.136484 76.198006 
L 91.050072 60.808896 
L 95.082888 47.600163 
L 93.818493 36.380776 
L 93.338677 26.88 
L 95.659458 26.88 
z
M 318.771777 36.380776 
L 318.874597 47.600163 
L 318.022468 60.808896 
L 317.747049 76.198006 
L 316.747708 93.757994 
L 318.753274 113.137869 
L 312.483028 133.590571 
L 320.075931 154.013971 
L 318.410441 173.39493 
L 317.301434 190.956403 
L 312.243764 206.347113 
L 318.927203 219.557363 
L 317.336789 230.778089 
L 318.611013 240.28 
L 316.258645 240.28 
L 314.538748 230.778089 
L 316.685426 219.557363 
L 307.664384 206.347113 
L 314.491027 190.956403 
L 315.987921 173.39493 
L 318.235934 154.013971 
L 307.987334 133.590571 
L 316.450664 113.137869 
L 313.74363 93.757994 
L 315.092501 76.198006 
L 315.464251 60.808896 
L 316.614421 47.600163 
L 316.475638 36.380776 
L 316.5887 26.88 
L 318.855541 26.88 
z
" clip-path="url(#p29227b5a25)" style="fill: #3e4989"/>
    <path d="M 98.795695 36.380776 
L 100.944562 47.600163 
L 94.090707 60.808896 
L 97.636608 76.198006 
L 96.353992 93.757994 
L 97.164405 113.137869 
L 95.967416 133.590571 
L 96.091503 154.013971 
L 97.515238 173.39493 
L 99.407858 190.956403 
L 98.301672 206.347113 
L 97.915261 219.557363 
L 98.91548 230.778089 
L 97.620842 240.28 
L 95.374025 240.28 
L 96.402227 230.778089 
L 95.607852 219.557363 
L 95.91474 206.347113 
L 96.793274 190.956403 
L 95.290154 173.39493 
L 94.159423 154.013971 
L 94.060873 133.590571 
L 95.011522 113.137869 
L 94.367892 93.757994 
L 95.386546 76.198006 
L 92.57039 60.808896 
L 98.013725 47.600163 
L 96.307094 36.380776 
L 95.659458 26.88 
L 97.980239 26.88 
z
M 316.475638 36.380776 
L 316.614421 47.600163 
L 315.464251 60.808896 
L 315.092501 76.198006 
L 313.74363 93.757994 
L 316.450664 113.137869 
L 307.987334 133.590571 
L 318.235934 154.013971 
L 315.987921 173.39493 
L 314.491027 190.956403 
L 307.664384 206.347113 
L 316.685426 219.557363 
L 314.538748 230.778089 
L 316.258645 240.28 
L 313.906278 240.28 
L 311.740707 230.778089 
L 314.443649 219.557363 
L 303.085004 206.347113 
L 311.68062 190.956403 
L 313.565402 173.39493 
L 316.395937 154.013971 
L 303.491639 133.590571 
L 314.148054 113.137869 
L 310.739552 93.757994 
L 312.437952 76.198006 
L 312.906033 60.808896 
L 314.354244 47.600163 
L 314.179499 36.380776 
L 314.321859 26.88 
L 316.5887 26.88 
z
M 229.883333 74.242494 
L 233.598284 76.198006 
L 229.883333 79.483418 
L 222.144352 76.198006 
z
M 253.746667 217.861687 
L 256.924391 219.557363 
L 253.746667 220.261669 
L 250.554201 219.557363 
z
" clip-path="url(#p29227b5a25)" style="fill: #375b8d"/>
    <path d="M 101.284297 36.380776 
L 103.875399 47.600163 
L 95.611024 60.808896 
L 99.886669 76.198006 
L 98.340092 93.757994 
L 99.317288 113.137869 
L 97.873959 133.590571 
L 98.023583 154.013971 
L 99.740322 173.39493 
L 102.022442 190.956403 
L 100.688603 206.347113 
L 100.222669 219.557363 
L 101.428733 230.778089 
L 99.867659 240.28 
L 97.620842 240.28 
L 98.91548 230.778089 
L 97.915261 219.557363 
L 98.301672 206.347113 
L 99.407858 190.956403 
L 97.515238 173.39493 
L 96.091503 154.013971 
L 95.967416 133.590571 
L 97.164405 113.137869 
L 96.353992 93.757994 
L 97.636608 76.198006 
L 94.090707 60.808896 
L 100.944562 47.600163 
L 98.795695 36.380776 
L 97.980239 26.88 
L 100.301021 26.88 
z
M 314.179499 36.380776 
L 314.354244 47.600163 
L 312.906033 60.808896 
L 312.437952 76.198006 
L 310.739552 93.757994 
L 314.148054 113.137869 
L 303.491639 133.590571 
L 316.395937 154.013971 
L 313.565402 173.39493 
L 311.68062 190.956403 
L 303.085004 206.347113 
L 314.443649 219.557363 
L 311.740707 230.778089 
L 313.906278 240.28 
L 311.55391 240.28 
L 308.942667 230.778089 
L 312.201871 219.557363 
L 301.473333 207.922629 
L 296.033617 206.347113 
L 301.473333 203.30625 
L 308.870213 190.956403 
L 311.142882 173.39493 
L 314.55594 154.013971 
L 301.473333 135.059597 
L 296.045561 133.590571 
L 301.473333 131.361218 
L 311.845443 113.137869 
L 307.735474 93.757994 
L 309.783404 76.198006 
L 310.347816 60.808896 
L 312.094068 47.600163 
L 311.88336 36.380776 
L 312.055017 26.88 
L 314.321859 26.88 
z
M 182.156667 45.714614 
L 185.335415 47.600163 
L 182.156667 49.340065 
L 177.177726 47.600163 
z
M 229.883333 71.966259 
L 237.922522 76.198006 
L 229.883333 83.307669 
L 213.136106 76.198006 
z
M 222.144352 76.198006 
L 229.883333 79.483418 
L 233.598284 76.198006 
L 229.883333 74.242494 
z
M 253.746667 124.664564 
L 256.982694 133.590571 
L 253.746667 135.135668 
L 251.976739 133.590571 
z
M 182.156667 169.502986 
L 185.119216 173.39493 
L 182.156667 177.274832 
L 176.939119 173.39493 
z
M 206.02 217.173331 
L 208.648681 219.557363 
L 206.02 220.327295 
L 203.159368 219.557363 
z
M 253.746667 214.265262 
L 263.66415 219.557363 
L 253.746667 221.755458 
L 243.783176 219.557363 
z
M 250.554201 219.557363 
L 253.746667 220.261669 
L 256.924391 219.557363 
L 253.746667 217.861687 
z
" clip-path="url(#p29227b5a25)" style="fill: #2f6b8e"/>
    <path d="M 103.772898 36.380776 
L 106.806236 47.600163 
L 97.131342 60.808896 
L 102.136731 76.198006 
L 100.326192 93.757994 
L 101.47017 113.137869 
L 99.780502 133.590571 
L 99.955663 154.013971 
L 101.965406 173.39493 
L 104.637026 190.956403 
L 103.075535 206.347113 
L 102.530078 219.557363 
L 103.941986 230.778089 
L 102.114476 240.28 
L 99.867659 240.28 
L 101.428733 230.778089 
L 100.222669 219.557363 
L 100.688603 206.347113 
L 102.022442 190.956403 
L 99.740322 173.39493 
L 98.023583 154.013971 
L 97.873959 133.590571 
L 99.317288 113.137869 
L 98.340092 93.757994 
L 99.886669 76.198006 
L 95.611024 60.808896 
L 103.875399 47.600163 
L 101.284297 36.380776 
L 100.301021 26.88 
L 102.621802 26.88 
z
M 311.88336 36.380776 
L 312.094068 47.600163 
L 310.347816 60.808896 
L 309.783404 76.198006 
L 307.735474 93.757994 
L 311.845443 113.137869 
L 301.473333 131.361218 
L 296.045561 133.590571 
L 301.473333 135.059597 
L 314.55594 154.013971 
L 311.142882 173.39493 
L 308.870213 190.956403 
L 301.473333 203.30625 
L 296.033617 206.347113 
L 301.473333 207.922629 
L 312.201871 219.557363 
L 308.942667 230.778089 
L 311.55391 240.28 
L 309.201542 240.28 
L 306.144626 230.778089 
L 309.960094 219.557363 
L 301.473333 210.35376 
L 287.639759 206.347113 
L 301.473333 198.613988 
L 306.059806 190.956403 
L 308.720362 173.39493 
L 312.715942 154.013971 
L 301.473333 137.725427 
L 286.195831 133.590571 
L 301.473333 127.315631 
L 309.542833 113.137869 
L 304.731396 93.757994 
L 307.128856 76.198006 
L 307.789599 60.808896 
L 309.833891 47.600163 
L 309.587221 36.380776 
L 309.788176 26.88 
L 312.055017 26.88 
z
M 182.156667 43.445292 
L 189.161145 47.600163 
L 182.156667 51.434096 
L 171.185404 47.600163 
z
M 177.177726 47.600163 
L 182.156667 49.340065 
L 185.335415 47.600163 
L 182.156667 45.714614 
z
M 206.02 75.588056 
L 229.883333 69.690024 
L 242.24676 76.198006 
L 229.883333 87.131919 
L 206.02 86.80297 
L 204.049546 76.198006 
z
M 213.136106 76.198006 
L 229.883333 83.307669 
L 237.922522 76.198006 
L 229.883333 71.966259 
z
M 253.746667 107.583362 
L 271.892008 113.137869 
L 268.003427 133.590571 
L 253.746667 140.397707 
L 245.949011 133.590571 
L 244.748 113.137869 
z
M 251.976739 133.590571 
L 253.746667 135.135668 
L 256.982694 133.590571 
L 253.746667 124.664564 
z
M 182.156667 159.204529 
L 192.958407 173.39493 
L 182.156667 187.541426 
L 163.132987 173.39493 
z
M 176.939119 173.39493 
L 182.156667 177.274832 
L 185.119216 173.39493 
L 182.156667 169.502986 
z
M 229.883333 168.5919 
L 253.746667 169.877574 
L 261.141118 173.39493 
L 253.746667 178.360019 
L 235.484354 190.956403 
L 236.955185 206.347113 
L 253.746667 210.668837 
L 270.403909 219.557363 
L 253.746667 223.249248 
L 237.012152 219.557363 
L 229.883333 210.635691 
L 218.992708 219.557363 
L 206.02 223.357028 
L 191.902598 219.557363 
L 206.02 207.792017 
L 211.587864 206.347113 
L 216.796749 190.956403 
L 224.476736 173.39493 
z
M 203.159368 219.557363 
L 206.02 220.327295 
L 208.648681 219.557363 
L 206.02 217.173331 
z
M 243.783176 219.557363 
L 253.746667 221.755458 
L 263.66415 219.557363 
L 253.746667 214.265262 
z
M 134.43 205.930496 
L 135.910412 206.347113 
L 134.43 206.795762 
L 133.840013 206.347113 
z
M 182.156667 229.741942 
L 182.985017 230.778089 
L 182.156667 231.351494 
L 181.599947 230.778089 
z
M 229.883333 226.345704 
L 232.747512 230.778089 
L 229.883333 232.464821 
L 224.65367 230.778089 
z
" clip-path="url(#p29227b5a25)" style="fill: #297a8e"/>
    <path d="M 106.2615 36.380776 
L 109.737073 47.600163 
L 98.651659 60.808896 
L 104.386793 76.198006 
L 102.312292 93.757994 
L 103.623053 113.137869 
L 101.687045 133.590571 
L 101.887743 154.013971 
L 104.19049 173.39493 
L 107.25161 190.956403 
L 105.462466 206.347113 
L 104.837486 219.557363 
L 106.455239 230.778089 
L 104.361294 240.28 
L 102.114476 240.28 
L 103.941986 230.778089 
L 102.530078 219.557363 
L 103.075535 206.347113 
L 104.637026 190.956403 
L 101.965406 173.39493 
L 99.955663 154.013971 
L 99.780502 133.590571 
L 101.47017 113.137869 
L 100.326192 93.757994 
L 102.136731 76.198006 
L 97.131342 60.808896 
L 106.806236 47.600163 
L 103.772898 36.380776 
L 102.621802 26.88 
L 104.942583 26.88 
z
M 134.43 26.88 
L 139.45521 26.88 
L 134.43 27.375364 
L 131.663392 26.88 
z
M 253.746667 26.88 
L 262.144392 26.88 
L 253.746667 27.924565 
L 251.442869 26.88 
z
M 309.587221 36.380776 
L 309.833891 47.600163 
L 307.789599 60.808896 
L 307.128856 76.198006 
L 304.731396 93.757994 
L 309.542833 113.137869 
L 301.473333 127.315631 
L 286.195831 133.590571 
L 301.473333 137.725427 
L 312.715942 154.013971 
L 308.720362 173.39493 
L 306.059806 190.956403 
L 301.473333 198.613988 
L 287.639759 206.347113 
L 301.473333 210.35376 
L 309.960094 219.557363 
L 306.144626 230.778089 
L 309.201542 240.28 
L 306.849174 240.28 
L 303.346585 230.778089 
L 307.718317 219.557363 
L 301.473333 212.784891 
L 279.245901 206.347113 
L 301.473333 193.921726 
L 303.249399 190.956403 
L 306.297842 173.39493 
L 310.875945 154.013971 
L 301.473333 140.391256 
L 277.61 142.901565 
L 253.746667 145.659747 
L 239.921282 133.590571 
L 230.253113 113.137869 
L 253.746667 98.636264 
L 277.61 108.776657 
L 283.411042 113.137869 
L 301.473333 123.270044 
L 307.240223 113.137869 
L 301.727318 93.757994 
L 304.474308 76.198006 
L 305.231381 60.808896 
L 307.573715 47.600163 
L 307.291082 36.380776 
L 307.521335 26.88 
L 309.788176 26.88 
z
M 244.748 113.137869 
L 245.949011 133.590571 
L 253.746667 140.397707 
L 268.003427 133.590571 
L 271.892008 113.137869 
L 253.746667 107.583362 
z
M 182.156667 41.17597 
L 192.986876 47.600163 
L 182.156667 53.528127 
L 165.193081 47.600163 
z
M 171.185404 47.600163 
L 182.156667 51.434096 
L 189.161145 47.600163 
L 182.156667 43.445292 
z
M 253.746667 48.477882 
L 277.61 57.538227 
L 282.081167 60.808896 
L 277.61 61.853173 
L 253.746667 63.732798 
L 250.924188 60.808896 
z
M 206.02 72.684158 
L 229.883333 67.41379 
L 246.570997 76.198006 
L 229.883333 90.95617 
L 218.921225 93.757994 
L 206.02 98.264208 
L 187.568639 93.757994 
L 194.668458 76.198006 
z
M 204.049546 76.198006 
L 206.02 86.80297 
L 229.883333 87.131919 
L 242.24676 76.198006 
L 229.883333 69.690024 
L 206.02 75.588056 
z
M 182.156667 136.770661 
L 206.02 151.039789 
L 212.540524 154.013971 
L 229.883333 158.751307 
L 253.746667 163.747045 
L 274.02918 173.39493 
L 253.746667 187.013855 
L 248.030738 190.956403 
L 250.928611 206.347113 
L 253.746667 207.072412 
L 277.143668 219.557363 
L 253.746667 224.743037 
L 236.913932 230.778089 
L 229.883333 234.918452 
L 217.046261 230.778089 
L 206.02 226.386761 
L 192.389312 230.778089 
L 182.156667 237.861381 
L 175.279485 230.778089 
L 167.024027 219.557363 
L 182.156667 213.969224 
L 186.401959 206.347113 
L 182.156667 203.03406 
L 165.493952 190.956403 
L 158.293333 185.556117 
L 148.36239 173.39493 
L 158.293333 157.308223 
L 163.339152 154.013971 
z
M 163.132987 173.39493 
L 182.156667 187.541426 
L 192.958407 173.39493 
L 182.156667 159.204529 
z
M 200.797597 173.39493 
L 206.02 182.404359 
L 213.399537 173.39493 
L 206.02 158.154637 
z
M 224.476736 173.39493 
L 216.796749 190.956403 
L 211.587864 206.347113 
L 206.02 207.792017 
L 191.902598 219.557363 
L 206.02 223.357028 
L 218.992708 219.557363 
L 229.883333 210.635691 
L 237.012152 219.557363 
L 253.746667 223.249248 
L 270.403909 219.557363 
L 253.746667 210.668837 
L 236.955185 206.347113 
L 235.484354 190.956403 
L 253.746667 178.360019 
L 261.141118 173.39493 
L 253.746667 169.877574 
L 229.883333 168.5919 
z
M 229.336735 219.557363 
L 229.883333 219.898068 
L 230.241127 219.557363 
L 229.883333 219.109586 
z
M 181.599947 230.778089 
L 182.156667 231.351494 
L 182.985017 230.778089 
L 182.156667 229.741942 
z
M 224.65367 230.778089 
L 229.883333 232.464821 
L 232.747512 230.778089 
L 229.883333 226.345704 
z
M 134.43 200.693949 
L 154.518063 206.347113 
L 134.43 212.434941 
L 126.424327 206.347113 
z
M 133.840013 206.347113 
L 134.43 206.795762 
L 135.910412 206.347113 
L 134.43 205.930496 
z
" clip-path="url(#p29227b5a25)" style="fill: #23898e"/>
    <path d="M 108.750101 36.380776 
L 110.566667 42.040915 
L 129.407048 47.600163 
L 110.566667 48.85377 
L 100.171977 60.808896 
L 106.636855 76.198006 
L 104.298393 93.757994 
L 105.775936 113.137869 
L 103.593588 133.590571 
L 103.819823 154.013971 
L 106.415574 173.39493 
L 109.866194 190.956403 
L 107.849398 206.347113 
L 107.144895 219.557363 
L 108.968492 230.778089 
L 106.608111 240.28 
L 104.361294 240.28 
L 106.455239 230.778089 
L 104.837486 219.557363 
L 105.462466 206.347113 
L 107.25161 190.956403 
L 104.19049 173.39493 
L 101.887743 154.013971 
L 101.687045 133.590571 
L 103.623053 113.137869 
L 102.312292 93.757994 
L 104.386793 76.198006 
L 98.651659 60.808896 
L 109.737073 47.600163 
L 106.2615 36.380776 
L 104.942583 26.88 
L 107.263364 26.88 
z
M 134.43 27.375364 
L 139.45521 26.88 
L 155.267834 26.88 
L 134.43 28.934107 
L 122.957818 26.88 
L 131.663392 26.88 
z
M 206.02 26.88 
L 206.229415 26.88 
L 206.02 26.991185 
L 204.599719 26.88 
z
M 253.746667 27.924565 
L 262.144392 26.88 
L 277.61 26.88 
L 280.456816 26.88 
L 282.53208 36.380776 
L 277.61 46.835159 
L 274.214666 36.380776 
L 253.746667 30.409807 
L 245.961643 26.88 
L 251.442869 26.88 
z
M 307.291082 36.380776 
L 307.573715 47.600163 
L 305.231381 60.808896 
L 304.474308 76.198006 
L 301.727318 93.757994 
L 307.240223 113.137869 
L 301.473333 123.270044 
L 283.411042 113.137869 
L 277.61 108.776657 
L 253.746667 98.636264 
L 230.253113 113.137869 
L 239.921282 133.590571 
L 253.746667 145.659747 
L 277.61 142.901565 
L 301.473333 140.391256 
L 310.875945 154.013971 
L 306.297842 173.39493 
L 303.249399 190.956403 
L 301.473333 193.921726 
L 279.245901 206.347113 
L 301.473333 212.784891 
L 307.718317 219.557363 
L 303.346585 230.778089 
L 306.849174 240.28 
L 304.496807 240.28 
L 301.473333 232.721709 
L 290.013487 230.778089 
L 301.473333 229.025644 
L 305.47654 219.557363 
L 301.473333 215.216021 
L 285.786657 219.557363 
L 277.61 227.662948 
L 253.746667 226.236827 
L 241.080353 230.778089 
L 229.883333 237.372083 
L 216.469751 240.28 
L 206.02 240.28 
L 182.156667 240.28 
L 158.366522 240.28 
L 168.959023 230.778089 
L 158.293333 223.523511 
L 139.724111 219.557363 
L 134.43 218.07412 
L 119.00864 206.347113 
L 134.43 195.457401 
L 147.485106 190.956403 
L 134.43 175.040358 
L 133.345039 173.39493 
L 134.43 169.596837 
L 141.49411 154.013971 
L 158.293333 144.051086 
L 170.236686 133.590571 
L 162.142782 113.137869 
L 174.781964 93.757994 
L 182.156667 81.620011 
L 185.287371 76.198006 
L 206.02 69.78026 
L 229.883333 65.137555 
L 243.672909 60.808896 
L 239.64736 47.600163 
L 253.746667 44.367871 
L 276.915062 47.600163 
L 277.61 47.881784 
L 295.282004 60.808896 
L 277.61 64.936335 
L 253.746667 71.244644 
L 250.895235 76.198006 
L 253.746667 86.590635 
L 258.6246 93.757994 
L 277.61 103.354739 
L 290.622975 113.137869 
L 301.473333 119.224457 
L 304.937612 113.137869 
L 301.473333 101.089278 
L 293.338453 93.757994 
L 301.473333 78.388947 
L 301.819759 76.198006 
L 302.673164 60.808896 
L 305.313539 47.600163 
L 304.994944 36.380776 
L 305.254493 26.88 
L 307.521335 26.88 
z
M 250.924188 60.808896 
L 253.746667 63.732798 
L 277.61 61.853173 
L 282.081167 60.808896 
L 277.61 57.538227 
L 253.746667 48.477882 
z
M 194.668458 76.198006 
L 187.568639 93.757994 
L 206.02 98.264208 
L 218.921225 93.757994 
L 229.883333 90.95617 
L 246.570997 76.198006 
L 229.883333 67.41379 
L 206.02 72.684158 
z
M 189.91498 113.137869 
L 204.497806 133.590571 
L 206.02 134.607743 
L 229.883333 145.067668 
L 233.893554 133.590571 
L 229.883333 125.292474 
L 221.638518 113.137869 
L 206.02 103.490339 
z
M 163.339152 154.013971 
L 158.293333 157.308223 
L 148.36239 173.39493 
L 158.293333 185.556117 
L 165.493952 190.956403 
L 182.156667 203.03406 
L 186.401959 206.347113 
L 182.156667 213.969224 
L 167.024027 219.557363 
L 175.279485 230.778089 
L 182.156667 237.861381 
L 192.389312 230.778089 
L 206.02 226.386761 
L 217.046261 230.778089 
L 229.883333 234.918452 
L 236.913932 230.778089 
L 253.746667 224.743037 
L 277.143668 219.557363 
L 253.746667 207.072412 
L 250.928611 206.347113 
L 248.030738 190.956403 
L 253.746667 187.013855 
L 274.02918 173.39493 
L 253.746667 163.747045 
L 229.883333 158.751307 
L 212.540524 154.013971 
L 206.02 151.039789 
L 182.156667 136.770661 
z
M 241.070262 154.013971 
L 253.746667 157.616516 
L 263.522261 154.013971 
L 253.746667 150.921786 
z
M 281.686839 154.013971 
L 287.666191 173.39493 
L 301.473333 186.202442 
L 303.875322 173.39493 
L 309.035948 154.013971 
L 301.473333 143.057085 
z
M 126.424327 206.347113 
L 134.43 212.434941 
L 154.518063 206.347113 
L 134.43 200.693949 
z
M 201.793608 230.778089 
L 206.02 233.888956 
L 209.438852 230.778089 
L 206.02 229.416494 
z
M 182.156667 38.906648 
L 196.812606 47.600163 
L 182.156667 55.622159 
L 159.200759 47.600163 
z
M 165.193081 47.600163 
L 182.156667 53.528127 
L 192.986876 47.600163 
L 182.156667 41.17597 
z
M 134.43 91.641258 
L 136.476293 93.757994 
L 134.43 95.343852 
L 133.301424 93.757994 
z
M 206.02 158.154637 
L 213.399537 173.39493 
L 206.02 182.404359 
L 200.797597 173.39493 
z
M 229.883333 219.109586 
L 230.241127 219.557363 
L 229.883333 219.898068 
L 229.336735 219.557363 
z
" clip-path="url(#p29227b5a25)" style="fill: #1f988b"/>
    <path d="M 110.566667 32.680707 
L 112.158846 36.380776 
L 134.43 45.621428 
L 158.293333 43.68212 
L 182.156667 36.637326 
L 200.638337 47.600163 
L 182.156667 57.71619 
L 158.293333 50.722881 
L 134.43 52.313215 
L 110.566667 50.602315 
L 101.692294 60.808896 
L 108.886916 76.198006 
L 106.284493 93.757994 
L 107.928818 113.137869 
L 105.500131 133.590571 
L 105.751903 154.013971 
L 108.640658 173.39493 
L 110.566667 182.909368 
L 121.135293 173.39493 
L 129.581516 154.013971 
L 134.43 148.583007 
L 157.132516 133.590571 
L 145.827491 113.137869 
L 134.43 105.466097 
L 126.097925 93.757994 
L 134.43 78.130515 
L 149.537411 93.757994 
L 158.293333 102.423092 
L 164.910783 93.757994 
L 173.214917 76.198006 
L 182.156667 71.413839 
L 206.02 66.876361 
L 229.883333 62.86132 
L 236.421631 60.808896 
L 229.883333 51.112924 
L 225.386083 47.600163 
L 224.930231 36.380776 
L 229.883333 35.058715 
L 234.231634 36.380776 
L 253.746667 41.043475 
L 265.695456 36.380776 
L 253.746667 32.895049 
L 240.480416 26.88 
L 245.961643 26.88 
L 253.746667 30.409807 
L 274.214666 36.380776 
L 277.61 46.835159 
L 282.53208 36.380776 
L 280.456816 26.88 
L 293.056418 26.88 
L 294.882041 36.380776 
L 291.483438 47.600163 
L 301.473333 55.106992 
L 303.053362 47.600163 
L 302.698805 36.380776 
L 302.987652 26.88 
L 305.254493 26.88 
L 304.994944 36.380776 
L 305.313539 47.600163 
L 302.673164 60.808896 
L 301.819759 76.198006 
L 301.473333 78.388947 
L 293.338453 93.757994 
L 301.473333 101.089278 
L 304.937612 113.137869 
L 301.473333 119.224457 
L 290.622975 113.137869 
L 277.61 103.354739 
L 258.6246 93.757994 
L 253.746667 86.590635 
L 250.895235 76.198006 
L 253.746667 71.244644 
L 277.61 64.936335 
L 295.282004 60.808896 
L 277.61 47.881784 
L 276.915062 47.600163 
L 253.746667 44.367871 
L 239.64736 47.600163 
L 243.672909 60.808896 
L 229.883333 65.137555 
L 206.02 69.78026 
L 185.287371 76.198006 
L 182.156667 81.620011 
L 174.781964 93.757994 
L 162.142782 113.137869 
L 170.236686 133.590571 
L 158.293333 144.051086 
L 141.49411 154.013971 
L 134.43 169.596837 
L 133.345039 173.39493 
L 134.43 175.040358 
L 147.485106 190.956403 
L 134.43 195.457401 
L 119.00864 206.347113 
L 134.43 218.07412 
L 139.724111 219.557363 
L 158.293333 223.523511 
L 168.959023 230.778089 
L 158.366522 240.28 
L 158.293333 240.28 
L 134.43 240.28 
L 134.316451 240.28 
L 134.43 240.237802 
L 158.293333 234.653631 
L 162.638562 230.778089 
L 158.293333 227.822556 
L 134.43 224.88037 
L 120.013802 219.557363 
L 111.592954 206.347113 
L 110.566667 203.900218 
L 110.236329 206.347113 
L 109.452303 219.557363 
L 110.566667 225.954911 
L 117.925914 230.778089 
L 110.566667 233.85074 
L 108.854928 240.28 
L 106.608111 240.28 
L 108.968492 230.778089 
L 107.144895 219.557363 
L 107.849398 206.347113 
L 109.866194 190.956403 
L 106.415574 173.39493 
L 103.819823 154.013971 
L 103.593588 133.590571 
L 105.775936 113.137869 
L 104.298393 93.757994 
L 106.636855 76.198006 
L 100.171977 60.808896 
L 110.566667 48.85377 
L 129.407048 47.600163 
L 110.566667 42.040915 
L 108.750101 36.380776 
L 107.263364 26.88 
L 109.584145 26.88 
z
M 159.200759 47.600163 
L 182.156667 55.622159 
L 196.812606 47.600163 
L 182.156667 38.906648 
z
M 256.462024 76.198006 
L 269.350869 93.757994 
L 277.61 97.932822 
L 284.452276 93.757994 
L 295.582274 76.198006 
L 277.61 68.019497 
z
M 133.301424 93.757994 
L 134.43 95.343852 
L 136.476293 93.757994 
L 134.43 91.641258 
z
M 297.834908 113.137869 
L 301.473333 115.178871 
L 302.635002 113.137869 
L 301.473333 109.097643 
z
M 134.43 28.934107 
L 155.267834 26.88 
L 158.293333 26.88 
L 182.156667 26.88 
L 204.599719 26.88 
L 206.02 26.991185 
L 206.229415 26.88 
L 214.293228 26.88 
L 206.02 31.272515 
L 182.156667 34.852235 
L 158.293333 30.094638 
L 134.43 30.49285 
L 114.252244 26.88 
L 122.957818 26.88 
z
M 206.02 103.490339 
L 221.638518 113.137869 
L 229.883333 125.292474 
L 233.893554 133.590571 
L 229.883333 145.067668 
L 206.02 134.607743 
L 204.497806 133.590571 
L 189.91498 113.137869 
z
M 198.639177 113.137869 
L 206.02 122.836423 
L 213.177862 113.137869 
L 206.02 108.716471 
z
M 253.746667 150.921786 
L 263.522261 154.013971 
L 253.746667 157.616516 
L 241.070262 154.013971 
z
M 301.473333 143.057085 
L 309.035948 154.013971 
L 303.875322 173.39493 
L 301.473333 186.202442 
L 287.666191 173.39493 
L 281.686839 154.013971 
z
M 286.500928 154.013971 
L 301.473333 173.342261 
L 307.195951 154.013971 
L 301.473333 145.722915 
z
M 301.473333 215.216021 
L 305.47654 219.557363 
L 301.473333 229.025644 
L 290.013487 230.778089 
L 301.473333 232.721709 
L 304.496807 240.28 
L 302.144439 240.28 
L 301.473333 238.602323 
L 277.61 233.725843 
L 271.896114 230.778089 
L 253.746667 227.730617 
L 245.246774 230.778089 
L 229.883333 239.825714 
L 227.787812 240.28 
L 216.469751 240.28 
L 229.883333 237.372083 
L 241.080353 230.778089 
L 253.746667 226.236827 
L 277.61 227.662948 
L 285.786657 219.557363 
z
M 294.571122 219.557363 
L 301.473333 223.723451 
L 303.234763 219.557363 
L 301.473333 217.647152 
z
M 206.02 229.416494 
L 209.438852 230.778089 
L 206.02 233.888956 
L 201.793608 230.778089 
z
" clip-path="url(#p29227b5a25)" style="fill: #22a785"/>
    <path d="M 110.566667 26.88 
L 114.252244 26.88 
L 134.43 30.49285 
L 158.293333 30.094638 
L 182.156667 34.852235 
L 206.02 31.272515 
L 214.293228 26.88 
L 222.357042 26.88 
L 229.883333 30.828363 
L 234.99919 26.88 
L 240.480416 26.88 
L 253.746667 32.895049 
L 265.695456 36.380776 
L 253.746667 41.043475 
L 234.231634 36.380776 
L 229.883333 35.058715 
L 224.930231 36.380776 
L 225.386083 47.600163 
L 229.883333 51.112924 
L 236.421631 60.808896 
L 229.883333 62.86132 
L 206.02 66.876361 
L 182.156667 71.413839 
L 173.214917 76.198006 
L 164.910783 93.757994 
L 158.293333 102.423092 
L 149.537411 93.757994 
L 134.43 78.130515 
L 126.097925 93.757994 
L 134.43 105.466097 
L 145.827491 113.137869 
L 157.132516 133.590571 
L 134.43 148.583007 
L 129.581516 154.013971 
L 121.135293 173.39493 
L 110.566667 182.909368 
L 108.640658 173.39493 
L 105.751903 154.013971 
L 105.500131 133.590571 
L 107.928818 113.137869 
L 106.284493 93.757994 
L 108.886916 76.198006 
L 101.692294 60.808896 
L 110.566667 50.602315 
L 134.43 52.313215 
L 158.293333 50.722881 
L 182.156667 57.71619 
L 200.638337 47.600163 
L 182.156667 36.637326 
L 158.293333 43.68212 
L 134.43 45.621428 
L 112.158846 36.380776 
L 110.566667 32.680707 
L 109.584145 26.88 
z
M 118.05481 36.380776 
L 134.43 43.1751 
L 158.293333 39.064883 
L 167.741389 36.380776 
L 158.293333 34.069877 
L 134.43 32.051592 
z
M 201.752645 36.380776 
L 204.464068 47.600163 
L 182.156667 59.810221 
L 158.293333 54.402865 
L 134.43 58.140006 
L 110.566667 52.35086 
L 103.212611 60.808896 
L 110.566667 75.431778 
L 134.43 66.169183 
L 155.538321 76.198006 
L 158.293333 80.646956 
L 159.794407 76.198006 
L 182.156667 64.233368 
L 206.02 63.972463 
L 227.907862 60.808896 
L 211.619072 47.600163 
L 209.081207 36.380776 
L 206.02 35.553845 
z
M 248.145402 36.380776 
L 253.746667 37.719078 
L 257.176245 36.380776 
L 253.746667 35.380292 
z
M 108.270593 93.757994 
L 110.081701 113.137869 
L 107.406674 133.590571 
L 107.683983 154.013971 
L 110.566667 171.793249 
L 121.951192 154.013971 
L 134.43 140.036001 
L 144.190087 133.590571 
L 134.43 118.10809 
L 122.068797 113.137869 
L 118.894426 93.757994 
L 110.566667 79.355668 
z
M 301.473333 26.88 
L 302.987652 26.88 
L 302.698805 36.380776 
L 303.053362 47.600163 
L 301.473333 55.106992 
L 291.483438 47.600163 
L 294.882041 36.380776 
L 293.056418 26.88 
z
M 277.61 68.019497 
L 295.582274 76.198006 
L 284.452276 93.757994 
L 277.61 97.932822 
L 269.350869 93.757994 
L 256.462024 76.198006 
z
M 264.434459 76.198006 
L 277.61 91.612633 
L 288.807026 76.198006 
L 277.61 71.102658 
z
M 206.02 108.716471 
L 213.177862 113.137869 
L 206.02 122.836423 
L 198.639177 113.137869 
z
M 301.473333 109.097643 
L 302.635002 113.137869 
L 301.473333 115.178871 
L 297.834908 113.137869 
z
M 301.473333 145.722915 
L 307.195951 154.013971 
L 301.473333 173.342261 
L 286.500928 154.013971 
z
M 291.315016 154.013971 
L 301.473333 167.127622 
L 305.355953 154.013971 
L 301.473333 148.388744 
z
M 110.566667 203.900218 
L 111.592954 206.347113 
L 120.013802 219.557363 
L 134.43 224.88037 
L 158.293333 227.822556 
L 162.638562 230.778089 
L 158.293333 234.653631 
L 134.43 240.237802 
L 134.316451 240.28 
L 110.566667 240.28 
L 108.854928 240.28 
L 110.566667 233.85074 
L 117.925914 230.778089 
L 110.566667 225.954911 
L 109.452303 219.557363 
L 110.236329 206.347113 
z
M 301.473333 217.647152 
L 303.234763 219.557363 
L 301.473333 223.723451 
L 294.571122 219.557363 
z
M 253.746667 227.730617 
L 271.896114 230.778089 
L 277.61 233.725843 
L 301.473333 238.602323 
L 302.144439 240.28 
L 301.473333 240.28 
L 286.548645 240.28 
L 277.61 238.315421 
L 262.999739 230.778089 
L 253.746667 229.224406 
L 249.413195 230.778089 
L 243.735589 240.28 
L 229.883333 240.28 
L 227.787812 240.28 
L 229.883333 239.825714 
L 245.246774 230.778089 
z
" clip-path="url(#p29227b5a25)" style="fill: #32b67a"/>
    <path d="M 134.43 32.051592 
L 158.293333 34.069877 
L 167.741389 36.380776 
L 158.293333 39.064883 
L 134.43 43.1751 
L 118.05481 36.380776 
z
M 123.950774 36.380776 
L 134.43 40.728771 
L 153.743755 36.380776 
L 134.43 33.610335 
z
M 206.02 35.553845 
L 209.081207 36.380776 
L 211.619072 47.600163 
L 227.907862 60.808896 
L 206.02 63.972463 
L 182.156667 64.233368 
L 159.794407 76.198006 
L 158.293333 80.646956 
L 155.538321 76.198006 
L 134.43 66.169183 
L 110.566667 75.431778 
L 103.212611 60.808896 
L 110.566667 52.35086 
L 134.43 58.140006 
L 158.293333 54.402865 
L 182.156667 59.810221 
L 204.464068 47.600163 
L 201.752645 36.380776 
z
M 104.732929 60.808896 
L 110.566667 72.408763 
L 131.476678 60.808896 
L 110.566667 54.099406 
z
M 144.512351 60.808896 
L 158.293333 67.807302 
L 172.280149 60.808896 
L 158.293333 58.082849 
z
M 202.536145 60.808896 
L 206.02 61.068565 
L 207.816582 60.808896 
L 206.02 59.078846 
z
M 229.883333 26.88 
L 234.99919 26.88 
L 229.883333 30.828363 
L 222.357042 26.88 
z
M 253.746667 35.380292 
L 257.176245 36.380776 
L 253.746667 37.719078 
L 248.145402 36.380776 
z
M 277.61 71.102658 
L 288.807026 76.198006 
L 277.61 91.612633 
L 264.434459 76.198006 
z
M 272.406893 76.198006 
L 277.61 82.285342 
L 282.031778 76.198006 
L 277.61 74.18582 
z
M 110.566667 79.355668 
L 118.894426 93.757994 
L 122.068797 113.137869 
L 134.43 118.10809 
L 144.190087 133.590571 
L 134.43 140.036001 
L 121.951192 154.013971 
L 110.566667 171.793249 
L 107.683983 154.013971 
L 107.406674 133.590571 
L 110.081701 113.137869 
L 108.270593 93.757994 
z
M 110.256693 93.757994 
L 110.566667 97.007476 
L 111.690927 93.757994 
L 110.566667 91.813658 
z
M 109.313217 133.590571 
L 109.616063 154.013971 
L 110.566667 159.876928 
L 114.320867 154.013971 
L 127.934455 133.590571 
L 110.566667 124.201721 
z
M 301.473333 148.388744 
L 305.355953 154.013971 
L 301.473333 167.127622 
L 291.315016 154.013971 
z
M 296.129104 154.013971 
L 301.473333 160.912983 
L 303.515956 154.013971 
L 301.473333 151.054573 
z
M 253.746667 229.224406 
L 262.999739 230.778089 
L 277.61 238.315421 
L 286.548645 240.28 
L 277.61 240.28 
L 253.746667 240.28 
L 243.735589 240.28 
L 249.413195 230.778089 
z
M 253.579615 230.778089 
L 253.746667 231.622455 
L 254.103364 230.778089 
L 253.746667 230.718196 
z
" clip-path="url(#p29227b5a25)" style="fill: #4ec36b"/>
    <path d="M 134.43 33.610335 
L 153.743755 36.380776 
L 134.43 40.728771 
L 123.950774 36.380776 
z
M 129.846739 36.380776 
L 134.43 38.282443 
L 142.877188 36.380776 
L 134.43 35.169078 
z
M 110.566667 54.099406 
L 131.476678 60.808896 
L 110.566667 72.408763 
L 104.732929 60.808896 
z
M 106.253246 60.808896 
L 110.566667 69.385747 
L 126.027367 60.808896 
L 110.566667 55.847951 
z
M 158.293333 58.082849 
L 172.280149 60.808896 
L 158.293333 67.807302 
L 144.512351 60.808896 
z
M 206.02 59.078846 
L 207.816582 60.808896 
L 206.02 61.068565 
L 202.536145 60.808896 
z
M 277.61 74.18582 
L 282.031778 76.198006 
L 277.61 82.285342 
L 272.406893 76.198006 
z
M 110.566667 91.813658 
L 111.690927 93.757994 
L 110.566667 97.007476 
L 110.256693 93.757994 
z
M 110.566667 124.201721 
L 127.934455 133.590571 
L 114.320867 154.013971 
L 110.566667 159.876928 
L 109.616063 154.013971 
L 109.313217 133.590571 
z
M 301.473333 151.054573 
L 303.515956 154.013971 
L 301.473333 160.912983 
L 296.129104 154.013971 
z
M 300.943193 154.013971 
L 301.473333 154.698345 
L 301.675959 154.013971 
L 301.473333 153.720403 
z
M 253.746667 230.718196 
L 254.103364 230.778089 
L 253.746667 231.622455 
L 253.579615 230.778089 
z
" clip-path="url(#p29227b5a25)" style="fill: #70cf57"/>
    <path d="M 134.43 35.169078 
L 142.877188 36.380776 
L 134.43 38.282443 
L 129.846739 36.380776 
z
M 110.566667 55.847951 
L 126.027367 60.808896 
L 110.566667 69.385747 
L 106.253246 60.808896 
z
M 107.773564 60.808896 
L 110.566667 66.362732 
L 120.578055 60.808896 
L 110.566667 57.596496 
z
M 301.473333 153.720403 
L 301.675959 154.013971 
L 301.473333 154.698345 
L 300.943193 154.013971 
z
" clip-path="url(#p29227b5a25)" style="fill: #98d83e"/>
    <path d="M 110.566667 57.596496 
L 120.578055 60.808896 
L 110.566667 66.362732 
L 107.773564 60.808896 
z
M 109.293881 60.808896 
L 110.566667 63.339716 
L 115.128744 60.808896 
L 110.566667 59.345041 
z
" clip-path="url(#p29227b5a25)" style="fill: #c2df23"/>
    <path d="M 110.566667 59.345041 
L 115.128744 60.808896 
L 110.566667 63.339716 
L 109.293881 60.808896 
z
" clip-path="url(#p29227b5a25)" style="fill: #ece51b"/>
   </g>
   <g id="matplotlib.axis_1">
    <g id="xtick_1">
     <g id="line2d_1">
      <defs>
       <path id="m4d795b7385" d="M 0 0 
L 0 3.5 
" style="stroke: #000000; stroke-width: 0.8"/>
      </defs>
      <g>
       <use xlink:href="#m4d795b7385" x="126.475556" y="240.28" style="stroke: #000000; stroke-width: 0.8"/>
      </g>
     </g>
     <g id="text_1">
      <!-- −50 -->
      <g transform="translate(113.812743 256.398125) scale(0.12 -0.12)">
       <defs>
        <path id="DejaVuSans-2212" d="M 678 2272 
L 4684 2272 
L 4684 1741 
L 678 1741 
L 678 2272 
z
" transform="scale(0.015625)"/>
        <path id="DejaVuSans-35" d="M 691 4666 
L 3169 4666 
L 3169 4134 
L 1269 4134 
L 1269 2991 
Q 1406 3038 1543 3061 
Q 1681 3084 1819 3084 
Q 2600 3084 3056 2656 
Q 3513 2228 3513 1497 
Q 3513 744 3044 326 
Q 2575 -91 1722 -91 
Q 1428 -91 1123 -41 
Q 819 9 494 109 
L 494 744 
Q 775 591 1075 516 
Q 1375 441 1709 441 
Q 2250 441 2565 725 
Q 2881 1009 2881 1497 
Q 2881 1984 2565 2268 
Q 2250 2553 1709 2553 
Q 1456 2553 1204 2497 
Q 953 2441 691 2322 
L 691 4666 
z
" transform="scale(0.015625)"/>
        <path id="DejaVuSans-30" d="M 2034 4250 
Q 1547 4250 1301 3770 
Q 1056 3291 1056 2328 
Q 1056 1369 1301 889 
Q 1547 409 2034 409 
Q 2525 409 2770 889 
Q 3016 1369 3016 2328 
Q 3016 3291 2770 3770 
Q 2525 4250 2034 4250 
z
M 2034 4750 
Q 2819 4750 3233 4129 
Q 3647 3509 3647 2328 
Q 3647 1150 3233 529 
Q 2819 -91 2034 -91 
Q 1250 -91 836 529 
Q 422 1150 422 2328 
Q 422 3509 836 4129 
Q 1250 4750 2034 4750 
z
" transform="scale(0.015625)"/>
       </defs>
       <use xlink:href="#DejaVuSans-2212"/>
       <use xlink:href="#DejaVuSans-35" transform="translate(83.789062 0)"/>
       <use xlink:href="#DejaVuSans-30" transform="translate(147.412109 0)"/>
      </g>
     </g>
    </g>
    <g id="xtick_2">
     <g id="line2d_2">
      <g>
       <use xlink:href="#m4d795b7385" x="206.02" y="240.28" style="stroke: #000000; stroke-width: 0.8"/>
      </g>
     </g>
     <g id="text_2">
      <!-- 0 -->
      <g transform="translate(202.2025 256.398125) scale(0.12 -0.12)">
       <use xlink:href="#DejaVuSans-30"/>
      </g>
     </g>
    </g>
    <g id="xtick_3">
     <g id="line2d_3">
      <g>
       <use xlink:href="#m4d795b7385" x="285.564444" y="240.28" style="stroke: #000000; stroke-width: 0.8"/>
      </g>
     </g>
     <g id="text_3">
      <!-- 50 -->
      <g transform="translate(277.929444 256.398125) scale(0.12 -0.12)">
       <use xlink:href="#DejaVuSans-35"/>
       <use xlink:href="#DejaVuSans-30" transform="translate(63.623047 0)"/>
      </g>
     </g>
    </g>
    <g id="text_4">
     <!-- $\Theta^{\circ}$ -->
     <g transform="translate(198.4 272.011875) scale(0.12 -0.12)">
      <defs>
       <path id="DejaVuSans-398" d="M 1416 2750 
L 3622 2750 
L 3622 2219 
L 1416 2219 
L 1416 2750 
z
M 2522 4238 
Q 1834 4238 1431 3725 
Q 1025 3213 1025 2328 
Q 1025 1447 1429 934 
Q 1834 422 2522 422 
Q 3209 422 3613 934 
Q 4013 1447 4013 2328 
Q 4013 3213 3613 3725 
Q 3209 4238 2522 4238 
z
M 2522 4750 
Q 3503 4750 4090 4092 
Q 4678 3434 4678 2328 
Q 4678 1225 4091 569 
Q 3503 -91 2522 -91 
Q 1538 -91 950 566 
Q 359 1222 359 2328 
Q 359 3434 950 4094 
Q 1538 4750 2522 4750 
z
" transform="scale(0.015625)"/>
       <path id="DejaVuSans-2218" d="M 2000 2619 
Q 1750 2619 1578 2445 
Q 1406 2272 1406 2022 
Q 1406 1775 1578 1605 
Q 1750 1435 2000 1435 
Q 2250 1435 2422 1605 
Q 2594 1775 2594 2022 
Q 2594 2269 2420 2444 
Q 2247 2619 2000 2619 
z
M 2000 3022 
Q 2200 3022 2384 2945 
Q 2569 2869 2703 2725 
Q 2847 2585 2919 2406 
Q 2991 2228 2991 2022 
Q 2991 1610 2702 1324 
Q 2413 1038 1994 1038 
Q 1572 1038 1290 1319 
Q 1009 1600 1009 2022 
Q 1009 2441 1296 2731 
Q 1584 3022 2000 3022 
z
" transform="scale(0.015625)"/>
      </defs>
      <use xlink:href="#DejaVuSans-398" transform="translate(0 0.78125)"/>
      <use xlink:href="#DejaVuSans-2218" transform="translate(79.667969 39.0625) scale(0.7)"/>
     </g>
    </g>
   </g>
   <g id="matplotlib.axis_2">
    <g id="ytick_1">
     <g id="line2d_4">
      <defs>
       <path id="mbefb11aa29" d="M 0 0 
L -3.5 0 
" style="stroke: #000000; stroke-width: 0.8"/>
      </defs>
      <g>
       <use xlink:href="#mbefb11aa29" x="62.84" y="219.984151" style="stroke: #000000; stroke-width: 0.8"/>
      </g>
     </g>
     <g id="text_5">
      <!-- −40 -->
      <g transform="translate(30.514375 224.543214) scale(0.12 -0.12)">
       <defs>
        <path id="DejaVuSans-34" d="M 2419 4116 
L 825 1625 
L 2419 1625 
L 2419 4116 
z
M 2253 4666 
L 3047 4666 
L 3047 1625 
L 3713 1625 
L 3713 1100 
L 3047 1100 
L 3047 0 
L 2419 0 
L 2419 1100 
L 313 1100 
L 313 1709 
L 2253 4666 
z
" transform="scale(0.015625)"/>
       </defs>
       <use xlink:href="#DejaVuSans-2212"/>
       <use xlink:href="#DejaVuSans-34" transform="translate(83.789062 0)"/>
       <use xlink:href="#DejaVuSans-30" transform="translate(147.412109 0)"/>
      </g>
     </g>
    </g>
    <g id="ytick_2">
     <g id="line2d_5">
      <g>
       <use xlink:href="#mbefb11aa29" x="62.84" y="176.783648" style="stroke: #000000; stroke-width: 0.8"/>
      </g>
     </g>
     <g id="text_6">
      <!-- −20 -->
      <g transform="translate(30.514375 181.342711) scale(0.12 -0.12)">
       <defs>
        <path id="DejaVuSans-32" d="M 1228 531 
L 3431 531 
L 3431 0 
L 469 0 
L 469 531 
Q 828 903 1448 1529 
Q 2069 2156 2228 2338 
Q 2531 2678 2651 2914 
Q 2772 3150 2772 3378 
Q 2772 3750 2511 3984 
Q 2250 4219 1831 4219 
Q 1534 4219 1204 4116 
Q 875 4013 500 3803 
L 500 4441 
Q 881 4594 1212 4672 
Q 1544 4750 1819 4750 
Q 2544 4750 2975 4387 
Q 3406 4025 3406 3419 
Q 3406 3131 3298 2873 
Q 3191 2616 2906 2266 
Q 2828 2175 2409 1742 
Q 1991 1309 1228 531 
z
" transform="scale(0.015625)"/>
       </defs>
       <use xlink:href="#DejaVuSans-2212"/>
       <use xlink:href="#DejaVuSans-32" transform="translate(83.789062 0)"/>
       <use xlink:href="#DejaVuSans-30" transform="translate(147.412109 0)"/>
      </g>
     </g>
    </g>
    <g id="ytick_3">
     <g id="line2d_6">
      <g>
       <use xlink:href="#mbefb11aa29" x="62.84" y="133.583145" style="stroke: #000000; stroke-width: 0.8"/>
      </g>
     </g>
     <g id="text_7">
      <!-- 0 -->
      <g transform="translate(48.205 138.142208) scale(0.12 -0.12)">
       <use xlink:href="#DejaVuSans-30"/>
      </g>
     </g>
    </g>
    <g id="ytick_4">
     <g id="line2d_7">
      <g>
       <use xlink:href="#mbefb11aa29" x="62.84" y="90.382642" style="stroke: #000000; stroke-width: 0.8"/>
      </g>
     </g>
     <g id="text_8">
      <!-- 20 -->
      <g transform="translate(40.57 94.941704) scale(0.12 -0.12)">
       <use xlink:href="#DejaVuSans-32"/>
       <use xlink:href="#DejaVuSans-30" transform="translate(63.623047 0)"/>
      </g>
     </g>
    </g>
    <g id="ytick_5">
     <g id="line2d_8">
      <g>
       <use xlink:href="#mbefb11aa29" x="62.84" y="47.182139" style="stroke: #000000; stroke-width: 0.8"/>
      </g>
     </g>
     <g id="text_9">
      <!-- 40 -->
      <g transform="translate(40.57 51.741201) scale(0.12 -0.12)">
       <use xlink:href="#DejaVuSans-34"/>
       <use xlink:href="#DejaVuSans-30" transform="translate(63.623047 0)"/>
      </g>
     </g>
    </g>
    <g id="text_10">
     <!-- $\phi^{\circ}$ -->
     <g transform="translate(23.784375 141.38) rotate(-90) scale(0.13 -0.13)">
      <defs>
       <path id="DejaVuSans-Oblique-3d5" d="M 2991 4863 
L 2738 3572 
Q 3363 3572 3684 3094 
Q 4016 2606 3850 1747 
Q 3681 888 3159 400 
Q 2653 -78 2028 -78 
L 1784 -1331 
L 1213 -1331 
L 1456 -78 
Q 834 -78 509 400 
Q 178 888 347 1747 
Q 513 2606 1034 3094 
Q 1544 3572 2166 3572 
L 2419 4863 
L 2991 4863 
z
M 2128 434 
Q 2481 434 2784 756 
Q 3116 1116 3244 1747 
Q 3369 2372 3169 2738 
Q 2991 3059 2638 3059 
L 2128 434 
z
M 1556 434 
L 2066 3059 
Q 1716 3059 1413 2738 
Q 1072 2372 953 1747 
Q 834 1116 1028 756 
Q 1203 434 1556 434 
z
" transform="scale(0.015625)"/>
      </defs>
      <use xlink:href="#DejaVuSans-Oblique-3d5" transform="translate(0 0.015625)"/>
      <use xlink:href="#DejaVuSans-2218" transform="translate(73.414505 38.296875) scale(0.7)"/>
     </g>
    </g>
   </g>
   <g id="QuadContourSet_2">
    <path clip-path="url(#p29227b5a25)" style="fill: none; stroke-dasharray: 1.85,0.8; stroke-dashoffset: 0; stroke: #000000; stroke-width: 0.5"/>
    <path d="M 323.389224 26.88 
L 323.364055 36.380776 
L 323.39495 47.600163 
L 323.138903 60.808896 
L 323.056145 76.198006 
L 322.755864 93.757994 
L 323.358495 113.137869 
L 322.674649 120.561397 
M 322.927384 146.597105 
L 323.755926 154.013971 
L 323.255481 173.39493 
L 322.922247 190.956403 
L 321.402523 206.347113 
L 323.410757 219.557363 
L 322.932871 230.778089 
L 323.315748 240.28 
M 88.633573 240.28 
L 88.862468 230.778089 
L 88.685627 219.557363 
L 88.753945 206.347113 
L 88.949521 190.956403 
L 88.614902 173.39493 
L 88.363183 154.013971 
L 88.355292 146.668243 
M 88.476556 120.513508 
L 88.552874 113.137869 
L 88.409591 93.757994 
L 88.63636 76.198006 
L 88.009437 60.808896 
L 89.221214 47.600163 
L 88.84129 36.380776 
L 88.697115 26.88 
" clip-path="url(#p29227b5a25)" style="fill: none; stroke-dasharray: 1.85,0.8; stroke-dashoffset: 0; stroke: #000000; stroke-width: 0.5"/>
    <path d="M 321.122383 26.88 
L 321.067916 36.380776 
L 321.134774 47.600163 
L 320.580686 60.808896 
L 320.401597 76.198006 
L 319.751786 93.757994 
L 321.055885 113.137869 
L 319.54133 120.73549 
M 320.061953 146.344758 
L 321.915929 154.013971 
L 320.832961 173.39493 
L 320.11184 190.956403 
L 316.823144 206.347113 
L 321.16898 219.557363 
L 320.13483 230.778089 
L 320.963381 240.28 
M 90.88039 240.28 
L 91.375721 230.778089 
L 90.993035 219.557363 
L 91.140877 206.347113 
L 91.564106 190.956403 
L 90.839986 173.39493 
L 90.295263 154.013971 
L 90.278187 146.668218 
M 90.540553 120.515773 
L 90.705757 113.137869 
L 90.395691 93.757994 
L 90.886422 76.198006 
L 89.529755 60.808896 
L 92.152051 47.600163 
L 91.329891 36.380776 
L 91.017896 26.88 
" clip-path="url(#p29227b5a25)" style="fill: none; stroke-dasharray: 1.85,0.8; stroke-dashoffset: 0; stroke: #000000; stroke-width: 0.5"/>
    <path d="M 318.855541 26.88 
L 318.771777 36.380776 
L 318.874597 47.600163 
L 318.022468 60.808896 
L 317.747049 76.198006 
L 316.747708 93.757994 
L 318.753274 113.137869 
L 316.349035 120.980174 
M 317.089274 145.980456 
L 320.075931 154.013971 
L 318.410441 173.39493 
L 317.301434 190.956403 
L 312.243764 206.347113 
L 318.927203 219.557363 
L 317.336789 230.778089 
L 318.611013 240.28 
M 93.127208 240.28 
L 93.888974 230.778089 
L 93.300444 219.557363 
L 93.527808 206.347113 
L 94.17869 190.956403 
L 93.06507 173.39493 
L 92.227343 154.013971 
L 92.201236 146.711479 
M 92.605929 120.476422 
L 92.858639 113.137869 
L 92.381792 93.757994 
L 93.136484 76.198006 
L 91.050072 60.808896 
L 95.082888 47.600163 
L 93.818493 36.380776 
L 93.338677 26.88 
" clip-path="url(#p29227b5a25)" style="fill: none; stroke-dasharray: 1.85,0.8; stroke-dashoffset: 0; stroke: #000000; stroke-width: 0.5"/>
    <path d="M 316.5887 26.88 
L 316.475638 36.380776 
L 316.614421 47.600163 
L 315.464251 60.808896 
L 315.092501 76.198006 
L 313.74363 93.757994 
L 316.450664 113.137869 
L 313.03249 121.398316 
M 313.925429 145.424 
L 318.235934 154.013971 
L 315.987921 173.39493 
L 314.491027 190.956403 
L 307.664384 206.347113 
L 316.685426 219.557363 
L 314.538748 230.778089 
L 316.258645 240.28 
M 95.374025 240.28 
L 96.402227 230.778089 
L 95.607852 219.557363 
L 95.91474 206.347113 
L 96.793274 190.956403 
L 95.290154 173.39493 
L 94.159423 154.013971 
L 94.123976 146.668115 
M 94.668152 120.525292 
L 95.011522 113.137869 
L 94.367892 93.757994 
L 95.386546 76.198006 
L 92.57039 60.808896 
L 98.013725 47.600163 
L 96.307094 36.380776 
L 95.659458 26.88 
" clip-path="url(#p29227b5a25)" style="fill: none; stroke-dasharray: 1.85,0.8; stroke-dashoffset: 0; stroke: #000000; stroke-width: 0.5"/>
    <path d="M 314.321859 26.88 
L 314.179499 36.380776 
L 314.354244 47.600163 
L 312.906033 60.808896 
L 312.437952 76.198006 
L 310.739552 93.757994 
L 314.148054 113.137869 
L 309.634289 121.801071 
M 310.62438 144.879432 
L 316.395937 154.013971 
L 313.565402 173.39493 
L 311.68062 190.956403 
L 303.085004 206.347113 
L 314.443649 219.557363 
L 311.740707 230.778089 
L 313.906278 240.28 
M 97.620842 240.28 
L 98.91548 230.778089 
L 97.915261 219.557363 
L 98.301672 206.347113 
L 99.407858 190.956403 
L 97.515238 173.39493 
L 96.091503 154.013971 
L 96.047134 146.71134 
M 96.734165 120.489297 
L 97.164405 113.137869 
L 96.353992 93.757994 
L 97.636608 76.198006 
L 94.090707 60.808896 
L 100.944562 47.600163 
L 98.795695 36.380776 
L 97.980239 26.88 
M 229.883333 74.242494 
L 222.144352 76.198006 
L 229.883333 79.483418 
L 233.598284 76.198006 
L 229.883333 74.242494 
z
M 253.746667 217.861687 
L 250.554201 219.557363 
L 253.746667 220.261669 
L 256.924391 219.557363 
L 253.746667 217.861687 
z
" clip-path="url(#p29227b5a25)" style="fill: none; stroke-dasharray: 1.85,0.8; stroke-dashoffset: 0; stroke: #000000; stroke-width: 0.5"/>
    <path d="M 312.055017 26.88 
L 311.88336 36.380776 
L 312.094068 47.600163 
L 310.347816 60.808896 
L 309.783404 76.198006 
L 307.735474 93.757994 
L 311.845443 113.137869 
L 302.590686 129.398077 
M 309.051418 146.038897 
L 314.55594 154.013971 
L 311.142882 173.39493 
L 308.870213 190.956403 
L 301.473333 203.30625 
L 296.033617 206.347113 
L 301.473333 207.922629 
L 312.201871 219.557363 
L 308.942667 230.778089 
L 311.55391 240.28 
M 99.867659 240.28 
L 101.428733 230.778089 
L 100.222669 219.557363 
L 100.688603 206.347113 
L 102.022442 190.956403 
L 99.740322 173.39493 
L 98.023583 154.013971 
L 97.969765 146.667941 
M 98.794826 120.541423 
L 99.317288 113.137869 
L 98.340092 93.757994 
L 99.886669 76.198006 
L 95.611024 60.808896 
L 103.875399 47.600163 
L 101.284297 36.380776 
L 100.301021 26.88 
M 182.156667 45.714614 
L 177.177726 47.600163 
L 182.156667 49.340065 
L 185.335415 47.600163 
L 182.156667 45.714614 
M 235.396268 74.868212 
L 229.883333 71.966259 
L 213.136106 76.198006 
L 217.176725 77.913361 
M 253.746667 124.664564 
L 251.976739 133.590571 
L 253.746667 135.135668 
L 256.982694 133.590571 
L 253.746667 124.664564 
z
M 182.156667 169.502986 
L 176.939119 173.39493 
L 182.156667 177.274832 
L 185.119216 173.39493 
L 182.156667 169.502986 
z
M 206.02 217.173331 
L 203.159368 219.557363 
L 206.02 220.327295 
L 208.648681 219.557363 
L 206.02 217.173331 
z
M 253.746667 214.265262 
L 243.783176 219.557363 
L 253.746667 221.755458 
L 263.66415 219.557363 
L 253.746667 214.265262 
z
" clip-path="url(#p29227b5a25)" style="fill: none; stroke-dasharray: 1.85,0.8; stroke-dashoffset: 0; stroke: #000000; stroke-width: 0.5"/>
    <path d="M 309.788176 26.88 
L 309.587221 36.380776 
L 309.833891 47.600163 
L 307.789599 60.808896 
L 307.128856 76.198006 
L 304.731396 93.757994 
L 309.542833 113.137869 
L 301.473333 127.315631 
L 286.195831 133.590571 
L 288.027659 134.086355 
M 309.076511 148.741082 
L 312.715942 154.013971 
L 308.720362 173.39493 
L 306.059806 190.956403 
L 301.473333 198.613988 
L 287.639759 206.347113 
L 301.473333 210.35376 
L 309.960094 219.557363 
L 306.144626 230.778089 
L 309.201542 240.28 
M 102.114476 240.28 
L 103.941986 230.778089 
L 102.530078 219.557363 
L 103.075535 206.347113 
L 104.637026 190.956403 
L 101.965406 173.39493 
L 99.955663 154.013971 
L 99.89303 146.711129 
M 100.861235 120.508771 
L 101.47017 113.137869 
L 100.326192 93.757994 
L 102.136731 76.198006 
L 97.131342 60.808896 
L 106.806236 47.600163 
L 103.772898 36.380776 
L 102.621802 26.88 
M 182.156667 43.445292 
L 171.185404 47.600163 
L 182.156667 51.434096 
L 189.161145 47.600163 
L 182.156667 43.445292 
z
M 240.063649 78.128696 
L 242.24676 76.198006 
L 229.883333 69.690024 
L 206.02 75.588056 
L 204.049546 76.198006 
L 206.02 86.80297 
L 215.890155 86.939027 
M 266.21736 134.44336 
L 268.003427 133.590571 
L 271.892008 113.137869 
L 253.746667 107.583362 
L 244.748 113.137869 
L 245.76539 130.463591 
M 182.156667 159.204529 
L 163.132987 173.39493 
L 171.192068 179.387869 
M 190.303019 176.872558 
L 192.958407 173.39493 
L 182.156667 159.204529 
M 229.883333 168.5919 
L 224.476736 173.39493 
L 216.796749 190.956403 
L 211.587864 206.347113 
L 206.02 207.792017 
L 191.902598 219.557363 
L 206.02 223.357028 
L 218.992708 219.557363 
L 228.298338 211.93413 
M 250.634789 222.562721 
L 253.746667 223.249248 
L 270.403909 219.557363 
L 253.746667 210.668837 
L 236.955185 206.347113 
L 235.484354 190.956403 
L 253.746667 178.360019 
L 261.141118 173.39493 
L 253.746667 169.877574 
L 229.883333 168.5919 
M 134.43 205.930496 
L 133.840013 206.347113 
L 134.43 206.795762 
L 135.910412 206.347113 
L 134.43 205.930496 
M 182.156667 229.741942 
L 181.599947 230.778089 
L 182.156667 231.351494 
L 182.985017 230.778089 
L 182.156667 229.741942 
z
M 229.883333 226.345704 
L 224.65367 230.778089 
L 229.883333 232.464821 
L 232.747512 230.778089 
L 229.883333 226.345704 
z
" clip-path="url(#p29227b5a25)" style="fill: none; stroke-dasharray: 1.85,0.8; stroke-dashoffset: 0; stroke: #000000; stroke-width: 0.5"/>
    <path d="M 131.663392 26.88 
L 134.43 27.375364 
L 139.45521 26.88 
M 251.442869 26.88 
L 253.746667 27.924565 
L 262.144392 26.88 
M 307.521335 26.88 
L 307.291082 36.380776 
L 307.573715 47.600163 
L 305.231381 60.808896 
L 304.474308 76.198006 
L 301.727318 93.757994 
L 307.240223 113.137869 
L 301.473333 123.270044 
L 283.411042 113.137869 
L 277.61 108.776657 
L 253.746667 98.636264 
L 230.253113 113.137869 
L 234.250833 121.594918 
M 250.163566 142.531799 
L 253.746667 145.659747 
L 277.61 142.901565 
L 301.473333 140.391256 
L 310.875945 154.013971 
L 306.297842 173.39493 
L 303.249399 190.956403 
L 301.473333 193.921726 
L 279.245901 206.347113 
L 301.473333 212.784891 
L 307.718317 219.557363 
L 303.346585 230.778089 
L 306.849174 240.28 
M 104.361294 240.28 
L 106.455239 230.778089 
L 104.837486 219.557363 
L 105.462466 206.347113 
L 107.25161 190.956403 
L 104.19049 173.39493 
L 101.887743 154.013971 
L 101.815978 146.710996 
M 102.924186 120.520957 
L 103.623053 113.137869 
L 102.312292 93.757994 
L 104.386793 76.198006 
L 98.651659 60.808896 
L 109.737073 47.600163 
L 106.2615 36.380776 
L 104.942583 26.88 
M 191.758177 46.871331 
L 182.156667 41.17597 
L 165.193081 47.600163 
L 169.043235 48.945608 
M 274.165848 56.230563 
L 253.746667 48.477882 
L 250.924188 60.808896 
L 253.746667 63.732798 
L 263.664436 62.951612 
M 231.798356 89.26257 
L 246.570997 76.198006 
L 229.883333 67.41379 
L 206.02 72.684158 
L 194.668458 76.198006 
L 187.568639 93.757994 
L 205.80007 98.210496 
M 218.951554 231.392606 
L 229.883333 234.918452 
L 236.913932 230.778089 
L 253.746667 224.743037 
L 277.143668 219.557363 
L 253.746667 207.072412 
L 250.928611 206.347113 
L 248.030738 190.956403 
L 253.746667 187.013855 
L 274.02918 173.39493 
L 253.746667 163.747045 
L 229.883333 158.751307 
L 212.540524 154.013971 
L 206.02 151.039789 
L 182.156667 136.770661 
L 163.339152 154.013971 
L 158.293333 157.308223 
L 148.36239 173.39493 
L 158.293333 185.556117 
L 165.493952 190.956403 
L 182.156667 203.03406 
L 186.401959 206.347113 
L 182.156667 213.969224 
L 167.024027 219.557363 
L 175.279485 230.778089 
L 182.156667 237.861381 
L 192.389312 230.778089 
L 192.784869 230.650654 
M 201.732946 170.665345 
L 206.02 158.154637 
L 212.622925 171.791063 
M 134.43 200.693949 
L 129.369287 204.267544 
M 147.746311 208.39934 
L 154.518063 206.347113 
L 134.43 200.693949 
M 229.883333 219.109586 
L 230.241127 219.557363 
L 229.883333 219.898068 
L 229.336735 219.557363 
L 229.883333 219.109586 
z
" clip-path="url(#p29227b5a25)" style="fill: none; stroke-dasharray: 1.85,0.8; stroke-dashoffset: 0; stroke: #000000; stroke-width: 0.5"/>
    <path d="M 148.347974 27.562131 
L 155.267834 26.88 
M 204.599719 26.88 
L 206.02 26.991185 
L 206.229415 26.88 
M 245.961643 26.88 
L 253.746667 30.409807 
L 271.981584 35.729336 
M 282.169717 34.72184 
L 280.456816 26.88 
M 305.254493 26.88 
L 304.994944 36.380776 
L 305.313539 47.600163 
L 302.673164 60.808896 
L 301.819759 76.198006 
L 301.473333 78.388947 
L 293.338453 93.757994 
L 301.473333 101.089278 
L 304.937612 113.137869 
L 301.473333 119.224457 
L 290.622975 113.137869 
L 277.61 103.354739 
L 258.6246 93.757994 
L 253.746667 86.590635 
L 250.895235 76.198006 
L 253.746667 71.244644 
L 277.61 64.936335 
L 295.282004 60.808896 
L 277.61 47.881784 
L 276.915062 47.600163 
L 253.746667 44.367871 
L 239.64736 47.600163 
L 243.672909 60.808896 
L 229.883333 65.137555 
L 206.02 69.78026 
L 185.287371 76.198006 
L 182.156667 81.620011 
L 174.781964 93.757994 
L 162.142782 113.137869 
L 170.236686 133.590571 
L 158.293333 144.051086 
L 141.49411 154.013971 
L 134.43 169.596837 
L 133.345039 173.39493 
L 134.43 175.040358 
L 147.485106 190.956403 
L 134.43 195.457401 
L 119.00864 206.347113 
L 134.43 218.07412 
L 139.724111 219.557363 
L 144.648236 220.609093 
M 168.368059 231.308208 
L 158.366522 240.28 
M 106.608111 240.28 
L 108.968492 230.778089 
L 107.144895 219.557363 
L 107.849398 206.347113 
L 109.866194 190.956403 
L 106.415574 173.39493 
L 103.819823 154.013971 
L 103.593588 133.590571 
L 104.382852 126.193682 
M 104.778124 100.05028 
L 104.298393 93.757994 
L 106.636855 76.198006 
L 100.171977 60.808896 
L 110.566667 48.85377 
L 129.407048 47.600163 
L 110.566667 42.040915 
L 108.750101 36.380776 
L 107.263364 26.88 
M 216.469751 240.28 
L 229.883333 237.372083 
L 241.080353 230.778089 
L 253.746667 226.236827 
L 277.61 227.662948 
L 285.786657 219.557363 
L 288.051184 218.930647 
M 302.575015 226.419976 
L 301.473333 229.025644 
L 290.013487 230.778089 
L 301.473333 232.721709 
L 304.496807 240.28 
M 182.156667 38.906648 
L 159.200759 47.600163 
L 169.043235 51.039639 
M 194.242518 49.006912 
L 196.812606 47.600163 
L 182.156667 38.906648 
M 134.43 91.641258 
L 133.301424 93.757994 
L 134.43 95.343852 
L 136.476293 93.757994 
L 134.43 91.641258 
M 217.205699 139.510729 
L 206.02 134.607743 
L 204.497806 133.590571 
L 189.91498 113.137869 
L 206.02 103.490339 
L 221.638518 113.137869 
L 229.883333 125.292474 
L 233.434117 132.639886 
M 253.746667 150.921786 
L 263.522261 154.013971 
L 253.746667 157.616516 
L 241.070262 154.013971 
L 253.746667 150.921786 
z
M 291.524849 176.974223 
L 287.666191 173.39493 
L 281.686839 154.013971 
L 301.473333 143.057085 
L 309.035948 154.013971 
L 303.905544 173.28143 
M 206.02 229.416494 
L 209.438852 230.778089 
L 206.02 233.888956 
L 201.793608 230.778089 
L 206.02 229.416494 
z
" clip-path="url(#p29227b5a25)" style="fill: none; stroke-dasharray: 1.85,0.8; stroke-dashoffset: 0; stroke: #000000; stroke-width: 0.5"/>
    <path d="M 114.252244 26.88 
L 134.43 30.49285 
L 158.293333 30.094638 
L 168.422861 32.114147 
M 196.021204 32.772427 
L 206.02 31.272515 
L 214.293228 26.88 
M 240.480416 26.88 
L 253.746667 32.895049 
L 265.695456 36.380776 
L 253.746667 41.043475 
L 234.231634 36.380776 
L 229.883333 35.058715 
L 224.930231 36.380776 
L 225.386083 47.600163 
L 229.883333 51.112924 
L 236.421631 60.808896 
L 229.883333 62.86132 
L 206.02 66.876361 
L 182.156667 71.413839 
L 173.214917 76.198006 
L 170.60188 81.723555 
M 156.454308 100.603143 
L 149.537411 93.757994 
L 134.43 78.130515 
L 126.097925 93.757994 
L 134.43 105.466097 
L 145.827491 113.137869 
L 157.132516 133.590571 
L 134.43 148.583007 
L 129.581516 154.013971 
L 121.135293 173.39493 
L 110.566667 182.909368 
L 108.640658 173.39493 
L 105.751903 154.013971 
L 105.500131 133.590571 
L 107.928818 113.137869 
L 106.284493 93.757994 
L 108.886916 76.198006 
L 101.692294 60.808896 
L 110.566667 50.602315 
L 134.43 52.313215 
L 158.293333 50.722881 
L 182.156667 57.71619 
L 200.638337 47.600163 
L 182.156667 36.637326 
L 158.293333 43.68212 
L 134.43 45.621428 
L 112.158846 36.380776 
L 110.566667 32.680707 
L 109.584145 26.88 
M 302.987652 26.88 
L 302.698805 36.380776 
L 302.879226 42.089896 
M 291.821756 46.483314 
L 294.882041 36.380776 
L 293.056418 26.88 
M 108.854928 240.28 
L 110.566667 233.85074 
L 117.925914 230.778089 
L 110.566667 225.954911 
L 109.452303 219.557363 
L 109.7582 214.403231 
M 118.7961 217.647087 
L 120.013802 219.557363 
L 134.43 224.88037 
L 158.293333 227.822556 
L 162.638562 230.778089 
L 158.293333 234.653631 
L 134.43 240.237802 
L 134.316451 240.28 
M 227.787812 240.28 
L 229.883333 239.825714 
L 245.246774 230.778089 
L 253.746667 227.730617 
L 258.075131 228.457409 
M 284.956629 235.227129 
L 301.473333 238.602323 
L 302.144439 240.28 
M 266.71032 90.160463 
L 256.462024 76.198006 
L 277.61 68.019497 
L 295.582274 76.198006 
L 287.454745 89.020947 
M 206.02 108.716471 
L 213.177862 113.137869 
L 206.02 122.836423 
L 198.639177 113.137869 
L 206.02 108.716471 
z
M 301.473333 109.097643 
L 302.635002 113.137869 
L 301.473333 115.178871 
L 297.834908 113.137869 
L 301.473333 109.097643 
z
M 293.222301 162.690776 
L 286.500928 154.013971 
L 301.473333 145.722915 
L 307.195951 154.013971 
L 305.228934 160.657623 
M 301.473333 217.647152 
L 303.234763 219.557363 
L 301.473333 223.723451 
L 294.571122 219.557363 
L 301.473333 217.647152 
z
" clip-path="url(#p29227b5a25)" style="fill: none; stroke-dasharray: 1.85,0.8; stroke-dashoffset: 0; stroke: #000000; stroke-width: 0.5"/>
    <path d="M 234.99919 26.88 
L 229.883333 30.828363 
L 222.357042 26.88 
M 243.735589 240.28 
L 249.41267 230.778966 
M 275.301303 237.12438 
L 277.61 238.315421 
L 286.548645 240.28 
M 144.483555 41.443477 
L 134.43 43.1751 
L 118.05481 36.380776 
L 134.43 32.051592 
L 158.293333 34.069877 
L 163.707774 35.394194 
M 121.456933 71.204702 
L 110.566667 75.431778 
L 103.212611 60.808896 
L 110.566667 52.35086 
L 134.43 58.140006 
L 158.293333 54.402865 
L 182.156667 59.810221 
L 204.464068 47.600163 
L 201.752645 36.380776 
L 206.02 35.553845 
L 209.081207 36.380776 
L 211.619072 47.600163 
L 227.907862 60.808896 
L 206.02 63.972463 
L 182.156667 64.233368 
L 159.794407 76.198006 
L 158.293333 80.646956 
L 155.538321 76.198006 
L 146.954547 72.11975 
M 253.746667 35.380292 
L 257.176245 36.380776 
L 253.746667 37.719078 
L 248.145402 36.380776 
L 253.746667 35.380292 
z
M 277.61 71.102658 
L 288.807026 76.198006 
L 277.61 91.612633 
L 264.434459 76.198006 
L 277.61 71.102658 
z
M 114.72413 165.300515 
L 110.566667 171.793249 
L 107.683983 154.013971 
L 107.406674 133.590571 
L 110.081701 113.137869 
L 108.270593 93.757994 
L 110.566667 79.355668 
L 118.894426 93.757994 
L 122.068797 113.137869 
L 134.43 118.10809 
L 144.190087 133.590571 
L 134.43 140.036001 
L 130.963301 143.919177 
M 301.473333 148.388744 
L 305.355953 154.013971 
L 301.473333 167.127622 
L 291.315016 154.013971 
L 301.473333 148.388744 
z
" clip-path="url(#p29227b5a25)" style="fill: none; stroke-dasharray: 1.85,0.8; stroke-dashoffset: 0; stroke: #000000; stroke-width: 0.5"/>
    <path d="M 126.43524 35.723946 
L 134.43 33.610335 
L 153.743755 36.380776 
L 148.082814 37.655191 
M 104.96179 60.545678 
L 110.566667 54.099406 
L 131.476678 60.808896 
L 122.650685 65.705132 
M 145.947198 61.537555 
L 144.512351 60.808896 
L 158.293333 58.082849 
L 172.280149 60.808896 
L 170.680583 61.609251 
M 206.02 59.078846 
L 207.816582 60.808896 
L 206.02 61.068565 
L 202.536145 60.808896 
L 206.02 59.078846 
z
M 277.61 74.18582 
L 282.031778 76.198006 
L 277.61 82.285342 
L 272.406893 76.198006 
L 277.61 74.18582 
z
M 110.566667 91.813658 
L 111.690927 93.757994 
L 110.566667 97.007476 
L 110.256693 93.757994 
L 110.566667 91.813658 
z
M 109.508805 146.780696 
L 109.313217 133.590571 
L 110.566667 124.201721 
L 127.934455 133.590571 
L 117.896654 148.649499 
M 301.473333 151.054573 
L 303.515956 154.013971 
L 301.473333 160.912983 
L 296.129104 154.013971 
L 301.473333 151.054573 
z
M 253.746667 230.718196 
L 254.103364 230.778089 
L 253.746667 231.622455 
L 253.579615 230.778089 
L 253.746667 230.718196 
z
" clip-path="url(#p29227b5a25)" style="fill: none; stroke-dasharray: 1.85,0.8; stroke-dashoffset: 0; stroke: #000000; stroke-width: 0.5"/>
    <path d="M 134.43 35.169078 
L 142.877188 36.380776 
L 134.43 38.282443 
L 129.846739 36.380776 
L 134.43 35.169078 
z
M 110.566667 55.847951 
L 126.027367 60.808896 
L 110.566667 69.385747 
L 106.253246 60.808896 
L 110.566667 55.847951 
z
M 301.473333 153.720403 
L 301.675959 154.013971 
L 301.473333 154.698345 
L 300.943193 154.013971 
L 301.473333 153.720403 
z
" clip-path="url(#p29227b5a25)" style="fill: none; stroke-dasharray: 1.85,0.8; stroke-dashoffset: 0; stroke: #000000; stroke-width: 0.5"/>
    <path d="M 110.566667 57.596496 
L 120.578055 60.808896 
L 110.566667 66.362732 
L 107.773564 60.808896 
L 110.566667 57.596496 
z
" clip-path="url(#p29227b5a25)" style="fill: none; stroke-dasharray: 1.85,0.8; stroke-dashoffset: 0; stroke: #000000; stroke-width: 0.5"/>
    <path d="M 110.566667 59.345041 
L 115.128744 60.808896 
L 110.566667 63.339716 
L 109.293881 60.808896 
L 110.566667 59.345041 
z
" clip-path="url(#p29227b5a25)" style="fill: none; stroke-dasharray: 1.85,0.8; stroke-dashoffset: 0; stroke: #000000; stroke-width: 0.5"/>
    <path clip-path="url(#p29227b5a25)" style="fill: none; stroke-dasharray: 1.85,0.8; stroke-dashoffset: 0; stroke: #000000; stroke-width: 0.5"/>
   </g>
   <g id="patch_3">
    <path d="M 62.84 240.28 
L 62.84 26.88 
" style="fill: none; stroke: #000000; stroke-width: 0.8; stroke-linejoin: miter; stroke-linecap: square"/>
   </g>
   <g id="patch_4">
    <path d="M 349.2 240.28 
L 349.2 26.88 
" style="fill: none; stroke: #000000; stroke-width: 0.8; stroke-linejoin: miter; stroke-linecap: square"/>
   </g>
   <g id="patch_5">
    <path d="M 62.84 240.28 
L 349.2 240.28 
" style="fill: none; stroke: #000000; stroke-width: 0.8; stroke-linejoin: miter; stroke-linecap: square"/>
   </g>
   <g id="patch_6">
    <path d="M 62.84 26.88 
L 349.2 26.88 
" style="fill: none; stroke: #000000; stroke-width: 0.8; stroke-linejoin: miter; stroke-linecap: square"/>
   </g>
   <g id="text_11">
    <!-- Band 63 -->
    <g transform="translate(181.073125 20.88) scale(0.12 -0.12)">
     <defs>
      <path id="DejaVuSans-42" d="M 1259 2228 
L 1259 519 
L 2272 519 
Q 2781 519 3026 730 
Q 3272 941 3272 1375 
Q 3272 1813 3026 2020 
Q 2781 2228 2272 2228 
L 1259 2228 
z
M 1259 4147 
L 1259 2741 
L 2194 2741 
Q 2656 2741 2882 2914 
Q 3109 3088 3109 3444 
Q 3109 3797 2882 3972 
Q 2656 4147 2194 4147 
L 1259 4147 
z
M 628 4666 
L 2241 4666 
Q 2963 4666 3353 4366 
Q 3744 4066 3744 3513 
Q 3744 3084 3544 2831 
Q 3344 2578 2956 2516 
Q 3422 2416 3680 2098 
Q 3938 1781 3938 1306 
Q 3938 681 3513 340 
Q 3088 0 2303 0 
L 628 0 
L 628 4666 
z
" transform="scale(0.015625)"/>
      <path id="DejaVuSans-61" d="M 2194 1759 
Q 1497 1759 1228 1600 
Q 959 1441 959 1056 
Q 959 750 1161 570 
Q 1363 391 1709 391 
Q 2188 391 2477 730 
Q 2766 1069 2766 1631 
L 2766 1759 
L 2194 1759 
z
M 3341 1997 
L 3341 0 
L 2766 0 
L 2766 531 
Q 2569 213 2275 61 
Q 1981 -91 1556 -91 
Q 1019 -91 701 211 
Q 384 513 384 1019 
Q 384 1609 779 1909 
Q 1175 2209 1959 2209 
L 2766 2209 
L 2766 2266 
Q 2766 2663 2505 2880 
Q 2244 3097 1772 3097 
Q 1472 3097 1187 3025 
Q 903 2953 641 2809 
L 641 3341 
Q 956 3463 1253 3523 
Q 1550 3584 1831 3584 
Q 2591 3584 2966 3190 
Q 3341 2797 3341 1997 
z
" transform="scale(0.015625)"/>
      <path id="DejaVuSans-6e" d="M 3513 2113 
L 3513 0 
L 2938 0 
L 2938 2094 
Q 2938 2591 2744 2837 
Q 2550 3084 2163 3084 
Q 1697 3084 1428 2787 
Q 1159 2491 1159 1978 
L 1159 0 
L 581 0 
L 581 3500 
L 1159 3500 
L 1159 2956 
Q 1366 3272 1645 3428 
Q 1925 3584 2291 3584 
Q 2894 3584 3203 3211 
Q 3513 2838 3513 2113 
z
" transform="scale(0.015625)"/>
      <path id="DejaVuSans-64" d="M 2906 2969 
L 2906 4863 
L 3481 4863 
L 3481 0 
L 2906 0 
L 2906 525 
Q 2725 213 2448 61 
Q 2172 -91 1784 -91 
Q 1150 -91 751 415 
Q 353 922 353 1747 
Q 353 2572 751 3078 
Q 1150 3584 1784 3584 
Q 2172 3584 2448 3432 
Q 2725 3281 2906 2969 
z
M 947 1747 
Q 947 1113 1208 752 
Q 1469 391 1925 391 
Q 2381 391 2643 752 
Q 2906 1113 2906 1747 
Q 2906 2381 2643 2742 
Q 2381 3103 1925 3103 
Q 1469 3103 1208 2742 
Q 947 2381 947 1747 
z
" transform="scale(0.015625)"/>
      <path id="DejaVuSans-20" transform="scale(0.015625)"/>
      <path id="DejaVuSans-36" d="M 2113 2584 
Q 1688 2584 1439 2293 
Q 1191 2003 1191 1497 
Q 1191 994 1439 701 
Q 1688 409 2113 409 
Q 2538 409 2786 701 
Q 3034 994 3034 1497 
Q 3034 2003 2786 2293 
Q 2538 2584 2113 2584 
z
M 3366 4563 
L 3366 3988 
Q 3128 4100 2886 4159 
Q 2644 4219 2406 4219 
Q 1781 4219 1451 3797 
Q 1122 3375 1075 2522 
Q 1259 2794 1537 2939 
Q 1816 3084 2150 3084 
Q 2853 3084 3261 2657 
Q 3669 2231 3669 1497 
Q 3669 778 3244 343 
Q 2819 -91 2113 -91 
Q 1303 -91 875 529 
Q 447 1150 447 2328 
Q 447 3434 972 4092 
Q 1497 4750 2381 4750 
Q 2619 4750 2861 4703 
Q 3103 4656 3366 4563 
z
" transform="scale(0.015625)"/>
      <path id="DejaVuSans-33" d="M 2597 2516 
Q 3050 2419 3304 2112 
Q 3559 1806 3559 1356 
Q 3559 666 3084 287 
Q 2609 -91 1734 -91 
Q 1441 -91 1130 -33 
Q 819 25 488 141 
L 488 750 
Q 750 597 1062 519 
Q 1375 441 1716 441 
Q 2309 441 2620 675 
Q 2931 909 2931 1356 
Q 2931 1769 2642 2001 
Q 2353 2234 1838 2234 
L 1294 2234 
L 1294 2753 
L 1863 2753 
Q 2328 2753 2575 2939 
Q 2822 3125 2822 3475 
Q 2822 3834 2567 4026 
Q 2313 4219 1838 4219 
Q 1578 4219 1281 4162 
Q 984 4106 628 3988 
L 628 4550 
Q 988 4650 1302 4700 
Q 1616 4750 1894 4750 
Q 2613 4750 3031 4423 
Q 3450 4097 3450 3541 
Q 3450 3153 3228 2886 
Q 3006 2619 2597 2516 
z
" transform="scale(0.015625)"/>
     </defs>
     <use xlink:href="#DejaVuSans-42"/>
     <use xlink:href="#DejaVuSans-61" transform="translate(68.603516 0)"/>
     <use xlink:href="#DejaVuSans-6e" transform="translate(129.882812 0)"/>
     <use xlink:href="#DejaVuSans-64" transform="translate(193.261719 0)"/>
     <use xlink:href="#DejaVuSans-20" transform="translate(256.738281 0)"/>
     <use xlink:href="#DejaVuSans-36" transform="translate(288.525391 0)"/>
     <use xlink:href="#DejaVuSans-33" transform="translate(352.148438 0)"/>
    </g>
   </g>
   <g id="text_12">
    <g clip-path="url(#p29227b5a25)">
     <!-- 42.0 -->
     <g transform="translate(318.899897 123.594056) rotate(-270.521447) scale(0.09 -0.09)">
      <defs>
       <path id="DejaVuSans-2e" d="M 684 794 
L 1344 794 
L 1344 0 
L 684 0 
L 684 794 
z
" transform="scale(0.015625)"/>
      </defs>
      <use xlink:href="#DejaVuSans-34"/>
      <use xlink:href="#DejaVuSans-32" transform="translate(63.623047 0)"/>
      <use xlink:href="#DejaVuSans-2e" transform="translate(127.246094 0)"/>
      <use xlink:href="#DejaVuSans-30" transform="translate(159.033203 0)"/>
     </g>
    </g>
   </g>
   <g id="text_13">
    <g clip-path="url(#p29227b5a25)">
     <!-- 42.0 -->
     <g transform="translate(90.781104 143.620803) rotate(-89.750939) scale(0.09 -0.09)">
      <use xlink:href="#DejaVuSans-34"/>
      <use xlink:href="#DejaVuSans-32" transform="translate(63.623047 0)"/>
      <use xlink:href="#DejaVuSans-2e" transform="translate(127.246094 0)"/>
      <use xlink:href="#DejaVuSans-30" transform="translate(159.033203 0)"/>
     </g>
    </g>
   </g>
   <g id="text_14">
    <g clip-path="url(#p29227b5a25)">
     <!-- 43.5 -->
     <g transform="translate(314.304796 123.620185) rotate(-271.091941) scale(0.09 -0.09)">
      <use xlink:href="#DejaVuSans-34"/>
      <use xlink:href="#DejaVuSans-33" transform="translate(63.623047 0)"/>
      <use xlink:href="#DejaVuSans-2e" transform="translate(127.246094 0)"/>
      <use xlink:href="#DejaVuSans-35" transform="translate(159.033203 0)"/>
     </g>
    </g>
   </g>
   <g id="text_15">
    <g clip-path="url(#p29227b5a25)">
     <!-- 43.5 -->
     <g transform="translate(92.636876 143.633017) rotate(-89.461099) scale(0.09 -0.09)">
      <use xlink:href="#DejaVuSans-34"/>
      <use xlink:href="#DejaVuSans-33" transform="translate(63.623047 0)"/>
      <use xlink:href="#DejaVuSans-2e" transform="translate(127.246094 0)"/>
      <use xlink:href="#DejaVuSans-35" transform="translate(159.033203 0)"/>
     </g>
    </g>
   </g>
   <g id="text_16">
    <g clip-path="url(#p29227b5a25)">
     <!-- 45.0 -->
     <g transform="translate(309.722506 123.643813) rotate(-271.59016) scale(0.09 -0.09)">
      <use xlink:href="#DejaVuSans-34"/>
      <use xlink:href="#DejaVuSans-35" transform="translate(63.623047 0)"/>
      <use xlink:href="#DejaVuSans-2e" transform="translate(127.246094 0)"/>
      <use xlink:href="#DejaVuSans-30" transform="translate(159.033203 0)"/>
     </g>
    </g>
   </g>
   <g id="text_17">
    <g clip-path="url(#p29227b5a25)">
     <!-- 45.0 -->
     <g transform="translate(94.492614 143.644967) rotate(-89.171412) scale(0.09 -0.09)">
      <use xlink:href="#DejaVuSans-34"/>
      <use xlink:href="#DejaVuSans-35" transform="translate(63.623047 0)"/>
      <use xlink:href="#DejaVuSans-2e" transform="translate(127.246094 0)"/>
      <use xlink:href="#DejaVuSans-30" transform="translate(159.033203 0)"/>
     </g>
    </g>
   </g>
   <g id="text_18">
    <g clip-path="url(#p29227b5a25)">
     <!-- 46.5 -->
     <g transform="translate(305.156477 123.663601) rotate(-271.995702) scale(0.09 -0.09)">
      <use xlink:href="#DejaVuSans-34"/>
      <use xlink:href="#DejaVuSans-36" transform="translate(63.623047 0)"/>
      <use xlink:href="#DejaVuSans-2e" transform="translate(127.246094 0)"/>
      <use xlink:href="#DejaVuSans-35" transform="translate(159.033203 0)"/>
     </g>
    </g>
   </g>
   <g id="text_19">
    <g clip-path="url(#p29227b5a25)">
     <!-- 46.5 -->
     <g transform="translate(96.348334 143.656652) rotate(-88.881961) scale(0.09 -0.09)">
      <use xlink:href="#DejaVuSans-34"/>
      <use xlink:href="#DejaVuSans-36" transform="translate(63.623047 0)"/>
      <use xlink:href="#DejaVuSans-2e" transform="translate(127.246094 0)"/>
      <use xlink:href="#DejaVuSans-35" transform="translate(159.033203 0)"/>
     </g>
    </g>
   </g>
   <g id="text_20">
    <g clip-path="url(#p29227b5a25)">
     <!-- 48.0 -->
     <g transform="translate(300.60752 123.678945) rotate(-272.30336) scale(0.09 -0.09)">
      <defs>
       <path id="DejaVuSans-38" d="M 2034 2216 
Q 1584 2216 1326 1975 
Q 1069 1734 1069 1313 
Q 1069 891 1326 650 
Q 1584 409 2034 409 
Q 2484 409 2743 651 
Q 3003 894 3003 1313 
Q 3003 1734 2745 1975 
Q 2488 2216 2034 2216 
z
M 1403 2484 
Q 997 2584 770 2862 
Q 544 3141 544 3541 
Q 544 4100 942 4425 
Q 1341 4750 2034 4750 
Q 2731 4750 3128 4425 
Q 3525 4100 3525 3541 
Q 3525 3141 3298 2862 
Q 3072 2584 2669 2484 
Q 3125 2378 3379 2068 
Q 3634 1759 3634 1313 
Q 3634 634 3220 271 
Q 2806 -91 2034 -91 
Q 1263 -91 848 271 
Q 434 634 434 1313 
Q 434 1759 690 2068 
Q 947 2378 1403 2484 
z
M 1172 3481 
Q 1172 3119 1398 2916 
Q 1625 2713 2034 2713 
Q 2441 2713 2670 2916 
Q 2900 3119 2900 3481 
Q 2900 3844 2670 4047 
Q 2441 4250 2034 4250 
Q 1625 4250 1398 4047 
Q 1172 3844 1172 3481 
z
" transform="scale(0.015625)"/>
      </defs>
      <use xlink:href="#DejaVuSans-34"/>
      <use xlink:href="#DejaVuSans-38" transform="translate(63.623047 0)"/>
      <use xlink:href="#DejaVuSans-2e" transform="translate(127.246094 0)"/>
      <use xlink:href="#DejaVuSans-30" transform="translate(159.033203 0)"/>
     </g>
    </g>
   </g>
   <g id="text_21">
    <g clip-path="url(#p29227b5a25)">
     <!-- 48.0 -->
     <g transform="translate(98.204051 143.668067) rotate(-88.592826) scale(0.09 -0.09)">
      <use xlink:href="#DejaVuSans-34"/>
      <use xlink:href="#DejaVuSans-38" transform="translate(63.623047 0)"/>
      <use xlink:href="#DejaVuSans-2e" transform="translate(127.246094 0)"/>
      <use xlink:href="#DejaVuSans-30" transform="translate(159.033203 0)"/>
     </g>
    </g>
   </g>
   <g id="text_22">
    <g clip-path="url(#p29227b5a25)">
     <!-- 49.5 -->
     <g transform="translate(294.38788 127.552613) rotate(-299.424595) scale(0.09 -0.09)">
      <defs>
       <path id="DejaVuSans-39" d="M 703 97 
L 703 672 
Q 941 559 1184 500 
Q 1428 441 1663 441 
Q 2288 441 2617 861 
Q 2947 1281 2994 2138 
Q 2813 1869 2534 1725 
Q 2256 1581 1919 1581 
Q 1219 1581 811 2004 
Q 403 2428 403 3163 
Q 403 3881 828 4315 
Q 1253 4750 1959 4750 
Q 2769 4750 3195 4129 
Q 3622 3509 3622 2328 
Q 3622 1225 3098 567 
Q 2575 -91 1691 -91 
Q 1453 -91 1209 -44 
Q 966 3 703 97 
z
M 1959 2075 
Q 2384 2075 2632 2365 
Q 2881 2656 2881 3163 
Q 2881 3666 2632 3958 
Q 2384 4250 1959 4250 
Q 1534 4250 1286 3958 
Q 1038 3666 1038 3163 
Q 1038 2656 1286 2365 
Q 1534 2075 1959 2075 
z
" transform="scale(0.015625)"/>
      </defs>
      <use xlink:href="#DejaVuSans-34"/>
      <use xlink:href="#DejaVuSans-39" transform="translate(63.623047 0)"/>
      <use xlink:href="#DejaVuSans-2e" transform="translate(127.246094 0)"/>
      <use xlink:href="#DejaVuSans-35" transform="translate(159.033203 0)"/>
     </g>
    </g>
   </g>
   <g id="text_23">
    <g clip-path="url(#p29227b5a25)">
     <!-- 49.5 -->
     <g transform="translate(100.059782 143.67921) rotate(-88.304089) scale(0.09 -0.09)">
      <use xlink:href="#DejaVuSans-34"/>
      <use xlink:href="#DejaVuSans-39" transform="translate(63.623047 0)"/>
      <use xlink:href="#DejaVuSans-2e" transform="translate(127.246094 0)"/>
      <use xlink:href="#DejaVuSans-35" transform="translate(159.033203 0)"/>
     </g>
    </g>
   </g>
   <g id="text_24">
    <g clip-path="url(#p29227b5a25)">
     <!-- 49.5 -->
     <g transform="translate(220.409912 87.408005) rotate(-9.483417) scale(0.09 -0.09)">
      <use xlink:href="#DejaVuSans-34"/>
      <use xlink:href="#DejaVuSans-39" transform="translate(63.623047 0)"/>
      <use xlink:href="#DejaVuSans-2e" transform="translate(127.246094 0)"/>
      <use xlink:href="#DejaVuSans-35" transform="translate(159.033203 0)"/>
     </g>
    </g>
   </g>
   <g id="text_25">
    <g clip-path="url(#p29227b5a25)">
     <!-- 51.0 -->
     <g transform="translate(291.948585 133.745774) rotate(-323.402969) scale(0.09 -0.09)">
      <defs>
       <path id="DejaVuSans-31" d="M 794 531 
L 1825 531 
L 1825 4091 
L 703 3866 
L 703 4441 
L 1819 4666 
L 2450 4666 
L 2450 531 
L 3481 531 
L 3481 0 
L 794 0 
L 794 531 
z
" transform="scale(0.015625)"/>
      </defs>
      <use xlink:href="#DejaVuSans-35"/>
      <use xlink:href="#DejaVuSans-31" transform="translate(63.623047 0)"/>
      <use xlink:href="#DejaVuSans-2e" transform="translate(127.246094 0)"/>
      <use xlink:href="#DejaVuSans-30" transform="translate(159.033203 0)"/>
     </g>
    </g>
   </g>
   <g id="text_26">
    <g clip-path="url(#p29227b5a25)">
     <!-- 51.0 -->
     <g transform="translate(101.915541 143.69008) rotate(-88.01583) scale(0.09 -0.09)">
      <use xlink:href="#DejaVuSans-35"/>
      <use xlink:href="#DejaVuSans-31" transform="translate(63.623047 0)"/>
      <use xlink:href="#DejaVuSans-2e" transform="translate(127.246094 0)"/>
      <use xlink:href="#DejaVuSans-30" transform="translate(159.033203 0)"/>
     </g>
    </g>
   </g>
   <g id="text_27">
    <g clip-path="url(#p29227b5a25)">
     <!-- 51.0 -->
     <g transform="translate(221.444383 93.076883) rotate(-21.242673) scale(0.09 -0.09)">
      <use xlink:href="#DejaVuSans-35"/>
      <use xlink:href="#DejaVuSans-31" transform="translate(63.623047 0)"/>
      <use xlink:href="#DejaVuSans-2e" transform="translate(127.246094 0)"/>
      <use xlink:href="#DejaVuSans-30" transform="translate(159.033203 0)"/>
     </g>
    </g>
   </g>
   <g id="text_28">
    <g clip-path="url(#p29227b5a25)">
     <!-- 51.0 -->
     <g transform="translate(243.479308 141.465332) rotate(-352.015653) scale(0.09 -0.09)">
      <use xlink:href="#DejaVuSans-35"/>
      <use xlink:href="#DejaVuSans-31" transform="translate(63.623047 0)"/>
      <use xlink:href="#DejaVuSans-2e" transform="translate(127.246094 0)"/>
      <use xlink:href="#DejaVuSans-30" transform="translate(159.033203 0)"/>
     </g>
    </g>
   </g>
   <g id="text_29">
    <g clip-path="url(#p29227b5a25)">
     <!-- 51.0 -->
     <g transform="translate(172.579666 191.393637) rotate(-7.990985) scale(0.09 -0.09)">
      <use xlink:href="#DejaVuSans-35"/>
      <use xlink:href="#DejaVuSans-31" transform="translate(63.623047 0)"/>
      <use xlink:href="#DejaVuSans-2e" transform="translate(127.246094 0)"/>
      <use xlink:href="#DejaVuSans-30" transform="translate(159.033203 0)"/>
     </g>
    </g>
   </g>
   <g id="text_30">
    <g clip-path="url(#p29227b5a25)">
     <!-- 51.0 -->
     <g transform="translate(227.268388 216.148912) rotate(-326.798967) scale(0.09 -0.09)">
      <use xlink:href="#DejaVuSans-35"/>
      <use xlink:href="#DejaVuSans-31" transform="translate(63.623047 0)"/>
      <use xlink:href="#DejaVuSans-2e" transform="translate(127.246094 0)"/>
      <use xlink:href="#DejaVuSans-30" transform="translate(159.033203 0)"/>
     </g>
    </g>
   </g>
   <g id="text_31">
    <g clip-path="url(#p29227b5a25)">
     <!-- 52.5 -->
     <g transform="translate(232.084265 126.871967) rotate(-305.473049) scale(0.09 -0.09)">
      <use xlink:href="#DejaVuSans-35"/>
      <use xlink:href="#DejaVuSans-32" transform="translate(63.623047 0)"/>
      <use xlink:href="#DejaVuSans-2e" transform="translate(127.246094 0)"/>
      <use xlink:href="#DejaVuSans-35" transform="translate(159.033203 0)"/>
     </g>
    </g>
   </g>
   <g id="text_32">
    <g clip-path="url(#p29227b5a25)">
     <!-- 52.5 -->
     <g transform="translate(103.771344 143.700673) rotate(-87.728131) scale(0.09 -0.09)">
      <use xlink:href="#DejaVuSans-35"/>
      <use xlink:href="#DejaVuSans-32" transform="translate(63.623047 0)"/>
      <use xlink:href="#DejaVuSans-2e" transform="translate(127.246094 0)"/>
      <use xlink:href="#DejaVuSans-35" transform="translate(159.033203 0)"/>
     </g>
    </g>
   </g>
   <g id="text_33">
    <g clip-path="url(#p29227b5a25)">
     <!-- 52.5 -->
     <g transform="translate(172.386898 56.861306) rotate(-4.917475) scale(0.09 -0.09)">
      <use xlink:href="#DejaVuSans-35"/>
      <use xlink:href="#DejaVuSans-32" transform="translate(63.623047 0)"/>
      <use xlink:href="#DejaVuSans-2e" transform="translate(127.246094 0)"/>
      <use xlink:href="#DejaVuSans-35" transform="translate(159.033203 0)"/>
     </g>
    </g>
   </g>
   <g id="text_34">
    <g clip-path="url(#p29227b5a25)">
     <!-- 52.5 -->
     <g transform="translate(269.942521 68.76463) rotate(-28.110697) scale(0.09 -0.09)">
      <use xlink:href="#DejaVuSans-35"/>
      <use xlink:href="#DejaVuSans-32" transform="translate(63.623047 0)"/>
      <use xlink:href="#DejaVuSans-2e" transform="translate(127.246094 0)"/>
      <use xlink:href="#DejaVuSans-35" transform="translate(159.033203 0)"/>
     </g>
    </g>
   </g>
   <g id="text_35">
    <g clip-path="url(#p29227b5a25)">
     <!-- 52.5 -->
     <g transform="translate(210.144373 99.191716) rotate(-17.840758) scale(0.09 -0.09)">
      <use xlink:href="#DejaVuSans-35"/>
      <use xlink:href="#DejaVuSans-32" transform="translate(63.623047 0)"/>
      <use xlink:href="#DejaVuSans-2e" transform="translate(127.246094 0)"/>
      <use xlink:href="#DejaVuSans-35" transform="translate(159.033203 0)"/>
     </g>
    </g>
   </g>
   <g id="text_36">
    <g clip-path="url(#p29227b5a25)">
     <!-- 52.5 -->
     <g transform="translate(195.918949 228.514494) rotate(-357.974386) scale(0.09 -0.09)">
      <use xlink:href="#DejaVuSans-35"/>
      <use xlink:href="#DejaVuSans-32" transform="translate(63.623047 0)"/>
      <use xlink:href="#DejaVuSans-2e" transform="translate(127.246094 0)"/>
      <use xlink:href="#DejaVuSans-35" transform="translate(159.033203 0)"/>
     </g>
    </g>
   </g>
   <g id="text_37">
    <g clip-path="url(#p29227b5a25)">
     <!-- 52.5 -->
     <g transform="translate(195.83651 184.094036) rotate(-355.5001) scale(0.09 -0.09)">
      <use xlink:href="#DejaVuSans-35"/>
      <use xlink:href="#DejaVuSans-32" transform="translate(63.623047 0)"/>
      <use xlink:href="#DejaVuSans-2e" transform="translate(127.246094 0)"/>
      <use xlink:href="#DejaVuSans-35" transform="translate(159.033203 0)"/>
     </g>
    </g>
   </g>
   <g id="text_38">
    <g clip-path="url(#p29227b5a25)">
     <!-- 52.5 -->
     <g transform="translate(124.124974 213.039016) rotate(-349.434043) scale(0.09 -0.09)">
      <use xlink:href="#DejaVuSans-35"/>
      <use xlink:href="#DejaVuSans-32" transform="translate(63.623047 0)"/>
      <use xlink:href="#DejaVuSans-2e" transform="translate(127.246094 0)"/>
      <use xlink:href="#DejaVuSans-35" transform="translate(159.033203 0)"/>
     </g>
    </g>
   </g>
   <g id="text_39">
    <g clip-path="url(#p29227b5a25)">
     <!-- 54.0 -->
     <g transform="translate(124.315086 30.994927) rotate(-357.595103) scale(0.09 -0.09)">
      <use xlink:href="#DejaVuSans-35"/>
      <use xlink:href="#DejaVuSans-34" transform="translate(63.623047 0)"/>
      <use xlink:href="#DejaVuSans-2e" transform="translate(127.246094 0)"/>
      <use xlink:href="#DejaVuSans-30" transform="translate(159.033203 0)"/>
     </g>
    </g>
   </g>
   <g id="text_40">
    <g clip-path="url(#p29227b5a25)">
     <!-- 54.0 -->
     <g transform="translate(267.459472 48.712723) rotate(-356.5589) scale(0.09 -0.09)">
      <use xlink:href="#DejaVuSans-35"/>
      <use xlink:href="#DejaVuSans-34" transform="translate(63.623047 0)"/>
      <use xlink:href="#DejaVuSans-2e" transform="translate(127.246094 0)"/>
      <use xlink:href="#DejaVuSans-30" transform="translate(159.033203 0)"/>
     </g>
    </g>
   </g>
   <g id="text_41">
    <g clip-path="url(#p29227b5a25)">
     <!-- 54.0 -->
     <g transform="translate(148.142681 221.646616) rotate(-335.603341) scale(0.09 -0.09)">
      <use xlink:href="#DejaVuSans-35"/>
      <use xlink:href="#DejaVuSans-34" transform="translate(63.623047 0)"/>
      <use xlink:href="#DejaVuSans-2e" transform="translate(127.246094 0)"/>
      <use xlink:href="#DejaVuSans-30" transform="translate(159.033203 0)"/>
     </g>
    </g>
   </g>
   <g id="text_42">
    <g clip-path="url(#p29227b5a25)">
     <!-- 54.0 -->
     <g transform="translate(108.117107 123.191594) rotate(-89.187862) scale(0.09 -0.09)">
      <use xlink:href="#DejaVuSans-35"/>
      <use xlink:href="#DejaVuSans-34" transform="translate(63.623047 0)"/>
      <use xlink:href="#DejaVuSans-2e" transform="translate(127.246094 0)"/>
      <use xlink:href="#DejaVuSans-30" transform="translate(159.033203 0)"/>
     </g>
    </g>
   </g>
   <g id="text_43">
    <g clip-path="url(#p29227b5a25)">
     <!-- 54.0 -->
     <g transform="translate(291.322885 213.338027) rotate(-335.597135) scale(0.09 -0.09)">
      <use xlink:href="#DejaVuSans-35"/>
      <use xlink:href="#DejaVuSans-34" transform="translate(63.623047 0)"/>
      <use xlink:href="#DejaVuSans-2e" transform="translate(127.246094 0)"/>
      <use xlink:href="#DejaVuSans-30" transform="translate(159.033203 0)"/>
     </g>
    </g>
   </g>
   <g id="text_44">
    <g clip-path="url(#p29227b5a25)">
     <!-- 54.0 -->
     <g transform="translate(172.386898 58.955337) rotate(-4.917475) scale(0.09 -0.09)">
      <use xlink:href="#DejaVuSans-35"/>
      <use xlink:href="#DejaVuSans-34" transform="translate(63.623047 0)"/>
      <use xlink:href="#DejaVuSans-2e" transform="translate(127.246094 0)"/>
      <use xlink:href="#DejaVuSans-30" transform="translate(159.033203 0)"/>
     </g>
    </g>
   </g>
   <g id="text_45">
    <g clip-path="url(#p29227b5a25)">
     <!-- 54.0 -->
     <g transform="translate(221.674408 151.326423) rotate(-23.402325) scale(0.09 -0.09)">
      <use xlink:href="#DejaVuSans-35"/>
      <use xlink:href="#DejaVuSans-34" transform="translate(63.623047 0)"/>
      <use xlink:href="#DejaVuSans-2e" transform="translate(127.246094 0)"/>
      <use xlink:href="#DejaVuSans-30" transform="translate(159.033203 0)"/>
     </g>
    </g>
   </g>
   <g id="text_46">
    <g clip-path="url(#p29227b5a25)">
     <!-- 54.0 -->
     <g transform="translate(292.680018 191.60948) rotate(-17.666728) scale(0.09 -0.09)">
      <use xlink:href="#DejaVuSans-35"/>
      <use xlink:href="#DejaVuSans-34" transform="translate(63.623047 0)"/>
      <use xlink:href="#DejaVuSans-2e" transform="translate(127.246094 0)"/>
      <use xlink:href="#DejaVuSans-30" transform="translate(159.033203 0)"/>
     </g>
    </g>
   </g>
   <g id="text_47">
    <g clip-path="url(#p29227b5a25)">
     <!-- 55.5 -->
     <g transform="translate(172.077217 37.08005) rotate(-358.542685) scale(0.09 -0.09)">
      <use xlink:href="#DejaVuSans-35"/>
      <use xlink:href="#DejaVuSans-35" transform="translate(63.623047 0)"/>
      <use xlink:href="#DejaVuSans-2e" transform="translate(127.246094 0)"/>
      <use xlink:href="#DejaVuSans-35" transform="translate(159.033203 0)"/>
     </g>
    </g>
   </g>
   <g id="text_48">
    <g clip-path="url(#p29227b5a25)">
     <!-- 55.5 -->
     <g transform="translate(162.093786 103.688905) rotate(-60.242744) scale(0.09 -0.09)">
      <use xlink:href="#DejaVuSans-35"/>
      <use xlink:href="#DejaVuSans-35" transform="translate(63.623047 0)"/>
      <use xlink:href="#DejaVuSans-2e" transform="translate(127.246094 0)"/>
      <use xlink:href="#DejaVuSans-35" transform="translate(159.033203 0)"/>
     </g>
    </g>
   </g>
   <g id="text_49">
    <g clip-path="url(#p29227b5a25)">
     <!-- 55.5 -->
     <g transform="translate(293.030586 61.046562) rotate(-21.206062) scale(0.09 -0.09)">
      <use xlink:href="#DejaVuSans-35"/>
      <use xlink:href="#DejaVuSans-35" transform="translate(63.623047 0)"/>
      <use xlink:href="#DejaVuSans-2e" transform="translate(127.246094 0)"/>
      <use xlink:href="#DejaVuSans-35" transform="translate(159.033203 0)"/>
     </g>
    </g>
   </g>
   <g id="text_50">
    <g clip-path="url(#p29227b5a25)">
     <!-- 55.5 -->
     <g transform="translate(101.665541 203.517811) rotate(-330.171743) scale(0.09 -0.09)">
      <use xlink:href="#DejaVuSans-35"/>
      <use xlink:href="#DejaVuSans-35" transform="translate(63.623047 0)"/>
      <use xlink:href="#DejaVuSans-2e" transform="translate(127.246094 0)"/>
      <use xlink:href="#DejaVuSans-35" transform="translate(159.033203 0)"/>
     </g>
    </g>
   </g>
   <g id="text_51">
    <g clip-path="url(#p29227b5a25)">
     <!-- 55.5 -->
     <g transform="translate(261.583136 230.329813) rotate(-343.590314) scale(0.09 -0.09)">
      <use xlink:href="#DejaVuSans-35"/>
      <use xlink:href="#DejaVuSans-35" transform="translate(63.623047 0)"/>
      <use xlink:href="#DejaVuSans-2e" transform="translate(127.246094 0)"/>
      <use xlink:href="#DejaVuSans-35" transform="translate(159.033203 0)"/>
     </g>
    </g>
   </g>
   <g id="text_52">
    <g clip-path="url(#p29227b5a25)">
     <!-- 55.5 -->
     <g transform="translate(267.771405 101.057006) rotate(-3.696152) scale(0.09 -0.09)">
      <use xlink:href="#DejaVuSans-35"/>
      <use xlink:href="#DejaVuSans-35" transform="translate(63.623047 0)"/>
      <use xlink:href="#DejaVuSans-2e" transform="translate(127.246094 0)"/>
      <use xlink:href="#DejaVuSans-35" transform="translate(159.033203 0)"/>
     </g>
    </g>
   </g>
   <g id="text_53">
    <g clip-path="url(#p29227b5a25)">
     <!-- 55.5 -->
     <g transform="translate(292.054727 177.566989) rotate(-10.237917) scale(0.09 -0.09)">
      <use xlink:href="#DejaVuSans-35"/>
      <use xlink:href="#DejaVuSans-35" transform="translate(63.623047 0)"/>
      <use xlink:href="#DejaVuSans-2e" transform="translate(127.246094 0)"/>
      <use xlink:href="#DejaVuSans-35" transform="translate(159.033203 0)"/>
     </g>
    </g>
   </g>
   <g id="text_54">
    <g clip-path="url(#p29227b5a25)">
     <!-- 57.0 -->
     <g transform="translate(252.705588 230.010672) rotate(-341.815788) scale(0.09 -0.09)">
      <defs>
       <path id="DejaVuSans-37" d="M 525 4666 
L 3525 4666 
L 3525 4397 
L 1831 0 
L 1172 0 
L 2766 4134 
L 525 4134 
L 525 4666 
z
" transform="scale(0.015625)"/>
      </defs>
      <use xlink:href="#DejaVuSans-35"/>
      <use xlink:href="#DejaVuSans-37" transform="translate(63.623047 0)"/>
      <use xlink:href="#DejaVuSans-2e" transform="translate(127.246094 0)"/>
      <use xlink:href="#DejaVuSans-30" transform="translate(159.033203 0)"/>
     </g>
    </g>
   </g>
   <g id="text_55">
    <g clip-path="url(#p29227b5a25)">
     <!-- 57.0 -->
     <g transform="translate(149.189669 43.931273) rotate(-14.206095) scale(0.09 -0.09)">
      <use xlink:href="#DejaVuSans-35"/>
      <use xlink:href="#DejaVuSans-37" transform="translate(63.623047 0)"/>
      <use xlink:href="#DejaVuSans-2e" transform="translate(127.246094 0)"/>
      <use xlink:href="#DejaVuSans-30" transform="translate(159.033203 0)"/>
     </g>
    </g>
   </g>
   <g id="text_56">
    <g clip-path="url(#p29227b5a25)">
     <!-- 57.0 -->
     <g transform="translate(124.322811 68.267564) rotate(-357.807943) scale(0.09 -0.09)">
      <use xlink:href="#DejaVuSans-35"/>
      <use xlink:href="#DejaVuSans-37" transform="translate(63.623047 0)"/>
      <use xlink:href="#DejaVuSans-2e" transform="translate(127.246094 0)"/>
      <use xlink:href="#DejaVuSans-30" transform="translate(159.033203 0)"/>
     </g>
    </g>
   </g>
   <g id="text_57">
    <g clip-path="url(#p29227b5a25)">
     <!-- 57.0 -->
     <g transform="translate(118.162315 163.616204) rotate(-54.54589) scale(0.09 -0.09)">
      <use xlink:href="#DejaVuSans-35"/>
      <use xlink:href="#DejaVuSans-37" transform="translate(63.623047 0)"/>
      <use xlink:href="#DejaVuSans-2e" transform="translate(127.246094 0)"/>
      <use xlink:href="#DejaVuSans-30" transform="translate(159.033203 0)"/>
     </g>
    </g>
   </g>
   <g id="text_58">
    <g clip-path="url(#p29227b5a25)">
     <!-- 58.5 -->
     <g transform="translate(124.227041 42.296603) rotate(-354.815224) scale(0.09 -0.09)">
      <use xlink:href="#DejaVuSans-35"/>
      <use xlink:href="#DejaVuSans-38" transform="translate(63.623047 0)"/>
      <use xlink:href="#DejaVuSans-2e" transform="translate(127.246094 0)"/>
      <use xlink:href="#DejaVuSans-35" transform="translate(159.033203 0)"/>
     </g>
    </g>
   </g>
   <g id="text_59">
    <g clip-path="url(#p29227b5a25)">
     <!-- 58.5 -->
     <g transform="translate(100.259554 71.841406) rotate(-342.928558) scale(0.09 -0.09)">
      <use xlink:href="#DejaVuSans-35"/>
      <use xlink:href="#DejaVuSans-38" transform="translate(63.623047 0)"/>
      <use xlink:href="#DejaVuSans-2e" transform="translate(127.246094 0)"/>
      <use xlink:href="#DejaVuSans-35" transform="translate(159.033203 0)"/>
     </g>
    </g>
   </g>
   <g id="text_60">
    <g clip-path="url(#p29227b5a25)">
     <!-- 58.5 -->
     <g transform="translate(148.266172 70.25975) rotate(-359.822856) scale(0.09 -0.09)">
      <use xlink:href="#DejaVuSans-35"/>
      <use xlink:href="#DejaVuSans-38" transform="translate(63.623047 0)"/>
      <use xlink:href="#DejaVuSans-2e" transform="translate(127.246094 0)"/>
      <use xlink:href="#DejaVuSans-35" transform="translate(159.033203 0)"/>
     </g>
    </g>
   </g>
   <g id="text_61">
    <g clip-path="url(#p29227b5a25)">
     <!-- 58.5 -->
     <g transform="translate(100.246473 160.105134) rotate(-347.345985) scale(0.09 -0.09)">
      <use xlink:href="#DejaVuSans-35"/>
      <use xlink:href="#DejaVuSans-38" transform="translate(63.623047 0)"/>
      <use xlink:href="#DejaVuSans-2e" transform="translate(127.246094 0)"/>
      <use xlink:href="#DejaVuSans-35" transform="translate(159.033203 0)"/>
     </g>
    </g>
   </g>
  </g>
 </g>
 <defs>
  <clipPath id="p29227b5a25">
   <rect x="62.84" y="26.88" width="286.36" height="213.4"/>
  </clipPath>
 </defs>
</svg>
