<?xml version="1.0" encoding="utf-8" standalone="no"?>
<!DOCTYPE svg PUBLIC "-//W3C//DTD SVG 1.1//EN"
  "http://www.w3.org/Graphics/SVG/1.1/DTD/svg11.dtd">
<svg xmlns:xlink="http://www.w3.org/1999/xlink" width="360pt" height="288pt" viewBox="0 0 360 288" xmlns="http://www.w3.org/2000/svg" version="1.1">
 <metadata>
  <rdf:RDF xmlns:dc="http://purl.org/dc/elements/1.1/" xmlns:cc="http://creativecommons.org/ns#" xmlns:rdf="http://www.w3.org/1999/02/22-rdf-syntax-ns#">
   <cc:Work>
    <dc:type rdf:resource="http://purl.org/dc/dcmitype/StillImage"/>
    <dc:date>2025-10-02T17:14:36.669111</dc:date>
    <dc:format>image/svg+xml</dc:format>
    <dc:creator>
     <cc:Agent>
      <dc:title>Matplotlib v3.10.6, https://matplotlib.org/</dc:title>
     </cc:Agent>
    </dc:creator>
   </cc:Work>
  </rdf:RDF>
 </metadata>
 <defs>
  <style type="text/css">*{stroke-linejoin: round; stroke-linecap: butt}</style>
 </defs>
 <g id="figure_1">
  <g id="patch_1">
   <path d="M 0 288 
L 360 288 
L 360 0 
L 0 0 
z
" style="fill: #ffffff"/>
  </g>
  <g id="axes_1">
   <g id="patch_2">
    <path d="M 62.84 240.28 
L 349.2 240.28 
L 349.2 26.88 
L 62.84 26.88 
z
" style="fill: #ffffff"/>
   </g>
   <g id="QuadContourSet_1">
    <path d="M 86.703333 26.88 
L 88.376823 26.88 
L 88.224291 36.380776 
L 88.154278 47.600163 
L 88.184858 60.808896 
L 88.125103 76.198006 
L 88.122154 93.757994 
L 88.180291 113.137869 
L 88.544052 133.590571 
L 88.965865 154.013971 
L 88.291032 173.39493 
L 88.485119 190.956403 
L 88.35262 206.347113 
L 88.366429 219.557363 
L 88.595616 230.778089 
L 88.268414 240.28 
L 86.703333 240.28 
L 62.84 240.28 
L 62.84 230.778089 
L 62.84 219.557363 
L 62.84 206.347113 
L 62.84 190.956403 
L 62.84 173.39493 
L 62.84 154.013971 
L 62.84 133.590571 
L 62.84 113.137869 
L 62.84 93.757994 
L 62.84 76.198006 
L 62.84 60.808896 
L 62.84 47.600163 
L 62.84 36.380776 
L 62.84 26.88 
z
M 325.336667 26.88 
L 349.2 26.88 
L 349.2 36.380776 
L 349.2 47.600163 
L 349.2 60.808896 
L 349.2 76.198006 
L 349.2 93.757994 
L 349.2 113.137869 
L 349.2 133.590571 
L 349.2 154.013971 
L 349.2 173.39493 
L 349.2 190.956403 
L 349.2 206.347113 
L 349.2 219.557363 
L 349.2 230.778089 
L 349.2 240.28 
L 325.336667 240.28 
L 323.068818 240.28 
L 323.235509 230.778089 
L 323.439954 219.557363 
L 323.073672 206.347113 
L 323.286256 190.956403 
L 323.308585 173.39493 
L 323.348011 154.013971 
L 323.264821 133.590571 
L 323.046127 113.137869 
L 323.807963 93.757994 
L 323.691705 76.198006 
L 323.949542 60.808896 
L 323.794565 47.600163 
L 323.853009 36.380776 
L 323.783938 26.88 
z
" clip-path="url(#pa51c7e748d)" style="fill: #460a5d"/>
    <path d="M 90.337047 36.380776 
L 90.169778 47.600163 
L 90.242837 60.808896 
L 90.100077 76.198006 
L 90.09303 93.757994 
L 90.231927 113.137869 
L 91.100986 133.590571 
L 92.108737 154.013971 
L 90.496496 173.39493 
L 90.960188 190.956403 
L 90.643637 206.347113 
L 90.676627 219.557363 
L 91.224177 230.778089 
L 90.44246 240.28 
L 88.268414 240.28 
L 88.595616 230.778089 
L 88.366429 219.557363 
L 88.35262 206.347113 
L 88.485119 190.956403 
L 88.291032 173.39493 
L 88.965865 154.013971 
L 88.544052 133.590571 
L 88.180291 113.137869 
L 88.122154 93.757994 
L 88.125103 76.198006 
L 88.184858 60.808896 
L 88.154278 47.600163 
L 88.224291 36.380776 
L 88.376823 26.88 
L 90.701459 26.88 
z
M 323.853009 36.380776 
L 323.794565 47.600163 
L 323.949542 60.808896 
L 323.691705 76.198006 
L 323.807963 93.757994 
L 323.046127 113.137869 
L 323.264821 133.590571 
L 323.348011 154.013971 
L 323.308585 173.39493 
L 323.286256 190.956403 
L 323.073672 206.347113 
L 323.439954 219.557363 
L 323.235509 230.778089 
L 323.068818 240.28 
L 319.918561 240.28 
L 320.316801 230.778089 
L 320.805239 219.557363 
L 319.930157 206.347113 
L 320.43804 190.956403 
L 320.491387 173.39493 
L 320.585579 154.013971 
L 320.386829 133.590571 
L 319.864349 113.137869 
L 321.684447 93.757994 
L 321.406696 76.198006 
L 322.022693 60.808896 
L 321.652439 47.600163 
L 321.792067 36.380776 
L 321.627051 26.88 
L 323.783938 26.88 
z
" clip-path="url(#pa51c7e748d)" style="fill: #481c6e"/>
    <path d="M 92.449803 36.380776 
L 92.185279 47.600163 
L 92.300816 60.808896 
L 92.075051 76.198006 
L 92.063907 93.757994 
L 92.283562 113.137869 
L 93.657919 133.590571 
L 95.251609 154.013971 
L 92.70196 173.39493 
L 93.435257 190.956403 
L 92.934654 206.347113 
L 92.986825 219.557363 
L 93.852738 230.778089 
L 92.616506 240.28 
L 90.44246 240.28 
L 91.224177 230.778089 
L 90.676627 219.557363 
L 90.643637 206.347113 
L 90.960188 190.956403 
L 90.496496 173.39493 
L 92.108737 154.013971 
L 91.100986 133.590571 
L 90.231927 113.137869 
L 90.09303 93.757994 
L 90.100077 76.198006 
L 90.242837 60.808896 
L 90.169778 47.600163 
L 90.337047 36.380776 
L 90.701459 26.88 
L 93.026096 26.88 
z
M 321.792067 36.380776 
L 321.652439 47.600163 
L 322.022693 60.808896 
L 321.406696 76.198006 
L 321.684447 93.757994 
L 319.864349 113.137869 
L 320.386829 133.590571 
L 320.585579 154.013971 
L 320.491387 173.39493 
L 320.43804 190.956403 
L 319.930157 206.347113 
L 320.805239 219.557363 
L 320.316801 230.778089 
L 319.918561 240.28 
L 316.768304 240.28 
L 317.398093 230.778089 
L 318.170525 219.557363 
L 316.786643 206.347113 
L 317.589824 190.956403 
L 317.67419 173.39493 
L 317.823147 154.013971 
L 317.508838 133.590571 
L 316.682571 113.137869 
L 319.560932 93.757994 
L 319.121688 76.198006 
L 320.095844 60.808896 
L 319.510314 47.600163 
L 319.731125 36.380776 
L 319.470164 26.88 
L 321.627051 26.88 
z
" clip-path="url(#pa51c7e748d)" style="fill: #472c7a"/>
    <path d="M 94.562558 36.380776 
L 94.200779 47.600163 
L 94.358795 60.808896 
L 94.050025 76.198006 
L 94.034784 93.757994 
L 94.335197 113.137869 
L 96.214853 133.590571 
L 98.394481 154.013971 
L 94.907424 173.39493 
L 95.910326 190.956403 
L 95.225671 206.347113 
L 95.297023 219.557363 
L 96.481299 230.778089 
L 94.790552 240.28 
L 92.616506 240.28 
L 93.852738 230.778089 
L 92.986825 219.557363 
L 92.934654 206.347113 
L 93.435257 190.956403 
L 92.70196 173.39493 
L 95.251609 154.013971 
L 93.657919 133.590571 
L 92.283562 113.137869 
L 92.063907 93.757994 
L 92.075051 76.198006 
L 92.300816 60.808896 
L 92.185279 47.600163 
L 92.449803 36.380776 
L 93.026096 26.88 
L 95.350732 26.88 
z
M 319.731125 36.380776 
L 319.510314 47.600163 
L 320.095844 60.808896 
L 319.121688 76.198006 
L 319.560932 93.757994 
L 316.682571 113.137869 
L 317.508838 133.590571 
L 317.823147 154.013971 
L 317.67419 173.39493 
L 317.589824 190.956403 
L 316.786643 206.347113 
L 318.170525 219.557363 
L 317.398093 230.778089 
L 316.768304 240.28 
L 313.618047 240.28 
L 314.479385 230.778089 
L 315.53581 219.557363 
L 313.643128 206.347113 
L 314.741608 190.956403 
L 314.856992 173.39493 
L 315.060715 154.013971 
L 314.630847 133.590571 
L 313.500793 113.137869 
L 317.437417 93.757994 
L 316.836679 76.198006 
L 318.168996 60.808896 
L 317.368188 47.600163 
L 317.670183 36.380776 
L 317.313276 26.88 
L 319.470164 26.88 
z
" clip-path="url(#pa51c7e748d)" style="fill: #443b84"/>
    <path d="M 96.675314 36.380776 
L 96.216279 47.600163 
L 96.416774 60.808896 
L 96.024999 76.198006 
L 96.00566 93.757994 
L 96.386833 113.137869 
L 98.771787 133.590571 
L 101.537353 154.013971 
L 97.112888 173.39493 
L 98.385395 190.956403 
L 97.516687 206.347113 
L 97.607221 219.557363 
L 99.10986 230.778089 
L 96.964599 240.28 
L 94.790552 240.28 
L 96.481299 230.778089 
L 95.297023 219.557363 
L 95.225671 206.347113 
L 95.910326 190.956403 
L 94.907424 173.39493 
L 98.394481 154.013971 
L 96.214853 133.590571 
L 94.335197 113.137869 
L 94.034784 93.757994 
L 94.050025 76.198006 
L 94.358795 60.808896 
L 94.200779 47.600163 
L 94.562558 36.380776 
L 95.350732 26.88 
L 97.675369 26.88 
z
M 317.670183 36.380776 
L 317.368188 47.600163 
L 318.168996 60.808896 
L 316.836679 76.198006 
L 317.437417 93.757994 
L 313.500793 113.137869 
L 314.630847 133.590571 
L 315.060715 154.013971 
L 314.856992 173.39493 
L 314.741608 190.956403 
L 313.643128 206.347113 
L 315.53581 219.557363 
L 314.479385 230.778089 
L 313.618047 240.28 
L 310.46779 240.28 
L 311.560677 230.778089 
L 312.901096 219.557363 
L 310.499613 206.347113 
L 311.893392 190.956403 
L 312.039794 173.39493 
L 312.298283 154.013971 
L 311.752856 133.590571 
L 310.319016 113.137869 
L 315.313901 93.757994 
L 314.55167 76.198006 
L 316.242147 60.808896 
L 315.226062 47.600163 
L 315.609241 36.380776 
L 315.156389 26.88 
L 317.313276 26.88 
z
" clip-path="url(#pa51c7e748d)" style="fill: #3e4a89"/>
    <path d="M 98.78807 36.380776 
L 98.231779 47.600163 
L 98.474753 60.808896 
L 97.999972 76.198006 
L 97.976537 93.757994 
L 98.438468 113.137869 
L 101.32872 133.590571 
L 104.680225 154.013971 
L 99.318352 173.39493 
L 100.860464 190.956403 
L 99.807704 206.347113 
L 99.917419 219.557363 
L 101.738421 230.778089 
L 99.138645 240.28 
L 96.964599 240.28 
L 99.10986 230.778089 
L 97.607221 219.557363 
L 97.516687 206.347113 
L 98.385395 190.956403 
L 97.112888 173.39493 
L 101.537353 154.013971 
L 98.771787 133.590571 
L 96.386833 113.137869 
L 96.00566 93.757994 
L 96.024999 76.198006 
L 96.416774 60.808896 
L 96.216279 47.600163 
L 96.675314 36.380776 
L 97.675369 26.88 
L 100.000005 26.88 
z
M 315.609241 36.380776 
L 315.226062 47.600163 
L 316.242147 60.808896 
L 314.55167 76.198006 
L 315.313901 93.757994 
L 310.319016 113.137869 
L 311.752856 133.590571 
L 312.298283 154.013971 
L 312.039794 173.39493 
L 311.893392 190.956403 
L 310.499613 206.347113 
L 312.901096 219.557363 
L 311.560677 230.778089 
L 310.46779 240.28 
L 307.317533 240.28 
L 308.641969 230.778089 
L 310.266381 219.557363 
L 307.356099 206.347113 
L 309.045177 190.956403 
L 309.222596 173.39493 
L 309.535851 154.013971 
L 308.874864 133.590571 
L 307.137238 113.137869 
L 313.190386 93.757994 
L 312.266662 76.198006 
L 314.315298 60.808896 
L 313.083937 47.600163 
L 313.548299 36.380776 
L 312.999501 26.88 
L 315.156389 26.88 
z
" clip-path="url(#pa51c7e748d)" style="fill: #38598c"/>
    <path d="M 100.900825 36.380776 
L 100.24728 47.600163 
L 100.532732 60.808896 
L 99.974946 76.198006 
L 99.947414 93.757994 
L 100.490104 113.137869 
L 103.885654 133.590571 
L 107.823097 154.013971 
L 101.523816 173.39493 
L 103.335534 190.956403 
L 102.098721 206.347113 
L 102.227617 219.557363 
L 104.366982 230.778089 
L 101.312691 240.28 
L 99.138645 240.28 
L 101.738421 230.778089 
L 99.917419 219.557363 
L 99.807704 206.347113 
L 100.860464 190.956403 
L 99.318352 173.39493 
L 104.680225 154.013971 
L 101.32872 133.590571 
L 98.438468 113.137869 
L 97.976537 93.757994 
L 97.999972 76.198006 
L 98.474753 60.808896 
L 98.231779 47.600163 
L 98.78807 36.380776 
L 100.000005 26.88 
L 102.324641 26.88 
z
M 313.548299 36.380776 
L 313.083937 47.600163 
L 314.315298 60.808896 
L 312.266662 76.198006 
L 313.190386 93.757994 
L 307.137238 113.137869 
L 308.874864 133.590571 
L 309.535851 154.013971 
L 309.222596 173.39493 
L 309.045177 190.956403 
L 307.356099 206.347113 
L 310.266381 219.557363 
L 308.641969 230.778089 
L 307.317533 240.28 
L 304.167275 240.28 
L 305.72326 230.778089 
L 307.631666 219.557363 
L 304.212584 206.347113 
L 306.196961 190.956403 
L 306.405398 173.39493 
L 306.77342 154.013971 
L 305.996873 133.590571 
L 303.95546 113.137869 
L 311.066871 93.757994 
L 309.981653 76.198006 
L 312.38845 60.808896 
L 310.941811 47.600163 
L 311.487357 36.380776 
L 310.842614 26.88 
L 312.999501 26.88 
z
" clip-path="url(#pa51c7e748d)" style="fill: #31668e"/>
    <path d="M 103.013581 36.380776 
L 102.26278 47.600163 
L 102.590711 60.808896 
L 101.94992 76.198006 
L 101.91829 93.757994 
L 102.541739 113.137869 
L 106.442587 133.590571 
L 110.566667 152.522669 
L 111.122336 154.013971 
L 110.566667 154.776958 
L 103.72928 173.39493 
L 105.810603 190.956403 
L 104.389738 206.347113 
L 104.537815 219.557363 
L 106.995544 230.778089 
L 103.486737 240.28 
L 101.312691 240.28 
L 104.366982 230.778089 
L 102.227617 219.557363 
L 102.098721 206.347113 
L 103.335534 190.956403 
L 101.523816 173.39493 
L 107.823097 154.013971 
L 103.885654 133.590571 
L 100.490104 113.137869 
L 99.947414 93.757994 
L 99.974946 76.198006 
L 100.532732 60.808896 
L 100.24728 47.600163 
L 100.900825 36.380776 
L 102.324641 26.88 
L 104.649278 26.88 
z
M 311.487357 36.380776 
L 310.941811 47.600163 
L 312.38845 60.808896 
L 309.981653 76.198006 
L 311.066871 93.757994 
L 303.95546 113.137869 
L 305.996873 133.590571 
L 306.77342 154.013971 
L 306.405398 173.39493 
L 306.196961 190.956403 
L 304.212584 206.347113 
L 307.631666 219.557363 
L 305.72326 230.778089 
L 304.167275 240.28 
L 301.473333 240.28 
L 277.61 240.28 
L 276.430161 240.28 
L 277.61 238.714387 
L 301.473333 237.9897 
L 302.804552 230.778089 
L 304.996952 219.557363 
L 301.473333 207.505973 
L 296.887854 206.347113 
L 301.473333 203.832311 
L 303.348745 190.956403 
L 303.5882 173.39493 
L 304.010988 154.013971 
L 303.118882 133.590571 
L 301.473333 118.818832 
L 300.391656 113.137869 
L 301.473333 111.997716 
L 308.943356 93.757994 
L 307.696644 76.198006 
L 310.461601 60.808896 
L 308.799685 47.600163 
L 309.426414 36.380776 
L 308.685726 26.88 
L 310.842614 26.88 
z
" clip-path="url(#pa51c7e748d)" style="fill: #2c728e"/>
    <path d="M 105.126336 36.380776 
L 104.27828 47.600163 
L 104.64869 60.808896 
L 103.924894 76.198006 
L 103.889167 93.757994 
L 104.593374 113.137869 
L 108.999521 133.590571 
L 110.566667 140.784748 
L 115.495968 154.013971 
L 110.566667 160.782361 
L 105.934744 173.39493 
L 108.285672 190.956403 
L 106.680754 206.347113 
L 106.848013 219.557363 
L 109.624105 230.778089 
L 105.660783 240.28 
L 103.486737 240.28 
L 106.995544 230.778089 
L 104.537815 219.557363 
L 104.389738 206.347113 
L 105.810603 190.956403 
L 103.72928 173.39493 
L 110.566667 154.776958 
L 111.122336 154.013971 
L 110.566667 152.522669 
L 106.442587 133.590571 
L 102.541739 113.137869 
L 101.91829 93.757994 
L 101.94992 76.198006 
L 102.590711 60.808896 
L 102.26278 47.600163 
L 103.013581 36.380776 
L 104.649278 26.88 
L 106.973914 26.88 
z
M 309.426414 36.380776 
L 308.799685 47.600163 
L 310.461601 60.808896 
L 307.696644 76.198006 
L 308.943356 93.757994 
L 301.473333 111.997716 
L 300.391656 113.137869 
L 301.473333 118.818832 
L 303.118882 133.590571 
L 304.010988 154.013971 
L 303.5882 173.39493 
L 303.348745 190.956403 
L 301.473333 203.832311 
L 296.887854 206.347113 
L 301.473333 207.505973 
L 304.996952 219.557363 
L 302.804552 230.778089 
L 301.473333 237.9897 
L 277.61 238.714387 
L 276.430161 240.28 
L 269.320759 240.28 
L 276.484731 230.778089 
L 277.61 229.504158 
L 301.473333 223.852994 
L 302.362237 219.557363 
L 301.473333 216.517156 
L 277.61 209.918875 
L 275.006851 206.347113 
L 277.61 204.368715 
L 299.1147 190.956403 
L 297.807659 173.39493 
L 300.965019 154.013971 
L 299.453455 133.590571 
L 295.472548 113.137869 
L 301.473333 106.81268 
L 306.81984 93.757994 
L 305.411636 76.198006 
L 308.534753 60.808896 
L 306.657559 47.600163 
L 307.365472 36.380776 
L 306.528839 26.88 
L 308.685726 26.88 
z
" clip-path="url(#pa51c7e748d)" style="fill: #277e8e"/>
    <path d="M 107.239092 36.380776 
L 106.29378 47.600163 
L 106.706669 60.808896 
L 105.899868 76.198006 
L 105.860044 93.757994 
L 106.64501 113.137869 
L 110.566667 130.146167 
L 112.224327 133.590571 
L 119.869599 154.013971 
L 110.566667 166.787765 
L 108.140208 173.39493 
L 110.566667 189.788061 
L 111.075812 190.956403 
L 110.566667 192.514458 
L 108.971771 206.347113 
L 109.158211 219.557363 
L 110.566667 225.025362 
L 115.987862 230.778089 
L 110.566667 233.989218 
L 107.834829 240.28 
L 105.660783 240.28 
L 109.624105 230.778089 
L 106.848013 219.557363 
L 106.680754 206.347113 
L 108.285672 190.956403 
L 105.934744 173.39493 
L 110.566667 160.782361 
L 115.495968 154.013971 
L 110.566667 140.784748 
L 108.999521 133.590571 
L 104.593374 113.137869 
L 103.889167 93.757994 
L 103.924894 76.198006 
L 104.64869 60.808896 
L 104.27828 47.600163 
L 105.126336 36.380776 
L 106.973914 26.88 
L 109.298551 26.88 
z
M 229.883333 26.88 
L 230.158114 26.88 
L 230.161669 36.380776 
L 229.883333 36.509969 
L 229.382979 36.380776 
L 229.644169 26.88 
z
M 307.365472 36.380776 
L 306.657559 47.600163 
L 308.534753 60.808896 
L 305.411636 76.198006 
L 306.81984 93.757994 
L 301.473333 106.81268 
L 295.472548 113.137869 
L 299.453455 133.590571 
L 300.965019 154.013971 
L 297.807659 173.39493 
L 299.1147 190.956403 
L 277.61 204.368715 
L 275.006851 206.347113 
L 277.61 209.918875 
L 301.473333 216.517156 
L 302.362237 219.557363 
L 301.473333 223.852994 
L 277.61 229.504158 
L 276.484731 230.778089 
L 269.320759 240.28 
L 262.211357 240.28 
L 269.396595 230.778089 
L 277.61 221.479591 
L 283.946219 219.557363 
L 277.61 217.694716 
L 269.339714 206.347113 
L 277.61 200.061682 
L 292.208996 190.956403 
L 283.103868 173.39493 
L 294.718022 154.013971 
L 294.73665 133.590571 
L 290.55344 113.137869 
L 301.473333 101.627645 
L 304.696325 93.757994 
L 303.126627 76.198006 
L 306.607904 60.808896 
L 304.515434 47.600163 
L 305.30453 36.380776 
L 304.371952 26.88 
L 306.528839 26.88 
z
" clip-path="url(#pa51c7e748d)" style="fill: #238a8d"/>
    <path d="M 110.566667 26.88 
L 134.43 26.88 
L 141.570874 26.88 
L 134.43 31.634867 
L 110.566667 31.074338 
L 109.351848 36.380776 
L 108.309281 47.600163 
L 108.764648 60.808896 
L 107.874841 76.198006 
L 107.83092 93.757994 
L 108.696645 113.137869 
L 110.566667 121.248187 
L 116.506585 133.590571 
L 124.24323 154.013971 
L 110.566667 172.793169 
L 110.345672 173.39493 
L 110.566667 174.887969 
L 117.569039 190.956403 
L 113.692206 206.347113 
L 114.060849 219.557363 
L 124.439791 230.778089 
L 110.566667 238.995537 
L 110.008875 240.28 
L 107.834829 240.28 
L 110.566667 233.989218 
L 115.987862 230.778089 
L 110.566667 225.025362 
L 109.158211 219.557363 
L 108.971771 206.347113 
L 110.566667 192.514458 
L 111.075812 190.956403 
L 110.566667 189.788061 
L 108.140208 173.39493 
L 110.566667 166.787765 
L 119.869599 154.013971 
L 112.224327 133.590571 
L 110.566667 130.146167 
L 106.64501 113.137869 
L 105.860044 93.757994 
L 105.899868 76.198006 
L 106.706669 60.808896 
L 106.29378 47.600163 
L 107.239092 36.380776 
L 109.298551 26.88 
z
M 229.382979 36.380776 
L 229.883333 36.509969 
L 230.161669 36.380776 
L 230.158114 26.88 
L 241.183015 26.88 
L 236.710385 36.380776 
L 229.883333 39.549645 
L 217.610583 36.380776 
L 220.04828 26.88 
L 229.644169 26.88 
z
M 277.61 26.88 
L 294.680551 26.88 
L 277.61 35.625443 
L 267.317995 26.88 
z
M 305.30453 36.380776 
L 304.515434 47.600163 
L 306.607904 60.808896 
L 303.126627 76.198006 
L 304.696325 93.757994 
L 301.473333 101.627645 
L 290.55344 113.137869 
L 294.73665 133.590571 
L 294.718022 154.013971 
L 283.103868 173.39493 
L 292.208996 190.956403 
L 277.61 200.061682 
L 269.339714 206.347113 
L 277.61 217.694716 
L 283.946219 219.557363 
L 277.61 221.479591 
L 269.396595 230.778089 
L 262.211357 240.28 
L 255.101954 240.28 
L 262.308459 230.778089 
L 271.372393 219.557363 
L 263.672576 206.347113 
L 277.61 195.754649 
L 285.303292 190.956403 
L 277.61 179.715196 
L 266.989547 173.39493 
L 277.61 168.261857 
L 288.471026 154.013971 
L 290.019846 133.590571 
L 285.634333 113.137869 
L 301.473333 96.44261 
L 302.57281 93.757994 
L 301.473333 82.310451 
L 293.261561 76.198006 
L 301.473333 74.006342 
L 304.681055 60.808896 
L 302.373308 47.600163 
L 303.243588 36.380776 
L 302.215064 26.88 
L 304.371952 26.88 
z
M 206.02 230.444128 
L 206.688921 230.778089 
L 216.977005 240.28 
L 206.02 240.28 
L 193.62679 240.28 
L 204.397114 230.778089 
z
" clip-path="url(#pa51c7e748d)" style="fill: #1f968b"/>
    <path d="M 110.566667 31.074338 
L 134.43 31.634867 
L 141.570874 26.88 
L 153.011683 26.88 
L 153.136799 36.380776 
L 134.43 37.872696 
L 110.566667 45.129667 
L 110.324781 47.600163 
L 110.566667 54.086648 
L 112.550281 60.808896 
L 110.566667 64.736355 
L 109.849815 76.198006 
L 109.801797 93.757994 
L 110.566667 109.538401 
L 111.39204 113.137869 
L 120.788844 133.590571 
L 128.616861 154.013971 
L 116.385302 173.39493 
L 124.062267 190.956403 
L 123.978723 206.347113 
L 123.012691 219.557363 
L 132.891719 230.778089 
L 134.43 233.195117 
L 149.552932 240.28 
L 134.43 240.28 
L 110.566667 240.28 
L 110.008875 240.28 
L 110.566667 238.995537 
L 124.439791 230.778089 
L 114.060849 219.557363 
L 113.692206 206.347113 
L 117.569039 190.956403 
L 110.566667 174.887969 
L 110.345672 173.39493 
L 110.566667 172.793169 
L 124.24323 154.013971 
L 116.506585 133.590571 
L 110.566667 121.248187 
L 108.696645 113.137869 
L 107.83092 93.757994 
L 107.874841 76.198006 
L 108.764648 60.808896 
L 108.309281 47.600163 
L 109.351848 36.380776 
z
M 182.156667 31.165704 
L 206.02 36.073391 
L 210.452391 26.88 
L 220.04828 26.88 
L 217.610583 36.380776 
L 229.883333 39.549645 
L 236.710385 36.380776 
L 241.183015 26.88 
L 252.207916 26.88 
L 243.259102 36.380776 
L 229.883333 42.58932 
L 206.02 36.443225 
L 182.156667 38.092799 
L 163.023231 36.380776 
z
M 277.61 35.625443 
L 294.680551 26.88 
L 301.473333 26.88 
L 302.215064 26.88 
L 303.243588 36.380776 
L 302.373308 47.600163 
L 304.681055 60.808896 
L 301.473333 74.006342 
L 293.261561 76.198006 
L 301.473333 82.310451 
L 302.57281 93.757994 
L 301.473333 96.44261 
L 285.634333 113.137869 
L 290.019846 133.590571 
L 288.471026 154.013971 
L 277.61 168.261857 
L 266.989547 173.39493 
L 277.61 179.715196 
L 285.303292 190.956403 
L 277.61 195.754649 
L 263.672576 206.347113 
L 271.372393 219.557363 
L 262.308459 230.778089 
L 255.101954 240.28 
L 253.746667 240.28 
L 229.883333 240.28 
L 216.977005 240.28 
L 206.688921 230.778089 
L 206.02 230.444128 
L 204.397114 230.778089 
L 193.62679 240.28 
L 182.156667 240.28 
L 170.185962 240.28 
L 179.945755 230.778089 
L 182.156667 230.002308 
L 206.02 224.828869 
L 217.936268 230.778089 
L 229.883333 239.298963 
L 253.746667 232.720039 
L 255.220322 230.778089 
L 263.169948 219.557363 
L 258.005439 206.347113 
L 277.61 191.447615 
L 278.397588 190.956403 
L 277.61 189.805603 
L 253.746667 174.857709 
L 252.67856 173.39493 
L 253.746667 170.9922 
L 277.61 160.066822 
L 282.22403 154.013971 
L 285.303041 133.590571 
L 280.715225 113.137869 
L 295.45443 93.757994 
L 277.61 80.563782 
L 274.942942 76.198006 
L 273.644244 60.808896 
L 272.656839 47.600163 
L 268.870918 36.380776 
L 255.408834 26.88 
L 267.317995 26.88 
z
M 289.310593 60.808896 
L 301.473333 66.078759 
L 302.754207 60.808896 
L 301.473333 53.754117 
z
" clip-path="url(#pa51c7e748d)" style="fill: #1fa287"/>
    <path d="M 158.293333 26.88 
L 182.156667 26.88 
L 206.02 26.88 
L 210.452391 26.88 
L 206.02 36.073391 
L 182.156667 31.165704 
L 163.023231 36.380776 
L 182.156667 38.092799 
L 206.02 36.443225 
L 229.883333 42.58932 
L 243.259102 36.380776 
L 252.207916 26.88 
L 253.746667 26.88 
L 255.408834 26.88 
L 268.870918 36.380776 
L 272.656839 47.600163 
L 273.644244 60.808896 
L 274.942942 76.198006 
L 277.61 80.563782 
L 295.45443 93.757994 
L 280.715225 113.137869 
L 285.303041 133.590571 
L 282.22403 154.013971 
L 277.61 160.066822 
L 253.746667 170.9922 
L 252.67856 173.39493 
L 253.746667 174.857709 
L 277.61 189.805603 
L 278.397588 190.956403 
L 277.61 191.447615 
L 258.005439 206.347113 
L 263.169948 219.557363 
L 255.220322 230.778089 
L 253.746667 232.720039 
L 229.883333 239.298963 
L 217.936268 230.778089 
L 206.02 224.828869 
L 182.156667 230.002308 
L 179.945755 230.778089 
L 170.185962 240.28 
L 158.293333 240.28 
L 149.552932 240.28 
L 134.43 233.195117 
L 132.891719 230.778089 
L 123.012691 219.557363 
L 123.978723 206.347113 
L 124.062267 190.956403 
L 116.385302 173.39493 
L 128.616861 154.013971 
L 120.788844 133.590571 
L 111.39204 113.137869 
L 110.566667 109.538401 
L 109.801797 93.757994 
L 109.849815 76.198006 
L 110.566667 64.736355 
L 112.550281 60.808896 
L 110.566667 54.086648 
L 110.324781 47.600163 
L 110.566667 45.129667 
L 134.43 37.872696 
L 153.136799 36.380776 
L 153.011683 26.88 
z
M 249.807818 36.380776 
L 229.883333 45.628996 
L 206.02 40.486839 
L 182.156667 42.165175 
L 158.293333 39.336943 
L 134.43 41.829857 
L 119.547764 47.600163 
L 128.498967 60.808896 
L 117.209786 76.198006 
L 116.122828 93.757994 
L 120.716041 113.137869 
L 125.071103 133.590571 
L 132.990492 154.013971 
L 122.851914 173.39493 
L 130.555494 190.956403 
L 134.26524 206.347113 
L 131.964532 219.557363 
L 134.43 222.383703 
L 146.410225 230.778089 
L 158.293333 235.907415 
L 167.992109 230.778089 
L 182.156667 225.807926 
L 205.078388 219.557363 
L 206.02 218.800618 
L 206.617873 219.557363 
L 229.183614 230.778089 
L 229.883333 231.277142 
L 231.621098 230.778089 
L 253.746667 221.332273 
L 254.967504 219.557363 
L 253.746667 214.609138 
L 252.15429 206.347113 
L 253.746667 204.040831 
L 268.4014 190.956403 
L 253.746667 181.53789 
L 247.80076 173.39493 
L 253.746667 160.019473 
L 269.896646 154.013971 
L 277.61 148.03149 
L 280.586236 133.590571 
L 277.61 120.681696 
L 274.699996 113.137869 
L 277.61 104.187773 
L 282.973231 93.757994 
L 277.61 89.792409 
L 269.305162 76.198006 
L 267.442826 60.808896 
L 267.556481 47.600163 
L 259.42693 36.380776 
L 253.746667 32.471872 
z
M 301.473333 53.754117 
L 302.754207 60.808896 
L 301.473333 66.078759 
L 289.310593 60.808896 
z
" clip-path="url(#pa51c7e748d)" style="fill: #28ae80"/>
    <path d="M 253.746667 32.471872 
L 259.42693 36.380776 
L 267.556481 47.600163 
L 267.442826 60.808896 
L 269.305162 76.198006 
L 277.61 89.792409 
L 282.973231 93.757994 
L 277.61 104.187773 
L 274.699996 113.137869 
L 277.61 120.681696 
L 280.586236 133.590571 
L 277.61 148.03149 
L 269.896646 154.013971 
L 253.746667 160.019473 
L 247.80076 173.39493 
L 253.746667 181.53789 
L 268.4014 190.956403 
L 253.746667 204.040831 
L 252.15429 206.347113 
L 253.746667 214.609138 
L 254.967504 219.557363 
L 253.746667 221.332273 
L 231.621098 230.778089 
L 229.883333 231.277142 
L 229.183614 230.778089 
L 206.617873 219.557363 
L 206.02 218.800618 
L 205.078388 219.557363 
L 182.156667 225.807926 
L 167.992109 230.778089 
L 158.293333 235.907415 
L 146.410225 230.778089 
L 134.43 222.383703 
L 131.964532 219.557363 
L 134.26524 206.347113 
L 130.555494 190.956403 
L 122.851914 173.39493 
L 132.990492 154.013971 
L 125.071103 133.590571 
L 120.716041 113.137869 
L 116.122828 93.757994 
L 117.209786 76.198006 
L 128.498967 60.808896 
L 119.547764 47.600163 
L 134.43 41.829857 
L 158.293333 39.336943 
L 182.156667 42.165175 
L 206.02 40.486839 
L 229.883333 45.628996 
L 249.807818 36.380776 
z
M 129.753704 47.600163 
L 134.43 53.171453 
L 139.519189 60.808896 
L 134.43 68.363986 
L 127.638016 76.198006 
L 125.2028 93.757994 
L 130.040041 113.137869 
L 129.353361 133.590571 
L 134.43 146.633241 
L 137.381461 154.013971 
L 134.43 162.911509 
L 129.318526 173.39493 
L 134.43 185.023334 
L 138.312715 190.956403 
L 147.671079 206.347113 
L 142.401747 219.557363 
L 158.293333 229.482006 
L 182.156667 221.613544 
L 189.696981 219.557363 
L 206.02 206.439051 
L 216.384241 219.557363 
L 229.883333 226.242439 
L 244.652064 219.557363 
L 245.746706 206.347113 
L 253.746667 194.76056 
L 258.007373 190.956403 
L 253.746667 188.218072 
L 242.922959 173.39493 
L 251.065141 154.013971 
L 253.746667 150.542623 
L 274.196434 133.590571 
L 266.808294 113.137869 
L 272.3555 93.757994 
L 263.667383 76.198006 
L 261.241408 60.808896 
L 262.456123 47.600163 
L 253.746667 38.503739 
L 233.957106 47.600163 
L 239.626594 60.808896 
L 229.883333 70.955213 
L 214.113591 60.808896 
L 222.330727 47.600163 
L 206.02 44.530453 
L 182.156667 46.237552 
L 158.293333 42.635962 
L 134.43 45.787017 
z
" clip-path="url(#pa51c7e748d)" style="fill: #38b977"/>
    <path d="M 134.43 45.787017 
L 158.293333 42.635962 
L 182.156667 46.237552 
L 206.02 44.530453 
L 222.330727 47.600163 
L 214.113591 60.808896 
L 229.883333 70.955213 
L 239.626594 60.808896 
L 233.957106 47.600163 
L 253.746667 38.503739 
L 262.456123 47.600163 
L 261.241408 60.808896 
L 263.667383 76.198006 
L 272.3555 93.757994 
L 266.808294 113.137869 
L 274.196434 133.590571 
L 253.746667 150.542623 
L 251.065141 154.013971 
L 242.922959 173.39493 
L 253.746667 188.218072 
L 258.007373 190.956403 
L 253.746667 194.76056 
L 245.746706 206.347113 
L 244.652064 219.557363 
L 229.883333 226.242439 
L 216.384241 219.557363 
L 206.02 206.439051 
L 189.696981 219.557363 
L 182.156667 221.613544 
L 158.293333 229.482006 
L 142.401747 219.557363 
L 147.671079 206.347113 
L 138.312715 190.956403 
L 134.43 185.023334 
L 129.318526 173.39493 
L 134.43 162.911509 
L 137.381461 154.013971 
L 134.43 146.633241 
L 129.353361 133.590571 
L 130.040041 113.137869 
L 125.2028 93.757994 
L 127.638016 76.198006 
L 134.43 68.363986 
L 139.519189 60.808896 
L 134.43 53.171453 
L 129.753704 47.600163 
z
M 146.784133 47.600163 
L 147.621475 60.808896 
L 137.594761 76.198006 
L 134.43 92.977714 
L 134.282771 93.757994 
L 134.43 94.334165 
L 138.464693 113.137869 
L 134.43 128.281802 
L 133.63562 133.590571 
L 134.43 135.631457 
L 141.780937 154.013971 
L 139.681221 173.39493 
L 147.940066 190.956403 
L 158.293333 203.826382 
L 182.156667 197.779775 
L 206.02 197.542229 
L 215.616093 206.347113 
L 226.150608 219.557363 
L 229.883333 221.405898 
L 233.967135 219.557363 
L 239.339121 206.347113 
L 248.929443 190.956403 
L 238.045158 173.39493 
L 245.141582 154.013971 
L 253.746667 142.874325 
L 264.945938 133.590571 
L 258.916591 113.137869 
L 263.14185 93.757994 
L 258.029603 76.198006 
L 255.03999 60.808896 
L 257.355765 47.600163 
L 253.746667 43.830709 
L 245.546101 47.600163 
L 251.310049 60.808896 
L 240.103555 76.198006 
L 229.883333 80.121755 
L 206.02 81.045377 
L 182.156667 79.210053 
L 180.067859 76.198006 
L 175.367172 60.808896 
L 168.586896 47.600163 
L 158.293333 45.93498 
z
M 153.403552 219.557363 
L 158.293333 222.611138 
L 169.408183 219.557363 
L 158.293333 210.594622 
z
M 182.156667 108.655552 
L 206.02 112.22356 
L 207.215382 113.137869 
L 206.02 113.485792 
L 182.156667 115.369929 
L 179.557232 113.137869 
z
M 182.156667 172.759298 
L 183.00515 173.39493 
L 182.156667 175.834401 
L 180.239772 173.39493 
z
" clip-path="url(#pa51c7e748d)" style="fill: #50c46a"/>
    <path d="M 158.293333 45.93498 
L 168.586896 47.600163 
L 175.367172 60.808896 
L 180.067859 76.198006 
L 182.156667 79.210053 
L 206.02 81.045377 
L 229.883333 80.121755 
L 240.103555 76.198006 
L 251.310049 60.808896 
L 245.546101 47.600163 
L 253.746667 43.830709 
L 257.355765 47.600163 
L 255.03999 60.808896 
L 258.029603 76.198006 
L 263.14185 93.757994 
L 258.916591 113.137869 
L 264.945938 133.590571 
L 253.746667 142.874325 
L 245.141582 154.013971 
L 238.045158 173.39493 
L 248.929443 190.956403 
L 239.339121 206.347113 
L 233.967135 219.557363 
L 229.883333 221.405898 
L 226.150608 219.557363 
L 215.616093 206.347113 
L 206.02 197.542229 
L 182.156667 197.779775 
L 158.293333 203.826382 
L 147.940066 190.956403 
L 139.681221 173.39493 
L 141.780937 154.013971 
L 134.43 135.631457 
L 133.63562 133.590571 
L 134.43 128.281802 
L 138.464693 113.137869 
L 134.43 94.334165 
L 134.282771 93.757994 
L 134.43 92.977714 
L 137.594761 76.198006 
L 147.621475 60.808896 
L 146.784133 47.600163 
z
M 155.72376 60.808896 
L 146.670842 76.198006 
L 141.309753 93.757994 
L 146.089169 113.137869 
L 138.610645 133.590571 
L 146.180412 154.013971 
L 158.293333 171.738811 
L 182.156667 162.96148 
L 196.083931 173.39493 
L 206.02 186.509683 
L 209.884477 190.956403 
L 225.284091 206.347113 
L 229.883333 212.094038 
L 232.931537 206.347113 
L 240.765781 190.956403 
L 233.167358 173.39493 
L 239.218023 154.013971 
L 253.746667 135.206028 
L 255.695441 133.590571 
L 253.746667 125.834929 
L 240.312391 113.137869 
L 253.746667 94.805287 
L 253.928201 93.757994 
L 253.746667 92.427393 
L 229.883333 87.016543 
L 206.02 90.460824 
L 182.156667 92.978029 
L 170.519985 76.198006 
L 162.404377 60.808896 
L 158.293333 55.652461 
z
M 180.239772 173.39493 
L 182.156667 175.834401 
L 183.00515 173.39493 
L 182.156667 172.759298 
z
M 157.567418 190.956403 
L 158.293333 191.858777 
L 160.965936 190.956403 
L 158.293333 186.975794 
z
M 182.156667 94.556703 
L 206.02 98.547261 
L 225.095985 113.137869 
L 206.02 118.69004 
L 182.156667 122.390735 
L 171.380873 113.137869 
z
M 179.557232 113.137869 
L 182.156667 115.369929 
L 206.02 113.485792 
L 207.215382 113.137869 
L 206.02 112.22356 
L 182.156667 108.655552 
z
M 158.293333 210.594622 
L 169.408183 219.557363 
L 158.293333 222.611138 
L 153.403552 219.557363 
z
" clip-path="url(#pa51c7e748d)" style="fill: #6ccd5a"/>
    <path d="M 158.293333 55.652461 
L 162.404377 60.808896 
L 170.519985 76.198006 
L 182.156667 92.978029 
L 206.02 90.460824 
L 229.883333 87.016543 
L 253.746667 92.427393 
L 253.928201 93.757994 
L 253.746667 94.805287 
L 240.312391 113.137869 
L 253.746667 125.834929 
L 255.695441 133.590571 
L 253.746667 135.206028 
L 239.218023 154.013971 
L 233.167358 173.39493 
L 240.765781 190.956403 
L 232.931537 206.347113 
L 229.883333 212.094038 
L 225.284091 206.347113 
L 209.884477 190.956403 
L 206.02 186.509683 
L 196.083931 173.39493 
L 182.156667 162.96148 
L 158.293333 171.738811 
L 146.180412 154.013971 
L 138.610645 133.590571 
L 146.089169 113.137869 
L 141.309753 93.757994 
L 146.670842 76.198006 
L 155.72376 60.808896 
z
M 155.746924 76.198006 
L 148.302897 93.757994 
L 153.713645 113.137869 
L 143.743451 133.590571 
L 150.579887 154.013971 
L 158.293333 165.301058 
L 181.031158 154.013971 
L 182.156667 151.415139 
L 183.487035 154.013971 
L 206.02 170.671836 
L 229.883333 166.379025 
L 233.294464 154.013971 
L 244.902631 133.590571 
L 229.883333 120.363435 
L 206.02 123.894289 
L 182.156667 129.411541 
L 163.204514 113.137869 
L 172.665983 93.757994 
L 160.972111 76.198006 
L 158.293333 71.716465 
z
M 171.380873 113.137869 
L 182.156667 122.390735 
L 206.02 118.69004 
L 225.095985 113.137869 
L 206.02 98.547261 
L 182.156667 94.556703 
z
M 224.886976 190.956403 
L 229.883333 196.935109 
L 232.602118 190.956403 
L 229.883333 182.091899 
z
M 158.293333 186.975794 
L 160.965936 190.956403 
L 158.293333 191.858777 
L 157.567418 190.956403 
z
" clip-path="url(#pa51c7e748d)" style="fill: #8bd646"/>
    <path d="M 158.293333 71.716465 
L 160.972111 76.198006 
L 172.665983 93.757994 
L 163.204514 113.137869 
L 182.156667 129.411541 
L 206.02 123.894289 
L 229.883333 120.363435 
L 244.902631 133.590571 
L 233.294464 154.013971 
L 229.883333 166.379025 
L 206.02 170.671836 
L 183.487035 154.013971 
L 182.156667 151.415139 
L 181.031158 154.013971 
L 158.293333 165.301058 
L 150.579887 154.013971 
L 143.743451 133.590571 
L 153.713645 113.137869 
L 148.302897 93.757994 
L 155.746924 76.198006 
z
M 155.296042 93.757994 
L 158.293333 103.790383 
L 162.605359 93.757994 
L 158.293333 87.202234 
z
M 148.876257 133.590571 
L 154.979362 154.013971 
L 158.293333 158.863306 
L 168.062312 154.013971 
L 177.843533 133.590571 
L 158.293333 116.793893 
z
M 189.774736 133.590571 
L 198.816407 154.013971 
L 206.02 159.339346 
L 218.562612 154.013971 
L 229.883333 142.684907 
L 233.698189 133.590571 
L 229.883333 130.230918 
L 206.02 129.098538 
z
M 229.883333 182.091899 
L 232.602118 190.956403 
L 229.883333 196.935109 
L 224.886976 190.956403 
z
" clip-path="url(#pa51c7e748d)" style="fill: #addc30"/>
    <path d="M 158.293333 87.202234 
L 162.605359 93.757994 
L 158.293333 103.790383 
L 155.296042 93.757994 
z
M 158.293333 116.793893 
L 177.843533 133.590571 
L 168.062312 154.013971 
L 158.293333 158.863306 
L 154.979362 154.013971 
L 148.876257 133.590571 
z
M 154.009063 133.590571 
L 158.293333 149.354198 
L 167.187638 133.590571 
L 158.293333 125.948973 
z
M 206.02 129.098538 
L 229.883333 130.230918 
L 233.698189 133.590571 
L 229.883333 142.684907 
L 218.562612 154.013971 
L 206.02 159.339346 
L 198.816407 154.013971 
L 189.774736 133.590571 
z
" clip-path="url(#pa51c7e748d)" style="fill: #cde11d"/>
    <path d="M 158.293333 125.948973 
L 167.187638 133.590571 
L 158.293333 149.354198 
L 154.009063 133.590571 
z
" clip-path="url(#pa51c7e748d)" style="fill: #efe51c"/>
   </g>
   <g id="matplotlib.axis_1">
    <g id="xtick_1">
     <g id="line2d_1">
      <defs>
       <path id="m295a01a193" d="M 0 0 
L 0 3.5 
" style="stroke: #000000; stroke-width: 0.8"/>
      </defs>
      <g>
       <use xlink:href="#m295a01a193" x="126.475556" y="240.28" style="stroke: #000000; stroke-width: 0.8"/>
      </g>
     </g>
     <g id="text_1">
      <!-- −50 -->
      <g transform="translate(113.812743 256.398125) scale(0.12 -0.12)">
       <defs>
        <path id="DejaVuSans-2212" d="M 678 2272 
L 4684 2272 
L 4684 1741 
L 678 1741 
L 678 2272 
z
" transform="scale(0.015625)"/>
        <path id="DejaVuSans-35" d="M 691 4666 
L 3169 4666 
L 3169 4134 
L 1269 4134 
L 1269 2991 
Q 1406 3038 1543 3061 
Q 1681 3084 1819 3084 
Q 2600 3084 3056 2656 
Q 3513 2228 3513 1497 
Q 3513 744 3044 326 
Q 2575 -91 1722 -91 
Q 1428 -91 1123 -41 
Q 819 9 494 109 
L 494 744 
Q 775 591 1075 516 
Q 1375 441 1709 441 
Q 2250 441 2565 725 
Q 2881 1009 2881 1497 
Q 2881 1984 2565 2268 
Q 2250 2553 1709 2553 
Q 1456 2553 1204 2497 
Q 953 2441 691 2322 
L 691 4666 
z
" transform="scale(0.015625)"/>
        <path id="DejaVuSans-30" d="M 2034 4250 
Q 1547 4250 1301 3770 
Q 1056 3291 1056 2328 
Q 1056 1369 1301 889 
Q 1547 409 2034 409 
Q 2525 409 2770 889 
Q 3016 1369 3016 2328 
Q 3016 3291 2770 3770 
Q 2525 4250 2034 4250 
z
M 2034 4750 
Q 2819 4750 3233 4129 
Q 3647 3509 3647 2328 
Q 3647 1150 3233 529 
Q 2819 -91 2034 -91 
Q 1250 -91 836 529 
Q 422 1150 422 2328 
Q 422 3509 836 4129 
Q 1250 4750 2034 4750 
z
" transform="scale(0.015625)"/>
       </defs>
       <use xlink:href="#DejaVuSans-2212"/>
       <use xlink:href="#DejaVuSans-35" transform="translate(83.789062 0)"/>
       <use xlink:href="#DejaVuSans-30" transform="translate(147.412109 0)"/>
      </g>
     </g>
    </g>
    <g id="xtick_2">
     <g id="line2d_2">
      <g>
       <use xlink:href="#m295a01a193" x="206.02" y="240.28" style="stroke: #000000; stroke-width: 0.8"/>
      </g>
     </g>
     <g id="text_2">
      <!-- 0 -->
      <g transform="translate(202.2025 256.398125) scale(0.12 -0.12)">
       <use xlink:href="#DejaVuSans-30"/>
      </g>
     </g>
    </g>
    <g id="xtick_3">
     <g id="line2d_3">
      <g>
       <use xlink:href="#m295a01a193" x="285.564444" y="240.28" style="stroke: #000000; stroke-width: 0.8"/>
      </g>
     </g>
     <g id="text_3">
      <!-- 50 -->
      <g transform="translate(277.929444 256.398125) scale(0.12 -0.12)">
       <use xlink:href="#DejaVuSans-35"/>
       <use xlink:href="#DejaVuSans-30" transform="translate(63.623047 0)"/>
      </g>
     </g>
    </g>
    <g id="text_4">
     <!-- $\Theta^{\circ}$ -->
     <g transform="translate(198.4 272.011875) scale(0.12 -0.12)">
      <defs>
       <path id="DejaVuSans-398" d="M 1416 2750 
L 3622 2750 
L 3622 2219 
L 1416 2219 
L 1416 2750 
z
M 2522 4238 
Q 1834 4238 1431 3725 
Q 1025 3213 1025 2328 
Q 1025 1447 1429 934 
Q 1834 422 2522 422 
Q 3209 422 3613 934 
Q 4013 1447 4013 2328 
Q 4013 3213 3613 3725 
Q 3209 4238 2522 4238 
z
M 2522 4750 
Q 3503 4750 4090 4092 
Q 4678 3434 4678 2328 
Q 4678 1225 4091 569 
Q 3503 -91 2522 -91 
Q 1538 -91 950 566 
Q 359 1222 359 2328 
Q 359 3434 950 4094 
Q 1538 4750 2522 4750 
z
" transform="scale(0.015625)"/>
       <path id="DejaVuSans-2218" d="M 2000 2619 
Q 1750 2619 1578 2445 
Q 1406 2272 1406 2022 
Q 1406 1775 1578 1605 
Q 1750 1435 2000 1435 
Q 2250 1435 2422 1605 
Q 2594 1775 2594 2022 
Q 2594 2269 2420 2444 
Q 2247 2619 2000 2619 
z
M 2000 3022 
Q 2200 3022 2384 2945 
Q 2569 2869 2703 2725 
Q 2847 2585 2919 2406 
Q 2991 2228 2991 2022 
Q 2991 1610 2702 1324 
Q 2413 1038 1994 1038 
Q 1572 1038 1290 1319 
Q 1009 1600 1009 2022 
Q 1009 2441 1296 2731 
Q 1584 3022 2000 3022 
z
" transform="scale(0.015625)"/>
      </defs>
      <use xlink:href="#DejaVuSans-398" transform="translate(0 0.78125)"/>
      <use xlink:href="#DejaVuSans-2218" transform="translate(79.667969 39.0625) scale(0.7)"/>
     </g>
    </g>
   </g>
   <g id="matplotlib.axis_2">
    <g id="ytick_1">
     <g id="line2d_4">
      <defs>
       <path id="m15676e5903" d="M 0 0 
L -3.5 0 
" style="stroke: #000000; stroke-width: 0.8"/>
      </defs>
      <g>
       <use xlink:href="#m15676e5903" x="62.84" y="219.984151" style="stroke: #000000; stroke-width: 0.8"/>
      </g>
     </g>
     <g id="text_5">
      <!-- −40 -->
      <g transform="translate(30.514375 224.543214) scale(0.12 -0.12)">
       <defs>
        <path id="DejaVuSans-34" d="M 2419 4116 
L 825 1625 
L 2419 1625 
L 2419 4116 
z
M 2253 4666 
L 3047 4666 
L 3047 1625 
L 3713 1625 
L 3713 1100 
L 3047 1100 
L 3047 0 
L 2419 0 
L 2419 1100 
L 313 1100 
L 313 1709 
L 2253 4666 
z
" transform="scale(0.015625)"/>
       </defs>
       <use xlink:href="#DejaVuSans-2212"/>
       <use xlink:href="#DejaVuSans-34" transform="translate(83.789062 0)"/>
       <use xlink:href="#DejaVuSans-30" transform="translate(147.412109 0)"/>
      </g>
     </g>
    </g>
    <g id="ytick_2">
     <g id="line2d_5">
      <g>
       <use xlink:href="#m15676e5903" x="62.84" y="176.783648" style="stroke: #000000; stroke-width: 0.8"/>
      </g>
     </g>
     <g id="text_6">
      <!-- −20 -->
      <g transform="translate(30.514375 181.342711) scale(0.12 -0.12)">
       <defs>
        <path id="DejaVuSans-32" d="M 1228 531 
L 3431 531 
L 3431 0 
L 469 0 
L 469 531 
Q 828 903 1448 1529 
Q 2069 2156 2228 2338 
Q 2531 2678 2651 2914 
Q 2772 3150 2772 3378 
Q 2772 3750 2511 3984 
Q 2250 4219 1831 4219 
Q 1534 4219 1204 4116 
Q 875 4013 500 3803 
L 500 4441 
Q 881 4594 1212 4672 
Q 1544 4750 1819 4750 
Q 2544 4750 2975 4387 
Q 3406 4025 3406 3419 
Q 3406 3131 3298 2873 
Q 3191 2616 2906 2266 
Q 2828 2175 2409 1742 
Q 1991 1309 1228 531 
z
" transform="scale(0.015625)"/>
       </defs>
       <use xlink:href="#DejaVuSans-2212"/>
       <use xlink:href="#DejaVuSans-32" transform="translate(83.789062 0)"/>
       <use xlink:href="#DejaVuSans-30" transform="translate(147.412109 0)"/>
      </g>
     </g>
    </g>
    <g id="ytick_3">
     <g id="line2d_6">
      <g>
       <use xlink:href="#m15676e5903" x="62.84" y="133.583145" style="stroke: #000000; stroke-width: 0.8"/>
      </g>
     </g>
     <g id="text_7">
      <!-- 0 -->
      <g transform="translate(48.205 138.142208) scale(0.12 -0.12)">
       <use xlink:href="#DejaVuSans-30"/>
      </g>
     </g>
    </g>
    <g id="ytick_4">
     <g id="line2d_7">
      <g>
       <use xlink:href="#m15676e5903" x="62.84" y="90.382642" style="stroke: #000000; stroke-width: 0.8"/>
      </g>
     </g>
     <g id="text_8">
      <!-- 20 -->
      <g transform="translate(40.57 94.941704) scale(0.12 -0.12)">
       <use xlink:href="#DejaVuSans-32"/>
       <use xlink:href="#DejaVuSans-30" transform="translate(63.623047 0)"/>
      </g>
     </g>
    </g>
    <g id="ytick_5">
     <g id="line2d_8">
      <g>
       <use xlink:href="#m15676e5903" x="62.84" y="47.182139" style="stroke: #000000; stroke-width: 0.8"/>
      </g>
     </g>
     <g id="text_9">
      <!-- 40 -->
      <g transform="translate(40.57 51.741201) scale(0.12 -0.12)">
       <use xlink:href="#DejaVuSans-34"/>
       <use xlink:href="#DejaVuSans-30" transform="translate(63.623047 0)"/>
      </g>
     </g>
    </g>
    <g id="text_10">
     <!-- $\phi^{\circ}$ -->
     <g transform="translate(23.784375 141.38) rotate(-90) scale(0.13 -0.13)">
      <defs>
       <path id="DejaVuSans-Oblique-3d5" d="M 2991 4863 
L 2738 3572 
Q 3363 3572 3684 3094 
Q 4016 2606 3850 1747 
Q 3681 888 3159 400 
Q 2653 -78 2028 -78 
L 1784 -1331 
L 1213 -1331 
L 1456 -78 
Q 834 -78 509 400 
Q 178 888 347 1747 
Q 513 2606 1034 3094 
Q 1544 3572 2166 3572 
L 2419 4863 
L 2991 4863 
z
M 2128 434 
Q 2481 434 2784 756 
Q 3116 1116 3244 1747 
Q 3369 2372 3169 2738 
Q 2991 3059 2638 3059 
L 2128 434 
z
M 1556 434 
L 2066 3059 
Q 1716 3059 1413 2738 
Q 1072 2372 953 1747 
Q 834 1116 1028 756 
Q 1203 434 1556 434 
z
" transform="scale(0.015625)"/>
      </defs>
      <use xlink:href="#DejaVuSans-Oblique-3d5" transform="translate(0 0.015625)"/>
      <use xlink:href="#DejaVuSans-2218" transform="translate(73.414505 38.296875) scale(0.7)"/>
     </g>
    </g>
   </g>
   <g id="QuadContourSet_2">
    <path clip-path="url(#pa51c7e748d)" style="fill: none; stroke-dasharray: 1.85,0.8; stroke-dashoffset: 0; stroke: #000000; stroke-width: 0.5"/>
    <path d="M 323.783938 26.88 
L 323.853009 36.380776 
L 323.794565 47.600163 
L 323.949542 60.808896 
L 323.691705 76.198006 
L 323.807963 93.757994 
L 323.046127 113.137869 
L 323.125455 120.556851 
M 323.317913 146.624851 
L 323.348011 154.013971 
L 323.308585 173.39493 
L 323.286256 190.956403 
L 323.073672 206.347113 
L 323.439954 219.557363 
L 323.235509 230.778089 
L 323.068818 240.28 
M 88.268414 240.28 
L 88.595616 230.778089 
L 88.366429 219.557363 
L 88.35262 206.347113 
L 88.485119 190.956403 
L 88.291032 173.39493 
L 88.965865 154.013971 
L 88.813206 146.622503 
M 88.312262 120.558008 
L 88.180291 113.137869 
L 88.122154 93.757994 
L 88.125103 76.198006 
L 88.184858 60.808896 
L 88.154278 47.600163 
L 88.224291 36.380776 
L 88.376823 26.88 
" clip-path="url(#pa51c7e748d)" style="fill: none; stroke-dasharray: 1.85,0.8; stroke-dashoffset: 0; stroke: #000000; stroke-width: 0.5"/>
    <path d="M 321.627051 26.88 
L 321.792067 36.380776 
L 321.652439 47.600163 
L 322.022693 60.808896 
L 321.406696 76.198006 
L 321.684447 93.757994 
L 319.864349 113.137869 
L 320.053951 120.559933 
M 320.513668 146.624403 
L 320.585579 154.013971 
L 320.491387 173.39493 
L 320.43804 190.956403 
L 319.930157 206.347113 
L 320.805239 219.557363 
L 320.316801 230.778089 
L 319.918561 240.28 
M 90.44246 240.28 
L 91.224177 230.778089 
L 90.676627 219.557363 
L 90.643637 206.347113 
L 90.960188 190.956403 
L 90.496496 173.39493 
L 92.108737 154.013971 
L 91.743453 146.61102 
M 90.547579 120.566527 
L 90.231927 113.137869 
L 90.09303 93.757994 
L 90.100077 76.198006 
L 90.242837 60.808896 
L 90.169778 47.600163 
L 90.337047 36.380776 
L 90.701459 26.88 
" clip-path="url(#pa51c7e748d)" style="fill: none; stroke-dasharray: 1.85,0.8; stroke-dashoffset: 0; stroke: #000000; stroke-width: 0.5"/>
    <path d="M 319.470164 26.88 
L 319.731125 36.380776 
L 319.510314 47.600163 
L 320.095844 60.808896 
L 319.121688 76.198006 
L 319.560932 93.757994 
L 316.682571 113.137869 
L 316.982641 120.565536 
M 317.709412 146.623589 
L 317.823147 154.013971 
L 317.67419 173.39493 
L 317.589824 190.956403 
L 316.786643 206.347113 
L 318.170525 219.557363 
L 317.398093 230.778089 
L 316.768304 240.28 
M 92.616506 240.28 
L 93.852738 230.778089 
L 92.986825 219.557363 
L 92.934654 206.347113 
L 93.435257 190.956403 
L 92.70196 173.39493 
L 95.251609 154.013971 
L 94.672313 146.590202 
M 92.783783 120.581987 
L 92.283562 113.137869 
L 92.063907 93.757994 
L 92.075051 76.198006 
L 92.300816 60.808896 
L 92.185279 47.600163 
L 92.449803 36.380776 
L 93.026096 26.88 
" clip-path="url(#pa51c7e748d)" style="fill: none; stroke-dasharray: 1.85,0.8; stroke-dashoffset: 0; stroke: #000000; stroke-width: 0.5"/>
    <path d="M 317.313276 26.88 
L 317.670183 36.380776 
L 317.368188 47.600163 
L 318.168996 60.808896 
L 316.836679 76.198006 
L 317.437417 93.757994 
L 313.500793 113.137869 
L 313.909246 120.530404 
M 314.90605 146.665704 
L 315.060715 154.013971 
L 314.856992 173.39493 
L 314.741608 190.956403 
L 313.643128 206.347113 
L 315.53581 219.557363 
L 314.479385 230.778089 
L 313.618047 240.28 
M 94.790552 240.28 
L 96.481299 230.778089 
L 95.297023 219.557363 
L 95.225671 206.347113 
L 95.910326 190.956403 
L 94.907424 173.39493 
L 98.394481 154.013971 
L 97.603595 146.603271 
M 95.017418 120.56117 
L 94.335197 113.137869 
L 94.034784 93.757994 
L 94.050025 76.198006 
L 94.358795 60.808896 
L 94.200779 47.600163 
L 94.562558 36.380776 
L 95.350732 26.88 
" clip-path="url(#pa51c7e748d)" style="fill: none; stroke-dasharray: 1.85,0.8; stroke-dashoffset: 0; stroke: #000000; stroke-width: 0.5"/>
    <path d="M 315.156389 26.88 
L 315.609241 36.380776 
L 315.226062 47.600163 
L 316.242147 60.808896 
L 314.55167 76.198006 
L 315.313901 93.757994 
L 310.319016 113.137869 
L 310.838017 120.54105 
M 312.101999 146.664152 
L 312.298283 154.013971 
L 312.039794 173.39493 
L 311.893392 190.956403 
L 310.499613 206.347113 
L 312.901096 219.557363 
L 311.560677 230.778089 
L 310.46779 240.28 
M 96.964599 240.28 
L 99.10986 230.778089 
L 97.607221 219.557363 
L 97.516687 206.347113 
L 98.385395 190.956403 
L 97.112888 173.39493 
L 101.537353 154.013971 
L 100.528555 146.564112 
M 97.255854 120.590355 
L 96.386833 113.137869 
L 96.00566 93.757994 
L 96.024999 76.198006 
L 96.416774 60.808896 
L 96.216279 47.600163 
L 96.675314 36.380776 
L 97.675369 26.88 
" clip-path="url(#pa51c7e748d)" style="fill: none; stroke-dasharray: 1.85,0.8; stroke-dashoffset: 0; stroke: #000000; stroke-width: 0.5"/>
    <path d="M 312.999501 26.88 
L 313.548299 36.380776 
L 313.083937 47.600163 
L 314.315298 60.808896 
L 312.266662 76.198006 
L 313.190386 93.757994 
L 307.137238 113.137869 
L 307.767315 120.554183 
M 309.297918 146.662233 
L 309.535851 154.013971 
L 309.222596 173.39493 
L 309.045177 190.956403 
L 307.356099 206.347113 
L 310.266381 219.557363 
L 308.641969 230.778089 
L 307.317533 240.28 
M 99.138645 240.28 
L 101.738421 230.778089 
L 99.917419 219.557363 
L 99.807704 206.347113 
L 100.860464 190.956403 
L 99.318352 173.39493 
L 104.680225 154.013971 
L 103.449825 146.516159 
M 99.496672 120.626186 
L 98.438468 113.137869 
L 97.976537 93.757994 
L 97.999972 76.198006 
L 98.474753 60.808896 
L 98.231779 47.600163 
L 98.78807 36.380776 
L 100.000005 26.88 
" clip-path="url(#pa51c7e748d)" style="fill: none; stroke-dasharray: 1.85,0.8; stroke-dashoffset: 0; stroke: #000000; stroke-width: 0.5"/>
    <path d="M 310.842614 26.88 
L 311.487357 36.380776 
L 310.941811 47.600163 
L 312.38845 60.808896 
L 309.981653 76.198006 
L 311.066871 93.757994 
L 303.95546 113.137869 
L 304.701553 120.612896 
M 306.492157 146.616671 
L 306.77342 154.013971 
L 306.405398 173.39493 
L 306.196961 190.956403 
L 304.212584 206.347113 
L 307.631666 219.557363 
L 305.72326 230.778089 
L 304.167275 240.28 
M 101.312691 240.28 
L 104.366982 230.778089 
L 102.227617 219.557363 
L 102.098721 206.347113 
L 103.335534 190.956403 
L 101.523816 173.39493 
L 107.823097 154.013971 
L 106.358489 146.417094 
M 101.747439 120.711284 
L 100.490104 113.137869 
L 99.947414 93.757994 
L 99.974946 76.198006 
L 100.532732 60.808896 
L 100.24728 47.600163 
L 100.900825 36.380776 
L 102.324641 26.88 
" clip-path="url(#pa51c7e748d)" style="fill: none; stroke-dasharray: 1.85,0.8; stroke-dashoffset: 0; stroke: #000000; stroke-width: 0.5"/>
    <path d="M 308.685726 26.88 
L 309.426414 36.380776 
L 308.799685 47.600163 
L 310.461601 60.808896 
L 307.696644 76.198006 
L 308.943356 93.757994 
L 301.473333 111.997716 
L 300.391656 113.137869 
L 301.473333 118.818832 
L 303.118882 133.590571 
L 303.440226 140.947246 
M 303.725763 167.088915 
L 303.5882 173.39493 
L 303.348745 190.956403 
L 301.473333 203.832311 
L 296.887854 206.347113 
L 301.473333 207.505973 
L 304.996952 219.557363 
L 302.804552 230.778089 
L 301.473333 237.9897 
L 277.61 238.714387 
L 276.430161 240.28 
M 103.486737 240.28 
L 106.995544 230.778089 
L 104.537815 219.557363 
L 104.389738 206.347113 
L 105.810603 190.956403 
L 103.72928 173.39493 
L 106.89492 164.775 
M 107.775505 139.709493 
L 106.442587 133.590571 
L 102.541739 113.137869 
L 101.91829 93.757994 
L 101.94992 76.198006 
L 102.590711 60.808896 
L 102.26278 47.600163 
L 103.013581 36.380776 
L 104.649278 26.88 
" clip-path="url(#pa51c7e748d)" style="fill: none; stroke-dasharray: 1.85,0.8; stroke-dashoffset: 0; stroke: #000000; stroke-width: 0.5"/>
    <path d="M 306.528839 26.88 
L 307.365472 36.380776 
L 306.657559 47.600163 
L 308.534753 60.808896 
L 305.411636 76.198006 
L 306.81984 93.757994 
L 301.473333 106.81268 
L 295.472548 113.137869 
L 299.453455 133.590571 
L 300.965019 154.013971 
L 299.920697 160.424373 
M 298.78184 186.484084 
L 299.1147 190.956403 
L 277.61 204.368715 
L 275.006851 206.347113 
L 277.61 209.918875 
L 301.473333 216.517156 
L 302.362237 219.557363 
L 301.473333 223.852994 
L 277.61 229.504158 
L 276.484731 230.778089 
L 269.320759 240.28 
M 105.660783 240.28 
L 109.624105 230.778089 
L 106.848013 219.557363 
L 106.680754 206.347113 
L 108.285672 190.956403 
L 105.934744 173.39493 
L 110.566667 160.782361 
L 115.495968 154.013971 
L 115.182104 153.171626 
M 107.779337 127.926654 
L 104.593374 113.137869 
L 103.889167 93.757994 
L 103.924894 76.198006 
L 104.64869 60.808896 
L 104.27828 47.600163 
L 105.126336 36.380776 
L 106.973914 26.88 
" clip-path="url(#pa51c7e748d)" style="fill: none; stroke-dasharray: 1.85,0.8; stroke-dashoffset: 0; stroke: #000000; stroke-width: 0.5"/>
    <path d="M 229.644169 26.88 
L 229.382979 36.380776 
L 229.883333 36.509969 
L 230.161669 36.380776 
L 230.158114 26.88 
M 304.371952 26.88 
L 305.30453 36.380776 
L 304.515434 47.600163 
L 306.607904 60.808896 
L 303.126627 76.198006 
L 304.696325 93.757994 
L 301.473333 101.627645 
L 290.55344 113.137869 
L 294.73665 133.590571 
L 294.72999 140.892994 
M 287.863053 165.453106 
L 283.103868 173.39493 
L 292.208996 190.956403 
L 277.61 200.061682 
L 269.339714 206.347113 
L 277.61 217.694716 
L 283.946219 219.557363 
L 277.61 221.479591 
L 269.396595 230.778089 
L 262.211357 240.28 
M 107.834829 240.28 
L 110.566667 233.989218 
L 115.987862 230.778089 
L 110.566667 225.025362 
L 109.158211 219.557363 
L 108.971771 206.347113 
L 110.566667 192.514458 
L 111.075812 190.956403 
L 110.566667 189.788061 
L 109.039396 179.469838 
M 118.458253 155.95188 
L 119.869599 154.013971 
L 112.224327 133.590571 
L 110.566667 130.146167 
L 106.64501 113.137869 
L 105.860044 93.757994 
L 105.899868 76.198006 
L 106.706669 60.808896 
L 106.29378 47.600163 
L 107.239092 36.380776 
L 109.298551 26.88 
" clip-path="url(#pa51c7e748d)" style="fill: none; stroke-dasharray: 1.85,0.8; stroke-dashoffset: 0; stroke: #000000; stroke-width: 0.5"/>
    <path d="M 220.04828 26.88 
L 217.610583 36.380776 
L 229.883333 39.549645 
L 236.710385 36.380776 
L 241.183015 26.88 
M 289.809797 29.375344 
L 294.680551 26.88 
M 302.215064 26.88 
L 303.243588 36.380776 
L 302.373308 47.600163 
L 304.681055 60.808896 
L 301.473333 74.006342 
L 293.261561 76.198006 
L 301.473333 82.310451 
L 302.57281 93.757994 
L 301.473333 96.44261 
L 285.634333 113.137869 
L 287.279808 120.811866 
M 289.033866 146.592123 
L 288.471026 154.013971 
L 277.61 168.261857 
L 266.989547 173.39493 
L 277.61 179.715196 
L 285.303292 190.956403 
L 277.61 195.754649 
L 263.672576 206.347113 
L 271.372393 219.557363 
L 262.308459 230.778089 
L 255.101954 240.28 
M 110.008875 240.28 
L 110.566667 238.995537 
L 124.439791 230.778089 
L 114.060849 219.557363 
L 113.692206 206.347113 
L 117.569039 190.956403 
L 110.566667 174.887969 
L 110.345672 173.39493 
L 110.566667 172.793169 
L 124.24323 154.013971 
L 121.159429 145.873272 
M 110.788754 121.709657 
L 110.566667 121.248187 
L 108.696645 113.137869 
L 107.83092 93.757994 
L 107.874841 76.198006 
L 108.764648 60.808896 
L 108.309281 47.600163 
L 109.351848 36.380776 
L 110.566667 31.074338 
L 134.43 31.634867 
L 141.570874 26.88 
M 216.977005 240.28 
L 206.688921 230.778089 
L 206.02 230.444128 
L 204.397114 230.778089 
L 193.62679 240.28 
" clip-path="url(#pa51c7e748d)" style="fill: none; stroke-dasharray: 1.85,0.8; stroke-dashoffset: 0; stroke: #000000; stroke-width: 0.5"/>
    <path d="M 210.452391 26.88 
L 206.02 36.073391 
L 182.156667 31.165704 
L 163.023231 36.380776 
L 168.225277 36.846245 
M 196.113474 37.128022 
L 206.02 36.443225 
L 229.883333 42.58932 
L 243.259102 36.380776 
L 252.207916 26.88 
M 255.408834 26.88 
L 268.870918 36.380776 
L 272.656839 47.600163 
L 273.644244 60.808896 
L 274.942942 76.198006 
L 277.61 80.563782 
L 295.45443 93.757994 
L 280.715225 113.137869 
L 285.303041 133.590571 
L 282.22403 154.013971 
L 277.61 160.066822 
L 262.128249 167.15485 
M 265.383213 182.146794 
L 277.61 189.805603 
L 278.397588 190.956403 
L 277.61 191.447615 
L 258.005439 206.347113 
L 263.169948 219.557363 
L 255.220322 230.778089 
L 253.746667 232.720039 
L 229.883333 239.298963 
L 217.936268 230.778089 
L 206.02 224.828869 
L 182.156667 230.002308 
L 179.945755 230.778089 
L 170.185962 240.28 
M 149.552932 240.28 
L 134.43 233.195117 
L 132.891719 230.778089 
L 123.012691 219.557363 
L 123.978723 206.347113 
L 124.062267 190.956403 
L 116.385302 173.39493 
L 128.616861 154.013971 
L 120.788844 133.590571 
L 115.375015 121.807051 
M 109.931354 96.430946 
L 109.801797 93.757994 
L 109.849815 76.198006 
L 110.566667 64.736355 
L 112.550281 60.808896 
L 110.566667 54.086648 
L 110.324781 47.600163 
L 110.566667 45.129667 
L 134.43 37.872696 
L 153.136799 36.380776 
L 153.011683 26.88 
M 301.473333 53.754117 
L 302.754207 60.808896 
L 301.473333 66.078759 
L 289.310593 60.808896 
L 301.473333 53.754117 
z
" clip-path="url(#pa51c7e748d)" style="fill: none; stroke-dasharray: 1.85,0.8; stroke-dashoffset: 0; stroke: #000000; stroke-width: 0.5"/>
    <path d="M 248.380555 172.090667 
L 247.80076 173.39493 
L 253.746667 181.53789 
L 268.4014 190.956403 
L 253.746667 204.040831 
L 252.15429 206.347113 
L 253.746667 214.609138 
L 254.967504 219.557363 
L 253.746667 221.332273 
L 231.621098 230.778089 
L 229.883333 231.277142 
L 229.183614 230.778089 
L 206.617873 219.557363 
L 206.02 218.800618 
L 205.078388 219.557363 
L 182.156667 225.807926 
L 167.992109 230.778089 
L 158.293333 235.907415 
L 146.410225 230.778089 
L 134.43 222.383703 
L 131.964532 219.557363 
L 134.26524 206.347113 
L 130.555494 190.956403 
L 122.851914 173.39493 
L 132.990492 154.013971 
L 125.071103 133.590571 
L 120.716041 113.137869 
L 116.122828 93.757994 
L 117.209786 76.198006 
L 128.498967 60.808896 
L 119.547764 47.600163 
L 134.43 41.829857 
L 158.293333 39.336943 
L 182.156667 42.165175 
L 206.02 40.486839 
L 229.883333 45.628996 
L 249.807818 36.380776 
L 253.746667 32.471872 
L 259.42693 36.380776 
L 267.556481 47.600163 
L 267.442826 60.808896 
L 269.305162 76.198006 
L 277.61 89.792409 
L 282.973231 93.757994 
L 277.61 104.187773 
L 274.699996 113.137869 
L 277.61 120.681696 
L 280.586236 133.590571 
L 277.61 148.03149 
L 269.896646 154.013971 
L 266.712585 155.19799 
" clip-path="url(#pa51c7e748d)" style="fill: none; stroke-dasharray: 1.85,0.8; stroke-dashoffset: 0; stroke: #000000; stroke-width: 0.5"/>
    <path d="M 268.72816 106.43057 
L 266.808294 113.137869 
L 274.196434 133.590571 
L 253.746667 150.542623 
L 251.065141 154.013971 
L 242.922959 173.39493 
L 253.746667 188.218072 
L 258.007373 190.956403 
L 253.746667 194.76056 
L 245.746706 206.347113 
L 244.652064 219.557363 
L 229.883333 226.242439 
L 216.384241 219.557363 
L 206.02 206.439051 
L 189.696981 219.557363 
L 182.156667 221.613544 
L 158.293333 229.482006 
L 142.401747 219.557363 
L 147.671079 206.347113 
L 138.312715 190.956403 
L 134.43 185.023334 
L 129.318526 173.39493 
L 134.43 162.911509 
L 137.381461 154.013971 
L 134.43 146.633241 
L 129.353361 133.590571 
L 130.040041 113.137869 
L 125.2028 93.757994 
L 127.638016 76.198006 
L 134.43 68.363986 
L 139.519189 60.808896 
L 134.43 53.171453 
L 129.753704 47.600163 
L 134.43 45.787017 
L 158.293333 42.635962 
L 182.156667 46.237552 
L 206.02 44.530453 
L 222.330727 47.600163 
L 214.113591 60.808896 
L 229.883333 70.955213 
L 239.626594 60.808896 
L 233.957106 47.600163 
L 253.746667 38.503739 
L 262.456123 47.600163 
L 261.241408 60.808896 
L 263.667383 76.198006 
L 266.466428 81.855296 
" clip-path="url(#pa51c7e748d)" style="fill: none; stroke-dasharray: 1.85,0.8; stroke-dashoffset: 0; stroke: #000000; stroke-width: 0.5"/>
    <path d="M 146.791161 47.711028 
L 146.784133 47.600163 
L 158.293333 45.93498 
L 168.586896 47.600163 
L 175.367172 60.808896 
L 180.067859 76.198006 
L 182.156667 79.210053 
L 206.02 81.045377 
L 229.883333 80.121755 
L 240.103555 76.198006 
L 251.310049 60.808896 
L 245.546101 47.600163 
L 253.746667 43.830709 
L 257.355765 47.600163 
L 255.03999 60.808896 
L 258.029603 76.198006 
L 263.14185 93.757994 
L 258.916591 113.137869 
L 264.945938 133.590571 
L 253.746667 142.874325 
L 245.141582 154.013971 
L 238.045158 173.39493 
L 248.929443 190.956403 
L 239.339121 206.347113 
L 233.967135 219.557363 
L 229.883333 221.405898 
L 226.150608 219.557363 
L 215.616093 206.347113 
L 206.02 197.542229 
L 182.156667 197.779775 
L 158.293333 203.826382 
L 147.940066 190.956403 
L 139.681221 173.39493 
L 141.780937 154.013971 
L 134.43 135.631457 
L 133.63562 133.590571 
L 134.43 128.281802 
L 138.464693 113.137869 
L 134.43 94.334165 
L 134.282771 93.757994 
L 134.43 92.977714 
L 137.594761 76.198006 
L 140.326048 72.005997 
M 182.156667 108.655552 
L 179.557232 113.137869 
L 182.156667 115.369929 
L 192.074671 114.58685 
M 194.959436 110.569802 
L 182.156667 108.655552 
M 182.156667 172.759298 
L 180.239772 173.39493 
L 182.156667 175.834401 
L 183.00515 173.39493 
L 182.156667 172.759298 
z
M 158.293333 210.594622 
L 169.408183 219.557363 
L 158.293333 222.611138 
L 153.403552 219.557363 
L 158.293333 210.594622 
z
" clip-path="url(#pa51c7e748d)" style="fill: none; stroke-dasharray: 1.85,0.8; stroke-dashoffset: 0; stroke: #000000; stroke-width: 0.5"/>
    <path d="M 250.13581 122.422221 
L 253.746667 125.834929 
L 255.695441 133.590571 
L 253.746667 135.206028 
L 239.218023 154.013971 
L 233.167358 173.39493 
L 240.765781 190.956403 
L 232.931537 206.347113 
L 229.883333 212.094038 
L 225.284091 206.347113 
L 209.884477 190.956403 
L 206.02 186.509683 
L 196.083931 173.39493 
L 182.156667 162.96148 
L 158.293333 171.738811 
L 146.180412 154.013971 
L 138.610645 133.590571 
L 146.089169 113.137869 
L 141.309753 93.757994 
L 146.670842 76.198006 
L 155.72376 60.808896 
L 158.293333 55.652461 
L 162.404377 60.808896 
L 170.519985 76.198006 
L 182.156667 92.978029 
L 206.02 90.460824 
L 229.883333 87.016543 
L 253.746667 92.427393 
L 253.928201 93.757994 
L 253.746667 94.805287 
L 248.211173 102.359092 
M 219.341369 114.812782 
L 225.095985 113.137869 
L 206.02 98.547261 
L 182.156667 94.556703 
L 171.380873 113.137869 
L 182.156667 122.390735 
L 192.258476 120.82416 
M 158.293333 186.975794 
L 160.965936 190.956403 
L 158.293333 191.858777 
L 157.567418 190.956403 
L 158.293333 186.975794 
z
" clip-path="url(#pa51c7e748d)" style="fill: none; stroke-dasharray: 1.85,0.8; stroke-dashoffset: 0; stroke: #000000; stroke-width: 0.5"/>
    <path d="M 195.066839 162.574532 
L 183.487035 154.013971 
L 182.156667 151.415139 
L 181.031158 154.013971 
L 158.293333 165.301058 
L 150.579887 154.013971 
L 143.743451 133.590571 
L 153.713645 113.137869 
L 148.302897 93.757994 
L 155.746924 76.198006 
L 158.293333 71.716465 
L 160.972111 76.198006 
L 172.665983 93.757994 
L 163.204514 113.137869 
L 182.156667 129.411541 
L 206.02 123.894289 
L 229.883333 120.363435 
L 244.902631 133.590571 
L 233.294464 154.013971 
L 229.883333 166.379025 
L 219.71863 168.207569 
M 229.883333 182.091899 
L 232.602118 190.956403 
L 229.883333 196.935109 
L 224.886976 190.956403 
L 229.883333 182.091899 
z
" clip-path="url(#pa51c7e748d)" style="fill: none; stroke-dasharray: 1.85,0.8; stroke-dashoffset: 0; stroke: #000000; stroke-width: 0.5"/>
    <path d="M 158.293333 87.202234 
L 162.605359 93.757994 
L 158.293333 103.790383 
L 155.296042 93.757994 
L 158.293333 87.202234 
z
M 152.861058 146.92529 
L 148.876257 133.590571 
L 158.293333 116.793893 
L 177.843533 133.590571 
L 169.266995 151.498568 
M 205.842603 159.208203 
L 198.816407 154.013971 
L 189.774736 133.590571 
L 206.02 129.098538 
L 229.883333 130.230918 
L 233.698189 133.590571 
L 229.883333 142.684907 
L 228.130776 144.438756 
" clip-path="url(#pa51c7e748d)" style="fill: none; stroke-dasharray: 1.85,0.8; stroke-dashoffset: 0; stroke: #000000; stroke-width: 0.5"/>
    <path d="M 154.837709 136.639509 
L 154.009063 133.590571 
L 158.293333 125.948973 
L 167.187638 133.590571 
L 164.837336 137.756077 
" clip-path="url(#pa51c7e748d)" style="fill: none; stroke-dasharray: 1.85,0.8; stroke-dashoffset: 0; stroke: #000000; stroke-width: 0.5"/>
    <path clip-path="url(#pa51c7e748d)" style="fill: none; stroke-dasharray: 1.85,0.8; stroke-dashoffset: 0; stroke: #000000; stroke-width: 0.5"/>
   </g>
   <g id="patch_3">
    <path d="M 62.84 240.28 
L 62.84 26.88 
" style="fill: none; stroke: #000000; stroke-width: 0.8; stroke-linejoin: miter; stroke-linecap: square"/>
   </g>
   <g id="patch_4">
    <path d="M 349.2 240.28 
L 349.2 26.88 
" style="fill: none; stroke: #000000; stroke-width: 0.8; stroke-linejoin: miter; stroke-linecap: square"/>
   </g>
   <g id="patch_5">
    <path d="M 62.84 240.28 
L 349.2 240.28 
" style="fill: none; stroke: #000000; stroke-width: 0.8; stroke-linejoin: miter; stroke-linecap: square"/>
   </g>
   <g id="patch_6">
    <path d="M 62.84 26.88 
L 349.2 26.88 
" style="fill: none; stroke: #000000; stroke-width: 0.8; stroke-linejoin: miter; stroke-linecap: square"/>
   </g>
   <g id="text_11">
    <!-- Band 800 -->
    <g transform="translate(177.255625 20.88) scale(0.12 -0.12)">
     <defs>
      <path id="DejaVuSans-42" d="M 1259 2228 
L 1259 519 
L 2272 519 
Q 2781 519 3026 730 
Q 3272 941 3272 1375 
Q 3272 1813 3026 2020 
Q 2781 2228 2272 2228 
L 1259 2228 
z
M 1259 4147 
L 1259 2741 
L 2194 2741 
Q 2656 2741 2882 2914 
Q 3109 3088 3109 3444 
Q 3109 3797 2882 3972 
Q 2656 4147 2194 4147 
L 1259 4147 
z
M 628 4666 
L 2241 4666 
Q 2963 4666 3353 4366 
Q 3744 4066 3744 3513 
Q 3744 3084 3544 2831 
Q 3344 2578 2956 2516 
Q 3422 2416 3680 2098 
Q 3938 1781 3938 1306 
Q 3938 681 3513 340 
Q 3088 0 2303 0 
L 628 0 
L 628 4666 
z
" transform="scale(0.015625)"/>
      <path id="DejaVuSans-61" d="M 2194 1759 
Q 1497 1759 1228 1600 
Q 959 1441 959 1056 
Q 959 750 1161 570 
Q 1363 391 1709 391 
Q 2188 391 2477 730 
Q 2766 1069 2766 1631 
L 2766 1759 
L 2194 1759 
z
M 3341 1997 
L 3341 0 
L 2766 0 
L 2766 531 
Q 2569 213 2275 61 
Q 1981 -91 1556 -91 
Q 1019 -91 701 211 
Q 384 513 384 1019 
Q 384 1609 779 1909 
Q 1175 2209 1959 2209 
L 2766 2209 
L 2766 2266 
Q 2766 2663 2505 2880 
Q 2244 3097 1772 3097 
Q 1472 3097 1187 3025 
Q 903 2953 641 2809 
L 641 3341 
Q 956 3463 1253 3523 
Q 1550 3584 1831 3584 
Q 2591 3584 2966 3190 
Q 3341 2797 3341 1997 
z
" transform="scale(0.015625)"/>
      <path id="DejaVuSans-6e" d="M 3513 2113 
L 3513 0 
L 2938 0 
L 2938 2094 
Q 2938 2591 2744 2837 
Q 2550 3084 2163 3084 
Q 1697 3084 1428 2787 
Q 1159 2491 1159 1978 
L 1159 0 
L 581 0 
L 581 3500 
L 1159 3500 
L 1159 2956 
Q 1366 3272 1645 3428 
Q 1925 3584 2291 3584 
Q 2894 3584 3203 3211 
Q 3513 2838 3513 2113 
z
" transform="scale(0.015625)"/>
      <path id="DejaVuSans-64" d="M 2906 2969 
L 2906 4863 
L 3481 4863 
L 3481 0 
L 2906 0 
L 2906 525 
Q 2725 213 2448 61 
Q 2172 -91 1784 -91 
Q 1150 -91 751 415 
Q 353 922 353 1747 
Q 353 2572 751 3078 
Q 1150 3584 1784 3584 
Q 2172 3584 2448 3432 
Q 2725 3281 2906 2969 
z
M 947 1747 
Q 947 1113 1208 752 
Q 1469 391 1925 391 
Q 2381 391 2643 752 
Q 2906 1113 2906 1747 
Q 2906 2381 2643 2742 
Q 2381 3103 1925 3103 
Q 1469 3103 1208 2742 
Q 947 2381 947 1747 
z
" transform="scale(0.015625)"/>
      <path id="DejaVuSans-20" transform="scale(0.015625)"/>
      <path id="DejaVuSans-38" d="M 2034 2216 
Q 1584 2216 1326 1975 
Q 1069 1734 1069 1313 
Q 1069 891 1326 650 
Q 1584 409 2034 409 
Q 2484 409 2743 651 
Q 3003 894 3003 1313 
Q 3003 1734 2745 1975 
Q 2488 2216 2034 2216 
z
M 1403 2484 
Q 997 2584 770 2862 
Q 544 3141 544 3541 
Q 544 4100 942 4425 
Q 1341 4750 2034 4750 
Q 2731 4750 3128 4425 
Q 3525 4100 3525 3541 
Q 3525 3141 3298 2862 
Q 3072 2584 2669 2484 
Q 3125 2378 3379 2068 
Q 3634 1759 3634 1313 
Q 3634 634 3220 271 
Q 2806 -91 2034 -91 
Q 1263 -91 848 271 
Q 434 634 434 1313 
Q 434 1759 690 2068 
Q 947 2378 1403 2484 
z
M 1172 3481 
Q 1172 3119 1398 2916 
Q 1625 2713 2034 2713 
Q 2441 2713 2670 2916 
Q 2900 3119 2900 3481 
Q 2900 3844 2670 4047 
Q 2441 4250 2034 4250 
Q 1625 4250 1398 4047 
Q 1172 3844 1172 3481 
z
" transform="scale(0.015625)"/>
     </defs>
     <use xlink:href="#DejaVuSans-42"/>
     <use xlink:href="#DejaVuSans-61" transform="translate(68.603516 0)"/>
     <use xlink:href="#DejaVuSans-6e" transform="translate(129.882812 0)"/>
     <use xlink:href="#DejaVuSans-64" transform="translate(193.261719 0)"/>
     <use xlink:href="#DejaVuSans-20" transform="translate(256.738281 0)"/>
     <use xlink:href="#DejaVuSans-38" transform="translate(288.525391 0)"/>
     <use xlink:href="#DejaVuSans-30" transform="translate(352.148438 0)"/>
     <use xlink:href="#DejaVuSans-30" transform="translate(415.771484 0)"/>
    </g>
   </g>
   <g id="text_12">
    <g clip-path="url(#pa51c7e748d)">
     <!-- 61.6 -->
     <g transform="translate(320.712089 123.588469) rotate(-270.396594) scale(0.09 -0.09)">
      <defs>
       <path id="DejaVuSans-36" d="M 2113 2584 
Q 1688 2584 1439 2293 
Q 1191 2003 1191 1497 
Q 1191 994 1439 701 
Q 1688 409 2113 409 
Q 2538 409 2786 701 
Q 3034 994 3034 1497 
Q 3034 2003 2786 2293 
Q 2538 2584 2113 2584 
z
M 3366 4563 
L 3366 3988 
Q 3128 4100 2886 4159 
Q 2644 4219 2406 4219 
Q 1781 4219 1451 3797 
Q 1122 3375 1075 2522 
Q 1259 2794 1537 2939 
Q 1816 3084 2150 3084 
Q 2853 3084 3261 2657 
Q 3669 2231 3669 1497 
Q 3669 778 3244 343 
Q 2819 -91 2113 -91 
Q 1303 -91 875 529 
Q 447 1150 447 2328 
Q 447 3434 972 4092 
Q 1497 4750 2381 4750 
Q 2619 4750 2861 4703 
Q 3103 4656 3366 4563 
z
" transform="scale(0.015625)"/>
       <path id="DejaVuSans-31" d="M 794 531 
L 1825 531 
L 1825 4091 
L 703 3866 
L 703 4441 
L 1819 4666 
L 2450 4666 
L 2450 531 
L 3481 531 
L 3481 0 
L 794 0 
L 794 531 
z
" transform="scale(0.015625)"/>
       <path id="DejaVuSans-2e" d="M 684 794 
L 1344 794 
L 1344 0 
L 684 0 
L 684 794 
z
" transform="scale(0.015625)"/>
      </defs>
      <use xlink:href="#DejaVuSans-36"/>
      <use xlink:href="#DejaVuSans-31" transform="translate(63.623047 0)"/>
      <use xlink:href="#DejaVuSans-2e" transform="translate(127.246094 0)"/>
      <use xlink:href="#DejaVuSans-36" transform="translate(159.033203 0)"/>
     </g>
    </g>
   </g>
   <g id="text_13">
    <g clip-path="url(#pa51c7e748d)">
     <!-- 61.6 -->
     <g transform="translate(85.8805 123.617409) rotate(-271.03233) scale(0.09 -0.09)">
      <use xlink:href="#DejaVuSans-36"/>
      <use xlink:href="#DejaVuSans-31" transform="translate(63.623047 0)"/>
      <use xlink:href="#DejaVuSans-2e" transform="translate(127.246094 0)"/>
      <use xlink:href="#DejaVuSans-36" transform="translate(159.033203 0)"/>
     </g>
    </g>
   </g>
   <g id="text_14">
    <g clip-path="url(#pa51c7e748d)">
     <!-- 62.4 -->
     <g transform="translate(317.738066 123.613471) rotate(-270.947386) scale(0.09 -0.09)">
      <use xlink:href="#DejaVuSans-36"/>
      <use xlink:href="#DejaVuSans-32" transform="translate(63.623047 0)"/>
      <use xlink:href="#DejaVuSans-2e" transform="translate(127.246094 0)"/>
      <use xlink:href="#DejaVuSans-34" transform="translate(159.033203 0)"/>
     </g>
    </g>
   </g>
   <g id="text_15">
    <g clip-path="url(#pa51c7e748d)">
     <!-- 62.4 -->
     <g transform="translate(88.188905 123.687124) rotate(-272.465059) scale(0.09 -0.09)">
      <use xlink:href="#DejaVuSans-36"/>
      <use xlink:href="#DejaVuSans-32" transform="translate(63.623047 0)"/>
      <use xlink:href="#DejaVuSans-2e" transform="translate(127.246094 0)"/>
      <use xlink:href="#DejaVuSans-34" transform="translate(159.033203 0)"/>
     </g>
    </g>
   </g>
   <g id="text_16">
    <g clip-path="url(#pa51c7e748d)">
     <!-- 63.2 -->
     <g transform="translate(314.764336 123.639381) rotate(-271.497898) scale(0.09 -0.09)">
      <defs>
       <path id="DejaVuSans-33" d="M 2597 2516 
Q 3050 2419 3304 2112 
Q 3559 1806 3559 1356 
Q 3559 666 3084 287 
Q 2609 -91 1734 -91 
Q 1441 -91 1130 -33 
Q 819 25 488 141 
L 488 750 
Q 750 597 1062 519 
Q 1375 441 1716 441 
Q 2309 441 2620 675 
Q 2931 909 2931 1356 
Q 2931 1769 2642 2001 
Q 2353 2234 1838 2234 
L 1294 2234 
L 1294 2753 
L 1863 2753 
Q 2328 2753 2575 2939 
Q 2822 3125 2822 3475 
Q 2822 3834 2567 4026 
Q 2313 4219 1838 4219 
Q 1578 4219 1281 4162 
Q 984 4106 628 3988 
L 628 4550 
Q 988 4650 1302 4700 
Q 1616 4750 1894 4750 
Q 2613 4750 3031 4423 
Q 3450 4097 3450 3541 
Q 3450 3153 3228 2886 
Q 3006 2619 2597 2516 
z
" transform="scale(0.015625)"/>
      </defs>
      <use xlink:href="#DejaVuSans-36"/>
      <use xlink:href="#DejaVuSans-33" transform="translate(63.623047 0)"/>
      <use xlink:href="#DejaVuSans-2e" transform="translate(127.246094 0)"/>
      <use xlink:href="#DejaVuSans-32" transform="translate(159.033203 0)"/>
     </g>
    </g>
   </g>
   <g id="text_17">
    <g clip-path="url(#pa51c7e748d)">
     <!-- 63.2 -->
     <g transform="translate(90.499668 123.762859) rotate(-273.894659) scale(0.09 -0.09)">
      <use xlink:href="#DejaVuSans-36"/>
      <use xlink:href="#DejaVuSans-33" transform="translate(63.623047 0)"/>
      <use xlink:href="#DejaVuSans-2e" transform="translate(127.246094 0)"/>
      <use xlink:href="#DejaVuSans-32" transform="translate(159.033203 0)"/>
     </g>
    </g>
   </g>
   <g id="text_18">
    <g clip-path="url(#pa51c7e748d)">
     <!-- 64.0 -->
     <g transform="translate(311.790936 123.666188) rotate(-272.047967) scale(0.09 -0.09)">
      <use xlink:href="#DejaVuSans-36"/>
      <use xlink:href="#DejaVuSans-34" transform="translate(63.623047 0)"/>
      <use xlink:href="#DejaVuSans-2e" transform="translate(127.246094 0)"/>
      <use xlink:href="#DejaVuSans-30" transform="translate(159.033203 0)"/>
     </g>
    </g>
   </g>
   <g id="text_19">
    <g clip-path="url(#pa51c7e748d)">
     <!-- 64.0 -->
     <g transform="translate(92.813233 123.84442) rotate(-275.31934) scale(0.09 -0.09)">
      <use xlink:href="#DejaVuSans-36"/>
      <use xlink:href="#DejaVuSans-34" transform="translate(63.623047 0)"/>
      <use xlink:href="#DejaVuSans-2e" transform="translate(127.246094 0)"/>
      <use xlink:href="#DejaVuSans-30" transform="translate(159.033203 0)"/>
     </g>
    </g>
   </g>
   <g id="text_20">
    <g clip-path="url(#pa51c7e748d)">
     <!-- 64.8 -->
     <g transform="translate(308.817902 123.693878) rotate(-272.597432) scale(0.09 -0.09)">
      <use xlink:href="#DejaVuSans-36"/>
      <use xlink:href="#DejaVuSans-34" transform="translate(63.623047 0)"/>
      <use xlink:href="#DejaVuSans-2e" transform="translate(127.246094 0)"/>
      <use xlink:href="#DejaVuSans-38" transform="translate(159.033203 0)"/>
     </g>
    </g>
   </g>
   <g id="text_21">
    <g clip-path="url(#pa51c7e748d)">
     <!-- 64.8 -->
     <g transform="translate(95.130026 123.931583) rotate(-276.737349) scale(0.09 -0.09)">
      <use xlink:href="#DejaVuSans-36"/>
      <use xlink:href="#DejaVuSans-34" transform="translate(63.623047 0)"/>
      <use xlink:href="#DejaVuSans-2e" transform="translate(127.246094 0)"/>
      <use xlink:href="#DejaVuSans-38" transform="translate(159.033203 0)"/>
     </g>
    </g>
   </g>
   <g id="text_22">
    <g clip-path="url(#pa51c7e748d)">
     <!-- 65.6 -->
     <g transform="translate(305.84527 123.722439) rotate(-273.146133) scale(0.09 -0.09)">
      <use xlink:href="#DejaVuSans-36"/>
      <use xlink:href="#DejaVuSans-35" transform="translate(63.623047 0)"/>
      <use xlink:href="#DejaVuSans-2e" transform="translate(127.246094 0)"/>
      <use xlink:href="#DejaVuSans-36" transform="translate(159.033203 0)"/>
     </g>
    </g>
   </g>
   <g id="text_23">
    <g clip-path="url(#pa51c7e748d)">
     <!-- 65.6 -->
     <g transform="translate(97.450448 124.024094) rotate(-278.146984) scale(0.09 -0.09)">
      <use xlink:href="#DejaVuSans-36"/>
      <use xlink:href="#DejaVuSans-35" transform="translate(63.623047 0)"/>
      <use xlink:href="#DejaVuSans-2e" transform="translate(127.246094 0)"/>
      <use xlink:href="#DejaVuSans-36" transform="translate(159.033203 0)"/>
     </g>
    </g>
   </g>
   <g id="text_24">
    <g clip-path="url(#pa51c7e748d)">
     <!-- 66.4 -->
     <g transform="translate(302.873074 123.751854) rotate(-273.693911) scale(0.09 -0.09)">
      <use xlink:href="#DejaVuSans-36"/>
      <use xlink:href="#DejaVuSans-36" transform="translate(63.623047 0)"/>
      <use xlink:href="#DejaVuSans-2e" transform="translate(127.246094 0)"/>
      <use xlink:href="#DejaVuSans-34" transform="translate(159.033203 0)"/>
     </g>
    </g>
   </g>
   <g id="text_25">
    <g clip-path="url(#pa51c7e748d)">
     <!-- 66.4 -->
     <g transform="translate(99.774872 124.121677) rotate(-279.546606) scale(0.09 -0.09)">
      <use xlink:href="#DejaVuSans-36"/>
      <use xlink:href="#DejaVuSans-36" transform="translate(63.623047 0)"/>
      <use xlink:href="#DejaVuSans-2e" transform="translate(127.246094 0)"/>
      <use xlink:href="#DejaVuSans-34" transform="translate(159.033203 0)"/>
     </g>
    </g>
   </g>
   <g id="text_26">
    <g clip-path="url(#pa51c7e748d)">
     <!-- 67.2 -->
     <g transform="translate(301.425078 144.020396) rotate(-270.586733) scale(0.09 -0.09)">
      <defs>
       <path id="DejaVuSans-37" d="M 525 4666 
L 3525 4666 
L 3525 4397 
L 1831 0 
L 1172 0 
L 2766 4134 
L 525 4134 
L 525 4666 
z
" transform="scale(0.015625)"/>
      </defs>
      <use xlink:href="#DejaVuSans-36"/>
      <use xlink:href="#DejaVuSans-37" transform="translate(63.623047 0)"/>
      <use xlink:href="#DejaVuSans-2e" transform="translate(127.246094 0)"/>
      <use xlink:href="#DejaVuSans-32" transform="translate(159.033203 0)"/>
     </g>
    </g>
   </g>
   <g id="text_27">
    <g clip-path="url(#pa51c7e748d)">
     <!-- 67.2 -->
     <g transform="translate(112.836631 162.59271) rotate(-88.782387) scale(0.09 -0.09)">
      <use xlink:href="#DejaVuSans-36"/>
      <use xlink:href="#DejaVuSans-37" transform="translate(63.623047 0)"/>
      <use xlink:href="#DejaVuSans-2e" transform="translate(127.246094 0)"/>
      <use xlink:href="#DejaVuSans-32" transform="translate(159.033203 0)"/>
     </g>
    </g>
   </g>
   <g id="text_28">
    <g clip-path="url(#pa51c7e748d)">
     <!-- 68.0 -->
     <g transform="translate(299.878824 183.507731) rotate(-87.653705) scale(0.09 -0.09)">
      <use xlink:href="#DejaVuSans-36"/>
      <use xlink:href="#DejaVuSans-38" transform="translate(63.623047 0)"/>
      <use xlink:href="#DejaVuSans-2e" transform="translate(127.246094 0)"/>
      <use xlink:href="#DejaVuSans-30" transform="translate(159.033203 0)"/>
     </g>
    </g>
   </g>
   <g id="text_29">
    <g clip-path="url(#pa51c7e748d)">
     <!-- 68.0 -->
     <g transform="translate(105.514008 131.783131) rotate(-285.384975) scale(0.09 -0.09)">
      <use xlink:href="#DejaVuSans-36"/>
      <use xlink:href="#DejaVuSans-38" transform="translate(63.623047 0)"/>
      <use xlink:href="#DejaVuSans-2e" transform="translate(127.246094 0)"/>
      <use xlink:href="#DejaVuSans-30" transform="translate(159.033203 0)"/>
     </g>
    </g>
   </g>
   <g id="text_30">
    <g clip-path="url(#pa51c7e748d)">
     <!-- 68.8 -->
     <g transform="translate(294.579602 164.335759) rotate(-75.310915) scale(0.09 -0.09)">
      <use xlink:href="#DejaVuSans-36"/>
      <use xlink:href="#DejaVuSans-38" transform="translate(63.623047 0)"/>
      <use xlink:href="#DejaVuSans-2e" transform="translate(127.246094 0)"/>
      <use xlink:href="#DejaVuSans-38" transform="translate(159.033203 0)"/>
     </g>
    </g>
   </g>
   <g id="text_31">
    <g clip-path="url(#pa51c7e748d)">
     <!-- 68.8 -->
     <g transform="translate(108.916862 176.97779) rotate(-66.882626) scale(0.09 -0.09)">
      <use xlink:href="#DejaVuSans-36"/>
      <use xlink:href="#DejaVuSans-38" transform="translate(63.623047 0)"/>
      <use xlink:href="#DejaVuSans-2e" transform="translate(127.246094 0)"/>
      <use xlink:href="#DejaVuSans-38" transform="translate(159.033203 0)"/>
     </g>
    </g>
   </g>
   <g id="text_32">
    <g clip-path="url(#pa51c7e748d)">
     <!-- 69.6 -->
     <g transform="translate(267.367651 36.911035) rotate(-353.233434) scale(0.09 -0.09)">
      <defs>
       <path id="DejaVuSans-39" d="M 703 97 
L 703 672 
Q 941 559 1184 500 
Q 1428 441 1663 441 
Q 2288 441 2617 861 
Q 2947 1281 2994 2138 
Q 2813 1869 2534 1725 
Q 2256 1581 1919 1581 
Q 1219 1581 811 2004 
Q 403 2428 403 3163 
Q 403 3881 828 4315 
Q 1253 4750 1959 4750 
Q 2769 4750 3195 4129 
Q 3622 3509 3622 2328 
Q 3622 1225 3098 567 
Q 2575 -91 1691 -91 
Q 1453 -91 1209 -44 
Q 966 3 703 97 
z
M 1959 2075 
Q 2384 2075 2632 2365 
Q 2881 2656 2881 3163 
Q 2881 3666 2632 3958 
Q 2384 4250 1959 4250 
Q 1534 4250 1286 3958 
Q 1038 3666 1038 3163 
Q 1038 2656 1286 2365 
Q 1534 2075 1959 2075 
z
" transform="scale(0.015625)"/>
      </defs>
      <use xlink:href="#DejaVuSans-36"/>
      <use xlink:href="#DejaVuSans-39" transform="translate(63.623047 0)"/>
      <use xlink:href="#DejaVuSans-2e" transform="translate(127.246094 0)"/>
      <use xlink:href="#DejaVuSans-36" transform="translate(159.033203 0)"/>
     </g>
    </g>
   </g>
   <g id="text_33">
    <g clip-path="url(#pa51c7e748d)">
     <!-- 69.6 -->
     <g transform="translate(286.903586 123.749463) rotate(-273.650013) scale(0.09 -0.09)">
      <use xlink:href="#DejaVuSans-36"/>
      <use xlink:href="#DejaVuSans-39" transform="translate(63.623047 0)"/>
      <use xlink:href="#DejaVuSans-2e" transform="translate(127.246094 0)"/>
      <use xlink:href="#DejaVuSans-36" transform="translate(159.033203 0)"/>
     </g>
    </g>
   </g>
   <g id="text_34">
    <g clip-path="url(#pa51c7e748d)">
     <!-- 69.6 -->
     <g transform="translate(110.462365 125.222425) rotate(-291.919406) scale(0.09 -0.09)">
      <use xlink:href="#DejaVuSans-36"/>
      <use xlink:href="#DejaVuSans-39" transform="translate(63.623047 0)"/>
      <use xlink:href="#DejaVuSans-2e" transform="translate(127.246094 0)"/>
      <use xlink:href="#DejaVuSans-36" transform="translate(159.033203 0)"/>
     </g>
    </g>
   </g>
   <g id="text_35">
    <g clip-path="url(#pa51c7e748d)">
     <!-- 70.4 -->
     <g transform="translate(172.110956 40.468121) rotate(-359.382568) scale(0.09 -0.09)">
      <use xlink:href="#DejaVuSans-37"/>
      <use xlink:href="#DejaVuSans-30" transform="translate(63.623047 0)"/>
      <use xlink:href="#DejaVuSans-2e" transform="translate(127.246094 0)"/>
      <use xlink:href="#DejaVuSans-34" transform="translate(159.033203 0)"/>
     </g>
    </g>
   </g>
   <g id="text_36">
    <g clip-path="url(#pa51c7e748d)">
     <!-- 70.4 -->
     <g transform="translate(248.617009 165.899747) rotate(-285.876267) scale(0.09 -0.09)">
      <use xlink:href="#DejaVuSans-37"/>
      <use xlink:href="#DejaVuSans-30" transform="translate(63.623047 0)"/>
      <use xlink:href="#DejaVuSans-2e" transform="translate(127.246094 0)"/>
      <use xlink:href="#DejaVuSans-34" transform="translate(159.033203 0)"/>
     </g>
    </g>
   </g>
   <g id="text_37">
    <g clip-path="url(#pa51c7e748d)">
     <!-- 70.4 -->
     <g transform="translate(106.248602 100.162219) rotate(-280.806983) scale(0.09 -0.09)">
      <use xlink:href="#DejaVuSans-37"/>
      <use xlink:href="#DejaVuSans-30" transform="translate(63.623047 0)"/>
      <use xlink:href="#DejaVuSans-2e" transform="translate(127.246094 0)"/>
      <use xlink:href="#DejaVuSans-34" transform="translate(159.033203 0)"/>
     </g>
    </g>
   </g>
   <g id="text_38">
    <g clip-path="url(#pa51c7e748d)">
     <!-- 71.2 -->
     <g transform="translate(248.341555 168.813973) rotate(-44.504294) scale(0.09 -0.09)">
      <use xlink:href="#DejaVuSans-37"/>
      <use xlink:href="#DejaVuSans-31" transform="translate(63.623047 0)"/>
      <use xlink:href="#DejaVuSans-2e" transform="translate(127.246094 0)"/>
      <use xlink:href="#DejaVuSans-32" transform="translate(159.033203 0)"/>
     </g>
    </g>
   </g>
   <g id="text_39">
    <g clip-path="url(#pa51c7e748d)">
     <!-- 72.0 -->
     <g transform="translate(269.019901 83.989051) rotate(-274.931671) scale(0.09 -0.09)">
      <use xlink:href="#DejaVuSans-37"/>
      <use xlink:href="#DejaVuSans-32" transform="translate(63.623047 0)"/>
      <use xlink:href="#DejaVuSans-2e" transform="translate(127.246094 0)"/>
      <use xlink:href="#DejaVuSans-30" transform="translate(159.033203 0)"/>
     </g>
    </g>
   </g>
   <g id="text_40">
    <g clip-path="url(#pa51c7e748d)">
     <!-- 72.8 -->
     <g transform="translate(147.605571 71.1316) rotate(-75.990962) scale(0.09 -0.09)">
      <use xlink:href="#DejaVuSans-37"/>
      <use xlink:href="#DejaVuSans-32" transform="translate(63.623047 0)"/>
      <use xlink:href="#DejaVuSans-2e" transform="translate(127.246094 0)"/>
      <use xlink:href="#DejaVuSans-38" transform="translate(159.033203 0)"/>
     </g>
    </g>
   </g>
   <g id="text_41">
    <g clip-path="url(#pa51c7e748d)">
     <!-- 72.8 -->
     <g transform="translate(201.474006 122.753607) rotate(-49.950634) scale(0.09 -0.09)">
      <use xlink:href="#DejaVuSans-37"/>
      <use xlink:href="#DejaVuSans-32" transform="translate(63.623047 0)"/>
      <use xlink:href="#DejaVuSans-2e" transform="translate(127.246094 0)"/>
      <use xlink:href="#DejaVuSans-38" transform="translate(159.033203 0)"/>
     </g>
    </g>
   </g>
   <g id="text_42">
    <g clip-path="url(#pa51c7e748d)">
     <!-- 73.6 -->
     <g transform="translate(236.941403 103.381081) rotate(-275.13936) scale(0.09 -0.09)">
      <use xlink:href="#DejaVuSans-37"/>
      <use xlink:href="#DejaVuSans-33" transform="translate(63.623047 0)"/>
      <use xlink:href="#DejaVuSans-2e" transform="translate(127.246094 0)"/>
      <use xlink:href="#DejaVuSans-36" transform="translate(159.033203 0)"/>
     </g>
    </g>
   </g>
   <g id="text_43">
    <g clip-path="url(#pa51c7e748d)">
     <!-- 73.6 -->
     <g transform="translate(196.842094 123.414923) rotate(-13.319118) scale(0.09 -0.09)">
      <use xlink:href="#DejaVuSans-37"/>
      <use xlink:href="#DejaVuSans-33" transform="translate(63.623047 0)"/>
      <use xlink:href="#DejaVuSans-2e" transform="translate(127.246094 0)"/>
      <use xlink:href="#DejaVuSans-36" transform="translate(159.033203 0)"/>
     </g>
    </g>
   </g>
   <g id="text_44">
    <g clip-path="url(#pa51c7e748d)">
     <!-- 74.4 -->
     <g transform="translate(195.697363 170.712135) rotate(-346.302908) scale(0.09 -0.09)">
      <use xlink:href="#DejaVuSans-37"/>
      <use xlink:href="#DejaVuSans-34" transform="translate(63.623047 0)"/>
      <use xlink:href="#DejaVuSans-2e" transform="translate(127.246094 0)"/>
      <use xlink:href="#DejaVuSans-34" transform="translate(159.033203 0)"/>
     </g>
    </g>
   </g>
   <g id="text_45">
    <g clip-path="url(#pa51c7e748d)">
     <!-- 75.2 -->
     <g transform="translate(147.994689 158.158748) rotate(-342.165574) scale(0.09 -0.09)">
      <use xlink:href="#DejaVuSans-37"/>
      <use xlink:href="#DejaVuSans-35" transform="translate(63.623047 0)"/>
      <use xlink:href="#DejaVuSans-2e" transform="translate(127.246094 0)"/>
      <use xlink:href="#DejaVuSans-32" transform="translate(159.033203 0)"/>
     </g>
    </g>
   </g>
   <g id="text_46">
    <g clip-path="url(#pa51c7e748d)">
     <!-- 75.2 -->
     <g transform="translate(211.86346 161.867622) rotate(-35.615105) scale(0.09 -0.09)">
      <use xlink:href="#DejaVuSans-37"/>
      <use xlink:href="#DejaVuSans-35" transform="translate(63.623047 0)"/>
      <use xlink:href="#DejaVuSans-2e" transform="translate(127.246094 0)"/>
      <use xlink:href="#DejaVuSans-32" transform="translate(159.033203 0)"/>
     </g>
    </g>
   </g>
   <g id="text_47">
    <g clip-path="url(#pa51c7e748d)">
     <!-- 76.0 -->
     <g transform="translate(148.05042 150.635293) rotate(-353.208273) scale(0.09 -0.09)">
      <use xlink:href="#DejaVuSans-37"/>
      <use xlink:href="#DejaVuSans-36" transform="translate(63.623047 0)"/>
      <use xlink:href="#DejaVuSans-2e" transform="translate(127.246094 0)"/>
      <use xlink:href="#DejaVuSans-30" transform="translate(159.033203 0)"/>
     </g>
    </g>
   </g>
  </g>
 </g>
 <defs>
  <clipPath id="pa51c7e748d">
   <rect x="62.84" y="26.88" width="286.36" height="213.4"/>
  </clipPath>
 </defs>
</svg>
