<?xml version="1.0" encoding="utf-8" standalone="no"?>
<!DOCTYPE svg PUBLIC "-//W3C//DTD SVG 1.1//EN"
  "http://www.w3.org/Graphics/SVG/1.1/DTD/svg11.dtd">
<svg xmlns:xlink="http://www.w3.org/1999/xlink" width="360pt" height="288pt" viewBox="0 0 360 288" xmlns="http://www.w3.org/2000/svg" version="1.1">
 <metadata>
  <rdf:RDF xmlns:dc="http://purl.org/dc/elements/1.1/" xmlns:cc="http://creativecommons.org/ns#" xmlns:rdf="http://www.w3.org/1999/02/22-rdf-syntax-ns#">
   <cc:Work>
    <dc:type rdf:resource="http://purl.org/dc/dcmitype/StillImage"/>
    <dc:date>2025-10-02T17:14:31.364695</dc:date>
    <dc:format>image/svg+xml</dc:format>
    <dc:creator>
     <cc:Agent>
      <dc:title>Matplotlib v3.10.6, https://matplotlib.org/</dc:title>
     </cc:Agent>
    </dc:creator>
   </cc:Work>
  </rdf:RDF>
 </metadata>
 <defs>
  <style type="text/css">*{stroke-linejoin: round; stroke-linecap: butt}</style>
 </defs>
 <g id="figure_1">
  <g id="patch_1">
   <path d="M 0 288 
L 360 288 
L 360 0 
L 0 0 
z
" style="fill: #ffffff"/>
  </g>
  <g id="axes_1">
   <g id="patch_2">
    <path d="M 62.84 240.28 
L 349.2 240.28 
L 349.2 26.88 
L 62.84 26.88 
z
" style="fill: #ffffff"/>
   </g>
   <g id="QuadContourSet_1">
    <path d="M 86.703333 26.88 
L 87.642914 26.88 
L 87.660425 36.380776 
L 87.695625 47.600163 
L 87.678041 60.808896 
L 87.68865 76.198006 
L 87.685784 93.757994 
L 87.674335 113.137869 
L 87.722811 133.590571 
L 87.708515 154.013971 
L 87.778428 173.39493 
L 87.764372 190.956403 
L 87.871621 206.347113 
L 87.857319 219.557363 
L 87.814534 230.778089 
L 87.83802 240.28 
L 86.703333 240.28 
L 62.84 240.28 
L 62.84 230.778089 
L 62.84 219.557363 
L 62.84 206.347113 
L 62.84 190.956403 
L 62.84 173.39493 
L 62.84 154.013971 
L 62.84 133.590571 
L 62.84 113.137869 
L 62.84 93.757994 
L 62.84 76.198006 
L 62.84 60.808896 
L 62.84 47.600163 
L 62.84 36.380776 
L 62.84 26.88 
z
M 325.336667 26.88 
L 349.2 26.88 
L 349.2 36.380776 
L 349.2 47.600163 
L 349.2 60.808896 
L 349.2 76.198006 
L 349.2 93.757994 
L 349.2 113.137869 
L 349.2 133.590571 
L 349.2 154.013971 
L 349.2 173.39493 
L 349.2 190.956403 
L 349.2 206.347113 
L 349.2 219.557363 
L 349.2 230.778089 
L 349.2 240.28 
L 325.336667 240.28 
L 323.929784 240.28 
L 323.580577 230.778089 
L 323.927483 219.557363 
L 322.771844 206.347113 
L 323.278154 190.956403 
L 323.671826 173.39493 
L 323.843697 154.013971 
L 323.624507 133.590571 
L 323.815416 113.137869 
L 323.679469 93.757994 
L 324.054071 76.198006 
L 323.80726 60.808896 
L 323.70174 47.600163 
L 324.143118 36.380776 
L 324.340126 26.88 
z
" clip-path="url(#p79e1c92ae1)" style="fill: #460a5d"/>
    <path d="M 88.952106 36.380776 
L 89.034812 47.600163 
L 88.993496 60.808896 
L 89.018424 76.198006 
L 89.011689 93.757994 
L 88.98479 113.137869 
L 89.098686 133.590571 
L 89.065097 154.013971 
L 89.229364 173.39493 
L 89.196338 190.956403 
L 89.44833 206.347113 
L 89.414726 219.557363 
L 89.314198 230.778089 
L 89.369381 240.28 
L 87.83802 240.28 
L 87.814534 230.778089 
L 87.857319 219.557363 
L 87.871621 206.347113 
L 87.764372 190.956403 
L 87.778428 173.39493 
L 87.708515 154.013971 
L 87.722811 133.590571 
L 87.674335 113.137869 
L 87.685784 93.757994 
L 87.68865 76.198006 
L 87.678041 60.808896 
L 87.695625 47.600163 
L 87.660425 36.380776 
L 87.642914 26.88 
L 88.910961 26.88 
z
M 324.143118 36.380776 
L 323.70174 47.600163 
L 323.80726 60.808896 
L 324.054071 76.198006 
L 323.679469 93.757994 
L 323.815416 113.137869 
L 323.624507 133.590571 
L 323.843697 154.013971 
L 323.671826 173.39493 
L 323.278154 190.956403 
L 322.771844 206.347113 
L 323.927483 219.557363 
L 323.580577 230.778089 
L 323.929784 240.28 
L 322.031069 240.28 
L 321.210578 230.778089 
L 322.025664 219.557363 
L 319.310387 206.347113 
L 320.500006 190.956403 
L 321.424974 173.39493 
L 321.828801 154.013971 
L 321.313794 133.590571 
L 321.762352 113.137869 
L 321.442932 93.757994 
L 322.323092 76.198006 
L 321.743188 60.808896 
L 321.495259 47.600163 
L 322.532316 36.380776 
L 322.995206 26.88 
L 324.340126 26.88 
z
" clip-path="url(#p79e1c92ae1)" style="fill: #481c6e"/>
    <path d="M 90.243786 36.380776 
L 90.374 47.600163 
L 90.308951 60.808896 
L 90.348198 76.198006 
L 90.337594 93.757994 
L 90.295244 113.137869 
L 90.474562 133.590571 
L 90.421679 154.013971 
L 90.680301 173.39493 
L 90.628304 190.956403 
L 91.025039 206.347113 
L 90.972133 219.557363 
L 90.813862 230.778089 
L 90.900743 240.28 
L 89.369381 240.28 
L 89.314198 230.778089 
L 89.414726 219.557363 
L 89.44833 206.347113 
L 89.196338 190.956403 
L 89.229364 173.39493 
L 89.065097 154.013971 
L 89.098686 133.590571 
L 88.98479 113.137869 
L 89.011689 93.757994 
L 89.018424 76.198006 
L 88.993496 60.808896 
L 89.034812 47.600163 
L 88.952106 36.380776 
L 88.910961 26.88 
L 90.179009 26.88 
z
M 322.532316 36.380776 
L 321.495259 47.600163 
L 321.743188 60.808896 
L 322.323092 76.198006 
L 321.442932 93.757994 
L 321.762352 113.137869 
L 321.313794 133.590571 
L 321.828801 154.013971 
L 321.424974 173.39493 
L 320.500006 190.956403 
L 319.310387 206.347113 
L 322.025664 219.557363 
L 321.210578 230.778089 
L 322.031069 240.28 
L 320.132354 240.28 
L 318.840578 230.778089 
L 320.123844 219.557363 
L 315.84893 206.347113 
L 317.721859 190.956403 
L 319.178123 173.39493 
L 319.813905 154.013971 
L 319.003082 133.590571 
L 319.709288 113.137869 
L 319.206395 93.757994 
L 320.592114 76.198006 
L 319.679116 60.808896 
L 319.288778 47.600163 
L 320.921514 36.380776 
L 321.650285 26.88 
L 322.995206 26.88 
z
" clip-path="url(#p79e1c92ae1)" style="fill: #472d7b"/>
    <path d="M 91.535467 36.380776 
L 91.713187 47.600163 
L 91.624406 60.808896 
L 91.677971 76.198006 
L 91.663499 93.757994 
L 91.605699 113.137869 
L 91.850438 133.590571 
L 91.778262 154.013971 
L 92.131237 173.39493 
L 92.06027 190.956403 
L 92.601748 206.347113 
L 92.529539 219.557363 
L 92.313527 230.778089 
L 92.432104 240.28 
L 90.900743 240.28 
L 90.813862 230.778089 
L 90.972133 219.557363 
L 91.025039 206.347113 
L 90.628304 190.956403 
L 90.680301 173.39493 
L 90.421679 154.013971 
L 90.474562 133.590571 
L 90.295244 113.137869 
L 90.337594 93.757994 
L 90.348198 76.198006 
L 90.308951 60.808896 
L 90.374 47.600163 
L 90.243786 36.380776 
L 90.179009 26.88 
L 91.447057 26.88 
z
M 320.921514 36.380776 
L 319.288778 47.600163 
L 319.679116 60.808896 
L 320.592114 76.198006 
L 319.206395 93.757994 
L 319.709288 113.137869 
L 319.003082 133.590571 
L 319.813905 154.013971 
L 319.178123 173.39493 
L 317.721859 190.956403 
L 315.84893 206.347113 
L 320.123844 219.557363 
L 318.840578 230.778089 
L 320.132354 240.28 
L 318.233639 240.28 
L 316.470578 230.778089 
L 318.222025 219.557363 
L 312.387472 206.347113 
L 314.943711 190.956403 
L 316.931271 173.39493 
L 317.799009 154.013971 
L 316.692369 133.590571 
L 317.656223 113.137869 
L 316.969858 93.757994 
L 318.861135 76.198006 
L 317.615044 60.808896 
L 317.082298 47.600163 
L 319.310713 36.380776 
L 320.305364 26.88 
L 321.650285 26.88 
z
" clip-path="url(#p79e1c92ae1)" style="fill: #443b84"/>
    <path d="M 92.827148 36.380776 
L 93.052374 47.600163 
L 92.939861 60.808896 
L 93.007745 76.198006 
L 92.989404 93.757994 
L 92.916153 113.137869 
L 93.226314 133.590571 
L 93.134844 154.013971 
L 93.582174 173.39493 
L 93.492236 190.956403 
L 94.178457 206.347113 
L 94.086946 219.557363 
L 93.813191 230.778089 
L 93.963465 240.28 
L 92.432104 240.28 
L 92.313527 230.778089 
L 92.529539 219.557363 
L 92.601748 206.347113 
L 92.06027 190.956403 
L 92.131237 173.39493 
L 91.778262 154.013971 
L 91.850438 133.590571 
L 91.605699 113.137869 
L 91.663499 93.757994 
L 91.677971 76.198006 
L 91.624406 60.808896 
L 91.713187 47.600163 
L 91.535467 36.380776 
L 91.447057 26.88 
L 92.715105 26.88 
z
M 319.310713 36.380776 
L 317.082298 47.600163 
L 317.615044 60.808896 
L 318.861135 76.198006 
L 316.969858 93.757994 
L 317.656223 113.137869 
L 316.692369 133.590571 
L 317.799009 154.013971 
L 316.931271 173.39493 
L 314.943711 190.956403 
L 312.387472 206.347113 
L 318.222025 219.557363 
L 316.470578 230.778089 
L 318.233639 240.28 
L 316.334925 240.28 
L 314.100579 230.778089 
L 316.320206 219.557363 
L 308.926015 206.347113 
L 312.165564 190.956403 
L 314.684419 173.39493 
L 315.784113 154.013971 
L 314.381656 133.590571 
L 315.603159 113.137869 
L 314.733322 93.757994 
L 317.130157 76.198006 
L 315.550973 60.808896 
L 314.875817 47.600163 
L 317.699911 36.380776 
L 318.960444 26.88 
L 320.305364 26.88 
z
" clip-path="url(#p79e1c92ae1)" style="fill: #3e4a89"/>
    <path d="M 94.118828 36.380776 
L 94.391561 47.600163 
L 94.255316 60.808896 
L 94.337519 76.198006 
L 94.315309 93.757994 
L 94.226608 113.137869 
L 94.60219 133.590571 
L 94.491427 154.013971 
L 95.03311 173.39493 
L 94.924202 190.956403 
L 95.755166 206.347113 
L 95.644353 219.557363 
L 95.312856 230.778089 
L 95.494827 240.28 
L 93.963465 240.28 
L 93.813191 230.778089 
L 94.086946 219.557363 
L 94.178457 206.347113 
L 93.492236 190.956403 
L 93.582174 173.39493 
L 93.134844 154.013971 
L 93.226314 133.590571 
L 92.916153 113.137869 
L 92.989404 93.757994 
L 93.007745 76.198006 
L 92.939861 60.808896 
L 93.052374 47.600163 
L 92.827148 36.380776 
L 92.715105 26.88 
L 93.983153 26.88 
z
M 317.699911 36.380776 
L 314.875817 47.600163 
L 315.550973 60.808896 
L 317.130157 76.198006 
L 314.733322 93.757994 
L 315.603159 113.137869 
L 314.381656 133.590571 
L 315.784113 154.013971 
L 314.684419 173.39493 
L 312.165564 190.956403 
L 308.926015 206.347113 
L 316.320206 219.557363 
L 314.100579 230.778089 
L 316.334925 240.28 
L 314.43621 240.28 
L 311.730579 230.778089 
L 314.418386 219.557363 
L 305.464557 206.347113 
L 309.387416 190.956403 
L 312.437568 173.39493 
L 313.769218 154.013971 
L 312.070944 133.590571 
L 313.550095 113.137869 
L 312.496785 93.757994 
L 315.399179 76.198006 
L 313.486901 60.808896 
L 312.669337 47.600163 
L 316.08911 36.380776 
L 317.615523 26.88 
L 318.960444 26.88 
z
" clip-path="url(#p79e1c92ae1)" style="fill: #38598c"/>
    <path d="M 95.410509 36.380776 
L 95.730748 47.600163 
L 95.570771 60.808896 
L 95.667292 76.198006 
L 95.641214 93.757994 
L 95.537062 113.137869 
L 95.978066 133.590571 
L 95.848009 154.013971 
L 96.484047 173.39493 
L 96.356169 190.956403 
L 97.331875 206.347113 
L 97.20176 219.557363 
L 96.81252 230.778089 
L 97.026188 240.28 
L 95.494827 240.28 
L 95.312856 230.778089 
L 95.644353 219.557363 
L 95.755166 206.347113 
L 94.924202 190.956403 
L 95.03311 173.39493 
L 94.491427 154.013971 
L 94.60219 133.590571 
L 94.226608 113.137869 
L 94.315309 93.757994 
L 94.337519 76.198006 
L 94.255316 60.808896 
L 94.391561 47.600163 
L 94.118828 36.380776 
L 93.983153 26.88 
L 95.2512 26.88 
z
M 316.08911 36.380776 
L 312.669337 47.600163 
L 313.486901 60.808896 
L 315.399179 76.198006 
L 312.496785 93.757994 
L 313.550095 113.137869 
L 312.070944 133.590571 
L 313.769218 154.013971 
L 312.437568 173.39493 
L 309.387416 190.956403 
L 305.464557 206.347113 
L 314.418386 219.557363 
L 311.730579 230.778089 
L 314.43621 240.28 
L 312.537495 240.28 
L 309.360579 230.778089 
L 312.516567 219.557363 
L 302.0031 206.347113 
L 306.609269 190.956403 
L 310.190716 173.39493 
L 311.754322 154.013971 
L 309.760231 133.590571 
L 311.497031 113.137869 
L 310.260248 93.757994 
L 313.6682 76.198006 
L 311.422829 60.808896 
L 310.462856 47.600163 
L 314.478308 36.380776 
L 316.270603 26.88 
L 317.615523 26.88 
z
M 277.61 189.237988 
L 280.63275 190.956403 
L 288.805385 206.347113 
L 277.61 206.966333 
L 253.746667 209.749672 
L 245.910723 206.347113 
L 253.746667 198.848024 
L 271.503775 190.956403 
z
" clip-path="url(#p79e1c92ae1)" style="fill: #31668e"/>
    <path d="M 96.70219 36.380776 
L 97.069935 47.600163 
L 96.886226 60.808896 
L 96.997066 76.198006 
L 96.967118 93.757994 
L 96.847516 113.137869 
L 97.353942 133.590571 
L 97.204591 154.013971 
L 97.934983 173.39493 
L 97.788135 190.956403 
L 98.908583 206.347113 
L 98.759167 219.557363 
L 98.312184 230.778089 
L 98.557549 240.28 
L 97.026188 240.28 
L 96.81252 230.778089 
L 97.20176 219.557363 
L 97.331875 206.347113 
L 96.356169 190.956403 
L 96.484047 173.39493 
L 95.848009 154.013971 
L 95.978066 133.590571 
L 95.537062 113.137869 
L 95.641214 93.757994 
L 95.667292 76.198006 
L 95.570771 60.808896 
L 95.730748 47.600163 
L 95.410509 36.380776 
L 95.2512 26.88 
L 96.519248 26.88 
z
M 314.478308 36.380776 
L 310.462856 47.600163 
L 311.422829 60.808896 
L 313.6682 76.198006 
L 310.260248 93.757994 
L 311.497031 113.137869 
L 309.760231 133.590571 
L 311.754322 154.013971 
L 310.190716 173.39493 
L 306.609269 190.956403 
L 302.0031 206.347113 
L 312.516567 219.557363 
L 309.360579 230.778089 
L 312.537495 240.28 
L 310.63878 240.28 
L 306.990579 230.778089 
L 310.614748 219.557363 
L 301.473333 208.326102 
L 277.61 211.544448 
L 253.746667 214.34173 
L 235.335414 206.347113 
L 246.351936 190.956403 
L 253.746667 188.406565 
L 277.61 182.829268 
L 291.905908 190.956403 
L 301.473333 198.659645 
L 303.831121 190.956403 
L 307.943864 173.39493 
L 309.739426 154.013971 
L 307.449518 133.590571 
L 309.443967 113.137869 
L 308.023711 93.757994 
L 311.937222 76.198006 
L 309.358757 60.808896 
L 308.256375 47.600163 
L 312.867507 36.380776 
L 314.925682 26.88 
L 316.270603 26.88 
z
M 271.503775 190.956403 
L 253.746667 198.848024 
L 245.910723 206.347113 
L 253.746667 209.749672 
L 277.61 206.966333 
L 288.805385 206.347113 
L 280.63275 190.956403 
L 277.61 189.237988 
z
" clip-path="url(#p79e1c92ae1)" style="fill: #2c728e"/>
    <path d="M 97.99387 36.380776 
L 98.409122 47.600163 
L 98.201681 60.808896 
L 98.32684 76.198006 
L 98.293023 93.757994 
L 98.157971 113.137869 
L 98.729818 133.590571 
L 98.561174 154.013971 
L 99.38592 173.39493 
L 99.220101 190.956403 
L 100.485292 206.347113 
L 100.316574 219.557363 
L 99.811849 230.778089 
L 100.088911 240.28 
L 98.557549 240.28 
L 98.312184 230.778089 
L 98.759167 219.557363 
L 98.908583 206.347113 
L 97.788135 190.956403 
L 97.934983 173.39493 
L 97.204591 154.013971 
L 97.353942 133.590571 
L 96.847516 113.137869 
L 96.967118 93.757994 
L 96.997066 76.198006 
L 96.886226 60.808896 
L 97.069935 47.600163 
L 96.70219 36.380776 
L 96.519248 26.88 
L 97.787296 26.88 
z
M 312.867507 36.380776 
L 308.256375 47.600163 
L 309.358757 60.808896 
L 311.937222 76.198006 
L 308.023711 93.757994 
L 309.443967 113.137869 
L 307.449518 133.590571 
L 309.739426 154.013971 
L 307.943864 173.39493 
L 303.831121 190.956403 
L 301.473333 198.659645 
L 291.905908 190.956403 
L 277.61 182.829268 
L 253.746667 188.406565 
L 246.351936 190.956403 
L 235.335414 206.347113 
L 253.746667 214.34173 
L 277.61 211.544448 
L 301.473333 208.326102 
L 310.614748 219.557363 
L 306.990579 230.778089 
L 310.63878 240.28 
L 308.740066 240.28 
L 304.62058 230.778089 
L 308.712928 219.557363 
L 301.473333 210.662702 
L 277.61 216.122563 
L 253.746667 218.933789 
L 229.883333 214.562297 
L 220.33994 206.347113 
L 221.725446 190.956403 
L 224.091258 173.39493 
L 229.883333 171.971754 
L 239.298707 173.39493 
L 253.746667 176.829488 
L 277.61 176.420547 
L 301.473333 189.648159 
L 305.697012 173.39493 
L 307.72453 154.013971 
L 305.138806 133.590571 
L 307.390902 113.137869 
L 305.787174 93.757994 
L 310.206244 76.198006 
L 307.294686 60.808896 
L 306.049895 47.600163 
L 311.256705 36.380776 
L 313.580761 26.88 
L 314.925682 26.88 
z
M 229.883333 224.266896 
L 237.183903 230.778089 
L 229.883333 233.025245 
L 224.413166 230.778089 
z
" clip-path="url(#p79e1c92ae1)" style="fill: #277e8e"/>
    <path d="M 99.285551 36.380776 
L 99.748309 47.600163 
L 99.517136 60.808896 
L 99.656613 76.198006 
L 99.618928 93.757994 
L 99.468425 113.137869 
L 100.105693 133.590571 
L 99.917756 154.013971 
L 100.836856 173.39493 
L 100.652067 190.956403 
L 102.062001 206.347113 
L 101.873981 219.557363 
L 101.311513 230.778089 
L 101.620272 240.28 
L 100.088911 240.28 
L 99.811849 230.778089 
L 100.316574 219.557363 
L 100.485292 206.347113 
L 99.220101 190.956403 
L 99.38592 173.39493 
L 98.561174 154.013971 
L 98.729818 133.590571 
L 98.157971 113.137869 
L 98.293023 93.757994 
L 98.32684 76.198006 
L 98.201681 60.808896 
L 98.409122 47.600163 
L 97.99387 36.380776 
L 97.787296 26.88 
L 99.055344 26.88 
z
M 311.256705 36.380776 
L 306.049895 47.600163 
L 307.294686 60.808896 
L 310.206244 76.198006 
L 305.787174 93.757994 
L 307.390902 113.137869 
L 305.138806 133.590571 
L 307.72453 154.013971 
L 305.697012 173.39493 
L 301.473333 189.648159 
L 277.61 176.420547 
L 253.746667 176.829488 
L 239.298707 173.39493 
L 229.883333 171.971754 
L 224.091258 173.39493 
L 221.725446 190.956403 
L 220.33994 206.347113 
L 229.883333 214.562297 
L 253.746667 218.933789 
L 277.61 216.122563 
L 301.473333 210.662702 
L 308.712928 219.557363 
L 304.62058 230.778089 
L 308.740066 240.28 
L 306.841351 240.28 
L 302.25058 230.778089 
L 306.811109 219.557363 
L 301.473333 212.999302 
L 279.559845 219.557363 
L 293.527442 230.778089 
L 277.61 233.669458 
L 253.746667 231.494884 
L 229.883333 238.543172 
L 210.981084 230.778089 
L 206.02 226.4015 
L 198.759823 219.557363 
L 200.482306 206.347113 
L 205.697264 190.956403 
L 202.338565 173.39493 
L 206.02 169.198416 
L 229.883333 164.610437 
L 253.746667 164.059154 
L 277.61 165.769239 
L 286.55873 173.39493 
L 301.473333 181.002001 
L 303.450161 173.39493 
L 305.709634 154.013971 
L 302.828093 133.590571 
L 305.337838 113.137869 
L 303.550638 93.757994 
L 308.475265 76.198006 
L 305.230614 60.808896 
L 303.843414 47.600163 
L 309.645904 36.380776 
L 312.235841 26.88 
L 313.580761 26.88 
z
M 224.413166 230.778089 
L 229.883333 233.025245 
L 237.183903 230.778089 
L 229.883333 224.266896 
z
M 229.883333 111.535515 
L 253.746667 104.551204 
L 261.006012 113.137869 
L 253.746667 131.135611 
L 229.883333 118.609881 
L 226.868178 113.137869 
z
" clip-path="url(#p79e1c92ae1)" style="fill: #238a8d"/>
    <path d="M 100.577232 36.380776 
L 101.087496 47.600163 
L 100.832591 60.808896 
L 100.986387 76.198006 
L 100.944833 93.757994 
L 100.77888 113.137869 
L 101.481569 133.590571 
L 101.274338 154.013971 
L 102.287793 173.39493 
L 102.084033 190.956403 
L 103.63871 206.347113 
L 103.431387 219.557363 
L 102.811177 230.778089 
L 103.151633 240.28 
L 101.620272 240.28 
L 101.311513 230.778089 
L 101.873981 219.557363 
L 102.062001 206.347113 
L 100.652067 190.956403 
L 100.836856 173.39493 
L 99.917756 154.013971 
L 100.105693 133.590571 
L 99.468425 113.137869 
L 99.618928 93.757994 
L 99.656613 76.198006 
L 99.517136 60.808896 
L 99.748309 47.600163 
L 99.285551 36.380776 
L 99.055344 26.88 
L 100.323392 26.88 
z
M 309.645904 36.380776 
L 303.843414 47.600163 
L 305.230614 60.808896 
L 308.475265 76.198006 
L 303.550638 93.757994 
L 305.337838 113.137869 
L 302.828093 133.590571 
L 305.709634 154.013971 
L 303.450161 173.39493 
L 301.473333 181.002001 
L 286.55873 173.39493 
L 277.61 165.769239 
L 253.746667 164.059154 
L 229.883333 164.610437 
L 206.02 169.198416 
L 202.338565 173.39493 
L 205.697264 190.956403 
L 200.482306 206.347113 
L 198.759823 219.557363 
L 206.02 226.4015 
L 210.981084 230.778089 
L 229.883333 238.543172 
L 253.746667 231.494884 
L 277.61 233.669458 
L 293.527442 230.778089 
L 279.559845 219.557363 
L 301.473333 212.999302 
L 306.811109 219.557363 
L 302.25058 230.778089 
L 306.841351 240.28 
L 304.942636 240.28 
L 301.473333 233.333169 
L 277.61 238.070568 
L 256.576034 240.28 
L 253.746667 240.28 
L 229.883333 240.28 
L 218.813927 240.28 
L 206.02 234.990248 
L 182.738552 240.28 
L 182.156667 240.28 
L 181.900561 240.28 
L 175.655804 230.778089 
L 182.156667 224.081352 
L 186.18995 219.557363 
L 182.156667 209.397124 
L 180.673085 206.347113 
L 182.156667 203.335317 
L 188.833131 190.956403 
L 193.060893 173.39493 
L 206.02 158.622682 
L 229.883333 157.249119 
L 245.244972 154.013971 
L 229.883333 141.513896 
L 226.286309 133.590571 
L 215.426231 113.137869 
L 229.883333 105.454885 
L 250.876843 93.757994 
L 253.746667 92.295372 
L 262.76986 93.757994 
L 273.386375 113.137869 
L 277.61 121.676537 
L 301.473333 127.061806 
L 303.284774 113.137869 
L 301.473333 95.205042 
L 298.100208 93.757994 
L 301.473333 93.356808 
L 306.744287 76.198006 
L 303.166542 60.808896 
L 301.636933 47.600163 
L 308.035102 36.380776 
L 310.89092 26.88 
L 312.235841 26.88 
z
M 226.868178 113.137869 
L 229.883333 118.609881 
L 253.746667 131.135611 
L 261.006012 113.137869 
L 253.746667 104.551204 
L 229.883333 111.535515 
z
M 281.058563 154.013971 
L 301.473333 171.489932 
L 303.694738 154.013971 
L 301.473333 139.163242 
z
M 287.367497 219.557363 
L 301.473333 227.735842 
L 304.909289 219.557363 
L 301.473333 215.335902 
z
" clip-path="url(#p79e1c92ae1)" style="fill: #1f968b"/>
    <path d="M 101.868912 36.380776 
L 102.426683 47.600163 
L 102.148046 60.808896 
L 102.31616 76.198006 
L 102.270738 93.757994 
L 102.089334 113.137869 
L 102.857445 133.590571 
L 102.630921 154.013971 
L 103.738729 173.39493 
L 103.515999 190.956403 
L 105.215419 206.347113 
L 104.988794 219.557363 
L 104.310842 230.778089 
L 104.682995 240.28 
L 103.151633 240.28 
L 102.811177 230.778089 
L 103.431387 219.557363 
L 103.63871 206.347113 
L 102.084033 190.956403 
L 102.287793 173.39493 
L 101.274338 154.013971 
L 101.481569 133.590571 
L 100.77888 113.137869 
L 100.944833 93.757994 
L 100.986387 76.198006 
L 100.832591 60.808896 
L 101.087496 47.600163 
L 100.577232 36.380776 
L 100.323392 26.88 
L 101.591439 26.88 
z
M 308.035102 36.380776 
L 301.636933 47.600163 
L 303.166542 60.808896 
L 306.744287 76.198006 
L 301.473333 93.356808 
L 298.100208 93.757994 
L 301.473333 95.205042 
L 303.284774 113.137869 
L 301.473333 127.061806 
L 277.61 121.676537 
L 273.386375 113.137869 
L 262.76986 93.757994 
L 253.746667 92.295372 
L 250.876843 93.757994 
L 229.883333 105.454885 
L 215.426231 113.137869 
L 226.286309 133.590571 
L 229.883333 141.513896 
L 245.244972 154.013971 
L 229.883333 157.249119 
L 206.02 158.622682 
L 193.060893 173.39493 
L 188.833131 190.956403 
L 182.156667 203.335317 
L 180.673085 206.347113 
L 182.156667 209.397124 
L 186.18995 219.557363 
L 182.156667 224.081352 
L 175.655804 230.778089 
L 181.900561 240.28 
L 168.96249 240.28 
L 161.969018 230.778089 
L 166.000873 219.557363 
L 165.270768 206.347113 
L 176.21485 190.956403 
L 182.156667 177.345118 
L 183.78322 173.39493 
L 197.676575 154.013971 
L 206.02 143.849952 
L 213.373818 133.590571 
L 206.02 118.0064 
L 203.298857 113.137869 
L 206.02 109.625441 
L 229.883333 99.374255 
L 239.963364 93.757994 
L 253.746667 86.733253 
L 277.61 82.595464 
L 301.473333 87.721867 
L 305.013309 76.198006 
L 301.473333 62.051754 
L 294.738273 60.808896 
L 277.61 55.131168 
L 253.746667 57.766157 
L 235.348193 47.600163 
L 253.746667 44.860822 
L 277.61 45.198623 
L 301.473333 45.002931 
L 306.424301 36.380776 
L 309.546 26.88 
L 310.89092 26.88 
z
M 301.473333 139.163242 
L 303.694738 154.013971 
L 301.473333 171.489932 
L 281.058563 154.013971 
z
M 299.575515 154.013971 
L 301.473333 155.638589 
L 301.679842 154.013971 
L 301.473333 152.633403 
z
M 301.473333 215.335902 
L 304.909289 219.557363 
L 301.473333 227.735842 
L 287.367497 219.557363 
z
M 295.17515 219.557363 
L 301.473333 223.209012 
L 303.00747 219.557363 
L 301.473333 217.672502 
z
M 206.02 234.990248 
L 218.813927 240.28 
L 206.02 240.28 
L 182.738552 240.28 
z
M 277.61 238.070568 
L 301.473333 233.333169 
L 304.942636 240.28 
L 303.043921 240.28 
L 301.473333 237.1351 
L 286.577571 240.28 
L 277.61 240.28 
L 256.576034 240.28 
z
" clip-path="url(#p79e1c92ae1)" style="fill: #1fa287"/>
    <path d="M 103.160593 36.380776 
L 103.76587 47.600163 
L 103.463501 60.808896 
L 103.645934 76.198006 
L 103.596643 93.757994 
L 103.399788 113.137869 
L 104.233321 133.590571 
L 103.987503 154.013971 
L 105.189666 173.39493 
L 104.947966 190.956403 
L 106.792128 206.347113 
L 106.546201 219.557363 
L 105.810506 230.778089 
L 106.214356 240.28 
L 104.682995 240.28 
L 104.310842 230.778089 
L 104.988794 219.557363 
L 105.215419 206.347113 
L 103.515999 190.956403 
L 103.738729 173.39493 
L 102.630921 154.013971 
L 102.857445 133.590571 
L 102.089334 113.137869 
L 102.270738 93.757994 
L 102.31616 76.198006 
L 102.148046 60.808896 
L 102.426683 47.600163 
L 101.868912 36.380776 
L 101.591439 26.88 
L 102.859487 26.88 
z
M 306.424301 36.380776 
L 301.473333 45.002931 
L 277.61 45.198623 
L 253.746667 44.860822 
L 235.348193 47.600163 
L 253.746667 57.766157 
L 277.61 55.131168 
L 294.738273 60.808896 
L 301.473333 62.051754 
L 305.013309 76.198006 
L 301.473333 87.721867 
L 277.61 82.595464 
L 253.746667 86.733253 
L 239.963364 93.757994 
L 229.883333 99.374255 
L 206.02 109.625441 
L 203.298857 113.137869 
L 206.02 118.0064 
L 213.373818 133.590571 
L 206.02 143.849952 
L 197.676575 154.013971 
L 183.78322 173.39493 
L 182.156667 177.345118 
L 176.21485 190.956403 
L 165.270768 206.347113 
L 166.000873 219.557363 
L 161.969018 230.778089 
L 168.96249 240.28 
L 158.293333 240.28 
L 154.670077 240.28 
L 143.777516 230.778089 
L 150.801045 219.557363 
L 152.836738 206.347113 
L 158.293333 200.197993 
L 166.379078 190.956403 
L 167.853015 173.39493 
L 182.156667 155.111889 
L 182.888993 154.013971 
L 190.198679 133.590571 
L 188.004397 113.137869 
L 202.47599 93.757994 
L 206.02 90.036161 
L 229.883333 92.372579 
L 253.746667 81.171135 
L 267.346652 76.198006 
L 253.746667 68.073795 
L 234.50857 60.808896 
L 229.883333 58.252686 
L 215.811471 47.600163 
L 229.883333 43.74712 
L 253.746667 40.770816 
L 277.61 41.236296 
L 301.473333 42.197705 
L 304.813499 36.380776 
L 308.201079 26.88 
L 309.546 26.88 
z
M 286.972435 76.198006 
L 301.473333 82.086925 
L 303.28233 76.198006 
L 301.473333 68.968993 
z
M 301.473333 152.633403 
L 301.679842 154.013971 
L 301.473333 155.638589 
L 299.575515 154.013971 
z
M 301.473333 217.672502 
L 303.00747 219.557363 
L 301.473333 223.209012 
L 295.17515 219.557363 
z
M 301.473333 237.1351 
L 303.043921 240.28 
L 301.473333 240.28 
L 286.577571 240.28 
z
" clip-path="url(#p79e1c92ae1)" style="fill: #28ae80"/>
    <path d="M 104.452274 36.380776 
L 105.105057 47.600163 
L 104.778956 60.808896 
L 104.975708 76.198006 
L 104.922548 93.757994 
L 104.710243 113.137869 
L 105.609197 133.590571 
L 105.344085 154.013971 
L 106.640602 173.39493 
L 106.379932 190.956403 
L 108.368837 206.347113 
L 108.103608 219.557363 
L 107.310171 230.778089 
L 107.745717 240.28 
L 106.214356 240.28 
L 105.810506 230.778089 
L 106.546201 219.557363 
L 106.792128 206.347113 
L 104.947966 190.956403 
L 105.189666 173.39493 
L 103.987503 154.013971 
L 104.233321 133.590571 
L 103.399788 113.137869 
L 103.596643 93.757994 
L 103.645934 76.198006 
L 103.463501 60.808896 
L 103.76587 47.600163 
L 103.160593 36.380776 
L 102.859487 26.88 
L 104.127535 26.88 
z
M 304.813499 36.380776 
L 301.473333 42.197705 
L 277.61 41.236296 
L 253.746667 40.770816 
L 229.883333 43.74712 
L 215.811471 47.600163 
L 229.883333 58.252686 
L 234.50857 60.808896 
L 253.746667 68.073795 
L 267.346652 76.198006 
L 253.746667 81.171135 
L 229.883333 92.372579 
L 206.02 90.036161 
L 202.47599 93.757994 
L 188.004397 113.137869 
L 190.198679 133.590571 
L 182.888993 154.013971 
L 182.156667 155.111889 
L 167.853015 173.39493 
L 166.379078 190.956403 
L 158.293333 200.197993 
L 152.836738 206.347113 
L 150.801045 219.557363 
L 143.777516 230.778089 
L 154.670077 240.28 
L 134.43 240.28 
L 134.168996 240.28 
L 129.7555 230.778089 
L 134.43 224.878408 
L 139.717828 219.557363 
L 142.861023 206.347113 
L 156.174842 190.956403 
L 154.046164 173.39493 
L 158.293333 162.847877 
L 165.056679 154.013971 
L 167.730684 133.590571 
L 173.723768 113.137869 
L 182.156667 97.024902 
L 184.418063 93.757994 
L 202.861491 76.198006 
L 206.02 73.92466 
L 221.74028 60.808896 
L 206.02 50.520336 
L 199.015235 47.600163 
L 206.02 45.263132 
L 229.883333 38.937197 
L 253.746667 36.68081 
L 277.61 37.273968 
L 301.473333 39.39248 
L 303.202698 36.380776 
L 306.856158 26.88 
L 308.201079 26.88 
z
M 301.473333 68.968993 
L 303.28233 76.198006 
L 301.473333 82.086925 
L 286.972435 76.198006 
z
M 300.847937 76.198006 
L 301.473333 76.451984 
L 301.551352 76.198006 
L 301.473333 75.886233 
z
" clip-path="url(#p79e1c92ae1)" style="fill: #38b977"/>
    <path d="M 105.743955 36.380776 
L 106.444244 47.600163 
L 106.094411 60.808896 
L 106.305481 76.198006 
L 106.248453 93.757994 
L 106.020697 113.137869 
L 106.985073 133.590571 
L 106.700668 154.013971 
L 108.091539 173.39493 
L 107.811898 190.956403 
L 109.945546 206.347113 
L 109.661015 219.557363 
L 108.809835 230.778089 
L 109.277079 240.28 
L 107.745717 240.28 
L 107.310171 230.778089 
L 108.103608 219.557363 
L 108.368837 206.347113 
L 106.379932 190.956403 
L 106.640602 173.39493 
L 105.344085 154.013971 
L 105.609197 133.590571 
L 104.710243 113.137869 
L 104.922548 93.757994 
L 104.975708 76.198006 
L 104.778956 60.808896 
L 105.105057 47.600163 
L 104.452274 36.380776 
L 104.127535 26.88 
L 105.395583 26.88 
z
M 229.883333 34.077129 
L 253.746667 29.614397 
L 277.61 32.602455 
L 299.402486 36.380776 
L 301.473333 36.587254 
L 301.591896 36.380776 
L 305.511238 26.88 
L 306.856158 26.88 
L 303.202698 36.380776 
L 301.473333 39.39248 
L 277.61 37.273968 
L 253.746667 36.68081 
L 229.883333 38.937197 
L 206.02 45.263132 
L 199.015235 47.600163 
L 206.02 50.520336 
L 221.74028 60.808896 
L 206.02 73.92466 
L 202.861491 76.198006 
L 184.418063 93.757994 
L 182.156667 97.024902 
L 173.723768 113.137869 
L 167.730684 133.590571 
L 165.056679 154.013971 
L 158.293333 162.847877 
L 154.046164 173.39493 
L 156.174842 190.956403 
L 142.861023 206.347113 
L 139.717828 219.557363 
L 134.43 224.878408 
L 129.7555 230.778089 
L 134.168996 240.28 
L 121.356397 240.28 
L 120.91876 230.778089 
L 123.131589 219.557363 
L 127.696662 206.347113 
L 134.43 203.918074 
L 144.268173 190.956403 
L 144.583493 173.39493 
L 152.464896 154.013971 
L 154.210169 133.590571 
L 158.293333 117.438328 
L 160.070723 113.137869 
L 169.187833 93.757994 
L 182.156667 84.429169 
L 191.176007 76.198006 
L 206.02 65.513998 
L 211.659437 60.808896 
L 206.02 57.118014 
L 183.116287 60.808896 
L 182.156667 61.262446 
L 181.801667 60.808896 
L 182.156667 57.317423 
L 183.189056 47.600163 
L 206.02 39.982974 
L 220.167519 36.380776 
z
M 301.473333 75.886233 
L 301.551352 76.198006 
L 301.473333 76.451984 
L 300.847937 76.198006 
z
" clip-path="url(#p79e1c92ae1)" style="fill: #50c46a"/>
    <path d="M 107.035635 36.380776 
L 107.783431 47.600163 
L 107.409866 60.808896 
L 107.635255 76.198006 
L 107.574358 93.757994 
L 107.331152 113.137869 
L 108.360949 133.590571 
L 108.05725 154.013971 
L 109.542475 173.39493 
L 109.243864 190.956403 
L 110.566667 200.249859 
L 130.652591 190.956403 
L 134.43 178.591174 
L 135.120821 173.39493 
L 143.125495 154.013971 
L 145.859415 133.590571 
L 150.881735 113.137869 
L 153.454573 93.757994 
L 158.293333 89.523283 
L 177.032278 76.198006 
L 166.655727 60.808896 
L 170.990932 47.600163 
L 176.897675 36.380776 
L 182.156667 33.095764 
L 190.688154 26.88 
L 206.02 26.88 
L 220.932344 26.88 
L 229.883333 29.160173 
L 240.042743 26.88 
L 253.746667 26.88 
L 272.436821 26.88 
L 277.61 27.724551 
L 301.473333 33.375559 
L 304.166317 26.88 
L 305.511238 26.88 
L 301.591896 36.380776 
L 301.473333 36.587254 
L 299.402486 36.380776 
L 277.61 32.602455 
L 253.746667 29.614397 
L 229.883333 34.077129 
L 220.167519 36.380776 
L 206.02 39.982974 
L 183.189056 47.600163 
L 182.156667 57.317423 
L 181.801667 60.808896 
L 182.156667 61.262446 
L 183.116287 60.808896 
L 206.02 57.118014 
L 211.659437 60.808896 
L 206.02 65.513998 
L 191.176007 76.198006 
L 182.156667 84.429169 
L 169.187833 93.757994 
L 160.070723 113.137869 
L 158.293333 117.438328 
L 154.210169 133.590571 
L 152.464896 154.013971 
L 144.583493 173.39493 
L 144.268173 190.956403 
L 134.43 203.918074 
L 127.696662 206.347113 
L 123.131589 219.557363 
L 120.91876 230.778089 
L 121.356397 240.28 
L 110.566667 240.28 
L 109.277079 240.28 
L 108.809835 230.778089 
L 109.661015 219.557363 
L 109.945546 206.347113 
L 107.811898 190.956403 
L 108.091539 173.39493 
L 106.700668 154.013971 
L 106.985073 133.590571 
L 106.020697 113.137869 
L 106.248453 93.757994 
L 106.305481 76.198006 
L 106.094411 60.808896 
L 106.444244 47.600163 
L 105.743955 36.380776 
L 105.395583 26.88 
L 106.66363 26.88 
z
M 110.309499 230.778089 
L 110.566667 235.725247 
L 112.082019 230.778089 
L 110.566667 227.516628 
z
" clip-path="url(#p79e1c92ae1)" style="fill: #6ccd5a"/>
    <path d="M 108.327316 36.380776 
L 109.122619 47.600163 
L 108.725321 60.808896 
L 108.965029 76.198006 
L 108.900263 93.757994 
L 108.641606 113.137869 
L 109.736824 133.590571 
L 109.413833 154.013971 
L 110.566667 168.41185 
L 132.639245 154.013971 
L 134.43 150.796307 
L 137.508662 133.590571 
L 142.360868 113.137869 
L 135.205255 93.757994 
L 153.296276 76.198006 
L 147.205034 60.808896 
L 158.293333 49.229265 
L 159.045992 47.600163 
L 158.293333 44.873208 
L 152.497868 36.380776 
L 158.293333 29.672144 
L 161.283628 26.88 
L 182.156667 26.88 
L 190.688154 26.88 
L 182.156667 33.095764 
L 176.897675 36.380776 
L 170.990932 47.600163 
L 166.655727 60.808896 
L 177.032278 76.198006 
L 158.293333 89.523283 
L 153.454573 93.757994 
L 150.881735 113.137869 
L 145.859415 133.590571 
L 143.125495 154.013971 
L 135.120821 173.39493 
L 134.43 178.591174 
L 130.652591 190.956403 
L 110.566667 200.249859 
L 109.243864 190.956403 
L 109.542475 173.39493 
L 108.05725 154.013971 
L 108.360949 133.590571 
L 107.331152 113.137869 
L 107.574358 93.757994 
L 107.635255 76.198006 
L 107.409866 60.808896 
L 107.783431 47.600163 
L 107.035635 36.380776 
L 106.66363 26.88 
L 107.931678 26.88 
z
M 229.883333 26.88 
L 240.042743 26.88 
L 229.883333 29.160173 
L 220.932344 26.88 
z
M 277.61 26.88 
L 288.397063 26.88 
L 301.473333 30.13157 
L 302.821397 26.88 
L 304.166317 26.88 
L 301.473333 33.375559 
L 277.61 27.724551 
L 272.436821 26.88 
z
M 110.566667 227.516628 
L 112.082019 230.778089 
L 110.566667 235.725247 
L 110.309499 230.778089 
z
" clip-path="url(#p79e1c92ae1)" style="fill: #8bd646"/>
    <path d="M 109.618997 36.380776 
L 110.461806 47.600163 
L 110.040776 60.808896 
L 110.294802 76.198006 
L 110.226168 93.757994 
L 109.95206 113.137869 
L 110.566667 124.216232 
L 131.360132 113.137869 
L 115.613277 93.757994 
L 118.993126 76.198006 
L 121.361394 60.808896 
L 115.657238 47.600163 
L 126.172163 36.380776 
L 134.43 30.742821 
L 139.789626 26.88 
L 158.293333 26.88 
L 161.283628 26.88 
L 158.293333 29.672144 
L 152.497868 36.380776 
L 158.293333 44.873208 
L 159.045992 47.600163 
L 158.293333 49.229265 
L 147.205034 60.808896 
L 153.296276 76.198006 
L 135.205255 93.757994 
L 142.360868 113.137869 
L 137.508662 133.590571 
L 134.43 150.796307 
L 132.639245 154.013971 
L 110.566667 168.41185 
L 109.413833 154.013971 
L 109.736824 133.590571 
L 108.641606 113.137869 
L 108.900263 93.757994 
L 108.965029 76.198006 
L 108.725321 60.808896 
L 109.122619 47.600163 
L 108.327316 36.380776 
L 107.931678 26.88 
L 109.199726 26.88 
z
M 301.473333 26.88758 
L 301.476476 26.88 
L 302.821397 26.88 
L 301.473333 30.13157 
L 288.397063 26.88 
L 301.44285 26.88 
z
" clip-path="url(#p79e1c92ae1)" style="fill: #addc30"/>
    <path d="M 110.566667 29.031943 
L 112.858631 26.88 
L 134.43 26.88 
L 139.789626 26.88 
L 134.43 30.742821 
L 126.172163 36.380776 
L 115.657238 47.600163 
L 121.361394 60.808896 
L 118.993126 76.198006 
L 115.613277 93.757994 
L 131.360132 113.137869 
L 110.566667 124.216232 
L 109.95206 113.137869 
L 110.226168 93.757994 
L 110.294802 76.198006 
L 110.040776 60.808896 
L 110.461806 47.600163 
L 109.618997 36.380776 
L 109.199726 26.88 
L 110.467774 26.88 
z
M 301.473333 26.88 
L 301.476476 26.88 
L 301.473333 26.88758 
L 301.44285 26.88 
z
" clip-path="url(#p79e1c92ae1)" style="fill: #cde11d"/>
    <path d="M 110.566667 26.88 
L 112.858631 26.88 
L 110.566667 29.031943 
L 110.467774 26.88 
z
" clip-path="url(#p79e1c92ae1)" style="fill: #efe51c"/>
   </g>
   <g id="matplotlib.axis_1">
    <g id="xtick_1">
     <g id="line2d_1">
      <defs>
       <path id="m4c7aaefef3" d="M 0 0 
L 0 3.5 
" style="stroke: #000000; stroke-width: 0.8"/>
      </defs>
      <g>
       <use xlink:href="#m4c7aaefef3" x="126.475556" y="240.28" style="stroke: #000000; stroke-width: 0.8"/>
      </g>
     </g>
     <g id="text_1">
      <!-- −50 -->
      <g transform="translate(113.812743 256.398125) scale(0.12 -0.12)">
       <defs>
        <path id="DejaVuSans-2212" d="M 678 2272 
L 4684 2272 
L 4684 1741 
L 678 1741 
L 678 2272 
z
" transform="scale(0.015625)"/>
        <path id="DejaVuSans-35" d="M 691 4666 
L 3169 4666 
L 3169 4134 
L 1269 4134 
L 1269 2991 
Q 1406 3038 1543 3061 
Q 1681 3084 1819 3084 
Q 2600 3084 3056 2656 
Q 3513 2228 3513 1497 
Q 3513 744 3044 326 
Q 2575 -91 1722 -91 
Q 1428 -91 1123 -41 
Q 819 9 494 109 
L 494 744 
Q 775 591 1075 516 
Q 1375 441 1709 441 
Q 2250 441 2565 725 
Q 2881 1009 2881 1497 
Q 2881 1984 2565 2268 
Q 2250 2553 1709 2553 
Q 1456 2553 1204 2497 
Q 953 2441 691 2322 
L 691 4666 
z
" transform="scale(0.015625)"/>
        <path id="DejaVuSans-30" d="M 2034 4250 
Q 1547 4250 1301 3770 
Q 1056 3291 1056 2328 
Q 1056 1369 1301 889 
Q 1547 409 2034 409 
Q 2525 409 2770 889 
Q 3016 1369 3016 2328 
Q 3016 3291 2770 3770 
Q 2525 4250 2034 4250 
z
M 2034 4750 
Q 2819 4750 3233 4129 
Q 3647 3509 3647 2328 
Q 3647 1150 3233 529 
Q 2819 -91 2034 -91 
Q 1250 -91 836 529 
Q 422 1150 422 2328 
Q 422 3509 836 4129 
Q 1250 4750 2034 4750 
z
" transform="scale(0.015625)"/>
       </defs>
       <use xlink:href="#DejaVuSans-2212"/>
       <use xlink:href="#DejaVuSans-35" transform="translate(83.789062 0)"/>
       <use xlink:href="#DejaVuSans-30" transform="translate(147.412109 0)"/>
      </g>
     </g>
    </g>
    <g id="xtick_2">
     <g id="line2d_2">
      <g>
       <use xlink:href="#m4c7aaefef3" x="206.02" y="240.28" style="stroke: #000000; stroke-width: 0.8"/>
      </g>
     </g>
     <g id="text_2">
      <!-- 0 -->
      <g transform="translate(202.2025 256.398125) scale(0.12 -0.12)">
       <use xlink:href="#DejaVuSans-30"/>
      </g>
     </g>
    </g>
    <g id="xtick_3">
     <g id="line2d_3">
      <g>
       <use xlink:href="#m4c7aaefef3" x="285.564444" y="240.28" style="stroke: #000000; stroke-width: 0.8"/>
      </g>
     </g>
     <g id="text_3">
      <!-- 50 -->
      <g transform="translate(277.929444 256.398125) scale(0.12 -0.12)">
       <use xlink:href="#DejaVuSans-35"/>
       <use xlink:href="#DejaVuSans-30" transform="translate(63.623047 0)"/>
      </g>
     </g>
    </g>
    <g id="text_4">
     <!-- $\Theta^{\circ}$ -->
     <g transform="translate(198.4 272.011875) scale(0.12 -0.12)">
      <defs>
       <path id="DejaVuSans-398" d="M 1416 2750 
L 3622 2750 
L 3622 2219 
L 1416 2219 
L 1416 2750 
z
M 2522 4238 
Q 1834 4238 1431 3725 
Q 1025 3213 1025 2328 
Q 1025 1447 1429 934 
Q 1834 422 2522 422 
Q 3209 422 3613 934 
Q 4013 1447 4013 2328 
Q 4013 3213 3613 3725 
Q 3209 4238 2522 4238 
z
M 2522 4750 
Q 3503 4750 4090 4092 
Q 4678 3434 4678 2328 
Q 4678 1225 4091 569 
Q 3503 -91 2522 -91 
Q 1538 -91 950 566 
Q 359 1222 359 2328 
Q 359 3434 950 4094 
Q 1538 4750 2522 4750 
z
" transform="scale(0.015625)"/>
       <path id="DejaVuSans-2218" d="M 2000 2619 
Q 1750 2619 1578 2445 
Q 1406 2272 1406 2022 
Q 1406 1775 1578 1605 
Q 1750 1435 2000 1435 
Q 2250 1435 2422 1605 
Q 2594 1775 2594 2022 
Q 2594 2269 2420 2444 
Q 2247 2619 2000 2619 
z
M 2000 3022 
Q 2200 3022 2384 2945 
Q 2569 2869 2703 2725 
Q 2847 2585 2919 2406 
Q 2991 2228 2991 2022 
Q 2991 1610 2702 1324 
Q 2413 1038 1994 1038 
Q 1572 1038 1290 1319 
Q 1009 1600 1009 2022 
Q 1009 2441 1296 2731 
Q 1584 3022 2000 3022 
z
" transform="scale(0.015625)"/>
      </defs>
      <use xlink:href="#DejaVuSans-398" transform="translate(0 0.78125)"/>
      <use xlink:href="#DejaVuSans-2218" transform="translate(79.667969 39.0625) scale(0.7)"/>
     </g>
    </g>
   </g>
   <g id="matplotlib.axis_2">
    <g id="ytick_1">
     <g id="line2d_4">
      <defs>
       <path id="mc73e153138" d="M 0 0 
L -3.5 0 
" style="stroke: #000000; stroke-width: 0.8"/>
      </defs>
      <g>
       <use xlink:href="#mc73e153138" x="62.84" y="219.984151" style="stroke: #000000; stroke-width: 0.8"/>
      </g>
     </g>
     <g id="text_5">
      <!-- −40 -->
      <g transform="translate(30.514375 224.543214) scale(0.12 -0.12)">
       <defs>
        <path id="DejaVuSans-34" d="M 2419 4116 
L 825 1625 
L 2419 1625 
L 2419 4116 
z
M 2253 4666 
L 3047 4666 
L 3047 1625 
L 3713 1625 
L 3713 1100 
L 3047 1100 
L 3047 0 
L 2419 0 
L 2419 1100 
L 313 1100 
L 313 1709 
L 2253 4666 
z
" transform="scale(0.015625)"/>
       </defs>
       <use xlink:href="#DejaVuSans-2212"/>
       <use xlink:href="#DejaVuSans-34" transform="translate(83.789062 0)"/>
       <use xlink:href="#DejaVuSans-30" transform="translate(147.412109 0)"/>
      </g>
     </g>
    </g>
    <g id="ytick_2">
     <g id="line2d_5">
      <g>
       <use xlink:href="#mc73e153138" x="62.84" y="176.783648" style="stroke: #000000; stroke-width: 0.8"/>
      </g>
     </g>
     <g id="text_6">
      <!-- −20 -->
      <g transform="translate(30.514375 181.342711) scale(0.12 -0.12)">
       <defs>
        <path id="DejaVuSans-32" d="M 1228 531 
L 3431 531 
L 3431 0 
L 469 0 
L 469 531 
Q 828 903 1448 1529 
Q 2069 2156 2228 2338 
Q 2531 2678 2651 2914 
Q 2772 3150 2772 3378 
Q 2772 3750 2511 3984 
Q 2250 4219 1831 4219 
Q 1534 4219 1204 4116 
Q 875 4013 500 3803 
L 500 4441 
Q 881 4594 1212 4672 
Q 1544 4750 1819 4750 
Q 2544 4750 2975 4387 
Q 3406 4025 3406 3419 
Q 3406 3131 3298 2873 
Q 3191 2616 2906 2266 
Q 2828 2175 2409 1742 
Q 1991 1309 1228 531 
z
" transform="scale(0.015625)"/>
       </defs>
       <use xlink:href="#DejaVuSans-2212"/>
       <use xlink:href="#DejaVuSans-32" transform="translate(83.789062 0)"/>
       <use xlink:href="#DejaVuSans-30" transform="translate(147.412109 0)"/>
      </g>
     </g>
    </g>
    <g id="ytick_3">
     <g id="line2d_6">
      <g>
       <use xlink:href="#mc73e153138" x="62.84" y="133.583145" style="stroke: #000000; stroke-width: 0.8"/>
      </g>
     </g>
     <g id="text_7">
      <!-- 0 -->
      <g transform="translate(48.205 138.142208) scale(0.12 -0.12)">
       <use xlink:href="#DejaVuSans-30"/>
      </g>
     </g>
    </g>
    <g id="ytick_4">
     <g id="line2d_7">
      <g>
       <use xlink:href="#mc73e153138" x="62.84" y="90.382642" style="stroke: #000000; stroke-width: 0.8"/>
      </g>
     </g>
     <g id="text_8">
      <!-- 20 -->
      <g transform="translate(40.57 94.941704) scale(0.12 -0.12)">
       <use xlink:href="#DejaVuSans-32"/>
       <use xlink:href="#DejaVuSans-30" transform="translate(63.623047 0)"/>
      </g>
     </g>
    </g>
    <g id="ytick_5">
     <g id="line2d_8">
      <g>
       <use xlink:href="#mc73e153138" x="62.84" y="47.182139" style="stroke: #000000; stroke-width: 0.8"/>
      </g>
     </g>
     <g id="text_9">
      <!-- 40 -->
      <g transform="translate(40.57 51.741201) scale(0.12 -0.12)">
       <use xlink:href="#DejaVuSans-34"/>
       <use xlink:href="#DejaVuSans-30" transform="translate(63.623047 0)"/>
      </g>
     </g>
    </g>
    <g id="text_10">
     <!-- $\phi^{\circ}$ -->
     <g transform="translate(23.784375 141.38) rotate(-90) scale(0.13 -0.13)">
      <defs>
       <path id="DejaVuSans-Oblique-3d5" d="M 2991 4863 
L 2738 3572 
Q 3363 3572 3684 3094 
Q 4016 2606 3850 1747 
Q 3681 888 3159 400 
Q 2653 -78 2028 -78 
L 1784 -1331 
L 1213 -1331 
L 1456 -78 
Q 834 -78 509 400 
Q 178 888 347 1747 
Q 513 2606 1034 3094 
Q 1544 3572 2166 3572 
L 2419 4863 
L 2991 4863 
z
M 2128 434 
Q 2481 434 2784 756 
Q 3116 1116 3244 1747 
Q 3369 2372 3169 2738 
Q 2991 3059 2638 3059 
L 2128 434 
z
M 1556 434 
L 2066 3059 
Q 1716 3059 1413 2738 
Q 1072 2372 953 1747 
Q 834 1116 1028 756 
Q 1203 434 1556 434 
z
" transform="scale(0.015625)"/>
      </defs>
      <use xlink:href="#DejaVuSans-Oblique-3d5" transform="translate(0 0.015625)"/>
      <use xlink:href="#DejaVuSans-2218" transform="translate(73.414505 38.296875) scale(0.7)"/>
     </g>
    </g>
   </g>
   <g id="QuadContourSet_2">
    <path clip-path="url(#p79e1c92ae1)" style="fill: none; stroke-dasharray: 1.85,0.8; stroke-dashoffset: 0; stroke: #000000; stroke-width: 0.5"/>
    <path d="M 324.340126 26.88 
L 324.143118 36.380776 
L 323.70174 47.600163 
L 323.80726 60.808896 
L 324.054071 76.198006 
L 323.679469 93.757994 
L 323.815416 113.137869 
L 323.74738 120.426789 
M 323.765783 146.75419 
L 323.843697 154.013971 
L 323.671826 173.39493 
L 323.278154 190.956403 
L 322.771844 206.347113 
L 323.927483 219.557363 
L 323.580577 230.778089 
L 323.929784 240.28 
M 87.83802 240.28 
L 87.814534 230.778089 
L 87.857319 219.557363 
L 87.871621 206.347113 
L 87.764372 190.956403 
L 87.778428 173.39493 
L 87.708515 154.013971 
L 87.713596 146.754854 
M 87.69161 120.426318 
L 87.674335 113.137869 
L 87.685784 93.757994 
L 87.68865 76.198006 
L 87.678041 60.808896 
L 87.695625 47.600163 
L 87.660425 36.380776 
L 87.642914 26.88 
" clip-path="url(#p79e1c92ae1)" style="fill: none; stroke-dasharray: 1.85,0.8; stroke-dashoffset: 0; stroke: #000000; stroke-width: 0.5"/>
    <path d="M 322.995206 26.88 
L 322.532316 36.380776 
L 321.495259 47.600163 
L 321.743188 60.808896 
L 322.323092 76.198006 
L 321.442932 93.757994 
L 321.762352 113.137869 
L 321.602445 120.429067 
M 321.645659 146.751179 
L 321.828801 154.013971 
L 321.424974 173.39493 
L 320.500006 190.956403 
L 319.310387 206.347113 
L 322.025664 219.557363 
L 321.210578 230.778089 
L 322.031069 240.28 
M 89.369381 240.28 
L 89.314198 230.778089 
L 89.414726 219.557363 
L 89.44833 206.347113 
L 89.196338 190.956403 
L 89.229364 173.39493 
L 89.065097 154.013971 
L 89.077036 146.754841 
M 89.025378 120.426464 
L 88.98479 113.137869 
L 89.011689 93.757994 
L 89.018424 76.198006 
L 88.993496 60.808896 
L 89.034812 47.600163 
L 88.952106 36.380776 
L 88.910961 26.88 
" clip-path="url(#p79e1c92ae1)" style="fill: none; stroke-dasharray: 1.85,0.8; stroke-dashoffset: 0; stroke: #000000; stroke-width: 0.5"/>
    <path d="M 321.650285 26.88 
L 320.921514 36.380776 
L 319.288778 47.600163 
L 319.679116 60.808896 
L 320.592114 76.198006 
L 319.206395 93.757994 
L 319.709288 113.137869 
L 319.455895 120.476459 
M 319.523634 146.702473 
L 319.813905 154.013971 
L 319.178123 173.39493 
L 317.721859 190.956403 
L 315.84893 206.347113 
L 320.123844 219.557363 
L 318.840578 230.778089 
L 320.132354 240.28 
M 90.900743 240.28 
L 90.813862 230.778089 
L 90.972133 219.557363 
L 91.025039 206.347113 
L 90.628304 190.956403 
L 90.680301 173.39493 
L 90.421679 154.013971 
L 90.440588 146.711514 
M 90.359529 120.470032 
L 90.295244 113.137869 
L 90.337594 93.757994 
L 90.348198 76.198006 
L 90.308951 60.808896 
L 90.374 47.600163 
L 90.243786 36.380776 
L 90.179009 26.88 
" clip-path="url(#p79e1c92ae1)" style="fill: none; stroke-dasharray: 1.85,0.8; stroke-dashoffset: 0; stroke: #000000; stroke-width: 0.5"/>
    <path d="M 320.305364 26.88 
L 319.310713 36.380776 
L 317.082298 47.600163 
L 317.615044 60.808896 
L 318.861135 76.198006 
L 316.969858 93.757994 
L 317.656223 113.137869 
L 317.310106 120.482377 
M 317.402413 146.694654 
L 317.799009 154.013971 
L 316.931271 173.39493 
L 314.943711 190.956403 
L 312.387472 206.347113 
L 318.222025 219.557363 
L 316.470578 230.778089 
L 318.233639 240.28 
M 92.432104 240.28 
L 92.313527 230.778089 
L 92.529539 219.557363 
L 92.601748 206.347113 
L 92.06027 190.956403 
L 92.131237 173.39493 
L 91.778262 154.013971 
L 91.804069 146.711481 
M 91.693441 120.470414 
L 91.605699 113.137869 
L 91.663499 93.757994 
L 91.677971 76.198006 
L 91.624406 60.808896 
L 91.713187 47.600163 
L 91.535467 36.380776 
L 91.447057 26.88 
" clip-path="url(#p79e1c92ae1)" style="fill: none; stroke-dasharray: 1.85,0.8; stroke-dashoffset: 0; stroke: #000000; stroke-width: 0.5"/>
    <path d="M 318.960444 26.88 
L 317.699911 36.380776 
L 314.875817 47.600163 
L 315.550973 60.808896 
L 317.130157 76.198006 
L 314.733322 93.757994 
L 315.603159 113.137869 
L 315.161477 120.533346 
M 315.277834 146.641229 
L 315.784113 154.013971 
L 314.684419 173.39493 
L 312.165564 190.956403 
L 308.926015 206.347113 
L 316.320206 219.557363 
L 314.100579 230.778089 
L 316.334925 240.28 
M 93.963465 240.28 
L 93.813191 230.778089 
L 94.086946 219.557363 
L 94.178457 206.347113 
L 93.492236 190.956403 
L 93.582174 173.39493 
L 93.134844 154.013971 
L 93.167744 146.668134 
M 93.028014 120.514214 
L 92.916153 113.137869 
L 92.989404 93.757994 
L 93.007745 76.198006 
L 92.939861 60.808896 
L 93.052374 47.600163 
L 92.827148 36.380776 
L 92.715105 26.88 
" clip-path="url(#p79e1c92ae1)" style="fill: none; stroke-dasharray: 1.85,0.8; stroke-dashoffset: 0; stroke: #000000; stroke-width: 0.5"/>
    <path d="M 317.615523 26.88 
L 316.08911 36.380776 
L 312.669337 47.600163 
L 313.486901 60.808896 
L 315.399179 76.198006 
L 312.496785 93.757994 
L 313.550095 113.137869 
L 313.014562 120.542852 
M 313.155106 146.628686 
L 313.769218 154.013971 
L 312.437568 173.39493 
L 309.387416 190.956403 
L 305.464557 206.347113 
L 314.418386 219.557363 
L 311.730579 230.778089 
L 314.43621 240.28 
M 95.494827 240.28 
L 95.312856 230.778089 
L 95.644353 219.557363 
L 95.755166 206.347113 
L 94.924202 190.956403 
L 95.03311 173.39493 
L 94.491427 154.013971 
L 94.531266 146.66808 
M 94.362074 120.51483 
L 94.226608 113.137869 
L 94.315309 93.757994 
L 94.337519 76.198006 
L 94.255316 60.808896 
L 94.391561 47.600163 
L 94.118828 36.380776 
L 93.983153 26.88 
" clip-path="url(#p79e1c92ae1)" style="fill: none; stroke-dasharray: 1.85,0.8; stroke-dashoffset: 0; stroke: #000000; stroke-width: 0.5"/>
    <path d="M 316.270603 26.88 
L 314.478308 36.380776 
L 310.462856 47.600163 
L 311.422829 60.808896 
L 313.6682 76.198006 
L 310.260248 93.757994 
L 311.497031 113.137869 
L 310.867257 120.554144 
M 311.031787 146.613796 
L 311.754322 154.013971 
L 310.190716 173.39493 
L 306.609269 190.956403 
L 302.0031 206.347113 
L 312.516567 219.557363 
L 309.360579 230.778089 
L 312.537495 240.28 
M 97.026188 240.28 
L 96.81252 230.778089 
L 97.20176 219.557363 
L 97.331875 206.347113 
L 96.356169 190.956403 
L 96.484047 173.39493 
L 95.848009 154.013971 
L 95.894788 146.668016 
M 95.696141 120.515564 
L 95.537062 113.137869 
L 95.641214 93.757994 
L 95.667292 76.198006 
L 95.570771 60.808896 
L 95.730748 47.600163 
L 95.410509 36.380776 
L 95.2512 26.88 
M 267.588472 208.13521 
L 277.61 206.966333 
L 288.805385 206.347113 
L 280.63275 190.956403 
L 277.61 189.237988 
L 271.503775 190.956403 
L 253.746667 198.848024 
L 249.628803 202.788867 
" clip-path="url(#p79e1c92ae1)" style="fill: none; stroke-dasharray: 1.85,0.8; stroke-dashoffset: 0; stroke: #000000; stroke-width: 0.5"/>
    <path d="M 314.925682 26.88 
L 312.867507 36.380776 
L 308.256375 47.600163 
L 309.358757 60.808896 
L 311.937222 76.198006 
L 308.023711 93.757994 
L 309.443967 113.137869 
L 307.449518 133.590571 
L 309.739426 154.013971 
L 307.943864 173.39493 
L 304.989363 186.010693 
M 290.762363 190.306305 
L 277.61 182.829268 
L 253.746667 188.406565 
L 246.351936 190.956403 
L 235.335414 206.347113 
L 253.746667 214.34173 
L 277.61 211.544448 
L 301.473333 208.326102 
L 310.614748 219.557363 
L 306.990579 230.778089 
L 310.63878 240.28 
M 98.557549 240.28 
L 98.312184 230.778089 
L 98.759167 219.557363 
L 98.908583 206.347113 
L 97.788135 190.956403 
L 97.934983 173.39493 
L 97.204591 154.013971 
L 97.258311 146.667942 
M 97.030215 120.516415 
L 96.847516 113.137869 
L 96.967118 93.757994 
L 96.997066 76.198006 
L 96.886226 60.808896 
L 97.069935 47.600163 
L 96.70219 36.380776 
L 96.519248 26.88 
" clip-path="url(#p79e1c92ae1)" style="fill: none; stroke-dasharray: 1.85,0.8; stroke-dashoffset: 0; stroke: #000000; stroke-width: 0.5"/>
    <path d="M 313.580761 26.88 
L 311.256705 36.380776 
L 306.049895 47.600163 
L 307.294686 60.808896 
L 310.206244 76.198006 
L 305.787174 93.757994 
L 307.390902 113.137869 
L 305.138806 133.590571 
L 307.72453 154.013971 
L 305.697012 173.39493 
L 301.473333 189.648159 
L 277.61 176.420547 
L 267.73902 176.589704 
M 240.181225 173.604722 
L 239.298707 173.39493 
L 229.883333 171.971754 
L 224.091258 173.39493 
L 221.725446 190.956403 
L 220.33994 206.347113 
L 229.883333 214.562297 
L 253.746667 218.933789 
L 277.61 216.122563 
L 301.473333 210.662702 
L 308.712928 219.557363 
L 304.62058 230.778089 
L 308.740066 240.28 
M 100.088911 240.28 
L 99.811849 230.778089 
L 100.316574 219.557363 
L 100.485292 206.347113 
L 99.220101 190.956403 
L 99.38592 173.39493 
L 98.561174 154.013971 
L 98.621476 146.71116 
M 98.363088 120.474094 
L 98.157971 113.137869 
L 98.293023 93.757994 
L 98.32684 76.198006 
L 98.201681 60.808896 
L 98.409122 47.600163 
L 97.99387 36.380776 
L 97.787296 26.88 
M 229.883333 224.266896 
L 224.413166 230.778089 
L 229.883333 233.025245 
L 237.183903 230.778089 
L 229.883333 224.266896 
" clip-path="url(#p79e1c92ae1)" style="fill: none; stroke-dasharray: 1.85,0.8; stroke-dashoffset: 0; stroke: #000000; stroke-width: 0.5"/>
    <path d="M 312.235841 26.88 
L 309.645904 36.380776 
L 303.843414 47.600163 
L 305.230614 60.808896 
L 308.475265 76.198006 
L 303.550638 93.757994 
L 305.337838 113.137869 
L 302.828093 133.590571 
L 305.709634 154.013971 
L 304.965757 160.39468 
M 296.556285 178.494101 
L 286.55873 173.39493 
L 277.61 165.769239 
L 253.746667 164.059154 
L 229.883333 164.610437 
L 206.02 169.198416 
L 202.338565 173.39493 
L 205.697264 190.956403 
L 200.482306 206.347113 
L 198.759823 219.557363 
L 206.02 226.4015 
L 210.981084 230.778089 
L 229.883333 238.543172 
L 253.746667 231.494884 
L 277.61 233.669458 
L 293.527442 230.778089 
L 279.559845 219.557363 
L 301.473333 212.999302 
L 306.811109 219.557363 
L 302.25058 230.778089 
L 306.841351 240.28 
M 101.620272 240.28 
L 101.311513 230.778089 
L 101.873981 219.557363 
L 102.062001 206.347113 
L 100.652067 190.956403 
L 100.836856 173.39493 
L 99.917756 154.013971 
L 99.985356 146.667763 
M 99.698391 120.518469 
L 99.468425 113.137869 
L 99.618928 93.757994 
L 99.656613 76.198006 
L 99.517136 60.808896 
L 99.748309 47.600163 
L 99.285551 36.380776 
L 99.055344 26.88 
M 258.680508 118.903378 
L 261.006012 113.137869 
L 253.746667 104.551204 
L 229.883333 111.535515 
L 226.868178 113.137869 
L 229.883333 118.609881 
L 241.575717 124.747147 
" clip-path="url(#p79e1c92ae1)" style="fill: none; stroke-dasharray: 1.85,0.8; stroke-dashoffset: 0; stroke: #000000; stroke-width: 0.5"/>
    <path d="M 310.89092 26.88 
L 308.035102 36.380776 
L 301.636933 47.600163 
L 303.166542 60.808896 
L 306.744287 76.198006 
L 301.473333 93.356808 
L 298.100208 93.757994 
L 301.473333 95.205042 
L 303.284774 113.137869 
L 301.473333 127.061806 
L 277.61 121.676537 
L 273.386375 113.137869 
L 264.980045 97.792568 
M 241.654192 98.896551 
L 229.883333 105.454885 
L 215.426231 113.137869 
L 226.286309 133.590571 
L 229.883333 141.513896 
L 245.244972 154.013971 
L 229.883333 157.249119 
L 206.02 158.622682 
L 193.060893 173.39493 
L 188.833131 190.956403 
L 182.156667 203.335317 
L 180.673085 206.347113 
L 182.156667 209.397124 
L 186.18995 219.557363 
L 182.156667 224.081352 
L 175.655804 230.778089 
L 181.900561 240.28 
M 103.151633 240.28 
L 102.811177 230.778089 
L 103.431387 219.557363 
L 103.63871 206.347113 
L 102.084033 190.956403 
L 102.287793 173.39493 
L 101.274338 154.013971 
L 101.34844 146.710959 
M 101.031008 120.47639 
L 100.77888 113.137869 
L 100.944833 93.757994 
L 100.986387 76.198006 
L 100.832591 60.808896 
L 101.087496 47.600163 
L 100.577232 36.380776 
L 100.323392 26.88 
M 182.738552 240.28 
L 192.418991 238.080518 
M 256.576034 240.28 
L 277.61 238.070568 
L 287.782195 236.051162 
M 291.13848 162.642833 
L 281.058563 154.013971 
L 301.473333 139.163242 
L 303.694738 154.013971 
L 303.129448 158.461147 
M 301.473333 215.335902 
L 304.909289 219.557363 
L 301.473333 227.735842 
L 287.367497 219.557363 
L 301.473333 215.335902 
z
" clip-path="url(#p79e1c92ae1)" style="fill: none; stroke-dasharray: 1.85,0.8; stroke-dashoffset: 0; stroke: #000000; stroke-width: 0.5"/>
    <path d="M 309.546 26.88 
L 306.424301 36.380776 
L 301.473333 45.002931 
L 277.61 45.198623 
L 253.746667 44.860822 
L 235.348193 47.600163 
L 253.746667 57.766157 
L 277.61 55.131168 
L 294.738273 60.808896 
L 301.473333 62.051754 
L 304.738329 75.099149 
M 287.832142 84.79142 
L 277.61 82.595464 
L 253.746667 86.733253 
L 239.963364 93.757994 
L 229.883333 99.374255 
L 206.02 109.625441 
L 203.298857 113.137869 
L 206.02 118.0064 
L 213.373818 133.590571 
L 206.02 143.849952 
L 197.676575 154.013971 
L 183.78322 173.39493 
L 182.156667 177.345118 
L 176.21485 190.956403 
L 165.270768 206.347113 
L 166.000873 219.557363 
L 161.969018 230.778089 
L 168.96249 240.28 
M 104.682995 240.28 
L 104.310842 230.778089 
L 104.988794 219.557363 
L 105.215419 206.347113 
L 103.515999 190.956403 
L 103.738729 173.39493 
L 102.630921 154.013971 
L 102.711923 146.710843 
M 102.364985 120.477715 
L 102.089334 113.137869 
L 102.270738 93.757994 
L 102.31616 76.198006 
L 102.148046 60.808896 
L 102.426683 47.600163 
L 101.868912 36.380776 
L 101.591439 26.88 
M 286.577571 240.28 
L 301.473333 237.1351 
L 303.043921 240.28 
M 301.473333 152.633403 
L 301.679842 154.013971 
L 301.473333 155.638589 
L 299.575515 154.013971 
L 301.473333 152.633403 
z
M 301.473333 217.672502 
L 303.00747 219.557363 
L 301.473333 223.209012 
L 295.17515 219.557363 
L 301.473333 217.672502 
z
" clip-path="url(#p79e1c92ae1)" style="fill: none; stroke-dasharray: 1.85,0.8; stroke-dashoffset: 0; stroke: #000000; stroke-width: 0.5"/>
    <path d="M 308.201079 26.88 
L 304.813499 36.380776 
L 301.473333 42.197705 
L 277.61 41.236296 
L 253.746667 40.770816 
L 229.883333 43.74712 
L 215.811471 47.600163 
L 229.883333 58.252686 
L 234.50857 60.808896 
L 253.746667 68.073795 
L 267.346652 76.198006 
L 253.746667 81.171135 
L 229.883333 92.372579 
L 219.893064 91.394449 
M 197.528184 100.383931 
L 188.004397 113.137869 
L 190.198679 133.590571 
L 182.888993 154.013971 
L 182.156667 155.111889 
L 167.853015 173.39493 
L 166.379078 190.956403 
L 158.293333 200.197993 
L 152.836738 206.347113 
L 150.801045 219.557363 
L 143.777516 230.778089 
L 154.670077 240.28 
M 106.214356 240.28 
L 105.810506 230.778089 
L 106.546201 219.557363 
L 106.792128 206.347113 
L 104.947966 190.956403 
L 105.189666 173.39493 
L 103.987503 154.013971 
L 104.075927 146.667417 
M 103.70074 120.522428 
L 103.399788 113.137869 
L 103.596643 93.757994 
L 103.645934 76.198006 
L 103.463501 60.808896 
L 103.76587 47.600163 
L 103.160593 36.380776 
L 102.859487 26.88 
M 301.473333 68.968993 
L 303.28233 76.198006 
L 301.473333 82.086925 
L 286.972435 76.198006 
L 301.473333 68.968993 
z
" clip-path="url(#p79e1c92ae1)" style="fill: none; stroke-dasharray: 1.85,0.8; stroke-dashoffset: 0; stroke: #000000; stroke-width: 0.5"/>
    <path d="M 306.856158 26.88 
L 303.202698 36.380776 
L 301.473333 39.39248 
L 277.61 37.273968 
L 253.746667 36.68081 
L 229.883333 38.937197 
L 206.02 45.263132 
L 199.015235 47.600163 
L 206.02 50.520336 
L 221.74028 60.808896 
L 206.02 73.92466 
L 202.861491 76.198006 
L 194.269822 84.378134 
M 177.801352 105.34672 
L 173.723768 113.137869 
L 167.730684 133.590571 
L 165.056679 154.013971 
L 158.293333 162.847877 
L 154.046164 173.39493 
L 156.174842 190.956403 
L 142.861023 206.347113 
L 139.717828 219.557363 
L 134.43 224.878408 
L 129.7555 230.778089 
L 134.168996 240.28 
M 107.745717 240.28 
L 107.310171 230.778089 
L 108.103608 219.557363 
L 108.368837 206.347113 
L 106.379932 190.956403 
L 106.640602 173.39493 
L 105.344085 154.013971 
L 105.438327 146.753882 
M 105.03108 120.437448 
L 104.710243 113.137869 
L 104.922548 93.757994 
L 104.975708 76.198006 
L 104.778956 60.808896 
L 105.105057 47.600163 
L 104.452274 36.380776 
L 104.127535 26.88 
M 301.473333 75.886233 
L 301.551352 76.198006 
L 301.473333 76.451984 
L 300.847937 76.198006 
L 301.473333 75.886233 
z
" clip-path="url(#p79e1c92ae1)" style="fill: none; stroke-dasharray: 1.85,0.8; stroke-dashoffset: 0; stroke: #000000; stroke-width: 0.5"/>
    <path d="M 305.511238 26.88 
L 301.591896 36.380776 
L 301.473333 36.587254 
L 299.402486 36.380776 
L 277.61 32.602455 
L 253.746667 29.614397 
L 229.883333 34.077129 
L 220.167519 36.380776 
L 206.02 39.982974 
L 196.37383 43.201268 
M 181.817018 60.657912 
L 181.801667 60.808896 
L 182.156667 61.262446 
L 183.116287 60.808896 
L 206.02 57.118014 
L 211.659437 60.808896 
L 206.02 65.513998 
L 191.176007 76.198006 
L 182.156667 84.429169 
L 169.187833 93.757994 
L 160.070723 113.137869 
L 158.293333 117.438328 
L 154.210169 133.590571 
L 152.464896 154.013971 
L 144.583493 173.39493 
L 144.268173 190.956403 
L 134.43 203.918074 
L 127.696662 206.347113 
L 123.131589 219.557363 
L 120.91876 230.778089 
L 121.356397 240.28 
M 109.277079 240.28 
L 108.809835 230.778089 
L 109.661015 219.557363 
L 109.945546 206.347113 
L 107.811898 190.956403 
L 108.091539 173.39493 
L 106.700668 154.013971 
L 106.802373 146.710435 
M 106.367002 120.482391 
L 106.020697 113.137869 
L 106.248453 93.757994 
L 106.305481 76.198006 
L 106.094411 60.808896 
L 106.444244 47.600163 
L 105.743955 36.380776 
L 105.395583 26.88 
" clip-path="url(#p79e1c92ae1)" style="fill: none; stroke-dasharray: 1.85,0.8; stroke-dashoffset: 0; stroke: #000000; stroke-width: 0.5"/>
    <path d="M 190.688154 26.88 
L 182.156667 33.095764 
L 176.897675 36.380776 
L 170.990932 47.600163 
L 166.655727 60.808896 
L 177.032278 76.198006 
L 158.293333 89.523283 
L 153.454573 93.757994 
L 150.881735 113.137869 
L 145.859415 133.590571 
L 143.125495 154.013971 
L 135.120821 173.39493 
L 134.464112 178.334591 
M 118.102873 196.762969 
L 110.566667 200.249859 
L 109.243864 190.956403 
L 109.542475 173.39493 
L 108.05725 154.013971 
L 108.360949 133.590571 
L 107.331152 113.137869 
L 107.574358 93.757994 
L 107.635255 76.198006 
L 107.409866 60.808896 
L 107.783431 47.600163 
L 107.035635 36.380776 
L 106.66363 26.88 
M 240.042743 26.88 
L 229.883333 29.160173 
L 220.932344 26.88 
M 304.166317 26.88 
L 301.473333 33.375559 
L 291.17858 30.937688 
M 110.566667 227.516628 
L 112.082019 230.778089 
L 110.566667 235.725247 
L 110.309499 230.778089 
L 110.566667 227.516628 
z
" clip-path="url(#p79e1c92ae1)" style="fill: none; stroke-dasharray: 1.85,0.8; stroke-dashoffset: 0; stroke: #000000; stroke-width: 0.5"/>
    <path d="M 161.283628 26.88 
L 158.293333 29.672144 
L 152.497868 36.380776 
L 158.293333 44.873208 
L 159.045992 47.600163 
L 158.293333 49.229265 
L 147.205034 60.808896 
L 153.296276 76.198006 
L 135.205255 93.757994 
L 142.360868 113.137869 
L 137.508662 133.590571 
L 136.745411 137.856155 
M 124.328996 159.434722 
L 110.566667 168.41185 
L 109.413833 154.013971 
L 109.736824 133.590571 
L 108.641606 113.137869 
L 108.900263 93.757994 
L 108.965029 76.198006 
L 108.725321 60.808896 
L 109.122619 47.600163 
L 108.327316 36.380776 
L 107.931678 26.88 
M 302.821397 26.88 
L 301.473333 30.13157 
L 288.397063 26.88 
" clip-path="url(#p79e1c92ae1)" style="fill: none; stroke-dasharray: 1.85,0.8; stroke-dashoffset: 0; stroke: #000000; stroke-width: 0.5"/>
    <path d="M 139.789626 26.88 
L 134.43 30.742821 
L 126.172163 36.380776 
L 115.657238 47.600163 
L 121.361394 60.808896 
L 118.993126 76.198006 
L 115.613277 93.757994 
L 131.360132 113.137869 
L 122.734043 117.733685 
M 109.980737 111.110404 
L 110.226168 93.757994 
L 110.294802 76.198006 
L 110.040776 60.808896 
L 110.461806 47.600163 
L 109.618997 36.380776 
L 109.199726 26.88 
M 301.476476 26.88 
L 301.473333 26.88758 
L 301.44285 26.88 
" clip-path="url(#p79e1c92ae1)" style="fill: none; stroke-dasharray: 1.85,0.8; stroke-dashoffset: 0; stroke: #000000; stroke-width: 0.5"/>
    <path d="M 112.858631 26.88 
L 110.566667 29.031943 
L 110.467774 26.88 
" clip-path="url(#p79e1c92ae1)" style="fill: none; stroke-dasharray: 1.85,0.8; stroke-dashoffset: 0; stroke: #000000; stroke-width: 0.5"/>
    <path clip-path="url(#p79e1c92ae1)" style="fill: none; stroke-dasharray: 1.85,0.8; stroke-dashoffset: 0; stroke: #000000; stroke-width: 0.5"/>
   </g>
   <g id="patch_3">
    <path d="M 62.84 240.28 
L 62.84 26.88 
" style="fill: none; stroke: #000000; stroke-width: 0.8; stroke-linejoin: miter; stroke-linecap: square"/>
   </g>
   <g id="patch_4">
    <path d="M 349.2 240.28 
L 349.2 26.88 
" style="fill: none; stroke: #000000; stroke-width: 0.8; stroke-linejoin: miter; stroke-linecap: square"/>
   </g>
   <g id="patch_5">
    <path d="M 62.84 240.28 
L 349.2 240.28 
" style="fill: none; stroke: #000000; stroke-width: 0.8; stroke-linejoin: miter; stroke-linecap: square"/>
   </g>
   <g id="patch_6">
    <path d="M 62.84 26.88 
L 349.2 26.88 
" style="fill: none; stroke: #000000; stroke-width: 0.8; stroke-linejoin: miter; stroke-linecap: square"/>
   </g>
   <g id="text_11">
    <!-- Band 80 -->
    <g transform="translate(181.073125 20.88) scale(0.12 -0.12)">
     <defs>
      <path id="DejaVuSans-42" d="M 1259 2228 
L 1259 519 
L 2272 519 
Q 2781 519 3026 730 
Q 3272 941 3272 1375 
Q 3272 1813 3026 2020 
Q 2781 2228 2272 2228 
L 1259 2228 
z
M 1259 4147 
L 1259 2741 
L 2194 2741 
Q 2656 2741 2882 2914 
Q 3109 3088 3109 3444 
Q 3109 3797 2882 3972 
Q 2656 4147 2194 4147 
L 1259 4147 
z
M 628 4666 
L 2241 4666 
Q 2963 4666 3353 4366 
Q 3744 4066 3744 3513 
Q 3744 3084 3544 2831 
Q 3344 2578 2956 2516 
Q 3422 2416 3680 2098 
Q 3938 1781 3938 1306 
Q 3938 681 3513 340 
Q 3088 0 2303 0 
L 628 0 
L 628 4666 
z
" transform="scale(0.015625)"/>
      <path id="DejaVuSans-61" d="M 2194 1759 
Q 1497 1759 1228 1600 
Q 959 1441 959 1056 
Q 959 750 1161 570 
Q 1363 391 1709 391 
Q 2188 391 2477 730 
Q 2766 1069 2766 1631 
L 2766 1759 
L 2194 1759 
z
M 3341 1997 
L 3341 0 
L 2766 0 
L 2766 531 
Q 2569 213 2275 61 
Q 1981 -91 1556 -91 
Q 1019 -91 701 211 
Q 384 513 384 1019 
Q 384 1609 779 1909 
Q 1175 2209 1959 2209 
L 2766 2209 
L 2766 2266 
Q 2766 2663 2505 2880 
Q 2244 3097 1772 3097 
Q 1472 3097 1187 3025 
Q 903 2953 641 2809 
L 641 3341 
Q 956 3463 1253 3523 
Q 1550 3584 1831 3584 
Q 2591 3584 2966 3190 
Q 3341 2797 3341 1997 
z
" transform="scale(0.015625)"/>
      <path id="DejaVuSans-6e" d="M 3513 2113 
L 3513 0 
L 2938 0 
L 2938 2094 
Q 2938 2591 2744 2837 
Q 2550 3084 2163 3084 
Q 1697 3084 1428 2787 
Q 1159 2491 1159 1978 
L 1159 0 
L 581 0 
L 581 3500 
L 1159 3500 
L 1159 2956 
Q 1366 3272 1645 3428 
Q 1925 3584 2291 3584 
Q 2894 3584 3203 3211 
Q 3513 2838 3513 2113 
z
" transform="scale(0.015625)"/>
      <path id="DejaVuSans-64" d="M 2906 2969 
L 2906 4863 
L 3481 4863 
L 3481 0 
L 2906 0 
L 2906 525 
Q 2725 213 2448 61 
Q 2172 -91 1784 -91 
Q 1150 -91 751 415 
Q 353 922 353 1747 
Q 353 2572 751 3078 
Q 1150 3584 1784 3584 
Q 2172 3584 2448 3432 
Q 2725 3281 2906 2969 
z
M 947 1747 
Q 947 1113 1208 752 
Q 1469 391 1925 391 
Q 2381 391 2643 752 
Q 2906 1113 2906 1747 
Q 2906 2381 2643 2742 
Q 2381 3103 1925 3103 
Q 1469 3103 1208 2742 
Q 947 2381 947 1747 
z
" transform="scale(0.015625)"/>
      <path id="DejaVuSans-20" transform="scale(0.015625)"/>
      <path id="DejaVuSans-38" d="M 2034 2216 
Q 1584 2216 1326 1975 
Q 1069 1734 1069 1313 
Q 1069 891 1326 650 
Q 1584 409 2034 409 
Q 2484 409 2743 651 
Q 3003 894 3003 1313 
Q 3003 1734 2745 1975 
Q 2488 2216 2034 2216 
z
M 1403 2484 
Q 997 2584 770 2862 
Q 544 3141 544 3541 
Q 544 4100 942 4425 
Q 1341 4750 2034 4750 
Q 2731 4750 3128 4425 
Q 3525 4100 3525 3541 
Q 3525 3141 3298 2862 
Q 3072 2584 2669 2484 
Q 3125 2378 3379 2068 
Q 3634 1759 3634 1313 
Q 3634 634 3220 271 
Q 2806 -91 2034 -91 
Q 1263 -91 848 271 
Q 434 634 434 1313 
Q 434 1759 690 2068 
Q 947 2378 1403 2484 
z
M 1172 3481 
Q 1172 3119 1398 2916 
Q 1625 2713 2034 2713 
Q 2441 2713 2670 2916 
Q 2900 3119 2900 3481 
Q 2900 3844 2670 4047 
Q 2441 4250 2034 4250 
Q 1625 4250 1398 4047 
Q 1172 3844 1172 3481 
z
" transform="scale(0.015625)"/>
     </defs>
     <use xlink:href="#DejaVuSans-42"/>
     <use xlink:href="#DejaVuSans-61" transform="translate(68.603516 0)"/>
     <use xlink:href="#DejaVuSans-6e" transform="translate(129.882812 0)"/>
     <use xlink:href="#DejaVuSans-64" transform="translate(193.261719 0)"/>
     <use xlink:href="#DejaVuSans-20" transform="translate(256.738281 0)"/>
     <use xlink:href="#DejaVuSans-38" transform="translate(288.525391 0)"/>
     <use xlink:href="#DejaVuSans-30" transform="translate(352.148438 0)"/>
    </g>
   </g>
   <g id="text_12">
    <g clip-path="url(#p79e1c92ae1)">
     <!-- 57.0 -->
     <g transform="translate(321.134504 123.572669) rotate(-270.03755) scale(0.09 -0.09)">
      <defs>
       <path id="DejaVuSans-37" d="M 525 4666 
L 3525 4666 
L 3525 4397 
L 1831 0 
L 1172 0 
L 2766 4134 
L 525 4134 
L 525 4666 
z
" transform="scale(0.015625)"/>
       <path id="DejaVuSans-2e" d="M 684 794 
L 1344 794 
L 1344 0 
L 684 0 
L 684 794 
z
" transform="scale(0.015625)"/>
      </defs>
      <use xlink:href="#DejaVuSans-35"/>
      <use xlink:href="#DejaVuSans-37" transform="translate(63.623047 0)"/>
      <use xlink:href="#DejaVuSans-2e" transform="translate(127.246094 0)"/>
      <use xlink:href="#DejaVuSans-30" transform="translate(159.033203 0)"/>
     </g>
    </g>
   </g>
   <g id="text_13">
    <g clip-path="url(#p79e1c92ae1)">
     <!-- 57.0 -->
     <g transform="translate(85.231529 123.572987) rotate(-270.044859) scale(0.09 -0.09)">
      <use xlink:href="#DejaVuSans-35"/>
      <use xlink:href="#DejaVuSans-37" transform="translate(63.623047 0)"/>
      <use xlink:href="#DejaVuSans-2e" transform="translate(127.246094 0)"/>
      <use xlink:href="#DejaVuSans-30" transform="translate(159.033203 0)"/>
     </g>
    </g>
   </g>
   <g id="text_14">
    <g clip-path="url(#p79e1c92ae1)">
     <!-- 58.0 -->
     <g transform="translate(318.814938 123.574874) rotate(-270.088192) scale(0.09 -0.09)">
      <use xlink:href="#DejaVuSans-35"/>
      <use xlink:href="#DejaVuSans-38" transform="translate(63.623047 0)"/>
      <use xlink:href="#DejaVuSans-2e" transform="translate(127.246094 0)"/>
      <use xlink:href="#DejaVuSans-30" transform="translate(159.033203 0)"/>
     </g>
    </g>
   </g>
   <g id="text_15">
    <g clip-path="url(#p79e1c92ae1)">
     <!-- 58.0 -->
     <g transform="translate(86.596822 123.575625) rotate(-270.105398) scale(0.09 -0.09)">
      <use xlink:href="#DejaVuSans-35"/>
      <use xlink:href="#DejaVuSans-38" transform="translate(63.623047 0)"/>
      <use xlink:href="#DejaVuSans-2e" transform="translate(127.246094 0)"/>
      <use xlink:href="#DejaVuSans-30" transform="translate(159.033203 0)"/>
     </g>
    </g>
   </g>
   <g id="text_16">
    <g clip-path="url(#p79e1c92ae1)">
     <!-- 59.0 -->
     <g transform="translate(316.495388 123.577083) rotate(-270.138748) scale(0.09 -0.09)">
      <defs>
       <path id="DejaVuSans-39" d="M 703 97 
L 703 672 
Q 941 559 1184 500 
Q 1428 441 1663 441 
Q 2288 441 2617 861 
Q 2947 1281 2994 2138 
Q 2813 1869 2534 1725 
Q 2256 1581 1919 1581 
Q 1219 1581 811 2004 
Q 403 2428 403 3163 
Q 403 3881 828 4315 
Q 1253 4750 1959 4750 
Q 2769 4750 3195 4129 
Q 3622 3509 3622 2328 
Q 3622 1225 3098 567 
Q 2575 -91 1691 -91 
Q 1453 -91 1209 -44 
Q 966 3 703 97 
z
M 1959 2075 
Q 2384 2075 2632 2365 
Q 2881 2656 2881 3163 
Q 2881 3666 2632 3958 
Q 2384 4250 1959 4250 
Q 1534 4250 1286 3958 
Q 1038 3666 1038 3163 
Q 1038 2656 1286 2365 
Q 1534 2075 1959 2075 
z
" transform="scale(0.015625)"/>
      </defs>
      <use xlink:href="#DejaVuSans-35"/>
      <use xlink:href="#DejaVuSans-39" transform="translate(63.623047 0)"/>
      <use xlink:href="#DejaVuSans-2e" transform="translate(127.246094 0)"/>
      <use xlink:href="#DejaVuSans-30" transform="translate(159.033203 0)"/>
     </g>
    </g>
   </g>
   <g id="text_17">
    <g clip-path="url(#p79e1c92ae1)">
     <!-- 59.0 -->
     <g transform="translate(87.962118 123.578274) rotate(-270.165935) scale(0.09 -0.09)">
      <use xlink:href="#DejaVuSans-35"/>
      <use xlink:href="#DejaVuSans-39" transform="translate(63.623047 0)"/>
      <use xlink:href="#DejaVuSans-2e" transform="translate(127.246094 0)"/>
      <use xlink:href="#DejaVuSans-30" transform="translate(159.033203 0)"/>
     </g>
    </g>
   </g>
   <g id="text_18">
    <g clip-path="url(#p79e1c92ae1)">
     <!-- 60.0 -->
     <g transform="translate(314.175864 123.579294) rotate(-270.18917) scale(0.09 -0.09)">
      <defs>
       <path id="DejaVuSans-36" d="M 2113 2584 
Q 1688 2584 1439 2293 
Q 1191 2003 1191 1497 
Q 1191 994 1439 701 
Q 1688 409 2113 409 
Q 2538 409 2786 701 
Q 3034 994 3034 1497 
Q 3034 2003 2786 2293 
Q 2538 2584 2113 2584 
z
M 3366 4563 
L 3366 3988 
Q 3128 4100 2886 4159 
Q 2644 4219 2406 4219 
Q 1781 4219 1451 3797 
Q 1122 3375 1075 2522 
Q 1259 2794 1537 2939 
Q 1816 3084 2150 3084 
Q 2853 3084 3261 2657 
Q 3669 2231 3669 1497 
Q 3669 778 3244 343 
Q 2819 -91 2113 -91 
Q 1303 -91 875 529 
Q 447 1150 447 2328 
Q 447 3434 972 4092 
Q 1497 4750 2381 4750 
Q 2619 4750 2861 4703 
Q 3103 4656 3366 4563 
z
" transform="scale(0.015625)"/>
      </defs>
      <use xlink:href="#DejaVuSans-36"/>
      <use xlink:href="#DejaVuSans-30" transform="translate(63.623047 0)"/>
      <use xlink:href="#DejaVuSans-2e" transform="translate(127.246094 0)"/>
      <use xlink:href="#DejaVuSans-30" transform="translate(159.033203 0)"/>
     </g>
    </g>
   </g>
   <g id="text_19">
    <g clip-path="url(#p79e1c92ae1)">
     <!-- 60.0 -->
     <g transform="translate(89.327417 123.580934) rotate(-270.226468) scale(0.09 -0.09)">
      <use xlink:href="#DejaVuSans-36"/>
      <use xlink:href="#DejaVuSans-30" transform="translate(63.623047 0)"/>
      <use xlink:href="#DejaVuSans-2e" transform="translate(127.246094 0)"/>
      <use xlink:href="#DejaVuSans-30" transform="translate(159.033203 0)"/>
     </g>
    </g>
   </g>
   <g id="text_20">
    <g clip-path="url(#p79e1c92ae1)">
     <!-- 61.0 -->
     <g transform="translate(311.856374 123.581504) rotate(-270.239411) scale(0.09 -0.09)">
      <defs>
       <path id="DejaVuSans-31" d="M 794 531 
L 1825 531 
L 1825 4091 
L 703 3866 
L 703 4441 
L 1819 4666 
L 2450 4666 
L 2450 531 
L 3481 531 
L 3481 0 
L 794 0 
L 794 531 
z
" transform="scale(0.015625)"/>
      </defs>
      <use xlink:href="#DejaVuSans-36"/>
      <use xlink:href="#DejaVuSans-31" transform="translate(63.623047 0)"/>
      <use xlink:href="#DejaVuSans-2e" transform="translate(127.246094 0)"/>
      <use xlink:href="#DejaVuSans-30" transform="translate(159.033203 0)"/>
     </g>
    </g>
   </g>
   <g id="text_21">
    <g clip-path="url(#p79e1c92ae1)">
     <!-- 61.0 -->
     <g transform="translate(90.69272 123.583605) rotate(-270.286995) scale(0.09 -0.09)">
      <use xlink:href="#DejaVuSans-36"/>
      <use xlink:href="#DejaVuSans-31" transform="translate(63.623047 0)"/>
      <use xlink:href="#DejaVuSans-2e" transform="translate(127.246094 0)"/>
      <use xlink:href="#DejaVuSans-30" transform="translate(159.033203 0)"/>
     </g>
    </g>
   </g>
   <g id="text_22">
    <g clip-path="url(#p79e1c92ae1)">
     <!-- 62.0 -->
     <g transform="translate(309.536926 123.583712) rotate(-270.289421) scale(0.09 -0.09)">
      <use xlink:href="#DejaVuSans-36"/>
      <use xlink:href="#DejaVuSans-32" transform="translate(63.623047 0)"/>
      <use xlink:href="#DejaVuSans-2e" transform="translate(127.246094 0)"/>
      <use xlink:href="#DejaVuSans-30" transform="translate(159.033203 0)"/>
     </g>
    </g>
   </g>
   <g id="text_23">
    <g clip-path="url(#p79e1c92ae1)">
     <!-- 62.0 -->
     <g transform="translate(92.058027 123.586286) rotate(-270.347516) scale(0.09 -0.09)">
      <use xlink:href="#DejaVuSans-36"/>
      <use xlink:href="#DejaVuSans-32" transform="translate(63.623047 0)"/>
      <use xlink:href="#DejaVuSans-2e" transform="translate(127.246094 0)"/>
      <use xlink:href="#DejaVuSans-30" transform="translate(159.033203 0)"/>
     </g>
    </g>
   </g>
   <g id="text_24">
    <g clip-path="url(#p79e1c92ae1)">
     <!-- 63.0 -->
     <g transform="translate(307.217528 123.585915) rotate(-270.339154) scale(0.09 -0.09)">
      <defs>
       <path id="DejaVuSans-33" d="M 2597 2516 
Q 3050 2419 3304 2112 
Q 3559 1806 3559 1356 
Q 3559 666 3084 287 
Q 2609 -91 1734 -91 
Q 1441 -91 1130 -33 
Q 819 25 488 141 
L 488 750 
Q 750 597 1062 519 
Q 1375 441 1716 441 
Q 2309 441 2620 675 
Q 2931 909 2931 1356 
Q 2931 1769 2642 2001 
Q 2353 2234 1838 2234 
L 1294 2234 
L 1294 2753 
L 1863 2753 
Q 2328 2753 2575 2939 
Q 2822 3125 2822 3475 
Q 2822 3834 2567 4026 
Q 2313 4219 1838 4219 
Q 1578 4219 1281 4162 
Q 984 4106 628 3988 
L 628 4550 
Q 988 4650 1302 4700 
Q 1616 4750 1894 4750 
Q 2613 4750 3031 4423 
Q 3450 4097 3450 3541 
Q 3450 3153 3228 2886 
Q 3006 2619 2597 2516 
z
" transform="scale(0.015625)"/>
      </defs>
      <use xlink:href="#DejaVuSans-36"/>
      <use xlink:href="#DejaVuSans-33" transform="translate(63.623047 0)"/>
      <use xlink:href="#DejaVuSans-2e" transform="translate(127.246094 0)"/>
      <use xlink:href="#DejaVuSans-30" transform="translate(159.033203 0)"/>
     </g>
    </g>
   </g>
   <g id="text_25">
    <g clip-path="url(#p79e1c92ae1)">
     <!-- 63.0 -->
     <g transform="translate(93.423339 123.588979) rotate(-270.408027) scale(0.09 -0.09)">
      <use xlink:href="#DejaVuSans-36"/>
      <use xlink:href="#DejaVuSans-33" transform="translate(63.623047 0)"/>
      <use xlink:href="#DejaVuSans-2e" transform="translate(127.246094 0)"/>
      <use xlink:href="#DejaVuSans-30" transform="translate(159.033203 0)"/>
     </g>
    </g>
   </g>
   <g id="text_26">
    <g clip-path="url(#p79e1c92ae1)">
     <!-- 63.0 -->
     <g transform="translate(243.431175 210.135812) rotate(-348.22299) scale(0.09 -0.09)">
      <use xlink:href="#DejaVuSans-36"/>
      <use xlink:href="#DejaVuSans-33" transform="translate(63.623047 0)"/>
      <use xlink:href="#DejaVuSans-2e" transform="translate(127.246094 0)"/>
      <use xlink:href="#DejaVuSans-30" transform="translate(159.033203 0)"/>
     </g>
    </g>
   </g>
   <g id="text_27">
    <g clip-path="url(#p79e1c92ae1)">
     <!-- 64.0 -->
     <g transform="translate(292.613599 203.957152) rotate(-16.955729) scale(0.09 -0.09)">
      <use xlink:href="#DejaVuSans-36"/>
      <use xlink:href="#DejaVuSans-34" transform="translate(63.623047 0)"/>
      <use xlink:href="#DejaVuSans-2e" transform="translate(127.246094 0)"/>
      <use xlink:href="#DejaVuSans-30" transform="translate(159.033203 0)"/>
     </g>
    </g>
   </g>
   <g id="text_28">
    <g clip-path="url(#p79e1c92ae1)">
     <!-- 64.0 -->
     <g transform="translate(94.788655 123.591682) rotate(-270.468528) scale(0.09 -0.09)">
      <use xlink:href="#DejaVuSans-36"/>
      <use xlink:href="#DejaVuSans-34" transform="translate(63.623047 0)"/>
      <use xlink:href="#DejaVuSans-2e" transform="translate(127.246094 0)"/>
      <use xlink:href="#DejaVuSans-30" transform="translate(159.033203 0)"/>
     </g>
    </g>
   </g>
   <g id="text_29">
    <g clip-path="url(#p79e1c92ae1)">
     <!-- 65.0 -->
     <g transform="translate(243.508324 178.14661) rotate(-353.409843) scale(0.09 -0.09)">
      <use xlink:href="#DejaVuSans-36"/>
      <use xlink:href="#DejaVuSans-35" transform="translate(63.623047 0)"/>
      <use xlink:href="#DejaVuSans-2e" transform="translate(127.246094 0)"/>
      <use xlink:href="#DejaVuSans-30" transform="translate(159.033203 0)"/>
     </g>
    </g>
   </g>
   <g id="text_30">
    <g clip-path="url(#p79e1c92ae1)">
     <!-- 65.0 -->
     <g transform="translate(96.153976 123.594396) rotate(-270.529018) scale(0.09 -0.09)">
      <use xlink:href="#DejaVuSans-36"/>
      <use xlink:href="#DejaVuSans-35" transform="translate(63.623047 0)"/>
      <use xlink:href="#DejaVuSans-2e" transform="translate(127.246094 0)"/>
      <use xlink:href="#DejaVuSans-30" transform="translate(159.033203 0)"/>
     </g>
    </g>
   </g>
   <g id="text_31">
    <g clip-path="url(#p79e1c92ae1)">
     <!-- 66.0 -->
     <g transform="translate(303.200113 183.714617) rotate(-74.691221) scale(0.09 -0.09)">
      <use xlink:href="#DejaVuSans-36"/>
      <use xlink:href="#DejaVuSans-36" transform="translate(63.623047 0)"/>
      <use xlink:href="#DejaVuSans-2e" transform="translate(127.246094 0)"/>
      <use xlink:href="#DejaVuSans-30" transform="translate(159.033203 0)"/>
     </g>
    </g>
   </g>
   <g id="text_32">
    <g clip-path="url(#p79e1c92ae1)">
     <!-- 66.0 -->
     <g transform="translate(97.519302 123.59712) rotate(-270.589495) scale(0.09 -0.09)">
      <use xlink:href="#DejaVuSans-36"/>
      <use xlink:href="#DejaVuSans-36" transform="translate(63.623047 0)"/>
      <use xlink:href="#DejaVuSans-2e" transform="translate(127.246094 0)"/>
      <use xlink:href="#DejaVuSans-30" transform="translate(159.033203 0)"/>
     </g>
    </g>
   </g>
   <g id="text_33">
    <g clip-path="url(#p79e1c92ae1)">
     <!-- 66.0 -->
     <g transform="translate(245.182933 136.899371) rotate(-20.021479) scale(0.09 -0.09)">
      <use xlink:href="#DejaVuSans-36"/>
      <use xlink:href="#DejaVuSans-36" transform="translate(63.623047 0)"/>
      <use xlink:href="#DejaVuSans-2e" transform="translate(127.246094 0)"/>
      <use xlink:href="#DejaVuSans-30" transform="translate(159.033203 0)"/>
     </g>
    </g>
   </g>
   <g id="text_34">
    <g clip-path="url(#p79e1c92ae1)">
     <!-- 67.0 -->
     <g transform="translate(244.166608 96.139971) rotate(-7.945451) scale(0.09 -0.09)">
      <use xlink:href="#DejaVuSans-36"/>
      <use xlink:href="#DejaVuSans-37" transform="translate(63.623047 0)"/>
      <use xlink:href="#DejaVuSans-2e" transform="translate(127.246094 0)"/>
      <use xlink:href="#DejaVuSans-30" transform="translate(159.033203 0)"/>
     </g>
    </g>
   </g>
   <g id="text_35">
    <g clip-path="url(#p79e1c92ae1)">
     <!-- 67.0 -->
     <g transform="translate(98.884634 123.599855) rotate(-270.649957) scale(0.09 -0.09)">
      <use xlink:href="#DejaVuSans-36"/>
      <use xlink:href="#DejaVuSans-37" transform="translate(63.623047 0)"/>
      <use xlink:href="#DejaVuSans-2e" transform="translate(127.246094 0)"/>
      <use xlink:href="#DejaVuSans-30" transform="translate(159.033203 0)"/>
     </g>
    </g>
   </g>
   <g id="text_36">
    <g clip-path="url(#p79e1c92ae1)">
     <!-- 67.0 -->
     <g transform="translate(195.819723 236.575433) rotate(-354.912684) scale(0.09 -0.09)">
      <use xlink:href="#DejaVuSans-36"/>
      <use xlink:href="#DejaVuSans-37" transform="translate(63.623047 0)"/>
      <use xlink:href="#DejaVuSans-2e" transform="translate(127.246094 0)"/>
      <use xlink:href="#DejaVuSans-30" transform="translate(159.033203 0)"/>
     </g>
    </g>
   </g>
   <g id="text_37">
    <g clip-path="url(#p79e1c92ae1)">
     <!-- 67.0 -->
     <g transform="translate(291.235656 232.010887) rotate(-338.719751) scale(0.09 -0.09)">
      <use xlink:href="#DejaVuSans-36"/>
      <use xlink:href="#DejaVuSans-37" transform="translate(63.623047 0)"/>
      <use xlink:href="#DejaVuSans-2e" transform="translate(127.246094 0)"/>
      <use xlink:href="#DejaVuSans-30" transform="translate(159.033203 0)"/>
     </g>
    </g>
   </g>
   <g id="text_38">
    <g clip-path="url(#p79e1c92ae1)">
     <!-- 67.0 -->
     <g transform="translate(292.948178 177.310602) rotate(-20.403093) scale(0.09 -0.09)">
      <use xlink:href="#DejaVuSans-36"/>
      <use xlink:href="#DejaVuSans-37" transform="translate(63.623047 0)"/>
      <use xlink:href="#DejaVuSans-2e" transform="translate(127.246094 0)"/>
      <use xlink:href="#DejaVuSans-30" transform="translate(159.033203 0)"/>
     </g>
    </g>
   </g>
   <g id="text_39">
    <g clip-path="url(#p79e1c92ae1)">
     <!-- 68.0 -->
     <g transform="translate(294.102408 94.948756) rotate(-30.513918) scale(0.09 -0.09)">
      <use xlink:href="#DejaVuSans-36"/>
      <use xlink:href="#DejaVuSans-38" transform="translate(63.623047 0)"/>
      <use xlink:href="#DejaVuSans-2e" transform="translate(127.246094 0)"/>
      <use xlink:href="#DejaVuSans-30" transform="translate(159.033203 0)"/>
     </g>
    </g>
   </g>
   <g id="text_40">
    <g clip-path="url(#p79e1c92ae1)">
     <!-- 68.0 -->
     <g transform="translate(100.249971 123.602601) rotate(-270.710402) scale(0.09 -0.09)">
      <use xlink:href="#DejaVuSans-36"/>
      <use xlink:href="#DejaVuSans-38" transform="translate(63.623047 0)"/>
      <use xlink:href="#DejaVuSans-2e" transform="translate(127.246094 0)"/>
      <use xlink:href="#DejaVuSans-30" transform="translate(159.033203 0)"/>
     </g>
    </g>
   </g>
   <g id="text_41">
    <g clip-path="url(#p79e1c92ae1)">
     <!-- 69.0 -->
     <g transform="translate(197.739177 96.199474) rotate(-22.739083) scale(0.09 -0.09)">
      <use xlink:href="#DejaVuSans-36"/>
      <use xlink:href="#DejaVuSans-39" transform="translate(63.623047 0)"/>
      <use xlink:href="#DejaVuSans-2e" transform="translate(127.246094 0)"/>
      <use xlink:href="#DejaVuSans-30" transform="translate(159.033203 0)"/>
     </g>
    </g>
   </g>
   <g id="text_42">
    <g clip-path="url(#p79e1c92ae1)">
     <!-- 69.0 -->
     <g transform="translate(101.615314 123.605356) rotate(-270.77083) scale(0.09 -0.09)">
      <use xlink:href="#DejaVuSans-36"/>
      <use xlink:href="#DejaVuSans-39" transform="translate(63.623047 0)"/>
      <use xlink:href="#DejaVuSans-2e" transform="translate(127.246094 0)"/>
      <use xlink:href="#DejaVuSans-30" transform="translate(159.033203 0)"/>
     </g>
    </g>
   </g>
   <g id="text_43">
    <g clip-path="url(#p79e1c92ae1)">
     <!-- 70.0 -->
     <g transform="translate(180.416497 103.273557) rotate(-53.271091) scale(0.09 -0.09)">
      <use xlink:href="#DejaVuSans-37"/>
      <use xlink:href="#DejaVuSans-30" transform="translate(63.623047 0)"/>
      <use xlink:href="#DejaVuSans-2e" transform="translate(127.246094 0)"/>
      <use xlink:href="#DejaVuSans-30" transform="translate(159.033203 0)"/>
     </g>
    </g>
   </g>
   <g id="text_44">
    <g clip-path="url(#p79e1c92ae1)">
     <!-- 70.0 -->
     <g transform="translate(102.980664 123.608122) rotate(-270.831239) scale(0.09 -0.09)">
      <use xlink:href="#DejaVuSans-37"/>
      <use xlink:href="#DejaVuSans-30" transform="translate(63.623047 0)"/>
      <use xlink:href="#DejaVuSans-2e" transform="translate(127.246094 0)"/>
      <use xlink:href="#DejaVuSans-30" transform="translate(159.033203 0)"/>
     </g>
    </g>
   </g>
   <g id="text_45">
    <g clip-path="url(#p79e1c92ae1)">
     <!-- 71.0 -->
     <g transform="translate(178.969142 57.020927) rotate(-51.949835) scale(0.09 -0.09)">
      <use xlink:href="#DejaVuSans-37"/>
      <use xlink:href="#DejaVuSans-31" transform="translate(63.623047 0)"/>
      <use xlink:href="#DejaVuSans-2e" transform="translate(127.246094 0)"/>
      <use xlink:href="#DejaVuSans-30" transform="translate(159.033203 0)"/>
     </g>
    </g>
   </g>
   <g id="text_46">
    <g clip-path="url(#p79e1c92ae1)">
     <!-- 71.0 -->
     <g transform="translate(104.34602 123.610898) rotate(-270.891628) scale(0.09 -0.09)">
      <use xlink:href="#DejaVuSans-37"/>
      <use xlink:href="#DejaVuSans-31" transform="translate(63.623047 0)"/>
      <use xlink:href="#DejaVuSans-2e" transform="translate(127.246094 0)"/>
      <use xlink:href="#DejaVuSans-30" transform="translate(159.033203 0)"/>
     </g>
    </g>
   </g>
   <g id="text_47">
    <g clip-path="url(#p79e1c92ae1)">
     <!-- 72.0 -->
     <g transform="translate(126.137545 200.239335) rotate(-50.141806) scale(0.09 -0.09)">
      <use xlink:href="#DejaVuSans-37"/>
      <use xlink:href="#DejaVuSans-32" transform="translate(63.623047 0)"/>
      <use xlink:href="#DejaVuSans-2e" transform="translate(127.246094 0)"/>
      <use xlink:href="#DejaVuSans-30" transform="translate(159.033203 0)"/>
     </g>
    </g>
   </g>
   <g id="text_48">
    <g clip-path="url(#p79e1c92ae1)">
     <!-- 72.0 -->
     <g transform="translate(267.289535 27.940104) rotate(-347.27574) scale(0.09 -0.09)">
      <use xlink:href="#DejaVuSans-37"/>
      <use xlink:href="#DejaVuSans-32" transform="translate(63.623047 0)"/>
      <use xlink:href="#DejaVuSans-2e" transform="translate(127.246094 0)"/>
      <use xlink:href="#DejaVuSans-30" transform="translate(159.033203 0)"/>
     </g>
    </g>
   </g>
   <g id="text_49">
    <g clip-path="url(#p79e1c92ae1)">
     <!-- 73.0 -->
     <g transform="translate(132.104644 160.853702) rotate(-63.060721) scale(0.09 -0.09)">
      <use xlink:href="#DejaVuSans-37"/>
      <use xlink:href="#DejaVuSans-33" transform="translate(63.623047 0)"/>
      <use xlink:href="#DejaVuSans-2e" transform="translate(127.246094 0)"/>
      <use xlink:href="#DejaVuSans-30" transform="translate(159.033203 0)"/>
     </g>
    </g>
   </g>
   <g id="text_50">
    <g clip-path="url(#p79e1c92ae1)">
     <!-- 74.0 -->
     <g transform="translate(100.585806 121.581673) rotate(-331.292642) scale(0.09 -0.09)">
      <use xlink:href="#DejaVuSans-37"/>
      <use xlink:href="#DejaVuSans-34" transform="translate(63.623047 0)"/>
      <use xlink:href="#DejaVuSans-2e" transform="translate(127.246094 0)"/>
      <use xlink:href="#DejaVuSans-30" transform="translate(159.033203 0)"/>
     </g>
    </g>
   </g>
  </g>
 </g>
 <defs>
  <clipPath id="p79e1c92ae1">
   <rect x="62.84" y="26.88" width="286.36" height="213.4"/>
  </clipPath>
 </defs>
</svg>
