<?xml version="1.0" encoding="utf-8" standalone="no"?>
<!DOCTYPE svg PUBLIC "-//W3C//DTD SVG 1.1//EN"
  "http://www.w3.org/Graphics/SVG/1.1/DTD/svg11.dtd">
<svg xmlns:xlink="http://www.w3.org/1999/xlink" width="360pt" height="288pt" viewBox="0 0 360 288" xmlns="http://www.w3.org/2000/svg" version="1.1">
 <metadata>
  <rdf:RDF xmlns:dc="http://purl.org/dc/elements/1.1/" xmlns:cc="http://creativecommons.org/ns#" xmlns:rdf="http://www.w3.org/1999/02/22-rdf-syntax-ns#">
   <cc:Work>
    <dc:type rdf:resource="http://purl.org/dc/dcmitype/StillImage"/>
    <dc:date>2025-10-03T13:42:45.880922</dc:date>
    <dc:format>image/svg+xml</dc:format>
    <dc:creator>
     <cc:Agent>
      <dc:title>Matplotlib v3.10.6, https://matplotlib.org/</dc:title>
     </cc:Agent>
    </dc:creator>
   </cc:Work>
  </rdf:RDF>
 </metadata>
 <defs>
  <style type="text/css">*{stroke-linejoin: round; stroke-linecap: butt}</style>
 </defs>
 <g id="figure_1">
  <g id="patch_1">
   <path d="M 0 288 
L 360 288 
L 360 0 
L 0 0 
z
" style="fill: #ffffff"/>
  </g>
  <g id="axes_1">
   <g id="patch_2">
    <path d="M 62.84 240.28 
L 349.2 240.28 
L 349.2 26.88 
L 62.84 26.88 
z
" style="fill: #ffffff"/>
   </g>
   <g id="QuadContourSet_1">
    <path d="M 86.703333 26.88 
L 87.701321 26.88 
L 87.836815 36.380776 
L 87.552392 47.600163 
L 87.576635 60.808896 
L 87.582927 76.198006 
L 87.661147 93.757994 
L 87.734042 113.137869 
L 87.530906 133.590571 
L 87.632373 154.013971 
L 87.82162 173.39493 
L 87.777709 190.956403 
L 87.676172 206.347113 
L 87.681147 219.557363 
L 87.692966 230.778089 
L 87.622477 240.28 
L 86.703333 240.28 
L 62.84 240.28 
L 62.84 230.778089 
L 62.84 219.557363 
L 62.84 206.347113 
L 62.84 190.956403 
L 62.84 173.39493 
L 62.84 154.013971 
L 62.84 133.590571 
L 62.84 113.137869 
L 62.84 93.757994 
L 62.84 76.198006 
L 62.84 60.808896 
L 62.84 47.600163 
L 62.84 36.380776 
L 62.84 26.88 
z
M 325.336667 26.88 
L 349.2 26.88 
L 349.2 36.380776 
L 349.2 47.600163 
L 349.2 60.808896 
L 349.2 76.198006 
L 349.2 93.757994 
L 349.2 113.137869 
L 349.2 133.590571 
L 349.2 154.013971 
L 349.2 173.39493 
L 349.2 190.956403 
L 349.2 206.347113 
L 349.2 219.557363 
L 349.2 230.778089 
L 349.2 240.28 
L 325.336667 240.28 
L 324.041227 240.28 
L 324.257474 230.778089 
L 323.957832 219.557363 
L 323.862146 206.347113 
L 324.153826 190.956403 
L 324.091343 173.39493 
L 324.122331 154.013971 
L 324.288075 133.590571 
L 324.250113 113.137869 
L 324.290307 93.757994 
L 324.308601 76.198006 
L 324.308453 60.808896 
L 324.299076 47.600163 
L 324.364033 36.380776 
L 324.451997 26.88 
z
" clip-path="url(#p11e2adf88c)" style="fill: #460a5d"/>
    <path d="M 90.282685 36.380776 
L 89.384524 47.600163 
L 89.461079 60.808896 
L 89.480947 76.198006 
L 89.727953 93.757994 
L 89.958145 113.137869 
L 89.316673 133.590571 
L 89.637091 154.013971 
L 90.2347 173.39493 
L 90.096037 190.956403 
L 89.775402 206.347113 
L 89.791112 219.557363 
L 89.828432 230.778089 
L 89.60584 240.28 
L 87.622477 240.28 
L 87.692966 230.778089 
L 87.681147 219.557363 
L 87.676172 206.347113 
L 87.777709 190.956403 
L 87.82162 173.39493 
L 87.632373 154.013971 
L 87.530906 133.590571 
L 87.734042 113.137869 
L 87.661147 93.757994 
L 87.582927 76.198006 
L 87.576635 60.808896 
L 87.552392 47.600163 
L 87.836815 36.380776 
L 87.701321 26.88 
L 89.854816 26.88 
z
M 324.364033 36.380776 
L 324.299076 47.600163 
L 324.308453 60.808896 
L 324.308601 76.198006 
L 324.290307 93.757994 
L 324.250113 113.137869 
L 324.288075 133.590571 
L 324.122331 154.013971 
L 324.091343 173.39493 
L 324.153826 190.956403 
L 323.862146 206.347113 
L 323.957832 219.557363 
L 324.257474 230.778089 
L 324.041227 240.28 
L 321.245878 240.28 
L 321.928749 230.778089 
L 320.98253 219.557363 
L 320.680368 206.347113 
L 321.601446 190.956403 
L 321.404136 173.39493 
L 321.501993 154.013971 
L 322.025384 133.590571 
L 321.905507 113.137869 
L 322.032432 93.757994 
L 322.090202 76.198006 
L 322.089735 60.808896 
L 322.060122 47.600163 
L 322.265247 36.380776 
L 322.543023 26.88 
L 324.451997 26.88 
z
" clip-path="url(#p11e2adf88c)" style="fill: #481b6d"/>
    <path d="M 92.728555 36.380776 
L 91.216656 47.600163 
L 91.345523 60.808896 
L 91.378967 76.198006 
L 91.794759 93.757994 
L 92.182248 113.137869 
L 91.10244 133.590571 
L 91.641809 154.013971 
L 92.647781 173.39493 
L 92.414365 190.956403 
L 91.874631 206.347113 
L 91.901077 219.557363 
L 91.963898 230.778089 
L 91.589204 240.28 
L 89.60584 240.28 
L 89.828432 230.778089 
L 89.791112 219.557363 
L 89.775402 206.347113 
L 90.096037 190.956403 
L 90.2347 173.39493 
L 89.637091 154.013971 
L 89.316673 133.590571 
L 89.958145 113.137869 
L 89.727953 93.757994 
L 89.480947 76.198006 
L 89.461079 60.808896 
L 89.384524 47.600163 
L 90.282685 36.380776 
L 89.854816 26.88 
L 92.008312 26.88 
z
M 322.265247 36.380776 
L 322.060122 47.600163 
L 322.089735 60.808896 
L 322.090202 76.198006 
L 322.032432 93.757994 
L 321.905507 113.137869 
L 322.025384 133.590571 
L 321.501993 154.013971 
L 321.404136 173.39493 
L 321.601446 190.956403 
L 320.680368 206.347113 
L 320.98253 219.557363 
L 321.928749 230.778089 
L 321.245878 240.28 
L 318.450529 240.28 
L 319.600025 230.778089 
L 318.007228 219.557363 
L 317.49859 206.347113 
L 319.049067 190.956403 
L 318.71693 173.39493 
L 318.881654 154.013971 
L 319.762693 133.590571 
L 319.560901 113.137869 
L 319.774558 93.757994 
L 319.871802 76.198006 
L 319.871017 60.808896 
L 319.821168 47.600163 
L 320.166461 36.380776 
L 320.634048 26.88 
L 322.543023 26.88 
z
" clip-path="url(#p11e2adf88c)" style="fill: #472a7a"/>
    <path d="M 95.174425 36.380776 
L 93.048788 47.600163 
L 93.229967 60.808896 
L 93.276987 76.198006 
L 93.861565 93.757994 
L 94.406351 113.137869 
L 92.888207 133.590571 
L 93.646527 154.013971 
L 95.060862 173.39493 
L 94.732694 190.956403 
L 93.973861 206.347113 
L 94.011041 219.557363 
L 94.099364 230.778089 
L 93.572567 240.28 
L 91.589204 240.28 
L 91.963898 230.778089 
L 91.901077 219.557363 
L 91.874631 206.347113 
L 92.414365 190.956403 
L 92.647781 173.39493 
L 91.641809 154.013971 
L 91.10244 133.590571 
L 92.182248 113.137869 
L 91.794759 93.757994 
L 91.378967 76.198006 
L 91.345523 60.808896 
L 91.216656 47.600163 
L 92.728555 36.380776 
L 92.008312 26.88 
L 94.161807 26.88 
z
M 320.166461 36.380776 
L 319.821168 47.600163 
L 319.871017 60.808896 
L 319.871802 76.198006 
L 319.774558 93.757994 
L 319.560901 113.137869 
L 319.762693 133.590571 
L 318.881654 154.013971 
L 318.71693 173.39493 
L 319.049067 190.956403 
L 317.49859 206.347113 
L 318.007228 219.557363 
L 319.600025 230.778089 
L 318.450529 240.28 
L 315.65518 240.28 
L 317.271301 230.778089 
L 315.031927 219.557363 
L 314.316812 206.347113 
L 316.496687 190.956403 
L 316.029723 173.39493 
L 316.261315 154.013971 
L 317.500003 133.590571 
L 317.216295 113.137869 
L 317.516683 93.757994 
L 317.653403 76.198006 
L 317.652299 60.808896 
L 317.582215 47.600163 
L 318.067675 36.380776 
L 318.725074 26.88 
L 320.634048 26.88 
z
" clip-path="url(#p11e2adf88c)" style="fill: #443983"/>
    <path d="M 97.620295 36.380776 
L 94.88092 47.600163 
L 95.114411 60.808896 
L 95.175007 76.198006 
L 95.928372 93.757994 
L 96.630454 113.137869 
L 94.673974 133.590571 
L 95.651244 154.013971 
L 97.473943 173.39493 
L 97.051022 190.956403 
L 96.07309 206.347113 
L 96.121006 219.557363 
L 96.23483 230.778089 
L 95.55593 240.28 
L 93.572567 240.28 
L 94.099364 230.778089 
L 94.011041 219.557363 
L 93.973861 206.347113 
L 94.732694 190.956403 
L 95.060862 173.39493 
L 93.646527 154.013971 
L 92.888207 133.590571 
L 94.406351 113.137869 
L 93.861565 93.757994 
L 93.276987 76.198006 
L 93.229967 60.808896 
L 93.048788 47.600163 
L 95.174425 36.380776 
L 94.161807 26.88 
L 96.315302 26.88 
z
M 318.067675 36.380776 
L 317.582215 47.600163 
L 317.652299 60.808896 
L 317.653403 76.198006 
L 317.516683 93.757994 
L 317.216295 113.137869 
L 317.500003 133.590571 
L 316.261315 154.013971 
L 316.029723 173.39493 
L 316.496687 190.956403 
L 314.316812 206.347113 
L 315.031927 219.557363 
L 317.271301 230.778089 
L 315.65518 240.28 
L 312.859831 240.28 
L 314.942577 230.778089 
L 312.056625 219.557363 
L 311.135035 206.347113 
L 313.944308 190.956403 
L 313.342516 173.39493 
L 313.640976 154.013971 
L 315.237312 133.590571 
L 314.871689 113.137869 
L 315.258808 93.757994 
L 315.435003 76.198006 
L 315.433581 60.808896 
L 315.343261 47.600163 
L 315.96889 36.380776 
L 316.8161 26.88 
L 318.725074 26.88 
z
" clip-path="url(#p11e2adf88c)" style="fill: #3f4788"/>
    <path d="M 100.066165 36.380776 
L 96.713052 47.600163 
L 96.998855 60.808896 
L 97.073027 76.198006 
L 97.995178 93.757994 
L 98.854557 113.137869 
L 96.459741 133.590571 
L 97.655962 154.013971 
L 99.887023 173.39493 
L 99.36935 190.956403 
L 98.172319 206.347113 
L 98.230971 219.557363 
L 98.370296 230.778089 
L 97.539294 240.28 
L 95.55593 240.28 
L 96.23483 230.778089 
L 96.121006 219.557363 
L 96.07309 206.347113 
L 97.051022 190.956403 
L 97.473943 173.39493 
L 95.651244 154.013971 
L 94.673974 133.590571 
L 96.630454 113.137869 
L 95.928372 93.757994 
L 95.175007 76.198006 
L 95.114411 60.808896 
L 94.88092 47.600163 
L 97.620295 36.380776 
L 96.315302 26.88 
L 98.468798 26.88 
z
M 315.96889 36.380776 
L 315.343261 47.600163 
L 315.433581 60.808896 
L 315.435003 76.198006 
L 315.258808 93.757994 
L 314.871689 113.137869 
L 315.237312 133.590571 
L 313.640976 154.013971 
L 313.342516 173.39493 
L 313.944308 190.956403 
L 311.135035 206.347113 
L 312.056625 219.557363 
L 314.942577 230.778089 
L 312.859831 240.28 
L 310.064482 240.28 
L 312.613853 230.778089 
L 309.081323 219.557363 
L 307.953257 206.347113 
L 311.391928 190.956403 
L 310.655309 173.39493 
L 311.020637 154.013971 
L 312.974621 133.590571 
L 312.527083 113.137869 
L 313.000933 93.757994 
L 313.216604 76.198006 
L 313.214863 60.808896 
L 313.104308 47.600163 
L 313.870104 36.380776 
L 314.907126 26.88 
L 316.8161 26.88 
z
" clip-path="url(#p11e2adf88c)" style="fill: #39558c"/>
    <path d="M 102.512035 36.380776 
L 98.545184 47.600163 
L 98.883299 60.808896 
L 98.971047 76.198006 
L 100.061984 93.757994 
L 101.07866 113.137869 
L 98.245508 133.590571 
L 99.66068 154.013971 
L 102.300104 173.39493 
L 101.687678 190.956403 
L 100.271549 206.347113 
L 100.340935 219.557363 
L 100.505762 230.778089 
L 99.522657 240.28 
L 97.539294 240.28 
L 98.370296 230.778089 
L 98.230971 219.557363 
L 98.172319 206.347113 
L 99.36935 190.956403 
L 99.887023 173.39493 
L 97.655962 154.013971 
L 96.459741 133.590571 
L 98.854557 113.137869 
L 97.995178 93.757994 
L 97.073027 76.198006 
L 96.998855 60.808896 
L 96.713052 47.600163 
L 100.066165 36.380776 
L 98.468798 26.88 
L 100.622293 26.88 
z
M 313.870104 36.380776 
L 313.104308 47.600163 
L 313.214863 60.808896 
L 313.216604 76.198006 
L 313.000933 93.757994 
L 312.527083 113.137869 
L 312.974621 133.590571 
L 311.020637 154.013971 
L 310.655309 173.39493 
L 311.391928 190.956403 
L 307.953257 206.347113 
L 309.081323 219.557363 
L 312.613853 230.778089 
L 310.064482 240.28 
L 307.269133 240.28 
L 310.285129 230.778089 
L 306.106021 219.557363 
L 304.771479 206.347113 
L 308.839549 190.956403 
L 307.968103 173.39493 
L 308.400298 154.013971 
L 310.71193 133.590571 
L 310.182477 113.137869 
L 310.743059 93.757994 
L 310.998205 76.198006 
L 310.996145 60.808896 
L 310.865354 47.600163 
L 311.771318 36.380776 
L 312.998152 26.88 
L 314.907126 26.88 
z
" clip-path="url(#p11e2adf88c)" style="fill: #33628d"/>
    <path d="M 104.957905 36.380776 
L 100.377316 47.600163 
L 100.767744 60.808896 
L 100.869067 76.198006 
L 102.12879 93.757994 
L 103.302763 113.137869 
L 100.031275 133.590571 
L 101.665398 154.013971 
L 104.713185 173.39493 
L 104.006007 190.956403 
L 102.370778 206.347113 
L 102.4509 219.557363 
L 102.641228 230.778089 
L 101.50602 240.28 
L 99.522657 240.28 
L 100.505762 230.778089 
L 100.340935 219.557363 
L 100.271549 206.347113 
L 101.687678 190.956403 
L 102.300104 173.39493 
L 99.66068 154.013971 
L 98.245508 133.590571 
L 101.07866 113.137869 
L 100.061984 93.757994 
L 98.971047 76.198006 
L 98.883299 60.808896 
L 98.545184 47.600163 
L 102.512035 36.380776 
L 100.622293 26.88 
L 102.775789 26.88 
z
M 311.771318 36.380776 
L 310.865354 47.600163 
L 310.996145 60.808896 
L 310.998205 76.198006 
L 310.743059 93.757994 
L 310.182477 113.137869 
L 310.71193 133.590571 
L 308.400298 154.013971 
L 307.968103 173.39493 
L 308.839549 190.956403 
L 304.771479 206.347113 
L 306.106021 219.557363 
L 310.285129 230.778089 
L 307.269133 240.28 
L 304.473784 240.28 
L 307.956405 230.778089 
L 303.130719 219.557363 
L 301.589701 206.347113 
L 306.287169 190.956403 
L 305.280896 173.39493 
L 305.779959 154.013971 
L 308.449239 133.590571 
L 307.837871 113.137869 
L 308.485184 93.757994 
L 308.779805 76.198006 
L 308.777427 60.808896 
L 308.6264 47.600163 
L 309.672532 36.380776 
L 311.089177 26.88 
L 312.998152 26.88 
z
" clip-path="url(#p11e2adf88c)" style="fill: #2e6e8e"/>
    <path d="M 107.403775 36.380776 
L 102.209448 47.600163 
L 102.652188 60.808896 
L 102.767087 76.198006 
L 104.195596 93.757994 
L 105.526865 113.137869 
L 101.817042 133.590571 
L 103.670116 154.013971 
L 107.126266 173.39493 
L 106.324335 190.956403 
L 104.470007 206.347113 
L 104.560864 219.557363 
L 104.776694 230.778089 
L 103.489384 240.28 
L 101.50602 240.28 
L 102.641228 230.778089 
L 102.4509 219.557363 
L 102.370778 206.347113 
L 104.006007 190.956403 
L 104.713185 173.39493 
L 101.665398 154.013971 
L 100.031275 133.590571 
L 103.302763 113.137869 
L 102.12879 93.757994 
L 100.869067 76.198006 
L 100.767744 60.808896 
L 100.377316 47.600163 
L 104.957905 36.380776 
L 102.775789 26.88 
L 104.929284 26.88 
z
M 309.672532 36.380776 
L 308.6264 47.600163 
L 308.777427 60.808896 
L 308.779805 76.198006 
L 308.485184 93.757994 
L 307.837871 113.137869 
L 308.449239 133.590571 
L 305.779959 154.013971 
L 305.280896 173.39493 
L 306.287169 190.956403 
L 301.589701 206.347113 
L 303.130719 219.557363 
L 307.956405 230.778089 
L 304.473784 240.28 
L 301.678435 240.28 
L 305.627681 230.778089 
L 301.473333 221.789263 
L 298.866929 219.557363 
L 296.648791 206.347113 
L 301.473333 198.329672 
L 303.73479 190.956403 
L 302.593689 173.39493 
L 303.159621 154.013971 
L 306.186548 133.590571 
L 305.493265 113.137869 
L 306.227309 93.757994 
L 306.561406 76.198006 
L 306.558709 60.808896 
L 306.387447 47.600163 
L 307.573746 36.380776 
L 309.180203 26.88 
L 311.089177 26.88 
z
" clip-path="url(#p11e2adf88c)" style="fill: #29798e"/>
    <path d="M 109.849645 36.380776 
L 104.04158 47.600163 
L 104.536632 60.808896 
L 104.665107 76.198006 
L 106.262403 93.757994 
L 107.750968 113.137869 
L 103.60281 133.590571 
L 105.674833 154.013971 
L 109.539346 173.39493 
L 108.642663 190.956403 
L 106.569237 206.347113 
L 106.670829 219.557363 
L 106.91216 230.778089 
L 105.472747 240.28 
L 103.489384 240.28 
L 104.776694 230.778089 
L 104.560864 219.557363 
L 104.470007 206.347113 
L 106.324335 190.956403 
L 107.126266 173.39493 
L 103.670116 154.013971 
L 101.817042 133.590571 
L 105.526865 113.137869 
L 104.195596 93.757994 
L 102.767087 76.198006 
L 102.652188 60.808896 
L 102.209448 47.600163 
L 107.403775 36.380776 
L 104.929284 26.88 
L 107.082779 26.88 
z
M 307.573746 36.380776 
L 306.387447 47.600163 
L 306.558709 60.808896 
L 306.561406 76.198006 
L 306.227309 93.757994 
L 305.493265 113.137869 
L 306.186548 133.590571 
L 303.159621 154.013971 
L 302.593689 173.39493 
L 303.73479 190.956403 
L 301.473333 198.329672 
L 296.648791 206.347113 
L 298.866929 219.557363 
L 301.473333 221.789263 
L 305.627681 230.778089 
L 301.678435 240.28 
L 301.473333 240.28 
L 277.61 240.28 
L 262.757178 240.28 
L 277.61 238.259473 
L 301.473333 235.132798 
L 303.298957 230.778089 
L 301.473333 226.827959 
L 292.982758 219.557363 
L 291.641101 206.347113 
L 300.843733 190.956403 
L 298.599245 173.39493 
L 299.984436 154.013971 
L 301.473333 148.956456 
L 303.923858 133.590571 
L 303.148659 113.137869 
L 303.969434 93.757994 
L 304.343007 76.198006 
L 304.339991 60.808896 
L 304.148493 47.600163 
L 305.47496 36.380776 
L 307.271229 26.88 
L 309.180203 26.88 
z
M 229.883333 238.754896 
L 239.950797 240.28 
L 229.883333 240.28 
L 228.062047 240.28 
z
" clip-path="url(#p11e2adf88c)" style="fill: #25848e"/>
    <path d="M 110.566667 31.310996 
L 119.130496 36.380776 
L 110.566667 38.80721 
L 105.873712 47.600163 
L 106.421076 60.808896 
L 106.563127 76.198006 
L 108.329209 93.757994 
L 109.975071 113.137869 
L 105.388577 133.590571 
L 107.679551 154.013971 
L 110.566667 167.869842 
L 112.658881 173.39493 
L 111.484708 190.956403 
L 110.566667 193.393099 
L 108.668466 206.347113 
L 108.780794 219.557363 
L 109.047626 230.778089 
L 107.45611 240.28 
L 105.472747 240.28 
L 106.91216 230.778089 
L 106.670829 219.557363 
L 106.569237 206.347113 
L 108.642663 190.956403 
L 109.539346 173.39493 
L 105.674833 154.013971 
L 103.60281 133.590571 
L 107.750968 113.137869 
L 106.262403 93.757994 
L 104.665107 76.198006 
L 104.536632 60.808896 
L 104.04158 47.600163 
L 109.849645 36.380776 
L 107.082779 26.88 
L 109.236275 26.88 
z
M 305.47496 36.380776 
L 304.148493 47.600163 
L 304.339991 60.808896 
L 304.343007 76.198006 
L 303.969434 93.757994 
L 303.148659 113.137869 
L 303.923858 133.590571 
L 301.473333 148.956456 
L 299.984436 154.013971 
L 298.599245 173.39493 
L 300.843733 190.956403 
L 291.641101 206.347113 
L 292.982758 219.557363 
L 301.473333 226.827959 
L 303.298957 230.778089 
L 301.473333 235.132798 
L 277.61 238.259473 
L 262.757178 240.28 
L 253.746667 240.28 
L 239.950797 240.28 
L 229.883333 238.754896 
L 228.062047 240.28 
L 219.669337 240.28 
L 229.883333 231.727028 
L 252.344001 230.778089 
L 253.746667 230.731984 
L 253.991031 230.778089 
L 277.61 234.137547 
L 296.473185 230.778089 
L 287.098587 219.557363 
L 286.633411 206.347113 
L 295.320007 190.956403 
L 293.670078 173.39493 
L 295.807562 154.013971 
L 301.473333 134.768371 
L 301.661167 133.590571 
L 301.473333 128.982724 
L 299.964732 113.137869 
L 301.473333 98.988019 
L 301.71156 93.757994 
L 302.124607 76.198006 
L 302.121273 60.808896 
L 301.90954 47.600163 
L 303.376174 36.380776 
L 305.362255 26.88 
L 307.271229 26.88 
z
M 182.156667 237.691643 
L 185.06079 240.28 
L 182.156667 240.28 
L 180.110375 240.28 
z
" clip-path="url(#p11e2adf88c)" style="fill: #21918c"/>
    <path d="M 110.566667 26.88 
L 134.43 26.88 
L 158.293333 26.88 
L 182.156667 26.88 
L 184.029452 26.88 
L 182.156667 28.085539 
L 158.293333 27.133011 
L 134.43 33.223782 
L 131.246087 36.380776 
L 110.566667 42.239983 
L 107.705844 47.600163 
L 108.30552 60.808896 
L 108.461147 76.198006 
L 110.396015 93.757994 
L 110.566667 95.717587 
L 114.094713 113.137869 
L 110.566667 118.838102 
L 107.174344 133.590571 
L 109.684269 154.013971 
L 110.566667 158.248782 
L 116.302137 173.39493 
L 116.882086 190.956403 
L 111.32916 206.347113 
L 112.570065 219.557363 
L 114.072763 230.778089 
L 110.566667 233.978648 
L 109.439473 240.28 
L 107.45611 240.28 
L 109.047626 230.778089 
L 108.780794 219.557363 
L 108.668466 206.347113 
L 110.566667 193.393099 
L 111.484708 190.956403 
L 112.658881 173.39493 
L 110.566667 167.869842 
L 107.679551 154.013971 
L 105.388577 133.590571 
L 109.975071 113.137869 
L 108.329209 93.757994 
L 106.563127 76.198006 
L 106.421076 60.808896 
L 105.873712 47.600163 
L 110.566667 38.80721 
L 119.130496 36.380776 
L 110.566667 31.310996 
L 109.236275 26.88 
z
M 229.883333 33.324558 
L 230.047274 36.380776 
L 229.883333 36.499488 
L 229.719777 36.380776 
z
M 301.473333 35.596192 
L 303.453281 26.88 
L 305.362255 26.88 
L 303.376174 36.380776 
L 301.90954 47.600163 
L 302.121273 60.808896 
L 302.124607 76.198006 
L 301.71156 93.757994 
L 301.473333 98.988019 
L 299.964732 113.137869 
L 301.473333 128.982724 
L 301.661167 133.590571 
L 301.473333 134.768371 
L 295.807562 154.013971 
L 293.670078 173.39493 
L 295.320007 190.956403 
L 286.633411 206.347113 
L 287.098587 219.557363 
L 296.473185 230.778089 
L 277.61 234.137547 
L 253.991031 230.778089 
L 253.746667 230.731984 
L 252.344001 230.778089 
L 229.883333 231.727028 
L 219.669337 240.28 
L 211.276628 240.28 
L 215.796999 230.778089 
L 229.883333 225.951414 
L 253.746667 225.264334 
L 277.61 228.175595 
L 281.214416 219.557363 
L 281.625721 206.347113 
L 289.796282 190.956403 
L 288.740911 173.39493 
L 291.630688 154.013971 
L 297.716377 133.590571 
L 294.679833 113.137869 
L 297.858802 93.757994 
L 298.079597 76.198006 
L 295.151105 60.808896 
L 295.241997 47.600163 
L 289.519376 36.380776 
z
M 182.156667 228.230677 
L 191.671274 230.778089 
L 197.948197 240.28 
L 185.06079 240.28 
L 182.156667 237.691643 
L 180.110375 240.28 
L 171.029703 240.28 
L 178.793894 230.778089 
z
" clip-path="url(#p11e2adf88c)" style="fill: #1e9c89"/>
    <path d="M 134.43 33.223782 
L 158.293333 27.133011 
L 182.156667 28.085539 
L 184.029452 26.88 
L 197.908007 26.88 
L 183.03967 36.380776 
L 186.732251 47.600163 
L 182.156667 50.997144 
L 174.748572 47.600163 
L 177.522809 36.380776 
L 158.293333 34.265184 
L 151.446477 36.380776 
L 134.43 40.831961 
L 110.566667 45.672757 
L 109.537976 47.600163 
L 110.189964 60.808896 
L 110.359167 76.198006 
L 110.566667 78.067709 
L 113.756657 93.757994 
L 118.901269 113.137869 
L 110.566667 126.604012 
L 108.960111 133.590571 
L 110.566667 146.179816 
L 113.8284 154.013971 
L 119.945394 173.39493 
L 122.279465 190.956403 
L 119.291442 206.347113 
L 125.612979 219.557363 
L 126.21883 230.778089 
L 134.43 236.294785 
L 147.510478 240.28 
L 134.43 240.28 
L 110.566667 240.28 
L 109.439473 240.28 
L 110.566667 233.978648 
L 114.072763 230.778089 
L 112.570065 219.557363 
L 111.32916 206.347113 
L 116.882086 190.956403 
L 116.302137 173.39493 
L 110.566667 158.248782 
L 109.684269 154.013971 
L 107.174344 133.590571 
L 110.566667 118.838102 
L 114.094713 113.137869 
L 110.566667 95.717587 
L 110.396015 93.757994 
L 108.461147 76.198006 
L 108.30552 60.808896 
L 107.705844 47.600163 
L 110.566667 42.239983 
L 131.246087 36.380776 
z
M 229.883333 26.88 
L 240.825033 26.88 
L 238.352553 36.380776 
L 229.883333 42.513492 
L 221.433962 36.380776 
L 215.060321 26.88 
z
M 229.719777 36.380776 
L 229.883333 36.499488 
L 230.047274 36.380776 
L 229.883333 33.324558 
z
M 277.61 26.88 
L 299.976794 26.88 
L 301.473333 27.19244 
L 301.544306 26.88 
L 303.453281 26.88 
L 301.473333 35.596192 
L 289.519376 36.380776 
L 295.241997 47.600163 
L 295.151105 60.808896 
L 298.079597 76.198006 
L 297.858802 93.757994 
L 294.679833 113.137869 
L 297.716377 133.590571 
L 291.630688 154.013971 
L 288.740911 173.39493 
L 289.796282 190.956403 
L 281.625721 206.347113 
L 281.214416 219.557363 
L 277.61 228.175595 
L 253.746667 225.264334 
L 229.883333 225.951414 
L 215.796999 230.778089 
L 211.276628 240.28 
L 206.02 240.28 
L 197.948197 240.28 
L 191.671274 230.778089 
L 182.156667 228.230677 
L 178.793894 230.778089 
L 171.029703 240.28 
L 161.949031 240.28 
L 170.346768 230.778089 
L 182.156667 221.831701 
L 206.02 225.511173 
L 229.883333 220.371282 
L 253.746667 219.796683 
L 256.168939 219.557363 
L 274.711193 206.347113 
L 277.61 204.176053 
L 284.272556 190.956403 
L 283.811743 173.39493 
L 287.453815 154.013971 
L 293.61931 133.590571 
L 289.394934 113.137869 
L 293.817921 93.757994 
L 293.275474 76.198006 
L 286.220986 60.808896 
L 287.502878 47.600163 
L 277.61 41.037308 
L 269.769546 36.380776 
L 269.752091 26.88 
z
" clip-path="url(#p11e2adf88c)" style="fill: #22a785"/>
    <path d="M 158.293333 34.265184 
L 177.522809 36.380776 
L 174.748572 47.600163 
L 182.156667 50.997144 
L 186.732251 47.600163 
L 183.03967 36.380776 
L 197.908007 26.88 
L 206.02 26.88 
L 215.060321 26.88 
L 221.433962 36.380776 
L 229.883333 42.513492 
L 238.352553 36.380776 
L 240.825033 26.88 
L 252.241948 26.88 
L 246.657832 36.380776 
L 232.251785 47.600163 
L 229.883333 48.53008 
L 228.088664 47.600163 
L 213.148146 36.380776 
L 206.02 29.974243 
L 195.392806 36.380776 
L 193.392129 47.600163 
L 182.156667 55.941535 
L 163.965905 47.600163 
L 158.293333 42.799403 
L 134.43 46.86988 
L 129.271161 47.600163 
L 118.307677 60.808896 
L 115.221136 76.198006 
L 117.233743 93.757994 
L 123.707826 113.137869 
L 111.065758 133.590571 
L 119.654595 154.013971 
L 123.588651 173.39493 
L 127.676843 190.956403 
L 127.253724 206.347113 
L 134.43 216.064203 
L 140.019951 219.557363 
L 144.725592 230.778089 
L 158.293333 234.738294 
L 161.899642 230.778089 
L 173.128325 219.557363 
L 182.156667 211.950015 
L 206.02 211.376204 
L 229.883333 209.82829 
L 253.746667 210.461942 
L 260.07734 206.347113 
L 277.61 193.216038 
L 278.748831 190.956403 
L 278.882576 173.39493 
L 283.276941 154.013971 
L 289.522243 133.590571 
L 284.110035 113.137869 
L 289.77704 93.757994 
L 288.471351 76.198006 
L 277.61 61.048364 
L 277.172742 60.808896 
L 277.61 59.305748 
L 279.76376 47.600163 
L 277.61 46.171376 
L 261.125042 36.380776 
L 255.610491 26.88 
L 269.752091 26.88 
L 269.769546 36.380776 
L 277.61 41.037308 
L 287.502878 47.600163 
L 286.220986 60.808896 
L 293.275474 76.198006 
L 293.817921 93.757994 
L 289.394934 113.137869 
L 293.61931 133.590571 
L 287.453815 154.013971 
L 283.811743 173.39493 
L 284.272556 190.956403 
L 277.61 204.176053 
L 274.711193 206.347113 
L 256.168939 219.557363 
L 253.746667 219.796683 
L 229.883333 220.371282 
L 206.02 225.511173 
L 182.156667 221.831701 
L 170.346768 230.778089 
L 161.949031 240.28 
L 158.293333 240.28 
L 147.510478 240.28 
L 134.43 236.294785 
L 126.21883 230.778089 
L 125.612979 219.557363 
L 119.291442 206.347113 
L 122.279465 190.956403 
L 119.945394 173.39493 
L 113.8284 154.013971 
L 110.566667 146.179816 
L 108.960111 133.590571 
L 110.566667 126.604012 
L 118.901269 113.137869 
L 113.756657 93.757994 
L 110.566667 78.067709 
L 110.359167 76.198006 
L 110.189964 60.808896 
L 109.537976 47.600163 
L 110.566667 45.672757 
L 134.43 40.831961 
L 151.446477 36.380776 
z
M 301.473333 26.88 
L 301.544306 26.88 
L 301.473333 27.19244 
L 299.976794 26.88 
z
M 206.02 107.256814 
L 210.989215 113.137869 
L 206.02 122.639183 
L 197.560483 113.137869 
z
" clip-path="url(#p11e2adf88c)" style="fill: #2db27d"/>
    <path d="M 206.02 29.974243 
L 213.148146 36.380776 
L 228.088664 47.600163 
L 229.883333 48.53008 
L 232.251785 47.600163 
L 246.657832 36.380776 
L 252.241948 26.88 
L 253.746667 26.88 
L 255.610491 26.88 
L 261.125042 36.380776 
L 277.61 46.171376 
L 279.76376 47.600163 
L 277.61 59.305748 
L 277.172742 60.808896 
L 277.61 61.048364 
L 288.471351 76.198006 
L 289.77704 93.757994 
L 284.110035 113.137869 
L 289.522243 133.590571 
L 283.276941 154.013971 
L 278.882576 173.39493 
L 278.748831 190.956403 
L 277.61 193.216038 
L 260.07734 206.347113 
L 253.746667 210.461942 
L 229.883333 209.82829 
L 206.02 211.376204 
L 182.156667 211.950015 
L 173.128325 219.557363 
L 161.899642 230.778089 
L 158.293333 234.738294 
L 144.725592 230.778089 
L 140.019951 219.557363 
L 134.43 216.064203 
L 127.253724 206.347113 
L 127.676843 190.956403 
L 123.588651 173.39493 
L 119.654595 154.013971 
L 111.065758 133.590571 
L 123.707826 113.137869 
L 117.233743 93.757994 
L 115.221136 76.198006 
L 118.307677 60.808896 
L 129.271161 47.600163 
L 134.43 46.86988 
L 158.293333 42.799403 
L 163.965905 47.600163 
L 182.156667 55.941535 
L 193.392129 47.600163 
L 195.392806 36.380776 
z
M 200.052007 47.600163 
L 182.828551 60.808896 
L 198.331399 76.198006 
L 182.156667 79.299481 
L 178.256645 76.198006 
L 181.963319 60.808896 
L 158.293333 50.229076 
L 134.43 55.113383 
L 127.982747 60.808896 
L 120.446908 76.198006 
L 120.710829 93.757994 
L 128.514382 113.137869 
L 116.038998 133.590571 
L 125.480789 154.013971 
L 127.231907 173.39493 
L 133.074222 190.956403 
L 134.43 202.00508 
L 135.867352 206.347113 
L 157.272937 219.557363 
L 158.293333 220.607051 
L 159.121728 219.557363 
L 176.088054 206.347113 
L 182.156667 199.812797 
L 206.02 200.474852 
L 229.883333 200.639844 
L 250.719855 190.956403 
L 253.746667 189.24132 
L 269.989762 173.39493 
L 277.61 160.307616 
L 279.100067 154.013971 
L 285.425176 133.590571 
L 278.825137 113.137869 
L 285.736159 93.757994 
L 283.667228 76.198006 
L 277.61 67.749256 
L 264.937199 60.808896 
L 262.248157 47.600163 
L 253.746667 39.391134 
L 247.611822 47.600163 
L 229.883333 54.560841 
L 216.449757 47.600163 
L 206.02 37.894094 
z
M 206.02 96.7778 
L 219.843489 113.137869 
L 208.990509 133.590571 
L 207.899943 154.013971 
L 206.02 157.158345 
L 204.124987 154.013971 
L 202.076827 133.590571 
L 182.4871 113.137869 
z
M 197.560483 113.137869 
L 206.02 122.639183 
L 210.989215 113.137869 
L 206.02 107.256814 
z
" clip-path="url(#p11e2adf88c)" style="fill: #3fbc73"/>
    <path d="M 206.02 37.894094 
L 216.449757 47.600163 
L 229.883333 54.560841 
L 247.611822 47.600163 
L 253.746667 39.391134 
L 262.248157 47.600163 
L 264.937199 60.808896 
L 277.61 67.749256 
L 283.667228 76.198006 
L 285.736159 93.757994 
L 278.825137 113.137869 
L 285.425176 133.590571 
L 279.100067 154.013971 
L 277.61 160.307616 
L 269.989762 173.39493 
L 253.746667 189.24132 
L 250.719855 190.956403 
L 229.883333 200.639844 
L 206.02 200.474852 
L 182.156667 199.812797 
L 176.088054 206.347113 
L 159.121728 219.557363 
L 158.293333 220.607051 
L 157.272937 219.557363 
L 135.867352 206.347113 
L 134.43 202.00508 
L 133.074222 190.956403 
L 127.231907 173.39493 
L 125.480789 154.013971 
L 116.038998 133.590571 
L 128.514382 113.137869 
L 120.710829 93.757994 
L 120.446908 76.198006 
L 127.982747 60.808896 
L 134.43 55.113383 
L 158.293333 50.229076 
L 181.963319 60.808896 
L 178.256645 76.198006 
L 182.156667 79.299481 
L 198.331399 76.198006 
L 182.828551 60.808896 
L 200.052007 47.600163 
z
M 140.845986 60.808896 
L 134.43 63.363939 
L 125.672679 76.198006 
L 124.187916 93.757994 
L 133.320938 113.137869 
L 121.012238 133.590571 
L 131.306984 154.013971 
L 130.875164 173.39493 
L 134.43 183.331074 
L 141.461145 190.956403 
L 150.427799 206.347113 
L 158.293333 211.165406 
L 164.534531 206.347113 
L 178.852695 190.956403 
L 182.156667 188.847716 
L 201.108928 190.956403 
L 206.02 191.617593 
L 229.883333 192.420599 
L 233.033944 190.956403 
L 253.746667 179.219947 
L 259.71751 173.39493 
L 271.925092 154.013971 
L 277.61 145.542327 
L 281.328109 133.590571 
L 277.61 122.526453 
L 265.068138 113.137869 
L 277.61 104.758629 
L 281.695277 93.757994 
L 278.863105 76.198006 
L 277.61 74.450149 
L 253.746667 62.054456 
L 236.963591 60.808896 
L 229.883333 60.591602 
L 228.157775 60.808896 
L 216.868983 76.198006 
L 215.260821 93.757994 
L 228.697764 113.137869 
L 217.402564 133.590571 
L 216.388976 154.013971 
L 206.02 171.357015 
L 195.567906 154.013971 
L 190.910324 133.590571 
L 182.156667 124.491076 
L 173.693644 113.137869 
L 182.156667 101.23569 
L 193.212713 93.757994 
L 182.156667 88.254947 
L 166.995385 76.198006 
L 169.552705 60.808896 
L 158.293333 55.776273 
z
M 182.4871 113.137869 
L 202.076827 133.590571 
L 204.124987 154.013971 
L 206.02 157.158345 
L 207.899943 154.013971 
L 208.990509 133.590571 
L 219.843489 113.137869 
L 206.02 96.7778 
z
" clip-path="url(#p11e2adf88c)" style="fill: #56c667"/>
    <path d="M 158.293333 55.776273 
L 169.552705 60.808896 
L 166.995385 76.198006 
L 182.156667 88.254947 
L 193.212713 93.757994 
L 182.156667 101.23569 
L 173.693644 113.137869 
L 182.156667 124.491076 
L 190.910324 133.590571 
L 195.567906 154.013971 
L 206.02 171.357015 
L 216.388976 154.013971 
L 217.402564 133.590571 
L 228.697764 113.137869 
L 215.260821 93.757994 
L 216.868983 76.198006 
L 228.157775 60.808896 
L 229.883333 60.591602 
L 236.963591 60.808896 
L 253.746667 62.054456 
L 277.61 74.450149 
L 278.863105 76.198006 
L 281.695277 93.757994 
L 277.61 104.758629 
L 265.068138 113.137869 
L 277.61 122.526453 
L 281.328109 133.590571 
L 277.61 145.542327 
L 271.925092 154.013971 
L 259.71751 173.39493 
L 253.746667 179.219947 
L 233.033944 190.956403 
L 229.883333 192.420599 
L 206.02 191.617593 
L 201.108928 190.956403 
L 182.156667 188.847716 
L 178.852695 190.956403 
L 164.534531 206.347113 
L 158.293333 211.165406 
L 150.427799 206.347113 
L 141.461145 190.956403 
L 134.43 183.331074 
L 130.875164 173.39493 
L 131.306984 154.013971 
L 121.012238 133.590571 
L 133.320938 113.137869 
L 124.187916 93.757994 
L 125.672679 76.198006 
L 134.43 63.363939 
L 140.845986 60.808896 
z
M 130.898451 76.198006 
L 127.665002 93.757994 
L 134.43 107.646535 
L 146.280286 113.137869 
L 134.43 119.514782 
L 125.985478 133.590571 
L 134.43 149.630988 
L 137.900013 154.013971 
L 134.637976 173.39493 
L 150.850929 190.956403 
L 158.293333 200.696662 
L 167.38372 190.956403 
L 182.156667 181.527894 
L 195.632376 173.39493 
L 187.010825 154.013971 
L 182.156667 139.224174 
L 180.791382 133.590571 
L 165.040939 113.137869 
L 178.78372 93.757994 
L 158.293333 77.751269 
L 152.288005 76.198006 
L 134.43 71.022435 
z
M 229.855913 76.198006 
L 228.242722 93.757994 
L 229.883333 96.225721 
L 253.746667 105.440474 
L 277.61 93.877542 
L 277.654396 93.757994 
L 277.61 93.500807 
L 253.746667 77.273276 
L 231.443606 76.198006 
L 229.883333 76.164373 
z
M 225.81462 133.590571 
L 224.878009 154.013971 
L 229.883333 163.742334 
L 253.746667 167.895304 
L 263.087411 154.013971 
L 275.886255 133.590571 
L 253.746667 117.314558 
L 229.883333 126.261598 
z
" clip-path="url(#p11e2adf88c)" style="fill: #73d056"/>
    <path d="M 134.43 71.022435 
L 152.288005 76.198006 
L 158.293333 77.751269 
L 178.78372 93.757994 
L 165.040939 113.137869 
L 180.791382 133.590571 
L 182.156667 139.224174 
L 187.010825 154.013971 
L 195.632376 173.39493 
L 182.156667 181.527894 
L 167.38372 190.956403 
L 158.293333 200.696662 
L 150.850929 190.956403 
L 134.637976 173.39493 
L 137.900013 154.013971 
L 134.43 149.630988 
L 125.985478 133.590571 
L 134.43 119.514782 
L 146.280286 113.137869 
L 134.43 107.646535 
L 127.665002 93.757994 
L 130.898451 76.198006 
z
M 131.142088 93.757994 
L 134.43 100.508078 
L 158.293333 110.406354 
L 170.034402 93.757994 
L 158.293333 84.58608 
L 134.43 80.681424 
z
M 130.958718 133.590571 
L 134.43 140.184291 
L 145.378974 154.013971 
L 143.207343 173.39493 
L 158.293333 189.105584 
L 182.156667 174.208072 
L 183.503982 173.39493 
L 182.156667 169.435924 
L 177.374785 154.013971 
L 174.472924 133.590571 
L 158.293333 114.757205 
L 134.43 127.804449 
z
M 229.883333 76.164373 
L 231.443606 76.198006 
L 253.746667 77.273276 
L 277.61 93.500807 
L 277.654396 93.757994 
L 277.61 93.877542 
L 253.746667 105.440474 
L 229.883333 96.225721 
L 228.242722 93.757994 
L 229.855913 76.198006 
z
M 229.883333 126.261598 
L 253.746667 117.314558 
L 275.886255 133.590571 
L 263.087411 154.013971 
L 253.746667 167.895304 
L 229.883333 163.742334 
L 224.878009 154.013971 
L 225.81462 133.590571 
z
M 247.377153 133.590571 
L 250.839839 154.013971 
L 253.746667 154.761576 
L 254.24973 154.013971 
L 257.250141 133.590571 
L 253.746667 131.014976 
z
" clip-path="url(#p11e2adf88c)" style="fill: #90d743"/>
    <path d="M 134.43 80.681424 
L 158.293333 84.58608 
L 170.034402 93.757994 
L 158.293333 110.406354 
L 134.43 100.508078 
L 131.142088 93.757994 
z
M 137.705679 93.757994 
L 158.293333 98.000176 
L 161.285085 93.757994 
L 158.293333 91.420891 
z
M 134.43 127.804449 
L 158.293333 114.757205 
L 174.472924 133.590571 
L 177.374785 154.013971 
L 182.156667 169.435924 
L 183.503982 173.39493 
L 182.156667 174.208072 
L 158.293333 189.105584 
L 143.207343 173.39493 
L 145.378974 154.013971 
L 134.43 140.184291 
L 130.958718 133.590571 
z
M 138.29908 133.590571 
L 152.857936 154.013971 
L 151.776709 173.39493 
L 158.293333 180.181387 
L 169.295734 173.39493 
L 166.324338 154.013971 
L 168.154467 133.590571 
L 158.293333 122.112015 
z
M 253.746667 131.014976 
L 257.250141 133.590571 
L 254.24973 154.013971 
L 253.746667 154.761576 
L 250.839839 154.013971 
L 247.377153 133.590571 
z
" clip-path="url(#p11e2adf88c)" style="fill: #b0dd2f"/>
    <path d="M 158.293333 91.420891 
L 161.285085 93.757994 
L 158.293333 98.000176 
L 137.705679 93.757994 
z
M 158.293333 122.112015 
L 168.154467 133.590571 
L 166.324338 154.013971 
L 169.295734 173.39493 
L 158.293333 180.181387 
L 151.776709 173.39493 
L 152.857936 154.013971 
L 138.29908 133.590571 
z
M 151.110267 133.590571 
L 158.293333 147.322124 
L 161.83601 133.590571 
L 158.293333 129.466824 
z
" clip-path="url(#p11e2adf88c)" style="fill: #d0e11c"/>
    <path d="M 158.293333 129.466824 
L 161.83601 133.590571 
L 158.293333 147.322124 
L 151.110267 133.590571 
z
" clip-path="url(#p11e2adf88c)" style="fill: #efe51c"/>
   </g>
   <g id="matplotlib.axis_1">
    <g id="xtick_1">
     <g id="line2d_1">
      <defs>
       <path id="mee70431a1e" d="M 0 0 
L 0 3.5 
" style="stroke: #000000; stroke-width: 0.8"/>
      </defs>
      <g>
       <use xlink:href="#mee70431a1e" x="126.475556" y="240.28" style="stroke: #000000; stroke-width: 0.8"/>
      </g>
     </g>
     <g id="text_1">
      <!-- −50 -->
      <g transform="translate(113.812743 256.398125) scale(0.12 -0.12)">
       <defs>
        <path id="DejaVuSans-2212" d="M 678 2272 
L 4684 2272 
L 4684 1741 
L 678 1741 
L 678 2272 
z
" transform="scale(0.015625)"/>
        <path id="DejaVuSans-35" d="M 691 4666 
L 3169 4666 
L 3169 4134 
L 1269 4134 
L 1269 2991 
Q 1406 3038 1543 3061 
Q 1681 3084 1819 3084 
Q 2600 3084 3056 2656 
Q 3513 2228 3513 1497 
Q 3513 744 3044 326 
Q 2575 -91 1722 -91 
Q 1428 -91 1123 -41 
Q 819 9 494 109 
L 494 744 
Q 775 591 1075 516 
Q 1375 441 1709 441 
Q 2250 441 2565 725 
Q 2881 1009 2881 1497 
Q 2881 1984 2565 2268 
Q 2250 2553 1709 2553 
Q 1456 2553 1204 2497 
Q 953 2441 691 2322 
L 691 4666 
z
" transform="scale(0.015625)"/>
        <path id="DejaVuSans-30" d="M 2034 4250 
Q 1547 4250 1301 3770 
Q 1056 3291 1056 2328 
Q 1056 1369 1301 889 
Q 1547 409 2034 409 
Q 2525 409 2770 889 
Q 3016 1369 3016 2328 
Q 3016 3291 2770 3770 
Q 2525 4250 2034 4250 
z
M 2034 4750 
Q 2819 4750 3233 4129 
Q 3647 3509 3647 2328 
Q 3647 1150 3233 529 
Q 2819 -91 2034 -91 
Q 1250 -91 836 529 
Q 422 1150 422 2328 
Q 422 3509 836 4129 
Q 1250 4750 2034 4750 
z
" transform="scale(0.015625)"/>
       </defs>
       <use xlink:href="#DejaVuSans-2212"/>
       <use xlink:href="#DejaVuSans-35" transform="translate(83.789062 0)"/>
       <use xlink:href="#DejaVuSans-30" transform="translate(147.412109 0)"/>
      </g>
     </g>
    </g>
    <g id="xtick_2">
     <g id="line2d_2">
      <g>
       <use xlink:href="#mee70431a1e" x="206.02" y="240.28" style="stroke: #000000; stroke-width: 0.8"/>
      </g>
     </g>
     <g id="text_2">
      <!-- 0 -->
      <g transform="translate(202.2025 256.398125) scale(0.12 -0.12)">
       <use xlink:href="#DejaVuSans-30"/>
      </g>
     </g>
    </g>
    <g id="xtick_3">
     <g id="line2d_3">
      <g>
       <use xlink:href="#mee70431a1e" x="285.564444" y="240.28" style="stroke: #000000; stroke-width: 0.8"/>
      </g>
     </g>
     <g id="text_3">
      <!-- 50 -->
      <g transform="translate(277.929444 256.398125) scale(0.12 -0.12)">
       <use xlink:href="#DejaVuSans-35"/>
       <use xlink:href="#DejaVuSans-30" transform="translate(63.623047 0)"/>
      </g>
     </g>
    </g>
    <g id="text_4">
     <!-- $\Theta^{\circ}$ -->
     <g transform="translate(198.4 272.011875) scale(0.12 -0.12)">
      <defs>
       <path id="DejaVuSans-398" d="M 1416 2750 
L 3622 2750 
L 3622 2219 
L 1416 2219 
L 1416 2750 
z
M 2522 4238 
Q 1834 4238 1431 3725 
Q 1025 3213 1025 2328 
Q 1025 1447 1429 934 
Q 1834 422 2522 422 
Q 3209 422 3613 934 
Q 4013 1447 4013 2328 
Q 4013 3213 3613 3725 
Q 3209 4238 2522 4238 
z
M 2522 4750 
Q 3503 4750 4090 4092 
Q 4678 3434 4678 2328 
Q 4678 1225 4091 569 
Q 3503 -91 2522 -91 
Q 1538 -91 950 566 
Q 359 1222 359 2328 
Q 359 3434 950 4094 
Q 1538 4750 2522 4750 
z
" transform="scale(0.015625)"/>
       <path id="DejaVuSans-2218" d="M 2000 2619 
Q 1750 2619 1578 2445 
Q 1406 2272 1406 2022 
Q 1406 1775 1578 1605 
Q 1750 1435 2000 1435 
Q 2250 1435 2422 1605 
Q 2594 1775 2594 2022 
Q 2594 2269 2420 2444 
Q 2247 2619 2000 2619 
z
M 2000 3022 
Q 2200 3022 2384 2945 
Q 2569 2869 2703 2725 
Q 2847 2585 2919 2406 
Q 2991 2228 2991 2022 
Q 2991 1610 2702 1324 
Q 2413 1038 1994 1038 
Q 1572 1038 1290 1319 
Q 1009 1600 1009 2022 
Q 1009 2441 1296 2731 
Q 1584 3022 2000 3022 
z
" transform="scale(0.015625)"/>
      </defs>
      <use xlink:href="#DejaVuSans-398" transform="translate(0 0.78125)"/>
      <use xlink:href="#DejaVuSans-2218" transform="translate(79.667969 39.0625) scale(0.7)"/>
     </g>
    </g>
   </g>
   <g id="matplotlib.axis_2">
    <g id="ytick_1">
     <g id="line2d_4">
      <defs>
       <path id="m7fc32908ed" d="M 0 0 
L -3.5 0 
" style="stroke: #000000; stroke-width: 0.8"/>
      </defs>
      <g>
       <use xlink:href="#m7fc32908ed" x="62.84" y="219.984151" style="stroke: #000000; stroke-width: 0.8"/>
      </g>
     </g>
     <g id="text_5">
      <!-- −40 -->
      <g transform="translate(30.514375 224.543214) scale(0.12 -0.12)">
       <defs>
        <path id="DejaVuSans-34" d="M 2419 4116 
L 825 1625 
L 2419 1625 
L 2419 4116 
z
M 2253 4666 
L 3047 4666 
L 3047 1625 
L 3713 1625 
L 3713 1100 
L 3047 1100 
L 3047 0 
L 2419 0 
L 2419 1100 
L 313 1100 
L 313 1709 
L 2253 4666 
z
" transform="scale(0.015625)"/>
       </defs>
       <use xlink:href="#DejaVuSans-2212"/>
       <use xlink:href="#DejaVuSans-34" transform="translate(83.789062 0)"/>
       <use xlink:href="#DejaVuSans-30" transform="translate(147.412109 0)"/>
      </g>
     </g>
    </g>
    <g id="ytick_2">
     <g id="line2d_5">
      <g>
       <use xlink:href="#m7fc32908ed" x="62.84" y="176.783648" style="stroke: #000000; stroke-width: 0.8"/>
      </g>
     </g>
     <g id="text_6">
      <!-- −20 -->
      <g transform="translate(30.514375 181.342711) scale(0.12 -0.12)">
       <defs>
        <path id="DejaVuSans-32" d="M 1228 531 
L 3431 531 
L 3431 0 
L 469 0 
L 469 531 
Q 828 903 1448 1529 
Q 2069 2156 2228 2338 
Q 2531 2678 2651 2914 
Q 2772 3150 2772 3378 
Q 2772 3750 2511 3984 
Q 2250 4219 1831 4219 
Q 1534 4219 1204 4116 
Q 875 4013 500 3803 
L 500 4441 
Q 881 4594 1212 4672 
Q 1544 4750 1819 4750 
Q 2544 4750 2975 4387 
Q 3406 4025 3406 3419 
Q 3406 3131 3298 2873 
Q 3191 2616 2906 2266 
Q 2828 2175 2409 1742 
Q 1991 1309 1228 531 
z
" transform="scale(0.015625)"/>
       </defs>
       <use xlink:href="#DejaVuSans-2212"/>
       <use xlink:href="#DejaVuSans-32" transform="translate(83.789062 0)"/>
       <use xlink:href="#DejaVuSans-30" transform="translate(147.412109 0)"/>
      </g>
     </g>
    </g>
    <g id="ytick_3">
     <g id="line2d_6">
      <g>
       <use xlink:href="#m7fc32908ed" x="62.84" y="133.583145" style="stroke: #000000; stroke-width: 0.8"/>
      </g>
     </g>
     <g id="text_7">
      <!-- 0 -->
      <g transform="translate(48.205 138.142208) scale(0.12 -0.12)">
       <use xlink:href="#DejaVuSans-30"/>
      </g>
     </g>
    </g>
    <g id="ytick_4">
     <g id="line2d_7">
      <g>
       <use xlink:href="#m7fc32908ed" x="62.84" y="90.382642" style="stroke: #000000; stroke-width: 0.8"/>
      </g>
     </g>
     <g id="text_8">
      <!-- 20 -->
      <g transform="translate(40.57 94.941704) scale(0.12 -0.12)">
       <use xlink:href="#DejaVuSans-32"/>
       <use xlink:href="#DejaVuSans-30" transform="translate(63.623047 0)"/>
      </g>
     </g>
    </g>
    <g id="ytick_5">
     <g id="line2d_8">
      <g>
       <use xlink:href="#m7fc32908ed" x="62.84" y="47.182139" style="stroke: #000000; stroke-width: 0.8"/>
      </g>
     </g>
     <g id="text_9">
      <!-- 40 -->
      <g transform="translate(40.57 51.741201) scale(0.12 -0.12)">
       <use xlink:href="#DejaVuSans-34"/>
       <use xlink:href="#DejaVuSans-30" transform="translate(63.623047 0)"/>
      </g>
     </g>
    </g>
    <g id="text_10">
     <!-- $\phi^{\circ}$ -->
     <g transform="translate(23.784375 141.38) rotate(-90) scale(0.13 -0.13)">
      <defs>
       <path id="DejaVuSans-Oblique-3d5" d="M 2991 4863 
L 2738 3572 
Q 3363 3572 3684 3094 
Q 4016 2606 3850 1747 
Q 3681 888 3159 400 
Q 2653 -78 2028 -78 
L 1784 -1331 
L 1213 -1331 
L 1456 -78 
Q 834 -78 509 400 
Q 178 888 347 1747 
Q 513 2606 1034 3094 
Q 1544 3572 2166 3572 
L 2419 4863 
L 2991 4863 
z
M 2128 434 
Q 2481 434 2784 756 
Q 3116 1116 3244 1747 
Q 3369 2372 3169 2738 
Q 2991 3059 2638 3059 
L 2128 434 
z
M 1556 434 
L 2066 3059 
Q 1716 3059 1413 2738 
Q 1072 2372 953 1747 
Q 834 1116 1028 756 
Q 1203 434 1556 434 
z
" transform="scale(0.015625)"/>
      </defs>
      <use xlink:href="#DejaVuSans-Oblique-3d5" transform="translate(0 0.015625)"/>
      <use xlink:href="#DejaVuSans-2218" transform="translate(73.414505 38.296875) scale(0.7)"/>
     </g>
    </g>
   </g>
   <g id="QuadContourSet_2">
    <path clip-path="url(#p11e2adf88c)" style="fill: none; stroke-dasharray: 1.85,0.8; stroke-dashoffset: 0; stroke: #000000; stroke-width: 0.5"/>
    <path d="M 324.451997 26.88 
L 324.364033 36.380776 
L 324.299076 47.600163 
L 324.308453 60.808896 
L 324.308601 76.198006 
L 324.290307 93.757994 
L 324.250113 113.137869 
L 324.263882 120.556215 
M 324.182299 146.624568 
L 324.122331 154.013971 
L 324.091343 173.39493 
L 324.153826 190.956403 
L 323.862146 206.347113 
L 323.957832 219.557363 
L 324.257474 230.778089 
L 324.041227 240.28 
M 87.622477 240.28 
L 87.692966 230.778089 
L 87.681147 219.557363 
L 87.676172 206.347113 
L 87.777709 190.956403 
L 87.82162 173.39493 
L 87.632373 154.013971 
L 87.595662 146.624804 
M 87.660358 120.556761 
L 87.734042 113.137869 
L 87.661147 93.757994 
L 87.582927 76.198006 
L 87.576635 60.808896 
L 87.552392 47.600163 
L 87.836815 36.380776 
L 87.701321 26.88 
" clip-path="url(#p11e2adf88c)" style="fill: none; stroke-dasharray: 1.85,0.8; stroke-dashoffset: 0; stroke: #000000; stroke-width: 0.5"/>
    <path d="M 322.543023 26.88 
L 322.265247 36.380776 
L 322.060122 47.600163 
L 322.089735 60.808896 
L 322.090202 76.198006 
L 322.032432 93.757994 
L 321.905507 113.137869 
L 321.948989 120.556393 
M 321.691448 146.621185 
L 321.501993 154.013971 
L 321.404136 173.39493 
L 321.601446 190.956403 
L 320.680368 206.347113 
L 320.98253 219.557363 
L 321.928749 230.778089 
L 321.245878 240.28 
M 89.60584 240.28 
L 89.828432 230.778089 
L 89.791112 219.557363 
L 89.775402 206.347113 
L 90.096037 190.956403 
L 90.2347 173.39493 
L 89.637091 154.013971 
L 89.521144 146.623536 
M 89.725302 120.561827 
L 89.958145 113.137869 
L 89.727953 93.757994 
L 89.480947 76.198006 
L 89.461079 60.808896 
L 89.384524 47.600163 
L 90.282685 36.380776 
L 89.854816 26.88 
" clip-path="url(#p11e2adf88c)" style="fill: none; stroke-dasharray: 1.85,0.8; stroke-dashoffset: 0; stroke: #000000; stroke-width: 0.5"/>
    <path d="M 320.634048 26.88 
L 320.166461 36.380776 
L 319.821168 47.600163 
L 319.871017 60.808896 
L 319.871802 76.198006 
L 319.774558 93.757994 
L 319.560901 113.137869 
L 319.634098 120.556753 
M 319.200866 146.614298 
L 318.881654 154.013971 
L 318.71693 173.39493 
L 319.049067 190.956403 
L 317.49859 206.347113 
L 318.007228 219.557363 
L 319.600025 230.778089 
L 318.450529 240.28 
M 91.589204 240.28 
L 91.963898 230.778089 
L 91.901077 219.557363 
L 91.874631 206.347113 
L 92.414365 190.956403 
L 92.647781 173.39493 
L 91.641809 154.013971 
L 91.446564 146.620952 
M 91.789753 120.572135 
L 92.182248 113.137869 
L 91.794759 93.757994 
L 91.378967 76.198006 
L 91.345523 60.808896 
L 91.216656 47.600163 
L 92.728555 36.380776 
L 92.008312 26.88 
" clip-path="url(#p11e2adf88c)" style="fill: none; stroke-dasharray: 1.85,0.8; stroke-dashoffset: 0; stroke: #000000; stroke-width: 0.5"/>
    <path d="M 318.725074 26.88 
L 318.067675 36.380776 
L 317.582215 47.600163 
L 317.652299 60.808896 
L 317.653403 76.198006 
L 317.516683 93.757994 
L 317.216295 113.137869 
L 317.318613 120.513998 
M 316.708115 146.647157 
L 316.261315 154.013971 
L 316.029723 173.39493 
L 316.496687 190.956403 
L 314.316812 206.347113 
L 315.031927 219.557363 
L 317.271301 230.778089 
L 315.65518 240.28 
M 93.572567 240.28 
L 94.099364 230.778089 
L 94.011041 219.557363 
L 93.973861 206.347113 
L 94.732694 190.956403 
L 95.060862 173.39493 
L 93.646527 154.013971 
L 93.373486 146.660332 
M 93.856582 120.544446 
L 94.406351 113.137869 
L 93.861565 93.757994 
L 93.276987 76.198006 
L 93.229967 60.808896 
L 93.048788 47.600163 
L 95.174425 36.380776 
L 94.161807 26.88 
" clip-path="url(#p11e2adf88c)" style="fill: none; stroke-dasharray: 1.85,0.8; stroke-dashoffset: 0; stroke: #000000; stroke-width: 0.5"/>
    <path d="M 316.8161 26.88 
L 315.96889 36.380776 
L 315.343261 47.600163 
L 315.433581 60.808896 
L 315.435003 76.198006 
L 315.258808 93.757994 
L 314.871689 113.137869 
L 315.003562 120.514729 
M 314.217867 146.633275 
L 313.640976 154.013971 
L 313.342516 173.39493 
L 313.944308 190.956403 
L 311.135035 206.347113 
L 312.056625 219.557363 
L 314.942577 230.778089 
L 312.859831 240.28 
M 95.55593 240.28 
L 96.23483 230.778089 
L 96.121006 219.557363 
L 96.07309 206.347113 
L 97.051022 190.956403 
L 97.473943 173.39493 
L 95.651244 154.013971 
L 95.299119 146.655108 
M 95.919967 120.565173 
L 96.630454 113.137869 
L 95.928372 93.757994 
L 95.175007 76.198006 
L 95.114411 60.808896 
L 94.88092 47.600163 
L 97.620295 36.380776 
L 96.315302 26.88 
" clip-path="url(#p11e2adf88c)" style="fill: none; stroke-dasharray: 1.85,0.8; stroke-dashoffset: 0; stroke: #000000; stroke-width: 0.5"/>
    <path d="M 314.907126 26.88 
L 313.870104 36.380776 
L 313.104308 47.600163 
L 313.214863 60.808896 
L 313.216604 76.198006 
L 313.000933 93.757994 
L 312.527083 113.137869 
L 312.688521 120.515643 
M 311.728434 146.615952 
L 311.020637 154.013971 
L 310.655309 173.39493 
L 311.391928 190.956403 
L 307.953257 206.347113 
L 309.081323 219.557363 
L 312.613853 230.778089 
L 310.064482 240.28 
M 97.539294 240.28 
L 98.370296 230.778089 
L 98.230971 219.557363 
L 98.172319 206.347113 
L 99.36935 190.956403 
L 99.887023 173.39493 
L 97.655962 154.013971 
L 97.224563 146.648575 
M 97.981867 120.590991 
L 98.854557 113.137869 
L 97.995178 93.757994 
L 97.073027 76.198006 
L 96.998855 60.808896 
L 96.713052 47.600163 
L 100.066165 36.380776 
L 98.468798 26.88 
" clip-path="url(#p11e2adf88c)" style="fill: none; stroke-dasharray: 1.85,0.8; stroke-dashoffset: 0; stroke: #000000; stroke-width: 0.5"/>
    <path d="M 312.998152 26.88 
L 311.771318 36.380776 
L 310.865354 47.600163 
L 310.996145 60.808896 
L 310.998205 76.198006 
L 310.743059 93.757994 
L 310.182477 113.137869 
L 310.374613 120.560033 
M 309.244866 146.552168 
L 308.400298 154.013971 
L 307.968103 173.39493 
L 308.839549 190.956403 
L 304.771479 206.347113 
L 306.106021 219.557363 
L 310.285129 230.778089 
L 307.269133 240.28 
M 99.522657 240.28 
L 100.505762 230.778089 
L 100.340935 219.557363 
L 100.271549 206.347113 
L 101.687678 190.956403 
L 102.300104 173.39493 
L 99.66068 154.013971 
L 99.146782 146.597526 
M 100.03602 120.664751 
L 101.07866 113.137869 
L 100.061984 93.757994 
L 98.971047 76.198006 
L 98.883299 60.808896 
L 98.545184 47.600163 
L 102.512035 36.380776 
L 100.622293 26.88 
" clip-path="url(#p11e2adf88c)" style="fill: none; stroke-dasharray: 1.85,0.8; stroke-dashoffset: 0; stroke: #000000; stroke-width: 0.5"/>
    <path d="M 311.089177 26.88 
L 309.672532 36.380776 
L 308.6264 47.600163 
L 308.777427 60.808896 
L 308.779805 76.198006 
L 308.485184 93.757994 
L 307.837871 113.137869 
L 308.058478 120.518025 
M 306.752714 146.571158 
L 305.779959 154.013971 
L 305.280896 173.39493 
L 306.287169 190.956403 
L 301.589701 206.347113 
L 303.130719 219.557363 
L 307.956405 230.778089 
L 304.473784 240.28 
M 101.50602 240.28 
L 102.641228 230.778089 
L 102.4509 219.557363 
L 102.370778 206.347113 
L 104.006007 190.956403 
L 104.713185 173.39493 
L 101.665398 154.013971 
L 101.074718 146.631606 
M 102.099966 120.657518 
L 103.302763 113.137869 
L 102.12879 93.757994 
L 100.869067 76.198006 
L 100.767744 60.808896 
L 100.377316 47.600163 
L 104.957905 36.380776 
L 102.775789 26.88 
" clip-path="url(#p11e2adf88c)" style="fill: none; stroke-dasharray: 1.85,0.8; stroke-dashoffset: 0; stroke: #000000; stroke-width: 0.5"/>
    <path d="M 309.180203 26.88 
L 307.573746 36.380776 
L 306.387447 47.600163 
L 306.558709 60.808896 
L 306.561406 76.198006 
L 306.227309 93.757994 
L 305.493265 113.137869 
L 306.186548 133.590571 
L 305.085759 141.017859 
M 302.776626 167.130039 
L 302.593689 173.39493 
L 303.73479 190.956403 
L 301.473333 198.329672 
L 296.648791 206.347113 
L 298.866929 219.557363 
L 301.473333 221.789263 
L 305.627681 230.778089 
L 301.678435 240.28 
M 103.489384 240.28 
L 104.776694 230.778089 
L 104.560864 219.557363 
L 104.470007 206.347113 
L 106.324335 190.956403 
L 107.126266 173.39493 
L 103.670116 154.013971 
L 103.003262 146.664333 
M 104.163312 120.655305 
L 105.526865 113.137869 
L 104.195596 93.757994 
L 102.767087 76.198006 
L 102.652188 60.808896 
L 102.209448 47.600163 
L 107.403775 36.380776 
L 104.929284 26.88 
" clip-path="url(#p11e2adf88c)" style="fill: none; stroke-dasharray: 1.85,0.8; stroke-dashoffset: 0; stroke: #000000; stroke-width: 0.5"/>
    <path d="M 307.271229 26.88 
L 305.47496 36.380776 
L 304.148493 47.600163 
L 304.339991 60.808896 
L 304.343007 76.198006 
L 303.969434 93.757994 
L 303.148659 113.137869 
L 303.923858 133.590571 
L 302.715315 141.168677 
M 299.048755 167.105594 
L 298.599245 173.39493 
L 300.843733 190.956403 
L 291.641101 206.347113 
L 292.982758 219.557363 
L 301.473333 226.827959 
L 303.298957 230.778089 
L 301.473333 235.132798 
L 277.61 238.259473 
L 262.757178 240.28 
M 105.472747 240.28 
L 106.91216 230.778089 
L 106.670829 219.557363 
L 106.569237 206.347113 
L 108.642663 190.956403 
L 109.539346 173.39493 
L 105.674833 154.013971 
L 104.927997 146.652595 
M 106.217124 120.700564 
L 107.750968 113.137869 
L 106.262403 93.757994 
L 104.665107 76.198006 
L 104.536632 60.808896 
L 104.04158 47.600163 
L 109.849645 36.380776 
L 107.082779 26.88 
M 239.950797 240.28 
L 229.883333 238.754896 
L 228.062047 240.28 
" clip-path="url(#p11e2adf88c)" style="fill: none; stroke-dasharray: 1.85,0.8; stroke-dashoffset: 0; stroke: #000000; stroke-width: 0.5"/>
    <path d="M 305.362255 26.88 
L 303.376174 36.380776 
L 301.90954 47.600163 
L 302.121273 60.808896 
L 302.124607 76.198006 
L 301.71156 93.757994 
L 301.473333 98.988019 
L 299.964732 113.137869 
L 301.473333 128.982724 
L 301.661167 133.590571 
L 301.473333 134.768371 
L 299.506479 141.449419 
M 294.377653 166.979218 
L 293.670078 173.39493 
L 295.320007 190.956403 
L 286.633411 206.347113 
L 287.098587 219.557363 
L 296.473185 230.778089 
L 277.61 234.137547 
L 253.991031 230.778089 
L 253.746667 230.731984 
L 252.344001 230.778089 
L 229.883333 231.727028 
L 219.669337 240.28 
M 107.45611 240.28 
L 109.047626 230.778089 
L 108.780794 219.557363 
L 108.668466 206.347113 
L 110.566667 193.393099 
L 111.484708 190.956403 
L 112.658881 173.39493 
L 110.566667 167.869842 
L 107.679551 154.013971 
L 106.842675 146.553452 
M 108.248982 120.835072 
L 109.975071 113.137869 
L 108.329209 93.757994 
L 106.563127 76.198006 
L 106.421076 60.808896 
L 105.873712 47.600163 
L 110.566667 38.80721 
L 119.130496 36.380776 
L 110.566667 31.310996 
L 109.236275 26.88 
M 185.06079 240.28 
L 182.156667 237.691643 
L 180.110375 240.28 
" clip-path="url(#p11e2adf88c)" style="fill: none; stroke-dasharray: 1.85,0.8; stroke-dashoffset: 0; stroke: #000000; stroke-width: 0.5"/>
    <path d="M 303.453281 26.88 
L 301.473333 35.596192 
L 289.519376 36.380776 
L 295.241997 47.600163 
L 295.151105 60.808896 
L 298.079597 76.198006 
L 297.858802 93.757994 
L 294.679833 113.137869 
L 297.716377 133.590571 
L 295.396241 141.376883 
M 289.693139 167.008593 
L 288.740911 173.39493 
L 289.796282 190.956403 
L 281.625721 206.347113 
L 281.214416 219.557363 
L 277.61 228.175595 
L 253.746667 225.264334 
L 229.883333 225.951414 
L 215.796999 230.778089 
L 211.276628 240.28 
M 109.439473 240.28 
L 110.566667 233.978648 
L 114.072763 230.778089 
L 112.570065 219.557363 
L 111.32916 206.347113 
L 116.882086 190.956403 
L 116.302137 173.39493 
L 110.566667 158.248782 
L 109.684269 154.013971 
L 107.174344 133.590571 
L 109.098704 125.221951 
M 111.484031 100.247215 
L 110.566667 95.717587 
L 110.396015 93.757994 
L 108.461147 76.198006 
L 108.30552 60.808896 
L 107.705844 47.600163 
L 110.566667 42.239983 
L 131.246087 36.380776 
L 134.43 33.223782 
L 158.293333 27.133011 
L 182.156667 28.085539 
L 184.029452 26.88 
M 197.948197 240.28 
L 193.829962 234.045879 
M 172.912205 237.976172 
L 171.029703 240.28 
M 229.883333 33.324558 
L 229.719777 36.380776 
L 229.883333 36.499488 
L 230.047274 36.380776 
L 229.883333 33.324558 
z
" clip-path="url(#p11e2adf88c)" style="fill: none; stroke-dasharray: 1.85,0.8; stroke-dashoffset: 0; stroke: #000000; stroke-width: 0.5"/>
    <path d="M 215.060321 26.88 
L 219.696635 33.791055 
M 239.122315 33.422882 
L 240.825033 26.88 
M 269.752091 26.88 
L 269.769546 36.380776 
L 277.61 41.037308 
L 287.502878 47.600163 
L 286.220986 60.808896 
L 293.275474 76.198006 
L 293.817921 93.757994 
L 289.394934 113.137869 
L 293.61931 133.590571 
L 287.453815 154.013971 
L 286.232023 160.515625 
M 284.154798 186.468653 
L 284.272556 190.956403 
L 277.61 204.176053 
L 274.711193 206.347113 
L 256.168939 219.557363 
L 253.746667 219.796683 
L 229.883333 220.371282 
L 206.02 225.511173 
L 182.156667 221.831701 
L 170.346768 230.778089 
L 161.949031 240.28 
M 301.544306 26.88 
L 301.473333 27.19244 
L 299.976794 26.88 
M 147.510478 240.28 
L 134.43 236.294785 
L 126.21883 230.778089 
L 125.612979 219.557363 
L 119.291442 206.347113 
L 122.279465 190.956403 
L 119.945394 173.39493 
L 113.8284 154.013971 
L 110.566667 146.179816 
L 108.960111 133.590571 
L 110.566667 126.604012 
L 118.901269 113.137869 
L 113.756657 93.757994 
L 113.178462 90.914084 
M 110.236053 65.000719 
L 110.189964 60.808896 
L 109.537976 47.600163 
L 110.566667 45.672757 
L 134.43 40.831961 
L 151.446477 36.380776 
L 158.293333 34.265184 
L 177.522809 36.380776 
L 174.748572 47.600163 
L 182.156667 50.997144 
L 186.732251 47.600163 
L 183.03967 36.380776 
L 197.908007 26.88 
" clip-path="url(#p11e2adf88c)" style="fill: none; stroke-dasharray: 1.85,0.8; stroke-dashoffset: 0; stroke: #000000; stroke-width: 0.5"/>
    <path d="M 255.610491 26.88 
L 261.125042 36.380776 
L 277.61 46.171376 
L 279.76376 47.600163 
L 277.61 59.305748 
L 277.172742 60.808896 
L 277.61 61.048364 
L 288.471351 76.198006 
L 289.77704 93.757994 
L 284.110035 113.137869 
L 289.522243 133.590571 
L 283.276941 154.013971 
L 278.882576 173.39493 
L 278.748831 190.956403 
L 277.61 193.216038 
L 260.07734 206.347113 
L 253.746667 210.461942 
L 229.883333 209.82829 
L 206.02 211.376204 
L 182.156667 211.950015 
L 173.128325 219.557363 
L 161.899642 230.778089 
L 158.293333 234.738294 
L 144.725592 230.778089 
L 140.019951 219.557363 
L 134.43 216.064203 
L 127.253724 206.347113 
L 127.676843 190.956403 
L 123.588651 173.39493 
L 119.654595 154.013971 
L 111.065758 133.590571 
L 123.707826 113.137869 
L 117.233743 93.757994 
L 115.221136 76.198006 
L 118.307677 60.808896 
L 129.271161 47.600163 
L 134.43 46.86988 
L 158.293333 42.799403 
L 163.965905 47.600163 
L 182.156667 55.941535 
L 182.420635 55.74556 
M 196.959094 35.436549 
L 206.02 29.974243 
L 213.148146 36.380776 
L 228.088664 47.600163 
L 229.883333 48.53008 
L 232.251785 47.600163 
L 246.657832 36.380776 
L 252.241948 26.88 
M 206.02 107.256814 
L 197.560483 113.137869 
L 206.02 122.639183 
L 210.989215 113.137869 
L 206.02 107.256814 
z
" clip-path="url(#p11e2adf88c)" style="fill: none; stroke-dasharray: 1.85,0.8; stroke-dashoffset: 0; stroke: #000000; stroke-width: 0.5"/>
    <path d="M 270.904302 171.824262 
L 269.989762 173.39493 
L 253.746667 189.24132 
L 250.719855 190.956403 
L 229.883333 200.639844 
L 206.02 200.474852 
L 182.156667 199.812797 
L 176.088054 206.347113 
L 159.121728 219.557363 
L 158.293333 220.607051 
L 157.272937 219.557363 
L 135.867352 206.347113 
L 134.43 202.00508 
L 133.074222 190.956403 
L 127.231907 173.39493 
L 125.480789 154.013971 
L 116.038998 133.590571 
L 128.514382 113.137869 
L 120.710829 93.757994 
L 120.446908 76.198006 
L 127.982747 60.808896 
L 134.43 55.113383 
L 158.293333 50.229076 
L 181.963319 60.808896 
L 178.256645 76.198006 
L 182.156667 79.299481 
L 198.331399 76.198006 
L 182.828551 60.808896 
L 200.052007 47.600163 
L 206.02 37.894094 
L 216.449757 47.600163 
L 229.883333 54.560841 
L 247.611822 47.600163 
L 253.746667 39.391134 
L 262.248157 47.600163 
L 264.937199 60.808896 
L 277.61 67.749256 
L 283.667228 76.198006 
L 285.736159 93.757994 
L 278.825137 113.137869 
L 285.425176 133.590571 
L 281.085059 147.60455 
M 208.407457 144.509579 
L 208.990509 133.590571 
L 219.843489 113.137869 
L 206.02 96.7778 
L 182.4871 113.137869 
L 202.076827 133.590571 
L 203.175528 144.546362 
" clip-path="url(#p11e2adf88c)" style="fill: none; stroke-dasharray: 1.85,0.8; stroke-dashoffset: 0; stroke: #000000; stroke-width: 0.5"/>
    <path d="M 221.09551 102.173267 
L 215.260821 93.757994 
L 216.868983 76.198006 
L 228.157775 60.808896 
L 229.883333 60.591602 
L 236.963591 60.808896 
L 253.746667 62.054456 
L 277.61 74.450149 
L 278.863105 76.198006 
L 281.695277 93.757994 
L 277.61 104.758629 
L 265.068138 113.137869 
L 277.61 122.526453 
L 281.328109 133.590571 
L 277.61 145.542327 
L 271.925092 154.013971 
L 259.71751 173.39493 
L 253.746667 179.219947 
L 233.033944 190.956403 
L 229.883333 192.420599 
L 206.02 191.617593 
L 201.108928 190.956403 
L 182.156667 188.847716 
L 178.852695 190.956403 
L 164.534531 206.347113 
L 158.293333 211.165406 
L 150.427799 206.347113 
L 141.461145 190.956403 
L 134.43 183.331074 
L 130.875164 173.39493 
L 131.306984 154.013971 
L 121.012238 133.590571 
L 133.320938 113.137869 
L 124.187916 93.757994 
L 125.672679 76.198006 
L 134.43 63.363939 
L 140.845986 60.808896 
L 158.293333 55.776273 
L 169.552705 60.808896 
L 166.995385 76.198006 
L 182.156667 88.254947 
L 193.212713 93.757994 
L 182.156667 101.23569 
L 173.693644 113.137869 
L 182.156667 124.491076 
L 190.910324 133.590571 
L 195.567906 154.013971 
L 206.02 171.357015 
L 216.388976 154.013971 
L 217.402564 133.590571 
L 222.284227 124.751135 
" clip-path="url(#p11e2adf88c)" style="fill: none; stroke-dasharray: 1.85,0.8; stroke-dashoffset: 0; stroke: #000000; stroke-width: 0.5"/>
    <path d="M 150.085915 190.127759 
L 134.637976 173.39493 
L 137.900013 154.013971 
L 134.43 149.630988 
L 125.985478 133.590571 
L 134.43 119.514782 
L 146.280286 113.137869 
L 134.43 107.646535 
L 127.665002 93.757994 
L 130.898451 76.198006 
L 134.43 71.022435 
L 152.288005 76.198006 
L 158.293333 77.751269 
L 178.78372 93.757994 
L 165.040939 113.137869 
L 180.791382 133.590571 
L 182.156667 139.224174 
L 187.010825 154.013971 
L 195.632376 173.39493 
L 182.156667 181.527894 
L 167.502786 190.880411 
M 265.21853 99.881805 
L 253.746667 105.440474 
L 229.883333 96.225721 
L 228.242722 93.757994 
L 229.855913 76.198006 
L 229.883333 76.164373 
L 231.443606 76.198006 
L 253.746667 77.273276 
L 266.653001 86.049835 
M 240.032423 165.508595 
L 229.883333 163.742334 
L 224.878009 154.013971 
L 225.81462 133.590571 
L 229.883333 126.261598 
L 253.746667 117.314558 
L 275.886255 133.590571 
L 263.087411 154.013971 
L 261.189255 156.834831 
" clip-path="url(#p11e2adf88c)" style="fill: none; stroke-dasharray: 1.85,0.8; stroke-dashoffset: 0; stroke: #000000; stroke-width: 0.5"/>
    <path d="M 145.495181 105.097806 
L 134.43 100.508078 
L 131.142088 93.757994 
L 134.43 80.681424 
L 158.293333 84.58608 
L 170.034402 93.757994 
L 166.012034 99.46155 
M 170.508018 181.480144 
L 158.293333 189.105584 
L 143.207343 173.39493 
L 145.378974 154.013971 
L 134.43 140.184291 
L 130.958718 133.590571 
L 134.43 127.804449 
L 158.293333 114.757205 
L 174.472924 133.590571 
L 177.374785 154.013971 
L 179.934595 162.269564 
M 249.116024 143.846673 
L 247.377153 133.590571 
L 253.746667 131.014976 
L 257.250141 133.590571 
L 256.030663 141.891396 
" clip-path="url(#p11e2adf88c)" style="fill: none; stroke-dasharray: 1.85,0.8; stroke-dashoffset: 0; stroke: #000000; stroke-width: 0.5"/>
    <path d="M 158.293333 91.420891 
L 161.285085 93.757994 
L 158.293333 98.000176 
L 137.705679 93.757994 
L 158.293333 91.420891 
z
M 151.998967 169.410956 
L 152.857936 154.013971 
L 138.29908 133.590571 
L 158.293333 122.112015 
L 168.154467 133.590571 
L 166.324338 154.013971 
L 169.178384 172.629513 
" clip-path="url(#p11e2adf88c)" style="fill: none; stroke-dasharray: 1.85,0.8; stroke-dashoffset: 0; stroke: #000000; stroke-width: 0.5"/>
    <path d="M 158.293333 129.466824 
L 161.83601 133.590571 
L 158.293333 147.322124 
L 151.110267 133.590571 
L 158.293333 129.466824 
z
" clip-path="url(#p11e2adf88c)" style="fill: none; stroke-dasharray: 1.85,0.8; stroke-dashoffset: 0; stroke: #000000; stroke-width: 0.5"/>
    <path clip-path="url(#p11e2adf88c)" style="fill: none; stroke-dasharray: 1.85,0.8; stroke-dashoffset: 0; stroke: #000000; stroke-width: 0.5"/>
   </g>
   <g id="patch_3">
    <path d="M 62.84 240.28 
L 62.84 26.88 
" style="fill: none; stroke: #000000; stroke-width: 0.8; stroke-linejoin: miter; stroke-linecap: square"/>
   </g>
   <g id="patch_4">
    <path d="M 349.2 240.28 
L 349.2 26.88 
" style="fill: none; stroke: #000000; stroke-width: 0.8; stroke-linejoin: miter; stroke-linecap: square"/>
   </g>
   <g id="patch_5">
    <path d="M 62.84 240.28 
L 349.2 240.28 
" style="fill: none; stroke: #000000; stroke-width: 0.8; stroke-linejoin: miter; stroke-linecap: square"/>
   </g>
   <g id="patch_6">
    <path d="M 62.84 26.88 
L 349.2 26.88 
" style="fill: none; stroke: #000000; stroke-width: 0.8; stroke-linejoin: miter; stroke-linecap: square"/>
   </g>
   <g id="text_11">
    <!-- Band 1000 -->
    <g transform="translate(173.438125 20.88) scale(0.12 -0.12)">
     <defs>
      <path id="DejaVuSans-42" d="M 1259 2228 
L 1259 519 
L 2272 519 
Q 2781 519 3026 730 
Q 3272 941 3272 1375 
Q 3272 1813 3026 2020 
Q 2781 2228 2272 2228 
L 1259 2228 
z
M 1259 4147 
L 1259 2741 
L 2194 2741 
Q 2656 2741 2882 2914 
Q 3109 3088 3109 3444 
Q 3109 3797 2882 3972 
Q 2656 4147 2194 4147 
L 1259 4147 
z
M 628 4666 
L 2241 4666 
Q 2963 4666 3353 4366 
Q 3744 4066 3744 3513 
Q 3744 3084 3544 2831 
Q 3344 2578 2956 2516 
Q 3422 2416 3680 2098 
Q 3938 1781 3938 1306 
Q 3938 681 3513 340 
Q 3088 0 2303 0 
L 628 0 
L 628 4666 
z
" transform="scale(0.015625)"/>
      <path id="DejaVuSans-61" d="M 2194 1759 
Q 1497 1759 1228 1600 
Q 959 1441 959 1056 
Q 959 750 1161 570 
Q 1363 391 1709 391 
Q 2188 391 2477 730 
Q 2766 1069 2766 1631 
L 2766 1759 
L 2194 1759 
z
M 3341 1997 
L 3341 0 
L 2766 0 
L 2766 531 
Q 2569 213 2275 61 
Q 1981 -91 1556 -91 
Q 1019 -91 701 211 
Q 384 513 384 1019 
Q 384 1609 779 1909 
Q 1175 2209 1959 2209 
L 2766 2209 
L 2766 2266 
Q 2766 2663 2505 2880 
Q 2244 3097 1772 3097 
Q 1472 3097 1187 3025 
Q 903 2953 641 2809 
L 641 3341 
Q 956 3463 1253 3523 
Q 1550 3584 1831 3584 
Q 2591 3584 2966 3190 
Q 3341 2797 3341 1997 
z
" transform="scale(0.015625)"/>
      <path id="DejaVuSans-6e" d="M 3513 2113 
L 3513 0 
L 2938 0 
L 2938 2094 
Q 2938 2591 2744 2837 
Q 2550 3084 2163 3084 
Q 1697 3084 1428 2787 
Q 1159 2491 1159 1978 
L 1159 0 
L 581 0 
L 581 3500 
L 1159 3500 
L 1159 2956 
Q 1366 3272 1645 3428 
Q 1925 3584 2291 3584 
Q 2894 3584 3203 3211 
Q 3513 2838 3513 2113 
z
" transform="scale(0.015625)"/>
      <path id="DejaVuSans-64" d="M 2906 2969 
L 2906 4863 
L 3481 4863 
L 3481 0 
L 2906 0 
L 2906 525 
Q 2725 213 2448 61 
Q 2172 -91 1784 -91 
Q 1150 -91 751 415 
Q 353 922 353 1747 
Q 353 2572 751 3078 
Q 1150 3584 1784 3584 
Q 2172 3584 2448 3432 
Q 2725 3281 2906 2969 
z
M 947 1747 
Q 947 1113 1208 752 
Q 1469 391 1925 391 
Q 2381 391 2643 752 
Q 2906 1113 2906 1747 
Q 2906 2381 2643 2742 
Q 2381 3103 1925 3103 
Q 1469 3103 1208 2742 
Q 947 2381 947 1747 
z
" transform="scale(0.015625)"/>
      <path id="DejaVuSans-20" transform="scale(0.015625)"/>
      <path id="DejaVuSans-31" d="M 794 531 
L 1825 531 
L 1825 4091 
L 703 3866 
L 703 4441 
L 1819 4666 
L 2450 4666 
L 2450 531 
L 3481 531 
L 3481 0 
L 794 0 
L 794 531 
z
" transform="scale(0.015625)"/>
     </defs>
     <use xlink:href="#DejaVuSans-42"/>
     <use xlink:href="#DejaVuSans-61" transform="translate(68.603516 0)"/>
     <use xlink:href="#DejaVuSans-6e" transform="translate(129.882812 0)"/>
     <use xlink:href="#DejaVuSans-64" transform="translate(193.261719 0)"/>
     <use xlink:href="#DejaVuSans-20" transform="translate(256.738281 0)"/>
     <use xlink:href="#DejaVuSans-31" transform="translate(288.525391 0)"/>
     <use xlink:href="#DejaVuSans-30" transform="translate(352.148438 0)"/>
     <use xlink:href="#DejaVuSans-30" transform="translate(415.771484 0)"/>
     <use xlink:href="#DejaVuSans-30" transform="translate(479.394531 0)"/>
    </g>
   </g>
   <g id="text_12">
    <g clip-path="url(#p11e2adf88c)">
     <!-- 61.6 -->
     <g transform="translate(326.742103 143.617346) rotate(-89.831883) scale(0.09 -0.09)">
      <defs>
       <path id="DejaVuSans-36" d="M 2113 2584 
Q 1688 2584 1439 2293 
Q 1191 2003 1191 1497 
Q 1191 994 1439 701 
Q 1688 409 2113 409 
Q 2538 409 2786 701 
Q 3034 994 3034 1497 
Q 3034 2003 2786 2293 
Q 2538 2584 2113 2584 
z
M 3366 4563 
L 3366 3988 
Q 3128 4100 2886 4159 
Q 2644 4219 2406 4219 
Q 1781 4219 1451 3797 
Q 1122 3375 1075 2522 
Q 1259 2794 1537 2939 
Q 1816 3084 2150 3084 
Q 2853 3084 3261 2657 
Q 3669 2231 3669 1497 
Q 3669 778 3244 343 
Q 2819 -91 2113 -91 
Q 1303 -91 875 529 
Q 447 1150 447 2328 
Q 447 3434 972 4092 
Q 1497 4750 2381 4750 
Q 2619 4750 2861 4703 
Q 3103 4656 3366 4563 
z
" transform="scale(0.015625)"/>
       <path id="DejaVuSans-2e" d="M 684 794 
L 1344 794 
L 1344 0 
L 684 0 
L 684 794 
z
" transform="scale(0.015625)"/>
      </defs>
      <use xlink:href="#DejaVuSans-36"/>
      <use xlink:href="#DejaVuSans-31" transform="translate(63.623047 0)"/>
      <use xlink:href="#DejaVuSans-2e" transform="translate(127.246094 0)"/>
      <use xlink:href="#DejaVuSans-36" transform="translate(159.033203 0)"/>
     </g>
    </g>
   </g>
   <g id="text_13">
    <g clip-path="url(#p11e2adf88c)">
     <!-- 61.6 -->
     <g transform="translate(89.991023 143.615853) rotate(-89.866682) scale(0.09 -0.09)">
      <use xlink:href="#DejaVuSans-36"/>
      <use xlink:href="#DejaVuSans-31" transform="translate(63.623047 0)"/>
      <use xlink:href="#DejaVuSans-2e" transform="translate(127.246094 0)"/>
      <use xlink:href="#DejaVuSans-36" transform="translate(159.033203 0)"/>
     </g>
    </g>
   </g>
   <g id="text_14">
    <g clip-path="url(#p11e2adf88c)">
     <!-- 62.4 -->
     <g transform="translate(324.415899 143.632677) rotate(-89.469232) scale(0.09 -0.09)">
      <use xlink:href="#DejaVuSans-36"/>
      <use xlink:href="#DejaVuSans-32" transform="translate(63.623047 0)"/>
      <use xlink:href="#DejaVuSans-2e" transform="translate(127.246094 0)"/>
      <use xlink:href="#DejaVuSans-34" transform="translate(159.033203 0)"/>
     </g>
    </g>
   </g>
   <g id="text_15">
    <g clip-path="url(#p11e2adf88c)">
     <!-- 62.4 -->
     <g transform="translate(91.726456 143.628071) rotate(-89.579194) scale(0.09 -0.09)">
      <use xlink:href="#DejaVuSans-36"/>
      <use xlink:href="#DejaVuSans-32" transform="translate(63.623047 0)"/>
      <use xlink:href="#DejaVuSans-2e" transform="translate(127.246094 0)"/>
      <use xlink:href="#DejaVuSans-34" transform="translate(159.033203 0)"/>
     </g>
    </g>
   </g>
   <g id="text_16">
    <g clip-path="url(#p11e2adf88c)">
     <!-- 63.2 -->
     <g transform="translate(322.089664 143.647592) rotate(-89.106947) scale(0.09 -0.09)">
      <defs>
       <path id="DejaVuSans-33" d="M 2597 2516 
Q 3050 2419 3304 2112 
Q 3559 1806 3559 1356 
Q 3559 666 3084 287 
Q 2609 -91 1734 -91 
Q 1441 -91 1130 -33 
Q 819 25 488 141 
L 488 750 
Q 750 597 1062 519 
Q 1375 441 1716 441 
Q 2309 441 2620 675 
Q 2931 909 2931 1356 
Q 2931 1769 2642 2001 
Q 2353 2234 1838 2234 
L 1294 2234 
L 1294 2753 
L 1863 2753 
Q 2328 2753 2575 2939 
Q 2822 3125 2822 3475 
Q 2822 3834 2567 4026 
Q 2313 4219 1838 4219 
Q 1578 4219 1281 4162 
Q 984 4106 628 3988 
L 628 4550 
Q 988 4650 1302 4700 
Q 1616 4750 1894 4750 
Q 2613 4750 3031 4423 
Q 3450 4097 3450 3541 
Q 3450 3153 3228 2886 
Q 3006 2619 2597 2516 
z
" transform="scale(0.015625)"/>
      </defs>
      <use xlink:href="#DejaVuSans-36"/>
      <use xlink:href="#DejaVuSans-33" transform="translate(63.623047 0)"/>
      <use xlink:href="#DejaVuSans-2e" transform="translate(127.246094 0)"/>
      <use xlink:href="#DejaVuSans-32" transform="translate(159.033203 0)"/>
     </g>
    </g>
   </g>
   <g id="text_17">
    <g clip-path="url(#p11e2adf88c)">
     <!-- 63.2 -->
     <g transform="translate(93.461933 143.640012) rotate(-89.2923) scale(0.09 -0.09)">
      <use xlink:href="#DejaVuSans-36"/>
      <use xlink:href="#DejaVuSans-33" transform="translate(63.623047 0)"/>
      <use xlink:href="#DejaVuSans-2e" transform="translate(127.246094 0)"/>
      <use xlink:href="#DejaVuSans-32" transform="translate(159.033203 0)"/>
     </g>
    </g>
   </g>
   <g id="text_18">
    <g clip-path="url(#p11e2adf88c)">
     <!-- 64.0 -->
     <g transform="translate(319.763444 143.66208) rotate(-88.745276) scale(0.09 -0.09)">
      <use xlink:href="#DejaVuSans-36"/>
      <use xlink:href="#DejaVuSans-34" transform="translate(63.623047 0)"/>
      <use xlink:href="#DejaVuSans-2e" transform="translate(127.246094 0)"/>
      <use xlink:href="#DejaVuSans-30" transform="translate(159.033203 0)"/>
     </g>
    </g>
   </g>
   <g id="text_19">
    <g clip-path="url(#p11e2adf88c)">
     <!-- 64.0 -->
     <g transform="translate(95.197525 143.65166) rotate(-89.006402) scale(0.09 -0.09)">
      <use xlink:href="#DejaVuSans-36"/>
      <use xlink:href="#DejaVuSans-34" transform="translate(63.623047 0)"/>
      <use xlink:href="#DejaVuSans-2e" transform="translate(127.246094 0)"/>
      <use xlink:href="#DejaVuSans-30" transform="translate(159.033203 0)"/>
     </g>
    </g>
   </g>
   <g id="text_20">
    <g clip-path="url(#p11e2adf88c)">
     <!-- 64.8 -->
     <g transform="translate(317.437285 143.676134) rotate(-88.384468) scale(0.09 -0.09)">
      <defs>
       <path id="DejaVuSans-38" d="M 2034 2216 
Q 1584 2216 1326 1975 
Q 1069 1734 1069 1313 
Q 1069 891 1326 650 
Q 1584 409 2034 409 
Q 2484 409 2743 651 
Q 3003 894 3003 1313 
Q 3003 1734 2745 1975 
Q 2488 2216 2034 2216 
z
M 1403 2484 
Q 997 2584 770 2862 
Q 544 3141 544 3541 
Q 544 4100 942 4425 
Q 1341 4750 2034 4750 
Q 2731 4750 3128 4425 
Q 3525 4100 3525 3541 
Q 3525 3141 3298 2862 
Q 3072 2584 2669 2484 
Q 3125 2378 3379 2068 
Q 3634 1759 3634 1313 
Q 3634 634 3220 271 
Q 2806 -91 2034 -91 
Q 1263 -91 848 271 
Q 434 634 434 1313 
Q 434 1759 690 2068 
Q 947 2378 1403 2484 
z
M 1172 3481 
Q 1172 3119 1398 2916 
Q 1625 2713 2034 2713 
Q 2441 2713 2670 2916 
Q 2900 3119 2900 3481 
Q 2900 3844 2670 4047 
Q 2441 4250 2034 4250 
Q 1625 4250 1398 4047 
Q 1172 3844 1172 3481 
z
" transform="scale(0.015625)"/>
      </defs>
      <use xlink:href="#DejaVuSans-36"/>
      <use xlink:href="#DejaVuSans-34" transform="translate(63.623047 0)"/>
      <use xlink:href="#DejaVuSans-2e" transform="translate(127.246094 0)"/>
      <use xlink:href="#DejaVuSans-38" transform="translate(159.033203 0)"/>
     </g>
    </g>
   </g>
   <g id="text_21">
    <g clip-path="url(#p11e2adf88c)">
     <!-- 64.8 -->
     <g transform="translate(96.933305 143.663003) rotate(-88.721896) scale(0.09 -0.09)">
      <use xlink:href="#DejaVuSans-36"/>
      <use xlink:href="#DejaVuSans-34" transform="translate(63.623047 0)"/>
      <use xlink:href="#DejaVuSans-2e" transform="translate(127.246094 0)"/>
      <use xlink:href="#DejaVuSans-38" transform="translate(159.033203 0)"/>
     </g>
    </g>
   </g>
   <g id="text_22">
    <g clip-path="url(#p11e2adf88c)">
     <!-- 65.6 -->
     <g transform="translate(315.111234 143.689746) rotate(-88.024766) scale(0.09 -0.09)">
      <use xlink:href="#DejaVuSans-36"/>
      <use xlink:href="#DejaVuSans-35" transform="translate(63.623047 0)"/>
      <use xlink:href="#DejaVuSans-2e" transform="translate(127.246094 0)"/>
      <use xlink:href="#DejaVuSans-36" transform="translate(159.033203 0)"/>
     </g>
    </g>
   </g>
   <g id="text_23">
    <g clip-path="url(#p11e2adf88c)">
     <!-- 65.6 -->
     <g transform="translate(98.669343 143.674029) rotate(-88.439173) scale(0.09 -0.09)">
      <use xlink:href="#DejaVuSans-36"/>
      <use xlink:href="#DejaVuSans-35" transform="translate(63.623047 0)"/>
      <use xlink:href="#DejaVuSans-2e" transform="translate(127.246094 0)"/>
      <use xlink:href="#DejaVuSans-36" transform="translate(159.033203 0)"/>
     </g>
    </g>
   </g>
   <g id="text_24">
    <g clip-path="url(#p11e2adf88c)">
     <!-- 66.4 -->
     <g transform="translate(312.785337 143.702912) rotate(-87.66641) scale(0.09 -0.09)">
      <use xlink:href="#DejaVuSans-36"/>
      <use xlink:href="#DejaVuSans-36" transform="translate(63.623047 0)"/>
      <use xlink:href="#DejaVuSans-2e" transform="translate(127.246094 0)"/>
      <use xlink:href="#DejaVuSans-34" transform="translate(159.033203 0)"/>
     </g>
    </g>
   </g>
   <g id="text_25">
    <g clip-path="url(#p11e2adf88c)">
     <!-- 66.4 -->
     <g transform="translate(100.405708 143.684728) rotate(-88.158613) scale(0.09 -0.09)">
      <use xlink:href="#DejaVuSans-36"/>
      <use xlink:href="#DejaVuSans-36" transform="translate(63.623047 0)"/>
      <use xlink:href="#DejaVuSans-2e" transform="translate(127.246094 0)"/>
      <use xlink:href="#DejaVuSans-34" transform="translate(159.033203 0)"/>
     </g>
    </g>
   </g>
   <g id="text_26">
    <g clip-path="url(#p11e2adf88c)">
     <!-- 67.2 -->
     <g transform="translate(310.459638 143.715627) rotate(-87.309636) scale(0.09 -0.09)">
      <defs>
       <path id="DejaVuSans-37" d="M 525 4666 
L 3525 4666 
L 3525 4397 
L 1831 0 
L 1172 0 
L 2766 4134 
L 525 4134 
L 525 4666 
z
" transform="scale(0.015625)"/>
      </defs>
      <use xlink:href="#DejaVuSans-36"/>
      <use xlink:href="#DejaVuSans-37" transform="translate(63.623047 0)"/>
      <use xlink:href="#DejaVuSans-2e" transform="translate(127.246094 0)"/>
      <use xlink:href="#DejaVuSans-32" transform="translate(159.033203 0)"/>
     </g>
    </g>
   </g>
   <g id="text_27">
    <g clip-path="url(#p11e2adf88c)">
     <!-- 67.2 -->
     <g transform="translate(102.142468 143.695091) rotate(-87.880584) scale(0.09 -0.09)">
      <use xlink:href="#DejaVuSans-36"/>
      <use xlink:href="#DejaVuSans-37" transform="translate(63.623047 0)"/>
      <use xlink:href="#DejaVuSans-2e" transform="translate(127.246094 0)"/>
      <use xlink:href="#DejaVuSans-32" transform="translate(159.033203 0)"/>
     </g>
    </g>
   </g>
   <g id="text_28">
    <g clip-path="url(#p11e2adf88c)">
     <!-- 68.0 -->
     <g transform="translate(304.806684 164.20444) rotate(-85.260427) scale(0.09 -0.09)">
      <use xlink:href="#DejaVuSans-36"/>
      <use xlink:href="#DejaVuSans-38" transform="translate(63.623047 0)"/>
      <use xlink:href="#DejaVuSans-2e" transform="translate(127.246094 0)"/>
      <use xlink:href="#DejaVuSans-30" transform="translate(159.033203 0)"/>
     </g>
    </g>
   </g>
   <g id="text_29">
    <g clip-path="url(#p11e2adf88c)">
     <!-- 68.0 -->
     <g transform="translate(103.879688 143.705113) rotate(-87.605443) scale(0.09 -0.09)">
      <use xlink:href="#DejaVuSans-36"/>
      <use xlink:href="#DejaVuSans-38" transform="translate(63.623047 0)"/>
      <use xlink:href="#DejaVuSans-2e" transform="translate(127.246094 0)"/>
      <use xlink:href="#DejaVuSans-30" transform="translate(159.033203 0)"/>
     </g>
    </g>
   </g>
   <g id="text_30">
    <g clip-path="url(#p11e2adf88c)">
     <!-- 68.8 -->
     <g transform="translate(301.040882 164.282486) rotate(-81.953274) scale(0.09 -0.09)">
      <use xlink:href="#DejaVuSans-36"/>
      <use xlink:href="#DejaVuSans-38" transform="translate(63.623047 0)"/>
      <use xlink:href="#DejaVuSans-2e" transform="translate(127.246094 0)"/>
      <use xlink:href="#DejaVuSans-38" transform="translate(159.033203 0)"/>
     </g>
    </g>
   </g>
   <g id="text_31">
    <g clip-path="url(#p11e2adf88c)">
     <!-- 68.8 -->
     <g transform="translate(105.617431 143.714788) rotate(-87.333531) scale(0.09 -0.09)">
      <use xlink:href="#DejaVuSans-36"/>
      <use xlink:href="#DejaVuSans-38" transform="translate(63.623047 0)"/>
      <use xlink:href="#DejaVuSans-2e" transform="translate(127.246094 0)"/>
      <use xlink:href="#DejaVuSans-38" transform="translate(159.033203 0)"/>
     </g>
    </g>
   </g>
   <g id="text_32">
    <g clip-path="url(#p11e2adf88c)">
     <!-- 69.6 -->
     <g transform="translate(296.393483 164.320045) rotate(-79.333112) scale(0.09 -0.09)">
      <defs>
       <path id="DejaVuSans-39" d="M 703 97 
L 703 672 
Q 941 559 1184 500 
Q 1428 441 1663 441 
Q 2288 441 2617 861 
Q 2947 1281 2994 2138 
Q 2813 1869 2534 1725 
Q 2256 1581 1919 1581 
Q 1219 1581 811 2004 
Q 403 2428 403 3163 
Q 403 3881 828 4315 
Q 1253 4750 1959 4750 
Q 2769 4750 3195 4129 
Q 3622 3509 3622 2328 
Q 3622 1225 3098 567 
Q 2575 -91 1691 -91 
Q 1453 -91 1209 -44 
Q 966 3 703 97 
z
M 1959 2075 
Q 2384 2075 2632 2365 
Q 2881 2656 2881 3163 
Q 2881 3666 2632 3958 
Q 2384 4250 1959 4250 
Q 1534 4250 1286 3958 
Q 1038 3666 1038 3163 
Q 1038 2656 1286 2365 
Q 1534 2075 1959 2075 
z
" transform="scale(0.015625)"/>
      </defs>
      <use xlink:href="#DejaVuSans-36"/>
      <use xlink:href="#DejaVuSans-39" transform="translate(63.623047 0)"/>
      <use xlink:href="#DejaVuSans-2e" transform="translate(127.246094 0)"/>
      <use xlink:href="#DejaVuSans-36" transform="translate(159.033203 0)"/>
     </g>
    </g>
   </g>
   <g id="text_33">
    <g clip-path="url(#p11e2adf88c)">
     <!-- 69.6 -->
     <g transform="translate(107.355757 143.724113) rotate(-87.065174) scale(0.09 -0.09)">
      <use xlink:href="#DejaVuSans-36"/>
      <use xlink:href="#DejaVuSans-39" transform="translate(63.623047 0)"/>
      <use xlink:href="#DejaVuSans-2e" transform="translate(127.246094 0)"/>
      <use xlink:href="#DejaVuSans-36" transform="translate(159.033203 0)"/>
     </g>
    </g>
   </g>
   <g id="text_34">
    <g clip-path="url(#p11e2adf88c)">
     <!-- 70.4 -->
     <g transform="translate(292.015657 164.329507) rotate(-78.21648) scale(0.09 -0.09)">
      <use xlink:href="#DejaVuSans-37"/>
      <use xlink:href="#DejaVuSans-30" transform="translate(63.623047 0)"/>
      <use xlink:href="#DejaVuSans-2e" transform="translate(127.246094 0)"/>
      <use xlink:href="#DejaVuSans-34" transform="translate(159.033203 0)"/>
     </g>
    </g>
   </g>
   <g id="text_35">
    <g clip-path="url(#p11e2adf88c)">
     <!-- 70.4 -->
     <g transform="translate(115.383128 123.379864) rotate(-83.249223) scale(0.09 -0.09)">
      <use xlink:href="#DejaVuSans-37"/>
      <use xlink:href="#DejaVuSans-30" transform="translate(63.623047 0)"/>
      <use xlink:href="#DejaVuSans-2e" transform="translate(127.246094 0)"/>
      <use xlink:href="#DejaVuSans-34" transform="translate(159.033203 0)"/>
     </g>
    </g>
   </g>
   <g id="text_36">
    <g clip-path="url(#p11e2adf88c)">
     <!-- 70.4 -->
     <g transform="translate(173.098716 233.181637) rotate(-14.739685) scale(0.09 -0.09)">
      <use xlink:href="#DejaVuSans-37"/>
      <use xlink:href="#DejaVuSans-30" transform="translate(63.623047 0)"/>
      <use xlink:href="#DejaVuSans-2e" transform="translate(127.246094 0)"/>
      <use xlink:href="#DejaVuSans-34" transform="translate(159.033203 0)"/>
     </g>
    </g>
   </g>
   <g id="text_37">
    <g clip-path="url(#p11e2adf88c)">
     <!-- 71.2 -->
     <g transform="translate(219.862394 44.991241) rotate(-359.967474) scale(0.09 -0.09)">
      <use xlink:href="#DejaVuSans-37"/>
      <use xlink:href="#DejaVuSans-31" transform="translate(63.623047 0)"/>
      <use xlink:href="#DejaVuSans-2e" transform="translate(127.246094 0)"/>
      <use xlink:href="#DejaVuSans-32" transform="translate(159.033203 0)"/>
     </g>
    </g>
   </g>
   <g id="text_38">
    <g clip-path="url(#p11e2adf88c)">
     <!-- 71.2 -->
     <g transform="translate(285.53845 183.572206) rotate(-85.70851) scale(0.09 -0.09)">
      <use xlink:href="#DejaVuSans-37"/>
      <use xlink:href="#DejaVuSans-31" transform="translate(63.623047 0)"/>
      <use xlink:href="#DejaVuSans-2e" transform="translate(127.246094 0)"/>
      <use xlink:href="#DejaVuSans-32" transform="translate(159.033203 0)"/>
     </g>
    </g>
   </g>
   <g id="text_39">
    <g clip-path="url(#p11e2adf88c)">
     <!-- 71.2 -->
     <g transform="translate(107.013015 68.375958) rotate(-276.215589) scale(0.09 -0.09)">
      <use xlink:href="#DejaVuSans-37"/>
      <use xlink:href="#DejaVuSans-31" transform="translate(63.623047 0)"/>
      <use xlink:href="#DejaVuSans-2e" transform="translate(127.246094 0)"/>
      <use xlink:href="#DejaVuSans-32" transform="translate(159.033203 0)"/>
     </g>
    </g>
   </g>
   <g id="text_40">
    <g clip-path="url(#p11e2adf88c)">
     <!-- 72.0 -->
     <g transform="translate(190.436489 57.490696) rotate(-59.441236) scale(0.09 -0.09)">
      <use xlink:href="#DejaVuSans-37"/>
      <use xlink:href="#DejaVuSans-32" transform="translate(63.623047 0)"/>
      <use xlink:href="#DejaVuSans-2e" transform="translate(127.246094 0)"/>
      <use xlink:href="#DejaVuSans-30" transform="translate(159.033203 0)"/>
     </g>
    </g>
   </g>
   <g id="text_41">
    <g clip-path="url(#p11e2adf88c)">
     <!-- 72.8 -->
     <g transform="translate(276.304643 170.547465) rotate(-68.814459) scale(0.09 -0.09)">
      <use xlink:href="#DejaVuSans-37"/>
      <use xlink:href="#DejaVuSans-32" transform="translate(63.623047 0)"/>
      <use xlink:href="#DejaVuSans-2e" transform="translate(127.246094 0)"/>
      <use xlink:href="#DejaVuSans-38" transform="translate(159.033203 0)"/>
     </g>
    </g>
   </g>
   <g id="text_42">
    <g clip-path="url(#p11e2adf88c)">
     <!-- 72.8 -->
     <g transform="translate(196.015237 159.700623) rotate(-0.336721) scale(0.09 -0.09)">
      <use xlink:href="#DejaVuSans-37"/>
      <use xlink:href="#DejaVuSans-32" transform="translate(63.623047 0)"/>
      <use xlink:href="#DejaVuSans-2e" transform="translate(127.246094 0)"/>
      <use xlink:href="#DejaVuSans-38" transform="translate(159.033203 0)"/>
     </g>
    </g>
   </g>
   <g id="text_43">
    <g clip-path="url(#p11e2adf88c)">
     <!-- 73.6 -->
     <g transform="translate(225.723357 103.252963) rotate(-272.825979) scale(0.09 -0.09)">
      <use xlink:href="#DejaVuSans-37"/>
      <use xlink:href="#DejaVuSans-33" transform="translate(63.623047 0)"/>
      <use xlink:href="#DejaVuSans-2e" transform="translate(127.246094 0)"/>
      <use xlink:href="#DejaVuSans-36" transform="translate(159.033203 0)"/>
     </g>
    </g>
   </g>
   <g id="text_44">
    <g clip-path="url(#p11e2adf88c)">
     <!-- 74.4 -->
     <g transform="translate(148.164985 202.690408) rotate(-357.215416) scale(0.09 -0.09)">
      <use xlink:href="#DejaVuSans-37"/>
      <use xlink:href="#DejaVuSans-34" transform="translate(63.623047 0)"/>
      <use xlink:href="#DejaVuSans-2e" transform="translate(127.246094 0)"/>
      <use xlink:href="#DejaVuSans-34" transform="translate(159.033203 0)"/>
     </g>
    </g>
   </g>
   <g id="text_45">
    <g clip-path="url(#p11e2adf88c)">
     <!-- 74.4 -->
     <g transform="translate(279.033684 104.101612) rotate(-84.006599) scale(0.09 -0.09)">
      <use xlink:href="#DejaVuSans-37"/>
      <use xlink:href="#DejaVuSans-34" transform="translate(63.623047 0)"/>
      <use xlink:href="#DejaVuSans-2e" transform="translate(127.246094 0)"/>
      <use xlink:href="#DejaVuSans-34" transform="translate(159.033203 0)"/>
     </g>
    </g>
   </g>
   <g id="text_46">
    <g clip-path="url(#p11e2adf88c)">
     <!-- 74.4 -->
     <g transform="translate(245.561416 174.184989) rotate(-23.61852) scale(0.09 -0.09)">
      <use xlink:href="#DejaVuSans-37"/>
      <use xlink:href="#DejaVuSans-34" transform="translate(63.623047 0)"/>
      <use xlink:href="#DejaVuSans-2e" transform="translate(127.246094 0)"/>
      <use xlink:href="#DejaVuSans-34" transform="translate(159.033203 0)"/>
     </g>
    </g>
   </g>
   <g id="text_47">
    <g clip-path="url(#p11e2adf88c)">
     <!-- 75.2 -->
     <g transform="translate(149.376357 115.606931) rotate(-16.330917) scale(0.09 -0.09)">
      <use xlink:href="#DejaVuSans-37"/>
      <use xlink:href="#DejaVuSans-35" transform="translate(63.623047 0)"/>
      <use xlink:href="#DejaVuSans-2e" transform="translate(127.246094 0)"/>
      <use xlink:href="#DejaVuSans-32" transform="translate(159.033203 0)"/>
     </g>
    </g>
   </g>
   <g id="text_48">
    <g clip-path="url(#p11e2adf88c)">
     <!-- 75.2 -->
     <g transform="translate(179.931979 184.288212) rotate(-63.633563) scale(0.09 -0.09)">
      <use xlink:href="#DejaVuSans-37"/>
      <use xlink:href="#DejaVuSans-35" transform="translate(63.623047 0)"/>
      <use xlink:href="#DejaVuSans-2e" transform="translate(127.246094 0)"/>
      <use xlink:href="#DejaVuSans-32" transform="translate(159.033203 0)"/>
     </g>
    </g>
   </g>
   <g id="text_49">
    <g clip-path="url(#p11e2adf88c)">
     <!-- 75.2 -->
     <g transform="translate(245.139127 160.45971) rotate(-19.583525) scale(0.09 -0.09)">
      <use xlink:href="#DejaVuSans-37"/>
      <use xlink:href="#DejaVuSans-35" transform="translate(63.623047 0)"/>
      <use xlink:href="#DejaVuSans-2e" transform="translate(127.246094 0)"/>
      <use xlink:href="#DejaVuSans-32" transform="translate(159.033203 0)"/>
     </g>
    </g>
   </g>
   <g id="text_50">
    <g clip-path="url(#p11e2adf88c)">
     <!-- 76.0 -->
     <g transform="translate(148.024596 181.235669) rotate(-351.9412) scale(0.09 -0.09)">
      <use xlink:href="#DejaVuSans-37"/>
      <use xlink:href="#DejaVuSans-36" transform="translate(63.623047 0)"/>
      <use xlink:href="#DejaVuSans-2e" transform="translate(127.246094 0)"/>
      <use xlink:href="#DejaVuSans-30" transform="translate(159.033203 0)"/>
     </g>
    </g>
   </g>
  </g>
 </g>
 <defs>
  <clipPath id="p11e2adf88c">
   <rect x="62.84" y="26.88" width="286.36" height="213.4"/>
  </clipPath>
 </defs>
</svg>
