<?xml version="1.0" encoding="utf-8" standalone="no"?>
<!DOCTYPE svg PUBLIC "-//W3C//DTD SVG 1.1//EN"
  "http://www.w3.org/Graphics/SVG/1.1/DTD/svg11.dtd">
<svg xmlns:xlink="http://www.w3.org/1999/xlink" width="360pt" height="288pt" viewBox="0 0 360 288" xmlns="http://www.w3.org/2000/svg" version="1.1">
 <metadata>
  <rdf:RDF xmlns:dc="http://purl.org/dc/elements/1.1/" xmlns:cc="http://creativecommons.org/ns#" xmlns:rdf="http://www.w3.org/1999/02/22-rdf-syntax-ns#">
   <cc:Work>
    <dc:type rdf:resource="http://purl.org/dc/dcmitype/StillImage"/>
    <dc:date>2025-10-03T13:42:42.580976</dc:date>
    <dc:format>image/svg+xml</dc:format>
    <dc:creator>
     <cc:Agent>
      <dc:title>Matplotlib v3.10.6, https://matplotlib.org/</dc:title>
     </cc:Agent>
    </dc:creator>
   </cc:Work>
  </rdf:RDF>
 </metadata>
 <defs>
  <style type="text/css">*{stroke-linejoin: round; stroke-linecap: butt}</style>
 </defs>
 <g id="figure_1">
  <g id="patch_1">
   <path d="M 0 288 
L 360 288 
L 360 0 
L 0 0 
z
" style="fill: #ffffff"/>
  </g>
  <g id="axes_1">
   <g id="patch_2">
    <path d="M 62.84 240.28 
L 349.2 240.28 
L 349.2 26.88 
L 62.84 26.88 
z
" style="fill: #ffffff"/>
   </g>
   <g id="QuadContourSet_1">
    <path d="M 86.703333 26.88 
L 87.720257 26.88 
L 87.911039 36.380776 
L 87.895077 47.600163 
L 87.551236 60.808896 
L 87.754476 76.198006 
L 87.401904 93.757994 
L 87.796533 113.137869 
L 87.585936 133.590571 
L 88.125197 154.013971 
L 87.642195 173.39493 
L 87.801063 190.956403 
L 87.977977 206.347113 
L 87.85704 219.557363 
L 88.133252 230.778089 
L 88.259 240.28 
L 86.703333 240.28 
L 62.84 240.28 
L 62.84 230.778089 
L 62.84 219.557363 
L 62.84 206.347113 
L 62.84 190.956403 
L 62.84 173.39493 
L 62.84 154.013971 
L 62.84 133.590571 
L 62.84 113.137869 
L 62.84 93.757994 
L 62.84 76.198006 
L 62.84 60.808896 
L 62.84 47.600163 
L 62.84 36.380776 
L 62.84 26.88 
z
M 325.336667 26.88 
L 349.2 26.88 
L 349.2 36.380776 
L 349.2 47.600163 
L 349.2 60.808896 
L 349.2 76.198006 
L 349.2 93.757994 
L 349.2 113.137869 
L 349.2 133.590571 
L 349.2 154.013971 
L 349.2 173.39493 
L 349.2 190.956403 
L 349.2 206.347113 
L 349.2 219.557363 
L 349.2 230.778089 
L 349.2 240.28 
L 325.336667 240.28 
L 324.36032 240.28 
L 324.326922 230.778089 
L 324.262023 219.557363 
L 324.202163 206.347113 
L 324.187537 190.956403 
L 324.279059 173.39493 
L 324.177795 154.013971 
L 324.396541 133.590571 
L 324.45439 113.137869 
L 324.522692 93.757994 
L 323.844779 76.198006 
L 324.472106 60.808896 
L 324.02525 47.600163 
L 324.001764 36.380776 
L 324.135242 26.88 
z
" clip-path="url(#p37dc0060fd)" style="fill: #460a5d"/>
    <path d="M 90.381139 36.380776 
L 90.33253 47.600163 
L 89.285435 60.808896 
L 89.904359 76.198006 
L 88.83068 93.757994 
L 90.032436 113.137869 
L 89.391107 133.590571 
L 91.03331 154.013971 
L 89.562431 173.39493 
L 90.04623 190.956403 
L 90.584982 206.347113 
L 90.216697 219.557363 
L 91.057838 230.778089 
L 91.440778 240.28 
L 88.259 240.28 
L 88.133252 230.778089 
L 87.85704 219.557363 
L 87.977977 206.347113 
L 87.801063 190.956403 
L 87.642195 173.39493 
L 88.125197 154.013971 
L 87.585936 133.590571 
L 87.796533 113.137869 
L 87.401904 93.757994 
L 87.754476 76.198006 
L 87.551236 60.808896 
L 87.895077 47.600163 
L 87.911039 36.380776 
L 87.720257 26.88 
L 89.800153 26.88 
z
M 324.001764 36.380776 
L 324.02525 47.600163 
L 324.472106 60.808896 
L 323.844779 76.198006 
L 324.522692 93.757994 
L 324.45439 113.137869 
L 324.396541 133.590571 
L 324.177795 154.013971 
L 324.279059 173.39493 
L 324.187537 190.956403 
L 324.202163 206.347113 
L 324.262023 219.557363 
L 324.326922 230.778089 
L 324.36032 240.28 
L 322.363415 240.28 
L 322.26171 230.778089 
L 322.064074 219.557363 
L 321.881782 206.347113 
L 321.837241 190.956403 
L 322.115952 173.39493 
L 321.807576 154.013971 
L 322.47372 133.590571 
L 322.649886 113.137869 
L 322.857883 93.757994 
L 320.793449 76.198006 
L 322.703834 60.808896 
L 321.343032 47.600163 
L 321.271512 36.380776 
L 321.677989 26.88 
L 324.135242 26.88 
z
" clip-path="url(#p37dc0060fd)" style="fill: #481b6d"/>
    <path d="M 92.851238 36.380776 
L 92.769983 47.600163 
L 91.019635 60.808896 
L 92.054243 76.198006 
L 90.259455 93.757994 
L 92.268338 113.137869 
L 91.196279 133.590571 
L 93.941422 154.013971 
L 91.482667 173.39493 
L 92.291397 190.956403 
L 93.191988 206.347113 
L 92.576354 219.557363 
L 93.982425 230.778089 
L 94.622556 240.28 
L 91.440778 240.28 
L 91.057838 230.778089 
L 90.216697 219.557363 
L 90.584982 206.347113 
L 90.04623 190.956403 
L 89.562431 173.39493 
L 91.03331 154.013971 
L 89.391107 133.590571 
L 90.032436 113.137869 
L 88.83068 93.757994 
L 89.904359 76.198006 
L 89.285435 60.808896 
L 90.33253 47.600163 
L 90.381139 36.380776 
L 89.800153 26.88 
L 91.880049 26.88 
z
M 321.271512 36.380776 
L 321.343032 47.600163 
L 322.703834 60.808896 
L 320.793449 76.198006 
L 322.857883 93.757994 
L 322.649886 113.137869 
L 322.47372 133.590571 
L 321.807576 154.013971 
L 322.115952 173.39493 
L 321.837241 190.956403 
L 321.881782 206.347113 
L 322.064074 219.557363 
L 322.26171 230.778089 
L 322.363415 240.28 
L 320.36651 240.28 
L 320.196498 230.778089 
L 319.866125 219.557363 
L 319.561402 206.347113 
L 319.486946 190.956403 
L 319.952846 173.39493 
L 319.437357 154.013971 
L 320.550899 133.590571 
L 320.845382 113.137869 
L 321.193074 93.757994 
L 317.742118 76.198006 
L 320.935563 60.808896 
L 318.660814 47.600163 
L 318.54126 36.380776 
L 319.220736 26.88 
L 321.677989 26.88 
z
" clip-path="url(#p37dc0060fd)" style="fill: #472a7a"/>
    <path d="M 95.321338 36.380776 
L 95.207436 47.600163 
L 92.753834 60.808896 
L 94.204126 76.198006 
L 91.68823 93.757994 
L 94.50424 113.137869 
L 93.00145 133.590571 
L 96.849535 154.013971 
L 93.402903 173.39493 
L 94.536564 190.956403 
L 95.798993 206.347113 
L 94.93601 219.557363 
L 96.907011 230.778089 
L 97.804334 240.28 
L 94.622556 240.28 
L 93.982425 230.778089 
L 92.576354 219.557363 
L 93.191988 206.347113 
L 92.291397 190.956403 
L 91.482667 173.39493 
L 93.941422 154.013971 
L 91.196279 133.590571 
L 92.268338 113.137869 
L 90.259455 93.757994 
L 92.054243 76.198006 
L 91.019635 60.808896 
L 92.769983 47.600163 
L 92.851238 36.380776 
L 91.880049 26.88 
L 93.959945 26.88 
z
M 318.54126 36.380776 
L 318.660814 47.600163 
L 320.935563 60.808896 
L 317.742118 76.198006 
L 321.193074 93.757994 
L 320.845382 113.137869 
L 320.550899 133.590571 
L 319.437357 154.013971 
L 319.952846 173.39493 
L 319.486946 190.956403 
L 319.561402 206.347113 
L 319.866125 219.557363 
L 320.196498 230.778089 
L 320.36651 240.28 
L 318.369605 240.28 
L 318.131286 230.778089 
L 317.668176 219.557363 
L 317.241021 206.347113 
L 317.136651 190.956403 
L 317.789739 173.39493 
L 317.067137 154.013971 
L 318.628078 133.590571 
L 319.040877 113.137869 
L 319.528266 93.757994 
L 314.690788 76.198006 
L 319.167292 60.808896 
L 315.978596 47.600163 
L 315.811008 36.380776 
L 316.763483 26.88 
L 319.220736 26.88 
z
" clip-path="url(#p37dc0060fd)" style="fill: #443983"/>
    <path d="M 97.791437 36.380776 
L 97.644889 47.600163 
L 94.488034 60.808896 
L 96.35401 76.198006 
L 93.117005 93.757994 
L 96.740142 113.137869 
L 94.806622 133.590571 
L 99.757647 154.013971 
L 95.323139 173.39493 
L 96.781731 190.956403 
L 98.405999 206.347113 
L 97.295667 219.557363 
L 99.831598 230.778089 
L 100.986111 240.28 
L 97.804334 240.28 
L 96.907011 230.778089 
L 94.93601 219.557363 
L 95.798993 206.347113 
L 94.536564 190.956403 
L 93.402903 173.39493 
L 96.849535 154.013971 
L 93.00145 133.590571 
L 94.50424 113.137869 
L 91.68823 93.757994 
L 94.204126 76.198006 
L 92.753834 60.808896 
L 95.207436 47.600163 
L 95.321338 36.380776 
L 93.959945 26.88 
L 96.039841 26.88 
z
M 315.811008 36.380776 
L 315.978596 47.600163 
L 319.167292 60.808896 
L 314.690788 76.198006 
L 319.528266 93.757994 
L 319.040877 113.137869 
L 318.628078 133.590571 
L 317.067137 154.013971 
L 317.789739 173.39493 
L 317.136651 190.956403 
L 317.241021 206.347113 
L 317.668176 219.557363 
L 318.131286 230.778089 
L 318.369605 240.28 
L 316.3727 240.28 
L 316.066074 230.778089 
L 315.470227 219.557363 
L 314.920641 206.347113 
L 314.786355 190.956403 
L 315.626633 173.39493 
L 314.696918 154.013971 
L 316.705256 133.590571 
L 317.236373 113.137869 
L 317.863457 93.757994 
L 311.639457 76.198006 
L 317.399021 60.808896 
L 313.296378 47.600163 
L 313.080756 36.380776 
L 314.306231 26.88 
L 316.763483 26.88 
z
" clip-path="url(#p37dc0060fd)" style="fill: #3f4788"/>
    <path d="M 100.261536 36.380776 
L 100.082341 47.600163 
L 96.222233 60.808896 
L 98.503893 76.198006 
L 94.54578 93.757994 
L 98.976045 113.137869 
L 96.611793 133.590571 
L 102.66576 154.013971 
L 97.243375 173.39493 
L 99.026898 190.956403 
L 101.013004 206.347113 
L 99.655323 219.557363 
L 102.756185 230.778089 
L 104.167889 240.28 
L 100.986111 240.28 
L 99.831598 230.778089 
L 97.295667 219.557363 
L 98.405999 206.347113 
L 96.781731 190.956403 
L 95.323139 173.39493 
L 99.757647 154.013971 
L 94.806622 133.590571 
L 96.740142 113.137869 
L 93.117005 93.757994 
L 96.35401 76.198006 
L 94.488034 60.808896 
L 97.644889 47.600163 
L 97.791437 36.380776 
L 96.039841 26.88 
L 98.119737 26.88 
z
M 313.080756 36.380776 
L 313.296378 47.600163 
L 317.399021 60.808896 
L 311.639457 76.198006 
L 317.863457 93.757994 
L 317.236373 113.137869 
L 316.705256 133.590571 
L 314.696918 154.013971 
L 315.626633 173.39493 
L 314.786355 190.956403 
L 314.920641 206.347113 
L 315.470227 219.557363 
L 316.066074 230.778089 
L 316.3727 240.28 
L 314.375795 240.28 
L 314.000862 230.778089 
L 313.272278 219.557363 
L 312.60026 206.347113 
L 312.43606 190.956403 
L 313.463526 173.39493 
L 312.326699 154.013971 
L 314.782435 133.590571 
L 315.431869 113.137869 
L 316.198648 93.757994 
L 308.588127 76.198006 
L 315.63075 60.808896 
L 310.61416 47.600163 
L 310.350505 36.380776 
L 311.848978 26.88 
L 314.306231 26.88 
z
" clip-path="url(#p37dc0060fd)" style="fill: #39558c"/>
    <path d="M 102.731636 36.380776 
L 102.519794 47.600163 
L 97.956433 60.808896 
L 100.653776 76.198006 
L 95.974555 93.757994 
L 101.211947 113.137869 
L 98.416965 133.590571 
L 105.573872 154.013971 
L 99.163611 173.39493 
L 101.272065 190.956403 
L 103.620009 206.347113 
L 102.01498 219.557363 
L 105.680771 230.778089 
L 107.349667 240.28 
L 104.167889 240.28 
L 102.756185 230.778089 
L 99.655323 219.557363 
L 101.013004 206.347113 
L 99.026898 190.956403 
L 97.243375 173.39493 
L 102.66576 154.013971 
L 96.611793 133.590571 
L 98.976045 113.137869 
L 94.54578 93.757994 
L 98.503893 76.198006 
L 96.222233 60.808896 
L 100.082341 47.600163 
L 100.261536 36.380776 
L 98.119737 26.88 
L 100.199632 26.88 
z
M 310.350505 36.380776 
L 310.61416 47.600163 
L 315.63075 60.808896 
L 308.588127 76.198006 
L 316.198648 93.757994 
L 315.431869 113.137869 
L 314.782435 133.590571 
L 312.326699 154.013971 
L 313.463526 173.39493 
L 312.43606 190.956403 
L 312.60026 206.347113 
L 313.272278 219.557363 
L 314.000862 230.778089 
L 314.375795 240.28 
L 312.37889 240.28 
L 311.93565 230.778089 
L 311.074329 219.557363 
L 310.279879 206.347113 
L 310.085765 190.956403 
L 311.300419 173.39493 
L 309.95648 154.013971 
L 312.859614 133.590571 
L 313.627364 113.137869 
L 314.533839 93.757994 
L 305.536796 76.198006 
L 313.862479 60.808896 
L 307.931942 47.600163 
L 307.620253 36.380776 
L 309.391725 26.88 
L 311.848978 26.88 
z
" clip-path="url(#p37dc0060fd)" style="fill: #33628d"/>
    <path d="M 105.201735 36.380776 
L 104.957247 47.600163 
L 99.690632 60.808896 
L 102.80366 76.198006 
L 97.40333 93.757994 
L 103.447849 113.137869 
L 100.222136 133.590571 
L 108.481985 154.013971 
L 101.083847 173.39493 
L 103.517232 190.956403 
L 106.227015 206.347113 
L 104.374636 219.557363 
L 108.605358 230.778089 
L 110.531445 240.28 
L 107.349667 240.28 
L 105.680771 230.778089 
L 102.01498 219.557363 
L 103.620009 206.347113 
L 101.272065 190.956403 
L 99.163611 173.39493 
L 105.573872 154.013971 
L 98.416965 133.590571 
L 101.211947 113.137869 
L 95.974555 93.757994 
L 100.653776 76.198006 
L 97.956433 60.808896 
L 102.519794 47.600163 
L 102.731636 36.380776 
L 100.199632 26.88 
L 102.279528 26.88 
z
M 307.620253 36.380776 
L 307.931942 47.600163 
L 313.862479 60.808896 
L 305.536796 76.198006 
L 314.533839 93.757994 
L 313.627364 113.137869 
L 312.859614 133.590571 
L 309.95648 154.013971 
L 311.300419 173.39493 
L 310.085765 190.956403 
L 310.279879 206.347113 
L 311.074329 219.557363 
L 311.93565 230.778089 
L 312.37889 240.28 
L 310.381986 240.28 
L 309.870438 230.778089 
L 308.87638 219.557363 
L 307.959499 206.347113 
L 307.735469 190.956403 
L 309.137313 173.39493 
L 307.586261 154.013971 
L 310.936792 133.590571 
L 311.82286 113.137869 
L 312.869031 93.757994 
L 302.485466 76.198006 
L 312.094207 60.808896 
L 305.249724 47.600163 
L 304.890001 36.380776 
L 306.934472 26.88 
L 309.391725 26.88 
z
" clip-path="url(#p37dc0060fd)" style="fill: #2e6e8e"/>
    <path d="M 107.671835 36.380776 
L 107.3947 47.600163 
L 101.424832 60.808896 
L 104.953543 76.198006 
L 98.832105 93.757994 
L 105.683751 113.137869 
L 102.027308 133.590571 
L 110.566667 152.860544 
L 113.231448 154.013971 
L 110.566667 155.313911 
L 103.004083 173.39493 
L 105.762399 190.956403 
L 108.83402 206.347113 
L 106.734293 219.557363 
L 110.566667 228.886201 
L 113.328123 230.778089 
L 120.865332 240.28 
L 110.566667 240.28 
L 110.531445 240.28 
L 108.605358 230.778089 
L 104.374636 219.557363 
L 106.227015 206.347113 
L 103.517232 190.956403 
L 101.083847 173.39493 
L 108.481985 154.013971 
L 100.222136 133.590571 
L 103.447849 113.137869 
L 97.40333 93.757994 
L 102.80366 76.198006 
L 99.690632 60.808896 
L 104.957247 47.600163 
L 105.201735 36.380776 
L 102.279528 26.88 
L 104.359424 26.88 
z
M 304.890001 36.380776 
L 305.249724 47.600163 
L 312.094207 60.808896 
L 302.485466 76.198006 
L 312.869031 93.757994 
L 311.82286 113.137869 
L 310.936792 133.590571 
L 307.586261 154.013971 
L 309.137313 173.39493 
L 307.735469 190.956403 
L 307.959499 206.347113 
L 308.87638 219.557363 
L 309.870438 230.778089 
L 310.381986 240.28 
L 308.385081 240.28 
L 307.805226 230.778089 
L 306.678431 219.557363 
L 305.639118 206.347113 
L 305.385174 190.956403 
L 306.974206 173.39493 
L 305.216041 154.013971 
L 309.013971 133.590571 
L 310.018356 113.137869 
L 311.204222 93.757994 
L 301.473333 77.999738 
L 277.61 77.514906 
L 271.816302 76.198006 
L 277.61 74.824796 
L 301.473333 74.385648 
L 310.325936 60.808896 
L 302.567506 47.600163 
L 302.159749 36.380776 
L 304.47722 26.88 
L 306.934472 26.88 
z
" clip-path="url(#p37dc0060fd)" style="fill: #29798e"/>
    <path d="M 110.141934 36.380776 
L 109.832152 47.600163 
L 103.159031 60.808896 
L 107.103427 76.198006 
L 100.26088 93.757994 
L 107.919654 113.137869 
L 103.832479 133.590571 
L 110.566667 148.786982 
L 122.642662 154.013971 
L 110.566667 159.904911 
L 104.924319 173.39493 
L 108.007566 190.956403 
L 110.566667 202.848054 
L 116.993929 206.347113 
L 110.566667 210.96463 
L 109.093949 219.557363 
L 110.566667 223.142279 
L 121.712122 230.778089 
L 131.279279 240.28 
L 120.865332 240.28 
L 113.328123 230.778089 
L 110.566667 228.886201 
L 106.734293 219.557363 
L 108.83402 206.347113 
L 105.762399 190.956403 
L 103.004083 173.39493 
L 110.566667 155.313911 
L 113.231448 154.013971 
L 110.566667 152.860544 
L 102.027308 133.590571 
L 105.683751 113.137869 
L 98.832105 93.757994 
L 104.953543 76.198006 
L 101.424832 60.808896 
L 107.3947 47.600163 
L 107.671835 36.380776 
L 104.359424 26.88 
L 106.43932 26.88 
z
M 277.61 35.125261 
L 301.473333 29.056535 
L 302.019967 26.88 
L 304.47722 26.88 
L 302.159749 36.380776 
L 302.567506 47.600163 
L 310.325936 60.808896 
L 301.473333 74.385648 
L 277.61 74.824796 
L 271.816302 76.198006 
L 277.61 77.514906 
L 301.473333 77.999738 
L 311.204222 93.757994 
L 310.018356 113.137869 
L 309.013971 133.590571 
L 305.216041 154.013971 
L 306.974206 173.39493 
L 305.385174 190.956403 
L 305.639118 206.347113 
L 306.678431 219.557363 
L 307.805226 230.778089 
L 308.385081 240.28 
L 306.388176 240.28 
L 305.740013 230.778089 
L 304.480482 219.557363 
L 303.318738 206.347113 
L 303.034879 190.956403 
L 304.8111 173.39493 
L 302.845822 154.013971 
L 307.09115 133.590571 
L 308.213852 113.137869 
L 309.539413 93.757994 
L 301.473333 80.695738 
L 277.61 79.678468 
L 262.297718 76.198006 
L 277.61 72.568721 
L 301.473333 71.673747 
L 308.557665 60.808896 
L 301.473333 49.300836 
L 289.242634 47.600163 
L 277.61 41.494271 
L 262.542005 36.380776 
z
" clip-path="url(#p37dc0060fd)" style="fill: #25848e"/>
    <path d="M 110.566667 32.040177 
L 134.43 33.293925 
L 158.293333 34.99932 
L 176.030055 36.380776 
L 158.293333 39.901261 
L 134.43 44.175255 
L 125.581398 47.600163 
L 110.566667 49.924592 
L 104.893231 60.808896 
L 109.25331 76.198006 
L 101.689655 93.757994 
L 110.155556 113.137869 
L 105.637651 133.590571 
L 110.566667 144.71342 
L 132.053876 154.013971 
L 110.566667 164.495912 
L 106.844555 173.39493 
L 110.252733 190.956403 
L 110.566667 192.415194 
L 134.43 205.584075 
L 135.551577 206.347113 
L 134.43 207.083561 
L 115.280615 219.557363 
L 130.09612 230.778089 
L 134.43 234.822767 
L 142.449139 240.28 
L 134.43 240.28 
L 131.279279 240.28 
L 121.712122 230.778089 
L 110.566667 223.142279 
L 109.093949 219.557363 
L 110.566667 210.96463 
L 116.993929 206.347113 
L 110.566667 202.848054 
L 108.007566 190.956403 
L 104.924319 173.39493 
L 110.566667 159.904911 
L 122.642662 154.013971 
L 110.566667 148.786982 
L 103.832479 133.590571 
L 107.919654 113.137869 
L 100.26088 93.757994 
L 107.103427 76.198006 
L 103.159031 60.808896 
L 109.832152 47.600163 
L 110.141934 36.380776 
L 106.43932 26.88 
L 108.519216 26.88 
z
M 206.02 35.437106 
L 229.883333 32.263426 
L 253.746667 33.39977 
L 277.61 32.462959 
L 295.01857 26.88 
L 301.473333 26.88 
L 302.019967 26.88 
L 301.473333 29.056535 
L 277.61 35.125261 
L 262.542005 36.380776 
L 277.61 41.494271 
L 289.242634 47.600163 
L 301.473333 49.300836 
L 308.557665 60.808896 
L 301.473333 71.673747 
L 277.61 72.568721 
L 262.297718 76.198006 
L 277.61 79.678468 
L 301.473333 80.695738 
L 309.539413 93.757994 
L 308.213852 113.137869 
L 307.09115 133.590571 
L 302.845822 154.013971 
L 304.8111 173.39493 
L 303.034879 190.956403 
L 303.318738 206.347113 
L 304.480482 219.557363 
L 305.740013 230.778089 
L 306.388176 240.28 
L 304.391271 240.28 
L 303.674801 230.778089 
L 302.282533 219.557363 
L 301.473333 211.067483 
L 298.655331 206.347113 
L 298.131521 190.956403 
L 301.473333 184.248801 
L 302.647993 173.39493 
L 301.473333 162.477055 
L 298.21194 154.013971 
L 301.473333 150.344063 
L 305.168328 133.590571 
L 306.409347 113.137869 
L 307.874605 93.757994 
L 301.473333 83.391739 
L 277.61 81.842031 
L 253.746667 76.418917 
L 251.22469 76.198006 
L 253.746667 75.884758 
L 277.61 70.312647 
L 301.473333 68.961847 
L 306.789394 60.808896 
L 301.473333 52.173283 
L 277.61 48.841338 
L 263.757178 47.600163 
L 253.746667 44.195765 
L 229.883333 43.218811 
L 206.02 39.296381 
L 190.125643 36.380776 
z
M 134.43 76.021095 
L 134.955383 76.198006 
L 134.43 76.314269 
L 132.830139 76.198006 
z
" clip-path="url(#p37dc0060fd)" style="fill: #21918c"/>
    <path d="M 110.566667 26.88 
L 110.953385 26.88 
L 134.43 29.999668 
L 158.293333 32.951238 
L 182.156667 33.022792 
L 206.02 33.406419 
L 229.883333 27.695564 
L 253.746667 29.286497 
L 277.61 29.800656 
L 286.71708 26.88 
L 295.01857 26.88 
L 277.61 32.462959 
L 253.746667 33.39977 
L 229.883333 32.263426 
L 206.02 35.437106 
L 190.125643 36.380776 
L 206.02 39.296381 
L 229.883333 43.218811 
L 253.746667 44.195765 
L 263.757178 47.600163 
L 277.61 48.841338 
L 301.473333 52.173283 
L 306.789394 60.808896 
L 301.473333 68.961847 
L 277.61 70.312647 
L 253.746667 75.884758 
L 251.22469 76.198006 
L 253.746667 76.418917 
L 277.61 81.842031 
L 301.473333 83.391739 
L 307.874605 93.757994 
L 306.409347 113.137869 
L 305.168328 133.590571 
L 301.473333 150.344063 
L 298.21194 154.013971 
L 301.473333 162.477055 
L 302.647993 173.39493 
L 301.473333 184.248801 
L 298.131521 190.956403 
L 298.655331 206.347113 
L 301.473333 211.067483 
L 302.282533 219.557363 
L 303.674801 230.778089 
L 304.391271 240.28 
L 302.394366 240.28 
L 301.609589 230.778089 
L 301.473333 229.717197 
L 292.801257 219.557363 
L 284.888667 206.347113 
L 288.17368 190.956403 
L 293.465774 173.39493 
L 290.464138 154.013971 
L 301.473333 141.625791 
L 303.245507 133.590571 
L 304.604843 113.137869 
L 306.209796 93.757994 
L 301.473333 86.08774 
L 277.61 84.005593 
L 253.746667 78.592241 
L 229.883333 76.620586 
L 225.363329 76.198006 
L 229.883333 75.629741 
L 253.746667 72.80302 
L 277.61 68.056572 
L 301.473333 66.249946 
L 305.021123 60.808896 
L 301.473333 55.045731 
L 277.61 51.68229 
L 253.746667 49.575259 
L 229.883333 48.971257 
L 216.368783 47.600163 
L 206.02 45.57049 
L 183.259713 47.600163 
L 182.156667 47.641474 
L 181.394318 47.600163 
L 158.293333 45.120571 
L 147.63168 47.600163 
L 134.43 49.910615 
L 110.566667 53.251598 
L 106.62743 60.808896 
L 110.566667 73.947407 
L 134.43 71.991166 
L 146.923304 76.198006 
L 134.43 78.96267 
L 110.566667 77.417659 
L 103.11843 93.757994 
L 110.566667 110.514527 
L 122.143311 113.137869 
L 110.566667 119.692456 
L 107.442822 133.590571 
L 110.566667 140.639859 
L 134.43 149.045602 
L 140.626634 154.013971 
L 134.43 160.004916 
L 110.566667 169.086912 
L 108.764791 173.39493 
L 110.566667 182.557393 
L 123.489908 190.956403 
L 134.43 197.119842 
L 147.993015 206.347113 
L 134.43 215.25284 
L 127.821833 219.557363 
L 134.43 225.411243 
L 139.580859 230.778089 
L 153.946907 240.28 
L 142.449139 240.28 
L 134.43 234.822767 
L 130.09612 230.778089 
L 115.280615 219.557363 
L 134.43 207.083561 
L 135.551577 206.347113 
L 134.43 205.584075 
L 110.566667 192.415194 
L 110.252733 190.956403 
L 106.844555 173.39493 
L 110.566667 164.495912 
L 132.053876 154.013971 
L 110.566667 144.71342 
L 105.637651 133.590571 
L 110.155556 113.137869 
L 101.689655 93.757994 
L 109.25331 76.198006 
L 104.893231 60.808896 
L 110.566667 49.924592 
L 125.581398 47.600163 
L 134.43 44.175255 
L 158.293333 39.901261 
L 176.030055 36.380776 
L 158.293333 34.99932 
L 134.43 33.293925 
L 110.566667 32.040177 
L 108.519216 26.88 
z
M 132.830139 76.198006 
L 134.43 76.314269 
L 134.955383 76.198006 
L 134.43 76.021095 
z
M 182.156667 237.636751 
L 199.501547 240.28 
L 182.156667 240.28 
L 169.212521 240.28 
z
M 229.883333 237.731224 
L 253.746667 239.840985 
L 277.61 238.172548 
L 287.570822 240.28 
L 277.61 240.28 
L 253.746667 240.28 
L 229.883333 240.28 
L 211.166204 240.28 
z
" clip-path="url(#p37dc0060fd)" style="fill: #1e9c89"/>
    <path d="M 134.43 26.88 
L 135.056917 26.88 
L 158.293333 30.903156 
L 182.156667 28.644777 
L 206.02 31.375732 
L 223.425211 26.88 
L 229.883333 26.88 
L 253.746667 26.88 
L 273.086947 26.88 
L 277.61 27.138354 
L 278.41559 26.88 
L 286.71708 26.88 
L 277.61 29.800656 
L 253.746667 29.286497 
L 229.883333 27.695564 
L 206.02 33.406419 
L 182.156667 33.022792 
L 158.293333 32.951238 
L 134.43 29.999668 
L 110.953385 26.88 
z
M 158.293333 45.120571 
L 181.394318 47.600163 
L 182.156667 47.641474 
L 183.259713 47.600163 
L 206.02 45.57049 
L 216.368783 47.600163 
L 229.883333 48.971257 
L 253.746667 49.575259 
L 277.61 51.68229 
L 301.473333 55.045731 
L 305.021123 60.808896 
L 301.473333 66.249946 
L 277.61 68.056572 
L 253.746667 72.80302 
L 229.883333 75.629741 
L 225.363329 76.198006 
L 229.883333 76.620586 
L 253.746667 78.592241 
L 277.61 84.005593 
L 301.473333 86.08774 
L 306.209796 93.757994 
L 304.604843 113.137869 
L 303.245507 133.590571 
L 301.473333 141.625791 
L 290.464138 154.013971 
L 293.465774 173.39493 
L 288.17368 190.956403 
L 284.888667 206.347113 
L 292.801257 219.557363 
L 301.473333 229.717197 
L 301.609589 230.778089 
L 302.394366 240.28 
L 301.473333 240.28 
L 287.570822 240.28 
L 277.61 238.172548 
L 253.746667 239.840985 
L 229.883333 237.731224 
L 211.166204 240.28 
L 206.02 240.28 
L 199.501547 240.28 
L 182.156667 237.636751 
L 169.212521 240.28 
L 158.293333 240.28 
L 153.946907 240.28 
L 139.580859 230.778089 
L 134.43 225.411243 
L 127.821833 219.557363 
L 134.43 215.25284 
L 147.993015 206.347113 
L 134.43 197.119842 
L 123.489908 190.956403 
L 110.566667 182.557393 
L 108.764791 173.39493 
L 110.566667 169.086912 
L 134.43 160.004916 
L 140.626634 154.013971 
L 134.43 149.045602 
L 110.566667 140.639859 
L 107.442822 133.590571 
L 110.566667 119.692456 
L 122.143311 113.137869 
L 110.566667 110.514527 
L 103.11843 93.757994 
L 110.566667 77.417659 
L 134.43 78.96267 
L 146.923304 76.198006 
L 134.43 71.991166 
L 110.566667 73.947407 
L 106.62743 60.808896 
L 110.566667 53.251598 
L 134.43 49.910615 
L 147.63168 47.600163 
z
M 108.36163 60.808896 
L 110.566667 68.163342 
L 134.43 67.961237 
L 158.293333 75.812796 
L 159.431338 76.198006 
L 158.293333 76.323875 
L 134.43 81.611072 
L 110.566667 80.552181 
L 104.547205 93.757994 
L 110.566667 107.300167 
L 134.43 112.58849 
L 135.579009 113.137869 
L 134.43 115.013524 
L 110.566667 127.723739 
L 109.247994 133.590571 
L 110.566667 136.566297 
L 134.43 142.399151 
L 148.916201 154.013971 
L 134.43 168.019321 
L 112.575043 173.39493 
L 134.43 185.891888 
L 138.298025 190.956403 
L 158.293333 204.667829 
L 179.102299 206.347113 
L 158.293333 207.30165 
L 138.638218 219.557363 
L 150.243456 230.778089 
L 158.293333 235.9879 
L 182.156667 231.738322 
L 206.02 236.414908 
L 229.883333 233.57016 
L 253.746667 235.619057 
L 277.61 231.795229 
L 281.090554 230.778089 
L 279.076114 219.557363 
L 277.61 217.116424 
L 265.635922 206.347113 
L 277.61 192.7161 
L 278.215839 190.956403 
L 277.61 184.108246 
L 276.773933 173.39493 
L 277.61 170.949232 
L 282.716337 154.013971 
L 300.455924 133.590571 
L 301.473333 131.621359 
L 302.800339 113.137869 
L 304.544987 93.757994 
L 301.473333 88.78374 
L 277.61 86.169155 
L 253.746667 80.765564 
L 229.883333 79.642251 
L 206.02 77.271582 
L 199.171921 76.198006 
L 206.02 74.423916 
L 229.883333 71.566347 
L 253.746667 69.721282 
L 277.61 65.800497 
L 301.473333 63.538045 
L 303.252852 60.808896 
L 301.473333 57.918178 
L 277.61 54.523243 
L 253.746667 52.461599 
L 229.883333 52.216753 
L 206.02 49.978033 
L 182.156667 50.276487 
L 158.293333 50.406378 
L 134.43 53.838198 
L 110.566667 56.578603 
z
M 229.883333 202.323742 
L 237.341571 206.347113 
L 229.883333 207.613381 
L 211.55652 206.347113 
z
" clip-path="url(#p37dc0060fd)" style="fill: #22a785"/>
    <path d="M 158.293333 28.855074 
L 173.033206 26.88 
L 182.156667 26.88 
L 190.022833 26.88 
L 206.02 29.345044 
L 215.563412 26.88 
L 223.425211 26.88 
L 206.02 31.375732 
L 182.156667 28.644777 
L 158.293333 30.903156 
L 135.056917 26.88 
L 146.885962 26.88 
z
M 277.61 26.88 
L 278.41559 26.88 
L 277.61 27.138354 
L 273.086947 26.88 
z
M 110.566667 56.578603 
L 134.43 53.838198 
L 158.293333 50.406378 
L 182.156667 50.276487 
L 206.02 49.978033 
L 229.883333 52.216753 
L 253.746667 52.461599 
L 277.61 54.523243 
L 301.473333 57.918178 
L 303.252852 60.808896 
L 301.473333 63.538045 
L 277.61 65.800497 
L 253.746667 69.721282 
L 229.883333 71.566347 
L 206.02 74.423916 
L 199.171921 76.198006 
L 206.02 77.271582 
L 229.883333 79.642251 
L 253.746667 80.765564 
L 277.61 86.169155 
L 301.473333 88.78374 
L 304.544987 93.757994 
L 302.800339 113.137869 
L 301.473333 131.621359 
L 300.455924 133.590571 
L 282.716337 154.013971 
L 277.61 170.949232 
L 276.773933 173.39493 
L 277.61 184.108246 
L 278.215839 190.956403 
L 277.61 192.7161 
L 265.635922 206.347113 
L 277.61 217.116424 
L 279.076114 219.557363 
L 281.090554 230.778089 
L 277.61 231.795229 
L 253.746667 235.619057 
L 229.883333 233.57016 
L 206.02 236.414908 
L 182.156667 231.738322 
L 158.293333 235.9879 
L 150.243456 230.778089 
L 138.638218 219.557363 
L 158.293333 207.30165 
L 179.102299 206.347113 
L 158.293333 204.667829 
L 138.298025 190.956403 
L 134.43 185.891888 
L 112.575043 173.39493 
L 134.43 168.019321 
L 148.916201 154.013971 
L 134.43 142.399151 
L 110.566667 136.566297 
L 109.247994 133.590571 
L 110.566667 127.723739 
L 134.43 115.013524 
L 135.579009 113.137869 
L 134.43 112.58849 
L 110.566667 107.300167 
L 104.547205 93.757994 
L 110.566667 80.552181 
L 134.43 81.611072 
L 158.293333 76.323875 
L 159.431338 76.198006 
L 158.293333 75.812796 
L 134.43 67.961237 
L 110.566667 68.163342 
L 108.36163 60.808896 
z
M 110.095829 60.808896 
L 110.566667 62.379277 
L 134.43 63.931308 
L 158.293333 68.102098 
L 182.156667 76.185851 
L 206.02 70.005409 
L 229.883333 67.502953 
L 253.746667 66.639545 
L 277.61 63.544422 
L 301.473333 60.826145 
L 301.48458 60.808896 
L 301.473333 60.790626 
L 277.61 57.364195 
L 253.746667 55.347939 
L 229.883333 55.462248 
L 206.02 53.492993 
L 182.156667 52.911499 
L 158.293333 55.752366 
L 134.43 57.765781 
L 110.566667 59.905609 
z
M 105.97598 93.757994 
L 110.566667 104.085806 
L 134.43 108.482865 
L 144.165804 113.137869 
L 134.43 129.030702 
L 121.378941 133.590571 
L 134.43 135.752699 
L 157.205767 154.013971 
L 137.657276 173.39493 
L 152.527839 190.956403 
L 158.293333 194.909987 
L 176.547817 190.956403 
L 182.156667 189.877576 
L 188.366107 190.956403 
L 206.02 195.180261 
L 217.238565 190.956403 
L 229.883333 184.368966 
L 245.687914 190.956403 
L 253.746667 195.213172 
L 257.995147 190.956403 
L 267.989794 173.39493 
L 273.269551 154.013971 
L 277.61 147.685242 
L 287.470008 133.590571 
L 299.139261 113.137869 
L 301.473333 108.516466 
L 302.880179 93.757994 
L 301.473333 91.479741 
L 277.61 88.332717 
L 253.746667 82.938887 
L 229.883333 82.663917 
L 206.02 79.945405 
L 182.156667 76.2046 
L 158.293333 78.843371 
L 134.43 84.259473 
L 110.566667 83.686703 
z
M 211.55652 206.347113 
L 229.883333 207.613381 
L 237.341571 206.347113 
L 229.883333 202.323742 
z
M 147.533501 219.557363 
L 158.293333 228.887952 
L 182.156667 224.693207 
L 201.184083 230.778089 
L 206.02 231.767058 
L 215.392133 230.778089 
L 229.883333 228.014209 
L 246.390121 230.778089 
L 253.746667 231.397129 
L 257.291242 230.778089 
L 267.576563 219.557363 
L 253.746667 210.333383 
L 229.883333 213.565528 
L 206.02 211.569768 
L 182.156667 214.005488 
L 158.293333 212.848198 
z
" clip-path="url(#p37dc0060fd)" style="fill: #2db27d"/>
    <path d="M 158.293333 26.88 
L 173.033206 26.88 
L 158.293333 28.855074 
L 146.885962 26.88 
z
M 206.02 27.314357 
L 207.701612 26.88 
L 215.563412 26.88 
L 206.02 29.345044 
L 190.022833 26.88 
L 203.201193 26.88 
z
M 110.566667 59.905609 
L 134.43 57.765781 
L 158.293333 55.752366 
L 182.156667 52.911499 
L 206.02 53.492993 
L 229.883333 55.462248 
L 253.746667 55.347939 
L 277.61 57.364195 
L 301.473333 60.790626 
L 301.48458 60.808896 
L 301.473333 60.826145 
L 277.61 63.544422 
L 253.746667 66.639545 
L 229.883333 67.502953 
L 206.02 70.005409 
L 182.156667 76.185851 
L 158.293333 68.102098 
L 134.43 63.931308 
L 110.566667 62.379277 
L 110.095829 60.808896 
z
M 158.923233 60.808896 
L 182.156667 71.05524 
L 206.02 65.586901 
L 229.883333 63.439559 
L 253.746667 63.557807 
L 277.61 61.288348 
L 281.814548 60.808896 
L 277.61 60.205148 
L 253.746667 58.234279 
L 229.883333 58.707744 
L 206.02 57.007952 
L 182.156667 55.546512 
z
M 110.566667 83.686703 
L 134.43 84.259473 
L 158.293333 78.843371 
L 182.156667 76.2046 
L 206.02 79.945405 
L 229.883333 82.663917 
L 253.746667 82.938887 
L 277.61 88.332717 
L 301.473333 91.479741 
L 302.880179 93.757994 
L 301.473333 108.516466 
L 299.139261 113.137869 
L 287.470008 133.590571 
L 277.61 147.685242 
L 273.269551 154.013971 
L 267.989794 173.39493 
L 257.995147 190.956403 
L 253.746667 195.213172 
L 245.687914 190.956403 
L 229.883333 184.368966 
L 217.238565 190.956403 
L 206.02 195.180261 
L 188.366107 190.956403 
L 182.156667 189.877576 
L 176.547817 190.956403 
L 158.293333 194.909987 
L 152.527839 190.956403 
L 137.657276 173.39493 
L 157.205767 154.013971 
L 134.43 135.752699 
L 121.378941 133.590571 
L 134.43 129.030702 
L 144.165804 113.137869 
L 134.43 108.482865 
L 110.566667 104.085806 
L 105.97598 93.757994 
z
M 107.404755 93.757994 
L 110.566667 100.871446 
L 134.43 104.377239 
L 152.7526 113.137869 
L 141.721669 133.590571 
L 158.293333 146.627355 
L 182.156667 150.554357 
L 204.056095 154.013971 
L 182.156667 160.803187 
L 158.293333 162.543301 
L 147.45898 173.39493 
L 158.293333 184.812309 
L 182.156667 181.211747 
L 206.02 182.83803 
L 222.519197 173.39493 
L 210.316455 154.013971 
L 229.883333 150.309926 
L 236.357895 154.013971 
L 238.248129 173.39493 
L 253.746667 181.091278 
L 259.205655 173.39493 
L 260.538381 154.013971 
L 275.152553 133.590571 
L 277.61 130.662661 
L 290.318625 113.137869 
L 299.249212 93.757994 
L 277.61 90.496279 
L 253.746667 85.112211 
L 229.883333 85.685583 
L 206.02 82.619228 
L 182.156667 78.987869 
L 158.293333 81.362868 
L 134.43 86.907875 
L 110.566667 86.821225 
z
M 158.293333 212.848198 
L 182.156667 214.005488 
L 206.02 211.569768 
L 229.883333 213.565528 
L 253.746667 210.333383 
L 267.576563 219.557363 
L 257.291242 230.778089 
L 253.746667 231.397129 
L 246.390121 230.778089 
L 229.883333 228.014209 
L 215.392133 230.778089 
L 206.02 231.767058 
L 201.184083 230.778089 
L 182.156667 224.693207 
L 158.293333 228.887952 
L 147.533501 219.557363 
z
M 156.428785 219.557363 
L 158.293333 221.174241 
L 168.238058 219.557363 
L 158.293333 218.394746 
z
M 191.819755 219.557363 
L 206.02 223.527904 
L 229.883333 219.613377 
L 253.746667 221.94883 
L 256.343181 219.557363 
L 253.746667 217.825593 
L 229.883333 219.517676 
L 206.02 217.151133 
z
" clip-path="url(#p37dc0060fd)" style="fill: #3fbc73"/>
    <path d="M 206.02 26.88 
L 207.701612 26.88 
L 206.02 27.314357 
L 203.201193 26.88 
z
M 182.156667 55.546512 
L 206.02 57.007952 
L 229.883333 58.707744 
L 253.746667 58.234279 
L 277.61 60.205148 
L 281.814548 60.808896 
L 277.61 61.288348 
L 253.746667 63.557807 
L 229.883333 63.439559 
L 206.02 65.586901 
L 182.156667 71.05524 
L 158.923233 60.808896 
z
M 170.556817 60.808896 
L 182.156667 65.924629 
L 206.02 61.168394 
L 210.494109 60.808896 
L 206.02 60.522912 
L 182.156667 58.181524 
z
M 110.566667 86.821225 
L 134.43 86.907875 
L 158.293333 81.362868 
L 182.156667 78.987869 
L 206.02 82.619228 
L 229.883333 85.685583 
L 253.746667 85.112211 
L 277.61 90.496279 
L 299.249212 93.757994 
L 290.318625 113.137869 
L 277.61 130.662661 
L 275.152553 133.590571 
L 260.538381 154.013971 
L 259.205655 173.39493 
L 253.746667 181.091278 
L 238.248129 173.39493 
L 236.357895 154.013971 
L 229.883333 150.309926 
L 210.316455 154.013971 
L 222.519197 173.39493 
L 206.02 182.83803 
L 182.156667 181.211747 
L 158.293333 184.812309 
L 147.45898 173.39493 
L 158.293333 162.543301 
L 182.156667 160.803187 
L 204.056095 154.013971 
L 182.156667 150.554357 
L 158.293333 146.627355 
L 141.721669 133.590571 
L 152.7526 113.137869 
L 134.43 104.377239 
L 110.566667 100.871446 
L 107.404755 93.757994 
z
M 108.83353 93.757994 
L 110.566667 97.657086 
L 134.43 100.271614 
L 158.293333 111.529517 
L 171.069619 113.137869 
L 158.293333 121.307337 
L 152.529036 133.590571 
L 158.293333 138.125293 
L 182.156667 143.441007 
L 206.02 144.610127 
L 227.86749 133.590571 
L 229.883333 123.566671 
L 231.939363 133.590571 
L 253.746667 147.919136 
L 264.943614 133.590571 
L 277.61 118.499283 
L 281.497989 113.137869 
L 284.895481 93.757994 
L 277.61 92.659841 
L 253.746667 87.285534 
L 229.883333 88.707248 
L 206.02 85.29305 
L 182.156667 81.771138 
L 158.293333 83.882364 
L 134.43 89.556276 
L 110.566667 89.955747 
z
M 157.260685 173.39493 
L 158.293333 174.483148 
L 170.658163 173.39493 
L 158.293333 172.360635 
z
M 158.293333 218.394746 
L 168.238058 219.557363 
L 158.293333 221.174241 
L 156.428785 219.557363 
z
M 206.02 217.151133 
L 229.883333 219.517676 
L 253.746667 217.825593 
L 256.343181 219.557363 
L 253.746667 221.94883 
L 229.883333 219.613377 
L 206.02 223.527904 
L 191.819755 219.557363 
z
" clip-path="url(#p37dc0060fd)" style="fill: #56c667"/>
    <path d="M 182.156667 58.181524 
L 206.02 60.522912 
L 210.494109 60.808896 
L 206.02 61.168394 
L 182.156667 65.924629 
L 170.556817 60.808896 
z
M 110.566667 89.955747 
L 134.43 89.556276 
L 158.293333 83.882364 
L 182.156667 81.771138 
L 206.02 85.29305 
L 229.883333 88.707248 
L 253.746667 87.285534 
L 277.61 92.659841 
L 284.895481 93.757994 
L 281.497989 113.137869 
L 277.61 118.499283 
L 264.943614 133.590571 
L 253.746667 147.919136 
L 231.939363 133.590571 
L 229.883333 123.566671 
L 227.86749 133.590571 
L 206.02 144.610127 
L 182.156667 143.441007 
L 158.293333 138.125293 
L 152.529036 133.590571 
L 158.293333 121.307337 
L 171.069619 113.137869 
L 158.293333 111.529517 
L 134.43 100.271614 
L 110.566667 97.657086 
L 108.83353 93.757994 
z
M 110.262305 93.757994 
L 110.566667 94.442726 
L 134.43 96.165988 
L 158.293333 106.995599 
L 182.156667 109.783447 
L 206.02 112.014356 
L 229.883333 102.079217 
L 242.244736 113.137869 
L 251.822411 133.590571 
L 253.746667 134.85491 
L 254.734675 133.590571 
L 268.006576 113.137869 
L 272.853575 93.757994 
L 253.746667 89.458858 
L 229.883333 91.728914 
L 206.02 87.966873 
L 182.156667 84.554408 
L 158.293333 86.401861 
L 134.43 92.204678 
L 110.566667 93.090269 
z
M 171.372052 133.590571 
L 182.156667 136.327658 
L 206.02 134.777425 
L 208.37307 133.590571 
L 206.02 123.870882 
L 182.156667 126.283031 
z
M 158.293333 172.360635 
L 170.658163 173.39493 
L 158.293333 174.483148 
L 157.260685 173.39493 
z
" clip-path="url(#p37dc0060fd)" style="fill: #73d056"/>
    <path d="M 110.566667 93.090269 
L 134.43 92.204678 
L 158.293333 86.401861 
L 182.156667 84.554408 
L 206.02 87.966873 
L 229.883333 91.728914 
L 253.746667 89.458858 
L 272.853575 93.757994 
L 268.006576 113.137869 
L 254.734675 133.590571 
L 253.746667 134.85491 
L 251.822411 133.590571 
L 242.244736 113.137869 
L 229.883333 102.079217 
L 206.02 112.014356 
L 182.156667 109.783447 
L 158.293333 106.995599 
L 134.43 96.165988 
L 110.566667 94.442726 
L 110.262305 93.757994 
z
M 138.659103 93.757994 
L 158.293333 102.461682 
L 182.156667 104.937168 
L 206.02 103.585198 
L 224.637662 93.757994 
L 206.02 90.640696 
L 182.156667 87.337677 
L 158.293333 88.921357 
z
M 235.882632 93.757994 
L 253.746667 110.273674 
L 263.194545 93.757994 
L 253.746667 91.632181 
z
M 182.156667 126.283031 
L 206.02 123.870882 
L 208.37307 133.590571 
L 206.02 134.777425 
L 182.156667 136.327658 
L 171.372052 133.590571 
z
" clip-path="url(#p37dc0060fd)" style="fill: #90d743"/>
    <path d="M 158.293333 88.921357 
L 182.156667 87.337677 
L 206.02 90.640696 
L 224.637662 93.757994 
L 206.02 103.585198 
L 182.156667 104.937168 
L 158.293333 102.461682 
L 138.659103 93.757994 
z
M 148.886949 93.757994 
L 158.293333 97.927764 
L 182.156667 100.090889 
L 206.02 95.156039 
L 208.6686 93.757994 
L 206.02 93.314519 
L 182.156667 90.120946 
L 158.293333 91.440854 
z
M 253.746667 91.632181 
L 263.194545 93.757994 
L 253.746667 110.273674 
L 235.882632 93.757994 
z
" clip-path="url(#p37dc0060fd)" style="fill: #b0dd2f"/>
    <path d="M 158.293333 91.440854 
L 182.156667 90.120946 
L 206.02 93.314519 
L 208.6686 93.757994 
L 206.02 95.156039 
L 182.156667 100.090889 
L 158.293333 97.927764 
L 148.886949 93.757994 
z
M 163.244922 93.757994 
L 182.156667 95.244609 
L 188.572829 93.757994 
L 182.156667 92.904215 
z
" clip-path="url(#p37dc0060fd)" style="fill: #d0e11c"/>
    <path d="M 182.156667 92.904215 
L 188.572829 93.757994 
L 182.156667 95.244609 
L 163.244922 93.757994 
z
" clip-path="url(#p37dc0060fd)" style="fill: #efe51c"/>
   </g>
   <g id="matplotlib.axis_1">
    <g id="xtick_1">
     <g id="line2d_1">
      <defs>
       <path id="ma0ad221b9b" d="M 0 0 
L 0 3.5 
" style="stroke: #000000; stroke-width: 0.8"/>
      </defs>
      <g>
       <use xlink:href="#ma0ad221b9b" x="126.475556" y="240.28" style="stroke: #000000; stroke-width: 0.8"/>
      </g>
     </g>
     <g id="text_1">
      <!-- −50 -->
      <g transform="translate(113.812743 256.398125) scale(0.12 -0.12)">
       <defs>
        <path id="DejaVuSans-2212" d="M 678 2272 
L 4684 2272 
L 4684 1741 
L 678 1741 
L 678 2272 
z
" transform="scale(0.015625)"/>
        <path id="DejaVuSans-35" d="M 691 4666 
L 3169 4666 
L 3169 4134 
L 1269 4134 
L 1269 2991 
Q 1406 3038 1543 3061 
Q 1681 3084 1819 3084 
Q 2600 3084 3056 2656 
Q 3513 2228 3513 1497 
Q 3513 744 3044 326 
Q 2575 -91 1722 -91 
Q 1428 -91 1123 -41 
Q 819 9 494 109 
L 494 744 
Q 775 591 1075 516 
Q 1375 441 1709 441 
Q 2250 441 2565 725 
Q 2881 1009 2881 1497 
Q 2881 1984 2565 2268 
Q 2250 2553 1709 2553 
Q 1456 2553 1204 2497 
Q 953 2441 691 2322 
L 691 4666 
z
" transform="scale(0.015625)"/>
        <path id="DejaVuSans-30" d="M 2034 4250 
Q 1547 4250 1301 3770 
Q 1056 3291 1056 2328 
Q 1056 1369 1301 889 
Q 1547 409 2034 409 
Q 2525 409 2770 889 
Q 3016 1369 3016 2328 
Q 3016 3291 2770 3770 
Q 2525 4250 2034 4250 
z
M 2034 4750 
Q 2819 4750 3233 4129 
Q 3647 3509 3647 2328 
Q 3647 1150 3233 529 
Q 2819 -91 2034 -91 
Q 1250 -91 836 529 
Q 422 1150 422 2328 
Q 422 3509 836 4129 
Q 1250 4750 2034 4750 
z
" transform="scale(0.015625)"/>
       </defs>
       <use xlink:href="#DejaVuSans-2212"/>
       <use xlink:href="#DejaVuSans-35" transform="translate(83.789062 0)"/>
       <use xlink:href="#DejaVuSans-30" transform="translate(147.412109 0)"/>
      </g>
     </g>
    </g>
    <g id="xtick_2">
     <g id="line2d_2">
      <g>
       <use xlink:href="#ma0ad221b9b" x="206.02" y="240.28" style="stroke: #000000; stroke-width: 0.8"/>
      </g>
     </g>
     <g id="text_2">
      <!-- 0 -->
      <g transform="translate(202.2025 256.398125) scale(0.12 -0.12)">
       <use xlink:href="#DejaVuSans-30"/>
      </g>
     </g>
    </g>
    <g id="xtick_3">
     <g id="line2d_3">
      <g>
       <use xlink:href="#ma0ad221b9b" x="285.564444" y="240.28" style="stroke: #000000; stroke-width: 0.8"/>
      </g>
     </g>
     <g id="text_3">
      <!-- 50 -->
      <g transform="translate(277.929444 256.398125) scale(0.12 -0.12)">
       <use xlink:href="#DejaVuSans-35"/>
       <use xlink:href="#DejaVuSans-30" transform="translate(63.623047 0)"/>
      </g>
     </g>
    </g>
    <g id="text_4">
     <!-- $\Theta^{\circ}$ -->
     <g transform="translate(198.4 272.011875) scale(0.12 -0.12)">
      <defs>
       <path id="DejaVuSans-398" d="M 1416 2750 
L 3622 2750 
L 3622 2219 
L 1416 2219 
L 1416 2750 
z
M 2522 4238 
Q 1834 4238 1431 3725 
Q 1025 3213 1025 2328 
Q 1025 1447 1429 934 
Q 1834 422 2522 422 
Q 3209 422 3613 934 
Q 4013 1447 4013 2328 
Q 4013 3213 3613 3725 
Q 3209 4238 2522 4238 
z
M 2522 4750 
Q 3503 4750 4090 4092 
Q 4678 3434 4678 2328 
Q 4678 1225 4091 569 
Q 3503 -91 2522 -91 
Q 1538 -91 950 566 
Q 359 1222 359 2328 
Q 359 3434 950 4094 
Q 1538 4750 2522 4750 
z
" transform="scale(0.015625)"/>
       <path id="DejaVuSans-2218" d="M 2000 2619 
Q 1750 2619 1578 2445 
Q 1406 2272 1406 2022 
Q 1406 1775 1578 1605 
Q 1750 1435 2000 1435 
Q 2250 1435 2422 1605 
Q 2594 1775 2594 2022 
Q 2594 2269 2420 2444 
Q 2247 2619 2000 2619 
z
M 2000 3022 
Q 2200 3022 2384 2945 
Q 2569 2869 2703 2725 
Q 2847 2585 2919 2406 
Q 2991 2228 2991 2022 
Q 2991 1610 2702 1324 
Q 2413 1038 1994 1038 
Q 1572 1038 1290 1319 
Q 1009 1600 1009 2022 
Q 1009 2441 1296 2731 
Q 1584 3022 2000 3022 
z
" transform="scale(0.015625)"/>
      </defs>
      <use xlink:href="#DejaVuSans-398" transform="translate(0 0.78125)"/>
      <use xlink:href="#DejaVuSans-2218" transform="translate(79.667969 39.0625) scale(0.7)"/>
     </g>
    </g>
   </g>
   <g id="matplotlib.axis_2">
    <g id="ytick_1">
     <g id="line2d_4">
      <defs>
       <path id="m3ba7d8654e" d="M 0 0 
L -3.5 0 
" style="stroke: #000000; stroke-width: 0.8"/>
      </defs>
      <g>
       <use xlink:href="#m3ba7d8654e" x="62.84" y="219.984151" style="stroke: #000000; stroke-width: 0.8"/>
      </g>
     </g>
     <g id="text_5">
      <!-- −40 -->
      <g transform="translate(30.514375 224.543214) scale(0.12 -0.12)">
       <defs>
        <path id="DejaVuSans-34" d="M 2419 4116 
L 825 1625 
L 2419 1625 
L 2419 4116 
z
M 2253 4666 
L 3047 4666 
L 3047 1625 
L 3713 1625 
L 3713 1100 
L 3047 1100 
L 3047 0 
L 2419 0 
L 2419 1100 
L 313 1100 
L 313 1709 
L 2253 4666 
z
" transform="scale(0.015625)"/>
       </defs>
       <use xlink:href="#DejaVuSans-2212"/>
       <use xlink:href="#DejaVuSans-34" transform="translate(83.789062 0)"/>
       <use xlink:href="#DejaVuSans-30" transform="translate(147.412109 0)"/>
      </g>
     </g>
    </g>
    <g id="ytick_2">
     <g id="line2d_5">
      <g>
       <use xlink:href="#m3ba7d8654e" x="62.84" y="176.783648" style="stroke: #000000; stroke-width: 0.8"/>
      </g>
     </g>
     <g id="text_6">
      <!-- −20 -->
      <g transform="translate(30.514375 181.342711) scale(0.12 -0.12)">
       <defs>
        <path id="DejaVuSans-32" d="M 1228 531 
L 3431 531 
L 3431 0 
L 469 0 
L 469 531 
Q 828 903 1448 1529 
Q 2069 2156 2228 2338 
Q 2531 2678 2651 2914 
Q 2772 3150 2772 3378 
Q 2772 3750 2511 3984 
Q 2250 4219 1831 4219 
Q 1534 4219 1204 4116 
Q 875 4013 500 3803 
L 500 4441 
Q 881 4594 1212 4672 
Q 1544 4750 1819 4750 
Q 2544 4750 2975 4387 
Q 3406 4025 3406 3419 
Q 3406 3131 3298 2873 
Q 3191 2616 2906 2266 
Q 2828 2175 2409 1742 
Q 1991 1309 1228 531 
z
" transform="scale(0.015625)"/>
       </defs>
       <use xlink:href="#DejaVuSans-2212"/>
       <use xlink:href="#DejaVuSans-32" transform="translate(83.789062 0)"/>
       <use xlink:href="#DejaVuSans-30" transform="translate(147.412109 0)"/>
      </g>
     </g>
    </g>
    <g id="ytick_3">
     <g id="line2d_6">
      <g>
       <use xlink:href="#m3ba7d8654e" x="62.84" y="133.583145" style="stroke: #000000; stroke-width: 0.8"/>
      </g>
     </g>
     <g id="text_7">
      <!-- 0 -->
      <g transform="translate(48.205 138.142208) scale(0.12 -0.12)">
       <use xlink:href="#DejaVuSans-30"/>
      </g>
     </g>
    </g>
    <g id="ytick_4">
     <g id="line2d_7">
      <g>
       <use xlink:href="#m3ba7d8654e" x="62.84" y="90.382642" style="stroke: #000000; stroke-width: 0.8"/>
      </g>
     </g>
     <g id="text_8">
      <!-- 20 -->
      <g transform="translate(40.57 94.941704) scale(0.12 -0.12)">
       <use xlink:href="#DejaVuSans-32"/>
       <use xlink:href="#DejaVuSans-30" transform="translate(63.623047 0)"/>
      </g>
     </g>
    </g>
    <g id="ytick_5">
     <g id="line2d_8">
      <g>
       <use xlink:href="#m3ba7d8654e" x="62.84" y="47.182139" style="stroke: #000000; stroke-width: 0.8"/>
      </g>
     </g>
     <g id="text_9">
      <!-- 40 -->
      <g transform="translate(40.57 51.741201) scale(0.12 -0.12)">
       <use xlink:href="#DejaVuSans-34"/>
       <use xlink:href="#DejaVuSans-30" transform="translate(63.623047 0)"/>
      </g>
     </g>
    </g>
    <g id="text_10">
     <!-- $\phi^{\circ}$ -->
     <g transform="translate(23.784375 141.38) rotate(-90) scale(0.13 -0.13)">
      <defs>
       <path id="DejaVuSans-Oblique-3d5" d="M 2991 4863 
L 2738 3572 
Q 3363 3572 3684 3094 
Q 4016 2606 3850 1747 
Q 3681 888 3159 400 
Q 2653 -78 2028 -78 
L 1784 -1331 
L 1213 -1331 
L 1456 -78 
Q 834 -78 509 400 
Q 178 888 347 1747 
Q 513 2606 1034 3094 
Q 1544 3572 2166 3572 
L 2419 4863 
L 2991 4863 
z
M 2128 434 
Q 2481 434 2784 756 
Q 3116 1116 3244 1747 
Q 3369 2372 3169 2738 
Q 2991 3059 2638 3059 
L 2128 434 
z
M 1556 434 
L 2066 3059 
Q 1716 3059 1413 2738 
Q 1072 2372 953 1747 
Q 834 1116 1028 756 
Q 1203 434 1556 434 
z
" transform="scale(0.015625)"/>
      </defs>
      <use xlink:href="#DejaVuSans-Oblique-3d5" transform="translate(0 0.015625)"/>
      <use xlink:href="#DejaVuSans-2218" transform="translate(73.414505 38.296875) scale(0.7)"/>
     </g>
    </g>
   </g>
   <g id="QuadContourSet_2">
    <path clip-path="url(#p37dc0060fd)" style="fill: none; stroke-dasharray: 1.85,0.8; stroke-dashoffset: 0; stroke: #000000; stroke-width: 0.5"/>
    <path d="M 324.135242 26.88 
L 324.001764 36.380776 
L 324.02525 47.600163 
L 324.472106 60.808896 
L 323.844779 76.198006 
L 324.522692 93.757994 
L 324.45439 113.137869 
L 324.43353 120.512938 
M 324.256479 146.66759 
L 324.177795 154.013971 
L 324.279059 173.39493 
L 324.187537 190.956403 
L 324.202163 206.347113 
L 324.262023 219.557363 
L 324.326922 230.778089 
L 324.36032 240.28 
M 88.259 240.28 
L 88.133252 230.778089 
L 87.85704 219.557363 
L 87.977977 206.347113 
L 87.801063 190.956403 
L 87.642195 173.39493 
L 88.125197 154.013971 
L 87.931134 146.664244 
M 87.720588 120.513502 
L 87.796533 113.137869 
L 87.401904 93.757994 
L 87.754476 76.198006 
L 87.551236 60.808896 
L 87.895077 47.600163 
L 87.911039 36.380776 
L 87.720257 26.88 
" clip-path="url(#p37dc0060fd)" style="fill: none; stroke-dasharray: 1.85,0.8; stroke-dashoffset: 0; stroke: #000000; stroke-width: 0.5"/>
    <path d="M 321.677989 26.88 
L 321.271512 36.380776 
L 321.343032 47.600163 
L 322.703834 60.808896 
L 320.793449 76.198006 
L 322.857883 93.757994 
L 322.649886 113.137869 
L 322.586732 120.470016 
M 322.045957 146.705422 
L 321.807576 154.013971 
L 322.115952 173.39493 
L 321.837241 190.956403 
L 321.881782 206.347113 
L 322.064074 219.557363 
L 322.26171 230.778089 
L 322.363415 240.28 
M 91.440778 240.28 
L 91.057838 230.778089 
L 90.216697 219.557363 
L 90.584982 206.347113 
L 90.04623 190.956403 
L 89.562431 173.39493 
L 91.03331 154.013971 
L 90.443152 146.674426 
M 89.80236 120.475255 
L 90.032436 113.137869 
L 88.83068 93.757994 
L 89.904359 76.198006 
L 89.285435 60.808896 
L 90.33253 47.600163 
L 90.381139 36.380776 
L 89.800153 26.88 
" clip-path="url(#p37dc0060fd)" style="fill: none; stroke-dasharray: 1.85,0.8; stroke-dashoffset: 0; stroke: #000000; stroke-width: 0.5"/>
    <path d="M 319.220736 26.88 
L 318.54126 36.380776 
L 318.660814 47.600163 
L 320.935563 60.808896 
L 317.742118 76.198006 
L 321.193074 93.757994 
L 320.845382 113.137869 
L 320.739801 120.470784 
M 319.836438 146.694443 
L 319.437357 154.013971 
L 319.952846 173.39493 
L 319.486946 190.956403 
L 319.561402 206.347113 
L 319.866125 219.557363 
L 320.196498 230.778089 
L 320.36651 240.28 
M 94.622556 240.28 
L 93.982425 230.778089 
L 92.576354 219.557363 
L 93.191988 206.347113 
L 92.291397 190.956403 
L 91.482667 173.39493 
L 93.941422 154.013971 
L 92.946053 146.60859 
M 91.883206 120.485404 
L 92.268338 113.137869 
L 90.259455 93.757994 
L 92.054243 76.198006 
L 91.019635 60.808896 
L 92.769983 47.600163 
L 92.851238 36.380776 
L 91.880049 26.88 
" clip-path="url(#p37dc0060fd)" style="fill: none; stroke-dasharray: 1.85,0.8; stroke-dashoffset: 0; stroke: #000000; stroke-width: 0.5"/>
    <path d="M 316.763483 26.88 
L 315.811008 36.380776 
L 315.978596 47.600163 
L 319.167292 60.808896 
L 314.690788 76.198006 
L 319.528266 93.757994 
L 319.040877 113.137869 
L 318.891105 120.558529 
M 317.634421 146.59161 
L 317.067137 154.013971 
L 317.789739 173.39493 
L 317.136651 190.956403 
L 317.241021 206.347113 
L 317.668176 219.557363 
L 318.131286 230.778089 
L 318.369605 240.28 
M 97.804334 240.28 
L 96.907011 230.778089 
L 94.93601 219.557363 
L 95.798993 206.347113 
L 94.536564 190.956403 
L 93.402903 173.39493 
L 96.849535 154.013971 
L 95.419883 146.426209 
M 93.956904 120.587015 
L 94.50424 113.137869 
L 91.68823 93.757994 
L 94.204126 76.198006 
L 92.753834 60.808896 
L 95.207436 47.600163 
L 95.321338 36.380776 
L 93.959945 26.88 
" clip-path="url(#p37dc0060fd)" style="fill: none; stroke-dasharray: 1.85,0.8; stroke-dashoffset: 0; stroke: #000000; stroke-width: 0.5"/>
    <path d="M 314.306231 26.88 
L 313.080756 36.380776 
L 313.296378 47.600163 
L 317.399021 60.808896 
L 311.639457 76.198006 
L 317.863457 93.757994 
L 317.236373 113.137869 
L 317.043633 120.560057 
M 315.428932 146.5699 
L 314.696918 154.013971 
L 315.626633 173.39493 
L 314.786355 190.956403 
L 314.920641 206.347113 
L 315.470227 219.557363 
L 316.066074 230.778089 
L 316.3727 240.28 
M 100.986111 240.28 
L 99.831598 230.778089 
L 97.295667 219.557363 
L 98.405999 206.347113 
L 96.781731 190.956403 
L 95.323139 173.39493 
L 99.757647 154.013971 
L 97.887823 146.300785 
M 96.03403 120.607095 
L 96.740142 113.137869 
L 93.117005 93.757994 
L 96.35401 76.198006 
L 94.488034 60.808896 
L 97.644889 47.600163 
L 97.791437 36.380776 
L 96.039841 26.88 
" clip-path="url(#p37dc0060fd)" style="fill: none; stroke-dasharray: 1.85,0.8; stroke-dashoffset: 0; stroke: #000000; stroke-width: 0.5"/>
    <path d="M 311.848978 26.88 
L 310.350505 36.380776 
L 310.61416 47.600163 
L 315.63075 60.808896 
L 308.588127 76.198006 
L 316.198648 93.757994 
L 315.431869 113.137869 
L 315.196132 120.561968 
M 313.22503 146.5429 
L 312.326699 154.013971 
L 313.463526 173.39493 
L 312.43606 190.956403 
L 312.60026 206.347113 
L 313.272278 219.557363 
L 314.000862 230.778089 
L 314.375795 240.28 
M 104.167889 240.28 
L 102.756185 230.778089 
L 99.655323 219.557363 
L 101.013004 206.347113 
L 99.026898 190.956403 
L 97.243375 173.39493 
L 102.66576 154.013971 
L 100.334393 146.148974 
M 98.109744 120.632079 
L 98.976045 113.137869 
L 94.54578 93.757994 
L 98.503893 76.198006 
L 96.222233 60.808896 
L 100.082341 47.600163 
L 100.261536 36.380776 
L 98.119737 26.88 
" clip-path="url(#p37dc0060fd)" style="fill: none; stroke-dasharray: 1.85,0.8; stroke-dashoffset: 0; stroke: #000000; stroke-width: 0.5"/>
    <path d="M 309.391725 26.88 
L 307.620253 36.380776 
L 307.931942 47.600163 
L 313.862479 60.808896 
L 305.536796 76.198006 
L 314.533839 93.757994 
L 313.627364 113.137869 
L 313.350218 120.520984 
M 311.016948 146.553633 
L 309.95648 154.013971 
L 311.300419 173.39493 
L 310.085765 190.956403 
L 310.279879 206.347113 
L 311.074329 219.557363 
L 311.93565 230.778089 
L 312.37889 240.28 
M 107.349667 240.28 
L 105.680771 230.778089 
L 102.01498 219.557363 
L 103.620009 206.347113 
L 101.272065 190.956403 
L 99.163611 173.39493 
L 105.573872 154.013971 
L 102.77077 146.014862 
M 100.189616 120.618929 
L 101.211947 113.137869 
L 95.974555 93.757994 
L 100.653776 76.198006 
L 97.956433 60.808896 
L 102.519794 47.600163 
L 102.731636 36.380776 
L 100.199632 26.88 
" clip-path="url(#p37dc0060fd)" style="fill: none; stroke-dasharray: 1.85,0.8; stroke-dashoffset: 0; stroke: #000000; stroke-width: 0.5"/>
    <path d="M 306.934472 26.88 
L 304.890001 36.380776 
L 305.249724 47.600163 
L 312.094207 60.808896 
L 302.485466 76.198006 
L 312.869031 93.757994 
L 311.82286 113.137869 
L 311.502887 120.523667 
M 308.816289 146.516245 
L 307.586261 154.013971 
L 309.137313 173.39493 
L 307.735469 190.956403 
L 307.959499 206.347113 
L 308.87638 219.557363 
L 309.870438 230.778089 
L 310.381986 240.28 
M 110.531445 240.28 
L 108.605358 230.778089 
L 104.374636 219.557363 
L 106.227015 206.347113 
L 103.517232 190.956403 
L 101.083847 173.39493 
L 108.481985 154.013971 
L 105.167562 145.81869 
M 102.262506 120.653563 
L 103.447849 113.137869 
L 97.40333 93.757994 
L 102.80366 76.198006 
L 99.690632 60.808896 
L 104.957247 47.600163 
L 105.201735 36.380776 
L 102.279528 26.88 
" clip-path="url(#p37dc0060fd)" style="fill: none; stroke-dasharray: 1.85,0.8; stroke-dashoffset: 0; stroke: #000000; stroke-width: 0.5"/>
    <path d="M 304.47722 26.88 
L 302.159749 36.380776 
L 302.567506 47.600163 
L 310.325936 60.808896 
L 301.473333 74.385648 
L 277.61 74.824796 
L 271.816302 76.198006 
L 277.61 77.514906 
L 301.473333 77.999738 
L 304.215416 82.440282 
M 310.405305 106.814204 
L 310.018356 113.137869 
L 309.013971 133.590571 
L 305.216041 154.013971 
L 306.974206 173.39493 
L 305.385174 190.956403 
L 305.639118 206.347113 
L 306.678431 219.557363 
L 307.805226 230.778089 
L 308.385081 240.28 
M 120.865332 240.28 
L 113.328123 230.778089 
L 110.566667 228.886201 
L 106.734293 219.557363 
L 108.83402 206.347113 
L 105.762399 190.956403 
L 103.004083 173.39493 
L 107.642537 162.305074 
M 105.214915 140.783747 
L 102.027308 133.590571 
L 105.683751 113.137869 
L 98.832105 93.757994 
L 104.953543 76.198006 
L 101.424832 60.808896 
L 107.3947 47.600163 
L 107.671835 36.380776 
L 104.359424 26.88 
" clip-path="url(#p37dc0060fd)" style="fill: none; stroke-dasharray: 1.85,0.8; stroke-dashoffset: 0; stroke: #000000; stroke-width: 0.5"/>
    <path d="M 302.019967 26.88 
L 301.473333 29.056535 
L 277.61 35.125261 
L 262.542005 36.380776 
L 277.61 41.494271 
L 289.242634 47.600163 
L 301.473333 49.300836 
L 308.557665 60.808896 
L 301.473333 71.673747 
L 277.61 72.568721 
L 262.297718 76.198006 
L 264.099064 76.60745 
M 291.497968 80.270499 
L 301.473333 80.695738 
L 309.539413 93.757994 
L 308.213852 113.137869 
L 307.09115 133.590571 
L 302.845822 154.013971 
L 304.8111 173.39493 
L 303.034879 190.956403 
L 303.318738 206.347113 
L 304.480482 219.557363 
L 305.740013 230.778089 
L 306.388176 240.28 
M 131.279279 240.28 
L 121.712122 230.778089 
L 110.566667 223.142279 
L 109.093949 219.557363 
L 110.566667 210.96463 
L 116.993929 206.347113 
L 110.566667 202.848054 
L 108.007566 190.956403 
L 104.924319 173.39493 
L 110.460971 160.157614 
M 110.335871 148.266167 
L 103.832479 133.590571 
L 107.919654 113.137869 
L 100.26088 93.757994 
L 107.103427 76.198006 
L 103.159031 60.808896 
L 109.832152 47.600163 
L 110.141934 36.380776 
L 106.43932 26.88 
" clip-path="url(#p37dc0060fd)" style="fill: none; stroke-dasharray: 1.85,0.8; stroke-dashoffset: 0; stroke: #000000; stroke-width: 0.5"/>
    <path d="M 295.01857 26.88 
L 277.61 32.462959 
L 253.746667 33.39977 
L 229.883333 32.263426 
L 206.02 35.437106 
L 190.125643 36.380776 
L 206.02 39.296381 
L 229.883333 43.218811 
L 253.746667 44.195765 
L 263.757178 47.600163 
L 277.61 48.841338 
L 301.473333 52.173283 
L 304.911628 57.758581 
M 287.550183 69.749976 
L 277.61 70.312647 
L 253.746667 75.884758 
L 251.22469 76.198006 
L 253.746667 76.418917 
L 277.61 81.842031 
L 301.473333 83.391739 
L 307.874605 93.757994 
L 306.409347 113.137869 
L 305.168328 133.590571 
L 301.473333 150.344063 
L 298.21194 154.013971 
L 301.473333 162.477055 
L 302.647993 173.39493 
L 301.473333 184.248801 
L 298.131521 190.956403 
L 298.655331 206.347113 
L 301.473333 211.067483 
L 302.282533 219.557363 
L 303.674801 230.778089 
L 304.391271 240.28 
M 142.449139 240.28 
L 134.43 234.822767 
L 130.09612 230.778089 
L 115.280615 219.557363 
L 134.43 207.083561 
L 135.551577 206.347113 
L 134.43 205.584075 
L 110.566667 192.415194 
L 110.252733 190.956403 
L 106.844555 173.39493 
L 110.566667 164.495912 
L 132.053876 154.013971 
L 111.567003 145.146407 
M 108.466419 120.784646 
L 110.155556 113.137869 
L 101.689655 93.757994 
L 109.25331 76.198006 
L 104.893231 60.808896 
L 110.566667 49.924592 
L 125.581398 47.600163 
L 134.43 44.175255 
L 158.293333 39.901261 
L 176.030055 36.380776 
L 158.293333 34.99932 
L 134.43 33.293925 
L 110.566667 32.040177 
L 108.519216 26.88 
M 134.43 76.021095 
L 132.830139 76.198006 
L 134.43 76.314269 
L 134.955383 76.198006 
L 134.43 76.021095 
z
" clip-path="url(#p37dc0060fd)" style="fill: none; stroke-dasharray: 1.85,0.8; stroke-dashoffset: 0; stroke: #000000; stroke-width: 0.5"/>
    <path d="M 286.71708 26.88 
L 277.61 29.800656 
L 253.746667 29.286497 
L 229.883333 27.695564 
L 219.579926 30.161325 
M 192.027366 33.181473 
L 182.156667 33.022792 
L 158.293333 32.951238 
L 134.43 29.999668 
L 110.953385 26.88 
M 153.946907 240.28 
L 139.580859 230.778089 
L 134.43 225.411243 
L 127.821833 219.557363 
L 134.43 215.25284 
L 147.993015 206.347113 
L 145.756867 204.825803 
M 122.477867 190.298662 
L 110.566667 182.557393 
L 108.764791 173.39493 
L 110.566667 169.086912 
L 134.43 160.004916 
L 140.626634 154.013971 
L 134.43 149.045602 
L 110.566667 140.639859 
L 107.442822 133.590571 
L 110.566667 119.692456 
L 122.143311 113.137869 
L 110.566667 110.514527 
L 103.11843 93.757994 
L 110.566667 77.417659 
L 134.43 78.96267 
L 146.923304 76.198006 
L 134.43 71.991166 
L 110.566667 73.947407 
L 106.62743 60.808896 
L 110.566667 53.251598 
L 134.43 49.910615 
L 147.63168 47.600163 
L 158.293333 45.120571 
L 181.394318 47.600163 
L 182.156667 47.641474 
L 183.259713 47.600163 
L 206.02 45.57049 
L 216.368783 47.600163 
L 229.883333 48.971257 
L 253.746667 49.575259 
L 277.61 51.68229 
L 301.473333 55.045731 
L 305.021123 60.808896 
L 301.473333 66.249946 
L 277.61 68.056572 
L 253.746667 72.80302 
L 229.883333 75.629741 
L 225.363329 76.198006 
L 229.883333 76.620586 
L 253.746667 78.592241 
L 277.61 84.005593 
L 301.473333 86.08774 
L 306.209796 93.757994 
L 304.604843 113.137869 
L 303.245507 133.590571 
L 301.473333 141.625791 
L 290.464138 154.013971 
L 293.465774 173.39493 
L 288.17368 190.956403 
L 284.888667 206.347113 
L 292.801257 219.557363 
L 301.473333 229.717197 
L 301.609589 230.778089 
L 302.394366 240.28 
M 199.501547 240.28 
L 195.970074 239.741826 
M 287.570822 240.28 
L 277.61 238.172548 
L 267.702606 238.865237 
M 239.813785 238.609177 
L 229.883333 237.731224 
L 211.166204 240.28 
" clip-path="url(#p37dc0060fd)" style="fill: none; stroke-dasharray: 1.85,0.8; stroke-dashoffset: 0; stroke: #000000; stroke-width: 0.5"/>
    <path d="M 223.425211 26.88 
L 206.02 31.375732 
L 196.048253 30.23455 
M 168.232731 29.962511 
L 158.293333 30.903156 
L 135.056917 26.88 
M 278.41559 26.88 
L 277.61 27.138354 
L 273.086947 26.88 
M 119.47283 55.555842 
L 134.43 53.838198 
L 158.293333 50.406378 
L 182.156667 50.276487 
L 206.02 49.978033 
L 229.883333 52.216753 
L 253.746667 52.461599 
L 277.61 54.523243 
L 301.473333 57.918178 
L 303.252852 60.808896 
L 301.473333 63.538045 
L 277.61 65.800497 
L 253.746667 69.721282 
L 229.883333 71.566347 
L 206.02 74.423916 
L 199.171921 76.198006 
L 206.02 77.271582 
L 229.883333 79.642251 
L 253.746667 80.765564 
L 277.61 86.169155 
L 301.473333 88.78374 
L 304.544987 93.757994 
L 302.800339 113.137869 
L 301.473333 131.621359 
L 300.455924 133.590571 
L 282.716337 154.013971 
L 277.61 170.949232 
L 276.773933 173.39493 
L 277.61 184.108246 
L 278.215839 190.956403 
L 277.61 192.7161 
L 265.635922 206.347113 
L 277.61 217.116424 
L 279.076114 219.557363 
L 281.090554 230.778089 
L 277.61 231.795229 
L 253.746667 235.619057 
L 229.883333 233.57016 
L 206.02 236.414908 
L 182.156667 231.738322 
L 158.293333 235.9879 
L 150.243456 230.778089 
L 138.638218 219.557363 
L 158.293333 207.30165 
L 179.102299 206.347113 
L 158.293333 204.667829 
L 138.298025 190.956403 
L 134.43 185.891888 
L 112.575043 173.39493 
L 134.43 168.019321 
L 148.916201 154.013971 
L 134.43 142.399151 
L 110.566667 136.566297 
L 109.247994 133.590571 
L 110.566667 127.723739 
L 134.43 115.013524 
L 135.579009 113.137869 
L 134.43 112.58849 
L 110.566667 107.300167 
L 104.547205 93.757994 
L 110.566667 80.552181 
L 134.43 81.611072 
L 158.293333 76.323875 
L 159.431338 76.198006 
L 158.293333 75.812796 
L 134.43 67.961237 
L 116.412918 68.113829 
M 231.781135 203.347518 
L 229.883333 202.323742 
L 211.55652 206.347113 
L 215.926491 206.64905 
" clip-path="url(#p37dc0060fd)" style="fill: none; stroke-dasharray: 1.85,0.8; stroke-dashoffset: 0; stroke: #000000; stroke-width: 0.5"/>
    <path d="M 173.033206 26.88 
L 172.055807 27.010967 
M 192.301728 27.231161 
L 190.022833 26.88 
M 287.672502 62.398201 
L 277.61 63.544422 
L 253.746667 66.639545 
L 229.883333 67.502953 
L 206.02 70.005409 
L 182.156667 76.185851 
L 158.293333 68.102098 
L 134.43 63.931308 
L 110.566667 62.379277 
L 110.095829 60.808896 
L 110.566667 59.905609 
L 134.43 57.765781 
L 158.293333 55.752366 
L 182.156667 52.911499 
L 206.02 53.492993 
L 229.883333 55.462248 
L 253.746667 55.347939 
L 277.61 57.364195 
L 287.774791 58.823713 
M 195.868644 78.354083 
L 206.02 79.945405 
L 229.883333 82.663917 
L 253.746667 82.938887 
L 277.61 88.332717 
L 301.473333 91.479741 
L 302.880179 93.757994 
L 301.473333 108.516466 
L 299.139261 113.137869 
L 287.470008 133.590571 
L 277.61 147.685242 
L 273.269551 154.013971 
L 267.989794 173.39493 
L 257.995147 190.956403 
L 253.746667 195.213172 
L 245.687914 190.956403 
L 229.883333 184.368966 
L 217.238565 190.956403 
L 206.02 195.180261 
L 188.366107 190.956403 
L 182.156667 189.877576 
L 176.547817 190.956403 
L 158.293333 194.909987 
L 152.527839 190.956403 
L 137.657276 173.39493 
L 157.205767 154.013971 
L 134.43 135.752699 
L 121.378941 133.590571 
L 134.43 129.030702 
L 144.165804 113.137869 
L 134.43 108.482865 
L 110.566667 104.085806 
L 105.97598 93.757994 
L 110.566667 83.686703 
L 134.43 84.259473 
L 158.293333 78.843371 
L 168.350046 77.731315 
M 232.704338 228.486555 
L 229.883333 228.014209 
L 215.392133 230.778089 
L 206.02 231.767058 
L 201.184083 230.778089 
L 182.156667 224.693207 
L 158.293333 228.887952 
L 147.533501 219.557363 
L 158.293333 212.848198 
L 182.156667 214.005488 
L 206.02 211.569768 
L 229.883333 213.565528 
L 253.746667 210.333383 
L 267.576563 219.557363 
L 259.188353 228.708444 
" clip-path="url(#p37dc0060fd)" style="fill: none; stroke-dasharray: 1.85,0.8; stroke-dashoffset: 0; stroke: #000000; stroke-width: 0.5"/>
    <path d="M 207.701612 26.88 
L 206.02 27.314357 
L 203.201193 26.88 
M 263.686755 62.612481 
L 253.746667 63.557807 
L 229.883333 63.439559 
L 206.02 65.586901 
L 182.156667 71.05524 
L 158.923233 60.808896 
L 182.156667 55.546512 
L 206.02 57.007952 
L 229.883333 58.707744 
L 253.746667 58.234279 
L 272.125654 59.752197 
M 250.091315 179.276083 
L 238.248129 173.39493 
L 236.357895 154.013971 
L 229.883333 150.309926 
L 210.316455 154.013971 
L 222.519197 173.39493 
L 206.02 182.83803 
L 182.156667 181.211747 
L 158.293333 184.812309 
L 147.45898 173.39493 
L 158.293333 162.543301 
L 182.156667 160.803187 
L 204.056095 154.013971 
L 182.156667 150.554357 
L 158.293333 146.627355 
L 141.721669 133.590571 
L 152.7526 113.137869 
L 134.43 104.377239 
L 110.566667 100.871446 
L 107.404755 93.757994 
L 110.566667 86.821225 
L 134.43 86.907875 
L 158.293333 81.362868 
L 182.156667 78.987869 
L 206.02 82.619228 
L 229.883333 85.685583 
L 253.746667 85.112211 
L 277.61 90.496279 
L 299.249212 93.757994 
L 290.318625 113.137869 
L 277.61 130.662661 
L 275.152553 133.590571 
L 260.538381 154.013971 
L 260.106046 160.301132 
M 158.293333 218.394746 
L 168.238058 219.557363 
L 158.293333 221.174241 
L 156.428785 219.557363 
L 158.293333 218.394746 
z
M 239.827603 220.586601 
L 229.883333 219.613377 
L 206.02 223.527904 
L 191.819755 219.557363 
L 206.02 217.151133 
L 229.883333 219.517676 
L 246.598645 218.332439 
" clip-path="url(#p37dc0060fd)" style="fill: none; stroke-dasharray: 1.85,0.8; stroke-dashoffset: 0; stroke: #000000; stroke-width: 0.5"/>
    <path d="M 192.376379 63.887724 
L 182.156667 65.924629 
L 170.556817 60.808896 
L 182.156667 58.181524 
L 201.073513 60.03758 
M 229.316138 126.387085 
L 227.86749 133.590571 
L 206.02 144.610127 
L 182.156667 143.441007 
L 158.293333 138.125293 
L 152.529036 133.590571 
L 158.293333 121.307337 
L 171.069619 113.137869 
L 158.293333 111.529517 
L 134.43 100.271614 
L 110.566667 97.657086 
L 108.83353 93.757994 
L 110.566667 89.955747 
L 134.43 89.556276 
L 158.293333 83.882364 
L 182.156667 81.771138 
L 206.02 85.29305 
L 229.883333 88.707248 
L 253.746667 87.285534 
L 277.61 92.659841 
L 284.895481 93.757994 
L 281.497989 113.137869 
L 277.61 118.499283 
L 264.943614 133.590571 
L 253.746667 147.919136 
L 243.362096 141.095918 
M 158.293333 172.360635 
L 170.658163 173.39493 
L 158.293333 174.483148 
L 157.260685 173.39493 
L 158.293333 172.360635 
z
" clip-path="url(#p37dc0060fd)" style="fill: none; stroke-dasharray: 1.85,0.8; stroke-dashoffset: 0; stroke: #000000; stroke-width: 0.5"/>
    <path d="M 247.141043 123.593715 
L 242.244736 113.137869 
L 229.883333 102.079217 
L 206.02 112.014356 
L 182.156667 109.783447 
L 158.293333 106.995599 
L 134.43 96.165988 
L 110.566667 94.442726 
L 110.262305 93.757994 
L 110.566667 93.090269 
L 134.43 92.204678 
L 158.293333 86.401861 
L 182.156667 84.554408 
L 206.02 87.966873 
L 229.883333 91.728914 
L 253.746667 89.458858 
L 272.853575 93.757994 
L 268.006576 113.137869 
L 261.139648 123.720169 
M 192.058783 135.684387 
L 182.156667 136.327658 
L 171.372052 133.590571 
L 182.156667 126.283031 
L 205.331868 123.940439 
" clip-path="url(#p37dc0060fd)" style="fill: none; stroke-dasharray: 1.85,0.8; stroke-dashoffset: 0; stroke: #000000; stroke-width: 0.5"/>
    <path d="M 192.05079 104.376619 
L 182.156667 104.937168 
L 158.293333 102.461682 
L 138.659103 93.757994 
L 158.293333 88.921357 
L 182.156667 87.337677 
L 206.02 90.640696 
L 224.637662 93.757994 
L 218.214868 97.148221 
M 243.781833 101.060973 
L 235.882632 93.757994 
L 253.746667 91.632181 
L 263.194545 93.757994 
L 260.361263 98.710808 
" clip-path="url(#p37dc0060fd)" style="fill: none; stroke-dasharray: 1.85,0.8; stroke-dashoffset: 0; stroke: #000000; stroke-width: 0.5"/>
    <path d="M 192.398893 97.972834 
L 182.156667 100.090889 
L 158.293333 97.927764 
L 148.886949 93.757994 
L 158.293333 91.440854 
L 182.156667 90.120946 
L 197.88397 92.225693 
" clip-path="url(#p37dc0060fd)" style="fill: none; stroke-dasharray: 1.85,0.8; stroke-dashoffset: 0; stroke: #000000; stroke-width: 0.5"/>
    <path d="M 168.256932 94.151978 
L 163.244922 93.757994 
L 181.298802 92.942944 
" clip-path="url(#p37dc0060fd)" style="fill: none; stroke-dasharray: 1.85,0.8; stroke-dashoffset: 0; stroke: #000000; stroke-width: 0.5"/>
    <path clip-path="url(#p37dc0060fd)" style="fill: none; stroke-dasharray: 1.85,0.8; stroke-dashoffset: 0; stroke: #000000; stroke-width: 0.5"/>
   </g>
   <g id="patch_3">
    <path d="M 62.84 240.28 
L 62.84 26.88 
" style="fill: none; stroke: #000000; stroke-width: 0.8; stroke-linejoin: miter; stroke-linecap: square"/>
   </g>
   <g id="patch_4">
    <path d="M 349.2 240.28 
L 349.2 26.88 
" style="fill: none; stroke: #000000; stroke-width: 0.8; stroke-linejoin: miter; stroke-linecap: square"/>
   </g>
   <g id="patch_5">
    <path d="M 62.84 240.28 
L 349.2 240.28 
" style="fill: none; stroke: #000000; stroke-width: 0.8; stroke-linejoin: miter; stroke-linecap: square"/>
   </g>
   <g id="patch_6">
    <path d="M 62.84 26.88 
L 349.2 26.88 
" style="fill: none; stroke: #000000; stroke-width: 0.8; stroke-linejoin: miter; stroke-linecap: square"/>
   </g>
   <g id="text_11">
    <!-- Band 250 -->
    <g transform="translate(177.255625 20.88) scale(0.12 -0.12)">
     <defs>
      <path id="DejaVuSans-42" d="M 1259 2228 
L 1259 519 
L 2272 519 
Q 2781 519 3026 730 
Q 3272 941 3272 1375 
Q 3272 1813 3026 2020 
Q 2781 2228 2272 2228 
L 1259 2228 
z
M 1259 4147 
L 1259 2741 
L 2194 2741 
Q 2656 2741 2882 2914 
Q 3109 3088 3109 3444 
Q 3109 3797 2882 3972 
Q 2656 4147 2194 4147 
L 1259 4147 
z
M 628 4666 
L 2241 4666 
Q 2963 4666 3353 4366 
Q 3744 4066 3744 3513 
Q 3744 3084 3544 2831 
Q 3344 2578 2956 2516 
Q 3422 2416 3680 2098 
Q 3938 1781 3938 1306 
Q 3938 681 3513 340 
Q 3088 0 2303 0 
L 628 0 
L 628 4666 
z
" transform="scale(0.015625)"/>
      <path id="DejaVuSans-61" d="M 2194 1759 
Q 1497 1759 1228 1600 
Q 959 1441 959 1056 
Q 959 750 1161 570 
Q 1363 391 1709 391 
Q 2188 391 2477 730 
Q 2766 1069 2766 1631 
L 2766 1759 
L 2194 1759 
z
M 3341 1997 
L 3341 0 
L 2766 0 
L 2766 531 
Q 2569 213 2275 61 
Q 1981 -91 1556 -91 
Q 1019 -91 701 211 
Q 384 513 384 1019 
Q 384 1609 779 1909 
Q 1175 2209 1959 2209 
L 2766 2209 
L 2766 2266 
Q 2766 2663 2505 2880 
Q 2244 3097 1772 3097 
Q 1472 3097 1187 3025 
Q 903 2953 641 2809 
L 641 3341 
Q 956 3463 1253 3523 
Q 1550 3584 1831 3584 
Q 2591 3584 2966 3190 
Q 3341 2797 3341 1997 
z
" transform="scale(0.015625)"/>
      <path id="DejaVuSans-6e" d="M 3513 2113 
L 3513 0 
L 2938 0 
L 2938 2094 
Q 2938 2591 2744 2837 
Q 2550 3084 2163 3084 
Q 1697 3084 1428 2787 
Q 1159 2491 1159 1978 
L 1159 0 
L 581 0 
L 581 3500 
L 1159 3500 
L 1159 2956 
Q 1366 3272 1645 3428 
Q 1925 3584 2291 3584 
Q 2894 3584 3203 3211 
Q 3513 2838 3513 2113 
z
" transform="scale(0.015625)"/>
      <path id="DejaVuSans-64" d="M 2906 2969 
L 2906 4863 
L 3481 4863 
L 3481 0 
L 2906 0 
L 2906 525 
Q 2725 213 2448 61 
Q 2172 -91 1784 -91 
Q 1150 -91 751 415 
Q 353 922 353 1747 
Q 353 2572 751 3078 
Q 1150 3584 1784 3584 
Q 2172 3584 2448 3432 
Q 2725 3281 2906 2969 
z
M 947 1747 
Q 947 1113 1208 752 
Q 1469 391 1925 391 
Q 2381 391 2643 752 
Q 2906 1113 2906 1747 
Q 2906 2381 2643 2742 
Q 2381 3103 1925 3103 
Q 1469 3103 1208 2742 
Q 947 2381 947 1747 
z
" transform="scale(0.015625)"/>
      <path id="DejaVuSans-20" transform="scale(0.015625)"/>
     </defs>
     <use xlink:href="#DejaVuSans-42"/>
     <use xlink:href="#DejaVuSans-61" transform="translate(68.603516 0)"/>
     <use xlink:href="#DejaVuSans-6e" transform="translate(129.882812 0)"/>
     <use xlink:href="#DejaVuSans-64" transform="translate(193.261719 0)"/>
     <use xlink:href="#DejaVuSans-20" transform="translate(256.738281 0)"/>
     <use xlink:href="#DejaVuSans-32" transform="translate(288.525391 0)"/>
     <use xlink:href="#DejaVuSans-35" transform="translate(352.148438 0)"/>
     <use xlink:href="#DejaVuSans-30" transform="translate(415.771484 0)"/>
    </g>
   </g>
   <g id="text_12">
    <g clip-path="url(#p37dc0060fd)">
     <!-- 59.2 -->
     <g transform="translate(326.816338 143.625662) rotate(-89.636361) scale(0.09 -0.09)">
      <defs>
       <path id="DejaVuSans-39" d="M 703 97 
L 703 672 
Q 941 559 1184 500 
Q 1428 441 1663 441 
Q 2288 441 2617 861 
Q 2947 1281 2994 2138 
Q 2813 1869 2534 1725 
Q 2256 1581 1919 1581 
Q 1219 1581 811 2004 
Q 403 2428 403 3163 
Q 403 3881 828 4315 
Q 1253 4750 1959 4750 
Q 2769 4750 3195 4129 
Q 3622 3509 3622 2328 
Q 3622 1225 3098 567 
Q 2575 -91 1691 -91 
Q 1453 -91 1209 -44 
Q 966 3 703 97 
z
M 1959 2075 
Q 2384 2075 2632 2365 
Q 2881 2656 2881 3163 
Q 2881 3666 2632 3958 
Q 2384 4250 1959 4250 
Q 1534 4250 1286 3958 
Q 1038 3666 1038 3163 
Q 1038 2656 1286 2365 
Q 1534 2075 1959 2075 
z
" transform="scale(0.015625)"/>
       <path id="DejaVuSans-2e" d="M 684 794 
L 1344 794 
L 1344 0 
L 684 0 
L 684 794 
z
" transform="scale(0.015625)"/>
      </defs>
      <use xlink:href="#DejaVuSans-35"/>
      <use xlink:href="#DejaVuSans-39" transform="translate(63.623047 0)"/>
      <use xlink:href="#DejaVuSans-2e" transform="translate(127.246094 0)"/>
      <use xlink:href="#DejaVuSans-32" transform="translate(159.033203 0)"/>
     </g>
    </g>
   </g>
   <g id="text_13">
    <g clip-path="url(#p37dc0060fd)">
     <!-- 59.2 -->
     <g transform="translate(85.026938 123.590071) rotate(-270.432495) scale(0.09 -0.09)">
      <use xlink:href="#DejaVuSans-35"/>
      <use xlink:href="#DejaVuSans-39" transform="translate(63.623047 0)"/>
      <use xlink:href="#DejaVuSans-2e" transform="translate(127.246094 0)"/>
      <use xlink:href="#DejaVuSans-32" transform="translate(159.033203 0)"/>
     </g>
    </g>
   </g>
   <g id="text_14">
    <g clip-path="url(#p37dc0060fd)">
     <!-- 60.0 -->
     <g transform="translate(324.763097 143.656216) rotate(-88.892865) scale(0.09 -0.09)">
      <defs>
       <path id="DejaVuSans-36" d="M 2113 2584 
Q 1688 2584 1439 2293 
Q 1191 2003 1191 1497 
Q 1191 994 1439 701 
Q 1688 409 2113 409 
Q 2538 409 2786 701 
Q 3034 994 3034 1497 
Q 3034 2003 2786 2293 
Q 2538 2584 2113 2584 
z
M 3366 4563 
L 3366 3988 
Q 3128 4100 2886 4159 
Q 2644 4219 2406 4219 
Q 1781 4219 1451 3797 
Q 1122 3375 1075 2522 
Q 1259 2794 1537 2939 
Q 1816 3084 2150 3084 
Q 2853 3084 3261 2657 
Q 3669 2231 3669 1497 
Q 3669 778 3244 343 
Q 2819 -91 2113 -91 
Q 1303 -91 875 529 
Q 447 1150 447 2328 
Q 447 3434 972 4092 
Q 1497 4750 2381 4750 
Q 2619 4750 2861 4703 
Q 3103 4656 3366 4563 
z
" transform="scale(0.015625)"/>
      </defs>
      <use xlink:href="#DejaVuSans-36"/>
      <use xlink:href="#DejaVuSans-30" transform="translate(63.623047 0)"/>
      <use xlink:href="#DejaVuSans-2e" transform="translate(127.246094 0)"/>
      <use xlink:href="#DejaVuSans-30" transform="translate(159.033203 0)"/>
     </g>
    </g>
   </g>
   <g id="text_15">
    <g clip-path="url(#p37dc0060fd)">
     <!-- 60.0 -->
     <g transform="translate(86.67862 123.630607) rotate(-271.31365) scale(0.09 -0.09)">
      <use xlink:href="#DejaVuSans-36"/>
      <use xlink:href="#DejaVuSans-30" transform="translate(63.623047 0)"/>
      <use xlink:href="#DejaVuSans-2e" transform="translate(127.246094 0)"/>
      <use xlink:href="#DejaVuSans-30" transform="translate(159.033203 0)"/>
     </g>
    </g>
   </g>
   <g id="text_16">
    <g clip-path="url(#p37dc0060fd)">
     <!-- 60.8 -->
     <g transform="translate(322.709603 143.685048) rotate(-88.150121) scale(0.09 -0.09)">
      <defs>
       <path id="DejaVuSans-38" d="M 2034 2216 
Q 1584 2216 1326 1975 
Q 1069 1734 1069 1313 
Q 1069 891 1326 650 
Q 1584 409 2034 409 
Q 2484 409 2743 651 
Q 3003 894 3003 1313 
Q 3003 1734 2745 1975 
Q 2488 2216 2034 2216 
z
M 1403 2484 
Q 997 2584 770 2862 
Q 544 3141 544 3541 
Q 544 4100 942 4425 
Q 1341 4750 2034 4750 
Q 2731 4750 3128 4425 
Q 3525 4100 3525 3541 
Q 3525 3141 3298 2862 
Q 3072 2584 2669 2484 
Q 3125 2378 3379 2068 
Q 3634 1759 3634 1313 
Q 3634 634 3220 271 
Q 2806 -91 2034 -91 
Q 1263 -91 848 271 
Q 434 634 434 1313 
Q 434 1759 690 2068 
Q 947 2378 1403 2484 
z
M 1172 3481 
Q 1172 3119 1398 2916 
Q 1625 2713 2034 2713 
Q 2441 2713 2670 2916 
Q 2900 3119 2900 3481 
Q 2900 3844 2670 4047 
Q 2441 4250 2034 4250 
Q 1625 4250 1398 4047 
Q 1172 3844 1172 3481 
z
" transform="scale(0.015625)"/>
      </defs>
      <use xlink:href="#DejaVuSans-36"/>
      <use xlink:href="#DejaVuSans-30" transform="translate(63.623047 0)"/>
      <use xlink:href="#DejaVuSans-2e" transform="translate(127.246094 0)"/>
      <use xlink:href="#DejaVuSans-38" transform="translate(159.033203 0)"/>
     </g>
    </g>
   </g>
   <g id="text_17">
    <g clip-path="url(#p37dc0060fd)">
     <!-- 60.8 -->
     <g transform="translate(88.33272 123.672985) rotate(-272.184539) scale(0.09 -0.09)">
      <use xlink:href="#DejaVuSans-36"/>
      <use xlink:href="#DejaVuSans-30" transform="translate(63.623047 0)"/>
      <use xlink:href="#DejaVuSans-2e" transform="translate(127.246094 0)"/>
      <use xlink:href="#DejaVuSans-38" transform="translate(159.033203 0)"/>
     </g>
    </g>
   </g>
   <g id="text_18">
    <g clip-path="url(#p37dc0060fd)">
     <!-- 61.6 -->
     <g transform="translate(320.655967 143.712138) rotate(-87.408627) scale(0.09 -0.09)">
      <defs>
       <path id="DejaVuSans-31" d="M 794 531 
L 1825 531 
L 1825 4091 
L 703 3866 
L 703 4441 
L 1819 4666 
L 2450 4666 
L 2450 531 
L 3481 531 
L 3481 0 
L 794 0 
L 794 531 
z
" transform="scale(0.015625)"/>
      </defs>
      <use xlink:href="#DejaVuSans-36"/>
      <use xlink:href="#DejaVuSans-31" transform="translate(63.623047 0)"/>
      <use xlink:href="#DejaVuSans-2e" transform="translate(127.246094 0)"/>
      <use xlink:href="#DejaVuSans-36" transform="translate(159.033203 0)"/>
     </g>
    </g>
   </g>
   <g id="text_19">
    <g clip-path="url(#p37dc0060fd)">
     <!-- 61.6 -->
     <g transform="translate(89.990377 123.716772) rotate(-273.038627) scale(0.09 -0.09)">
      <use xlink:href="#DejaVuSans-36"/>
      <use xlink:href="#DejaVuSans-31" transform="translate(63.623047 0)"/>
      <use xlink:href="#DejaVuSans-2e" transform="translate(127.246094 0)"/>
      <use xlink:href="#DejaVuSans-36" transform="translate(159.033203 0)"/>
     </g>
    </g>
   </g>
   <g id="text_20">
    <g clip-path="url(#p37dc0060fd)">
     <!-- 62.4 -->
     <g transform="translate(318.6023 143.737476) rotate(-86.668879) scale(0.09 -0.09)">
      <use xlink:href="#DejaVuSans-36"/>
      <use xlink:href="#DejaVuSans-32" transform="translate(63.623047 0)"/>
      <use xlink:href="#DejaVuSans-2e" transform="translate(127.246094 0)"/>
      <use xlink:href="#DejaVuSans-34" transform="translate(159.033203 0)"/>
     </g>
    </g>
   </g>
   <g id="text_21">
    <g clip-path="url(#p37dc0060fd)">
     <!-- 62.4 -->
     <g transform="translate(91.652618 123.761495) rotate(-273.869895) scale(0.09 -0.09)">
      <use xlink:href="#DejaVuSans-36"/>
      <use xlink:href="#DejaVuSans-32" transform="translate(63.623047 0)"/>
      <use xlink:href="#DejaVuSans-2e" transform="translate(127.246094 0)"/>
      <use xlink:href="#DejaVuSans-34" transform="translate(159.033203 0)"/>
     </g>
    </g>
   </g>
   <g id="text_22">
    <g clip-path="url(#p37dc0060fd)">
     <!-- 63.2 -->
     <g transform="translate(316.548713 143.761054) rotate(-85.931362) scale(0.09 -0.09)">
      <defs>
       <path id="DejaVuSans-33" d="M 2597 2516 
Q 3050 2419 3304 2112 
Q 3559 1806 3559 1356 
Q 3559 666 3084 287 
Q 2609 -91 1734 -91 
Q 1441 -91 1130 -33 
Q 819 25 488 141 
L 488 750 
Q 750 597 1062 519 
Q 1375 441 1716 441 
Q 2309 441 2620 675 
Q 2931 909 2931 1356 
Q 2931 1769 2642 2001 
Q 2353 2234 1838 2234 
L 1294 2234 
L 1294 2753 
L 1863 2753 
Q 2328 2753 2575 2939 
Q 2822 3125 2822 3475 
Q 2822 3834 2567 4026 
Q 2313 4219 1838 4219 
Q 1578 4219 1281 4162 
Q 984 4106 628 3988 
L 628 4550 
Q 988 4650 1302 4700 
Q 1616 4750 1894 4750 
Q 2613 4750 3031 4423 
Q 3450 4097 3450 3541 
Q 3450 3153 3228 2886 
Q 3006 2619 2597 2516 
z
" transform="scale(0.015625)"/>
      </defs>
      <use xlink:href="#DejaVuSans-36"/>
      <use xlink:href="#DejaVuSans-33" transform="translate(63.623047 0)"/>
      <use xlink:href="#DejaVuSans-2e" transform="translate(127.246094 0)"/>
      <use xlink:href="#DejaVuSans-32" transform="translate(159.033203 0)"/>
     </g>
    </g>
   </g>
   <g id="text_23">
    <g clip-path="url(#p37dc0060fd)">
     <!-- 63.2 -->
     <g transform="translate(93.320333 123.806668) rotate(-274.672992) scale(0.09 -0.09)">
      <use xlink:href="#DejaVuSans-36"/>
      <use xlink:href="#DejaVuSans-33" transform="translate(63.623047 0)"/>
      <use xlink:href="#DejaVuSans-2e" transform="translate(127.246094 0)"/>
      <use xlink:href="#DejaVuSans-32" transform="translate(159.033203 0)"/>
     </g>
    </g>
   </g>
   <g id="text_24">
    <g clip-path="url(#p37dc0060fd)">
     <!-- 64.0 -->
     <g transform="translate(314.495315 143.782869) rotate(-85.19655) scale(0.09 -0.09)">
      <use xlink:href="#DejaVuSans-36"/>
      <use xlink:href="#DejaVuSans-34" transform="translate(63.623047 0)"/>
      <use xlink:href="#DejaVuSans-2e" transform="translate(127.246094 0)"/>
      <use xlink:href="#DejaVuSans-30" transform="translate(159.033203 0)"/>
     </g>
    </g>
   </g>
   <g id="text_25">
    <g clip-path="url(#p37dc0060fd)">
     <!-- 64.0 -->
     <g transform="translate(94.994259 123.851805) rotate(-275.443347) scale(0.09 -0.09)">
      <use xlink:href="#DejaVuSans-36"/>
      <use xlink:href="#DejaVuSans-34" transform="translate(63.623047 0)"/>
      <use xlink:href="#DejaVuSans-2e" transform="translate(127.246094 0)"/>
      <use xlink:href="#DejaVuSans-30" transform="translate(159.033203 0)"/>
     </g>
    </g>
   </g>
   <g id="text_26">
    <g clip-path="url(#p37dc0060fd)">
     <!-- 64.8 -->
     <g transform="translate(312.442212 143.802925) rotate(-84.464907) scale(0.09 -0.09)">
      <use xlink:href="#DejaVuSans-36"/>
      <use xlink:href="#DejaVuSans-34" transform="translate(63.623047 0)"/>
      <use xlink:href="#DejaVuSans-2e" transform="translate(127.246094 0)"/>
      <use xlink:href="#DejaVuSans-38" transform="translate(159.033203 0)"/>
     </g>
    </g>
   </g>
   <g id="text_27">
    <g clip-path="url(#p37dc0060fd)">
     <!-- 64.8 -->
     <g transform="translate(96.674974 123.896443) rotate(-276.177231) scale(0.09 -0.09)">
      <use xlink:href="#DejaVuSans-36"/>
      <use xlink:href="#DejaVuSans-34" transform="translate(63.623047 0)"/>
      <use xlink:href="#DejaVuSans-2e" transform="translate(127.246094 0)"/>
      <use xlink:href="#DejaVuSans-38" transform="translate(159.033203 0)"/>
     </g>
    </g>
   </g>
   <g id="text_28">
    <g clip-path="url(#p37dc0060fd)">
     <!-- 65.6 -->
     <g transform="translate(306.467543 84.586171) rotate(-283.392788) scale(0.09 -0.09)">
      <use xlink:href="#DejaVuSans-36"/>
      <use xlink:href="#DejaVuSans-35" transform="translate(63.623047 0)"/>
      <use xlink:href="#DejaVuSans-2e" transform="translate(127.246094 0)"/>
      <use xlink:href="#DejaVuSans-36" transform="translate(159.033203 0)"/>
     </g>
    </g>
   </g>
   <g id="text_29">
    <g clip-path="url(#p37dc0060fd)">
     <!-- 65.6 -->
     <g transform="translate(106.65715 143.306794) rotate(-278.334241) scale(0.09 -0.09)">
      <use xlink:href="#DejaVuSans-36"/>
      <use xlink:href="#DejaVuSans-35" transform="translate(63.623047 0)"/>
      <use xlink:href="#DejaVuSans-2e" transform="translate(127.246094 0)"/>
      <use xlink:href="#DejaVuSans-36" transform="translate(159.033203 0)"/>
     </g>
    </g>
   </g>
   <g id="text_30">
    <g clip-path="url(#p37dc0060fd)">
     <!-- 66.4 -->
     <g transform="translate(267.340226 80.722602) rotate(-351.884577) scale(0.09 -0.09)">
      <use xlink:href="#DejaVuSans-36"/>
      <use xlink:href="#DejaVuSans-36" transform="translate(63.623047 0)"/>
      <use xlink:href="#DejaVuSans-2e" transform="translate(127.246094 0)"/>
      <use xlink:href="#DejaVuSans-34" transform="translate(159.033203 0)"/>
     </g>
    </g>
   </g>
   <g id="text_31">
    <g clip-path="url(#p37dc0060fd)">
     <!-- 66.4 -->
     <g transform="translate(119.923233 144.055901) rotate(-271.353585) scale(0.09 -0.09)">
      <use xlink:href="#DejaVuSans-36"/>
      <use xlink:href="#DejaVuSans-36" transform="translate(63.623047 0)"/>
      <use xlink:href="#DejaVuSans-2e" transform="translate(127.246094 0)"/>
      <use xlink:href="#DejaVuSans-34" transform="translate(159.033203 0)"/>
     </g>
    </g>
   </g>
   <g id="text_32">
    <g clip-path="url(#p37dc0060fd)">
     <!-- 67.2 -->
     <g transform="translate(294.178308 76.265344) rotate(-31.112481) scale(0.09 -0.09)">
      <defs>
       <path id="DejaVuSans-37" d="M 525 4666 
L 3525 4666 
L 3525 4397 
L 1831 0 
L 1172 0 
L 2766 4134 
L 525 4134 
L 525 4666 
z
" transform="scale(0.015625)"/>
      </defs>
      <use xlink:href="#DejaVuSans-36"/>
      <use xlink:href="#DejaVuSans-37" transform="translate(63.623047 0)"/>
      <use xlink:href="#DejaVuSans-2e" transform="translate(127.246094 0)"/>
      <use xlink:href="#DejaVuSans-32" transform="translate(159.033203 0)"/>
     </g>
    </g>
   </g>
   <g id="text_33">
    <g clip-path="url(#p37dc0060fd)">
     <!-- 67.2 -->
     <g transform="translate(102.21713 123.851037) rotate(-275.430489) scale(0.09 -0.09)">
      <use xlink:href="#DejaVuSans-36"/>
      <use xlink:href="#DejaVuSans-37" transform="translate(63.623047 0)"/>
      <use xlink:href="#DejaVuSans-2e" transform="translate(127.246094 0)"/>
      <use xlink:href="#DejaVuSans-32" transform="translate(159.033203 0)"/>
     </g>
    </g>
   </g>
   <g id="text_34">
    <g clip-path="url(#p37dc0060fd)">
     <!-- 68.0 -->
     <g transform="translate(196.356634 37.036546) rotate(-6.668357) scale(0.09 -0.09)">
      <use xlink:href="#DejaVuSans-36"/>
      <use xlink:href="#DejaVuSans-38" transform="translate(63.623047 0)"/>
      <use xlink:href="#DejaVuSans-2e" transform="translate(127.246094 0)"/>
      <use xlink:href="#DejaVuSans-30" transform="translate(159.033203 0)"/>
     </g>
    </g>
   </g>
   <g id="text_35">
    <g clip-path="url(#p37dc0060fd)">
     <!-- 68.0 -->
     <g transform="translate(124.703163 193.663383) rotate(-326.516419) scale(0.09 -0.09)">
      <use xlink:href="#DejaVuSans-36"/>
      <use xlink:href="#DejaVuSans-38" transform="translate(63.623047 0)"/>
      <use xlink:href="#DejaVuSans-2e" transform="translate(127.246094 0)"/>
      <use xlink:href="#DejaVuSans-30" transform="translate(159.033203 0)"/>
     </g>
    </g>
   </g>
   <g id="text_36">
    <g clip-path="url(#p37dc0060fd)">
     <!-- 68.0 -->
     <g transform="translate(172.206897 240.386398) rotate(-1.527522) scale(0.09 -0.09)">
      <use xlink:href="#DejaVuSans-36"/>
      <use xlink:href="#DejaVuSans-38" transform="translate(63.623047 0)"/>
      <use xlink:href="#DejaVuSans-2e" transform="translate(127.246094 0)"/>
      <use xlink:href="#DejaVuSans-30" transform="translate(159.033203 0)"/>
     </g>
    </g>
   </g>
   <g id="text_37">
    <g clip-path="url(#p37dc0060fd)">
     <!-- 68.0 -->
     <g transform="translate(243.703297 242.226188) rotate(-359.438929) scale(0.09 -0.09)">
      <use xlink:href="#DejaVuSans-36"/>
      <use xlink:href="#DejaVuSans-38" transform="translate(63.623047 0)"/>
      <use xlink:href="#DejaVuSans-2e" transform="translate(127.246094 0)"/>
      <use xlink:href="#DejaVuSans-30" transform="translate(159.033203 0)"/>
     </g>
    </g>
   </g>
   <g id="text_38">
    <g clip-path="url(#p37dc0060fd)">
     <!-- 68.8 -->
     <g transform="translate(172.111776 31.023568) rotate(-359.402348) scale(0.09 -0.09)">
      <use xlink:href="#DejaVuSans-36"/>
      <use xlink:href="#DejaVuSans-38" transform="translate(63.623047 0)"/>
      <use xlink:href="#DejaVuSans-2e" transform="translate(127.246094 0)"/>
      <use xlink:href="#DejaVuSans-38" transform="translate(159.033203 0)"/>
     </g>
    </g>
   </g>
   <g id="text_39">
    <g clip-path="url(#p37dc0060fd)">
     <!-- 68.8 -->
     <g transform="translate(108.458999 71.131153) rotate(-76.619686) scale(0.09 -0.09)">
      <use xlink:href="#DejaVuSans-36"/>
      <use xlink:href="#DejaVuSans-38" transform="translate(63.623047 0)"/>
      <use xlink:href="#DejaVuSans-2e" transform="translate(127.246094 0)"/>
      <use xlink:href="#DejaVuSans-38" transform="translate(159.033203 0)"/>
     </g>
    </g>
   </g>
   <g id="text_40">
    <g clip-path="url(#p37dc0060fd)">
     <!-- 68.8 -->
     <g transform="translate(220.256026 211.338086) rotate(-7.230173) scale(0.09 -0.09)">
      <use xlink:href="#DejaVuSans-36"/>
      <use xlink:href="#DejaVuSans-38" transform="translate(63.623047 0)"/>
      <use xlink:href="#DejaVuSans-2e" transform="translate(127.246094 0)"/>
      <use xlink:href="#DejaVuSans-38" transform="translate(159.033203 0)"/>
     </g>
    </g>
   </g>
   <g id="text_41">
    <g clip-path="url(#p37dc0060fd)">
     <!-- 69.6 -->
     <g transform="translate(148.225393 31.134338) rotate(-358.835308) scale(0.09 -0.09)">
      <use xlink:href="#DejaVuSans-36"/>
      <use xlink:href="#DejaVuSans-39" transform="translate(63.623047 0)"/>
      <use xlink:href="#DejaVuSans-2e" transform="translate(127.246094 0)"/>
      <use xlink:href="#DejaVuSans-36" transform="translate(159.033203 0)"/>
     </g>
    </g>
   </g>
   <g id="text_42">
    <g clip-path="url(#p37dc0060fd)">
     <!-- 69.6 -->
     <g transform="translate(196.135927 32.322218) rotate(-2.84202) scale(0.09 -0.09)">
      <use xlink:href="#DejaVuSans-36"/>
      <use xlink:href="#DejaVuSans-39" transform="translate(63.623047 0)"/>
      <use xlink:href="#DejaVuSans-2e" transform="translate(127.246094 0)"/>
      <use xlink:href="#DejaVuSans-36" transform="translate(159.033203 0)"/>
     </g>
    </g>
   </g>
   <g id="text_43">
    <g clip-path="url(#p37dc0060fd)">
     <!-- 69.6 -->
     <g transform="translate(303.646395 70.917541) rotate(-88.231625) scale(0.09 -0.09)">
      <use xlink:href="#DejaVuSans-36"/>
      <use xlink:href="#DejaVuSans-39" transform="translate(63.623047 0)"/>
      <use xlink:href="#DejaVuSans-2e" transform="translate(127.246094 0)"/>
      <use xlink:href="#DejaVuSans-36" transform="translate(159.033203 0)"/>
     </g>
    </g>
   </g>
   <g id="text_44">
    <g clip-path="url(#p37dc0060fd)">
     <!-- 69.6 -->
     <g transform="translate(172.080126 78.445536) rotate(-358.617277) scale(0.09 -0.09)">
      <use xlink:href="#DejaVuSans-36"/>
      <use xlink:href="#DejaVuSans-39" transform="translate(63.623047 0)"/>
      <use xlink:href="#DejaVuSans-2e" transform="translate(127.246094 0)"/>
      <use xlink:href="#DejaVuSans-36" transform="translate(159.033203 0)"/>
     </g>
    </g>
   </g>
   <g id="text_45">
    <g clip-path="url(#p37dc0060fd)">
     <!-- 69.6 -->
     <g transform="translate(236.179048 232.292177) rotate(-354.513542) scale(0.09 -0.09)">
      <use xlink:href="#DejaVuSans-36"/>
      <use xlink:href="#DejaVuSans-39" transform="translate(63.623047 0)"/>
      <use xlink:href="#DejaVuSans-2e" transform="translate(127.246094 0)"/>
      <use xlink:href="#DejaVuSans-36" transform="translate(159.033203 0)"/>
     </g>
    </g>
   </g>
   <g id="text_46">
    <g clip-path="url(#p37dc0060fd)">
     <!-- 70.4 -->
     <g transform="translate(268.625262 66.37096) rotate(-15.575815) scale(0.09 -0.09)">
      <use xlink:href="#DejaVuSans-37"/>
      <use xlink:href="#DejaVuSans-30" transform="translate(63.623047 0)"/>
      <use xlink:href="#DejaVuSans-2e" transform="translate(127.246094 0)"/>
      <use xlink:href="#DejaVuSans-34" transform="translate(159.033203 0)"/>
     </g>
    </g>
   </g>
   <g id="text_47">
    <g clip-path="url(#p37dc0060fd)">
     <!-- 70.4 -->
     <g transform="translate(258.182964 183.666861) rotate(-70.393511) scale(0.09 -0.09)">
      <use xlink:href="#DejaVuSans-37"/>
      <use xlink:href="#DejaVuSans-30" transform="translate(63.623047 0)"/>
      <use xlink:href="#DejaVuSans-2e" transform="translate(127.246094 0)"/>
      <use xlink:href="#DejaVuSans-34" transform="translate(159.033203 0)"/>
     </g>
    </g>
   </g>
   <g id="text_48">
    <g clip-path="url(#p37dc0060fd)">
     <!-- 70.4 -->
     <g transform="translate(245.640732 228.340409) rotate(-24.335228) scale(0.09 -0.09)">
      <use xlink:href="#DejaVuSans-37"/>
      <use xlink:href="#DejaVuSans-30" transform="translate(63.623047 0)"/>
      <use xlink:href="#DejaVuSans-2e" transform="translate(127.246094 0)"/>
      <use xlink:href="#DejaVuSans-34" transform="translate(159.033203 0)"/>
     </g>
    </g>
   </g>
   <g id="text_49">
    <g clip-path="url(#p37dc0060fd)">
     <!-- 71.2 -->
     <g transform="translate(197.3195 66.723551) rotate(-18.636941) scale(0.09 -0.09)">
      <use xlink:href="#DejaVuSans-37"/>
      <use xlink:href="#DejaVuSans-31" transform="translate(63.623047 0)"/>
      <use xlink:href="#DejaVuSans-2e" transform="translate(127.246094 0)"/>
      <use xlink:href="#DejaVuSans-32" transform="translate(159.033203 0)"/>
     </g>
    </g>
   </g>
   <g id="text_50">
    <g clip-path="url(#p37dc0060fd)">
     <!-- 71.2 -->
     <g transform="translate(224.408014 126.53102) rotate(-302.931255) scale(0.09 -0.09)">
      <use xlink:href="#DejaVuSans-37"/>
      <use xlink:href="#DejaVuSans-31" transform="translate(63.623047 0)"/>
      <use xlink:href="#DejaVuSans-2e" transform="translate(127.246094 0)"/>
      <use xlink:href="#DejaVuSans-32" transform="translate(159.033203 0)"/>
     </g>
    </g>
   </g>
   <g id="text_51">
    <g clip-path="url(#p37dc0060fd)">
     <!-- 72.0 -->
     <g transform="translate(243.749012 137.425002) rotate(-0.496067) scale(0.09 -0.09)">
      <use xlink:href="#DejaVuSans-37"/>
      <use xlink:href="#DejaVuSans-32" transform="translate(63.623047 0)"/>
      <use xlink:href="#DejaVuSans-2e" transform="translate(127.246094 0)"/>
      <use xlink:href="#DejaVuSans-30" transform="translate(159.033203 0)"/>
     </g>
    </g>
   </g>
   <g id="text_52">
    <g clip-path="url(#p37dc0060fd)">
     <!-- 72.0 -->
     <g transform="translate(200.046257 143.196027) rotate(-40.720164) scale(0.09 -0.09)">
      <use xlink:href="#DejaVuSans-37"/>
      <use xlink:href="#DejaVuSans-32" transform="translate(63.623047 0)"/>
      <use xlink:href="#DejaVuSans-2e" transform="translate(127.246094 0)"/>
      <use xlink:href="#DejaVuSans-30" transform="translate(159.033203 0)"/>
     </g>
    </g>
   </g>
   <g id="text_53">
    <g clip-path="url(#p37dc0060fd)">
     <!-- 72.8 -->
     <g transform="translate(197.110991 108.799412) rotate(-16.41858) scale(0.09 -0.09)">
      <use xlink:href="#DejaVuSans-37"/>
      <use xlink:href="#DejaVuSans-32" transform="translate(63.623047 0)"/>
      <use xlink:href="#DejaVuSans-2e" transform="translate(127.246094 0)"/>
      <use xlink:href="#DejaVuSans-38" transform="translate(159.033203 0)"/>
     </g>
    </g>
   </g>
   <g id="text_54">
    <g clip-path="url(#p37dc0060fd)">
     <!-- 72.8 -->
     <g transform="translate(244.21098 114.227044) rotate(-8.597489) scale(0.09 -0.09)">
      <use xlink:href="#DejaVuSans-37"/>
      <use xlink:href="#DejaVuSans-32" transform="translate(63.623047 0)"/>
      <use xlink:href="#DejaVuSans-2e" transform="translate(127.246094 0)"/>
      <use xlink:href="#DejaVuSans-38" transform="translate(159.033203 0)"/>
     </g>
    </g>
   </g>
   <g id="text_55">
    <g clip-path="url(#p37dc0060fd)">
     <!-- 73.6 -->
     <g transform="translate(200.087956 103.604076) rotate(-41.003465) scale(0.09 -0.09)">
      <use xlink:href="#DejaVuSans-37"/>
      <use xlink:href="#DejaVuSans-33" transform="translate(63.623047 0)"/>
      <use xlink:href="#DejaVuSans-2e" transform="translate(127.246094 0)"/>
      <use xlink:href="#DejaVuSans-36" transform="translate(159.033203 0)"/>
     </g>
    </g>
   </g>
   <g id="text_56">
    <g clip-path="url(#p37dc0060fd)">
     <!-- 74.4 -->
     <g transform="translate(172.41785 98.66717) rotate(-5.442491) scale(0.09 -0.09)">
      <use xlink:href="#DejaVuSans-37"/>
      <use xlink:href="#DejaVuSans-34" transform="translate(63.623047 0)"/>
      <use xlink:href="#DejaVuSans-2e" transform="translate(127.246094 0)"/>
      <use xlink:href="#DejaVuSans-34" transform="translate(159.033203 0)"/>
     </g>
    </g>
   </g>
  </g>
 </g>
 <defs>
  <clipPath id="p37dc0060fd">
   <rect x="62.84" y="26.88" width="286.36" height="213.4"/>
  </clipPath>
 </defs>
</svg>
