<?xml version="1.0" encoding="utf-8" standalone="no"?>
<!DOCTYPE svg PUBLIC "-//W3C//DTD SVG 1.1//EN"
  "http://www.w3.org/Graphics/SVG/1.1/DTD/svg11.dtd">
<svg xmlns:xlink="http://www.w3.org/1999/xlink" width="360pt" height="288pt" viewBox="0 0 360 288" xmlns="http://www.w3.org/2000/svg" version="1.1">
 <metadata>
  <rdf:RDF xmlns:dc="http://purl.org/dc/elements/1.1/" xmlns:cc="http://creativecommons.org/ns#" xmlns:rdf="http://www.w3.org/1999/02/22-rdf-syntax-ns#">
   <cc:Work>
    <dc:type rdf:resource="http://purl.org/dc/dcmitype/StillImage"/>
    <dc:date>2025-10-03T13:42:49.223617</dc:date>
    <dc:format>image/svg+xml</dc:format>
    <dc:creator>
     <cc:Agent>
      <dc:title>Matplotlib v3.10.6, https://matplotlib.org/</dc:title>
     </cc:Agent>
    </dc:creator>
   </cc:Work>
  </rdf:RDF>
 </metadata>
 <defs>
  <style type="text/css">*{stroke-linejoin: round; stroke-linecap: butt}</style>
 </defs>
 <g id="figure_1">
  <g id="patch_1">
   <path d="M 0 288 
L 360 288 
L 360 0 
L 0 0 
z
" style="fill: #ffffff"/>
  </g>
  <g id="axes_1">
   <g id="patch_2">
    <path d="M 62.84 240.28 
L 349.2 240.28 
L 349.2 26.88 
L 62.84 26.88 
z
" style="fill: #ffffff"/>
   </g>
   <g id="QuadContourSet_1">
    <path d="M 86.703333 26.88 
L 88.57038 26.88 
L 88.303392 36.380776 
L 88.222255 47.600163 
L 88.249515 60.808896 
L 88.486794 76.198006 
L 89.315458 93.757994 
L 88.944872 113.137869 
L 88.654445 133.590571 
L 88.513365 154.013971 
L 88.601277 173.39493 
L 88.649636 190.956403 
L 88.623322 206.347113 
L 88.593787 219.557363 
L 88.500912 230.778089 
L 88.273449 240.28 
L 86.703333 240.28 
L 62.84 240.28 
L 62.84 230.778089 
L 62.84 219.557363 
L 62.84 206.347113 
L 62.84 190.956403 
L 62.84 173.39493 
L 62.84 154.013971 
L 62.84 133.590571 
L 62.84 113.137869 
L 62.84 93.757994 
L 62.84 76.198006 
L 62.84 60.808896 
L 62.84 47.600163 
L 62.84 36.380776 
L 62.84 26.88 
z
M 325.336667 26.88 
L 349.2 26.88 
L 349.2 36.380776 
L 349.2 47.600163 
L 349.2 60.808896 
L 349.2 76.198006 
L 349.2 93.757994 
L 349.2 113.137869 
L 349.2 133.590571 
L 349.2 154.013971 
L 349.2 173.39493 
L 349.2 190.956403 
L 349.2 206.347113 
L 349.2 219.557363 
L 349.2 230.778089 
L 349.2 240.28 
L 325.336667 240.28 
L 322.961691 240.28 
L 323.105026 230.778089 
L 323.248752 219.557363 
L 323.387031 206.347113 
L 323.566137 190.956403 
L 323.766661 173.39493 
L 323.637883 154.013971 
L 323.390103 133.590571 
L 323.376993 113.137869 
L 323.60002 93.757994 
L 323.962714 76.198006 
L 323.870903 60.808896 
L 323.790336 47.600163 
L 323.630704 36.380776 
L 323.544556 26.88 
z
" clip-path="url(#p5162588d18)" style="fill: #460a5d"/>
    <path d="M 90.129811 36.380776 
L 89.95606 47.600163 
L 90.014435 60.808896 
L 90.522562 76.198006 
L 92.29712 93.757994 
L 91.503522 113.137869 
L 90.881582 133.590571 
L 90.579463 154.013971 
L 90.767724 173.39493 
L 90.871283 190.956403 
L 90.814931 206.347113 
L 90.751684 219.557363 
L 90.552796 230.778089 
L 90.06569 240.28 
L 88.273449 240.28 
L 88.500912 230.778089 
L 88.593787 219.557363 
L 88.623322 206.347113 
L 88.649636 190.956403 
L 88.601277 173.39493 
L 88.513365 154.013971 
L 88.654445 133.590571 
L 88.944872 113.137869 
L 89.315458 93.757994 
L 88.486794 76.198006 
L 88.249515 60.808896 
L 88.222255 47.600163 
L 88.303392 36.380776 
L 88.57038 26.88 
L 90.701558 26.88 
z
M 323.630704 36.380776 
L 323.790336 47.600163 
L 323.870903 60.808896 
L 323.962714 76.198006 
L 323.60002 93.757994 
L 323.376993 113.137869 
L 323.390103 133.590571 
L 323.637883 154.013971 
L 323.766661 173.39493 
L 323.566137 190.956403 
L 323.387031 206.347113 
L 323.248752 219.557363 
L 323.105026 230.778089 
L 322.961691 240.28 
L 320.250726 240.28 
L 320.557674 230.778089 
L 320.86546 219.557363 
L 321.161579 206.347113 
L 321.545129 190.956403 
L 321.974546 173.39493 
L 321.698771 154.013971 
L 321.168158 133.590571 
L 321.140083 113.137869 
L 321.617689 93.757994 
L 322.394387 76.198006 
L 322.197777 60.808896 
L 322.025244 47.600163 
L 321.683397 36.380776 
L 321.498915 26.88 
L 323.544556 26.88 
z
" clip-path="url(#p5162588d18)" style="fill: #481b6d"/>
    <path d="M 91.95623 36.380776 
L 91.689864 47.600163 
L 91.779356 60.808896 
L 92.558331 76.198006 
L 95.278783 93.757994 
L 94.062173 113.137869 
L 93.108718 133.590571 
L 92.645561 154.013971 
L 92.934171 173.39493 
L 93.09293 190.956403 
L 93.006541 206.347113 
L 92.90958 219.557363 
L 92.604679 230.778089 
L 91.85793 240.28 
L 90.06569 240.28 
L 90.552796 230.778089 
L 90.751684 219.557363 
L 90.814931 206.347113 
L 90.871283 190.956403 
L 90.767724 173.39493 
L 90.579463 154.013971 
L 90.881582 133.590571 
L 91.503522 113.137869 
L 92.29712 93.757994 
L 90.522562 76.198006 
L 90.014435 60.808896 
L 89.95606 47.600163 
L 90.129811 36.380776 
L 90.701558 26.88 
L 92.832736 26.88 
z
M 321.683397 36.380776 
L 322.025244 47.600163 
L 322.197777 60.808896 
L 322.394387 76.198006 
L 321.617689 93.757994 
L 321.140083 113.137869 
L 321.168158 133.590571 
L 321.698771 154.013971 
L 321.974546 173.39493 
L 321.545129 190.956403 
L 321.161579 206.347113 
L 320.86546 219.557363 
L 320.557674 230.778089 
L 320.250726 240.28 
L 317.539762 240.28 
L 318.010322 230.778089 
L 318.482168 219.557363 
L 318.936127 206.347113 
L 319.524122 190.956403 
L 320.182431 173.39493 
L 319.759659 154.013971 
L 318.946213 133.590571 
L 318.903174 113.137869 
L 319.635358 93.757994 
L 320.826061 76.198006 
L 320.524651 60.808896 
L 320.260153 47.600163 
L 319.736091 36.380776 
L 319.453273 26.88 
L 321.498915 26.88 
z
" clip-path="url(#p5162588d18)" style="fill: #472a7a"/>
    <path d="M 93.782649 36.380776 
L 93.423669 47.600163 
L 93.544276 60.808896 
L 94.594099 76.198006 
L 98.260446 93.757994 
L 96.620823 113.137869 
L 95.335854 133.590571 
L 94.711659 154.013971 
L 95.100618 173.39493 
L 95.314577 190.956403 
L 95.198151 206.347113 
L 95.067477 219.557363 
L 94.656562 230.778089 
L 93.650171 240.28 
L 91.85793 240.28 
L 92.604679 230.778089 
L 92.90958 219.557363 
L 93.006541 206.347113 
L 93.09293 190.956403 
L 92.934171 173.39493 
L 92.645561 154.013971 
L 93.108718 133.590571 
L 94.062173 113.137869 
L 95.278783 93.757994 
L 92.558331 76.198006 
L 91.779356 60.808896 
L 91.689864 47.600163 
L 91.95623 36.380776 
L 92.832736 26.88 
L 94.963914 26.88 
z
M 319.736091 36.380776 
L 320.260153 47.600163 
L 320.524651 60.808896 
L 320.826061 76.198006 
L 319.635358 93.757994 
L 318.903174 113.137869 
L 318.946213 133.590571 
L 319.759659 154.013971 
L 320.182431 173.39493 
L 319.524122 190.956403 
L 318.936127 206.347113 
L 318.482168 219.557363 
L 318.010322 230.778089 
L 317.539762 240.28 
L 314.828797 240.28 
L 315.46297 230.778089 
L 316.098875 219.557363 
L 316.710676 206.347113 
L 317.503114 190.956403 
L 318.390315 173.39493 
L 317.820548 154.013971 
L 316.724268 133.590571 
L 316.666264 113.137869 
L 317.653027 93.757994 
L 319.257734 76.198006 
L 318.851525 60.808896 
L 318.495062 47.600163 
L 317.788785 36.380776 
L 317.407632 26.88 
L 319.453273 26.88 
z
" clip-path="url(#p5162588d18)" style="fill: #443983"/>
    <path d="M 95.609068 36.380776 
L 95.157473 47.600163 
L 95.309197 60.808896 
L 96.629867 76.198006 
L 101.242108 93.757994 
L 99.179473 113.137869 
L 97.562991 133.590571 
L 96.777757 154.013971 
L 97.267065 173.39493 
L 97.536224 190.956403 
L 97.389761 206.347113 
L 97.225374 219.557363 
L 96.708446 230.778089 
L 95.442411 240.28 
L 93.650171 240.28 
L 94.656562 230.778089 
L 95.067477 219.557363 
L 95.198151 206.347113 
L 95.314577 190.956403 
L 95.100618 173.39493 
L 94.711659 154.013971 
L 95.335854 133.590571 
L 96.620823 113.137869 
L 98.260446 93.757994 
L 94.594099 76.198006 
L 93.544276 60.808896 
L 93.423669 47.600163 
L 93.782649 36.380776 
L 94.963914 26.88 
L 97.095093 26.88 
z
M 317.788785 36.380776 
L 318.495062 47.600163 
L 318.851525 60.808896 
L 319.257734 76.198006 
L 317.653027 93.757994 
L 316.666264 113.137869 
L 316.724268 133.590571 
L 317.820548 154.013971 
L 318.390315 173.39493 
L 317.503114 190.956403 
L 316.710676 206.347113 
L 316.098875 219.557363 
L 315.46297 230.778089 
L 314.828797 240.28 
L 312.117832 240.28 
L 312.915617 230.778089 
L 313.715583 219.557363 
L 314.485224 206.347113 
L 315.482107 190.956403 
L 316.5982 173.39493 
L 315.881436 154.013971 
L 314.502323 133.590571 
L 314.429354 113.137869 
L 315.670696 93.757994 
L 317.689408 76.198006 
L 317.178399 60.808896 
L 316.729971 47.600163 
L 315.841478 36.380776 
L 315.361991 26.88 
L 317.407632 26.88 
z
" clip-path="url(#p5162588d18)" style="fill: #3f4788"/>
    <path d="M 97.435488 36.380776 
L 96.891278 47.600163 
L 97.074117 60.808896 
L 98.665635 76.198006 
L 104.223771 93.757994 
L 101.738123 113.137869 
L 99.790127 133.590571 
L 98.843855 154.013971 
L 99.433512 173.39493 
L 99.757871 190.956403 
L 99.581371 206.347113 
L 99.383271 219.557363 
L 98.760329 230.778089 
L 97.234652 240.28 
L 95.442411 240.28 
L 96.708446 230.778089 
L 97.225374 219.557363 
L 97.389761 206.347113 
L 97.536224 190.956403 
L 97.267065 173.39493 
L 96.777757 154.013971 
L 97.562991 133.590571 
L 99.179473 113.137869 
L 101.242108 93.757994 
L 96.629867 76.198006 
L 95.309197 60.808896 
L 95.157473 47.600163 
L 95.609068 36.380776 
L 97.095093 26.88 
L 99.226271 26.88 
z
M 315.841478 36.380776 
L 316.729971 47.600163 
L 317.178399 60.808896 
L 317.689408 76.198006 
L 315.670696 93.757994 
L 314.429354 113.137869 
L 314.502323 133.590571 
L 315.881436 154.013971 
L 316.5982 173.39493 
L 315.482107 190.956403 
L 314.485224 206.347113 
L 313.715583 219.557363 
L 312.915617 230.778089 
L 312.117832 240.28 
L 309.406868 240.28 
L 310.368265 230.778089 
L 311.332291 219.557363 
L 312.259772 206.347113 
L 313.4611 190.956403 
L 314.806085 173.39493 
L 313.942324 154.013971 
L 312.280378 133.590571 
L 312.192445 113.137869 
L 313.688365 93.757994 
L 316.121081 76.198006 
L 315.505273 60.808896 
L 314.96488 47.600163 
L 313.894172 36.380776 
L 313.31635 26.88 
L 315.361991 26.88 
z
" clip-path="url(#p5162588d18)" style="fill: #39558c"/>
    <path d="M 99.261907 36.380776 
L 98.625082 47.600163 
L 98.839038 60.808896 
L 100.701403 76.198006 
L 107.205433 93.757994 
L 104.296774 113.137869 
L 102.017264 133.590571 
L 100.909953 154.013971 
L 101.599959 173.39493 
L 101.979518 190.956403 
L 101.772981 206.347113 
L 101.541167 219.557363 
L 100.812212 230.778089 
L 99.026892 240.28 
L 97.234652 240.28 
L 98.760329 230.778089 
L 99.383271 219.557363 
L 99.581371 206.347113 
L 99.757871 190.956403 
L 99.433512 173.39493 
L 98.843855 154.013971 
L 99.790127 133.590571 
L 101.738123 113.137869 
L 104.223771 93.757994 
L 98.665635 76.198006 
L 97.074117 60.808896 
L 96.891278 47.600163 
L 97.435488 36.380776 
L 99.226271 26.88 
L 101.357449 26.88 
z
M 313.894172 36.380776 
L 314.96488 47.600163 
L 315.505273 60.808896 
L 316.121081 76.198006 
L 313.688365 93.757994 
L 312.192445 113.137869 
L 312.280378 133.590571 
L 313.942324 154.013971 
L 314.806085 173.39493 
L 313.4611 190.956403 
L 312.259772 206.347113 
L 311.332291 219.557363 
L 310.368265 230.778089 
L 309.406868 240.28 
L 306.695903 240.28 
L 307.820913 230.778089 
L 308.948998 219.557363 
L 310.034321 206.347113 
L 311.440092 190.956403 
L 313.01397 173.39493 
L 312.003213 154.013971 
L 310.058433 133.590571 
L 309.955535 113.137869 
L 311.706035 93.757994 
L 314.552755 76.198006 
L 313.832148 60.808896 
L 313.199788 47.600163 
L 311.946866 36.380776 
L 311.270708 26.88 
L 313.31635 26.88 
z
" clip-path="url(#p5162588d18)" style="fill: #33628d"/>
    <path d="M 101.088326 36.380776 
L 100.358887 47.600163 
L 100.603958 60.808896 
L 102.737171 76.198006 
L 110.187096 93.757994 
L 106.855424 113.137869 
L 104.2444 133.590571 
L 102.976051 154.013971 
L 103.766406 173.39493 
L 104.201164 190.956403 
L 103.96459 206.347113 
L 103.699064 219.557363 
L 102.864095 230.778089 
L 100.819133 240.28 
L 99.026892 240.28 
L 100.812212 230.778089 
L 101.541167 219.557363 
L 101.772981 206.347113 
L 101.979518 190.956403 
L 101.599959 173.39493 
L 100.909953 154.013971 
L 102.017264 133.590571 
L 104.296774 113.137869 
L 107.205433 93.757994 
L 100.701403 76.198006 
L 98.839038 60.808896 
L 98.625082 47.600163 
L 99.261907 36.380776 
L 101.357449 26.88 
L 103.488627 26.88 
z
M 311.946866 36.380776 
L 313.199788 47.600163 
L 313.832148 60.808896 
L 314.552755 76.198006 
L 311.706035 93.757994 
L 309.955535 113.137869 
L 310.058433 133.590571 
L 312.003213 154.013971 
L 313.01397 173.39493 
L 311.440092 190.956403 
L 310.034321 206.347113 
L 308.948998 219.557363 
L 307.820913 230.778089 
L 306.695903 240.28 
L 303.984938 240.28 
L 305.273561 230.778089 
L 306.565706 219.557363 
L 307.808869 206.347113 
L 309.419085 190.956403 
L 311.221855 173.39493 
L 310.064101 154.013971 
L 307.836488 133.590571 
L 307.718626 113.137869 
L 309.723704 93.757994 
L 312.984428 76.198006 
L 312.159022 60.808896 
L 311.434697 47.600163 
L 309.999559 36.380776 
L 309.225067 26.88 
L 311.270708 26.88 
z
M 134.43 216.595741 
L 136.432748 219.557363 
L 134.43 221.618032 
L 131.908194 219.557363 
z
M 277.61 219.06363 
L 278.264224 219.557363 
L 277.61 220.665026 
L 277.173364 219.557363 
z
" clip-path="url(#p5162588d18)" style="fill: #2e6e8e"/>
    <path d="M 102.914745 36.380776 
L 102.092691 47.600163 
L 102.368879 60.808896 
L 104.772939 76.198006 
L 110.566667 89.637006 
L 115.822307 93.757994 
L 110.566667 106.54004 
L 109.414074 113.137869 
L 106.471537 133.590571 
L 105.042149 154.013971 
L 105.932853 173.39493 
L 106.422811 190.956403 
L 106.1562 206.347113 
L 105.856961 219.557363 
L 104.915979 230.778089 
L 102.611373 240.28 
L 100.819133 240.28 
L 102.864095 230.778089 
L 103.699064 219.557363 
L 103.96459 206.347113 
L 104.201164 190.956403 
L 103.766406 173.39493 
L 102.976051 154.013971 
L 104.2444 133.590571 
L 106.855424 113.137869 
L 110.187096 93.757994 
L 102.737171 76.198006 
L 100.603958 60.808896 
L 100.358887 47.600163 
L 101.088326 36.380776 
L 103.488627 26.88 
L 105.619806 26.88 
z
M 309.999559 36.380776 
L 311.434697 47.600163 
L 312.159022 60.808896 
L 312.984428 76.198006 
L 309.723704 93.757994 
L 307.718626 113.137869 
L 307.836488 133.590571 
L 310.064101 154.013971 
L 311.221855 173.39493 
L 309.419085 190.956403 
L 307.808869 206.347113 
L 306.565706 219.557363 
L 305.273561 230.778089 
L 303.984938 240.28 
L 301.473333 240.28 
L 300.665806 240.28 
L 301.473333 239.044083 
L 302.726209 230.778089 
L 304.182414 219.557363 
L 305.583417 206.347113 
L 307.398077 190.956403 
L 309.42974 173.39493 
L 308.12499 154.013971 
L 305.614543 133.590571 
L 305.481716 113.137869 
L 307.741373 93.757994 
L 311.416102 76.198006 
L 310.485896 60.808896 
L 309.669606 47.600163 
L 308.052253 36.380776 
L 307.179426 26.88 
L 309.225067 26.88 
z
M 134.43 208.720406 
L 141.758312 219.557363 
L 134.43 227.097616 
L 125.202388 219.557363 
z
M 131.908194 219.557363 
L 134.43 221.618032 
L 136.432748 219.557363 
L 134.43 216.595741 
z
M 277.61 210.866144 
L 289.12637 219.557363 
L 289.01297 230.778089 
L 277.61 232.455458 
L 274.208272 230.778089 
L 269.923856 219.557363 
z
M 277.173364 219.557363 
L 277.61 220.665026 
L 278.264224 219.557363 
L 277.61 219.06363 
z
M 206.02 235.213754 
L 207.770785 240.28 
L 206.02 240.28 
L 203.790504 240.28 
z
" clip-path="url(#p5162588d18)" style="fill: #29798e"/>
    <path d="M 104.741164 36.380776 
L 103.826495 47.600163 
L 104.133799 60.808896 
L 106.808707 76.198006 
L 110.566667 84.914885 
L 121.844594 93.757994 
L 114.554183 113.137869 
L 110.566667 121.233821 
L 108.698673 133.590571 
L 107.108247 154.013971 
L 108.0993 173.39493 
L 108.644458 190.956403 
L 108.34781 206.347113 
L 108.014858 219.557363 
L 106.967862 230.778089 
L 104.403614 240.28 
L 102.611373 240.28 
L 104.915979 230.778089 
L 105.856961 219.557363 
L 106.1562 206.347113 
L 106.422811 190.956403 
L 105.932853 173.39493 
L 105.042149 154.013971 
L 106.471537 133.590571 
L 109.414074 113.137869 
L 110.566667 106.54004 
L 115.822307 93.757994 
L 110.566667 89.637006 
L 104.772939 76.198006 
L 102.368879 60.808896 
L 102.092691 47.600163 
L 102.914745 36.380776 
L 105.619806 26.88 
L 107.750984 26.88 
z
M 308.052253 36.380776 
L 309.669606 47.600163 
L 310.485896 60.808896 
L 311.416102 76.198006 
L 307.741373 93.757994 
L 305.481716 113.137869 
L 305.614543 133.590571 
L 308.12499 154.013971 
L 309.42974 173.39493 
L 307.398077 190.956403 
L 305.583417 206.347113 
L 304.182414 219.557363 
L 302.726209 230.778089 
L 301.473333 239.044083 
L 300.665806 240.28 
L 289.684758 240.28 
L 277.61 236.182141 
L 266.65051 230.778089 
L 262.674348 219.557363 
L 267.698444 206.347113 
L 277.61 203.704135 
L 285.875144 206.347113 
L 299.988515 219.557363 
L 301.473333 221.93591 
L 301.799121 219.557363 
L 303.357966 206.347113 
L 305.37707 190.956403 
L 307.637625 173.39493 
L 306.185878 154.013971 
L 303.392598 133.590571 
L 303.244806 113.137869 
L 305.759042 93.757994 
L 309.847775 76.198006 
L 308.81277 60.808896 
L 307.904515 47.600163 
L 306.104946 36.380776 
L 305.133784 26.88 
L 307.179426 26.88 
z
M 269.923856 219.557363 
L 274.208272 230.778089 
L 277.61 232.455458 
L 289.01297 230.778089 
L 289.12637 219.557363 
L 277.61 210.866144 
z
M 134.43 202.702252 
L 138.312519 206.347113 
L 147.083876 219.557363 
L 136.685016 230.778089 
L 134.43 232.291277 
L 130.667191 230.778089 
L 118.496581 219.557363 
L 124.686454 206.347113 
z
M 125.202388 219.557363 
L 134.43 227.097616 
L 141.758312 219.557363 
L 134.43 208.720406 
z
M 206.02 205.685055 
L 206.902721 206.347113 
L 206.02 218.833529 
L 205.275601 206.347113 
z
M 206.02 219.72197 
L 209.256616 230.778089 
L 212.264418 240.28 
L 207.770785 240.28 
L 206.02 235.213754 
L 203.790504 240.28 
L 198.068189 240.28 
L 201.133908 230.778089 
z
" clip-path="url(#p5162588d18)" style="fill: #25848e"/>
    <path d="M 106.567584 36.380776 
L 105.5603 47.600163 
L 105.89872 60.808896 
L 108.844475 76.198006 
L 110.566667 80.192763 
L 127.866881 93.757994 
L 121.810399 113.137869 
L 111.842532 133.590571 
L 110.566667 137.534102 
L 109.174345 154.013971 
L 110.265747 173.39493 
L 110.566667 182.307777 
L 112.886914 190.956403 
L 134.43 197.485189 
L 143.869754 206.347113 
L 152.409441 219.557363 
L 143.553156 230.778089 
L 134.43 236.900021 
L 119.206739 230.778089 
L 111.790775 219.557363 
L 110.740053 206.347113 
L 110.566667 205.047363 
L 110.53942 206.347113 
L 110.172754 219.557363 
L 109.019745 230.778089 
L 106.195855 240.28 
L 104.403614 240.28 
L 106.967862 230.778089 
L 108.014858 219.557363 
L 108.34781 206.347113 
L 108.644458 190.956403 
L 108.0993 173.39493 
L 107.108247 154.013971 
L 108.698673 133.590571 
L 110.566667 121.233821 
L 114.554183 113.137869 
L 121.844594 93.757994 
L 110.566667 84.914885 
L 106.808707 76.198006 
L 104.133799 60.808896 
L 103.826495 47.600163 
L 104.741164 36.380776 
L 107.750984 26.88 
L 109.882162 26.88 
z
M 124.686454 206.347113 
L 118.496581 219.557363 
L 130.667191 230.778089 
L 134.43 232.291277 
L 136.685016 230.778089 
L 147.083876 219.557363 
L 138.312519 206.347113 
L 134.43 202.702252 
z
M 306.104946 36.380776 
L 307.904515 47.600163 
L 308.81277 60.808896 
L 309.847775 76.198006 
L 305.759042 93.757994 
L 303.244806 113.137869 
L 303.392598 133.590571 
L 306.185878 154.013971 
L 307.637625 173.39493 
L 305.37707 190.956403 
L 303.357966 206.347113 
L 301.799121 219.557363 
L 301.473333 221.93591 
L 299.988515 219.557363 
L 285.875144 206.347113 
L 277.61 203.704135 
L 267.698444 206.347113 
L 262.674348 219.557363 
L 266.65051 230.778089 
L 277.61 236.182141 
L 289.684758 240.28 
L 278.703709 240.28 
L 277.61 239.908824 
L 259.092748 230.778089 
L 255.424839 219.557363 
L 253.746667 214.459349 
L 251.417388 206.347113 
L 253.746667 204.757917 
L 277.61 197.814223 
L 301.473333 204.174188 
L 303.356062 190.956403 
L 305.845509 173.39493 
L 304.246766 154.013971 
L 301.473333 135.366612 
L 300.124921 133.590571 
L 295.692481 113.137869 
L 301.473333 110.194569 
L 303.776711 93.757994 
L 308.279449 76.198006 
L 307.139644 60.808896 
L 306.139424 47.600163 
L 304.15764 36.380776 
L 303.088143 26.88 
L 305.133784 26.88 
z
M 206.02 201.772632 
L 212.11915 206.347113 
L 211.922467 219.557363 
L 214.168916 230.778089 
L 216.758052 240.28 
L 212.264418 240.28 
L 209.256616 230.778089 
L 206.02 219.72197 
L 201.133908 230.778089 
L 198.068189 240.28 
L 192.345874 240.28 
L 193.718153 230.778089 
L 199.735376 219.557363 
L 200.876587 206.347113 
z
M 205.275601 206.347113 
L 206.02 218.833529 
L 206.902721 206.347113 
L 206.02 205.685055 
z
" clip-path="url(#p5162588d18)" style="fill: #21908d"/>
    <path d="M 110.566667 26.88 
L 115.236808 26.88 
L 110.566667 30.331775 
L 108.394003 36.380776 
L 107.294104 47.600163 
L 107.66364 60.808896 
L 110.566667 74.880278 
L 112.232431 76.198006 
L 133.889168 93.757994 
L 129.066615 113.137869 
L 119.754499 133.590571 
L 112.878608 154.013971 
L 116.294196 173.39493 
L 130.101699 190.956403 
L 134.43 192.268125 
L 149.426989 206.347113 
L 157.735005 219.557363 
L 150.421297 230.778089 
L 158.293333 238.979691 
L 162.799472 240.28 
L 158.293333 240.28 
L 134.43 240.28 
L 130.699199 240.28 
L 110.566667 232.16599 
L 107.988095 240.28 
L 106.195855 240.28 
L 109.019745 230.778089 
L 110.172754 219.557363 
L 110.53942 206.347113 
L 110.566667 205.047363 
L 110.740053 206.347113 
L 111.790775 219.557363 
L 119.206739 230.778089 
L 134.43 236.900021 
L 143.553156 230.778089 
L 152.409441 219.557363 
L 143.869754 206.347113 
L 134.43 197.485189 
L 112.886914 190.956403 
L 110.566667 182.307777 
L 110.265747 173.39493 
L 109.174345 154.013971 
L 110.566667 137.534102 
L 111.842532 133.590571 
L 121.810399 113.137869 
L 127.866881 93.757994 
L 110.566667 80.192763 
L 108.844475 76.198006 
L 105.89872 60.808896 
L 105.5603 47.600163 
L 106.567584 36.380776 
L 109.882162 26.88 
z
M 301.473333 26.88 
L 303.088143 26.88 
L 304.15764 36.380776 
L 306.139424 47.600163 
L 307.139644 60.808896 
L 308.279449 76.198006 
L 303.776711 93.757994 
L 301.473333 110.194569 
L 295.692481 113.137869 
L 300.124921 133.590571 
L 301.473333 135.366612 
L 304.246766 154.013971 
L 305.845509 173.39493 
L 303.356062 190.956403 
L 301.473333 204.174188 
L 277.61 197.814223 
L 253.746667 204.757917 
L 251.417388 206.347113 
L 253.746667 214.459349 
L 255.424839 219.557363 
L 259.092748 230.778089 
L 277.61 239.908824 
L 278.703709 240.28 
L 277.61 240.28 
L 270.546074 240.28 
L 253.746667 231.920509 
L 250.943965 230.778089 
L 247.153615 219.557363 
L 245.093941 206.347113 
L 253.746667 200.443623 
L 277.61 191.924312 
L 294.458446 190.956403 
L 301.473333 190.159659 
L 304.053394 173.39493 
L 302.307655 154.013971 
L 301.473333 148.404357 
L 290.226356 133.590571 
L 277.61 117.535886 
L 274.34385 113.137869 
L 277.23127 93.757994 
L 277.61 93.373179 
L 283.517333 93.757994 
L 301.473333 96.048938 
L 301.79438 93.757994 
L 306.711122 76.198006 
L 305.466518 60.808896 
L 304.374332 47.600163 
L 302.210334 36.380776 
L 301.473333 30.276737 
L 299.855522 26.88 
z
M 206.02 197.86021 
L 217.335578 206.347113 
L 217.883408 219.557363 
L 219.081217 230.778089 
L 221.251686 240.28 
L 216.758052 240.28 
L 214.168916 230.778089 
L 211.922467 219.557363 
L 212.11915 206.347113 
L 206.02 201.772632 
L 200.876587 206.347113 
L 199.735376 219.557363 
L 193.718153 230.778089 
L 192.345874 240.28 
L 186.623559 240.28 
L 186.302397 230.778089 
L 193.388491 219.557363 
L 196.477572 206.347113 
z
" clip-path="url(#p5162588d18)" style="fill: #1e9c89"/>
    <path d="M 110.566667 30.331775 
L 115.236808 26.88 
L 122.11666 26.88 
L 110.566667 35.416782 
L 110.220422 36.380776 
L 109.027909 47.600163 
L 109.428561 60.808896 
L 110.566667 66.325457 
L 123.046733 76.198006 
L 134.43 85.615059 
L 141.283776 93.757994 
L 135.830949 113.137869 
L 134.43 117.919796 
L 127.666466 133.590571 
L 119.968051 154.013971 
L 122.945606 173.39493 
L 134.43 185.645275 
L 141.297666 190.956403 
L 154.984225 206.347113 
L 158.293333 211.624224 
L 171.124461 219.557363 
L 182.156667 226.691035 
L 187.041606 219.557363 
L 192.078557 206.347113 
L 206.02 193.947788 
L 222.552007 206.347113 
L 223.844349 219.557363 
L 223.993518 230.778089 
L 225.74532 240.28 
L 221.251686 240.28 
L 219.081217 230.778089 
L 217.883408 219.557363 
L 217.335578 206.347113 
L 206.02 197.86021 
L 196.477572 206.347113 
L 193.388491 219.557363 
L 186.302397 230.778089 
L 186.623559 240.28 
L 182.156667 240.28 
L 162.799472 240.28 
L 158.293333 238.979691 
L 150.421297 230.778089 
L 157.735005 219.557363 
L 149.426989 206.347113 
L 134.43 192.268125 
L 130.101699 190.956403 
L 116.294196 173.39493 
L 112.878608 154.013971 
L 119.754499 133.590571 
L 129.066615 113.137869 
L 133.889168 93.757994 
L 112.232431 76.198006 
L 110.566667 74.880278 
L 107.66364 60.808896 
L 107.294104 47.600163 
L 108.394003 36.380776 
z
M 157.289438 230.778089 
L 158.293333 231.824013 
L 164.234215 230.778089 
L 158.293333 229.203081 
z
M 301.473333 30.276737 
L 302.210334 36.380776 
L 304.374332 47.600163 
L 305.466518 60.808896 
L 306.711122 76.198006 
L 301.79438 93.757994 
L 301.473333 96.048938 
L 283.517333 93.757994 
L 277.61 93.373179 
L 277.23127 93.757994 
L 274.34385 113.137869 
L 277.61 117.535886 
L 290.226356 133.590571 
L 301.473333 148.404357 
L 302.307655 154.013971 
L 304.053394 173.39493 
L 301.473333 190.159659 
L 294.458446 190.956403 
L 277.61 191.924312 
L 253.746667 200.443623 
L 245.093941 206.347113 
L 247.153615 219.557363 
L 250.943965 230.778089 
L 253.746667 231.920509 
L 270.546074 240.28 
L 262.700757 240.28 
L 253.746667 235.824388 
L 241.366568 230.778089 
L 238.574634 219.557363 
L 238.770495 206.347113 
L 253.746667 196.129329 
L 267.809086 190.956403 
L 277.61 186.056878 
L 301.473333 178.514847 
L 302.261279 173.39493 
L 301.473333 164.953106 
L 294.051559 154.013971 
L 280.327792 133.590571 
L 277.61 130.132101 
L 264.989376 113.137869 
L 270.123135 93.757994 
L 277.61 86.150839 
L 301.473333 89.12706 
L 305.142796 76.198006 
L 303.793392 60.808896 
L 302.609241 47.600163 
L 301.473333 41.892859 
L 295.432405 36.380776 
L 292.173953 26.88 
L 299.855522 26.88 
z
M 110.566667 232.16599 
L 130.699199 240.28 
L 116.706048 240.28 
L 110.566667 237.805647 
L 109.780336 240.28 
L 107.988095 240.28 
z
" clip-path="url(#p5162588d18)" style="fill: #22a785"/>
    <path d="M 110.566667 35.416782 
L 122.11666 26.88 
L 128.996513 26.88 
L 118.437639 36.380776 
L 112.520628 47.600163 
L 118.870937 60.808896 
L 133.861036 76.198006 
L 134.43 76.668694 
L 148.813786 93.757994 
L 141.201523 113.137869 
L 135.249884 133.590571 
L 134.43 136.09208 
L 127.057494 154.013971 
L 129.597016 173.39493 
L 134.43 178.55025 
L 150.472038 190.956403 
L 158.293333 201.39414 
L 164.108733 206.347113 
L 182.156667 217.509433 
L 187.679543 206.347113 
L 202.882813 190.956403 
L 206.02 188.689132 
L 210.03309 190.956403 
L 227.768436 206.347113 
L 229.80529 219.557363 
L 228.905819 230.778089 
L 229.883333 237.57636 
L 231.78917 230.778089 
L 229.995653 219.557363 
L 232.447049 206.347113 
L 253.746667 191.815035 
L 256.080828 190.956403 
L 277.61 180.193864 
L 293.699156 173.39493 
L 281.024971 154.013971 
L 277.61 148.592616 
L 253.746667 141.81797 
L 250.487928 133.590571 
L 253.746667 119.294933 
L 255.634902 113.137869 
L 263.015 93.757994 
L 277.61 78.928498 
L 301.473333 83.601188 
L 303.574469 76.198006 
L 302.120266 60.808896 
L 301.473333 53.936114 
L 298.605596 47.600163 
L 285.71293 36.380776 
L 284.492385 26.88 
L 292.173953 26.88 
L 295.432405 36.380776 
L 301.473333 41.892859 
L 302.609241 47.600163 
L 303.793392 60.808896 
L 305.142796 76.198006 
L 301.473333 89.12706 
L 277.61 86.150839 
L 270.123135 93.757994 
L 264.989376 113.137869 
L 277.61 130.132101 
L 280.327792 133.590571 
L 294.051559 154.013971 
L 301.473333 164.953106 
L 302.261279 173.39493 
L 301.473333 178.514847 
L 277.61 186.056878 
L 267.809086 190.956403 
L 253.746667 196.129329 
L 238.770495 206.347113 
L 238.574634 219.557363 
L 241.366568 230.778089 
L 253.746667 235.824388 
L 262.700757 240.28 
L 254.85544 240.28 
L 253.746667 239.728267 
L 238.449255 240.28 
L 229.883333 240.28 
L 225.74532 240.28 
L 223.993518 230.778089 
L 223.844349 219.557363 
L 222.552007 206.347113 
L 206.02 193.947788 
L 192.078557 206.347113 
L 187.041606 219.557363 
L 182.156667 226.691035 
L 171.124461 219.557363 
L 158.293333 211.624224 
L 154.984225 206.347113 
L 141.297666 190.956403 
L 134.43 185.645275 
L 122.945606 173.39493 
L 119.968051 154.013971 
L 127.666466 133.590571 
L 134.43 117.919796 
L 135.830949 113.137869 
L 141.283776 93.757994 
L 134.43 85.615059 
L 123.046733 76.198006 
L 110.566667 66.325457 
L 109.428561 60.808896 
L 109.027909 47.600163 
L 110.220422 36.380776 
z
M 158.293333 31.721752 
L 159.90278 36.380776 
L 161.960981 47.600163 
L 159.866935 60.808896 
L 158.293333 63.700236 
L 151.181032 60.808896 
L 151.903686 47.600163 
L 156.112331 36.380776 
z
M 206.02 26.88 
L 213.145696 26.88 
L 206.02 34.193367 
L 199.967849 26.88 
z
M 158.293333 229.203081 
L 164.234215 230.778089 
L 158.293333 231.824013 
L 157.289438 230.778089 
z
M 110.566667 237.805647 
L 116.706048 240.28 
L 110.566667 240.28 
L 109.780336 240.28 
z
" clip-path="url(#p5162588d18)" style="fill: #2db27d"/>
    <path d="M 134.43 26.88 
L 158.293333 26.88 
L 166.704944 26.88 
L 169.619721 36.380776 
L 169.912367 47.600163 
L 165.436613 60.808896 
L 158.293333 73.93398 
L 153.775763 76.198006 
L 156.343796 93.757994 
L 146.572098 113.137869 
L 140.898361 133.590571 
L 134.43 153.32587 
L 134.146937 154.013971 
L 134.43 156.483777 
L 158.293333 172.388277 
L 158.863481 173.39493 
L 163.301338 190.956403 
L 178.484056 206.347113 
L 182.156667 208.618556 
L 183.280528 206.347113 
L 189.556539 190.956403 
L 206.02 179.058122 
L 216.358218 173.39493 
L 229.883333 164.624628 
L 241.638395 173.39493 
L 253.746667 182.128361 
L 277.61 174.33085 
L 279.824782 173.39493 
L 277.61 169.947707 
L 253.746667 159.403866 
L 247.852862 154.013971 
L 243.534759 133.590571 
L 245.771272 113.137869 
L 253.746667 99.102247 
L 255.906865 93.757994 
L 253.746667 80.957416 
L 252.610046 76.198006 
L 250.124897 60.808896 
L 253.746667 51.752231 
L 259.471064 60.808896 
L 277.61 71.156399 
L 293.043078 76.198006 
L 301.473333 78.075317 
L 302.006143 76.198006 
L 301.473333 70.712407 
L 293.728509 60.808896 
L 290.560533 47.600163 
L 277.61 37.431416 
L 272.006807 36.380776 
L 267.152143 26.88 
L 277.61 26.88 
L 284.492385 26.88 
L 285.71293 36.380776 
L 298.605596 47.600163 
L 301.473333 53.936114 
L 302.120266 60.808896 
L 303.574469 76.198006 
L 301.473333 83.601188 
L 277.61 78.928498 
L 263.015 93.757994 
L 255.634902 113.137869 
L 253.746667 119.294933 
L 250.487928 133.590571 
L 253.746667 141.81797 
L 277.61 148.592616 
L 281.024971 154.013971 
L 293.699156 173.39493 
L 277.61 180.193864 
L 256.080828 190.956403 
L 253.746667 191.815035 
L 232.447049 206.347113 
L 229.995653 219.557363 
L 231.78917 230.778089 
L 229.883333 237.57636 
L 228.905819 230.778089 
L 229.80529 219.557363 
L 227.768436 206.347113 
L 210.03309 190.956403 
L 206.02 188.689132 
L 202.882813 190.956403 
L 187.679543 206.347113 
L 182.156667 217.509433 
L 164.108733 206.347113 
L 158.293333 201.39414 
L 150.472038 190.956403 
L 134.43 178.55025 
L 129.597016 173.39493 
L 127.057494 154.013971 
L 134.43 136.09208 
L 135.249884 133.590571 
L 141.201523 113.137869 
L 148.813786 93.757994 
L 134.43 76.668694 
L 133.861036 76.198006 
L 118.870937 60.808896 
L 112.520628 47.600163 
L 118.437639 36.380776 
L 128.996513 26.88 
z
M 128.149801 36.380776 
L 129.889735 47.600163 
L 134.43 53.393571 
L 138.051061 47.600163 
L 142.94465 36.380776 
L 134.43 29.211019 
z
M 156.112331 36.380776 
L 151.903686 47.600163 
L 151.181032 60.808896 
L 158.293333 63.700236 
L 159.866935 60.808896 
L 161.960981 47.600163 
L 159.90278 36.380776 
L 158.293333 31.721752 
z
M 227.080064 190.956403 
L 229.883333 194.290871 
L 233.948055 190.956403 
L 229.883333 187.863546 
z
M 206.02 34.193367 
L 213.145696 26.88 
L 221.464846 26.88 
L 219.549255 36.380776 
L 206.02 43.3604 
L 197.293561 36.380776 
L 192.902047 26.88 
L 199.967849 26.88 
z
M 253.746667 239.728267 
L 254.85544 240.28 
L 253.746667 240.28 
L 238.449255 240.28 
z
" clip-path="url(#p5162588d18)" style="fill: #3fbc73"/>
    <path d="M 134.43 29.211019 
L 142.94465 36.380776 
L 138.051061 47.600163 
L 134.43 53.393571 
L 129.889735 47.600163 
L 128.149801 36.380776 
z
M 179.336661 36.380776 
L 177.863754 47.600163 
L 171.006292 60.808896 
L 164.602366 76.198006 
L 164.101175 93.757994 
L 158.293333 101.224441 
L 151.942672 113.137869 
L 146.546837 133.590571 
L 155.232974 154.013971 
L 158.293333 156.287947 
L 167.982387 173.39493 
L 182.156667 187.049713 
L 201.020273 173.39493 
L 206.02 170.863272 
L 229.295125 154.013971 
L 229.883333 152.643475 
L 236.581589 133.590571 
L 235.778874 113.137869 
L 244.27409 93.757994 
L 242.551057 76.198006 
L 241.134289 60.808896 
L 241.976185 47.600163 
L 229.883333 40.197342 
L 215.459353 47.600163 
L 206.02 50.800561 
L 193.997554 47.600163 
L 185.561493 36.380776 
L 185.836245 26.88 
L 192.902047 26.88 
L 197.293561 36.380776 
L 206.02 43.3604 
L 219.549255 36.380776 
L 221.464846 26.88 
L 229.783997 26.88 
L 229.883333 27.135628 
L 230.207659 26.88 
L 253.746667 26.88 
L 267.152143 26.88 
L 272.006807 36.380776 
L 277.61 37.431416 
L 290.560533 47.600163 
L 293.728509 60.808896 
L 301.473333 70.712407 
L 302.006143 76.198006 
L 301.473333 78.075317 
L 293.043078 76.198006 
L 277.61 71.156399 
L 259.471064 60.808896 
L 253.746667 51.752231 
L 250.124897 60.808896 
L 252.610046 76.198006 
L 253.746667 80.957416 
L 255.906865 93.757994 
L 253.746667 99.102247 
L 245.771272 113.137869 
L 243.534759 133.590571 
L 247.852862 154.013971 
L 253.746667 159.403866 
L 277.61 169.947707 
L 279.824782 173.39493 
L 277.61 174.33085 
L 253.746667 182.128361 
L 241.638395 173.39493 
L 229.883333 164.624628 
L 216.358218 173.39493 
L 206.02 179.058122 
L 189.556539 190.956403 
L 183.280528 206.347113 
L 182.156667 208.618556 
L 178.484056 206.347113 
L 163.301338 190.956403 
L 158.863481 173.39493 
L 158.293333 172.388277 
L 134.43 156.483777 
L 134.146937 154.013971 
L 134.43 153.32587 
L 140.898361 133.590571 
L 146.572098 113.137869 
L 156.343796 93.757994 
L 153.775763 76.198006 
L 158.293333 73.93398 
L 165.436613 60.808896 
L 169.912367 47.600163 
L 169.619721 36.380776 
L 166.704944 26.88 
L 176.865478 26.88 
z
M 267.399489 47.600163 
L 273.681196 60.808896 
L 277.61 63.050114 
L 281.10119 60.808896 
L 282.515471 47.600163 
L 277.61 43.748392 
z
M 229.883333 187.863546 
L 233.948055 190.956403 
L 229.883333 194.290871 
L 227.080064 190.956403 
z
" clip-path="url(#p5162588d18)" style="fill: #56c667"/>
    <path d="M 182.156667 26.88 
L 185.836245 26.88 
L 185.561493 36.380776 
L 193.997554 47.600163 
L 206.02 50.800561 
L 215.459353 47.600163 
L 229.883333 40.197342 
L 241.976185 47.600163 
L 241.134289 60.808896 
L 242.551057 76.198006 
L 244.27409 93.757994 
L 235.778874 113.137869 
L 236.581589 133.590571 
L 229.883333 152.643475 
L 229.295125 154.013971 
L 206.02 170.863272 
L 201.020273 173.39493 
L 182.156667 187.049713 
L 167.982387 173.39493 
L 158.293333 156.287947 
L 155.232974 154.013971 
L 146.546837 133.590571 
L 151.942672 113.137869 
L 158.293333 101.224441 
L 164.101175 93.757994 
L 164.602366 76.198006 
L 171.006292 60.808896 
L 177.863754 47.600163 
L 179.336661 36.380776 
L 176.865478 26.88 
z
M 176.57597 60.808896 
L 172.70366 76.198006 
L 171.937984 93.757994 
L 158.293333 111.299288 
L 157.313246 113.137869 
L 152.195313 133.590571 
L 158.293333 144.965629 
L 173.079544 154.013971 
L 177.101293 173.39493 
L 182.156667 178.265021 
L 188.884527 173.39493 
L 206.02 164.718226 
L 220.806541 154.013971 
L 229.598494 133.590571 
L 226.902165 113.137869 
L 229.883333 96.141949 
L 230.665923 93.757994 
L 232.492069 76.198006 
L 232.14368 60.808896 
L 229.883333 52.783012 
L 206.02 56.638857 
L 182.156667 51.756837 
z
M 229.883333 26.88 
L 230.207659 26.88 
L 229.883333 27.135628 
L 229.783997 26.88 
z
M 277.61 43.748392 
L 282.515471 47.600163 
L 281.10119 60.808896 
L 277.61 63.050114 
L 273.681196 60.808896 
L 267.399489 47.600163 
z
" clip-path="url(#p5162588d18)" style="fill: #73d056"/>
    <path d="M 182.156667 51.756837 
L 206.02 56.638857 
L 229.883333 52.783012 
L 232.14368 60.808896 
L 232.492069 76.198006 
L 230.665923 93.757994 
L 229.883333 96.141949 
L 226.902165 113.137869 
L 229.598494 133.590571 
L 220.806541 154.013971 
L 206.02 164.718226 
L 188.884527 173.39493 
L 182.156667 178.265021 
L 177.101293 173.39493 
L 173.079544 154.013971 
L 158.293333 144.965629 
L 152.195313 133.590571 
L 157.313246 113.137869 
L 158.293333 111.299288 
L 171.937984 93.757994 
L 172.70366 76.198006 
L 176.57597 60.808896 
z
M 182.145648 60.808896 
L 180.804954 76.198006 
L 179.774793 93.757994 
L 181.341952 113.137869 
L 158.293333 131.776087 
L 157.84379 133.590571 
L 158.293333 134.429136 
L 182.156667 146.735237 
L 191.444952 154.013971 
L 206.02 158.573181 
L 212.317957 154.013971 
L 221.829049 133.590571 
L 219.630976 113.137869 
L 220.723276 93.757994 
L 218.294156 76.198006 
L 206.02 64.917885 
L 182.320742 60.808896 
L 182.156667 60.791024 
z
" clip-path="url(#p5162588d18)" style="fill: #90d743"/>
    <path d="M 182.156667 60.791024 
L 182.320742 60.808896 
L 206.02 64.917885 
L 218.294156 76.198006 
L 220.723276 93.757994 
L 219.630976 113.137869 
L 221.829049 133.590571 
L 212.317957 154.013971 
L 206.02 158.573181 
L 191.444952 154.013971 
L 182.156667 146.735237 
L 158.293333 134.429136 
L 157.84379 133.590571 
L 158.293333 131.776087 
L 181.341952 113.137869 
L 179.774793 93.757994 
L 180.804954 76.198006 
L 182.145648 60.808896 
z
M 195.896729 93.757994 
L 194.730541 113.137869 
L 185.109903 133.590571 
L 206.02 149.937197 
L 214.059604 133.590571 
L 212.359788 113.137869 
L 211.004291 93.757994 
L 206.02 81.394762 
z
" clip-path="url(#p5162588d18)" style="fill: #b0dd2f"/>
    <path d="M 206.02 81.394762 
L 211.004291 93.757994 
L 212.359788 113.137869 
L 214.059604 133.590571 
L 206.02 149.937197 
L 185.109903 133.590571 
L 194.730541 113.137869 
L 195.896729 93.757994 
z
M 205.317346 133.590571 
L 206.02 134.139876 
L 206.29016 133.590571 
L 206.02 129.223919 
z
" clip-path="url(#p5162588d18)" style="fill: #d0e11c"/>
    <path d="M 206.02 129.223919 
L 206.29016 133.590571 
L 206.02 134.139876 
L 205.317346 133.590571 
z
" clip-path="url(#p5162588d18)" style="fill: #efe51c"/>
   </g>
   <g id="matplotlib.axis_1">
    <g id="xtick_1">
     <g id="line2d_1">
      <defs>
       <path id="m7c9a45f838" d="M 0 0 
L 0 3.5 
" style="stroke: #000000; stroke-width: 0.8"/>
      </defs>
      <g>
       <use xlink:href="#m7c9a45f838" x="126.475556" y="240.28" style="stroke: #000000; stroke-width: 0.8"/>
      </g>
     </g>
     <g id="text_1">
      <!-- −50 -->
      <g transform="translate(113.812743 256.398125) scale(0.12 -0.12)">
       <defs>
        <path id="DejaVuSans-2212" d="M 678 2272 
L 4684 2272 
L 4684 1741 
L 678 1741 
L 678 2272 
z
" transform="scale(0.015625)"/>
        <path id="DejaVuSans-35" d="M 691 4666 
L 3169 4666 
L 3169 4134 
L 1269 4134 
L 1269 2991 
Q 1406 3038 1543 3061 
Q 1681 3084 1819 3084 
Q 2600 3084 3056 2656 
Q 3513 2228 3513 1497 
Q 3513 744 3044 326 
Q 2575 -91 1722 -91 
Q 1428 -91 1123 -41 
Q 819 9 494 109 
L 494 744 
Q 775 591 1075 516 
Q 1375 441 1709 441 
Q 2250 441 2565 725 
Q 2881 1009 2881 1497 
Q 2881 1984 2565 2268 
Q 2250 2553 1709 2553 
Q 1456 2553 1204 2497 
Q 953 2441 691 2322 
L 691 4666 
z
" transform="scale(0.015625)"/>
        <path id="DejaVuSans-30" d="M 2034 4250 
Q 1547 4250 1301 3770 
Q 1056 3291 1056 2328 
Q 1056 1369 1301 889 
Q 1547 409 2034 409 
Q 2525 409 2770 889 
Q 3016 1369 3016 2328 
Q 3016 3291 2770 3770 
Q 2525 4250 2034 4250 
z
M 2034 4750 
Q 2819 4750 3233 4129 
Q 3647 3509 3647 2328 
Q 3647 1150 3233 529 
Q 2819 -91 2034 -91 
Q 1250 -91 836 529 
Q 422 1150 422 2328 
Q 422 3509 836 4129 
Q 1250 4750 2034 4750 
z
" transform="scale(0.015625)"/>
       </defs>
       <use xlink:href="#DejaVuSans-2212"/>
       <use xlink:href="#DejaVuSans-35" transform="translate(83.789062 0)"/>
       <use xlink:href="#DejaVuSans-30" transform="translate(147.412109 0)"/>
      </g>
     </g>
    </g>
    <g id="xtick_2">
     <g id="line2d_2">
      <g>
       <use xlink:href="#m7c9a45f838" x="206.02" y="240.28" style="stroke: #000000; stroke-width: 0.8"/>
      </g>
     </g>
     <g id="text_2">
      <!-- 0 -->
      <g transform="translate(202.2025 256.398125) scale(0.12 -0.12)">
       <use xlink:href="#DejaVuSans-30"/>
      </g>
     </g>
    </g>
    <g id="xtick_3">
     <g id="line2d_3">
      <g>
       <use xlink:href="#m7c9a45f838" x="285.564444" y="240.28" style="stroke: #000000; stroke-width: 0.8"/>
      </g>
     </g>
     <g id="text_3">
      <!-- 50 -->
      <g transform="translate(277.929444 256.398125) scale(0.12 -0.12)">
       <use xlink:href="#DejaVuSans-35"/>
       <use xlink:href="#DejaVuSans-30" transform="translate(63.623047 0)"/>
      </g>
     </g>
    </g>
    <g id="text_4">
     <!-- $\Theta^{\circ}$ -->
     <g transform="translate(198.4 272.011875) scale(0.12 -0.12)">
      <defs>
       <path id="DejaVuSans-398" d="M 1416 2750 
L 3622 2750 
L 3622 2219 
L 1416 2219 
L 1416 2750 
z
M 2522 4238 
Q 1834 4238 1431 3725 
Q 1025 3213 1025 2328 
Q 1025 1447 1429 934 
Q 1834 422 2522 422 
Q 3209 422 3613 934 
Q 4013 1447 4013 2328 
Q 4013 3213 3613 3725 
Q 3209 4238 2522 4238 
z
M 2522 4750 
Q 3503 4750 4090 4092 
Q 4678 3434 4678 2328 
Q 4678 1225 4091 569 
Q 3503 -91 2522 -91 
Q 1538 -91 950 566 
Q 359 1222 359 2328 
Q 359 3434 950 4094 
Q 1538 4750 2522 4750 
z
" transform="scale(0.015625)"/>
       <path id="DejaVuSans-2218" d="M 2000 2619 
Q 1750 2619 1578 2445 
Q 1406 2272 1406 2022 
Q 1406 1775 1578 1605 
Q 1750 1435 2000 1435 
Q 2250 1435 2422 1605 
Q 2594 1775 2594 2022 
Q 2594 2269 2420 2444 
Q 2247 2619 2000 2619 
z
M 2000 3022 
Q 2200 3022 2384 2945 
Q 2569 2869 2703 2725 
Q 2847 2585 2919 2406 
Q 2991 2228 2991 2022 
Q 2991 1610 2702 1324 
Q 2413 1038 1994 1038 
Q 1572 1038 1290 1319 
Q 1009 1600 1009 2022 
Q 1009 2441 1296 2731 
Q 1584 3022 2000 3022 
z
" transform="scale(0.015625)"/>
      </defs>
      <use xlink:href="#DejaVuSans-398" transform="translate(0 0.78125)"/>
      <use xlink:href="#DejaVuSans-2218" transform="translate(79.667969 39.0625) scale(0.7)"/>
     </g>
    </g>
   </g>
   <g id="matplotlib.axis_2">
    <g id="ytick_1">
     <g id="line2d_4">
      <defs>
       <path id="me6bb47ed6e" d="M 0 0 
L -3.5 0 
" style="stroke: #000000; stroke-width: 0.8"/>
      </defs>
      <g>
       <use xlink:href="#me6bb47ed6e" x="62.84" y="219.984151" style="stroke: #000000; stroke-width: 0.8"/>
      </g>
     </g>
     <g id="text_5">
      <!-- −40 -->
      <g transform="translate(30.514375 224.543214) scale(0.12 -0.12)">
       <defs>
        <path id="DejaVuSans-34" d="M 2419 4116 
L 825 1625 
L 2419 1625 
L 2419 4116 
z
M 2253 4666 
L 3047 4666 
L 3047 1625 
L 3713 1625 
L 3713 1100 
L 3047 1100 
L 3047 0 
L 2419 0 
L 2419 1100 
L 313 1100 
L 313 1709 
L 2253 4666 
z
" transform="scale(0.015625)"/>
       </defs>
       <use xlink:href="#DejaVuSans-2212"/>
       <use xlink:href="#DejaVuSans-34" transform="translate(83.789062 0)"/>
       <use xlink:href="#DejaVuSans-30" transform="translate(147.412109 0)"/>
      </g>
     </g>
    </g>
    <g id="ytick_2">
     <g id="line2d_5">
      <g>
       <use xlink:href="#me6bb47ed6e" x="62.84" y="176.783648" style="stroke: #000000; stroke-width: 0.8"/>
      </g>
     </g>
     <g id="text_6">
      <!-- −20 -->
      <g transform="translate(30.514375 181.342711) scale(0.12 -0.12)">
       <defs>
        <path id="DejaVuSans-32" d="M 1228 531 
L 3431 531 
L 3431 0 
L 469 0 
L 469 531 
Q 828 903 1448 1529 
Q 2069 2156 2228 2338 
Q 2531 2678 2651 2914 
Q 2772 3150 2772 3378 
Q 2772 3750 2511 3984 
Q 2250 4219 1831 4219 
Q 1534 4219 1204 4116 
Q 875 4013 500 3803 
L 500 4441 
Q 881 4594 1212 4672 
Q 1544 4750 1819 4750 
Q 2544 4750 2975 4387 
Q 3406 4025 3406 3419 
Q 3406 3131 3298 2873 
Q 3191 2616 2906 2266 
Q 2828 2175 2409 1742 
Q 1991 1309 1228 531 
z
" transform="scale(0.015625)"/>
       </defs>
       <use xlink:href="#DejaVuSans-2212"/>
       <use xlink:href="#DejaVuSans-32" transform="translate(83.789062 0)"/>
       <use xlink:href="#DejaVuSans-30" transform="translate(147.412109 0)"/>
      </g>
     </g>
    </g>
    <g id="ytick_3">
     <g id="line2d_6">
      <g>
       <use xlink:href="#me6bb47ed6e" x="62.84" y="133.583145" style="stroke: #000000; stroke-width: 0.8"/>
      </g>
     </g>
     <g id="text_7">
      <!-- 0 -->
      <g transform="translate(48.205 138.142208) scale(0.12 -0.12)">
       <use xlink:href="#DejaVuSans-30"/>
      </g>
     </g>
    </g>
    <g id="ytick_4">
     <g id="line2d_7">
      <g>
       <use xlink:href="#me6bb47ed6e" x="62.84" y="90.382642" style="stroke: #000000; stroke-width: 0.8"/>
      </g>
     </g>
     <g id="text_8">
      <!-- 20 -->
      <g transform="translate(40.57 94.941704) scale(0.12 -0.12)">
       <use xlink:href="#DejaVuSans-32"/>
       <use xlink:href="#DejaVuSans-30" transform="translate(63.623047 0)"/>
      </g>
     </g>
    </g>
    <g id="ytick_5">
     <g id="line2d_8">
      <g>
       <use xlink:href="#me6bb47ed6e" x="62.84" y="47.182139" style="stroke: #000000; stroke-width: 0.8"/>
      </g>
     </g>
     <g id="text_9">
      <!-- 40 -->
      <g transform="translate(40.57 51.741201) scale(0.12 -0.12)">
       <use xlink:href="#DejaVuSans-34"/>
       <use xlink:href="#DejaVuSans-30" transform="translate(63.623047 0)"/>
      </g>
     </g>
    </g>
    <g id="text_10">
     <!-- $\phi^{\circ}$ -->
     <g transform="translate(23.784375 141.38) rotate(-90) scale(0.13 -0.13)">
      <defs>
       <path id="DejaVuSans-Oblique-3d5" d="M 2991 4863 
L 2738 3572 
Q 3363 3572 3684 3094 
Q 4016 2606 3850 1747 
Q 3681 888 3159 400 
Q 2653 -78 2028 -78 
L 1784 -1331 
L 1213 -1331 
L 1456 -78 
Q 834 -78 509 400 
Q 178 888 347 1747 
Q 513 2606 1034 3094 
Q 1544 3572 2166 3572 
L 2419 4863 
L 2991 4863 
z
M 2128 434 
Q 2481 434 2784 756 
Q 3116 1116 3244 1747 
Q 3369 2372 3169 2738 
Q 2991 3059 2638 3059 
L 2128 434 
z
M 1556 434 
L 2066 3059 
Q 1716 3059 1413 2738 
Q 1072 2372 953 1747 
Q 834 1116 1028 756 
Q 1203 434 1556 434 
z
" transform="scale(0.015625)"/>
      </defs>
      <use xlink:href="#DejaVuSans-Oblique-3d5" transform="translate(0 0.015625)"/>
      <use xlink:href="#DejaVuSans-2218" transform="translate(73.414505 38.296875) scale(0.7)"/>
     </g>
    </g>
   </g>
   <g id="QuadContourSet_2">
    <path clip-path="url(#p5162588d18)" style="fill: none; stroke-dasharray: 1.85,0.8; stroke-dashoffset: 0; stroke: #000000; stroke-width: 0.5"/>
    <path d="M 323.544556 26.88 
L 323.630704 36.380776 
L 323.790336 47.600163 
L 323.870903 60.808896 
L 323.962714 76.198006 
L 323.60002 93.757994 
L 323.376993 113.137869 
L 323.381692 120.469591 
M 323.549278 146.710704 
L 323.637883 154.013971 
L 323.766661 173.39493 
L 323.566137 190.956403 
L 323.387031 206.347113 
L 323.248752 219.557363 
L 323.105026 230.778089 
L 322.961691 240.28 
M 88.273449 240.28 
L 88.500912 230.778089 
L 88.593787 219.557363 
L 88.623322 206.347113 
L 88.649636 190.956403 
L 88.601277 173.39493 
L 88.513365 154.013971 
L 88.563811 146.711278 
M 88.840746 120.470751 
L 88.944872 113.137869 
L 89.315458 93.757994 
L 88.486794 76.198006 
L 88.249515 60.808896 
L 88.222255 47.600163 
L 88.303392 36.380776 
L 88.57038 26.88 
" clip-path="url(#p5162588d18)" style="fill: none; stroke-dasharray: 1.85,0.8; stroke-dashoffset: 0; stroke: #000000; stroke-width: 0.5"/>
    <path d="M 321.498915 26.88 
L 321.683397 36.380776 
L 322.025244 47.600163 
L 322.197777 60.808896 
L 322.394387 76.198006 
L 321.617689 93.757994 
L 321.140083 113.137869 
L 321.150207 120.512903 
M 321.507824 146.664371 
L 321.698771 154.013971 
L 321.974546 173.39493 
L 321.545129 190.956403 
L 321.161579 206.347113 
L 320.86546 219.557363 
L 320.557674 230.778089 
L 320.250726 240.28 
M 90.06569 240.28 
L 90.552796 230.778089 
L 90.751684 219.557363 
L 90.814931 206.347113 
L 90.871283 190.956403 
L 90.767724 173.39493 
L 90.579463 154.013971 
L 90.688145 146.666992 
M 91.279096 120.518204 
L 91.503522 113.137869 
L 92.29712 93.757994 
L 90.522562 76.198006 
L 90.014435 60.808896 
L 89.95606 47.600163 
L 90.129811 36.380776 
L 90.701558 26.88 
" clip-path="url(#p5162588d18)" style="fill: none; stroke-dasharray: 1.85,0.8; stroke-dashoffset: 0; stroke: #000000; stroke-width: 0.5"/>
    <path d="M 319.453273 26.88 
L 319.736091 36.380776 
L 320.260153 47.600163 
L 320.524651 60.808896 
L 320.826061 76.198006 
L 319.635358 93.757994 
L 318.903174 113.137869 
L 318.918602 120.469614 
M 319.468446 146.702414 
L 319.759659 154.013971 
L 320.182431 173.39493 
L 319.524122 190.956403 
L 318.936127 206.347113 
L 318.482168 219.557363 
L 318.010322 230.778089 
L 317.539762 240.28 
M 91.85793 240.28 
L 92.604679 230.778089 
L 92.90958 219.557363 
L 93.006541 206.347113 
L 93.09293 190.956403 
L 92.934171 173.39493 
L 92.645561 154.013971 
L 92.811231 146.708588 
M 93.719803 120.482103 
L 94.062173 113.137869 
L 95.278783 93.757994 
L 92.558331 76.198006 
L 91.779356 60.808896 
L 91.689864 47.600163 
L 91.95623 36.380776 
L 92.832736 26.88 
" clip-path="url(#p5162588d18)" style="fill: none; stroke-dasharray: 1.85,0.8; stroke-dashoffset: 0; stroke: #000000; stroke-width: 0.5"/>
    <path d="M 317.407632 26.88 
L 317.788785 36.380776 
L 318.495062 47.600163 
L 318.851525 60.808896 
L 319.257734 76.198006 
L 317.653027 93.757994 
L 316.666264 113.137869 
L 316.687057 120.469635 
M 317.427681 146.694968 
L 317.820548 154.013971 
L 318.390315 173.39493 
L 317.503114 190.956403 
L 316.710676 206.347113 
L 316.098875 219.557363 
L 315.46297 230.778089 
L 314.828797 240.28 
M 93.650171 240.28 
L 94.656562 230.778089 
L 95.067477 219.557363 
L 95.198151 206.347113 
L 95.314577 190.956403 
L 95.100618 173.39493 
L 94.711659 154.013971 
L 94.935006 146.706169 
M 96.158771 120.492292 
L 96.620823 113.137869 
L 98.260446 93.757994 
L 94.594099 76.198006 
L 93.544276 60.808896 
L 93.423669 47.600163 
L 93.782649 36.380776 
L 94.963914 26.88 
" clip-path="url(#p5162588d18)" style="fill: none; stroke-dasharray: 1.85,0.8; stroke-dashoffset: 0; stroke: #000000; stroke-width: 0.5"/>
    <path d="M 315.361991 26.88 
L 315.841478 36.380776 
L 316.729971 47.600163 
L 317.178399 60.808896 
L 317.689408 76.198006 
L 315.670696 93.757994 
L 314.429354 113.137869 
L 314.455821 120.556269 
M 315.380725 146.598902 
L 315.881436 154.013971 
L 316.5982 173.39493 
L 315.482107 190.956403 
L 314.485224 206.347113 
L 313.715583 219.557363 
L 312.915617 230.778089 
L 312.117832 240.28 
M 95.442411 240.28 
L 96.708446 230.778089 
L 97.225374 219.557363 
L 97.389761 206.347113 
L 97.536224 190.956403 
L 97.267065 173.39493 
L 96.777757 154.013971 
L 97.062174 146.616485 
M 98.590348 120.591835 
L 99.179473 113.137869 
L 101.242108 93.757994 
L 96.629867 76.198006 
L 95.309197 60.808896 
L 95.157473 47.600163 
L 95.609068 36.380776 
L 97.095093 26.88 
" clip-path="url(#p5162588d18)" style="fill: none; stroke-dasharray: 1.85,0.8; stroke-dashoffset: 0; stroke: #000000; stroke-width: 0.5"/>
    <path d="M 313.31635 26.88 
L 313.894172 36.380776 
L 314.96488 47.600163 
L 315.505273 60.808896 
L 316.121081 76.198006 
L 313.688365 93.757994 
L 312.192445 113.137869 
L 312.224339 120.556302 
M 313.337972 146.587175 
L 313.942324 154.013971 
L 314.806085 173.39493 
L 313.4611 190.956403 
L 312.259772 206.347113 
L 311.332291 219.557363 
L 310.368265 230.778089 
L 309.406868 240.28 
M 97.234652 240.28 
L 98.760329 230.778089 
L 99.383271 219.557363 
L 99.581371 206.347113 
L 99.757871 190.956403 
L 99.433512 173.39493 
L 98.843855 154.013971 
L 99.186778 146.612665 
M 101.026652 120.607856 
L 101.738123 113.137869 
L 104.223771 93.757994 
L 98.665635 76.198006 
L 97.074117 60.808896 
L 96.891278 47.600163 
L 97.435488 36.380776 
L 99.226271 26.88 
" clip-path="url(#p5162588d18)" style="fill: none; stroke-dasharray: 1.85,0.8; stroke-dashoffset: 0; stroke: #000000; stroke-width: 0.5"/>
    <path d="M 311.270708 26.88 
L 311.946866 36.380776 
L 313.199788 47.600163 
L 313.832148 60.808896 
L 314.552755 76.198006 
L 311.706035 93.757994 
L 309.955535 113.137869 
L 309.992858 120.556341 
M 311.29469 146.573308 
L 312.003213 154.013971 
L 313.01397 173.39493 
L 311.440092 190.956403 
L 310.034321 206.347113 
L 308.948998 219.557363 
L 307.820913 230.778089 
L 306.695903 240.28 
M 99.026892 240.28 
L 100.812212 230.778089 
L 101.541167 219.557363 
L 101.772981 206.347113 
L 101.979518 190.956403 
L 101.599959 173.39493 
L 100.909953 154.013971 
L 101.311481 146.608138 
M 103.462114 120.62678 
L 104.296774 113.137869 
L 107.205433 93.757994 
L 100.701403 76.198006 
L 98.839038 60.808896 
L 98.625082 47.600163 
L 99.261907 36.380776 
L 101.357449 26.88 
" clip-path="url(#p5162588d18)" style="fill: none; stroke-dasharray: 1.85,0.8; stroke-dashoffset: 0; stroke: #000000; stroke-width: 0.5"/>
    <path d="M 309.225067 26.88 
L 309.999559 36.380776 
L 311.434697 47.600163 
L 312.159022 60.808896 
L 312.984428 76.198006 
L 309.723704 93.757994 
L 307.718626 113.137869 
L 307.761127 120.513083 
M 309.255491 146.600401 
L 310.064101 154.013971 
L 311.221855 173.39493 
L 309.419085 190.956403 
L 307.808869 206.347113 
L 306.565706 219.557363 
L 305.273561 230.778089 
L 303.984938 240.28 
M 100.819133 240.28 
L 102.864095 230.778089 
L 103.699064 219.557363 
L 103.96459 206.347113 
L 104.201164 190.956403 
L 103.766406 173.39493 
L 102.976051 154.013971 
L 103.433614 146.646137 
M 105.902085 120.605573 
L 106.855424 113.137869 
L 110.187096 93.757994 
L 102.737171 76.198006 
L 100.603958 60.808896 
L 100.358887 47.600163 
L 101.088326 36.380776 
L 103.488627 26.88 
M 134.43 216.595741 
L 131.908194 219.557363 
L 134.43 221.618032 
L 136.432748 219.557363 
L 134.43 216.595741 
z
M 277.61 219.06363 
L 277.173364 219.557363 
L 277.61 220.665026 
L 278.264224 219.557363 
L 277.61 219.06363 
z
" clip-path="url(#p5162588d18)" style="fill: none; stroke-dasharray: 1.85,0.8; stroke-dashoffset: 0; stroke: #000000; stroke-width: 0.5"/>
    <path d="M 307.179426 26.88 
L 308.052253 36.380776 
L 309.669606 47.600163 
L 310.485896 60.808896 
L 311.416102 76.198006 
L 307.741373 93.757994 
L 305.481716 113.137869 
L 305.614543 133.590571 
L 306.52805 141.022284 
M 309.003647 167.065677 
L 309.42974 173.39493 
L 307.398077 190.956403 
L 305.583417 206.347113 
L 304.182414 219.557363 
L 302.726209 230.778089 
L 301.473333 239.044083 
L 300.665806 240.28 
M 102.611373 240.28 
L 104.915979 230.778089 
L 105.856961 219.557363 
L 106.1562 206.347113 
L 106.422811 190.956403 
L 105.932853 173.39493 
L 105.042149 154.013971 
L 106.471537 133.590571 
L 107.54947 126.098174 
M 113.018952 100.575929 
L 115.822307 93.757994 
L 110.566667 89.637006 
L 104.772939 76.198006 
L 102.368879 60.808896 
L 102.092691 47.600163 
L 102.914745 36.380776 
L 105.619806 26.88 
M 207.770785 240.28 
L 206.02 235.213754 
L 203.790504 240.28 
M 134.43 208.720406 
L 125.202388 219.557363 
L 134.43 227.097616 
L 141.758312 219.557363 
L 134.43 208.720406 
z
M 277.61 210.866144 
L 269.923856 219.557363 
L 274.208272 230.778089 
L 277.61 232.455458 
L 289.01297 230.778089 
L 289.12637 219.557363 
L 277.61 210.866144 
" clip-path="url(#p5162588d18)" style="fill: none; stroke-dasharray: 1.85,0.8; stroke-dashoffset: 0; stroke: #000000; stroke-width: 0.5"/>
    <path d="M 305.133784 26.88 
L 306.104946 36.380776 
L 307.904515 47.600163 
L 308.81277 60.808896 
L 309.847775 76.198006 
L 305.759042 93.757994 
L 303.244806 113.137869 
L 303.392598 133.590571 
L 306.185878 154.013971 
L 307.637625 173.39493 
L 305.37707 190.956403 
L 305.060791 193.367251 
M 301.824124 219.345482 
L 301.799121 219.557363 
L 301.473333 221.93591 
L 299.988515 219.557363 
L 285.875144 206.347113 
L 277.61 203.704135 
L 267.698444 206.347113 
L 262.674348 219.557363 
L 266.65051 230.778089 
L 277.61 236.182141 
L 289.684758 240.28 
M 104.403614 240.28 
L 106.967862 230.778089 
L 108.014858 219.557363 
L 108.34781 206.347113 
L 108.644458 190.956403 
L 108.0993 173.39493 
L 107.108247 154.013971 
L 108.652273 134.186416 
M 116.03008 109.214538 
L 121.844594 93.757994 
L 110.566667 84.914885 
L 106.808707 76.198006 
L 104.133799 60.808896 
L 103.826495 47.600163 
L 104.741164 36.380776 
L 107.750984 26.88 
M 212.264418 240.28 
L 209.256616 230.778089 
L 206.02 219.72197 
L 201.133908 230.778089 
L 198.068189 240.28 
M 144.014881 222.868914 
L 147.083876 219.557363 
L 138.312519 206.347113 
L 134.43 202.702252 
L 124.686454 206.347113 
L 118.496581 219.557363 
L 123.640973 224.300248 
M 206.02 205.685055 
L 205.275601 206.347113 
L 206.02 218.833529 
L 206.902721 206.347113 
L 206.02 205.685055 
" clip-path="url(#p5162588d18)" style="fill: none; stroke-dasharray: 1.85,0.8; stroke-dashoffset: 0; stroke: #000000; stroke-width: 0.5"/>
    <path d="M 303.088143 26.88 
L 304.15764 36.380776 
L 306.139424 47.600163 
L 307.139644 60.808896 
L 308.279449 76.198006 
L 303.776711 93.757994 
L 301.473333 110.194569 
L 295.692481 113.137869 
L 300.124921 133.590571 
L 301.473333 135.366612 
L 304.246766 154.013971 
L 304.7735 160.399364 
M 304.013912 186.315688 
L 303.356062 190.956403 
L 301.473333 204.174188 
L 277.61 197.814223 
L 253.746667 204.757917 
L 251.417388 206.347113 
L 253.746667 214.459349 
L 255.424839 219.557363 
L 259.092748 230.778089 
L 277.61 239.908824 
L 278.703709 240.28 
M 106.195855 240.28 
L 109.019745 230.778089 
L 110.172754 219.557363 
L 110.53942 206.347113 
L 110.566667 205.047363 
L 110.740053 206.347113 
L 111.790775 219.557363 
L 119.206739 230.778089 
L 134.43 236.900021 
L 143.553156 230.778089 
L 152.409441 219.557363 
L 143.869754 206.347113 
L 134.43 197.485189 
L 126.115328 194.965368 
M 110.427758 178.193482 
L 110.265747 173.39493 
L 109.174345 154.013971 
L 110.566667 137.534102 
L 111.842532 133.590571 
L 121.810399 113.137869 
L 127.866881 93.757994 
L 110.566667 80.192763 
L 108.844475 76.198006 
L 105.89872 60.808896 
L 105.5603 47.600163 
L 106.567584 36.380776 
L 109.882162 26.88 
M 216.758052 240.28 
L 214.168916 230.778089 
L 211.922467 219.557363 
L 212.034123 212.057978 
M 200.326579 212.713799 
L 199.735376 219.557363 
L 193.718153 230.778089 
L 192.345874 240.28 
" clip-path="url(#p5162588d18)" style="fill: none; stroke-dasharray: 1.85,0.8; stroke-dashoffset: 0; stroke: #000000; stroke-width: 0.5"/>
    <path d="M 299.855522 26.88 
L 301.473333 30.276737 
L 302.210334 36.380776 
L 304.374332 47.600163 
L 305.466518 60.808896 
L 306.711122 76.198006 
L 301.79438 93.757994 
L 301.473333 96.048938 
L 283.517333 93.757994 
L 277.61 93.373179 
L 277.23127 93.757994 
L 274.34385 113.137869 
L 277.61 117.535886 
L 281.952602 123.061975 
M 298.315227 144.244705 
L 301.473333 148.404357 
L 302.307655 154.013971 
L 304.053394 173.39493 
L 301.473333 190.159659 
L 294.458446 190.956403 
L 277.61 191.924312 
L 253.746667 200.443623 
L 245.093941 206.347113 
L 247.153615 219.557363 
L 250.943965 230.778089 
L 253.746667 231.920509 
L 270.546074 240.28 
M 107.988095 240.28 
L 110.566667 232.16599 
L 130.699199 240.28 
M 162.799472 240.28 
L 158.293333 238.979691 
L 150.421297 230.778089 
L 157.735005 219.557363 
L 149.426989 206.347113 
L 134.43 192.268125 
L 130.101699 190.956403 
L 116.294196 173.39493 
L 112.878608 154.013971 
L 115.55587 146.061722 
M 125.230692 121.562912 
L 129.066615 113.137869 
L 133.889168 93.757994 
L 112.232431 76.198006 
L 110.566667 74.880278 
L 107.66364 60.808896 
L 107.294104 47.600163 
L 108.394003 36.380776 
L 110.566667 30.331775 
L 115.236808 26.88 
M 221.251686 240.28 
L 219.081217 230.778089 
L 217.883408 219.557363 
L 217.335578 206.347113 
L 216.912153 206.029535 
M 196.307178 207.075793 
L 193.388491 219.557363 
L 186.302397 230.778089 
L 186.623559 240.28 
" clip-path="url(#p5162588d18)" style="fill: none; stroke-dasharray: 1.85,0.8; stroke-dashoffset: 0; stroke: #000000; stroke-width: 0.5"/>
    <path d="M 292.173953 26.88 
L 295.432405 36.380776 
L 301.473333 41.892859 
L 302.609241 47.600163 
L 303.793392 60.808896 
L 305.142796 76.198006 
L 301.473333 89.12706 
L 277.61 86.150839 
L 270.123135 93.757994 
L 264.989376 113.137869 
L 277.61 130.132101 
L 280.327792 133.590571 
L 286.591766 142.912476 
M 301.487862 165.10876 
L 302.261279 173.39493 
L 301.473333 178.514847 
L 277.61 186.056878 
L 267.809086 190.956403 
L 253.746667 196.129329 
L 238.770495 206.347113 
L 238.574634 219.557363 
L 241.366568 230.778089 
L 253.746667 235.824388 
L 262.700757 240.28 
M 109.780336 240.28 
L 110.566667 237.805647 
L 116.706048 240.28 
M 225.74532 240.28 
L 223.993518 230.778089 
L 223.844349 219.557363 
L 222.552007 206.347113 
L 206.02 193.947788 
L 192.078557 206.347113 
L 187.041606 219.557363 
L 182.156667 226.691035 
L 171.124461 219.557363 
L 158.293333 211.624224 
L 154.984225 206.347113 
L 141.297666 190.956403 
L 134.43 185.645275 
L 132.184651 183.250172 
M 120.950382 160.407982 
L 119.968051 154.013971 
L 127.666466 133.590571 
L 134.43 117.919796 
L 135.830949 113.137869 
L 141.283776 93.757994 
L 134.43 85.615059 
L 123.046733 76.198006 
L 110.566667 66.325457 
L 109.428561 60.808896 
L 109.027909 47.600163 
L 110.220422 36.380776 
L 110.566667 35.416782 
L 122.11666 26.88 
M 158.293333 229.203081 
L 164.234215 230.778089 
L 158.293333 231.824013 
L 157.289438 230.778089 
L 158.293333 229.203081 
z
" clip-path="url(#p5162588d18)" style="fill: none; stroke-dasharray: 1.85,0.8; stroke-dashoffset: 0; stroke: #000000; stroke-width: 0.5"/>
    <path d="M 199.967849 26.88 
L 206.02 34.193367 
L 213.145696 26.88 
M 284.492385 26.88 
L 285.71293 36.380776 
L 298.605596 47.600163 
L 301.473333 53.936114 
L 302.120266 60.808896 
L 303.574469 76.198006 
L 301.473333 83.601188 
L 277.61 78.928498 
L 263.015 93.757994 
L 255.634902 113.137869 
L 253.746667 119.294933 
L 250.487928 133.590571 
L 253.746667 141.81797 
L 277.61 148.592616 
L 281.024971 154.013971 
L 293.699156 173.39493 
L 277.61 180.193864 
L 256.080828 190.956403 
L 253.746667 191.815035 
L 232.447049 206.347113 
L 229.995653 219.557363 
L 231.78917 230.778089 
L 229.883333 237.57636 
L 228.905819 230.778089 
L 229.80529 219.557363 
L 227.768436 206.347113 
L 210.03309 190.956403 
L 206.02 188.689132 
L 202.882813 190.956403 
L 187.679543 206.347113 
L 182.156667 217.509433 
L 164.108733 206.347113 
L 158.293333 201.39414 
L 150.472038 190.956403 
L 134.43 178.55025 
L 129.597016 173.39493 
L 127.057494 154.013971 
L 134.43 136.09208 
L 135.249884 133.590571 
L 141.201523 113.137869 
L 143.977498 106.070582 
M 140.14434 83.457871 
L 134.43 76.668694 
L 133.861036 76.198006 
L 118.870937 60.808896 
L 112.520628 47.600163 
L 118.437639 36.380776 
L 128.996513 26.88 
M 238.449255 240.28 
L 253.746667 239.728267 
L 254.85544 240.28 
M 161.415452 51.041226 
L 161.960981 47.600163 
L 159.90278 36.380776 
L 158.293333 31.721752 
L 156.112331 36.380776 
L 151.903686 47.600163 
L 151.500823 54.963726 
" clip-path="url(#p5162588d18)" style="fill: none; stroke-dasharray: 1.85,0.8; stroke-dashoffset: 0; stroke: #000000; stroke-width: 0.5"/>
    <path d="M 192.902047 26.88 
L 196.326538 34.28868 
M 218.200177 37.076754 
L 219.549255 36.380776 
L 221.464846 26.88 
M 267.152143 26.88 
L 272.006807 36.380776 
L 277.61 37.431416 
L 290.560533 47.600163 
L 293.728509 60.808896 
L 301.473333 70.712407 
L 302.006143 76.198006 
L 301.473333 78.075317 
L 293.043078 76.198006 
L 277.61 71.156399 
L 259.471064 60.808896 
L 253.746667 51.752231 
L 250.124897 60.808896 
L 250.528876 63.310508 
M 255.106331 89.014311 
L 255.906865 93.757994 
L 253.746667 99.102247 
L 245.771272 113.137869 
L 243.534759 133.590571 
L 247.852862 154.013971 
L 253.746667 159.403866 
L 277.61 169.947707 
L 279.824782 173.39493 
L 277.61 174.33085 
L 253.746667 182.128361 
L 241.638395 173.39493 
L 229.883333 164.624628 
L 216.358218 173.39493 
L 206.02 179.058122 
L 189.556539 190.956403 
L 183.280528 206.347113 
L 182.156667 208.618556 
L 178.484056 206.347113 
L 163.301338 190.956403 
L 158.863481 173.39493 
L 158.293333 172.388277 
L 134.43 156.483777 
L 134.146937 154.013971 
L 134.43 153.32587 
L 140.898361 133.590571 
L 146.572098 113.137869 
L 156.343796 93.757994 
L 153.775763 76.198006 
L 158.293333 73.93398 
L 165.436613 60.808896 
L 169.912367 47.600163 
L 169.619721 36.380776 
L 166.704944 26.88 
M 128.992676 41.815772 
L 128.149801 36.380776 
L 134.43 29.211019 
L 142.94465 36.380776 
L 140.602364 41.750864 
M 229.883333 187.863546 
L 233.948055 190.956403 
L 229.883333 194.290871 
L 227.080064 190.956403 
L 229.883333 187.863546 
z
" clip-path="url(#p5162588d18)" style="fill: none; stroke-dasharray: 1.85,0.8; stroke-dashoffset: 0; stroke: #000000; stroke-width: 0.5"/>
    <path d="M 185.836245 26.88 
L 185.561493 36.380776 
L 193.997554 47.600163 
L 206.02 50.800561 
L 215.459353 47.600163 
L 229.883333 40.197342 
L 241.976185 47.600163 
L 241.134289 60.808896 
L 242.551057 76.198006 
L 244.27409 93.757994 
L 235.778874 113.137869 
L 236.581589 133.590571 
L 233.771054 141.58502 
M 218.218102 162.032837 
L 206.02 170.863272 
L 201.020273 173.39493 
L 182.156667 187.049713 
L 167.982387 173.39493 
L 158.293333 156.287947 
L 155.232974 154.013971 
L 146.546837 133.590571 
L 151.942672 113.137869 
L 158.293333 101.224441 
L 164.101175 93.757994 
L 164.602366 76.198006 
L 171.006292 60.808896 
L 177.863754 47.600163 
L 179.336661 36.380776 
L 176.865478 26.88 
M 230.207659 26.88 
L 229.883333 27.135628 
L 229.783997 26.88 
M 277.61 43.748392 
L 282.515471 47.600163 
L 281.10119 60.808896 
L 277.61 63.050114 
L 273.681196 60.808896 
L 267.399489 47.600163 
L 277.61 43.748392 
z
" clip-path="url(#p5162588d18)" style="fill: none; stroke-dasharray: 1.85,0.8; stroke-dashoffset: 0; stroke: #000000; stroke-width: 0.5"/>
    <path d="M 178.356418 174.604054 
L 177.101293 173.39493 
L 173.079544 154.013971 
L 158.293333 144.965629 
L 152.195313 133.590571 
L 157.313246 113.137869 
L 158.293333 111.299288 
L 171.937984 93.757994 
L 172.70366 76.198006 
L 176.57597 60.808896 
L 182.156667 51.756837 
L 206.02 56.638857 
L 229.883333 52.783012 
L 232.14368 60.808896 
L 232.492069 76.198006 
L 230.665923 93.757994 
L 229.883333 96.141949 
L 226.902165 113.137869 
L 229.598494 133.590571 
L 220.806541 154.013971 
L 206.02 164.718226 
L 201.157496 167.1804 
" clip-path="url(#p5162588d18)" style="fill: none; stroke-dasharray: 1.85,0.8; stroke-dashoffset: 0; stroke: #000000; stroke-width: 0.5"/>
    <path d="M 180.501339 145.8816 
L 158.293333 134.429136 
L 157.84379 133.590571 
L 158.293333 131.776087 
L 181.341952 113.137869 
L 179.774793 93.757994 
L 180.804954 76.198006 
L 182.145648 60.808896 
L 182.156667 60.791024 
L 182.320742 60.808896 
L 206.02 64.917885 
L 218.294156 76.198006 
L 220.723276 93.757994 
L 219.630976 113.137869 
L 221.829049 133.590571 
L 212.317957 154.013971 
L 206.02 158.573181 
L 204.720264 158.166611 
" clip-path="url(#p5162588d18)" style="fill: none; stroke-dasharray: 1.85,0.8; stroke-dashoffset: 0; stroke: #000000; stroke-width: 0.5"/>
    <path d="M 195.271521 141.534492 
L 185.109903 133.590571 
L 194.730541 113.137869 
L 195.896729 93.757994 
L 206.02 81.394762 
L 211.004291 93.757994 
L 212.359788 113.137869 
L 214.059604 133.590571 
L 211.880156 138.02196 
" clip-path="url(#p5162588d18)" style="fill: none; stroke-dasharray: 1.85,0.8; stroke-dashoffset: 0; stroke: #000000; stroke-width: 0.5"/>
    <path d="M 206.02 129.223919 
L 206.29016 133.590571 
L 206.02 134.139876 
L 205.317346 133.590571 
L 206.02 129.223919 
z
" clip-path="url(#p5162588d18)" style="fill: none; stroke-dasharray: 1.85,0.8; stroke-dashoffset: 0; stroke: #000000; stroke-width: 0.5"/>
    <path clip-path="url(#p5162588d18)" style="fill: none; stroke-dasharray: 1.85,0.8; stroke-dashoffset: 0; stroke: #000000; stroke-width: 0.5"/>
   </g>
   <g id="patch_3">
    <path d="M 62.84 240.28 
L 62.84 26.88 
" style="fill: none; stroke: #000000; stroke-width: 0.8; stroke-linejoin: miter; stroke-linecap: square"/>
   </g>
   <g id="patch_4">
    <path d="M 349.2 240.28 
L 349.2 26.88 
" style="fill: none; stroke: #000000; stroke-width: 0.8; stroke-linejoin: miter; stroke-linecap: square"/>
   </g>
   <g id="patch_5">
    <path d="M 62.84 240.28 
L 349.2 240.28 
" style="fill: none; stroke: #000000; stroke-width: 0.8; stroke-linejoin: miter; stroke-linecap: square"/>
   </g>
   <g id="patch_6">
    <path d="M 62.84 26.88 
L 349.2 26.88 
" style="fill: none; stroke: #000000; stroke-width: 0.8; stroke-linejoin: miter; stroke-linecap: square"/>
   </g>
   <g id="text_11">
    <!-- Band 4000 -->
    <g transform="translate(173.438125 20.88) scale(0.12 -0.12)">
     <defs>
      <path id="DejaVuSans-42" d="M 1259 2228 
L 1259 519 
L 2272 519 
Q 2781 519 3026 730 
Q 3272 941 3272 1375 
Q 3272 1813 3026 2020 
Q 2781 2228 2272 2228 
L 1259 2228 
z
M 1259 4147 
L 1259 2741 
L 2194 2741 
Q 2656 2741 2882 2914 
Q 3109 3088 3109 3444 
Q 3109 3797 2882 3972 
Q 2656 4147 2194 4147 
L 1259 4147 
z
M 628 4666 
L 2241 4666 
Q 2963 4666 3353 4366 
Q 3744 4066 3744 3513 
Q 3744 3084 3544 2831 
Q 3344 2578 2956 2516 
Q 3422 2416 3680 2098 
Q 3938 1781 3938 1306 
Q 3938 681 3513 340 
Q 3088 0 2303 0 
L 628 0 
L 628 4666 
z
" transform="scale(0.015625)"/>
      <path id="DejaVuSans-61" d="M 2194 1759 
Q 1497 1759 1228 1600 
Q 959 1441 959 1056 
Q 959 750 1161 570 
Q 1363 391 1709 391 
Q 2188 391 2477 730 
Q 2766 1069 2766 1631 
L 2766 1759 
L 2194 1759 
z
M 3341 1997 
L 3341 0 
L 2766 0 
L 2766 531 
Q 2569 213 2275 61 
Q 1981 -91 1556 -91 
Q 1019 -91 701 211 
Q 384 513 384 1019 
Q 384 1609 779 1909 
Q 1175 2209 1959 2209 
L 2766 2209 
L 2766 2266 
Q 2766 2663 2505 2880 
Q 2244 3097 1772 3097 
Q 1472 3097 1187 3025 
Q 903 2953 641 2809 
L 641 3341 
Q 956 3463 1253 3523 
Q 1550 3584 1831 3584 
Q 2591 3584 2966 3190 
Q 3341 2797 3341 1997 
z
" transform="scale(0.015625)"/>
      <path id="DejaVuSans-6e" d="M 3513 2113 
L 3513 0 
L 2938 0 
L 2938 2094 
Q 2938 2591 2744 2837 
Q 2550 3084 2163 3084 
Q 1697 3084 1428 2787 
Q 1159 2491 1159 1978 
L 1159 0 
L 581 0 
L 581 3500 
L 1159 3500 
L 1159 2956 
Q 1366 3272 1645 3428 
Q 1925 3584 2291 3584 
Q 2894 3584 3203 3211 
Q 3513 2838 3513 2113 
z
" transform="scale(0.015625)"/>
      <path id="DejaVuSans-64" d="M 2906 2969 
L 2906 4863 
L 3481 4863 
L 3481 0 
L 2906 0 
L 2906 525 
Q 2725 213 2448 61 
Q 2172 -91 1784 -91 
Q 1150 -91 751 415 
Q 353 922 353 1747 
Q 353 2572 751 3078 
Q 1150 3584 1784 3584 
Q 2172 3584 2448 3432 
Q 2725 3281 2906 2969 
z
M 947 1747 
Q 947 1113 1208 752 
Q 1469 391 1925 391 
Q 2381 391 2643 752 
Q 2906 1113 2906 1747 
Q 2906 2381 2643 2742 
Q 2381 3103 1925 3103 
Q 1469 3103 1208 2742 
Q 947 2381 947 1747 
z
" transform="scale(0.015625)"/>
      <path id="DejaVuSans-20" transform="scale(0.015625)"/>
     </defs>
     <use xlink:href="#DejaVuSans-42"/>
     <use xlink:href="#DejaVuSans-61" transform="translate(68.603516 0)"/>
     <use xlink:href="#DejaVuSans-6e" transform="translate(129.882812 0)"/>
     <use xlink:href="#DejaVuSans-64" transform="translate(193.261719 0)"/>
     <use xlink:href="#DejaVuSans-20" transform="translate(256.738281 0)"/>
     <use xlink:href="#DejaVuSans-34" transform="translate(288.525391 0)"/>
     <use xlink:href="#DejaVuSans-30" transform="translate(352.148438 0)"/>
     <use xlink:href="#DejaVuSans-30" transform="translate(415.771484 0)"/>
     <use xlink:href="#DejaVuSans-30" transform="translate(479.394531 0)"/>
    </g>
   </g>
   <g id="text_12">
    <g clip-path="url(#p5162588d18)">
     <!-- 58.4 -->
     <g transform="translate(320.846717 123.586089) rotate(-270.343064) scale(0.09 -0.09)">
      <defs>
       <path id="DejaVuSans-38" d="M 2034 2216 
Q 1584 2216 1326 1975 
Q 1069 1734 1069 1313 
Q 1069 891 1326 650 
Q 1584 409 2034 409 
Q 2484 409 2743 651 
Q 3003 894 3003 1313 
Q 3003 1734 2745 1975 
Q 2488 2216 2034 2216 
z
M 1403 2484 
Q 997 2584 770 2862 
Q 544 3141 544 3541 
Q 544 4100 942 4425 
Q 1341 4750 2034 4750 
Q 2731 4750 3128 4425 
Q 3525 4100 3525 3541 
Q 3525 3141 3298 2862 
Q 3072 2584 2669 2484 
Q 3125 2378 3379 2068 
Q 3634 1759 3634 1313 
Q 3634 634 3220 271 
Q 2806 -91 2034 -91 
Q 1263 -91 848 271 
Q 434 634 434 1313 
Q 434 1759 690 2068 
Q 947 2378 1403 2484 
z
M 1172 3481 
Q 1172 3119 1398 2916 
Q 1625 2713 2034 2713 
Q 2441 2713 2670 2916 
Q 2900 3119 2900 3481 
Q 2900 3844 2670 4047 
Q 2441 4250 2034 4250 
Q 1625 4250 1398 4047 
Q 1172 3844 1172 3481 
z
" transform="scale(0.015625)"/>
       <path id="DejaVuSans-2e" d="M 684 794 
L 1344 794 
L 1344 0 
L 684 0 
L 684 794 
z
" transform="scale(0.015625)"/>
      </defs>
      <use xlink:href="#DejaVuSans-35"/>
      <use xlink:href="#DejaVuSans-38" transform="translate(63.623047 0)"/>
      <use xlink:href="#DejaVuSans-2e" transform="translate(127.246094 0)"/>
      <use xlink:href="#DejaVuSans-34" transform="translate(159.033203 0)"/>
     </g>
    </g>
   </g>
   <g id="text_13">
    <g clip-path="url(#p5162588d18)">
     <!-- 58.4 -->
     <g transform="translate(91.038624 143.634184) rotate(-89.433086) scale(0.09 -0.09)">
      <use xlink:href="#DejaVuSans-35"/>
      <use xlink:href="#DejaVuSans-38" transform="translate(63.623047 0)"/>
      <use xlink:href="#DejaVuSans-2e" transform="translate(127.246094 0)"/>
      <use xlink:href="#DejaVuSans-34" transform="translate(159.033203 0)"/>
     </g>
    </g>
   </g>
   <g id="text_14">
    <g clip-path="url(#p5162588d18)">
     <!-- 59.2 -->
     <g transform="translate(318.556474 123.603701) rotate(-270.734554) scale(0.09 -0.09)">
      <defs>
       <path id="DejaVuSans-39" d="M 703 97 
L 703 672 
Q 941 559 1184 500 
Q 1428 441 1663 441 
Q 2288 441 2617 861 
Q 2947 1281 2994 2138 
Q 2813 1869 2534 1725 
Q 2256 1581 1919 1581 
Q 1219 1581 811 2004 
Q 403 2428 403 3163 
Q 403 3881 828 4315 
Q 1253 4750 1959 4750 
Q 2769 4750 3195 4129 
Q 3622 3509 3622 2328 
Q 3622 1225 3098 567 
Q 2575 -91 1691 -91 
Q 1453 -91 1209 -44 
Q 966 3 703 97 
z
M 1959 2075 
Q 2384 2075 2632 2365 
Q 2881 2656 2881 3163 
Q 2881 3666 2632 3958 
Q 2384 4250 1959 4250 
Q 1534 4250 1286 3958 
Q 1038 3666 1038 3163 
Q 1038 2656 1286 2365 
Q 1534 2075 1959 2075 
z
" transform="scale(0.015625)"/>
      </defs>
      <use xlink:href="#DejaVuSans-35"/>
      <use xlink:href="#DejaVuSans-39" transform="translate(63.623047 0)"/>
      <use xlink:href="#DejaVuSans-2e" transform="translate(127.246094 0)"/>
      <use xlink:href="#DejaVuSans-32" transform="translate(159.033203 0)"/>
     </g>
    </g>
   </g>
   <g id="text_15">
    <g clip-path="url(#p5162588d18)">
     <!-- 59.2 -->
     <g transform="translate(93.152209 143.660462) rotate(-88.786163) scale(0.09 -0.09)">
      <use xlink:href="#DejaVuSans-35"/>
      <use xlink:href="#DejaVuSans-39" transform="translate(63.623047 0)"/>
      <use xlink:href="#DejaVuSans-2e" transform="translate(127.246094 0)"/>
      <use xlink:href="#DejaVuSans-32" transform="translate(159.033203 0)"/>
     </g>
    </g>
   </g>
   <g id="text_16">
    <g clip-path="url(#p5162588d18)">
     <!-- 60.0 -->
     <g transform="translate(316.266393 123.621768) rotate(-271.125809) scale(0.09 -0.09)">
      <defs>
       <path id="DejaVuSans-36" d="M 2113 2584 
Q 1688 2584 1439 2293 
Q 1191 2003 1191 1497 
Q 1191 994 1439 701 
Q 1688 409 2113 409 
Q 2538 409 2786 701 
Q 3034 994 3034 1497 
Q 3034 2003 2786 2293 
Q 2538 2584 2113 2584 
z
M 3366 4563 
L 3366 3988 
Q 3128 4100 2886 4159 
Q 2644 4219 2406 4219 
Q 1781 4219 1451 3797 
Q 1122 3375 1075 2522 
Q 1259 2794 1537 2939 
Q 1816 3084 2150 3084 
Q 2853 3084 3261 2657 
Q 3669 2231 3669 1497 
Q 3669 778 3244 343 
Q 2819 -91 2113 -91 
Q 1303 -91 875 529 
Q 447 1150 447 2328 
Q 447 3434 972 4092 
Q 1497 4750 2381 4750 
Q 2619 4750 2861 4703 
Q 3103 4656 3366 4563 
z
" transform="scale(0.015625)"/>
      </defs>
      <use xlink:href="#DejaVuSans-36"/>
      <use xlink:href="#DejaVuSans-30" transform="translate(63.623047 0)"/>
      <use xlink:href="#DejaVuSans-2e" transform="translate(127.246094 0)"/>
      <use xlink:href="#DejaVuSans-30" transform="translate(159.033203 0)"/>
     </g>
    </g>
   </g>
   <g id="text_17">
    <g clip-path="url(#p5162588d18)">
     <!-- 60.0 -->
     <g transform="translate(95.265579 143.685442) rotate(-88.139661) scale(0.09 -0.09)">
      <use xlink:href="#DejaVuSans-36"/>
      <use xlink:href="#DejaVuSans-30" transform="translate(63.623047 0)"/>
      <use xlink:href="#DejaVuSans-2e" transform="translate(127.246094 0)"/>
      <use xlink:href="#DejaVuSans-30" transform="translate(159.033203 0)"/>
     </g>
    </g>
   </g>
   <g id="text_18">
    <g clip-path="url(#p5162588d18)">
     <!-- 60.8 -->
     <g transform="translate(313.9765 123.640282) rotate(-271.516705) scale(0.09 -0.09)">
      <use xlink:href="#DejaVuSans-36"/>
      <use xlink:href="#DejaVuSans-30" transform="translate(63.623047 0)"/>
      <use xlink:href="#DejaVuSans-2e" transform="translate(127.246094 0)"/>
      <use xlink:href="#DejaVuSans-38" transform="translate(159.033203 0)"/>
     </g>
    </g>
   </g>
   <g id="text_19">
    <g clip-path="url(#p5162588d18)">
     <!-- 60.8 -->
     <g transform="translate(97.378788 143.709113) rotate(-87.493801) scale(0.09 -0.09)">
      <use xlink:href="#DejaVuSans-36"/>
      <use xlink:href="#DejaVuSans-30" transform="translate(63.623047 0)"/>
      <use xlink:href="#DejaVuSans-2e" transform="translate(127.246094 0)"/>
      <use xlink:href="#DejaVuSans-38" transform="translate(159.033203 0)"/>
     </g>
    </g>
   </g>
   <g id="text_20">
    <g clip-path="url(#p5162588d18)">
     <!-- 61.6 -->
     <g transform="translate(311.686818 123.659236) rotate(-271.907116) scale(0.09 -0.09)">
      <defs>
       <path id="DejaVuSans-31" d="M 794 531 
L 1825 531 
L 1825 4091 
L 703 3866 
L 703 4441 
L 1819 4666 
L 2450 4666 
L 2450 531 
L 3481 531 
L 3481 0 
L 794 0 
L 794 531 
z
" transform="scale(0.015625)"/>
      </defs>
      <use xlink:href="#DejaVuSans-36"/>
      <use xlink:href="#DejaVuSans-31" transform="translate(63.623047 0)"/>
      <use xlink:href="#DejaVuSans-2e" transform="translate(127.246094 0)"/>
      <use xlink:href="#DejaVuSans-36" transform="translate(159.033203 0)"/>
     </g>
    </g>
   </g>
   <g id="text_21">
    <g clip-path="url(#p5162588d18)">
     <!-- 61.6 -->
     <g transform="translate(99.491889 143.731469) rotate(-86.848804) scale(0.09 -0.09)">
      <use xlink:href="#DejaVuSans-36"/>
      <use xlink:href="#DejaVuSans-31" transform="translate(63.623047 0)"/>
      <use xlink:href="#DejaVuSans-2e" transform="translate(127.246094 0)"/>
      <use xlink:href="#DejaVuSans-36" transform="translate(159.033203 0)"/>
     </g>
    </g>
   </g>
   <g id="text_22">
    <g clip-path="url(#p5162588d18)">
     <!-- 62.4 -->
     <g transform="translate(309.397372 123.678621) rotate(-272.296921) scale(0.09 -0.09)">
      <use xlink:href="#DejaVuSans-36"/>
      <use xlink:href="#DejaVuSans-32" transform="translate(63.623047 0)"/>
      <use xlink:href="#DejaVuSans-2e" transform="translate(127.246094 0)"/>
      <use xlink:href="#DejaVuSans-34" transform="translate(159.033203 0)"/>
     </g>
    </g>
   </g>
   <g id="text_23">
    <g clip-path="url(#p5162588d18)">
     <!-- 62.4 -->
     <g transform="translate(101.604939 143.752506) rotate(-86.20489) scale(0.09 -0.09)">
      <use xlink:href="#DejaVuSans-36"/>
      <use xlink:href="#DejaVuSans-32" transform="translate(63.623047 0)"/>
      <use xlink:href="#DejaVuSans-2e" transform="translate(127.246094 0)"/>
      <use xlink:href="#DejaVuSans-34" transform="translate(159.033203 0)"/>
     </g>
    </g>
   </g>
   <g id="text_24">
    <g clip-path="url(#p5162588d18)">
     <!-- 63.2 -->
     <g transform="translate(307.108185 123.698427) rotate(-272.685998) scale(0.09 -0.09)">
      <defs>
       <path id="DejaVuSans-33" d="M 2597 2516 
Q 3050 2419 3304 2112 
Q 3559 1806 3559 1356 
Q 3559 666 3084 287 
Q 2609 -91 1734 -91 
Q 1441 -91 1130 -33 
Q 819 25 488 141 
L 488 750 
Q 750 597 1062 519 
Q 1375 441 1716 441 
Q 2309 441 2620 675 
Q 2931 909 2931 1356 
Q 2931 1769 2642 2001 
Q 2353 2234 1838 2234 
L 1294 2234 
L 1294 2753 
L 1863 2753 
Q 2328 2753 2575 2939 
Q 2822 3125 2822 3475 
Q 2822 3834 2567 4026 
Q 2313 4219 1838 4219 
Q 1578 4219 1281 4162 
Q 984 4106 628 3988 
L 628 4550 
Q 988 4650 1302 4700 
Q 1616 4750 1894 4750 
Q 2613 4750 3031 4423 
Q 3450 4097 3450 3541 
Q 3450 3153 3228 2886 
Q 3006 2619 2597 2516 
z
" transform="scale(0.015625)"/>
      </defs>
      <use xlink:href="#DejaVuSans-36"/>
      <use xlink:href="#DejaVuSans-33" transform="translate(63.623047 0)"/>
      <use xlink:href="#DejaVuSans-2e" transform="translate(127.246094 0)"/>
      <use xlink:href="#DejaVuSans-32" transform="translate(159.033203 0)"/>
     </g>
    </g>
   </g>
   <g id="text_25">
    <g clip-path="url(#p5162588d18)">
     <!-- 63.2 -->
     <g transform="translate(103.717989 143.772221) rotate(-85.562273) scale(0.09 -0.09)">
      <use xlink:href="#DejaVuSans-36"/>
      <use xlink:href="#DejaVuSans-33" transform="translate(63.623047 0)"/>
      <use xlink:href="#DejaVuSans-2e" transform="translate(127.246094 0)"/>
      <use xlink:href="#DejaVuSans-32" transform="translate(159.033203 0)"/>
     </g>
    </g>
   </g>
   <g id="text_26">
    <g clip-path="url(#p5162588d18)">
     <!-- 64.0 -->
     <g transform="translate(304.819281 123.718644) rotate(-273.074226) scale(0.09 -0.09)">
      <use xlink:href="#DejaVuSans-36"/>
      <use xlink:href="#DejaVuSans-34" transform="translate(63.623047 0)"/>
      <use xlink:href="#DejaVuSans-2e" transform="translate(127.246094 0)"/>
      <use xlink:href="#DejaVuSans-30" transform="translate(159.033203 0)"/>
     </g>
    </g>
   </g>
   <g id="text_27">
    <g clip-path="url(#p5162588d18)">
     <!-- 64.0 -->
     <g transform="translate(105.831095 143.790613) rotate(-84.921168) scale(0.09 -0.09)">
      <use xlink:href="#DejaVuSans-36"/>
      <use xlink:href="#DejaVuSans-34" transform="translate(63.623047 0)"/>
      <use xlink:href="#DejaVuSans-2e" transform="translate(127.246094 0)"/>
      <use xlink:href="#DejaVuSans-30" transform="translate(159.033203 0)"/>
     </g>
    </g>
   </g>
   <g id="text_28">
    <g clip-path="url(#p5162588d18)">
     <!-- 64.8 -->
     <g transform="translate(304.76192 144.254451) rotate(-275.092864) scale(0.09 -0.09)">
      <use xlink:href="#DejaVuSans-36"/>
      <use xlink:href="#DejaVuSans-34" transform="translate(63.623047 0)"/>
      <use xlink:href="#DejaVuSans-2e" transform="translate(127.246094 0)"/>
      <use xlink:href="#DejaVuSans-38" transform="translate(159.033203 0)"/>
     </g>
    </g>
   </g>
   <g id="text_29">
    <g clip-path="url(#p5162588d18)">
     <!-- 64.8 -->
     <g transform="translate(110.07022 123.439711) rotate(-79.723598) scale(0.09 -0.09)">
      <use xlink:href="#DejaVuSans-36"/>
      <use xlink:href="#DejaVuSans-34" transform="translate(63.623047 0)"/>
      <use xlink:href="#DejaVuSans-2e" transform="translate(127.246094 0)"/>
      <use xlink:href="#DejaVuSans-38" transform="translate(159.033203 0)"/>
     </g>
    </g>
   </g>
   <g id="text_30">
    <g clip-path="url(#p5162588d18)">
     <!-- 65.6 -->
     <g transform="translate(304.662123 216.587115) rotate(-83.337298) scale(0.09 -0.09)">
      <use xlink:href="#DejaVuSans-36"/>
      <use xlink:href="#DejaVuSans-35" transform="translate(63.623047 0)"/>
      <use xlink:href="#DejaVuSans-2e" transform="translate(127.246094 0)"/>
      <use xlink:href="#DejaVuSans-36" transform="translate(159.033203 0)"/>
     </g>
    </g>
   </g>
   <g id="text_31">
    <g clip-path="url(#p5162588d18)">
     <!-- 65.6 -->
     <g transform="translate(110.150393 131.54814) rotate(-73.768101) scale(0.09 -0.09)">
      <use xlink:href="#DejaVuSans-36"/>
      <use xlink:href="#DejaVuSans-35" transform="translate(63.623047 0)"/>
      <use xlink:href="#DejaVuSans-2e" transform="translate(127.246094 0)"/>
      <use xlink:href="#DejaVuSans-36" transform="translate(159.033203 0)"/>
     </g>
    </g>
   </g>
   <g id="text_32">
    <g clip-path="url(#p5162588d18)">
     <!-- 65.6 -->
     <g transform="translate(124.66249 235.63107) rotate(-4.956267) scale(0.09 -0.09)">
      <use xlink:href="#DejaVuSans-36"/>
      <use xlink:href="#DejaVuSans-35" transform="translate(63.623047 0)"/>
      <use xlink:href="#DejaVuSans-2e" transform="translate(127.246094 0)"/>
      <use xlink:href="#DejaVuSans-36" transform="translate(159.033203 0)"/>
     </g>
    </g>
   </g>
   <g id="text_33">
    <g clip-path="url(#p5162588d18)">
     <!-- 66.4 -->
     <g transform="translate(308.052783 183.478898) rotate(-88.425942) scale(0.09 -0.09)">
      <use xlink:href="#DejaVuSans-36"/>
      <use xlink:href="#DejaVuSans-36" transform="translate(63.623047 0)"/>
      <use xlink:href="#DejaVuSans-2e" transform="translate(127.246094 0)"/>
      <use xlink:href="#DejaVuSans-34" transform="translate(159.033203 0)"/>
     </g>
    </g>
   </g>
   <g id="text_34">
    <g clip-path="url(#p5162588d18)">
     <!-- 66.4 -->
     <g transform="translate(104.265974 185.278564) rotate(-312.709929) scale(0.09 -0.09)">
      <use xlink:href="#DejaVuSans-36"/>
      <use xlink:href="#DejaVuSans-36" transform="translate(63.623047 0)"/>
      <use xlink:href="#DejaVuSans-2e" transform="translate(127.246094 0)"/>
      <use xlink:href="#DejaVuSans-34" transform="translate(159.033203 0)"/>
     </g>
    </g>
   </g>
   <g id="text_35">
    <g clip-path="url(#p5162588d18)">
     <!-- 66.4 -->
     <g transform="translate(196.173516 204.871862) rotate(-3.550888) scale(0.09 -0.09)">
      <use xlink:href="#DejaVuSans-36"/>
      <use xlink:href="#DejaVuSans-36" transform="translate(63.623047 0)"/>
      <use xlink:href="#DejaVuSans-2e" transform="translate(127.246094 0)"/>
      <use xlink:href="#DejaVuSans-34" transform="translate(159.033203 0)"/>
     </g>
    </g>
   </g>
   <g id="text_36">
    <g clip-path="url(#p5162588d18)">
     <!-- 67.2 -->
     <g transform="translate(282.337978 126.932346) rotate(-305.913032) scale(0.09 -0.09)">
      <defs>
       <path id="DejaVuSans-37" d="M 525 4666 
L 3525 4666 
L 3525 4397 
L 1831 0 
L 1172 0 
L 2766 4134 
L 525 4134 
L 525 4666 
z
" transform="scale(0.015625)"/>
      </defs>
      <use xlink:href="#DejaVuSans-36"/>
      <use xlink:href="#DejaVuSans-37" transform="translate(63.623047 0)"/>
      <use xlink:href="#DejaVuSans-2e" transform="translate(127.246094 0)"/>
      <use xlink:href="#DejaVuSans-32" transform="translate(159.033203 0)"/>
     </g>
    </g>
   </g>
   <g id="text_37">
    <g clip-path="url(#p5162588d18)">
     <!-- 67.2 -->
     <g transform="translate(118.604452 143.849024) rotate(-69.68267) scale(0.09 -0.09)">
      <use xlink:href="#DejaVuSans-36"/>
      <use xlink:href="#DejaVuSans-37" transform="translate(63.623047 0)"/>
      <use xlink:href="#DejaVuSans-2e" transform="translate(127.246094 0)"/>
      <use xlink:href="#DejaVuSans-32" transform="translate(159.033203 0)"/>
     </g>
    </g>
   </g>
   <g id="text_38">
    <g clip-path="url(#p5162588d18)">
     <!-- 67.2 -->
     <g transform="translate(196.114033 200.763706) rotate(-2.415399) scale(0.09 -0.09)">
      <use xlink:href="#DejaVuSans-36"/>
      <use xlink:href="#DejaVuSans-37" transform="translate(63.623047 0)"/>
      <use xlink:href="#DejaVuSans-2e" transform="translate(127.246094 0)"/>
      <use xlink:href="#DejaVuSans-32" transform="translate(159.033203 0)"/>
     </g>
    </g>
   </g>
   <g id="text_39">
    <g clip-path="url(#p5162588d18)">
     <!-- 68.0 -->
     <g transform="translate(286.593959 146.876557) rotate(-302.335988) scale(0.09 -0.09)">
      <use xlink:href="#DejaVuSans-36"/>
      <use xlink:href="#DejaVuSans-38" transform="translate(63.623047 0)"/>
      <use xlink:href="#DejaVuSans-2e" transform="translate(127.246094 0)"/>
      <use xlink:href="#DejaVuSans-30" transform="translate(159.033203 0)"/>
     </g>
    </g>
   </g>
   <g id="text_40">
    <g clip-path="url(#p5162588d18)">
     <!-- 68.0 -->
     <g transform="translate(116.494786 165.336059) rotate(-294.75518) scale(0.09 -0.09)">
      <use xlink:href="#DejaVuSans-36"/>
      <use xlink:href="#DejaVuSans-38" transform="translate(63.623047 0)"/>
      <use xlink:href="#DejaVuSans-2e" transform="translate(127.246094 0)"/>
      <use xlink:href="#DejaVuSans-30" transform="translate(159.033203 0)"/>
     </g>
    </g>
   </g>
   <g id="text_41">
    <g clip-path="url(#p5162588d18)">
     <!-- 68.8 -->
     <g transform="translate(144.788461 84.252458) rotate(-279.030516) scale(0.09 -0.09)">
      <use xlink:href="#DejaVuSans-36"/>
      <use xlink:href="#DejaVuSans-38" transform="translate(63.623047 0)"/>
      <use xlink:href="#DejaVuSans-2e" transform="translate(127.246094 0)"/>
      <use xlink:href="#DejaVuSans-38" transform="translate(159.033203 0)"/>
     </g>
    </g>
   </g>
   <g id="text_42">
    <g clip-path="url(#p5162588d18)">
     <!-- 68.8 -->
     <g transform="translate(150.129283 70.017415) rotate(-23.811224) scale(0.09 -0.09)">
      <use xlink:href="#DejaVuSans-36"/>
      <use xlink:href="#DejaVuSans-38" transform="translate(63.623047 0)"/>
      <use xlink:href="#DejaVuSans-2e" transform="translate(127.246094 0)"/>
      <use xlink:href="#DejaVuSans-38" transform="translate(159.033203 0)"/>
     </g>
    </g>
   </g>
   <g id="text_43">
    <g clip-path="url(#p5162588d18)">
     <!-- 69.6 -->
     <g transform="translate(195.800217 44.814534) rotate(-354.177271) scale(0.09 -0.09)">
      <use xlink:href="#DejaVuSans-36"/>
      <use xlink:href="#DejaVuSans-39" transform="translate(63.623047 0)"/>
      <use xlink:href="#DejaVuSans-2e" transform="translate(127.246094 0)"/>
      <use xlink:href="#DejaVuSans-36" transform="translate(159.033203 0)"/>
     </g>
    </g>
   </g>
   <g id="text_44">
    <g clip-path="url(#p5162588d18)">
     <!-- 69.6 -->
     <g transform="translate(248.469822 66.741949) rotate(-279.724875) scale(0.09 -0.09)">
      <use xlink:href="#DejaVuSans-36"/>
      <use xlink:href="#DejaVuSans-39" transform="translate(63.623047 0)"/>
      <use xlink:href="#DejaVuSans-2e" transform="translate(127.246094 0)"/>
      <use xlink:href="#DejaVuSans-36" transform="translate(159.033203 0)"/>
     </g>
    </g>
   </g>
   <g id="text_45">
    <g clip-path="url(#p5162588d18)">
     <!-- 69.6 -->
     <g transform="translate(124.493857 56.192058) rotate(-1.808962) scale(0.09 -0.09)">
      <use xlink:href="#DejaVuSans-36"/>
      <use xlink:href="#DejaVuSans-39" transform="translate(63.623047 0)"/>
      <use xlink:href="#DejaVuSans-2e" transform="translate(127.246094 0)"/>
      <use xlink:href="#DejaVuSans-36" transform="translate(159.033203 0)"/>
     </g>
    </g>
   </g>
   <g id="text_46">
    <g clip-path="url(#p5162588d18)">
     <!-- 70.4 -->
     <g transform="translate(225.487072 163.608616) rotate(-54.431419) scale(0.09 -0.09)">
      <use xlink:href="#DejaVuSans-37"/>
      <use xlink:href="#DejaVuSans-30" transform="translate(63.623047 0)"/>
      <use xlink:href="#DejaVuSans-2e" transform="translate(127.246094 0)"/>
      <use xlink:href="#DejaVuSans-34" transform="translate(159.033203 0)"/>
     </g>
    </g>
   </g>
   <g id="text_47">
    <g clip-path="url(#p5162588d18)">
     <!-- 71.2 -->
     <g transform="translate(181.135755 180.215121) rotate(-27.432309) scale(0.09 -0.09)">
      <use xlink:href="#DejaVuSans-37"/>
      <use xlink:href="#DejaVuSans-31" transform="translate(63.623047 0)"/>
      <use xlink:href="#DejaVuSans-2e" transform="translate(127.246094 0)"/>
      <use xlink:href="#DejaVuSans-32" transform="translate(159.033203 0)"/>
     </g>
    </g>
   </g>
   <g id="text_48">
    <g clip-path="url(#p5162588d18)">
     <!-- 72.0 -->
     <g transform="translate(181.485703 151.298861) rotate(-330.829729) scale(0.09 -0.09)">
      <use xlink:href="#DejaVuSans-37"/>
      <use xlink:href="#DejaVuSans-32" transform="translate(63.623047 0)"/>
      <use xlink:href="#DejaVuSans-2e" transform="translate(127.246094 0)"/>
      <use xlink:href="#DejaVuSans-30" transform="translate(159.033203 0)"/>
     </g>
    </g>
   </g>
   <g id="text_49">
    <g clip-path="url(#p5162588d18)">
     <!-- 72.8 -->
     <g transform="translate(196.792506 154.564487) rotate(-12.711519) scale(0.09 -0.09)">
      <use xlink:href="#DejaVuSans-37"/>
      <use xlink:href="#DejaVuSans-32" transform="translate(63.623047 0)"/>
      <use xlink:href="#DejaVuSans-2e" transform="translate(127.246094 0)"/>
      <use xlink:href="#DejaVuSans-38" transform="translate(159.033203 0)"/>
     </g>
    </g>
   </g>
  </g>
 </g>
 <defs>
  <clipPath id="p5162588d18">
   <rect x="62.84" y="26.88" width="286.36" height="213.4"/>
  </clipPath>
 </defs>
</svg>
