<?xml version="1.0" encoding="utf-8" standalone="no"?>
<!DOCTYPE svg PUBLIC "-//W3C//DTD SVG 1.1//EN"
  "http://www.w3.org/Graphics/SVG/1.1/DTD/svg11.dtd">
<svg xmlns:xlink="http://www.w3.org/1999/xlink" width="360pt" height="288pt" viewBox="0 0 360 288" xmlns="http://www.w3.org/2000/svg" version="1.1">
 <metadata>
  <rdf:RDF xmlns:dc="http://purl.org/dc/elements/1.1/" xmlns:cc="http://creativecommons.org/ns#" xmlns:rdf="http://www.w3.org/1999/02/22-rdf-syntax-ns#">
   <cc:Work>
    <dc:type rdf:resource="http://purl.org/dc/dcmitype/StillImage"/>
    <dc:date>2025-10-03T13:42:44.279238</dc:date>
    <dc:format>image/svg+xml</dc:format>
    <dc:creator>
     <cc:Agent>
      <dc:title>Matplotlib v3.10.6, https://matplotlib.org/</dc:title>
     </cc:Agent>
    </dc:creator>
   </cc:Work>
  </rdf:RDF>
 </metadata>
 <defs>
  <style type="text/css">*{stroke-linejoin: round; stroke-linecap: butt}</style>
 </defs>
 <g id="figure_1">
  <g id="patch_1">
   <path d="M 0 288 
L 360 288 
L 360 0 
L 0 0 
z
" style="fill: #ffffff"/>
  </g>
  <g id="axes_1">
   <g id="patch_2">
    <path d="M 62.84 240.28 
L 349.2 240.28 
L 349.2 26.88 
L 62.84 26.88 
z
" style="fill: #ffffff"/>
   </g>
   <g id="QuadContourSet_1">
    <path d="M 86.703333 26.88 
L 89.592008 26.88 
L 89.472219 36.380776 
L 89.367245 47.600163 
L 89.116555 60.808896 
L 88.798309 76.198006 
L 88.58253 93.757994 
L 88.73422 113.137869 
L 88.902531 133.590571 
L 88.732739 154.013971 
L 88.89994 173.39493 
L 89.189586 190.956403 
L 88.875496 206.347113 
L 89.407913 219.557363 
L 89.787997 230.778089 
L 89.488526 240.28 
L 86.703333 240.28 
L 62.84 240.28 
L 62.84 230.778089 
L 62.84 219.557363 
L 62.84 206.347113 
L 62.84 190.956403 
L 62.84 173.39493 
L 62.84 154.013971 
L 62.84 133.590571 
L 62.84 113.137869 
L 62.84 93.757994 
L 62.84 76.198006 
L 62.84 60.808896 
L 62.84 47.600163 
L 62.84 36.380776 
L 62.84 26.88 
z
M 325.336667 26.88 
L 349.2 26.88 
L 349.2 36.380776 
L 349.2 47.600163 
L 349.2 60.808896 
L 349.2 76.198006 
L 349.2 93.757994 
L 349.2 113.137869 
L 349.2 133.590571 
L 349.2 154.013971 
L 349.2 173.39493 
L 349.2 190.956403 
L 349.2 206.347113 
L 349.2 219.557363 
L 349.2 230.778089 
L 349.2 240.28 
L 325.336667 240.28 
L 323.116822 240.28 
L 323.228321 230.778089 
L 322.577891 219.557363 
L 323.281695 206.347113 
L 323.124349 190.956403 
L 323.505633 173.39493 
L 323.474681 154.013971 
L 323.14397 133.590571 
L 323.46234 113.137869 
L 323.553406 93.757994 
L 322.722953 76.198006 
L 322.998103 60.808896 
L 322.435298 47.600163 
L 322.557677 36.380776 
L 322.950209 26.88 
z
" clip-path="url(#p567a8f5aa1)" style="fill: #460b5e"/>
    <path d="M 92.306534 36.380776 
L 92.094106 47.600163 
L 91.586803 60.808896 
L 90.942789 76.198006 
L 90.506133 93.757994 
L 90.813098 113.137869 
L 91.153697 133.590571 
L 90.810099 154.013971 
L 91.148454 173.39493 
L 91.734589 190.956403 
L 91.098988 206.347113 
L 92.176402 219.557363 
L 92.945553 230.778089 
L 92.339534 240.28 
L 89.488526 240.28 
L 89.787997 230.778089 
L 89.407913 219.557363 
L 88.875496 206.347113 
L 89.189586 190.956403 
L 88.89994 173.39493 
L 88.732739 154.013971 
L 88.902531 133.590571 
L 88.73422 113.137869 
L 88.58253 93.757994 
L 88.798309 76.198006 
L 89.116555 60.808896 
L 89.367245 47.600163 
L 89.472219 36.380776 
L 89.592008 26.88 
L 92.548944 26.88 
z
M 322.557677 36.380776 
L 322.435298 47.600163 
L 322.998103 60.808896 
L 322.722953 76.198006 
L 323.553406 93.757994 
L 323.46234 113.137869 
L 323.14397 133.590571 
L 323.474681 154.013971 
L 323.505633 173.39493 
L 323.124349 190.956403 
L 323.281695 206.347113 
L 322.577891 219.557363 
L 323.228321 230.778089 
L 323.116822 240.28 
L 320.844521 240.28 
L 321.070154 230.778089 
L 319.753924 219.557363 
L 321.178164 206.347113 
L 320.859754 190.956403 
L 321.631332 173.39493 
L 321.568695 154.013971 
L 320.89946 133.590571 
L 321.543722 113.137869 
L 321.728006 93.757994 
L 320.047477 76.198006 
L 320.604278 60.808896 
L 319.465368 47.600163 
L 319.713019 36.380776 
L 320.507358 26.88 
L 322.950209 26.88 
z
" clip-path="url(#p567a8f5aa1)" style="fill: #482071"/>
    <path d="M 95.140849 36.380776 
L 94.820966 47.600163 
L 94.05705 60.808896 
L 93.087269 76.198006 
L 92.429736 93.757994 
L 92.891976 113.137869 
L 93.404863 133.590571 
L 92.88746 154.013971 
L 93.396967 173.39493 
L 94.279592 190.956403 
L 93.32248 206.347113 
L 94.944891 219.557363 
L 96.103108 230.778089 
L 95.190542 240.28 
L 92.339534 240.28 
L 92.945553 230.778089 
L 92.176402 219.557363 
L 91.098988 206.347113 
L 91.734589 190.956403 
L 91.148454 173.39493 
L 90.810099 154.013971 
L 91.153697 133.590571 
L 90.813098 113.137869 
L 90.506133 93.757994 
L 90.942789 76.198006 
L 91.586803 60.808896 
L 92.094106 47.600163 
L 92.306534 36.380776 
L 92.548944 26.88 
L 95.505879 26.88 
z
M 319.713019 36.380776 
L 319.465368 47.600163 
L 320.604278 60.808896 
L 320.047477 76.198006 
L 321.728006 93.757994 
L 321.543722 113.137869 
L 320.89946 133.590571 
L 321.568695 154.013971 
L 321.631332 173.39493 
L 320.859754 190.956403 
L 321.178164 206.347113 
L 319.753924 219.557363 
L 321.070154 230.778089 
L 320.844521 240.28 
L 318.572221 240.28 
L 318.911987 230.778089 
L 316.929958 219.557363 
L 319.074633 206.347113 
L 318.595158 190.956403 
L 319.75703 173.39493 
L 319.66271 154.013971 
L 318.654949 133.590571 
L 319.625105 113.137869 
L 319.902606 93.757994 
L 317.372001 76.198006 
L 318.210454 60.808896 
L 316.495439 47.600163 
L 316.868362 36.380776 
L 318.064508 26.88 
L 320.507358 26.88 
z
" clip-path="url(#p567a8f5aa1)" style="fill: #46337f"/>
    <path d="M 97.975164 36.380776 
L 97.547827 47.600163 
L 96.527297 60.808896 
L 95.231749 76.198006 
L 94.353339 93.757994 
L 94.970853 113.137869 
L 95.656029 133.590571 
L 94.964821 154.013971 
L 95.645481 173.39493 
L 96.824595 190.956403 
L 95.545972 206.347113 
L 97.71338 219.557363 
L 99.260664 230.778089 
L 98.04155 240.28 
L 95.190542 240.28 
L 96.103108 230.778089 
L 94.944891 219.557363 
L 93.32248 206.347113 
L 94.279592 190.956403 
L 93.396967 173.39493 
L 92.88746 154.013971 
L 93.404863 133.590571 
L 92.891976 113.137869 
L 92.429736 93.757994 
L 93.087269 76.198006 
L 94.05705 60.808896 
L 94.820966 47.600163 
L 95.140849 36.380776 
L 95.505879 26.88 
L 98.462814 26.88 
z
M 316.868362 36.380776 
L 316.495439 47.600163 
L 318.210454 60.808896 
L 317.372001 76.198006 
L 319.902606 93.757994 
L 319.625105 113.137869 
L 318.654949 133.590571 
L 319.66271 154.013971 
L 319.75703 173.39493 
L 318.595158 190.956403 
L 319.074633 206.347113 
L 316.929958 219.557363 
L 318.911987 230.778089 
L 318.572221 240.28 
L 316.299921 240.28 
L 316.75382 230.778089 
L 314.105992 219.557363 
L 316.971102 206.347113 
L 316.330563 190.956403 
L 317.882729 173.39493 
L 317.756725 154.013971 
L 316.410439 133.590571 
L 317.706487 113.137869 
L 318.077206 93.757994 
L 314.696524 76.198006 
L 315.816629 60.808896 
L 313.52551 47.600163 
L 314.023704 36.380776 
L 315.621657 26.88 
L 318.064508 26.88 
z
" clip-path="url(#p567a8f5aa1)" style="fill: #404588"/>
    <path d="M 100.809479 36.380776 
L 100.274688 47.600163 
L 98.997544 60.808896 
L 97.376229 76.198006 
L 96.276942 93.757994 
L 97.049731 113.137869 
L 97.907194 133.590571 
L 97.042181 154.013971 
L 97.893994 173.39493 
L 99.369598 190.956403 
L 97.769464 206.347113 
L 100.481869 219.557363 
L 102.418219 230.778089 
L 100.892558 240.28 
L 98.04155 240.28 
L 99.260664 230.778089 
L 97.71338 219.557363 
L 95.545972 206.347113 
L 96.824595 190.956403 
L 95.645481 173.39493 
L 94.964821 154.013971 
L 95.656029 133.590571 
L 94.970853 113.137869 
L 94.353339 93.757994 
L 95.231749 76.198006 
L 96.527297 60.808896 
L 97.547827 47.600163 
L 97.975164 36.380776 
L 98.462814 26.88 
L 101.419749 26.88 
z
M 314.023704 36.380776 
L 313.52551 47.600163 
L 315.816629 60.808896 
L 314.696524 76.198006 
L 318.077206 93.757994 
L 317.706487 113.137869 
L 316.410439 133.590571 
L 317.756725 154.013971 
L 317.882729 173.39493 
L 316.330563 190.956403 
L 316.971102 206.347113 
L 314.105992 219.557363 
L 316.75382 230.778089 
L 316.299921 240.28 
L 314.02762 240.28 
L 314.595654 230.778089 
L 311.282025 219.557363 
L 314.867571 206.347113 
L 314.065967 190.956403 
L 316.008428 173.39493 
L 315.850739 154.013971 
L 314.165928 133.590571 
L 315.787869 113.137869 
L 316.251806 93.757994 
L 312.021048 76.198006 
L 313.422805 60.808896 
L 310.55558 47.600163 
L 311.179046 36.380776 
L 313.178807 26.88 
L 315.621657 26.88 
z
" clip-path="url(#p567a8f5aa1)" style="fill: #39558c"/>
    <path d="M 103.643793 36.380776 
L 103.001549 47.600163 
L 101.467792 60.808896 
L 99.520709 76.198006 
L 98.200545 93.757994 
L 99.128608 113.137869 
L 100.15836 133.590571 
L 99.119542 154.013971 
L 100.142508 173.39493 
L 101.914601 190.956403 
L 99.992956 206.347113 
L 103.250358 219.557363 
L 105.575775 230.778089 
L 103.743566 240.28 
L 100.892558 240.28 
L 102.418219 230.778089 
L 100.481869 219.557363 
L 97.769464 206.347113 
L 99.369598 190.956403 
L 97.893994 173.39493 
L 97.042181 154.013971 
L 97.907194 133.590571 
L 97.049731 113.137869 
L 96.276942 93.757994 
L 97.376229 76.198006 
L 98.997544 60.808896 
L 100.274688 47.600163 
L 100.809479 36.380776 
L 101.419749 26.88 
L 104.376685 26.88 
z
M 311.179046 36.380776 
L 310.55558 47.600163 
L 313.422805 60.808896 
L 312.021048 76.198006 
L 316.251806 93.757994 
L 315.787869 113.137869 
L 314.165928 133.590571 
L 315.850739 154.013971 
L 316.008428 173.39493 
L 314.065967 190.956403 
L 314.867571 206.347113 
L 311.282025 219.557363 
L 314.595654 230.778089 
L 314.02762 240.28 
L 311.75532 240.28 
L 312.437487 230.778089 
L 308.458059 219.557363 
L 312.76404 206.347113 
L 311.801372 190.956403 
L 314.134126 173.39493 
L 313.944754 154.013971 
L 311.921418 133.590571 
L 313.869252 113.137869 
L 314.426406 93.757994 
L 309.345572 76.198006 
L 311.02898 60.808896 
L 307.585651 47.600163 
L 308.334388 36.380776 
L 310.735957 26.88 
L 313.178807 26.88 
z
" clip-path="url(#p567a8f5aa1)" style="fill: #32658e"/>
    <path d="M 106.478108 36.380776 
L 105.728409 47.600163 
L 103.938039 60.808896 
L 101.665189 76.198006 
L 100.124148 93.757994 
L 101.207486 113.137869 
L 102.409526 133.590571 
L 101.196903 154.013971 
L 102.391021 173.39493 
L 104.459604 190.956403 
L 102.216448 206.347113 
L 106.018847 219.557363 
L 108.73333 230.778089 
L 106.594574 240.28 
L 103.743566 240.28 
L 105.575775 230.778089 
L 103.250358 219.557363 
L 99.992956 206.347113 
L 101.914601 190.956403 
L 100.142508 173.39493 
L 99.119542 154.013971 
L 100.15836 133.590571 
L 99.128608 113.137869 
L 98.200545 93.757994 
L 99.520709 76.198006 
L 101.467792 60.808896 
L 103.001549 47.600163 
L 103.643793 36.380776 
L 104.376685 26.88 
L 107.33362 26.88 
z
M 308.334388 36.380776 
L 307.585651 47.600163 
L 311.02898 60.808896 
L 309.345572 76.198006 
L 314.426406 93.757994 
L 313.869252 113.137869 
L 311.921418 133.590571 
L 313.944754 154.013971 
L 314.134126 173.39493 
L 311.801372 190.956403 
L 312.76404 206.347113 
L 308.458059 219.557363 
L 312.437487 230.778089 
L 311.75532 240.28 
L 309.48302 240.28 
L 310.27932 230.778089 
L 305.634092 219.557363 
L 310.660508 206.347113 
L 309.536776 190.956403 
L 312.259825 173.39493 
L 312.038769 154.013971 
L 309.676907 133.590571 
L 311.950634 113.137869 
L 312.601006 93.757994 
L 306.670095 76.198006 
L 308.635155 60.808896 
L 304.615722 47.600163 
L 305.489731 36.380776 
L 308.293106 26.88 
L 310.735957 26.88 
z
" clip-path="url(#p567a8f5aa1)" style="fill: #2c738e"/>
    <path d="M 109.312423 36.380776 
L 108.45527 47.600163 
L 106.408286 60.808896 
L 103.809669 76.198006 
L 102.047751 93.757994 
L 103.286363 113.137869 
L 104.660692 133.590571 
L 103.274263 154.013971 
L 104.639535 173.39493 
L 107.004607 190.956403 
L 104.43994 206.347113 
L 108.787337 219.557363 
L 110.566667 226.347425 
L 126.134974 230.778089 
L 110.566667 235.681974 
L 109.445582 240.28 
L 106.594574 240.28 
L 108.73333 230.778089 
L 106.018847 219.557363 
L 102.216448 206.347113 
L 104.459604 190.956403 
L 102.391021 173.39493 
L 101.196903 154.013971 
L 102.409526 133.590571 
L 101.207486 113.137869 
L 100.124148 93.757994 
L 101.665189 76.198006 
L 103.938039 60.808896 
L 105.728409 47.600163 
L 106.478108 36.380776 
L 107.33362 26.88 
L 110.290555 26.88 
z
M 305.489731 36.380776 
L 304.615722 47.600163 
L 308.635155 60.808896 
L 306.670095 76.198006 
L 312.601006 93.757994 
L 311.950634 113.137869 
L 309.676907 133.590571 
L 312.038769 154.013971 
L 312.259825 173.39493 
L 309.536776 190.956403 
L 310.660508 206.347113 
L 305.634092 219.557363 
L 310.27932 230.778089 
L 309.48302 240.28 
L 307.210719 240.28 
L 308.121153 230.778089 
L 302.810126 219.557363 
L 308.556977 206.347113 
L 307.272181 190.956403 
L 310.385524 173.39493 
L 310.132783 154.013971 
L 307.432397 133.590571 
L 310.032016 113.137869 
L 310.775606 93.757994 
L 303.994619 76.198006 
L 306.241331 60.808896 
L 301.645793 47.600163 
L 302.645073 36.380776 
L 305.850256 26.88 
L 308.293106 26.88 
z
M 277.61 217.807497 
L 289.586129 219.557363 
L 277.61 221.798662 
L 272.756433 219.557363 
z
" clip-path="url(#p567a8f5aa1)" style="fill: #26828e"/>
    <path d="M 110.566667 26.88 
L 134.43 26.88 
L 138.206962 26.88 
L 137.627237 36.380776 
L 136.796561 47.600163 
L 134.43 52.823218 
L 110.566667 50.879558 
L 108.878533 60.808896 
L 105.954149 76.198006 
L 103.971354 93.757994 
L 105.365241 113.137869 
L 106.911857 133.590571 
L 105.351624 154.013971 
L 106.888048 173.39493 
L 109.54961 190.956403 
L 106.663432 206.347113 
L 110.566667 217.323341 
L 134.43 212.834826 
L 142.841136 219.557363 
L 147.737042 230.778089 
L 141.773048 240.28 
L 134.43 240.28 
L 110.566667 240.28 
L 109.445582 240.28 
L 110.566667 235.681974 
L 126.134974 230.778089 
L 110.566667 226.347425 
L 108.787337 219.557363 
L 104.43994 206.347113 
L 107.004607 190.956403 
L 104.639535 173.39493 
L 103.274263 154.013971 
L 104.660692 133.590571 
L 103.286363 113.137869 
L 102.047751 93.757994 
L 103.809669 76.198006 
L 106.408286 60.808896 
L 108.45527 47.600163 
L 109.312423 36.380776 
L 110.290555 26.88 
z
M 301.473333 32.331459 
L 303.407405 26.88 
L 305.850256 26.88 
L 302.645073 36.380776 
L 301.645793 47.600163 
L 306.241331 60.808896 
L 303.994619 76.198006 
L 310.775606 93.757994 
L 310.032016 113.137869 
L 307.432397 133.590571 
L 310.132783 154.013971 
L 310.385524 173.39493 
L 307.272181 190.956403 
L 308.556977 206.347113 
L 302.810126 219.557363 
L 308.121153 230.778089 
L 307.210719 240.28 
L 304.938419 240.28 
L 305.962987 230.778089 
L 301.473333 221.824058 
L 277.61 226.498237 
L 262.579431 219.557363 
L 277.61 214.138364 
L 301.473333 217.153577 
L 306.453446 206.347113 
L 305.007586 190.956403 
L 308.511222 173.39493 
L 308.226798 154.013971 
L 305.187886 133.590571 
L 308.113399 113.137869 
L 308.950206 93.757994 
L 301.473333 76.441647 
L 300.639285 76.198006 
L 301.473333 75.352883 
L 303.847506 60.808896 
L 301.473333 54.034242 
L 291.986464 47.600163 
L 278.112345 36.380776 
z
M 272.756433 219.557363 
L 277.61 221.798662 
L 289.586129 219.557363 
L 277.61 217.807497 
z
M 134.43 189.610481 
L 137.238105 190.956403 
L 134.43 194.378422 
L 128.117474 190.956403 
z
M 229.883333 226.032023 
L 231.517138 230.778089 
L 234.746624 240.28 
L 229.883333 240.28 
L 216.817302 240.28 
L 212.250526 230.778089 
z
" clip-path="url(#p567a8f5aa1)" style="fill: #21908d"/>
    <path d="M 143.173201 36.380776 
L 141.345221 47.600163 
L 135.865823 60.808896 
L 134.43 75.056936 
L 110.566667 64.129117 
L 108.098629 76.198006 
L 105.894957 93.757994 
L 107.444118 113.137869 
L 109.163023 133.590571 
L 107.428985 154.013971 
L 109.136562 173.39493 
L 110.566667 182.428857 
L 134.43 180.246571 
L 156.774779 190.956403 
L 143.972557 206.347113 
L 158.293333 218.837395 
L 158.984706 219.557363 
L 175.883454 230.778089 
L 182.156667 232.382048 
L 185.160884 230.778089 
L 205.383533 219.557363 
L 206.02 219.17894 
L 229.883333 206.728304 
L 253.746667 218.866906 
L 277.61 210.46923 
L 301.473333 212.589075 
L 304.349915 206.347113 
L 302.74299 190.956403 
L 306.636921 173.39493 
L 306.320813 154.013971 
L 302.943375 133.590571 
L 306.194781 113.137869 
L 307.124806 93.757994 
L 301.473333 80.669252 
L 286.167082 76.198006 
L 301.295103 60.808896 
L 281.914744 47.600163 
L 277.61 44.210713 
L 253.746667 38.809723 
L 240.516784 36.380776 
L 253.746667 27.272522 
L 277.61 29.36758 
L 292.574151 26.88 
L 301.473333 26.88 
L 303.407405 26.88 
L 301.473333 32.331459 
L 278.112345 36.380776 
L 291.986464 47.600163 
L 301.473333 54.034242 
L 303.847506 60.808896 
L 301.473333 75.352883 
L 300.639285 76.198006 
L 301.473333 76.441647 
L 308.950206 93.757994 
L 308.113399 113.137869 
L 305.187886 133.590571 
L 308.226798 154.013971 
L 308.511222 173.39493 
L 305.007586 190.956403 
L 306.453446 206.347113 
L 301.473333 217.153577 
L 277.61 214.138364 
L 262.579431 219.557363 
L 277.61 226.498237 
L 301.473333 221.824058 
L 305.962987 230.778089 
L 304.938419 240.28 
L 302.666118 240.28 
L 303.80482 230.778089 
L 301.473333 226.128241 
L 279.43218 230.778089 
L 289.796477 240.28 
L 277.61 240.28 
L 269.322481 240.28 
L 275.443613 230.778089 
L 253.746667 221.001117 
L 243.251022 230.778089 
L 244.108026 240.28 
L 234.746624 240.28 
L 231.517138 230.778089 
L 229.883333 226.032023 
L 212.250526 230.778089 
L 216.817302 240.28 
L 206.02 240.28 
L 182.156667 240.28 
L 158.293333 240.28 
L 141.773048 240.28 
L 147.737042 230.778089 
L 142.841136 219.557363 
L 134.43 212.834826 
L 110.566667 217.323341 
L 106.663432 206.347113 
L 109.54961 190.956403 
L 106.888048 173.39493 
L 105.351624 154.013971 
L 106.911857 133.590571 
L 105.365241 113.137869 
L 103.971354 93.757994 
L 105.954149 76.198006 
L 108.878533 60.808896 
L 110.566667 50.879558 
L 134.43 52.823218 
L 136.796561 47.600163 
L 137.627237 36.380776 
L 138.206962 26.88 
L 144.345206 26.88 
z
M 128.117474 190.956403 
L 134.43 194.378422 
L 137.238105 190.956403 
L 134.43 189.610481 
z
M 108.886923 206.347113 
L 110.566667 211.070693 
L 124.957314 206.347113 
L 110.566667 197.771549 
z
M 134.43 130.121375 
L 136.969773 133.590571 
L 134.43 139.317422 
L 126.072315 133.590571 
z
" clip-path="url(#p567a8f5aa1)" style="fill: #1f9f88"/>
    <path d="M 148.719166 36.380776 
L 145.893882 47.600163 
L 142.885774 60.808896 
L 141.10393 76.198006 
L 134.43 89.481837 
L 113.740301 76.198006 
L 110.566667 74.615784 
L 110.243109 76.198006 
L 107.81856 93.757994 
L 109.522996 113.137869 
L 110.566667 124.82573 
L 134.43 119.798911 
L 144.526774 133.590571 
L 136.022491 154.013971 
L 137.391393 173.39493 
L 158.293333 185.20466 
L 181.74646 190.956403 
L 175.247195 206.347113 
L 175.056707 219.557363 
L 182.156667 223.356245 
L 189.27345 219.557363 
L 206.02 209.600419 
L 212.18086 206.347113 
L 216.323374 190.956403 
L 229.883333 186.606844 
L 245.365533 190.956403 
L 239.705789 206.347113 
L 253.746667 213.639568 
L 277.61 206.800097 
L 301.473333 208.024573 
L 302.246384 206.347113 
L 301.473333 199.336971 
L 277.61 203.913781 
L 263.866997 190.956403 
L 277.61 185.845204 
L 301.473333 187.440203 
L 304.762619 173.39493 
L 304.414827 154.013971 
L 301.473333 137.322464 
L 277.61 139.103374 
L 271.920161 133.590571 
L 277.61 129.499518 
L 301.473333 129.68273 
L 304.276164 113.137869 
L 305.299406 93.757994 
L 301.473333 84.896856 
L 277.61 78.308686 
L 271.954234 76.198006 
L 277.61 63.609817 
L 279.584422 60.808896 
L 277.61 58.998536 
L 269.913175 47.600163 
L 253.746667 42.800521 
L 229.883333 38.503431 
L 226.76099 36.380776 
L 229.883333 29.977303 
L 234.712797 26.88 
L 253.746667 26.88 
L 277.61 26.88 
L 292.574151 26.88 
L 277.61 29.36758 
L 253.746667 27.272522 
L 240.516784 36.380776 
L 253.746667 38.809723 
L 277.61 44.210713 
L 281.914744 47.600163 
L 301.295103 60.808896 
L 286.167082 76.198006 
L 301.473333 80.669252 
L 307.124806 93.757994 
L 306.194781 113.137869 
L 302.943375 133.590571 
L 306.320813 154.013971 
L 306.636921 173.39493 
L 302.74299 190.956403 
L 304.349915 206.347113 
L 301.473333 212.589075 
L 277.61 210.46923 
L 253.746667 218.866906 
L 229.883333 206.728304 
L 206.02 219.17894 
L 205.383533 219.557363 
L 185.160884 230.778089 
L 182.156667 232.382048 
L 175.883454 230.778089 
L 158.984706 219.557363 
L 158.293333 218.837395 
L 143.972557 206.347113 
L 156.774779 190.956403 
L 134.43 180.246571 
L 110.566667 182.428857 
L 109.136562 173.39493 
L 107.428985 154.013971 
L 109.163023 133.590571 
L 107.444118 113.137869 
L 105.894957 93.757994 
L 108.098629 76.198006 
L 110.566667 64.129117 
L 134.43 75.056936 
L 135.865823 60.808896 
L 141.345221 47.600163 
L 143.173201 36.380776 
L 144.345206 26.88 
L 150.483449 26.88 
z
M 126.072315 133.590571 
L 134.43 139.317422 
L 136.969773 133.590571 
L 134.43 130.121375 
z
M 109.506346 154.013971 
L 110.566667 165.327369 
L 129.364945 154.013971 
L 110.566667 142.260141 
z
M 110.566667 197.771549 
L 124.957314 206.347113 
L 110.566667 211.070693 
L 108.886923 206.347113 
z
M 253.746667 221.001117 
L 275.443613 230.778089 
L 269.322481 240.28 
L 254.194679 240.28 
L 253.746667 238.197742 
L 253.469427 240.28 
L 244.108026 240.28 
L 243.251022 230.778089 
z
M 301.473333 226.128241 
L 303.80482 230.778089 
L 302.666118 240.28 
L 301.473333 240.28 
L 289.796477 240.28 
L 279.43218 230.778089 
z
M 299.834822 230.778089 
L 301.473333 232.152067 
L 301.646653 230.778089 
L 301.473333 230.432425 
z
" clip-path="url(#p567a8f5aa1)" style="fill: #26ad81"/>
    <path d="M 154.26513 36.380776 
L 150.442542 47.600163 
L 149.905725 60.808896 
L 147.889003 76.198006 
L 141.134545 93.757994 
L 137.919 113.137869 
L 152.083776 133.590571 
L 147.601872 154.013971 
L 148.429313 173.39493 
L 158.293333 178.968164 
L 182.156667 186.121326 
L 206.02 189.454967 
L 229.883333 181.743147 
L 253.746667 187.367674 
L 277.61 178.070441 
L 301.473333 179.436924 
L 302.888318 173.39493 
L 302.508842 154.013971 
L 301.473333 148.137977 
L 281.448337 154.013971 
L 277.61 156.874713 
L 275.767135 154.013971 
L 254.741833 133.590571 
L 277.61 117.148124 
L 301.473333 118.357299 
L 302.357546 113.137869 
L 303.474006 93.757994 
L 301.473333 89.124461 
L 277.61 83.472772 
L 258.116581 76.198006 
L 253.746667 71.65962 
L 229.883333 65.398248 
L 220.262765 60.808896 
L 229.883333 56.065946 
L 253.746667 50.395475 
L 256.471073 47.600163 
L 253.746667 46.791319 
L 229.883333 42.658893 
L 220.648471 36.380776 
L 224.29405 26.88 
L 229.883333 26.88 
L 234.712797 26.88 
L 229.883333 29.977303 
L 226.76099 36.380776 
L 229.883333 38.503431 
L 253.746667 42.800521 
L 269.913175 47.600163 
L 277.61 58.998536 
L 279.584422 60.808896 
L 277.61 63.609817 
L 271.954234 76.198006 
L 277.61 78.308686 
L 301.473333 84.896856 
L 305.299406 93.757994 
L 304.276164 113.137869 
L 301.473333 129.68273 
L 277.61 129.499518 
L 271.920161 133.590571 
L 277.61 139.103374 
L 301.473333 137.322464 
L 304.414827 154.013971 
L 304.762619 173.39493 
L 301.473333 187.440203 
L 277.61 185.845204 
L 263.866997 190.956403 
L 277.61 203.913781 
L 301.473333 199.336971 
L 302.246384 206.347113 
L 301.473333 208.024573 
L 277.61 206.800097 
L 253.746667 213.639568 
L 239.705789 206.347113 
L 245.365533 190.956403 
L 229.883333 186.606844 
L 216.323374 190.956403 
L 212.18086 206.347113 
L 206.02 209.600419 
L 189.27345 219.557363 
L 182.156667 223.356245 
L 175.056707 219.557363 
L 175.247195 206.347113 
L 181.74646 190.956403 
L 158.293333 185.20466 
L 137.391393 173.39493 
L 136.022491 154.013971 
L 144.526774 133.590571 
L 134.43 119.798911 
L 110.566667 124.82573 
L 109.522996 113.137869 
L 107.81856 93.757994 
L 110.243109 76.198006 
L 110.566667 74.615784 
L 113.740301 76.198006 
L 134.43 89.481837 
L 141.10393 76.198006 
L 142.885774 60.808896 
L 145.893882 47.600163 
L 148.719166 36.380776 
L 150.483449 26.88 
L 156.621693 26.88 
z
M 109.742163 93.757994 
L 110.566667 102.722804 
L 119.764959 93.757994 
L 110.566667 87.867426 
z
M 249.770493 206.347113 
L 253.746667 208.412231 
L 261.160518 206.347113 
L 253.746667 199.672434 
z
M 110.566667 142.260141 
L 129.364945 154.013971 
L 110.566667 165.327369 
L 109.506346 154.013971 
z
M 301.473333 230.432425 
L 301.646653 230.778089 
L 301.473333 232.152067 
L 299.834822 230.778089 
z
M 253.746667 238.197742 
L 254.194679 240.28 
L 253.746667 240.28 
L 253.469427 240.28 
z
" clip-path="url(#p567a8f5aa1)" style="fill: #3aba76"/>
    <path d="M 158.293333 26.88 
L 165.119969 26.88 
L 162.552773 36.380776 
L 158.293333 39.452327 
L 154.991203 47.600163 
L 156.925676 60.808896 
L 154.674075 76.198006 
L 150.945604 93.757994 
L 147.755364 113.137869 
L 158.293333 130.672271 
L 161.134779 133.590571 
L 163.158209 154.013971 
L 159.789747 173.39493 
L 182.156667 181.206975 
L 206.02 184.770067 
L 229.883333 176.879449 
L 253.746667 180.411221 
L 270.850178 173.39493 
L 258.070582 154.013971 
L 253.746667 149.807833 
L 229.883333 145.90935 
L 224.681162 133.590571 
L 227.431119 113.137869 
L 229.883333 105.823051 
L 253.746667 105.159526 
L 277.61 105.286886 
L 301.473333 96.687699 
L 301.648606 93.757994 
L 301.473333 93.352065 
L 277.61 88.636858 
L 253.746667 83.696842 
L 240.704661 76.198006 
L 229.883333 72.287161 
L 206.02 60.881865 
L 182.156667 66.378901 
L 163.113153 60.808896 
L 182.156667 57.591095 
L 206.02 60.761026 
L 229.883333 48.946473 
L 234.458049 47.600163 
L 229.883333 46.814354 
L 214.535951 36.380776 
L 216.870626 26.88 
L 224.29405 26.88 
L 220.648471 36.380776 
L 229.883333 42.658893 
L 253.746667 46.791319 
L 256.471073 47.600163 
L 253.746667 50.395475 
L 229.883333 56.065946 
L 220.262765 60.808896 
L 229.883333 65.398248 
L 253.746667 71.65962 
L 258.116581 76.198006 
L 277.61 83.472772 
L 301.473333 89.124461 
L 303.474006 93.757994 
L 302.357546 113.137869 
L 301.473333 118.357299 
L 277.61 117.148124 
L 254.741833 133.590571 
L 275.767135 154.013971 
L 277.61 156.874713 
L 281.448337 154.013971 
L 301.473333 148.137977 
L 302.508842 154.013971 
L 302.888318 173.39493 
L 301.473333 179.436924 
L 277.61 178.070441 
L 253.746667 187.367674 
L 229.883333 181.743147 
L 206.02 189.454967 
L 182.156667 186.121326 
L 158.293333 178.968164 
L 148.429313 173.39493 
L 147.601872 154.013971 
L 152.083776 133.590571 
L 137.919 113.137869 
L 141.134545 93.757994 
L 147.889003 76.198006 
L 149.905725 60.808896 
L 150.442542 47.600163 
L 154.26513 36.380776 
L 156.621693 26.88 
z
M 110.566667 87.867426 
L 119.764959 93.757994 
L 110.566667 102.722804 
L 109.742163 93.757994 
z
M 253.746667 199.672434 
L 261.160518 206.347113 
L 253.746667 208.412231 
L 249.770493 206.347113 
z
" clip-path="url(#p567a8f5aa1)" style="fill: #56c667"/>
    <path d="M 178.116948 36.380776 
L 162.223165 47.600163 
L 182.156667 53.410868 
L 206.02 57.27547 
L 224.488241 47.600163 
L 208.423432 36.380776 
L 209.447201 26.88 
L 216.870626 26.88 
L 214.535951 36.380776 
L 229.883333 46.814354 
L 234.458049 47.600163 
L 229.883333 48.946473 
L 206.02 60.761026 
L 182.156667 57.591095 
L 163.113153 60.808896 
L 182.156667 66.378901 
L 206.02 60.881865 
L 229.883333 72.287161 
L 240.704661 76.198006 
L 253.746667 83.696842 
L 277.61 88.636858 
L 301.473333 93.352065 
L 301.648606 93.757994 
L 301.473333 96.687699 
L 277.61 105.286886 
L 253.746667 105.159526 
L 229.883333 105.823051 
L 227.431119 113.137869 
L 224.681162 133.590571 
L 229.883333 145.90935 
L 253.746667 149.807833 
L 258.070582 154.013971 
L 270.850178 173.39493 
L 253.746667 180.411221 
L 229.883333 176.879449 
L 206.02 184.770067 
L 182.156667 181.206975 
L 159.789747 173.39493 
L 163.158209 154.013971 
L 161.134779 133.590571 
L 158.293333 130.672271 
L 147.755364 113.137869 
L 150.945604 93.757994 
L 154.674075 76.198006 
L 156.925676 60.808896 
L 154.991203 47.600163 
L 158.293333 39.452327 
L 162.552773 36.380776 
L 165.119969 26.88 
L 174.501496 26.88 
z
M 171.812828 76.198006 
L 182.156667 87.046279 
L 184.506928 93.757994 
L 182.156667 98.230949 
L 158.293333 108.850334 
L 157.591729 113.137869 
L 158.293333 114.305287 
L 177.070739 133.590571 
L 182.156667 139.982788 
L 191.482929 154.013971 
L 182.156667 164.537439 
L 173.860182 173.39493 
L 182.156667 176.292625 
L 206.02 180.085166 
L 225.929843 173.39493 
L 222.999278 154.013971 
L 218.539635 133.590571 
L 221.04084 113.137869 
L 226.21645 93.757994 
L 225.427056 76.198006 
L 206.02 66.195067 
L 182.156667 73.614863 
z
M 253.044111 173.39493 
L 253.746667 173.454767 
L 253.89253 173.39493 
L 253.746667 173.176801 
z
" clip-path="url(#p567a8f5aa1)" style="fill: #77d153"/>
    <path d="M 182.156667 26.88 
L 206.02 26.88 
L 209.447201 26.88 
L 208.423432 36.380776 
L 224.488241 47.600163 
L 206.02 57.27547 
L 182.156667 53.410868 
L 162.223165 47.600163 
L 178.116948 36.380776 
L 174.501496 26.88 
z
M 176.563347 47.600163 
L 182.156667 49.23064 
L 206.02 53.789914 
L 217.835006 47.600163 
L 206.02 39.238098 
L 182.156667 43.729224 
z
M 182.156667 73.614863 
L 206.02 66.195067 
L 225.427056 76.198006 
L 226.21645 93.757994 
L 221.04084 113.137869 
L 218.539635 133.590571 
L 222.999278 154.013971 
L 225.929843 173.39493 
L 206.02 180.085166 
L 182.156667 176.292625 
L 173.860182 173.39493 
L 182.156667 164.537439 
L 191.482929 154.013971 
L 182.156667 139.982788 
L 177.070739 133.590571 
L 158.293333 114.305287 
L 157.591729 113.137869 
L 158.293333 108.850334 
L 182.156667 98.230949 
L 184.506928 93.757994 
L 182.156667 87.046279 
L 171.812828 76.198006 
z
M 192.214169 76.198006 
L 195.148138 93.757994 
L 186.057713 113.137869 
L 191.60627 133.590571 
L 204.795836 154.013971 
L 193.836698 173.39493 
L 206.02 175.400265 
L 211.987788 173.39493 
L 207.449822 154.013971 
L 212.398109 133.590571 
L 214.650562 113.137869 
L 216.226493 93.757994 
L 215.118726 76.198006 
L 206.02 71.508268 
z
M 253.746667 173.176801 
L 253.89253 173.39493 
L 253.746667 173.454767 
L 253.044111 173.39493 
z
" clip-path="url(#p567a8f5aa1)" style="fill: #9dd93b"/>
    <path d="M 182.156667 43.729224 
L 206.02 39.238098 
L 217.835006 47.600163 
L 206.02 53.789914 
L 182.156667 49.23064 
L 176.563347 47.600163 
z
M 192.66015 47.600163 
L 206.02 50.304357 
L 211.181771 47.600163 
L 206.02 43.946922 
z
M 206.02 71.508268 
L 215.118726 76.198006 
L 216.226493 93.757994 
L 214.650562 113.137869 
L 212.398109 133.590571 
L 207.449822 154.013971 
L 211.987788 173.39493 
L 206.02 175.400265 
L 193.836698 173.39493 
L 204.795836 154.013971 
L 191.60627 133.590571 
L 186.057713 113.137869 
L 195.148138 93.757994 
L 192.214169 76.198006 
z
M 205.789348 93.757994 
L 200.838276 113.137869 
L 205.485354 133.590571 
L 206.02 134.421724 
L 206.256582 133.590571 
L 208.260284 113.137869 
L 206.236535 93.757994 
L 206.02 91.020082 
z
" clip-path="url(#p567a8f5aa1)" style="fill: #c5e021"/>
    <path d="M 206.02 43.946922 
L 211.181771 47.600163 
L 206.02 50.304357 
L 192.66015 47.600163 
z
M 206.02 91.020082 
L 206.236535 93.757994 
L 208.260284 113.137869 
L 206.256582 133.590571 
L 206.02 134.421724 
L 205.485354 133.590571 
L 200.838276 113.137869 
L 205.789348 93.757994 
z
" clip-path="url(#p567a8f5aa1)" style="fill: #ece51b"/>
   </g>
   <g id="matplotlib.axis_1">
    <g id="xtick_1">
     <g id="line2d_1">
      <defs>
       <path id="m5fb7b29c6c" d="M 0 0 
L 0 3.5 
" style="stroke: #000000; stroke-width: 0.8"/>
      </defs>
      <g>
       <use xlink:href="#m5fb7b29c6c" x="126.475556" y="240.28" style="stroke: #000000; stroke-width: 0.8"/>
      </g>
     </g>
     <g id="text_1">
      <!-- −50 -->
      <g transform="translate(113.812743 256.398125) scale(0.12 -0.12)">
       <defs>
        <path id="DejaVuSans-2212" d="M 678 2272 
L 4684 2272 
L 4684 1741 
L 678 1741 
L 678 2272 
z
" transform="scale(0.015625)"/>
        <path id="DejaVuSans-35" d="M 691 4666 
L 3169 4666 
L 3169 4134 
L 1269 4134 
L 1269 2991 
Q 1406 3038 1543 3061 
Q 1681 3084 1819 3084 
Q 2600 3084 3056 2656 
Q 3513 2228 3513 1497 
Q 3513 744 3044 326 
Q 2575 -91 1722 -91 
Q 1428 -91 1123 -41 
Q 819 9 494 109 
L 494 744 
Q 775 591 1075 516 
Q 1375 441 1709 441 
Q 2250 441 2565 725 
Q 2881 1009 2881 1497 
Q 2881 1984 2565 2268 
Q 2250 2553 1709 2553 
Q 1456 2553 1204 2497 
Q 953 2441 691 2322 
L 691 4666 
z
" transform="scale(0.015625)"/>
        <path id="DejaVuSans-30" d="M 2034 4250 
Q 1547 4250 1301 3770 
Q 1056 3291 1056 2328 
Q 1056 1369 1301 889 
Q 1547 409 2034 409 
Q 2525 409 2770 889 
Q 3016 1369 3016 2328 
Q 3016 3291 2770 3770 
Q 2525 4250 2034 4250 
z
M 2034 4750 
Q 2819 4750 3233 4129 
Q 3647 3509 3647 2328 
Q 3647 1150 3233 529 
Q 2819 -91 2034 -91 
Q 1250 -91 836 529 
Q 422 1150 422 2328 
Q 422 3509 836 4129 
Q 1250 4750 2034 4750 
z
" transform="scale(0.015625)"/>
       </defs>
       <use xlink:href="#DejaVuSans-2212"/>
       <use xlink:href="#DejaVuSans-35" transform="translate(83.789062 0)"/>
       <use xlink:href="#DejaVuSans-30" transform="translate(147.412109 0)"/>
      </g>
     </g>
    </g>
    <g id="xtick_2">
     <g id="line2d_2">
      <g>
       <use xlink:href="#m5fb7b29c6c" x="206.02" y="240.28" style="stroke: #000000; stroke-width: 0.8"/>
      </g>
     </g>
     <g id="text_2">
      <!-- 0 -->
      <g transform="translate(202.2025 256.398125) scale(0.12 -0.12)">
       <use xlink:href="#DejaVuSans-30"/>
      </g>
     </g>
    </g>
    <g id="xtick_3">
     <g id="line2d_3">
      <g>
       <use xlink:href="#m5fb7b29c6c" x="285.564444" y="240.28" style="stroke: #000000; stroke-width: 0.8"/>
      </g>
     </g>
     <g id="text_3">
      <!-- 50 -->
      <g transform="translate(277.929444 256.398125) scale(0.12 -0.12)">
       <use xlink:href="#DejaVuSans-35"/>
       <use xlink:href="#DejaVuSans-30" transform="translate(63.623047 0)"/>
      </g>
     </g>
    </g>
    <g id="text_4">
     <!-- $\Theta^{\circ}$ -->
     <g transform="translate(198.4 272.011875) scale(0.12 -0.12)">
      <defs>
       <path id="DejaVuSans-398" d="M 1416 2750 
L 3622 2750 
L 3622 2219 
L 1416 2219 
L 1416 2750 
z
M 2522 4238 
Q 1834 4238 1431 3725 
Q 1025 3213 1025 2328 
Q 1025 1447 1429 934 
Q 1834 422 2522 422 
Q 3209 422 3613 934 
Q 4013 1447 4013 2328 
Q 4013 3213 3613 3725 
Q 3209 4238 2522 4238 
z
M 2522 4750 
Q 3503 4750 4090 4092 
Q 4678 3434 4678 2328 
Q 4678 1225 4091 569 
Q 3503 -91 2522 -91 
Q 1538 -91 950 566 
Q 359 1222 359 2328 
Q 359 3434 950 4094 
Q 1538 4750 2522 4750 
z
" transform="scale(0.015625)"/>
       <path id="DejaVuSans-2218" d="M 2000 2619 
Q 1750 2619 1578 2445 
Q 1406 2272 1406 2022 
Q 1406 1775 1578 1605 
Q 1750 1435 2000 1435 
Q 2250 1435 2422 1605 
Q 2594 1775 2594 2022 
Q 2594 2269 2420 2444 
Q 2247 2619 2000 2619 
z
M 2000 3022 
Q 2200 3022 2384 2945 
Q 2569 2869 2703 2725 
Q 2847 2585 2919 2406 
Q 2991 2228 2991 2022 
Q 2991 1610 2702 1324 
Q 2413 1038 1994 1038 
Q 1572 1038 1290 1319 
Q 1009 1600 1009 2022 
Q 1009 2441 1296 2731 
Q 1584 3022 2000 3022 
z
" transform="scale(0.015625)"/>
      </defs>
      <use xlink:href="#DejaVuSans-398" transform="translate(0 0.78125)"/>
      <use xlink:href="#DejaVuSans-2218" transform="translate(79.667969 39.0625) scale(0.7)"/>
     </g>
    </g>
   </g>
   <g id="matplotlib.axis_2">
    <g id="ytick_1">
     <g id="line2d_4">
      <defs>
       <path id="me8e809965c" d="M 0 0 
L -3.5 0 
" style="stroke: #000000; stroke-width: 0.8"/>
      </defs>
      <g>
       <use xlink:href="#me8e809965c" x="62.84" y="219.984151" style="stroke: #000000; stroke-width: 0.8"/>
      </g>
     </g>
     <g id="text_5">
      <!-- −40 -->
      <g transform="translate(30.514375 224.543214) scale(0.12 -0.12)">
       <defs>
        <path id="DejaVuSans-34" d="M 2419 4116 
L 825 1625 
L 2419 1625 
L 2419 4116 
z
M 2253 4666 
L 3047 4666 
L 3047 1625 
L 3713 1625 
L 3713 1100 
L 3047 1100 
L 3047 0 
L 2419 0 
L 2419 1100 
L 313 1100 
L 313 1709 
L 2253 4666 
z
" transform="scale(0.015625)"/>
       </defs>
       <use xlink:href="#DejaVuSans-2212"/>
       <use xlink:href="#DejaVuSans-34" transform="translate(83.789062 0)"/>
       <use xlink:href="#DejaVuSans-30" transform="translate(147.412109 0)"/>
      </g>
     </g>
    </g>
    <g id="ytick_2">
     <g id="line2d_5">
      <g>
       <use xlink:href="#me8e809965c" x="62.84" y="176.783648" style="stroke: #000000; stroke-width: 0.8"/>
      </g>
     </g>
     <g id="text_6">
      <!-- −20 -->
      <g transform="translate(30.514375 181.342711) scale(0.12 -0.12)">
       <defs>
        <path id="DejaVuSans-32" d="M 1228 531 
L 3431 531 
L 3431 0 
L 469 0 
L 469 531 
Q 828 903 1448 1529 
Q 2069 2156 2228 2338 
Q 2531 2678 2651 2914 
Q 2772 3150 2772 3378 
Q 2772 3750 2511 3984 
Q 2250 4219 1831 4219 
Q 1534 4219 1204 4116 
Q 875 4013 500 3803 
L 500 4441 
Q 881 4594 1212 4672 
Q 1544 4750 1819 4750 
Q 2544 4750 2975 4387 
Q 3406 4025 3406 3419 
Q 3406 3131 3298 2873 
Q 3191 2616 2906 2266 
Q 2828 2175 2409 1742 
Q 1991 1309 1228 531 
z
" transform="scale(0.015625)"/>
       </defs>
       <use xlink:href="#DejaVuSans-2212"/>
       <use xlink:href="#DejaVuSans-32" transform="translate(83.789062 0)"/>
       <use xlink:href="#DejaVuSans-30" transform="translate(147.412109 0)"/>
      </g>
     </g>
    </g>
    <g id="ytick_3">
     <g id="line2d_6">
      <g>
       <use xlink:href="#me8e809965c" x="62.84" y="133.583145" style="stroke: #000000; stroke-width: 0.8"/>
      </g>
     </g>
     <g id="text_7">
      <!-- 0 -->
      <g transform="translate(48.205 138.142208) scale(0.12 -0.12)">
       <use xlink:href="#DejaVuSans-30"/>
      </g>
     </g>
    </g>
    <g id="ytick_4">
     <g id="line2d_7">
      <g>
       <use xlink:href="#me8e809965c" x="62.84" y="90.382642" style="stroke: #000000; stroke-width: 0.8"/>
      </g>
     </g>
     <g id="text_8">
      <!-- 20 -->
      <g transform="translate(40.57 94.941704) scale(0.12 -0.12)">
       <use xlink:href="#DejaVuSans-32"/>
       <use xlink:href="#DejaVuSans-30" transform="translate(63.623047 0)"/>
      </g>
     </g>
    </g>
    <g id="ytick_5">
     <g id="line2d_8">
      <g>
       <use xlink:href="#me8e809965c" x="62.84" y="47.182139" style="stroke: #000000; stroke-width: 0.8"/>
      </g>
     </g>
     <g id="text_9">
      <!-- 40 -->
      <g transform="translate(40.57 51.741201) scale(0.12 -0.12)">
       <use xlink:href="#DejaVuSans-34"/>
       <use xlink:href="#DejaVuSans-30" transform="translate(63.623047 0)"/>
      </g>
     </g>
    </g>
    <g id="text_10">
     <!-- $\phi^{\circ}$ -->
     <g transform="translate(23.784375 141.38) rotate(-90) scale(0.13 -0.13)">
      <defs>
       <path id="DejaVuSans-Oblique-3d5" d="M 2991 4863 
L 2738 3572 
Q 3363 3572 3684 3094 
Q 4016 2606 3850 1747 
Q 3681 888 3159 400 
Q 2653 -78 2028 -78 
L 1784 -1331 
L 1213 -1331 
L 1456 -78 
Q 834 -78 509 400 
Q 178 888 347 1747 
Q 513 2606 1034 3094 
Q 1544 3572 2166 3572 
L 2419 4863 
L 2991 4863 
z
M 2128 434 
Q 2481 434 2784 756 
Q 3116 1116 3244 1747 
Q 3369 2372 3169 2738 
Q 2991 3059 2638 3059 
L 2128 434 
z
M 1556 434 
L 2066 3059 
Q 1716 3059 1413 2738 
Q 1072 2372 953 1747 
Q 834 1116 1028 756 
Q 1203 434 1556 434 
z
" transform="scale(0.015625)"/>
      </defs>
      <use xlink:href="#DejaVuSans-Oblique-3d5" transform="translate(0 0.015625)"/>
      <use xlink:href="#DejaVuSans-2218" transform="translate(73.414505 38.296875) scale(0.7)"/>
     </g>
    </g>
   </g>
   <g id="QuadContourSet_2">
    <path clip-path="url(#p567a8f5aa1)" style="fill: none; stroke-dasharray: 1.85,0.8; stroke-dashoffset: 0; stroke: #000000; stroke-width: 0.5"/>
    <path d="M 322.950209 26.88 
L 322.557677 36.380776 
L 322.435298 47.600163 
L 322.998103 60.808896 
L 322.722953 76.198006 
L 323.553406 93.757994 
L 323.46234 113.137869 
L 323.346844 120.557584 
M 323.355008 146.623444 
L 323.474681 154.013971 
L 323.505633 173.39493 
L 323.124349 190.956403 
L 323.281695 206.347113 
L 322.577891 219.557363 
L 323.228321 230.778089 
L 323.116822 240.28 
M 89.488526 240.28 
L 89.787997 230.778089 
L 89.407913 219.557363 
L 88.875496 206.347113 
L 89.189586 190.956403 
L 88.89994 173.39493 
L 88.732739 154.013971 
L 88.794172 146.62455 
M 88.795271 120.556584 
L 88.73422 113.137869 
L 88.58253 93.757994 
L 88.798309 76.198006 
L 89.116555 60.808896 
L 89.367245 47.600163 
L 89.472219 36.380776 
L 89.592008 26.88 
" clip-path="url(#p567a8f5aa1)" style="fill: none; stroke-dasharray: 1.85,0.8; stroke-dashoffset: 0; stroke: #000000; stroke-width: 0.5"/>
    <path d="M 320.507358 26.88 
L 319.713019 36.380776 
L 319.465368 47.600163 
L 320.604278 60.808896 
L 320.047477 76.198006 
L 321.728006 93.757994 
L 321.543722 113.137869 
L 321.309865 120.561876 
M 321.32637 146.618799 
L 321.568695 154.013971 
L 321.631332 173.39493 
L 320.859754 190.956403 
L 321.178164 206.347113 
L 319.753924 219.557363 
L 321.070154 230.778089 
L 320.844521 240.28 
M 92.339534 240.28 
L 92.945553 230.778089 
L 92.176402 219.557363 
L 91.098988 206.347113 
L 91.734589 190.956403 
L 91.148454 173.39493 
L 90.810099 154.013971 
L 90.934438 146.623325 
M 90.936662 120.557784 
L 90.813098 113.137869 
L 90.506133 93.757994 
L 90.942789 76.198006 
L 91.586803 60.808896 
L 92.094106 47.600163 
L 92.306534 36.380776 
L 92.548944 26.88 
" clip-path="url(#p567a8f5aa1)" style="fill: none; stroke-dasharray: 1.85,0.8; stroke-dashoffset: 0; stroke: #000000; stroke-width: 0.5"/>
    <path d="M 318.064508 26.88 
L 316.868362 36.380776 
L 316.495439 47.600163 
L 318.210454 60.808896 
L 317.372001 76.198006 
L 319.902606 93.757994 
L 319.625105 113.137869 
L 319.272612 120.569066 
M 319.297423 146.61102 
L 319.66271 154.013971 
L 319.75703 173.39493 
L 318.595158 190.956403 
L 319.074633 206.347113 
L 316.929958 219.557363 
L 318.911987 230.778089 
L 318.572221 240.28 
M 95.190542 240.28 
L 96.103108 230.778089 
L 94.944891 219.557363 
L 93.32248 206.347113 
L 94.279592 190.956403 
L 93.396967 173.39493 
L 92.88746 154.013971 
L 93.074745 146.621271 
M 93.078093 120.559797 
L 92.891976 113.137869 
L 92.429736 93.757994 
L 93.087269 76.198006 
L 94.05705 60.808896 
L 94.820966 47.600163 
L 95.140849 36.380776 
L 95.505879 26.88 
" clip-path="url(#p567a8f5aa1)" style="fill: none; stroke-dasharray: 1.85,0.8; stroke-dashoffset: 0; stroke: #000000; stroke-width: 0.5"/>
    <path d="M 315.621657 26.88 
L 314.023704 36.380776 
L 313.52551 47.600163 
L 315.816629 60.808896 
L 314.696524 76.198006 
L 318.077206 93.757994 
L 317.706487 113.137869 
L 317.237687 120.535912 
M 317.270862 146.643344 
L 317.756725 154.013971 
L 317.882729 173.39493 
L 316.330563 190.956403 
L 316.971102 206.347113 
L 314.105992 219.557363 
L 316.75382 230.778089 
L 316.299921 240.28 
M 98.04155 240.28 
L 99.260664 230.778089 
L 97.71338 219.557363 
L 95.545972 206.347113 
L 96.824595 190.956403 
L 95.645481 173.39493 
L 94.964821 154.013971 
L 95.213651 146.661671 
M 95.218136 120.519338 
L 94.970853 113.137869 
L 94.353339 93.757994 
L 95.231749 76.198006 
L 96.527297 60.808896 
L 97.547827 47.600163 
L 97.975164 36.380776 
L 98.462814 26.88 
" clip-path="url(#p567a8f5aa1)" style="fill: none; stroke-dasharray: 1.85,0.8; stroke-dashoffset: 0; stroke: #000000; stroke-width: 0.5"/>
    <path d="M 313.178807 26.88 
L 311.179046 36.380776 
L 310.55558 47.600163 
L 313.422805 60.808896 
L 312.021048 76.198006 
L 316.251806 93.757994 
L 315.787869 113.137869 
L 315.20016 120.54889 
M 315.241548 146.629308 
L 315.850739 154.013971 
L 316.008428 173.39493 
L 314.065967 190.956403 
L 314.867571 206.347113 
L 311.282025 219.557363 
L 314.595654 230.778089 
L 314.02762 240.28 
M 100.892558 240.28 
L 102.418219 230.778089 
L 100.481869 219.557363 
L 97.769464 206.347113 
L 99.369598 190.956403 
L 97.893994 173.39493 
L 97.042181 154.013971 
L 97.353738 146.657951 
M 97.359346 120.522983 
L 97.049731 113.137869 
L 96.276942 93.757994 
L 97.376229 76.198006 
L 98.997544 60.808896 
L 100.274688 47.600163 
L 100.809479 36.380776 
L 101.419749 26.88 
" clip-path="url(#p567a8f5aa1)" style="fill: none; stroke-dasharray: 1.85,0.8; stroke-dashoffset: 0; stroke: #000000; stroke-width: 0.5"/>
    <path d="M 310.735957 26.88 
L 308.334388 36.380776 
L 307.585651 47.600163 
L 311.02898 60.808896 
L 309.345572 76.198006 
L 314.426406 93.757994 
L 313.869252 113.137869 
L 313.161948 120.564715 
M 313.211464 146.612198 
L 313.944754 154.013971 
L 314.134126 173.39493 
L 311.801372 190.956403 
L 312.76404 206.347113 
L 308.458059 219.557363 
L 312.437487 230.778089 
L 311.75532 240.28 
M 103.743566 240.28 
L 105.575775 230.778089 
L 103.250358 219.557363 
L 99.992956 206.347113 
L 101.914601 190.956403 
L 100.142508 173.39493 
L 99.119542 154.013971 
L 99.493931 146.653404 
M 99.500658 120.527438 
L 99.128608 113.137869 
L 98.200545 93.757994 
L 99.520709 76.198006 
L 101.467792 60.808896 
L 103.001549 47.600163 
L 103.643793 36.380776 
L 104.376685 26.88 
" clip-path="url(#p567a8f5aa1)" style="fill: none; stroke-dasharray: 1.85,0.8; stroke-dashoffset: 0; stroke: #000000; stroke-width: 0.5"/>
    <path d="M 308.293106 26.88 
L 305.489731 36.380776 
L 304.615722 47.600163 
L 308.635155 60.808896 
L 306.670095 76.198006 
L 312.601006 93.757994 
L 311.950634 113.137869 
L 311.118131 120.626425 
M 311.175483 146.548999 
L 312.038769 154.013971 
L 312.259825 173.39493 
L 309.536776 190.956403 
L 310.660508 206.347113 
L 305.634092 219.557363 
L 310.27932 230.778089 
L 309.48302 240.28 
M 106.594574 240.28 
L 108.73333 230.778089 
L 106.018847 219.557363 
L 102.216448 206.347113 
L 104.459604 190.956403 
L 102.391021 173.39493 
L 101.196903 154.013971 
L 101.636817 146.604797 
M 101.644634 120.575939 
L 101.207486 113.137869 
L 100.124148 93.757994 
L 101.665189 76.198006 
L 103.938039 60.808896 
L 105.728409 47.600163 
L 106.478108 36.380776 
L 107.33362 26.88 
" clip-path="url(#p567a8f5aa1)" style="fill: none; stroke-dasharray: 1.85,0.8; stroke-dashoffset: 0; stroke: #000000; stroke-width: 0.5"/>
    <path d="M 305.850256 26.88 
L 302.645073 36.380776 
L 301.645793 47.600163 
L 306.241331 60.808896 
L 303.994619 76.198006 
L 310.775606 93.757994 
L 310.032016 113.137869 
L 309.082943 120.604774 
M 309.148395 146.568907 
L 310.132783 154.013971 
L 310.385524 173.39493 
L 307.272181 190.956403 
L 308.556977 206.347113 
L 302.810126 219.557363 
L 308.121153 230.778089 
L 307.210719 240.28 
M 109.445582 240.28 
L 110.566667 235.681974 
L 126.134974 230.778089 
L 110.566667 226.347425 
L 108.787337 219.557363 
L 104.43994 206.347113 
L 107.004607 190.956403 
L 104.639535 173.39493 
L 104.193504 167.06322 
M 104.16024 140.9627 
L 104.660692 133.590571 
L 103.286363 113.137869 
L 102.047751 93.757994 
L 103.809669 76.198006 
L 106.408286 60.808896 
L 108.45527 47.600163 
L 109.312423 36.380776 
L 110.290555 26.88 
M 277.61 217.807497 
L 272.756433 219.557363 
L 277.61 221.798662 
L 289.586129 219.557363 
L 277.61 217.807497 
z
" clip-path="url(#p567a8f5aa1)" style="fill: none; stroke-dasharray: 1.85,0.8; stroke-dashoffset: 0; stroke: #000000; stroke-width: 0.5"/>
    <path d="M 303.407405 26.88 
L 301.473333 32.331459 
L 278.112345 36.380776 
L 291.986464 47.600163 
L 301.473333 54.034242 
L 303.847506 60.808896 
L 301.473333 75.352883 
L 300.639285 76.198006 
L 301.473333 76.441647 
L 308.950206 93.757994 
L 308.113399 113.137869 
L 307.048032 120.586011 
M 307.121505 146.585707 
L 308.226798 154.013971 
L 308.511222 173.39493 
L 305.007586 190.956403 
L 306.453446 206.347113 
L 301.473333 217.153577 
L 277.61 214.138364 
L 262.579431 219.557363 
L 277.61 226.498237 
L 301.473333 221.824058 
L 305.962987 230.778089 
L 304.938419 240.28 
M 141.773048 240.28 
L 147.737042 230.778089 
L 142.841136 219.557363 
L 134.43 212.834826 
L 110.566667 217.323341 
L 106.663432 206.347113 
L 109.54961 190.956403 
L 106.888048 173.39493 
L 105.351624 154.013971 
L 105.912049 146.678026 
M 105.922144 120.502441 
L 105.365241 113.137869 
L 103.971354 93.757994 
L 105.954149 76.198006 
L 108.878533 60.808896 
L 110.566667 50.879558 
L 134.43 52.823218 
L 136.796561 47.600163 
L 137.627237 36.380776 
L 138.206962 26.88 
M 234.746624 240.28 
L 231.517138 230.778089 
L 229.883333 226.032023 
L 212.250526 230.778089 
L 216.817302 240.28 
M 134.43 189.610481 
L 128.117474 190.956403 
L 134.43 194.378422 
L 137.238105 190.956403 
L 134.43 189.610481 
" clip-path="url(#p567a8f5aa1)" style="fill: none; stroke-dasharray: 1.85,0.8; stroke-dashoffset: 0; stroke: #000000; stroke-width: 0.5"/>
    <path d="M 292.574151 26.88 
L 277.61 29.36758 
L 253.746667 27.272522 
L 240.516784 36.380776 
L 253.746667 38.809723 
L 277.61 44.210713 
L 281.914744 47.600163 
L 301.295103 60.808896 
L 286.167082 76.198006 
L 301.473333 80.669252 
L 307.124806 93.757994 
L 306.194781 113.137869 
L 302.943375 133.590571 
L 306.320813 154.013971 
L 306.636921 173.39493 
L 302.74299 190.956403 
L 304.349915 206.347113 
L 301.473333 212.589075 
L 277.61 210.46923 
L 253.746667 218.866906 
L 229.883333 206.728304 
L 206.02 219.17894 
L 205.383533 219.557363 
L 185.160884 230.778089 
L 182.156667 232.382048 
L 175.883454 230.778089 
L 158.984706 219.557363 
L 158.293333 218.837395 
L 143.972557 206.347113 
L 156.774779 190.956403 
L 134.43 180.246571 
L 110.566667 182.428857 
L 109.136562 173.39493 
L 107.428985 154.013971 
L 109.163023 133.590571 
L 107.444118 113.137869 
L 105.894957 93.757994 
L 108.098629 76.198006 
L 110.566667 64.129117 
L 134.43 75.056936 
L 134.54944 73.871703 
M 140.938645 48.580261 
L 141.345221 47.600163 
L 143.173201 36.380776 
L 144.345206 26.88 
M 244.108026 240.28 
L 243.251022 230.778089 
L 243.818989 230.249012 
M 266.360145 226.684941 
L 275.443613 230.778089 
L 269.322481 240.28 
M 289.796477 240.28 
L 279.43218 230.778089 
L 301.473333 226.128241 
L 303.80482 230.778089 
L 302.666118 240.28 
M 134.43 130.121375 
L 126.072315 133.590571 
L 134.43 139.317422 
L 136.969773 133.590571 
L 134.43 130.121375 
M 110.566667 197.771549 
L 124.957314 206.347113 
L 110.566667 211.070693 
L 108.886923 206.347113 
L 110.566667 197.771549 
z
" clip-path="url(#p567a8f5aa1)" style="fill: none; stroke-dasharray: 1.85,0.8; stroke-dashoffset: 0; stroke: #000000; stroke-width: 0.5"/>
    <path d="M 234.712797 26.88 
L 229.883333 29.977303 
L 226.76099 36.380776 
L 229.883333 38.503431 
L 253.746667 42.800521 
L 269.913175 47.600163 
L 277.61 58.998536 
L 279.584422 60.808896 
L 277.61 63.609817 
L 271.954234 76.198006 
L 277.61 78.308686 
L 301.473333 84.896856 
L 305.299406 93.757994 
L 304.276164 113.137869 
L 301.473333 129.68273 
L 277.61 129.499518 
L 271.920161 133.590571 
L 277.61 139.103374 
L 301.473333 137.322464 
L 304.414827 154.013971 
L 304.762619 173.39493 
L 301.473333 187.440203 
L 277.61 185.845204 
L 263.866997 190.956403 
L 277.61 203.913781 
L 301.473333 199.336971 
L 302.246384 206.347113 
L 301.473333 208.024573 
L 277.61 206.800097 
L 253.746667 213.639568 
L 239.705789 206.347113 
L 245.365533 190.956403 
L 229.883333 186.606844 
L 216.323374 190.956403 
L 212.18086 206.347113 
L 206.02 209.600419 
L 189.27345 219.557363 
L 182.156667 223.356245 
L 175.056707 219.557363 
L 175.247195 206.347113 
L 176.628753 203.075487 
M 168.296658 187.657917 
L 158.293333 185.20466 
L 137.391393 173.39493 
L 136.022491 154.013971 
L 144.526774 133.590571 
L 134.43 119.798911 
L 110.566667 124.82573 
L 109.522996 113.137869 
L 107.81856 93.757994 
L 110.243109 76.198006 
L 110.566667 74.615784 
L 113.740301 76.198006 
L 134.43 89.481837 
L 141.10393 76.198006 
L 142.885774 60.808896 
L 145.893882 47.600163 
L 148.719166 36.380776 
L 150.483449 26.88 
M 253.469427 240.28 
L 253.746667 238.197742 
L 254.194679 240.28 
M 109.657125 152.342555 
L 110.566667 142.260141 
L 129.364945 154.013971 
L 122.266051 158.28631 
M 301.473333 230.432425 
L 301.646653 230.778089 
L 301.473333 232.152067 
L 299.834822 230.778089 
L 301.473333 230.432425 
z
" clip-path="url(#p567a8f5aa1)" style="fill: none; stroke-dasharray: 1.85,0.8; stroke-dashoffset: 0; stroke: #000000; stroke-width: 0.5"/>
    <path d="M 224.29405 26.88 
L 220.648471 36.380776 
L 229.883333 42.658893 
L 253.746667 46.791319 
L 256.471073 47.600163 
L 253.746667 50.395475 
L 229.883333 56.065946 
L 220.262765 60.808896 
L 229.883333 65.398248 
L 253.746667 71.65962 
L 258.116581 76.198006 
L 277.61 83.472772 
L 293.074152 87.135235 
M 302.719216 106.859879 
L 302.357546 113.137869 
L 301.473333 118.357299 
L 277.61 117.148124 
L 254.741833 133.590571 
L 275.767135 154.013971 
L 277.61 156.874713 
L 281.448337 154.013971 
L 301.473333 148.137977 
L 302.508842 154.013971 
L 302.888318 173.39493 
L 301.473333 179.436924 
L 277.61 178.070441 
L 253.746667 187.367674 
L 229.883333 181.743147 
L 206.02 189.454967 
L 182.156667 186.121326 
L 158.293333 178.968164 
L 148.429313 173.39493 
L 147.601872 154.013971 
L 152.083776 133.590571 
L 137.919 113.137869 
L 141.134545 93.757994 
L 147.889003 76.198006 
L 149.905725 60.808896 
L 150.442542 47.600163 
L 154.26513 36.380776 
L 156.621693 26.88 
M 110.566667 87.867426 
L 119.764959 93.757994 
L 110.566667 102.722804 
L 109.742163 93.757994 
L 110.566667 87.867426 
z
M 253.746667 199.672434 
L 261.160518 206.347113 
L 253.746667 208.412231 
L 249.770493 206.347113 
L 253.746667 199.672434 
z
" clip-path="url(#p567a8f5aa1)" style="fill: none; stroke-dasharray: 1.85,0.8; stroke-dashoffset: 0; stroke: #000000; stroke-width: 0.5"/>
    <path d="M 216.870626 26.88 
L 214.535951 36.380776 
L 229.883333 46.814354 
L 234.458049 47.600163 
L 229.883333 48.946473 
L 206.02 60.761026 
L 182.156667 57.591095 
L 163.113153 60.808896 
L 182.156667 66.378901 
L 206.02 60.881865 
L 229.883333 72.287161 
L 240.704661 76.198006 
L 253.746667 83.696842 
L 263.989555 85.817251 
M 291.25869 91.333732 
L 301.473333 93.352065 
L 301.648606 93.757994 
L 301.473333 96.687699 
L 277.61 105.286886 
L 253.746667 105.159526 
L 229.883333 105.823051 
L 227.431119 113.137869 
L 224.681162 133.590571 
L 229.883333 145.90935 
L 253.746667 149.807833 
L 258.070582 154.013971 
L 270.850178 173.39493 
L 253.746667 180.411221 
L 229.883333 176.879449 
L 206.02 184.770067 
L 182.156667 181.206975 
L 159.789747 173.39493 
L 163.158209 154.013971 
L 161.134779 133.590571 
L 158.293333 130.672271 
L 147.755364 113.137869 
L 150.945604 93.757994 
L 154.674075 76.198006 
L 156.925676 60.808896 
L 154.991203 47.600163 
L 158.293333 39.452327 
L 162.552773 36.380776 
L 165.119969 26.88 
" clip-path="url(#p567a8f5aa1)" style="fill: none; stroke-dasharray: 1.85,0.8; stroke-dashoffset: 0; stroke: #000000; stroke-width: 0.5"/>
    <path d="M 209.447201 26.88 
L 208.423432 36.380776 
L 224.488241 47.600163 
L 206.02 57.27547 
L 195.947142 55.644198 
M 168.793 49.515299 
L 162.223165 47.600163 
L 178.116948 36.380776 
L 174.501496 26.88 
M 191.100419 154.445584 
L 191.482929 154.013971 
L 182.156667 139.982788 
L 177.070739 133.590571 
L 158.293333 114.305287 
L 157.591729 113.137869 
L 158.293333 108.850334 
L 182.156667 98.230949 
L 184.506928 93.757994 
L 182.156667 87.046279 
L 171.812828 76.198006 
L 182.156667 73.614863 
L 206.02 66.195067 
L 225.427056 76.198006 
L 226.21645 93.757994 
L 221.04084 113.137869 
L 218.539635 133.590571 
L 222.999278 154.013971 
L 225.929843 173.39493 
L 206.02 180.085166 
L 182.156667 176.292625 
L 175.19233 173.860206 
M 253.746667 173.176801 
L 253.89253 173.39493 
L 253.746667 173.454767 
L 253.044111 173.39493 
L 253.746667 173.176801 
z
" clip-path="url(#p567a8f5aa1)" style="fill: none; stroke-dasharray: 1.85,0.8; stroke-dashoffset: 0; stroke: #000000; stroke-width: 0.5"/>
    <path d="M 192.307136 51.169966 
L 182.156667 49.23064 
L 176.563347 47.600163 
L 182.156667 43.729224 
L 206.02 39.238098 
L 217.467628 47.34015 
M 194.597882 172.048796 
L 204.795836 154.013971 
L 191.60627 133.590571 
L 186.057713 113.137869 
L 195.148138 93.757994 
L 192.214169 76.198006 
L 206.02 71.508268 
L 215.118726 76.198006 
L 216.226493 93.757994 
L 214.650562 113.137869 
L 212.398109 133.590571 
L 207.449822 154.013971 
L 210.34635 166.384597 
" clip-path="url(#p567a8f5aa1)" style="fill: none; stroke-dasharray: 1.85,0.8; stroke-dashoffset: 0; stroke: #000000; stroke-width: 0.5"/>
    <path d="M 206.02 43.946922 
L 211.181771 47.600163 
L 206.02 50.304357 
L 192.66015 47.600163 
L 206.02 43.946922 
z
M 202.794865 121.749203 
L 200.838276 113.137869 
L 205.789348 93.757994 
L 206.02 91.020082 
L 206.236535 93.757994 
L 208.260284 113.137869 
L 207.448478 121.424348 
" clip-path="url(#p567a8f5aa1)" style="fill: none; stroke-dasharray: 1.85,0.8; stroke-dashoffset: 0; stroke: #000000; stroke-width: 0.5"/>
    <path clip-path="url(#p567a8f5aa1)" style="fill: none; stroke-dasharray: 1.85,0.8; stroke-dashoffset: 0; stroke: #000000; stroke-width: 0.5"/>
   </g>
   <g id="patch_3">
    <path d="M 62.84 240.28 
L 62.84 26.88 
" style="fill: none; stroke: #000000; stroke-width: 0.8; stroke-linejoin: miter; stroke-linecap: square"/>
   </g>
   <g id="patch_4">
    <path d="M 349.2 240.28 
L 349.2 26.88 
" style="fill: none; stroke: #000000; stroke-width: 0.8; stroke-linejoin: miter; stroke-linecap: square"/>
   </g>
   <g id="patch_5">
    <path d="M 62.84 240.28 
L 349.2 240.28 
" style="fill: none; stroke: #000000; stroke-width: 0.8; stroke-linejoin: miter; stroke-linecap: square"/>
   </g>
   <g id="patch_6">
    <path d="M 62.84 26.88 
L 349.2 26.88 
" style="fill: none; stroke: #000000; stroke-width: 0.8; stroke-linejoin: miter; stroke-linecap: square"/>
   </g>
   <g id="text_11">
    <!-- Band 500 -->
    <g transform="translate(177.255625 20.88) scale(0.12 -0.12)">
     <defs>
      <path id="DejaVuSans-42" d="M 1259 2228 
L 1259 519 
L 2272 519 
Q 2781 519 3026 730 
Q 3272 941 3272 1375 
Q 3272 1813 3026 2020 
Q 2781 2228 2272 2228 
L 1259 2228 
z
M 1259 4147 
L 1259 2741 
L 2194 2741 
Q 2656 2741 2882 2914 
Q 3109 3088 3109 3444 
Q 3109 3797 2882 3972 
Q 2656 4147 2194 4147 
L 1259 4147 
z
M 628 4666 
L 2241 4666 
Q 2963 4666 3353 4366 
Q 3744 4066 3744 3513 
Q 3744 3084 3544 2831 
Q 3344 2578 2956 2516 
Q 3422 2416 3680 2098 
Q 3938 1781 3938 1306 
Q 3938 681 3513 340 
Q 3088 0 2303 0 
L 628 0 
L 628 4666 
z
" transform="scale(0.015625)"/>
      <path id="DejaVuSans-61" d="M 2194 1759 
Q 1497 1759 1228 1600 
Q 959 1441 959 1056 
Q 959 750 1161 570 
Q 1363 391 1709 391 
Q 2188 391 2477 730 
Q 2766 1069 2766 1631 
L 2766 1759 
L 2194 1759 
z
M 3341 1997 
L 3341 0 
L 2766 0 
L 2766 531 
Q 2569 213 2275 61 
Q 1981 -91 1556 -91 
Q 1019 -91 701 211 
Q 384 513 384 1019 
Q 384 1609 779 1909 
Q 1175 2209 1959 2209 
L 2766 2209 
L 2766 2266 
Q 2766 2663 2505 2880 
Q 2244 3097 1772 3097 
Q 1472 3097 1187 3025 
Q 903 2953 641 2809 
L 641 3341 
Q 956 3463 1253 3523 
Q 1550 3584 1831 3584 
Q 2591 3584 2966 3190 
Q 3341 2797 3341 1997 
z
" transform="scale(0.015625)"/>
      <path id="DejaVuSans-6e" d="M 3513 2113 
L 3513 0 
L 2938 0 
L 2938 2094 
Q 2938 2591 2744 2837 
Q 2550 3084 2163 3084 
Q 1697 3084 1428 2787 
Q 1159 2491 1159 1978 
L 1159 0 
L 581 0 
L 581 3500 
L 1159 3500 
L 1159 2956 
Q 1366 3272 1645 3428 
Q 1925 3584 2291 3584 
Q 2894 3584 3203 3211 
Q 3513 2838 3513 2113 
z
" transform="scale(0.015625)"/>
      <path id="DejaVuSans-64" d="M 2906 2969 
L 2906 4863 
L 3481 4863 
L 3481 0 
L 2906 0 
L 2906 525 
Q 2725 213 2448 61 
Q 2172 -91 1784 -91 
Q 1150 -91 751 415 
Q 353 922 353 1747 
Q 353 2572 751 3078 
Q 1150 3584 1784 3584 
Q 2172 3584 2448 3432 
Q 2725 3281 2906 2969 
z
M 947 1747 
Q 947 1113 1208 752 
Q 1469 391 1925 391 
Q 2381 391 2643 752 
Q 2906 1113 2906 1747 
Q 2906 2381 2643 2742 
Q 2381 3103 1925 3103 
Q 1469 3103 1208 2742 
Q 947 2381 947 1747 
z
" transform="scale(0.015625)"/>
      <path id="DejaVuSans-20" transform="scale(0.015625)"/>
     </defs>
     <use xlink:href="#DejaVuSans-42"/>
     <use xlink:href="#DejaVuSans-61" transform="translate(68.603516 0)"/>
     <use xlink:href="#DejaVuSans-6e" transform="translate(129.882812 0)"/>
     <use xlink:href="#DejaVuSans-64" transform="translate(193.261719 0)"/>
     <use xlink:href="#DejaVuSans-20" transform="translate(256.738281 0)"/>
     <use xlink:href="#DejaVuSans-35" transform="translate(288.525391 0)"/>
     <use xlink:href="#DejaVuSans-30" transform="translate(352.148438 0)"/>
     <use xlink:href="#DejaVuSans-30" transform="translate(415.771484 0)"/>
    </g>
   </g>
   <g id="text_12">
    <g clip-path="url(#p567a8f5aa1)">
     <!-- 61.6 -->
     <g transform="translate(320.65759 123.571769) rotate(-270.016826) scale(0.09 -0.09)">
      <defs>
       <path id="DejaVuSans-36" d="M 2113 2584 
Q 1688 2584 1439 2293 
Q 1191 2003 1191 1497 
Q 1191 994 1439 701 
Q 1688 409 2113 409 
Q 2538 409 2786 701 
Q 3034 994 3034 1497 
Q 3034 2003 2786 2293 
Q 2538 2584 2113 2584 
z
M 3366 4563 
L 3366 3988 
Q 3128 4100 2886 4159 
Q 2644 4219 2406 4219 
Q 1781 4219 1451 3797 
Q 1122 3375 1075 2522 
Q 1259 2794 1537 2939 
Q 1816 3084 2150 3084 
Q 2853 3084 3261 2657 
Q 3669 2231 3669 1497 
Q 3669 778 3244 343 
Q 2819 -91 2113 -91 
Q 1303 -91 875 529 
Q 447 1150 447 2328 
Q 447 3434 972 4092 
Q 1497 4750 2381 4750 
Q 2619 4750 2861 4703 
Q 3103 4656 3366 4563 
z
" transform="scale(0.015625)"/>
       <path id="DejaVuSans-31" d="M 794 531 
L 1825 531 
L 1825 4091 
L 703 3866 
L 703 4441 
L 1819 4666 
L 2450 4666 
L 2450 531 
L 3481 531 
L 3481 0 
L 794 0 
L 794 531 
z
" transform="scale(0.015625)"/>
       <path id="DejaVuSans-2e" d="M 684 794 
L 1344 794 
L 1344 0 
L 684 0 
L 684 794 
z
" transform="scale(0.015625)"/>
      </defs>
      <use xlink:href="#DejaVuSans-36"/>
      <use xlink:href="#DejaVuSans-31" transform="translate(63.623047 0)"/>
      <use xlink:href="#DejaVuSans-2e" transform="translate(127.246094 0)"/>
      <use xlink:href="#DejaVuSans-36" transform="translate(159.033203 0)"/>
     </g>
    </g>
   </g>
   <g id="text_13">
    <g clip-path="url(#p567a8f5aa1)">
     <!-- 61.6 -->
     <g transform="translate(91.385573 143.6102) rotate(-89.997734) scale(0.09 -0.09)">
      <use xlink:href="#DejaVuSans-36"/>
      <use xlink:href="#DejaVuSans-31" transform="translate(63.623047 0)"/>
      <use xlink:href="#DejaVuSans-2e" transform="translate(127.246094 0)"/>
      <use xlink:href="#DejaVuSans-36" transform="translate(159.033203 0)"/>
     </g>
    </g>
   </g>
   <g id="text_14">
    <g clip-path="url(#p567a8f5aa1)">
     <!-- 62.4 -->
     <g transform="translate(318.410072 123.572516) rotate(-270.034026) scale(0.09 -0.09)">
      <use xlink:href="#DejaVuSans-36"/>
      <use xlink:href="#DejaVuSans-32" transform="translate(63.623047 0)"/>
      <use xlink:href="#DejaVuSans-2e" transform="translate(127.246094 0)"/>
      <use xlink:href="#DejaVuSans-34" transform="translate(159.033203 0)"/>
     </g>
    </g>
   </g>
   <g id="text_15">
    <g clip-path="url(#p567a8f5aa1)">
     <!-- 62.4 -->
     <g transform="translate(93.636333 143.610301) rotate(-89.995416) scale(0.09 -0.09)">
      <use xlink:href="#DejaVuSans-36"/>
      <use xlink:href="#DejaVuSans-32" transform="translate(63.623047 0)"/>
      <use xlink:href="#DejaVuSans-2e" transform="translate(127.246094 0)"/>
      <use xlink:href="#DejaVuSans-34" transform="translate(159.033203 0)"/>
     </g>
    </g>
   </g>
   <g id="text_16">
    <g clip-path="url(#p567a8f5aa1)">
     <!-- 63.2 -->
     <g transform="translate(316.162563 123.573262) rotate(-270.051178) scale(0.09 -0.09)">
      <defs>
       <path id="DejaVuSans-33" d="M 2597 2516 
Q 3050 2419 3304 2112 
Q 3559 1806 3559 1356 
Q 3559 666 3084 287 
Q 2609 -91 1734 -91 
Q 1441 -91 1130 -33 
Q 819 25 488 141 
L 488 750 
Q 750 597 1062 519 
Q 1375 441 1716 441 
Q 2309 441 2620 675 
Q 2931 909 2931 1356 
Q 2931 1769 2642 2001 
Q 2353 2234 1838 2234 
L 1294 2234 
L 1294 2753 
L 1863 2753 
Q 2328 2753 2575 2939 
Q 2822 3125 2822 3475 
Q 2822 3834 2567 4026 
Q 2313 4219 1838 4219 
Q 1578 4219 1281 4162 
Q 984 4106 628 3988 
L 628 4550 
Q 988 4650 1302 4700 
Q 1616 4750 1894 4750 
Q 2613 4750 3031 4423 
Q 3450 4097 3450 3541 
Q 3450 3153 3228 2886 
Q 3006 2619 2597 2516 
z
" transform="scale(0.015625)"/>
      </defs>
      <use xlink:href="#DejaVuSans-36"/>
      <use xlink:href="#DejaVuSans-33" transform="translate(63.623047 0)"/>
      <use xlink:href="#DejaVuSans-2e" transform="translate(127.246094 0)"/>
      <use xlink:href="#DejaVuSans-32" transform="translate(159.033203 0)"/>
     </g>
    </g>
   </g>
   <g id="text_17">
    <g clip-path="url(#p567a8f5aa1)">
     <!-- 63.2 -->
     <g transform="translate(95.887094 143.610401) rotate(-89.993099) scale(0.09 -0.09)">
      <use xlink:href="#DejaVuSans-36"/>
      <use xlink:href="#DejaVuSans-33" transform="translate(63.623047 0)"/>
      <use xlink:href="#DejaVuSans-2e" transform="translate(127.246094 0)"/>
      <use xlink:href="#DejaVuSans-32" transform="translate(159.033203 0)"/>
     </g>
    </g>
   </g>
   <g id="text_18">
    <g clip-path="url(#p567a8f5aa1)">
     <!-- 64.0 -->
     <g transform="translate(313.915066 123.574005) rotate(-270.06826) scale(0.09 -0.09)">
      <use xlink:href="#DejaVuSans-36"/>
      <use xlink:href="#DejaVuSans-34" transform="translate(63.623047 0)"/>
      <use xlink:href="#DejaVuSans-2e" transform="translate(127.246094 0)"/>
      <use xlink:href="#DejaVuSans-30" transform="translate(159.033203 0)"/>
     </g>
    </g>
   </g>
   <g id="text_19">
    <g clip-path="url(#p567a8f5aa1)">
     <!-- 64.0 -->
     <g transform="translate(98.137855 143.610501) rotate(-89.990785) scale(0.09 -0.09)">
      <use xlink:href="#DejaVuSans-36"/>
      <use xlink:href="#DejaVuSans-34" transform="translate(63.623047 0)"/>
      <use xlink:href="#DejaVuSans-2e" transform="translate(127.246094 0)"/>
      <use xlink:href="#DejaVuSans-30" transform="translate(159.033203 0)"/>
     </g>
    </g>
   </g>
   <g id="text_20">
    <g clip-path="url(#p567a8f5aa1)">
     <!-- 64.8 -->
     <g transform="translate(311.667586 123.574746) rotate(-270.085247) scale(0.09 -0.09)">
      <defs>
       <path id="DejaVuSans-38" d="M 2034 2216 
Q 1584 2216 1326 1975 
Q 1069 1734 1069 1313 
Q 1069 891 1326 650 
Q 1584 409 2034 409 
Q 2484 409 2743 651 
Q 3003 894 3003 1313 
Q 3003 1734 2745 1975 
Q 2488 2216 2034 2216 
z
M 1403 2484 
Q 997 2584 770 2862 
Q 544 3141 544 3541 
Q 544 4100 942 4425 
Q 1341 4750 2034 4750 
Q 2731 4750 3128 4425 
Q 3525 4100 3525 3541 
Q 3525 3141 3298 2862 
Q 3072 2584 2669 2484 
Q 3125 2378 3379 2068 
Q 3634 1759 3634 1313 
Q 3634 634 3220 271 
Q 2806 -91 2034 -91 
Q 1263 -91 848 271 
Q 434 634 434 1313 
Q 434 1759 690 2068 
Q 947 2378 1403 2484 
z
M 1172 3481 
Q 1172 3119 1398 2916 
Q 1625 2713 2034 2713 
Q 2441 2713 2670 2916 
Q 2900 3119 2900 3481 
Q 2900 3844 2670 4047 
Q 2441 4250 2034 4250 
Q 1625 4250 1398 4047 
Q 1172 3844 1172 3481 
z
" transform="scale(0.015625)"/>
      </defs>
      <use xlink:href="#DejaVuSans-36"/>
      <use xlink:href="#DejaVuSans-34" transform="translate(63.623047 0)"/>
      <use xlink:href="#DejaVuSans-2e" transform="translate(127.246094 0)"/>
      <use xlink:href="#DejaVuSans-38" transform="translate(159.033203 0)"/>
     </g>
    </g>
   </g>
   <g id="text_21">
    <g clip-path="url(#p567a8f5aa1)">
     <!-- 64.8 -->
     <g transform="translate(100.388616 143.610601) rotate(-89.988474) scale(0.09 -0.09)">
      <use xlink:href="#DejaVuSans-36"/>
      <use xlink:href="#DejaVuSans-34" transform="translate(63.623047 0)"/>
      <use xlink:href="#DejaVuSans-2e" transform="translate(127.246094 0)"/>
      <use xlink:href="#DejaVuSans-38" transform="translate(159.033203 0)"/>
     </g>
    </g>
   </g>
   <g id="text_22">
    <g clip-path="url(#p567a8f5aa1)">
     <!-- 65.6 -->
     <g transform="translate(309.420126 123.575482) rotate(-270.102118) scale(0.09 -0.09)">
      <use xlink:href="#DejaVuSans-36"/>
      <use xlink:href="#DejaVuSans-35" transform="translate(63.623047 0)"/>
      <use xlink:href="#DejaVuSans-2e" transform="translate(127.246094 0)"/>
      <use xlink:href="#DejaVuSans-36" transform="translate(159.033203 0)"/>
     </g>
    </g>
   </g>
   <g id="text_23">
    <g clip-path="url(#p567a8f5aa1)">
     <!-- 65.6 -->
     <g transform="translate(102.639379 143.610701) rotate(-89.986168) scale(0.09 -0.09)">
      <use xlink:href="#DejaVuSans-36"/>
      <use xlink:href="#DejaVuSans-35" transform="translate(63.623047 0)"/>
      <use xlink:href="#DejaVuSans-2e" transform="translate(127.246094 0)"/>
      <use xlink:href="#DejaVuSans-36" transform="translate(159.033203 0)"/>
     </g>
    </g>
   </g>
   <g id="text_24">
    <g clip-path="url(#p567a8f5aa1)">
     <!-- 66.4 -->
     <g transform="translate(307.172691 123.576212) rotate(-270.118848) scale(0.09 -0.09)">
      <use xlink:href="#DejaVuSans-36"/>
      <use xlink:href="#DejaVuSans-36" transform="translate(63.623047 0)"/>
      <use xlink:href="#DejaVuSans-2e" transform="translate(127.246094 0)"/>
      <use xlink:href="#DejaVuSans-34" transform="translate(159.033203 0)"/>
     </g>
    </g>
   </g>
   <g id="text_25">
    <g clip-path="url(#p567a8f5aa1)">
     <!-- 66.4 -->
     <g transform="translate(104.890142 143.610801) rotate(-89.983867) scale(0.09 -0.09)">
      <use xlink:href="#DejaVuSans-36"/>
      <use xlink:href="#DejaVuSans-36" transform="translate(63.623047 0)"/>
      <use xlink:href="#DejaVuSans-2e" transform="translate(127.246094 0)"/>
      <use xlink:href="#DejaVuSans-34" transform="translate(159.033203 0)"/>
     </g>
    </g>
   </g>
   <g id="text_26">
    <g clip-path="url(#p567a8f5aa1)">
     <!-- 67.2 -->
     <g transform="translate(304.925285 123.576937) rotate(-270.135418) scale(0.09 -0.09)">
      <defs>
       <path id="DejaVuSans-37" d="M 525 4666 
L 3525 4666 
L 3525 4397 
L 1831 0 
L 1172 0 
L 2766 4134 
L 525 4134 
L 525 4666 
z
" transform="scale(0.015625)"/>
      </defs>
      <use xlink:href="#DejaVuSans-36"/>
      <use xlink:href="#DejaVuSans-37" transform="translate(63.623047 0)"/>
      <use xlink:href="#DejaVuSans-2e" transform="translate(127.246094 0)"/>
      <use xlink:href="#DejaVuSans-32" transform="translate(159.033203 0)"/>
     </g>
    </g>
   </g>
   <g id="text_27">
    <g clip-path="url(#p567a8f5aa1)">
     <!-- 67.2 -->
     <g transform="translate(100.778855 143.997415) rotate(-270.068463) scale(0.09 -0.09)">
      <use xlink:href="#DejaVuSans-36"/>
      <use xlink:href="#DejaVuSans-37" transform="translate(63.623047 0)"/>
      <use xlink:href="#DejaVuSans-2e" transform="translate(127.246094 0)"/>
      <use xlink:href="#DejaVuSans-32" transform="translate(159.033203 0)"/>
     </g>
    </g>
   </g>
   <g id="text_28">
    <g clip-path="url(#p567a8f5aa1)">
     <!-- 68.0 -->
     <g transform="translate(302.677911 123.577654) rotate(-270.151805) scale(0.09 -0.09)">
      <use xlink:href="#DejaVuSans-36"/>
      <use xlink:href="#DejaVuSans-38" transform="translate(63.623047 0)"/>
      <use xlink:href="#DejaVuSans-2e" transform="translate(127.246094 0)"/>
      <use xlink:href="#DejaVuSans-30" transform="translate(159.033203 0)"/>
     </g>
    </g>
   </g>
   <g id="text_29">
    <g clip-path="url(#p567a8f5aa1)">
     <!-- 68.0 -->
     <g transform="translate(109.391672 143.610999) rotate(-89.979284) scale(0.09 -0.09)">
      <use xlink:href="#DejaVuSans-36"/>
      <use xlink:href="#DejaVuSans-38" transform="translate(63.623047 0)"/>
      <use xlink:href="#DejaVuSans-2e" transform="translate(127.246094 0)"/>
      <use xlink:href="#DejaVuSans-30" transform="translate(159.033203 0)"/>
     </g>
    </g>
   </g>
   <g id="text_30">
    <g clip-path="url(#p567a8f5aa1)">
     <!-- 68.8 -->
     <g transform="translate(135.973149 71.131054) rotate(-76.674954) scale(0.09 -0.09)">
      <use xlink:href="#DejaVuSans-36"/>
      <use xlink:href="#DejaVuSans-38" transform="translate(63.623047 0)"/>
      <use xlink:href="#DejaVuSans-2e" transform="translate(127.246094 0)"/>
      <use xlink:href="#DejaVuSans-38" transform="translate(159.033203 0)"/>
     </g>
    </g>
   </g>
   <g id="text_31">
    <g clip-path="url(#p567a8f5aa1)">
     <!-- 68.8 -->
     <g transform="translate(244.279628 225.116167) rotate(-9.572436) scale(0.09 -0.09)">
      <use xlink:href="#DejaVuSans-36"/>
      <use xlink:href="#DejaVuSans-38" transform="translate(63.623047 0)"/>
      <use xlink:href="#DejaVuSans-2e" transform="translate(127.246094 0)"/>
      <use xlink:href="#DejaVuSans-38" transform="translate(159.033203 0)"/>
     </g>
    </g>
   </g>
   <g id="text_32">
    <g clip-path="url(#p567a8f5aa1)">
     <!-- 69.6 -->
     <g transform="translate(175.002532 183.141168) rotate(-296.870825) scale(0.09 -0.09)">
      <defs>
       <path id="DejaVuSans-39" d="M 703 97 
L 703 672 
Q 941 559 1184 500 
Q 1428 441 1663 441 
Q 2288 441 2617 861 
Q 2947 1281 2994 2138 
Q 2813 1869 2534 1725 
Q 2256 1581 1919 1581 
Q 1219 1581 811 2004 
Q 403 2428 403 3163 
Q 403 3881 828 4315 
Q 1253 4750 1959 4750 
Q 2769 4750 3195 4129 
Q 3622 3509 3622 2328 
Q 3622 1225 3098 567 
Q 2575 -91 1691 -91 
Q 1453 -91 1209 -44 
Q 966 3 703 97 
z
M 1959 2075 
Q 2384 2075 2632 2365 
Q 2881 2656 2881 3163 
Q 2881 3666 2632 3958 
Q 2384 4250 1959 4250 
Q 1534 4250 1286 3958 
Q 1038 3666 1038 3163 
Q 1038 2656 1286 2365 
Q 1534 2075 1959 2075 
z
" transform="scale(0.015625)"/>
      </defs>
      <use xlink:href="#DejaVuSans-36"/>
      <use xlink:href="#DejaVuSans-39" transform="translate(63.623047 0)"/>
      <use xlink:href="#DejaVuSans-2e" transform="translate(127.246094 0)"/>
      <use xlink:href="#DejaVuSans-36" transform="translate(159.033203 0)"/>
     </g>
    </g>
   </g>
   <g id="text_33">
    <g clip-path="url(#p567a8f5aa1)">
     <!-- 69.6 -->
     <g transform="translate(100.477842 163.142398) rotate(-333.859219) scale(0.09 -0.09)">
      <use xlink:href="#DejaVuSans-36"/>
      <use xlink:href="#DejaVuSans-39" transform="translate(63.623047 0)"/>
      <use xlink:href="#DejaVuSans-2e" transform="translate(127.246094 0)"/>
      <use xlink:href="#DejaVuSans-36" transform="translate(159.033203 0)"/>
     </g>
    </g>
   </g>
   <g id="text_34">
    <g clip-path="url(#p567a8f5aa1)">
     <!-- 70.4 -->
     <g transform="translate(297.587392 85.278239) rotate(-290.847469) scale(0.09 -0.09)">
      <use xlink:href="#DejaVuSans-37"/>
      <use xlink:href="#DejaVuSans-30" transform="translate(63.623047 0)"/>
      <use xlink:href="#DejaVuSans-2e" transform="translate(127.246094 0)"/>
      <use xlink:href="#DejaVuSans-34" transform="translate(159.033203 0)"/>
     </g>
    </g>
   </g>
   <g id="text_35">
    <g clip-path="url(#p567a8f5aa1)">
     <!-- 71.2 -->
     <g transform="translate(267.29207 88.951165) rotate(-347.82405) scale(0.09 -0.09)">
      <use xlink:href="#DejaVuSans-37"/>
      <use xlink:href="#DejaVuSans-31" transform="translate(63.623047 0)"/>
      <use xlink:href="#DejaVuSans-2e" transform="translate(127.246094 0)"/>
      <use xlink:href="#DejaVuSans-32" transform="translate(159.033203 0)"/>
     </g>
    </g>
   </g>
   <g id="text_36">
    <g clip-path="url(#p567a8f5aa1)">
     <!-- 72.0 -->
     <g transform="translate(171.834184 53.480248) rotate(-346.464332) scale(0.09 -0.09)">
      <use xlink:href="#DejaVuSans-37"/>
      <use xlink:href="#DejaVuSans-32" transform="translate(63.623047 0)"/>
      <use xlink:href="#DejaVuSans-2e" transform="translate(127.246094 0)"/>
      <use xlink:href="#DejaVuSans-30" transform="translate(159.033203 0)"/>
     </g>
    </g>
   </g>
   <g id="text_37">
    <g clip-path="url(#p567a8f5aa1)">
     <!-- 72.0 -->
     <g transform="translate(177.536913 173.768709) rotate(-49.493733) scale(0.09 -0.09)">
      <use xlink:href="#DejaVuSans-37"/>
      <use xlink:href="#DejaVuSans-32" transform="translate(63.623047 0)"/>
      <use xlink:href="#DejaVuSans-2e" transform="translate(127.246094 0)"/>
      <use xlink:href="#DejaVuSans-30" transform="translate(159.033203 0)"/>
     </g>
    </g>
   </g>
   <g id="text_38">
    <g clip-path="url(#p567a8f5aa1)">
     <!-- 72.8 -->
     <g transform="translate(196.501037 57.783385) rotate(-8.838648) scale(0.09 -0.09)">
      <use xlink:href="#DejaVuSans-37"/>
      <use xlink:href="#DejaVuSans-32" transform="translate(63.623047 0)"/>
      <use xlink:href="#DejaVuSans-2e" transform="translate(127.246094 0)"/>
      <use xlink:href="#DejaVuSans-38" transform="translate(159.033203 0)"/>
     </g>
    </g>
   </g>
   <g id="text_39">
    <g clip-path="url(#p567a8f5aa1)">
     <!-- 72.8 -->
     <g transform="translate(197.026436 180.467244) rotate(-15.476168) scale(0.09 -0.09)">
      <use xlink:href="#DejaVuSans-37"/>
      <use xlink:href="#DejaVuSans-32" transform="translate(63.623047 0)"/>
      <use xlink:href="#DejaVuSans-2e" transform="translate(127.246094 0)"/>
      <use xlink:href="#DejaVuSans-38" transform="translate(159.033203 0)"/>
     </g>
    </g>
   </g>
   <g id="text_40">
    <g clip-path="url(#p567a8f5aa1)">
     <!-- 73.6 -->
     <g transform="translate(196.227874 137.688641) rotate(-4.529317) scale(0.09 -0.09)">
      <use xlink:href="#DejaVuSans-37"/>
      <use xlink:href="#DejaVuSans-33" transform="translate(63.623047 0)"/>
      <use xlink:href="#DejaVuSans-2e" transform="translate(127.246094 0)"/>
      <use xlink:href="#DejaVuSans-36" transform="translate(159.033203 0)"/>
     </g>
    </g>
   </g>
  </g>
 </g>
 <defs>
  <clipPath id="p567a8f5aa1">
   <rect x="62.84" y="26.88" width="286.36" height="213.4"/>
  </clipPath>
 </defs>
</svg>
