<?xml version="1.0" encoding="utf-8" standalone="no"?>
<!DOCTYPE svg PUBLIC "-//W3C//DTD SVG 1.1//EN"
  "http://www.w3.org/Graphics/SVG/1.1/DTD/svg11.dtd">
<svg xmlns:xlink="http://www.w3.org/1999/xlink" width="360pt" height="288pt" viewBox="0 0 360 288" xmlns="http://www.w3.org/2000/svg" version="1.1">
 <metadata>
  <rdf:RDF xmlns:dc="http://purl.org/dc/elements/1.1/" xmlns:cc="http://creativecommons.org/ns#" xmlns:rdf="http://www.w3.org/1999/02/22-rdf-syntax-ns#">
   <cc:Work>
    <dc:type rdf:resource="http://purl.org/dc/dcmitype/StillImage"/>
    <dc:date>2025-10-03T13:42:50.868487</dc:date>
    <dc:format>image/svg+xml</dc:format>
    <dc:creator>
     <cc:Agent>
      <dc:title>Matplotlib v3.10.6, https://matplotlib.org/</dc:title>
     </cc:Agent>
    </dc:creator>
   </cc:Work>
  </rdf:RDF>
 </metadata>
 <defs>
  <style type="text/css">*{stroke-linejoin: round; stroke-linecap: butt}</style>
 </defs>
 <g id="figure_1">
  <g id="patch_1">
   <path d="M 0 288 
L 360 288 
L 360 0 
L 0 0 
z
" style="fill: #ffffff"/>
  </g>
  <g id="axes_1">
   <g id="patch_2">
    <path d="M 62.84 240.28 
L 349.2 240.28 
L 349.2 26.88 
L 62.84 26.88 
z
" style="fill: #ffffff"/>
   </g>
   <g id="QuadContourSet_1">
    <path d="M 86.703333 26.88 
L 88.104276 26.88 
L 88.016878 36.380776 
L 87.982156 47.600163 
L 87.925493 60.808896 
L 88.073122 76.198006 
L 88.035333 93.757994 
L 87.802057 113.137869 
L 87.783705 133.590571 
L 87.904545 154.013971 
L 87.912577 173.39493 
L 87.708172 190.956403 
L 87.760927 206.347113 
L 87.979797 219.557363 
L 88.207403 230.778089 
L 88.228365 240.28 
L 86.703333 240.28 
L 62.84 240.28 
L 62.84 230.778089 
L 62.84 219.557363 
L 62.84 206.347113 
L 62.84 190.956403 
L 62.84 173.39493 
L 62.84 154.013971 
L 62.84 133.590571 
L 62.84 113.137869 
L 62.84 93.757994 
L 62.84 76.198006 
L 62.84 60.808896 
L 62.84 47.600163 
L 62.84 36.380776 
L 62.84 26.88 
z
M 325.336667 26.88 
L 349.2 26.88 
L 349.2 36.380776 
L 349.2 47.600163 
L 349.2 60.808896 
L 349.2 76.198006 
L 349.2 93.757994 
L 349.2 113.137869 
L 349.2 133.590571 
L 349.2 154.013971 
L 349.2 173.39493 
L 349.2 190.956403 
L 349.2 206.347113 
L 349.2 219.557363 
L 349.2 230.778089 
L 349.2 240.28 
L 325.336667 240.28 
L 323.654216 240.28 
L 323.828022 230.778089 
L 324.135684 219.557363 
L 324.212877 206.347113 
L 324.184697 190.956403 
L 324.164109 173.39493 
L 324.265286 154.013971 
L 324.288405 133.590571 
L 324.186444 113.137869 
L 324.053028 93.757994 
L 324.168165 76.198006 
L 324.131109 60.808896 
L 324.01151 47.600163 
L 323.733449 36.380776 
L 323.810315 26.88 
z
" clip-path="url(#pbe8850ebd7)" style="fill: #460a5d"/>
    <path d="M 90.134755 36.380776 
L 90.04405 47.600163 
L 89.896027 60.808896 
L 90.281684 76.198006 
L 90.182966 93.757994 
L 89.573571 113.137869 
L 89.525629 133.590571 
L 89.841304 154.013971 
L 89.862286 173.39493 
L 89.328312 190.956403 
L 89.466126 206.347113 
L 90.037889 219.557363 
L 90.632472 230.778089 
L 90.687231 240.28 
L 88.228365 240.28 
L 88.207403 230.778089 
L 87.979797 219.557363 
L 87.760927 206.347113 
L 87.708172 190.956403 
L 87.912577 173.39493 
L 87.904545 154.013971 
L 87.783705 133.590571 
L 87.802057 113.137869 
L 88.035333 93.757994 
L 88.073122 76.198006 
L 87.925493 60.808896 
L 87.982156 47.600163 
L 88.016878 36.380776 
L 88.104276 26.88 
L 90.363069 26.88 
z
M 323.733449 36.380776 
L 324.01151 47.600163 
L 324.131109 60.808896 
L 324.168165 76.198006 
L 324.053028 93.757994 
L 324.186444 113.137869 
L 324.288405 133.590571 
L 324.265286 154.013971 
L 324.164109 173.39493 
L 324.184697 190.956403 
L 324.212877 206.347113 
L 324.135684 219.557363 
L 323.828022 230.778089 
L 323.654216 240.28 
L 320.941537 240.28 
L 321.395577 230.778089 
L 322.199294 219.557363 
L 322.400949 206.347113 
L 322.327331 190.956403 
L 322.273549 173.39493 
L 322.53786 154.013971 
L 322.598253 133.590571 
L 322.331897 113.137869 
L 321.983369 93.757994 
L 322.284146 76.198006 
L 322.187343 60.808896 
L 321.874911 47.600163 
L 321.14852 36.380776 
L 321.34932 26.88 
L 323.810315 26.88 
z
" clip-path="url(#pbe8850ebd7)" style="fill: #481c6e"/>
    <path d="M 92.252632 36.380776 
L 92.105944 47.600163 
L 91.866561 60.808896 
L 92.490246 76.198006 
L 92.330599 93.757994 
L 91.345085 113.137869 
L 91.267553 133.590571 
L 91.778063 154.013971 
L 91.811996 173.39493 
L 90.948452 190.956403 
L 91.171324 206.347113 
L 92.095981 219.557363 
L 93.057541 230.778089 
L 93.146098 240.28 
L 90.687231 240.28 
L 90.632472 230.778089 
L 90.037889 219.557363 
L 89.466126 206.347113 
L 89.328312 190.956403 
L 89.862286 173.39493 
L 89.841304 154.013971 
L 89.525629 133.590571 
L 89.573571 113.137869 
L 90.182966 93.757994 
L 90.281684 76.198006 
L 89.896027 60.808896 
L 90.04405 47.600163 
L 90.134755 36.380776 
L 90.363069 26.88 
L 92.621862 26.88 
z
M 321.14852 36.380776 
L 321.874911 47.600163 
L 322.187343 60.808896 
L 322.284146 76.198006 
L 321.983369 93.757994 
L 322.331897 113.137869 
L 322.598253 133.590571 
L 322.53786 154.013971 
L 322.273549 173.39493 
L 322.327331 190.956403 
L 322.400949 206.347113 
L 322.199294 219.557363 
L 321.395577 230.778089 
L 320.941537 240.28 
L 318.228858 240.28 
L 318.963132 230.778089 
L 320.262904 219.557363 
L 320.58902 206.347113 
L 320.469966 190.956403 
L 320.382989 173.39493 
L 320.810433 154.013971 
L 320.908101 133.590571 
L 320.47735 113.137869 
L 319.91371 93.757994 
L 320.400127 76.198006 
L 320.243577 60.808896 
L 319.738311 47.600163 
L 318.563591 36.380776 
L 318.888325 26.88 
L 321.34932 26.88 
z
" clip-path="url(#pbe8850ebd7)" style="fill: #472d7b"/>
    <path d="M 94.370509 36.380776 
L 94.167838 47.600163 
L 93.837095 60.808896 
L 94.698808 76.198006 
L 94.478233 93.757994 
L 93.1166 113.137869 
L 93.009477 133.590571 
L 93.714822 154.013971 
L 93.761705 173.39493 
L 92.568592 190.956403 
L 92.876523 206.347113 
L 94.154072 219.557363 
L 95.482609 230.778089 
L 95.604964 240.28 
L 93.146098 240.28 
L 93.057541 230.778089 
L 92.095981 219.557363 
L 91.171324 206.347113 
L 90.948452 190.956403 
L 91.811996 173.39493 
L 91.778063 154.013971 
L 91.267553 133.590571 
L 91.345085 113.137869 
L 92.330599 93.757994 
L 92.490246 76.198006 
L 91.866561 60.808896 
L 92.105944 47.600163 
L 92.252632 36.380776 
L 92.621862 26.88 
L 94.880655 26.88 
z
M 318.563591 36.380776 
L 319.738311 47.600163 
L 320.243577 60.808896 
L 320.400127 76.198006 
L 319.91371 93.757994 
L 320.47735 113.137869 
L 320.908101 133.590571 
L 320.810433 154.013971 
L 320.382989 173.39493 
L 320.469966 190.956403 
L 320.58902 206.347113 
L 320.262904 219.557363 
L 318.963132 230.778089 
L 318.228858 240.28 
L 315.516179 240.28 
L 316.530687 230.778089 
L 318.326513 219.557363 
L 318.777092 206.347113 
L 318.612601 190.956403 
L 318.49243 173.39493 
L 319.083006 154.013971 
L 319.217949 133.590571 
L 318.622802 113.137869 
L 317.84405 93.757994 
L 318.516108 76.198006 
L 318.299811 60.808896 
L 317.601711 47.600163 
L 315.978662 36.380776 
L 316.427329 26.88 
L 318.888325 26.88 
z
" clip-path="url(#pbe8850ebd7)" style="fill: #443b84"/>
    <path d="M 96.488386 36.380776 
L 96.229732 47.600163 
L 95.807629 60.808896 
L 96.90737 76.198006 
L 96.625866 93.757994 
L 94.888114 113.137869 
L 94.751401 133.590571 
L 95.651581 154.013971 
L 95.711414 173.39493 
L 94.188732 190.956403 
L 94.581722 206.347113 
L 96.212164 219.557363 
L 97.907678 230.778089 
L 98.06383 240.28 
L 95.604964 240.28 
L 95.482609 230.778089 
L 94.154072 219.557363 
L 92.876523 206.347113 
L 92.568592 190.956403 
L 93.761705 173.39493 
L 93.714822 154.013971 
L 93.009477 133.590571 
L 93.1166 113.137869 
L 94.478233 93.757994 
L 94.698808 76.198006 
L 93.837095 60.808896 
L 94.167838 47.600163 
L 94.370509 36.380776 
L 94.880655 26.88 
L 97.139448 26.88 
z
M 315.978662 36.380776 
L 317.601711 47.600163 
L 318.299811 60.808896 
L 318.516108 76.198006 
L 317.84405 93.757994 
L 318.622802 113.137869 
L 319.217949 133.590571 
L 319.083006 154.013971 
L 318.49243 173.39493 
L 318.612601 190.956403 
L 318.777092 206.347113 
L 318.326513 219.557363 
L 316.530687 230.778089 
L 315.516179 240.28 
L 312.8035 240.28 
L 314.098242 230.778089 
L 316.390123 219.557363 
L 316.965164 206.347113 
L 316.755236 190.956403 
L 316.60187 173.39493 
L 317.355579 154.013971 
L 317.527797 133.590571 
L 316.768255 113.137869 
L 315.774391 93.757994 
L 316.632088 76.198006 
L 316.356045 60.808896 
L 315.465111 47.600163 
L 313.393733 36.380776 
L 313.966334 26.88 
L 316.427329 26.88 
z
" clip-path="url(#pbe8850ebd7)" style="fill: #3e4a89"/>
    <path d="M 98.606263 36.380776 
L 98.291626 47.600163 
L 97.778163 60.808896 
L 99.115932 76.198006 
L 98.773499 93.757994 
L 96.659628 113.137869 
L 96.493325 133.590571 
L 97.58834 154.013971 
L 97.661123 173.39493 
L 95.808872 190.956403 
L 96.28692 206.347113 
L 98.270256 219.557363 
L 100.332747 230.778089 
L 100.522697 240.28 
L 98.06383 240.28 
L 97.907678 230.778089 
L 96.212164 219.557363 
L 94.581722 206.347113 
L 94.188732 190.956403 
L 95.711414 173.39493 
L 95.651581 154.013971 
L 94.751401 133.590571 
L 94.888114 113.137869 
L 96.625866 93.757994 
L 96.90737 76.198006 
L 95.807629 60.808896 
L 96.229732 47.600163 
L 96.488386 36.380776 
L 97.139448 26.88 
L 99.398241 26.88 
z
M 313.393733 36.380776 
L 315.465111 47.600163 
L 316.356045 60.808896 
L 316.632088 76.198006 
L 315.774391 93.757994 
L 316.768255 113.137869 
L 317.527797 133.590571 
L 317.355579 154.013971 
L 316.60187 173.39493 
L 316.755236 190.956403 
L 316.965164 206.347113 
L 316.390123 219.557363 
L 314.098242 230.778089 
L 312.8035 240.28 
L 310.090821 240.28 
L 311.665797 230.778089 
L 314.453733 219.557363 
L 315.153235 206.347113 
L 314.897871 190.956403 
L 314.711311 173.39493 
L 315.628152 154.013971 
L 315.837645 133.590571 
L 314.913708 113.137869 
L 313.704732 93.757994 
L 314.748069 76.198006 
L 314.412279 60.808896 
L 313.328512 47.600163 
L 310.808804 36.380776 
L 311.505339 26.88 
L 313.966334 26.88 
z
" clip-path="url(#pbe8850ebd7)" style="fill: #38598c"/>
    <path d="M 100.72414 36.380776 
L 100.35352 47.600163 
L 99.748697 60.808896 
L 101.324495 76.198006 
L 100.921132 93.757994 
L 98.431142 113.137869 
L 98.235249 133.590571 
L 99.525099 154.013971 
L 99.610833 173.39493 
L 97.429012 190.956403 
L 97.992119 206.347113 
L 100.328347 219.557363 
L 102.757816 230.778089 
L 102.981563 240.28 
L 100.522697 240.28 
L 100.332747 230.778089 
L 98.270256 219.557363 
L 96.28692 206.347113 
L 95.808872 190.956403 
L 97.661123 173.39493 
L 97.58834 154.013971 
L 96.493325 133.590571 
L 96.659628 113.137869 
L 98.773499 93.757994 
L 99.115932 76.198006 
L 97.778163 60.808896 
L 98.291626 47.600163 
L 98.606263 36.380776 
L 99.398241 26.88 
L 101.657034 26.88 
z
M 310.808804 36.380776 
L 313.328512 47.600163 
L 314.412279 60.808896 
L 314.748069 76.198006 
L 313.704732 93.757994 
L 314.913708 113.137869 
L 315.837645 133.590571 
L 315.628152 154.013971 
L 314.711311 173.39493 
L 314.897871 190.956403 
L 315.153235 206.347113 
L 314.453733 219.557363 
L 311.665797 230.778089 
L 310.090821 240.28 
L 307.378142 240.28 
L 309.233351 230.778089 
L 312.517343 219.557363 
L 313.341307 206.347113 
L 313.040506 190.956403 
L 312.820751 173.39493 
L 313.900725 154.013971 
L 314.147493 133.590571 
L 313.059161 113.137869 
L 311.635072 93.757994 
L 312.86405 76.198006 
L 312.468513 60.808896 
L 311.191912 47.600163 
L 308.223875 36.380776 
L 309.044344 26.88 
L 311.505339 26.88 
z
" clip-path="url(#pbe8850ebd7)" style="fill: #31668e"/>
    <path d="M 102.842017 36.380776 
L 102.415414 47.600163 
L 101.719231 60.808896 
L 103.533057 76.198006 
L 103.068766 93.757994 
L 100.202656 113.137869 
L 99.977174 133.590571 
L 101.461858 154.013971 
L 101.560542 173.39493 
L 99.049152 190.956403 
L 99.697318 206.347113 
L 102.386439 219.557363 
L 105.182884 230.778089 
L 105.44043 240.28 
L 102.981563 240.28 
L 102.757816 230.778089 
L 100.328347 219.557363 
L 97.992119 206.347113 
L 97.429012 190.956403 
L 99.610833 173.39493 
L 99.525099 154.013971 
L 98.235249 133.590571 
L 98.431142 113.137869 
L 100.921132 93.757994 
L 101.324495 76.198006 
L 99.748697 60.808896 
L 100.35352 47.600163 
L 100.72414 36.380776 
L 101.657034 26.88 
L 103.915827 26.88 
z
M 158.293333 26.88 
L 158.735497 26.88 
L 158.293333 27.209782 
L 157.613572 26.88 
z
M 308.223875 36.380776 
L 311.191912 47.600163 
L 312.468513 60.808896 
L 312.86405 76.198006 
L 311.635072 93.757994 
L 313.059161 113.137869 
L 314.147493 133.590571 
L 313.900725 154.013971 
L 312.820751 173.39493 
L 313.040506 190.956403 
L 313.341307 206.347113 
L 312.517343 219.557363 
L 309.233351 230.778089 
L 307.378142 240.28 
L 304.665463 240.28 
L 306.800906 230.778089 
L 310.580953 219.557363 
L 311.529378 206.347113 
L 311.183141 190.956403 
L 310.930191 173.39493 
L 312.173298 154.013971 
L 312.457342 133.590571 
L 311.204613 113.137869 
L 309.565413 93.757994 
L 310.980031 76.198006 
L 310.524747 60.808896 
L 309.055312 47.600163 
L 305.638946 36.380776 
L 306.583349 26.88 
L 309.044344 26.88 
z
M 182.156667 239.89865 
L 182.743139 240.28 
L 182.156667 240.28 
L 181.609019 240.28 
z
" clip-path="url(#pbe8850ebd7)" style="fill: #2c728e"/>
    <path d="M 104.959895 36.380776 
L 104.477308 47.600163 
L 103.689765 60.808896 
L 105.741619 76.198006 
L 105.216399 93.757994 
L 101.97417 113.137869 
L 101.719098 133.590571 
L 103.398617 154.013971 
L 103.510251 173.39493 
L 100.669292 190.956403 
L 101.402516 206.347113 
L 104.44453 219.557363 
L 107.607953 230.778089 
L 107.899296 240.28 
L 105.44043 240.28 
L 105.182884 230.778089 
L 102.386439 219.557363 
L 99.697318 206.347113 
L 99.049152 190.956403 
L 101.560542 173.39493 
L 101.461858 154.013971 
L 99.977174 133.590571 
L 100.202656 113.137869 
L 103.068766 93.757994 
L 103.533057 76.198006 
L 101.719231 60.808896 
L 102.415414 47.600163 
L 102.842017 36.380776 
L 103.915827 26.88 
L 106.17462 26.88 
z
M 158.293333 27.209782 
L 158.735497 26.88 
L 162.413534 26.88 
L 158.293333 29.952997 
L 151.959138 26.88 
L 157.613572 26.88 
z
M 305.638946 36.380776 
L 309.055312 47.600163 
L 310.524747 60.808896 
L 310.980031 76.198006 
L 309.565413 93.757994 
L 311.204613 113.137869 
L 312.457342 133.590571 
L 312.173298 154.013971 
L 310.930191 173.39493 
L 311.183141 190.956403 
L 311.529378 206.347113 
L 310.580953 219.557363 
L 306.800906 230.778089 
L 304.665463 240.28 
L 301.952784 240.28 
L 304.368461 230.778089 
L 308.644563 219.557363 
L 309.71745 206.347113 
L 309.325776 190.956403 
L 309.039632 173.39493 
L 310.445871 154.013971 
L 310.76719 133.590571 
L 309.350066 113.137869 
L 307.495754 93.757994 
L 309.096012 76.198006 
L 308.580981 60.808896 
L 306.918712 47.600163 
L 303.054017 36.380776 
L 304.122354 26.88 
L 306.583349 26.88 
z
M 182.156667 236.189254 
L 188.447767 240.28 
L 182.743139 240.28 
L 182.156667 239.89865 
L 181.609019 240.28 
L 176.282037 240.28 
z
" clip-path="url(#pbe8850ebd7)" style="fill: #277e8e"/>
    <path d="M 107.077772 36.380776 
L 106.539202 47.600163 
L 105.660299 60.808896 
L 107.950181 76.198006 
L 107.364032 93.757994 
L 103.745684 113.137869 
L 103.461022 133.590571 
L 105.335376 154.013971 
L 105.459961 173.39493 
L 102.289432 190.956403 
L 103.107715 206.347113 
L 106.502622 219.557363 
L 110.033022 230.778089 
L 110.358162 240.28 
L 107.899296 240.28 
L 107.607953 230.778089 
L 104.44453 219.557363 
L 101.402516 206.347113 
L 100.669292 190.956403 
L 103.510251 173.39493 
L 103.398617 154.013971 
L 101.719098 133.590571 
L 101.97417 113.137869 
L 105.216399 93.757994 
L 105.741619 76.198006 
L 103.689765 60.808896 
L 104.477308 47.600163 
L 104.959895 36.380776 
L 106.17462 26.88 
L 108.433413 26.88 
z
M 158.293333 29.952997 
L 162.413534 26.88 
L 166.091571 26.88 
L 158.293333 32.696211 
L 146.304703 26.88 
L 151.959138 26.88 
z
M 301.473333 28.441359 
L 301.661359 26.88 
L 304.122354 26.88 
L 303.054017 36.380776 
L 306.918712 47.600163 
L 308.580981 60.808896 
L 309.096012 76.198006 
L 307.495754 93.757994 
L 309.350066 113.137869 
L 310.76719 133.590571 
L 310.445871 154.013971 
L 309.039632 173.39493 
L 309.325776 190.956403 
L 309.71745 206.347113 
L 308.644563 219.557363 
L 304.368461 230.778089 
L 301.952784 240.28 
L 301.473333 240.28 
L 297.302615 240.28 
L 301.473333 232.561457 
L 301.936016 230.778089 
L 306.708173 219.557363 
L 307.905522 206.347113 
L 307.46841 190.956403 
L 307.149072 173.39493 
L 308.718444 154.013971 
L 309.077038 133.590571 
L 307.495519 113.137869 
L 305.426095 93.757994 
L 307.211993 76.198006 
L 306.637215 60.808896 
L 304.782113 47.600163 
L 301.473333 38.630887 
L 294.485753 36.380776 
z
M 182.156667 232.479857 
L 194.152395 240.28 
L 188.447767 240.28 
L 182.156667 236.189254 
L 176.282037 240.28 
L 170.955055 240.28 
z
" clip-path="url(#pbe8850ebd7)" style="fill: #238a8d"/>
    <path d="M 110.566667 26.88 
L 111.714317 26.88 
L 110.566667 27.631188 
L 109.195649 36.380776 
L 108.601097 47.600163 
L 107.630833 60.808896 
L 110.158743 76.198006 
L 109.511665 93.757994 
L 105.517198 113.137869 
L 105.202946 133.590571 
L 107.272135 154.013971 
L 107.40967 173.39493 
L 103.909572 190.956403 
L 104.812913 206.347113 
L 108.560714 219.557363 
L 110.566667 225.790342 
L 114.698914 230.778089 
L 114.542729 240.28 
L 110.566667 240.28 
L 110.358162 240.28 
L 110.033022 230.778089 
L 106.502622 219.557363 
L 103.107715 206.347113 
L 102.289432 190.956403 
L 105.459961 173.39493 
L 105.335376 154.013971 
L 103.461022 133.590571 
L 103.745684 113.137869 
L 107.364032 93.757994 
L 107.950181 76.198006 
L 105.660299 60.808896 
L 106.539202 47.600163 
L 107.077772 36.380776 
L 108.433413 26.88 
z
M 158.293333 32.696211 
L 166.091571 26.88 
L 169.769607 26.88 
L 158.293333 35.439426 
L 140.650269 26.88 
L 146.304703 26.88 
z
M 277.61 36.196749 
L 296.029753 26.88 
L 301.473333 26.88 
L 301.661359 26.88 
L 301.473333 28.441359 
L 294.485753 36.380776 
L 301.473333 38.630887 
L 304.782113 47.600163 
L 306.637215 60.808896 
L 307.211993 76.198006 
L 305.426095 93.757994 
L 307.495519 113.137869 
L 309.077038 133.590571 
L 308.718444 154.013971 
L 307.149072 173.39493 
L 307.46841 190.956403 
L 307.905522 206.347113 
L 306.708173 219.557363 
L 301.936016 230.778089 
L 301.473333 232.561457 
L 297.302615 240.28 
L 292.236487 240.28 
L 295.263292 230.778089 
L 301.473333 227.162602 
L 304.771782 219.557363 
L 306.093593 206.347113 
L 305.611045 190.956403 
L 305.258512 173.39493 
L 306.991017 154.013971 
L 307.386886 133.590571 
L 305.640972 113.137869 
L 303.356435 93.757994 
L 305.327973 76.198006 
L 304.693449 60.808896 
L 302.645513 47.600163 
L 301.473333 44.422676 
L 277.61 36.735448 
L 277.151384 36.380776 
z
M 206.02 217.650006 
L 207.272536 219.557363 
L 211.211672 230.778089 
L 206.02 233.754765 
L 199.857024 240.28 
L 194.152395 240.28 
L 182.156667 232.479857 
L 170.955055 240.28 
L 165.628073 240.28 
L 179.3391 230.778089 
L 182.156667 229.008017 
L 204.595232 219.557363 
z
" clip-path="url(#pbe8850ebd7)" style="fill: #1f968b"/>
    <path d="M 110.566667 27.631188 
L 111.714317 26.88 
L 132.363639 26.88 
L 123.907893 36.380776 
L 110.995095 47.600163 
L 110.566667 48.750147 
L 109.601367 60.808896 
L 110.566667 66.58488 
L 113.593906 76.198006 
L 112.940134 93.757994 
L 110.566667 97.937385 
L 107.288713 113.137869 
L 106.94487 133.590571 
L 109.208894 154.013971 
L 109.359379 173.39493 
L 105.529712 190.956403 
L 106.518112 206.347113 
L 110.566667 219.417896 
L 111.902636 219.557363 
L 119.997031 230.778089 
L 118.887188 240.28 
L 114.542729 240.28 
L 114.698914 230.778089 
L 110.566667 225.790342 
L 108.560714 219.557363 
L 104.812913 206.347113 
L 103.909572 190.956403 
L 107.40967 173.39493 
L 107.272135 154.013971 
L 105.202946 133.590571 
L 105.517198 113.137869 
L 109.511665 93.757994 
L 110.158743 76.198006 
L 107.630833 60.808896 
L 108.601097 47.600163 
L 109.195649 36.380776 
z
M 158.293333 35.439426 
L 169.769607 26.88 
L 173.447644 26.88 
L 166.383215 36.380776 
L 158.293333 38.946258 
L 141.528673 36.380776 
L 134.995835 26.88 
L 140.650269 26.88 
z
M 253.746667 26.88 
L 257.451026 26.88 
L 253.746667 28.340271 
L 249.353034 26.88 
z
M 277.61 33.215609 
L 290.135866 26.88 
L 296.029753 26.88 
L 277.61 36.196749 
L 277.151384 36.380776 
L 277.61 36.735448 
L 301.473333 44.422676 
L 302.645513 47.600163 
L 304.693449 60.808896 
L 305.327973 76.198006 
L 303.356435 93.757994 
L 305.640972 113.137869 
L 307.386886 133.590571 
L 306.991017 154.013971 
L 305.258512 173.39493 
L 305.611045 190.956403 
L 306.093593 206.347113 
L 304.771782 219.557363 
L 301.473333 227.162602 
L 295.263292 230.778089 
L 292.236487 240.28 
L 287.170359 240.28 
L 287.594556 230.778089 
L 277.61 221.959451 
L 272.757006 219.557363 
L 277.61 216.660651 
L 285.608702 219.557363 
L 301.473333 222.697864 
L 302.835392 219.557363 
L 304.281665 206.347113 
L 303.75368 190.956403 
L 303.367953 173.39493 
L 305.26359 154.013971 
L 305.696734 133.590571 
L 303.786424 113.137869 
L 301.473333 95.064181 
L 300.714328 93.757994 
L 301.473333 92.364777 
L 303.443954 76.198006 
L 302.749683 60.808896 
L 301.473333 52.981092 
L 293.449137 47.600163 
L 277.61 42.480964 
L 269.722042 36.380776 
z
M 206.02 207.25484 
L 214.098909 219.557363 
L 221.746047 230.778089 
L 206.02 239.79471 
L 205.561652 240.28 
L 199.857024 240.28 
L 206.02 233.754765 
L 211.211672 230.778089 
L 207.272536 219.557363 
L 206.02 217.650006 
L 204.595232 219.557363 
L 182.156667 229.008017 
L 179.3391 230.778089 
L 165.628073 240.28 
L 160.301091 240.28 
L 174.13322 230.778089 
L 182.156667 225.737544 
L 196.83019 219.557363 
z
M 253.746667 228.478117 
L 258.895111 230.778089 
L 261.30256 240.28 
L 253.746667 240.28 
L 234.001504 240.28 
L 246.186933 230.778089 
z
" clip-path="url(#pbe8850ebd7)" style="fill: #1fa287"/>
    <path d="M 134.43 26.88 
L 134.995835 26.88 
L 141.528673 36.380776 
L 158.293333 38.946258 
L 166.383215 36.380776 
L 173.447644 26.88 
L 177.125681 26.88 
L 178.699497 36.380776 
L 182.156667 39.740734 
L 186.218805 47.600163 
L 182.156667 55.935624 
L 173.787909 47.600163 
L 158.293333 42.852026 
L 134.43 39.937261 
L 120.16596 47.600163 
L 113.010957 60.808896 
L 117.306948 76.198006 
L 117.605324 93.757994 
L 110.566667 106.152226 
L 109.060227 113.137869 
L 108.686794 133.590571 
L 110.566667 149.583728 
L 114.53343 154.013971 
L 116.335804 173.39493 
L 110.566667 176.080808 
L 107.149852 190.956403 
L 108.223311 206.347113 
L 110.566667 213.912652 
L 134.43 211.998738 
L 140.011125 219.557363 
L 134.43 222.355581 
L 125.295148 230.778089 
L 123.231647 240.28 
L 118.887188 240.28 
L 119.997031 230.778089 
L 111.902636 219.557363 
L 110.566667 219.417896 
L 106.518112 206.347113 
L 105.529712 190.956403 
L 109.359379 173.39493 
L 109.208894 154.013971 
L 106.94487 133.590571 
L 107.288713 113.137869 
L 110.566667 97.937385 
L 112.940134 93.757994 
L 113.593906 76.198006 
L 110.566667 66.58488 
L 109.601367 60.808896 
L 110.566667 48.750147 
L 110.995095 47.600163 
L 123.907893 36.380776 
L 132.363639 26.88 
z
M 253.746667 28.340271 
L 257.451026 26.88 
L 266.936574 26.88 
L 277.61 30.234469 
L 284.24198 26.88 
L 290.135866 26.88 
L 277.61 33.215609 
L 269.722042 36.380776 
L 277.61 42.480964 
L 293.449137 47.600163 
L 301.473333 52.981092 
L 302.749683 60.808896 
L 303.443954 76.198006 
L 301.473333 92.364777 
L 300.714328 93.757994 
L 301.473333 95.064181 
L 303.786424 113.137869 
L 305.696734 133.590571 
L 305.26359 154.013971 
L 303.367953 173.39493 
L 303.75368 190.956403 
L 304.281665 206.347113 
L 302.835392 219.557363 
L 301.473333 222.697864 
L 285.608702 219.557363 
L 277.61 216.660651 
L 272.757006 219.557363 
L 277.61 221.959451 
L 287.594556 230.778089 
L 287.170359 240.28 
L 282.10423 240.28 
L 279.925821 230.778089 
L 277.61 228.732692 
L 273.269263 230.778089 
L 269.944033 240.28 
L 261.30256 240.28 
L 258.895111 230.778089 
L 253.746667 228.478117 
L 246.186933 230.778089 
L 234.001504 240.28 
L 229.883333 240.28 
L 206.02 240.28 
L 205.561652 240.28 
L 206.02 239.79471 
L 221.746047 230.778089 
L 214.098909 219.557363 
L 206.02 207.25484 
L 196.83019 219.557363 
L 182.156667 225.737544 
L 174.13322 230.778089 
L 160.301091 240.28 
L 158.293333 240.28 
L 153.647757 240.28 
L 158.293333 238.05904 
L 168.927341 230.778089 
L 182.156667 222.46707 
L 189.065148 219.557363 
L 200.125989 206.347113 
L 206.02 202.513796 
L 213.187409 206.347113 
L 220.925281 219.557363 
L 229.883333 229.119929 
L 253.746667 222.056729 
L 259.072877 219.557363 
L 277.61 208.49271 
L 301.473333 214.928786 
L 302.469736 206.347113 
L 301.896315 190.956403 
L 301.477393 173.39493 
L 303.536163 154.013971 
L 304.006582 133.590571 
L 301.931877 113.137869 
L 301.473333 109.554968 
L 292.293953 93.757994 
L 301.473333 76.908477 
L 301.559935 76.198006 
L 301.473333 74.381079 
L 298.789073 60.808896 
L 277.61 48.111089 
L 276.949741 47.600163 
L 262.292699 36.380776 
L 253.746667 32.079505 
L 238.102503 26.88 
L 249.353034 26.88 
z
M 277.61 167.086664 
L 301.355924 173.39493 
L 277.61 178.234259 
L 273.463098 173.39493 
z
" clip-path="url(#pbe8850ebd7)" style="fill: #28ae80"/>
    <path d="M 182.156667 30.09467 
L 188.90356 36.380776 
L 192.405469 47.600163 
L 186.452006 60.808896 
L 182.156667 70.584173 
L 177.233969 60.808896 
L 161.042232 47.600163 
L 158.293333 46.757794 
L 134.43 44.864016 
L 129.336825 47.600163 
L 117.802435 60.808896 
L 121.01999 76.198006 
L 122.270515 93.757994 
L 112.440846 113.137869 
L 110.566667 126.512158 
L 110.428718 133.590571 
L 110.566667 134.764179 
L 127.802598 154.013971 
L 131.48641 173.39493 
L 110.566667 183.13432 
L 108.769992 190.956403 
L 109.928509 206.347113 
L 110.566667 208.407407 
L 120.007721 206.347113 
L 134.43 197.092491 
L 140.321005 206.347113 
L 149.754325 219.557363 
L 134.43 227.240546 
L 130.593265 230.778089 
L 127.576106 240.28 
L 123.231647 240.28 
L 125.295148 230.778089 
L 134.43 222.355581 
L 140.011125 219.557363 
L 134.43 211.998738 
L 110.566667 213.912652 
L 108.223311 206.347113 
L 107.149852 190.956403 
L 110.566667 176.080808 
L 116.335804 173.39493 
L 114.53343 154.013971 
L 110.566667 149.583728 
L 108.686794 133.590571 
L 109.060227 113.137869 
L 110.566667 106.152226 
L 117.605324 93.757994 
L 117.306948 76.198006 
L 113.010957 60.808896 
L 120.16596 47.600163 
L 134.43 39.937261 
L 158.293333 42.852026 
L 173.787909 47.600163 
L 182.156667 55.935624 
L 186.218805 47.600163 
L 182.156667 39.740734 
L 178.699497 36.380776 
L 177.125681 26.88 
L 180.803718 26.88 
z
M 229.883333 26.88 
L 238.102503 26.88 
L 253.746667 32.079505 
L 262.292699 36.380776 
L 276.949741 47.600163 
L 277.61 48.111089 
L 298.789073 60.808896 
L 301.473333 74.381079 
L 301.559935 76.198006 
L 301.473333 76.908477 
L 292.293953 93.757994 
L 301.473333 109.554968 
L 301.931877 113.137869 
L 304.006582 133.590571 
L 303.536163 154.013971 
L 301.477393 173.39493 
L 301.896315 190.956403 
L 302.469736 206.347113 
L 301.473333 214.928786 
L 277.61 208.49271 
L 259.072877 219.557363 
L 253.746667 222.056729 
L 229.883333 229.119929 
L 220.925281 219.557363 
L 213.187409 206.347113 
L 206.02 202.513796 
L 200.125989 206.347113 
L 189.065148 219.557363 
L 182.156667 222.46707 
L 168.927341 230.778089 
L 158.293333 238.05904 
L 153.647757 240.28 
L 146.192129 240.28 
L 158.293333 234.49465 
L 163.721462 230.778089 
L 179.488868 219.557363 
L 182.156667 218.787499 
L 193.668058 206.347113 
L 206.02 198.313719 
L 221.040573 206.347113 
L 227.751653 219.557363 
L 229.883333 221.832894 
L 237.956424 219.557363 
L 249.772098 206.347113 
L 253.746667 203.106213 
L 277.61 193.437928 
L 281.310472 190.956403 
L 277.61 189.377089 
L 263.914622 173.39493 
L 275.894436 154.013971 
L 277.61 152.805467 
L 285.722026 154.013971 
L 301.473333 157.170868 
L 301.808736 154.013971 
L 302.31643 133.590571 
L 301.473333 125.438924 
L 292.297167 113.137869 
L 283.873577 93.757994 
L 293.88223 76.198006 
L 290.971502 60.808896 
L 277.61 52.798074 
L 270.892858 47.600163 
L 254.863356 36.380776 
L 253.746667 35.818739 
L 229.883333 35.365877 
L 227.325955 26.88 
z
M 273.463098 173.39493 
L 277.61 178.234259 
L 301.355924 173.39493 
L 277.61 167.086664 
z
M 277.61 27.253329 
L 278.348094 26.88 
L 284.24198 26.88 
L 277.61 30.234469 
L 266.936574 26.88 
L 276.422121 26.88 
z
M 277.61 228.732692 
L 279.925821 230.778089 
L 282.10423 240.28 
L 277.61 240.28 
L 269.944033 240.28 
L 273.269263 230.778089 
z
" clip-path="url(#pbe8850ebd7)" style="fill: #38b977"/>
    <path d="M 182.156667 26.88 
L 190.193943 26.88 
L 198.283354 36.380776 
L 198.592133 47.600163 
L 193.423537 60.808896 
L 193.513692 76.198006 
L 182.156667 81.315869 
L 176.446591 76.198006 
L 169.244206 60.808896 
L 158.293333 52.407705 
L 134.43 49.615025 
L 122.593912 60.808896 
L 124.733032 76.198006 
L 126.935705 93.757994 
L 124.966148 113.137869 
L 134.43 127.781858 
L 137.26495 133.590571 
L 138.04629 154.013971 
L 140.346987 173.39493 
L 140.240823 190.956403 
L 150.625415 206.347113 
L 158.293333 217.675798 
L 182.156667 211.808398 
L 187.210127 206.347113 
L 206.02 194.113643 
L 228.893737 206.347113 
L 229.883333 208.392795 
L 232.109092 206.347113 
L 252.000902 190.956403 
L 253.746667 178.543527 
L 254.366145 173.39493 
L 258.738005 154.013971 
L 277.61 140.719862 
L 290.511976 133.590571 
L 280.106916 113.137869 
L 277.61 104.526538 
L 274.554172 93.757994 
L 277.61 90.30132 
L 285.925378 76.198006 
L 283.153931 60.808896 
L 277.61 57.48506 
L 264.835974 47.600163 
L 253.746667 39.937141 
L 237.593719 47.600163 
L 229.883333 55.503138 
L 219.830595 47.600163 
L 217.000149 36.380776 
L 217.834554 26.88 
L 227.325955 26.88 
L 229.883333 35.365877 
L 253.746667 35.818739 
L 254.863356 36.380776 
L 270.892858 47.600163 
L 277.61 52.798074 
L 290.971502 60.808896 
L 293.88223 76.198006 
L 283.873577 93.757994 
L 292.297167 113.137869 
L 301.473333 125.438924 
L 302.31643 133.590571 
L 301.808736 154.013971 
L 301.473333 157.170868 
L 285.722026 154.013971 
L 277.61 152.805467 
L 275.894436 154.013971 
L 263.914622 173.39493 
L 277.61 189.377089 
L 281.310472 190.956403 
L 277.61 193.437928 
L 253.746667 203.106213 
L 249.772098 206.347113 
L 237.956424 219.557363 
L 229.883333 221.832894 
L 227.751653 219.557363 
L 221.040573 206.347113 
L 206.02 198.313719 
L 193.668058 206.347113 
L 182.156667 218.787499 
L 179.488868 219.557363 
L 163.721462 230.778089 
L 158.293333 234.49465 
L 146.192129 240.28 
L 138.736501 240.28 
L 134.43 233.849063 
L 131.920565 240.28 
L 127.576106 240.28 
L 130.593265 230.778089 
L 134.43 227.240546 
L 149.754325 219.557363 
L 140.321005 206.347113 
L 134.43 197.092491 
L 120.007721 206.347113 
L 110.566667 208.407407 
L 109.928509 206.347113 
L 108.769992 190.956403 
L 110.566667 183.13432 
L 131.48641 173.39493 
L 127.802598 154.013971 
L 110.566667 134.764179 
L 110.428718 133.590571 
L 110.566667 126.512158 
L 112.440846 113.137869 
L 122.270515 93.757994 
L 121.01999 76.198006 
L 117.802435 60.808896 
L 129.336825 47.600163 
L 134.43 44.864016 
L 158.293333 46.757794 
L 161.042232 47.600163 
L 177.233969 60.808896 
L 182.156667 70.584173 
L 186.452006 60.808896 
L 192.405469 47.600163 
L 188.90356 36.380776 
L 182.156667 30.09467 
L 180.803718 26.88 
z
M 110.390132 190.956403 
L 110.566667 193.238925 
L 114.129045 190.956403 
L 110.566667 190.187832 
z
M 155.094895 230.778089 
L 158.293333 230.93026 
L 158.515583 230.778089 
L 158.293333 227.897279 
z
M 277.61 26.88 
L 278.348094 26.88 
L 277.61 27.253329 
L 276.422121 26.88 
z
" clip-path="url(#pbe8850ebd7)" style="fill: #50c46a"/>
    <path d="M 206.02 32.417527 
L 208.343154 26.88 
L 217.834554 26.88 
L 217.000149 36.380776 
L 219.830595 47.600163 
L 229.883333 55.503138 
L 237.593719 47.600163 
L 253.746667 39.937141 
L 264.835974 47.600163 
L 277.61 57.48506 
L 283.153931 60.808896 
L 285.925378 76.198006 
L 277.61 90.30132 
L 274.554172 93.757994 
L 277.61 104.526538 
L 280.106916 113.137869 
L 290.511976 133.590571 
L 277.61 140.719862 
L 258.738005 154.013971 
L 254.366145 173.39493 
L 253.746667 178.543527 
L 252.000902 190.956403 
L 232.109092 206.347113 
L 229.883333 208.392795 
L 228.893737 206.347113 
L 206.02 194.113643 
L 187.210127 206.347113 
L 182.156667 211.808398 
L 158.293333 217.675798 
L 150.625415 206.347113 
L 140.240823 190.956403 
L 140.346987 173.39493 
L 138.04629 154.013971 
L 137.26495 133.590571 
L 134.43 127.781858 
L 124.966148 113.137869 
L 126.935705 93.757994 
L 124.733032 76.198006 
L 122.593912 60.808896 
L 134.43 49.615025 
L 158.293333 52.407705 
L 169.244206 60.808896 
L 176.446591 76.198006 
L 182.156667 81.315869 
L 193.513692 76.198006 
L 193.423537 60.808896 
L 198.592133 47.600163 
L 198.283354 36.380776 
L 190.193943 26.88 
L 202.908044 26.88 
z
M 204.778797 47.600163 
L 200.395069 60.808896 
L 206.02 72.145272 
L 211.353917 76.198006 
L 206.02 85.976509 
L 182.156667 89.236224 
L 167.609733 76.198006 
L 161.254444 60.808896 
L 158.293333 58.537218 
L 134.43 54.146521 
L 127.38539 60.808896 
L 128.446074 76.198006 
L 131.600896 93.757994 
L 134.43 107.570665 
L 139.837955 113.137869 
L 146.72395 133.590571 
L 145.271048 154.013971 
L 147.690791 173.39493 
L 149.598816 190.956403 
L 158.293333 203.023902 
L 182.156667 203.347389 
L 200.852694 190.956403 
L 206.02 188.01859 
L 210.837326 190.956403 
L 229.883333 199.098238 
L 240.839718 190.956403 
L 246.525721 173.39493 
L 248.815707 154.013971 
L 250.211278 133.590571 
L 251.077214 113.137869 
L 253.746667 107.859566 
L 262.623884 93.757994 
L 277.61 76.806086 
L 277.968527 76.198006 
L 277.61 74.133628 
L 273.368013 60.808896 
L 258.779091 47.600163 
L 253.746667 44.122617 
L 246.416319 47.600163 
L 235.491424 60.808896 
L 229.883333 65.30258 
L 221.800441 60.808896 
L 208.327762 47.600163 
L 206.02 41.610633 
z
M 110.566667 190.187832 
L 114.129045 190.956403 
L 110.566667 193.238925 
L 110.390132 190.956403 
z
M 158.293333 227.897279 
L 158.515583 230.778089 
L 158.293333 230.93026 
L 155.094895 230.778089 
z
M 134.43 233.849063 
L 138.736501 240.28 
L 134.43 240.28 
L 131.920565 240.28 
z
" clip-path="url(#pbe8850ebd7)" style="fill: #6ccd5a"/>
    <path d="M 206.02 26.88 
L 208.343154 26.88 
L 206.02 32.417527 
L 202.908044 26.88 
z
M 206.02 41.610633 
L 208.327762 47.600163 
L 221.800441 60.808896 
L 229.883333 65.30258 
L 235.491424 60.808896 
L 246.416319 47.600163 
L 253.746667 44.122617 
L 258.779091 47.600163 
L 273.368013 60.808896 
L 277.61 74.133628 
L 277.968527 76.198006 
L 277.61 76.806086 
L 262.623884 93.757994 
L 253.746667 107.859566 
L 251.077214 113.137869 
L 250.211278 133.590571 
L 248.815707 154.013971 
L 246.525721 173.39493 
L 240.839718 190.956403 
L 229.883333 199.098238 
L 210.837326 190.956403 
L 206.02 188.01859 
L 200.852694 190.956403 
L 182.156667 203.347389 
L 158.293333 203.023902 
L 149.598816 190.956403 
L 147.690791 173.39493 
L 145.271048 154.013971 
L 146.72395 133.590571 
L 139.837955 113.137869 
L 134.43 107.570665 
L 131.600896 93.757994 
L 128.446074 76.198006 
L 127.38539 60.808896 
L 134.43 54.146521 
L 158.293333 58.537218 
L 161.254444 60.808896 
L 167.609733 76.198006 
L 182.156667 89.236224 
L 206.02 85.976509 
L 211.353917 76.198006 
L 206.02 72.145272 
L 200.395069 60.808896 
L 204.778797 47.600163 
z
M 132.176867 60.808896 
L 132.159116 76.198006 
L 134.43 86.882417 
L 158.293333 77.923384 
L 158.772876 76.198006 
L 158.293333 74.976469 
L 144.634788 60.808896 
L 134.43 58.678016 
z
M 249.061377 60.808896 
L 229.883333 76.175991 
L 229.845894 76.198006 
L 216.382705 93.757994 
L 208.295339 113.137869 
L 206.02 115.68479 
L 203.488204 113.137869 
L 182.156667 99.284422 
L 161.48171 113.137869 
L 158.293333 121.859682 
L 156.18295 133.590571 
L 152.495807 154.013971 
L 155.034595 173.39493 
L 158.293333 188.537046 
L 182.156667 189.775768 
L 206.02 176.1864 
L 229.883333 190.68182 
L 238.803798 173.39493 
L 241.861575 154.013971 
L 244.347312 133.590571 
L 241.492714 113.137869 
L 248.898714 93.757994 
L 253.746667 84.451444 
L 258.328987 76.198006 
L 258.782573 60.808896 
L 253.746667 51.943245 
z
" clip-path="url(#pbe8850ebd7)" style="fill: #8bd646"/>
    <path d="M 134.43 58.678016 
L 144.634788 60.808896 
L 158.293333 74.976469 
L 158.772876 76.198006 
L 158.293333 77.923384 
L 134.43 86.882417 
L 132.159116 76.198006 
L 132.176867 60.808896 
z
M 253.746667 51.943245 
L 258.782573 60.808896 
L 258.328987 76.198006 
L 253.746667 84.451444 
L 248.898714 93.757994 
L 241.492714 113.137869 
L 244.347312 133.590571 
L 241.861575 154.013971 
L 238.803798 173.39493 
L 229.883333 190.68182 
L 206.02 176.1864 
L 182.156667 189.775768 
L 158.293333 188.537046 
L 155.034595 173.39493 
L 152.495807 154.013971 
L 156.18295 133.590571 
L 158.293333 121.859682 
L 161.48171 113.137869 
L 182.156667 99.284422 
L 203.488204 113.137869 
L 206.02 115.68479 
L 208.295339 113.137869 
L 216.382705 93.757994 
L 229.845894 76.198006 
L 229.883333 76.175991 
L 249.061377 60.808896 
z
M 229.832678 93.757994 
L 226.118007 113.137869 
L 207.578372 133.590571 
L 206.02 137.667982 
L 202.091434 133.590571 
L 183.656713 113.137869 
L 182.156667 112.163686 
L 180.702791 113.137869 
L 172.589099 133.590571 
L 162.711731 154.013971 
L 172.025473 173.39493 
L 182.156667 178.161393 
L 190.495186 173.39493 
L 206.02 160.790318 
L 225.854255 173.39493 
L 229.883333 175.717574 
L 231.081875 173.39493 
L 234.907442 154.013971 
L 238.483345 133.590571 
L 231.908214 113.137869 
L 229.95468 93.757994 
L 229.883333 93.691975 
z
" clip-path="url(#pbe8850ebd7)" style="fill: #addc30"/>
    <path d="M 229.883333 93.691975 
L 229.95468 93.757994 
L 231.908214 113.137869 
L 238.483345 133.590571 
L 234.907442 154.013971 
L 231.081875 173.39493 
L 229.883333 175.717574 
L 225.854255 173.39493 
L 206.02 160.790318 
L 190.495186 173.39493 
L 182.156667 178.161393 
L 172.025473 173.39493 
L 162.711731 154.013971 
L 172.589099 133.590571 
L 180.702791 113.137869 
L 182.156667 112.163686 
L 183.656713 113.137869 
L 202.091434 133.590571 
L 206.02 137.667982 
L 207.578372 133.590571 
L 226.118007 113.137869 
L 229.832678 93.757994 
z
M 222.787135 133.590571 
L 229.883333 146.39663 
L 232.619379 133.590571 
L 229.883333 125.988567 
z
" clip-path="url(#pbe8850ebd7)" style="fill: #cde11d"/>
    <path d="M 229.883333 125.988567 
L 232.619379 133.590571 
L 229.883333 146.39663 
L 222.787135 133.590571 
z
" clip-path="url(#pbe8850ebd7)" style="fill: #efe51c"/>
   </g>
   <g id="matplotlib.axis_1">
    <g id="xtick_1">
     <g id="line2d_1">
      <defs>
       <path id="m1503806cb9" d="M 0 0 
L 0 3.5 
" style="stroke: #000000; stroke-width: 0.8"/>
      </defs>
      <g>
       <use xlink:href="#m1503806cb9" x="126.475556" y="240.28" style="stroke: #000000; stroke-width: 0.8"/>
      </g>
     </g>
     <g id="text_1">
      <!-- −50 -->
      <g transform="translate(113.812743 256.398125) scale(0.12 -0.12)">
       <defs>
        <path id="DejaVuSans-2212" d="M 678 2272 
L 4684 2272 
L 4684 1741 
L 678 1741 
L 678 2272 
z
" transform="scale(0.015625)"/>
        <path id="DejaVuSans-35" d="M 691 4666 
L 3169 4666 
L 3169 4134 
L 1269 4134 
L 1269 2991 
Q 1406 3038 1543 3061 
Q 1681 3084 1819 3084 
Q 2600 3084 3056 2656 
Q 3513 2228 3513 1497 
Q 3513 744 3044 326 
Q 2575 -91 1722 -91 
Q 1428 -91 1123 -41 
Q 819 9 494 109 
L 494 744 
Q 775 591 1075 516 
Q 1375 441 1709 441 
Q 2250 441 2565 725 
Q 2881 1009 2881 1497 
Q 2881 1984 2565 2268 
Q 2250 2553 1709 2553 
Q 1456 2553 1204 2497 
Q 953 2441 691 2322 
L 691 4666 
z
" transform="scale(0.015625)"/>
        <path id="DejaVuSans-30" d="M 2034 4250 
Q 1547 4250 1301 3770 
Q 1056 3291 1056 2328 
Q 1056 1369 1301 889 
Q 1547 409 2034 409 
Q 2525 409 2770 889 
Q 3016 1369 3016 2328 
Q 3016 3291 2770 3770 
Q 2525 4250 2034 4250 
z
M 2034 4750 
Q 2819 4750 3233 4129 
Q 3647 3509 3647 2328 
Q 3647 1150 3233 529 
Q 2819 -91 2034 -91 
Q 1250 -91 836 529 
Q 422 1150 422 2328 
Q 422 3509 836 4129 
Q 1250 4750 2034 4750 
z
" transform="scale(0.015625)"/>
       </defs>
       <use xlink:href="#DejaVuSans-2212"/>
       <use xlink:href="#DejaVuSans-35" transform="translate(83.789062 0)"/>
       <use xlink:href="#DejaVuSans-30" transform="translate(147.412109 0)"/>
      </g>
     </g>
    </g>
    <g id="xtick_2">
     <g id="line2d_2">
      <g>
       <use xlink:href="#m1503806cb9" x="206.02" y="240.28" style="stroke: #000000; stroke-width: 0.8"/>
      </g>
     </g>
     <g id="text_2">
      <!-- 0 -->
      <g transform="translate(202.2025 256.398125) scale(0.12 -0.12)">
       <use xlink:href="#DejaVuSans-30"/>
      </g>
     </g>
    </g>
    <g id="xtick_3">
     <g id="line2d_3">
      <g>
       <use xlink:href="#m1503806cb9" x="285.564444" y="240.28" style="stroke: #000000; stroke-width: 0.8"/>
      </g>
     </g>
     <g id="text_3">
      <!-- 50 -->
      <g transform="translate(277.929444 256.398125) scale(0.12 -0.12)">
       <use xlink:href="#DejaVuSans-35"/>
       <use xlink:href="#DejaVuSans-30" transform="translate(63.623047 0)"/>
      </g>
     </g>
    </g>
    <g id="text_4">
     <!-- $\Theta^{\circ}$ -->
     <g transform="translate(198.4 272.011875) scale(0.12 -0.12)">
      <defs>
       <path id="DejaVuSans-398" d="M 1416 2750 
L 3622 2750 
L 3622 2219 
L 1416 2219 
L 1416 2750 
z
M 2522 4238 
Q 1834 4238 1431 3725 
Q 1025 3213 1025 2328 
Q 1025 1447 1429 934 
Q 1834 422 2522 422 
Q 3209 422 3613 934 
Q 4013 1447 4013 2328 
Q 4013 3213 3613 3725 
Q 3209 4238 2522 4238 
z
M 2522 4750 
Q 3503 4750 4090 4092 
Q 4678 3434 4678 2328 
Q 4678 1225 4091 569 
Q 3503 -91 2522 -91 
Q 1538 -91 950 566 
Q 359 1222 359 2328 
Q 359 3434 950 4094 
Q 1538 4750 2522 4750 
z
" transform="scale(0.015625)"/>
       <path id="DejaVuSans-2218" d="M 2000 2619 
Q 1750 2619 1578 2445 
Q 1406 2272 1406 2022 
Q 1406 1775 1578 1605 
Q 1750 1435 2000 1435 
Q 2250 1435 2422 1605 
Q 2594 1775 2594 2022 
Q 2594 2269 2420 2444 
Q 2247 2619 2000 2619 
z
M 2000 3022 
Q 2200 3022 2384 2945 
Q 2569 2869 2703 2725 
Q 2847 2585 2919 2406 
Q 2991 2228 2991 2022 
Q 2991 1610 2702 1324 
Q 2413 1038 1994 1038 
Q 1572 1038 1290 1319 
Q 1009 1600 1009 2022 
Q 1009 2441 1296 2731 
Q 1584 3022 2000 3022 
z
" transform="scale(0.015625)"/>
      </defs>
      <use xlink:href="#DejaVuSans-398" transform="translate(0 0.78125)"/>
      <use xlink:href="#DejaVuSans-2218" transform="translate(79.667969 39.0625) scale(0.7)"/>
     </g>
    </g>
   </g>
   <g id="matplotlib.axis_2">
    <g id="ytick_1">
     <g id="line2d_4">
      <defs>
       <path id="m60e54306cd" d="M 0 0 
L -3.5 0 
" style="stroke: #000000; stroke-width: 0.8"/>
      </defs>
      <g>
       <use xlink:href="#m60e54306cd" x="62.84" y="219.984151" style="stroke: #000000; stroke-width: 0.8"/>
      </g>
     </g>
     <g id="text_5">
      <!-- −40 -->
      <g transform="translate(30.514375 224.543214) scale(0.12 -0.12)">
       <defs>
        <path id="DejaVuSans-34" d="M 2419 4116 
L 825 1625 
L 2419 1625 
L 2419 4116 
z
M 2253 4666 
L 3047 4666 
L 3047 1625 
L 3713 1625 
L 3713 1100 
L 3047 1100 
L 3047 0 
L 2419 0 
L 2419 1100 
L 313 1100 
L 313 1709 
L 2253 4666 
z
" transform="scale(0.015625)"/>
       </defs>
       <use xlink:href="#DejaVuSans-2212"/>
       <use xlink:href="#DejaVuSans-34" transform="translate(83.789062 0)"/>
       <use xlink:href="#DejaVuSans-30" transform="translate(147.412109 0)"/>
      </g>
     </g>
    </g>
    <g id="ytick_2">
     <g id="line2d_5">
      <g>
       <use xlink:href="#m60e54306cd" x="62.84" y="176.783648" style="stroke: #000000; stroke-width: 0.8"/>
      </g>
     </g>
     <g id="text_6">
      <!-- −20 -->
      <g transform="translate(30.514375 181.342711) scale(0.12 -0.12)">
       <defs>
        <path id="DejaVuSans-32" d="M 1228 531 
L 3431 531 
L 3431 0 
L 469 0 
L 469 531 
Q 828 903 1448 1529 
Q 2069 2156 2228 2338 
Q 2531 2678 2651 2914 
Q 2772 3150 2772 3378 
Q 2772 3750 2511 3984 
Q 2250 4219 1831 4219 
Q 1534 4219 1204 4116 
Q 875 4013 500 3803 
L 500 4441 
Q 881 4594 1212 4672 
Q 1544 4750 1819 4750 
Q 2544 4750 2975 4387 
Q 3406 4025 3406 3419 
Q 3406 3131 3298 2873 
Q 3191 2616 2906 2266 
Q 2828 2175 2409 1742 
Q 1991 1309 1228 531 
z
" transform="scale(0.015625)"/>
       </defs>
       <use xlink:href="#DejaVuSans-2212"/>
       <use xlink:href="#DejaVuSans-32" transform="translate(83.789062 0)"/>
       <use xlink:href="#DejaVuSans-30" transform="translate(147.412109 0)"/>
      </g>
     </g>
    </g>
    <g id="ytick_3">
     <g id="line2d_6">
      <g>
       <use xlink:href="#m60e54306cd" x="62.84" y="133.583145" style="stroke: #000000; stroke-width: 0.8"/>
      </g>
     </g>
     <g id="text_7">
      <!-- 0 -->
      <g transform="translate(48.205 138.142208) scale(0.12 -0.12)">
       <use xlink:href="#DejaVuSans-30"/>
      </g>
     </g>
    </g>
    <g id="ytick_4">
     <g id="line2d_7">
      <g>
       <use xlink:href="#m60e54306cd" x="62.84" y="90.382642" style="stroke: #000000; stroke-width: 0.8"/>
      </g>
     </g>
     <g id="text_8">
      <!-- 20 -->
      <g transform="translate(40.57 94.941704) scale(0.12 -0.12)">
       <use xlink:href="#DejaVuSans-32"/>
       <use xlink:href="#DejaVuSans-30" transform="translate(63.623047 0)"/>
      </g>
     </g>
    </g>
    <g id="ytick_5">
     <g id="line2d_8">
      <g>
       <use xlink:href="#m60e54306cd" x="62.84" y="47.182139" style="stroke: #000000; stroke-width: 0.8"/>
      </g>
     </g>
     <g id="text_9">
      <!-- 40 -->
      <g transform="translate(40.57 51.741201) scale(0.12 -0.12)">
       <use xlink:href="#DejaVuSans-34"/>
       <use xlink:href="#DejaVuSans-30" transform="translate(63.623047 0)"/>
      </g>
     </g>
    </g>
    <g id="text_10">
     <!-- $\phi^{\circ}$ -->
     <g transform="translate(23.784375 141.38) rotate(-90) scale(0.13 -0.13)">
      <defs>
       <path id="DejaVuSans-Oblique-3d5" d="M 2991 4863 
L 2738 3572 
Q 3363 3572 3684 3094 
Q 4016 2606 3850 1747 
Q 3681 888 3159 400 
Q 2653 -78 2028 -78 
L 1784 -1331 
L 1213 -1331 
L 1456 -78 
Q 834 -78 509 400 
Q 178 888 347 1747 
Q 513 2606 1034 3094 
Q 1544 3572 2166 3572 
L 2419 4863 
L 2991 4863 
z
M 2128 434 
Q 2481 434 2784 756 
Q 3116 1116 3244 1747 
Q 3369 2372 3169 2738 
Q 2991 3059 2638 3059 
L 2128 434 
z
M 1556 434 
L 2066 3059 
Q 1716 3059 1413 2738 
Q 1072 2372 953 1747 
Q 834 1116 1028 756 
Q 1203 434 1556 434 
z
" transform="scale(0.015625)"/>
      </defs>
      <use xlink:href="#DejaVuSans-Oblique-3d5" transform="translate(0 0.015625)"/>
      <use xlink:href="#DejaVuSans-2218" transform="translate(73.414505 38.296875) scale(0.7)"/>
     </g>
    </g>
   </g>
   <g id="QuadContourSet_2">
    <path clip-path="url(#pbe8850ebd7)" style="fill: none; stroke-dasharray: 1.85,0.8; stroke-dashoffset: 0; stroke: #000000; stroke-width: 0.5"/>
    <path d="M 323.810315 26.88 
L 323.733449 36.380776 
L 324.01151 47.600163 
L 324.131109 60.808896 
L 324.168165 76.198006 
L 324.053028 93.757994 
L 324.186444 113.137869 
L 324.222995 120.469732 
M 324.273553 146.711545 
L 324.265286 154.013971 
L 324.164109 173.39493 
L 324.184697 190.956403 
L 324.212877 206.347113 
L 324.135684 219.557363 
L 323.828022 230.778089 
L 323.654216 240.28 
M 88.228365 240.28 
L 88.207403 230.778089 
L 87.979797 219.557363 
L 87.760927 206.347113 
L 87.708172 190.956403 
L 87.912577 173.39493 
L 87.904545 154.013971 
L 87.861337 146.711351 
M 87.795478 120.469593 
L 87.802057 113.137869 
L 88.035333 93.757994 
L 88.073122 76.198006 
L 87.925493 60.808896 
L 87.982156 47.600163 
L 88.016878 36.380776 
L 88.104276 26.88 
" clip-path="url(#pbe8850ebd7)" style="fill: none; stroke-dasharray: 1.85,0.8; stroke-dashoffset: 0; stroke: #000000; stroke-width: 0.5"/>
    <path d="M 321.34932 26.88 
L 321.14852 36.380776 
L 321.874911 47.600163 
L 322.187343 60.808896 
L 322.284146 76.198006 
L 321.983369 93.757994 
L 322.331897 113.137869 
L 322.428519 120.557167 
M 322.55971 146.624896 
L 322.53786 154.013971 
L 322.273549 173.39493 
L 322.327331 190.956403 
L 322.400949 206.347113 
L 322.199294 219.557363 
L 321.395577 230.778089 
L 320.941537 240.28 
M 90.687231 240.28 
L 90.632472 230.778089 
L 90.037889 219.557363 
L 89.466126 206.347113 
L 89.328312 190.956403 
L 89.862286 173.39493 
L 89.841304 154.013971 
L 89.727074 146.623577 
M 89.556182 120.556227 
L 89.573571 113.137869 
L 90.182966 93.757994 
L 90.281684 76.198006 
L 89.896027 60.808896 
L 90.04405 47.600163 
L 90.134755 36.380776 
L 90.363069 26.88 
" clip-path="url(#pbe8850ebd7)" style="fill: none; stroke-dasharray: 1.85,0.8; stroke-dashoffset: 0; stroke: #000000; stroke-width: 0.5"/>
    <path d="M 318.888325 26.88 
L 318.563591 36.380776 
L 319.738311 47.600163 
L 320.243577 60.808896 
L 320.400127 76.198006 
L 319.91371 93.757994 
L 320.47735 113.137869 
L 320.631816 120.472146 
M 320.845355 146.711421 
L 320.810433 154.013971 
L 320.382989 173.39493 
L 320.469966 190.956403 
L 320.58902 206.347113 
L 320.262904 219.557363 
L 318.963132 230.778089 
L 318.228858 240.28 
M 93.146098 240.28 
L 93.057541 230.778089 
L 92.095981 219.557363 
L 91.171324 206.347113 
L 90.948452 190.956403 
L 91.811996 173.39493 
L 91.778063 154.013971 
L 91.595439 146.707951 
M 91.317292 120.469671 
L 91.345085 113.137869 
L 92.330599 93.757994 
L 92.490246 76.198006 
L 91.866561 60.808896 
L 92.105944 47.600163 
L 92.252632 36.380776 
L 92.621862 26.88 
" clip-path="url(#pbe8850ebd7)" style="fill: none; stroke-dasharray: 1.85,0.8; stroke-dashoffset: 0; stroke: #000000; stroke-width: 0.5"/>
    <path d="M 316.427329 26.88 
L 315.978662 36.380776 
L 317.601711 47.600163 
L 318.299811 60.808896 
L 318.516108 76.198006 
L 317.84405 93.757994 
L 318.622802 113.137869 
L 318.837548 120.517756 
M 319.131543 146.667998 
L 319.083006 154.013971 
L 318.49243 173.39493 
L 318.612601 190.956403 
L 318.777092 206.347113 
L 318.326513 219.557363 
L 316.530687 230.778089 
L 315.516179 240.28 
M 95.604964 240.28 
L 95.482609 230.778089 
L 94.154072 219.557363 
L 92.876523 206.347113 
L 92.568592 190.956403 
L 93.761705 173.39493 
L 93.714822 154.013971 
L 93.460893 146.661399 
M 93.077972 120.51305 
L 93.1166 113.137869 
L 94.478233 93.757994 
L 94.698808 76.198006 
L 93.837095 60.808896 
L 94.167838 47.600163 
L 94.370509 36.380776 
L 94.880655 26.88 
" clip-path="url(#pbe8850ebd7)" style="fill: none; stroke-dasharray: 1.85,0.8; stroke-dashoffset: 0; stroke: #000000; stroke-width: 0.5"/>
    <path d="M 313.966334 26.88 
L 313.393733 36.380776 
L 315.465111 47.600163 
L 316.356045 60.808896 
L 316.632088 76.198006 
L 315.774391 93.757994 
L 316.768255 113.137869 
L 317.040825 120.477535 
M 317.417159 146.711143 
L 317.355579 154.013971 
L 316.60187 173.39493 
L 316.755236 190.956403 
L 316.965164 206.347113 
L 316.390123 219.557363 
L 314.098242 230.778089 
L 312.8035 240.28 
M 98.06383 240.28 
L 97.907678 230.778089 
L 96.212164 219.557363 
L 94.581722 206.347113 
L 94.188732 190.956403 
L 95.711414 173.39493 
L 95.651581 154.013971 
L 95.329227 146.700364 
M 94.839104 120.469846 
L 94.888114 113.137869 
L 96.625866 93.757994 
L 96.90737 76.198006 
L 95.807629 60.808896 
L 96.229732 47.600163 
L 96.488386 36.380776 
L 97.139448 26.88 
" clip-path="url(#pbe8850ebd7)" style="fill: none; stroke-dasharray: 1.85,0.8; stroke-dashoffset: 0; stroke: #000000; stroke-width: 0.5"/>
    <path d="M 311.505339 26.88 
L 310.808804 36.380776 
L 313.328512 47.600163 
L 314.412279 60.808896 
L 314.748069 76.198006 
L 313.704732 93.757994 
L 314.913708 113.137869 
L 315.245445 120.481341 
M 315.703063 146.710946 
L 315.628152 154.013971 
L 314.711311 173.39493 
L 314.897871 190.956403 
L 315.153235 206.347113 
L 314.453733 219.557363 
L 311.665797 230.778089 
L 310.090821 240.28 
M 100.522697 240.28 
L 100.332747 230.778089 
L 98.270256 219.557363 
L 96.28692 206.347113 
L 95.808872 190.956403 
L 97.661123 173.39493 
L 97.58834 154.013971 
L 97.195929 146.695006 
M 96.60001 120.46997 
L 96.659628 113.137869 
L 98.773499 93.757994 
L 99.115932 76.198006 
L 97.778163 60.808896 
L 98.291626 47.600163 
L 98.606263 36.380776 
L 99.398241 26.88 
" clip-path="url(#pbe8850ebd7)" style="fill: none; stroke-dasharray: 1.85,0.8; stroke-dashoffset: 0; stroke: #000000; stroke-width: 0.5"/>
    <path d="M 309.044344 26.88 
L 308.223875 36.380776 
L 311.191912 47.600163 
L 312.468513 60.808896 
L 312.86405 76.198006 
L 311.635072 93.757994 
L 313.059161 113.137869 
L 313.452466 120.529137 
M 313.989491 146.66741 
L 313.900725 154.013971 
L 312.820751 173.39493 
L 313.040506 190.956403 
L 313.341307 206.347113 
L 312.517343 219.557363 
L 309.233351 230.778089 
L 307.378142 240.28 
M 102.981563 240.28 
L 102.757816 230.778089 
L 100.328347 219.557363 
L 97.992119 206.347113 
L 97.429012 190.956403 
L 99.610833 173.39493 
L 99.525099 154.013971 
L 99.059732 146.645383 
M 98.3605 120.513419 
L 98.431142 113.137869 
L 100.921132 93.757994 
L 101.324495 76.198006 
L 99.748697 60.808896 
L 100.35352 47.600163 
L 100.72414 36.380776 
L 101.657034 26.88 
" clip-path="url(#pbe8850ebd7)" style="fill: none; stroke-dasharray: 1.85,0.8; stroke-dashoffset: 0; stroke: #000000; stroke-width: 0.5"/>
    <path d="M 157.613572 26.88 
L 158.293333 27.209782 
L 158.735497 26.88 
M 306.583349 26.88 
L 305.638946 36.380776 
L 309.055312 47.600163 
L 310.524747 60.808896 
L 310.980031 76.198006 
L 309.565413 93.757994 
L 311.204613 113.137869 
L 311.657651 120.534402 
M 312.275476 146.667138 
L 312.173298 154.013971 
L 310.930191 173.39493 
L 311.183141 190.956403 
L 311.529378 206.347113 
L 310.580953 219.557363 
L 306.800906 230.778089 
L 304.665463 240.28 
M 105.44043 240.28 
L 105.182884 230.778089 
L 102.386439 219.557363 
L 99.697318 206.347113 
L 99.049152 190.956403 
L 101.560542 173.39493 
L 101.461858 154.013971 
L 100.925658 146.63798 
M 100.121342 120.513591 
L 100.202656 113.137869 
L 103.068766 93.757994 
L 103.533057 76.198006 
L 101.719231 60.808896 
L 102.415414 47.600163 
L 102.842017 36.380776 
L 103.915827 26.88 
M 182.743139 240.28 
L 182.156667 239.89865 
L 181.609019 240.28 
" clip-path="url(#pbe8850ebd7)" style="fill: none; stroke-dasharray: 1.85,0.8; stroke-dashoffset: 0; stroke: #000000; stroke-width: 0.5"/>
    <path d="M 151.959138 26.88 
L 158.293333 29.952997 
L 162.413534 26.88 
M 304.122354 26.88 
L 303.054017 36.380776 
L 306.918712 47.600163 
L 308.580981 60.808896 
L 309.096012 76.198006 
L 307.495754 93.757994 
L 309.350066 113.137869 
L 309.859977 120.497187 
M 310.560781 146.710126 
L 310.445871 154.013971 
L 309.039632 173.39493 
L 309.325776 190.956403 
L 309.71745 206.347113 
L 308.644563 219.557363 
L 304.368461 230.778089 
L 301.952784 240.28 
M 107.899296 240.28 
L 107.607953 230.778089 
L 104.44453 219.557363 
L 101.402516 206.347113 
L 100.669292 190.956403 
L 103.510251 173.39493 
L 103.398617 154.013971 
L 102.794909 146.672727 
M 101.882723 120.470485 
L 101.97417 113.137869 
L 105.216399 93.757994 
L 105.741619 76.198006 
L 103.689765 60.808896 
L 104.477308 47.600163 
L 104.959895 36.380776 
L 106.17462 26.88 
M 188.447767 240.28 
L 182.156667 236.189254 
L 176.282037 240.28 
" clip-path="url(#pbe8850ebd7)" style="fill: none; stroke-dasharray: 1.85,0.8; stroke-dashoffset: 0; stroke: #000000; stroke-width: 0.5"/>
    <path d="M 146.304703 26.88 
L 158.293333 32.696211 
L 166.091571 26.88 
M 301.661359 26.88 
L 301.473333 28.441359 
L 294.485753 36.380776 
L 301.473333 38.630887 
L 304.782113 47.600163 
L 306.637215 60.808896 
L 307.211993 76.198006 
L 305.426095 93.757994 
L 307.495519 113.137869 
L 308.065105 120.503935 
M 308.846691 146.709775 
L 308.718444 154.013971 
L 307.149072 173.39493 
L 307.46841 190.956403 
L 307.905522 206.347113 
L 306.708173 219.557363 
L 301.936016 230.778089 
L 301.473333 232.561457 
L 297.302615 240.28 
M 110.358162 240.28 
L 110.033022 230.778089 
L 106.502622 219.557363 
L 103.107715 206.347113 
L 102.289432 190.956403 
L 105.459961 173.39493 
L 105.335376 154.013971 
L 104.660765 146.663249 
M 103.643625 120.470706 
L 103.745684 113.137869 
L 107.364032 93.757994 
L 107.950181 76.198006 
L 105.660299 60.808896 
L 106.539202 47.600163 
L 107.077772 36.380776 
L 108.433413 26.88 
M 194.152395 240.28 
L 182.156667 232.479857 
L 170.955055 240.28 
" clip-path="url(#pbe8850ebd7)" style="fill: none; stroke-dasharray: 1.85,0.8; stroke-dashoffset: 0; stroke: #000000; stroke-width: 0.5"/>
    <path d="M 140.650269 26.88 
L 145.864056 29.409437 
M 169.245345 27.271014 
L 169.769607 26.88 
M 296.029753 26.88 
L 277.61 36.196749 
L 277.151384 36.380776 
L 277.61 36.735448 
L 301.473333 44.422676 
L 302.645513 47.600163 
L 304.693449 60.808896 
L 305.327973 76.198006 
L 303.356435 93.757994 
L 304.103607 100.096298 
M 306.757454 126.217029 
L 307.386886 133.590571 
L 306.991017 154.013971 
L 305.258512 173.39493 
L 305.611045 190.956403 
L 306.093593 206.347113 
L 304.771782 219.557363 
L 301.473333 227.162602 
L 295.263292 230.778089 
L 292.236487 240.28 
M 114.542729 240.28 
L 114.698914 230.778089 
L 110.566667 225.790342 
L 108.560714 219.557363 
L 104.812913 206.347113 
L 103.909572 190.956403 
L 107.40967 173.39493 
L 107.272135 154.013971 
L 106.526336 146.652755 
M 105.404527 120.47095 
L 105.517198 113.137869 
L 109.511665 93.757994 
L 110.158743 76.198006 
L 107.630833 60.808896 
L 108.601097 47.600163 
L 109.195649 36.380776 
L 110.566667 27.631188 
L 111.714317 26.88 
M 199.857024 240.28 
L 206.02 233.754765 
L 211.211672 230.778089 
L 210.900955 229.893002 
M 194.095039 223.979825 
L 182.156667 229.008017 
L 179.3391 230.778089 
L 165.628073 240.28 
" clip-path="url(#pbe8850ebd7)" style="fill: none; stroke-dasharray: 1.85,0.8; stroke-dashoffset: 0; stroke: #000000; stroke-width: 0.5"/>
    <path d="M 134.995835 26.88 
L 141.528673 36.380776 
L 144.481412 36.832631 
M 169.502618 32.185568 
L 173.447644 26.88 
M 249.353034 26.88 
L 253.746667 28.340271 
L 257.451026 26.88 
M 290.135866 26.88 
L 277.61 33.215609 
L 269.722042 36.380776 
L 277.61 42.480964 
L 293.449137 47.600163 
L 301.473333 52.981092 
L 302.749683 60.808896 
L 303.443954 76.198006 
L 301.473333 92.364777 
L 300.714328 93.757994 
L 301.473333 95.064181 
L 303.786424 113.137869 
L 304.475889 120.51961 
M 305.418516 146.70896 
L 305.26359 154.013971 
L 303.367953 173.39493 
L 303.75368 190.956403 
L 304.281665 206.347113 
L 302.835392 219.557363 
L 301.473333 222.697864 
L 285.608702 219.557363 
L 277.61 216.660651 
L 272.757006 219.557363 
L 277.61 221.959451 
L 287.594556 230.778089 
L 287.170359 240.28 
M 118.887188 240.28 
L 119.997031 230.778089 
L 111.902636 219.557363 
L 110.566667 219.417896 
L 106.518112 206.347113 
L 105.529712 190.956403 
L 109.359379 173.39493 
L 109.208894 154.013971 
L 106.94487 133.590571 
L 107.068155 126.257222 
M 110.062108 100.277119 
L 110.566667 97.937385 
L 112.940134 93.757994 
L 113.593906 76.198006 
L 110.566667 66.58488 
L 109.601367 60.808896 
L 110.566667 48.750147 
L 110.995095 47.600163 
L 123.907893 36.380776 
L 132.363639 26.88 
M 205.561652 240.28 
L 206.02 239.79471 
L 221.746047 230.778089 
L 214.098909 219.557363 
L 213.357214 218.427914 
M 197.991876 218.002198 
L 196.83019 219.557363 
L 182.156667 225.737544 
L 174.13322 230.778089 
L 160.301091 240.28 
M 261.30256 240.28 
L 260.811448 238.341639 
M 241.537846 234.403338 
L 234.001504 240.28 
" clip-path="url(#pbe8850ebd7)" style="fill: none; stroke-dasharray: 1.85,0.8; stroke-dashoffset: 0; stroke: #000000; stroke-width: 0.5"/>
    <path d="M 238.102503 26.88 
L 253.746667 32.079505 
L 262.292699 36.380776 
L 276.949741 47.600163 
L 277.61 48.111089 
L 298.789073 60.808896 
L 301.473333 74.381079 
L 301.559935 76.198006 
L 301.473333 76.908477 
L 292.293953 93.757994 
L 301.473333 109.554968 
L 301.931877 113.137869 
L 304.006582 133.590571 
L 303.838312 140.896048 
M 302.14923 167.07036 
L 301.477393 173.39493 
L 301.896315 190.956403 
L 302.469736 206.347113 
L 301.473333 214.928786 
L 277.61 208.49271 
L 259.072877 219.557363 
L 253.746667 222.056729 
L 229.883333 229.119929 
L 220.925281 219.557363 
L 213.187409 206.347113 
L 206.02 202.513796 
L 200.125989 206.347113 
L 189.065148 219.557363 
L 182.156667 222.46707 
L 168.927341 230.778089 
L 158.293333 238.05904 
L 153.647757 240.28 
M 284.24198 26.88 
L 277.61 30.234469 
L 266.936574 26.88 
M 123.231647 240.28 
L 125.295148 230.778089 
L 134.43 222.355581 
L 140.011125 219.557363 
L 134.43 211.998738 
L 110.566667 213.912652 
L 108.223311 206.347113 
L 107.149852 190.956403 
L 110.566667 176.080808 
L 116.335804 173.39493 
L 114.53343 154.013971 
L 110.566667 149.583728 
L 108.686794 133.590571 
L 108.820694 126.256929 
M 113.571282 100.861459 
L 117.605324 93.757994 
L 117.306948 76.198006 
L 113.010957 60.808896 
L 120.16596 47.600163 
L 134.43 39.937261 
L 158.293333 42.852026 
L 173.787909 47.600163 
L 182.156667 55.935624 
L 186.218805 47.600163 
L 182.156667 39.740734 
L 178.699497 36.380776 
L 177.125681 26.88 
M 269.944033 240.28 
L 273.269263 230.778089 
L 277.61 228.732692 
L 279.925821 230.778089 
L 282.10423 240.28 
M 291.28535 175.447275 
L 301.355924 173.39493 
L 277.61 167.086664 
L 277.331917 167.509684 
" clip-path="url(#pbe8850ebd7)" style="fill: none; stroke-dasharray: 1.85,0.8; stroke-dashoffset: 0; stroke: #000000; stroke-width: 0.5"/>
    <path d="M 227.325955 26.88 
L 229.883333 35.365877 
L 253.746667 35.818739 
L 254.863356 36.380776 
L 270.892858 47.600163 
L 277.61 52.798074 
L 279.220238 53.763485 
M 293.407042 73.685672 
L 293.88223 76.198006 
L 283.873577 93.757994 
L 292.297167 113.137869 
L 301.473333 125.438924 
L 302.31643 133.590571 
L 301.808736 154.013971 
L 301.473333 157.170868 
L 285.722026 154.013971 
L 277.61 152.805467 
L 275.894436 154.013971 
L 263.914622 173.39493 
L 277.61 189.377089 
L 281.310472 190.956403 
L 277.61 193.437928 
L 253.746667 203.106213 
L 249.772098 206.347113 
L 237.956424 219.557363 
L 229.883333 221.832894 
L 227.751653 219.557363 
L 221.040573 206.347113 
L 206.02 198.313719 
L 193.668058 206.347113 
L 182.156667 218.787499 
L 179.488868 219.557363 
L 163.721462 230.778089 
L 158.293333 234.49465 
L 146.192129 240.28 
M 278.348094 26.88 
L 277.61 27.253329 
L 276.422121 26.88 
M 127.576106 240.28 
L 130.593265 230.778089 
L 134.43 227.240546 
L 149.754325 219.557363 
L 140.321005 206.347113 
L 134.43 197.092491 
L 120.007721 206.347113 
L 110.566667 208.407407 
L 109.928509 206.347113 
L 109.751956 204.001634 
M 115.416009 180.876661 
L 131.48641 173.39493 
L 127.802598 154.013971 
L 110.566667 134.764179 
L 110.428718 133.590571 
L 110.566667 126.512158 
L 112.440846 113.137869 
L 122.270515 93.757994 
L 121.01999 76.198006 
L 117.802435 60.808896 
L 129.336825 47.600163 
L 134.43 44.864016 
L 158.293333 46.757794 
L 161.042232 47.600163 
L 177.233969 60.808896 
L 182.156667 70.584173 
L 186.452006 60.808896 
L 192.405469 47.600163 
L 188.90356 36.380776 
L 182.156667 30.09467 
L 180.803718 26.88 
" clip-path="url(#pbe8850ebd7)" style="fill: none; stroke-dasharray: 1.85,0.8; stroke-dashoffset: 0; stroke: #000000; stroke-width: 0.5"/>
    <path d="M 217.834554 26.88 
L 217.000149 36.380776 
L 219.830595 47.600163 
L 229.883333 55.503138 
L 237.593719 47.600163 
L 253.746667 39.937141 
L 264.835974 47.600163 
L 277.61 57.48506 
L 283.153931 60.808896 
L 285.925378 76.198006 
L 277.61 90.30132 
L 274.554172 93.757994 
L 277.61 104.526538 
L 280.106916 113.137869 
L 290.511976 133.590571 
L 277.61 140.719862 
L 258.738005 154.013971 
L 254.366145 173.39493 
L 253.746667 178.543527 
L 252.000902 190.956403 
L 232.109092 206.347113 
L 229.883333 208.392795 
L 228.893737 206.347113 
L 206.02 194.113643 
L 187.210127 206.347113 
L 182.156667 211.808398 
L 158.293333 217.675798 
L 150.625415 206.347113 
L 140.240823 190.956403 
L 140.346987 173.39493 
L 138.04629 154.013971 
L 137.26495 133.590571 
L 134.43 127.781858 
L 124.966148 113.137869 
L 126.935705 93.757994 
L 124.733032 76.198006 
L 122.593912 60.808896 
L 134.43 49.615025 
L 158.293333 52.407705 
L 169.244206 60.808896 
L 170.823284 64.182862 
M 187.650259 78.840269 
L 193.513692 76.198006 
L 193.423537 60.808896 
L 198.592133 47.600163 
L 198.283354 36.380776 
L 190.193943 26.88 
M 131.920565 240.28 
L 134.43 233.849063 
L 138.736501 240.28 
M 110.566667 190.187832 
L 114.129045 190.956403 
L 110.566667 193.238925 
L 110.390132 190.956403 
L 110.566667 190.187832 
z
M 158.293333 227.897279 
L 158.515583 230.778089 
L 158.293333 230.93026 
L 155.094895 230.778089 
L 158.293333 227.897279 
z
" clip-path="url(#pbe8850ebd7)" style="fill: none; stroke-dasharray: 1.85,0.8; stroke-dashoffset: 0; stroke: #000000; stroke-width: 0.5"/>
    <path d="M 208.343154 26.88 
L 206.02 32.417527 
L 202.908044 26.88 
M 203.012934 66.08489 
L 200.395069 60.808896 
L 204.778797 47.600163 
L 206.02 41.610633 
L 208.327762 47.600163 
L 221.800441 60.808896 
L 229.883333 65.30258 
L 235.491424 60.808896 
L 246.416319 47.600163 
L 253.746667 44.122617 
L 258.779091 47.600163 
L 273.368013 60.808896 
L 277.61 74.133628 
L 277.968527 76.198006 
L 277.61 76.806086 
L 262.623884 93.757994 
L 253.746667 107.859566 
L 251.077214 113.137869 
L 250.211278 133.590571 
L 248.815707 154.013971 
L 246.525721 173.39493 
L 240.839718 190.956403 
L 229.883333 199.098238 
L 210.837326 190.956403 
L 206.02 188.01859 
L 200.852694 190.956403 
L 182.156667 203.347389 
L 158.293333 203.023902 
L 149.598816 190.956403 
L 147.690791 173.39493 
L 145.271048 154.013971 
L 146.72395 133.590571 
L 139.837955 113.137869 
L 134.43 107.570665 
L 131.600896 93.757994 
L 128.446074 76.198006 
L 127.38539 60.808896 
L 134.43 54.146521 
L 158.293333 58.537218 
L 161.254444 60.808896 
L 167.609733 76.198006 
L 182.156667 89.236224 
L 203.76357 86.284736 
" clip-path="url(#pbe8850ebd7)" style="fill: none; stroke-dasharray: 1.85,0.8; stroke-dashoffset: 0; stroke: #000000; stroke-width: 0.5"/>
    <path d="M 145.387273 82.768718 
L 134.43 86.882417 
L 132.159116 76.198006 
L 132.176867 60.808896 
L 134.43 58.678016 
L 144.634788 60.808896 
L 151.17723 67.595161 
M 153.339904 160.45776 
L 152.495807 154.013971 
L 156.18295 133.590571 
L 158.293333 121.859682 
L 161.48171 113.137869 
L 182.156667 99.284422 
L 203.488204 113.137869 
L 206.02 115.68479 
L 208.295339 113.137869 
L 216.382705 93.757994 
L 229.845894 76.198006 
L 229.883333 76.175991 
L 249.061377 60.808896 
L 253.746667 51.943245 
L 258.782573 60.808896 
L 258.328987 76.198006 
L 253.746667 84.451444 
L 248.898714 93.757994 
L 241.492714 113.137869 
L 244.347312 133.590571 
L 241.861575 154.013971 
L 238.803798 173.39493 
L 229.883333 190.68182 
L 206.02 176.1864 
L 182.156667 189.775768 
L 158.293333 188.537046 
L 157.78431 186.171808 
" clip-path="url(#pbe8850ebd7)" style="fill: none; stroke-dasharray: 1.85,0.8; stroke-dashoffset: 0; stroke: #000000; stroke-width: 0.5"/>
    <path d="M 166.314558 161.511092 
L 162.711731 154.013971 
L 172.589099 133.590571 
L 180.702791 113.137869 
L 182.156667 112.163686 
L 183.656713 113.137869 
L 202.091434 133.590571 
L 206.02 137.667982 
L 207.578372 133.590571 
L 226.118007 113.137869 
L 229.832678 93.757994 
L 229.883333 93.691975 
L 229.95468 93.757994 
L 231.908214 113.137869 
L 238.483345 133.590571 
L 234.907442 154.013971 
L 231.081875 173.39493 
L 229.883333 175.717574 
L 225.854255 173.39493 
L 206.02 160.790318 
L 190.495186 173.39493 
L 184.348535 176.908477 
" clip-path="url(#pbe8850ebd7)" style="fill: none; stroke-dasharray: 1.85,0.8; stroke-dashoffset: 0; stroke: #000000; stroke-width: 0.5"/>
    <path d="M 229.883333 125.988567 
L 232.619379 133.590571 
L 229.883333 146.39663 
L 222.787135 133.590571 
L 229.883333 125.988567 
z
" clip-path="url(#pbe8850ebd7)" style="fill: none; stroke-dasharray: 1.85,0.8; stroke-dashoffset: 0; stroke: #000000; stroke-width: 0.5"/>
    <path clip-path="url(#pbe8850ebd7)" style="fill: none; stroke-dasharray: 1.85,0.8; stroke-dashoffset: 0; stroke: #000000; stroke-width: 0.5"/>
   </g>
   <g id="patch_3">
    <path d="M 62.84 240.28 
L 62.84 26.88 
" style="fill: none; stroke: #000000; stroke-width: 0.8; stroke-linejoin: miter; stroke-linecap: square"/>
   </g>
   <g id="patch_4">
    <path d="M 349.2 240.28 
L 349.2 26.88 
" style="fill: none; stroke: #000000; stroke-width: 0.8; stroke-linejoin: miter; stroke-linecap: square"/>
   </g>
   <g id="patch_5">
    <path d="M 62.84 240.28 
L 349.2 240.28 
" style="fill: none; stroke: #000000; stroke-width: 0.8; stroke-linejoin: miter; stroke-linecap: square"/>
   </g>
   <g id="patch_6">
    <path d="M 62.84 26.88 
L 349.2 26.88 
" style="fill: none; stroke: #000000; stroke-width: 0.8; stroke-linejoin: miter; stroke-linecap: square"/>
   </g>
   <g id="text_11">
    <!-- Band 8000 -->
    <g transform="translate(173.438125 20.88) scale(0.12 -0.12)">
     <defs>
      <path id="DejaVuSans-42" d="M 1259 2228 
L 1259 519 
L 2272 519 
Q 2781 519 3026 730 
Q 3272 941 3272 1375 
Q 3272 1813 3026 2020 
Q 2781 2228 2272 2228 
L 1259 2228 
z
M 1259 4147 
L 1259 2741 
L 2194 2741 
Q 2656 2741 2882 2914 
Q 3109 3088 3109 3444 
Q 3109 3797 2882 3972 
Q 2656 4147 2194 4147 
L 1259 4147 
z
M 628 4666 
L 2241 4666 
Q 2963 4666 3353 4366 
Q 3744 4066 3744 3513 
Q 3744 3084 3544 2831 
Q 3344 2578 2956 2516 
Q 3422 2416 3680 2098 
Q 3938 1781 3938 1306 
Q 3938 681 3513 340 
Q 3088 0 2303 0 
L 628 0 
L 628 4666 
z
" transform="scale(0.015625)"/>
      <path id="DejaVuSans-61" d="M 2194 1759 
Q 1497 1759 1228 1600 
Q 959 1441 959 1056 
Q 959 750 1161 570 
Q 1363 391 1709 391 
Q 2188 391 2477 730 
Q 2766 1069 2766 1631 
L 2766 1759 
L 2194 1759 
z
M 3341 1997 
L 3341 0 
L 2766 0 
L 2766 531 
Q 2569 213 2275 61 
Q 1981 -91 1556 -91 
Q 1019 -91 701 211 
Q 384 513 384 1019 
Q 384 1609 779 1909 
Q 1175 2209 1959 2209 
L 2766 2209 
L 2766 2266 
Q 2766 2663 2505 2880 
Q 2244 3097 1772 3097 
Q 1472 3097 1187 3025 
Q 903 2953 641 2809 
L 641 3341 
Q 956 3463 1253 3523 
Q 1550 3584 1831 3584 
Q 2591 3584 2966 3190 
Q 3341 2797 3341 1997 
z
" transform="scale(0.015625)"/>
      <path id="DejaVuSans-6e" d="M 3513 2113 
L 3513 0 
L 2938 0 
L 2938 2094 
Q 2938 2591 2744 2837 
Q 2550 3084 2163 3084 
Q 1697 3084 1428 2787 
Q 1159 2491 1159 1978 
L 1159 0 
L 581 0 
L 581 3500 
L 1159 3500 
L 1159 2956 
Q 1366 3272 1645 3428 
Q 1925 3584 2291 3584 
Q 2894 3584 3203 3211 
Q 3513 2838 3513 2113 
z
" transform="scale(0.015625)"/>
      <path id="DejaVuSans-64" d="M 2906 2969 
L 2906 4863 
L 3481 4863 
L 3481 0 
L 2906 0 
L 2906 525 
Q 2725 213 2448 61 
Q 2172 -91 1784 -91 
Q 1150 -91 751 415 
Q 353 922 353 1747 
Q 353 2572 751 3078 
Q 1150 3584 1784 3584 
Q 2172 3584 2448 3432 
Q 2725 3281 2906 2969 
z
M 947 1747 
Q 947 1113 1208 752 
Q 1469 391 1925 391 
Q 2381 391 2643 752 
Q 2906 1113 2906 1747 
Q 2906 2381 2643 2742 
Q 2381 3103 1925 3103 
Q 1469 3103 1208 2742 
Q 947 2381 947 1747 
z
" transform="scale(0.015625)"/>
      <path id="DejaVuSans-20" transform="scale(0.015625)"/>
      <path id="DejaVuSans-38" d="M 2034 2216 
Q 1584 2216 1326 1975 
Q 1069 1734 1069 1313 
Q 1069 891 1326 650 
Q 1584 409 2034 409 
Q 2484 409 2743 651 
Q 3003 894 3003 1313 
Q 3003 1734 2745 1975 
Q 2488 2216 2034 2216 
z
M 1403 2484 
Q 997 2584 770 2862 
Q 544 3141 544 3541 
Q 544 4100 942 4425 
Q 1341 4750 2034 4750 
Q 2731 4750 3128 4425 
Q 3525 4100 3525 3541 
Q 3525 3141 3298 2862 
Q 3072 2584 2669 2484 
Q 3125 2378 3379 2068 
Q 3634 1759 3634 1313 
Q 3634 634 3220 271 
Q 2806 -91 2034 -91 
Q 1263 -91 848 271 
Q 434 634 434 1313 
Q 434 1759 690 2068 
Q 947 2378 1403 2484 
z
M 1172 3481 
Q 1172 3119 1398 2916 
Q 1625 2713 2034 2713 
Q 2441 2713 2670 2916 
Q 2900 3119 2900 3481 
Q 2900 3844 2670 4047 
Q 2441 4250 2034 4250 
Q 1625 4250 1398 4047 
Q 1172 3844 1172 3481 
z
" transform="scale(0.015625)"/>
     </defs>
     <use xlink:href="#DejaVuSans-42"/>
     <use xlink:href="#DejaVuSans-61" transform="translate(68.603516 0)"/>
     <use xlink:href="#DejaVuSans-6e" transform="translate(129.882812 0)"/>
     <use xlink:href="#DejaVuSans-64" transform="translate(193.261719 0)"/>
     <use xlink:href="#DejaVuSans-20" transform="translate(256.738281 0)"/>
     <use xlink:href="#DejaVuSans-38" transform="translate(288.525391 0)"/>
     <use xlink:href="#DejaVuSans-30" transform="translate(352.148438 0)"/>
     <use xlink:href="#DejaVuSans-30" transform="translate(415.771484 0)"/>
     <use xlink:href="#DejaVuSans-30" transform="translate(479.394531 0)"/>
    </g>
   </g>
   <g id="text_12">
    <g clip-path="url(#pbe8850ebd7)">
     <!-- 48.8 -->
     <g transform="translate(321.786873 123.575542) rotate(-270.103494) scale(0.09 -0.09)">
      <defs>
       <path id="DejaVuSans-2e" d="M 684 794 
L 1344 794 
L 1344 0 
L 684 0 
L 684 794 
z
" transform="scale(0.015625)"/>
      </defs>
      <use xlink:href="#DejaVuSans-34"/>
      <use xlink:href="#DejaVuSans-38" transform="translate(63.623047 0)"/>
      <use xlink:href="#DejaVuSans-2e" transform="translate(127.246094 0)"/>
      <use xlink:href="#DejaVuSans-38" transform="translate(159.033203 0)"/>
     </g>
    </g>
   </g>
   <g id="text_13">
    <g clip-path="url(#pbe8850ebd7)">
     <!-- 48.8 -->
     <g transform="translate(85.276698 123.576911) rotate(-270.134817) scale(0.09 -0.09)">
      <use xlink:href="#DejaVuSans-34"/>
      <use xlink:href="#DejaVuSans-38" transform="translate(63.623047 0)"/>
      <use xlink:href="#DejaVuSans-2e" transform="translate(127.246094 0)"/>
      <use xlink:href="#DejaVuSans-38" transform="translate(159.033203 0)"/>
     </g>
    </g>
   </g>
   <g id="text_14">
    <g clip-path="url(#pbe8850ebd7)">
     <!-- 49.6 -->
     <g transform="translate(320.067567 123.582869) rotate(-270.270348) scale(0.09 -0.09)">
      <defs>
       <path id="DejaVuSans-39" d="M 703 97 
L 703 672 
Q 941 559 1184 500 
Q 1428 441 1663 441 
Q 2288 441 2617 861 
Q 2947 1281 2994 2138 
Q 2813 1869 2534 1725 
Q 2256 1581 1919 1581 
Q 1219 1581 811 2004 
Q 403 2428 403 3163 
Q 403 3881 828 4315 
Q 1253 4750 1959 4750 
Q 2769 4750 3195 4129 
Q 3622 3509 3622 2328 
Q 3622 1225 3098 567 
Q 2575 -91 1691 -91 
Q 1453 -91 1209 -44 
Q 966 3 703 97 
z
M 1959 2075 
Q 2384 2075 2632 2365 
Q 2881 2656 2881 3163 
Q 2881 3666 2632 3958 
Q 2384 4250 1959 4250 
Q 1534 4250 1286 3958 
Q 1038 3666 1038 3163 
Q 1038 2656 1286 2365 
Q 1534 2075 1959 2075 
z
" transform="scale(0.015625)"/>
       <path id="DejaVuSans-36" d="M 2113 2584 
Q 1688 2584 1439 2293 
Q 1191 2003 1191 1497 
Q 1191 994 1439 701 
Q 1688 409 2113 409 
Q 2538 409 2786 701 
Q 3034 994 3034 1497 
Q 3034 2003 2786 2293 
Q 2538 2584 2113 2584 
z
M 3366 4563 
L 3366 3988 
Q 3128 4100 2886 4159 
Q 2644 4219 2406 4219 
Q 1781 4219 1451 3797 
Q 1122 3375 1075 2522 
Q 1259 2794 1537 2939 
Q 1816 3084 2150 3084 
Q 2853 3084 3261 2657 
Q 3669 2231 3669 1497 
Q 3669 778 3244 343 
Q 2819 -91 2113 -91 
Q 1303 -91 875 529 
Q 447 1150 447 2328 
Q 447 3434 972 4092 
Q 1497 4750 2381 4750 
Q 2619 4750 2861 4703 
Q 3103 4656 3366 4563 
z
" transform="scale(0.015625)"/>
      </defs>
      <use xlink:href="#DejaVuSans-34"/>
      <use xlink:href="#DejaVuSans-39" transform="translate(63.623047 0)"/>
      <use xlink:href="#DejaVuSans-2e" transform="translate(127.246094 0)"/>
      <use xlink:href="#DejaVuSans-36" transform="translate(159.033203 0)"/>
     </g>
    </g>
   </g>
   <g id="text_15">
    <g clip-path="url(#pbe8850ebd7)">
     <!-- 49.6 -->
     <g transform="translate(86.980655 123.586493) rotate(-270.352164) scale(0.09 -0.09)">
      <use xlink:href="#DejaVuSans-34"/>
      <use xlink:href="#DejaVuSans-39" transform="translate(63.623047 0)"/>
      <use xlink:href="#DejaVuSans-2e" transform="translate(127.246094 0)"/>
      <use xlink:href="#DejaVuSans-36" transform="translate(159.033203 0)"/>
     </g>
    </g>
   </g>
   <g id="text_16">
    <g clip-path="url(#pbe8850ebd7)">
     <!-- 50.4 -->
     <g transform="translate(318.348289 123.590279) rotate(-270.437162) scale(0.09 -0.09)">
      <use xlink:href="#DejaVuSans-35"/>
      <use xlink:href="#DejaVuSans-30" transform="translate(63.623047 0)"/>
      <use xlink:href="#DejaVuSans-2e" transform="translate(127.246094 0)"/>
      <use xlink:href="#DejaVuSans-34" transform="translate(159.033203 0)"/>
     </g>
    </g>
   </g>
   <g id="text_17">
    <g clip-path="url(#pbe8850ebd7)">
     <!-- 50.4 -->
     <g transform="translate(88.684659 123.596216) rotate(-270.569444) scale(0.09 -0.09)">
      <use xlink:href="#DejaVuSans-35"/>
      <use xlink:href="#DejaVuSans-30" transform="translate(63.623047 0)"/>
      <use xlink:href="#DejaVuSans-2e" transform="translate(127.246094 0)"/>
      <use xlink:href="#DejaVuSans-34" transform="translate(159.033203 0)"/>
     </g>
    </g>
   </g>
   <g id="text_18">
    <g clip-path="url(#pbe8850ebd7)">
     <!-- 51.2 -->
     <g transform="translate(316.629043 123.597772) rotate(-270.603913) scale(0.09 -0.09)">
      <defs>
       <path id="DejaVuSans-31" d="M 794 531 
L 1825 531 
L 1825 4091 
L 703 3866 
L 703 4441 
L 1819 4666 
L 2450 4666 
L 2450 531 
L 3481 531 
L 3481 0 
L 794 0 
L 794 531 
z
" transform="scale(0.015625)"/>
      </defs>
      <use xlink:href="#DejaVuSans-35"/>
      <use xlink:href="#DejaVuSans-31" transform="translate(63.623047 0)"/>
      <use xlink:href="#DejaVuSans-2e" transform="translate(127.246094 0)"/>
      <use xlink:href="#DejaVuSans-32" transform="translate(159.033203 0)"/>
     </g>
    </g>
   </g>
   <g id="text_19">
    <g clip-path="url(#pbe8850ebd7)">
     <!-- 51.2 -->
     <g transform="translate(90.388719 123.606078) rotate(-270.786617) scale(0.09 -0.09)">
      <use xlink:href="#DejaVuSans-35"/>
      <use xlink:href="#DejaVuSans-31" transform="translate(63.623047 0)"/>
      <use xlink:href="#DejaVuSans-2e" transform="translate(127.246094 0)"/>
      <use xlink:href="#DejaVuSans-32" transform="translate(159.033203 0)"/>
     </g>
    </g>
   </g>
   <g id="text_20">
    <g clip-path="url(#pbe8850ebd7)">
     <!-- 52.0 -->
     <g transform="translate(314.909835 123.605345) rotate(-270.770576) scale(0.09 -0.09)">
      <use xlink:href="#DejaVuSans-35"/>
      <use xlink:href="#DejaVuSans-32" transform="translate(63.623047 0)"/>
      <use xlink:href="#DejaVuSans-2e" transform="translate(127.246094 0)"/>
      <use xlink:href="#DejaVuSans-30" transform="translate(159.033203 0)"/>
     </g>
    </g>
   </g>
   <g id="text_21">
    <g clip-path="url(#pbe8850ebd7)">
     <!-- 52.0 -->
     <g transform="translate(92.092843 123.616076) rotate(-271.003643) scale(0.09 -0.09)">
      <use xlink:href="#DejaVuSans-35"/>
      <use xlink:href="#DejaVuSans-32" transform="translate(63.623047 0)"/>
      <use xlink:href="#DejaVuSans-2e" transform="translate(127.246094 0)"/>
      <use xlink:href="#DejaVuSans-30" transform="translate(159.033203 0)"/>
     </g>
    </g>
   </g>
   <g id="text_22">
    <g clip-path="url(#pbe8850ebd7)">
     <!-- 52.8 -->
     <g transform="translate(313.190668 123.612997) rotate(-270.937127) scale(0.09 -0.09)">
      <use xlink:href="#DejaVuSans-35"/>
      <use xlink:href="#DejaVuSans-32" transform="translate(63.623047 0)"/>
      <use xlink:href="#DejaVuSans-2e" transform="translate(127.246094 0)"/>
      <use xlink:href="#DejaVuSans-38" transform="translate(159.033203 0)"/>
     </g>
    </g>
   </g>
   <g id="text_23">
    <g clip-path="url(#pbe8850ebd7)">
     <!-- 52.8 -->
     <g transform="translate(93.797037 123.626209) rotate(-271.220481) scale(0.09 -0.09)">
      <use xlink:href="#DejaVuSans-35"/>
      <use xlink:href="#DejaVuSans-32" transform="translate(63.623047 0)"/>
      <use xlink:href="#DejaVuSans-2e" transform="translate(127.246094 0)"/>
      <use xlink:href="#DejaVuSans-38" transform="translate(159.033203 0)"/>
     </g>
    </g>
   </g>
   <g id="text_24">
    <g clip-path="url(#pbe8850ebd7)">
     <!-- 53.6 -->
     <g transform="translate(311.471548 123.620727) rotate(-271.103543) scale(0.09 -0.09)">
      <defs>
       <path id="DejaVuSans-33" d="M 2597 2516 
Q 3050 2419 3304 2112 
Q 3559 1806 3559 1356 
Q 3559 666 3084 287 
Q 2609 -91 1734 -91 
Q 1441 -91 1130 -33 
Q 819 25 488 141 
L 488 750 
Q 750 597 1062 519 
Q 1375 441 1716 441 
Q 2309 441 2620 675 
Q 2931 909 2931 1356 
Q 2931 1769 2642 2001 
Q 2353 2234 1838 2234 
L 1294 2234 
L 1294 2753 
L 1863 2753 
Q 2328 2753 2575 2939 
Q 2822 3125 2822 3475 
Q 2822 3834 2567 4026 
Q 2313 4219 1838 4219 
Q 1578 4219 1281 4162 
Q 984 4106 628 3988 
L 628 4550 
Q 988 4650 1302 4700 
Q 1616 4750 1894 4750 
Q 2613 4750 3031 4423 
Q 3450 4097 3450 3541 
Q 3450 3153 3228 2886 
Q 3006 2619 2597 2516 
z
" transform="scale(0.015625)"/>
      </defs>
      <use xlink:href="#DejaVuSans-35"/>
      <use xlink:href="#DejaVuSans-33" transform="translate(63.623047 0)"/>
      <use xlink:href="#DejaVuSans-2e" transform="translate(127.246094 0)"/>
      <use xlink:href="#DejaVuSans-36" transform="translate(159.033203 0)"/>
     </g>
    </g>
   </g>
   <g id="text_25">
    <g clip-path="url(#pbe8850ebd7)">
     <!-- 53.6 -->
     <g transform="translate(95.50131 123.636474) rotate(-271.43709) scale(0.09 -0.09)">
      <use xlink:href="#DejaVuSans-35"/>
      <use xlink:href="#DejaVuSans-33" transform="translate(63.623047 0)"/>
      <use xlink:href="#DejaVuSans-2e" transform="translate(127.246094 0)"/>
      <use xlink:href="#DejaVuSans-36" transform="translate(159.033203 0)"/>
     </g>
    </g>
   </g>
   <g id="text_26">
    <g clip-path="url(#pbe8850ebd7)">
     <!-- 54.4 -->
     <g transform="translate(309.752477 123.628534) rotate(-271.269799) scale(0.09 -0.09)">
      <use xlink:href="#DejaVuSans-35"/>
      <use xlink:href="#DejaVuSans-34" transform="translate(63.623047 0)"/>
      <use xlink:href="#DejaVuSans-2e" transform="translate(127.246094 0)"/>
      <use xlink:href="#DejaVuSans-34" transform="translate(159.033203 0)"/>
     </g>
    </g>
   </g>
   <g id="text_27">
    <g clip-path="url(#pbe8850ebd7)">
     <!-- 54.4 -->
     <g transform="translate(97.205668 123.646868) rotate(-271.65343) scale(0.09 -0.09)">
      <use xlink:href="#DejaVuSans-35"/>
      <use xlink:href="#DejaVuSans-34" transform="translate(63.623047 0)"/>
      <use xlink:href="#DejaVuSans-2e" transform="translate(127.246094 0)"/>
      <use xlink:href="#DejaVuSans-34" transform="translate(159.033203 0)"/>
     </g>
    </g>
   </g>
   <g id="text_28">
    <g clip-path="url(#pbe8850ebd7)">
     <!-- 55.2 -->
     <g transform="translate(308.033462 123.636416) rotate(-271.435872) scale(0.09 -0.09)">
      <use xlink:href="#DejaVuSans-35"/>
      <use xlink:href="#DejaVuSans-35" transform="translate(63.623047 0)"/>
      <use xlink:href="#DejaVuSans-2e" transform="translate(127.246094 0)"/>
      <use xlink:href="#DejaVuSans-32" transform="translate(159.033203 0)"/>
     </g>
    </g>
   </g>
   <g id="text_29">
    <g clip-path="url(#pbe8850ebd7)">
     <!-- 55.2 -->
     <g transform="translate(98.91012 123.657388) rotate(-271.869463) scale(0.09 -0.09)">
      <use xlink:href="#DejaVuSans-35"/>
      <use xlink:href="#DejaVuSans-35" transform="translate(63.623047 0)"/>
      <use xlink:href="#DejaVuSans-2e" transform="translate(127.246094 0)"/>
      <use xlink:href="#DejaVuSans-32" transform="translate(159.033203 0)"/>
     </g>
    </g>
   </g>
   <g id="text_30">
    <g clip-path="url(#pbe8850ebd7)">
     <!-- 56.0 -->
     <g transform="translate(306.314505 123.644371) rotate(-271.601737) scale(0.09 -0.09)">
      <use xlink:href="#DejaVuSans-35"/>
      <use xlink:href="#DejaVuSans-36" transform="translate(63.623047 0)"/>
      <use xlink:href="#DejaVuSans-2e" transform="translate(127.246094 0)"/>
      <use xlink:href="#DejaVuSans-30" transform="translate(159.033203 0)"/>
     </g>
    </g>
   </g>
   <g id="text_31">
    <g clip-path="url(#pbe8850ebd7)">
     <!-- 56.0 -->
     <g transform="translate(100.614672 123.668033) rotate(-272.085147) scale(0.09 -0.09)">
      <use xlink:href="#DejaVuSans-35"/>
      <use xlink:href="#DejaVuSans-36" transform="translate(63.623047 0)"/>
      <use xlink:href="#DejaVuSans-2e" transform="translate(127.246094 0)"/>
      <use xlink:href="#DejaVuSans-30" transform="translate(159.033203 0)"/>
     </g>
    </g>
   </g>
   <g id="text_32">
    <g clip-path="url(#pbe8850ebd7)">
     <!-- 56.8 -->
     <g transform="translate(148.562248 38.883908) rotate(-5.57151) scale(0.09 -0.09)">
      <use xlink:href="#DejaVuSans-35"/>
      <use xlink:href="#DejaVuSans-36" transform="translate(63.623047 0)"/>
      <use xlink:href="#DejaVuSans-2e" transform="translate(127.246094 0)"/>
      <use xlink:href="#DejaVuSans-38" transform="translate(159.033203 0)"/>
     </g>
    </g>
   </g>
   <g id="text_33">
    <g clip-path="url(#pbe8850ebd7)">
     <!-- 56.8 -->
     <g transform="translate(302.218602 103.398985) rotate(-275.441366) scale(0.09 -0.09)">
      <use xlink:href="#DejaVuSans-35"/>
      <use xlink:href="#DejaVuSans-36" transform="translate(63.623047 0)"/>
      <use xlink:href="#DejaVuSans-2e" transform="translate(127.246094 0)"/>
      <use xlink:href="#DejaVuSans-38" transform="translate(159.033203 0)"/>
     </g>
    </g>
   </g>
   <g id="text_34">
    <g clip-path="url(#pbe8850ebd7)">
     <!-- 56.8 -->
     <g transform="translate(102.31933 123.678798) rotate(-272.300444) scale(0.09 -0.09)">
      <use xlink:href="#DejaVuSans-35"/>
      <use xlink:href="#DejaVuSans-36" transform="translate(63.623047 0)"/>
      <use xlink:href="#DejaVuSans-2e" transform="translate(127.246094 0)"/>
      <use xlink:href="#DejaVuSans-38" transform="translate(159.033203 0)"/>
     </g>
    </g>
   </g>
   <g id="text_35">
    <g clip-path="url(#pbe8850ebd7)">
     <!-- 56.8 -->
     <g transform="translate(195.743508 216.67421) rotate(-340.655019) scale(0.09 -0.09)">
      <use xlink:href="#DejaVuSans-35"/>
      <use xlink:href="#DejaVuSans-36" transform="translate(63.623047 0)"/>
      <use xlink:href="#DejaVuSans-2e" transform="translate(127.246094 0)"/>
      <use xlink:href="#DejaVuSans-38" transform="translate(159.033203 0)"/>
     </g>
    </g>
   </g>
   <g id="text_36">
    <g clip-path="url(#pbe8850ebd7)">
     <!-- 57.6 -->
     <g transform="translate(148.680754 42.708808) rotate(-7.455574) scale(0.09 -0.09)">
      <defs>
       <path id="DejaVuSans-37" d="M 525 4666 
L 3525 4666 
L 3525 4397 
L 1831 0 
L 1172 0 
L 2766 4134 
L 525 4134 
L 525 4666 
z
" transform="scale(0.015625)"/>
      </defs>
      <use xlink:href="#DejaVuSans-35"/>
      <use xlink:href="#DejaVuSans-37" transform="translate(63.623047 0)"/>
      <use xlink:href="#DejaVuSans-2e" transform="translate(127.246094 0)"/>
      <use xlink:href="#DejaVuSans-36" transform="translate(159.033203 0)"/>
     </g>
    </g>
   </g>
   <g id="text_37">
    <g clip-path="url(#pbe8850ebd7)">
     <!-- 57.6 -->
     <g transform="translate(302.876785 123.660497) rotate(-271.932753) scale(0.09 -0.09)">
      <use xlink:href="#DejaVuSans-35"/>
      <use xlink:href="#DejaVuSans-37" transform="translate(63.623047 0)"/>
      <use xlink:href="#DejaVuSans-2e" transform="translate(127.246094 0)"/>
      <use xlink:href="#DejaVuSans-36" transform="translate(159.033203 0)"/>
     </g>
    </g>
   </g>
   <g id="text_38">
    <g clip-path="url(#pbe8850ebd7)">
     <!-- 57.6 -->
     <g transform="translate(108.681478 123.366196) rotate(-83.833365) scale(0.09 -0.09)">
      <use xlink:href="#DejaVuSans-35"/>
      <use xlink:href="#DejaVuSans-37" transform="translate(63.623047 0)"/>
      <use xlink:href="#DejaVuSans-2e" transform="translate(127.246094 0)"/>
      <use xlink:href="#DejaVuSans-36" transform="translate(159.033203 0)"/>
     </g>
    </g>
   </g>
   <g id="text_39">
    <g clip-path="url(#pbe8850ebd7)">
     <!-- 57.6 -->
     <g transform="translate(195.931484 209.441234) rotate(-358.307333) scale(0.09 -0.09)">
      <use xlink:href="#DejaVuSans-35"/>
      <use xlink:href="#DejaVuSans-37" transform="translate(63.623047 0)"/>
      <use xlink:href="#DejaVuSans-2e" transform="translate(127.246094 0)"/>
      <use xlink:href="#DejaVuSans-36" transform="translate(159.033203 0)"/>
     </g>
    </g>
   </g>
   <g id="text_40">
    <g clip-path="url(#pbe8850ebd7)">
     <!-- 57.6 -->
     <g transform="translate(243.43938 229.042313) rotate(-349.212342) scale(0.09 -0.09)">
      <use xlink:href="#DejaVuSans-35"/>
      <use xlink:href="#DejaVuSans-37" transform="translate(63.623047 0)"/>
      <use xlink:href="#DejaVuSans-2e" transform="translate(127.246094 0)"/>
      <use xlink:href="#DejaVuSans-36" transform="translate(159.033203 0)"/>
     </g>
    </g>
   </g>
   <g id="text_41">
    <g clip-path="url(#pbe8850ebd7)">
     <!-- 58.4 -->
     <g transform="translate(305.40996 164.165196) rotate(-86.53764) scale(0.09 -0.09)">
      <use xlink:href="#DejaVuSans-35"/>
      <use xlink:href="#DejaVuSans-38" transform="translate(63.623047 0)"/>
      <use xlink:href="#DejaVuSans-2e" transform="translate(127.246094 0)"/>
      <use xlink:href="#DejaVuSans-34" transform="translate(159.033203 0)"/>
     </g>
    </g>
   </g>
   <g id="text_42">
    <g clip-path="url(#pbe8850ebd7)">
     <!-- 58.4 -->
     <g transform="translate(110.064247 123.411642) rotate(-81.66083) scale(0.09 -0.09)">
      <use xlink:href="#DejaVuSans-35"/>
      <use xlink:href="#DejaVuSans-38" transform="translate(63.623047 0)"/>
      <use xlink:href="#DejaVuSans-2e" transform="translate(127.246094 0)"/>
      <use xlink:href="#DejaVuSans-34" transform="translate(159.033203 0)"/>
     </g>
    </g>
   </g>
   <g id="text_43">
    <g clip-path="url(#pbe8850ebd7)">
     <!-- 58.4 -->
     <g transform="translate(267.532461 175.997817) rotate(-333.566737) scale(0.09 -0.09)">
      <use xlink:href="#DejaVuSans-35"/>
      <use xlink:href="#DejaVuSans-38" transform="translate(63.623047 0)"/>
      <use xlink:href="#DejaVuSans-2e" transform="translate(127.246094 0)"/>
      <use xlink:href="#DejaVuSans-34" transform="translate(159.033203 0)"/>
     </g>
    </g>
   </g>
   <g id="text_44">
    <g clip-path="url(#pbe8850ebd7)">
     <!-- 59.2 -->
     <g transform="translate(283.342575 53.854909) rotate(-303.729161) scale(0.09 -0.09)">
      <use xlink:href="#DejaVuSans-35"/>
      <use xlink:href="#DejaVuSans-39" transform="translate(63.623047 0)"/>
      <use xlink:href="#DejaVuSans-2e" transform="translate(127.246094 0)"/>
      <use xlink:href="#DejaVuSans-32" transform="translate(159.033203 0)"/>
     </g>
    </g>
   </g>
   <g id="text_45">
    <g clip-path="url(#pbe8850ebd7)">
     <!-- 59.2 -->
     <g transform="translate(109.888315 201.218363) rotate(-82.298643) scale(0.09 -0.09)">
      <use xlink:href="#DejaVuSans-35"/>
      <use xlink:href="#DejaVuSans-39" transform="translate(63.623047 0)"/>
      <use xlink:href="#DejaVuSans-2e" transform="translate(127.246094 0)"/>
      <use xlink:href="#DejaVuSans-32" transform="translate(159.033203 0)"/>
     </g>
    </g>
   </g>
   <g id="text_46">
    <g clip-path="url(#pbe8850ebd7)">
     <!-- 60.0 -->
     <g transform="translate(168.005775 70.255693) rotate(-310.933786) scale(0.09 -0.09)">
      <use xlink:href="#DejaVuSans-36"/>
      <use xlink:href="#DejaVuSans-30" transform="translate(63.623047 0)"/>
      <use xlink:href="#DejaVuSans-2e" transform="translate(127.246094 0)"/>
      <use xlink:href="#DejaVuSans-30" transform="translate(159.033203 0)"/>
     </g>
    </g>
   </g>
   <g id="text_47">
    <g clip-path="url(#pbe8850ebd7)">
     <!-- 60.8 -->
     <g transform="translate(207.637241 66.567596) rotate(-277.182392) scale(0.09 -0.09)">
      <use xlink:href="#DejaVuSans-36"/>
      <use xlink:href="#DejaVuSans-30" transform="translate(63.623047 0)"/>
      <use xlink:href="#DejaVuSans-2e" transform="translate(127.246094 0)"/>
      <use xlink:href="#DejaVuSans-38" transform="translate(159.033203 0)"/>
     </g>
    </g>
   </g>
   <g id="text_48">
    <g clip-path="url(#pbe8850ebd7)">
     <!-- 61.6 -->
     <g transform="translate(156.870865 88.147623) rotate(-68.158683) scale(0.09 -0.09)">
      <use xlink:href="#DejaVuSans-36"/>
      <use xlink:href="#DejaVuSans-31" transform="translate(63.623047 0)"/>
      <use xlink:href="#DejaVuSans-2e" transform="translate(127.246094 0)"/>
      <use xlink:href="#DejaVuSans-36" transform="translate(159.033203 0)"/>
     </g>
    </g>
   </g>
   <g id="text_49">
    <g clip-path="url(#pbe8850ebd7)">
     <!-- 61.6 -->
     <g transform="translate(150.98039 163.901675) rotate(-279.204708) scale(0.09 -0.09)">
      <use xlink:href="#DejaVuSans-36"/>
      <use xlink:href="#DejaVuSans-31" transform="translate(63.623047 0)"/>
      <use xlink:href="#DejaVuSans-2e" transform="translate(127.246094 0)"/>
      <use xlink:href="#DejaVuSans-36" transform="translate(159.033203 0)"/>
     </g>
    </g>
   </g>
   <g id="text_50">
    <g clip-path="url(#pbe8850ebd7)">
     <!-- 62.4 -->
     <g transform="translate(163.29775 167.882643) rotate(-313.803397) scale(0.09 -0.09)">
      <use xlink:href="#DejaVuSans-36"/>
      <use xlink:href="#DejaVuSans-32" transform="translate(63.623047 0)"/>
      <use xlink:href="#DejaVuSans-2e" transform="translate(127.246094 0)"/>
      <use xlink:href="#DejaVuSans-34" transform="translate(159.033203 0)"/>
     </g>
    </g>
   </g>
  </g>
 </g>
 <defs>
  <clipPath id="pbe8850ebd7">
   <rect x="62.84" y="26.88" width="286.36" height="213.4"/>
  </clipPath>
 </defs>
</svg>
