<?xml version="1.0" encoding="utf-8" standalone="no"?>
<!DOCTYPE svg PUBLIC "-//W3C//DTD SVG 1.1//EN"
  "http://www.w3.org/Graphics/SVG/1.1/DTD/svg11.dtd">
<svg xmlns:xlink="http://www.w3.org/1999/xlink" width="360pt" height="288pt" viewBox="0 0 360 288" xmlns="http://www.w3.org/2000/svg" version="1.1">
 <metadata>
  <rdf:RDF xmlns:dc="http://purl.org/dc/elements/1.1/" xmlns:cc="http://creativecommons.org/ns#" xmlns:rdf="http://www.w3.org/1999/02/22-rdf-syntax-ns#">
   <cc:Work>
    <dc:type rdf:resource="http://purl.org/dc/dcmitype/StillImage"/>
    <dc:date>2025-10-01T16:31:18.405550</dc:date>
    <dc:format>image/svg+xml</dc:format>
    <dc:creator>
     <cc:Agent>
      <dc:title>Matplotlib v3.10.6, https://matplotlib.org/</dc:title>
     </cc:Agent>
    </dc:creator>
   </cc:Work>
  </rdf:RDF>
 </metadata>
 <defs>
  <style type="text/css">*{stroke-linejoin: round; stroke-linecap: butt}</style>
 </defs>
 <g id="figure_1">
  <g id="patch_1">
   <path d="M 0 288 
L 360 288 
L 360 0 
L 0 0 
z
" style="fill: #ffffff"/>
  </g>
  <g id="axes_1">
   <g id="patch_2">
    <path d="M 62.84 240.28 
L 349.2 240.28 
L 349.2 26.88 
L 62.84 26.88 
z
" style="fill: #ffffff"/>
   </g>
   <g id="QuadContourSet_1">
    <path d="M 86.703333 26.88 
L 87.971685 26.88 
L 87.897689 36.380776 
L 87.87241 47.600163 
L 87.869756 60.808896 
L 87.97121 76.198006 
L 87.858953 93.757994 
L 87.917818 113.137869 
L 87.961668 133.590571 
L 87.941555 154.013971 
L 88.099259 173.39493 
L 88.08846 190.956403 
L 88.054124 206.347113 
L 88.282907 219.557363 
L 88.381353 230.778089 
L 88.317509 240.28 
L 86.703333 240.28 
L 62.84 240.28 
L 62.84 230.778089 
L 62.84 219.557363 
L 62.84 206.347113 
L 62.84 190.956403 
L 62.84 173.39493 
L 62.84 154.013971 
L 62.84 133.590571 
L 62.84 113.137869 
L 62.84 93.757994 
L 62.84 76.198006 
L 62.84 60.808896 
L 62.84 47.600163 
L 62.84 36.380776 
L 62.84 26.88 
z
M 325.336667 26.88 
L 349.2 26.88 
L 349.2 36.380776 
L 349.2 47.600163 
L 349.2 60.808896 
L 349.2 76.198006 
L 349.2 93.757994 
L 349.2 113.137869 
L 349.2 133.590571 
L 349.2 154.013971 
L 349.2 173.39493 
L 349.2 190.956403 
L 349.2 206.347113 
L 349.2 219.557363 
L 349.2 230.778089 
L 349.2 240.28 
L 325.336667 240.28 
L 323.768802 240.28 
L 323.955458 230.778089 
L 323.994785 219.557363 
L 324.003581 206.347113 
L 324.069142 190.956403 
L 324.167238 173.39493 
L 324.188897 154.013971 
L 324.1907 133.590571 
L 324.28798 113.137869 
L 324.226405 93.757994 
L 324.185018 76.198006 
L 324.176558 60.808896 
L 324.03613 47.600163 
L 324.144634 36.380776 
L 324.268358 26.88 
z
" clip-path="url(#p4b28267526)" style="fill: #460a5d"/>
    <path d="M 89.559569 36.380776 
L 89.499117 47.600163 
L 89.49277 60.808896 
L 89.73539 76.198006 
L 89.466935 93.757994 
L 89.607706 113.137869 
L 89.712572 133.590571 
L 89.664473 154.013971 
L 90.041613 173.39493 
L 90.015788 190.956403 
L 89.933674 206.347113 
L 90.480797 219.557363 
L 90.716225 230.778089 
L 90.563547 240.28 
L 88.317509 240.28 
L 88.381353 230.778089 
L 88.282907 219.557363 
L 88.054124 206.347113 
L 88.08846 190.956403 
L 88.099259 173.39493 
L 87.941555 154.013971 
L 87.961668 133.590571 
L 87.917818 113.137869 
L 87.858953 93.757994 
L 87.97121 76.198006 
L 87.869756 60.808896 
L 87.87241 47.600163 
L 87.897689 36.380776 
L 87.971685 26.88 
L 89.736527 26.88 
z
M 324.144634 36.380776 
L 324.03613 47.600163 
L 324.176558 60.808896 
L 324.185018 76.198006 
L 324.226405 93.757994 
L 324.28798 113.137869 
L 324.1907 133.590571 
L 324.188897 154.013971 
L 324.167238 173.39493 
L 324.069142 190.956403 
L 324.003581 206.347113 
L 323.994785 219.557363 
L 323.955458 230.778089 
L 323.768802 240.28 
L 321.587205 240.28 
L 322.033582 230.778089 
L 322.127629 219.557363 
L 322.148666 206.347113 
L 322.305451 190.956403 
L 322.540042 173.39493 
L 322.591838 154.013971 
L 322.59615 133.590571 
L 322.82879 113.137869 
L 322.681536 93.757994 
L 322.582562 76.198006 
L 322.56233 60.808896 
L 322.226504 47.600163 
L 322.485985 36.380776 
L 322.781865 26.88 
L 324.268358 26.88 
z
" clip-path="url(#p4b28267526)" style="fill: #481c6e"/>
    <path d="M 91.221449 36.380776 
L 91.125824 47.600163 
L 91.115784 60.808896 
L 91.499571 76.198006 
L 91.074916 93.757994 
L 91.297595 113.137869 
L 91.463475 133.590571 
L 91.387391 154.013971 
L 91.983967 173.39493 
L 91.943117 190.956403 
L 91.813225 206.347113 
L 92.678687 219.557363 
L 93.051097 230.778089 
L 92.809584 240.28 
L 90.563547 240.28 
L 90.716225 230.778089 
L 90.480797 219.557363 
L 89.933674 206.347113 
L 90.015788 190.956403 
L 90.041613 173.39493 
L 89.664473 154.013971 
L 89.712572 133.590571 
L 89.607706 113.137869 
L 89.466935 93.757994 
L 89.73539 76.198006 
L 89.49277 60.808896 
L 89.499117 47.600163 
L 89.559569 36.380776 
L 89.736527 26.88 
L 91.501369 26.88 
z
M 322.485985 36.380776 
L 322.226504 47.600163 
L 322.56233 60.808896 
L 322.582562 76.198006 
L 322.681536 93.757994 
L 322.82879 113.137869 
L 322.59615 133.590571 
L 322.591838 154.013971 
L 322.540042 173.39493 
L 322.305451 190.956403 
L 322.148666 206.347113 
L 322.127629 219.557363 
L 322.033582 230.778089 
L 321.587205 240.28 
L 319.405607 240.28 
L 320.111706 230.778089 
L 320.260474 219.557363 
L 320.293751 206.347113 
L 320.54176 190.956403 
L 320.912847 173.39493 
L 320.994779 154.013971 
L 321.0016 133.590571 
L 321.3696 113.137869 
L 321.136668 93.757994 
L 320.980106 76.198006 
L 320.948102 60.808896 
L 320.416879 47.600163 
L 320.827336 36.380776 
L 321.295372 26.88 
L 322.781865 26.88 
z
" clip-path="url(#p4b28267526)" style="fill: #472d7b"/>
    <path d="M 92.883329 36.380776 
L 92.75253 47.600163 
L 92.738797 60.808896 
L 93.263752 76.198006 
L 92.682898 93.757994 
L 92.987484 113.137869 
L 93.214379 133.590571 
L 93.110309 154.013971 
L 93.926321 173.39493 
L 93.870445 190.956403 
L 93.692775 206.347113 
L 94.876577 219.557363 
L 95.385969 230.778089 
L 95.055622 240.28 
L 92.809584 240.28 
L 93.051097 230.778089 
L 92.678687 219.557363 
L 91.813225 206.347113 
L 91.943117 190.956403 
L 91.983967 173.39493 
L 91.387391 154.013971 
L 91.463475 133.590571 
L 91.297595 113.137869 
L 91.074916 93.757994 
L 91.499571 76.198006 
L 91.115784 60.808896 
L 91.125824 47.600163 
L 91.221449 36.380776 
L 91.501369 26.88 
L 93.266211 26.88 
z
M 320.827336 36.380776 
L 320.416879 47.600163 
L 320.948102 60.808896 
L 320.980106 76.198006 
L 321.136668 93.757994 
L 321.3696 113.137869 
L 321.0016 133.590571 
L 320.994779 154.013971 
L 320.912847 173.39493 
L 320.54176 190.956403 
L 320.293751 206.347113 
L 320.260474 219.557363 
L 320.111706 230.778089 
L 319.405607 240.28 
L 317.224009 240.28 
L 318.189829 230.778089 
L 318.393318 219.557363 
L 318.438835 206.347113 
L 318.778069 190.956403 
L 319.285651 173.39493 
L 319.39772 154.013971 
L 319.40705 133.590571 
L 319.91041 113.137869 
L 319.591799 93.757994 
L 319.37765 76.198006 
L 319.333875 60.808896 
L 318.607253 47.600163 
L 319.168687 36.380776 
L 319.80888 26.88 
L 321.295372 26.88 
z
" clip-path="url(#p4b28267526)" style="fill: #443b84"/>
    <path d="M 94.54521 36.380776 
L 94.379237 47.600163 
L 94.361811 60.808896 
L 95.027932 76.198006 
L 94.290879 93.757994 
L 94.677372 113.137869 
L 94.965282 133.590571 
L 94.833227 154.013971 
L 95.868675 173.39493 
L 95.797773 190.956403 
L 95.572326 206.347113 
L 97.074467 219.557363 
L 97.720841 230.778089 
L 97.301659 240.28 
L 95.055622 240.28 
L 95.385969 230.778089 
L 94.876577 219.557363 
L 93.692775 206.347113 
L 93.870445 190.956403 
L 93.926321 173.39493 
L 93.110309 154.013971 
L 93.214379 133.590571 
L 92.987484 113.137869 
L 92.682898 93.757994 
L 93.263752 76.198006 
L 92.738797 60.808896 
L 92.75253 47.600163 
L 92.883329 36.380776 
L 93.266211 26.88 
L 95.031053 26.88 
z
M 319.168687 36.380776 
L 318.607253 47.600163 
L 319.333875 60.808896 
L 319.37765 76.198006 
L 319.591799 93.757994 
L 319.91041 113.137869 
L 319.40705 133.590571 
L 319.39772 154.013971 
L 319.285651 173.39493 
L 318.778069 190.956403 
L 318.438835 206.347113 
L 318.393318 219.557363 
L 318.189829 230.778089 
L 317.224009 240.28 
L 315.042412 240.28 
L 316.267953 230.778089 
L 316.526162 219.557363 
L 316.58392 206.347113 
L 317.014378 190.956403 
L 317.658455 173.39493 
L 317.800661 154.013971 
L 317.8125 133.590571 
L 318.45122 113.137869 
L 318.046931 93.757994 
L 317.775193 76.198006 
L 317.719647 60.808896 
L 316.797627 47.600163 
L 317.510038 36.380776 
L 318.322387 26.88 
L 319.80888 26.88 
z
" clip-path="url(#p4b28267526)" style="fill: #3e4a89"/>
    <path d="M 96.20709 36.380776 
L 96.005943 47.600163 
L 95.984825 60.808896 
L 96.792113 76.198006 
L 95.898861 93.757994 
L 96.367261 113.137869 
L 96.716186 133.590571 
L 96.556145 154.013971 
L 97.811029 173.39493 
L 97.725101 190.956403 
L 97.451877 206.347113 
L 99.272357 219.557363 
L 100.055713 230.778089 
L 99.547697 240.28 
L 97.301659 240.28 
L 97.720841 230.778089 
L 97.074467 219.557363 
L 95.572326 206.347113 
L 95.797773 190.956403 
L 95.868675 173.39493 
L 94.833227 154.013971 
L 94.965282 133.590571 
L 94.677372 113.137869 
L 94.290879 93.757994 
L 95.027932 76.198006 
L 94.361811 60.808896 
L 94.379237 47.600163 
L 94.54521 36.380776 
L 95.031053 26.88 
L 96.795895 26.88 
z
M 317.510038 36.380776 
L 316.797627 47.600163 
L 317.719647 60.808896 
L 317.775193 76.198006 
L 318.046931 93.757994 
L 318.45122 113.137869 
L 317.8125 133.590571 
L 317.800661 154.013971 
L 317.658455 173.39493 
L 317.014378 190.956403 
L 316.58392 206.347113 
L 316.526162 219.557363 
L 316.267953 230.778089 
L 315.042412 240.28 
L 312.860814 240.28 
L 314.346077 230.778089 
L 314.659007 219.557363 
L 314.729005 206.347113 
L 315.250687 190.956403 
L 316.03126 173.39493 
L 316.203602 154.013971 
L 316.21795 133.590571 
L 316.992029 113.137869 
L 316.502063 93.757994 
L 316.172737 76.198006 
L 316.105419 60.808896 
L 314.988002 47.600163 
L 315.85139 36.380776 
L 316.835894 26.88 
L 318.322387 26.88 
z
" clip-path="url(#p4b28267526)" style="fill: #38598c"/>
    <path d="M 97.86897 36.380776 
L 97.63265 47.600163 
L 97.607839 60.808896 
L 98.556294 76.198006 
L 97.506842 93.757994 
L 98.057149 113.137869 
L 98.46709 133.590571 
L 98.279063 154.013971 
L 99.753383 173.39493 
L 99.65243 190.956403 
L 99.331427 206.347113 
L 101.470247 219.557363 
L 102.390585 230.778089 
L 101.793734 240.28 
L 99.547697 240.28 
L 100.055713 230.778089 
L 99.272357 219.557363 
L 97.451877 206.347113 
L 97.725101 190.956403 
L 97.811029 173.39493 
L 96.556145 154.013971 
L 96.716186 133.590571 
L 96.367261 113.137869 
L 95.898861 93.757994 
L 96.792113 76.198006 
L 95.984825 60.808896 
L 96.005943 47.600163 
L 96.20709 36.380776 
L 96.795895 26.88 
L 98.560736 26.88 
z
M 315.85139 36.380776 
L 314.988002 47.600163 
L 316.105419 60.808896 
L 316.172737 76.198006 
L 316.502063 93.757994 
L 316.992029 113.137869 
L 316.21795 133.590571 
L 316.203602 154.013971 
L 316.03126 173.39493 
L 315.250687 190.956403 
L 314.729005 206.347113 
L 314.659007 219.557363 
L 314.346077 230.778089 
L 312.860814 240.28 
L 310.679217 240.28 
L 312.424201 230.778089 
L 312.791851 219.557363 
L 312.874089 206.347113 
L 313.486996 190.956403 
L 314.404064 173.39493 
L 314.606543 154.013971 
L 314.6234 133.590571 
L 315.532839 113.137869 
L 314.957194 93.757994 
L 314.570281 76.198006 
L 314.491191 60.808896 
L 313.178376 47.600163 
L 314.192741 36.380776 
L 315.349401 26.88 
L 316.835894 26.88 
z
" clip-path="url(#p4b28267526)" style="fill: #31668e"/>
    <path d="M 99.53085 36.380776 
L 99.259357 47.600163 
L 99.230852 60.808896 
L 100.320474 76.198006 
L 99.114824 93.757994 
L 99.747038 113.137869 
L 100.217993 133.590571 
L 100.001981 154.013971 
L 101.695737 173.39493 
L 101.579758 190.956403 
L 101.210978 206.347113 
L 103.668137 219.557363 
L 104.725457 230.778089 
L 104.039771 240.28 
L 101.793734 240.28 
L 102.390585 230.778089 
L 101.470247 219.557363 
L 99.331427 206.347113 
L 99.65243 190.956403 
L 99.753383 173.39493 
L 98.279063 154.013971 
L 98.46709 133.590571 
L 98.057149 113.137869 
L 97.506842 93.757994 
L 98.556294 76.198006 
L 97.607839 60.808896 
L 97.63265 47.600163 
L 97.86897 36.380776 
L 98.560736 26.88 
L 100.325578 26.88 
z
M 314.192741 36.380776 
L 313.178376 47.600163 
L 314.491191 60.808896 
L 314.570281 76.198006 
L 314.957194 93.757994 
L 315.532839 113.137869 
L 314.6234 133.590571 
L 314.606543 154.013971 
L 314.404064 173.39493 
L 313.486996 190.956403 
L 312.874089 206.347113 
L 312.791851 219.557363 
L 312.424201 230.778089 
L 310.679217 240.28 
L 308.497619 240.28 
L 310.502324 230.778089 
L 310.924696 219.557363 
L 311.019174 206.347113 
L 311.723304 190.956403 
L 312.776868 173.39493 
L 313.009484 154.013971 
L 313.028851 133.590571 
L 314.073649 113.137869 
L 313.412326 93.757994 
L 312.967825 76.198006 
L 312.876964 60.808896 
L 311.36875 47.600163 
L 312.534092 36.380776 
L 313.862908 26.88 
L 315.349401 26.88 
z
" clip-path="url(#p4b28267526)" style="fill: #2c728e"/>
    <path d="M 101.19273 36.380776 
L 100.886063 47.600163 
L 100.853866 60.808896 
L 102.084655 76.198006 
L 100.722806 93.757994 
L 101.436927 113.137869 
L 101.968897 133.590571 
L 101.724899 154.013971 
L 103.638091 173.39493 
L 103.507086 190.956403 
L 103.090529 206.347113 
L 105.866027 219.557363 
L 107.060329 230.778089 
L 106.285809 240.28 
L 104.039771 240.28 
L 104.725457 230.778089 
L 103.668137 219.557363 
L 101.210978 206.347113 
L 101.579758 190.956403 
L 101.695737 173.39493 
L 100.001981 154.013971 
L 100.217993 133.590571 
L 99.747038 113.137869 
L 99.114824 93.757994 
L 100.320474 76.198006 
L 99.230852 60.808896 
L 99.259357 47.600163 
L 99.53085 36.380776 
L 100.325578 26.88 
L 102.09042 26.88 
z
M 312.534092 36.380776 
L 311.36875 47.600163 
L 312.876964 60.808896 
L 312.967825 76.198006 
L 313.412326 93.757994 
L 314.073649 113.137869 
L 313.028851 133.590571 
L 313.009484 154.013971 
L 312.776868 173.39493 
L 311.723304 190.956403 
L 311.019174 206.347113 
L 310.924696 219.557363 
L 310.502324 230.778089 
L 308.497619 240.28 
L 306.316022 240.28 
L 308.580448 230.778089 
L 309.05754 219.557363 
L 309.164259 206.347113 
L 309.959613 190.956403 
L 311.149672 173.39493 
L 311.412425 154.013971 
L 311.434301 133.590571 
L 312.614459 113.137869 
L 311.867457 93.757994 
L 311.365369 76.198006 
L 311.262736 60.808896 
L 309.559125 47.600163 
L 310.875443 36.380776 
L 312.376415 26.88 
L 313.862908 26.88 
z
" clip-path="url(#p4b28267526)" style="fill: #277e8e"/>
    <path d="M 102.854611 36.380776 
L 102.51277 47.600163 
L 102.47688 60.808896 
L 103.848835 76.198006 
L 102.330787 93.757994 
L 103.126815 113.137869 
L 103.719801 133.590571 
L 103.447817 154.013971 
L 105.580445 173.39493 
L 105.434414 190.956403 
L 104.970079 206.347113 
L 108.063917 219.557363 
L 109.395201 230.778089 
L 108.531846 240.28 
L 106.285809 240.28 
L 107.060329 230.778089 
L 105.866027 219.557363 
L 103.090529 206.347113 
L 103.507086 190.956403 
L 103.638091 173.39493 
L 101.724899 154.013971 
L 101.968897 133.590571 
L 101.436927 113.137869 
L 100.722806 93.757994 
L 102.084655 76.198006 
L 100.853866 60.808896 
L 100.886063 47.600163 
L 101.19273 36.380776 
L 102.09042 26.88 
L 103.855262 26.88 
z
M 310.875443 36.380776 
L 309.559125 47.600163 
L 311.262736 60.808896 
L 311.365369 76.198006 
L 311.867457 93.757994 
L 312.614459 113.137869 
L 311.434301 133.590571 
L 311.412425 154.013971 
L 311.149672 173.39493 
L 309.959613 190.956403 
L 309.164259 206.347113 
L 309.05754 219.557363 
L 308.580448 230.778089 
L 306.316022 240.28 
L 304.134424 240.28 
L 306.658572 230.778089 
L 307.190385 219.557363 
L 307.309344 206.347113 
L 308.195922 190.956403 
L 309.522477 173.39493 
L 309.815366 154.013971 
L 309.839751 133.590571 
L 311.155269 113.137869 
L 310.322589 93.757994 
L 309.762913 76.198006 
L 309.648508 60.808896 
L 307.749499 47.600163 
L 309.216794 36.380776 
L 310.889922 26.88 
L 312.376415 26.88 
z
" clip-path="url(#p4b28267526)" style="fill: #238a8d"/>
    <path d="M 104.516491 36.380776 
L 104.139477 47.600163 
L 104.099893 60.808896 
L 105.613016 76.198006 
L 103.938769 93.757994 
L 104.816704 113.137869 
L 105.470704 133.590571 
L 105.170735 154.013971 
L 107.522799 173.39493 
L 107.361743 190.956403 
L 106.84963 206.347113 
L 110.261807 219.557363 
L 110.566667 222.000734 
L 125.170131 230.778089 
L 134.43 237.820232 
L 140.69303 240.28 
L 134.43 240.28 
L 110.566667 240.28 
L 108.531846 240.28 
L 109.395201 230.778089 
L 108.063917 219.557363 
L 104.970079 206.347113 
L 105.434414 190.956403 
L 105.580445 173.39493 
L 103.447817 154.013971 
L 103.719801 133.590571 
L 103.126815 113.137869 
L 102.330787 93.757994 
L 103.848835 76.198006 
L 102.47688 60.808896 
L 102.51277 47.600163 
L 102.854611 36.380776 
L 103.855262 26.88 
L 105.620104 26.88 
z
M 309.216794 36.380776 
L 307.749499 47.600163 
L 309.648508 60.808896 
L 309.762913 76.198006 
L 310.322589 93.757994 
L 311.155269 113.137869 
L 309.839751 133.590571 
L 309.815366 154.013971 
L 309.522477 173.39493 
L 308.195922 190.956403 
L 307.309344 206.347113 
L 307.190385 219.557363 
L 306.658572 230.778089 
L 304.134424 240.28 
L 301.952826 240.28 
L 304.736696 230.778089 
L 305.323229 219.557363 
L 305.454428 206.347113 
L 306.432231 190.956403 
L 307.895281 173.39493 
L 308.218307 154.013971 
L 308.245201 133.590571 
L 309.696079 113.137869 
L 308.77772 93.757994 
L 308.160457 76.198006 
L 308.03428 60.808896 
L 305.939873 47.600163 
L 307.558145 36.380776 
L 309.403429 26.88 
L 310.889922 26.88 
z
M 182.156667 232.41372 
L 190.052238 240.28 
L 182.156667 240.28 
L 165.486825 240.28 
z
M 229.883333 236.829603 
L 236.722548 240.28 
L 229.883333 240.28 
L 226.233999 240.28 
z
" clip-path="url(#p4b28267526)" style="fill: #1f968b"/>
    <path d="M 106.178371 36.380776 
L 105.766183 47.600163 
L 105.722907 60.808896 
L 107.377197 76.198006 
L 105.54675 93.757994 
L 106.506593 113.137869 
L 107.221608 133.590571 
L 106.893653 154.013971 
L 109.465153 173.39493 
L 109.289071 190.956403 
L 108.729181 206.347113 
L 110.566667 213.370063 
L 127.366251 219.557363 
L 134.43 223.441498 
L 157.056656 230.778089 
L 158.293333 231.266569 
L 159.298101 230.778089 
L 182.156667 226.235609 
L 198.180234 230.778089 
L 201.038493 240.28 
L 190.052238 240.28 
L 182.156667 232.41372 
L 165.486825 240.28 
L 158.293333 240.28 
L 140.69303 240.28 
L 134.43 237.820232 
L 125.170131 230.778089 
L 110.566667 222.000734 
L 110.261807 219.557363 
L 106.84963 206.347113 
L 107.361743 190.956403 
L 107.522799 173.39493 
L 105.170735 154.013971 
L 105.470704 133.590571 
L 104.816704 113.137869 
L 103.938769 93.757994 
L 105.613016 76.198006 
L 104.099893 60.808896 
L 104.139477 47.600163 
L 104.516491 36.380776 
L 105.620104 26.88 
L 107.384946 26.88 
z
M 307.558145 36.380776 
L 305.939873 47.600163 
L 308.03428 60.808896 
L 308.160457 76.198006 
L 308.77772 93.757994 
L 309.696079 113.137869 
L 308.245201 133.590571 
L 308.218307 154.013971 
L 307.895281 173.39493 
L 306.432231 190.956403 
L 305.454428 206.347113 
L 305.323229 219.557363 
L 304.736696 230.778089 
L 301.952826 240.28 
L 301.473333 240.28 
L 277.61 240.28 
L 253.746667 240.28 
L 236.722548 240.28 
L 229.883333 236.829603 
L 226.233999 240.28 
L 212.326217 240.28 
L 216.408406 230.778089 
L 229.883333 227.532434 
L 245.259073 230.778089 
L 253.746667 235.168944 
L 277.61 239.629553 
L 301.473333 235.264851 
L 302.81482 230.778089 
L 303.456074 219.557363 
L 303.599513 206.347113 
L 304.66854 190.956403 
L 306.268085 173.39493 
L 306.621248 154.013971 
L 306.650651 133.590571 
L 308.236889 113.137869 
L 307.232852 93.757994 
L 306.558 76.198006 
L 306.420053 60.808896 
L 304.130248 47.600163 
L 305.899497 36.380776 
L 307.916937 26.88 
L 309.403429 26.88 
z
" clip-path="url(#p4b28267526)" style="fill: #1fa287"/>
    <path d="M 107.840251 36.380776 
L 107.39289 47.600163 
L 107.345921 60.808896 
L 109.141377 76.198006 
L 107.154732 93.757994 
L 108.196481 113.137869 
L 108.972512 133.590571 
L 108.616571 154.013971 
L 110.566667 168.033082 
L 114.332013 173.39493 
L 117.495472 190.956403 
L 114.674439 206.347113 
L 134.43 208.25441 
L 151.143754 219.557363 
L 158.293333 222.035448 
L 182.156667 220.89507 
L 206.02 222.878407 
L 229.883333 221.519687 
L 253.746667 223.403024 
L 277.61 224.948553 
L 301.473333 221.466183 
L 301.588918 219.557363 
L 301.744598 206.347113 
L 302.904849 190.956403 
L 304.640889 173.39493 
L 305.024189 154.013971 
L 305.056101 133.590571 
L 306.777699 113.137869 
L 305.687983 93.757994 
L 304.955544 76.198006 
L 304.805825 60.808896 
L 302.320622 47.600163 
L 304.240848 36.380776 
L 306.430444 26.88 
L 307.916937 26.88 
L 305.899497 36.380776 
L 304.130248 47.600163 
L 306.420053 60.808896 
L 306.558 76.198006 
L 307.232852 93.757994 
L 308.236889 113.137869 
L 306.650651 133.590571 
L 306.621248 154.013971 
L 306.268085 173.39493 
L 304.66854 190.956403 
L 303.599513 206.347113 
L 303.456074 219.557363 
L 302.81482 230.778089 
L 301.473333 235.264851 
L 277.61 239.629553 
L 253.746667 235.168944 
L 245.259073 230.778089 
L 229.883333 227.532434 
L 216.408406 230.778089 
L 212.326217 240.28 
L 206.02 240.28 
L 201.038493 240.28 
L 198.180234 230.778089 
L 182.156667 226.235609 
L 159.298101 230.778089 
L 158.293333 231.266569 
L 157.056656 230.778089 
L 134.43 223.441498 
L 127.366251 219.557363 
L 110.566667 213.370063 
L 108.729181 206.347113 
L 109.289071 190.956403 
L 109.465153 173.39493 
L 106.893653 154.013971 
L 107.221608 133.590571 
L 106.506593 113.137869 
L 105.54675 93.757994 
L 107.377197 76.198006 
L 105.722907 60.808896 
L 105.766183 47.600163 
L 106.178371 36.380776 
L 107.384946 26.88 
L 109.149788 26.88 
z
" clip-path="url(#p4b28267526)" style="fill: #28ae80"/>
    <path d="M 110.566667 26.88 
L 122.674062 26.88 
L 110.566667 29.116069 
L 109.502131 36.380776 
L 109.019596 47.600163 
L 108.968935 60.808896 
L 110.566667 73.685355 
L 112.633235 76.198006 
L 110.566667 78.765186 
L 108.762713 93.757994 
L 109.88637 113.137869 
L 110.566667 129.869698 
L 111.406096 133.590571 
L 110.566667 141.849617 
L 110.339489 154.013971 
L 110.566667 155.647136 
L 123.030019 173.39493 
L 134.43 188.876681 
L 136.308916 190.956403 
L 152.048787 206.347113 
L 158.293333 210.351328 
L 182.156667 209.754323 
L 206.02 210.76849 
L 229.883333 211.788422 
L 253.746667 209.991858 
L 266.023678 206.347113 
L 277.61 204.006009 
L 298.392863 190.956403 
L 301.473333 188.042203 
L 303.013694 173.39493 
L 303.42713 154.013971 
L 303.461551 133.590571 
L 305.318509 113.137869 
L 304.143115 93.757994 
L 303.353088 76.198006 
L 303.191597 60.808896 
L 301.473333 52.000663 
L 293.766689 47.600163 
L 301.473333 42.629558 
L 302.582199 36.380776 
L 304.943951 26.88 
L 306.430444 26.88 
L 304.240848 36.380776 
L 302.320622 47.600163 
L 304.805825 60.808896 
L 304.955544 76.198006 
L 305.687983 93.757994 
L 306.777699 113.137869 
L 305.056101 133.590571 
L 305.024189 154.013971 
L 304.640889 173.39493 
L 302.904849 190.956403 
L 301.744598 206.347113 
L 301.588918 219.557363 
L 301.473333 221.466183 
L 277.61 224.948553 
L 253.746667 223.403024 
L 229.883333 221.519687 
L 206.02 222.878407 
L 182.156667 220.89507 
L 158.293333 222.035448 
L 151.143754 219.557363 
L 134.43 208.25441 
L 114.674439 206.347113 
L 117.495472 190.956403 
L 114.332013 173.39493 
L 110.566667 168.033082 
L 108.616571 154.013971 
L 108.972512 133.590571 
L 108.196481 113.137869 
L 107.154732 93.757994 
L 109.141377 76.198006 
L 107.345921 60.808896 
L 107.39289 47.600163 
L 107.840251 36.380776 
L 109.149788 26.88 
z
" clip-path="url(#p4b28267526)" style="fill: #38b977"/>
    <path d="M 110.566667 29.116069 
L 122.674062 26.88 
L 134.43 26.88 
L 158.293333 26.88 
L 159.198657 26.88 
L 158.293333 27.206921 
L 134.43 30.786168 
L 116.219007 36.380776 
L 111.064874 47.600163 
L 110.810356 60.808896 
L 123.391255 76.198006 
L 110.566667 92.129257 
L 110.370695 93.757994 
L 110.566667 97.041591 
L 117.599665 113.137869 
L 120.782629 133.590571 
L 120.160871 154.013971 
L 131.728024 173.39493 
L 134.43 177.06435 
L 146.980717 190.956403 
L 158.293333 200.312502 
L 182.156667 199.461279 
L 206.02 199.944607 
L 229.883333 201.670973 
L 253.746667 197.779598 
L 277.61 193.736162 
L 282.037057 190.956403 
L 300.384078 173.39493 
L 301.473333 169.657563 
L 301.830071 154.013971 
L 301.867001 133.590571 
L 303.859318 113.137869 
L 302.598246 93.757994 
L 301.750632 76.198006 
L 301.577369 60.808896 
L 301.473333 60.275583 
L 279.274736 47.600163 
L 277.61 40.641478 
L 275.750567 36.380776 
L 277.61 35.964405 
L 301.473333 34.490782 
L 303.457458 26.88 
L 304.943951 26.88 
L 302.582199 36.380776 
L 301.473333 42.629558 
L 293.766689 47.600163 
L 301.473333 52.000663 
L 303.191597 60.808896 
L 303.353088 76.198006 
L 304.143115 93.757994 
L 305.318509 113.137869 
L 303.461551 133.590571 
L 303.42713 154.013971 
L 303.013694 173.39493 
L 301.473333 188.042203 
L 298.392863 190.956403 
L 277.61 204.006009 
L 266.023678 206.347113 
L 253.746667 209.991858 
L 229.883333 211.788422 
L 206.02 210.76849 
L 182.156667 209.754323 
L 158.293333 210.351328 
L 152.048787 206.347113 
L 136.308916 190.956403 
L 134.43 188.876681 
L 123.030019 173.39493 
L 110.566667 155.647136 
L 110.339489 154.013971 
L 110.566667 141.849617 
L 111.406096 133.590571 
L 110.566667 129.869698 
L 109.88637 113.137869 
L 108.762713 93.757994 
L 110.566667 78.765186 
L 112.633235 76.198006 
L 110.566667 73.685355 
L 108.968935 60.808896 
L 109.019596 47.600163 
L 109.502131 36.380776 
z
" clip-path="url(#p4b28267526)" style="fill: #50c46a"/>
    <path d="M 134.43 30.786168 
L 158.293333 27.206921 
L 159.198657 26.88 
L 174.360533 26.88 
L 158.293333 32.682014 
L 134.43 35.617189 
L 131.944451 36.380776 
L 121.241593 47.600163 
L 126.454599 60.808896 
L 134.149275 76.198006 
L 118.809429 93.757994 
L 129.371735 113.137869 
L 130.159163 133.590571 
L 131.212272 154.013971 
L 134.43 159.769061 
L 144.455698 173.39493 
L 157.652517 190.956403 
L 158.293333 191.48639 
L 168.062404 190.956403 
L 182.156667 189.873018 
L 206.02 189.28162 
L 215.095269 190.956403 
L 229.883333 192.817799 
L 238.15974 190.956403 
L 253.746667 185.869512 
L 277.61 175.800369 
L 279.972678 173.39493 
L 291.696394 154.013971 
L 290.640817 133.590571 
L 301.473333 122.495192 
L 302.400128 113.137869 
L 301.473333 99.566494 
L 298.355312 93.757994 
L 289.848281 76.198006 
L 288.047594 60.808896 
L 277.61 54.850855 
L 262.024131 47.600163 
L 253.746667 39.330547 
L 229.883333 37.738808 
L 226.057542 36.380776 
L 229.883333 35.184669 
L 253.746667 32.749692 
L 277.61 30.044602 
L 301.473333 28.788835 
L 301.970965 26.88 
L 303.457458 26.88 
L 301.473333 34.490782 
L 277.61 35.964405 
L 275.750567 36.380776 
L 277.61 40.641478 
L 279.274736 47.600163 
L 301.473333 60.275583 
L 301.577369 60.808896 
L 301.750632 76.198006 
L 302.598246 93.757994 
L 303.859318 113.137869 
L 301.867001 133.590571 
L 301.830071 154.013971 
L 301.473333 169.657563 
L 300.384078 173.39493 
L 282.037057 190.956403 
L 277.61 193.736162 
L 253.746667 197.779598 
L 229.883333 201.670973 
L 206.02 199.944607 
L 182.156667 199.461279 
L 158.293333 200.312502 
L 146.980717 190.956403 
L 134.43 177.06435 
L 131.728024 173.39493 
L 120.160871 154.013971 
L 120.782629 133.590571 
L 117.599665 113.137869 
L 110.566667 97.041591 
L 110.370695 93.757994 
L 110.566667 92.129257 
L 123.391255 76.198006 
L 110.810356 60.808896 
L 111.064874 47.600163 
L 116.219007 36.380776 
z
M 206.02 26.88 
L 213.203464 26.88 
L 206.02 30.332847 
L 194.187882 26.88 
z
" clip-path="url(#p4b28267526)" style="fill: #6ccd5a"/>
    <path d="M 134.43 35.617189 
L 158.293333 32.682014 
L 174.360533 26.88 
L 182.156667 26.88 
L 194.187882 26.88 
L 206.02 30.332847 
L 213.203464 26.88 
L 227.408901 26.88 
L 229.883333 28.111985 
L 234.485887 26.88 
L 253.746667 26.88 
L 277.61 26.88 
L 301.473333 26.88 
L 301.970965 26.88 
L 301.473333 28.788835 
L 277.61 30.044602 
L 253.746667 32.749692 
L 229.883333 35.184669 
L 226.057542 36.380776 
L 229.883333 37.738808 
L 253.746667 39.330547 
L 262.024131 47.600163 
L 277.61 54.850855 
L 288.047594 60.808896 
L 289.848281 76.198006 
L 298.355312 93.757994 
L 301.473333 99.566494 
L 302.400128 113.137869 
L 301.473333 122.495192 
L 290.640817 133.590571 
L 291.696394 154.013971 
L 279.972678 173.39493 
L 277.61 175.800369 
L 253.746667 185.869512 
L 238.15974 190.956403 
L 229.883333 192.817799 
L 215.095269 190.956403 
L 206.02 189.28162 
L 182.156667 189.873018 
L 168.062404 190.956403 
L 158.293333 191.48639 
L 157.652517 190.956403 
L 144.455698 173.39493 
L 134.43 159.769061 
L 131.212272 154.013971 
L 130.159163 133.590571 
L 129.371735 113.137869 
L 118.809429 93.757994 
L 134.149275 76.198006 
L 126.454599 60.808896 
L 121.241593 47.600163 
L 131.944451 36.380776 
z
M 131.418312 47.600163 
L 134.43 52.572526 
L 140.760571 60.808896 
L 149.163936 76.198006 
L 134.43 86.638577 
L 128.196196 93.757994 
L 134.43 104.184155 
L 143.640262 113.137869 
L 141.609996 133.590571 
L 144.238342 154.013971 
L 158.293333 172.511027 
L 161.456202 173.39493 
L 182.156667 177.367599 
L 206.02 176.301745 
L 229.883333 173.856763 
L 240.002407 173.39493 
L 253.746667 172.410055 
L 277.61 156.31197 
L 279.107442 154.013971 
L 277.61 142.608517 
L 275.39818 133.590571 
L 277.61 130.293046 
L 291.27984 113.137869 
L 286.885211 93.757994 
L 277.61 78.620734 
L 275.940528 76.198006 
L 269.33018 60.808896 
L 253.746667 54.310385 
L 237.062833 47.600163 
L 229.883333 45.768974 
L 206.02 39.890516 
L 182.156667 38.432403 
L 158.293333 39.241963 
L 134.43 44.682232 
z
" clip-path="url(#p4b28267526)" style="fill: #8bd646"/>
    <path d="M 229.883333 26.88 
L 234.485887 26.88 
L 229.883333 28.111985 
L 227.408901 26.88 
z
M 134.43 44.682232 
L 158.293333 39.241963 
L 182.156667 38.432403 
L 206.02 39.890516 
L 229.883333 45.768974 
L 237.062833 47.600163 
L 253.746667 54.310385 
L 269.33018 60.808896 
L 275.940528 76.198006 
L 277.61 78.620734 
L 286.885211 93.757994 
L 291.27984 113.137869 
L 277.61 130.293046 
L 275.39818 133.590571 
L 277.61 142.608517 
L 279.107442 154.013971 
L 277.61 156.31197 
L 253.746667 172.410055 
L 240.002407 173.39493 
L 229.883333 173.856763 
L 206.02 176.301745 
L 182.156667 177.367599 
L 161.456202 173.39493 
L 158.293333 172.511027 
L 144.238342 154.013971 
L 141.609996 133.590571 
L 143.640262 113.137869 
L 134.43 104.184155 
L 128.196196 93.757994 
L 134.43 86.638577 
L 149.163936 76.198006 
L 140.760571 60.808896 
L 134.43 52.572526 
L 131.418312 47.600163 
z
M 153.674774 60.808896 
L 158.293333 68.106397 
L 171.718318 76.198006 
L 158.293333 81.952782 
L 141.403868 93.757994 
L 158.293333 111.156215 
L 180.49821 113.137869 
L 158.293333 118.432899 
L 154.795947 133.590571 
L 158.075517 154.013971 
L 158.293333 154.300628 
L 160.302574 154.013971 
L 175.515998 133.590571 
L 182.156667 114.434137 
L 183.313169 113.137869 
L 206.02 111.004953 
L 229.402345 113.137869 
L 206.02 122.310859 
L 191.217364 133.590571 
L 193.191103 154.013971 
L 206.02 157.970399 
L 218.622611 154.013971 
L 227.204746 133.590571 
L 229.883333 115.527685 
L 230.256881 113.137869 
L 253.746667 110.337116 
L 273.902758 93.757994 
L 263.041257 76.198006 
L 253.746667 67.013727 
L 229.883333 63.665999 
L 219.826468 60.808896 
L 206.02 57.26629 
L 189.264089 60.808896 
L 182.156667 65.02747 
L 176.295387 60.808896 
L 158.293333 49.28364 
z
M 206.02 67.399802 
L 213.052158 76.198006 
L 206.02 80.589995 
L 193.060672 76.198006 
z
" clip-path="url(#p4b28267526)" style="fill: #addc30"/>
    <path d="M 158.293333 49.28364 
L 176.295387 60.808896 
L 182.156667 65.02747 
L 189.264089 60.808896 
L 206.02 57.26629 
L 219.826468 60.808896 
L 229.883333 63.665999 
L 253.746667 67.013727 
L 263.041257 76.198006 
L 273.902758 93.757994 
L 253.746667 110.337116 
L 230.256881 113.137869 
L 229.883333 115.527685 
L 227.204746 133.590571 
L 218.622611 154.013971 
L 206.02 157.970399 
L 193.191103 154.013971 
L 191.217364 133.590571 
L 206.02 122.310859 
L 229.402345 113.137869 
L 206.02 111.004953 
L 183.313169 113.137869 
L 182.156667 114.434137 
L 175.515998 133.590571 
L 160.302574 154.013971 
L 158.293333 154.300628 
L 158.075517 154.013971 
L 154.795947 133.590571 
L 158.293333 118.432899 
L 180.49821 113.137869 
L 158.293333 111.156215 
L 141.403868 93.757994 
L 158.293333 81.952782 
L 171.718318 76.198006 
L 158.293333 68.106397 
L 153.674774 60.808896 
z
M 193.060672 76.198006 
L 206.02 80.589995 
L 213.052158 76.198006 
L 206.02 67.399802 
z
M 169.747079 93.757994 
L 182.156667 97.034905 
L 206.02 95.307113 
L 229.883333 101.531428 
L 253.746667 94.401799 
L 254.529373 93.757994 
L 253.746667 91.539942 
L 229.883333 78.92746 
L 206.02 92.575246 
L 182.156667 89.787475 
z
" clip-path="url(#p4b28267526)" style="fill: #cde11d"/>
    <path d="M 182.156667 89.787475 
L 206.02 92.575246 
L 229.883333 78.92746 
L 253.746667 91.539942 
L 254.529373 93.757994 
L 253.746667 94.401799 
L 229.883333 101.531428 
L 206.02 95.307113 
L 182.156667 97.034905 
L 169.747079 93.757994 
z
" clip-path="url(#p4b28267526)" style="fill: #efe51c"/>
   </g>
   <g id="matplotlib.axis_1">
    <g id="xtick_1">
     <g id="line2d_1">
      <defs>
       <path id="mc0db382e2c" d="M 0 0 
L 0 3.5 
" style="stroke: #000000; stroke-width: 0.8"/>
      </defs>
      <g>
       <use xlink:href="#mc0db382e2c" x="126.475556" y="240.28" style="stroke: #000000; stroke-width: 0.8"/>
      </g>
     </g>
     <g id="text_1">
      <!-- −50 -->
      <g transform="translate(113.812743 256.398125) scale(0.12 -0.12)">
       <defs>
        <path id="DejaVuSans-2212" d="M 678 2272 
L 4684 2272 
L 4684 1741 
L 678 1741 
L 678 2272 
z
" transform="scale(0.015625)"/>
        <path id="DejaVuSans-35" d="M 691 4666 
L 3169 4666 
L 3169 4134 
L 1269 4134 
L 1269 2991 
Q 1406 3038 1543 3061 
Q 1681 3084 1819 3084 
Q 2600 3084 3056 2656 
Q 3513 2228 3513 1497 
Q 3513 744 3044 326 
Q 2575 -91 1722 -91 
Q 1428 -91 1123 -41 
Q 819 9 494 109 
L 494 744 
Q 775 591 1075 516 
Q 1375 441 1709 441 
Q 2250 441 2565 725 
Q 2881 1009 2881 1497 
Q 2881 1984 2565 2268 
Q 2250 2553 1709 2553 
Q 1456 2553 1204 2497 
Q 953 2441 691 2322 
L 691 4666 
z
" transform="scale(0.015625)"/>
        <path id="DejaVuSans-30" d="M 2034 4250 
Q 1547 4250 1301 3770 
Q 1056 3291 1056 2328 
Q 1056 1369 1301 889 
Q 1547 409 2034 409 
Q 2525 409 2770 889 
Q 3016 1369 3016 2328 
Q 3016 3291 2770 3770 
Q 2525 4250 2034 4250 
z
M 2034 4750 
Q 2819 4750 3233 4129 
Q 3647 3509 3647 2328 
Q 3647 1150 3233 529 
Q 2819 -91 2034 -91 
Q 1250 -91 836 529 
Q 422 1150 422 2328 
Q 422 3509 836 4129 
Q 1250 4750 2034 4750 
z
" transform="scale(0.015625)"/>
       </defs>
       <use xlink:href="#DejaVuSans-2212"/>
       <use xlink:href="#DejaVuSans-35" transform="translate(83.789062 0)"/>
       <use xlink:href="#DejaVuSans-30" transform="translate(147.412109 0)"/>
      </g>
     </g>
    </g>
    <g id="xtick_2">
     <g id="line2d_2">
      <g>
       <use xlink:href="#mc0db382e2c" x="206.02" y="240.28" style="stroke: #000000; stroke-width: 0.8"/>
      </g>
     </g>
     <g id="text_2">
      <!-- 0 -->
      <g transform="translate(202.2025 256.398125) scale(0.12 -0.12)">
       <use xlink:href="#DejaVuSans-30"/>
      </g>
     </g>
    </g>
    <g id="xtick_3">
     <g id="line2d_3">
      <g>
       <use xlink:href="#mc0db382e2c" x="285.564444" y="240.28" style="stroke: #000000; stroke-width: 0.8"/>
      </g>
     </g>
     <g id="text_3">
      <!-- 50 -->
      <g transform="translate(277.929444 256.398125) scale(0.12 -0.12)">
       <use xlink:href="#DejaVuSans-35"/>
       <use xlink:href="#DejaVuSans-30" transform="translate(63.623047 0)"/>
      </g>
     </g>
    </g>
    <g id="text_4">
     <!-- $\Theta^{\circ}$ -->
     <g transform="translate(198.4 272.011875) scale(0.12 -0.12)">
      <defs>
       <path id="DejaVuSans-398" d="M 1416 2750 
L 3622 2750 
L 3622 2219 
L 1416 2219 
L 1416 2750 
z
M 2522 4238 
Q 1834 4238 1431 3725 
Q 1025 3213 1025 2328 
Q 1025 1447 1429 934 
Q 1834 422 2522 422 
Q 3209 422 3613 934 
Q 4013 1447 4013 2328 
Q 4013 3213 3613 3725 
Q 3209 4238 2522 4238 
z
M 2522 4750 
Q 3503 4750 4090 4092 
Q 4678 3434 4678 2328 
Q 4678 1225 4091 569 
Q 3503 -91 2522 -91 
Q 1538 -91 950 566 
Q 359 1222 359 2328 
Q 359 3434 950 4094 
Q 1538 4750 2522 4750 
z
" transform="scale(0.015625)"/>
       <path id="DejaVuSans-2218" d="M 2000 2619 
Q 1750 2619 1578 2445 
Q 1406 2272 1406 2022 
Q 1406 1775 1578 1605 
Q 1750 1435 2000 1435 
Q 2250 1435 2422 1605 
Q 2594 1775 2594 2022 
Q 2594 2269 2420 2444 
Q 2247 2619 2000 2619 
z
M 2000 3022 
Q 2200 3022 2384 2945 
Q 2569 2869 2703 2725 
Q 2847 2585 2919 2406 
Q 2991 2228 2991 2022 
Q 2991 1610 2702 1324 
Q 2413 1038 1994 1038 
Q 1572 1038 1290 1319 
Q 1009 1600 1009 2022 
Q 1009 2441 1296 2731 
Q 1584 3022 2000 3022 
z
" transform="scale(0.015625)"/>
      </defs>
      <use xlink:href="#DejaVuSans-398" transform="translate(0 0.78125)"/>
      <use xlink:href="#DejaVuSans-2218" transform="translate(79.667969 39.0625) scale(0.7)"/>
     </g>
    </g>
   </g>
   <g id="matplotlib.axis_2">
    <g id="ytick_1">
     <g id="line2d_4">
      <defs>
       <path id="m90621d5641" d="M 0 0 
L -3.5 0 
" style="stroke: #000000; stroke-width: 0.8"/>
      </defs>
      <g>
       <use xlink:href="#m90621d5641" x="62.84" y="219.984151" style="stroke: #000000; stroke-width: 0.8"/>
      </g>
     </g>
     <g id="text_5">
      <!-- −40 -->
      <g transform="translate(30.514375 224.543214) scale(0.12 -0.12)">
       <defs>
        <path id="DejaVuSans-34" d="M 2419 4116 
L 825 1625 
L 2419 1625 
L 2419 4116 
z
M 2253 4666 
L 3047 4666 
L 3047 1625 
L 3713 1625 
L 3713 1100 
L 3047 1100 
L 3047 0 
L 2419 0 
L 2419 1100 
L 313 1100 
L 313 1709 
L 2253 4666 
z
" transform="scale(0.015625)"/>
       </defs>
       <use xlink:href="#DejaVuSans-2212"/>
       <use xlink:href="#DejaVuSans-34" transform="translate(83.789062 0)"/>
       <use xlink:href="#DejaVuSans-30" transform="translate(147.412109 0)"/>
      </g>
     </g>
    </g>
    <g id="ytick_2">
     <g id="line2d_5">
      <g>
       <use xlink:href="#m90621d5641" x="62.84" y="176.783648" style="stroke: #000000; stroke-width: 0.8"/>
      </g>
     </g>
     <g id="text_6">
      <!-- −20 -->
      <g transform="translate(30.514375 181.342711) scale(0.12 -0.12)">
       <defs>
        <path id="DejaVuSans-32" d="M 1228 531 
L 3431 531 
L 3431 0 
L 469 0 
L 469 531 
Q 828 903 1448 1529 
Q 2069 2156 2228 2338 
Q 2531 2678 2651 2914 
Q 2772 3150 2772 3378 
Q 2772 3750 2511 3984 
Q 2250 4219 1831 4219 
Q 1534 4219 1204 4116 
Q 875 4013 500 3803 
L 500 4441 
Q 881 4594 1212 4672 
Q 1544 4750 1819 4750 
Q 2544 4750 2975 4387 
Q 3406 4025 3406 3419 
Q 3406 3131 3298 2873 
Q 3191 2616 2906 2266 
Q 2828 2175 2409 1742 
Q 1991 1309 1228 531 
z
" transform="scale(0.015625)"/>
       </defs>
       <use xlink:href="#DejaVuSans-2212"/>
       <use xlink:href="#DejaVuSans-32" transform="translate(83.789062 0)"/>
       <use xlink:href="#DejaVuSans-30" transform="translate(147.412109 0)"/>
      </g>
     </g>
    </g>
    <g id="ytick_3">
     <g id="line2d_6">
      <g>
       <use xlink:href="#m90621d5641" x="62.84" y="133.583145" style="stroke: #000000; stroke-width: 0.8"/>
      </g>
     </g>
     <g id="text_7">
      <!-- 0 -->
      <g transform="translate(48.205 138.142208) scale(0.12 -0.12)">
       <use xlink:href="#DejaVuSans-30"/>
      </g>
     </g>
    </g>
    <g id="ytick_4">
     <g id="line2d_7">
      <g>
       <use xlink:href="#m90621d5641" x="62.84" y="90.382642" style="stroke: #000000; stroke-width: 0.8"/>
      </g>
     </g>
     <g id="text_8">
      <!-- 20 -->
      <g transform="translate(40.57 94.941704) scale(0.12 -0.12)">
       <use xlink:href="#DejaVuSans-32"/>
       <use xlink:href="#DejaVuSans-30" transform="translate(63.623047 0)"/>
      </g>
     </g>
    </g>
    <g id="ytick_5">
     <g id="line2d_8">
      <g>
       <use xlink:href="#m90621d5641" x="62.84" y="47.182139" style="stroke: #000000; stroke-width: 0.8"/>
      </g>
     </g>
     <g id="text_9">
      <!-- 40 -->
      <g transform="translate(40.57 51.741201) scale(0.12 -0.12)">
       <use xlink:href="#DejaVuSans-34"/>
       <use xlink:href="#DejaVuSans-30" transform="translate(63.623047 0)"/>
      </g>
     </g>
    </g>
    <g id="text_10">
     <!-- $\phi^{\circ}$ -->
     <g transform="translate(23.784375 141.38) rotate(-90) scale(0.13 -0.13)">
      <defs>
       <path id="DejaVuSans-Oblique-3d5" d="M 2991 4863 
L 2738 3572 
Q 3363 3572 3684 3094 
Q 4016 2606 3850 1747 
Q 3681 888 3159 400 
Q 2653 -78 2028 -78 
L 1784 -1331 
L 1213 -1331 
L 1456 -78 
Q 834 -78 509 400 
Q 178 888 347 1747 
Q 513 2606 1034 3094 
Q 1544 3572 2166 3572 
L 2419 4863 
L 2991 4863 
z
M 2128 434 
Q 2481 434 2784 756 
Q 3116 1116 3244 1747 
Q 3369 2372 3169 2738 
Q 2991 3059 2638 3059 
L 2128 434 
z
M 1556 434 
L 2066 3059 
Q 1716 3059 1413 2738 
Q 1072 2372 953 1747 
Q 834 1116 1028 756 
Q 1203 434 1556 434 
z
" transform="scale(0.015625)"/>
      </defs>
      <use xlink:href="#DejaVuSans-Oblique-3d5" transform="translate(0 0.015625)"/>
      <use xlink:href="#DejaVuSans-2218" transform="translate(73.414505 38.296875) scale(0.7)"/>
     </g>
    </g>
   </g>
   <g id="QuadContourSet_2">
    <path clip-path="url(#p4b28267526)" style="fill: none; stroke-dasharray: 1.85,0.8; stroke-dashoffset: 0; stroke: #000000; stroke-width: 0.5"/>
    <path d="M 324.268358 26.88 
L 324.144634 36.380776 
L 324.03613 47.600163 
L 324.176558 60.808896 
L 324.185018 76.198006 
L 324.226405 93.757994 
L 324.28798 113.137869 
L 324.253107 120.469719 
M 324.189542 146.711553 
L 324.188897 154.013971 
L 324.167238 173.39493 
L 324.069142 190.956403 
L 324.003581 206.347113 
L 323.994785 219.557363 
L 323.955458 230.778089 
L 323.768802 240.28 
M 88.317509 240.28 
L 88.381353 230.778089 
L 88.282907 219.557363 
L 88.054124 206.347113 
L 88.08846 190.956403 
L 88.099259 173.39493 
L 87.941555 154.013971 
L 87.948747 146.711547 
M 87.933537 120.469615 
L 87.917818 113.137869 
L 87.858953 93.757994 
L 87.97121 76.198006 
L 87.869756 60.808896 
L 87.87241 47.600163 
L 87.897689 36.380776 
L 87.971685 26.88 
" clip-path="url(#p4b28267526)" style="fill: none; stroke-dasharray: 1.85,0.8; stroke-dashoffset: 0; stroke: #000000; stroke-width: 0.5"/>
    <path d="M 322.781865 26.88 
L 322.485985 36.380776 
L 322.226504 47.600163 
L 322.56233 60.808896 
L 322.582562 76.198006 
L 322.681536 93.757994 
L 322.82879 113.137869 
L 322.744894 120.513636 
M 322.593389 146.668249 
L 322.591838 154.013971 
L 322.540042 173.39493 
L 322.305451 190.956403 
L 322.148666 206.347113 
L 322.127629 219.557363 
L 322.033582 230.778089 
L 321.587205 240.28 
M 90.563547 240.28 
L 90.716225 230.778089 
L 90.480797 219.557363 
L 89.933674 206.347113 
L 90.015788 190.956403 
L 90.041613 173.39493 
L 89.664473 154.013971 
L 89.681773 146.668217 
M 89.64552 120.513043 
L 89.607706 113.137869 
L 89.466935 93.757994 
L 89.73539 76.198006 
L 89.49277 60.808896 
L 89.499117 47.600163 
L 89.559569 36.380776 
L 89.736527 26.88 
" clip-path="url(#p4b28267526)" style="fill: none; stroke-dasharray: 1.85,0.8; stroke-dashoffset: 0; stroke: #000000; stroke-width: 0.5"/>
    <path d="M 321.295372 26.88 
L 320.827336 36.380776 
L 320.416879 47.600163 
L 320.948102 60.808896 
L 320.980106 76.198006 
L 321.136668 93.757994 
L 321.3696 113.137869 
L 321.237649 120.471455 
M 320.997218 146.711552 
L 320.994779 154.013971 
L 320.912847 173.39493 
L 320.54176 190.956403 
L 320.293751 206.347113 
L 320.260474 219.557363 
L 320.111706 230.778089 
L 319.405607 240.28 
M 92.809584 240.28 
L 93.051097 230.778089 
L 92.678687 219.557363 
L 91.813225 206.347113 
L 91.943117 190.956403 
L 91.983967 173.39493 
L 91.387391 154.013971 
L 91.414595 146.711473 
M 91.357061 120.469968 
L 91.297595 113.137869 
L 91.074916 93.757994 
L 91.499571 76.198006 
L 91.115784 60.808896 
L 91.125824 47.600163 
L 91.221449 36.380776 
L 91.501369 26.88 
" clip-path="url(#p4b28267526)" style="fill: none; stroke-dasharray: 1.85,0.8; stroke-dashoffset: 0; stroke: #000000; stroke-width: 0.5"/>
    <path d="M 319.80888 26.88 
L 319.168687 36.380776 
L 318.607253 47.600163 
L 319.333875 60.808896 
L 319.37765 76.198006 
L 319.591799 93.757994 
L 319.91041 113.137869 
L 319.729884 120.47308 
M 319.401056 146.711552 
L 319.39772 154.013971 
L 319.285651 173.39493 
L 318.778069 190.956403 
L 318.438835 206.347113 
L 318.393318 219.557363 
L 318.189829 230.778089 
L 317.224009 240.28 
M 95.055622 240.28 
L 95.385969 230.778089 
L 94.876577 219.557363 
L 93.692775 206.347113 
L 93.870445 190.956403 
L 93.926321 173.39493 
L 93.110309 154.013971 
L 93.14752 146.711403 
M 93.068827 120.470298 
L 92.987484 113.137869 
L 92.682898 93.757994 
L 93.263752 76.198006 
L 92.738797 60.808896 
L 92.75253 47.600163 
L 92.883329 36.380776 
L 93.266211 26.88 
" clip-path="url(#p4b28267526)" style="fill: none; stroke-dasharray: 1.85,0.8; stroke-dashoffset: 0; stroke: #000000; stroke-width: 0.5"/>
    <path d="M 318.322387 26.88 
L 317.510038 36.380776 
L 316.797627 47.600163 
L 317.719647 60.808896 
L 317.775193 76.198006 
L 318.046931 93.757994 
L 318.45122 113.137869 
L 318.223433 120.431924 
M 317.804869 146.754855 
L 317.800661 154.013971 
L 317.658455 173.39493 
L 317.014378 190.956403 
L 316.58392 206.347113 
L 316.526162 219.557363 
L 316.267953 230.778089 
L 315.042412 240.28 
M 97.301659 240.28 
L 97.720841 230.778089 
L 97.074467 219.557363 
L 95.572326 206.347113 
L 95.797773 190.956403 
L 95.868675 173.39493 
L 94.833227 154.013971 
L 94.880165 146.754615 
M 94.779987 120.427431 
L 94.677372 113.137869 
L 94.290879 93.757994 
L 95.027932 76.198006 
L 94.361811 60.808896 
L 94.379237 47.600163 
L 94.54521 36.380776 
L 95.031053 26.88 
" clip-path="url(#p4b28267526)" style="fill: none; stroke-dasharray: 1.85,0.8; stroke-dashoffset: 0; stroke: #000000; stroke-width: 0.5"/>
    <path d="M 316.835894 26.88 
L 315.85139 36.380776 
L 314.988002 47.600163 
L 316.105419 60.808896 
L 316.172737 76.198006 
L 316.502063 93.757994 
L 316.992029 113.137869 
L 316.714231 120.477841 
M 316.208732 146.71155 
L 316.203602 154.013971 
L 316.03126 173.39493 
L 315.250687 190.956403 
L 314.729005 206.347113 
L 314.659007 219.557363 
L 314.346077 230.778089 
L 312.860814 240.28 
M 99.547697 240.28 
L 100.055713 230.778089 
L 99.272357 219.557363 
L 97.451877 206.347113 
L 97.725101 190.956403 
L 97.811029 173.39493 
L 96.556145 154.013971 
L 96.613371 146.711199 
M 96.492369 120.471267 
L 96.367261 113.137869 
L 95.898861 93.757994 
L 96.792113 76.198006 
L 95.984825 60.808896 
L 96.005943 47.600163 
L 96.20709 36.380776 
L 96.795895 26.88 
" clip-path="url(#p4b28267526)" style="fill: none; stroke-dasharray: 1.85,0.8; stroke-dashoffset: 0; stroke: #000000; stroke-width: 0.5"/>
    <path d="M 315.349401 26.88 
L 314.192741 36.380776 
L 313.178376 47.600163 
L 314.491191 60.808896 
L 314.570281 76.198006 
L 314.957194 93.757994 
L 315.532839 113.137869 
L 315.204401 120.524242 
M 314.612606 146.668245 
L 314.606543 154.013971 
L 314.404064 173.39493 
L 313.486996 190.956403 
L 312.874089 206.347113 
L 312.791851 219.557363 
L 312.424201 230.778089 
L 310.679217 240.28 
M 101.793734 240.28 
L 102.390585 230.778089 
L 101.470247 219.557363 
L 99.331427 206.347113 
L 99.65243 190.956403 
L 99.753383 173.39493 
L 98.279063 154.013971 
L 98.346696 146.667762 
M 98.205016 120.515201 
L 98.057149 113.137869 
L 97.506842 93.757994 
L 98.556294 76.198006 
L 97.607839 60.808896 
L 97.63265 47.600163 
L 97.86897 36.380776 
L 98.560736 26.88 
" clip-path="url(#p4b28267526)" style="fill: none; stroke-dasharray: 1.85,0.8; stroke-dashoffset: 0; stroke: #000000; stroke-width: 0.5"/>
    <path d="M 313.862908 26.88 
L 312.534092 36.380776 
L 311.36875 47.600163 
L 312.876964 60.808896 
L 312.967825 76.198006 
L 313.412326 93.757994 
L 314.073649 113.137869 
L 313.698351 120.484612 
M 313.016408 146.711548 
L 313.009484 154.013971 
L 312.776868 173.39493 
L 311.723304 190.956403 
L 311.019174 206.347113 
L 310.924696 219.557363 
L 310.502324 230.778089 
L 308.497619 240.28 
M 104.039771 240.28 
L 104.725457 230.778089 
L 103.668137 219.557363 
L 101.210978 206.347113 
L 101.579758 190.956403 
L 101.695737 173.39493 
L 100.001981 154.013971 
L 100.079223 146.710908 
M 99.915933 120.472645 
L 99.747038 113.137869 
L 99.114824 93.757994 
L 100.320474 76.198006 
L 99.230852 60.808896 
L 99.259357 47.600163 
L 99.53085 36.380776 
L 100.325578 26.88 
" clip-path="url(#p4b28267526)" style="fill: none; stroke-dasharray: 1.85,0.8; stroke-dashoffset: 0; stroke: #000000; stroke-width: 0.5"/>
    <path d="M 312.376415 26.88 
L 310.875443 36.380776 
L 309.559125 47.600163 
L 311.262736 60.808896 
L 311.365369 76.198006 
L 311.867457 93.757994 
L 312.614459 113.137869 
L 312.1903 120.488747 
M 311.420247 146.711546 
L 311.412425 154.013971 
L 311.149672 173.39493 
L 309.959613 190.956403 
L 309.164259 206.347113 
L 309.05754 219.557363 
L 308.580448 230.778089 
L 306.316022 240.28 
M 106.285809 240.28 
L 107.060329 230.778089 
L 105.866027 219.557363 
L 103.090529 206.347113 
L 103.507086 190.956403 
L 103.638091 173.39493 
L 101.724899 154.013971 
L 101.812151 146.71073 
M 101.627725 120.473488 
L 101.436927 113.137869 
L 100.722806 93.757994 
L 102.084655 76.198006 
L 100.853866 60.808896 
L 100.886063 47.600163 
L 101.19273 36.380776 
L 102.09042 26.88 
" clip-path="url(#p4b28267526)" style="fill: none; stroke-dasharray: 1.85,0.8; stroke-dashoffset: 0; stroke: #000000; stroke-width: 0.5"/>
    <path d="M 310.889922 26.88 
L 309.216794 36.380776 
L 307.749499 47.600163 
L 309.648508 60.808896 
L 309.762913 76.198006 
L 310.322589 93.757994 
L 311.155269 113.137869 
L 310.682162 120.493382 
M 309.824085 146.711545 
L 309.815366 154.013971 
L 309.522477 173.39493 
L 308.195922 190.956403 
L 307.309344 206.347113 
L 307.190385 219.557363 
L 306.658572 230.778089 
L 304.134424 240.28 
M 108.531846 240.28 
L 109.395201 230.778089 
L 108.063917 219.557363 
L 104.970079 206.347113 
L 105.434414 190.956403 
L 105.580445 173.39493 
L 103.447817 154.013971 
L 103.545079 146.71053 
M 103.339524 120.474434 
L 103.126815 113.137869 
L 102.330787 93.757994 
L 103.848835 76.198006 
L 102.47688 60.808896 
L 102.51277 47.600163 
L 102.854611 36.380776 
L 103.855262 26.88 
" clip-path="url(#p4b28267526)" style="fill: none; stroke-dasharray: 1.85,0.8; stroke-dashoffset: 0; stroke: #000000; stroke-width: 0.5"/>
    <path d="M 309.403429 26.88 
L 307.558145 36.380776 
L 305.939873 47.600163 
L 308.03428 60.808896 
L 308.160457 76.198006 
L 308.77772 93.757994 
L 309.696079 113.137869 
L 309.170863 120.541721 
M 308.22798 146.668239 
L 308.218307 154.013971 
L 307.895281 173.39493 
L 306.432231 190.956403 
L 305.454428 206.347113 
L 305.323229 219.557363 
L 304.736696 230.778089 
L 301.952826 240.28 
M 140.69303 240.28 
L 134.43 237.820232 
L 125.170131 230.778089 
L 110.566667 222.000734 
L 110.261807 219.557363 
L 106.84963 206.347113 
L 107.361743 190.956403 
L 107.522799 173.39493 
L 106.747661 167.007808 
M 105.362796 140.937533 
L 105.470704 133.590571 
L 104.816704 113.137869 
L 103.938769 93.757994 
L 105.613016 76.198006 
L 104.099893 60.808896 
L 104.139477 47.600163 
L 104.516491 36.380776 
L 105.620104 26.88 
M 190.052238 240.28 
L 182.156667 232.41372 
L 165.486825 240.28 
M 236.722548 240.28 
L 229.883333 236.829603 
L 226.233999 240.28 
" clip-path="url(#p4b28267526)" style="fill: none; stroke-dasharray: 1.85,0.8; stroke-dashoffset: 0; stroke: #000000; stroke-width: 0.5"/>
    <path d="M 307.916937 26.88 
L 305.899497 36.380776 
L 304.130248 47.600163 
L 306.420053 60.808896 
L 306.558 76.198006 
L 307.232852 93.757994 
L 308.236889 113.137869 
L 306.650651 133.590571 
L 306.621248 154.013971 
L 306.268085 173.39493 
L 305.85537 177.92615 
M 303.762094 204.006438 
L 303.599513 206.347113 
L 303.456074 219.557363 
L 302.81482 230.778089 
L 301.473333 235.264851 
L 277.61 239.629553 
L 253.746667 235.168944 
L 245.259073 230.778089 
L 229.883333 227.532434 
L 216.408406 230.778089 
L 212.326217 240.28 
M 201.038493 240.28 
L 198.180234 230.778089 
L 182.156667 226.235609 
L 159.298101 230.778089 
L 158.293333 231.266569 
L 157.056656 230.778089 
L 134.43 223.441498 
L 127.366251 219.557363 
L 110.566667 213.370063 
L 108.729181 206.347113 
L 108.813602 204.026482 
M 109.42019 177.879302 
L 109.465153 173.39493 
L 106.893653 154.013971 
L 107.221608 133.590571 
L 106.506593 113.137869 
L 105.54675 93.757994 
L 107.377197 76.198006 
L 105.722907 60.808896 
L 105.766183 47.600163 
L 106.178371 36.380776 
L 107.384946 26.88 
" clip-path="url(#p4b28267526)" style="fill: none; stroke-dasharray: 1.85,0.8; stroke-dashoffset: 0; stroke: #000000; stroke-width: 0.5"/>
    <path d="M 306.430444 26.88 
L 304.240848 36.380776 
L 302.320622 47.600163 
L 304.805825 60.808896 
L 304.955544 76.198006 
L 305.687983 93.757994 
L 306.777699 113.137869 
L 305.056101 133.590571 
L 305.024189 154.013971 
L 304.640889 173.39493 
L 302.904849 190.956403 
L 301.744598 206.347113 
L 301.721006 208.348959 
M 287.645141 223.484128 
L 277.61 224.948553 
L 253.746667 223.403024 
L 229.883333 221.519687 
L 206.02 222.878407 
L 182.156667 220.89507 
L 158.293333 222.035448 
L 151.143754 219.557363 
L 134.43 208.25441 
L 114.674439 206.347113 
L 117.495472 190.956403 
L 114.332013 173.39493 
L 110.566667 168.033082 
L 108.616571 154.013971 
L 108.972512 133.590571 
L 108.196481 113.137869 
L 107.154732 93.757994 
L 109.141377 76.198006 
L 107.345921 60.808896 
L 107.39289 47.600163 
L 107.840251 36.380776 
L 109.149788 26.88 
" clip-path="url(#p4b28267526)" style="fill: none; stroke-dasharray: 1.85,0.8; stroke-dashoffset: 0; stroke: #000000; stroke-width: 0.5"/>
    <path d="M 302.000645 39.658004 
L 301.473333 42.629558 
L 293.766689 47.600163 
L 301.473333 52.000663 
L 303.191597 60.808896 
L 303.353088 76.198006 
L 304.143115 93.757994 
L 305.318509 113.137869 
L 303.461551 133.590571 
L 303.42713 154.013971 
L 303.013694 173.39493 
L 301.473333 188.042203 
L 298.392863 190.956403 
L 277.61 204.006009 
L 266.023678 206.347113 
L 253.746667 209.991858 
L 229.883333 211.788422 
L 206.02 210.76849 
L 182.156667 209.754323 
L 158.293333 210.351328 
L 152.048787 206.347113 
L 136.308916 190.956403 
L 134.43 188.876681 
L 123.030019 173.39493 
L 110.566667 155.647136 
L 110.339489 154.013971 
L 110.566667 141.849617 
L 111.406096 133.590571 
L 110.566667 129.869698 
L 109.88637 113.137869 
L 108.762713 93.757994 
L 110.566667 78.765186 
L 112.633235 76.198006 
L 110.566667 73.685355 
L 108.968935 60.808896 
L 109.019596 47.600163 
L 109.502131 36.380776 
L 110.566667 29.116069 
L 122.674062 26.88 
" clip-path="url(#p4b28267526)" style="fill: none; stroke-dasharray: 1.85,0.8; stroke-dashoffset: 0; stroke: #000000; stroke-width: 0.5"/>
    <path d="M 303.457458 26.88 
L 301.473333 34.490782 
L 291.574433 35.102065 
M 279.179836 47.203477 
L 279.274736 47.600163 
L 301.473333 60.275583 
L 301.577369 60.808896 
L 301.750632 76.198006 
L 302.598246 93.757994 
L 303.859318 113.137869 
L 301.867001 133.590571 
L 301.830071 154.013971 
L 301.473333 169.657563 
L 300.384078 173.39493 
L 282.037057 190.956403 
L 277.61 193.736162 
L 253.746667 197.779598 
L 229.883333 201.670973 
L 206.02 199.944607 
L 182.156667 199.461279 
L 158.293333 200.312502 
L 146.980717 190.956403 
L 134.43 177.06435 
L 131.728024 173.39493 
L 120.160871 154.013971 
L 120.782629 133.590571 
L 117.599665 113.137869 
L 110.566667 97.041591 
L 110.370695 93.757994 
L 110.566667 92.129257 
L 123.391255 76.198006 
L 110.810356 60.808896 
L 111.064874 47.600163 
L 116.219007 36.380776 
L 134.43 30.786168 
L 158.293333 27.206921 
L 159.198657 26.88 
" clip-path="url(#p4b28267526)" style="fill: none; stroke-dasharray: 1.85,0.8; stroke-dashoffset: 0; stroke: #000000; stroke-width: 0.5"/>
    <path d="M 194.187882 26.88 
L 206.02 30.332847 
L 213.203464 26.88 
M 301.970965 26.88 
L 301.473333 28.788835 
L 277.61 30.044602 
L 253.746667 32.749692 
L 229.883333 35.184669 
L 226.057542 36.380776 
L 229.883333 37.738808 
L 253.746667 39.330547 
L 262.024131 47.600163 
L 277.61 54.850855 
L 288.047594 60.808896 
L 289.848281 76.198006 
L 295.455156 87.77157 
M 302.364589 112.617449 
L 302.400128 113.137869 
L 301.473333 122.495192 
L 290.640817 133.590571 
L 291.696394 154.013971 
L 279.972678 173.39493 
L 277.61 175.800369 
L 253.746667 185.869512 
L 238.15974 190.956403 
L 229.883333 192.817799 
L 215.095269 190.956403 
L 206.02 189.28162 
L 182.156667 189.873018 
L 168.062404 190.956403 
L 158.293333 191.48639 
L 157.652517 190.956403 
L 144.455698 173.39493 
L 134.43 159.769061 
L 131.212272 154.013971 
L 130.159163 133.590571 
L 129.371735 113.137869 
L 118.809429 93.757994 
L 134.149275 76.198006 
L 126.454599 60.808896 
L 121.241593 47.600163 
L 131.944451 36.380776 
L 134.43 35.617189 
L 158.293333 32.682014 
L 174.360533 26.88 
" clip-path="url(#p4b28267526)" style="fill: none; stroke-dasharray: 1.85,0.8; stroke-dashoffset: 0; stroke: #000000; stroke-width: 0.5"/>
    <path d="M 234.485887 26.88 
L 229.883333 28.111985 
L 227.408901 26.88 
M 249.924075 52.772942 
L 253.746667 54.310385 
L 269.33018 60.808896 
L 275.940528 76.198006 
L 277.61 78.620734 
L 286.885211 93.757994 
L 291.27984 113.137869 
L 277.61 130.293046 
L 275.39818 133.590571 
L 277.61 142.608517 
L 279.107442 154.013971 
L 277.61 156.31197 
L 253.746667 172.410055 
L 240.002407 173.39493 
L 229.883333 173.856763 
L 206.02 176.301745 
L 182.156667 177.367599 
L 161.456202 173.39493 
L 158.293333 172.511027 
L 144.238342 154.013971 
L 141.609996 133.590571 
L 143.640262 113.137869 
L 134.43 104.184155 
L 128.196196 93.757994 
L 134.43 86.638577 
L 149.163936 76.198006 
L 140.760571 60.808896 
L 134.43 52.572526 
L 131.418312 47.600163 
L 134.43 44.682232 
L 158.293333 39.241963 
L 182.156667 38.432403 
L 206.02 39.890516 
L 223.544221 44.207406 
" clip-path="url(#p4b28267526)" style="fill: none; stroke-dasharray: 1.85,0.8; stroke-dashoffset: 0; stroke: #000000; stroke-width: 0.5"/>
    <path d="M 205.307045 157.750524 
L 193.191103 154.013971 
L 191.217364 133.590571 
L 206.02 122.310859 
L 229.402345 113.137869 
L 206.02 111.004953 
L 183.313169 113.137869 
L 182.156667 114.434137 
L 175.515998 133.590571 
L 160.302574 154.013971 
L 158.293333 154.300628 
L 158.075517 154.013971 
L 154.795947 133.590571 
L 158.293333 118.432899 
L 180.49821 113.137869 
L 158.293333 111.156215 
L 141.403868 93.757994 
L 158.293333 81.952782 
L 171.718318 76.198006 
L 158.293333 68.106397 
L 153.674774 60.808896 
L 158.293333 49.28364 
L 176.295387 60.808896 
L 182.156667 65.02747 
L 189.264089 60.808896 
L 206.02 57.26629 
L 219.826468 60.808896 
L 229.883333 63.665999 
L 253.746667 67.013727 
L 263.041257 76.198006 
L 273.902758 93.757994 
L 253.746667 110.337116 
L 230.256881 113.137869 
L 229.883333 115.527685 
L 227.204746 133.590571 
L 223.769357 141.765965 
M 206.02 67.399802 
L 193.060672 76.198006 
L 206.02 80.589995 
L 213.052158 76.198006 
L 206.02 67.399802 
z
" clip-path="url(#p4b28267526)" style="fill: none; stroke-dasharray: 1.85,0.8; stroke-dashoffset: 0; stroke: #000000; stroke-width: 0.5"/>
    <path d="M 240.456631 98.372452 
L 229.883333 101.531428 
L 206.02 95.307113 
L 182.156667 97.034905 
L 169.747079 93.757994 
L 182.156667 89.787475 
L 206.02 92.575246 
L 229.883333 78.92746 
L 244.673598 86.744555 
" clip-path="url(#p4b28267526)" style="fill: none; stroke-dasharray: 1.85,0.8; stroke-dashoffset: 0; stroke: #000000; stroke-width: 0.5"/>
    <path clip-path="url(#p4b28267526)" style="fill: none; stroke-dasharray: 1.85,0.8; stroke-dashoffset: 0; stroke: #000000; stroke-width: 0.5"/>
   </g>
   <g id="patch_3">
    <path d="M 62.84 240.28 
L 62.84 26.88 
" style="fill: none; stroke: #000000; stroke-width: 0.8; stroke-linejoin: miter; stroke-linecap: square"/>
   </g>
   <g id="patch_4">
    <path d="M 349.2 240.28 
L 349.2 26.88 
" style="fill: none; stroke: #000000; stroke-width: 0.8; stroke-linejoin: miter; stroke-linecap: square"/>
   </g>
   <g id="patch_5">
    <path d="M 62.84 240.28 
L 349.2 240.28 
" style="fill: none; stroke: #000000; stroke-width: 0.8; stroke-linejoin: miter; stroke-linecap: square"/>
   </g>
   <g id="patch_6">
    <path d="M 62.84 26.88 
L 349.2 26.88 
" style="fill: none; stroke: #000000; stroke-width: 0.8; stroke-linejoin: miter; stroke-linecap: square"/>
   </g>
   <g id="text_11">
    <!-- Band Overall -->
    <g transform="translate(167.264688 20.88) scale(0.12 -0.12)">
     <defs>
      <path id="DejaVuSans-42" d="M 1259 2228 
L 1259 519 
L 2272 519 
Q 2781 519 3026 730 
Q 3272 941 3272 1375 
Q 3272 1813 3026 2020 
Q 2781 2228 2272 2228 
L 1259 2228 
z
M 1259 4147 
L 1259 2741 
L 2194 2741 
Q 2656 2741 2882 2914 
Q 3109 3088 3109 3444 
Q 3109 3797 2882 3972 
Q 2656 4147 2194 4147 
L 1259 4147 
z
M 628 4666 
L 2241 4666 
Q 2963 4666 3353 4366 
Q 3744 4066 3744 3513 
Q 3744 3084 3544 2831 
Q 3344 2578 2956 2516 
Q 3422 2416 3680 2098 
Q 3938 1781 3938 1306 
Q 3938 681 3513 340 
Q 3088 0 2303 0 
L 628 0 
L 628 4666 
z
" transform="scale(0.015625)"/>
      <path id="DejaVuSans-61" d="M 2194 1759 
Q 1497 1759 1228 1600 
Q 959 1441 959 1056 
Q 959 750 1161 570 
Q 1363 391 1709 391 
Q 2188 391 2477 730 
Q 2766 1069 2766 1631 
L 2766 1759 
L 2194 1759 
z
M 3341 1997 
L 3341 0 
L 2766 0 
L 2766 531 
Q 2569 213 2275 61 
Q 1981 -91 1556 -91 
Q 1019 -91 701 211 
Q 384 513 384 1019 
Q 384 1609 779 1909 
Q 1175 2209 1959 2209 
L 2766 2209 
L 2766 2266 
Q 2766 2663 2505 2880 
Q 2244 3097 1772 3097 
Q 1472 3097 1187 3025 
Q 903 2953 641 2809 
L 641 3341 
Q 956 3463 1253 3523 
Q 1550 3584 1831 3584 
Q 2591 3584 2966 3190 
Q 3341 2797 3341 1997 
z
" transform="scale(0.015625)"/>
      <path id="DejaVuSans-6e" d="M 3513 2113 
L 3513 0 
L 2938 0 
L 2938 2094 
Q 2938 2591 2744 2837 
Q 2550 3084 2163 3084 
Q 1697 3084 1428 2787 
Q 1159 2491 1159 1978 
L 1159 0 
L 581 0 
L 581 3500 
L 1159 3500 
L 1159 2956 
Q 1366 3272 1645 3428 
Q 1925 3584 2291 3584 
Q 2894 3584 3203 3211 
Q 3513 2838 3513 2113 
z
" transform="scale(0.015625)"/>
      <path id="DejaVuSans-64" d="M 2906 2969 
L 2906 4863 
L 3481 4863 
L 3481 0 
L 2906 0 
L 2906 525 
Q 2725 213 2448 61 
Q 2172 -91 1784 -91 
Q 1150 -91 751 415 
Q 353 922 353 1747 
Q 353 2572 751 3078 
Q 1150 3584 1784 3584 
Q 2172 3584 2448 3432 
Q 2725 3281 2906 2969 
z
M 947 1747 
Q 947 1113 1208 752 
Q 1469 391 1925 391 
Q 2381 391 2643 752 
Q 2906 1113 2906 1747 
Q 2906 2381 2643 2742 
Q 2381 3103 1925 3103 
Q 1469 3103 1208 2742 
Q 947 2381 947 1747 
z
" transform="scale(0.015625)"/>
      <path id="DejaVuSans-20" transform="scale(0.015625)"/>
      <path id="DejaVuSans-4f" d="M 2522 4238 
Q 1834 4238 1429 3725 
Q 1025 3213 1025 2328 
Q 1025 1447 1429 934 
Q 1834 422 2522 422 
Q 3209 422 3611 934 
Q 4013 1447 4013 2328 
Q 4013 3213 3611 3725 
Q 3209 4238 2522 4238 
z
M 2522 4750 
Q 3503 4750 4090 4092 
Q 4678 3434 4678 2328 
Q 4678 1225 4090 567 
Q 3503 -91 2522 -91 
Q 1538 -91 948 565 
Q 359 1222 359 2328 
Q 359 3434 948 4092 
Q 1538 4750 2522 4750 
z
" transform="scale(0.015625)"/>
      <path id="DejaVuSans-76" d="M 191 3500 
L 800 3500 
L 1894 563 
L 2988 3500 
L 3597 3500 
L 2284 0 
L 1503 0 
L 191 3500 
z
" transform="scale(0.015625)"/>
      <path id="DejaVuSans-65" d="M 3597 1894 
L 3597 1613 
L 953 1613 
Q 991 1019 1311 708 
Q 1631 397 2203 397 
Q 2534 397 2845 478 
Q 3156 559 3463 722 
L 3463 178 
Q 3153 47 2828 -22 
Q 2503 -91 2169 -91 
Q 1331 -91 842 396 
Q 353 884 353 1716 
Q 353 2575 817 3079 
Q 1281 3584 2069 3584 
Q 2775 3584 3186 3129 
Q 3597 2675 3597 1894 
z
M 3022 2063 
Q 3016 2534 2758 2815 
Q 2500 3097 2075 3097 
Q 1594 3097 1305 2825 
Q 1016 2553 972 2059 
L 3022 2063 
z
" transform="scale(0.015625)"/>
      <path id="DejaVuSans-72" d="M 2631 2963 
Q 2534 3019 2420 3045 
Q 2306 3072 2169 3072 
Q 1681 3072 1420 2755 
Q 1159 2438 1159 1844 
L 1159 0 
L 581 0 
L 581 3500 
L 1159 3500 
L 1159 2956 
Q 1341 3275 1631 3429 
Q 1922 3584 2338 3584 
Q 2397 3584 2469 3576 
Q 2541 3569 2628 3553 
L 2631 2963 
z
" transform="scale(0.015625)"/>
      <path id="DejaVuSans-6c" d="M 603 4863 
L 1178 4863 
L 1178 0 
L 603 0 
L 603 4863 
z
" transform="scale(0.015625)"/>
     </defs>
     <use xlink:href="#DejaVuSans-42"/>
     <use xlink:href="#DejaVuSans-61" transform="translate(68.603516 0)"/>
     <use xlink:href="#DejaVuSans-6e" transform="translate(129.882812 0)"/>
     <use xlink:href="#DejaVuSans-64" transform="translate(193.261719 0)"/>
     <use xlink:href="#DejaVuSans-20" transform="translate(256.738281 0)"/>
     <use xlink:href="#DejaVuSans-4f" transform="translate(288.525391 0)"/>
     <use xlink:href="#DejaVuSans-76" transform="translate(367.236328 0)"/>
     <use xlink:href="#DejaVuSans-65" transform="translate(426.416016 0)"/>
     <use xlink:href="#DejaVuSans-72" transform="translate(487.939453 0)"/>
     <use xlink:href="#DejaVuSans-61" transform="translate(529.052734 0)"/>
     <use xlink:href="#DejaVuSans-6c" transform="translate(590.332031 0)"/>
     <use xlink:href="#DejaVuSans-6c" transform="translate(618.115234 0)"/>
    </g>
   </g>
   <g id="text_12">
    <g clip-path="url(#p4b28267526)">
     <!-- 75.6 -->
     <g transform="translate(326.651376 143.615716) rotate(-89.869877) scale(0.09 -0.09)">
      <defs>
       <path id="DejaVuSans-37" d="M 525 4666 
L 3525 4666 
L 3525 4397 
L 1831 0 
L 1172 0 
L 2766 4134 
L 525 4134 
L 525 4666 
z
" transform="scale(0.015625)"/>
       <path id="DejaVuSans-2e" d="M 684 794 
L 1344 794 
L 1344 0 
L 684 0 
L 684 794 
z
" transform="scale(0.015625)"/>
       <path id="DejaVuSans-36" d="M 2113 2584 
Q 1688 2584 1439 2293 
Q 1191 2003 1191 1497 
Q 1191 994 1439 701 
Q 1688 409 2113 409 
Q 2538 409 2786 701 
Q 3034 994 3034 1497 
Q 3034 2003 2786 2293 
Q 2538 2584 2113 2584 
z
M 3366 4563 
L 3366 3988 
Q 3128 4100 2886 4159 
Q 2644 4219 2406 4219 
Q 1781 4219 1451 3797 
Q 1122 3375 1075 2522 
Q 1259 2794 1537 2939 
Q 1816 3084 2150 3084 
Q 2853 3084 3261 2657 
Q 3669 2231 3669 1497 
Q 3669 778 3244 343 
Q 2819 -91 2113 -91 
Q 1303 -91 875 529 
Q 447 1150 447 2328 
Q 447 3434 972 4092 
Q 1497 4750 2381 4750 
Q 2619 4750 2861 4703 
Q 3103 4656 3366 4563 
z
" transform="scale(0.015625)"/>
      </defs>
      <use xlink:href="#DejaVuSans-37"/>
      <use xlink:href="#DejaVuSans-35" transform="translate(63.623047 0)"/>
      <use xlink:href="#DejaVuSans-2e" transform="translate(127.246094 0)"/>
      <use xlink:href="#DejaVuSans-36" transform="translate(159.033203 0)"/>
     </g>
    </g>
   </g>
   <g id="text_13">
    <g clip-path="url(#p4b28267526)">
     <!-- 75.6 -->
     <g transform="translate(85.472786 123.57239) rotate(-270.031135) scale(0.09 -0.09)">
      <use xlink:href="#DejaVuSans-37"/>
      <use xlink:href="#DejaVuSans-35" transform="translate(63.623047 0)"/>
      <use xlink:href="#DejaVuSans-2e" transform="translate(127.246094 0)"/>
      <use xlink:href="#DejaVuSans-36" transform="translate(159.033203 0)"/>
     </g>
    </g>
   </g>
   <g id="text_14">
    <g clip-path="url(#p4b28267526)">
     <!-- 76.2 -->
     <g transform="translate(325.025135 143.623442) rotate(-89.688828) scale(0.09 -0.09)">
      <use xlink:href="#DejaVuSans-37"/>
      <use xlink:href="#DejaVuSans-36" transform="translate(63.623047 0)"/>
      <use xlink:href="#DejaVuSans-2e" transform="translate(127.246094 0)"/>
      <use xlink:href="#DejaVuSans-32" transform="translate(159.033203 0)"/>
     </g>
    </g>
   </g>
   <g id="text_15">
    <g clip-path="url(#p4b28267526)">
     <!-- 76.2 -->
     <g transform="translate(87.216116 123.574275) rotate(-270.074457) scale(0.09 -0.09)">
      <use xlink:href="#DejaVuSans-37"/>
      <use xlink:href="#DejaVuSans-36" transform="translate(63.623047 0)"/>
      <use xlink:href="#DejaVuSans-2e" transform="translate(127.246094 0)"/>
      <use xlink:href="#DejaVuSans-32" transform="translate(159.033203 0)"/>
     </g>
    </g>
   </g>
   <g id="text_16">
    <g clip-path="url(#p4b28267526)">
     <!-- 76.8 -->
     <g transform="translate(323.398875 143.631066) rotate(-89.507802) scale(0.09 -0.09)">
      <defs>
       <path id="DejaVuSans-38" d="M 2034 2216 
Q 1584 2216 1326 1975 
Q 1069 1734 1069 1313 
Q 1069 891 1326 650 
Q 1584 409 2034 409 
Q 2484 409 2743 651 
Q 3003 894 3003 1313 
Q 3003 1734 2745 1975 
Q 2488 2216 2034 2216 
z
M 1403 2484 
Q 997 2584 770 2862 
Q 544 3141 544 3541 
Q 544 4100 942 4425 
Q 1341 4750 2034 4750 
Q 2731 4750 3128 4425 
Q 3525 4100 3525 3541 
Q 3525 3141 3298 2862 
Q 3072 2584 2669 2484 
Q 3125 2378 3379 2068 
Q 3634 1759 3634 1313 
Q 3634 634 3220 271 
Q 2806 -91 2034 -91 
Q 1263 -91 848 271 
Q 434 634 434 1313 
Q 434 1759 690 2068 
Q 947 2378 1403 2484 
z
M 1172 3481 
Q 1172 3119 1398 2916 
Q 1625 2713 2034 2713 
Q 2441 2713 2670 2916 
Q 2900 3119 2900 3481 
Q 2900 3844 2670 4047 
Q 2441 4250 2034 4250 
Q 1625 4250 1398 4047 
Q 1172 3844 1172 3481 
z
" transform="scale(0.015625)"/>
      </defs>
      <use xlink:href="#DejaVuSans-37"/>
      <use xlink:href="#DejaVuSans-36" transform="translate(63.623047 0)"/>
      <use xlink:href="#DejaVuSans-2e" transform="translate(127.246094 0)"/>
      <use xlink:href="#DejaVuSans-38" transform="translate(159.033203 0)"/>
     </g>
    </g>
   </g>
   <g id="text_17">
    <g clip-path="url(#p4b28267526)">
     <!-- 76.8 -->
     <g transform="translate(88.959447 123.576166) rotate(-270.117777) scale(0.09 -0.09)">
      <use xlink:href="#DejaVuSans-37"/>
      <use xlink:href="#DejaVuSans-36" transform="translate(63.623047 0)"/>
      <use xlink:href="#DejaVuSans-2e" transform="translate(127.246094 0)"/>
      <use xlink:href="#DejaVuSans-38" transform="translate(159.033203 0)"/>
     </g>
    </g>
   </g>
   <g id="text_18">
    <g clip-path="url(#p4b28267526)">
     <!-- 77.4 -->
     <g transform="translate(321.772596 143.638588) rotate(-89.326813) scale(0.09 -0.09)">
      <use xlink:href="#DejaVuSans-37"/>
      <use xlink:href="#DejaVuSans-37" transform="translate(63.623047 0)"/>
      <use xlink:href="#DejaVuSans-2e" transform="translate(127.246094 0)"/>
      <use xlink:href="#DejaVuSans-34" transform="translate(159.033203 0)"/>
     </g>
    </g>
   </g>
   <g id="text_19">
    <g clip-path="url(#p4b28267526)">
     <!-- 77.4 -->
     <g transform="translate(90.70278 123.578062) rotate(-270.161094) scale(0.09 -0.09)">
      <use xlink:href="#DejaVuSans-37"/>
      <use xlink:href="#DejaVuSans-37" transform="translate(63.623047 0)"/>
      <use xlink:href="#DejaVuSans-2e" transform="translate(127.246094 0)"/>
      <use xlink:href="#DejaVuSans-34" transform="translate(159.033203 0)"/>
     </g>
    </g>
   </g>
   <g id="text_20">
    <g clip-path="url(#p4b28267526)">
     <!-- 78.0 -->
     <g transform="translate(320.146303 143.646009) rotate(-89.145876) scale(0.09 -0.09)">
      <use xlink:href="#DejaVuSans-37"/>
      <use xlink:href="#DejaVuSans-38" transform="translate(63.623047 0)"/>
      <use xlink:href="#DejaVuSans-2e" transform="translate(127.246094 0)"/>
      <use xlink:href="#DejaVuSans-30" transform="translate(159.033203 0)"/>
     </g>
    </g>
   </g>
   <g id="text_21">
    <g clip-path="url(#p4b28267526)">
     <!-- 78.0 -->
     <g transform="translate(92.446115 123.579963) rotate(-270.204407) scale(0.09 -0.09)">
      <use xlink:href="#DejaVuSans-37"/>
      <use xlink:href="#DejaVuSans-38" transform="translate(63.623047 0)"/>
      <use xlink:href="#DejaVuSans-2e" transform="translate(127.246094 0)"/>
      <use xlink:href="#DejaVuSans-30" transform="translate(159.033203 0)"/>
     </g>
    </g>
   </g>
   <g id="text_22">
    <g clip-path="url(#p4b28267526)">
     <!-- 78.6 -->
     <g transform="translate(318.519999 143.653326) rotate(-88.965002) scale(0.09 -0.09)">
      <use xlink:href="#DejaVuSans-37"/>
      <use xlink:href="#DejaVuSans-38" transform="translate(63.623047 0)"/>
      <use xlink:href="#DejaVuSans-2e" transform="translate(127.246094 0)"/>
      <use xlink:href="#DejaVuSans-36" transform="translate(159.033203 0)"/>
     </g>
    </g>
   </g>
   <g id="text_23">
    <g clip-path="url(#p4b28267526)">
     <!-- 78.6 -->
     <g transform="translate(94.189453 123.58187) rotate(-270.247714) scale(0.09 -0.09)">
      <use xlink:href="#DejaVuSans-37"/>
      <use xlink:href="#DejaVuSans-38" transform="translate(63.623047 0)"/>
      <use xlink:href="#DejaVuSans-2e" transform="translate(127.246094 0)"/>
      <use xlink:href="#DejaVuSans-36" transform="translate(159.033203 0)"/>
     </g>
    </g>
   </g>
   <g id="text_24">
    <g clip-path="url(#p4b28267526)">
     <!-- 79.2 -->
     <g transform="translate(316.893685 143.66054) rotate(-88.784207) scale(0.09 -0.09)">
      <defs>
       <path id="DejaVuSans-39" d="M 703 97 
L 703 672 
Q 941 559 1184 500 
Q 1428 441 1663 441 
Q 2288 441 2617 861 
Q 2947 1281 2994 2138 
Q 2813 1869 2534 1725 
Q 2256 1581 1919 1581 
Q 1219 1581 811 2004 
Q 403 2428 403 3163 
Q 403 3881 828 4315 
Q 1253 4750 1959 4750 
Q 2769 4750 3195 4129 
Q 3622 3509 3622 2328 
Q 3622 1225 3098 567 
Q 2575 -91 1691 -91 
Q 1453 -91 1209 -44 
Q 966 3 703 97 
z
M 1959 2075 
Q 2384 2075 2632 2365 
Q 2881 2656 2881 3163 
Q 2881 3666 2632 3958 
Q 2384 4250 1959 4250 
Q 1534 4250 1286 3958 
Q 1038 3666 1038 3163 
Q 1038 2656 1286 2365 
Q 1534 2075 1959 2075 
z
" transform="scale(0.015625)"/>
      </defs>
      <use xlink:href="#DejaVuSans-37"/>
      <use xlink:href="#DejaVuSans-39" transform="translate(63.623047 0)"/>
      <use xlink:href="#DejaVuSans-2e" transform="translate(127.246094 0)"/>
      <use xlink:href="#DejaVuSans-32" transform="translate(159.033203 0)"/>
     </g>
    </g>
   </g>
   <g id="text_25">
    <g clip-path="url(#p4b28267526)">
     <!-- 79.2 -->
     <g transform="translate(95.932794 123.583782) rotate(-270.291015) scale(0.09 -0.09)">
      <use xlink:href="#DejaVuSans-37"/>
      <use xlink:href="#DejaVuSans-39" transform="translate(63.623047 0)"/>
      <use xlink:href="#DejaVuSans-2e" transform="translate(127.246094 0)"/>
      <use xlink:href="#DejaVuSans-32" transform="translate(159.033203 0)"/>
     </g>
    </g>
   </g>
   <g id="text_26">
    <g clip-path="url(#p4b28267526)">
     <!-- 79.8 -->
     <g transform="translate(315.267364 143.66765) rotate(-88.603504) scale(0.09 -0.09)">
      <use xlink:href="#DejaVuSans-37"/>
      <use xlink:href="#DejaVuSans-39" transform="translate(63.623047 0)"/>
      <use xlink:href="#DejaVuSans-2e" transform="translate(127.246094 0)"/>
      <use xlink:href="#DejaVuSans-38" transform="translate(159.033203 0)"/>
     </g>
    </g>
   </g>
   <g id="text_27">
    <g clip-path="url(#p4b28267526)">
     <!-- 79.8 -->
     <g transform="translate(97.676137 123.5857) rotate(-270.334308) scale(0.09 -0.09)">
      <use xlink:href="#DejaVuSans-37"/>
      <use xlink:href="#DejaVuSans-39" transform="translate(63.623047 0)"/>
      <use xlink:href="#DejaVuSans-2e" transform="translate(127.246094 0)"/>
      <use xlink:href="#DejaVuSans-38" transform="translate(159.033203 0)"/>
     </g>
    </g>
   </g>
   <g id="text_28">
    <g clip-path="url(#p4b28267526)">
     <!-- 80.4 -->
     <g transform="translate(313.64104 143.674656) rotate(-88.422905) scale(0.09 -0.09)">
      <use xlink:href="#DejaVuSans-38"/>
      <use xlink:href="#DejaVuSans-30" transform="translate(63.623047 0)"/>
      <use xlink:href="#DejaVuSans-2e" transform="translate(127.246094 0)"/>
      <use xlink:href="#DejaVuSans-34" transform="translate(159.033203 0)"/>
     </g>
    </g>
   </g>
   <g id="text_29">
    <g clip-path="url(#p4b28267526)">
     <!-- 80.4 -->
     <g transform="translate(99.419483 123.587623) rotate(-270.377593) scale(0.09 -0.09)">
      <use xlink:href="#DejaVuSans-38"/>
      <use xlink:href="#DejaVuSans-30" transform="translate(63.623047 0)"/>
      <use xlink:href="#DejaVuSans-2e" transform="translate(127.246094 0)"/>
      <use xlink:href="#DejaVuSans-34" transform="translate(159.033203 0)"/>
     </g>
    </g>
   </g>
   <g id="text_30">
    <g clip-path="url(#p4b28267526)">
     <!-- 81.0 -->
     <g transform="translate(312.014714 143.681557) rotate(-88.242426) scale(0.09 -0.09)">
      <defs>
       <path id="DejaVuSans-31" d="M 794 531 
L 1825 531 
L 1825 4091 
L 703 3866 
L 703 4441 
L 1819 4666 
L 2450 4666 
L 2450 531 
L 3481 531 
L 3481 0 
L 794 0 
L 794 531 
z
" transform="scale(0.015625)"/>
      </defs>
      <use xlink:href="#DejaVuSans-38"/>
      <use xlink:href="#DejaVuSans-31" transform="translate(63.623047 0)"/>
      <use xlink:href="#DejaVuSans-2e" transform="translate(127.246094 0)"/>
      <use xlink:href="#DejaVuSans-30" transform="translate(159.033203 0)"/>
     </g>
    </g>
   </g>
   <g id="text_31">
    <g clip-path="url(#p4b28267526)">
     <!-- 81.0 -->
     <g transform="translate(101.162832 123.589552) rotate(-270.420868) scale(0.09 -0.09)">
      <use xlink:href="#DejaVuSans-38"/>
      <use xlink:href="#DejaVuSans-31" transform="translate(63.623047 0)"/>
      <use xlink:href="#DejaVuSans-2e" transform="translate(127.246094 0)"/>
      <use xlink:href="#DejaVuSans-30" transform="translate(159.033203 0)"/>
     </g>
    </g>
   </g>
   <g id="text_32">
    <g clip-path="url(#p4b28267526)">
     <!-- 81.6 -->
     <g transform="translate(310.388391 143.688353) rotate(-88.062078) scale(0.09 -0.09)">
      <use xlink:href="#DejaVuSans-38"/>
      <use xlink:href="#DejaVuSans-31" transform="translate(63.623047 0)"/>
      <use xlink:href="#DejaVuSans-2e" transform="translate(127.246094 0)"/>
      <use xlink:href="#DejaVuSans-36" transform="translate(159.033203 0)"/>
     </g>
    </g>
   </g>
   <g id="text_33">
    <g clip-path="url(#p4b28267526)">
     <!-- 81.6 -->
     <g transform="translate(102.191976 144.130376) rotate(-272.851208) scale(0.09 -0.09)">
      <use xlink:href="#DejaVuSans-38"/>
      <use xlink:href="#DejaVuSans-31" transform="translate(63.623047 0)"/>
      <use xlink:href="#DejaVuSans-2e" transform="translate(127.246094 0)"/>
      <use xlink:href="#DejaVuSans-36" transform="translate(159.033203 0)"/>
     </g>
    </g>
   </g>
   <g id="text_34">
    <g clip-path="url(#p4b28267526)">
     <!-- 82.2 -->
     <g transform="translate(306.393113 201.134041) rotate(-85.696499) scale(0.09 -0.09)">
      <use xlink:href="#DejaVuSans-38"/>
      <use xlink:href="#DejaVuSans-32" transform="translate(63.623047 0)"/>
      <use xlink:href="#DejaVuSans-2e" transform="translate(127.246094 0)"/>
      <use xlink:href="#DejaVuSans-32" transform="translate(159.033203 0)"/>
     </g>
    </g>
   </g>
   <g id="text_35">
    <g clip-path="url(#p4b28267526)">
     <!-- 82.2 -->
     <g transform="translate(111.554041 201.027569) rotate(-88.753975) scale(0.09 -0.09)">
      <use xlink:href="#DejaVuSans-38"/>
      <use xlink:href="#DejaVuSans-32" transform="translate(63.623047 0)"/>
      <use xlink:href="#DejaVuSans-2e" transform="translate(127.246094 0)"/>
      <use xlink:href="#DejaVuSans-32" transform="translate(159.033203 0)"/>
     </g>
    </g>
   </g>
   <g id="text_36">
    <g clip-path="url(#p4b28267526)">
     <!-- 82.8 -->
     <g transform="translate(296.749198 230.644474) rotate(-48.844014) scale(0.09 -0.09)">
      <use xlink:href="#DejaVuSans-38"/>
      <use xlink:href="#DejaVuSans-32" transform="translate(63.623047 0)"/>
      <use xlink:href="#DejaVuSans-2e" transform="translate(127.246094 0)"/>
      <use xlink:href="#DejaVuSans-38" transform="translate(159.033203 0)"/>
     </g>
    </g>
   </g>
   <g id="text_37">
    <g clip-path="url(#p4b28267526)">
     <!-- 83.4 -->
     <g transform="translate(305.088311 37.201707) rotate(-76.880524) scale(0.09 -0.09)">
      <defs>
       <path id="DejaVuSans-33" d="M 2597 2516 
Q 3050 2419 3304 2112 
Q 3559 1806 3559 1356 
Q 3559 666 3084 287 
Q 2609 -91 1734 -91 
Q 1441 -91 1130 -33 
Q 819 25 488 141 
L 488 750 
Q 750 597 1062 519 
Q 1375 441 1716 441 
Q 2309 441 2620 675 
Q 2931 909 2931 1356 
Q 2931 1769 2642 2001 
Q 2353 2234 1838 2234 
L 1294 2234 
L 1294 2753 
L 1863 2753 
Q 2328 2753 2575 2939 
Q 2822 3125 2822 3475 
Q 2822 3834 2567 4026 
Q 2313 4219 1838 4219 
Q 1578 4219 1281 4162 
Q 984 4106 628 3988 
L 628 4550 
Q 988 4650 1302 4700 
Q 1616 4750 1894 4750 
Q 2613 4750 3031 4423 
Q 3450 4097 3450 3541 
Q 3450 3153 3228 2886 
Q 3006 2619 2597 2516 
z
" transform="scale(0.015625)"/>
      </defs>
      <use xlink:href="#DejaVuSans-38"/>
      <use xlink:href="#DejaVuSans-33" transform="translate(63.623047 0)"/>
      <use xlink:href="#DejaVuSans-2e" transform="translate(127.246094 0)"/>
      <use xlink:href="#DejaVuSans-34" transform="translate(159.033203 0)"/>
     </g>
    </g>
   </g>
   <g id="text_38">
    <g clip-path="url(#p4b28267526)">
     <!-- 84.0 -->
     <g transform="translate(272.065207 44.671514) rotate(-43.589752) scale(0.09 -0.09)">
      <use xlink:href="#DejaVuSans-38"/>
      <use xlink:href="#DejaVuSans-34" transform="translate(63.623047 0)"/>
      <use xlink:href="#DejaVuSans-2e" transform="translate(127.246094 0)"/>
      <use xlink:href="#DejaVuSans-30" transform="translate(159.033203 0)"/>
     </g>
    </g>
   </g>
   <g id="text_39">
    <g clip-path="url(#p4b28267526)">
     <!-- 84.6 -->
     <g transform="translate(296.509921 90.515361) rotate(-284.818483) scale(0.09 -0.09)">
      <use xlink:href="#DejaVuSans-38"/>
      <use xlink:href="#DejaVuSans-34" transform="translate(63.623047 0)"/>
      <use xlink:href="#DejaVuSans-2e" transform="translate(127.246094 0)"/>
      <use xlink:href="#DejaVuSans-36" transform="translate(159.033203 0)"/>
     </g>
    </g>
   </g>
   <g id="text_40">
    <g clip-path="url(#p4b28267526)">
     <!-- 85.2 -->
     <g transform="translate(226.783071 46.659437) rotate(-340.850524) scale(0.09 -0.09)">
      <use xlink:href="#DejaVuSans-38"/>
      <use xlink:href="#DejaVuSans-35" transform="translate(63.623047 0)"/>
      <use xlink:href="#DejaVuSans-2e" transform="translate(127.246094 0)"/>
      <use xlink:href="#DejaVuSans-32" transform="translate(159.033203 0)"/>
     </g>
    </g>
   </g>
   <g id="text_41">
    <g clip-path="url(#p4b28267526)">
     <!-- 85.8 -->
     <g transform="translate(213.064901 162.71284) rotate(-43.504711) scale(0.09 -0.09)">
      <use xlink:href="#DejaVuSans-38"/>
      <use xlink:href="#DejaVuSans-35" transform="translate(63.623047 0)"/>
      <use xlink:href="#DejaVuSans-2e" transform="translate(127.246094 0)"/>
      <use xlink:href="#DejaVuSans-38" transform="translate(159.033203 0)"/>
     </g>
    </g>
   </g>
   <g id="text_42">
    <g clip-path="url(#p4b28267526)">
     <!-- 86.4 -->
     <g transform="translate(252.211989 104.609797) rotate(-67.529379) scale(0.09 -0.09)">
      <use xlink:href="#DejaVuSans-38"/>
      <use xlink:href="#DejaVuSans-36" transform="translate(63.623047 0)"/>
      <use xlink:href="#DejaVuSans-2e" transform="translate(127.246094 0)"/>
      <use xlink:href="#DejaVuSans-34" transform="translate(159.033203 0)"/>
     </g>
    </g>
   </g>
  </g>
 </g>
 <defs>
  <clipPath id="p4b28267526">
   <rect x="62.84" y="26.88" width="286.36" height="213.4"/>
  </clipPath>
 </defs>
</svg>
